<?xml version="1.0" encoding="utf-8"?>
<!-- Generator: Adobe Illustrator 15.0.2, SVG Export Plug-In . SVG Version: 6.00 Build 0)  -->
<!DOCTYPE svg PUBLIC "-//W3C//DTD SVG 1.1//EN" "http://www.w3.org/Graphics/SVG/1.1/DTD/svg11.dtd">
<svg version="1.1" xmlns="http://www.w3.org/2000/svg" xmlns:xlink="http://www.w3.org/1999/xlink" x="0px" y="0px"
	 width="522.022px" height="207.312px" viewBox="0 0 522.022 207.312" enable-background="new 0 0 522.022 207.312"
	 xml:space="preserve">
<g id="_x32_0_x25___PMS_2985_fill">
	<polygon fill="none" points="3.688,17.108 3.688,173.608 106.688,173.608 106.688,203.608 288.188,203.608 315.188,178.108 
		520.688,178.108 520.688,19.108 307.188,19.108 307.188,8.108 171.188,8.108 171.188,18.108 	"/>
</g>
<g id="_x33_0_x25__grey_fill">
	<rect x="388.522" y="18.942" fill="#D1D3D4" width="49.333" height="4.667"/>
	<rect x="296.188" y="18.608" fill="#D1D3D4" width="18.333" height="4.967"/>
	<rect x="171.688" y="10.608" fill="#D1D3D4" width="49.5" height="12.5"/>
	<rect x="79.438" y="17.858" fill="#D1D3D4" width="19" height="6.25"/>
	<rect x="512.188" y="17.275" fill="#D1D3D4" width="7" height="6.344"/>
	<polygon fill="#D1D3D4" points="299.688,194.858 299.688,172.108 341.938,172.108 341.938,178.608 314.938,178.608 	"/>
	<polygon fill="#D1D3D4" points="372.938,179.108 372.938,172.608 445.438,172.608 445.438,160.858 472.188,160.858 
		472.188,172.858 519.438,172.858 519.438,178.858 	"/>
</g>
<g id="icons">
	<polygon fill="#FFFFFF" stroke="#939598" points="177.356,123.275 177.356,184.442 268.023,184.442 268.023,203.275 
		157.356,203.275 157.356,122.609 	"/>
	<g>
		<polygon fill="none" stroke="#939598" points="99.516,122.186 101.165,122.237 101.18,146.013 99.509,146.025 		"/>
		<path fill="none" stroke="#939598" d="M100.262,146.044c13.114-0.445,23.383-11.246,22.936-24.359"/>
	</g>
	<g>
		<polygon fill="none" stroke="#939598" points="369.744,179.485 368.074,179.498 368.059,155.68 369.771,155.667 		"/>
		<path fill="none" stroke="#939598" d="M369.041,155.648c-13.115,0.445-23.383,11.289-22.936,24.402"/>
	</g>
	<g>
		<polygon fill="none" stroke="#939598" points="388.704,104.186 388.713,102.6 411.34,102.584 411.332,104.172 		"/>
		<path fill="none" stroke="#939598" d="M411.35,103.456c-0.424-12.458-10.664-22.214-23.121-21.788"/>
	</g>
	<g>
		<polygon fill="none" stroke="#939598" points="172.425,112.376 172.416,110.79 149.789,110.774 149.797,112.362 		"/>
		<path fill="none" stroke="#939598" d="M149.779,111.646c0.424-12.458,10.664-22.214,23.121-21.788"/>
	</g>
	<g>
		<polygon fill="none" stroke="#939598" points="389.021,119.276 389.013,120.862 366.386,120.878 366.394,119.29 		"/>
		<path fill="none" stroke="#939598" d="M366.376,120.006c0.424,12.458,10.664,22.214,23.121,21.788"/>
	</g>
	<g>
		<polygon fill="none" stroke="#939598" points="295.746,172.589 294.41,172.599 294.397,153.544 295.769,153.534 		"/>
		<path fill="none" stroke="#939598" d="M295.184,153.519c-10.492,0.357-18.706,9.031-18.349,19.522"/>
	</g>
	<g>
		<polygon fill="none" stroke="#939598" points="22.684,122.51 24.332,122.562 24.348,146.337 22.676,146.35 		"/>
		<path fill="none" stroke="#939598" d="M23.43,146.368c13.113-0.445,23.383-11.246,22.936-24.359"/>
	</g>
	<g>
		<polygon fill="none" stroke="#939598" points="396.779,111.019 398.428,111.07 398.443,134.846 396.771,134.858 		"/>
		<path fill="none" stroke="#939598" d="M397.525,134.877c13.113-0.445,23.383-11.246,22.936-24.359"/>
	</g>
	<g>
		<polygon fill="none" stroke="#939598" points="477.934,110.936 479.582,110.987 479.598,134.763 477.926,134.775 		"/>
		<path fill="none" stroke="#939598" d="M478.68,134.794c13.113-0.445,23.383-11.246,22.936-24.359"/>
	</g>
	<polyline fill="#FFFFFF" stroke="#A7A9AC" points="420.021,172.109 420.021,153.549 390.022,153.549 390.022,172.609 	"/>
	<line fill="none" stroke="#939598" x1="313.188" y1="136.941" x2="313.188" y2="171.941"/>
	<rect x="204.188" y="126.275" fill="#FFFFFF" stroke="#939598" width="54.333" height="22.333"/>
	<polyline fill="none" stroke="#939598" points="12.938,124.108 12.938,162.608 58.188,162.608 58.188,124.108 	"/>
	<polyline fill="#FFFFFF" stroke="#939598" points="157.022,156.358 138.512,156.358 138.512,123.608 156.522,123.608 	"/>
	<line fill="none" stroke="#939598" x1="5.938" y1="25.017" x2="172.188" y2="25.017"/>
	<line fill="none" stroke="#939598" x1="511.438" y1="24.858" x2="313.938" y2="24.858"/>
	<g>
		<polygon fill="none" stroke="#939598" points="322.235,167.127 322.244,165.541 344.871,165.525 344.863,167.113 		"/>
		<path fill="none" stroke="#939598" d="M344.881,166.397c-0.424-12.458-10.664-22.214-23.121-21.788"/>
	</g>
	<polyline fill="none" stroke="#939598" stroke-dasharray="1.5,1.5,1.5,1.5,1.5,1.5" points="11.101,123.608 11.101,164.474 
		59.804,164.474 59.804,123.608 	"/>
	
		<line fill="none" stroke="#939598" stroke-dasharray="1.5,1.5,1.5,1.5,1.5,1.5" x1="311.188" y1="136.608" x2="311.188" y2="172.358"/>
	<polyline fill="none" stroke="#939598" points="508.688,112.579 508.688,159.608 473.438,159.608 	"/>
	<polyline fill="none" stroke="#939598" stroke-dasharray="1.5,1.5,1.5,1.5,1.5,1.5" points="473.188,161.708 510.579,161.708 
		510.579,113.108 	"/>
	<g>
		<rect x="257.754" y="16.347" fill="none" stroke="#939598" width="37.5" height="1.508"/>
		<rect x="225.504" y="17.839" fill="none" stroke="#939598" width="41" height="1.508"/>
	</g>
	<g>
		<rect x="303.938" y="8.79" fill="none" stroke="#939598" width="2.875" height="2.875"/>
		<line fill="none" stroke="#939598" x1="304.188" y1="10.915" x2="220.313" y2="10.915"/>
		<line fill="none" stroke="#939598" x1="303.938" y1="11.665" x2="303.938" y2="18.343"/>
		<line fill="none" stroke="#939598" x1="220.313" y1="8.79" x2="304.438" y2="8.79"/>
		<line fill="none" stroke="#939598" x1="306.813" y1="11.665" x2="306.813" y2="18.358"/>
	</g>
	<g>
		<path fill="#FFFFFF" stroke="#939598" stroke-miterlimit="10" d="M92.575,158.917c0-4.462-2.711-9.376-6.053-9.376
			s-6.041,4.914-6.041,9.376c0,4.463,2.699,6.785,6.041,6.785S92.575,163.38,92.575,158.917"/>
		<path fill="#FFFFFF" stroke="#939598" d="M92.575,158.917c0-4.462-2.711-9.376-6.053-9.376s-6.041,4.914-6.041,9.376
			c0,4.463,2.699,6.785,6.041,6.785S92.575,163.38,92.575,158.917z"/>
		<path fill="#FFFFFF" stroke="#939598" stroke-miterlimit="10" d="M82.899,164.239c0-0.25-0.205-0.455-0.455-0.455h-2.107
			c-0.25,0-0.455,0.205-0.455,0.455v0.077c0,0.25,0.205,0.455,0.455,0.455h2.107c0.25,0,0.455-0.205,0.455-0.455V164.239z"/>
		<path fill="#FFFFFF" stroke="#939598" d="M82.899,164.239c0-0.25-0.205-0.455-0.455-0.455h-2.107c-0.25,0-0.455,0.205-0.455,0.455
			v0.077c0,0.25,0.205,0.455,0.455,0.455h2.107c0.25,0,0.455-0.205,0.455-0.455V164.239z"/>
		<path fill="#FFFFFF" stroke="#939598" stroke-miterlimit="10" d="M79.562,164.783c-0.758,0-1.375,2.057-1.375,2.816
			c0,0.769,0.617,2.825,1.375,2.825h13.814c0.76,0,1.375-2.057,1.375-2.825c0-0.76-0.615-2.814-1.375-2.814L79.562,164.783z"/>
		<path fill="#FFFFFF" stroke="#939598" d="M79.562,164.783c-0.758,0-1.375,2.057-1.375,2.816c0,0.769,0.617,2.825,1.375,2.825
			h13.814c0.76,0,1.375-2.057,1.375-2.825c0-0.76-0.615-2.814-1.375-2.814L79.562,164.783z"/>
		<path fill="#FFFFFF" stroke="#939598" stroke-miterlimit="10" d="M90.972,158.73c0-3.279-1.992-6.893-4.449-6.893
			s-4.447,3.613-4.447,6.893s1.99,4.985,4.447,4.985S90.972,162.01,90.972,158.73"/>
		<path fill="#FFFFFF" stroke="#939598" d="M90.972,158.73c0-3.279-1.992-6.893-4.449-6.893s-4.447,3.613-4.447,6.893
			s1.99,4.985,4.447,4.985S90.972,162.01,90.972,158.73z"/>
	</g>
	<g>
		<g>
			<rect x="110.271" y="178.854" fill="#FFFFFF" stroke="#939598" width="45.693" height="23.625"/>
			<path fill="#FFFFFF" stroke="#939598" d="M133.118,190.667"/>
			<path fill="#FFFFFF" stroke="#939598" d="M133.274,190.667"/>
			<path fill="#FFFFFF" stroke="#939598" d="M148.768,190.667"/>
		</g>
		<circle fill="#FFFFFF" stroke="#939598" cx="145.55" cy="190.556" r="0.969"/>
		<path fill="#FFFFFF" stroke="#939598" d="M112.88,190.595c0,6.771,1.562,9.25,3.752,9.25c0,0,32.839,0,33.376,0
			c0.535,0,1.641-0.145,1.641-1.561c0-1.418,0-7.689,0-7.689v-0.016c0,0,0-6.271,0-7.689c0-1.416-1.105-1.561-1.641-1.561
			c-0.537,0-33.354,0-33.354,0l-0.021,0.002C114.442,181.331,112.88,183.866,112.88,190.595z"/>
		<path fill="#FFFFFF" stroke="#939598" d="M153.348,192.587c-0.549-0.002-0.988,0.441-0.988,0.996c0,0.537,0.439,0.982,0.988,0.986
			c0.545-0.004,0.995-0.449,0.995-0.986C154.343,193.028,153.898,192.585,153.348,192.587z"/>
		<path fill="#FFFFFF" stroke="#939598" d="M153.348,186.446c-0.549-0.006-0.988,0.445-0.988,0.99c0,0.543,0.439,0.99,0.988,0.99
			c0.545,0,0.995-0.447,0.988-0.99C154.343,186.89,153.893,186.446,153.348,186.446z"/>
		<path fill="#FFFFFF" stroke="#939598" d="M153.641,191.89c0.812,0,1.469-0.549,1.471-1.361c-0.002-0.811-0.658-1.254-1.471-1.254
			l-5.592,0.521c-0.549,0-0.549,1.482,0,1.482L153.641,191.89z"/>
	</g>
	<g>
		<path fill="#FFFFFF" stroke="#939598" stroke-miterlimit="10" d="M438.389,159.073c0-4.462-2.711-9.376-6.053-9.376
			s-6.041,4.914-6.041,9.376c0,4.463,2.699,6.785,6.041,6.785S438.389,163.536,438.389,159.073"/>
		<path fill="#FFFFFF" stroke="#939598" d="M438.389,159.073c0-4.462-2.711-9.376-6.053-9.376s-6.041,4.914-6.041,9.376
			c0,4.463,2.699,6.785,6.041,6.785S438.389,163.536,438.389,159.073z"/>
		<path fill="#FFFFFF" stroke="#939598" stroke-miterlimit="10" d="M428.713,164.396c0-0.25-0.205-0.455-0.455-0.455h-2.107
			c-0.25,0-0.455,0.205-0.455,0.455v0.077c0,0.25,0.205,0.455,0.455,0.455h2.107c0.25,0,0.455-0.205,0.455-0.455V164.396z"/>
		<path fill="#FFFFFF" stroke="#939598" d="M428.713,164.396c0-0.25-0.205-0.455-0.455-0.455h-2.107
			c-0.25,0-0.455,0.205-0.455,0.455v0.077c0,0.25,0.205,0.455,0.455,0.455h2.107c0.25,0,0.455-0.205,0.455-0.455V164.396z"/>
		<path fill="#FFFFFF" stroke="#939598" stroke-miterlimit="10" d="M425.375,164.939c-0.758,0-1.375,2.057-1.375,2.816
			c0,0.769,0.617,2.825,1.375,2.825h13.814c0.76,0,1.375-2.057,1.375-2.825c0-0.76-0.615-2.814-1.375-2.814L425.375,164.939z"/>
		<path fill="#FFFFFF" stroke="#939598" d="M425.375,164.939c-0.758,0-1.375,2.057-1.375,2.816c0,0.769,0.617,2.825,1.375,2.825
			h13.814c0.76,0,1.375-2.057,1.375-2.825c0-0.76-0.615-2.814-1.375-2.814L425.375,164.939z"/>
		<path fill="#FFFFFF" stroke="#939598" stroke-miterlimit="10" d="M436.785,158.887c0-3.279-1.992-6.893-4.449-6.893
			s-4.447,3.613-4.447,6.893s1.99,4.985,4.447,4.985S436.785,162.166,436.785,158.887"/>
		<path fill="#FFFFFF" stroke="#939598" d="M436.785,158.887c0-3.279-1.992-6.893-4.449-6.893s-4.447,3.613-4.447,6.893
			s1.99,4.985,4.447,4.985S436.785,162.166,436.785,158.887z"/>
	</g>
	<g>
		<g>
			<g>
				<rect x="446.062" y="112.492" fill="#FFFFFF" stroke="#939598" width="24.496" height="46.75"/>
				<path fill="#FFFFFF" stroke="#939598" d="M458.329,136.492"/>
			</g>
			<g>
				<polyline fill="#FFFFFF" stroke="#939598" points="458.567,157.816 468.358,157.816 468.358,114.248 448.263,114.248 
					448.263,157.816 457.664,157.816 				"/>
				<path fill="#FFFFFF" stroke="#939598" d="M458.329,136.492"/>
			</g>
			<line fill="#FFFFFF" stroke="#939598" x1="448.263" y1="157.816" x2="457.652" y2="137.416"/>
			<line fill="#FFFFFF" stroke="#939598" x1="459.041" y1="135.596" x2="468.358" y2="114.248"/>
			<line fill="#FFFFFF" stroke="#939598" x1="448.263" y1="114.248" x2="457.561" y2="135.49"/>
			<line fill="#FFFFFF" stroke="#939598" x1="459.065" y1="137.449" x2="468.358" y2="157.816"/>
			<g>
				<path fill="#FFFFFF" stroke="#939598" d="M459.377,136.492c0-0.6-0.587-1.084-1.048-1.084c-0.46,0-0.975,0.484-0.975,1.084
					c0,0.598,0.515,1.084,0.975,1.084C458.79,137.576,459.377,137.09,459.377,136.492z"/>
				<path fill="#FFFFFF" stroke="#939598" d="M458.329,136.492"/>
			</g>
		</g>
		<path fill="#FFFFFF" stroke="#939598" d="M459.345,156.219c0-0.617-2.232-0.617-2.232,0s0.5,1.115,1.116,1.115
			C458.847,157.334,459.345,156.836,459.345,156.219z"/>
		<polyline fill="#FFFFFF" stroke="#939598" points="457.998,159.537 457.998,157.402 458.62,157.402 458.62,159.539 		"/>
	</g>
	<g>
		<g>
			<g>
				<g>
					<rect x="274.991" y="175.835" fill="#FFFFFF" stroke="#939598" width="20.188" height="18.545"/>
					<path fill="#FFFFFF" stroke="#939598" d="M285.085,184.491"/>
					<polyline fill="#FFFFFF" stroke="#939598" points="291.21,181.368 291.21,178.547 288.772,177.889 281.304,177.889 
						278.835,178.547 278.835,181.368 					"/>
					<line fill="#FFFFFF" stroke="#939598" x1="274.845" y1="181.368" x2="295.179" y2="181.368"/>
					<path fill="#FFFFFF" stroke="#939598" d="M285.022,183.545"/>
				</g>
			</g>
		</g>
		<polygon fill="#FFFFFF" stroke="#939598" points="275.973,180.151 277.604,180.147 277.962,181.285 275.614,181.29 		"/>
	</g>
	<g>
		<g>
			<path fill="#FFFFFF" stroke="#939598" d="M199.872,201.108c-0.426,0-0.771-0.344-0.771-0.771v-13.445
				c0-0.426,0.346-0.771,0.771-0.771h22.807c0.426,0,0.771,0.346,0.771,0.771v13.445c0,0.428-0.345,0.771-0.771,0.771H199.872z"/>
			<path fill="#FFFFFF" stroke="#939598" d="M211.194,194.196"/>
		</g>
		<g>
			<circle fill="#FFFFFF" stroke="#939598" cx="211.194" cy="193.285" r="0.871"/>
			<path fill="#FFFFFF" stroke="#939598" d="M211.194,193.286"/>
		</g>
		<g>
			<g>
				<rect x="207.39" y="198.752" fill="#FFFFFF" stroke="#939598" width="7.609" height="1.82"/>
				<path fill="#FFFFFF" stroke="#939598" d="M211.194,199.663"/>
			</g>
			<g>
				<rect x="210.806" y="195.214" fill="#FFFFFF" stroke="#939598" width="0.777" height="3.586"/>
				<path fill="#FFFFFF" stroke="#939598" d="M211.194,197.238"/>
			</g>
			<g>
				<circle fill="#FFFFFF" stroke="#939598" cx="211.194" cy="199.645" r="0.847"/>
				<path fill="#FFFFFF" stroke="#939598" d="M211.194,199.645"/>
			</g>
		</g>
		<g>
			<path fill="#FFFFFF" stroke="#939598" d="M211.194,193.286"/>
			<path fill="none" stroke="#939598" d="M210.725,198.123h-9.589c-0.447,0-0.811-0.362-0.811-0.81v-9.221
				c0-0.445,0.363-0.809,0.811-0.809h20.279c0.447,0,0.811,0.363,0.811,0.809v9.221c0,0.447-0.363,0.81-0.811,0.81h-9.726"/>
		</g>
	</g>
	<g>
		<polyline fill="none" stroke="#939598" stroke-dasharray="1.5,1,1.5,1,1.5,1" points="196.069,183.758 196.069,200.734 
			179.421,200.734 179.421,184.14 		"/>
		<polyline fill="#FFFFFF" stroke="#939598" points="179.396,184.14 179.396,183.131 196.069,183.131 196.069,183.752 		"/>
	</g>
	<g>
		<g>
			<rect x="159.402" y="146.002" fill="#FFFFFF" stroke="#939598" width="19.75" height="23.25"/>
			<path fill="#FFFFFF" stroke="#939598" d="M169.277,157.627"/>
		</g>
		<g>
			<g>
				<circle fill="#FFFFFF" stroke="#939598" cx="174.777" cy="162.942" r="2.824"/>
				<path fill="#FFFFFF" stroke="#939598" d="M174.777,162.942"/>
			</g>
			<g>
				<circle fill="#FFFFFF" stroke="#939598" stroke-width="0.8" cx="174.776" cy="162.971" r="1.989"/>
				<path fill="#FFFFFF" stroke="#939598" d="M174.777,162.971"/>
			</g>
		</g>
		<g>
			<g>
				<circle fill="#FFFFFF" stroke="#939598" cx="166.527" cy="151.655" r="2.824"/>
				<path fill="#FFFFFF" stroke="#939598" d="M166.527,151.655"/>
			</g>
			<g>
				<circle fill="#FFFFFF" stroke="#939598" stroke-width="0.8" cx="166.526" cy="151.627" r="1.989"/>
				<path fill="#FFFFFF" stroke="#939598" d="M166.527,151.627"/>
			</g>
		</g>
		<g>
			<g>
				<circle fill="#FFFFFF" stroke="#939598" cx="166.555" cy="162.98" r="3.219"/>
				<path fill="#FFFFFF" stroke="#939598" d="M166.555,162.98"/>
			</g>
			<g>
				<circle fill="#FFFFFF" stroke="#939598" stroke-width="0.8" cx="166.555" cy="162.949" r="2.268"/>
				<path fill="#FFFFFF" stroke="#939598" d="M166.555,162.949"/>
			</g>
		</g>
		<g>
			<g>
				<circle fill="#FFFFFF" stroke="#939598" cx="174.994" cy="151.668" r="3.219"/>
				<path fill="#FFFFFF" stroke="#939598" d="M174.994,151.668"/>
			</g>
			<g>
				<circle fill="#FFFFFF" stroke="#939598" stroke-width="0.8" cx="174.994" cy="151.636" r="2.268"/>
				<path fill="#FFFFFF" stroke="#939598" d="M174.994,151.636"/>
			</g>
		</g>
		<line fill="#FFFFFF" stroke="#939598" x1="162.135" y1="169.283" x2="162.135" y2="146.002"/>
		<line fill="#FFFFFF" stroke="#939598" x1="161.043" y1="169.252" x2="161.043" y2="146.002"/>
	</g>
	<g>
		<g>
			<rect x="244.738" y="179.875" fill="#FFFFFF" stroke="#939598" width="24.901" height="21.969"/>
			<path fill="#FFFFFF" stroke="#939598" d="M258.478,190.859"/>
		</g>
		<line fill="#FFFFFF" stroke="#939598" x1="244.679" y1="181.411" x2="269.64" y2="181.411"/>
		<rect x="265.544" y="178.79" fill="#FFFFFF" stroke="#939598" width="2.018" height="1.069"/>
		<path fill="#FFFFFF" stroke="#939598" d="M266.553,179.384"/>
	</g>
	<g>
		<polyline fill="#FFFFFF" stroke="#939598" points="241.695,183.12 243.528,183.12 243.528,204.953 229.363,204.953 
			229.363,183.12 231.195,183.12 		"/>
		<g>
			<g>
				<g>
					<polygon fill="none" stroke="#939598" stroke-width="0.7" points="236.355,174.235 237.607,174.923 232.398,183.516 
						231.146,182.829 					"/>
					<path fill="none" stroke="#939598" stroke-width="0.8" d="M233.425,179.571"/>
				</g>
				<path fill="none" stroke="#939598" stroke-width="0.8" d="M236.833,174.649c3.203,1.94,4.926,5.394,4.811,8.888"/>
			</g>
		</g>
	</g>
	
		<line fill="none" stroke="#939598" stroke-dasharray="1.5,1.5,1.5,1.5,1.5,1.5" x1="241.522" y1="192.691" x2="272.689" y2="192.691"/>
	<polyline fill="none" stroke="#939598" stroke-dasharray="1.5,1.5,1.5,1.5,1.5,1.5" points="169.022,123.275 169.022,183.941 
		177.772,192.691 233.188,192.691 	"/>
	<g>
		<g>
			<g>
				<path fill="none" stroke="#939598" d="M405.371,160.889"/>
			</g>
			<g>
				<path fill="none" stroke="#939598" d="M405.371,161.951"/>
			</g>
			<g>
				<circle fill="none" stroke="#939598" cx="405.371" cy="160.889" r="1.017"/>
				<path fill="none" stroke="#939598" d="M405.371,160.889"/>
			</g>
			<g>
				<g>
					<rect x="401.105" y="167.264" fill="none" stroke="#939598" width="8.553" height="2.125"/>
					<path fill="none" stroke="#939598" d="M405.371,168.326"/>
				</g>
				<g>
					<rect x="404.918" y="163.139" fill="none" stroke="#939598" width="0.906" height="4.031"/>
					<path fill="none" stroke="#939598" d="M405.371,165.498"/>
				</g>
				<g>
					<circle fill="none" stroke="#939598" cx="405.371" cy="168.306" r="0.986"/>
					<path fill="none" stroke="#939598" d="M405.371,168.306"/>
				</g>
			</g>
		</g>
		<g>
			<rect x="396.844" y="155.839" fill="none" stroke="#939598" width="17.076" height="13.875"/>
			<rect x="398.236" y="157.233" fill="none" stroke="#939598" width="14.255" height="9.98"/>
		</g>
	</g>
	<g>
		<g>
			<g>
				<path fill="none" stroke="#939598" d="M145.774,139.842"/>
			</g>
			<g>
				<path fill="none" stroke="#939598" d="M146.836,139.842"/>
			</g>
			<g>
				<circle fill="none" stroke="#939598" cx="145.774" cy="139.842" r="1.017"/>
				<path fill="none" stroke="#939598" d="M145.774,139.842"/>
			</g>
			<g>
				<g>
					<rect x="152.149" y="135.555" fill="none" stroke="#939598" width="2.125" height="8.553"/>
					<path fill="none" stroke="#939598" d="M153.211,139.842"/>
				</g>
				<g>
					<rect x="148.024" y="139.389" fill="none" stroke="#939598" width="4.031" height="0.906"/>
					<path fill="none" stroke="#939598" d="M150.383,139.842"/>
				</g>
				<g>
					<circle fill="none" stroke="#939598" cx="153.191" cy="139.842" r="0.986"/>
					<path fill="none" stroke="#939598" d="M153.191,139.842"/>
				</g>
			</g>
		</g>
		<g>
			<rect x="140.724" y="131.293" fill="none" stroke="#939598" width="13.875" height="17.076"/>
			<rect x="142.119" y="132.722" fill="none" stroke="#939598" width="9.98" height="14.255"/>
		</g>
	</g>
</g>
<g id="walls">
	<polyline fill="none" stroke="#939598" stroke-width="5" points="172.188,18.333 2.5,18.38 2.5,173.941 107.92,173.941 
		107.92,204.812 289.522,204.812 315.355,179.107 346.315,179.107 	"/>
	<line fill="none" stroke="#939598" stroke-width="3" x1="227.534" y1="18.323" x2="221.188" y2="18.324"/>
	<polyline fill="none" stroke="#939598" stroke-width="5" points="369.791,179.107 519.522,179.107 519.522,18.275 291.194,18.312 	
		"/>
	<line fill="none" stroke="#939598" stroke-width="3" x1="388.522" y1="141.729" x2="388.522" y2="172.275"/>
	<line fill="none" stroke="#939598" stroke-width="3" x1="388.522" y1="104.093" x2="388.522" y2="119.276"/>
	<line fill="none" stroke="#939598" stroke-width="3" x1="388.522" y1="18.942" x2="388.522" y2="82.027"/>
	<path fill="none" stroke="#939598" stroke-width="3" d="M512.188,17.275c0,1,0,6.624,0,6.624h7"/>
	<polyline fill="none" stroke="#939598" stroke-width="3" points="437.855,17.942 437.855,23.608 388.855,23.608 	"/>
	<line fill="none" stroke="#939598" stroke-width="3" x1="322.522" y1="167.275" x2="322.522" y2="172.608"/>
	<polyline fill="none" stroke="#939598" stroke-width="3" points="299.855,194.275 299.855,136.608 322.522,136.608 
		322.438,144.858 	"/>
	<line fill="none" stroke="#939598" stroke-width="3" x1="396.854" y1="111.328" x2="388.188" y2="111.328"/>
	<line fill="none" stroke="#939598" stroke-width="3" x1="477.854" y1="111.328" x2="420.374" y2="111.358"/>
	<line fill="none" stroke="#939598" stroke-width="3" x1="519.188" y1="111.328" x2="501.2" y2="111.328"/>
	<polyline fill="none" stroke="#939598" stroke-width="3" points="471.93,110.941 471.93,173.275 518.854,173.275 	"/>
	<polyline fill="none" stroke="#939598" stroke-width="3" points="470.769,160.683 447.058,160.683 446.95,172.888 373.188,172.866 
		373.188,178.275 	"/>
	<polyline fill="none" stroke="#939598" stroke-width="3" points="295.854,172.305 341.188,172.275 341.188,178.941 	"/>
	<polyline fill="none" stroke="#939598" stroke-width="3" points="271.854,204.275 271.854,172.48 277.166,172.446 	"/>
	<line fill="none" stroke="#939598" stroke-width="3" x1="123.188" y1="122.758" x2="181.854" y2="122.758"/>
	<line fill="none" stroke="#939598" stroke-width="3" x1="46.188" y1="122.758" x2="99.823" y2="122.758"/>
	<line fill="none" stroke="#939598" stroke-width="3" x1="2.521" y1="122.758" x2="22.521" y2="122.758"/>
	<line fill="none" stroke="#939598" stroke-width="3" x1="172.188" y1="89.858" x2="172.188" y2="18.608"/>
	<line fill="none" stroke="#939598" stroke-width="3" x1="172.188" y1="122.608" x2="172.188" y2="112.358"/>
	<line fill="none" stroke="#939598" stroke-width="3" x1="157.499" y1="121.941" x2="157.499" y2="203.608"/>
	<line fill="none" stroke="#939598" stroke-width="3" x1="68.854" y1="122.275" x2="68.854" y2="173.941"/>
	<polyline fill="none" stroke="#939598" stroke-width="3" points="173.259,18.276 173.272,23.275 221.2,23.275 221.2,18.775 	"/>
	<polyline fill="none" stroke="#939598" stroke-width="5" points="222.188,19.72 222.188,10.801 172.199,10.801 172.292,19.222 	"/>
	<polyline fill="none" stroke="#939598" stroke-width="3" points="296.188,18.608 296.188,23.876 314.521,23.876 314.521,19.275 	
		"/>
	<polyline fill="none" stroke="#939598" stroke-width="3" points="80.188,18.942 80.188,23.275 97.854,23.275 97.854,19.608 	"/>
	<line fill="none" stroke="#939598" stroke-width="4" x1="5.188" y1="25.425" x2="5.188" y2="19.608"/>
</g>
<g id="windows">
	<g>
		<g>
			<rect x="7.98" y="16.443" fill="#FFFFFF" stroke="#939598" width="69.562" height="3.674"/>
			<line fill="none" stroke="#939598" x1="77.543" y1="18.261" x2="7.23" y2="18.261"/>
			<line fill="none" stroke="#939598" stroke-width="2" x1="54.869" y1="20.275" x2="54.869" y2="16.781"/>
		</g>
		<line fill="none" stroke="#939598" stroke-width="2" x1="31.48" y1="20.4" x2="31.48" y2="16.798"/>
	</g>
	<g>
		<g>
			<rect x="99.981" y="16.341" fill="#FFFFFF" stroke="#939598" width="69.562" height="3.674"/>
			<line fill="none" stroke="#939598" x1="169.543" y1="18.16" x2="99.231" y2="18.16"/>
			<line fill="none" stroke="#939598" stroke-width="2" x1="146.87" y1="20.173" x2="146.87" y2="16.679"/>
		</g>
		<line fill="none" stroke="#939598" stroke-width="2" x1="123.481" y1="20.298" x2="123.481" y2="16.697"/>
	</g>
	<g>
		<g>
			<rect x="316.814" y="16.443" fill="#FFFFFF" stroke="#939598" width="69.562" height="3.674"/>
			<line fill="none" stroke="#939598" x1="386.377" y1="18.262" x2="316.064" y2="18.262"/>
			<line fill="none" stroke="#939598" stroke-width="2" x1="363.703" y1="20.275" x2="363.703" y2="16.781"/>
		</g>
		<line fill="none" stroke="#939598" stroke-width="2" x1="340.314" y1="20.4" x2="340.314" y2="16.799"/>
	</g>
	<g>
		<g>
			<rect x="440.368" y="16.389" fill="#FFFFFF" stroke="#939598" width="69.562" height="3.674"/>
			<line fill="none" stroke="#939598" x1="509.931" y1="18.207" x2="439.618" y2="18.207"/>
			<line fill="none" stroke="#939598" stroke-width="2" x1="487.257" y1="20.221" x2="487.257" y2="16.727"/>
		</g>
		<line fill="none" stroke="#939598" stroke-width="2" x1="463.868" y1="20.346" x2="463.868" y2="16.744"/>
	</g>
</g>
<g id="Type">
	<text transform="matrix(1 0 0 1 240.4751 5.9497)" fill="#939598" font-family="'Gotham-Book'" font-size="7">Juliet Balcony</text>
	<text transform="matrix(1 0 0 1 101.7583 160.1797)"><tspan x="0" y="0" fill="#939598" font-family="'Gotham-Book'" font-size="9">B</tspan><tspan x="6.498" y="0" fill="#939598" font-family="'Gotham-Book'" font-size="9">a</tspan><tspan x="11.619" y="0" fill="#939598" font-family="'Gotham-Book'" font-size="9">th</tspan></text>
	<text transform="matrix(1 0 0 1 23.3267 155.7832)" fill="#939598" font-family="'Gotham-Book'" font-size="7">Closet</text>
	<text transform="matrix(1 0 0 1 411.0928 144.0117)"><tspan x="0" y="0" fill="#939598" font-family="'Gotham-Book'" font-size="9">B</tspan><tspan x="6.498" y="0" fill="#939598" font-family="'Gotham-Book'" font-size="9">a</tspan><tspan x="11.619" y="0" fill="#939598" font-family="'Gotham-Book'" font-size="9">th</tspan></text>
	<text transform="matrix(1 0 0 1 478.9932 146.4492)" fill="#939598" font-family="'Gotham-Book'" font-size="7">Closet</text>
	<text transform="matrix(1 0 0 1 276.8848 190.3555)" fill="#939598" font-family="'Gotham-Book'" font-size="7">W/D</text>
	<text transform="matrix(1 0 0 1 347.6104 179.7002)"><tspan x="0" y="0" fill="#939598" font-family="'Gotham-Book'" font-size="7">E</tspan><tspan x="4.689" y="0" fill="#939598" font-family="'Gotham-Book'" font-size="7">n</tspan><tspan x="8.952" y="0" fill="#939598" font-family="'Gotham-Book'" font-size="7">try</tspan></text>
	<text transform="matrix(0 -1 1 0 309.0703 165.2754)" fill="#939598" font-family="'Gotham-Book'" font-size="7">Closet</text>
	<text transform="matrix(1 0 0 1 220.9629 139.6182)" fill="#939598" font-family="'Gotham-Book'" font-size="7">Island</text>
	<text transform="matrix(1 0 0 1 213.7588 163.9287)" fill="#939598" font-family="'Gotham-Book'" font-size="9">Kitchen</text>
	<text transform="matrix(1 0 0 1 181.457 191.3662)" fill="#939598" font-family="'Gotham-Book'" font-size="7">DW</text>
	<text transform="matrix(1 0 0 1 250.5986 189.1992)" fill="#939598" font-family="'Gotham-Book'" font-size="7">Ref</text>
	<text transform="matrix(1 0 0 1 61.5537 65.3682)"><tspan x="0" y="0" fill="#939598" font-family="'Gotham-Book'" font-size="9">Bedroom</tspan><tspan x="-4.41" y="11" fill="#939598" font-family="'Gotham-Book'" font-size="9">18&apos;4&quot; x 10&apos;8&quot; </tspan></text>
	<text id="Living_x2F_Dining_Room_12_x27_0_x22__x__x_2_x27_10_x22__2_" transform="matrix(1 0 0 1 233.7812 77.6987)"><tspan x="0" y="0" fill="#939598" font-family="'Gotham-Book'" font-size="9">Living/Dining Room</tspan><tspan x="17.631" y="11" fill="#939598" font-family="'Gotham-Book'" font-size="9">23&apos;6&quot; x 10&apos;7&quot;</tspan></text>
	<text transform="matrix(1 0 0 1 433.5518 65.3682)"><tspan x="0" y="0" fill="#939598" font-family="'Gotham-Book'" font-size="9">Bedroom</tspan><tspan x="-2.272" y="11" fill="#939598" font-family="'Gotham-Book'" font-size="9">14&apos;2&quot; x 9&apos;5&quot; </tspan></text>
	<text transform="matrix(0 -1 1 0 239.1367 201.958)"><tspan x="0" y="0" fill="#939598" font-family="'Gotham-Book'" font-size="6.5">Pant</tspan><tspan x="13.955" y="0" fill="#939598" font-family="'Gotham-Book'" font-size="6.5">r</tspan><tspan x="16.536" y="0" fill="#939598" font-family="'Gotham-Book'" font-size="6.5">y</tspan></text>
</g>
</svg>
