<?xml version="1.0" encoding="utf-8"?>
<!-- Generator: Adobe Illustrator 15.0.2, SVG Export Plug-In . SVG Version: 6.00 Build 0)  -->
<!DOCTYPE svg PUBLIC "-//W3C//DTD SVG 1.1//EN" "http://www.w3.org/Graphics/SVG/1.1/DTD/svg11.dtd">
<svg version="1.1" xmlns="http://www.w3.org/2000/svg" xmlns:xlink="http://www.w3.org/1999/xlink" x="0px" y="0px"
	 width="243.523px" height="190.263px" viewBox="0 0 243.523 190.263" enable-background="new 0 0 243.523 190.263"
	 xml:space="preserve">
<g id="_x32_0_x25___PMS_2985_fill">
	<polygon fill="none" points="2.634,1.848 2.634,187.439 242.301,187.439 242.301,105.773 215.635,105.773 215.635,2.439 	"/>
</g>
<g id="_x33_0_x25__grey_fill">
	<rect x="103.695" y="163.939" fill="#D1D3D4" width="15.855" height="23"/>
	<rect x="2.5" y="2.52" fill="#D1D3D4" width="40.752" height="4.748"/>
	<rect x="117.188" y="2.439" fill="#D1D3D4" width="18.363" height="4.75"/>
	<rect x="209.451" y="2.689" fill="#D1D3D4" width="6.85" height="4.75"/>
</g>
<g id="icons">
	<rect x="102.634" y="138.439" fill="#FFFFFF" stroke="#939598" width="17.667" height="24.334"/>
	<g>
		<polygon fill="none" stroke="#939598" points="24.165,118.427 24.174,120.013 46.801,120.028 46.793,118.44 		"/>
		<path fill="none" stroke="#939598" d="M46.811,119.156c-0.424,12.458-10.664,22.214-23.121,21.788"/>
	</g>
	<g>
		<polygon fill="none" stroke="#939598" points="11.648,187.827 13.318,187.84 13.334,164.021 11.62,164.009 		"/>
		<path fill="none" stroke="#939598" d="M12.352,163.99c13.114,0.445,23.383,11.289,22.936,24.402"/>
	</g>
	<g>
		<polygon fill="none" stroke="#939598" points="55.165,117.677 55.174,119.263 77.801,119.278 77.793,117.69 		"/>
		<path fill="none" stroke="#939598" d="M77.811,118.406c-0.424,12.458-10.664,22.214-23.121,21.788"/>
	</g>
	<g>
		<rect x="213.148" y="142.939" fill="none" stroke="#939598" width="1.25" height="37.5"/>
		<rect x="214.383" y="110.689" fill="none" stroke="#939598" width="1.25" height="41"/>
	</g>
	<polyline fill="none" stroke="#939598" points="240.551,138.439 228.301,138.439 228.301,186.439 	"/>
	<line fill="none" stroke="#939598" x1="14.551" y1="111.939" x2="14.551" y2="148.189"/>
	<line fill="none" stroke="#939598" x1="208.551" y1="8.512" x2="42.801" y2="8.512"/>
	
		<line fill="none" stroke="#939598" stroke-dasharray="1.5,1.5,1.5,1.5,1.5,1.5" x1="12.285" y1="112.689" x2="12.285" y2="146.689"/>
	
		<line fill="none" stroke="#939598" stroke-dasharray="1.5,1.5,1.5,1.5,1.5,1.5" x1="230.66" y1="138.439" x2="230.66" y2="187.439"/>
	
		<line fill="none" stroke="#333333" stroke-dasharray="1.5,1.5,1.5,1.5,1.5,1.5" x1="12.968" y1="86.439" x2="12.968" y2="111.773"/>
	<rect x="53.483" y="32.403" fill="#FFFFFF" stroke="#A7A9AC" width="27.625" height="48"/>
	<g>
		<g>
			<path fill="#FFFFFF" stroke="#939598" d="M70.171,58.428c0,0.426-0.344,0.771-0.771,0.771H55.954
				c-0.426,0-0.771-0.346-0.771-0.771V35.622c0-0.426,0.346-0.771,0.771-0.771h13.446c0.428,0,0.771,0.345,0.771,0.771V58.428z"/>
			<path fill="#FFFFFF" stroke="#939598" d="M63.258,47.106"/>
		</g>
		<g>
			<circle fill="#FFFFFF" stroke="#939598" cx="62.348" cy="47.106" r="0.871"/>
			<path fill="#FFFFFF" stroke="#939598" d="M62.348,47.106"/>
		</g>
		<g>
			<g>
				<rect x="67.814" y="43.301" fill="#FFFFFF" stroke="#939598" width="1.82" height="7.609"/>
				<path fill="#FFFFFF" stroke="#939598" d="M68.726,47.106"/>
			</g>
			<g>
				<rect x="64.276" y="46.717" fill="#FFFFFF" stroke="#939598" width="3.586" height="0.777"/>
				<path fill="#FFFFFF" stroke="#939598" d="M66.301,47.106"/>
			</g>
			<g>
				<circle fill="#FFFFFF" stroke="#939598" cx="68.707" cy="47.106" r="0.847"/>
				<path fill="#FFFFFF" stroke="#939598" d="M68.707,47.106"/>
			</g>
		</g>
		<g>
			<path fill="#FFFFFF" stroke="#939598" d="M62.348,47.106"/>
			<path fill="none" stroke="#939598" d="M67.186,47.576v9.588c0,0.447-0.362,0.811-0.81,0.811h-9.221
				c-0.445,0-0.809-0.363-0.809-0.811V36.885c0-0.447,0.363-0.811,0.809-0.811h9.221c0.447,0,0.81,0.363,0.81,0.811v9.726"/>
		</g>
	</g>
	<g>
		<polyline fill="none" stroke="#939598" stroke-dasharray="1.5,1,1.5,1,1.5,1" points="52.987,61.23 69.963,61.23 69.963,77.879 
			53.368,77.879 		"/>
		<polyline fill="#FFFFFF" stroke="#939598" points="53.368,77.904 52.36,77.904 52.36,61.23 52.981,61.23 		"/>
	</g>
	<rect x="3.673" y="8.136" fill="#FFFFFF" stroke="#939598" width="20.833" height="103.167"/>
	<g>
		<g>
			<rect x="5.861" y="32.419" fill="#FFFFFF" stroke="#939598" width="19.75" height="23.25"/>
			<path fill="#FFFFFF" stroke="#939598" d="M15.736,44.044"/>
		</g>
		<g>
			<g>
				<circle fill="#FFFFFF" stroke="#939598" cx="21.236" cy="49.36" r="2.824"/>
				<path fill="#FFFFFF" stroke="#939598" d="M21.236,49.36"/>
			</g>
			<g>
				<circle fill="#FFFFFF" stroke="#939598" stroke-width="0.8" cx="21.235" cy="49.388" r="1.989"/>
				<path fill="#FFFFFF" stroke="#939598" d="M21.236,49.388"/>
			</g>
		</g>
		<g>
			<g>
				<circle fill="#FFFFFF" stroke="#939598" cx="12.986" cy="38.072" r="2.824"/>
				<path fill="#FFFFFF" stroke="#939598" d="M12.986,38.072"/>
			</g>
			<g>
				<circle fill="#FFFFFF" stroke="#939598" stroke-width="0.8" cx="12.985" cy="38.044" r="1.989"/>
				<path fill="#FFFFFF" stroke="#939598" d="M12.986,38.044"/>
			</g>
		</g>
		<g>
			<g>
				<circle fill="#FFFFFF" stroke="#939598" cx="13.014" cy="49.397" r="3.219"/>
				<path fill="#FFFFFF" stroke="#939598" d="M13.014,49.397"/>
			</g>
			<g>
				<circle fill="#FFFFFF" stroke="#939598" stroke-width="0.8" cx="13.014" cy="49.366" r="2.268"/>
				<path fill="#FFFFFF" stroke="#939598" d="M13.014,49.366"/>
			</g>
		</g>
		<g>
			<g>
				<circle fill="#FFFFFF" stroke="#939598" cx="21.453" cy="38.085" r="3.219"/>
				<path fill="#FFFFFF" stroke="#939598" d="M21.453,38.085"/>
			</g>
			<g>
				<circle fill="#FFFFFF" stroke="#939598" stroke-width="0.8" cx="21.453" cy="38.053" r="2.268"/>
				<path fill="#FFFFFF" stroke="#939598" d="M21.453,38.053"/>
			</g>
		</g>
		<line fill="#FFFFFF" stroke="#939598" x1="8.594" y1="55.7" x2="8.594" y2="32.419"/>
		<line fill="#FFFFFF" stroke="#939598" x1="7.502" y1="55.669" x2="7.502" y2="32.419"/>
	</g>
	<g>
		<g>
			<rect x="5.647" y="83.617" fill="#FFFFFF" stroke="#939598" width="21.969" height="24.901"/>
			<path fill="#FFFFFF" stroke="#939598" d="M16.632,97.356"/>
		</g>
		<line fill="#FFFFFF" stroke="#939598" x1="26.08" y1="83.558" x2="26.08" y2="108.519"/>
		<rect x="27.632" y="104.423" fill="#FFFFFF" stroke="#939598" width="1.069" height="2.018"/>
		<path fill="#FFFFFF" stroke="#939598" d="M28.107,105.432"/>
	</g>
	<g>
		<polyline fill="#FFFFFF" stroke="#939598" points="25.685,80.591 25.685,82.425 3.852,82.425 3.852,66.759 25.685,66.759 
			25.685,70.091 		"/>
		<g>
			<g>
				<g>
					<polygon fill="none" stroke="#939598" stroke-width="0.7" points="34.569,75.251 33.882,76.503 25.289,71.294 25.976,70.042 
											"/>
					<path fill="none" stroke="#939598" stroke-width="0.8" d="M29.233,72.321"/>
				</g>
				<path fill="none" stroke="#939598" stroke-width="0.8" d="M34.155,75.729c-1.94,3.203-5.394,4.926-8.888,4.811"/>
			</g>
		</g>
	</g>
	
		<line fill="none" stroke="#A7A9AC" stroke-dasharray="1.5,1.5,1.5,1.5,1.5,1.5" x1="15.619" y1="98.605" x2="15.619" y2="108.426"/>
	<line fill="none" stroke="#939598" stroke-dasharray="1.5,1.5,1.5,1.5,1.5,1.5" x1="15.619" y1="78.079" x2="15.619" y2="92.79"/>
	<line fill="none" stroke="#A7A9AC" stroke-dasharray="1.5,1.5,1.5,1.5,1.5,1.5" x1="15.619" y1="7.939" x2="15.619" y2="72.106"/>
	<g>
		<path fill="#FFFFFF" stroke="#939598" stroke-miterlimit="10" d="M106.825,120.051c-4.462,0-9.376,2.711-9.376,6.053
			s4.914,6.041,9.376,6.041c4.463,0,6.785-2.699,6.785-6.041S111.288,120.051,106.825,120.051"/>
		<path fill="#FFFFFF" stroke="#939598" d="M106.825,120.051c-4.462,0-9.376,2.711-9.376,6.053s4.914,6.041,9.376,6.041
			c4.463,0,6.785-2.699,6.785-6.041S111.288,120.051,106.825,120.051z"/>
		<path fill="#FFFFFF" stroke="#939598" stroke-miterlimit="10" d="M112.147,129.727c-0.25,0-0.455,0.205-0.455,0.455v2.107
			c0,0.25,0.205,0.455,0.455,0.455h0.077c0.25,0,0.455-0.205,0.455-0.455v-2.107c0-0.25-0.205-0.455-0.455-0.455H112.147z"/>
		<path fill="#FFFFFF" stroke="#939598" d="M112.147,129.727c-0.25,0-0.455,0.205-0.455,0.455v2.107c0,0.25,0.205,0.455,0.455,0.455
			h0.077c0.25,0,0.455-0.205,0.455-0.455v-2.107c0-0.25-0.205-0.455-0.455-0.455H112.147z"/>
		<path fill="#FFFFFF" stroke="#939598" stroke-miterlimit="10" d="M112.691,133.064c0,0.758,2.057,1.375,2.816,1.375
			c0.769,0,2.825-0.617,2.825-1.375V119.25c0-0.76-2.057-1.375-2.825-1.375c-0.76,0-2.814,0.615-2.814,1.375L112.691,133.064z"/>
		<path fill="#FFFFFF" stroke="#939598" d="M112.691,133.064c0,0.758,2.057,1.375,2.816,1.375c0.769,0,2.825-0.617,2.825-1.375
			V119.25c0-0.76-2.057-1.375-2.825-1.375c-0.76,0-2.814,0.615-2.814,1.375L112.691,133.064z"/>
		<path fill="#FFFFFF" stroke="#939598" stroke-miterlimit="10" d="M106.639,121.654c-3.279,0-6.893,1.992-6.893,4.449
			s3.613,4.447,6.893,4.447s4.985-1.99,4.985-4.447S109.918,121.654,106.639,121.654"/>
		<path fill="#FFFFFF" stroke="#939598" d="M106.639,121.654c-3.279,0-6.893,1.992-6.893,4.449s3.613,4.447,6.893,4.447
			s4.985-1.99,4.985-4.447S109.918,121.654,106.639,121.654z"/>
	</g>
	<g>
		<g>
			<rect x="57.27" y="161.753" fill="#FFFFFF" stroke="#939598" width="45.693" height="23.625"/>
			<path fill="#FFFFFF" stroke="#939598" d="M80.117,173.565"/>
			<path fill="#FFFFFF" stroke="#939598" d="M80.273,173.565"/>
			<path fill="#FFFFFF" stroke="#939598" d="M95.767,173.565"/>
		</g>
		<circle fill="#FFFFFF" stroke="#939598" cx="92.549" cy="173.454" r="0.969"/>
		<path fill="#FFFFFF" stroke="#939598" d="M59.879,173.493c0,6.771,1.562,9.25,3.752,9.25c0,0,32.839,0,33.376,0
			c0.535,0,1.641-0.145,1.641-1.561c0-1.418,0-7.689,0-7.689v-0.016c0,0,0-6.271,0-7.689c0-1.416-1.105-1.561-1.641-1.561
			c-0.537,0-33.354,0-33.354,0l-0.021,0.002C61.441,164.229,59.879,166.765,59.879,173.493z"/>
		<path fill="#FFFFFF" stroke="#939598" d="M100.347,175.485c-0.549-0.002-0.988,0.441-0.988,0.996c0,0.537,0.439,0.982,0.988,0.986
			c0.545-0.004,0.995-0.449,0.995-0.986C101.342,175.927,100.897,175.483,100.347,175.485z"/>
		<path fill="#FFFFFF" stroke="#939598" d="M100.347,169.345c-0.549-0.006-0.988,0.445-0.988,0.99c0,0.543,0.439,0.99,0.988,0.99
			c0.545,0,0.995-0.447,0.988-0.99C101.342,169.788,100.892,169.345,100.347,169.345z"/>
		<path fill="#FFFFFF" stroke="#939598" d="M100.64,174.788c0.812,0,1.469-0.549,1.471-1.361c-0.002-0.811-0.658-1.254-1.471-1.254
			l-5.592,0.521c-0.549,0-0.549,1.482,0,1.482L100.64,174.788z"/>
	</g>
	<g>
		<g>
			<g>
				<g>
					<rect x="218.521" y="115.805" fill="#FFFFFF" stroke="#939598" width="18.545" height="20.188"/>
					<path fill="#FFFFFF" stroke="#939598" d="M227.178,125.898"/>
					<polyline fill="#FFFFFF" stroke="#939598" points="224.055,119.773 221.233,119.773 220.575,122.211 220.575,129.68 
						221.233,132.148 224.055,132.148 					"/>
					<line fill="#FFFFFF" stroke="#939598" x1="224.055" y1="136.139" x2="224.055" y2="115.805"/>
					<path fill="#FFFFFF" stroke="#939598" d="M226.231,125.961"/>
				</g>
			</g>
		</g>
		<polygon fill="#FFFFFF" stroke="#939598" points="222.838,135.011 222.834,133.38 223.972,133.021 223.977,135.369 		"/>
	</g>
	<g>
		<g>
			<g>
				<path fill="none" stroke="#939598" d="M110.301,149.939"/>
			</g>
			<g>
				<path fill="none" stroke="#939598" d="M111.311,149.939"/>
			</g>
			<g>
				<circle fill="none" stroke="#939598" cx="110.302" cy="149.939" r="0.966"/>
				<path fill="none" stroke="#939598" d="M110.301,149.939"/>
			</g>
			<g>
				<g>
					<rect x="116.357" y="145.866" fill="none" stroke="#939598" width="2.02" height="8.125"/>
					<path fill="none" stroke="#939598" d="M117.367,149.939"/>
				</g>
				<g>
					<rect x="112.439" y="149.509" fill="none" stroke="#939598" width="3.829" height="0.86"/>
					<path fill="none" stroke="#939598" d="M114.68,149.939"/>
				</g>
				<g>
					<circle fill="none" stroke="#939598" cx="117.348" cy="149.939" r="0.938"/>
					<path fill="none" stroke="#939598" d="M117.348,149.939"/>
				</g>
			</g>
		</g>
		<g>
			<rect x="105.504" y="141.818" fill="none" stroke="#939598" width="13.182" height="16.222"/>
			<rect x="106.829" y="143.175" fill="none" stroke="#939598" width="9.481" height="13.542"/>
		</g>
	</g>
</g>
<g id="walls">
	<polyline fill="none" stroke="#939598" stroke-width="5" points="34.967,187.711 241.023,187.711 241.023,105.189 215.242,105.189 
		215.242,2.5 2.5,2.52 2.5,187.711 11.801,187.711 	"/>
	<line fill="none" stroke="#939598" stroke-width="3" x1="214.34" y1="172.689" x2="214.34" y2="186.439"/>
	<line fill="none" stroke="#939598" stroke-width="3" x1="214.34" y1="105.189" x2="214.34" y2="119.189"/>
	<polyline fill="none" stroke="#939598" stroke-width="3" points="117.188,2.439 117.188,7.189 135.551,7.189 135.551,2.689 	"/>
	<polyline fill="none" stroke="#939598" stroke-width="3" points="209.451,2.689 209.451,7.512 214.051,7.512 	"/>
	<polyline fill="none" stroke="#939598" stroke-width="3" points="43.166,2.689 43.252,7.504 3.801,7.504 	"/>
	<polyline fill="none" stroke="#939598" stroke-width="3" points="24.301,140.859 24.301,147.939 3.301,147.939 	"/>
	<polyline fill="none" stroke="#939598" stroke-width="3" points="3.551,110.934 24.301,110.934 24.301,118.189 	"/>
	<polyline fill="none" stroke="#939598" stroke-width="3" points="55.868,117.637 55.801,110.939 120.884,110.939 120.884,186.939 	
		"/>
	<line fill="none" stroke="#939598" stroke-width="3" x1="55.801" y1="186.939" x2="55.967" y2="140.106"/>
	<polyline fill="none" stroke="#939598" stroke-width="3" points="104.312,186.689 104.312,162.779 120.551,162.779 	"/>
</g>
<g id="windows">
	<g>
		<g>
			<rect x="44.808" y="0.774" fill="#FFFFFF" stroke="#939598" width="69.562" height="3.674"/>
			<line fill="none" stroke="#939598" x1="114.371" y1="2.593" x2="44.058" y2="2.593"/>
			<line fill="none" stroke="#939598" stroke-width="2" x1="91.697" y1="4.606" x2="91.697" y2="1.112"/>
		</g>
		<line fill="none" stroke="#939598" stroke-width="2" x1="68.308" y1="4.731" x2="68.308" y2="1.13"/>
	</g>
	<g>
		<g>
			<rect x="137.309" y="0.607" fill="#FFFFFF" stroke="#939598" width="69.562" height="3.674"/>
			<line fill="none" stroke="#939598" x1="206.871" y1="2.426" x2="136.559" y2="2.426"/>
			<line fill="none" stroke="#939598" stroke-width="2" x1="184.197" y1="4.439" x2="184.197" y2="0.945"/>
		</g>
		<line fill="none" stroke="#939598" stroke-width="2" x1="160.809" y1="4.564" x2="160.809" y2="0.963"/>
	</g>
</g>
<g id="Type">
	<text transform="matrix(0 -1 1 0 78.4316 66.3867)" fill="#939598" font-family="'Gotham-Book'" font-size="7">Island</text>
	<text transform="matrix(1 0 0 1 49.8711 97.7646)" fill="#939598" font-family="'Gotham-Book'" font-size="9">Kitchen</text>
	<text transform="matrix(1 0 0 1 55.0693 72.3125)" fill="#939598" font-family="'Gotham-Book'" font-size="7">DW</text>
	<text transform="matrix(1 0 0 1 9.5444 97.3643)" fill="#939598" font-family="'Gotham-Book'" font-size="7">Ref</text>
	<text transform="matrix(1 0 0 1 71.2026 150.5107)"><tspan x="0" y="0" fill="#939598" font-family="'Gotham-Book'" font-size="9">B</tspan><tspan x="6.498" y="0" fill="#939598" font-family="'Gotham-Book'" font-size="9">a</tspan><tspan x="11.574" y="0" fill="#939598" font-family="'Gotham-Book'" font-size="9">th</tspan></text>
	<text transform="matrix(0 -1 1 0 233.9443 134.0986)" fill="#939598" font-family="'Gotham-Book'" font-size="7">W/D</text>
	<text transform="matrix(1 0 0 1 14.8062 189.1143)"><tspan x="0" y="0" fill="#939598" font-family="'Gotham-Book'" font-size="7">E</tspan><tspan x="4.69" y="0" fill="#939598" font-family="'Gotham-Book'" font-size="7">n</tspan><tspan x="8.953" y="0" fill="#939598" font-family="'Gotham-Book'" font-size="7">try</tspan></text>
	<text transform="matrix(0 -1 1 0 223.6133 172.4395)" fill="#939598" font-family="'Gotham-Book'" font-size="7">Closet</text>
	<text transform="matrix(1 0 0 1 137.0273 142.9395)"><tspan x="0" y="0" fill="#939598" font-family="'Gotham-Book'" font-size="9">Sleeping Area</tspan><tspan x="5.157" y="11" fill="#939598" font-family="'Gotham-Book'" font-size="9">10&apos;4&quot; x 8&apos;7&quot; </tspan></text>
	<text id="Living_x2F_Dining_Room_12_x27_0_x22__x__x_2_x27_10_x22__1_" transform="matrix(1 0 0 1 104.9263 55.1201)"><tspan x="0" y="0" fill="#939598" font-family="'Gotham-Book'" font-size="9">Living/Dining Area</tspan><tspan x="13.622" y="10" fill="#939598" font-family="'Gotham-Book'" font-size="9">12&apos;11&quot; x 10&apos;10&quot;</tspan></text>
	<text transform="matrix(0 -1 1 0 22.2656 141.0234)" fill="#939598" font-family="'Gotham-Book'" font-size="7">Closet</text>
	<text transform="matrix(1 0 0 1 6.1934 77.7861)"><tspan x="0" y="0" fill="#939598" font-family="'Gotham-Book'" font-size="6.5">Pan</tspan><tspan x="12.109" y="0" fill="#939598" font-family="'Gotham-Book'" font-size="6.5">t</tspan><tspan x="14.839" y="0" fill="#939598" font-family="'Gotham-Book'" font-size="6.5">r</tspan><tspan x="17.687" y="0" fill="#939598" font-family="'Gotham-Book'" font-size="6.5">y</tspan></text>
</g>
</svg>
