<?xml version="1.0" encoding="utf-8"?>
<!-- Generator: Adobe Illustrator 15.0.2, SVG Export Plug-In . SVG Version: 6.00 Build 0)  -->
<!DOCTYPE svg PUBLIC "-//W3C//DTD SVG 1.1//EN" "http://www.w3.org/Graphics/SVG/1.1/DTD/svg11.dtd">
<svg version="1.1" id="Layer_1" xmlns="http://www.w3.org/2000/svg" xmlns:xlink="http://www.w3.org/1999/xlink" x="0px" y="0px"
	 width="239.297px" height="331.02px" viewBox="0 0 239.297 331.02" enable-background="new 0 0 239.297 331.02"
	 xml:space="preserve">
<g id="_x32_0_x25___PMS_2985_fill">
	<polygon fill="none" points="1.829,308.941 47.162,308.941 47.162,327.608 231.162,327.608 231.162,160.275 237.829,160.275 
		237.829,19.608 114.829,19.608 114.829,8.608 25.829,8.608 25.829,16.275 1.496,16.275 	"/>
</g>
<g id="_x33_0_x25__grey_fill">
	<rect x="108.064" y="16.964" fill="#D1D3D4" width="35.334" height="9.333"/>
	<rect x="2.065" y="15.964" fill="#D1D3D4" width="30.333" height="10"/>
	<rect x="207.324" y="305.63" fill="#D1D3D4" width="22.645" height="22.667"/>
	<polygon fill="#D1D3D4" points="237.064,104.63 237.064,19.63 218.73,19.63 218.73,25.63 231.064,25.63 231.064,104.63 	"/>
</g>
<g id="icons">
	<polyline fill="#FFFFFF" stroke="#939598" points="88.996,308.775 132.162,308.775 132.162,256.367 151.496,256.367 
		151.496,326.775 76.662,326.109 76.662,308.775 78.42,308.775 	"/>
	<g>
		<g>
			<path fill="#FFFFFF" stroke="#939598" d="M149.57,259.023c0-0.447-0.361-0.812-0.812-0.812h-14.152
				c-0.448,0-0.812,0.364-0.812,0.812v24.008c0,0.447,0.363,0.811,0.812,0.811h14.152c0.451,0,0.812-0.363,0.812-0.811V259.023
				L149.57,259.023z"/>
			<path fill="#FFFFFF" stroke="#939598" d="M142.295,270.941"/>
		</g>
		<g>
			<circle fill="#FFFFFF" stroke="#939598" cx="141.335" cy="270.94" r="0.917"/>
			<path fill="#FFFFFF" stroke="#939598" d="M141.336,270.941"/>
		</g>
		<g>
			<g>
				<rect x="147.09" y="266.938" fill="#FFFFFF" stroke="#939598" width="1.916" height="8.011"/>
				<path fill="#FFFFFF" stroke="#939598" d="M148.049,270.941"/>
			</g>
			<g>
				<rect x="143.365" y="270.533" fill="#FFFFFF" stroke="#939598" width="3.775" height="0.818"/>
				<path fill="#FFFFFF" stroke="#939598" d="M145.496,270.941"/>
			</g>
			<g>
				<circle fill="#FFFFFF" stroke="#939598" cx="148.029" cy="270.941" r="0.891"/>
				<path fill="#FFFFFF" stroke="#939598" d="M148.029,270.941"/>
			</g>
		</g>
		<g>
			<path fill="#FFFFFF" stroke="#939598" d="M141.336,270.941"/>
			<path fill="#FFFFFF" stroke="#939598" d="M146.428,270.447v-10.094c0-0.472-0.381-0.854-0.852-0.854h-9.707
				c-0.469,0-0.852,0.383-0.852,0.854v21.348c0,0.471,0.383,0.854,0.852,0.854h9.707c0.471,0,0.852-0.383,0.852-0.854v-10.238"/>
		</g>
	</g>
	<g>
		<g>
			<rect x="50.717" y="303.331" fill="#FFFFFF" stroke="#939598" width="24.902" height="21.969"/>
			<path fill="#FFFFFF" stroke="#939598" d="M64.457,314.315"/>
		</g>
		<line fill="none" stroke="#939598" x1="50.658" y1="304.867" x2="75.62" y2="304.867"/>
		<rect x="71.523" y="302.246" fill="#FFFFFF" stroke="#939598" width="2.019" height="1.068"/>
		<path fill="#FFFFFF" stroke="#939598" d="M72.532,302.84"/>
	</g>
	<g>
		<polygon fill="none" stroke="#939598" points="9.53,310.054 11.179,310.002 11.194,286.227 9.523,286.214 		"/>
		<path fill="none" stroke="#939598" d="M10.276,286.195c13.114,0.445,23.383,11.246,22.936,24.358"/>
	</g>
	<g>
		<polygon fill="none" stroke="#939598" points="198.255,217.032 196.585,217.023 196.568,193.205 198.24,193.214 		"/>
		<path fill="none" stroke="#939598" d="M197.486,193.195c-13.113,0.445-23.383,11.225-22.936,24.338"/>
	</g>
	<g>
		<polygon fill="none" stroke="#939598" points="162.562,257.296 164.23,257.283 164.247,281.102 162.555,281.114 		"/>
		<path fill="none" stroke="#939598" d="M163.352,281.133c13.113-0.445,23.383-11.289,22.936-24.402"/>
	</g>
	<g>
		<polygon fill="none" stroke="#939598" points="10.011,246.339 11.681,246.326 11.696,270.145 9.982,270.157 		"/>
		<path fill="none" stroke="#939598" d="M10.714,270.176c13.114-0.445,23.383-11.289,22.936-24.402"/>
	</g>
	<g>
		<rect x="154.029" y="164.848" fill="none" stroke="#939598" stroke-width="0.8" width="1.101" height="29"/>
		<rect x="153.077" y="185.098" fill="none" stroke="#939598" stroke-width="0.8" width="1.077" height="29"/>
	</g>
	<g>
		<rect x="209.014" y="165.598" fill="none" stroke="#939598" stroke-width="0.8" width="1.143" height="29"/>
		<rect x="210.139" y="185.848" fill="none" stroke="#939598" stroke-width="0.8" width="1.163" height="29"/>
	</g>
	<g>
		<rect x="25.523" y="8.839" fill="none" stroke="#939598" width="2.875" height="2.875"/>
		<rect x="112.023" y="8.839" fill="none" stroke="#939598" width="2.875" height="2.875"/>
		<line fill="none" stroke="#939598" x1="28.148" y1="10.964" x2="112.023" y2="10.964"/>
		<line fill="none" stroke="#939598" x1="28.398" y1="11.714" x2="28.398" y2="15.214"/>
		<line fill="none" stroke="#939598" x1="112.58" y1="11.714" x2="112.58" y2="16.339"/>
		<line fill="none" stroke="#939598" x1="114.898" y1="11.714" x2="114.898" y2="16.089"/>
		<line fill="none" stroke="#939598" x1="112.023" y1="8.839" x2="27.898" y2="8.839"/>
		<line fill="none" stroke="#939598" x1="25.523" y1="11.714" x2="25.523" y2="14.714"/>
	</g>
	<g>
		<polygon fill="none" stroke="#939598" points="205.553,226.1 205.545,227.686 182.918,227.7 182.926,226.111 		"/>
		<path fill="none" stroke="#939598" d="M182.908,226.828c0.423,12.458,10.664,22.214,23.121,21.788"/>
	</g>
	<line fill="none" stroke="#939598" x1="41.273" y1="236.214" x2="3.398" y2="236.214"/>
	<line fill="none" stroke="#939598" x1="143.898" y1="216.714" x2="143.898" y2="164.589"/>
	<line fill="none" stroke="#939598" x1="220.023" y1="164.464" x2="220.023" y2="217.214"/>
	
		<line fill="none" stroke="#939598" stroke-dasharray="1.5,1.5,1.5,1.5,1.5,1.5" x1="141.986" y1="216.214" x2="141.986" y2="164.464"/>
	
		<line fill="none" stroke="#939598" stroke-dasharray="1.5,1.5,1.5,1.5,1.5,1.5" x1="221.898" y1="216.089" x2="221.898" y2="164.339"/>
	
		<line fill="none" stroke="#939598" stroke-dasharray="1.5,1.5,1.5,1.5,1.5,1.5" x1="41.273" y1="234.327" x2="3.148" y2="234.327"/>
	<line fill="none" stroke="#939598" x1="143.329" y1="24.964" x2="218.73" y2="24.964"/>
	<line fill="none" stroke="#939598" x1="230.248" y1="159.964" x2="230.248" y2="100.964"/>
	
		<rect x="67.03" y="251.222" transform="matrix(-0.7071 0.7072 -0.7072 -0.7071 337.0198 382.085)" fill="#FFFFFF" stroke="#939598" width="44.68" height="19.251"/>
	<polyline fill="#FFFFFF" stroke="#939598" points="179.814,327.743 180.064,308.993 205.064,308.993 204.814,327.608 	"/>
	
		<line fill="none" stroke="#939598" stroke-dasharray="1.5,1.5,1.5,1.5,1.5,1.5" x1="48.148" y1="317.797" x2="76.496" y2="317.797"/>
	<g>
		<g>
			<rect x="104.095" y="305.617" fill="#FFFFFF" stroke="#939598" width="23.25" height="19.75"/>
			<path fill="#FFFFFF" stroke="#939598" d="M115.72,315.492"/>
		</g>
		<g>
			<g>
				<circle fill="#FFFFFF" stroke="#939598" cx="121.035" cy="309.992" r="2.824"/>
				<path fill="#FFFFFF" stroke="#939598" d="M121.035,309.992"/>
			</g>
			<g>
				<circle fill="#FFFFFF" stroke="#939598" stroke-width="0.8" cx="121.062" cy="309.993" r="1.989"/>
				<path fill="#FFFFFF" stroke="#939598" d="M121.062,309.992"/>
			</g>
		</g>
		<g>
			<g>
				<circle fill="#FFFFFF" stroke="#939598" cx="109.748" cy="318.242" r="2.824"/>
				<path fill="#FFFFFF" stroke="#939598" d="M109.748,318.242"/>
			</g>
			<g>
				<circle fill="#FFFFFF" stroke="#939598" stroke-width="0.8" cx="109.72" cy="318.243" r="1.989"/>
				<path fill="#FFFFFF" stroke="#939598" d="M109.72,318.242"/>
			</g>
		</g>
		<g>
			<g>
				<circle fill="#FFFFFF" stroke="#939598" cx="121.073" cy="318.215" r="3.219"/>
				<path fill="#FFFFFF" stroke="#939598" d="M121.073,318.215"/>
			</g>
			<g>
				<circle fill="#FFFFFF" stroke="#939598" stroke-width="0.8" cx="121.042" cy="318.215" r="2.268"/>
				<path fill="#FFFFFF" stroke="#939598" d="M121.042,318.215"/>
			</g>
		</g>
		<g>
			<g>
				<circle fill="#FFFFFF" stroke="#939598" cx="109.761" cy="309.775" r="3.219"/>
				<path fill="#FFFFFF" stroke="#939598" d="M109.761,309.775"/>
			</g>
			<g>
				<circle fill="#FFFFFF" stroke="#939598" stroke-width="0.8" cx="109.729" cy="309.775" r="2.268"/>
				<path fill="#FFFFFF" stroke="#939598" d="M109.729,309.775"/>
			</g>
		</g>
		<line fill="none" stroke="#939598" x1="127.376" y1="322.635" x2="104.095" y2="322.635"/>
		<line fill="none" stroke="#939598" x1="127.346" y1="323.727" x2="104.095" y2="323.727"/>
	</g>
	<g>
		<polyline fill="none" stroke="#939598" stroke-dasharray="1.5,1,1.5,1,1.5,1" points="131.617,303.316 149.486,303.316 
			149.486,285.792 132.02,285.792 		"/>
		<polyline fill="#FFFFFF" stroke="#939598" points="132.02,285.766 130.956,285.766 130.956,303.316 131.609,303.316 		"/>
	</g>
	<polyline fill="none" stroke="#939598" stroke-dasharray="1.5,1.5,1.5,1.5,1.5,1.5" points="141.148,291.357 141.148,256.266 
		151.398,256.266 	"/>
	<polyline fill="none" stroke="#939598" stroke-dasharray="1.5,1.5,1.5,1.5,1.5,1.5" points="90.996,317.797 141.148,317.797 
		141.148,298.607 	"/>
	<line fill="none" stroke="#939598" x1="90.829" y1="308.775" x2="90.829" y2="326.275"/>
	<g>
		<path fill="#FFFFFF" stroke="#939598" stroke-miterlimit="10" d="M173.215,312.81c0-4.462-2.711-9.376-6.053-9.376
			s-6.041,4.914-6.041,9.376c0,4.464,2.699,6.785,6.041,6.785S173.215,317.272,173.215,312.81"/>
		<path fill="#FFFFFF" stroke="#939598" d="M173.215,312.81c0-4.462-2.711-9.376-6.053-9.376s-6.041,4.914-6.041,9.376
			c0,4.464,2.699,6.785,6.041,6.785S173.215,317.272,173.215,312.81z"/>
		<path fill="#FFFFFF" stroke="#939598" stroke-miterlimit="10" d="M163.539,318.132c0-0.25-0.205-0.455-0.455-0.455h-2.107
			c-0.25,0-0.455,0.205-0.455,0.455v0.077c0,0.25,0.205,0.455,0.455,0.455h2.107c0.25,0,0.455-0.205,0.455-0.455V318.132z"/>
		<path fill="#FFFFFF" stroke="#939598" d="M163.539,318.132c0-0.25-0.205-0.455-0.455-0.455h-2.107
			c-0.25,0-0.455,0.205-0.455,0.455v0.077c0,0.25,0.205,0.455,0.455,0.455h2.107c0.25,0,0.455-0.205,0.455-0.455V318.132z"/>
		<path fill="#FFFFFF" stroke="#939598" stroke-miterlimit="10" d="M160.201,318.676c-0.758,0-1.375,2.058-1.375,2.816
			c0,0.769,0.617,2.825,1.375,2.825h13.814c0.76,0,1.375-2.058,1.375-2.825c0-0.76-0.615-2.814-1.375-2.814L160.201,318.676z"/>
		<path fill="#FFFFFF" stroke="#939598" d="M160.201,318.676c-0.758,0-1.375,2.058-1.375,2.816c0,0.769,0.617,2.825,1.375,2.825
			h13.814c0.76,0,1.375-2.058,1.375-2.825c0-0.76-0.615-2.814-1.375-2.814L160.201,318.676z"/>
		<path fill="#FFFFFF" stroke="#939598" stroke-miterlimit="10" d="M171.611,312.623c0-3.279-1.992-6.893-4.449-6.893
			s-4.447,3.612-4.447,6.893s1.99,4.985,4.447,4.985S171.611,315.902,171.611,312.623"/>
		<path fill="#FFFFFF" stroke="#939598" d="M171.611,312.623c0-3.279-1.992-6.893-4.449-6.893s-4.447,3.612-4.447,6.893
			s1.99,4.985,4.447,4.985S171.611,315.902,171.611,312.623z"/>
	</g>
	<g>
		<g>
			<rect x="205.708" y="259.245" fill="#FFFFFF" stroke="#939598" width="23.625" height="45.692"/>
			<path fill="#FFFFFF" stroke="#939598" d="M217.521,282.093"/>
			<path fill="#FFFFFF" stroke="#939598" d="M217.521,282.249"/>
			<path fill="#FFFFFF" stroke="#939598" d="M217.521,297.742"/>
		</g>
		<circle fill="#FFFFFF" stroke="#939598" cx="217.632" cy="294.524" r="0.969"/>
		<path fill="#FFFFFF" stroke="#939598" d="M217.593,261.854c-6.771,0-9.25,1.562-9.25,3.752c0,0,0,32.84,0,33.377
			c0,0.535,0.146,1.641,1.562,1.641c1.418,0,7.688,0,7.688,0h0.017c0,0,6.271,0,7.688,0c1.416,0,1.562-1.105,1.562-1.641
			c0-0.537,0-33.354,0-33.354l-0.002-0.021C226.855,263.417,224.32,261.854,217.593,261.854z"/>
		<path fill="#FFFFFF" stroke="#939598" d="M215.602,302.322c0.002-0.549-0.44-0.988-0.996-0.988c-0.537,0-0.981,0.439-0.985,0.988
			c0.004,0.545,0.448,0.994,0.985,0.994C215.16,303.316,215.604,302.873,215.602,302.322z"/>
		<path fill="#FFFFFF" stroke="#939598" d="M221.742,302.322c0.006-0.549-0.445-0.988-0.99-0.988c-0.543,0-0.99,0.439-0.99,0.988
			c0,0.545,0.447,0.994,0.99,0.988C221.299,303.316,221.742,302.867,221.742,302.322z"/>
		<path fill="#FFFFFF" stroke="#939598" d="M216.299,302.615c0,0.812,0.549,1.469,1.361,1.471c0.811-0.002,1.254-0.658,1.254-1.471
			l-0.521-5.592c0-0.549-1.481-0.549-1.481,0L216.299,302.615z"/>
	</g>
	<g>
		<g>
			<g>
				<g>
					<rect x="209.379" y="227.773" fill="#FFFFFF" stroke="#939598" width="18.545" height="20.188"/>
					<path fill="#FFFFFF" stroke="#939598" d="M218.035,237.868"/>
					<polyline fill="#FFFFFF" stroke="#939598" points="214.912,231.743 212.091,231.743 211.434,234.182 211.434,241.648 
						212.091,244.118 214.912,244.118 					"/>
					<line fill="none" stroke="#939598" x1="214.912" y1="248.107" x2="214.912" y2="227.773"/>
					<path fill="#FFFFFF" stroke="#939598" d="M217.089,237.932"/>
				</g>
			</g>
		</g>
		<polygon fill="#FFFFFF" stroke="#939598" points="213.695,246.98 213.691,245.35 214.829,244.991 214.834,247.339 		"/>
	</g>
	<g>
		<g>
			<g>
				<polygon fill="none" stroke="#939598" stroke-width="0.7" points="83.393,299.809 84.644,300.496 79.435,309.089 
					78.183,308.402 				"/>
				<path fill="none" stroke="#939598" stroke-width="0.8" d="M80.463,305.145"/>
			</g>
			<path fill="none" stroke="#939598" stroke-width="0.8" d="M83.872,300.223c3.202,1.94,4.925,5.395,4.809,8.889"/>
		</g>
	</g>
	<g>
		<g>
			<g>
				<path fill="none" stroke="#939598" d="M192.572,315.577"/>
			</g>
			<g>
				<path fill="none" stroke="#939598" d="M192.572,316.64"/>
			</g>
			<g>
				<circle fill="none" stroke="#939598" cx="192.572" cy="315.577" r="1.017"/>
				<path fill="none" stroke="#939598" d="M192.572,315.577"/>
			</g>
			<g>
				<g>
					<rect x="188.307" y="321.952" fill="none" stroke="#939598" width="8.553" height="2.125"/>
					<path fill="none" stroke="#939598" d="M192.572,323.015"/>
				</g>
				<g>
					<rect x="192.119" y="317.827" fill="none" stroke="#939598" width="0.906" height="4.031"/>
					<path fill="none" stroke="#939598" d="M192.572,320.188"/>
				</g>
				<g>
					<circle fill="none" stroke="#939598" cx="192.572" cy="322.994" r="0.986"/>
					<path fill="none" stroke="#939598" d="M192.572,322.994"/>
				</g>
			</g>
		</g>
		<g>
			<rect x="184.045" y="310.527" fill="none" stroke="#939598" width="17.076" height="13.875"/>
			<rect x="185.438" y="311.922" fill="none" stroke="#939598" width="14.256" height="9.98"/>
		</g>
	</g>
</g>
<g id="walls">
	<polyline fill="none" stroke="#939598" stroke-width="3" points="1.898,25.548 32.85,25.548 32.85,21.858 	"/>
	<polyline fill="none" stroke="#939598" stroke-width="3" points="141.98,20.608 141.98,25.505 108.156,25.505 108.113,22.394 	"/>
	<polyline fill="none" stroke="#939598" stroke-width="3" points="218.648,20.964 218.648,25.448 231.336,25.448 231.336,104.464 
		236.898,104.464 	"/>
	<path fill="none" stroke="#58595B" stroke-width="4" d="M131.398,217.464"/>
	<path fill="none" stroke="#58595B" stroke-width="4" d="M131.398,27.464"/>
	<polyline fill="none" stroke="#939598" stroke-width="3" points="33.398,246.964 42.398,246.964 42.398,225.214 2.148,225.214 	"/>
	<line fill="none" stroke="#939598" stroke-width="3" x1="3.648" y1="246.964" x2="9.898" y2="246.964"/>
	<polyline fill="none" stroke="#939598" stroke-width="3" points="174.709,217.464 130.398,217.464 130.398,25.964 	"/>
	<line fill="none" stroke="#939598" stroke-width="3" x1="230.148" y1="217.464" x2="198.289" y2="217.464"/>
	<line fill="none" stroke="#939598" stroke-width="3" x1="210.148" y1="209.464" x2="210.148" y2="216.964"/>
	<polyline fill="none" stroke="#939598" stroke-width="3" points="231.398,164.011 210.148,164.011 210.148,168.464 	"/>
	<polyline fill="none" stroke="#939598" stroke-width="3" points="154.148,168.464 154.148,164.063 130.162,163.858 	"/>
	<line fill="none" stroke="#939598" stroke-width="3" x1="154.148" y1="217.964" x2="154.148" y2="210.214"/>
	<polyline fill="none" stroke="#939598" stroke-width="3" points="206.635,327.464 206.635,306.214 230.898,306.214 	"/>
	<line fill="none" stroke="#939598" stroke-width="3" x1="186.023" y1="257.464" x2="230.148" y2="257.464"/>
	<polyline fill="none" stroke="#939598" stroke-width="3" points="152.398,327.464 152.398,257.464 162.523,257.464 	"/>
	<line fill="none" stroke="#939598" stroke-width="3" x1="205.877" y1="226.436" x2="205.898" y2="217.214"/>
	<line fill="none" stroke="#939598" stroke-width="3" x1="205.898" y1="257.464" x2="205.898" y2="248.271"/>
	<polyline fill="none" stroke="#939598" stroke-width="5" points="101.829,20.042 107.189,20.036 107.189,17.214 142.732,17.214 
		142.898,20.036 236.797,20.036 236.797,160.761 231.398,160.761 231.398,328.464 47.557,328.519 47.557,308.214 34.959,308.214 
		34.959,309.714 47.148,309.714 	"/>
	<polyline fill="none" stroke="#939598" stroke-width="5" points="2.398,308.464 7.535,308.464 7.535,310.212 2.5,310.11 
		2.5,247.214 2.5,16.108 33.662,16.108 33.861,20.108 38.162,20.104 	"/>
	<line fill="none" stroke="#939598" stroke-width="3" x1="155.148" y1="257.714" x2="155.148" y2="327.464"/>
	<g>
		<rect x="67.815" y="20.308" fill="none" stroke="#939598" width="37.5" height="1.766"/>
		<rect x="35.565" y="18.235" fill="none" stroke="#939598" width="41" height="1.938"/>
	</g>
</g>
<g id="windows">
	<g>
		<rect x="234.908" y="106.892" fill="#FFFFFF" stroke="#939598" width="3.824" height="50.75"/>
		<line fill="none" stroke="#939598" x1="236.898" y1="106.892" x2="236.898" y2="158.392"/>
		<line fill="none" stroke="#939598" stroke-width="2" x1="239.037" y1="131.267" x2="234.912" y2="131.267"/>
	</g>
	<g>
		<g>
			<rect x="146.336" y="18.276" fill="#FFFFFF" stroke="#939598" width="69.562" height="3.674"/>
			<line fill="none" stroke="#939598" x1="215.898" y1="20.095" x2="145.586" y2="20.095"/>
			<line fill="none" stroke="#939598" stroke-width="2" x1="193.225" y1="22.108" x2="193.225" y2="18.614"/>
		</g>
		<line fill="none" stroke="#939598" stroke-width="2" x1="169.836" y1="22.233" x2="169.836" y2="18.632"/>
	</g>
</g>
<g id="Type">
	<g enable-background="new    ">
		<path fill="#939598" d="M137.493,298.032h-1.702v-4.902h1.702c1.54,0,2.604,1.058,2.604,2.444S139.033,298.032,137.493,298.032z
			 M137.493,293.641h-1.149v3.88h1.149c1.239,0,2.03-0.84,2.03-1.933S138.732,293.641,137.493,293.641z"/>
		<path fill="#939598" d="M143.983,293.115h0.455l1.345,4.098l1.4-4.083h0.582l-1.752,4.938h-0.469l-1.345-3.979l-1.352,3.979
			h-0.462l-1.752-4.938h0.604l1.4,4.083L143.983,293.115z"/>
	</g>
	<g enable-background="new    ">
		<path fill="#939598" d="M60.641,314.033l-1.422-1.905h-1.401v1.905h-0.553v-4.902h2.108c1.078,0,1.771,0.581,1.771,1.464
			c0,0.819-0.56,1.295-1.331,1.436l1.506,2.003H60.641z M59.331,309.642h-1.513v1.989h1.506c0.735,0,1.261-0.378,1.261-1.016
			C60.584,310.006,60.122,309.642,59.331,309.642z"/>
		<path fill="#939598" d="M63.761,313.648c0.497,0,0.848-0.203,1.142-0.512l0.336,0.301c-0.364,0.406-0.805,0.68-1.492,0.68
			c-0.995,0-1.807-0.764-1.807-1.891c0-1.051,0.735-1.892,1.737-1.892c1.071,0,1.688,0.854,1.688,1.919c0,0.05,0,0.105-0.007,0.168
			h-2.872C62.563,313.207,63.124,313.648,63.761,313.648z M64.819,312.023c-0.056-0.658-0.434-1.233-1.156-1.233
			c-0.63,0-1.106,0.525-1.177,1.233H64.819z"/>
		<path fill="#939598" d="M68.192,310.426v0.463h-1.142v3.145h-0.539v-3.145h-0.498v-0.47h0.498v-0.314
			c0-0.792,0.399-1.212,1.092-1.212c0.252,0,0.42,0.028,0.595,0.091v0.47c-0.196-0.057-0.343-0.092-0.525-0.092
			c-0.42,0-0.63,0.253-0.63,0.771v0.294H68.192z"/>
	</g>
	<g enable-background="new    ">
		<path fill="#939598" d="M177.691,289.789c0,0.828-0.504,1.252-1,1.468c0.748,0.225,1.351,0.657,1.351,1.53
			c0,1.089-0.909,1.729-2.286,1.729h-2.801v-6.302h2.684C176.881,288.214,177.691,288.826,177.691,289.789z M176.971,289.889
			c0-0.631-0.495-1.036-1.395-1.036h-1.918v2.17h1.863C176.377,291.022,176.971,290.636,176.971,289.889z M177.322,292.742
			c0-0.693-0.576-1.09-1.675-1.09h-1.989v2.224h2.115C176.729,293.876,177.322,293.453,177.322,292.742z"/>
	</g>
	<g enable-background="new    ">
		<path fill="#939598" d="M179.607,290.753l-0.207-0.567c0.513-0.234,1.017-0.388,1.691-0.388c1.27,0,1.98,0.648,1.98,1.873v2.845
			h-0.666v-0.702c-0.324,0.423-0.863,0.801-1.684,0.801c-0.863,0-1.736-0.485-1.736-1.458c0-0.99,0.81-1.513,1.988-1.513
			c0.595,0,1.018,0.081,1.432,0.198v-0.162c0-0.837-0.513-1.27-1.387-1.27C180.471,290.41,180.039,290.555,179.607,290.753z
			 M179.688,293.129c0,0.595,0.541,0.937,1.171,0.937c0.854,0,1.558-0.522,1.558-1.261v-0.449c-0.342-0.1-0.802-0.198-1.369-0.198
			C180.174,292.157,179.688,292.535,179.688,293.129z"/>
	</g>
	<g enable-background="new    ">
		<path fill="#939598" d="M185.35,293.192c0,0.567,0.314,0.774,0.783,0.774c0.234,0,0.432-0.045,0.675-0.162v0.594
			c-0.243,0.126-0.504,0.198-0.837,0.198c-0.748,0-1.314-0.369-1.314-1.314v-2.809h-0.648v-0.612h0.648v-1.404h0.693v1.404h1.477
			v0.612h-1.477V293.192z"/>
		<path fill="#939598" d="M188.742,294.516h-0.693v-6.572h0.693v2.729c0.306-0.505,0.792-0.91,1.594-0.91
			c1.125,0,1.781,0.757,1.781,1.864v2.89h-0.692v-2.719c0-0.864-0.468-1.404-1.288-1.404c-0.801,0-1.395,0.585-1.395,1.458V294.516z
			"/>
	</g>
	<g enable-background="new    ">
		<path fill="#939598" d="M17.237,307.718h-2.991v1.674h2.675v0.505h-2.675v1.716h3.026v0.504h-3.579v-4.902h3.544V307.718z"/>
	</g>
	<g enable-background="new    ">
		<path fill="#939598" d="M18.831,312.116h-0.539v-3.621h0.539v0.631c0.238-0.393,0.616-0.708,1.24-0.708
			c0.875,0,1.387,0.589,1.387,1.45v2.248h-0.54v-2.115c0-0.672-0.364-1.093-1.001-1.093c-0.623,0-1.085,0.455-1.085,1.135V312.116z"
			/>
	</g>
	<g enable-background="new    ">
		<path fill="#939598" d="M23.283,311.087c0,0.441,0.245,0.603,0.609,0.603c0.182,0,0.336-0.035,0.525-0.127v0.463
			c-0.189,0.098-0.392,0.154-0.651,0.154c-0.582,0-1.022-0.288-1.022-1.023v-2.185H22.24v-0.477h0.504v-1.093h0.539v1.093h1.149
			v0.477h-1.149V311.087z"/>
		<path fill="#939598" d="M25.922,312.116h-0.539v-3.621h0.539v0.945c0.266-0.602,0.792-1.036,1.478-1.008v0.581h-0.042
			c-0.791,0-1.436,0.567-1.436,1.66V312.116z"/>
		<path fill="#939598" d="M29.983,312.235c-0.308,0.749-0.658,1.022-1.205,1.022c-0.301,0-0.525-0.063-0.771-0.182l0.182-0.428
			c0.175,0.091,0.336,0.133,0.567,0.133c0.322,0,0.525-0.168,0.742-0.679l-1.646-3.607h0.595l1.317,3.019l1.163-3.019h0.574
			L29.983,312.235z"/>
	</g>
	<g enable-background="new    ">
		<path fill="#939598" d="M164.732,86.97c0,0.828-0.504,1.252-1,1.468c0.748,0.225,1.351,0.657,1.351,1.53
			c0,1.089-0.909,1.729-2.286,1.729h-2.801v-6.302h2.684C163.922,85.395,164.732,86.007,164.732,86.97z M164.012,87.069
			c0-0.631-0.495-1.036-1.395-1.036h-1.918v2.17h1.863C163.418,88.203,164.012,87.816,164.012,87.069z M164.363,89.923
			c0-0.693-0.576-1.09-1.675-1.09h-1.989v2.224h2.115C163.77,91.057,164.363,90.634,164.363,89.923z"/>
		<path fill="#939598" d="M168.43,91.201c0.64,0,1.09-0.261,1.469-0.657l0.432,0.387c-0.469,0.522-1.035,0.874-1.918,0.874
			c-1.278,0-2.322-0.981-2.322-2.431c0-1.351,0.945-2.432,2.232-2.432c1.377,0,2.17,1.099,2.17,2.467c0,0.063,0,0.136-0.01,0.217
			h-3.69C166.891,90.634,167.611,91.201,168.43,91.201z M169.789,89.112c-0.071-0.846-0.558-1.584-1.484-1.584
			c-0.811,0-1.423,0.675-1.513,1.584H169.789z"/>
		<path fill="#939598" d="M175.441,91.696V90.76c-0.378,0.559-0.928,1.035-1.782,1.035c-1.116,0-2.224-0.882-2.224-2.421
			c0-1.531,1.107-2.432,2.224-2.432c0.864,0,1.423,0.469,1.782,0.991v-2.81h0.693v6.572H175.441z M173.785,87.564
			c-0.9,0-1.639,0.666-1.639,1.8c0,1.107,0.756,1.81,1.639,1.81c0.864,0,1.684-0.72,1.684-1.81
			C175.469,88.284,174.649,87.564,173.785,87.564z"/>
		<path fill="#939598" d="M178.375,91.696h-0.693v-4.654h0.693v1.215c0.342-0.773,1.018-1.332,1.899-1.296v0.747h-0.054
			c-1.018,0-1.846,0.729-1.846,2.134V91.696z"/>
		<path fill="#939598" d="M183.254,91.805c-1.396,0-2.413-1.099-2.413-2.422s1.026-2.44,2.431-2.44c1.396,0,2.422,1.099,2.422,2.422
			C185.693,90.688,184.658,91.805,183.254,91.805z M183.254,87.555c-1.009,0-1.702,0.802-1.702,1.81c0,1.009,0.738,1.819,1.72,1.819
			c1.008,0,1.711-0.802,1.711-1.801C184.982,88.365,184.234,87.555,183.254,87.555z"/>
		<path fill="#939598" d="M189.067,91.805c-1.396,0-2.413-1.099-2.413-2.422s1.026-2.44,2.432-2.44c1.395,0,2.421,1.099,2.421,2.422
			C191.507,90.688,190.472,91.805,189.067,91.805z M189.067,87.555c-1.009,0-1.702,0.802-1.702,1.81
			c0,1.009,0.738,1.819,1.721,1.819c1.008,0,1.71-0.802,1.71-1.801C190.796,88.365,190.049,87.555,189.067,87.555z"/>
		<path fill="#939598" d="M198.086,86.942c1.072,0,1.729,0.721,1.729,1.873v2.881h-0.693v-2.719c0-0.9-0.449-1.404-1.206-1.404
			c-0.702,0-1.287,0.521-1.287,1.44v2.683h-0.685V88.96c0-0.874-0.459-1.387-1.197-1.387s-1.297,0.612-1.297,1.467v2.656h-0.692
			v-4.654h0.692v0.783c0.307-0.459,0.721-0.883,1.504-0.883c0.756,0,1.242,0.405,1.494,0.928
			C196.781,87.357,197.275,86.942,198.086,86.942z"/>
	</g>
	<g enable-background="new    ">
		<path fill="#939598" d="M156.555,96.35h0.521v6.347h-0.702v-5.608l-1.188,0.369l-0.171-0.576L156.555,96.35z"/>
		<path fill="#939598" d="M161.198,102.805c-1.63,0-2.655-1.477-2.655-3.25s1.044-3.269,2.674-3.269c1.62,0,2.646,1.477,2.646,3.25
			S162.818,102.805,161.198,102.805z M161.198,96.935c-1.179,0-1.917,1.206-1.917,2.602s0.756,2.62,1.936,2.62
			c1.179,0,1.908-1.216,1.908-2.602C163.125,98.168,162.378,96.935,161.198,96.935z"/>
		<path fill="#939598" d="M165.275,96.395h0.846v0.045l-0.729,2.403h-0.388L165.275,96.395z"/>
		<path fill="#939598" d="M167.236,96.395h4.277v0.531l-2.863,5.771h-0.793l2.846-5.653h-3.467V96.395z"/>
		<path fill="#939598" d="M172.844,96.395h0.837v0.045l-0.729,2.403h-0.378L172.844,96.395z M174.607,96.395h0.829v0.045
			l-0.729,2.403h-0.378L174.607,96.395z"/>
	</g>
	<g enable-background="new    ">
		<path fill="#939598" d="M183.402,102.696h-0.802l-1.44-1.899l-1.449,1.899h-0.774l1.827-2.368l-1.755-2.286h0.792l1.377,1.801
			l1.378-1.801h0.774l-1.765,2.269L183.402,102.696z"/>
		<path fill="#939598" d="M188.242,96.35h0.522v6.347h-0.702v-5.608l-1.188,0.369l-0.172-0.576L188.242,96.35z"/>
		<path fill="#939598" d="M190.744,96.395h3.629v0.657h-3.008l-0.135,2.017c0.369-0.162,0.721-0.279,1.242-0.279
			c1.225,0,2.18,0.729,2.18,1.936c0,1.242-0.938,2.08-2.251,2.08c-0.9,0-1.684-0.433-2.251-1l0.469-0.513
			c0.549,0.531,1.152,0.864,1.791,0.864c0.9,0,1.521-0.595,1.521-1.404c0-0.792-0.639-1.333-1.566-1.333
			c-0.531,0-0.955,0.162-1.324,0.36l-0.477-0.315L190.744,96.395z"/>
		<path fill="#939598" d="M196.037,96.395h0.846v0.045l-0.729,2.403h-0.388L196.037,96.395z"/>
		<path fill="#939598" d="M200.6,102.805c-1.629,0-2.655-1.477-2.655-3.25s1.044-3.269,2.674-3.269c1.62,0,2.647,1.477,2.647,3.25
			S202.221,102.805,200.6,102.805z M200.6,96.935c-1.179,0-1.917,1.206-1.917,2.602s0.757,2.62,1.936,2.62s1.909-1.216,1.909-2.602
			C202.527,98.168,201.779,96.935,200.6,96.935z"/>
		<path fill="#939598" d="M204.676,96.395h0.838v0.045l-0.729,2.403h-0.378L204.676,96.395z M206.44,96.395h0.829v0.045l-0.73,2.403
			h-0.377L206.44,96.395z"/>
	</g>
	<g enable-background="new    ">
		<path fill="#939598" d="M24.063,122.397h0.711v5.645h3.547v0.657h-4.258V122.397z"/>
		<path fill="#939598" d="M29.535,123.027v-0.765h0.792v0.765H29.535z M29.58,128.699v-4.654h0.693v4.654H29.58z"/>
		<path fill="#939598" d="M35.332,124.045h0.747l-2.025,4.69h-0.612l-2.017-4.69h0.766l1.566,3.862L35.332,124.045z"/>
		<path fill="#939598" d="M37.185,123.027v-0.765h0.792v0.765H37.185z M37.23,128.699v-4.654h0.693v4.654H37.23z"/>
		<path fill="#939598" d="M40.227,128.699h-0.693v-4.654h0.693v0.811c0.306-0.505,0.792-0.91,1.594-0.91
			c1.125,0,1.782,0.757,1.782,1.864v2.89H42.91v-2.719c0-0.864-0.468-1.404-1.288-1.404c-0.801,0-1.396,0.585-1.396,1.458V128.699z"
			/>
		<path fill="#939598" d="M47.139,130.157c-0.774,0-1.495-0.216-2.116-0.647l0.315-0.54c0.531,0.387,1.125,0.594,1.792,0.594
			c1.026,0,1.693-0.567,1.693-1.656v-0.55c-0.405,0.541-0.973,0.981-1.828,0.981c-1.116,0-2.188-0.828-2.188-2.188
			c0-1.368,1.08-2.206,2.188-2.206c0.873,0,1.44,0.433,1.818,0.937v-0.837h0.693v3.844C49.507,129.393,48.57,130.157,47.139,130.157
			z M47.13,124.558c-0.882,0-1.611,0.604-1.611,1.576c0,0.954,0.747,1.593,1.611,1.593c0.882,0,1.711-0.63,1.711-1.584
			C48.841,125.179,48.012,124.558,47.13,124.558z"/>
		<path fill="#939598" d="M54.907,121.515l-4.177,8.337H50.09l4.177-8.337H54.907z"/>
		<path fill="#939598" d="M57.93,128.699h-2.188v-6.302h2.188c1.98,0,3.349,1.359,3.349,3.142
			C61.279,127.322,59.911,128.699,57.93,128.699z M57.93,123.055h-1.477v4.987h1.477c1.593,0,2.611-1.08,2.611-2.484
			S59.523,123.055,57.93,123.055z"/>
		<path fill="#939598" d="M62.682,123.027v-0.765h0.792v0.765H62.682z M62.727,128.699v-4.654h0.693v4.654H62.727z"/>
		<path fill="#939598" d="M65.723,128.699H65.03v-4.654h0.693v0.811c0.306-0.505,0.792-0.91,1.594-0.91
			c1.125,0,1.782,0.757,1.782,1.864v2.89h-0.693v-2.719c0-0.864-0.468-1.404-1.288-1.404c-0.801,0-1.396,0.585-1.396,1.458V128.699z
			"/>
		<path fill="#939598" d="M70.592,123.027v-0.765h0.792v0.765H70.592z M70.637,128.699v-4.654h0.693v4.654H70.637z"/>
		<path fill="#939598" d="M73.634,128.699h-0.693v-4.654h0.693v0.811c0.306-0.505,0.792-0.91,1.594-0.91
			c1.125,0,1.782,0.757,1.782,1.864v2.89h-0.693v-2.719c0-0.864-0.468-1.404-1.288-1.404c-0.801,0-1.396,0.585-1.396,1.458V128.699z
			"/>
		<path fill="#939598" d="M80.547,130.157c-0.774,0-1.495-0.216-2.116-0.647l0.315-0.54c0.531,0.387,1.125,0.594,1.792,0.594
			c1.026,0,1.693-0.567,1.693-1.656v-0.55c-0.405,0.541-0.973,0.981-1.828,0.981c-1.116,0-2.188-0.828-2.188-2.188
			c0-1.368,1.081-2.206,2.188-2.206c0.873,0,1.44,0.433,1.818,0.937v-0.837h0.693v3.844
			C82.915,129.393,81.978,130.157,80.547,130.157z M80.538,124.558c-0.882,0-1.611,0.604-1.611,1.576
			c0,0.954,0.747,1.593,1.611,1.593c0.882,0,1.71-0.63,1.71-1.584C82.248,125.179,81.42,124.558,80.538,124.558z"/>
		<path fill="#939598" d="M91.617,128.699l-1.828-2.449h-1.8v2.449h-0.711v-6.302h2.71c1.386,0,2.278,0.747,2.278,1.882
			c0,1.053-0.72,1.665-1.71,1.845l1.936,2.575H91.617z M89.934,123.055h-1.944v2.557h1.936c0.945,0,1.621-0.486,1.621-1.306
			C91.545,123.522,90.951,123.055,89.934,123.055z"/>
		<path fill="#939598" d="M95.703,128.808c-1.396,0-2.413-1.099-2.413-2.422s1.026-2.44,2.431-2.44c1.396,0,2.421,1.099,2.421,2.422
			C98.142,127.691,97.107,128.808,95.703,128.808z M95.703,124.558c-1.008,0-1.702,0.802-1.702,1.81c0,1.009,0.738,1.819,1.72,1.819
			c1.008,0,1.71-0.802,1.71-1.801C97.431,125.368,96.684,124.558,95.703,124.558z"/>
		<path fill="#939598" d="M101.517,128.808c-1.396,0-2.413-1.099-2.413-2.422s1.026-2.44,2.431-2.44
			c1.396,0,2.421,1.099,2.421,2.422C103.956,127.691,102.921,128.808,101.517,128.808z M101.517,124.558
			c-1.008,0-1.702,0.802-1.702,1.81c0,1.009,0.738,1.819,1.72,1.819c1.008,0,1.71-0.802,1.71-1.801
			C103.245,125.368,102.498,124.558,101.517,124.558z"/>
		<path fill="#939598" d="M110.536,123.945c1.071,0,1.729,0.721,1.729,1.873v2.881h-0.693v-2.719c0-0.9-0.45-1.404-1.207-1.404
			c-0.702,0-1.287,0.521-1.287,1.44v2.683h-0.685v-2.736c0-0.874-0.459-1.387-1.197-1.387s-1.296,0.612-1.296,1.467v2.656h-0.693
			v-4.654h0.693v0.783c0.306-0.459,0.72-0.883,1.503-0.883c0.756,0,1.243,0.405,1.495,0.928
			C109.23,124.36,109.725,123.945,110.536,123.945z"/>
	</g>
	<g enable-background="new    ">
		<path fill="#939598" d="M42.054,133.353h0.522v6.347h-0.702v-5.608l-1.188,0.369l-0.171-0.576L42.054,133.353z"/>
		<path fill="#939598" d="M44.268,134.036v-0.639h4.024v0.522l-1.981,2.196c1.107,0.09,2.08,0.621,2.08,1.782
			c0,1.135-0.936,1.909-2.106,1.909c-1.053,0-1.836-0.46-2.35-1.126l0.513-0.459c0.486,0.595,1.071,0.937,1.845,0.937
			c0.766,0,1.377-0.486,1.377-1.233c0-0.792-0.72-1.225-1.764-1.225h-0.405l-0.144-0.423l1.99-2.242H44.268z"/>
		<path fill="#939598" d="M49.857,133.397h0.846v0.045l-0.729,2.403h-0.387L49.857,133.397z"/>
		<path fill="#939598" d="M52.998,133.353h0.522v6.347h-0.702v-5.608l-1.188,0.369l-0.171-0.576L52.998,133.353z"/>
		<path fill="#939598" d="M57.642,139.808c-1.629,0-2.656-1.477-2.656-3.25s1.044-3.269,2.674-3.269c1.621,0,2.647,1.477,2.647,3.25
			S59.263,139.808,57.642,139.808z M57.642,133.938c-1.179,0-1.917,1.206-1.917,2.602s0.756,2.62,1.936,2.62
			s1.909-1.216,1.909-2.602C59.569,135.171,58.821,133.938,57.642,133.938z"/>
		<path fill="#939598" d="M61.719,133.397h0.837v0.045l-0.729,2.403h-0.378L61.719,133.397z M63.483,133.397h0.829v0.045
			l-0.729,2.403h-0.378L63.483,133.397z"/>
		<path fill="#939598" d="M72.339,139.699h-0.801l-1.44-1.899l-1.449,1.899h-0.774l1.828-2.368l-1.755-2.286h0.792l1.377,1.801
			l1.377-1.801h0.774l-1.765,2.269L72.339,139.699z"/>
		<path fill="#939598" d="M76.46,135.026l-0.522-0.378c0.567-0.846,1.161-1.341,2.269-1.341c1.143,0,1.954,0.756,1.954,1.791
			c0,0.928-0.486,1.495-1.594,2.458l-1.683,1.494h3.34v0.648h-4.402v-0.549l2.287-2.017c0.963-0.864,1.314-1.351,1.314-1.98
			c0-0.738-0.585-1.207-1.27-1.207C77.432,133.946,76.964,134.324,76.46,135.026z"/>
		<path fill="#939598" d="M82.571,133.353h0.522v6.347h-0.702v-5.608l-1.188,0.369l-0.171-0.576L82.571,133.353z"/>
		<path fill="#939598" d="M84.857,133.397h0.846v0.045l-0.729,2.403h-0.387L84.857,133.397z"/>
		<path fill="#939598" d="M88.862,139.808c-0.819,0-1.414-0.333-1.944-0.774l0.414-0.55c0.513,0.45,0.99,0.676,1.548,0.676
			c1.134,0,1.899-1.152,1.873-2.764c-0.342,0.549-0.909,1.008-1.783,1.008c-1.296,0-2.196-0.819-2.196-1.962
			c0-1.207,0.927-2.152,2.269-2.152c0.72,0,1.251,0.243,1.656,0.648c0.495,0.495,0.783,1.18,0.783,2.449
			C91.482,138.394,90.42,139.808,88.862,139.808z M89.016,133.92c-0.945,0-1.513,0.692-1.513,1.485c0,0.81,0.63,1.386,1.548,1.386
			c0.963,0,1.566-0.702,1.566-1.431C90.618,134.55,89.96,133.92,89.016,133.92z"/>
		<path fill="#939598" d="M92.885,133.397h0.837v0.045l-0.729,2.403h-0.378L92.885,133.397z M94.649,133.397h0.829v0.045
			l-0.729,2.403h-0.378L94.649,133.397z"/>
	</g>
	<g enable-background="new    ">
		<path fill="#939598" d="M151.127,196.675c0,1.415-1.113,2.458-2.528,2.458c-1.4,0-2.542-1.036-2.542-2.479
			c0-0.891,0.314-1.422,0.777-1.912l0.406,0.378c-0.393,0.413-0.673,0.876-0.673,1.54c0,1.086,0.876,1.898,2.018,1.898
			s2.031-0.819,2.031-1.898c0-0.672-0.26-1.113-0.708-1.582l0.357-0.364C150.784,195.225,151.127,195.785,151.127,196.675z"/>
		<path fill="#939598" d="M151.043,193.792h-5.112v-0.539h5.112V193.792z"/>
		<path fill="#939598" d="M151.127,190.348c0,1.086-0.854,1.877-1.884,1.877s-1.898-0.799-1.898-1.891
			c0-1.086,0.854-1.885,1.884-1.885C150.259,188.449,151.127,189.255,151.127,190.348z M147.821,190.348
			c0,0.784,0.623,1.323,1.407,1.323c0.785,0,1.415-0.574,1.415-1.337c0-0.785-0.623-1.332-1.4-1.332
			C148.451,189.002,147.821,189.584,147.821,190.348z"/>
		<path fill="#939598" d="M151.113,186.281c0,0.518-0.203,1.092-0.532,1.498l-0.386-0.273c0.294-0.392,0.463-0.826,0.463-1.254
			c0-0.434-0.225-0.749-0.575-0.749h-0.014c-0.364,0-0.504,0.427-0.638,0.903c-0.16,0.568-0.356,1.198-1.022,1.198h-0.014
			c-0.623,0-1.036-0.519-1.036-1.233c0-0.441,0.153-0.932,0.398-1.303l0.406,0.246c-0.217,0.336-0.35,0.721-0.35,1.071
			c0,0.427,0.224,0.7,0.525,0.7h0.014c0.343,0,0.477-0.448,0.623-0.932c0.168-0.561,0.386-1.162,1.037-1.162h0.014
			C150.714,184.992,151.113,185.559,151.113,186.281z"/>
		<path fill="#939598" d="M150.658,182.396c0-0.497-0.203-0.848-0.512-1.142l0.301-0.336c0.406,0.363,0.68,0.805,0.68,1.492
			c0,0.994-0.764,1.807-1.891,1.807c-1.051,0-1.892-0.736-1.892-1.737c0-1.071,0.854-1.688,1.919-1.688c0.05,0,0.105,0,0.168,0.008
			v2.871C150.217,183.594,150.658,183.033,150.658,182.396z M149.033,181.338c-0.658,0.057-1.233,0.434-1.233,1.156
			c0,0.63,0.525,1.105,1.233,1.176V181.338z"/>
		<path fill="#939598" d="M150.014,179.12c0.441,0,0.603-0.245,0.603-0.609c0-0.183-0.035-0.337-0.127-0.525h0.463
			c0.098,0.188,0.154,0.392,0.154,0.651c0,0.581-0.288,1.022-1.023,1.022h-2.185v0.505h-0.477v-0.505h-1.093v-0.539h1.093v-1.149
			h0.477v1.149H150.014z"/>
	</g>
	<g enable-background="new    ">
		<path fill="#939598" d="M34.156,282.349h-0.891l-2.422-3.052l-1.341,1.359v1.692H28.79v-6.302h0.711v3.763l3.619-3.763h0.918
			l-2.701,2.755L34.156,282.349z"/>
		<path fill="#939598" d="M35.162,276.677v-0.765h0.792v0.765H35.162z M35.207,282.349v-4.654H35.9v4.654H35.207z"/>
		<path fill="#939598" d="M38.447,281.025c0,0.567,0.315,0.774,0.783,0.774c0.234,0,0.432-0.045,0.675-0.162v0.594
			c-0.243,0.126-0.504,0.198-0.837,0.198c-0.747,0-1.314-0.369-1.314-1.314v-2.809h-0.648v-0.612h0.648v-1.404h0.693v1.404h1.477
			v0.612h-1.477V281.025z"/>
		<path fill="#939598" d="M43.111,282.457c-1.359,0-2.386-1.107-2.386-2.422c0-1.323,1.026-2.44,2.386-2.44
			c0.882,0,1.431,0.369,1.863,0.829l-0.459,0.485c-0.369-0.387-0.783-0.702-1.414-0.702c-0.945,0-1.666,0.802-1.666,1.81
			c0,1.018,0.738,1.819,1.71,1.819c0.594,0,1.053-0.298,1.422-0.693l0.441,0.414C44.542,282.078,43.984,282.457,43.111,282.457z"/>
		<path fill="#939598" d="M46.845,282.349h-0.693v-6.572h0.693v2.729c0.306-0.505,0.792-0.91,1.594-0.91
			c1.125,0,1.782,0.757,1.782,1.864v2.89h-0.693v-2.719c0-0.864-0.468-1.404-1.288-1.404c-0.801,0-1.396,0.585-1.396,1.458V282.349z
			"/>
		<path fill="#939598" d="M53.748,281.854c0.639,0,1.089-0.261,1.468-0.657l0.432,0.387c-0.468,0.522-1.036,0.874-1.918,0.874
			c-1.278,0-2.322-0.981-2.322-2.431c0-1.351,0.945-2.432,2.232-2.432c1.377,0,2.17,1.099,2.17,2.467c0,0.063,0,0.136-0.009,0.217
			H52.11C52.209,281.286,52.929,281.854,53.748,281.854z M55.107,279.765c-0.072-0.846-0.558-1.584-1.485-1.584
			c-0.81,0-1.422,0.675-1.512,1.584H55.107z"/>
		<path fill="#939598" d="M57.717,282.349h-0.693v-4.654h0.693v0.811c0.306-0.505,0.792-0.91,1.594-0.91
			c1.125,0,1.782,0.757,1.782,1.864v2.89H60.4v-2.719c0-0.864-0.468-1.404-1.288-1.404c-0.801,0-1.396,0.585-1.396,1.458V282.349z"
			/>
	</g>
	<g enable-background="new    ">
		<path fill="#939598" d="M14.734,244.2c-1.415,0-2.458-1.113-2.458-2.528c0-1.4,1.037-2.542,2.479-2.542
			c0.89,0,1.422,0.314,1.912,0.777l-0.378,0.406c-0.413-0.393-0.875-0.673-1.541-0.673c-1.086,0-1.898,0.876-1.898,2.018
			s0.819,2.031,1.898,2.031c0.672,0,1.113-0.26,1.583-0.708l0.364,0.357C16.184,243.857,15.624,244.2,14.734,244.2z"/>
		<path fill="#939598" d="M17.617,244.116v-5.112h0.539v5.112H17.617z"/>
		<path fill="#939598" d="M21.062,244.2c-1.086,0-1.877-0.854-1.877-1.884s0.798-1.898,1.891-1.898c1.086,0,1.884,0.854,1.884,1.884
			C22.96,243.332,22.154,244.2,21.062,244.2z M21.062,240.895c-0.785,0-1.324,0.623-1.324,1.407c0,0.785,0.574,1.415,1.337,1.415
			c0.785,0,1.331-0.623,1.331-1.4C22.407,241.524,21.825,240.895,21.062,240.895z"/>
		<path fill="#939598" d="M25.128,244.187c-0.518,0-1.092-0.203-1.499-0.532l0.273-0.386c0.392,0.294,0.827,0.463,1.254,0.463
			c0.434,0,0.75-0.225,0.75-0.575v-0.014c0-0.364-0.427-0.504-0.904-0.638c-0.567-0.16-1.198-0.356-1.198-1.022v-0.014
			c0-0.623,0.519-1.036,1.233-1.036c0.441,0,0.932,0.153,1.303,0.398l-0.245,0.406c-0.336-0.217-0.722-0.35-1.072-0.35
			c-0.427,0-0.7,0.224-0.7,0.525v0.014c0,0.343,0.448,0.477,0.932,0.623c0.56,0.168,1.163,0.386,1.163,1.037v0.014
			C26.417,243.787,25.85,244.187,25.128,244.187z"/>
		<path fill="#939598" d="M29.014,243.731c0.497,0,0.848-0.203,1.142-0.512l0.336,0.301c-0.364,0.406-0.805,0.68-1.492,0.68
			c-0.995,0-1.807-0.764-1.807-1.891c0-1.051,0.735-1.892,1.737-1.892c1.071,0,1.688,0.854,1.688,1.919c0,0.05,0,0.105-0.007,0.168
			h-2.872C27.816,243.29,28.376,243.731,29.014,243.731z M30.071,242.106c-0.056-0.658-0.434-1.233-1.156-1.233
			c-0.63,0-1.106,0.525-1.177,1.233H30.071z"/>
		<path fill="#939598" d="M32.289,243.087c0,0.441,0.245,0.603,0.609,0.603c0.182,0,0.336-0.035,0.525-0.127v0.463
			c-0.189,0.098-0.392,0.154-0.651,0.154c-0.581,0-1.022-0.288-1.022-1.023v-2.185h-0.504v-0.477h0.504v-1.093h0.539v1.093h1.149
			v0.477h-1.149V243.087z"/>
	</g>
	<g enable-background="new    ">
		<path fill="#939598" d="M81.938,264.871l3.467,3.467l-0.392,0.392l-3.466-3.466L81.938,264.871z"/>
	</g>
	<g enable-background="new    ">
		<path fill="#939598" d="M87.201,266.641c-0.366,0.366-0.916,0.629-1.436,0.684l-0.08-0.466c0.484-0.069,0.912-0.257,1.214-0.56
			c0.308-0.307,0.371-0.688,0.123-0.937l-0.01-0.01c-0.257-0.257-0.657-0.054-1.089,0.188c-0.516,0.287-1.1,0.595-1.57,0.123
			l-0.01-0.01c-0.441-0.439-0.366-1.099,0.139-1.604c0.312-0.312,0.768-0.551,1.203-0.64l0.113,0.46
			c-0.391,0.085-0.757,0.264-1.004,0.512c-0.303,0.302-0.338,0.652-0.124,0.866l0.01,0.01c0.242,0.242,0.653,0.021,1.099-0.218
			c0.516-0.277,1.096-0.551,1.557-0.09l0.009,0.01C87.83,265.447,87.711,266.131,87.201,266.641z"/>
		<path fill="#939598" d="M88.805,264.938l-3.615-3.614l0.381-0.382l3.615,3.615L88.805,264.938z"/>
		<path fill="#939598" d="M88.149,261.452l-0.426-0.198c0.153-0.41,0.347-0.771,0.719-1.144c0.698-0.698,1.445-0.733,2.12-0.06
			l1.564,1.564l-0.367,0.367l-0.386-0.386c0.054,0.411-0.034,0.915-0.485,1.366c-0.476,0.476-1.223,0.689-1.758,0.154
			c-0.545-0.545-0.387-1.278,0.262-1.928c0.327-0.326,0.604-0.515,0.896-0.678l-0.089-0.089c-0.461-0.461-0.98-0.416-1.461,0.064
			C88.438,260.789,88.278,261.105,88.149,261.452z M89.502,262.716c0.326,0.327,0.812,0.218,1.158-0.13
			c0.471-0.47,0.569-1.144,0.164-1.549l-0.248-0.248c-0.242,0.134-0.549,0.332-0.861,0.644
			C89.234,261.913,89.175,262.389,89.502,262.716z"/>
		<path fill="#939598" d="M93.318,260.424l-0.381,0.381l-2.561-2.561l0.381-0.381l0.446,0.446c-0.109-0.446-0.064-0.937,0.376-1.378
			c0.619-0.618,1.396-0.564,2.006,0.045l1.59,1.59l-0.382,0.382l-1.495-1.495c-0.476-0.476-1.029-0.516-1.48-0.064
			c-0.441,0.439-0.446,1.089,0.034,1.569L93.318,260.424z"/>
		<path fill="#939598" d="M98.041,255.701l-0.515-0.516c0.1,0.516,0.06,1.08-0.411,1.551c-0.613,0.613-1.709,0.738-2.555-0.109
			c-0.843-0.842-0.729-1.946-0.114-2.561c0.476-0.475,1.04-0.525,1.524-0.436l-1.544-1.545l0.382-0.381l3.614,3.614L98.041,255.701z
			 M94.857,254.339c-0.495,0.495-0.535,1.269,0.088,1.892c0.609,0.609,1.412,0.58,1.898,0.094c0.475-0.475,0.529-1.322-0.07-1.921
			C96.18,253.809,95.332,253.863,94.857,254.339z"/>
	</g>
	<g enable-background="new    ">
		<path fill="#939598" d="M46.347,6.02c-0.735,0-1.205-0.364-1.513-0.869l0.399-0.343c0.301,0.455,0.609,0.7,1.121,0.7
			c0.553,0,0.959-0.399,0.959-1.177V1.047h0.561v3.277C47.874,5.452,47.222,6.02,46.347,6.02z"/>
		<path fill="#939598" d="M51.661,2.328h0.532v3.621h-0.532v-0.63c-0.245,0.392-0.617,0.707-1.24,0.707
			c-0.875,0-1.387-0.589-1.387-1.45V2.328h0.539v2.115c0,0.673,0.364,1.093,1.001,1.093c0.617,0,1.086-0.455,1.086-1.135V2.328z"/>
		<path fill="#939598" d="M53.451,5.949V0.837h0.539v5.112H53.451z"/>
		<path fill="#939598" d="M55.257,1.537V0.941h0.617v0.596H55.257z M55.292,5.949V2.328h0.539v3.621H55.292z"/>
		<path fill="#939598" d="M58.681,5.564c0.497,0,0.848-0.203,1.142-0.512l0.336,0.301c-0.364,0.406-0.805,0.68-1.492,0.68
			c-0.995,0-1.807-0.764-1.807-1.891c0-1.051,0.735-1.892,1.737-1.892c1.071,0,1.688,0.854,1.688,1.919c0,0.05,0,0.105-0.007,0.168
			h-2.872C57.483,5.123,58.043,5.564,58.681,5.564z M59.738,3.939c-0.056-0.658-0.434-1.233-1.156-1.233
			c-0.63,0-1.106,0.525-1.177,1.233H59.738z"/>
		<path fill="#939598" d="M61.956,4.92c0,0.441,0.245,0.603,0.609,0.603c0.182,0,0.336-0.035,0.525-0.127v0.463
			c-0.189,0.098-0.392,0.154-0.651,0.154c-0.582,0-1.022-0.288-1.022-1.023V2.805h-0.504V2.328h0.504V1.235h0.539v1.093h1.149v0.477
			h-1.149V4.92z"/>
		<path fill="#939598" d="M69.931,2.272c0,0.645-0.392,0.974-0.777,1.142c0.581,0.175,1.05,0.511,1.05,1.19
			c0,0.848-0.707,1.345-1.779,1.345h-2.178V1.047h2.087C69.3,1.047,69.931,1.522,69.931,2.272z M69.37,2.35
			c0-0.49-0.385-0.806-1.085-0.806h-1.492v1.688h1.45C68.908,3.231,69.37,2.931,69.37,2.35z M69.644,4.569
			c0-0.539-0.448-0.848-1.303-0.848h-1.548v1.73h1.646C69.181,5.452,69.644,5.123,69.644,4.569z"/>
		<path fill="#939598" d="M71.419,3.021L71.258,2.58c0.399-0.182,0.792-0.301,1.317-0.301c0.987,0,1.541,0.504,1.541,1.457v2.213
			h-0.518V5.403c-0.252,0.329-0.672,0.623-1.31,0.623c-0.672,0-1.352-0.378-1.352-1.135c0-0.771,0.63-1.177,1.548-1.177
			c0.462,0,0.792,0.063,1.114,0.154V3.743c0-0.651-0.399-0.987-1.079-0.987C72.092,2.756,71.755,2.867,71.419,3.021z M71.482,4.871
			c0,0.462,0.42,0.728,0.911,0.728c0.665,0,1.211-0.406,1.211-0.98v-0.35c-0.266-0.077-0.623-0.154-1.064-0.154
			C71.861,4.114,71.482,4.408,71.482,4.871z"/>
		<path fill="#939598" d="M75.312,5.949V0.837h0.539v5.112H75.312z"/>
		<path fill="#939598" d="M78.735,6.033c-1.058,0-1.856-0.861-1.856-1.884c0-1.029,0.798-1.898,1.856-1.898
			c0.686,0,1.113,0.287,1.45,0.645l-0.357,0.378c-0.287-0.301-0.609-0.546-1.1-0.546c-0.735,0-1.295,0.623-1.295,1.407
			c0,0.792,0.574,1.415,1.331,1.415c0.462,0,0.819-0.23,1.106-0.539l0.343,0.322C79.849,5.739,79.415,6.033,78.735,6.033z"/>
		<path fill="#939598" d="M82.649,6.033c-1.086,0-1.877-0.854-1.877-1.884s0.798-1.898,1.891-1.898c1.086,0,1.884,0.854,1.884,1.884
			C84.547,5.165,83.741,6.033,82.649,6.033z M82.649,2.728c-0.785,0-1.324,0.623-1.324,1.407c0,0.785,0.574,1.415,1.337,1.415
			c0.785,0,1.331-0.623,1.331-1.4C83.994,3.357,83.412,2.728,82.649,2.728z"/>
		<path fill="#939598" d="M86.057,5.949h-0.539V2.328h0.539v0.631c0.238-0.393,0.616-0.708,1.24-0.708
			c0.875,0,1.387,0.589,1.387,1.45v2.248h-0.54V3.834c0-0.672-0.364-1.093-1.001-1.093c-0.623,0-1.085,0.455-1.085,1.135V5.949z"/>
		<path fill="#939598" d="M91.491,6.068c-0.308,0.749-0.658,1.022-1.205,1.022c-0.301,0-0.525-0.063-0.771-0.182l0.182-0.428
			c0.175,0.091,0.336,0.133,0.567,0.133c0.322,0,0.525-0.168,0.742-0.679l-1.646-3.607h0.595l1.317,3.019l1.163-3.019h0.574
			L91.491,6.068z"/>
	</g>
	<g enable-background="new    ">
		<path fill="#939598" d="M218.294,196.675c0,1.415-1.113,2.458-2.528,2.458c-1.4,0-2.542-1.036-2.542-2.479
			c0-0.891,0.314-1.422,0.777-1.912l0.406,0.378c-0.393,0.413-0.673,0.876-0.673,1.54c0,1.086,0.876,1.898,2.018,1.898
			s2.031-0.819,2.031-1.898c0-0.672-0.26-1.113-0.708-1.582l0.357-0.364C217.951,195.225,218.294,195.785,218.294,196.675z"/>
		<path fill="#939598" d="M218.21,193.792h-5.112v-0.539h5.112V193.792z"/>
		<path fill="#939598" d="M218.294,190.348c0,1.086-0.854,1.877-1.884,1.877s-1.898-0.799-1.898-1.891
			c0-1.086,0.854-1.885,1.884-1.885C217.426,188.449,218.294,189.255,218.294,190.348z M214.988,190.348
			c0,0.784,0.623,1.323,1.407,1.323c0.785,0,1.415-0.574,1.415-1.337c0-0.785-0.623-1.332-1.4-1.332
			C215.618,189.002,214.988,189.584,214.988,190.348z"/>
		<path fill="#939598" d="M218.28,186.281c0,0.518-0.203,1.092-0.532,1.498l-0.386-0.273c0.294-0.392,0.463-0.826,0.463-1.254
			c0-0.434-0.225-0.749-0.575-0.749h-0.014c-0.364,0-0.504,0.427-0.638,0.903c-0.16,0.568-0.356,1.198-1.022,1.198h-0.014
			c-0.623,0-1.036-0.519-1.036-1.233c0-0.441,0.153-0.932,0.398-1.303l0.406,0.246c-0.217,0.336-0.35,0.721-0.35,1.071
			c0,0.427,0.224,0.7,0.525,0.7h0.014c0.343,0,0.477-0.448,0.623-0.932c0.168-0.561,0.386-1.162,1.037-1.162h0.014
			C217.881,184.992,218.28,185.559,218.28,186.281z"/>
		<path fill="#939598" d="M217.825,182.396c0-0.497-0.203-0.848-0.512-1.142l0.301-0.336c0.406,0.363,0.68,0.805,0.68,1.492
			c0,0.994-0.764,1.807-1.891,1.807c-1.051,0-1.892-0.736-1.892-1.737c0-1.071,0.854-1.688,1.919-1.688c0.05,0,0.105,0,0.168,0.008
			v2.871C217.384,183.594,217.825,183.033,217.825,182.396z M216.2,181.338c-0.658,0.057-1.233,0.434-1.233,1.156
			c0,0.63,0.525,1.105,1.233,1.176V181.338z"/>
		<path fill="#939598" d="M217.181,179.12c0.441,0,0.603-0.245,0.603-0.609c0-0.183-0.035-0.337-0.127-0.525h0.463
			c0.098,0.188,0.154,0.392,0.154,0.651c0,0.581-0.288,1.022-1.023,1.022h-2.185v0.505h-0.477v-0.505h-1.093v-0.539h1.093v-1.149
			h0.477v1.149H217.181z"/>
	</g>
	<g enable-background="new    ">
		<path fill="#939598" d="M218.912,241.203v-0.455l4.098-1.345l-4.083-1.401v-0.58l4.938,1.75v0.47l-3.979,1.345l3.979,1.352v0.463
			l-4.938,1.75v-0.602l4.083-1.401L218.912,241.203z"/>
		<path fill="#939598" d="M218.24,234.218l6.485,3.25v0.497l-6.485-3.25V234.218z"/>
		<path fill="#939598" d="M223.829,231.866v1.702h-4.902v-1.702c0-1.54,1.058-2.604,2.444-2.604S223.829,230.326,223.829,231.866z
			 M219.438,231.866v1.149h3.88v-1.149c0-1.239-0.84-2.03-1.933-2.03S219.438,230.627,219.438,231.866z"/>
	</g>
	<g enable-background="new    ">
		<path fill="#939598" d="M84.643,322.666v0.951h1.383v0.443h-3.92v-1.468c0-0.885,0.471-1.468,1.249-1.468
			C84.205,321.125,84.643,321.831,84.643,322.666z M82.515,322.627v0.99h1.725v-0.969c0-0.649-0.348-1.075-0.868-1.075
			C82.806,321.573,82.515,321.994,82.515,322.627z"/>
		<path fill="#939598" d="M83.685,320.28l-0.353,0.128c-0.146-0.318-0.241-0.633-0.241-1.053c0-0.789,0.403-1.231,1.165-1.231h1.77
			v0.415h-0.437c0.263,0.201,0.498,0.537,0.498,1.047c0,0.537-0.303,1.08-0.907,1.08c-0.616,0-0.94-0.504-0.94-1.237
			c0-0.37,0.05-0.633,0.123-0.89h-0.101c-0.521,0-0.79,0.318-0.79,0.861C83.472,319.742,83.562,320.012,83.685,320.28z
			 M85.163,320.229c0.369,0,0.582-0.336,0.582-0.728c0-0.532-0.324-0.969-0.784-0.969h-0.279c-0.062,0.213-0.123,0.498-0.123,0.852
			C84.559,319.928,84.793,320.229,85.163,320.229z"/>
		<path fill="#939598" d="M86.025,316.774v0.431H83.13v-0.431h0.504c-0.313-0.19-0.565-0.493-0.565-0.991
			c0-0.7,0.471-1.109,1.159-1.109h1.798v0.432h-1.691c-0.537,0-0.873,0.291-0.873,0.801c0,0.498,0.363,0.868,0.907,0.868H86.025z"/>
	</g>
	<g enable-background="new    ">
		<path fill="#939598" d="M85.202,313.621c0.353,0,0.481-0.195,0.481-0.486c0-0.146-0.027-0.27-0.101-0.42h0.369
			c0.079,0.15,0.124,0.312,0.124,0.521c0,0.465-0.23,0.817-0.818,0.817h-1.747v0.403H83.13v-0.403h-0.873v-0.432h0.873v-0.918h0.381
			v0.918H85.202z"/>
	</g>
	<g enable-background="new    ">
		<path fill="#939598" d="M86.025,311.551v0.431H83.13v-0.431h0.756c-0.481-0.213-0.828-0.633-0.806-1.182h0.465v0.033
			c0,0.633,0.453,1.148,1.327,1.148H86.025z"/>
	</g>
	<g enable-background="new    ">
		<path fill="#939598" d="M86.12,308.229c0.6,0.246,0.818,0.526,0.818,0.963c0,0.24-0.051,0.42-0.146,0.616l-0.342-0.146
			c0.072-0.141,0.106-0.27,0.106-0.453c0-0.258-0.135-0.421-0.543-0.594l-2.885,1.315v-0.476l2.414-1.053l-2.414-0.93v-0.459
			L86.12,308.229z"/>
	</g>
</g>
</svg>
