<svg xmlns="http://www.w3.org/2000/svg" width="239.297" height="331.02" viewBox="0 0 239.297 331.02"><path fill="none" d="M1.83 308.94H47.16v18.668h184V160.275h6.667V19.608h-123v-11h-89v7.667H1.495z"/><g fill="#D1D3D4"><path d="M108.064 16.964h35.334v9.333h-35.334zM2.065 15.964h30.333v10H2.065zM207.324 305.63h22.645v22.667h-22.646zM237.064 104.63v-85H218.73v6h12.334v79z"/></g><path fill="#FFF" stroke="#939598" d="M88.996 308.775h43.166v-52.408h19.334v70.408l-74.834-.666v-17.335h1.758"/><path fill="#FFF" stroke="#939598" d="M149.57 259.023a.81.81 0 0 0-.812-.812h-14.152a.813.813 0 0 0-.812.813v24.008c0 .448.363.812.812.812h14.152a.81.81 0 0 0 .812-.81v-24.01z"/><circle fill="#FFF" stroke="#939598" cx="141.335" cy="270.94" r=".917"/><path fill="#FFF" stroke="#939598" d="M147.09 266.938h1.916v8.01h-1.916z"/><path fill="#FFF" stroke="#939598" d="M143.365 270.533h3.775v.818h-3.775z"/><circle fill="#FFF" stroke="#939598" cx="148.029" cy="270.941" r=".891"/><path fill="#FFF" stroke="#939598" d="M146.428 270.447v-10.094a.852.852 0 0 0-.852-.854h-9.707a.854.854 0 0 0-.853.853V281.7c0 .472.383.855.852.855h9.706c.47 0 .852-.383.852-.854v-10.237M50.717 303.33H75.62v21.97H50.716z"/><path fill="none" stroke="#939598" d="M50.658 304.867H75.62"/><path fill="#FFF" stroke="#939598" d="M71.523 302.246h2.02v1.068h-2.02z"/><g fill="none" stroke="#939598"><path d="M9.53 310.054l1.65-.052.014-23.775-1.67-.013zM10.276 286.195c13.114.445 23.383 11.246 22.936 24.358"/></g><g fill="none" stroke="#939598"><path d="M198.255 217.032l-1.67-.01-.017-23.817 1.672.01zM197.486 193.195c-13.113.445-23.383 11.225-22.936 24.338"/></g><g fill="none" stroke="#939598"><path d="M162.562 257.296l1.668-.013.017 23.82-1.692.01zM163.352 281.133c13.113-.445 23.383-11.29 22.936-24.402"/></g><g fill="none" stroke="#939598"><path d="M10.01 246.34l1.67-.014.016 23.82-1.714.01zM10.714 270.176c13.114-.445 23.383-11.29 22.936-24.402"/></g><g fill="none" stroke="#939598" stroke-width=".8"><path d="M154.03 164.848h1.1v29h-1.1z"/><path d="M153.077 185.098h1.077v29h-1.077z"/></g><g fill="none" stroke="#939598" stroke-width=".8"><path d="M209.014 165.598h1.143v29h-1.143z"/><path d="M210.14 185.848h1.162v29h-1.163z"/></g><g fill="none" stroke="#939598"><path d="M25.523 8.84h2.875v2.874h-2.875zM112.023 8.84h2.875v2.874h-2.875zM28.148 10.964h83.875M28.398 11.714v3.5M112.58 11.714v4.625M114.898 11.714v4.375M112.023 8.84H27.898M25.523 11.714v3"/></g><g fill="none" stroke="#939598"><path d="M205.553 226.1l-.008 1.586-22.627.014.008-1.59zM182.908 226.828c.423 12.458 10.664 22.214 23.12 21.788"/></g><path fill="none" stroke="#939598" d="M41.273 236.214H3.398M143.898 216.714V164.59M220.023 164.464v52.75"/><path fill="none" stroke="#939598" stroke-dasharray="1.5,1.5,1.5,1.5,1.5,1.5" d="M141.986 216.214v-51.75M221.898 216.09v-51.75M41.273 234.327H3.148"/><path fill="none" stroke="#939598" d="M143.33 24.964h75.4M230.248 159.964v-59"/><path fill="#FFF" stroke="#939598" d="M111.96 251.85l-31.595 31.597-13.614-13.612 31.594-31.598z" stroke-width="1.00006"/><path fill="#FFF" stroke="#939598" d="M179.814 327.743l.25-18.75h25l-.25 18.615"/><path fill="none" stroke="#939598" stroke-dasharray="1.5,1.5,1.5,1.5,1.5,1.5" d="M48.148 317.797h28.348"/><path fill="#FFF" stroke="#939598" d="M104.095 305.617h23.25v19.75h-23.25z"/><circle fill="#FFF" stroke="#939598" cx="121.035" cy="309.992" r="2.824"/><circle fill="#FFF" stroke="#939598" stroke-width=".8" cx="121.062" cy="309.993" r="1.989"/><circle fill="#FFF" stroke="#939598" cx="109.748" cy="318.242" r="2.824"/><circle fill="#FFF" stroke="#939598" stroke-width=".8" cx="109.72" cy="318.243" r="1.989"/><circle fill="#FFF" stroke="#939598" cx="121.073" cy="318.215" r="3.219"/><circle fill="#FFF" stroke="#939598" stroke-width=".8" cx="121.042" cy="318.215" r="2.268"/><g><circle fill="#FFF" stroke="#939598" cx="109.761" cy="309.775" r="3.219"/><circle fill="#FFF" stroke="#939598" stroke-width=".8" cx="109.729" cy="309.775" r="2.268"/></g><path fill="none" stroke="#939598" d="M127.376 322.635h-23.28M127.346 323.727h-23.25"/><g stroke="#939598"><path fill="none" stroke-dasharray="1.5,1,1.5,1,1.5,1" d="M131.617 303.316h17.87v-17.524H132.02"/><path fill="#FFF" d="M132.02 285.766h-1.064v17.55h.653"/></g><path fill="none" stroke="#939598" stroke-dasharray="1.5,1.5,1.5,1.5,1.5,1.5" d="M141.148 291.357v-35.09h10.25M90.996 317.797h50.152v-19.19"/><path fill="none" stroke="#939598" d="M90.83 308.775v17.5"/><g fill="#FFF" stroke="#939598"><path stroke-miterlimit="10" d="M173.215 312.81c0-4.462-2.71-9.376-6.053-9.376s-6.04 4.914-6.04 9.376c0 4.464 2.698 6.785 6.04 6.785s6.053-2.323 6.053-6.785"/><path d="M173.215 312.81c0-4.462-2.71-9.376-6.053-9.376s-6.04 4.914-6.04 9.376c0 4.464 2.698 6.785 6.04 6.785s6.053-2.323 6.053-6.785z"/><path stroke-miterlimit="10" d="M163.54 318.132a.457.457 0 0 0-.456-.455h-2.107a.457.457 0 0 0-.455.455v.077c0 .25.205.454.455.454h2.107c.25 0 .455-.205.455-.455v-.078z"/><path d="M163.54 318.132a.457.457 0 0 0-.456-.455h-2.107a.457.457 0 0 0-.455.455v.077c0 .25.205.454.455.454h2.107c.25 0 .455-.205.455-.455v-.078z"/><path stroke-miterlimit="10" d="M160.2 318.676c-.757 0-1.374 2.058-1.374 2.816 0 .77.617 2.825 1.375 2.825h13.815c.76 0 1.375-2.058 1.375-2.825 0-.76-.615-2.814-1.375-2.814l-13.814-.002z"/><path d="M160.2 318.676c-.757 0-1.374 2.058-1.374 2.816 0 .77.617 2.825 1.375 2.825h13.815c.76 0 1.375-2.058 1.375-2.825 0-.76-.615-2.814-1.375-2.814l-13.814-.002z"/><path stroke-miterlimit="10" d="M171.61 312.623c0-3.28-1.99-6.893-4.448-6.893s-4.447 3.612-4.447 6.893 1.99 4.985 4.447 4.985 4.45-1.706 4.45-4.985"/><path d="M171.61 312.623c0-3.28-1.99-6.893-4.448-6.893s-4.447 3.612-4.447 6.893 1.99 4.985 4.447 4.985 4.45-1.706 4.45-4.985z"/></g><g><path fill="#FFF" stroke="#939598" d="M205.708 259.245h23.625v45.692h-23.625z"/><circle fill="#FFF" stroke="#939598" cx="217.632" cy="294.524" r=".969"/><path fill="#FFF" stroke="#939598" d="M217.593 261.854c-6.77 0-9.25 1.562-9.25 3.752v33.377c0 .535.146 1.64 1.562 1.64h15.393c1.416 0 1.562-1.104 1.562-1.64V265.63l-.002-.022c-.003-2.19-2.538-3.754-9.265-3.754zM215.602 302.322a.99.99 0 0 0-1.98 0 1 1 0 0 0 .984.994.99.99 0 0 0 .996-.994zM221.742 302.322a.984.984 0 0 0-.99-.988.988.988 0 1 0 0 1.976.985.985 0 0 0 .99-.988z"/><path fill="#FFF" stroke="#939598" d="M216.3 302.615c0 .812.548 1.47 1.36 1.47.81 0 1.254-.657 1.254-1.47l-.52-5.592c0-.55-1.482-.55-1.482 0l-.613 5.592z"/></g><g><g stroke="#939598"><path fill="#FFF" d="M209.38 227.773h18.544v20.188H209.38z"/><path fill="#FFF" d="M214.912 231.743h-2.82l-.658 2.44v7.465l.657 2.47h2.822"/><path fill="none" d="M214.912 248.107v-20.334"/></g><path fill="#FFF" stroke="#939598" d="M213.695 246.98l-.004-1.63 1.14-.36.004 2.35z"/></g><g><path fill="none" stroke="#939598" stroke-width=".7" d="M83.393 299.81l1.25.686-5.208 8.593-1.252-.688z"/><path fill="none" stroke="#939598" stroke-width=".8" d="M83.872 300.223a9.992 9.992 0 0 1 4.81 8.89"/></g><g><circle fill="none" stroke="#939598" cx="192.572" cy="315.577" r="1.017"/><path fill="none" stroke="#939598" d="M188.307 321.952h8.553v2.125h-8.553zM192.12 317.827h.905v4.03h-.906z"/><circle fill="none" stroke="#939598" cx="192.572" cy="322.994" r=".986"/><g fill="none" stroke="#939598"><path d="M184.045 310.527h17.076v13.875h-17.075z"/><path d="M185.438 311.922h14.256v9.98h-14.256z"/></g></g><g fill="none" stroke="#939598"><path stroke-width="3" d="M1.898 25.548H32.85v-3.69M141.98 20.608v4.897h-33.824l-.043-3.11M218.648 20.964v4.484h12.688v79.016h5.562M33.398 246.964h9v-21.75H2.148M3.648 246.964h6.25M174.71 217.464h-44.312v-191.5M230.148 217.464h-31.86M210.148 209.464v7.5M231.398 164.01h-21.25v4.454"/><path stroke-width="3" d="M154.148 168.464v-4.4l-23.986-.206M154.148 217.964v-7.75M206.635 327.464v-21.25h24.263M186.023 257.464h44.125M152.398 327.464v-70h10.125M205.877 226.436l.02-9.222M205.898 257.464v-9.193"/><path stroke-width="5" d="M101.83 20.042l5.36-.006v-2.822h35.542l.166 2.822h93.9V160.76h-5.4v167.704l-183.84.055v-20.306h-12.6v1.5h12.19M2.398 308.464h5.137v1.748L2.5 310.11V16.108h31.162l.2 4 4.3-.004"/><path stroke-width="3" d="M155.148 257.714v69.75"/><path d="M67.815 20.308h37.5v1.766h-37.5zM35.565 18.235h41v1.938h-41z"/></g><g stroke="#939598"><path fill="#FFF" d="M234.908 106.892h3.824v50.75h-3.824z"/><path fill="none" d="M236.898 106.892v51.5"/><path fill="none" stroke-width="2" d="M239.037 131.267h-4.125"/><g><path fill="#FFF" d="M146.336 18.276h69.562v3.674h-69.562z"/><path fill="none" d="M215.898 20.095h-70.312"/><path fill="none" stroke-width="2" d="M193.225 22.108v-3.494M169.836 22.233v-3.6"/></g></g><g><g fill="#939598"><path d="M137.493 298.032h-1.702v-4.902h1.703c1.54 0 2.604 1.058 2.604 2.444s-1.064 2.458-2.604 2.458zm0-4.39h-1.15v3.88h1.15c1.24 0 2.03-.84 2.03-1.934s-.79-1.947-2.03-1.947zM143.983 293.115h.455l1.345 4.098 1.4-4.083h.582l-1.752 4.938h-.47l-1.344-3.98-1.353 3.98h-.462l-1.752-4.938h.604l1.4 4.083 1.346-4.098z"/></g><g fill="#939598"><path d="M60.64 314.033l-1.42-1.905h-1.402v1.905h-.553v-4.902h2.108c1.078 0 1.77.582 1.77 1.465 0 .82-.56 1.295-1.33 1.436l1.506 2.004h-.68zm-1.31-4.39H57.82v1.988h1.506c.735 0 1.26-.377 1.26-1.015 0-.61-.462-.973-1.253-.973zM63.76 313.648c.498 0 .85-.203 1.143-.512l.336.3c-.365.407-.806.68-1.493.68-.995 0-1.807-.763-1.807-1.89 0-1.05.735-1.892 1.737-1.892 1.07 0 1.688.854 1.688 1.92 0 .05 0 .104-.007.167h-2.872c.077.787.638 1.228 1.275 1.228zm1.06-1.625c-.057-.658-.435-1.233-1.157-1.233-.63 0-1.106.525-1.177 1.233h2.333zM68.192 310.426v.463H67.05v3.144h-.54v-3.145h-.497v-.47h.498v-.315c0-.792.4-1.212 1.093-1.212.252 0 .42.028.595.09v.47a1.77 1.77 0 0 0-.525-.09c-.42 0-.63.252-.63.77v.294h1.15z"/></g><path fill="#939598" d="M177.69 289.79c0 .827-.503 1.25-1 1.467.75.225 1.352.657 1.352 1.53 0 1.09-.91 1.73-2.286 1.73h-2.8v-6.303h2.683c1.24 0 2.05.612 2.05 1.575zm-.72.1c0-.632-.494-1.037-1.394-1.037h-1.918v2.17h1.863c.857 0 1.45-.387 1.45-1.134zm.352 2.852c0-.693-.576-1.09-1.675-1.09h-1.99v2.224h2.116c.956 0 1.55-.423 1.55-1.134zM179.607 290.753l-.207-.567c.513-.234 1.017-.388 1.69-.388 1.27 0 1.98.648 1.98 1.873v2.846h-.665v-.702c-.324.423-.863.8-1.684.8-.862 0-1.735-.484-1.735-1.457 0-.99.81-1.513 1.988-1.513.595 0 1.018.08 1.432.198v-.162c0-.837-.513-1.27-1.387-1.27-.547 0-.98.145-1.41.343zm.08 2.376c0 .594.542.936 1.172.936.853 0 1.557-.522 1.557-1.26v-.45a4.825 4.825 0 0 0-1.37-.198c-.873 0-1.36.377-1.36.97z"/><g fill="#939598"><path d="M185.35 293.192c0 .567.314.774.783.774.234 0 .432-.045.675-.162v.594a1.743 1.743 0 0 1-.837.198c-.747 0-1.313-.37-1.313-1.314v-2.81h-.648v-.61h.647v-1.405h.693v1.404h1.477v.613h-1.477v2.72zM188.742 294.516h-.693v-6.572h.692v2.73c.306-.506.792-.91 1.594-.91 1.125 0 1.78.756 1.78 1.863v2.89h-.69v-2.72c0-.863-.47-1.403-1.29-1.403-.8 0-1.394.585-1.394 1.458v2.664z"/></g><path fill="#939598" d="M17.237 307.718h-2.99v1.674h2.674v.505h-2.674v1.716h3.026v.504h-3.58v-4.902h3.545v.503zM18.83 312.116h-.538v-3.62h.54v.63c.237-.393.615-.708 1.24-.708.874 0 1.386.59 1.386 1.45v2.248h-.54V310c0-.67-.364-1.092-1-1.092-.624 0-1.086.455-1.086 1.135v2.073z"/><g fill="#939598"><path d="M23.283 311.087c0 .44.245.603.61.603.18 0 .335-.035.524-.127v.463c-.19.098-.392.154-.65.154-.583 0-1.023-.288-1.023-1.023v-2.185h-.504v-.477h.504v-1.093h.54v1.093h1.148v.477h-1.15v2.115zM25.922 312.116h-.54v-3.62h.54v.944c.266-.602.792-1.036 1.478-1.008v.58h-.042c-.79 0-1.436.568-1.436 1.66v1.444zM29.983 312.235c-.308.75-.658 1.022-1.205 1.022-.3 0-.525-.063-.77-.182l.18-.428c.176.09.337.133.568.133.322 0 .525-.168.742-.68l-1.646-3.606h.595l1.317 3.02 1.163-3.02h.574l-1.517 3.74z"/></g><g fill="#939598"><path d="M164.732 86.97c0 .828-.504 1.252-1 1.468.748.225 1.35.657 1.35 1.53 0 1.09-.908 1.73-2.285 1.73h-2.8v-6.303h2.683c1.242 0 2.052.612 2.052 1.575zm-.72.1c0-.632-.495-1.037-1.395-1.037H160.7v2.17h1.862c.856 0 1.45-.387 1.45-1.134zm.35 2.853c0-.693-.575-1.09-1.674-1.09h-1.99v2.224h2.116c.956 0 1.55-.423 1.55-1.134zM168.43 91.2c.64 0 1.09-.26 1.47-.656l.43.387c-.468.523-1.034.875-1.917.875-1.278 0-2.322-.98-2.322-2.43 0-1.352.946-2.433 2.233-2.433 1.377 0 2.17 1.1 2.17 2.467 0 .062 0 .135-.01.216h-3.69c.098 1.008.818 1.575 1.637 1.575zm1.36-2.088c-.072-.846-.56-1.584-1.485-1.584-.81 0-1.423.675-1.513 1.584h2.997zM175.44 91.696v-.936c-.377.56-.927 1.035-1.78 1.035-1.117 0-2.225-.882-2.225-2.42 0-1.532 1.107-2.433 2.224-2.433.863 0 1.422.47 1.78.99v-2.81h.694v6.573h-.693zm-1.655-4.132c-.9 0-1.64.666-1.64 1.8 0 1.107.757 1.81 1.64 1.81.864 0 1.684-.72 1.684-1.81 0-1.08-.82-1.8-1.685-1.8zM178.375 91.696h-.693v-4.654h.693v1.215c.342-.773 1.018-1.332 1.9-1.296v.748h-.055c-1.018 0-1.846.73-1.846 2.134v1.854zM183.254 91.805c-1.396 0-2.413-1.1-2.413-2.422s1.027-2.44 2.432-2.44c1.396 0 2.422 1.1 2.422 2.422 0 1.323-1.036 2.44-2.44 2.44zm0-4.25c-1.01 0-1.702.802-1.702 1.81 0 1.01.738 1.82 1.72 1.82 1.008 0 1.71-.803 1.71-1.802 0-1.018-.748-1.828-1.728-1.828zM189.067 91.805c-1.396 0-2.413-1.1-2.413-2.422s1.026-2.44 2.432-2.44c1.395 0 2.42 1.1 2.42 2.422a2.42 2.42 0 0 1-2.44 2.44zm0-4.25c-1.01 0-1.702.802-1.702 1.81 0 1.01.738 1.82 1.72 1.82 1.01 0 1.71-.803 1.71-1.802 0-1.018-.746-1.828-1.728-1.828zM198.086 86.942c1.072 0 1.73.72 1.73 1.873v2.88h-.694v-2.718c0-.9-.45-1.404-1.206-1.404-.702 0-1.287.52-1.287 1.44v2.683h-.686V88.96c0-.874-.46-1.387-1.197-1.387s-1.297.612-1.297 1.467v2.656h-.692v-4.654h.692v.783c.307-.46.72-.883 1.504-.883.756 0 1.242.405 1.494.928.333-.513.827-.928 1.638-.928z"/></g><g fill="#939598"><path d="M156.555 96.35h.52v6.347h-.7V97.09l-1.19.368-.17-.576 1.54-.532zM161.198 102.805c-1.63 0-2.655-1.477-2.655-3.25s1.044-3.27 2.674-3.27c1.62 0 2.646 1.478 2.646 3.25s-1.045 3.27-2.665 3.27zm0-5.87c-1.18 0-1.917 1.206-1.917 2.602s.757 2.62 1.937 2.62c1.18 0 1.908-1.216 1.908-2.602 0-1.387-.747-2.62-1.927-2.62zM165.275 96.395h.846v.045l-.728 2.403h-.388l.27-2.448zM167.236 96.395h4.277v.53l-2.863 5.772h-.793l2.846-5.653h-3.467v-.65zM172.844 96.395h.837v.045l-.728 2.403h-.378l.27-2.448zm1.763 0h.83v.045l-.73 2.403h-.378l.277-2.448z"/></g><g fill="#939598"><path d="M183.402 102.696h-.802l-1.44-1.9-1.45 1.9h-.773l1.827-2.368-1.755-2.286h.79l1.378 1.8 1.378-1.8h.774l-1.765 2.27 1.837 2.384zM188.242 96.35h.522v6.347h-.702V97.09l-1.188.368-.172-.576 1.54-.532zM190.744 96.395h3.63v.657h-3.01l-.134 2.017c.37-.163.72-.28 1.242-.28 1.225 0 2.18.73 2.18 1.936 0 1.242-.938 2.08-2.25 2.08-.9 0-1.685-.433-2.252-1l.47-.513c.548.53 1.15.864 1.79.864.9 0 1.52-.595 1.52-1.404 0-.792-.638-1.333-1.565-1.333-.53 0-.955.162-1.324.36l-.476-.315.18-3.07zM196.037 96.395h.846v.045l-.73 2.403h-.387l.27-2.448zM200.6 102.805c-1.63 0-2.655-1.477-2.655-3.25s1.044-3.27 2.674-3.27c1.62 0 2.646 1.478 2.646 3.25s-1.045 3.27-2.666 3.27zm0-5.87c-1.18 0-1.917 1.206-1.917 2.602s.757 2.62 1.936 2.62 1.908-1.216 1.908-2.602c0-1.387-.75-2.62-1.928-2.62zM204.676 96.395h.838v.045l-.73 2.403h-.377l.27-2.448zm1.764 0h.83v.045l-.73 2.403h-.378l.278-2.448z"/></g><g fill="#939598"><path d="M24.063 122.397h.71v5.645h3.548v.657h-4.257v-6.303zM29.535 123.027v-.765h.792v.765h-.792zm.045 5.672v-4.655h.693v4.654h-.693zM35.332 124.045h.747l-2.026 4.69h-.612l-2.017-4.69h.766l1.567 3.862 1.575-3.862zM37.185 123.027v-.765h.792v.765h-.792zm.045 5.672v-4.655h.693v4.654h-.693zM40.227 128.7h-.693v-4.655h.693v.81c.306-.504.792-.91 1.594-.91 1.126 0 1.783.758 1.783 1.865v2.89h-.693v-2.72c0-.863-.468-1.403-1.288-1.403-.8 0-1.396.585-1.396 1.458v2.664zM47.14 130.157a3.657 3.657 0 0 1-2.117-.647l.315-.54c.53.387 1.125.594 1.792.594 1.026 0 1.693-.567 1.693-1.656v-.55c-.405.54-.973.98-1.828.98-1.116 0-2.188-.827-2.188-2.187 0-1.367 1.08-2.205 2.188-2.205.873 0 1.44.433 1.818.937v-.837h.693v3.844c0 1.503-.936 2.267-2.367 2.267zm-.01-5.6c-.882 0-1.61.605-1.61 1.577 0 .954.746 1.593 1.61 1.593.882 0 1.71-.63 1.71-1.584 0-.964-.828-1.585-1.71-1.585zM54.907 121.515l-4.177 8.337h-.64l4.177-8.337h.64zM57.93 128.7h-2.188v-6.303h2.188c1.98 0 3.35 1.36 3.35 3.142 0 1.782-1.37 3.16-3.35 3.16zm0-5.645h-1.477v4.987h1.477c1.593 0 2.61-1.08 2.61-2.484s-1.017-2.503-2.61-2.503zM62.682 123.027v-.765h.792v.765h-.792zm.045 5.672v-4.655h.693v4.654h-.693zM65.723 128.7h-.693v-4.655h.693v.81c.306-.504.792-.91 1.594-.91 1.125 0 1.782.758 1.782 1.865v2.89h-.694v-2.72c0-.863-.468-1.403-1.288-1.403-.8 0-1.396.585-1.396 1.458v2.664zM70.592 123.027v-.765h.792v.765h-.792zm.045 5.672v-4.655h.693v4.654h-.693zM73.634 128.7h-.693v-4.655h.694v.81c.306-.504.792-.91 1.594-.91 1.125 0 1.782.758 1.782 1.865v2.89h-.693v-2.72c0-.863-.468-1.403-1.288-1.403-.802 0-1.397.585-1.397 1.458v2.664zM80.547 130.157a3.657 3.657 0 0 1-2.116-.647l.316-.54c.53.387 1.125.594 1.792.594 1.026 0 1.693-.567 1.693-1.656v-.55c-.404.54-.972.98-1.827.98-1.116 0-2.188-.827-2.188-2.187 0-1.367 1.08-2.205 2.188-2.205.873 0 1.44.433 1.818.937v-.837h.694v3.844c0 1.503-.936 2.267-2.367 2.267zm-.01-5.6c-.88 0-1.61.605-1.61 1.577 0 .954.747 1.593 1.61 1.593.883 0 1.71-.63 1.71-1.584 0-.964-.827-1.585-1.71-1.585zM91.617 128.7l-1.828-2.45h-1.8v2.45h-.712v-6.303h2.71c1.386 0 2.278.747 2.278 1.882 0 1.052-.72 1.664-1.71 1.844l1.936 2.575h-.875zm-1.683-5.645H87.99v2.557h1.936c.945 0 1.62-.486 1.62-1.306 0-.784-.595-1.25-1.612-1.25zM95.703 128.808c-1.396 0-2.413-1.1-2.413-2.422s1.026-2.44 2.43-2.44c1.397 0 2.422 1.1 2.422 2.422 0 1.323-1.035 2.44-2.44 2.44zm0-4.25c-1.008 0-1.702.802-1.702 1.81 0 1.01.74 1.82 1.72 1.82 1.01 0 1.71-.803 1.71-1.802 0-1.018-.746-1.828-1.727-1.828zM101.517 128.808c-1.396 0-2.413-1.1-2.413-2.422s1.026-2.44 2.43-2.44c1.397 0 2.422 1.1 2.422 2.422 0 1.323-1.035 2.44-2.44 2.44zm0-4.25c-1.008 0-1.702.802-1.702 1.81 0 1.01.738 1.82 1.72 1.82 1.008 0 1.71-.803 1.71-1.802 0-1.018-.747-1.828-1.728-1.828zM110.536 123.945c1.07 0 1.73.72 1.73 1.873v2.88h-.694v-2.718c0-.9-.45-1.404-1.207-1.404-.702 0-1.287.52-1.287 1.44v2.683h-.685v-2.737c0-.874-.46-1.387-1.197-1.387s-1.296.612-1.296 1.467v2.656h-.693v-4.655h.693v.783c.306-.46.72-.883 1.503-.883.756 0 1.243.405 1.495.928.332-.513.827-.928 1.638-.928z"/></g><g fill="#939598"><path d="M42.054 133.353h.522v6.347h-.702v-5.608l-1.188.37-.17-.577 1.538-.532zM44.268 134.036v-.64h4.024v.523l-1.98 2.195c1.106.09 2.08.62 2.08 1.782 0 1.135-.937 1.91-2.107 1.91-1.053 0-1.836-.46-2.35-1.127l.513-.46c.486.596 1.07.938 1.845.938.766 0 1.377-.486 1.377-1.233 0-.792-.72-1.225-1.764-1.225H45.5l-.143-.423 1.99-2.242h-3.08zM49.857 133.397h.846v.045l-.73 2.403h-.386l.27-2.448zM52.998 133.353h.522v6.347h-.702v-5.608l-1.188.37-.17-.577 1.538-.532zM57.642 139.808c-1.63 0-2.656-1.477-2.656-3.25s1.044-3.27 2.674-3.27c1.62 0 2.647 1.478 2.647 3.25s-1.044 3.27-2.665 3.27zm0-5.87c-1.18 0-1.917 1.206-1.917 2.602s.756 2.62 1.936 2.62 1.91-1.216 1.91-2.602c0-1.387-.75-2.62-1.928-2.62zM61.72 133.397h.836v.045l-.73 2.403h-.377l.27-2.448zm1.763 0h.83v.045l-.73 2.403h-.378l.278-2.448zM72.34 139.7h-.802l-1.44-1.9-1.45 1.9h-.773l1.828-2.37-1.755-2.285h.792l1.377 1.8 1.377-1.8h.774l-1.765 2.27 1.836 2.384zM76.46 135.026l-.522-.378c.567-.846 1.16-1.34 2.27-1.34 1.142 0 1.953.755 1.953 1.79 0 .928-.485 1.495-1.593 2.458l-1.683 1.494h3.34v.648h-4.402v-.55l2.287-2.016c.962-.864 1.313-1.35 1.313-1.98 0-.738-.585-1.207-1.27-1.207-.72 0-1.19.38-1.693 1.08zM82.57 133.353h.523v6.347h-.702v-5.608l-1.187.37-.17-.577 1.538-.532zM84.857 133.397h.846v.045l-.73 2.403h-.386l.27-2.448zM88.862 139.808c-.82 0-1.414-.333-1.944-.774l.414-.55c.513.45.99.676 1.548.676 1.134 0 1.9-1.152 1.873-2.764-.342.55-.91 1.008-1.783 1.008-1.296 0-2.196-.82-2.196-1.962 0-1.207.927-2.152 2.27-2.152.72 0 1.25.243 1.655.648.494.495.782 1.18.782 2.45 0 2.006-1.062 3.42-2.62 3.42zm.154-5.888c-.945 0-1.513.692-1.513 1.485 0 .81.63 1.386 1.548 1.386.964 0 1.567-.7 1.567-1.43 0-.81-.657-1.44-1.6-1.44zM92.885 133.397h.837v.045l-.73 2.403h-.377l.27-2.448zm1.764 0h.828v.045l-.73 2.403h-.377l.28-2.448z"/></g><g fill="#939598"><path d="M151.127 196.675c0 1.415-1.113 2.458-2.528 2.458-1.4 0-2.543-1.036-2.543-2.48 0-.89.314-1.42.777-1.91l.406.377c-.393.413-.673.876-.673 1.54 0 1.086.876 1.898 2.018 1.898s2.03-.82 2.03-1.898c0-.672-.26-1.113-.707-1.582l.357-.364c.52.51.862 1.07.862 1.96zM151.043 193.792h-5.112v-.54h5.113v.54zM151.127 190.348c0 1.086-.854 1.877-1.884 1.877s-1.898-.8-1.898-1.89c0-1.087.854-1.886 1.884-1.886 1.03 0 1.897.805 1.897 1.898zm-3.306 0c0 .784.624 1.323 1.408 1.323.785 0 1.415-.573 1.415-1.336 0-.785-.623-1.332-1.4-1.332-.792 0-1.422.582-1.422 1.346zM151.113 186.28a2.49 2.49 0 0 1-.532 1.5l-.385-.274c.294-.392.463-.826.463-1.254 0-.434-.225-.75-.575-.75h-.014c-.365 0-.505.428-.64.904-.16.568-.355 1.198-1.02 1.198h-.015c-.623 0-1.036-.52-1.036-1.233 0-.44.152-.93.397-1.302l.406.246c-.217.336-.35.72-.35 1.07 0 .428.224.7.525.7h.014c.343 0 .477-.447.623-.93.168-.562.386-1.163 1.037-1.163h.014c.688.002 1.087.57 1.087 1.29zM150.658 182.396c0-.497-.203-.848-.512-1.142l.3-.336c.407.363.68.805.68 1.492 0 .994-.763 1.807-1.89 1.807-1.05 0-1.892-.736-1.892-1.737 0-1.07.854-1.688 1.92-1.688.05 0 .104 0 .167.008v2.87c.787-.076 1.228-.637 1.228-1.274zm-1.625-1.058c-.658.057-1.233.434-1.233 1.156 0 .63.525 1.105 1.233 1.176v-2.332zM150.014 179.12c.44 0 .603-.245.603-.61 0-.182-.035-.336-.127-.524h.463c.098.188.154.392.154.65 0 .582-.288 1.023-1.023 1.023H147.9v.504h-.478v-.505h-1.093v-.54h1.092v-1.15h.477v1.15h2.114z"/></g><g fill="#939598"><path d="M34.156 282.35h-.89l-2.423-3.053-1.34 1.36v1.69h-.713v-6.3h.71v3.762l3.62-3.764h.918l-2.7 2.755 2.818 3.55zM35.162 276.677v-.765h.792v.765h-.792zm.045 5.672v-4.655h.693v4.654h-.693zM38.447 281.025c0 .567.315.774.783.774.234 0 .432-.046.675-.163v.594a1.743 1.743 0 0 1-.837.2c-.747 0-1.314-.37-1.314-1.315v-2.81h-.648v-.61h.648v-1.405h.693v1.404h1.477v.612h-1.477v2.72zM43.11 282.457c-1.358 0-2.385-1.107-2.385-2.422 0-1.323 1.026-2.44 2.386-2.44.883 0 1.432.37 1.864.83l-.46.484c-.368-.388-.782-.703-1.413-.703-.944 0-1.665.802-1.665 1.81 0 1.018.738 1.82 1.71 1.82.594 0 1.053-.3 1.422-.694l.44.414c-.465.52-1.023.9-1.896.9zM46.845 282.35h-.693v-6.573h.693v2.73c.306-.506.792-.91 1.594-.91 1.124 0 1.78.756 1.78 1.863v2.89h-.692v-2.72c0-.863-.468-1.403-1.288-1.403-.8 0-1.396.585-1.396 1.458v2.664zM53.748 281.854c.64 0 1.09-.26 1.468-.657l.432.387c-.468.522-1.036.874-1.918.874-1.278 0-2.322-.98-2.322-2.43 0-1.352.945-2.433 2.232-2.433 1.377 0 2.17 1.1 2.17 2.467 0 .063 0 .136-.01.217h-3.69c.1 1.006.82 1.574 1.638 1.574zm1.36-2.09c-.073-.845-.56-1.583-1.486-1.583-.81 0-1.422.676-1.512 1.585h2.997zM57.717 282.35h-.693v-4.655h.693v.81c.306-.504.792-.91 1.594-.91 1.126 0 1.783.758 1.783 1.865v2.89H60.4v-2.72c0-.863-.468-1.403-1.288-1.403-.8 0-1.396.585-1.396 1.458v2.664z"/></g><g fill="#939598"><path d="M14.734 244.2c-1.415 0-2.458-1.113-2.458-2.528 0-1.4 1.037-2.542 2.48-2.542.89 0 1.42.314 1.91.777l-.377.406c-.414-.393-.876-.673-1.542-.673-1.086 0-1.898.876-1.898 2.018s.82 2.03 1.898 2.03c.672 0 1.113-.26 1.583-.707l.365.358c-.51.52-1.07.862-1.96.862zM17.617 244.116v-5.112h.54v5.112h-.54zM21.062 244.2c-1.086 0-1.877-.854-1.877-1.884s.798-1.898 1.89-1.898c1.087 0 1.885.854 1.885 1.884 0 1.03-.806 1.898-1.898 1.898zm0-3.305c-.785 0-1.324.623-1.324 1.407 0 .785.574 1.415 1.337 1.415.785 0 1.33-.623 1.33-1.4.002-.793-.58-1.422-1.343-1.422zM25.128 244.187a2.494 2.494 0 0 1-1.5-.532l.274-.386c.392.293.827.462 1.254.462.434 0 .75-.225.75-.575v-.014c0-.364-.427-.504-.904-.638-.567-.16-1.198-.356-1.198-1.022v-.014c0-.624.52-1.037 1.233-1.037.44 0 .932.153 1.303.398l-.245.407c-.336-.217-.722-.35-1.072-.35-.427 0-.7.224-.7.525v.014c0 .343.448.477.932.623.56.167 1.163.385 1.163 1.036v.014c0 .687-.568 1.087-1.29 1.087zM29.014 243.73c.497 0 .848-.202 1.142-.51l.336.3c-.364.406-.805.68-1.492.68-.995 0-1.807-.764-1.807-1.89 0-1.052.735-1.893 1.737-1.893 1.07 0 1.688.854 1.688 1.92 0 .05 0 .104-.007.167h-2.87c.076.786.636 1.227 1.274 1.227zm1.057-1.624c-.055-.658-.433-1.233-1.155-1.233-.63 0-1.106.525-1.177 1.233h2.333zM32.29 243.087c0 .44.244.603.608.603.182 0 .336-.035.525-.127v.463c-.19.098-.392.154-.65.154-.582 0-1.023-.288-1.023-1.023v-2.185h-.504v-.477h.504v-1.093h.54v1.093h1.148v.477h-1.15v2.115z"/></g><path fill="#939598" d="M81.938 264.87l3.467 3.468-.392.392-3.466-3.466.39-.393z"/><g fill="#939598"><path d="M87.2 266.64c-.365.367-.915.63-1.435.685l-.08-.466c.484-.07.912-.258 1.214-.56.307-.308.37-.69.122-.938l-.01-.01c-.257-.257-.657-.054-1.09.188-.515.287-1.1.595-1.57.123l-.01-.01c-.44-.44-.365-1.1.14-1.604.312-.313.768-.552 1.203-.64l.113.46c-.39.084-.757.263-1.004.51-.303.303-.338.653-.124.867l.01.01c.242.242.653.02 1.1-.218.515-.278 1.095-.552 1.556-.09l.01.01c.484.487.365 1.17-.145 1.68zM88.805 264.938l-3.615-3.614.38-.382 3.616 3.615-.38.38zM88.15 261.452l-.427-.198a3 3 0 0 1 .72-1.144c.697-.698 1.444-.733 2.12-.06l1.563 1.564-.367.367-.387-.385c.054.41-.034.915-.485 1.366-.476.477-1.223.69-1.758.155-.545-.545-.387-1.278.262-1.928a3.86 3.86 0 0 1 .896-.678l-.09-.09c-.46-.46-.98-.416-1.46.064-.3.305-.46.62-.59.968zm1.352 1.264c.326.327.812.218 1.158-.13.47-.47.57-1.144.164-1.55l-.248-.247a3.8 3.8 0 0 0-.86.643c-.482.48-.54.956-.214 1.283zM93.318 260.424l-.38.38-2.562-2.56.38-.38.447.445c-.11-.447-.064-.938.376-1.38.618-.617 1.395-.563 2.005.046l1.59 1.59-.382.382-1.495-1.495c-.476-.476-1.03-.516-1.48-.064-.44.438-.446 1.088.034 1.568l1.466 1.466zM98.04 255.7l-.514-.515c.1.516.06 1.08-.41 1.55-.614.614-1.71.74-2.556-.108-.843-.842-.73-1.946-.114-2.56.476-.476 1.04-.526 1.524-.437l-1.544-1.545.382-.38 3.614 3.613-.38.383zm-3.183-1.36c-.495.494-.535 1.268.088 1.89.61.61 1.412.58 1.898.095.475-.475.53-1.322-.07-1.92-.593-.596-1.44-.542-1.916-.066z"/></g><g fill="#939598"><path d="M46.347 6.02c-.735 0-1.205-.364-1.513-.87l.4-.342c.3.455.608.7 1.12.7.553 0 .96-.4.96-1.177V1.048h.56v3.277c0 1.128-.652 1.696-1.527 1.696zM51.66 2.328h.533v3.62h-.532v-.63c-.244.393-.616.708-1.24.708-.874 0-1.386-.59-1.386-1.45V2.328h.54v2.115c0 .673.363 1.093 1 1.093.617 0 1.086-.455 1.086-1.135V2.33zM53.45 5.95V.836h.54V5.95h-.54zM55.257 1.537V.94h.617v.597h-.617zm.035 4.412V2.327h.54v3.62h-.54zM58.68 5.564c.498 0 .85-.203 1.143-.512l.336.3c-.365.407-.806.68-1.493.68-.995 0-1.807-.763-1.807-1.89 0-1.05.735-1.892 1.737-1.892 1.07 0 1.688.854 1.688 1.92 0 .05 0 .104-.007.167h-2.872c.077.786.637 1.227 1.275 1.227zM59.74 3.94c-.056-.66-.434-1.234-1.156-1.234-.63 0-1.106.525-1.177 1.233h2.333zM61.956 4.92c0 .44.245.603.61.603.18 0 .335-.035.524-.127v.463c-.19.097-.392.153-.65.153-.583 0-1.023-.288-1.023-1.023V2.805h-.504v-.477h.504V1.235h.54v1.093h1.148v.477h-1.15V4.92zM69.93 2.272c0 .645-.39.974-.776 1.142.58.175 1.05.51 1.05 1.19 0 .848-.707 1.345-1.78 1.345h-2.177V1.046h2.087c.966 0 1.597.475 1.597 1.225zm-.56.078c0-.49-.385-.806-1.085-.806h-1.492v1.688h1.45c.665 0 1.127-.3 1.127-.882zm.274 2.22c0-.54-.448-.85-1.303-.85h-1.547v1.73h1.646c.74.002 1.204-.327 1.204-.88zM71.42 3.02l-.162-.44c.4-.182.792-.3 1.317-.3.987 0 1.54.503 1.54 1.456V5.95H73.6v-.547c-.252.33-.672.623-1.31.623-.672 0-1.352-.378-1.352-1.135 0-.77.63-1.176 1.548-1.176.462 0 .792.063 1.114.154v-.125c0-.65-.4-.987-1.08-.987-.426 0-.763.11-1.1.265zm.062 1.85c0 .463.42.73.91.73.666 0 1.212-.407 1.212-.98v-.35a3.775 3.775 0 0 0-1.064-.155c-.68 0-1.058.293-1.058.756zM75.312 5.95V.836h.54V5.95h-.54zM78.735 6.033c-1.058 0-1.856-.86-1.856-1.884 0-1.03.797-1.9 1.855-1.9.686 0 1.113.288 1.45.646l-.357.378c-.287-.3-.61-.546-1.1-.546-.735 0-1.295.623-1.295 1.407 0 .792.574 1.415 1.33 1.415.463 0 .82-.23 1.107-.54l.343.323c-.364.406-.798.7-1.478.7zM82.65 6.033c-1.087 0-1.878-.854-1.878-1.884s.798-1.9 1.89-1.9c1.087 0 1.885.855 1.885 1.885s-.806 1.898-1.898 1.898zm0-3.305c-.786 0-1.325.623-1.325 1.407 0 .785.574 1.415 1.337 1.415.785 0 1.33-.623 1.33-1.4.002-.793-.58-1.422-1.343-1.422zM86.057 5.95h-.54V2.327h.54v.63c.238-.392.616-.707 1.24-.707.875 0 1.387.59 1.387 1.45v2.25h-.54V3.833c0-.672-.364-1.093-1-1.093-.624 0-1.086.456-1.086 1.136V5.95zM91.49 6.068c-.307.75-.657 1.022-1.204 1.022-.3 0-.525-.063-.77-.182l.18-.428c.176.09.337.133.568.133.322 0 .525-.168.742-.68L89.36 2.328h.595l1.317 3.02 1.163-3.02h.574l-1.52 3.74z"/></g><g fill="#939598"><path d="M218.294 196.675c0 1.415-1.113 2.458-2.528 2.458-1.4 0-2.542-1.036-2.542-2.48 0-.89.314-1.42.777-1.91l.407.377c-.393.413-.673.876-.673 1.54 0 1.086.876 1.898 2.018 1.898s2.03-.82 2.03-1.898c0-.672-.26-1.113-.707-1.582l.357-.364c.52.51.862 1.07.862 1.96zM218.21 193.792h-5.112v-.54h5.112v.54zM218.294 190.348c0 1.086-.854 1.877-1.884 1.877s-1.898-.8-1.898-1.89c0-1.087.854-1.886 1.884-1.886 1.03 0 1.898.805 1.898 1.898zm-3.306 0c0 .784.623 1.323 1.407 1.323.785 0 1.415-.573 1.415-1.336 0-.785-.623-1.332-1.4-1.332-.792 0-1.422.582-1.422 1.346zM218.28 186.28a2.49 2.49 0 0 1-.532 1.5l-.386-.274c.294-.392.463-.826.463-1.254 0-.434-.225-.75-.575-.75h-.014c-.364 0-.504.428-.638.904-.16.568-.356 1.198-1.022 1.198h-.014c-.623 0-1.036-.52-1.036-1.233 0-.44.153-.93.398-1.302l.406.246c-.217.336-.35.72-.35 1.07 0 .428.224.7.525.7h.014c.342 0 .476-.447.622-.93.168-.562.386-1.163 1.037-1.163h.013c.688.002 1.087.57 1.087 1.29zM217.825 182.396c0-.497-.203-.848-.512-1.142l.3-.336c.407.363.68.805.68 1.492 0 .994-.763 1.807-1.89 1.807-1.05 0-1.892-.736-1.892-1.737 0-1.07.855-1.688 1.92-1.688.05 0 .105 0 .168.008v2.87c.786-.076 1.227-.637 1.227-1.274zm-1.625-1.058c-.658.057-1.233.434-1.233 1.156 0 .63.525 1.105 1.233 1.176v-2.332zM217.18 179.12c.442 0 .604-.245.604-.61 0-.182-.035-.336-.127-.524h.463c.098.188.154.392.154.65 0 .582-.288 1.023-1.023 1.023h-2.184v.504h-.477v-.505h-1.094v-.54h1.093v-1.15h.476v1.15h2.115z"/></g><g fill="#939598"><path d="M218.912 241.203v-.455l4.098-1.345-4.083-1.4v-.58l4.938 1.75v.47l-3.98 1.344 3.98 1.352v.462l-4.938 1.75v-.602l4.083-1.4-4.098-1.347zM218.24 234.218l6.485 3.25v.497l-6.485-3.25v-.497zM223.83 231.866v1.702h-4.903v-1.702c0-1.54 1.058-2.604 2.444-2.604s2.46 1.064 2.46 2.604zm-4.392 0v1.15h3.88v-1.15c0-1.24-.84-2.03-1.933-2.03s-1.947.79-1.947 2.03z"/></g><g fill="#939598"><path d="M84.643 322.666v.95h1.383v.444h-3.92v-1.468c0-.885.47-1.468 1.25-1.468.85 0 1.287.707 1.287 1.542zm-2.128-.04v.99h1.725v-.968c0-.65-.348-1.075-.868-1.075-.566 0-.857.42-.857 1.054zM83.685 320.28l-.353.128a2.382 2.382 0 0 1-.24-1.053c0-.79.402-1.23 1.164-1.23h1.77v.414h-.437c.262.2.497.536.497 1.046 0 .537-.303 1.08-.907 1.08-.616 0-.94-.504-.94-1.237 0-.37.05-.634.123-.89h-.1c-.522 0-.79.317-.79.86 0 .342.09.612.212.88zm1.478-.05c.37 0 .582-.337.582-.73 0-.53-.324-.968-.784-.968h-.278a3.007 3.007 0 0 0-.123.852c0 .544.233.845.603.845zM86.025 316.774v.43H83.13v-.43h.504c-.313-.19-.565-.493-.565-.99 0-.7.47-1.11 1.158-1.11h1.798v.432h-1.69c-.538 0-.874.29-.874.8 0 .5.363.87.907.87h1.655z"/></g><path fill="#939598" d="M85.202 313.62c.353 0 .48-.194.48-.485a.888.888 0 0 0-.1-.42h.37c.078.15.123.312.123.52 0 .466-.23.818-.818.818H83.51v.403h-.38v-.403h-.873v-.432h.873v-.917h.38v.918h1.692zM86.025 311.55v.432H83.13v-.43h.756c-.48-.214-.828-.634-.806-1.183h.465v.032c0 .633.453 1.148 1.327 1.148h1.153zM86.12 308.23c.6.245.818.525.818.962 0 .24-.05.42-.146.616l-.342-.146a.92.92 0 0 0 .106-.453c0-.26-.135-.422-.543-.595l-2.885 1.315v-.476l2.414-1.053-2.414-.93v-.458l2.992 1.217z"/></g></svg>