<svg xmlns="http://www.w3.org/2000/svg" width="386.34" height="260.592" viewBox="0 0 386.34 260.592"><path fill="none" d="M2.79 100.5v157h381.42V2.963H229.69V100.5z"/><path fill="#FFF" stroke="#939598" d="M357.363 209.67h23.625v45.692h-23.625z"/><circle fill="#FFF" stroke="#939598" cx="369.288" cy="244.949" r=".97"/><path fill="#FFF" stroke="#939598" d="M369.248 212.278c-6.77 0-9.25 1.562-9.25 3.753v33.377c0 .535.145 1.64 1.56 1.64h15.396c1.415 0 1.56-1.104 1.56-1.64v-33.354l-.002-.02c0-2.19-2.535-3.755-9.264-3.755zM367.256 252.747a.984.984 0 0 0-.994-.988c-.537 0-.98.438-.986.987.005.545.45.995.986.995a.99.99 0 0 0 .994-.995zM373.398 252.747a.984.984 0 0 0-.99-.988.987.987 0 1 0 0 1.976.985.985 0 0 0 .99-.99z"/><path fill="#FFF" stroke="#939598" d="M367.955 253.04c0 .812.55 1.47 1.36 1.47.812 0 1.255-.657 1.255-1.47l-.52-5.592c0-.55-1.483-.55-1.483 0l-.612 5.592z"/><g fill="none" stroke="#939598"><path d="M278.502 258.793l-1.67.013-.016-23.82 1.693-.01zM277.713 234.956c-13.113.445-23.383 11.29-22.936 24.402"/></g><g fill="none" stroke="#939598"><path d="M377.855 129.302l-1.67.01-.015 23.817 1.67-.01zM377.088 153.14c-13.113-.445-23.383-11.226-22.936-24.34"/></g><g fill="none" stroke="#939598"><path d="M231.55 225.834l.01 1.586 22.626.017-.008-1.588zM254.195 226.563c-.424 12.457-10.664 22.213-23.12 21.787"/></g><path fill="none" stroke="#939598" d="M222.068 218.375v38.25"/><path fill="none" stroke="#939598" stroke-dasharray="1.5,1.5,1.5,1.5,1.5,1.5" d="M219.917 218.667v39.5"/><g fill="none" stroke="#939598"><path d="M293.06 190.673l1.67.01.016 23.817-1.67-.01zM293.828 214.51c13.113-.444 23.383-11.225 22.936-24.338"/></g><g fill="none" stroke="#939598"><path d="M293.37 130.01l1.67-.01.017-23.818-1.67.008zM294.14 106.172c13.113.445 23.382 11.225 22.936 24.338"/></g><path fill="none" stroke="#939598" d="M357.29 197.25h24.5M334.04 130.75v60.75"/><path fill="none" stroke="#939598" stroke-dasharray="1.5,1.5,1.5,1.5,1.5,1.5" d="M356.54 199.178h24.5M332.04 131v59.75"/><path fill="#FFF" stroke="#939598" d="M314.79 239.24h31.5v17.01h-31.5z"/><g fill="#FFF" stroke="#939598"><path stroke-miterlimit="10" d="M307.574 241.882c0-4.462-2.71-9.376-6.053-9.376s-6.04 4.914-6.04 9.376c0 4.463 2.7 6.785 6.04 6.785s6.054-2.322 6.054-6.785"/><path d="M307.574 241.882c0-4.462-2.71-9.376-6.053-9.376s-6.04 4.914-6.04 9.376c0 4.463 2.7 6.785 6.04 6.785s6.054-2.322 6.054-6.785z"/><path stroke-miterlimit="10" d="M297.898 247.204a.457.457 0 0 0-.455-.455h-2.107a.457.457 0 0 0-.455.454v.077c0 .25.206.455.456.455h2.107c.25 0 .455-.204.455-.454v-.076z"/><path d="M297.898 247.204a.457.457 0 0 0-.455-.455h-2.107a.457.457 0 0 0-.455.454v.077c0 .25.206.455.456.455h2.107c.25 0 .455-.204.455-.454v-.076z"/><path stroke-miterlimit="10" d="M294.56 247.748c-.757 0-1.374 2.058-1.374 2.815 0 .77.617 2.826 1.375 2.826h13.815c.76 0 1.375-2.06 1.375-2.827 0-.76-.615-2.813-1.375-2.813l-13.814-.002z"/><path d="M294.56 247.748c-.757 0-1.374 2.058-1.374 2.815 0 .77.617 2.826 1.375 2.826h13.815c.76 0 1.375-2.06 1.375-2.827 0-.76-.615-2.813-1.375-2.813l-13.814-.002z"/><path stroke-miterlimit="10" d="M305.97 241.694c0-3.278-1.99-6.893-4.448-6.893s-4.446 3.614-4.446 6.894c0 3.28 1.99 4.986 4.446 4.986s4.45-1.704 4.45-4.986"/><path d="M305.97 241.694c0-3.278-1.99-6.893-4.448-6.893s-4.446 3.614-4.446 6.894c0 3.28 1.99 4.986 4.446 4.986s4.45-1.704 4.45-4.986z"/></g><circle fill="none" stroke="#939598" cx="330.533" cy="245.881" r="1.017"/><path fill="none" stroke="#939598" d="M326.268 252.256h8.553v2.125h-8.552zM330.08 248.13h.906v4.032h-.906z"/><circle fill="none" stroke="#939598" cx="330.533" cy="253.298" r=".986"/><g fill="none" stroke="#939598"><path d="M322.006 240.83h17.076v13.876h-17.076z"/><path d="M323.398 242.226h14.254v9.98h-14.254z"/></g><path fill="#FFF" stroke="#939598" d="M34.333 181h48v27.625h-48z"/><path fill="#FFF" stroke="#939598" d="M60.358 191.938a.77.77 0 0 1 .77.77v13.445a.77.77 0 0 1-.77.77H37.552a.77.77 0 0 1-.77-.77V192.71a.77.77 0 0 1 .77-.772h22.806z"/><circle fill="#FFF" stroke="#939598" cx="49.036" cy="199.761" r=".871"/><path fill="#FFF" stroke="#939598" d="M45.23 192.474h7.61v1.82h-7.61z"/><path fill="#FFF" stroke="#939598" d="M48.647 194.246h.777v3.586h-.777z"/><circle fill="#FFF" stroke="#939598" cx="49.036" cy="193.401" r=".847"/><g><path fill="none" stroke="#939598" d="M49.506 194.923h9.59a.81.81 0 0 1 .81.81v9.222a.81.81 0 0 1-.81.81h-20.28a.81.81 0 0 1-.812-.81v-9.22c0-.448.363-.812.81-.812h9.727"/></g><g stroke="#939598"><path fill="none" stroke-dasharray="1.5,1,1.5,1,1.5,1" d="M63.16 209.122v-16.976h16.65v16.594"/><path fill="#FFF" d="M79.835 208.74v1.01H63.16v-.622"/></g><path fill="#FFF" stroke="#939598" d="M4.54 235.167h106.75V256H4.54z"/><g><path fill="#FFF" stroke="#939598" d="M23.49 234.575h23.25v19.75H23.49z"/><circle fill="#FFF" stroke="#939598" cx="40.431" cy="238.95" r="2.824"/><circle fill="#FFF" stroke="#939598" stroke-width=".8" cx="40.459" cy="238.951" r="1.989"/><circle fill="#FFF" stroke="#939598" cx="29.144" cy="247.2" r="2.824"/><circle fill="#FFF" stroke="#939598" stroke-width=".8" cx="29.115" cy="247.201" r="1.989"/><circle fill="#FFF" stroke="#939598" cx="40.469" cy="247.173" r="3.219"/><circle fill="#FFF" stroke="#939598" stroke-width=".8" cx="40.438" cy="247.173" r="2.268"/><g><circle fill="#FFF" stroke="#939598" cx="29.156" cy="238.733" r="3.219"/><circle fill="#FFF" stroke="#939598" stroke-width=".8" cx="29.124" cy="238.733" r="2.268"/></g><path fill="none" stroke="#939598" d="M46.77 251.593H23.49M46.74 252.685H23.49"/></g><g><path fill="#FFF" stroke="#939598" d="M67.832 232.664h24.9v21.97h-24.9z"/><path fill="none" stroke="#939598" d="M67.772 234.2h24.96"/><path fill="#FFF" stroke="#939598" d="M88.638 231.58h2.018v1.067h-2.018z"/></g><g><path fill="#FFF" stroke="#939598" d="M107.783 228.76h1.834v26.167H93.95V228.76h3.333"/><path fill="none" stroke="#939598" stroke-width=".7" d="M102.443 219.876l1.25.687-5.208 8.593-1.25-.686z"/><path fill="none" stroke="#939598" stroke-width=".8" d="M102.922 220.29a9.99 9.99 0 0 1 4.81 8.888"/></g><path fill="none" stroke="#939598" stroke-dasharray="1.5,1.5,1.5,1.5,1.5,1.5" d="M106.64 245.167h4.65M5.958 245.167h92.905"/><g><g stroke="#939598"><path fill="#FFF" d="M236.014 133.317h20.188v18.543h-20.188z"/><path fill="none" d="M256.232 136.27h-20.25M256.2 135.394h-20.186M239.982 138.496v9.094l2.438 2.22h7.47l2.467-2.22v-9.094z"/></g></g><g><path fill="#FFF" stroke="#939598" d="M259.6 133.317h20.188v18.543H259.6z"/><path fill="none" stroke="#939598" d="M279.818 136.27h-20.25M279.787 135.394H259.6M261.068 151.924h.875v.875h-.875z"/></g><g fill="none" stroke="#939598"><path d="M279.504 159.537l-1.504-.013-.014 21.44 1.543.012zM278.87 180.99c-11.802-.4-21.044-10.16-20.642-21.962"/><g><path d="M237.025 159.537l1.504-.013.013 21.44-1.543.012zM237.658 180.99c11.803-.4 21.045-10.16 20.643-21.962"/></g></g><path fill="none" stroke="#939598" stroke-dasharray="1.5,1.5,1.5,1.5,1.5,1.5" d="M242.79 143.244h-13.75M265.79 143.244h-16M284.54 143.244h-10"/><text transform="translate(266.12 145.558)" fill="#939598" font-family="'Gotham-Book'" font-size="7">W</text><text transform="translate(243.792 145.558)" fill="#939598" font-family="'Gotham-Book'" font-size="7">D</text><g><path fill="#939598" d="M261.034 253.776h-2.99v1.674h2.675v.505h-2.677v1.716h3.026v.505h-3.58v-4.902h3.544v.503zM262.627 258.175h-.54v-3.62h.54v.63c.238-.393.617-.708 1.24-.708.875 0 1.387.59 1.387 1.45v2.248h-.54v-2.115c0-.672-.363-1.093-1-1.093-.624 0-1.087.455-1.087 1.135v2.073z"/><g fill="#939598"><path d="M267.08 257.146c0 .44.244.603.61.603.18 0 .335-.036.524-.128v.463a1.36 1.36 0 0 1-.652.154c-.58 0-1.02-.29-1.02-1.024v-2.185h-.506v-.476h.505v-1.093h.54v1.094h1.148v.477h-1.148v2.116zM269.72 258.175h-.54v-3.62h.54v.944c.265-.603.79-1.037 1.478-1.01v.582h-.043c-.79 0-1.436.567-1.436 1.66v1.443zM273.78 258.294c-.31.75-.66 1.022-1.206 1.022-.3 0-.525-.063-.77-.182l.182-.428c.176.09.336.133.567.133.322 0 .525-.17.742-.68l-1.646-3.607h.595l1.316 3.02 1.163-3.02h.574l-1.518 3.74z"/></g><g fill="#939598"><path d="M229.59 245.4c0 1.413-1.113 2.458-2.528 2.458-1.4 0-2.542-1.037-2.542-2.48 0-.89.314-1.422.777-1.912l.406.38c-.393.412-.673.874-.673 1.54 0 1.086.876 1.897 2.018 1.897s2.03-.82 2.03-1.897c0-.673-.26-1.113-.707-1.583l.358-.364c.52.51.862 1.07.862 1.96zM229.506 242.517h-5.112v-.54h5.112v.54zM229.59 239.07c0 1.087-.854 1.878-1.884 1.878s-1.898-.798-1.898-1.89c0-1.087.854-1.885 1.884-1.885 1.03 0 1.898.806 1.898 1.898zm-3.306 0c0 .786.623 1.325 1.407 1.325.786 0 1.416-.574 1.416-1.338 0-.784-.623-1.33-1.4-1.33-.792 0-1.422.582-1.422 1.344zM229.576 235.005a2.49 2.49 0 0 1-.532 1.5l-.386-.273c.294-.393.463-.827.463-1.254 0-.435-.224-.75-.574-.75h-.014c-.364 0-.504.428-.638.904-.16.566-.356 1.197-1.022 1.197h-.014c-.623 0-1.036-.52-1.036-1.233 0-.44.153-.932.398-1.303l.406.244c-.217.337-.35.723-.35 1.072 0 .428.224.7.525.7h.015c.343 0 .477-.448.623-.932.168-.56.386-1.163 1.037-1.163h.014c.687 0 1.086.57 1.086 1.29zM229.12 231.12c0-.497-.202-.848-.51-1.142l.3-.336c.406.364.68.806.68 1.49 0 .996-.764 1.808-1.89 1.808-1.052 0-1.893-.734-1.893-1.736 0-1.07.854-1.688 1.92-1.688.05 0 .104 0 .167.007v2.872c.786-.078 1.227-.638 1.227-1.275zm-1.624-1.058c-.658.056-1.233.435-1.233 1.155 0 .63.525 1.107 1.233 1.178v-2.333zM228.477 227.845c.44 0 .603-.245.603-.61 0-.18-.035-.335-.127-.524h.463c.098.19.154.394.154.652 0 .58-.288 1.022-1.023 1.022h-2.185v.504h-.477v-.504h-1.093v-.54h1.093v-1.147h.477v1.148h2.115z"/></g><path fill="#939598" d="M319.238 219.68c0 .828-.504 1.252-1 1.468.748.225 1.35.657 1.35 1.53 0 1.09-.908 1.73-2.285 1.73h-2.8v-6.303h2.683c1.242 0 2.052.612 2.052 1.575zm-.72.1c0-.632-.495-1.037-1.395-1.037h-1.918v2.17h1.863c.856 0 1.45-.387 1.45-1.134zm.35 2.853c0-.693-.575-1.09-1.674-1.09h-1.99v2.224h2.116c.955 0 1.55-.423 1.55-1.134zM321.154 220.644l-.207-.567c.513-.234 1.017-.388 1.69-.388 1.27 0 1.98.647 1.98 1.872v2.845h-.665v-.702c-.324.423-.863.8-1.684.8-.863 0-1.736-.484-1.736-1.457 0-.99.81-1.513 1.988-1.513.595 0 1.018.08 1.432.198v-.162c0-.836-.513-1.27-1.387-1.27-.547 0-.98.145-1.41.344zm.08 2.376c0 .595.54.937 1.17.937.855 0 1.56-.522 1.56-1.26v-.45a4.825 4.825 0 0 0-1.37-.198c-.873-.002-1.36.376-1.36.97z"/><g fill="#939598"><path d="M326.896 223.083c0 .567.314.774.783.774.233 0 .43-.045.674-.162v.594a1.743 1.743 0 0 1-.837.197c-.748 0-1.314-.37-1.314-1.314v-2.81h-.648v-.61h.648v-1.405h.693v1.404h1.477v.612h-1.477v2.72zM330.29 224.406h-.694v-6.572h.693v2.73c.305-.506.79-.91 1.593-.91 1.125 0 1.78.756 1.78 1.863v2.89h-.69v-2.72c0-.863-.47-1.403-1.29-1.403-.8 0-1.394.585-1.394 1.458v2.664z"/></g><g fill="#939598"><path d="M351.283 170.18c-1.414 0-2.46-1.114-2.46-2.53 0-1.4 1.038-2.54 2.48-2.54.89 0 1.423.313 1.913.776l-.38.406c-.412-.393-.874-.673-1.54-.673-1.086 0-1.897.875-1.897 2.017s.818 2.03 1.896 2.03c.673 0 1.113-.26 1.583-.707l.363.357c-.51.52-1.07.862-1.96.862zM354.166 170.095v-5.112h.54v5.112h-.54zM357.61 170.18c-1.085 0-1.876-.855-1.876-1.885s.798-1.898 1.89-1.898c1.087 0 1.885.854 1.885 1.884 0 1.03-.807 1.9-1.9 1.9zm0-3.307c-.784 0-1.323.623-1.323 1.407 0 .785.574 1.415 1.338 1.415.784 0 1.33-.623 1.33-1.4 0-.792-.58-1.422-1.344-1.422zM361.678 170.165a2.49 2.49 0 0 1-1.5-.532l.273-.386c.394.294.828.463 1.255.463.435 0 .75-.225.75-.575v-.014c0-.363-.428-.503-.904-.637-.565-.16-1.196-.356-1.196-1.022v-.013c0-.623.52-1.036 1.232-1.036.44 0 .932.154 1.303.4l-.245.405c-.337-.217-.723-.35-1.072-.35-.428 0-.7.224-.7.525v.014c0 .343.448.477.932.623.56.168 1.163.386 1.163 1.037v.014c0 .688-.57 1.087-1.29 1.087zM365.562 169.71c.497 0 .848-.203 1.142-.512l.336.3c-.364.407-.806.68-1.49.68-.996 0-1.808-.763-1.808-1.89 0-1.05.734-1.892 1.736-1.892 1.07 0 1.688.854 1.688 1.92 0 .05 0 .104-.007.167h-2.873c.078.786.64 1.227 1.275 1.227zm1.058-1.625c-.056-.658-.435-1.233-1.155-1.233-.63 0-1.107.525-1.178 1.233h2.333zM368.838 169.065c0 .44.245.603.61.603.18 0 .335-.035.524-.127v.464c-.19.098-.393.154-.65.154-.582 0-1.023-.288-1.023-1.023v-2.185h-.505v-.477h.504v-1.093h.538v1.093h1.148v.477h-1.148v2.115z"/></g><g fill="#939598"><path d="M49.78 183.94v4.9h-.555v-4.9h.554zM52.32 188.912a2.494 2.494 0 0 1-1.5-.532l.274-.386c.392.294.827.463 1.254.463.434 0 .75-.225.75-.575v-.014c0-.364-.428-.504-.904-.638-.567-.16-1.198-.356-1.198-1.022v-.014c0-.623.52-1.036 1.233-1.036.44 0 .93.153 1.302.398l-.245.406c-.336-.217-.722-.35-1.072-.35-.427 0-.7.224-.7.525v.014c0 .344.448.478.932.624.56.168 1.163.386 1.163 1.037v.015c0 .688-.568 1.087-1.29 1.087zM54.658 188.842v-5.112h.54v5.112h-.54zM56.66 185.914l-.16-.44c.398-.183.79-.302 1.316-.302.987 0 1.54.504 1.54 1.457v2.212h-.517v-.546c-.253.33-.673.623-1.31.623-.674 0-1.353-.38-1.353-1.136 0-.77.63-1.177 1.548-1.177.462 0 .792.063 1.114.154v-.125c0-.65-.4-.987-1.08-.987-.428 0-.764.112-1.1.266zm.063 1.85c0 .462.42.728.91.728.666 0 1.212-.406 1.212-.98v-.35a3.775 3.775 0 0 0-1.064-.154c-.68 0-1.057.293-1.057.756zM61.042 188.842h-.54v-3.62h.54v.63c.238-.393.616-.708 1.24-.708.875 0 1.387.59 1.387 1.45v2.248h-.54v-2.115c0-.672-.365-1.093-1.002-1.093-.623 0-1.085.455-1.085 1.135v2.072zM67.72 188.842v-.73c-.293.436-.72.807-1.386.807-.868 0-1.73-.688-1.73-1.885 0-1.19.862-1.892 1.73-1.892.672 0 1.106.364 1.387.77v-2.184h.54v5.11h-.54zm-1.288-3.215c-.7 0-1.275.52-1.275 1.4 0 .862.588 1.408 1.275 1.408.672 0 1.31-.56 1.31-1.408 0-.84-.638-1.4-1.31-1.4z"/></g><g fill="#939598"><path d="M47.618 221.904h-.89l-2.423-3.052-1.34 1.36v1.69h-.712v-6.3h.71v3.762l3.62-3.763h.918l-2.7 2.756 2.818 3.548zM48.624 216.232v-.765h.792v.765h-.792zm.045 5.672v-4.654h.692v4.654h-.693zM51.91 220.58c0 .568.315.775.783.775.234 0 .432-.045.675-.162v.594a1.743 1.743 0 0 1-.837.198c-.746 0-1.313-.37-1.313-1.314v-2.808h-.648v-.612h.647v-1.404h.693v1.404h1.477v.612H51.91v2.72zM56.573 222.013c-1.36 0-2.386-1.107-2.386-2.422 0-1.322 1.026-2.44 2.386-2.44.882 0 1.43.37 1.863.83l-.46.485c-.368-.387-.782-.702-1.413-.702-.945 0-1.666.802-1.666 1.81 0 1.018.738 1.82 1.71 1.82.594 0 1.053-.3 1.422-.694l.44.413c-.466.52-1.024.9-1.897.9zM60.307 221.904h-.693v-6.572h.693v2.73c.306-.506.792-.91 1.594-.91 1.126 0 1.783.756 1.783 1.863v2.89h-.693v-2.72c0-.863-.468-1.403-1.288-1.403-.8 0-1.396.585-1.396 1.458v2.664zM67.21 221.41c.64 0 1.09-.262 1.468-.658l.432.387c-.468.52-1.036.873-1.918.873-1.278 0-2.322-.98-2.322-2.43 0-1.352.945-2.433 2.232-2.433 1.377 0 2.17 1.1 2.17 2.467 0 .063 0 .136-.01.217h-3.69c.1 1.008.82 1.575 1.638 1.575zm1.36-2.09c-.072-.846-.558-1.584-1.485-1.584-.81 0-1.422.675-1.512 1.584h2.997zM71.18 221.904h-.694v-4.654h.693v.81c.305-.504.79-.91 1.593-.91 1.125 0 1.782.758 1.782 1.865v2.89h-.693v-2.72c0-.863-.468-1.403-1.288-1.403-.8 0-1.396.585-1.396 1.458v2.664z"/></g><g fill="#939598"><path d="M67.205 203.34h-1.702v-4.9h1.702c1.54 0 2.605 1.057 2.605 2.443s-1.064 2.458-2.605 2.458zm0-4.39h-1.15v3.88h1.15c1.24 0 2.03-.84 2.03-1.934s-.79-1.947-2.03-1.947zM73.695 198.424h.455l1.345 4.098 1.4-4.083h.582l-1.75 4.937h-.47l-1.345-3.98-1.352 3.98h-.462l-1.75-4.938h.602l1.4 4.082 1.345-4.098z"/></g><g fill="#939598"><path d="M78.438 242.24l-1.422-1.906h-1.4v1.905h-.554v-4.903h2.108c1.078 0 1.77.58 1.77 1.464 0 .82-.56 1.296-1.33 1.437l1.506 2.003h-.678zm-1.31-4.392h-1.514v1.99h1.506c.735 0 1.26-.38 1.26-1.017 0-.608-.46-.972-1.253-.972zM81.558 241.854c.497 0 .848-.203 1.142-.512l.336.3c-.364.407-.805.68-1.492.68-.995 0-1.807-.763-1.807-1.89 0-1.05.735-1.892 1.737-1.892 1.07 0 1.688.854 1.688 1.92 0 .05 0 .104-.007.167h-2.872c.077.786.638 1.227 1.275 1.227zm1.058-1.625c-.056-.66-.434-1.234-1.156-1.234-.63 0-1.106.525-1.177 1.233h2.333zM85.99 238.632v.463h-1.143v3.145h-.54v-3.145h-.497v-.47h.498v-.314c0-.79.4-1.21 1.092-1.21.252 0 .42.027.595.09v.47a1.77 1.77 0 0 0-.525-.092c-.42 0-.63.253-.63.77v.295h1.15z"/></g><g fill="#939598"><path d="M102.99 249.68v1.19h1.73v.554h-4.902v-1.835c0-1.107.588-1.836 1.562-1.836 1.064 0 1.61.882 1.61 1.926zm-2.66-.05v1.24h2.156v-1.21c0-.813-.434-1.347-1.085-1.347-.707 0-1.07.526-1.07 1.318zM101.793 246.698l-.44.162c-.183-.4-.302-.792-.302-1.317 0-.987.505-1.54 1.458-1.54h2.213v.518h-.545c.33.253.623.673.623 1.31 0 .674-.378 1.354-1.135 1.354-.77 0-1.177-.63-1.177-1.55 0-.46.063-.79.154-1.112h-.126c-.65 0-.987.4-.987 1.078 0 .426.112.762.266 1.098zm1.85-.062c.462 0 .728-.42.728-.91 0-.666-.405-1.212-.98-1.212h-.35a3.78 3.78 0 0 0-.153 1.064c0 .68.293 1.058.756 1.058zM104.72 242.317v.54h-3.62v-.54h.63c-.392-.238-.707-.617-.707-1.24 0-.875.59-1.387 1.45-1.387h2.248v.54h-2.114c-.672 0-1.093.363-1.093 1 0 .624.455 1.087 1.135 1.087h2.073zM103.69 237.815c.442 0 .604-.244.604-.61 0-.18-.035-.335-.127-.524h.463c.098.19.154.394.154.653 0 .58-.288 1.02-1.023 1.02h-2.184v.506h-.476v-.506h-1.093v-.54h1.093v-1.147h.477v1.148h2.114zM104.72 235.177v.54h-3.62v-.54h.945c-.602-.266-1.036-.79-1.008-1.48h.58v.044c0 .792.568 1.437 1.66 1.437h1.444zM104.84 231.116c.75.31 1.022.658 1.022 1.205 0 .302-.063.526-.182.77l-.428-.18c.09-.177.133-.337.133-.568 0-.322-.168-.525-.68-.742l-3.606 1.646v-.596l3.018-1.316-3.02-1.162v-.574l3.742 1.518z"/></g><g fill="#939598"><path d="M243.986 153.168h.553v4.39h2.76v.513h-3.313v-4.902zM248.438 155.143l-.16-.44c.398-.183.79-.302 1.315-.302.988 0 1.54.505 1.54 1.458v2.213h-.517v-.545c-.253.33-.673.623-1.31.623-.673 0-1.353-.378-1.353-1.135 0-.77.63-1.177 1.548-1.177.463 0 .793.063 1.115.154v-.126c0-.65-.4-.987-1.08-.987-.424 0-.76.11-1.097.266zm.064 1.85c0 .46.42.727.91.727.665 0 1.21-.406 1.21-.98v-.35a3.775 3.775 0 0 0-1.063-.154c-.68 0-1.058.293-1.058.756zM254.852 154.45h.532v3.62h-.532v-.63c-.245.392-.617.707-1.24.707-.875 0-1.387-.59-1.387-1.45v-2.248h.54v2.114c0 .673.364 1.093 1 1.093.618 0 1.087-.455 1.087-1.135v-2.073z"/></g><path fill="#939598" d="M257.133 158.07h-.54v-3.62h.54v.63c.238-.393.616-.708 1.24-.708.875 0 1.387.59 1.387 1.45v2.248h-.54v-2.115c0-.672-.364-1.093-1-1.093-.624 0-1.087.455-1.087 1.135v2.073z"/><g fill="#939598"><path d="M263.72 158.07v-.73c-.293.436-.72.807-1.386.807-.868 0-1.73-.687-1.73-1.884 0-1.19.862-1.892 1.73-1.892.672 0 1.106.365 1.387.772v-2.185h.54v5.112h-.54zm-1.288-3.215c-.7 0-1.274.52-1.274 1.4 0 .862.59 1.408 1.274 1.408.673 0 1.31-.56 1.31-1.408 0-.84-.638-1.4-1.31-1.4zM266.002 158.07h-.54v-3.62h.54v.944c.266-.602.79-1.036 1.478-1.008v.58h-.042c-.79 0-1.436.568-1.436 1.66v1.444zM270.062 158.19c-.31.748-.658 1.02-1.205 1.02-.3 0-.525-.062-.77-.18l.182-.43c.174.092.335.134.565.134.322 0 .525-.168.742-.68l-1.645-3.606h.595l1.317 3.02 1.162-3.02h.574l-1.518 3.74z"/></g><g fill="#939598"><path d="M288.03 53.53c0 .828-.503 1.252-1 1.468.75.225 1.352.657 1.352 1.53 0 1.09-.91 1.73-2.286 1.73h-2.8v-6.303h2.683c1.24 0 2.05.612 2.05 1.575zm-.72.1c0-.63-.494-1.036-1.394-1.036h-1.918v2.17h1.863c.857 0 1.45-.387 1.45-1.134zm.352 2.853c0-.693-.576-1.09-1.675-1.09h-1.99v2.224h2.116c.955 0 1.55-.423 1.55-1.134zM291.73 57.762c.64 0 1.09-.26 1.468-.657l.432.387c-.47.522-1.035.874-1.918.874-1.278 0-2.322-.98-2.322-2.43 0-1.352.945-2.433 2.232-2.433 1.377 0 2.17 1.1 2.17 2.467 0 .063 0 .136-.01.217h-3.69c.097 1.007.818 1.575 1.637 1.575zm1.358-2.09c-.07-.845-.558-1.583-1.484-1.583-.81 0-1.423.674-1.513 1.583h2.998zM298.74 58.257v-.937c-.378.56-.928 1.035-1.782 1.035-1.116 0-2.224-.882-2.224-2.42 0-1.532 1.107-2.433 2.224-2.433.864 0 1.423.47 1.782.99v-2.81h.693v6.573h-.693zm-1.656-4.132c-.9 0-1.64.666-1.64 1.8 0 1.107.757 1.81 1.64 1.81.864 0 1.684-.72 1.684-1.81 0-1.08-.82-1.8-1.684-1.8zM301.674 58.257h-.693v-4.654h.694v1.215c.342-.773 1.018-1.332 1.9-1.296v.747h-.055c-1.02 0-1.847.728-1.847 2.133v1.854zM306.553 58.365c-1.396 0-2.413-1.1-2.413-2.422s1.026-2.44 2.43-2.44c1.397 0 2.423 1.1 2.423 2.422 0 1.324-1.036 2.44-2.44 2.44zm0-4.25c-1.01 0-1.702.802-1.702 1.81 0 1.01.74 1.82 1.72 1.82 1.01 0 1.712-.803 1.712-1.802 0-1.017-.75-1.828-1.73-1.828zM312.366 58.365c-1.396 0-2.413-1.1-2.413-2.422s1.026-2.44 2.432-2.44c1.395 0 2.42 1.1 2.42 2.422 0 1.324-1.034 2.44-2.44 2.44zm0-4.25c-1.01 0-1.702.802-1.702 1.81 0 1.01.738 1.82 1.72 1.82 1.01 0 1.71-.803 1.71-1.802 0-1.017-.746-1.828-1.728-1.828zM321.385 53.503c1.072 0 1.73.72 1.73 1.873v2.88h-.694V55.54c0-.9-.448-1.404-1.205-1.404-.702 0-1.287.52-1.287 1.44v2.683h-.685V55.52c0-.873-.46-1.386-1.197-1.386s-1.297.612-1.297 1.467v2.657h-.693v-4.654h.692v.783c.306-.46.72-.883 1.503-.883.756 0 1.242.405 1.494.928.333-.512.827-.927 1.638-.927z"/></g><g fill="#939598"><path d="M280.515 62.91h.522v6.347h-.703V63.65l-1.188.368-.172-.576 1.54-.532zM286.562 64.116c-.467-.396-.908-.62-1.484-.62-1.144 0-1.855 1.15-1.846 2.78.342-.504.873-.963 1.79-.963 1.18 0 2.18.757 2.18 1.944 0 1.225-.98 2.107-2.26 2.107-.692 0-1.26-.243-1.656-.64-.504-.504-.792-1.152-.792-2.448 0-1.927.973-3.43 2.62-3.43.756 0 1.313.27 1.863.72l-.415.55zm-1.628 1.81c-.945 0-1.575.675-1.575 1.387 0 .82.665 1.422 1.592 1.422.928 0 1.52-.64 1.52-1.45 0-.783-.63-1.36-1.538-1.36zM288.623 62.955h.847V63l-.73 2.403h-.386l.27-2.448zM291.044 62.955h3.628v.657h-3.007l-.135 2.017c.37-.163.72-.28 1.242-.28 1.225 0 2.18.73 2.18 1.936 0 1.242-.938 2.08-2.25 2.08-.9 0-1.685-.433-2.253-1l.468-.513c.55.53 1.152.864 1.79.864.9 0 1.522-.595 1.522-1.404 0-.792-.64-1.333-1.566-1.333-.53 0-.954.162-1.322.36l-.48-.315.182-3.07zM296.336 62.955h.838V63l-.73 2.403h-.377l.27-2.448zm1.765 0h.83V63l-.73 2.403h-.377l.278-2.448zM306.957 69.257h-.8l-1.442-1.9-1.45 1.9h-.772l1.827-2.368-1.755-2.287h.79l1.38 1.8 1.377-1.8h.773l-1.764 2.27 1.837 2.384zM311.798 62.91h.522v6.347h-.703V63.65l-1.188.368-.173-.576 1.54-.532zM314.012 63.594v-.64h4.024v.523l-1.98 2.196c1.106.09 2.08.62 2.08 1.782 0 1.135-.937 1.91-2.107 1.91-1.055 0-1.838-.46-2.35-1.127l.512-.46c.486.596 1.072.938 1.846.938.766 0 1.377-.486 1.377-1.233 0-.792-.72-1.225-1.764-1.225h-.404l-.144-.423 1.99-2.242h-3.08zM319.6 62.955h.848V63l-.73 2.403h-.387l.27-2.448zM322.02 62.955h3.63v.657h-3.008l-.135 2.017c.37-.163.72-.28 1.242-.28 1.224 0 2.178.73 2.178 1.936 0 1.242-.937 2.08-2.25 2.08-.9 0-1.685-.433-2.25-1l.467-.513c.55.53 1.152.864 1.792.864.9 0 1.52-.595 1.52-1.404 0-.792-.64-1.333-1.565-1.333-.53 0-.955.162-1.324.36l-.477-.315.18-3.07zM327.313 62.955h.837V63l-.73 2.403h-.378l.27-2.448zm1.765 0h.828V63l-.73 2.403h-.377l.278-2.448z"/></g><g fill="#939598"><path d="M70.858 140.622h.71v5.645h3.548v.657h-4.258v-6.302zM76.33 141.252v-.765h.793v.765h-.792zm.045 5.672v-4.654h.693v4.654h-.693zM82.127 142.27h.747l-2.025 4.69h-.613l-2.017-4.69h.766l1.566 3.862 1.575-3.862zM83.98 141.252v-.765h.792v.765h-.792zm.045 5.672v-4.654h.693v4.654h-.693zM87.022 146.924h-.693v-4.654h.692v.81c.306-.504.792-.91 1.594-.91 1.125 0 1.782.758 1.782 1.865v2.89h-.693v-2.72c0-.863-.468-1.403-1.288-1.403-.8 0-1.396.585-1.396 1.458v2.664zM93.935 148.382a3.657 3.657 0 0 1-2.116-.647l.314-.54c.53.387 1.125.594 1.792.594 1.026 0 1.693-.568 1.693-1.657v-.55c-.406.54-.974.98-1.83.98-1.115 0-2.187-.827-2.187-2.187 0-1.368 1.08-2.206 2.188-2.206.874 0 1.44.433 1.82.937v-.837h.692v3.844c0 1.503-.936 2.268-2.367 2.268zm-.01-5.6c-.882 0-1.61.604-1.61 1.576 0 .954.746 1.593 1.61 1.593.882 0 1.71-.63 1.71-1.583 0-.964-.827-1.585-1.71-1.585zM101.702 139.74l-4.177 8.336h-.64l4.178-8.337h.64zM104.726 146.924h-2.188v-6.302h2.188c1.98 0 3.35 1.36 3.35 3.142-.002 1.783-1.37 3.16-3.35 3.16zm0-5.645h-1.477v4.986h1.476c1.593 0 2.61-1.08 2.61-2.484s-1.017-2.503-2.61-2.503zM109.477 141.252v-.765h.792v.765h-.793zm.045 5.672v-4.654h.693v4.654h-.693zM112.52 146.924h-.694v-4.654h.693v.81c.305-.504.79-.91 1.593-.91 1.125 0 1.782.758 1.782 1.865v2.89h-.693v-2.72c0-.863-.468-1.403-1.288-1.403-.8 0-1.396.585-1.396 1.458v2.664zM117.387 141.252v-.765h.792v.765h-.793zm.046 5.672v-4.654h.693v4.654h-.693zM120.43 146.924h-.693v-4.654h.693v.81c.306-.504.792-.91 1.594-.91 1.125 0 1.782.758 1.782 1.865v2.89h-.693v-2.72c0-.863-.468-1.403-1.288-1.403-.8 0-1.396.585-1.396 1.458v2.664zM127.342 148.382a3.657 3.657 0 0 1-2.116-.647l.315-.54c.532.387 1.126.594 1.793.594 1.026 0 1.693-.568 1.693-1.657v-.55c-.405.54-.973.98-1.828.98-1.116 0-2.188-.827-2.188-2.187 0-1.368 1.08-2.206 2.188-2.206.873 0 1.44.433 1.818.937v-.837h.693v3.844c0 1.503-.937 2.268-2.368 2.268zm-.01-5.6c-.88 0-1.61.604-1.61 1.576 0 .954.747 1.593 1.61 1.593.883 0 1.71-.63 1.71-1.583 0-.964-.827-1.585-1.71-1.585zM138.413 146.924l-1.828-2.45h-1.8v2.45h-.71v-6.302h2.71c1.385 0 2.277.747 2.277 1.882 0 1.053-.72 1.665-1.71 1.845l1.936 2.574h-.875zm-1.684-5.645h-1.945v2.556h1.936c.946 0 1.622-.486 1.622-1.306 0-.783-.595-1.25-1.613-1.25zM142.498 147.032c-1.396 0-2.413-1.1-2.413-2.422s1.026-2.44 2.43-2.44c1.397 0 2.422 1.1 2.422 2.422a2.418 2.418 0 0 1-2.44 2.44zm0-4.25c-1.008 0-1.702.802-1.702 1.81 0 1.01.738 1.82 1.72 1.82 1.008 0 1.71-.803 1.71-1.802 0-1.017-.747-1.828-1.728-1.828zM148.312 147.032c-1.396 0-2.413-1.1-2.413-2.422s1.025-2.44 2.43-2.44c1.396 0 2.42 1.1 2.42 2.422 0 1.324-1.034 2.44-2.438 2.44zm0-4.25c-1.008 0-1.702.802-1.702 1.81 0 1.01.738 1.82 1.72 1.82 1.008 0 1.71-.803 1.71-1.802 0-1.017-.747-1.828-1.728-1.828zM157.33 142.17c1.072 0 1.73.72 1.73 1.873v2.88h-.693v-2.718c0-.9-.45-1.404-1.207-1.404-.702 0-1.287.522-1.287 1.44v2.684h-.685v-2.736c0-.874-.46-1.387-1.197-1.387s-1.295.613-1.295 1.468v2.656h-.693v-4.654h.693v.783c.306-.46.72-.883 1.503-.883.756 0 1.243.405 1.495.928.332-.513.828-.928 1.638-.928z"/></g><g fill="#939598"><path d="M88.714 153.25l-.522-.377c.567-.846 1.16-1.34 2.27-1.34 1.142 0 1.953.755 1.953 1.79 0 .928-.486 1.495-1.594 2.458l-1.682 1.495h3.34v.648h-4.402v-.55l2.287-2.016c.963-.864 1.314-1.35 1.314-1.98 0-.738-.585-1.207-1.27-1.207-.72 0-1.188.38-1.693 1.08zM97.375 151.577v4.258h.98v.595h-.98v1.494h-.685v-1.494h-3.322l-.18-.514 3.565-4.34h.622zm-.685 1.008l-2.647 3.25h2.647v-3.25zM99.695 151.622h.846v.045l-.728 2.403h-.387l.27-2.448zM105.663 152.783c-.468-.396-.91-.62-1.485-.62-1.143 0-1.854 1.15-1.845 2.78.342-.504.873-.963 1.792-.963 1.18 0 2.178.757 2.178 1.944 0 1.225-.98 2.107-2.26 2.107-.692 0-1.26-.242-1.656-.64-.504-.503-.792-1.15-.792-2.447 0-1.927.972-3.43 2.62-3.43.756 0 1.314.27 1.864.72l-.417.55zm-1.63 1.81c-.944 0-1.574.675-1.574 1.387 0 .82.665 1.422 1.592 1.422s1.52-.64 1.52-1.45c0-.783-.63-1.36-1.538-1.36zM107.723 151.622h.837v.045l-.73 2.403h-.377l.27-2.448zm1.764 0h.83v.045l-.73 2.403h-.378l.277-2.448zM118.344 157.924h-.8l-1.44-1.9-1.45 1.9h-.774l1.828-2.368-1.755-2.286h.792l1.377 1.8 1.377-1.8h.773l-1.765 2.27 1.836 2.384zM123.185 151.577h.522v6.347h-.702v-5.608l-1.188.37-.17-.577 1.538-.533zM129.233 152.783c-.468-.396-.91-.62-1.485-.62-1.143 0-1.854 1.15-1.845 2.78.342-.504.873-.963 1.792-.963 1.18 0 2.178.757 2.178 1.944 0 1.225-.98 2.107-2.26 2.107-.692 0-1.26-.242-1.656-.64-.504-.503-.792-1.15-.792-2.447 0-1.927.972-3.43 2.62-3.43.756 0 1.314.27 1.864.72l-.417.55zm-1.63 1.81c-.944 0-1.574.675-1.574 1.387 0 .82.665 1.422 1.592 1.422s1.52-.64 1.52-1.45c.002-.783-.63-1.36-1.538-1.36zM131.294 151.622h.846v.045l-.73 2.403h-.386l.27-2.448zM133.255 151.622h4.276v.53l-2.862 5.772h-.792l2.845-5.653h-3.465v-.648zM138.863 151.622h.837v.045l-.73 2.403h-.377l.27-2.448zm1.764 0h.83v.045l-.73 2.403h-.378l.277-2.448z"/></g></g><g fill="none" stroke="#939598"><path stroke-width="5" d="M279.04 258.092h104.8V2.5H229.29v98.883L2.5 101.27v156.822h252.26"/><path stroke-width="3" d="M279.91 159.63h4.922V130.5M229.65 102.75v56.88h7.043M232.29 248.5v8M210.04 257.5V217h22.25v8.75M316.54 191.46h39.75v16.527h26.5M285.543 257.5v-66.04h7.498M322.29 131.5v58.75M377.79 130h7M316.875 130h37.133M230.04 130h63.25"/></g><g stroke="#939598"><path fill="#FFF" d="M15 99.418h69.562v3.674H15z"/><path fill="none" d="M84.562 101.236H14.25"/><path fill="none" stroke-width="2" d="M61.89 103.25v-3.494M38.5 103.375v-3.602"/><g><path fill="#FFF" d="M144 99.44h69.562v3.675H144z"/><path fill="none" d="M213.562 101.26H143.25"/><path fill="none" stroke-width="2" d="M190.89 103.273V99.78M167.5 103.398v-3.6"/></g><g><path fill="#FFF" d="M227.734 25h3.674v36.25h-3.674z"/><path fill="none" d="M229.553 25v37"/></g></g></svg>