<?xml version="1.0" encoding="utf-8"?>
<!-- Generator: Adobe Illustrator 15.0.2, SVG Export Plug-In . SVG Version: 6.00 Build 0)  -->
<!DOCTYPE svg PUBLIC "-//W3C//DTD SVG 1.1//EN" "http://www.w3.org/Graphics/SVG/1.1/DTD/svg11.dtd">
<svg version="1.1" id="Layer_1" xmlns="http://www.w3.org/2000/svg" xmlns:xlink="http://www.w3.org/1999/xlink" x="0px" y="0px"
	 width="325.723px" height="206.848px" viewBox="0 0 325.723 206.848" enable-background="new 0 0 325.723 206.848"
	 xml:space="preserve">
<g id="_x32_0_x25___PMS_2985_fill">
	<polygon fill="#939598" points="244.785,16.441 244.785,8.108 108.119,8.108 108.119,17.107 2.119,16.773 2.119,204.442 
		156.535,204.442 156.535,203.442 3.119,203.442 3.119,17.776 109.119,18.11 109.119,9.108 243.785,9.108 243.785,17.441 
		323.119,17.441 323.119,203.442 180.66,203.442 180.66,204.442 324.119,204.442 324.119,16.441 	"/>
</g>
<g id="_x33_0_x25__grey_fill">
	<rect x="2.285" y="18.275" fill="#D1D3D4" width="25.667" height="5"/>
	<rect x="101.43" y="18.275" fill="#D1D3D4" width="18.688" height="5.333"/>
	<rect x="317.285" y="18.941" fill="#D1D3D4" width="5.833" height="4"/>
	<rect x="193.118" y="9.608" fill="#D1D3D4" width="50.5" height="14"/>
</g>
<g id="icons">
	<g>
		<polygon fill="none" stroke="#939598" points="52.646,127.957 50.976,127.965 50.96,151.784 52.631,151.775 		"/>
		<path fill="none" stroke="#939598" d="M51.878,151.793c-13.113-0.445-23.383-11.226-22.936-24.338"/>
	</g>
	<g>
		<polygon fill="none" stroke="#939598" points="156.765,204.818 158.435,204.831 158.45,181.012 156.758,181 		"/>
		<path fill="none" stroke="#939598" d="M157.554,180.981c13.113,0.445,23.383,11.289,22.936,24.402"/>
	</g>
	<g>
		<polygon fill="none" stroke="#939598" points="115.049,120.14 115.041,118.554 92.414,118.539 92.422,120.126 		"/>
		<path fill="none" stroke="#939598" d="M92.404,119.411c0.423-12.458,10.664-22.213,23.121-21.789"/>
	</g>
	<g>
		<polygon fill="none" stroke="#939598" points="143.521,128.448 141.852,128.457 141.836,152.275 143.507,152.266 		"/>
		<path fill="none" stroke="#939598" d="M142.754,152.285c-13.113-0.445-23.383-11.226-22.936-24.338"/>
	</g>
	<g>
		<polygon fill="none" stroke="#939598" points="197.549,156.89 197.541,155.304 174.914,155.289 174.922,156.876 		"/>
		<path fill="none" stroke="#939598" d="M174.904,156.161c0.423-12.458,10.664-22.215,23.121-21.788"/>
	</g>
	<g>
		<g>
			<polygon fill="none" stroke="#939598" points="198.109,198.644 198.105,197.345 183.85,197.335 183.855,198.636 			"/>
			<path fill="none" stroke="#939598" d="M183.844,198.185c0.267-7.849,6.72-13.994,14.566-13.727"/>
		</g>
		<g>
			<polygon fill="none" stroke="#939598" points="198.109,170.201 198.105,171.5 183.85,171.51 183.855,170.209 			"/>
			<path fill="none" stroke="#939598" d="M183.844,170.66c0.267,7.849,6.72,13.993,14.566,13.727"/>
		</g>
	</g>
	<line fill="none" stroke="#939598" x1="209.16" y1="165.15" x2="209.16" y2="203.4"/>
	<polyline fill="#FFFFFF" stroke="#939598" points="115.16,200.067 115.16,182.694 147.952,182.694 147.952,200.942 	"/>
	<rect x="254.327" y="124.025" fill="#FFFFFF" stroke="#939598" width="48" height="27.625"/>
	<polyline fill="none" stroke="#939598" points="18.16,129.65 18.16,193.025 82.66,193.025 	"/>
	<line fill="none" stroke="#939598" x1="27.952" y1="24.791" x2="323.619" y2="24.791"/>
	<g>
		<rect x="121.493" y="18.622" fill="none" stroke="#939598" width="37.5" height="1.744"/>
		<rect x="150.243" y="16.979" fill="none" stroke="#939598" width="41" height="1.658"/>
	</g>
	<g>
		<rect x="108.619" y="8.486" fill="none" stroke="#939598" width="2.875" height="2.875"/>
		<line fill="none" stroke="#939598" x1="195.369" y1="10.611" x2="111.494" y2="10.611"/>
		<line fill="none" stroke="#939598" x1="110.937" y1="11.361" x2="110.937" y2="17.942"/>
		<line fill="none" stroke="#939598" x1="108.619" y1="11.361" x2="108.619" y2="17.692"/>
		<line fill="none" stroke="#939598" x1="111.494" y1="8.486" x2="195.619" y2="8.486"/>
	</g>
	<polyline fill="none" stroke="#939598" stroke-dasharray="1.5,1.5,1.5,1.5,1.5,1.5" points="16.108,129.275 16.13,194.995 
		82.14,194.995 	"/>
	
		<line fill="none" stroke="#939598" stroke-dasharray="1.5,1.5,1.5,1.5,1.5,1.5" x1="211.312" y1="165.442" x2="211.312" y2="204.942"/>
	<g>
		<path fill="#FFFFFF" stroke="#939598" stroke-miterlimit="10" d="M105.818,187.407c0-4.463-2.711-9.376-6.053-9.376
			c-3.343,0-6.041,4.913-6.041,9.376s2.698,6.784,6.041,6.784C103.107,194.192,105.818,191.87,105.818,187.407"/>
		<path fill="#FFFFFF" stroke="#939598" d="M105.818,187.407c0-4.463-2.711-9.376-6.053-9.376c-3.343,0-6.041,4.913-6.041,9.376
			s2.698,6.784,6.041,6.784C103.107,194.192,105.818,191.87,105.818,187.407z"/>
		<path fill="#FFFFFF" stroke="#939598" stroke-miterlimit="10" d="M96.142,192.729c0-0.25-0.205-0.455-0.455-0.455H93.58
			c-0.25,0-0.455,0.205-0.455,0.455v0.077c0,0.25,0.205,0.455,0.455,0.455h2.107c0.25,0,0.455-0.205,0.455-0.455V192.729z"/>
		<path fill="#FFFFFF" stroke="#939598" d="M96.142,192.729c0-0.25-0.205-0.455-0.455-0.455H93.58c-0.25,0-0.455,0.205-0.455,0.455
			v0.077c0,0.25,0.205,0.455,0.455,0.455h2.107c0.25,0,0.455-0.205,0.455-0.455V192.729z"/>
		<path fill="#FFFFFF" stroke="#939598" stroke-miterlimit="10" d="M92.804,193.273c-0.759,0-1.375,2.058-1.375,2.816
			c0,0.769,0.616,2.825,1.375,2.825h13.813c0.76,0,1.375-2.058,1.375-2.825c0-0.76-0.615-2.814-1.375-2.814L92.804,193.273z"/>
		<path fill="#FFFFFF" stroke="#939598" d="M92.804,193.273c-0.759,0-1.375,2.058-1.375,2.816c0,0.769,0.616,2.825,1.375,2.825
			h13.813c0.76,0,1.375-2.058,1.375-2.825c0-0.76-0.615-2.814-1.375-2.814L92.804,193.273z"/>
		<path fill="#FFFFFF" stroke="#939598" stroke-miterlimit="10" d="M104.214,187.22c0-3.279-1.991-6.893-4.448-6.893
			s-4.447,3.612-4.447,6.893s1.99,4.985,4.447,4.985S104.214,190.5,104.214,187.22"/>
		<path fill="#FFFFFF" stroke="#939598" d="M104.214,187.22c0-3.279-1.991-6.893-4.448-6.893s-4.447,3.612-4.447,6.893
			s1.99,4.985,4.447,4.985S104.214,190.5,104.214,187.22z"/>
	</g>
	<g>
		<g>
			<rect x="60.028" y="130.25" fill="#FFFFFF" stroke="#939598" width="23.625" height="45.692"/>
			<path fill="#FFFFFF" stroke="#939598" d="M71.84,153.097"/>
			<path fill="#FFFFFF" stroke="#939598" d="M71.84,153.253"/>
			<path fill="#FFFFFF" stroke="#939598" d="M71.84,168.747"/>
		</g>
		<circle fill="#FFFFFF" stroke="#939598" cx="71.952" cy="165.529" r="0.969"/>
		<path fill="#FFFFFF" stroke="#939598" d="M71.913,132.859c-6.771,0-9.25,1.562-9.25,3.752c0,0,0,32.84,0,33.376
			c0,0.535,0.146,1.642,1.562,1.642c1.418,0,7.688,0,7.688,0h0.017c0,0,6.271,0,7.688,0c1.416,0,1.562-1.105,1.562-1.642
			s0-33.354,0-33.354l-0.003-0.021C81.176,134.421,78.641,132.859,71.913,132.859z"/>
		<path fill="#FFFFFF" stroke="#939598" d="M69.92,173.327c0.002-0.55-0.439-0.988-0.995-0.988c-0.536,0-0.981,0.438-0.985,0.988
			c0.004,0.545,0.449,0.994,0.985,0.994C69.48,174.323,69.922,173.877,69.92,173.327z"/>
		<path fill="#FFFFFF" stroke="#939598" d="M76.062,173.327c0.006-0.55-0.445-0.988-0.99-0.988c-0.543,0-0.99,0.438-0.99,0.988
			c0,0.545,0.447,0.994,0.99,0.987C75.619,174.323,76.062,173.872,76.062,173.327z"/>
		<path fill="#FFFFFF" stroke="#939598" d="M70.619,173.62c0,0.812,0.549,1.469,1.361,1.471c0.811-0.002,1.254-0.658,1.254-1.471
			l-0.521-5.593c0-0.549-1.481-0.549-1.481,0L70.619,173.62z"/>
	</g>
	<g>
		<g>
			<g>
				<g>
					<rect x="202.836" y="134.441" fill="#FFFFFF" stroke="#939598" width="18.545" height="20.188"/>
					<path fill="#FFFFFF" stroke="#939598" d="M211.492,144.535"/>
					<polyline fill="#FFFFFF" stroke="#939598" points="208.369,138.41 205.548,138.41 204.89,140.847 204.89,148.316 
						205.548,150.785 208.369,150.785 					"/>
					<line fill="none" stroke="#939598" x1="208.369" y1="154.775" x2="208.369" y2="134.441"/>
					<path fill="#FFFFFF" stroke="#939598" d="M210.546,144.597"/>
				</g>
			</g>
		</g>
		<polygon fill="#FFFFFF" stroke="#939598" points="207.152,153.647 207.148,152.016 208.286,151.658 208.291,154.005 		"/>
	</g>
	<g>
		<g>
			<path fill="#FFFFFF" stroke="#939598" d="M276.302,134.962c-0.426,0-0.771,0.344-0.771,0.771v13.445
				c0,0.426,0.346,0.771,0.771,0.771h22.808c0.426,0,0.771-0.347,0.771-0.771v-13.445c0-0.428-0.345-0.771-0.771-0.771H276.302z"/>
			<path fill="#FFFFFF" stroke="#939598" d="M287.624,141.875"/>
		</g>
		<g>
			<circle fill="#FFFFFF" stroke="#939598" cx="287.624" cy="142.786" r="0.871"/>
			<path fill="#FFFFFF" stroke="#939598" d="M287.624,142.785"/>
		</g>
		<g>
			<g>
				<rect x="283.819" y="135.499" fill="#FFFFFF" stroke="#939598" width="7.609" height="1.819"/>
				<path fill="#FFFFFF" stroke="#939598" d="M287.624,136.408"/>
			</g>
			<g>
				<rect x="287.235" y="137.271" fill="#FFFFFF" stroke="#939598" width="0.777" height="3.586"/>
				<path fill="#FFFFFF" stroke="#939598" d="M287.624,138.833"/>
			</g>
			<g>
				<circle fill="#FFFFFF" stroke="#939598" cx="287.624" cy="136.426" r="0.847"/>
				<path fill="#FFFFFF" stroke="#939598" d="M287.624,136.426"/>
			</g>
		</g>
		<g>
			<path fill="#FFFFFF" stroke="#939598" d="M287.624,142.785"/>
			<path fill="none" stroke="#939598" d="M287.154,137.948h-9.589c-0.447,0-0.812,0.361-0.812,0.81v9.221
				c0,0.445,0.363,0.81,0.812,0.81h20.278c0.447,0,0.812-0.363,0.812-0.81v-9.221c0-0.447-0.363-0.81-0.812-0.81h-9.726"/>
		</g>
	</g>
	<g>
		<polyline fill="none" stroke="#939598" stroke-dasharray="1.5,1,1.5,1,1.5,1" points="273.499,152.147 273.499,135.17 
			256.851,135.17 256.851,151.765 		"/>
		<polyline fill="#FFFFFF" stroke="#939598" points="256.825,151.765 256.825,152.774 273.499,152.774 273.499,152.153 		"/>
	</g>
	<rect x="243.285" y="182.442" fill="#FFFFFF" stroke="#939598" width="79.5" height="20.833"/>
	<g>
		<g>
			<rect x="262.234" y="181.1" fill="#FFFFFF" stroke="#939598" width="23.25" height="19.75"/>
			<path fill="#FFFFFF" stroke="#939598" d="M273.859,190.975"/>
		</g>
		<g>
			<g>
				<circle fill="#FFFFFF" stroke="#939598" cx="279.175" cy="185.475" r="2.824"/>
				<path fill="#FFFFFF" stroke="#939598" d="M279.175,185.475"/>
			</g>
			<g>
				<circle fill="#FFFFFF" stroke="#939598" stroke-width="0.8" cx="279.203" cy="185.476" r="1.989"/>
				<path fill="#FFFFFF" stroke="#939598" d="M279.203,185.475"/>
			</g>
		</g>
		<g>
			<g>
				<circle fill="#FFFFFF" stroke="#939598" cx="267.888" cy="193.725" r="2.824"/>
				<path fill="#FFFFFF" stroke="#939598" d="M267.888,193.725"/>
			</g>
			<g>
				<circle fill="#FFFFFF" stroke="#939598" stroke-width="0.8" cx="267.859" cy="193.726" r="1.989"/>
				<path fill="#FFFFFF" stroke="#939598" d="M267.859,193.725"/>
			</g>
		</g>
		<g>
			<g>
				<circle fill="#FFFFFF" stroke="#939598" cx="279.213" cy="193.698" r="3.219"/>
				<path fill="#FFFFFF" stroke="#939598" d="M279.213,193.698"/>
			</g>
			<g>
				<circle fill="#FFFFFF" stroke="#939598" stroke-width="0.8" cx="279.182" cy="193.698" r="2.268"/>
				<path fill="#FFFFFF" stroke="#939598" d="M279.182,193.698"/>
			</g>
		</g>
		<g>
			<g>
				<circle fill="#FFFFFF" stroke="#939598" cx="267.9" cy="185.258" r="3.219"/>
				<path fill="#FFFFFF" stroke="#939598" d="M267.9,185.258"/>
			</g>
			<g>
				<circle fill="#FFFFFF" stroke="#939598" stroke-width="0.8" cx="267.868" cy="185.258" r="2.268"/>
				<path fill="#FFFFFF" stroke="#939598" d="M267.868,185.258"/>
			</g>
		</g>
		<line fill="none" stroke="#939598" x1="285.516" y1="198.118" x2="262.234" y2="198.118"/>
		<line fill="none" stroke="#939598" x1="285.484" y1="199.209" x2="262.234" y2="199.209"/>
	</g>
	<g>
		<g>
			<rect x="295.1" y="179.332" fill="#FFFFFF" stroke="#939598" width="24.9" height="21.969"/>
			<path fill="#FFFFFF" stroke="#939598" d="M308.839,190.316"/>
		</g>
		<line fill="none" stroke="#939598" x1="295.04" y1="180.868" x2="320.001" y2="180.868"/>
		<rect x="315.905" y="178.247" fill="#FFFFFF" stroke="#939598" width="2.018" height="1.068"/>
		<path fill="#FFFFFF" stroke="#939598" d="M316.914,178.84"/>
	</g>
	
		<line fill="none" stroke="#939598" stroke-dasharray="1.5,1.5,1.5,1.5,1.5,1.5" x1="244.452" y1="193.442" x2="322.952" y2="193.442"/>
	<g>
		<polyline fill="#FFFFFF" stroke="#939598" points="240.527,177.286 242.361,177.286 242.361,203.452 226.694,203.452 
			226.694,177.286 230.027,177.286 		"/>
		<g>
			<g>
				<g>
					<polygon fill="none" stroke="#939598" stroke-width="0.7" points="235.188,168.401 236.438,169.088 231.229,177.681 
						229.979,176.995 					"/>
					<path fill="none" stroke="#939598" stroke-width="0.8" d="M232.258,173.737"/>
				</g>
				<path fill="none" stroke="#939598" stroke-width="0.8" d="M235.666,168.815c3.202,1.94,4.926,5.395,4.811,8.889"/>
			</g>
		</g>
	</g>
	<g>
		<g>
			<g>
				<path fill="none" stroke="#939598" d="M131.453,189.777"/>
			</g>
			<g>
				<path fill="none" stroke="#939598" d="M131.453,190.839"/>
			</g>
			<g>
				<circle fill="none" stroke="#939598" cx="131.453" cy="189.777" r="1.017"/>
				<path fill="none" stroke="#939598" d="M131.453,189.777"/>
			</g>
			<g>
				<g>
					<rect x="127.188" y="196.152" fill="none" stroke="#939598" width="8.553" height="2.125"/>
					<path fill="none" stroke="#939598" d="M131.453,197.214"/>
				</g>
				<g>
					<rect x="131" y="192.027" fill="none" stroke="#939598" width="0.906" height="4.031"/>
					<path fill="none" stroke="#939598" d="M131.453,194.386"/>
				</g>
				<g>
					<circle fill="none" stroke="#939598" cx="131.453" cy="197.194" r="0.986"/>
					<path fill="none" stroke="#939598" d="M131.453,197.194"/>
				</g>
			</g>
		</g>
		<g>
			<rect x="122.926" y="184.727" fill="none" stroke="#939598" width="17.076" height="13.875"/>
			<rect x="124.318" y="186.122" fill="none" stroke="#939598" width="14.255" height="9.979"/>
		</g>
	</g>
</g>
<g id="walls">
	<polyline fill="none" stroke="#939598" stroke-width="5" points="242.618,18.34 323.222,18.34 323.222,204.34 180.535,204.34 	"/>
	<line fill="none" stroke="#939598" stroke-width="3" x1="189.035" y1="18.34" x2="194.785" y2="18.34"/>
	<polyline fill="none" stroke="#939598" stroke-width="5" points="157.035,204.34 2.5,204.34 2.5,18.34 125.285,18.34 	"/>
	<polyline fill="none" stroke="#939598" stroke-width="3" points="143.535,128.609 148.952,128.609 148.952,203.275 	"/>
	<line fill="none" stroke="#939598" stroke-width="3" x1="52.812" y1="128.609" x2="120.186" y2="128.609"/>
	<line fill="none" stroke="#939598" stroke-width="3" x1="1.619" y1="128.609" x2="29.035" y2="128.609"/>
	<line fill="none" stroke="#939598" stroke-width="3" x1="114.952" y1="120.15" x2="114.952" y2="129.275"/>
	<line fill="none" stroke="#939598" stroke-width="3" x1="114.952" y1="24.775" x2="114.952" y2="97.944"/>
	<polyline fill="none" stroke="#939598" stroke-width="3" points="197.619,134.621 197.619,128.609 226.619,128.609 
		226.619,203.942 	"/>
	<line fill="none" stroke="#939598" stroke-width="3" x1="197.619" y1="170.025" x2="197.619" y2="156.775"/>
	<line fill="none" stroke="#939598" stroke-width="3" x1="197.619" y1="203.609" x2="197.619" y2="198.65"/>
	<line fill="none" stroke="#939598" stroke-width="3" x1="243.285" y1="176.609" x2="243.285" y2="203.609"/>
	<polyline fill="none" stroke="#939598" stroke-width="3" points="147.619,201.608 83.285,201.608 83.285,177.275 58.952,177.382 
		58.952,129.716 	"/>
	<polyline fill="none" stroke="#939598" stroke-width="5" points="243.737,18.609 243.737,9.718 193.619,9.718 193.619,18.274 	"/>
	<polyline fill="none" stroke="#939598" stroke-width="3" points="194.564,18.274 194.564,23.448 242.706,23.448 242.706,18.609 	
		"/>
	<polyline fill="none" stroke="#939598" stroke-width="3" points="27.285,18.275 27.285,23.866 2.619,23.866 	"/>
	<polyline fill="none" stroke="#939598" stroke-width="3" points="101.554,18.608 101.554,23.544 120.285,23.544 120.285,17.275 	
		"/>
	<line fill="none" stroke="#939598" stroke-width="5" x1="198.535" y1="163.275" x2="225.285" y2="163.275"/>
	<polyline fill="none" stroke="#939598" stroke-width="3" points="317.683,19.775 317.683,23.474 322.452,23.474 	"/>
</g>
<g id="windows">
	<g>
		<g>
			<rect x="30.244" y="16.443" fill="#FFFFFF" stroke="#939598" width="69.562" height="3.675"/>
			<line fill="none" stroke="#939598" x1="99.807" y1="18.261" x2="29.494" y2="18.261"/>
			<line fill="none" stroke="#939598" stroke-width="2" x1="77.133" y1="20.275" x2="77.133" y2="16.781"/>
		</g>
		<line fill="none" stroke="#939598" stroke-width="2" x1="53.744" y1="20.4" x2="53.744" y2="16.798"/>
	</g>
	<g>
		<g>
			<rect x="246.275" y="16.469" fill="#FFFFFF" stroke="#939598" width="69.562" height="3.674"/>
			<line fill="none" stroke="#939598" x1="315.838" y1="18.288" x2="245.525" y2="18.288"/>
			<line fill="none" stroke="#939598" stroke-width="2" x1="293.164" y1="20.301" x2="293.164" y2="16.807"/>
		</g>
		<line fill="none" stroke="#939598" stroke-width="2" x1="269.775" y1="20.426" x2="269.775" y2="16.825"/>
	</g>
</g>
<g id="Type">
	<g enable-background="new    ">
		<path fill="#939598" d="M131.136,6.02c-0.735,0-1.205-0.364-1.513-0.869l0.399-0.343c0.301,0.455,0.609,0.7,1.121,0.7
			c0.553,0,0.959-0.399,0.959-1.177V1.047h0.561v3.277C132.663,5.452,132.011,6.02,131.136,6.02z"/>
		<path fill="#939598" d="M136.45,2.328h0.532v3.621h-0.532V5.32c-0.245,0.392-0.617,0.707-1.24,0.707
			c-0.875,0-1.387-0.589-1.387-1.45V2.328h0.539v2.115c0,0.673,0.364,1.093,1.001,1.093c0.617,0,1.086-0.455,1.086-1.135V2.328z"/>
		<path fill="#939598" d="M138.24,5.949V0.837h0.539v5.112H138.24z"/>
		<path fill="#939598" d="M140.046,1.537V0.942h0.617v0.596H140.046z M140.081,5.949V2.328h0.539v3.621H140.081z"/>
		<path fill="#939598" d="M143.47,5.565c0.497,0,0.848-0.203,1.142-0.512l0.336,0.301c-0.364,0.406-0.805,0.68-1.492,0.68
			c-0.995,0-1.807-0.764-1.807-1.891c0-1.051,0.735-1.892,1.737-1.892c1.071,0,1.688,0.854,1.688,1.919c0,0.05,0,0.105-0.007,0.168
			h-2.872C142.272,5.123,142.833,5.565,143.47,5.565z M144.528,3.94c-0.056-0.658-0.434-1.233-1.156-1.233
			c-0.63,0-1.106,0.525-1.177,1.233H144.528z"/>
		<path fill="#939598" d="M146.745,4.92c0,0.441,0.245,0.603,0.609,0.603c0.182,0,0.336-0.035,0.525-0.127v0.463
			c-0.189,0.098-0.392,0.154-0.651,0.154c-0.582,0-1.022-0.288-1.022-1.023V2.805h-0.504V2.328h0.504V1.236h0.539v1.093h1.149v0.477
			h-1.149V4.92z"/>
		<path fill="#939598" d="M154.72,2.273c0,0.645-0.392,0.974-0.777,1.142c0.581,0.175,1.05,0.511,1.05,1.19
			c0,0.848-0.707,1.345-1.779,1.345h-2.178V1.047h2.087C154.09,1.047,154.72,1.523,154.72,2.273z M154.159,2.35
			c0-0.49-0.385-0.806-1.085-0.806h-1.492v1.688h1.45C153.698,3.232,154.159,2.931,154.159,2.35z M154.433,4.57
			c0-0.539-0.448-0.848-1.303-0.848h-1.548v1.73h1.646C153.97,5.452,154.433,5.123,154.433,4.57z"/>
		<path fill="#939598" d="M156.209,3.022l-0.161-0.441c0.399-0.182,0.792-0.301,1.317-0.301c0.987,0,1.541,0.504,1.541,1.457v2.213
			h-0.518V5.404c-0.252,0.329-0.672,0.623-1.31,0.623c-0.672,0-1.352-0.378-1.352-1.135c0-0.771,0.63-1.177,1.548-1.177
			c0.462,0,0.792,0.063,1.114,0.154V3.743c0-0.651-0.399-0.987-1.079-0.987C156.881,2.756,156.545,2.867,156.209,3.022z
			 M156.272,4.871c0,0.462,0.42,0.728,0.911,0.728c0.665,0,1.211-0.406,1.211-0.98v-0.35c-0.266-0.077-0.623-0.154-1.064-0.154
			C156.65,4.115,156.272,4.408,156.272,4.871z"/>
		<path fill="#939598" d="M160.101,5.949V0.837h0.539v5.112H160.101z"/>
		<path fill="#939598" d="M163.525,6.033c-1.058,0-1.856-0.861-1.856-1.884c0-1.029,0.798-1.898,1.856-1.898
			c0.686,0,1.113,0.287,1.449,0.645l-0.357,0.378c-0.287-0.301-0.609-0.546-1.1-0.546c-0.735,0-1.295,0.623-1.295,1.407
			c0,0.792,0.574,1.415,1.331,1.415c0.463,0,0.819-0.23,1.106-0.539l0.343,0.322C164.638,5.74,164.204,6.033,163.525,6.033z"/>
		<path fill="#939598" d="M167.438,6.033c-1.086,0-1.877-0.854-1.877-1.884s0.798-1.898,1.891-1.898
			c1.086,0,1.884,0.854,1.884,1.884C169.336,5.165,168.531,6.033,167.438,6.033z M167.438,2.728c-0.784,0-1.323,0.623-1.323,1.407
			c0,0.785,0.574,1.415,1.337,1.415c0.784,0,1.331-0.623,1.331-1.4C168.783,3.358,168.201,2.728,167.438,2.728z"/>
		<path fill="#939598" d="M170.846,5.949h-0.539V2.328h0.539v0.631c0.238-0.393,0.616-0.708,1.239-0.708
			c0.876,0,1.387,0.589,1.387,1.45v2.248h-0.539V3.834c0-0.672-0.363-1.093-1.002-1.093c-0.623,0-1.085,0.455-1.085,1.135V5.949z"/>
		<path fill="#939598" d="M176.28,6.069c-0.308,0.749-0.658,1.022-1.204,1.022c-0.302,0-0.525-0.063-0.771-0.182l0.183-0.428
			c0.175,0.091,0.337,0.133,0.567,0.133c0.322,0,0.525-0.168,0.742-0.679l-1.646-3.607h0.595l1.317,3.019l1.163-3.019h0.574
			L176.28,6.069z"/>
	</g>
	<g enable-background="new    ">
		<path fill="#939598" d="M109.481,158.953c0,0.828-0.504,1.252-0.999,1.468c0.747,0.225,1.35,0.657,1.35,1.53
			c0,1.089-0.909,1.729-2.287,1.729h-2.8v-6.302h2.683C108.671,157.378,109.481,157.99,109.481,158.953z M108.761,159.053
			c0-0.631-0.495-1.036-1.395-1.036h-1.918v2.17h1.864C108.167,160.187,108.761,159.8,108.761,159.053z M109.113,161.906
			c0-0.693-0.576-1.09-1.675-1.09h-1.99v2.224h2.116C108.518,163.04,109.113,162.617,109.113,161.906z"/>
	</g>
	<g enable-background="new    ">
		<path fill="#939598" d="M111.397,159.917l-0.207-0.567c0.513-0.234,1.017-0.388,1.692-0.388c1.27,0,1.98,0.648,1.98,1.873v2.845
			h-0.666v-0.702c-0.324,0.423-0.864,0.801-1.684,0.801c-0.864,0-1.737-0.485-1.737-1.458c0-0.99,0.81-1.513,1.989-1.513
			c0.594,0,1.018,0.081,1.432,0.198v-0.162c0-0.837-0.513-1.27-1.387-1.27C112.261,159.574,111.829,159.719,111.397,159.917z
			 M111.478,162.293c0,0.595,0.54,0.937,1.17,0.937c0.855,0,1.557-0.522,1.557-1.261v-0.449c-0.342-0.1-0.801-0.198-1.368-0.198
			C111.964,161.322,111.478,161.699,111.478,162.293z"/>
	</g>
	<g enable-background="new    ">
		<path fill="#939598" d="M117.184,162.357c0,0.567,0.315,0.774,0.783,0.774c0.234,0,0.432-0.045,0.675-0.162v0.594
			c-0.243,0.126-0.504,0.198-0.837,0.198c-0.747,0-1.314-0.369-1.314-1.314v-2.809h-0.648v-0.612h0.648v-1.404h0.693v1.404h1.477
			v0.612h-1.477V162.357z"/>
		<path fill="#939598" d="M120.577,163.68h-0.693v-6.572h0.693v2.729c0.306-0.505,0.792-0.91,1.594-0.91
			c1.125,0,1.782,0.757,1.782,1.864v2.89h-0.693v-2.719c0-0.864-0.468-1.404-1.288-1.404c-0.801,0-1.396,0.585-1.396,1.458V163.68z"
			/>
	</g>
	<g enable-background="new    ">
		<path fill="#939598" d="M270.112,126.715v4.902h-0.554v-4.902H270.112z"/>
	</g>
	<g enable-background="new    ">
		<path fill="#939598" d="M272.653,131.688c-0.519,0-1.093-0.203-1.499-0.532l0.273-0.386c0.393,0.294,0.826,0.463,1.254,0.463
			c0.434,0,0.749-0.225,0.749-0.575v-0.014c0-0.364-0.427-0.504-0.903-0.638c-0.567-0.16-1.197-0.356-1.197-1.022v-0.014
			c0-0.623,0.518-1.036,1.232-1.036c0.441,0,0.932,0.153,1.303,0.398l-0.245,0.406c-0.337-0.217-0.722-0.35-1.071-0.35
			c-0.428,0-0.701,0.224-0.701,0.525v0.014c0,0.343,0.449,0.477,0.932,0.623c0.561,0.168,1.163,0.386,1.163,1.037v0.014
			C273.942,131.288,273.375,131.688,272.653,131.688z"/>
	</g>
	<g enable-background="new    ">
		<path fill="#939598" d="M274.892,131.617v-5.112h0.539v5.112H274.892z"/>
		<path fill="#939598" d="M276.894,128.69l-0.161-0.441c0.399-0.182,0.792-0.301,1.317-0.301c0.986,0,1.54,0.504,1.54,1.457v2.213
			h-0.519v-0.546c-0.252,0.329-0.672,0.623-1.31,0.623c-0.672,0-1.352-0.378-1.352-1.135c0-0.771,0.63-1.177,1.548-1.177
			c0.463,0,0.791,0.063,1.113,0.154v-0.126c0-0.651-0.398-0.987-1.078-0.987C277.566,128.424,277.23,128.535,276.894,128.69z
			 M276.957,130.539c0,0.462,0.421,0.728,0.911,0.728c0.665,0,1.212-0.406,1.212-0.98v-0.35c-0.267-0.077-0.623-0.154-1.064-0.154
			C277.336,129.782,276.957,130.076,276.957,130.539z"/>
	</g>
	<g enable-background="new    ">
		<path fill="#939598" d="M281.275,131.617h-0.539v-3.621h0.539v0.631c0.238-0.393,0.617-0.708,1.24-0.708
			c0.875,0,1.387,0.589,1.387,1.45v2.248h-0.539v-2.115c0-0.672-0.364-1.093-1.002-1.093c-0.623,0-1.086,0.455-1.086,1.135V131.617z
			"/>
	</g>
	<g enable-background="new    ">
		<path fill="#939598" d="M287.879,131.617v-0.729c-0.293,0.435-0.721,0.806-1.387,0.806c-0.867,0-1.729-0.687-1.729-1.884
			c0-1.191,0.862-1.892,1.729-1.892c0.673,0,1.107,0.364,1.387,0.771v-2.185h0.54v5.112H287.879z M286.591,128.403
			c-0.7,0-1.274,0.519-1.274,1.4c0,0.862,0.588,1.408,1.274,1.408c0.673,0,1.31-0.561,1.31-1.408
			C287.9,128.963,287.263,128.403,286.591,128.403z"/>
	</g>
	<g enable-background="new    ">
		<path fill="#939598" d="M164.277,201.301h-2.99v1.674h2.676v0.505h-2.676v1.716h3.025v0.504h-3.579v-4.902h3.543V201.301z"/>
	</g>
	<g enable-background="new    ">
		<path fill="#939598" d="M165.872,205.699h-0.539v-3.621h0.539v0.631c0.238-0.393,0.616-0.708,1.239-0.708
			c0.876,0,1.387,0.589,1.387,1.45v2.248h-0.539v-2.115c0-0.672-0.363-1.093-1.002-1.093c-0.623,0-1.085,0.455-1.085,1.135V205.699z
			"/>
	</g>
	<g enable-background="new    ">
		<path fill="#939598" d="M170.324,204.67c0,0.441,0.245,0.603,0.609,0.603c0.182,0,0.336-0.035,0.525-0.127v0.463
			c-0.189,0.098-0.393,0.154-0.651,0.154c-0.581,0-1.022-0.288-1.022-1.023v-2.185h-0.504v-0.477h0.504v-1.093h0.539v1.093h1.148
			v0.477h-1.148V204.67z"/>
		<path fill="#939598" d="M172.963,205.699h-0.539v-3.621h0.539v0.945c0.267-0.602,0.792-1.036,1.479-1.008v0.581h-0.043
			c-0.791,0-1.436,0.567-1.436,1.66V205.699z"/>
		<path fill="#939598" d="M177.023,205.819c-0.308,0.749-0.658,1.022-1.204,1.022c-0.302,0-0.525-0.063-0.771-0.182l0.182-0.428
			c0.176,0.091,0.337,0.133,0.568,0.133c0.322,0,0.525-0.168,0.742-0.679l-1.646-3.607h0.596l1.316,3.019l1.163-3.019h0.574
			L177.023,205.819z"/>
	</g>
	<g enable-background="new    ">
		<path fill="#939598" d="M262.112,169.932h-0.892l-2.422-3.052l-1.341,1.359v1.692h-0.712v-6.302h0.712v3.763l3.619-3.763h0.918
			l-2.7,2.755L262.112,169.932z"/>
		<path fill="#939598" d="M263.118,164.26v-0.765h0.792v0.765H263.118z M263.164,169.932v-4.654h0.692v4.654H263.164z"/>
		<path fill="#939598" d="M266.404,168.609c0,0.567,0.314,0.774,0.783,0.774c0.234,0,0.432-0.045,0.675-0.162v0.594
			c-0.243,0.126-0.504,0.198-0.837,0.198c-0.748,0-1.314-0.369-1.314-1.314v-2.809h-0.648v-0.612h0.648v-1.404h0.693v1.404h1.477
			v0.612h-1.477V168.609z"/>
		<path fill="#939598" d="M271.067,170.04c-1.359,0-2.386-1.107-2.386-2.422c0-1.323,1.026-2.44,2.386-2.44
			c0.882,0,1.431,0.369,1.863,0.829l-0.459,0.485c-0.369-0.387-0.783-0.702-1.413-0.702c-0.945,0-1.666,0.802-1.666,1.81
			c0,1.018,0.738,1.819,1.711,1.819c0.594,0,1.053-0.298,1.422-0.693l0.441,0.414C272.498,169.661,271.94,170.04,271.067,170.04z"/>
		<path fill="#939598" d="M274.801,169.932h-0.692v-6.572h0.692v2.729c0.307-0.505,0.793-0.91,1.594-0.91
			c1.125,0,1.783,0.757,1.783,1.864v2.89h-0.693v-2.719c0-0.864-0.469-1.404-1.287-1.404c-0.802,0-1.396,0.585-1.396,1.458V169.932z
			"/>
		<path fill="#939598" d="M281.705,169.437c0.639,0,1.089-0.261,1.467-0.657l0.433,0.387c-0.468,0.522-1.036,0.874-1.918,0.874
			c-1.278,0-2.322-0.981-2.322-2.431c0-1.351,0.945-2.432,2.232-2.432c1.378,0,2.17,1.099,2.17,2.467c0,0.063,0,0.136-0.009,0.217
			h-3.691C280.166,168.869,280.885,169.437,281.705,169.437z M283.064,167.348c-0.072-0.846-0.559-1.584-1.486-1.584
			c-0.81,0-1.422,0.675-1.512,1.584H283.064z"/>
		<path fill="#939598" d="M285.674,169.932h-0.693v-4.654h0.693v0.811c0.306-0.505,0.792-0.91,1.594-0.91
			c1.125,0,1.781,0.757,1.781,1.864v2.89h-0.692v-2.719c0-0.864-0.468-1.404-1.288-1.404c-0.801,0-1.395,0.585-1.395,1.458V169.932z
			"/>
	</g>
	<g enable-background="new    ">
		<path fill="#939598" d="M212.439,149.072v-0.455l4.098-1.345l-4.083-1.4v-0.582l4.938,1.752v0.469l-3.979,1.345l3.979,1.352v0.462
			l-4.938,1.752v-0.604l4.083-1.4L212.439,149.072z"/>
		<path fill="#939598" d="M211.767,142.086l6.485,3.25v0.497l-6.485-3.249V142.086z"/>
		<path fill="#939598" d="M217.356,139.735v1.702h-4.902v-1.702c0-1.541,1.058-2.605,2.444-2.605S217.356,138.194,217.356,139.735z
			 M212.965,139.735v1.148h3.88v-1.148c0-1.239-0.84-2.031-1.933-2.031S212.965,138.495,212.965,139.735z"/>
	</g>
	<g enable-background="new    ">
		<path fill="#939598" d="M205.584,192.675c0,1.415-1.113,2.458-2.528,2.458c-1.4,0-2.542-1.036-2.542-2.479
			c0-0.891,0.314-1.422,0.777-1.912l0.406,0.378c-0.393,0.413-0.673,0.876-0.673,1.54c0,1.086,0.876,1.898,2.018,1.898
			s2.031-0.819,2.031-1.898c0-0.672-0.26-1.113-0.708-1.582l0.357-0.364C205.241,191.225,205.584,191.785,205.584,192.675z"/>
		<path fill="#939598" d="M205.5,189.792h-5.112v-0.539h5.112V189.792z"/>
		<path fill="#939598" d="M205.584,186.348c0,1.086-0.854,1.877-1.884,1.877s-1.898-0.799-1.898-1.891
			c0-1.086,0.854-1.885,1.884-1.885C204.716,184.449,205.584,185.255,205.584,186.348z M202.278,186.348
			c0,0.784,0.623,1.323,1.407,1.323c0.785,0,1.415-0.574,1.415-1.337c0-0.785-0.623-1.332-1.4-1.332
			C202.908,185.002,202.278,185.584,202.278,186.348z"/>
		<path fill="#939598" d="M205.57,182.281c0,0.518-0.203,1.092-0.532,1.498l-0.386-0.273c0.294-0.392,0.463-0.826,0.463-1.254
			c0-0.434-0.225-0.749-0.575-0.749h-0.014c-0.364,0-0.504,0.427-0.638,0.903c-0.16,0.568-0.356,1.198-1.022,1.198h-0.014
			c-0.623,0-1.036-0.519-1.036-1.233c0-0.441,0.153-0.932,0.398-1.303l0.406,0.246c-0.217,0.336-0.35,0.721-0.35,1.071
			c0,0.427,0.224,0.7,0.525,0.7h0.014c0.343,0,0.477-0.448,0.623-0.932c0.168-0.561,0.386-1.162,1.037-1.162h0.014
			C205.171,180.992,205.57,181.559,205.57,182.281z"/>
		<path fill="#939598" d="M205.115,178.396c0-0.497-0.203-0.848-0.512-1.142l0.301-0.336c0.406,0.363,0.68,0.805,0.68,1.492
			c0,0.994-0.764,1.807-1.891,1.807c-1.051,0-1.892-0.736-1.892-1.737c0-1.071,0.854-1.688,1.919-1.688c0.05,0,0.105,0,0.168,0.008
			v2.871C204.674,179.594,205.115,179.033,205.115,178.396z M203.49,177.338c-0.658,0.057-1.233,0.434-1.233,1.156
			c0,0.63,0.525,1.105,1.233,1.176V177.338z"/>
		<path fill="#939598" d="M204.47,175.12c0.441,0,0.603-0.245,0.603-0.609c0-0.183-0.035-0.337-0.127-0.525h0.463
			c0.098,0.188,0.154,0.392,0.154,0.651c0,0.581-0.288,1.022-1.023,1.022h-2.185v0.505h-0.477v-0.505h-1.093v-0.539h1.093v-1.149
			h0.477v1.149H204.47z"/>
	</g>
	<g enable-background="new    ">
		<path fill="#939598" d="M29.523,170.699c-1.415,0-2.458-1.113-2.458-2.528c0-1.4,1.037-2.542,2.479-2.542
			c0.89,0,1.422,0.314,1.912,0.777l-0.378,0.406c-0.413-0.393-0.875-0.673-1.541-0.673c-1.086,0-1.898,0.876-1.898,2.018
			s0.819,2.031,1.898,2.031c0.672,0,1.113-0.26,1.583-0.708l0.364,0.357C30.973,170.357,30.413,170.699,29.523,170.699z"/>
		<path fill="#939598" d="M32.406,170.615v-5.112h0.539v5.112H32.406z"/>
		<path fill="#939598" d="M35.851,170.699c-1.086,0-1.877-0.854-1.877-1.884s0.798-1.898,1.891-1.898
			c1.086,0,1.884,0.854,1.884,1.884C37.749,169.831,36.943,170.699,35.851,170.699z M35.851,167.394
			c-0.785,0-1.324,0.623-1.324,1.407c0,0.785,0.574,1.415,1.337,1.415c0.785,0,1.331-0.623,1.331-1.4
			C37.196,168.024,36.614,167.394,35.851,167.394z"/>
		<path fill="#939598" d="M39.917,170.686c-0.518,0-1.092-0.203-1.499-0.532l0.273-0.386c0.392,0.294,0.827,0.463,1.254,0.463
			c0.434,0,0.75-0.225,0.75-0.575v-0.014c0-0.364-0.427-0.504-0.904-0.638c-0.567-0.16-1.198-0.356-1.198-1.022v-0.014
			c0-0.623,0.519-1.036,1.233-1.036c0.441,0,0.932,0.153,1.303,0.398l-0.245,0.406c-0.336-0.217-0.722-0.35-1.072-0.35
			c-0.427,0-0.7,0.224-0.7,0.525v0.014c0,0.343,0.448,0.477,0.932,0.623c0.56,0.168,1.163,0.386,1.163,1.037v0.014
			C41.206,170.286,40.639,170.686,39.917,170.686z"/>
		<path fill="#939598" d="M43.802,170.231c0.497,0,0.848-0.203,1.142-0.512l0.336,0.301c-0.364,0.406-0.805,0.68-1.492,0.68
			c-0.995,0-1.807-0.764-1.807-1.891c0-1.051,0.735-1.892,1.737-1.892c1.071,0,1.688,0.854,1.688,1.919c0,0.05,0,0.105-0.007,0.168
			h-2.872C42.605,169.789,43.165,170.231,43.802,170.231z M44.86,168.606c-0.056-0.658-0.434-1.233-1.156-1.233
			c-0.63,0-1.106,0.525-1.177,1.233H44.86z"/>
		<path fill="#939598" d="M47.078,169.586c0,0.441,0.245,0.603,0.609,0.603c0.182,0,0.336-0.035,0.525-0.127v0.463
			c-0.189,0.098-0.392,0.154-0.651,0.154c-0.581,0-1.022-0.288-1.022-1.023v-2.185h-0.504v-0.477h0.504v-1.093h0.539v1.093h1.149
			v0.477h-1.149V169.586z"/>
	</g>
	<g enable-background="new    ">
		<path fill="#939598" d="M305.43,190.033l-1.422-1.905h-1.401v1.905h-0.553v-4.902h2.108c1.078,0,1.771,0.581,1.771,1.464
			c0,0.819-0.56,1.295-1.331,1.436l1.506,2.003H305.43z M304.121,185.642h-1.514v1.989h1.506c0.736,0,1.262-0.378,1.262-1.016
			C305.375,186.006,304.912,185.642,304.121,185.642z"/>
		<path fill="#939598" d="M308.551,189.649c0.498,0,0.848-0.203,1.143-0.512l0.336,0.301c-0.364,0.406-0.806,0.68-1.492,0.68
			c-0.994,0-1.807-0.764-1.807-1.891c0-1.051,0.735-1.892,1.736-1.892c1.072,0,1.688,0.854,1.688,1.919c0,0.05,0,0.105-0.007,0.168
			h-2.872C307.353,189.207,307.914,189.649,308.551,189.649z M309.609,188.024c-0.057-0.658-0.435-1.233-1.156-1.233
			c-0.631,0-1.106,0.525-1.177,1.233H309.609z"/>
		<path fill="#939598" d="M312.982,186.426v0.463h-1.142v3.145h-0.539v-3.145h-0.497v-0.47h0.497v-0.314
			c0-0.792,0.399-1.212,1.093-1.212c0.252,0,0.42,0.028,0.595,0.091v0.47c-0.196-0.057-0.343-0.092-0.524-0.092
			c-0.421,0-0.631,0.253-0.631,0.771v0.294H312.982z"/>
	</g>
	<g enable-background="new    ">
		<path fill="#939598" d="M260.449,145.365h-1.702v-4.902h1.702c1.541,0,2.605,1.058,2.605,2.444S261.99,145.365,260.449,145.365z
			 M260.449,140.974h-1.148v3.88h1.148c1.239,0,2.031-0.84,2.031-1.933S261.688,140.974,260.449,140.974z"/>
		<path fill="#939598" d="M266.939,140.448h0.455l1.345,4.098l1.401-4.083h0.58l-1.75,4.938h-0.47l-1.345-3.979l-1.352,3.979h-0.463
			l-1.75-4.938h0.602l1.401,4.083L266.939,140.448z"/>
	</g>
	<g enable-background="new    ">
		<path fill="#939598" d="M175.519,66.398h0.711v5.645h3.547v0.657h-4.258V66.398z"/>
		<path fill="#939598" d="M180.991,67.028v-0.765h0.792v0.765H180.991z M181.036,72.699v-4.654h0.692v4.654H181.036z"/>
		<path fill="#939598" d="M186.788,68.045h0.747l-2.025,4.69h-0.612l-2.017-4.69h0.766l1.566,3.862L186.788,68.045z"/>
		<path fill="#939598" d="M188.64,67.028v-0.765h0.793v0.765H188.64z M188.685,72.699v-4.654h0.693v4.654H188.685z"/>
		<path fill="#939598" d="M191.682,72.699h-0.692v-4.654h0.692v0.811c0.306-0.505,0.792-0.91,1.594-0.91
			c1.125,0,1.782,0.757,1.782,1.864v2.89h-0.693v-2.719c0-0.864-0.468-1.404-1.287-1.404c-0.801,0-1.396,0.585-1.396,1.458V72.699z"
			/>
		<path fill="#939598" d="M198.595,74.157c-0.775,0-1.495-0.216-2.116-0.647l0.315-0.54c0.531,0.387,1.125,0.594,1.791,0.594
			c1.026,0,1.693-0.567,1.693-1.656v-0.55c-0.406,0.541-0.973,0.981-1.828,0.981c-1.116,0-2.188-0.828-2.188-2.188
			c0-1.368,1.08-2.206,2.188-2.206c0.873,0,1.44,0.433,1.818,0.937v-0.837h0.693v3.844
			C200.963,73.393,200.026,74.157,198.595,74.157z M198.586,68.558c-0.882,0-1.611,0.604-1.611,1.576
			c0,0.954,0.747,1.593,1.611,1.593c0.883,0,1.711-0.63,1.711-1.584C200.297,69.179,199.469,68.558,198.586,68.558z"/>
		<path fill="#939598" d="M206.363,65.515l-4.178,8.337h-0.639l4.177-8.337H206.363z"/>
		<path fill="#939598" d="M209.386,72.699h-2.188v-6.302h2.188c1.98,0,3.348,1.359,3.348,3.142
			C212.734,71.323,211.367,72.699,209.386,72.699z M209.386,67.055h-1.477v4.987h1.477c1.593,0,2.61-1.08,2.61-2.484
			S210.979,67.055,209.386,67.055z"/>
		<path fill="#939598" d="M214.137,67.028v-0.765h0.792v0.765H214.137z M214.182,72.699v-4.654h0.692v4.654H214.182z"/>
		<path fill="#939598" d="M217.179,72.699h-0.693v-4.654h0.693v0.811c0.306-0.505,0.792-0.91,1.594-0.91
			c1.125,0,1.781,0.757,1.781,1.864v2.89h-0.692v-2.719c0-0.864-0.468-1.404-1.288-1.404c-0.801,0-1.395,0.585-1.395,1.458V72.699z"
			/>
		<path fill="#939598" d="M222.048,67.028v-0.765h0.792v0.765H222.048z M222.094,72.699v-4.654h0.692v4.654H222.094z"/>
		<path fill="#939598" d="M225.09,72.699h-0.692v-4.654h0.692v0.811c0.307-0.505,0.793-0.91,1.594-0.91
			c1.125,0,1.783,0.757,1.783,1.864v2.89h-0.693v-2.719c0-0.864-0.469-1.404-1.287-1.404c-0.802,0-1.396,0.585-1.396,1.458V72.699z"
			/>
		<path fill="#939598" d="M232.003,74.157c-0.774,0-1.495-0.216-2.116-0.647l0.315-0.54c0.531,0.387,1.126,0.594,1.792,0.594
			c1.025,0,1.692-0.567,1.692-1.656v-0.55c-0.405,0.541-0.973,0.981-1.827,0.981c-1.117,0-2.188-0.828-2.188-2.188
			c0-1.368,1.081-2.206,2.188-2.206c0.873,0,1.439,0.433,1.818,0.937v-0.837h0.693v3.844
			C234.371,73.393,233.433,74.157,232.003,74.157z M231.994,68.558c-0.883,0-1.611,0.604-1.611,1.576
			c0,0.954,0.746,1.593,1.611,1.593c0.882,0,1.71-0.63,1.71-1.584C233.704,69.179,232.876,68.558,231.994,68.558z"/>
		<path fill="#939598" d="M243.073,72.699l-1.827-2.449h-1.801v2.449h-0.711v-6.302h2.709c1.387,0,2.278,0.747,2.278,1.882
			c0,1.053-0.72,1.665-1.71,1.845l1.936,2.575H243.073z M241.389,67.055h-1.944v2.557h1.936c0.945,0,1.621-0.486,1.621-1.306
			C243.002,67.523,242.407,67.055,241.389,67.055z"/>
		<path fill="#939598" d="M247.158,72.808c-1.395,0-2.412-1.099-2.412-2.422s1.026-2.44,2.431-2.44c1.396,0,2.421,1.099,2.421,2.422
			C249.597,71.692,248.562,72.808,247.158,72.808z M247.158,68.558c-1.008,0-1.701,0.802-1.701,1.81c0,1.009,0.738,1.819,1.72,1.819
			c1.009,0,1.71-0.802,1.71-1.801C248.886,69.368,248.14,68.558,247.158,68.558z"/>
		<path fill="#939598" d="M252.972,72.808c-1.396,0-2.412-1.099-2.412-2.422s1.025-2.44,2.43-2.44c1.396,0,2.422,1.099,2.422,2.422
			C255.412,71.692,254.377,72.808,252.972,72.808z M252.972,68.558c-1.008,0-1.701,0.802-1.701,1.81
			c0,1.009,0.738,1.819,1.719,1.819c1.009,0,1.711-0.802,1.711-1.801C254.701,69.368,253.954,68.558,252.972,68.558z"/>
		<path fill="#939598" d="M261.992,67.946c1.07,0,1.729,0.721,1.729,1.873v2.881h-0.693v-2.719c0-0.9-0.451-1.404-1.207-1.404
			c-0.702,0-1.287,0.521-1.287,1.44v2.683h-0.685v-2.736c0-0.874-0.459-1.387-1.197-1.387s-1.296,0.612-1.296,1.467v2.656h-0.693
			v-4.654h0.693v0.783c0.306-0.459,0.72-0.883,1.503-0.883c0.757,0,1.243,0.405,1.495,0.928
			C260.685,68.361,261.181,67.946,261.992,67.946z"/>
	</g>
	<g enable-background="new    ">
		<path fill="#939598" d="M194.999,79.027l-0.522-0.378c0.567-0.846,1.162-1.341,2.27-1.341c1.143,0,1.953,0.756,1.953,1.791
			c0,0.928-0.486,1.495-1.594,2.458l-1.684,1.494h3.34v0.648h-4.402v-0.549l2.287-2.017c0.963-0.864,1.314-1.351,1.314-1.98
			c0-0.738-0.585-1.207-1.27-1.207C195.97,77.947,195.504,78.324,194.999,79.027z"/>
		<path fill="#939598" d="M200.39,79.027l-0.522-0.378c0.567-0.846,1.161-1.341,2.269-1.341c1.144,0,1.953,0.756,1.953,1.791
			c0,0.928-0.486,1.495-1.594,2.458l-1.683,1.494h3.34v0.648h-4.402v-0.549l2.286-2.017c0.964-0.864,1.314-1.351,1.314-1.98
			c0-0.738-0.584-1.207-1.27-1.207C201.362,77.947,200.894,78.324,200.39,79.027z"/>
		<path fill="#939598" d="M205.565,77.398h0.847v0.045l-0.73,2.403h-0.387L205.565,77.398z"/>
		<path fill="#939598" d="M209.75,83.789c-1.341,0-2.367-0.729-2.367-1.791c0-0.757,0.54-1.288,1.297-1.558
			c-0.586-0.271-1.081-0.721-1.081-1.459c0-0.98,0.999-1.674,2.151-1.674s2.152,0.693,2.152,1.674c0,0.738-0.496,1.188-1.08,1.459
			c0.746,0.279,1.296,0.792,1.296,1.548C212.118,83.07,211.092,83.789,209.75,83.789z M209.75,80.774
			c-0.918,0-1.646,0.495-1.646,1.206c0,0.648,0.611,1.188,1.646,1.188s1.648-0.54,1.648-1.188
			C211.398,81.269,210.668,80.774,209.75,80.774z M209.75,77.929c-0.818,0-1.439,0.459-1.439,1.098c0,0.693,0.639,1.162,1.439,1.162
			c0.802,0,1.441-0.469,1.441-1.162C211.191,78.397,210.57,77.929,209.75,77.929z"/>
		<path fill="#939598" d="M213.439,77.398h0.838v0.045l-0.729,2.403h-0.378L213.439,77.398z M215.204,77.398h0.829v0.045
			l-0.73,2.403h-0.377L215.204,77.398z"/>
		<path fill="#939598" d="M224.06,83.699h-0.801l-1.441-1.899l-1.449,1.899h-0.773l1.827-2.368l-1.755-2.286h0.791l1.378,1.801
			l1.378-1.801h0.773l-1.764,2.269L224.06,83.699z"/>
		<path fill="#939598" d="M228.902,77.353h0.521v6.347h-0.702v-5.608l-1.188,0.369l-0.171-0.576L228.902,77.353z"/>
		<path fill="#939598" d="M232.123,77.353h0.522v6.347h-0.702v-5.608l-1.188,0.369l-0.172-0.576L232.123,77.353z"/>
		<path fill="#939598" d="M234.409,77.398h0.847v0.045l-0.73,2.403h-0.387L234.409,77.398z"/>
		<path fill="#939598" d="M236.542,78.036v-0.639h4.024v0.522l-1.98,2.196c1.107,0.09,2.079,0.621,2.079,1.782
			c0,1.135-0.937,1.909-2.106,1.909c-1.053,0-1.836-0.46-2.35-1.126l0.514-0.459c0.485,0.595,1.07,0.937,1.845,0.937
			c0.766,0,1.378-0.486,1.378-1.233c0-0.792-0.721-1.225-1.765-1.225h-0.405l-0.145-0.423l1.99-2.242H236.542z"/>
		<path fill="#939598" d="M242.131,77.398h0.838v0.045l-0.729,2.403h-0.378L242.131,77.398z M243.895,77.398h0.829v0.045
			l-0.73,2.403h-0.377L243.895,77.398z"/>
	</g>
	<g enable-background="new    ">
		<path fill="#939598" d="M44.224,67.305c0,0.828-0.504,1.252-0.999,1.468c0.747,0.225,1.35,0.657,1.35,1.53
			c0,1.089-0.909,1.729-2.287,1.729h-2.8V65.73h2.683C43.414,65.73,44.224,66.342,44.224,67.305z M43.504,67.405
			c0-0.631-0.495-1.036-1.395-1.036h-1.918v2.17h1.864C42.91,68.538,43.504,68.152,43.504,67.405z M43.856,70.258
			c0-0.693-0.576-1.09-1.675-1.09h-1.99v2.224h2.116C43.261,71.392,43.856,70.969,43.856,70.258z"/>
		<path fill="#939598" d="M47.923,71.536c0.639,0,1.089-0.261,1.468-0.657l0.432,0.387c-0.468,0.522-1.036,0.874-1.918,0.874
			c-1.278,0-2.322-0.981-2.322-2.431c0-1.351,0.945-2.432,2.232-2.432c1.377,0,2.17,1.099,2.17,2.467c0,0.063,0,0.136-0.009,0.217
			h-3.691C46.384,70.969,47.104,71.536,47.923,71.536z M49.282,69.448c-0.072-0.846-0.558-1.584-1.485-1.584
			c-0.81,0-1.422,0.675-1.512,1.584H49.282z"/>
		<path fill="#939598" d="M54.934,72.031v-0.937c-0.378,0.559-0.927,1.035-1.782,1.035c-1.117,0-2.224-0.882-2.224-2.421
			c0-1.531,1.107-2.432,2.224-2.432c0.864,0,1.422,0.469,1.782,0.991v-2.81h0.693v6.572H54.934z M53.278,67.9
			c-0.9,0-1.639,0.666-1.639,1.8c0,1.107,0.756,1.81,1.639,1.81c0.864,0,1.684-0.72,1.684-1.81
			C54.961,68.619,54.142,67.9,53.278,67.9z"/>
		<path fill="#939598" d="M57.867,72.031h-0.693v-4.654h0.693v1.215c0.342-0.773,1.018-1.332,1.9-1.296v0.747h-0.054
			c-1.017,0-1.846,0.729-1.846,2.134V72.031z"/>
		<path fill="#939598" d="M62.746,72.14c-1.396,0-2.413-1.099-2.413-2.422s1.026-2.44,2.431-2.44c1.396,0,2.421,1.099,2.421,2.422
			C65.185,71.024,64.15,72.14,62.746,72.14z M62.746,67.89c-1.008,0-1.702,0.802-1.702,1.81c0,1.009,0.738,1.819,1.72,1.819
			c1.008,0,1.71-0.802,1.71-1.801C64.474,68.7,63.727,67.89,62.746,67.89z"/>
		<path fill="#939598" d="M68.56,72.14c-1.396,0-2.413-1.099-2.413-2.422s1.026-2.44,2.431-2.44c1.396,0,2.421,1.099,2.421,2.422
			C70.999,71.024,69.964,72.14,68.56,72.14z M68.56,67.89c-1.008,0-1.702,0.802-1.702,1.81c0,1.009,0.738,1.819,1.72,1.819
			c1.008,0,1.71-0.802,1.71-1.801C70.288,68.7,69.541,67.89,68.56,67.89z"/>
		<path fill="#939598" d="M77.579,67.278c1.071,0,1.729,0.721,1.729,1.873v2.881h-0.693v-2.719c0-0.9-0.45-1.404-1.207-1.404
			c-0.702,0-1.287,0.521-1.287,1.44v2.683h-0.685v-2.736c0-0.874-0.459-1.387-1.197-1.387s-1.296,0.612-1.296,1.467v2.656h-0.693
			v-4.654h0.693v0.783c0.306-0.459,0.72-0.883,1.503-0.883c0.756,0,1.243,0.405,1.495,0.928
			C76.273,67.693,76.768,67.278,77.579,67.278z"/>
	</g>
	<g enable-background="new    ">
		<path fill="#939598" d="M36.254,76.685h0.522v6.347h-0.702v-5.608l-1.188,0.369l-0.171-0.576L36.254,76.685z"/>
		<path fill="#939598" d="M38.756,78.359l-0.522-0.378c0.567-0.846,1.161-1.341,2.269-1.341c1.143,0,1.954,0.756,1.954,1.791
			c0,0.928-0.486,1.495-1.594,2.458l-1.683,1.494h3.34v0.648h-4.402v-0.549l2.287-2.017c0.963-0.864,1.314-1.351,1.314-1.98
			c0-0.738-0.585-1.207-1.27-1.207C39.728,77.279,39.26,77.656,38.756,78.359z"/>
		<path fill="#939598" d="M43.931,76.73h0.846v0.045l-0.729,2.403H43.66L43.931,76.73z"/>
		<path fill="#939598" d="M48.494,83.14c-1.629,0-2.656-1.477-2.656-3.25s1.044-3.269,2.674-3.269c1.621,0,2.647,1.477,2.647,3.25
			S50.115,83.14,48.494,83.14z M48.494,77.27c-1.179,0-1.917,1.206-1.917,2.602s0.756,2.62,1.936,2.62s1.909-1.216,1.909-2.602
			C50.421,78.503,49.674,77.27,48.494,77.27z"/>
		<path fill="#939598" d="M52.571,76.73h0.837v0.045l-0.729,2.403h-0.378L52.571,76.73z M54.335,76.73h0.829v0.045l-0.729,2.403
			h-0.378L54.335,76.73z"/>
		<path fill="#939598" d="M63.192,83.031H62.39l-1.44-1.899l-1.449,1.899h-0.774l1.828-2.368l-1.755-2.286h0.792l1.377,1.801
			l1.377-1.801h0.774l-1.765,2.269L63.192,83.031z"/>
		<path fill="#939598" d="M68.032,76.685h0.522v6.347h-0.702v-5.608l-1.188,0.369l-0.171-0.576L68.032,76.685z"/>
		<path fill="#939598" d="M71.254,76.685h0.522v6.347h-0.702v-5.608l-1.188,0.369l-0.171-0.576L71.254,76.685z"/>
		<path fill="#939598" d="M73.54,76.73h0.846v0.045l-0.729,2.403H73.27L73.54,76.73z"/>
		<path fill="#939598" d="M75.673,77.368V76.73h4.024v0.522l-1.981,2.196c1.107,0.09,2.08,0.621,2.08,1.782
			c0,1.135-0.936,1.909-2.106,1.909c-1.053,0-1.836-0.46-2.35-1.126l0.513-0.459c0.486,0.595,1.071,0.937,1.846,0.937
			c0.765,0,1.377-0.486,1.377-1.233c0-0.792-0.72-1.225-1.764-1.225h-0.405l-0.144-0.423l1.99-2.242H75.673z"/>
		<path fill="#939598" d="M81.262,76.73h0.837v0.045l-0.729,2.403h-0.378L81.262,76.73z M83.026,76.73h0.829v0.045l-0.729,2.403
			h-0.378L83.026,76.73z"/>
	</g>
	<g enable-background="new    ">
		<path fill="#939598" d="M235.735,198.205v1.191h1.729v0.553h-4.902v-1.835c0-1.106,0.588-1.835,1.562-1.835
			C235.188,196.28,235.735,197.162,235.735,198.205z M233.073,198.156v1.24h2.157v-1.213c0-0.812-0.434-1.344-1.085-1.344
			C233.437,196.84,233.073,197.365,233.073,198.156z"/>
		<path fill="#939598" d="M234.537,195.225l-0.441,0.16c-0.182-0.398-0.301-0.791-0.301-1.316c0-0.987,0.504-1.541,1.457-1.541
			h2.213v0.519h-0.546c0.329,0.253,0.623,0.673,0.623,1.31c0,0.673-0.378,1.352-1.135,1.352c-0.771,0-1.177-0.63-1.177-1.547
			c0-0.463,0.063-0.792,0.154-1.114h-0.126c-0.651,0-0.987,0.399-0.987,1.079C234.271,194.552,234.383,194.889,234.537,195.225z
			 M236.386,195.161c0.462,0,0.728-0.421,0.728-0.911c0-0.664-0.406-1.211-0.98-1.211h-0.35c-0.077,0.266-0.154,0.623-0.154,1.064
			C235.63,194.783,235.924,195.161,236.386,195.161z"/>
		<path fill="#939598" d="M237.465,190.842v0.539h-3.621v-0.539h0.631c-0.393-0.238-0.708-0.615-0.708-1.239
			c0-0.876,0.589-1.387,1.45-1.387h2.248v0.54h-2.115c-0.672,0-1.093,0.363-1.093,1.001c0,0.623,0.455,1.085,1.135,1.085H237.465z"
			/>
	</g>
	<g enable-background="new    ">
		<path fill="#939598" d="M236.435,186.901c0.441,0,0.603-0.246,0.603-0.609c0-0.183-0.035-0.337-0.127-0.525h0.463
			c0.098,0.188,0.154,0.392,0.154,0.65c0,0.582-0.288,1.023-1.023,1.023h-2.185v0.504h-0.477v-0.504h-1.093v-0.539h1.093v-1.149
			h0.477v1.149H236.435z"/>
	</g>
	<g enable-background="new    ">
		<path fill="#939598" d="M237.465,184.255v0.539h-3.621v-0.539h0.945c-0.602-0.267-1.036-0.792-1.008-1.478h0.581v0.042
			c0,0.791,0.567,1.436,1.66,1.436H237.465z"/>
	</g>
	<g enable-background="new    ">
		<path fill="#939598" d="M237.584,180.04c0.749,0.308,1.022,0.658,1.022,1.204c0,0.302-0.063,0.525-0.182,0.771l-0.428-0.183
			c0.091-0.175,0.133-0.337,0.133-0.567c0-0.322-0.168-0.525-0.679-0.742l-3.607,1.646v-0.595l3.019-1.317l-3.019-1.163v-0.574
			L237.584,180.04z"/>
	</g>
</g>
</svg>
