<svg xmlns="http://www.w3.org/2000/svg" width="243.523" height="190.264" viewBox="0 0 243.523 190.264"><path fill="none" d="M2.634 1.848v185.59H242.3v-81.665h-26.665V2.44z"/><g fill="#D1D3D4"><path d="M103.695 163.94h15.854v23h-15.855zM2.5 2.52h40.752v4.748H2.5zM117.188 2.44h18.362v4.75h-18.362zM209.45 2.69h6.85v4.75h-6.85z"/></g><path fill="#FFF" stroke="#939598" d="M102.634 138.44H120.3v24.333h-17.666z"/><g fill="none" stroke="#939598"><path d="M24.165 118.427l.01 1.586 22.626.015-.007-1.588zM46.81 119.156c-.423 12.458-10.663 22.214-23.12 21.788"/></g><g fill="none" stroke="#939598"><path d="M11.648 187.827l1.67.013.016-23.82-1.714-.01zM12.352 163.99c13.113.445 23.383 11.29 22.936 24.402"/></g><g fill="none" stroke="#939598"><path d="M55.165 117.677l.01 1.586 22.626.015-.007-1.588zM77.81 118.406c-.423 12.458-10.663 22.214-23.12 21.788"/></g><g fill="none" stroke="#939598"><path d="M213.148 142.94h1.25v37.5h-1.25z"/><path d="M214.383 110.69h1.25v41h-1.25z"/></g><path fill="none" stroke="#939598" d="M240.55 138.44H228.3v48M14.55 111.94v36.25M208.55 8.512H42.8"/><path fill="none" stroke="#939598" stroke-dasharray="1.5,1.5,1.5,1.5,1.5,1.5" d="M12.285 112.69v34M230.66 138.44v49"/><path fill="none" stroke="#333" stroke-dasharray="1.5,1.5,1.5,1.5,1.5,1.5" d="M12.968 86.44v25.333"/><path fill="#FFF" stroke="#A7A9AC" d="M53.483 32.403h27.625v48H53.483z"/><path fill="#FFF" stroke="#939598" d="M70.17 58.427a.77.77 0 0 1-.77.77H55.954a.77.77 0 0 1-.77-.77V35.622a.77.77 0 0 1 .77-.77H69.4a.77.77 0 0 1 .77.77v22.805z"/><circle fill="#FFF" stroke="#939598" cx="62.348" cy="47.106" r=".871"/><path fill="#FFF" stroke="#939598" d="M67.814 43.3h1.82v7.61h-1.82z"/><path fill="#FFF" stroke="#939598" d="M64.276 46.717h3.586v.777h-3.586z"/><circle fill="#FFF" stroke="#939598" cx="68.707" cy="47.106" r=".847"/><path fill="none" stroke="#939598" d="M67.186 47.576v9.588a.812.812 0 0 1-.81.812h-9.222a.81.81 0 0 1-.81-.812v-20.28a.81.81 0 0 1 .81-.81h9.22c.448 0 .812.363.812.81v9.728"/><g stroke="#939598"><path fill="none" stroke-dasharray="1.5,1,1.5,1,1.5,1" d="M52.987 61.23h16.976v16.65H53.368"/><path fill="#FFF" d="M53.368 77.904H52.36V61.23h.62"/></g><path fill="#FFF" stroke="#939598" d="M3.673 8.135h20.833v103.168H3.673z"/><path fill="#FFF" stroke="#939598" d="M5.86 32.42h19.75v23.25H5.86z"/><circle fill="#FFF" stroke="#939598" cx="21.236" cy="49.36" r="2.824"/><circle fill="#FFF" stroke="#939598" stroke-width=".8" cx="21.235" cy="49.388" r="1.989"/><circle fill="#FFF" stroke="#939598" cx="12.986" cy="38.072" r="2.824"/><circle fill="#FFF" stroke="#939598" stroke-width=".8" cx="12.985" cy="38.044" r="1.989"/><circle fill="#FFF" stroke="#939598" cx="13.014" cy="49.397" r="3.219"/><circle fill="#FFF" stroke="#939598" stroke-width=".8" cx="13.014" cy="49.366" r="2.268"/><g><circle fill="#FFF" stroke="#939598" cx="21.453" cy="38.085" r="3.219"/><circle fill="#FFF" stroke="#939598" stroke-width=".8" cx="21.453" cy="38.053" r="2.268"/></g><path fill="none" stroke="#939598" d="M8.594 55.7V32.42M7.502 55.67V32.42"/><g><path fill="#FFF" stroke="#939598" d="M5.647 83.617h21.97v24.9H5.646z"/><path fill="none" stroke="#939598" d="M26.08 83.558v24.96"/><path fill="#FFF" stroke="#939598" d="M27.632 104.423h1.07v2.02h-1.07z"/></g><g><path fill="#FFF" stroke="#939598" d="M25.685 80.59v1.835H3.852V66.76h21.833v3.33"/><path fill="none" stroke="#939598" stroke-width=".7" d="M34.57 75.25l-.688 1.253-8.593-5.21.686-1.25z"/><path fill="none" stroke="#939598" stroke-width=".8" d="M34.155 75.73a9.992 9.992 0 0 1-8.888 4.81"/></g><path fill="none" stroke="#A7A9AC" stroke-dasharray="1.5,1.5,1.5,1.5,1.5,1.5" d="M15.62 98.605v9.82"/><path fill="none" stroke="#939598" stroke-dasharray="1.5,1.5,1.5,1.5,1.5,1.5" d="M15.62 78.08v14.71"/><path fill="none" stroke="#A7A9AC" stroke-dasharray="1.5,1.5,1.5,1.5,1.5,1.5" d="M15.62 7.94v64.166"/><g fill="#FFF" stroke="#939598"><path stroke-miterlimit="10" d="M106.825 120.05c-4.462 0-9.376 2.713-9.376 6.055s4.913 6.04 9.375 6.04c4.463 0 6.785-2.698 6.785-6.04s-2.322-6.054-6.785-6.054"/><path d="M106.825 120.05c-4.462 0-9.376 2.713-9.376 6.055s4.913 6.04 9.375 6.04c4.463 0 6.785-2.698 6.785-6.04s-2.322-6.054-6.785-6.054z"/><path stroke-miterlimit="10" d="M112.147 129.727a.457.457 0 0 0-.455.455v2.106c0 .25.205.455.455.455h.077c.25 0 .455-.205.455-.455v-2.106a.457.457 0 0 0-.456-.455h-.077z"/><path d="M112.147 129.727a.457.457 0 0 0-.455.455v2.106c0 .25.205.455.455.455h.077c.25 0 .455-.205.455-.455v-2.106a.457.457 0 0 0-.456-.455h-.077z"/><path stroke-miterlimit="10" d="M112.69 133.064c0 .758 2.058 1.375 2.816 1.375.77 0 2.825-.618 2.825-1.376V119.25c0-.76-2.056-1.375-2.824-1.375-.76 0-2.813.615-2.813 1.375l-.002 13.814z"/><path d="M112.69 133.064c0 .758 2.058 1.375 2.816 1.375.77 0 2.825-.618 2.825-1.376V119.25c0-.76-2.056-1.375-2.824-1.375-.76 0-2.813.615-2.813 1.375l-.002 13.814z"/><path stroke-miterlimit="10" d="M106.64 121.654c-3.28 0-6.895 1.992-6.895 4.45s3.613 4.445 6.894 4.445c3.278 0 4.983-1.99 4.983-4.447s-1.705-4.45-4.984-4.45"/><path d="M106.64 121.654c-3.28 0-6.895 1.992-6.895 4.45s3.613 4.445 6.894 4.445c3.278 0 4.983-1.99 4.983-4.447s-1.705-4.45-4.984-4.45z"/></g><g><path fill="#FFF" stroke="#939598" d="M57.27 161.753h45.692v23.625H57.27z"/><circle fill="#FFF" stroke="#939598" cx="92.549" cy="173.454" r=".969"/><path fill="#FFF" stroke="#939598" d="M59.88 173.493c0 6.77 1.56 9.25 3.75 9.25h33.377c.535 0 1.642-.145 1.642-1.56v-7.706-7.69c0-1.415-1.106-1.56-1.643-1.56H63.653l-.02.002c-2.192 0-3.754 2.535-3.754 9.263zM100.347 175.485a.99.99 0 0 0 0 1.98 1 1 0 0 0 .993-.983.99.99 0 0 0-.993-.995zM100.347 169.345a.982.982 0 0 0-.988.99.99.99 0 1 0 .987-.99z"/><path fill="#FFF" stroke="#939598" d="M100.64 174.788c.812 0 1.47-.55 1.47-1.36 0-.812-.657-1.255-1.47-1.255l-5.593.52c-.55 0-.55 1.482 0 1.482l5.593.613z"/></g><g><g stroke="#939598"><path fill="#FFF" d="M218.52 115.805h18.546v20.188H218.52z"/><path fill="#FFF" d="M224.055 119.773h-2.822l-.658 2.438v7.47l.658 2.468h2.822"/><path fill="none" d="M224.055 136.14v-20.335"/></g><path fill="#FFF" stroke="#939598" d="M222.838 135.01l-.004-1.63 1.138-.36.005 2.35z"/></g><g><circle fill="none" stroke="#939598" cx="110.302" cy="149.939" r=".966"/><path fill="none" stroke="#939598" d="M116.357 145.866h2.02v8.125h-2.02zM112.44 149.51h3.828v.86h-3.83z"/><circle fill="none" stroke="#939598" cx="117.348" cy="149.939" r=".938"/><g fill="none" stroke="#939598"><path d="M105.504 141.818h13.183v16.222h-13.183z"/><path d="M106.83 143.175h9.48v13.542h-9.48z"/></g></g><g fill="none" stroke="#939598"><path stroke-width="5" d="M34.967 187.71h206.056v-82.52h-25.78V2.5L2.5 2.52v185.19h9.3"/><path stroke-width="3" d="M214.34 172.69v13.75M214.34 105.19v14M117.188 2.44v4.75h18.363v-4.5M209.45 2.69V7.51h4.6M43.166 2.69l.086 4.814H3.802M24.3 140.86v7.08h-21M3.55 110.934H24.3v7.255M55.868 117.637l-.067-6.698h65.084v76M55.8 186.94l.167-46.834"/><path stroke-width="3" d="M104.312 186.69v-23.91h16.24"/></g><g stroke="#939598"><path fill="#FFF" d="M44.808.774h69.562v3.674H44.808z"/><path fill="none" d="M114.37 2.593H44.06"/><path fill="none" stroke-width="2" d="M91.697 4.606V1.112M68.308 4.73v-3.6"/><g><path fill="#FFF" d="M137.31.607h69.56V4.28h-69.56z"/><path fill="none" d="M206.87 2.426h-70.31"/><path fill="none" stroke-width="2" d="M184.197 4.44V.944M160.81 4.564v-3.6"/></g></g><g><g fill="#939598"><path d="M73.53 65.09h4.9v.555h-4.9v-.554zM78.502 62.55c0 .518-.203 1.092-.532 1.5l-.386-.274c.294-.392.463-.827.463-1.254 0-.434-.225-.75-.575-.75h-.014c-.364 0-.504.428-.638.904-.16.567-.356 1.198-1.022 1.198h-.014c-.623 0-1.036-.52-1.036-1.233 0-.44.153-.93.398-1.302l.406.245c-.217.336-.35.722-.35 1.072 0 .427.224.7.525.7h.014c.344 0 .478-.448.624-.932.168-.56.386-1.163 1.037-1.163h.015c.687 0 1.087.568 1.087 1.29zM78.43 60.212h-5.11v-.54h5.11v.54zM75.504 58.21l-.44.16c-.183-.398-.302-.79-.302-1.316 0-.987.504-1.54 1.457-1.54h2.212v.517h-.546c.33.253.623.673.623 1.31 0 .674-.38 1.353-1.136 1.353-.77 0-1.177-.63-1.177-1.548 0-.462.063-.792.154-1.114h-.125c-.65 0-.987.4-.987 1.08 0 .428.11.764.266 1.1zm1.85-.063c.46 0 .727-.42.727-.91 0-.666-.405-1.212-.98-1.212h-.35a3.775 3.775 0 0 0-.153 1.064c0 .68.293 1.057.756 1.057zM78.43 53.828v.54h-3.62v-.54h.63c-.392-.238-.707-.616-.707-1.24 0-.875.59-1.387 1.45-1.387h2.248v.54h-2.114c-.672 0-1.093.365-1.093 1.002 0 .623.455 1.085 1.135 1.085h2.073zM78.43 47.15h-.728c.435.293.806.72.806 1.386 0 .868-.687 1.73-1.884 1.73-1.19 0-1.892-.862-1.892-1.73 0-.672.364-1.106.77-1.387H73.32v-.54h5.112v.54zm-3.213 1.288c0 .7.52 1.275 1.4 1.275.862 0 1.408-.588 1.408-1.275 0-.672-.56-1.31-1.408-1.31-.84 0-1.4.637-1.4 1.31z"/></g><g fill="#939598"><path d="M56.128 97.764h-.89l-2.423-3.052-1.34 1.36v1.69h-.712v-6.3h.71v3.762l3.62-3.763h.918l-2.7 2.756 2.818 3.548zM57.134 92.093v-.765h.792v.765h-.792zm.045 5.67V93.11h.692v4.654h-.693zM60.42 96.44c0 .568.314.775.782.775.234 0 .432-.045.675-.162v.594a1.743 1.743 0 0 1-.837.198c-.747 0-1.314-.37-1.314-1.314v-2.808h-.648v-.612h.648v-1.404h.693v1.404h1.476v.612H60.42v2.72zM65.083 97.873c-1.36 0-2.386-1.107-2.386-2.422 0-1.322 1.026-2.44 2.386-2.44.882 0 1.43.37 1.863.83l-.46.485c-.368-.387-.782-.702-1.413-.702-.945 0-1.666.802-1.666 1.81 0 1.018.738 1.82 1.71 1.82.594 0 1.053-.3 1.422-.694l.44.413c-.466.52-1.024.9-1.897.9zM68.817 97.764h-.693v-6.572h.693v2.73c.306-.506.792-.91 1.594-.91 1.126 0 1.783.756 1.783 1.863v2.89H71.5v-2.72c0-.863-.468-1.403-1.288-1.403-.8 0-1.396.585-1.396 1.458v2.664zM75.72 97.27c.64 0 1.09-.262 1.468-.658l.432.387c-.468.52-1.036.873-1.918.873-1.278 0-2.322-.98-2.322-2.43 0-1.352.945-2.433 2.232-2.433 1.377 0 2.17 1.1 2.17 2.467 0 .063 0 .136-.01.217h-3.69c.1 1.008.82 1.575 1.638 1.575zm1.36-2.09c-.073-.846-.56-1.584-1.486-1.584-.81 0-1.422.675-1.512 1.584h2.997zM79.69 97.764h-.694V93.11h.693v.81c.305-.504.79-.91 1.593-.91 1.125 0 1.782.758 1.782 1.865v2.89h-.693v-2.72c0-.863-.468-1.403-1.288-1.403-.8 0-1.396.585-1.396 1.458v2.664z"/></g><g fill="#939598"><path d="M57.465 72.312h-1.702V67.41h1.702c1.54 0 2.605 1.058 2.605 2.444s-1.065 2.458-2.605 2.458zm0-4.39h-1.15v3.88h1.15c1.24 0 2.03-.84 2.03-1.934s-.79-1.947-2.03-1.947zM63.955 67.395h.455l1.345 4.098 1.4-4.083h.582l-1.75 4.938h-.47l-1.345-3.98-1.352 3.98h-.462l-1.75-4.938h.602l1.4 4.083 1.345-4.098z"/></g><g fill="#939598"><path d="M13.614 97.364l-1.422-1.905h-1.4v1.904h-.554v-4.902h2.108c1.078 0 1.77.58 1.77 1.464 0 .82-.56 1.295-1.33 1.436l1.506 2.003h-.678zm-1.31-4.392H10.79v1.99h1.506c.735 0 1.26-.38 1.26-1.017 0-.608-.46-.973-1.253-.973zM16.734 96.98c.497 0 .848-.204 1.142-.513l.336.3c-.364.407-.805.68-1.492.68-.995 0-1.807-.763-1.807-1.89 0-1.05.735-1.892 1.737-1.892 1.07 0 1.688.854 1.688 1.92 0 .05 0 .104-.007.167h-2.87c.076.786.637 1.227 1.274 1.227zm1.058-1.626c-.056-.658-.434-1.233-1.156-1.233-.63 0-1.106.526-1.177 1.234h2.332zM21.165 93.757v.463h-1.142v3.145h-.54V94.22h-.497v-.47h.498v-.314c0-.792.4-1.212 1.092-1.212.252 0 .42.028.595.09v.47a1.77 1.77 0 0 0-.524-.09c-.42 0-.63.252-.63.77v.294h1.15z"/></g><path fill="#939598" d="M76.83 145.784c0 .828-.505 1.252-1 1.468.747.225 1.35.657 1.35 1.53 0 1.09-.91 1.73-2.287 1.73h-2.8v-6.303h2.683c1.243 0 2.053.61 2.053 1.574zm-.72.1c0-.63-.496-1.036-1.396-1.036h-1.918v2.17h1.864c.855 0 1.45-.387 1.45-1.134zm.35 2.853c0-.693-.576-1.09-1.675-1.09h-1.99v2.224h2.116c.956 0 1.55-.422 1.55-1.133zM78.745 146.748l-.207-.567c.513-.233 1.017-.387 1.692-.387 1.27 0 1.98.648 1.98 1.873v2.845h-.666v-.7c-.324.422-.864.8-1.684.8-.864 0-1.737-.485-1.737-1.458 0-.99.81-1.513 1.99-1.513.593 0 1.017.08 1.43.197v-.162c0-.837-.512-1.27-1.386-1.27-.548 0-.98.145-1.412.343zm.08 2.376c0 .595.54.937 1.17.937.856 0 1.558-.52 1.558-1.26v-.45c-.342-.1-.8-.197-1.368-.197-.873 0-1.36.377-1.36.97z"/><g fill="#939598"><path d="M84.487 149.187c0 .567.315.774.783.774.234 0 .432-.044.675-.16v.593a1.743 1.743 0 0 1-.837.198c-.747 0-1.314-.368-1.314-1.313v-2.81h-.648v-.61h.648v-1.405h.693v1.404h1.477v.612h-1.477v2.72zM87.88 150.51h-.694v-6.572h.693v2.73c.305-.506.79-.91 1.593-.91 1.125 0 1.782.756 1.782 1.863v2.89h-.693v-2.718c0-.864-.468-1.404-1.288-1.404-.8 0-1.396.585-1.396 1.458v2.664z"/></g><g fill="#939598"><path d="M229.027 130.435v-.455l4.098-1.345-4.083-1.4v-.582l4.938 1.752v.47l-3.98 1.344 3.98 1.35v.463l-4.938 1.752v-.604l4.083-1.4-4.098-1.345zM228.355 123.45l6.485 3.25v.497l-6.485-3.25v-.497zM233.944 121.098v1.702h-4.902v-1.702c0-1.54 1.058-2.605 2.444-2.605s2.458 1.064 2.458 2.605zm-4.392 0v1.148h3.88v-1.148c0-1.24-.84-2.03-1.933-2.03s-1.948.79-1.948 2.03z"/></g><path fill="#939598" d="M19.043 184.716h-2.99v1.674h2.674v.505h-2.675v1.716h3.026v.505h-3.58v-4.902h3.545v.503zM20.637 189.114h-.54v-3.62h.54v.63c.238-.393.616-.708 1.24-.708.875 0 1.387.59 1.387 1.45v2.248h-.54V187c0-.673-.364-1.094-1-1.094-.624 0-1.086.455-1.086 1.135v2.074z"/><g fill="#939598"><path d="M25.09 188.085c0 .44.245.603.61.603.18 0 .335-.035.524-.127v.464c-.19.098-.392.154-.65.154-.583 0-1.023-.288-1.023-1.023v-2.185h-.503v-.477h.504V184.4h.54v1.093h1.15v.477h-1.15v2.115zM27.73 189.114h-.54v-3.62h.54v.944c.265-.602.79-1.036 1.477-1.008v.58h-.042c-.79 0-1.436.568-1.436 1.66v1.444zM31.79 189.233c-.31.75-.66 1.022-1.206 1.022-.3 0-.525-.063-.77-.182l.18-.428c.176.09.337.133.568.133.322 0 .525-.168.742-.68l-1.646-3.606h.595l1.317 3.02 1.163-3.02h.574l-1.518 3.74z"/></g><g fill="#939598"><path d="M223.697 169.505c0 1.414-1.113 2.46-2.528 2.46-1.4 0-2.543-1.038-2.543-2.48 0-.89.314-1.423.777-1.913l.406.38c-.393.412-.673.874-.673 1.54 0 1.086.876 1.897 2.018 1.897s2.03-.82 2.03-1.898c0-.673-.26-1.113-.707-1.583l.357-.365c.52.51.862 1.07.862 1.96zM223.613 166.622H218.5v-.54h5.113v.54zM223.697 163.177c0 1.086-.854 1.877-1.884 1.877s-1.898-.798-1.898-1.89c0-1.087.854-1.885 1.884-1.885 1.03 0 1.897.805 1.897 1.897zm-3.306 0c0 .785.624 1.324 1.408 1.324.785 0 1.415-.573 1.415-1.337 0-.784-.623-1.33-1.4-1.33-.792 0-1.422.58-1.422 1.344zM223.683 159.11a2.49 2.49 0 0 1-.532 1.5l-.385-.273c.294-.393.463-.827.463-1.254 0-.435-.225-.75-.575-.75h-.014c-.365 0-.505.428-.64.904-.16.566-.355 1.197-1.02 1.197h-.015c-.623 0-1.036-.52-1.036-1.232 0-.44.152-.932.397-1.303l.406.243c-.217.337-.35.723-.35 1.072 0 .428.224.7.525.7h.014c.343 0 .477-.448.623-.932.168-.56.386-1.163 1.037-1.163h.014c.688 0 1.087.57 1.087 1.29zM223.228 155.225c0-.497-.203-.848-.512-1.142l.3-.336c.407.364.68.806.68 1.49 0 .996-.763 1.808-1.89 1.808-1.05 0-1.892-.734-1.892-1.736 0-1.072.854-1.69 1.92-1.69.05 0 .104 0 .167.008v2.872c.787-.077 1.228-.638 1.228-1.275zm-1.625-1.057c-.658.056-1.233.435-1.233 1.155 0 .63.525 1.107 1.233 1.178v-2.332zM222.584 151.95c.44 0 .603-.245.603-.61 0-.18-.035-.335-.127-.524h.463c.098.19.154.393.154.65 0 .582-.288 1.023-1.023 1.023h-2.185v.503h-.478v-.504H218.9v-.54h1.092v-1.148h.477v1.148h2.114z"/></g><g fill="#939598"><path d="M140.177 139.446c1.404.307 2.053.82 2.053 1.792 0 1.09-.9 1.79-2.15 1.79-1 0-1.82-.332-2.576-1.007l.44-.52c.66.593 1.288.89 2.162.89.847 0 1.404-.44 1.404-1.08 0-.594-.315-.927-1.64-1.206-1.448-.315-2.115-.783-2.115-1.827 0-1.01.874-1.73 2.07-1.73.92 0 1.576.262 2.216.775l-.413.55c-.585-.48-1.17-.686-1.82-.686-.817 0-1.34.45-1.34 1.026 0 .604.325.937 1.71 1.234zM143.625 142.94v-6.573h.692v6.572h-.692zM147.98 142.444c.64 0 1.09-.26 1.47-.657l.43.387c-.468.522-1.034.874-1.917.874-1.278 0-2.322-.98-2.322-2.43 0-1.352.946-2.433 2.233-2.433 1.377 0 2.17 1.1 2.17 2.467 0 .063 0 .136-.01.217h-3.69c.098 1.007.82 1.574 1.637 1.574zm1.36-2.09c-.07-.845-.558-1.583-1.484-1.583-.81 0-1.423.676-1.513 1.585h2.997zM153.308 142.444c.64 0 1.09-.26 1.468-.657l.433.387c-.47.522-1.037.874-1.92.874-1.278 0-2.32-.98-2.32-2.43 0-1.352.944-2.433 2.23-2.433 1.378 0 2.17 1.1 2.17 2.467 0 .063 0 .136-.01.217h-3.69c.1 1.007.82 1.574 1.638 1.574zm1.36-2.09c-.072-.845-.56-1.583-1.485-1.583-.81 0-1.423.676-1.513 1.585h2.998zM159.06 143.038c-.865 0-1.423-.468-1.783-.99v2.332h-.693v-6.095h.693v.937c.38-.56.928-1.036 1.783-1.036 1.115 0 2.223.883 2.223 2.422 0 1.53-1.098 2.43-2.223 2.43zm-.127-4.23c-.863 0-1.684.72-1.684 1.8 0 1.09.82 1.81 1.683 1.81.9 0 1.64-.667 1.64-1.8 0-1.108-.757-1.81-1.64-1.81zM162.578 137.267v-.765h.793v.765h-.792zm.045 5.672v-4.655h.693v4.654h-.693zM165.62 142.94h-.692v-4.655h.692v.81c.306-.504.792-.91 1.594-.91 1.125 0 1.782.758 1.782 1.865v2.89h-.693v-2.72c0-.863-.468-1.403-1.287-1.403-.8 0-1.396.585-1.396 1.458v2.664zM172.533 144.397a3.655 3.655 0 0 1-2.116-.647l.315-.54c.53.387 1.125.594 1.79.594 1.027 0 1.694-.567 1.694-1.656v-.55c-.406.54-.973.98-1.828.98-1.116 0-2.188-.827-2.188-2.187 0-1.367 1.08-2.205 2.188-2.205.873 0 1.44.433 1.818.937v-.837h.693v3.844c0 1.503-.936 2.267-2.367 2.267zm-.01-5.6c-.882 0-1.61.605-1.61 1.577 0 .954.746 1.593 1.61 1.593.883 0 1.71-.63 1.71-1.584 0-.964-.827-1.585-1.71-1.585zM185.134 142.94h-.766l-.738-1.666h-3.43l-.747 1.665h-.73l2.873-6.348h.666l2.872 6.347zm-3.214-5.52l-1.44 3.215h2.872l-1.432-3.214zM186.95 142.94h-.693v-4.655h.692v1.215c.342-.773 1.017-1.332 1.9-1.296v.747h-.056c-1.017 0-1.846.73-1.846 2.135v1.854zM191.756 142.444c.64 0 1.09-.26 1.47-.657l.43.387c-.468.522-1.034.874-1.917.874-1.28 0-2.323-.98-2.323-2.43 0-1.352.945-2.433 2.232-2.433 1.376 0 2.17 1.1 2.17 2.467 0 .063 0 .136-.01.217h-3.69c.097 1.007.817 1.574 1.636 1.574zm1.36-2.09c-.072-.845-.56-1.583-1.485-1.583-.81 0-1.422.676-1.512 1.585h2.997zM195.302 139.177l-.207-.567c.513-.234 1.017-.388 1.69-.388 1.27 0 1.98.648 1.98 1.873v2.845h-.665v-.702c-.324.423-.863.8-1.684.8-.863 0-1.736-.484-1.736-1.457 0-.99.81-1.512 1.988-1.512.595 0 1.018.08 1.432.198v-.162c0-.837-.513-1.27-1.387-1.27-.547 0-.98.144-1.41.343zm.08 2.375c0 .595.542.937 1.172.937.854 0 1.558-.523 1.558-1.262v-.45a4.825 4.825 0 0 0-1.37-.197c-.873 0-1.36.38-1.36.972z"/></g><g fill="#939598"><path d="M143.975 147.593h.522v6.347h-.703v-5.608l-1.188.37-.172-.577 1.54-.532zM148.62 154.048c-1.63 0-2.656-1.477-2.656-3.25s1.044-3.27 2.674-3.27c1.62 0 2.647 1.478 2.647 3.25s-1.045 3.27-2.666 3.27zm0-5.87c-1.18 0-1.918 1.205-1.918 2.6s.757 2.62 1.936 2.62 1.91-1.215 1.91-2.6c0-1.387-.75-2.62-1.93-2.62zM152.696 147.637h.847v.045l-.73 2.403h-.387l.27-2.448zM158.62 147.593v4.258h.98v.596h-.98v1.494h-.685v-1.494h-3.322l-.18-.514 3.564-4.34h.622zm-.685 1.007l-2.647 3.25h2.647v-3.25zM160.94 147.637h.837v.045l-.73 2.403h-.378l.27-2.448zm1.765 0h.828v.045l-.73 2.403h-.377l.28-2.448zM171.56 153.94h-.8l-1.44-1.9-1.45 1.9h-.774l1.828-2.37-1.756-2.285h.792l1.378 1.8 1.377-1.8h.774l-1.766 2.27 1.836 2.384zM177.446 154.03c-1.34 0-2.368-.73-2.368-1.792 0-.757.54-1.288 1.297-1.558-.586-.27-1.08-.72-1.08-1.46 0-.98 1-1.673 2.15-1.673s2.152.693 2.152 1.674c0 .74-.495 1.19-1.08 1.46.747.28 1.297.792 1.297 1.548 0 1.08-1.027 1.8-2.368 1.8zm0-3.017c-.92 0-1.647.495-1.647 1.206 0 .647.61 1.187 1.646 1.187 1.035 0 1.647-.54 1.647-1.188 0-.71-.73-1.207-1.647-1.207zm0-2.844c-.82 0-1.44.458-1.44 1.097 0 .693.64 1.162 1.44 1.162s1.44-.47 1.44-1.163c0-.63-.62-1.098-1.44-1.098zM181.135 147.637h.847v.045l-.73 2.403h-.387l.27-2.448zM183.097 147.637h4.276v.53l-2.863 5.772h-.792l2.845-5.654h-3.466v-.65zM188.705 147.637h.836v.045l-.728 2.403h-.38l.273-2.448zm1.764 0h.827v.045l-.73 2.403h-.378l.28-2.448z"/></g><g fill="#939598"><path d="M105.817 48.818h.71v5.645h3.548v.657h-4.258v-6.302zM111.29 49.448v-.765h.79v.765h-.79zm.044 5.672v-4.654h.693v4.654h-.693zM117.086 50.466h.747l-2.025 4.69h-.612l-2.017-4.69h.765l1.566 3.862 1.576-3.862zM118.94 49.448v-.765h.79v.765h-.79zm.044 5.672v-4.654h.693v4.654h-.693zM121.98 55.12h-.692v-4.654h.693v.81c.307-.504.793-.91 1.594-.91 1.125 0 1.783.758 1.783 1.865v2.89h-.693v-2.718c0-.864-.47-1.404-1.287-1.404-.802 0-1.396.585-1.396 1.458v2.664zM128.893 56.578a3.657 3.657 0 0 1-2.116-.647l.315-.54c.53.388 1.126.595 1.792.595 1.025 0 1.692-.567 1.692-1.656v-.55c-.405.54-.973.98-1.827.98-1.118 0-2.19-.828-2.19-2.188 0-1.368 1.08-2.206 2.19-2.206.872 0 1.438.433 1.817.937v-.837h.693v3.844c0 1.503-.936 2.268-2.367 2.268zm-.008-5.6c-.883 0-1.61.604-1.61 1.576 0 .954.745 1.593 1.61 1.593.882 0 1.71-.63 1.71-1.584 0-.964-.83-1.585-1.71-1.585zM136.66 47.935l-4.176 8.337h-.64l4.177-8.337h.64zM139.684 55.12h-2.188v-6.302h2.188c1.98 0 3.35 1.36 3.35 3.142 0 1.783-1.37 3.16-3.35 3.16zm0-5.645h-1.477v4.987h1.477c1.593 0 2.61-1.08 2.61-2.484s-1.017-2.503-2.61-2.503zM144.435 49.448v-.765h.793v.765h-.793zm.045 5.672v-4.654h.693v4.654h-.693zM147.477 55.12h-.692v-4.654h.692v.81c.306-.504.792-.91 1.594-.91 1.126 0 1.783.758 1.783 1.865v2.89h-.693v-2.718c0-.864-.468-1.404-1.287-1.404-.8 0-1.396.585-1.396 1.458v2.664zM152.345 49.448v-.765h.793v.765h-.793zm.046 5.672v-4.654h.693v4.654h-.692zM155.388 55.12h-.693v-4.654h.693v.81c.307-.504.793-.91 1.594-.91 1.125 0 1.782.758 1.782 1.865v2.89h-.692v-2.718c0-.864-.47-1.404-1.288-1.404-.802 0-1.396.585-1.396 1.458v2.664zM162.3 56.578a3.657 3.657 0 0 1-2.114-.647l.314-.54c.53.388 1.126.595 1.792.595 1.026 0 1.692-.567 1.692-1.656v-.55c-.404.54-.973.98-1.827.98-1.116 0-2.188-.828-2.188-2.188 0-1.368 1.08-2.206 2.187-2.206.873 0 1.44.433 1.818.937v-.837h.693v3.844c0 1.503-.936 2.268-2.367 2.268zm-.008-5.6c-.882 0-1.61.604-1.61 1.576 0 .954.746 1.593 1.61 1.593.882 0 1.71-.63 1.71-1.584 0-.964-.828-1.585-1.71-1.585zM174.902 55.12h-.766l-.738-1.665h-3.43l-.748 1.665h-.73l2.873-6.347h.666l2.872 6.347zm-3.215-5.52l-1.44 3.215h2.872l-1.433-3.214zM176.72 55.12h-.694v-4.654h.693v1.215c.34-.772 1.017-1.33 1.898-1.295v.747h-.054c-1.018 0-1.846.73-1.846 2.134v1.854zM181.525 54.625c.64 0 1.09-.26 1.467-.657l.433.387c-.468.522-1.036.874-1.917.874-1.28 0-2.323-.982-2.323-2.432 0-1.35.945-2.432 2.232-2.432 1.378 0 2.17 1.1 2.17 2.467 0 .063 0 .136-.01.217h-3.69c.1 1.007.82 1.575 1.638 1.575zm1.36-2.09c-.072-.845-.56-1.583-1.486-1.583-.81 0-1.423.675-1.513 1.584h2.998zM185.07 51.357l-.207-.567c.514-.234 1.018-.388 1.693-.388 1.27 0 1.98.648 1.98 1.873v2.845h-.666v-.702c-.324.423-.865.8-1.684.8-.865 0-1.738-.484-1.738-1.457 0-.99.81-1.512 1.99-1.512.594 0 1.018.08 1.432.198v-.162c0-.837-.514-1.27-1.387-1.27-.548 0-.98.145-1.413.343zm.082 2.376c0 .595.54.937 1.17.937.855 0 1.557-.522 1.557-1.26v-.45c-.343-.1-.802-.198-1.368-.198-.875 0-1.36.377-1.36.97z"/></g><g fill="#939598"><path d="M120.34 58.773h.522v6.347h-.702v-5.608l-1.188.37-.17-.577 1.538-.532zM122.842 60.447l-.522-.378c.567-.847 1.16-1.342 2.27-1.342 1.142 0 1.952.756 1.952 1.79 0 .93-.486 1.496-1.594 2.46l-1.683 1.493h3.34v.65h-4.402v-.55l2.286-2.017c.963-.864 1.313-1.35 1.313-1.98 0-.738-.584-1.207-1.27-1.207-.72 0-1.188.38-1.69 1.08zM128.016 58.818h.847v.045l-.73 2.403h-.387l.27-2.448zM131.158 58.773h.52v6.347h-.7v-5.608l-1.19.37-.17-.577 1.54-.532zM134.38 58.773h.52v6.347h-.7v-5.608l-1.19.37-.17-.577 1.54-.532zM136.666 58.818h.836v.045l-.73 2.403h-.378l.272-2.448zm1.763 0h.827v.045l-.73 2.403h-.378l.28-2.448zM147.286 65.12h-.802l-1.44-1.9-1.448 1.9h-.775l1.83-2.368-1.757-2.286h.793l1.377 1.8 1.377-1.8h.775l-1.766 2.27 1.836 2.384zM152.127 58.773h.52v6.347h-.7v-5.608l-1.188.37-.172-.577 1.54-.532zM156.77 65.228c-1.63 0-2.655-1.477-2.655-3.25s1.045-3.27 2.674-3.27c1.62 0 2.645 1.478 2.645 3.25s-1.044 3.27-2.664 3.27zm0-5.87c-1.18 0-1.917 1.206-1.917 2.602s.756 2.62 1.936 2.62 1.907-1.216 1.907-2.602-.746-2.62-1.926-2.62zM160.847 58.818h.846v.045l-.73 2.403h-.387l.27-2.448zM163.988 58.773h.522v6.347h-.702v-5.608l-1.188.37-.172-.577 1.54-.532zM168.633 65.228c-1.63 0-2.656-1.477-2.656-3.25s1.045-3.27 2.674-3.27c1.622 0 2.648 1.478 2.648 3.25s-1.044 3.27-2.665 3.27zm0-5.87c-1.18 0-1.918 1.206-1.918 2.602s.757 2.62 1.936 2.62c1.18 0 1.91-1.216 1.91-2.602s-.748-2.62-1.927-2.62zM172.71 58.818h.837v.045l-.73 2.403h-.377l.27-2.448zm1.763 0h.83v.045l-.73 2.403h-.378l.278-2.448z"/></g><g fill="#939598"><path d="M22.35 138.09c0 1.413-1.114 2.458-2.53 2.458-1.4 0-2.54-1.037-2.54-2.48 0-.89.313-1.422.776-1.912l.406.38c-.393.412-.673.874-.673 1.54 0 1.086.875 1.897 2.017 1.897s2.03-.82 2.03-1.897c0-.673-.26-1.113-.707-1.583l.357-.364c.52.51.862 1.07.862 1.96zM22.265 135.206h-5.112v-.54h5.112v.54zM22.35 131.76c0 1.086-.855 1.877-1.885 1.877s-1.898-.798-1.898-1.89c0-1.087.854-1.885 1.884-1.885 1.03 0 1.9.807 1.9 1.898zm-3.306 0c0 .785.623 1.324 1.407 1.324.786 0 1.416-.574 1.416-1.338 0-.784-.623-1.33-1.4-1.33-.792 0-1.422.582-1.422 1.344zM22.336 127.694a2.49 2.49 0 0 1-.532 1.5l-.386-.273c.294-.392.463-.826.463-1.253 0-.435-.224-.75-.574-.75h-.014c-.364 0-.504.428-.638.904-.16.567-.356 1.198-1.022 1.198h-.014c-.623 0-1.036-.52-1.036-1.232 0-.44.153-.932.398-1.303l.406.244c-.217.337-.35.723-.35 1.072 0 .427.224.7.525.7h.015c.343 0 .477-.45.623-.933.168-.56.386-1.163 1.037-1.163h.014c.686 0 1.086.57 1.086 1.29zM21.88 123.81c0-.498-.202-.85-.51-1.143l.3-.336c.406.365.68.807.68 1.492 0 .995-.764 1.807-1.89 1.807-1.052 0-1.893-.735-1.893-1.737 0-1.07.854-1.688 1.92-1.688.05 0 .104 0 .167.007v2.872c.785-.077 1.227-.638 1.227-1.275zm-1.624-1.058c-.658.056-1.233.435-1.233 1.155 0 .63.525 1.107 1.233 1.178v-2.333zM21.236 120.534c.44 0 .603-.245.603-.61 0-.18-.036-.335-.128-.524h.463c.098.19.154.393.154.65 0 .582-.29 1.023-1.024 1.023H19.12v.504h-.476v-.504H17.55v-.54h1.094v-1.147h.477v1.148h2.116z"/></g><g fill="#939598"><path d="M8.455 76.18H7.35v1.605h-.513v-4.55H8.54c1.027 0 1.703.546 1.703 1.45 0 .99-.82 1.495-1.788 1.495zm.046-2.47H7.35v2.003h1.125c.754 0 1.248-.403 1.248-1.008 0-.656-.488-.994-1.222-.994zM11.224 75.07l-.15-.41c.372-.17.735-.28 1.223-.28.917 0 1.43.468 1.43 1.353v2.054h-.48v-.507c-.235.306-.625.578-1.216.578-.623 0-1.253-.35-1.253-1.053 0-.715.585-1.092 1.437-1.092.43 0 .734.06 1.033.143v-.117c0-.605-.37-.917-1-.917-.4 0-.71.103-1.023.246zm.058 1.715c0 .43.39.676.845.676.617 0 1.125-.376 1.125-.91v-.324a3.527 3.527 0 0 0-.988-.143c-.63 0-.982.273-.982.702zM15.293 77.786h-.5v-3.36h.5v.585c.22-.363.572-.655 1.15-.655.812 0 1.287.546 1.287 1.345v2.087h-.5v-1.963c0-.624-.338-1.015-.93-1.015-.578 0-1.007.422-1.007 1.053v1.923z"/></g><path fill="#939598" d="M19.537 76.83c0 .41.228.56.566.56.17 0 .312-.032.487-.117v.43a1.246 1.246 0 0 1-.604.143c-.54 0-.95-.267-.95-.95V74.87h-.467v-.442h.467v-1.015h.5v1.015h1.066v.44h-1.066v1.963zM22.092 77.786h-.5v-3.36h.5v.877c.247-.56.734-.962 1.372-.936v.54h-.04c-.733 0-1.332.525-1.332 1.54v1.34zM26.077 77.896c-.286.695-.61.95-1.118.95-.28 0-.49-.06-.716-.17l.17-.396c.16.084.31.123.525.123.298 0 .486-.155.688-.63L24.1 74.425h.553l1.222 2.802 1.08-2.802h.532l-1.41 3.47z"/></g></svg>