<svg xmlns="http://www.w3.org/2000/svg" width="325.723" height="206.848" viewBox="0 0 325.723 206.848"><path fill="#939598" d="M244.785 16.44V8.11H108.12v9l-106-.335v187.67h154.415v-1H3.12V17.775l106 .334V9.108h134.665v8.333h79.334v186.002H180.66v1h143.46v-188z"/><g fill="#D1D3D4"><path d="M2.285 18.275h25.667v5H2.285zM101.43 18.275h18.688v5.333H101.43zM317.285 18.94h5.833v4h-5.833zM193.118 9.608h50.5v14h-50.5z"/></g><g fill="none" stroke="#939598"><path d="M52.646 127.957l-1.67.008-.016 23.82 1.67-.01zM51.878 151.793c-13.113-.445-23.383-11.226-22.936-24.338"/></g><g fill="none" stroke="#939598"><path d="M156.765 204.818l1.67.013.015-23.818-1.692-.012zM157.554 180.98c13.113.446 23.383 11.29 22.936 24.403"/></g><g fill="none" stroke="#939598"><path d="M115.05 120.14l-.01-1.586-22.626-.015.008 1.586zM92.404 119.41c.423-12.457 10.664-22.212 23.12-21.788"/></g><g fill="none" stroke="#939598"><path d="M143.52 128.448l-1.668.01-.016 23.817 1.67-.01zM142.754 152.285c-13.113-.445-23.383-11.226-22.936-24.338"/></g><g fill="none" stroke="#939598"><path d="M197.55 156.89l-.01-1.586-22.626-.015.008 1.586zM174.904 156.16c.423-12.457 10.664-22.214 23.12-21.787"/></g><g fill="none" stroke="#939598"><path d="M198.11 198.644l-.005-1.3-14.255-.01.005 1.302zM183.844 198.185c.267-7.85 6.72-13.994 14.566-13.727"/><g><path d="M198.11 170.2l-.005 1.3-14.255.01.005-1.3zM183.844 170.66c.267 7.85 6.72 13.993 14.566 13.727"/></g></g><path fill="none" stroke="#939598" d="M209.16 165.15v38.25"/><path fill="#FFF" stroke="#939598" d="M115.16 200.067v-17.373h32.792v18.248M254.327 124.025h48v27.625h-48z"/><path fill="none" stroke="#939598" d="M18.16 129.65v63.375h64.5M27.952 24.79H323.62"/><g fill="none" stroke="#939598"><path d="M121.493 18.622h37.5v1.744h-37.5z"/><path d="M150.243 16.98h41v1.657h-41z"/></g><g fill="none" stroke="#939598"><path d="M108.62 8.486h2.874v2.875h-2.875zM195.37 10.61h-83.876M110.937 11.36v6.582M108.62 11.36v6.332M111.494 8.486h84.125"/></g><path fill="none" stroke="#939598" stroke-dasharray="1.5,1.5,1.5,1.5,1.5,1.5" d="M16.108 129.275l.022 65.72h66.01M211.312 165.442v39.5"/><g fill="#FFF" stroke="#939598"><path stroke-miterlimit="10" d="M105.818 187.407c0-4.463-2.71-9.376-6.053-9.376s-6.04 4.914-6.04 9.377 2.697 6.784 6.04 6.784c3.342.002 6.053-2.32 6.053-6.783"/><path d="M105.818 187.407c0-4.463-2.71-9.376-6.053-9.376s-6.04 4.914-6.04 9.377 2.697 6.784 6.04 6.784c3.342.002 6.053-2.32 6.053-6.783z"/><path stroke-miterlimit="10" d="M96.142 192.73a.457.457 0 0 0-.455-.456H93.58a.457.457 0 0 0-.455.455v.076c0 .25.205.455.455.455h2.107c.25 0 .455-.204.455-.454v-.077z"/><path d="M96.142 192.73a.457.457 0 0 0-.455-.456H93.58a.457.457 0 0 0-.455.455v.076c0 .25.205.455.455.455h2.107c.25 0 .455-.204.455-.454v-.077z"/><path stroke-miterlimit="10" d="M92.804 193.273c-.76 0-1.375 2.058-1.375 2.816 0 .768.615 2.824 1.374 2.824h13.813c.76 0 1.375-2.058 1.375-2.825 0-.76-.615-2.815-1.375-2.815l-13.813-.002z"/><path d="M92.804 193.273c-.76 0-1.375 2.058-1.375 2.816 0 .768.615 2.824 1.374 2.824h13.813c.76 0 1.375-2.058 1.375-2.825 0-.76-.615-2.815-1.375-2.815l-13.813-.002z"/><path stroke-miterlimit="10" d="M104.214 187.22c0-3.28-1.99-6.893-4.448-6.893s-4.447 3.612-4.447 6.893 1.99 4.985 4.446 4.985 4.448-1.705 4.448-4.985"/><path d="M104.214 187.22c0-3.28-1.99-6.893-4.448-6.893s-4.447 3.612-4.447 6.893 1.99 4.985 4.446 4.985 4.448-1.705 4.448-4.985z"/></g><path fill="#FFF" stroke="#939598" d="M60.028 130.25h23.625v45.692H60.028z"/><circle fill="#FFF" stroke="#939598" cx="71.952" cy="165.529" r=".969"/><path fill="#FFF" stroke="#939598" d="M71.913 132.86c-6.77 0-9.25 1.56-9.25 3.75v33.377c0 .535.146 1.642 1.562 1.642h15.393c1.416 0 1.562-1.106 1.562-1.643v-33.354l-.003-.02c0-2.192-2.536-3.754-9.264-3.754zM69.92 173.327a.983.983 0 0 0-.995-.988.99.99 0 0 0-.985.987 1 1 0 0 0 .985.994.988.988 0 0 0 .995-.993zM76.062 173.327a.984.984 0 0 0-.99-.988.99.99 0 1 0 0 1.974c.547.01.99-.442.99-.987z"/><path fill="#FFF" stroke="#939598" d="M70.62 173.62c0 .812.548 1.47 1.36 1.47.81 0 1.254-.657 1.254-1.47l-.52-5.593c0-.55-1.482-.55-1.482 0l-.613 5.593z"/><g stroke="#939598"><path fill="#FFF" d="M202.836 134.44h18.545v20.19h-18.544z"/><path fill="#FFF" d="M208.37 138.41h-2.822l-.658 2.437v7.47l.658 2.468h2.82"/><path fill="none" d="M208.37 154.775V134.44"/></g><path fill="#FFF" stroke="#939598" d="M207.152 153.647l-.004-1.63 1.138-.36.005 2.348zM276.302 134.962a.77.77 0 0 0-.77.77v13.446c0 .426.345.77.77.77h22.808c.426 0 .77-.346.77-.77v-13.445a.77.77 0 0 0-.77-.77h-22.808z"/><circle fill="#FFF" stroke="#939598" cx="287.624" cy="142.786" r=".871"/><path fill="#FFF" stroke="#939598" d="M283.82 135.5h7.608v1.818h-7.61z"/><path fill="#FFF" stroke="#939598" d="M287.235 137.27h.777v3.587h-.777z"/><circle fill="#FFF" stroke="#939598" cx="287.624" cy="136.426" r=".847"/><g><path fill="none" stroke="#939598" d="M287.154 137.948h-9.59a.81.81 0 0 0-.81.81v9.22c0 .446.362.81.81.81h20.28a.812.812 0 0 0 .81-.81v-9.22a.81.81 0 0 0-.81-.81h-9.727"/></g><g stroke="#939598"><path fill="none" stroke-dasharray="1.5,1,1.5,1,1.5,1" d="M273.5 152.147V135.17h-16.65v16.595"/><path fill="#FFF" d="M256.825 151.765v1.01H273.5v-.622"/></g><path fill="#FFF" stroke="#939598" d="M243.285 182.442h79.5v20.833h-79.5z"/><g><path fill="#FFF" stroke="#939598" d="M262.234 181.1h23.25v19.75h-23.25z"/><circle fill="#FFF" stroke="#939598" cx="279.175" cy="185.475" r="2.824"/><circle fill="#FFF" stroke="#939598" stroke-width=".8" cx="279.203" cy="185.476" r="1.989"/><circle fill="#FFF" stroke="#939598" cx="267.888" cy="193.725" r="2.824"/><circle fill="#FFF" stroke="#939598" stroke-width=".8" cx="267.859" cy="193.726" r="1.989"/><circle fill="#FFF" stroke="#939598" cx="279.213" cy="193.698" r="3.219"/><circle fill="#FFF" stroke="#939598" stroke-width=".8" cx="279.182" cy="193.698" r="2.268"/><g><circle fill="#FFF" stroke="#939598" cx="267.9" cy="185.258" r="3.219"/><circle fill="#FFF" stroke="#939598" stroke-width=".8" cx="267.868" cy="185.258" r="2.268"/></g><path fill="none" stroke="#939598" d="M285.516 198.118h-23.282M285.484 199.21h-23.25"/></g><g><path fill="#FFF" stroke="#939598" d="M295.1 179.332H320v21.97h-24.9z"/><path fill="none" stroke="#939598" d="M295.04 180.868H320"/><path fill="#FFF" stroke="#939598" d="M315.905 178.247h2.018v1.068h-2.018z"/></g><path fill="none" stroke="#939598" stroke-dasharray="1.5,1.5,1.5,1.5,1.5,1.5" d="M244.452 193.442h78.5"/><g><path fill="#FFF" stroke="#939598" d="M240.527 177.286h1.834v26.166h-15.666v-26.166h3.333"/><path fill="none" stroke="#939598" stroke-width=".7" d="M235.188 168.4l1.25.688-5.21 8.593-1.25-.685z"/><path fill="none" stroke="#939598" stroke-width=".8" d="M235.666 168.815a9.996 9.996 0 0 1 4.81 8.89"/></g><g><circle fill="none" stroke="#939598" cx="131.453" cy="189.777" r="1.017"/><path fill="none" stroke="#939598" d="M127.188 196.152h8.553v2.125h-8.552zM131 192.027h.906v4.03H131z"/><circle fill="none" stroke="#939598" cx="131.453" cy="197.194" r=".986"/><g fill="none" stroke="#939598"><path d="M122.926 184.727h17.076v13.875h-17.076z"/><path d="M124.318 186.122h14.255v9.98h-14.255z"/></g></g><g fill="none" stroke="#939598"><path stroke-width="5" d="M242.618 18.34h80.604v186H180.535"/><path stroke-width="3" d="M189.035 18.34h5.75"/><path stroke-width="5" d="M157.035 204.34H2.5v-186h122.785"/><path stroke-width="3" d="M143.535 128.61h5.417v74.665M52.812 128.61h67.374M1.62 128.61h27.415M114.952 120.15v9.125M114.952 24.775v73.17M197.62 134.62v-6.01h29v75.332M197.62 170.025v-13.25M197.62 203.61v-4.96M243.285 176.61v27M147.62 201.608H83.284v-24.333l-24.333.107v-47.666"/><path stroke-width="5" d="M243.737 18.61V9.717H193.62v8.556"/><path stroke-width="3" d="M194.564 18.274v5.174h48.142v-4.84M27.285 18.275v5.59H2.62M101.554 18.608v4.936h18.73v-6.27"/><path stroke-width="5" d="M198.535 163.275h26.75"/><path stroke-width="3" d="M317.683 19.775v3.7h4.77"/></g><g stroke="#939598"><path fill="#FFF" d="M30.244 16.443h69.562v3.675H30.244z"/><path fill="none" d="M99.807 18.26H29.494"/><path fill="none" stroke-width="2" d="M77.133 20.275V16.78M53.744 20.4v-3.602"/><g><path fill="#FFF" d="M246.275 16.47h69.562v3.673h-69.562z"/><path fill="none" d="M315.838 18.288h-70.313"/><path fill="none" stroke-width="2" d="M293.164 20.3v-3.493M269.775 20.426v-3.6"/></g></g><g><g fill="#939598"><path d="M131.136 6.02c-.735 0-1.205-.364-1.513-.87l.4-.342c.3.455.608.7 1.12.7.553 0 .96-.4.96-1.177V1.048h.56v3.277c0 1.128-.652 1.696-1.527 1.696zM136.45 2.328h.532v3.62h-.532V5.32c-.245.392-.617.707-1.24.707-.875 0-1.387-.59-1.387-1.45v-2.25h.54v2.116c0 .673.363 1.093 1 1.093.617 0 1.086-.455 1.086-1.135V2.33zM138.24 5.95V.836h.54V5.95h-.54zM140.046 1.537V.942h.617v.596h-.617zm.035 4.412V2.327h.54v3.62h-.54zM143.47 5.565c.497 0 .848-.203 1.142-.512l.336.3c-.364.407-.805.68-1.492.68-.995 0-1.807-.763-1.807-1.89 0-1.05.734-1.892 1.736-1.892 1.07 0 1.688.855 1.688 1.92 0 .05 0 .105-.007.168h-2.872c.077.785.638 1.227 1.275 1.227zm1.058-1.625c-.056-.658-.434-1.233-1.156-1.233-.63 0-1.106.525-1.177 1.233h2.333zM146.745 4.92c0 .44.245.603.61.603.18 0 .335-.035.524-.127v.463c-.19.097-.393.153-.652.153-.582 0-1.022-.288-1.022-1.023V2.805h-.504v-.477h.504V1.236h.54V2.33h1.148v.476h-1.15V4.92zM154.72 2.273c0 .645-.392.974-.777 1.142.58.175 1.05.51 1.05 1.19 0 .848-.707 1.345-1.78 1.345h-2.177V1.047h2.087c.967 0 1.597.476 1.597 1.226zm-.56.077c0-.49-.386-.806-1.086-.806h-1.492v1.688h1.45c.666 0 1.127-.3 1.127-.882zm.273 2.22c0-.54-.448-.848-1.303-.848h-1.548v1.73h1.646c.742 0 1.205-.33 1.205-.882zM156.21 3.022l-.162-.44c.4-.183.792-.302 1.317-.302.987 0 1.54.504 1.54 1.457V5.95h-.517v-.546c-.252.33-.672.623-1.31.623-.672 0-1.352-.378-1.352-1.135 0-.77.63-1.177 1.548-1.177.462 0 .792.063 1.114.154v-.127c0-.65-.4-.987-1.08-.987-.427 0-.763.11-1.1.266zm.062 1.85c0 .46.42.727.91.727.666 0 1.212-.407 1.212-.98v-.35a3.775 3.775 0 0 0-1.064-.155c-.68 0-1.058.293-1.058.756zM160.1 5.95V.836h.54V5.95h-.54zM163.525 6.033c-1.058 0-1.856-.86-1.856-1.884 0-1.03.797-1.9 1.855-1.9.686 0 1.113.288 1.45.646l-.358.378c-.287-.3-.61-.546-1.1-.546-.735 0-1.295.623-1.295 1.407 0 .792.574 1.415 1.33 1.415.464 0 .82-.23 1.107-.54l.342.323c-.364.407-.798.7-1.477.7zM167.438 6.033c-1.086 0-1.877-.854-1.877-1.884s.8-1.9 1.892-1.9c1.086 0 1.884.855 1.884 1.885a1.88 1.88 0 0 1-1.898 1.898zm0-3.305c-.784 0-1.323.623-1.323 1.407 0 .785.574 1.415 1.337 1.415.784 0 1.33-.623 1.33-1.4 0-.792-.58-1.422-1.344-1.422zM170.846 5.95h-.54V2.327h.54v.63c.238-.392.616-.707 1.24-.707.875 0 1.386.59 1.386 1.45v2.25h-.54V3.833c0-.672-.362-1.093-1-1.093-.624 0-1.086.456-1.086 1.136V5.95zM176.28 6.07c-.308.748-.658 1.02-1.204 1.02a1.65 1.65 0 0 1-.77-.18l.182-.43c.175.092.337.134.567.134.322 0 .525-.168.742-.68L174.15 2.33h.596l1.317 3.02 1.163-3.02h.574l-1.52 3.74z"/></g><path fill="#939598" d="M109.48 158.953c0 .828-.503 1.252-.998 1.468.747.226 1.35.658 1.35 1.53 0 1.09-.91 1.73-2.287 1.73h-2.8v-6.302h2.683c1.243 0 2.053.612 2.053 1.575zm-.72.1c0-.63-.494-1.036-1.394-1.036h-1.918v2.17h1.864c.855 0 1.45-.387 1.45-1.134zm.353 2.853c0-.693-.576-1.09-1.675-1.09h-1.99v2.224h2.116c.954 0 1.55-.423 1.55-1.134zM111.397 159.917l-.207-.567c.513-.234 1.017-.388 1.692-.388 1.27 0 1.98.648 1.98 1.873v2.845h-.666v-.702c-.324.423-.864.8-1.684.8-.864 0-1.737-.484-1.737-1.457 0-.99.81-1.512 1.99-1.512.593 0 1.017.08 1.43.198v-.162c0-.837-.512-1.27-1.386-1.27-.55 0-.98.145-1.413.343zm.08 2.376c0 .595.54.937 1.17.937.856 0 1.558-.522 1.558-1.26v-.45c-.342-.1-.8-.198-1.368-.198-.873 0-1.36.377-1.36.97z"/><g fill="#939598"><path d="M117.184 162.357c0 .567.315.774.783.774.234 0 .432-.044.675-.16v.593a1.743 1.743 0 0 1-.837.198c-.747 0-1.314-.368-1.314-1.313v-2.81h-.647v-.61h.648v-1.405h.694v1.404h1.477v.612h-1.476v2.72zM120.577 163.68h-.693v-6.572h.693v2.73c.306-.506.792-.91 1.594-.91 1.126 0 1.783.756 1.783 1.863v2.89h-.693v-2.718c0-.864-.468-1.404-1.288-1.404-.8 0-1.396.585-1.396 1.458v2.664z"/></g><path fill="#939598" d="M270.112 126.715v4.902h-.554v-4.902h.554zM272.653 131.688a2.49 2.49 0 0 1-1.5-.532l.274-.386c.393.294.826.463 1.254.463.435 0 .75-.225.75-.575v-.014c0-.364-.427-.504-.903-.638-.567-.16-1.197-.356-1.197-1.022v-.014c0-.623.518-1.036 1.232-1.036.44 0 .932.153 1.303.398l-.245.406c-.337-.217-.722-.35-1.07-.35-.43 0-.702.224-.702.525v.014c0 .343.45.477.932.623.56.168 1.163.386 1.163 1.037v.014c0 .688-.568 1.088-1.29 1.088z"/><g fill="#939598"><path d="M274.892 131.617v-5.112h.54v5.112h-.54zM276.894 128.69l-.16-.44c.398-.183.79-.302 1.316-.302.986 0 1.54.504 1.54 1.457v2.213h-.52v-.546c-.25.33-.67.623-1.31.623-.67 0-1.35-.378-1.35-1.135 0-.77.63-1.177 1.547-1.177.463 0 .79.063 1.113.154v-.126c0-.65-.398-.986-1.078-.986-.426 0-.762.11-1.098.266zm.063 1.85c0 .46.42.727.91.727.666 0 1.213-.406 1.213-.98v-.35a3.78 3.78 0 0 0-1.064-.154c-.68 0-1.06.293-1.06.756z"/></g><path fill="#939598" d="M281.275 131.617h-.54v-3.62h.54v.63c.238-.393.617-.708 1.24-.708.875 0 1.387.588 1.387 1.45v2.247h-.54v-2.115c0-.672-.363-1.093-1-1.093-.624 0-1.087.454-1.087 1.134v2.073zM287.88 131.617v-.73c-.294.436-.722.807-1.388.807-.867 0-1.73-.687-1.73-1.884 0-1.19.863-1.892 1.73-1.892.673 0 1.107.364 1.387.77v-2.184h.54v5.112h-.54zm-1.29-3.214c-.7 0-1.273.52-1.273 1.4 0 .862.588 1.408 1.274 1.408.674 0 1.31-.56 1.31-1.407 0-.84-.637-1.4-1.31-1.4zM164.277 201.3h-2.99v1.675h2.676v.505h-2.676v1.716h3.025v.504h-3.58v-4.902h3.544v.503zM165.872 205.7h-.54v-3.622h.54v.63c.238-.392.616-.707 1.24-.707.875 0 1.386.59 1.386 1.45v2.25h-.54v-2.116c0-.672-.362-1.093-1-1.093-.624 0-1.086.456-1.086 1.136v2.073z"/><g fill="#939598"><path d="M170.324 204.67c0 .44.245.603.61.603.18 0 .335-.035.524-.127v.463c-.19.097-.393.153-.65.153-.582 0-1.023-.288-1.023-1.023v-2.185h-.504v-.477h.505v-1.093h.54v1.093h1.147v.477h-1.148v2.115zM172.963 205.7h-.54v-3.622h.54v.945c.267-.602.792-1.036 1.48-1.008v.58h-.044c-.792 0-1.437.568-1.437 1.66v1.444zM177.023 205.82c-.308.748-.658 1.02-1.204 1.02a1.65 1.65 0 0 1-.772-.18l.182-.43c.176.092.337.134.568.134.322 0 .525-.168.742-.68l-1.646-3.606h.596l1.316 3.02 1.163-3.02h.573l-1.52 3.74z"/></g><g fill="#939598"><path d="M262.112 169.932h-.892l-2.422-3.052-1.34 1.36v1.69h-.713v-6.3h.712v3.762l3.62-3.763h.917l-2.7 2.754 2.818 3.548zM263.118 164.26v-.765h.792v.765h-.792zm.046 5.672v-4.654h.692v4.654h-.692zM266.404 168.61c0 .566.314.773.783.773.234 0 .432-.045.675-.162v.595a1.743 1.743 0 0 1-.837.198c-.748 0-1.314-.37-1.314-1.314v-2.81h-.647v-.612h.648v-1.404h.694v1.404h1.477v.612h-1.476v2.72zM271.067 170.04c-1.36 0-2.386-1.107-2.386-2.422 0-1.323 1.027-2.44 2.387-2.44.882 0 1.43.37 1.863.83l-.46.484c-.368-.387-.782-.702-1.412-.702-.945 0-1.666.802-1.666 1.81 0 1.018.738 1.82 1.71 1.82.595 0 1.054-.3 1.423-.694l.44.414c-.467.52-1.025.9-1.898.9zM274.8 169.932h-.69v-6.572h.69v2.73c.308-.506.794-.91 1.595-.91 1.125 0 1.783.756 1.783 1.863v2.89h-.693v-2.72c0-.863-.47-1.403-1.287-1.403-.802 0-1.396.585-1.396 1.458v2.664zM281.705 169.437c.64 0 1.09-.26 1.467-.657l.433.387c-.468.522-1.036.874-1.918.874-1.278 0-2.322-.98-2.322-2.43 0-1.35.945-2.432 2.232-2.432 1.378 0 2.17 1.1 2.17 2.467 0 .063 0 .136-.01.217h-3.69c.1 1.007.818 1.575 1.638 1.575zm1.36-2.09c-.073-.845-.56-1.583-1.487-1.583-.81 0-1.422.675-1.512 1.584h2.998zM285.674 169.932h-.693v-4.654h.694v.81c.306-.504.792-.91 1.594-.91 1.125 0 1.78.758 1.78 1.865v2.89h-.69v-2.72c0-.863-.47-1.403-1.29-1.403-.8 0-1.394.585-1.394 1.458v2.664z"/></g><g fill="#939598"><path d="M212.44 149.072v-.455l4.097-1.345-4.083-1.4v-.582l4.938 1.752v.47l-3.98 1.344 3.98 1.352v.462l-4.938 1.752v-.604l4.083-1.4-4.098-1.346zM211.767 142.086l6.485 3.25v.497l-6.485-3.25v-.497zM217.356 139.735v1.702h-4.902v-1.702c0-1.54 1.058-2.605 2.444-2.605s2.458 1.064 2.458 2.605zm-4.39 0v1.148h3.88v-1.148c0-1.24-.84-2.03-1.934-2.03s-1.947.79-1.947 2.03z"/></g><g fill="#939598"><path d="M205.584 192.675c0 1.415-1.113 2.458-2.528 2.458-1.4 0-2.542-1.036-2.542-2.48 0-.89.314-1.42.777-1.91l.407.377c-.393.413-.673.876-.673 1.54 0 1.086.876 1.898 2.018 1.898s2.03-.82 2.03-1.898c0-.672-.26-1.113-.707-1.582l.357-.364c.52.51.862 1.07.862 1.96zM205.5 189.792h-5.112v-.54h5.112v.54zM205.584 186.348c0 1.086-.854 1.877-1.884 1.877s-1.898-.8-1.898-1.89c0-1.087.854-1.886 1.884-1.886 1.03 0 1.898.805 1.898 1.898zm-3.306 0c0 .784.623 1.323 1.407 1.323.785 0 1.415-.573 1.415-1.336 0-.785-.623-1.332-1.4-1.332-.792 0-1.422.582-1.422 1.346zM205.57 182.28a2.49 2.49 0 0 1-.532 1.5l-.386-.274c.294-.392.463-.826.463-1.254 0-.434-.225-.75-.575-.75h-.014c-.364 0-.504.428-.638.904-.16.568-.356 1.198-1.022 1.198h-.014c-.623 0-1.036-.52-1.036-1.233 0-.44.153-.93.398-1.302l.406.246c-.217.336-.35.72-.35 1.07 0 .428.224.7.525.7h.014c.342 0 .476-.447.622-.93.168-.562.386-1.163 1.037-1.163h.013c.688.002 1.087.57 1.087 1.29zM205.115 178.396c0-.497-.203-.848-.512-1.142l.3-.336c.407.363.68.805.68 1.492 0 .994-.763 1.807-1.89 1.807-1.05 0-1.892-.736-1.892-1.737 0-1.07.855-1.688 1.92-1.688.05 0 .105 0 .168.008v2.87c.786-.076 1.227-.637 1.227-1.274zm-1.625-1.058c-.658.057-1.233.434-1.233 1.156 0 .63.525 1.105 1.233 1.176v-2.332zM204.47 175.12c.44 0 .603-.245.603-.61 0-.182-.035-.336-.127-.524h.463c.097.188.153.392.153.65 0 .582-.288 1.023-1.023 1.023h-2.185v.504h-.477v-.505h-1.093v-.54h1.093v-1.15h.477v1.15h2.115z"/></g><g fill="#939598"><path d="M29.523 170.7c-1.415 0-2.458-1.114-2.458-2.53 0-1.4 1.037-2.54 2.48-2.54.89 0 1.42.313 1.91.776l-.377.406c-.413-.393-.875-.673-1.54-.673-1.087 0-1.9.875-1.9 2.017s.82 2.03 1.9 2.03c.67 0 1.112-.26 1.582-.707l.364.357c-.51.52-1.07.862-1.96.862zM32.406 170.615v-5.112h.54v5.112h-.54zM35.85 170.7c-1.085 0-1.876-.855-1.876-1.885s.798-1.898 1.89-1.898c1.087 0 1.885.854 1.885 1.884 0 1.03-.807 1.9-1.9 1.9zm0-3.306c-.784 0-1.323.623-1.323 1.407 0 .786.574 1.416 1.337 1.416.785 0 1.33-.623 1.33-1.4.002-.792-.58-1.422-1.343-1.422zM39.917 170.686a2.494 2.494 0 0 1-1.5-.532l.274-.386c.393.294.828.463 1.255.463.434 0 .75-.224.75-.574v-.014c0-.364-.427-.504-.904-.638-.566-.16-1.197-.356-1.197-1.022v-.014c0-.623.52-1.036 1.233-1.036.44 0 .932.153 1.303.398l-.246.406c-.336-.217-.722-.35-1.072-.35-.427 0-.7.224-.7.525v.015c0 .343.448.477.932.623.56.168 1.163.386 1.163 1.037v.014c0 .686-.568 1.086-1.29 1.086zM43.802 170.23c.497 0 .848-.202 1.142-.51l.336.3c-.364.406-.805.68-1.492.68-.995 0-1.807-.764-1.807-1.89 0-1.052.736-1.893 1.738-1.893 1.07 0 1.688.854 1.688 1.92 0 .05 0 .104-.007.167h-2.873c.078.785.638 1.227 1.275 1.227zm1.058-1.624c-.056-.658-.434-1.233-1.156-1.233-.63 0-1.106.525-1.177 1.233h2.333zM47.078 169.586c0 .44.245.603.61.603.18 0 .335-.036.524-.128v.463c-.19.098-.392.154-.65.154-.582 0-1.023-.29-1.023-1.024v-2.185h-.505v-.476h.504V165.9h.538v1.094h1.15v.477h-1.15v2.116z"/></g><g fill="#939598"><path d="M305.43 190.033l-1.422-1.905h-1.4v1.905h-.554v-4.902h2.108c1.078 0 1.77.582 1.77 1.465 0 .82-.56 1.295-1.33 1.436l1.506 2.004h-.678zm-1.31-4.39h-1.513v1.988h1.506c.736 0 1.262-.377 1.262-1.015 0-.61-.463-.973-1.254-.973zM308.55 189.65c.5 0 .85-.204 1.144-.513l.336.3c-.364.407-.806.68-1.492.68-.994 0-1.807-.763-1.807-1.89 0-1.05.736-1.892 1.737-1.892 1.072 0 1.688.854 1.688 1.92 0 .05 0 .104-.007.167h-2.872c.077.785.638 1.227 1.275 1.227zm1.06-1.626c-.058-.658-.436-1.233-1.157-1.233-.63 0-1.106.526-1.177 1.234h2.333zM312.982 186.426v.463h-1.142v3.144h-.54v-3.145h-.496v-.47h.497v-.315c0-.792.4-1.212 1.094-1.212.252 0 .42.028.595.09v.47a1.77 1.77 0 0 0-.525-.09c-.42 0-.63.252-.63.77v.294h1.147z"/></g><g fill="#939598"><path d="M260.45 145.365h-1.703v-4.902h1.702c1.54 0 2.604 1.058 2.604 2.444s-1.064 2.458-2.605 2.458zm0-4.39h-1.15v3.88h1.15c1.238 0 2.03-.84 2.03-1.934s-.792-1.946-2.03-1.946zM266.94 140.448h.454l1.345 4.098 1.4-4.083h.58l-1.75 4.938h-.47l-1.345-3.978-1.352 3.98h-.463l-1.75-4.94h.602l1.4 4.084 1.347-4.098z"/></g><g fill="#939598"><path d="M175.52 66.398h.71v5.645h3.547v.657h-4.258v-6.302zM180.99 67.028v-.765h.793v.765h-.792zm.046 5.67v-4.653h.692V72.7h-.692zM186.788 68.045h.747l-2.025 4.69h-.612l-2.017-4.69h.767l1.566 3.862 1.575-3.862zM188.64 67.028v-.765h.793v.765h-.793zm.045 5.67v-4.653h.693V72.7h-.693zM191.682 72.7h-.692v-4.655h.692v.81c.306-.504.792-.91 1.594-.91 1.125 0 1.782.758 1.782 1.865v2.89h-.693v-2.72c0-.863-.468-1.403-1.287-1.403-.8 0-1.396.585-1.396 1.458V72.7zM198.595 74.157a3.655 3.655 0 0 1-2.116-.647l.314-.54c.53.387 1.125.594 1.79.594 1.027 0 1.694-.567 1.694-1.656v-.55c-.406.54-.973.98-1.828.98-1.116 0-2.188-.827-2.188-2.187 0-1.367 1.08-2.205 2.188-2.205.873 0 1.44.433 1.818.937v-.837h.693v3.844c.003 1.503-.934 2.267-2.365 2.267zm-.01-5.6c-.88 0-1.61.605-1.61 1.577 0 .954.747 1.593 1.61 1.593.884 0 1.712-.63 1.712-1.584 0-.964-.828-1.585-1.71-1.585zM206.363 65.515l-4.178 8.337h-.64l4.178-8.337h.64zM209.386 72.7h-2.188v-6.303h2.188c1.98 0 3.348 1.36 3.348 3.142 0 1.783-1.367 3.16-3.348 3.16zm0-5.645h-1.477v4.987h1.476c1.593 0 2.61-1.08 2.61-2.484s-1.017-2.503-2.61-2.503zM214.137 67.028v-.765h.792v.765h-.793zm.045 5.67v-4.653h.692V72.7h-.692zM217.18 72.7h-.694v-4.655h.693v.81c.305-.504.79-.91 1.593-.91 1.125 0 1.78.758 1.78 1.865v2.89h-.69v-2.72c0-.863-.47-1.403-1.29-1.403-.8 0-1.394.585-1.394 1.458V72.7zM222.048 67.028v-.765h.792v.765h-.792zm.046 5.67v-4.653h.692V72.7h-.692zM225.09 72.7h-.692v-4.655h.692v.81c.307-.504.793-.91 1.594-.91 1.125 0 1.783.758 1.783 1.865v2.89h-.693v-2.72c0-.863-.47-1.403-1.287-1.403-.802 0-1.396.585-1.396 1.458V72.7zM232.003 74.157a3.657 3.657 0 0 1-2.116-.647l.315-.54c.53.387 1.126.594 1.792.594 1.025 0 1.692-.567 1.692-1.656v-.55c-.405.54-.973.98-1.827.98-1.118 0-2.19-.827-2.19-2.187 0-1.367 1.082-2.205 2.19-2.205.872 0 1.438.433 1.817.937v-.837h.693v3.844c0 1.503-.937 2.267-2.367 2.267zm-.01-5.6c-.882 0-1.61.605-1.61 1.577 0 .954.746 1.593 1.61 1.593.883 0 1.71-.63 1.71-1.584 0-.964-.827-1.585-1.71-1.585zM243.073 72.7l-1.827-2.45h-1.8v2.45h-.712v-6.303h2.71c1.386 0 2.277.747 2.277 1.882 0 1.052-.72 1.664-1.71 1.844l1.937 2.575h-.874zm-1.684-5.645h-1.945v2.557h1.936c.946 0 1.622-.486 1.622-1.306 0-.783-.595-1.25-1.613-1.25zM247.158 72.808c-1.395 0-2.412-1.1-2.412-2.422s1.026-2.44 2.43-2.44c1.397 0 2.422 1.1 2.422 2.422 0 1.324-1.036 2.44-2.44 2.44zm0-4.25c-1.008 0-1.7.802-1.7 1.81 0 1.01.737 1.82 1.72 1.82 1.008 0 1.71-.803 1.71-1.802-.002-1.018-.748-1.828-1.73-1.828zM252.972 72.808c-1.396 0-2.412-1.1-2.412-2.422s1.025-2.44 2.43-2.44c1.396 0 2.422 1.1 2.422 2.422 0 1.324-1.035 2.44-2.44 2.44zm0-4.25c-1.008 0-1.7.802-1.7 1.81 0 1.01.737 1.82 1.718 1.82 1.01 0 1.71-.803 1.71-1.802 0-1.018-.746-1.828-1.728-1.828zM261.992 67.946c1.07 0 1.73.72 1.73 1.873v2.88h-.694v-2.72c0-.9-.45-1.403-1.207-1.403-.7 0-1.286.52-1.286 1.44V72.7h-.685v-2.736c0-.874-.46-1.387-1.198-1.387s-1.296.612-1.296 1.467V72.7h-.693v-4.654h.693v.783c.306-.46.72-.884 1.503-.884.756 0 1.242.405 1.494.928.33-.513.827-.928 1.638-.928z"/></g><g fill="#939598"><path d="M195 79.027l-.523-.378c.567-.847 1.162-1.342 2.27-1.342 1.143 0 1.953.756 1.953 1.79 0 .93-.486 1.496-1.594 2.46l-1.684 1.493h3.34v.65h-4.402v-.55l2.287-2.017c.963-.864 1.314-1.35 1.314-1.98 0-.738-.584-1.207-1.27-1.207-.72 0-1.186.378-1.69 1.08zM200.39 79.027l-.522-.378c.567-.847 1.16-1.342 2.27-1.342 1.143 0 1.952.756 1.952 1.79 0 .93-.486 1.496-1.594 2.46l-1.683 1.493h3.34v.65h-4.402v-.55l2.287-2.017c.964-.864 1.314-1.35 1.314-1.98 0-.738-.583-1.207-1.27-1.207-.718 0-1.186.378-1.69 1.08zM205.565 77.398h.847v.045l-.73 2.403h-.387l.27-2.448zM209.75 83.79c-1.34 0-2.367-.73-2.367-1.792 0-.757.54-1.288 1.297-1.558-.586-.27-1.08-.72-1.08-1.46 0-.98.998-1.673 2.15-1.673s2.152.693 2.152 1.674c0 .74-.496 1.19-1.08 1.46.746.28 1.296.792 1.296 1.548 0 1.082-1.026 1.8-2.368 1.8zm0-3.016c-.918 0-1.646.495-1.646 1.206 0 .648.61 1.188 1.646 1.188s1.648-.54 1.648-1.188c0-.71-.73-1.206-1.648-1.206zm0-2.845c-.818 0-1.44.458-1.44 1.097 0 .693.64 1.162 1.44 1.162.802 0 1.44-.47 1.44-1.163 0-.63-.62-1.098-1.44-1.098zM213.44 77.398h.837v.045l-.73 2.403h-.377l.27-2.448zm1.764 0h.83v.045l-.73 2.403h-.378l.278-2.448zM224.06 83.7h-.8l-1.442-1.9-1.45 1.9h-.772l1.827-2.37-1.755-2.285h.79l1.38 1.8 1.377-1.8h.773l-1.764 2.27 1.836 2.384zM228.902 77.353h.52V83.7h-.7v-5.608l-1.19.37-.17-.577 1.54-.532zM232.123 77.353h.522V83.7h-.702v-5.608l-1.188.37-.172-.577 1.54-.532zM234.41 77.398h.846v.045l-.73 2.403h-.387l.27-2.448zM236.542 78.036v-.64h4.024v.523l-1.98 2.195c1.107.09 2.08.62 2.08 1.782 0 1.135-.938 1.91-2.107 1.91-1.054 0-1.837-.46-2.35-1.127l.513-.46c.485.596 1.07.938 1.845.938.766 0 1.378-.486 1.378-1.233 0-.792-.72-1.225-1.765-1.225h-.404l-.145-.423 1.99-2.242h-3.078zM242.13 77.398h.84v.045l-.73 2.403h-.378l.27-2.448zm1.765 0h.83v.045l-.73 2.403h-.378l.278-2.448z"/></g><g fill="#939598"><path d="M44.224 67.305c0 .828-.504 1.252-1 1.468.748.225 1.35.657 1.35 1.53 0 1.09-.908 1.73-2.286 1.73h-2.8V65.73h2.683c1.244 0 2.054.612 2.054 1.575zm-.72.1c0-.63-.495-1.036-1.395-1.036h-1.92v2.17h1.865c.855-.002 1.45-.388 1.45-1.135zm.352 2.853c0-.693-.576-1.09-1.675-1.09h-1.99v2.224h2.117c.954 0 1.55-.423 1.55-1.134zM47.923 71.536c.64 0 1.09-.26 1.468-.657l.433.386c-.468.522-1.036.874-1.918.874-1.278 0-2.322-.98-2.322-2.43 0-1.352.945-2.433 2.232-2.433 1.377 0 2.17 1.1 2.17 2.467 0 .063 0 .136-.01.217h-3.69c.1 1.01.82 1.576 1.638 1.576zm1.36-2.088c-.073-.846-.56-1.584-1.486-1.584-.81 0-1.422.675-1.512 1.584h2.997zM54.934 72.03v-.936c-.378.56-.927 1.035-1.782 1.035-1.117 0-2.224-.883-2.224-2.422 0-1.53 1.107-2.432 2.224-2.432.864 0 1.422.47 1.782.99v-2.81h.693v6.573h-.693zm-1.656-4.13c-.9 0-1.64.666-1.64 1.8 0 1.107.757 1.81 1.64 1.81.864 0 1.684-.72 1.684-1.81 0-1.08-.82-1.8-1.684-1.8zM57.867 72.03h-.693v-4.653h.693v1.215c.342-.773 1.018-1.332 1.9-1.296v.747h-.054c-1.017 0-1.846.73-1.846 2.134v1.854zM62.746 72.14c-1.396 0-2.413-1.1-2.413-2.422s1.026-2.44 2.43-2.44c1.397 0 2.422 1.1 2.422 2.422 0 1.324-1.035 2.44-2.44 2.44zm0-4.25c-1.008 0-1.702.802-1.702 1.81 0 1.01.738 1.82 1.72 1.82 1.008 0 1.71-.803 1.71-1.802 0-1.018-.747-1.828-1.728-1.828zM68.56 72.14c-1.396 0-2.413-1.1-2.413-2.422s1.026-2.44 2.43-2.44c1.397 0 2.422 1.1 2.422 2.422 0 1.324-1.036 2.44-2.44 2.44zm0-4.25c-1.008 0-1.702.802-1.702 1.81 0 1.01.738 1.82 1.72 1.82 1.008 0 1.71-.803 1.71-1.802 0-1.018-.747-1.828-1.728-1.828zM77.58 67.278c1.07 0 1.728.72 1.728 1.873v2.882h-.693v-2.72c0-.9-.45-1.403-1.207-1.403-.702 0-1.287.52-1.287 1.44v2.682h-.684v-2.736c0-.874-.46-1.387-1.197-1.387s-1.297.61-1.297 1.466v2.656h-.693v-4.654h.693v.783c.306-.458.72-.882 1.503-.882.756 0 1.243.405 1.495.928.333-.513.828-.928 1.64-.928z"/></g><g fill="#939598"><path d="M36.254 76.685h.522v6.347h-.702v-5.608l-1.188.37-.17-.577 1.538-.532zM38.756 78.36l-.522-.38c.567-.845 1.16-1.34 2.27-1.34 1.142 0 1.953.756 1.953 1.79 0 .93-.486 1.496-1.594 2.46l-1.683 1.493h3.34v.648h-4.402v-.548l2.287-2.017c.963-.864 1.314-1.35 1.314-1.98 0-.738-.586-1.207-1.27-1.207-.722 0-1.19.378-1.694 1.08zM43.93 76.73h.847v.045l-.73 2.403h-.387l.27-2.448zM48.494 83.14c-1.63 0-2.656-1.477-2.656-3.25s1.044-3.27 2.674-3.27c1.62 0 2.647 1.478 2.647 3.25s-1.045 3.27-2.666 3.27zm0-5.87c-1.18 0-1.917 1.206-1.917 2.602s.756 2.62 1.936 2.62 1.91-1.216 1.91-2.602c-.002-1.387-.75-2.62-1.93-2.62zM52.57 76.73h.838v.045l-.73 2.403h-.377l.27-2.448zm1.765 0h.83v.045l-.73 2.403h-.378l.278-2.448zM63.192 83.03h-.802l-1.44-1.898-1.45 1.9h-.773l1.828-2.37-1.755-2.285h.792l1.377 1.8 1.376-1.8h.774l-1.765 2.27 1.837 2.384zM68.032 76.685h.522v6.347h-.702v-5.608l-1.188.37-.17-.577 1.538-.532zM71.254 76.685h.522v6.347h-.702v-5.608l-1.188.37-.17-.577 1.538-.532zM73.54 76.73h.846v.045l-.73 2.403h-.386l.27-2.448zM75.673 77.368v-.638h4.024v.522l-1.98 2.196c1.106.09 2.08.62 2.08 1.782 0 1.135-.937 1.91-2.107 1.91-1.053 0-1.836-.46-2.35-1.127l.513-.46c.486.596 1.07.938 1.846.938.764 0 1.376-.485 1.376-1.232 0-.792-.72-1.225-1.764-1.225h-.405l-.144-.423 1.99-2.242h-3.08zM81.262 76.73h.837v.045l-.73 2.403h-.378l.27-2.448zm1.764 0h.83v.045l-.73 2.403h-.378l.278-2.448z"/></g><g fill="#939598"><path d="M235.735 198.205v1.19h1.73v.554h-4.903v-1.836c0-1.106.588-1.835 1.562-1.835 1.064 0 1.61.882 1.61 1.925zm-2.662-.05v1.24h2.157v-1.212c0-.812-.434-1.344-1.085-1.344-.708 0-1.072.525-1.072 1.316zM234.537 195.225l-.44.16c-.183-.398-.302-.79-.302-1.316 0-.988.504-1.542 1.457-1.542h2.213v.52h-.546c.328.252.622.672.622 1.31 0 .672-.378 1.35-1.135 1.35-.77 0-1.177-.63-1.177-1.546 0-.463.063-.792.154-1.114h-.126c-.65 0-.987.4-.987 1.08 0 .424.113.76.267 1.097zm1.85-.064c.46 0 .727-.42.727-.91 0-.664-.406-1.21-.98-1.21h-.35a3.775 3.775 0 0 0-.154 1.063c0 .68.294 1.058.756 1.058zM237.465 190.842v.54h-3.62v-.54h.63c-.393-.238-.708-.615-.708-1.24 0-.875.59-1.386 1.45-1.386h2.248v.54h-2.115c-.672 0-1.093.363-1.093 1 0 .624.455 1.086 1.135 1.086h2.073z"/></g><path fill="#939598" d="M236.435 186.9c.44 0 .603-.245.603-.608 0-.183-.035-.337-.127-.525h.464c.098.188.154.392.154.65 0 .582-.288 1.023-1.023 1.023h-2.185v.504h-.477v-.504h-1.093v-.54h1.093v-1.148h.477v1.15h2.115zM237.465 184.255v.54h-3.62v-.54h.944c-.603-.267-1.037-.792-1.01-1.478h.582v.042c0 .79.567 1.435 1.66 1.435h1.443zM237.584 180.04c.75.308 1.022.658 1.022 1.204 0 .302-.063.525-.182.77l-.428-.182c.09-.175.133-.337.133-.567 0-.322-.17-.525-.68-.742l-3.607 1.646v-.596l3.02-1.317-3.02-1.163v-.574l3.74 1.52z"/></g></svg>