<?xml version="1.0" encoding="utf-8"?>
<!-- Generator: Adobe Illustrator 15.0.2, SVG Export Plug-In . SVG Version: 6.00 Build 0)  -->
<!DOCTYPE svg PUBLIC "-//W3C//DTD SVG 1.1//EN" "http://www.w3.org/Graphics/SVG/1.1/DTD/svg11.dtd">
<svg version="1.1" xmlns="http://www.w3.org/2000/svg" xmlns:xlink="http://www.w3.org/1999/xlink" x="0px" y="0px"
	 width="337.797px" height="333.926px" viewBox="0 0 337.797 333.926" enable-background="new 0 0 337.797 333.926"
	 xml:space="preserve">
<g id="_x32_0_x25___PMS_2985_fill">
	<polygon fill="#FFFFFF" points="1.512,18.65 1.512,332.441 178.012,332.441 178.012,316.941 233.012,316.941 233.012,331.441 
		336.512,331.441 336.512,18.441 216.512,18.441 216.512,8.941 127.512,8.941 127.512,15.941 101.012,15.941 101.012,19.441 	"/>
</g>
<g id="_x33_0_x25__grey_fill">
	<rect x="234.262" y="310.707" fill="#D1D3D4" width="22.25" height="21.484"/>
	<rect x="310.512" y="308.055" fill="#D1D3D4" width="24.785" height="23.295"/>
	<rect x="101.127" y="17.307" fill="#D1D3D4" width="32.635" height="9.135"/>
	<rect x="209.654" y="17.307" fill="#D1D3D4" width="38.949" height="8.627"/>
	<rect x="323.512" y="20.441" fill="#D1D3D4" width="12.25" height="5.75"/>
	<rect x="2.5" y="20.664" fill="#D1D3D4" width="24.762" height="5.027"/>
</g>
<g id="icons">
	<polyline fill="#FFFFFF" stroke="#939598" points="114.916,206.441 114.916,310.608 177.679,310.608 177.679,331.426 
		93.345,331.426 93.345,206.275 113.582,206.275 	"/>
	<g>
		<rect x="138.012" y="18.891" fill="none" stroke="#939598" width="37.5" height="1.98"/>
		<rect x="166.762" y="20.855" fill="none" stroke="#939598" width="41" height="1.766"/>
	</g>
	<g>
		<rect x="214.262" y="9.566" fill="none" stroke="#939598" width="2.875" height="2.875"/>
		<rect x="127.762" y="9.566" fill="none" stroke="#939598" width="2.875" height="2.875"/>
		<line fill="none" stroke="#939598" x1="214.512" y1="11.691" x2="130.637" y2="11.691"/>
		<line fill="none" stroke="#939598" x1="214.262" y1="12.441" x2="214.262" y2="15.941"/>
		<line fill="none" stroke="#939598" x1="130.08" y1="12.441" x2="130.08" y2="17.066"/>
		<line fill="none" stroke="#939598" x1="127.762" y1="12.441" x2="127.762" y2="16.816"/>
		<line fill="none" stroke="#939598" x1="130.637" y1="9.566" x2="214.762" y2="9.566"/>
		<line fill="none" stroke="#939598" x1="217.137" y1="12.441" x2="217.137" y2="15.957"/>
	</g>
	<line fill="none" stroke="#939598" x1="101.845" y1="26.691" x2="27.512" y2="26.691"/>
	<line fill="none" stroke="#939598" x1="322.762" y1="26.96" x2="248.429" y2="26.96"/>
	<g>
		<polygon fill="none" stroke="#939598" points="64.778,175.602 63.129,175.653 63.114,199.429 64.785,199.441 		"/>
		<path fill="none" stroke="#939598" d="M64.032,199.46c-13.114-0.445-23.383-11.246-22.936-24.359"/>
	</g>
	<g>
		<polygon fill="none" stroke="#939598" points="264.327,259.188 265.997,259.196 266.013,283.015 264.342,283.006 		"/>
		<path fill="none" stroke="#939598" d="M265.095,283.024c13.114-0.445,23.383-11.225,22.936-24.338"/>
	</g>
	<g>
		<polygon fill="none" stroke="#939598" points="64.733,251.483 63.063,251.496 63.047,227.678 64.761,227.665 		"/>
		<path fill="none" stroke="#939598" d="M64.03,227.646c-13.114,0.445-23.383,11.289-22.936,24.402"/>
	</g>
	<g>
		<polygon fill="none" stroke="#939598" points="272.876,196.96 272.885,195.374 295.512,195.358 295.504,196.946 		"/>
		<path fill="none" stroke="#939598" d="M295.521,196.23c-0.424-12.458-10.664-22.214-23.121-21.788"/>
	</g>
	<g>
		<polygon fill="none" stroke="#939598" points="242.609,220.472 244.279,220.484 244.295,196.666 242.581,196.653 		"/>
		<path fill="none" stroke="#939598" d="M243.312,196.635c13.114,0.445,23.383,11.289,22.936,24.402"/>
	</g>
	<g>
		<polygon fill="none" stroke="#939598" points="233.824,298.302 234.664,296.956 215.535,284.869 214.695,286.216 		"/>
		<path fill="none" stroke="#939598" d="M246.242,279.513"/>
		<path fill="none" stroke="#939598" d="M215.062,285.602c4.343-6.389,11.319-9.889,18.45-9.959"/>
	</g>
	<g>
		<polygon fill="none" stroke="#939598" points="113.712,167.792 113.703,166.207 91.076,166.191 91.084,167.779 		"/>
		<path fill="none" stroke="#939598" d="M91.066,167.063c0.424-12.458,10.664-22.321,23.121-21.896"/>
	</g>
	<g>
		<polygon fill="none" stroke="#939598" points="304.512,228.442 304.503,230.028 281.876,230.044 281.884,228.456 		"/>
		<path fill="none" stroke="#939598" d="M281.866,229.172c0.424,12.458,10.664,22.214,23.121,21.788"/>
	</g>
	<g>
		<polygon fill="none" stroke="#939598" points="113.564,181.726 113.571,182.995 131.672,183.007 131.666,181.737 		"/>
		<path fill="none" stroke="#939598" d="M131.68,182.31c-0.339,9.967-8.531,17.771-18.497,17.43"/>
	</g>
	
		<rect x="136.048" y="254.442" transform="matrix(0.7071 0.7072 -0.7072 0.7071 233.137 -34.6472)" fill="#FFFFFF" stroke="#939598" width="44.678" height="19.251"/>
	<line fill="none" stroke="#939598" x1="245.012" y1="260.441" x2="245.012" y2="310.691"/>
	<line fill="none" stroke="#939598" x1="78.262" y1="176.691" x2="78.262" y2="249.871"/>
	<polyline fill="none" stroke="#939598" points="34.012,176.941 34.012,185.941 13.262,185.941 13.262,240.441 34.762,240.441 
		34.762,251.191 	"/>
	<line fill="none" stroke="#939598" x1="100.762" y1="176.941" x2="100.762" y2="206.191"/>
	<polyline fill="none" stroke="#939598" points="274.762,163.441 324.762,163.441 324.762,208.941 275.012,208.941 	"/>
	
		<line fill="none" stroke="#939598" stroke-dasharray="1.5,1.5,1.5,1.5,1.5,1.5" x1="80.656" y1="176.691" x2="80.656" y2="251.441"/>
	
		<line fill="none" stroke="#939598" stroke-dasharray="1.5,1.5,1.5,1.5,1.5,1.5" x1="98.617" y1="176.941" x2="98.617" y2="206.691"/>
	
		<line fill="none" stroke="#939598" stroke-dasharray="1.5,1.5,1.5,1.5,1.5,1.5" x1="247.32" y1="259.691" x2="247.32" y2="310.191"/>
	<polyline fill="none" stroke="#939598" stroke-dasharray="1.5,1.5,1.5,1.5,1.5,1.5" points="274.512,160.918 327.244,160.918 
		327.244,211.287 274.762,211.287 	"/>
	<polyline fill="none" stroke="#939598" stroke-dasharray="1.5,1.5,1.5,1.5,1.5,1.5" points="33.512,183.312 10.711,183.312 
		10.711,242.793 34.762,242.793 	"/>
	<polyline fill="#FFFFFF" stroke="#939598" points="286.262,329.941 286.262,311.953 309.679,311.953 309.679,331.942 	"/>
	<rect x="74.598" y="251.275" fill="#FFFFFF" stroke="#939598" width="19.572" height="79.666"/>
	<g>
		<g>
			<g>
				<g>
					<rect x="310.729" y="229.44" fill="#FFFFFF" stroke="#939598" width="18.545" height="20.188"/>
					<path fill="#FFFFFF" stroke="#939598" d="M319.385,239.534"/>
					<polyline fill="#FFFFFF" stroke="#939598" points="316.262,233.409 313.44,233.409 312.782,235.847 312.782,243.315 
						313.44,245.784 316.262,245.784 					"/>
					<line fill="#FFFFFF" stroke="#939598" x1="316.262" y1="249.774" x2="316.262" y2="229.44"/>
					<path fill="#FFFFFF" stroke="#939598" d="M318.438,239.597"/>
				</g>
			</g>
		</g>
		<polygon fill="#FFFFFF" stroke="#939598" points="315.045,248.646 315.041,247.016 316.179,246.657 316.184,249.005 		"/>
	</g>
	<g>
		<path fill="#FFFFFF" stroke="#939598" stroke-miterlimit="10" d="M279.38,316.406c0-4.462-2.711-9.376-6.053-9.376
			s-6.041,4.914-6.041,9.376c0,4.463,2.699,6.785,6.041,6.785S279.38,320.869,279.38,316.406"/>
		<path fill="#FFFFFF" stroke="#939598" d="M279.38,316.406c0-4.462-2.711-9.376-6.053-9.376s-6.041,4.914-6.041,9.376
			c0,4.463,2.699,6.785,6.041,6.785S279.38,320.869,279.38,316.406z"/>
		<path fill="#FFFFFF" stroke="#939598" stroke-miterlimit="10" d="M269.704,321.729c0-0.25-0.205-0.455-0.455-0.455h-2.107
			c-0.25,0-0.455,0.205-0.455,0.455v0.077c0,0.25,0.205,0.455,0.455,0.455h2.107c0.25,0,0.455-0.205,0.455-0.455V321.729z"/>
		<path fill="#FFFFFF" stroke="#939598" d="M269.704,321.729c0-0.25-0.205-0.455-0.455-0.455h-2.107
			c-0.25,0-0.455,0.205-0.455,0.455v0.077c0,0.25,0.205,0.455,0.455,0.455h2.107c0.25,0,0.455-0.205,0.455-0.455V321.729z"/>
		<path fill="#FFFFFF" stroke="#939598" stroke-miterlimit="10" d="M266.366,322.272c-0.758,0-1.375,2.057-1.375,2.816
			c0,0.769,0.617,2.825,1.375,2.825h13.814c0.76,0,1.375-2.057,1.375-2.825c0-0.76-0.615-2.814-1.375-2.814L266.366,322.272z"/>
		<path fill="#FFFFFF" stroke="#939598" d="M266.366,322.272c-0.758,0-1.375,2.057-1.375,2.816c0,0.769,0.617,2.825,1.375,2.825
			h13.814c0.76,0,1.375-2.057,1.375-2.825c0-0.76-0.615-2.814-1.375-2.814L266.366,322.272z"/>
		<path fill="#FFFFFF" stroke="#939598" stroke-miterlimit="10" d="M277.776,316.22c0-3.279-1.992-6.893-4.449-6.893
			s-4.447,3.613-4.447,6.893s1.99,4.985,4.447,4.985S277.776,319.499,277.776,316.22"/>
		<path fill="#FFFFFF" stroke="#939598" d="M277.776,316.22c0-3.279-1.992-6.893-4.449-6.893s-4.447,3.613-4.447,6.893
			s1.99,4.985,4.447,4.985S277.776,319.499,277.776,316.22z"/>
	</g>
	<g>
		<g>
			<g>
				<rect x="308.837" y="261.104" fill="#FFFFFF" stroke="#939598" width="24.496" height="46.75"/>
				<path fill="#FFFFFF" stroke="#939598" d="M321.104,285.104"/>
			</g>
			<g>
				<polyline fill="#FFFFFF" stroke="#939598" points="321.343,306.428 331.134,306.428 331.134,262.859 311.038,262.859 
					311.038,306.428 320.439,306.428 				"/>
				<path fill="#FFFFFF" stroke="#939598" d="M321.104,285.104"/>
			</g>
			<line fill="#FFFFFF" stroke="#939598" x1="311.038" y1="306.428" x2="320.428" y2="286.027"/>
			<line fill="#FFFFFF" stroke="#939598" x1="321.816" y1="284.207" x2="331.134" y2="262.859"/>
			<line fill="#FFFFFF" stroke="#939598" x1="311.038" y1="262.859" x2="320.336" y2="284.102"/>
			<line fill="#FFFFFF" stroke="#939598" x1="321.841" y1="286.061" x2="331.134" y2="306.428"/>
			<g>
				<path fill="#FFFFFF" stroke="#939598" d="M322.152,285.104c0-0.6-0.587-1.084-1.048-1.084c-0.46,0-0.975,0.484-0.975,1.084
					c0,0.598,0.515,1.084,0.975,1.084C321.565,286.188,322.152,285.701,322.152,285.104z"/>
				<path fill="#FFFFFF" stroke="#939598" d="M321.104,285.104"/>
			</g>
		</g>
		<path fill="#FFFFFF" stroke="#939598" d="M322.12,304.83c0-0.617-2.232-0.617-2.232,0s0.5,1.115,1.116,1.115
			C321.622,305.945,322.12,305.447,322.12,304.83z"/>
		<polyline fill="#FFFFFF" stroke="#939598" points="320.773,308.148 320.773,306.014 321.396,306.014 321.396,308.15 		"/>
	</g>
	<g>
		<path fill="#FFFFFF" stroke="#939598" stroke-miterlimit="10" d="M17.643,272.923c4.462,0,9.376-2.711,9.376-6.053
			s-4.914-6.041-9.376-6.041c-4.463,0-6.785,2.699-6.785,6.041S13.18,272.923,17.643,272.923"/>
		<path fill="#FFFFFF" stroke="#939598" d="M17.643,272.923c4.462,0,9.376-2.711,9.376-6.053s-4.914-6.041-9.376-6.041
			c-4.463,0-6.785,2.699-6.785,6.041S13.18,272.923,17.643,272.923z"/>
		<path fill="#FFFFFF" stroke="#939598" stroke-miterlimit="10" d="M12.321,263.247c0.25,0,0.455-0.205,0.455-0.455v-2.107
			c0-0.25-0.205-0.455-0.455-0.455h-0.077c-0.25,0-0.455,0.205-0.455,0.455v2.107c0,0.25,0.205,0.455,0.455,0.455H12.321z"/>
		<path fill="#FFFFFF" stroke="#939598" d="M12.321,263.247c0.25,0,0.455-0.205,0.455-0.455v-2.107c0-0.25-0.205-0.455-0.455-0.455
			h-0.077c-0.25,0-0.455,0.205-0.455,0.455v2.107c0,0.25,0.205,0.455,0.455,0.455H12.321z"/>
		<path fill="#FFFFFF" stroke="#939598" stroke-miterlimit="10" d="M11.777,259.909c0-0.758-2.057-1.375-2.816-1.375
			c-0.769,0-2.825,0.617-2.825,1.375v13.814c0,0.76,2.057,1.375,2.825,1.375c0.76,0,2.814-0.615,2.814-1.375L11.777,259.909z"/>
		<path fill="#FFFFFF" stroke="#939598" d="M11.777,259.909c0-0.758-2.057-1.375-2.816-1.375c-0.769,0-2.825,0.617-2.825,1.375
			v13.814c0,0.76,2.057,1.375,2.825,1.375c0.76,0,2.814-0.615,2.814-1.375L11.777,259.909z"/>
		<path fill="#FFFFFF" stroke="#939598" stroke-miterlimit="10" d="M17.83,271.319c3.279,0,6.893-1.992,6.893-4.449
			s-3.613-4.447-6.893-4.447s-4.985,1.99-4.985,4.447S14.55,271.319,17.83,271.319"/>
		<path fill="#FFFFFF" stroke="#939598" d="M17.83,271.319c3.279,0,6.893-1.992,6.893-4.449s-3.613-4.447-6.893-4.447
			s-4.985,1.99-4.985,4.447S14.55,271.319,17.83,271.319z"/>
	</g>
	<g>
		<g>
			<rect x="4.8" y="283.82" fill="#FFFFFF" stroke="#939598" width="23.625" height="45.693"/>
			<path fill="#FFFFFF" stroke="#939598" d="M16.612,306.666"/>
			<path fill="#FFFFFF" stroke="#939598" d="M16.612,306.51"/>
			<path fill="#FFFFFF" stroke="#939598" d="M16.612,291.016"/>
		</g>
		<circle fill="#FFFFFF" stroke="#939598" cx="16.501" cy="294.234" r="0.969"/>
		<path fill="#FFFFFF" stroke="#939598" d="M16.54,326.904c6.771,0,9.25-1.562,9.25-3.752c0,0,0-32.84,0-33.377
			c0-0.535-0.145-1.641-1.561-1.641c-1.418,0-7.689,0-7.689,0h-0.016c0,0-6.271,0-7.689,0c-1.416,0-1.561,1.105-1.561,1.641
			c0,0.537,0,33.355,0,33.355l0.002,0.021C7.276,325.342,9.812,326.904,16.54,326.904z"/>
		<path fill="#FFFFFF" stroke="#939598" d="M18.532,286.436c-0.002,0.549,0.441,0.988,0.996,0.988c0.537,0,0.982-0.439,0.986-0.988
			c-0.004-0.545-0.449-0.994-0.986-0.994C18.974,285.441,18.53,285.885,18.532,286.436z"/>
		<path fill="#FFFFFF" stroke="#939598" d="M12.392,286.436c-0.006,0.549,0.445,0.988,0.99,0.988c0.543,0,0.99-0.439,0.99-0.988
			c0-0.545-0.447-0.994-0.99-0.988C12.835,285.441,12.392,285.891,12.392,286.436z"/>
		<path fill="#FFFFFF" stroke="#939598" d="M17.835,286.143c0-0.812-0.549-1.469-1.361-1.471c-0.811,0.002-1.254,0.658-1.254,1.471
			l0.521,5.592c0,0.549,1.482,0.549,1.482,0L17.835,286.143z"/>
	</g>
	<g>
		<g>
			<path fill="#FFFFFF" stroke="#939598" d="M97.693,259.398c0-0.426,0.344-0.771,0.771-0.771h13.445
				c0.426,0,0.771,0.346,0.771,0.771v22.807c0,0.426-0.346,0.771-0.771,0.771H98.465c-0.428,0-0.771-0.346-0.771-0.771V259.398z"/>
			<path fill="#FFFFFF" stroke="#939598" d="M104.605,270.721"/>
		</g>
		<g>
			<circle fill="#FFFFFF" stroke="#939598" cx="105.517" cy="270.721" r="0.871"/>
			<path fill="#FFFFFF" stroke="#939598" d="M105.516,270.721"/>
		</g>
		<g>
			<g>
				<rect x="98.229" y="266.916" fill="#FFFFFF" stroke="#939598" width="1.82" height="7.609"/>
				<path fill="#FFFFFF" stroke="#939598" d="M99.139,270.721"/>
			</g>
			<g>
				<rect x="100.002" y="270.332" fill="#FFFFFF" stroke="#939598" width="3.586" height="0.777"/>
				<path fill="#FFFFFF" stroke="#939598" d="M101.563,270.721"/>
			</g>
			<g>
				<circle fill="#FFFFFF" stroke="#939598" cx="99.157" cy="270.721" r="0.847"/>
				<path fill="#FFFFFF" stroke="#939598" d="M99.157,270.721"/>
			</g>
		</g>
		<g>
			<path fill="#FFFFFF" stroke="#939598" d="M105.516,270.721"/>
			<path fill="none" stroke="#939598" d="M100.679,270.252v-9.59c0-0.447,0.362-0.811,0.81-0.811h9.221
				c0.445,0,0.809,0.363,0.809,0.811v20.279c0,0.447-0.363,0.811-0.809,0.811h-9.221c-0.447,0-0.81-0.363-0.81-0.811v-9.725"/>
		</g>
	</g>
	<g>
		<g>
			<rect x="137.46" y="308.434" fill="#FFFFFF" stroke="#939598" width="23.25" height="19.75"/>
			<path fill="#FFFFFF" stroke="#939598" d="M149.085,318.309"/>
		</g>
		<g>
			<g>
				<circle fill="#FFFFFF" stroke="#939598" cx="154.4" cy="312.809" r="2.824"/>
				<path fill="#FFFFFF" stroke="#939598" d="M154.4,312.809"/>
			</g>
			<g>
				<circle fill="#FFFFFF" stroke="#939598" stroke-width="0.8" cx="154.429" cy="312.81" r="1.989"/>
				<path fill="#FFFFFF" stroke="#939598" d="M154.429,312.809"/>
			</g>
		</g>
		<g>
			<g>
				<circle fill="#FFFFFF" stroke="#939598" cx="143.113" cy="321.059" r="2.824"/>
				<path fill="#FFFFFF" stroke="#939598" d="M143.113,321.059"/>
			</g>
			<g>
				<circle fill="#FFFFFF" stroke="#939598" stroke-width="0.8" cx="143.085" cy="321.06" r="1.989"/>
				<path fill="#FFFFFF" stroke="#939598" d="M143.085,321.059"/>
			</g>
		</g>
		<g>
			<g>
				<circle fill="#FFFFFF" stroke="#939598" cx="154.438" cy="321.031" r="3.219"/>
				<path fill="#FFFFFF" stroke="#939598" d="M154.438,321.031"/>
			</g>
			<g>
				<circle fill="#FFFFFF" stroke="#939598" stroke-width="0.8" cx="154.407" cy="321.031" r="2.268"/>
				<path fill="#FFFFFF" stroke="#939598" d="M154.407,321.031"/>
			</g>
		</g>
		<g>
			<g>
				<circle fill="#FFFFFF" stroke="#939598" cx="143.126" cy="312.592" r="3.219"/>
				<path fill="#FFFFFF" stroke="#939598" d="M143.126,312.592"/>
			</g>
			<g>
				<circle fill="#FFFFFF" stroke="#939598" stroke-width="0.8" cx="143.094" cy="312.592" r="2.268"/>
				<path fill="#FFFFFF" stroke="#939598" d="M143.094,312.592"/>
			</g>
		</g>
		<line fill="#FFFFFF" stroke="#939598" x1="160.741" y1="325.451" x2="137.46" y2="325.451"/>
		<line fill="#FFFFFF" stroke="#939598" x1="160.71" y1="326.543" x2="137.46" y2="326.543"/>
	</g>
	<g>
		<g>
			<rect x="96.788" y="208.826" fill="#FFFFFF" stroke="#939598" width="21.969" height="24.901"/>
			<path fill="#FFFFFF" stroke="#939598" d="M107.772,219.988"/>
		</g>
		<line fill="#FFFFFF" stroke="#939598" x1="117.221" y1="233.787" x2="117.221" y2="208.826"/>
		<rect x="118.772" y="210.904" fill="#FFFFFF" stroke="#939598" width="1.069" height="2.018"/>
		<path fill="#FFFFFF" stroke="#939598" d="M119.248,211.913"/>
	</g>
	<g>
		<polyline fill="#FFFFFF" stroke="#939598" points="118.409,236.851 118.409,235.018 96.576,235.018 96.576,249.183 
			118.409,249.183 118.409,247.351 		"/>
		<g>
			<g>
				<g>
					<polygon fill="none" stroke="#939598" stroke-width="0.7" points="127.293,242.19 126.606,240.938 118.013,246.147 
						118.7,247.399 					"/>
					<path fill="none" stroke="#939598" stroke-width="0.8" d="M121.958,245.12"/>
				</g>
				<path fill="none" stroke="#939598" stroke-width="0.8" d="M126.879,241.712c-1.94-3.203-5.394-4.926-8.888-4.811"/>
			</g>
		</g>
	</g>
	<g>
		<polygon fill="none" stroke="#939598" points="222.733,318.097 221.063,318.109 221.048,294.291 222.762,294.278 		"/>
		<path fill="none" stroke="#939598" d="M222.03,294.26c-13.114,0.445-23.383,11.289-22.936,24.402"/>
	</g>
	<polyline fill="none" stroke="#939598" stroke-dasharray="1.5,1.5,1.5,1.5,1.5,1.5" points="106.345,295.775 106.345,320.608 
		178.012,320.608 	"/>
	
		<line fill="none" stroke="#939598" stroke-dasharray="1.5,1.5,1.5,1.5,1.5,1.5" x1="106.345" y1="245.943" x2="106.345" y2="290.109"/>
	
		<line fill="none" stroke="#939598" stroke-dasharray="1.5,1.5,1.5,1.5,1.5,1.5" x1="106.345" y1="224.276" x2="106.345" y2="239.109"/>
	
		<line fill="none" stroke="#939598" stroke-dasharray="1.5,1.5,1.5,1.5,1.5,1.5" x1="106.345" y1="207.941" x2="106.345" y2="217.609"/>
	<g>
		<polyline fill="none" stroke="#939598" stroke-dasharray="1.5,1,1.5,1,1.5,1" points="115.441,301.766 98.465,301.766 
			98.465,285.117 115.06,285.117 		"/>
		<polyline fill="#FFFFFF" stroke="#939598" points="115.06,285.092 116.068,285.092 116.068,301.766 115.447,301.766 		"/>
	</g>
	<g>
		<g>
			<g>
				<path fill="none" stroke="#939598" d="M297.846,318.857"/>
			</g>
			<g>
				<path fill="none" stroke="#939598" d="M297.846,319.92"/>
			</g>
			<g>
				<circle fill="none" stroke="#939598" cx="297.846" cy="318.857" r="1.017"/>
				<path fill="none" stroke="#939598" d="M297.846,318.857"/>
			</g>
			<g>
				<g>
					<rect x="293.58" y="325.232" fill="none" stroke="#939598" width="8.553" height="2.125"/>
					<path fill="none" stroke="#939598" d="M297.846,326.295"/>
				</g>
				<g>
					<rect x="297.393" y="321.107" fill="none" stroke="#939598" width="0.906" height="4.031"/>
					<path fill="none" stroke="#939598" d="M297.846,323.467"/>
				</g>
				<g>
					<circle fill="none" stroke="#939598" cx="297.846" cy="326.274" r="0.986"/>
					<path fill="none" stroke="#939598" d="M297.846,326.274"/>
				</g>
			</g>
		</g>
		<g>
			<rect x="289.318" y="313.808" fill="none" stroke="#939598" width="17.076" height="13.875"/>
			<rect x="290.711" y="315.202" fill="none" stroke="#939598" width="14.255" height="9.98"/>
		</g>
	</g>
	<g>
		<g>
			<g>
				<path fill="none" stroke="#939598" d="M82.011,276.622"/>
			</g>
			<g>
				<path fill="none" stroke="#939598" d="M83.074,276.622"/>
			</g>
			<g>
				<circle fill="none" stroke="#939598" cx="82.011" cy="276.622" r="1.017"/>
				<path fill="none" stroke="#939598" d="M82.011,276.622"/>
			</g>
			<g>
				<g>
					<rect x="88.386" y="272.335" fill="none" stroke="#939598" width="2.125" height="8.553"/>
					<path fill="none" stroke="#939598" d="M89.449,276.622"/>
				</g>
				<g>
					<rect x="84.261" y="276.169" fill="none" stroke="#939598" width="4.031" height="0.906"/>
					<path fill="none" stroke="#939598" d="M86.621,276.622"/>
				</g>
				<g>
					<circle fill="none" stroke="#939598" cx="89.428" cy="276.622" r="0.986"/>
					<path fill="none" stroke="#939598" d="M89.428,276.622"/>
				</g>
			</g>
		</g>
		<g>
			<rect x="76.961" y="268.073" fill="none" stroke="#939598" width="13.875" height="17.076"/>
			<rect x="78.356" y="269.502" fill="none" stroke="#939598" width="9.98" height="14.255"/>
		</g>
	</g>
	<g>
		<g>
			<g>
				<path fill="none" stroke="#939598" d="M82.012,304.608"/>
			</g>
			<g>
				<path fill="none" stroke="#939598" d="M83.074,304.608"/>
			</g>
			<g>
				<circle fill="none" stroke="#939598" cx="82.011" cy="304.608" r="1.017"/>
				<path fill="none" stroke="#939598" d="M82.012,304.608"/>
			</g>
			<g>
				<g>
					<rect x="88.387" y="300.321" fill="none" stroke="#939598" width="2.125" height="8.553"/>
					<path fill="none" stroke="#939598" d="M89.449,304.608"/>
				</g>
				<g>
					<rect x="84.262" y="304.155" fill="none" stroke="#939598" width="4.031" height="0.906"/>
					<path fill="none" stroke="#939598" d="M86.621,304.608"/>
				</g>
				<g>
					<circle fill="none" stroke="#939598" cx="89.428" cy="304.608" r="0.986"/>
					<path fill="none" stroke="#939598" d="M89.428,304.608"/>
				</g>
			</g>
		</g>
		<g>
			<rect x="76.961" y="296.06" fill="none" stroke="#939598" width="13.875" height="17.076"/>
			<rect x="78.355" y="297.488" fill="none" stroke="#939598" width="9.98" height="14.255"/>
		</g>
	</g>
</g>
<g id="walls">
	<path fill="none" stroke="#939598" stroke-width="3" d="M234.512,316.941"/>
	<line fill="none" stroke="#939598" stroke-width="3" x1="177.115" y1="318.608" x2="177.287" y2="307.377"/>
	<line fill="none" stroke="#939598" stroke-width="5" x1="138.021" y1="20.693" x2="134.512" y2="20.693"/>
	<line fill="none" stroke="#939598" stroke-width="5" x1="210.776" y1="20.708" x2="206.303" y2="20.708"/>
	<line fill="none" stroke="#939598" stroke-width="3" x1="233.512" y1="297.942" x2="233.512" y2="318.608"/>
	<polyline fill="none" stroke="#939598" stroke-width="3" points="264.262,259.602 233.512,259.602 233.512,275.619 	"/>
	<line fill="none" stroke="#939598" stroke-width="3" x1="334.131" y1="259.602" x2="287.701" y2="259.602"/>
	<polyline fill="none" stroke="#939598" stroke-width="5" points="199.679,317.941 178.182,317.941 178.061,331.426 2.5,331.426 
		2.5,20.664 101.772,20.686 	"/>
	<polyline fill="none" stroke="#939598" stroke-width="5" points="222.733,317.941 233.512,317.878 233.512,331.35 335.297,331.35 
		335.297,20.736 248.012,20.717 	"/>
	<line fill="none" stroke="#939598" stroke-width="4" x1="3.262" y1="282.191" x2="28.977" y2="282.191"/>
	<line fill="none" stroke="#939598" stroke-width="3" x1="257.012" y1="259.941" x2="257.012" y2="330.691"/>
	<line fill="none" stroke="#939598" stroke-width="3" x1="257.012" y1="310.707" x2="234.262" y2="310.707"/>
	<polyline fill="none" stroke="#939598" stroke-width="3" points="309.953,330.941 309.953,309.107 334.762,309.107 	"/>
	<polyline fill="none" stroke="#939598" stroke-width="3" points="242.369,220.068 233.512,220.068 233.512,26.191 	"/>
	<line fill="none" stroke="#939598" stroke-width="3" x1="335.512" y1="220.068" x2="265.803" y2="220.068"/>
	<polyline fill="none" stroke="#939598" stroke-width="3" points="273.262,174.68 273.262,152.363 335.262,152.363 	"/>
	<line fill="none" stroke="#939598" stroke-width="3" x1="273.262" y1="219.191" x2="273.262" y2="196.96"/>
	<polyline fill="none" stroke="#939598" stroke-width="5" points="209.633,20.695 209.633,17.393 248.604,17.307 248.604,20.717 	
		"/>
	<polyline fill="none" stroke="#939598" stroke-width="3" points="247.594,20.717 247.594,25.934 210.621,25.934 210.621,20.609 	
		"/>
	<polyline fill="none" stroke="#939598" stroke-width="5" points="101.127,20.942 101.127,17.307 134.217,17.307 134.217,20.693 	
		"/>
	<polyline fill="none" stroke="#939598" stroke-width="3" points="133.229,20.65 133.229,25.676 102.18,25.676 102.18,20.942 	"/>
	<polyline fill="none" stroke="#939598" stroke-width="3" points="323.512,20.441 323.512,25.928 334.512,25.928 	"/>
	<polyline fill="none" stroke="#939598" stroke-width="3" points="26.27,20.756 26.27,25.742 3.262,25.742 	"/>
	<line fill="none" stroke="#939598" stroke-width="3" x1="235.512" y1="26.941" x2="235.512" y2="219.941"/>
	<polyline fill="none" stroke="#939598" stroke-width="3" points="113.582,199.418 113.582,206.441 89.012,206.441 89.012,175.441 	
		"/>
	<line fill="none" stroke="#939598" stroke-width="3" x1="113.582" y1="167.934" x2="113.582" y2="181.812"/>
	<line fill="none" stroke="#939598" stroke-width="3" x1="113.582" y1="26.441" x2="113.582" y2="145.335"/>
	<line fill="none" stroke="#939598" stroke-width="3" x1="64.963" y1="175.691" x2="113.262" y2="175.691"/>
	<line fill="none" stroke="#939598" stroke-width="3" x1="3.869" y1="175.691" x2="41.471" y2="175.691"/>
	<line fill="none" stroke="#939598" stroke-width="4" x1="94.17" y1="207.441" x2="94.17" y2="330.941"/>
	<line fill="none" stroke="#939598" stroke-width="3" x1="64.678" y1="251.191" x2="93.262" y2="251.191"/>
	<line fill="none" stroke="#939598" stroke-width="3" x1="3.762" y1="251.191" x2="41.465" y2="251.191"/>
	<line fill="none" stroke="#939598" stroke-width="3" x1="304.512" y1="250.617" x2="304.512" y2="259.191"/>
	<line fill="none" stroke="#939598" stroke-width="3" x1="304.512" y1="219.941" x2="304.512" y2="228.193"/>
</g>
<g id="windows">
	<g>
		<g>
			<rect x="28.29" y="18.733" fill="#FFFFFF" stroke="#939598" width="69.562" height="3.674"/>
			<line fill="none" stroke="#939598" x1="97.852" y1="20.551" x2="27.54" y2="20.551"/>
			<line fill="none" stroke="#939598" stroke-width="2" x1="75.178" y1="22.565" x2="75.178" y2="19.071"/>
		</g>
		<line fill="none" stroke="#939598" stroke-width="2" x1="51.79" y1="22.69" x2="51.79" y2="19.088"/>
	</g>
	<g>
		<g>
			<rect x="251.789" y="18.894" fill="#FFFFFF" stroke="#939598" width="69.562" height="3.674"/>
			<line fill="none" stroke="#939598" x1="321.352" y1="20.712" x2="251.039" y2="20.712"/>
			<line fill="none" stroke="#939598" stroke-width="2" x1="298.678" y1="22.726" x2="298.678" y2="19.231"/>
		</g>
		<line fill="none" stroke="#939598" stroke-width="2" x1="275.289" y1="22.851" x2="275.289" y2="19.249"/>
	</g>
</g>
<g id="Type">
	<text transform="matrix(1 0 0 1 147.6323 5.9497)" fill="#939598" font-family="'Gotham-Book'" font-size="7">Juliet Balcony</text>
	<text transform="matrix(0 -1 1 0 325.249 247.7344)" fill="#939598" font-family="'Gotham-Book'" font-size="7">W/D</text>
	<text transform="matrix(1 0 0 1 274.166 297.0107)"><tspan x="0" y="0" fill="#939598" font-family="'Gotham-Book'" font-size="9">B</tspan><tspan x="6.498" y="0" fill="#939598" font-family="'Gotham-Book'" font-size="9">a</tspan><tspan x="11.574" y="0" fill="#939598" font-family="'Gotham-Book'" font-size="9">th</tspan></text>
	<text transform="matrix(1 0 0 1 36.1494 216.4492)" fill="#939598" font-family="'Gotham-Book'" font-size="7">Closet</text>
	<text transform="matrix(1 0 0 1 200.9082 319.0342)" fill="#939598" font-family="'Gotham-Book'" font-size="7">Entry</text>
	<text transform="matrix(1 0 0 1 295.8164 185.4482)" fill="#939598" font-family="'Gotham-Book'" font-size="7">Closet</text>
	<text transform="matrix(0 -1 1 0 241.8936 298.2754)" fill="#939598" font-family="'Gotham-Book'" font-size="7">Closet</text>
	<text transform="matrix(0 -1 1 0 108.8936 201.9414)" fill="#939598" font-family="'Gotham-Book'" font-size="7">Closet</text>
	<text transform="matrix(1 0 0 1 39.917 296.6846)"><tspan x="0" y="0" fill="#939598" font-family="'Gotham-Book'" font-size="9">B</tspan><tspan x="6.498" y="0" fill="#939598" font-family="'Gotham-Book'" font-size="9">a</tspan><tspan x="11.574" y="0" fill="#939598" font-family="'Gotham-Book'" font-size="9">th</tspan></text>
	
		<text transform="matrix(0.7071 0.7071 -0.7071 0.7071 149.772 258.9131)" fill="#939598" font-family="'Gotham-Book'" font-size="7">Island</text>
	<text transform="matrix(1 0 0 1 127.916 295.2607)" fill="#939598" font-family="'Gotham-Book'" font-size="9">Kitchen</text>
	<text transform="matrix(1 0 0 1 101.1133 295.9492)" fill="#939598" font-family="'Gotham-Book'" font-size="7">DW</text>
	<text transform="matrix(1 0 0 1 100.0889 223.1992)" fill="#939598" font-family="'Gotham-Book'" font-size="7">Ref</text>
	<text transform="matrix(1 0 0 1 37.373 88.3657)"><tspan x="0" y="0" fill="#939598" font-family="'Gotham-Book'" font-size="9">Bedroom</tspan><tspan x="-3.749" y="11" fill="#939598" font-family="'Gotham-Book'" font-size="9">12&apos;0</tspan><tspan x="13.504" y="11" fill="#939598" font-family="'Gotham-Book'" font-size="9">&quot;</tspan><tspan x="17.095" y="11" fill="#939598" font-family="'Gotham-Book'" font-size="9"> x 17&apos;8&quot; </tspan></text>
	<text id="Living_x2F_Dining_Room_12_x27_0_x22__x__x_2_x27_10_x22__1_" transform="matrix(1 0 0 1 130.2705 137.3647)"><tspan x="0" y="0" fill="#939598" font-family="'Gotham-Book'" font-size="9">Living/Dining Room</tspan><tspan x="17.595" y="11" fill="#939598" font-family="'Gotham-Book'" font-size="9">12&apos;11</tspan><tspan x="34.856" y="11" fill="#939598" font-family="'Gotham-Book'" font-size="9">&quot;</tspan><tspan x="38.366" y="11" fill="#939598" font-family="'Gotham-Book'" font-size="9"> x 20&apos;2&quot;</tspan></text>
	<text transform="matrix(1 0 0 1 263.7109 88.3657)"><tspan x="0" y="0" fill="#939598" font-family="'Gotham-Book'" font-size="9">Bedroom</tspan><tspan x="-4.117" y="11" fill="#939598" font-family="'Gotham-Book'" font-size="9">10&apos;6</tspan><tspan x="13.567" y="11" fill="#939598" font-family="'Gotham-Book'" font-size="9">&quot;</tspan><tspan x="17.158" y="11" fill="#939598" font-family="'Gotham-Book'" font-size="9"> x 13&apos;9&quot; </tspan></text>
	<text transform="matrix(1 0 0 1 98.1909 244.0566)" fill="#939598" font-family="'Gotham-Book'" font-size="6.5">Pantry</text>
</g>
</svg>
