<?xml version="1.0" encoding="utf-8"?>
<!-- Generator: Adobe Illustrator 15.0.2, SVG Export Plug-In . SVG Version: 6.00 Build 0)  -->
<!DOCTYPE svg PUBLIC "-//W3C//DTD SVG 1.1//EN" "http://www.w3.org/Graphics/SVG/1.1/DTD/svg11.dtd">
<svg version="1.1" xmlns="http://www.w3.org/2000/svg" xmlns:xlink="http://www.w3.org/1999/xlink" x="0px" y="0px"
	 width="431.753px" height="167.002px" viewBox="0 0 431.753 167.002" enable-background="new 0 0 431.753 167.002"
	 xml:space="preserve">
<g id="_x32_0_x25___PMS_2985_fill">
	<path fill="none" d="M30.48,2.287c-1.333,0.333-28.333,28-28.333,28V140.62l27.667,24.333h400.333V2.287H30.48z"/>
</g>
<g id="_x33_0_x25__grey_fill">
	<polygon fill="#D1D3D4" points="30.146,2.453 25.48,7.62 90.146,7.62 90.146,2.62 	"/>
	<rect x="419.147" y="2.453" fill="#D1D3D4" stroke="#939598" stroke-miterlimit="10" width="10.333" height="5.667"/>
	<rect x="296.647" y="2.453" fill="#D1D3D4" width="51.166" height="4.833"/>
	<polygon fill="#D1D3D4" points="204.647,164.453 204.647,158.286 244.647,158.286 244.647,154.953 335.314,154.953 
		335.314,157.953 429.814,157.953 429.814,163.953 	"/>
</g>
<g id="icons">
	<polygon fill="#FFFFFF" stroke="#939598" points="79.105,140.328 26.605,140.328 24.23,137.953 24.23,10.953 2.48,31.62 
		3.48,141.62 28.147,163.62 79.48,163.62 	"/>
	<g>
		<g>
			<rect x="109.289" y="142.086" fill="#FFFFFF" stroke="#939598" width="20.188" height="18.543"/>
			<path fill="none" stroke="#939598" d="M119.382,150.742"/>
			<line fill="none" stroke="#939598" x1="109.257" y1="157.68" x2="129.507" y2="157.68"/>
			<line fill="none" stroke="#939598" x1="109.289" y1="158.555" x2="129.476" y2="158.555"/>
			<polygon fill="none" stroke="#939598" points="125.507,155.451 125.507,146.357 123.07,144.139 115.601,144.139 113.132,146.357 
				113.132,155.451 			"/>
			<path fill="none" stroke="#939598" d="M119.32,149.795"/>
		</g>
	</g>
	<g>
		<g>
			<rect x="85.703" y="142.086" fill="#FFFFFF" stroke="#939598" width="20.188" height="18.543"/>
			<path fill="none" stroke="#939598" d="M95.796,150.742"/>
			<line fill="none" stroke="#939598" x1="85.671" y1="157.68" x2="105.921" y2="157.68"/>
			<line fill="none" stroke="#939598" x1="85.703" y1="158.555" x2="105.89" y2="158.555"/>
			<g>
				<rect x="103.546" y="141.148" fill="none" stroke="#939598" width="0.875" height="0.875"/>
				<path fill="none" stroke="#939598" d="M103.984,141.586"/>
			</g>
		</g>
	</g>
	<g>
		<polygon fill="none" stroke="#939598" points="253.545,93.699 255.215,93.708 255.231,117.526 253.56,117.518 		"/>
		<path fill="none" stroke="#939598" d="M254.313,117.536c13.114-0.445,23.383-11.225,22.936-24.338"/>
	</g>
	<g>
		<polygon fill="none" stroke="#939598" points="296.594,81.472 296.603,79.886 319.23,79.87 319.222,81.458 		"/>
		<path fill="none" stroke="#939598" d="M319.24,80.742c-0.424-12.458-10.664-22.214-23.121-21.788"/>
	</g>
	<g>
		<polygon fill="none" stroke="#939598" points="176.078,164.733 177.748,164.746 177.763,140.928 176.049,140.915 		"/>
		<path fill="none" stroke="#939598" d="M176.781,140.896c13.114,0.445,23.383,11.289,22.936,24.402"/>
	</g>
	<g>
		<polygon fill="none" stroke="#939598" points="364.795,93.949 366.465,93.958 366.481,117.776 364.81,117.768 		"/>
		<path fill="none" stroke="#939598" d="M365.563,117.786c13.114-0.445,23.383-11.225,22.936-24.338"/>
	</g>
	<g>
		<polygon fill="none" stroke="#939598" points="141.078,134.233 142.748,134.246 142.763,110.428 141.049,110.415 		"/>
		<path fill="none" stroke="#939598" d="M141.781,110.396c13.114,0.445,23.383,11.289,22.936,24.402"/>
	</g>
	<g>
		<g>
			<polygon fill="none" stroke="#939598" points="86.781,134.475 88.284,134.486 88.298,113.049 86.756,113.037 			"/>
			<path fill="none" stroke="#939598" d="M87.414,113.021c11.803,0.4,21.044,10.16,20.642,21.961"/>
		</g>
		<g>
			<polygon fill="none" stroke="#939598" points="129.259,134.475 127.756,134.486 127.742,113.049 129.284,113.037 			"/>
			<path fill="none" stroke="#939598" d="M128.626,113.021c-11.803,0.4-21.044,10.16-20.642,21.961"/>
		</g>
	</g>
	<line fill="none" stroke="#939598" x1="137.48" y1="149.453" x2="168.48" y2="149.453"/>
	<polyline fill="#FFFFFF" stroke="#939598" points="273.48,155.203 273.48,136.244 297.73,136.244 297.73,154.703 	"/>
	<polyline fill="none" stroke="#939598" points="417.98,95.203 417.98,147.703 362.48,147.703 362.48,156.703 	"/>
	<rect x="53.98" y="44.703" fill="#FFFFFF" stroke="#939598" width="22.5" height="54.125"/>
	<line fill="none" stroke="#939598" x1="347.98" y1="8.587" x2="420.813" y2="8.587"/>
	<polyline fill="none" stroke="#939598" points="295.855,8.578 223.369,8.578 223.369,3.953 	"/>
	
		<line fill="none" stroke="#939598" stroke-dasharray="1.5,1.5,1.5,1.5,1.5,1.5" x1="135.98" y1="151.719" x2="168.589" y2="151.719"/>
	
		<line fill="none" stroke="#939598" stroke-dasharray="1.5,1.5,1.5,1.5,1.5,1.5" x1="123.479" y1="150.703" x2="135.23" y2="150.703"/>
	
		<line fill="none" stroke="#939598" stroke-dasharray="1.5,1.5,1.5,1.5,1.5,1.5" x1="99.229" y1="150.703" x2="114.98" y2="150.703"/>
	
		<line fill="none" stroke="#939598" stroke-dasharray="1.5,1.5,1.5,1.5,1.5,1.5" x1="79.98" y1="150.703" x2="92.979" y2="150.703"/>
	<polyline fill="none" stroke="#939598" stroke-dasharray="1.5,1.5,1.5,1.5,1.5,1.5" points="362.73,149.869 420.111,149.869 
		420.111,94.703 	"/>
	<g>
		<g>
			<path fill="#FFFFFF" stroke="#939598" d="M6.736,95.458c0,0.426,0.344,0.771,0.771,0.771h13.445c0.426,0,0.771-0.346,0.771-0.771
				V72.651c0-0.426-0.346-0.771-0.771-0.771H7.507c-0.428,0-0.771,0.345-0.771,0.771V95.458z"/>
			<path fill="#FFFFFF" stroke="#939598" d="M13.648,84.136"/>
		</g>
		<g>
			<circle fill="#FFFFFF" stroke="#939598" cx="14.559" cy="84.136" r="0.871"/>
			<path fill="#FFFFFF" stroke="#939598" d="M14.558,84.136"/>
		</g>
		<g>
			<g>
				<rect x="7.272" y="80.331" fill="#FFFFFF" stroke="#939598" width="1.82" height="7.609"/>
				<path fill="#FFFFFF" stroke="#939598" d="M8.181,84.136"/>
			</g>
			<g>
				<rect x="9.044" y="83.747" fill="#FFFFFF" stroke="#939598" width="3.586" height="0.777"/>
				<path fill="#FFFFFF" stroke="#939598" d="M10.606,84.136"/>
			</g>
			<g>
				<circle fill="#FFFFFF" stroke="#939598" cx="8.2" cy="84.136" r="0.847"/>
				<path fill="#FFFFFF" stroke="#939598" d="M8.2,84.136"/>
			</g>
		</g>
		<g>
			<path fill="#FFFFFF" stroke="#939598" d="M14.558,84.136"/>
			<path fill="none" stroke="#939598" d="M9.721,84.605v9.589c0,0.447,0.362,0.811,0.81,0.811h9.221
				c0.445,0,0.809-0.363,0.809-0.811V73.915c0-0.447-0.363-0.811-0.809-0.811h-9.221c-0.447,0-0.81,0.363-0.81,0.811v9.726"/>
		</g>
	</g>
	<g>
		<polyline fill="none" stroke="#939598" stroke-dasharray="1.5,1,1.5,1,1.5,1" points="24.826,99.399 7.849,99.399 7.849,116.048 
			24.444,116.048 		"/>
		<polyline fill="#FFFFFF" stroke="#939598" points="24.444,116.073 25.453,116.073 25.453,99.399 24.832,99.399 		"/>
	</g>
	<g>
		<g>
			<rect x="52.25" y="139.271" fill="#FFFFFF" stroke="#939598" width="24.901" height="21.969"/>
			<path fill="#FFFFFF" stroke="#939598" d="M65.99,150.256"/>
		</g>
		<line fill="#FFFFFF" stroke="#939598" x1="52.191" y1="140.808" x2="77.152" y2="140.808"/>
		<rect x="73.056" y="138.187" fill="#FFFFFF" stroke="#939598" width="2.018" height="1.069"/>
		<path fill="#FFFFFF" stroke="#939598" d="M74.065,138.78"/>
	</g>
	<g>
		<polyline fill="#FFFFFF" stroke="#939598" points="49.224,139.834 51.058,139.834 51.058,161.25 35.391,161.25 35.391,139.834 
			38.724,139.834 		"/>
		<g>
			<g>
				<g>
					<polygon fill="none" stroke="#939598" stroke-width="0.7" points="43.884,130.949 45.135,131.637 39.926,140.229 
						38.675,139.543 					"/>
					<path fill="none" stroke="#939598" stroke-width="0.8" d="M40.955,136.285"/>
				</g>
				<path fill="none" stroke="#939598" stroke-width="0.8" d="M44.363,131.363c3.202,1.94,4.926,5.394,4.81,8.888"/>
			</g>
		</g>
	</g>
	<g>
		<g>
			<rect x="6.046" y="35.975" fill="#FFFFFF" stroke="#939598" width="19.75" height="23.25"/>
			<path fill="#FFFFFF" stroke="#939598" d="M15.921,47.6"/>
		</g>
		<g>
			<g>
				<circle fill="#FFFFFF" stroke="#939598" cx="21.421" cy="52.915" r="2.824"/>
				<path fill="#FFFFFF" stroke="#939598" d="M21.421,52.915"/>
			</g>
			<g>
				<circle fill="#FFFFFF" stroke="#939598" stroke-width="0.8" cx="21.42" cy="52.943" r="1.989"/>
				<path fill="#FFFFFF" stroke="#939598" d="M21.421,52.943"/>
			</g>
		</g>
		<g>
			<g>
				<circle fill="#FFFFFF" stroke="#939598" cx="13.171" cy="41.628" r="2.824"/>
				<path fill="#FFFFFF" stroke="#939598" d="M13.171,41.628"/>
			</g>
			<g>
				<circle fill="#FFFFFF" stroke="#939598" stroke-width="0.8" cx="13.17" cy="41.6" r="1.989"/>
				<path fill="#FFFFFF" stroke="#939598" d="M13.171,41.6"/>
			</g>
		</g>
		<g>
			<g>
				<circle fill="#FFFFFF" stroke="#939598" cx="13.199" cy="52.953" r="3.219"/>
				<path fill="#FFFFFF" stroke="#939598" d="M13.199,52.953"/>
			</g>
			<g>
				<circle fill="#FFFFFF" stroke="#939598" stroke-width="0.8" cx="13.199" cy="52.922" r="2.268"/>
				<path fill="#FFFFFF" stroke="#939598" d="M13.199,52.922"/>
			</g>
		</g>
		<g>
			<g>
				<circle fill="#FFFFFF" stroke="#939598" cx="21.638" cy="41.641" r="3.219"/>
				<path fill="#FFFFFF" stroke="#939598" d="M21.638,41.641"/>
			</g>
			<g>
				<circle fill="#FFFFFF" stroke="#939598" stroke-width="0.8" cx="21.638" cy="41.608" r="2.268"/>
				<path fill="#FFFFFF" stroke="#939598" d="M21.638,41.608"/>
			</g>
		</g>
		<line fill="#FFFFFF" stroke="#939598" x1="8.779" y1="59.256" x2="8.779" y2="35.975"/>
		<line fill="#FFFFFF" stroke="#939598" x1="7.687" y1="59.225" x2="7.687" y2="35.975"/>
	</g>
	<text transform="matrix(1 0 0 1 115.3091 153.0107)" fill="#939598" font-family="'Gotham-Book'" font-size="7">W</text>
	<text transform="matrix(1 0 0 1 92.981 153.0107)" fill="#939598" font-family="'Gotham-Book'" font-size="7">D</text>
	<g>
		<path fill="#FFFFFF" stroke="#939598" stroke-miterlimit="10" d="M266.361,141.099c0-4.462-2.711-9.376-6.053-9.376
			s-6.041,4.914-6.041,9.376c0,4.463,2.699,6.785,6.041,6.785S266.361,145.562,266.361,141.099"/>
		<path fill="#FFFFFF" stroke="#939598" d="M266.361,141.099c0-4.462-2.711-9.376-6.053-9.376s-6.041,4.914-6.041,9.376
			c0,4.463,2.699,6.785,6.041,6.785S266.361,145.562,266.361,141.099z"/>
		<path fill="#FFFFFF" stroke="#939598" stroke-miterlimit="10" d="M256.685,146.421c0-0.25-0.205-0.455-0.455-0.455h-2.107
			c-0.25,0-0.455,0.205-0.455,0.455v0.077c0,0.25,0.205,0.455,0.455,0.455h2.107c0.25,0,0.455-0.205,0.455-0.455V146.421z"/>
		<path fill="#FFFFFF" stroke="#939598" d="M256.685,146.421c0-0.25-0.205-0.455-0.455-0.455h-2.107
			c-0.25,0-0.455,0.205-0.455,0.455v0.077c0,0.25,0.205,0.455,0.455,0.455h2.107c0.25,0,0.455-0.205,0.455-0.455V146.421z"/>
		<path fill="#FFFFFF" stroke="#939598" stroke-miterlimit="10" d="M253.347,146.965c-0.758,0-1.375,2.057-1.375,2.816
			c0,0.769,0.617,2.825,1.375,2.825h13.814c0.76,0,1.375-2.057,1.375-2.825c0-0.76-0.615-2.814-1.375-2.814L253.347,146.965z"/>
		<path fill="#FFFFFF" stroke="#939598" d="M253.347,146.965c-0.758,0-1.375,2.057-1.375,2.816c0,0.769,0.617,2.825,1.375,2.825
			h13.814c0.76,0,1.375-2.057,1.375-2.825c0-0.76-0.615-2.814-1.375-2.814L253.347,146.965z"/>
		<path fill="#FFFFFF" stroke="#939598" stroke-miterlimit="10" d="M264.757,140.912c0-3.279-1.992-6.893-4.449-6.893
			s-4.447,3.613-4.447,6.893s1.99,4.985,4.447,4.985S264.757,144.191,264.757,140.912"/>
		<path fill="#FFFFFF" stroke="#939598" d="M264.757,140.912c0-3.279-1.992-6.893-4.449-6.893s-4.447,3.613-4.447,6.893
			s1.99,4.985,4.447,4.985S264.757,144.191,264.757,140.912z"/>
	</g>
	<g>
		<g>
			<rect x="334.447" y="95.373" fill="#FFFFFF" stroke="#939598" width="23.625" height="45.693"/>
			<path fill="#FFFFFF" stroke="#939598" d="M346.259,118.221"/>
			<path fill="#FFFFFF" stroke="#939598" d="M346.259,118.377"/>
			<path fill="#FFFFFF" stroke="#939598" d="M346.259,133.87"/>
		</g>
		<circle fill="#FFFFFF" stroke="#939598" cx="346.372" cy="130.652" r="0.97"/>
		<path fill="#FFFFFF" stroke="#939598" d="M346.332,97.982c-6.771,0-9.25,1.562-9.25,3.752c0,0,0,32.839,0,33.376
			c0,0.535,0.145,1.641,1.561,1.641c1.418,0,7.689,0,7.689,0h0.016c0,0,6.271,0,7.689,0c1.416,0,1.561-1.105,1.561-1.641
			c0-0.537,0-33.354,0-33.354l-0.002-0.021C355.595,99.545,353.06,97.982,346.332,97.982z"/>
		<path fill="#FFFFFF" stroke="#939598" d="M344.339,138.45c0.002-0.549-0.439-0.988-0.994-0.988c-0.537,0-0.982,0.439-0.986,0.988
			c0.004,0.545,0.449,0.995,0.986,0.995C343.9,139.445,344.341,139.001,344.339,138.45z"/>
		<path fill="#FFFFFF" stroke="#939598" d="M350.482,138.45c0.006-0.549-0.445-0.988-0.99-0.988c-0.543,0-0.99,0.439-0.99,0.988
			c0,0.545,0.447,0.995,0.99,0.988C350.039,139.445,350.482,138.995,350.482,138.45z"/>
		<path fill="#FFFFFF" stroke="#939598" d="M345.039,138.743c0,0.812,0.549,1.469,1.361,1.471c0.811-0.002,1.254-0.658,1.254-1.471
			l-0.521-5.592c0-0.549-1.482-0.549-1.482,0L345.039,138.743z"/>
	</g>
	<polyline fill="none" stroke="#939598" stroke-dasharray="1.5,1.5,1.5,1.5,1.5,1.5" points="13.73,105.203 13.73,37.453 
		24.23,26.453 	"/>
	<polyline fill="none" stroke="#939598" stroke-dasharray="1.5,1.5,1.5,1.5,1.5,1.5" points="39.814,151.953 30.73,151.953 
		12.73,135.203 12.73,111.203 	"/>
	
		<line fill="none" stroke="#939598" stroke-dasharray="1.5,1.5,1.5,1.5,1.5,1.5" x1="80.23" y1="151.953" x2="47.803" y2="151.953"/>
	<g>
		<g>
			<g>
				<path fill="none" stroke="#939598" d="M285.327,143.333"/>
			</g>
			<g>
				<path fill="none" stroke="#939598" d="M285.327,144.396"/>
			</g>
			<g>
				<circle fill="none" stroke="#939598" cx="285.327" cy="143.333" r="1.017"/>
				<path fill="none" stroke="#939598" d="M285.327,143.333"/>
			</g>
			<g>
				<g>
					<rect x="281.061" y="149.708" fill="none" stroke="#939598" width="8.553" height="2.125"/>
					<path fill="none" stroke="#939598" d="M285.327,150.771"/>
				</g>
				<g>
					<rect x="284.874" y="145.583" fill="none" stroke="#939598" width="0.906" height="4.031"/>
					<path fill="none" stroke="#939598" d="M285.327,147.942"/>
				</g>
				<g>
					<circle fill="none" stroke="#939598" cx="285.327" cy="150.75" r="0.986"/>
					<path fill="none" stroke="#939598" d="M285.327,150.75"/>
				</g>
			</g>
		</g>
		<g>
			<rect x="276.799" y="138.283" fill="none" stroke="#939598" width="17.076" height="13.875"/>
			<rect x="278.192" y="139.678" fill="none" stroke="#939598" width="14.254" height="9.98"/>
		</g>
	</g>
</g>
<g id="walls">
	<polyline fill="none" stroke="#939598" stroke-width="5" points="199.605,164.502 429.253,164.502 429.253,2.524 30.307,2.524 
		2.5,31.19 2.5,140.265 27.124,164.502 176.078,164.502 	"/>
	<line fill="none" stroke="#939598" stroke-width="3" x1="388.48" y1="94.124" x2="428.48" y2="94.124"/>
	<line fill="none" stroke="#939598" stroke-width="3" x1="276.855" y1="94.124" x2="364.652" y2="94.124"/>
	<polyline fill="none" stroke="#939598" stroke-width="3" points="204.813,163.953 204.813,157.953 244.813,157.953 244.813,94.124 
		253.73,94.124 	"/>
	<line fill="none" stroke="#939598" stroke-width="3" x1="296.813" y1="81.453" x2="296.813" y2="92.62"/>
	<line fill="none" stroke="#939598" stroke-width="3" x1="296.813" y1="3.953" x2="296.813" y2="59.203"/>
	<line fill="none" stroke="#939598" stroke-width="3" x1="245.813" y1="154.953" x2="335.48" y2="154.953"/>
	<polyline fill="none" stroke="#939598" stroke-width="3" points="359.813,93.953 359.813,142.953 335.147,142.953 335.147,157.953 
		427.824,157.953 	"/>
	<polyline fill="none" stroke="#939598" stroke-width="3" points="25.48,7.953 90.48,7.953 90.593,4.953 	"/>
	<polyline fill="none" stroke="#939598" stroke-width="3" points="295.813,7.555 346.588,7.555 346.588,3.62 	"/>
	<polyline fill="none" stroke="#939598" stroke-width="3" points="420.167,3.285 420.167,7.603 428.48,7.603 	"/>
	<polyline fill="none" stroke="#939598" stroke-width="3" points="164.509,134.286 169.146,134.286 169.146,165.286 	"/>
	<line fill="none" stroke="#939598" stroke-width="3" x1="129.259" y1="134.286" x2="141.078" y2="134.286"/>
	<polyline fill="none" stroke="#939598" stroke-width="3" points="79.48,163.286 79.48,134.286 86.729,134.286 	"/>
	<line fill="none" stroke="#939598" stroke-width="4" x1="136.146" y1="134.62" x2="136.146" y2="164.953"/>
</g>
<g id="windows">
	<g>
		<g>
			<rect x="224.189" y="0.6" fill="#FFFFFF" stroke="#939598" width="69.562" height="3.674"/>
			<line fill="none" stroke="#939598" x1="293.751" y1="2.418" x2="223.439" y2="2.418"/>
			<line fill="none" stroke="#939598" stroke-width="2" x1="271.078" y1="4.432" x2="271.078" y2="0.938"/>
		</g>
		<line fill="none" stroke="#939598" stroke-width="2" x1="247.689" y1="4.557" x2="247.689" y2="0.955"/>
	</g>
	<g>
		<g>
			<rect x="349.208" y="0.5" fill="#FFFFFF" stroke="#939598" width="69.562" height="3.674"/>
			<line fill="none" stroke="#939598" x1="418.771" y1="2.318" x2="348.458" y2="2.318"/>
			<line fill="none" stroke="#939598" stroke-width="2" x1="396.097" y1="4.332" x2="396.097" y2="0.838"/>
		</g>
		<line fill="none" stroke="#939598" stroke-width="2" x1="372.708" y1="4.457" x2="372.708" y2="0.855"/>
	</g>
</g>
<g id="Type">
	<text transform="matrix(1 0 0 1 9.7485 110.9639)" fill="#939598" font-family="'Gotham-Book'" font-size="7">DW</text>
	<text transform="matrix(1 0 0 1 58.0571 149.4619)" fill="#939598" font-family="'Gotham-Book'" font-size="7">Ref</text>
	<text transform="matrix(0 -1 1 0 67.4443 81.7061)"><tspan x="0" y="0" fill="#939598" font-family="'Gotham-Book'" font-size="7">I</tspan><tspan x="2.037" y="0" fill="#939598" font-family="'Gotham-Book'" font-size="7">s</tspan><tspan x="5.544" y="0" fill="#939598" font-family="'Gotham-Book'" font-size="7">la</tspan><tspan x="11.438" y="0" fill="#939598" font-family="'Gotham-Book'" font-size="7">n</tspan><tspan x="15.673" y="0" fill="#939598" font-family="'Gotham-Book'" font-size="7">d</tspan></text>
	<text transform="matrix(1 0 0 1 178.9854 163.8779)"><tspan x="0" y="0" fill="#939598" font-family="'Gotham-Book'" font-size="7">E</tspan><tspan x="4.69" y="0" fill="#939598" font-family="'Gotham-Book'" font-size="7">n</tspan><tspan x="8.953" y="0" fill="#939598" font-family="'Gotham-Book'" font-size="7">try</tspan></text>
	<text transform="matrix(1 0 0 1 38.0503 117.8574)" fill="#939598" font-family="'Gotham-Book'" font-size="9">Kitchen</text>
	<text transform="matrix(1 0 0 1 142.0347 145.7939)" fill="#939598" font-family="'Gotham-Book'" font-size="7">Closet</text>
	<text transform="matrix(1 0 0 1 93.4995 139.9727)"><tspan x="0" y="0" fill="#939598" font-family="'Gotham-Book'" font-size="7">L</tspan><tspan x="4.333" y="0" fill="#939598" font-family="'Gotham-Book'" font-size="7">a</tspan><tspan x="8.246" y="0" fill="#939598" font-family="'Gotham-Book'" font-size="7">u</tspan><tspan x="12.53" y="0" fill="#939598" font-family="'Gotham-Book'" font-size="7">n</tspan><tspan x="16.751" y="0" fill="#939598" font-family="'Gotham-Book'" font-size="7">d</tspan><tspan x="21.399" y="0" fill="#939598" font-family="'Gotham-Book'" font-size="7">r</tspan><tspan x="24.367" y="0" fill="#939598" font-family="'Gotham-Book'" font-size="7">y</tspan></text>
	<text transform="matrix(1 0 0 1 281.0503 123.1094)"><tspan x="0" y="0" fill="#939598" font-family="'Gotham-Book'" font-size="9">B</tspan><tspan x="6.498" y="0" fill="#939598" font-family="'Gotham-Book'" font-size="9">a</tspan><tspan x="11.547" y="0" fill="#939598" font-family="'Gotham-Book'" font-size="9">th</tspan></text>
	<text transform="matrix(1 0 0 1 379.0347 129.5439)" fill="#939598" font-family="'Gotham-Book'" font-size="7">Closet</text>
	<text transform="matrix(1 0 0 1 342.7964 45.46)"><tspan x="0" y="0" fill="#939598" font-family="'Gotham-Book'" font-size="9">Bedroom</tspan><tspan x="-2.727" y="11" fill="#939598" font-family="'Gotham-Book'" font-size="9">14&apos;2&quot; x 9&apos;3&quot; </tspan></text>
	<text id="Living_x2F_Dining_Room_12_x27_0_x22__x__x_2_x27_10_x22__1_" transform="matrix(1 0 0 1 127.6562 60.627)"><tspan x="0" y="0" fill="#939598" font-family="'Gotham-Book'" font-size="9">Living/Dining Room</tspan><tspan x="17.676" y="11" fill="#939598" font-family="'Gotham-Book'" font-size="9">24&apos;3&quot; x 16&apos;8&quot;</tspan></text>
	<text transform="matrix(0 -1 1 0 46.0098 160.1201)"><tspan x="0" y="0" fill="#939598" font-family="'Gotham-Book'" font-size="6.5">Pan</tspan><tspan x="11.524" y="0" fill="#939598" font-family="'Gotham-Book'" font-size="6.5">t</tspan><tspan x="14.008" y="0" fill="#939598" font-family="'Gotham-Book'" font-size="6.5">r</tspan><tspan x="16.549" y="0" fill="#939598" font-family="'Gotham-Book'" font-size="6.5">y</tspan></text>
</g>
</svg>
