<?xml version="1.0" encoding="utf-8"?>
<!-- Generator: Adobe Illustrator 15.0.2, SVG Export Plug-In . SVG Version: 6.00 Build 0)  -->
<!DOCTYPE svg PUBLIC "-//W3C//DTD SVG 1.1//EN" "http://www.w3.org/Graphics/SVG/1.1/DTD/svg11.dtd">
<svg version="1.1" xmlns="http://www.w3.org/2000/svg" xmlns:xlink="http://www.w3.org/1999/xlink" x="0px" y="0px"
	 width="386.34px" height="260.592px" viewBox="0 0 386.34 260.592" enable-background="new 0 0 386.34 260.592"
	 xml:space="preserve">
<g id="_x32_0_x25___PMS_2985_fill">
	<polygon fill="none" points="2.791,100.5 2.791,257.5 384.211,257.5 384.211,2.963 229.689,2.963 229.689,100.5 	"/>
</g>
<g id="icons">
	<g>
		<g>
			<rect x="357.363" y="209.67" fill="#FFFFFF" stroke="#939598" width="23.625" height="45.693"/>
			<path fill="#FFFFFF" stroke="#939598" d="M369.176,232.518"/>
			<path fill="#FFFFFF" stroke="#939598" d="M369.176,232.674"/>
			<path fill="#FFFFFF" stroke="#939598" d="M369.176,248.167"/>
		</g>
		<circle fill="#FFFFFF" stroke="#939598" cx="369.288" cy="244.949" r="0.97"/>
		<path fill="#FFFFFF" stroke="#939598" d="M369.248,212.279c-6.771,0-9.25,1.562-9.25,3.752c0,0,0,32.839,0,33.376
			c0,0.535,0.145,1.641,1.561,1.641c1.418,0,7.689,0,7.689,0h0.016c0,0,6.271,0,7.689,0c1.416,0,1.561-1.105,1.561-1.641
			c0-0.537,0-33.354,0-33.354l-0.002-0.021C378.512,213.842,375.977,212.279,369.248,212.279z"/>
		<path fill="#FFFFFF" stroke="#939598" d="M367.256,252.747c0.002-0.549-0.439-0.988-0.994-0.988c-0.537,0-0.982,0.439-0.986,0.988
			c0.004,0.545,0.449,0.995,0.986,0.995C366.816,253.742,367.258,253.298,367.256,252.747z"/>
		<path fill="#FFFFFF" stroke="#939598" d="M373.398,252.747c0.006-0.549-0.445-0.988-0.99-0.988c-0.543,0-0.99,0.439-0.99,0.988
			c0,0.545,0.447,0.995,0.99,0.988C372.955,253.742,373.398,253.292,373.398,252.747z"/>
		<path fill="#FFFFFF" stroke="#939598" d="M367.955,253.04c0,0.812,0.549,1.469,1.361,1.471c0.811-0.002,1.254-0.658,1.254-1.471
			l-0.521-5.592c0-0.549-1.482-0.549-1.482,0L367.955,253.04z"/>
	</g>
	<g>
		<polygon fill="none" stroke="#939598" points="278.502,258.793 276.832,258.806 276.816,234.987 278.509,234.975 		"/>
		<path fill="none" stroke="#939598" d="M277.713,234.956c-13.114,0.445-23.383,11.289-22.936,24.402"/>
	</g>
	<g>
		<polygon fill="none" stroke="#939598" points="377.855,129.302 376.186,129.311 376.17,153.129 377.841,153.12 		"/>
		<path fill="none" stroke="#939598" d="M377.088,153.139c-13.114-0.445-23.383-11.225-22.936-24.338"/>
	</g>
	<g>
		<polygon fill="none" stroke="#939598" points="231.551,225.834 231.559,227.42 254.186,227.436 254.178,225.848 		"/>
		<path fill="none" stroke="#939598" d="M254.195,226.563c-0.423,12.458-10.664,22.214-23.121,21.788"/>
	</g>
	<line fill="none" stroke="#939598" x1="222.068" y1="218.375" x2="222.068" y2="256.625"/>
	
		<line fill="none" stroke="#939598" stroke-dasharray="1.5,1.5,1.5,1.5,1.5,1.5" x1="219.917" y1="218.667" x2="219.917" y2="258.167"/>
	<g>
		<polygon fill="none" stroke="#939598" points="293.061,190.673 294.73,190.682 294.746,214.5 293.075,214.491 		"/>
		<path fill="none" stroke="#939598" d="M293.828,214.51c13.114-0.445,23.383-11.225,22.936-24.338"/>
	</g>
	<g>
		<polygon fill="none" stroke="#939598" points="293.371,130.009 295.041,130 295.057,106.182 293.386,106.19 		"/>
		<path fill="none" stroke="#939598" d="M294.139,106.172c13.114,0.445,23.383,11.225,22.936,24.338"/>
	</g>
	<line fill="none" stroke="#939598" x1="357.291" y1="197.25" x2="381.791" y2="197.25"/>
	<line fill="none" stroke="#939598" x1="334.041" y1="130.75" x2="334.041" y2="191.5"/>
	
		<line fill="none" stroke="#939598" stroke-dasharray="1.5,1.5,1.5,1.5,1.5,1.5" x1="356.541" y1="199.178" x2="381.041" y2="199.178"/>
	<line fill="none" stroke="#939598" stroke-dasharray="1.5,1.5,1.5,1.5,1.5,1.5" x1="332.041" y1="131" x2="332.041" y2="190.75"/>
	<rect x="314.791" y="239.24" fill="#FFFFFF" stroke="#939598" width="31.5" height="17.01"/>
	<g>
		<path fill="#FFFFFF" stroke="#939598" stroke-miterlimit="10" d="M307.574,241.882c0-4.462-2.711-9.376-6.053-9.376
			s-6.041,4.914-6.041,9.376c0,4.463,2.699,6.785,6.041,6.785S307.574,246.345,307.574,241.882"/>
		<path fill="#FFFFFF" stroke="#939598" d="M307.574,241.882c0-4.462-2.711-9.376-6.053-9.376s-6.041,4.914-6.041,9.376
			c0,4.463,2.699,6.785,6.041,6.785S307.574,246.345,307.574,241.882z"/>
		<path fill="#FFFFFF" stroke="#939598" stroke-miterlimit="10" d="M297.898,247.204c0-0.25-0.205-0.455-0.455-0.455h-2.107
			c-0.25,0-0.455,0.205-0.455,0.455v0.077c0,0.25,0.205,0.455,0.455,0.455h2.107c0.25,0,0.455-0.205,0.455-0.455V247.204z"/>
		<path fill="#FFFFFF" stroke="#939598" d="M297.898,247.204c0-0.25-0.205-0.455-0.455-0.455h-2.107
			c-0.25,0-0.455,0.205-0.455,0.455v0.077c0,0.25,0.205,0.455,0.455,0.455h2.107c0.25,0,0.455-0.205,0.455-0.455V247.204z"/>
		<path fill="#FFFFFF" stroke="#939598" stroke-miterlimit="10" d="M294.561,247.748c-0.758,0-1.375,2.057-1.375,2.816
			c0,0.769,0.617,2.825,1.375,2.825h13.814c0.76,0,1.375-2.057,1.375-2.825c0-0.76-0.615-2.814-1.375-2.814L294.561,247.748z"/>
		<path fill="#FFFFFF" stroke="#939598" d="M294.561,247.748c-0.758,0-1.375,2.057-1.375,2.816c0,0.769,0.617,2.825,1.375,2.825
			h13.814c0.76,0,1.375-2.057,1.375-2.825c0-0.76-0.615-2.814-1.375-2.814L294.561,247.748z"/>
		<path fill="#FFFFFF" stroke="#939598" stroke-miterlimit="10" d="M305.971,241.695c0-3.279-1.992-6.893-4.449-6.893
			s-4.447,3.613-4.447,6.893s1.99,4.985,4.447,4.985S305.971,244.975,305.971,241.695"/>
		<path fill="#FFFFFF" stroke="#939598" d="M305.971,241.695c0-3.279-1.992-6.893-4.449-6.893s-4.447,3.613-4.447,6.893
			s1.99,4.985,4.447,4.985S305.971,244.975,305.971,241.695z"/>
	</g>
	<g>
		<g>
			<g>
				<path fill="none" stroke="#939598" d="M330.533,245.881"/>
			</g>
			<g>
				<path fill="none" stroke="#939598" d="M330.533,246.943"/>
			</g>
			<g>
				<circle fill="none" stroke="#939598" cx="330.533" cy="245.881" r="1.017"/>
				<path fill="none" stroke="#939598" d="M330.533,245.881"/>
			</g>
			<g>
				<g>
					<rect x="326.268" y="252.256" fill="none" stroke="#939598" width="8.553" height="2.125"/>
					<path fill="none" stroke="#939598" d="M330.533,253.318"/>
				</g>
				<g>
					<rect x="330.08" y="248.131" fill="none" stroke="#939598" width="0.906" height="4.031"/>
					<path fill="none" stroke="#939598" d="M330.533,250.49"/>
				</g>
				<g>
					<circle fill="none" stroke="#939598" cx="330.533" cy="253.298" r="0.986"/>
					<path fill="none" stroke="#939598" d="M330.533,253.298"/>
				</g>
			</g>
		</g>
		<g>
			<rect x="322.006" y="240.831" fill="none" stroke="#939598" width="17.076" height="13.875"/>
			<rect x="323.398" y="242.226" fill="none" stroke="#939598" width="14.255" height="9.98"/>
		</g>
	</g>
	<rect x="34.333" y="181" fill="#FFFFFF" stroke="#939598" width="48" height="27.625"/>
	<g>
		<g>
			<path fill="#FFFFFF" stroke="#939598" d="M60.358,191.938c0.426,0,0.771,0.344,0.771,0.771v13.445
				c0,0.426-0.346,0.771-0.771,0.771H37.552c-0.426,0-0.771-0.346-0.771-0.771v-13.445c0-0.428,0.345-0.771,0.771-0.771H60.358z"/>
			<path fill="#FFFFFF" stroke="#939598" d="M49.036,198.85"/>
		</g>
		<g>
			<circle fill="#FFFFFF" stroke="#939598" cx="49.036" cy="199.761" r="0.871"/>
			<path fill="#FFFFFF" stroke="#939598" d="M49.036,199.76"/>
		</g>
		<g>
			<g>
				<rect x="45.231" y="192.474" fill="#FFFFFF" stroke="#939598" width="7.609" height="1.82"/>
				<path fill="#FFFFFF" stroke="#939598" d="M49.036,193.383"/>
			</g>
			<g>
				<rect x="48.647" y="194.246" fill="#FFFFFF" stroke="#939598" width="0.777" height="3.586"/>
				<path fill="#FFFFFF" stroke="#939598" d="M49.036,195.808"/>
			</g>
			<g>
				<circle fill="#FFFFFF" stroke="#939598" cx="49.036" cy="193.401" r="0.847"/>
				<path fill="#FFFFFF" stroke="#939598" d="M49.036,193.401"/>
			</g>
		</g>
		<g>
			<path fill="#FFFFFF" stroke="#939598" d="M49.036,199.76"/>
			<path fill="none" stroke="#939598" d="M49.506,194.923h9.589c0.447,0,0.811,0.362,0.811,0.81v9.221
				c0,0.445-0.363,0.809-0.811,0.809H38.815c-0.447,0-0.811-0.363-0.811-0.809v-9.221c0-0.447,0.363-0.81,0.811-0.81h9.726"/>
		</g>
	</g>
	<g>
		<polyline fill="none" stroke="#939598" stroke-dasharray="1.5,1,1.5,1,1.5,1" points="63.161,209.122 63.161,192.146 
			79.81,192.146 79.81,208.74 		"/>
		<polyline fill="#FFFFFF" stroke="#939598" points="79.835,208.74 79.835,209.749 63.161,209.749 63.161,209.128 		"/>
	</g>
	<rect x="4.541" y="235.167" fill="#FFFFFF" stroke="#939598" width="106.75" height="20.833"/>
	<g>
		<g>
			<rect x="23.49" y="234.575" fill="#FFFFFF" stroke="#939598" width="23.25" height="19.75"/>
			<path fill="#FFFFFF" stroke="#939598" d="M35.115,244.45"/>
		</g>
		<g>
			<g>
				<circle fill="#FFFFFF" stroke="#939598" cx="40.431" cy="238.95" r="2.824"/>
				<path fill="#FFFFFF" stroke="#939598" d="M40.431,238.95"/>
			</g>
			<g>
				<circle fill="#FFFFFF" stroke="#939598" stroke-width="0.8" cx="40.459" cy="238.951" r="1.989"/>
				<path fill="#FFFFFF" stroke="#939598" d="M40.459,238.95"/>
			</g>
		</g>
		<g>
			<g>
				<circle fill="#FFFFFF" stroke="#939598" cx="29.144" cy="247.2" r="2.824"/>
				<path fill="#FFFFFF" stroke="#939598" d="M29.144,247.2"/>
			</g>
			<g>
				<circle fill="#FFFFFF" stroke="#939598" stroke-width="0.8" cx="29.115" cy="247.201" r="1.989"/>
				<path fill="#FFFFFF" stroke="#939598" d="M29.115,247.2"/>
			</g>
		</g>
		<g>
			<g>
				<circle fill="#FFFFFF" stroke="#939598" cx="40.469" cy="247.173" r="3.219"/>
				<path fill="#FFFFFF" stroke="#939598" d="M40.469,247.173"/>
			</g>
			<g>
				<circle fill="#FFFFFF" stroke="#939598" stroke-width="0.8" cx="40.438" cy="247.173" r="2.268"/>
				<path fill="#FFFFFF" stroke="#939598" d="M40.438,247.173"/>
			</g>
		</g>
		<g>
			<g>
				<circle fill="#FFFFFF" stroke="#939598" cx="29.156" cy="238.733" r="3.219"/>
				<path fill="#FFFFFF" stroke="#939598" d="M29.156,238.733"/>
			</g>
			<g>
				<circle fill="#FFFFFF" stroke="#939598" stroke-width="0.8" cx="29.124" cy="238.733" r="2.268"/>
				<path fill="#FFFFFF" stroke="#939598" d="M29.124,238.733"/>
			</g>
		</g>
		<line fill="#FFFFFF" stroke="#939598" x1="46.771" y1="251.593" x2="23.49" y2="251.593"/>
		<line fill="#FFFFFF" stroke="#939598" x1="46.74" y1="252.685" x2="23.49" y2="252.685"/>
	</g>
	<g>
		<g>
			<rect x="67.832" y="232.664" fill="#FFFFFF" stroke="#939598" width="24.901" height="21.969"/>
			<path fill="#FFFFFF" stroke="#939598" d="M81.571,243.648"/>
		</g>
		<line fill="#FFFFFF" stroke="#939598" x1="67.772" y1="234.2" x2="92.733" y2="234.2"/>
		<rect x="88.638" y="231.579" fill="#FFFFFF" stroke="#939598" width="2.018" height="1.069"/>
		<path fill="#FFFFFF" stroke="#939598" d="M89.646,232.173"/>
	</g>
	<g>
		<polyline fill="#FFFFFF" stroke="#939598" points="107.783,228.761 109.617,228.761 109.617,254.927 93.95,254.927 93.95,228.761 
			97.283,228.761 		"/>
		<g>
			<g>
				<g>
					<polygon fill="none" stroke="#939598" stroke-width="0.7" points="102.443,219.876 103.694,220.563 98.485,229.156 
						97.234,228.47 					"/>
					<path fill="none" stroke="#939598" stroke-width="0.8" d="M99.514,225.212"/>
				</g>
				<path fill="none" stroke="#939598" stroke-width="0.8" d="M102.922,220.29c3.202,1.94,4.926,5.394,4.81,8.888"/>
			</g>
		</g>
	</g>
	
		<line fill="none" stroke="#939598" stroke-dasharray="1.5,1.5,1.5,1.5,1.5,1.5" x1="106.641" y1="245.167" x2="111.291" y2="245.167"/>
	
		<line fill="none" stroke="#939598" stroke-dasharray="1.5,1.5,1.5,1.5,1.5,1.5" x1="5.958" y1="245.167" x2="98.863" y2="245.167"/>
	<g>
		<g>
			<rect x="236.014" y="133.318" fill="#FFFFFF" stroke="#939598" width="20.188" height="18.543"/>
			<path fill="none" stroke="#939598" d="M246.107,143.205"/>
			<line fill="none" stroke="#939598" x1="256.232" y1="136.268" x2="235.982" y2="136.268"/>
			<line fill="none" stroke="#939598" x1="256.201" y1="135.393" x2="236.014" y2="135.393"/>
			<polygon fill="none" stroke="#939598" points="239.982,138.496 239.982,147.59 242.42,149.809 249.889,149.809 252.357,147.59 
				252.357,138.496 			"/>
			<path fill="none" stroke="#939598" d="M246.17,144.152"/>
		</g>
	</g>
	<g>
		<g>
			<rect x="259.6" y="133.318" fill="#FFFFFF" stroke="#939598" width="20.188" height="18.543"/>
			<path fill="none" stroke="#939598" d="M269.693,143.205"/>
			<line fill="none" stroke="#939598" x1="279.818" y1="136.268" x2="259.568" y2="136.268"/>
			<line fill="none" stroke="#939598" x1="279.787" y1="135.393" x2="259.6" y2="135.393"/>
			<g>
				<rect x="261.068" y="151.924" fill="none" stroke="#939598" width="0.875" height="0.875"/>
				<path fill="none" stroke="#939598" d="M261.506,152.361"/>
			</g>
		</g>
	</g>
	<g>
		<g>
			<polygon fill="none" stroke="#939598" points="279.504,159.537 278,159.525 277.986,180.963 279.529,180.975 			"/>
			<path fill="none" stroke="#939598" d="M278.871,180.99c-11.803-0.4-21.045-10.16-20.643-21.961"/>
		</g>
		<g>
			<polygon fill="none" stroke="#939598" points="237.025,159.537 238.529,159.525 238.543,180.963 237,180.975 			"/>
			<path fill="none" stroke="#939598" d="M237.658,180.99c11.803-0.4,21.045-10.16,20.643-21.961"/>
		</g>
	</g>
	
		<line fill="none" stroke="#939598" stroke-dasharray="1.5,1.5,1.5,1.5,1.5,1.5" x1="242.791" y1="143.244" x2="229.041" y2="143.244"/>
	
		<line fill="none" stroke="#939598" stroke-dasharray="1.5,1.5,1.5,1.5,1.5,1.5" x1="265.791" y1="143.244" x2="249.791" y2="143.244"/>
	
		<line fill="none" stroke="#939598" stroke-dasharray="1.5,1.5,1.5,1.5,1.5,1.5" x1="284.541" y1="143.244" x2="274.541" y2="143.244"/>
	<text transform="matrix(1 0 0 1 266.1211 145.5576)" fill="#939598" font-family="'Gotham-Book'" font-size="7">W</text>
	<text transform="matrix(1 0 0 1 243.792 145.5576)" fill="#939598" font-family="'Gotham-Book'" font-size="7">D</text>
</g>
<g id="Type">
	<text transform="matrix(1 0 0 1 256.7969 258.1748)"><tspan x="0" y="0" fill="#939598" font-family="'Gotham-Book'" font-size="7">E</tspan><tspan x="4.689" y="0" fill="#939598" font-family="'Gotham-Book'" font-size="7">n</tspan><tspan x="8.952" y="0" fill="#939598" font-family="'Gotham-Book'" font-size="7">try</tspan></text>
	<text transform="matrix(0 -1 1 0 229.5059 248.334)" fill="#939598" font-family="'Gotham-Book'" font-size="7">Closet</text>
	<text transform="matrix(1 0 0 1 313.6113 224.4062)"><tspan x="0" y="0" fill="#939598" font-family="'Gotham-Book'" font-size="9">B</tspan><tspan x="6.498" y="0" fill="#939598" font-family="'Gotham-Book'" font-size="9">a</tspan><tspan x="11.574" y="0" fill="#939598" font-family="'Gotham-Book'" font-size="9">th</tspan></text>
	<text transform="matrix(1 0 0 1 348.3486 170.0947)" fill="#939598" font-family="'Gotham-Book'" font-size="7">Closet</text>
	<text transform="matrix(1 0 0 1 48.4834 188.8418)" fill="#939598" font-family="'Gotham-Book'" font-size="7">Island</text>
	<text transform="matrix(1 0 0 1 41.3613 221.9043)" fill="#939598" font-family="'Gotham-Book'" font-size="9">Kitchen</text>
	<text transform="matrix(1 0 0 1 64.8096 203.3408)" fill="#939598" font-family="'Gotham-Book'" font-size="7">DW</text>
	<text transform="matrix(1 0 0 1 74.3682 242.2393)" fill="#939598" font-family="'Gotham-Book'" font-size="7">Ref</text>
	<text transform="matrix(0 -1 1 0 104.7207 252.1172)" fill="#939598" font-family="'Gotham-Book'" font-size="7">Pantry</text>
	<text transform="matrix(1 0 0 1 243.293 158.0703)"><tspan x="0" y="0" fill="#939598" font-family="'Gotham-Book'" font-size="7">Lau</tspan><tspan x="12.698" y="0" fill="#939598" font-family="'Gotham-Book'" font-size="7">n</tspan><tspan x="16.919" y="0" fill="#939598" font-family="'Gotham-Book'" font-size="7">dry</tspan></text>
	<text transform="matrix(1 0 0 1 282.4043 58.2568)"><tspan x="0" y="0" fill="#939598" font-family="'Gotham-Book'" font-size="9">Bedroom</tspan><tspan x="-3.681" y="11" fill="#939598" font-family="'Gotham-Book'" font-size="9">16&apos;5&quot; x 13&apos;5&quot; </tspan></text>
	<text id="Living_x2F_Dining_Room_12_x27_0_x22__x__x_2_x27_10_x22__1_" transform="matrix(1 0 0 1 69.9673 146.9238)"><tspan x="0" y="0" fill="#939598" font-family="'Gotham-Book'" font-size="9">Living/Dining Room</tspan><tspan x="17.676" y="11" fill="#939598" font-family="'Gotham-Book'" font-size="9">24&apos;6&quot; x 16&apos;7&quot;</tspan></text>
</g>
<g id="walls">
	<polyline fill="none" stroke="#939598" stroke-width="5" points="279.041,258.092 383.84,258.092 383.84,2.5 229.291,2.5 
		229.291,101.383 2.5,101.271 2.5,258.092 254.76,258.092 	"/>
	<polyline fill="none" stroke="#939598" stroke-width="3" points="279.91,159.631 284.832,159.631 284.832,130.5 	"/>
	<polyline fill="none" stroke="#939598" stroke-width="3" points="229.65,102.75 229.65,159.631 236.693,159.631 	"/>
	<line fill="none" stroke="#939598" stroke-width="3" x1="232.291" y1="248.5" x2="232.291" y2="256.5"/>
	<polyline fill="none" stroke="#939598" stroke-width="3" points="210.039,257.5 210.039,217 232.291,217 232.291,225.75 	"/>
	<polyline fill="none" stroke="#939598" stroke-width="3" points="316.541,191.459 356.291,191.459 356.291,207.988 
		382.791,207.988 	"/>
	<polyline fill="none" stroke="#939598" stroke-width="3" points="285.543,257.5 285.543,191.459 293.041,191.459 	"/>
	<line fill="none" stroke="#939598" stroke-width="3" x1="322.291" y1="131.5" x2="322.291" y2="190.25"/>
	<line fill="none" stroke="#939598" stroke-width="3" x1="377.791" y1="130" x2="384.791" y2="130"/>
	<line fill="none" stroke="#939598" stroke-width="3" x1="316.875" y1="130" x2="354.008" y2="130"/>
	<line fill="none" stroke="#939598" stroke-width="3" x1="230.041" y1="130" x2="293.291" y2="130"/>
</g>
<g id="windows">
	<g>
		<g>
			<rect x="15" y="99.418" fill="#FFFFFF" stroke="#939598" width="69.562" height="3.674"/>
			<line fill="none" stroke="#939598" x1="84.562" y1="101.236" x2="14.25" y2="101.236"/>
			<line fill="none" stroke="#939598" stroke-width="2" x1="61.889" y1="103.25" x2="61.889" y2="99.756"/>
		</g>
		<line fill="none" stroke="#939598" stroke-width="2" x1="38.5" y1="103.375" x2="38.5" y2="99.773"/>
	</g>
	<g>
		<g>
			<rect x="144" y="99.441" fill="#FFFFFF" stroke="#939598" width="69.562" height="3.674"/>
			<line fill="none" stroke="#939598" x1="213.562" y1="101.26" x2="143.25" y2="101.26"/>
			<line fill="none" stroke="#939598" stroke-width="2" x1="190.889" y1="103.273" x2="190.889" y2="99.779"/>
		</g>
		<line fill="none" stroke="#939598" stroke-width="2" x1="167.5" y1="103.398" x2="167.5" y2="99.797"/>
	</g>
	<g>
		<rect x="227.734" y="25" fill="#FFFFFF" stroke="#939598" width="3.674" height="36.25"/>
		<line fill="none" stroke="#939598" x1="229.553" y1="25" x2="229.553" y2="62"/>
	</g>
</g>
</svg>
