<?xml version="1.0" encoding="utf-8"?>
<!-- Generator: Adobe Illustrator 15.0.2, SVG Export Plug-In . SVG Version: 6.00 Build 0)  -->
<!DOCTYPE svg PUBLIC "-//W3C//DTD SVG 1.1//EN" "http://www.w3.org/Graphics/SVG/1.1/DTD/svg11.dtd">
<svg version="1.1" xmlns="http://www.w3.org/2000/svg" xmlns:xlink="http://www.w3.org/1999/xlink" x="0px" y="0px"
	 width="325.722px" height="206.848px" viewBox="0 0 325.722 206.848" enable-background="new 0 0 325.722 206.848"
	 xml:space="preserve">
<g id="_x32_0_x25___PMS_2985_fill">
	<polygon fill="#939598" points="244.785,16.441 244.785,8.108 108.119,8.108 108.119,17.107 2.119,16.773 2.119,204.442 
		156.535,204.442 156.535,203.442 3.119,203.442 3.119,17.776 109.119,18.11 109.119,9.108 243.785,9.108 243.785,17.441 
		323.119,17.441 323.119,203.442 180.66,203.442 180.66,204.442 324.119,204.442 324.119,16.441 	"/>
</g>
<g id="_x33_0_x25__grey_fill">
	<rect x="2.285" y="18.275" fill="#D1D3D4" width="25.667" height="5"/>
	<rect x="101.43" y="18.275" fill="#D1D3D4" width="18.689" height="5.333"/>
	<rect x="317.285" y="18.941" fill="#D1D3D4" width="5.833" height="4"/>
	<rect x="193.118" y="9.608" fill="#D1D3D4" width="50.5" height="14"/>
</g>
<g id="icons">
	<g>
		<polygon fill="none" stroke="#939598" points="52.646,127.957 50.976,127.965 50.96,151.784 52.631,151.775 		"/>
		<path fill="none" stroke="#939598" d="M51.878,151.793c-13.114-0.445-23.383-11.225-22.936-24.338"/>
	</g>
	<g>
		<polygon fill="none" stroke="#939598" points="156.765,204.818 158.435,204.831 158.45,181.012 156.758,181 		"/>
		<path fill="none" stroke="#939598" d="M157.554,180.981c13.114,0.445,23.383,11.289,22.936,24.402"/>
	</g>
	<g>
		<polygon fill="none" stroke="#939598" points="115.049,120.14 115.041,118.554 92.414,118.539 92.422,120.126 		"/>
		<path fill="none" stroke="#939598" d="M92.404,119.411c0.423-12.458,10.664-22.213,23.121-21.789"/>
	</g>
	<g>
		<polygon fill="none" stroke="#939598" points="143.521,128.448 141.852,128.457 141.836,152.275 143.507,152.266 		"/>
		<path fill="none" stroke="#939598" d="M142.754,152.285c-13.114-0.445-23.383-11.225-22.936-24.338"/>
	</g>
	<g>
		<polygon fill="none" stroke="#939598" points="197.549,156.89 197.541,155.304 174.914,155.289 174.922,156.876 		"/>
		<path fill="none" stroke="#939598" d="M174.904,156.161c0.423-12.458,10.664-22.214,23.121-21.788"/>
	</g>
	<g>
		<g>
			<polygon fill="none" stroke="#939598" points="198.109,198.644 198.105,197.345 183.85,197.335 183.855,198.636 			"/>
			<path fill="none" stroke="#939598" d="M183.844,198.185c0.266-7.849,6.719-13.994,14.566-13.727"/>
		</g>
		<g>
			<polygon fill="none" stroke="#939598" points="198.109,170.201 198.105,171.5 183.85,171.51 183.855,170.209 			"/>
			<path fill="none" stroke="#939598" d="M183.844,170.66c0.266,7.849,6.719,13.994,14.566,13.727"/>
		</g>
	</g>
	<line fill="none" stroke="#939598" x1="209.16" y1="165.15" x2="209.16" y2="203.4"/>
	<polyline fill="#FFFFFF" stroke="#939598" points="115.16,200.067 115.16,182.694 147.952,182.694 147.952,200.942 	"/>
	<rect x="254.327" y="124.025" fill="#FFFFFF" stroke="#939598" width="48" height="27.625"/>
	<polyline fill="none" stroke="#939598" points="18.16,129.65 18.16,193.025 82.66,193.025 	"/>
	<line fill="none" stroke="#939598" x1="27.952" y1="24.791" x2="323.619" y2="24.791"/>
	<g>
		<rect x="121.493" y="18.622" fill="none" stroke="#939598" width="37.5" height="1.744"/>
		<rect x="150.243" y="16.979" fill="none" stroke="#939598" width="41" height="1.658"/>
	</g>
	<g>
		<rect x="108.619" y="8.486" fill="none" stroke="#939598" width="2.875" height="2.875"/>
		<line fill="none" stroke="#939598" x1="195.369" y1="10.611" x2="111.494" y2="10.611"/>
		<line fill="none" stroke="#939598" x1="110.937" y1="11.361" x2="110.937" y2="17.942"/>
		<line fill="none" stroke="#939598" x1="108.619" y1="11.361" x2="108.619" y2="17.692"/>
		<line fill="none" stroke="#939598" x1="111.494" y1="8.486" x2="195.619" y2="8.486"/>
	</g>
	<polyline fill="none" stroke="#939598" stroke-dasharray="1.5,1.5,1.5,1.5,1.5,1.5" points="16.108,129.275 16.13,194.995 
		82.14,194.995 	"/>
	
		<line fill="none" stroke="#939598" stroke-dasharray="1.5,1.5,1.5,1.5,1.5,1.5" x1="211.312" y1="165.442" x2="211.312" y2="204.942"/>
	<g>
		<path fill="#FFFFFF" stroke="#939598" stroke-miterlimit="10" d="M105.818,187.407c0-4.462-2.711-9.376-6.053-9.376
			s-6.041,4.914-6.041,9.376c0,4.463,2.699,6.785,6.041,6.785S105.818,191.87,105.818,187.407"/>
		<path fill="#FFFFFF" stroke="#939598" d="M105.818,187.407c0-4.462-2.711-9.376-6.053-9.376s-6.041,4.914-6.041,9.376
			c0,4.463,2.699,6.785,6.041,6.785S105.818,191.87,105.818,187.407z"/>
		<path fill="#FFFFFF" stroke="#939598" stroke-miterlimit="10" d="M96.142,192.729c0-0.25-0.205-0.455-0.455-0.455H93.58
			c-0.25,0-0.455,0.205-0.455,0.455v0.077c0,0.25,0.205,0.455,0.455,0.455h2.107c0.25,0,0.455-0.205,0.455-0.455V192.729z"/>
		<path fill="#FFFFFF" stroke="#939598" d="M96.142,192.729c0-0.25-0.205-0.455-0.455-0.455H93.58c-0.25,0-0.455,0.205-0.455,0.455
			v0.077c0,0.25,0.205,0.455,0.455,0.455h2.107c0.25,0,0.455-0.205,0.455-0.455V192.729z"/>
		<path fill="#FFFFFF" stroke="#939598" stroke-miterlimit="10" d="M92.804,193.273c-0.758,0-1.375,2.057-1.375,2.816
			c0,0.769,0.617,2.825,1.375,2.825h13.814c0.76,0,1.375-2.057,1.375-2.825c0-0.76-0.615-2.814-1.375-2.814L92.804,193.273z"/>
		<path fill="#FFFFFF" stroke="#939598" d="M92.804,193.273c-0.758,0-1.375,2.057-1.375,2.816c0,0.769,0.617,2.825,1.375,2.825
			h13.814c0.76,0,1.375-2.057,1.375-2.825c0-0.76-0.615-2.814-1.375-2.814L92.804,193.273z"/>
		<path fill="#FFFFFF" stroke="#939598" stroke-miterlimit="10" d="M104.214,187.22c0-3.279-1.992-6.893-4.449-6.893
			s-4.447,3.613-4.447,6.893s1.99,4.985,4.447,4.985S104.214,190.5,104.214,187.22"/>
		<path fill="#FFFFFF" stroke="#939598" d="M104.214,187.22c0-3.279-1.992-6.893-4.449-6.893s-4.447,3.613-4.447,6.893
			s1.99,4.985,4.447,4.985S104.214,190.5,104.214,187.22z"/>
	</g>
	<g>
		<g>
			<rect x="60.028" y="130.25" fill="#FFFFFF" stroke="#939598" width="23.625" height="45.693"/>
			<path fill="#FFFFFF" stroke="#939598" d="M71.84,153.097"/>
			<path fill="#FFFFFF" stroke="#939598" d="M71.84,153.253"/>
			<path fill="#FFFFFF" stroke="#939598" d="M71.84,168.747"/>
		</g>
		<circle fill="#FFFFFF" stroke="#939598" cx="71.952" cy="165.529" r="0.969"/>
		<path fill="#FFFFFF" stroke="#939598" d="M71.913,132.859c-6.771,0-9.25,1.562-9.25,3.752c0,0,0,32.839,0,33.376
			c0,0.535,0.145,1.641,1.561,1.641c1.418,0,7.689,0,7.689,0h0.016c0,0,6.271,0,7.689,0c1.416,0,1.561-1.105,1.561-1.641
			c0-0.537,0-33.354,0-33.354l-0.002-0.021C81.176,134.421,78.641,132.859,71.913,132.859z"/>
		<path fill="#FFFFFF" stroke="#939598" d="M69.92,173.327c0.002-0.549-0.44-0.988-0.995-0.988c-0.537,0-0.982,0.439-0.986,0.988
			c0.004,0.545,0.449,0.995,0.986,0.995C69.48,174.322,69.922,173.877,69.92,173.327z"/>
		<path fill="#FFFFFF" stroke="#939598" d="M76.062,173.327c0.006-0.549-0.445-0.988-0.99-0.988c-0.543,0-0.99,0.439-0.99,0.988
			c0,0.545,0.447,0.995,0.99,0.988C75.619,174.322,76.062,173.872,76.062,173.327z"/>
		<path fill="#FFFFFF" stroke="#939598" d="M70.619,173.62c0,0.812,0.549,1.469,1.361,1.471c0.811-0.002,1.254-0.658,1.254-1.471
			l-0.521-5.592c0-0.549-1.482-0.549-1.482,0L70.619,173.62z"/>
	</g>
	<g>
		<g>
			<g>
				<g>
					<rect x="202.836" y="134.441" fill="#FFFFFF" stroke="#939598" width="18.545" height="20.188"/>
					<path fill="#FFFFFF" stroke="#939598" d="M211.492,144.535"/>
					<polyline fill="#FFFFFF" stroke="#939598" points="208.369,138.41 205.548,138.41 204.89,140.847 204.89,148.316 
						205.548,150.785 208.369,150.785 					"/>
					<line fill="#FFFFFF" stroke="#939598" x1="208.369" y1="154.775" x2="208.369" y2="134.441"/>
					<path fill="#FFFFFF" stroke="#939598" d="M210.546,144.597"/>
				</g>
			</g>
		</g>
		<polygon fill="#FFFFFF" stroke="#939598" points="207.152,153.647 207.148,152.016 208.286,151.658 208.291,154.005 		"/>
	</g>
	<g>
		<g>
			<path fill="#FFFFFF" stroke="#939598" d="M276.302,134.962c-0.426,0-0.771,0.344-0.771,0.771v13.445
				c0,0.426,0.346,0.771,0.771,0.771h22.807c0.426,0,0.771-0.346,0.771-0.771v-13.445c0-0.428-0.345-0.771-0.771-0.771H276.302z"/>
			<path fill="#FFFFFF" stroke="#939598" d="M287.624,141.875"/>
		</g>
		<g>
			<circle fill="#FFFFFF" stroke="#939598" cx="287.624" cy="142.786" r="0.871"/>
			<path fill="#FFFFFF" stroke="#939598" d="M287.624,142.785"/>
		</g>
		<g>
			<g>
				<rect x="283.819" y="135.499" fill="#FFFFFF" stroke="#939598" width="7.609" height="1.82"/>
				<path fill="#FFFFFF" stroke="#939598" d="M287.624,136.408"/>
			</g>
			<g>
				<rect x="287.235" y="137.271" fill="#FFFFFF" stroke="#939598" width="0.777" height="3.586"/>
				<path fill="#FFFFFF" stroke="#939598" d="M287.624,138.833"/>
			</g>
			<g>
				<circle fill="#FFFFFF" stroke="#939598" cx="287.624" cy="136.426" r="0.847"/>
				<path fill="#FFFFFF" stroke="#939598" d="M287.624,136.426"/>
			</g>
		</g>
		<g>
			<path fill="#FFFFFF" stroke="#939598" d="M287.624,142.785"/>
			<path fill="none" stroke="#939598" d="M287.154,137.948h-9.589c-0.447,0-0.811,0.362-0.811,0.81v9.221
				c0,0.445,0.363,0.809,0.811,0.809h20.279c0.447,0,0.811-0.363,0.811-0.809v-9.221c0-0.447-0.363-0.81-0.811-0.81h-9.726"/>
		</g>
	</g>
	<g>
		<polyline fill="none" stroke="#939598" stroke-dasharray="1.5,1,1.5,1,1.5,1" points="273.499,152.147 273.499,135.17 
			256.851,135.17 256.851,151.765 		"/>
		<polyline fill="#FFFFFF" stroke="#939598" points="256.825,151.765 256.825,152.774 273.499,152.774 273.499,152.153 		"/>
	</g>
	<rect x="243.285" y="182.442" fill="#FFFFFF" stroke="#939598" width="79.5" height="20.833"/>
	<g>
		<g>
			<rect x="262.234" y="181.1" fill="#FFFFFF" stroke="#939598" width="23.25" height="19.75"/>
			<path fill="#FFFFFF" stroke="#939598" d="M273.859,190.975"/>
		</g>
		<g>
			<g>
				<circle fill="#FFFFFF" stroke="#939598" cx="279.175" cy="185.475" r="2.824"/>
				<path fill="#FFFFFF" stroke="#939598" d="M279.175,185.475"/>
			</g>
			<g>
				<circle fill="#FFFFFF" stroke="#939598" stroke-width="0.8" cx="279.203" cy="185.476" r="1.989"/>
				<path fill="#FFFFFF" stroke="#939598" d="M279.203,185.475"/>
			</g>
		</g>
		<g>
			<g>
				<circle fill="#FFFFFF" stroke="#939598" cx="267.888" cy="193.725" r="2.824"/>
				<path fill="#FFFFFF" stroke="#939598" d="M267.888,193.725"/>
			</g>
			<g>
				<circle fill="#FFFFFF" stroke="#939598" stroke-width="0.8" cx="267.859" cy="193.726" r="1.989"/>
				<path fill="#FFFFFF" stroke="#939598" d="M267.859,193.725"/>
			</g>
		</g>
		<g>
			<g>
				<circle fill="#FFFFFF" stroke="#939598" cx="279.213" cy="193.698" r="3.219"/>
				<path fill="#FFFFFF" stroke="#939598" d="M279.213,193.698"/>
			</g>
			<g>
				<circle fill="#FFFFFF" stroke="#939598" stroke-width="0.8" cx="279.182" cy="193.698" r="2.268"/>
				<path fill="#FFFFFF" stroke="#939598" d="M279.182,193.698"/>
			</g>
		</g>
		<g>
			<g>
				<circle fill="#FFFFFF" stroke="#939598" cx="267.9" cy="185.258" r="3.219"/>
				<path fill="#FFFFFF" stroke="#939598" d="M267.9,185.258"/>
			</g>
			<g>
				<circle fill="#FFFFFF" stroke="#939598" stroke-width="0.8" cx="267.868" cy="185.258" r="2.268"/>
				<path fill="#FFFFFF" stroke="#939598" d="M267.868,185.258"/>
			</g>
		</g>
		<line fill="#FFFFFF" stroke="#939598" x1="285.516" y1="198.118" x2="262.234" y2="198.118"/>
		<line fill="#FFFFFF" stroke="#939598" x1="285.484" y1="199.209" x2="262.234" y2="199.209"/>
	</g>
	<g>
		<g>
			<rect x="295.1" y="179.332" fill="#FFFFFF" stroke="#939598" width="24.901" height="21.969"/>
			<path fill="#FFFFFF" stroke="#939598" d="M308.839,190.316"/>
		</g>
		<line fill="#FFFFFF" stroke="#939598" x1="295.04" y1="180.868" x2="320.001" y2="180.868"/>
		<rect x="315.905" y="178.247" fill="#FFFFFF" stroke="#939598" width="2.018" height="1.069"/>
		<path fill="#FFFFFF" stroke="#939598" d="M316.914,178.84"/>
	</g>
	
		<line fill="none" stroke="#939598" stroke-dasharray="1.5,1.5,1.5,1.5,1.5,1.5" x1="244.452" y1="193.442" x2="322.952" y2="193.442"/>
	<g>
		<polyline fill="#FFFFFF" stroke="#939598" points="240.527,177.286 242.361,177.286 242.361,203.452 226.694,203.452 
			226.694,177.286 230.027,177.286 		"/>
		<g>
			<g>
				<g>
					<polygon fill="none" stroke="#939598" stroke-width="0.7" points="235.188,168.401 236.438,169.088 231.229,177.681 
						229.979,176.995 					"/>
					<path fill="none" stroke="#939598" stroke-width="0.8" d="M232.258,173.737"/>
				</g>
				<path fill="none" stroke="#939598" stroke-width="0.8" d="M235.666,168.815c3.202,1.94,4.926,5.394,4.81,8.888"/>
			</g>
		</g>
	</g>
	<g>
		<g>
			<g>
				<path fill="none" stroke="#939598" d="M131.453,189.777"/>
			</g>
			<g>
				<path fill="none" stroke="#939598" d="M131.453,190.839"/>
			</g>
			<g>
				<circle fill="none" stroke="#939598" cx="131.453" cy="189.777" r="1.017"/>
				<path fill="none" stroke="#939598" d="M131.453,189.777"/>
			</g>
			<g>
				<g>
					<rect x="127.188" y="196.152" fill="none" stroke="#939598" width="8.553" height="2.125"/>
					<path fill="none" stroke="#939598" d="M131.453,197.214"/>
				</g>
				<g>
					<rect x="131" y="192.027" fill="none" stroke="#939598" width="0.906" height="4.031"/>
					<path fill="none" stroke="#939598" d="M131.453,194.386"/>
				</g>
				<g>
					<circle fill="none" stroke="#939598" cx="131.453" cy="197.194" r="0.986"/>
					<path fill="none" stroke="#939598" d="M131.453,197.194"/>
				</g>
			</g>
		</g>
		<g>
			<rect x="122.926" y="184.727" fill="none" stroke="#939598" width="17.076" height="13.875"/>
			<rect x="124.318" y="186.122" fill="none" stroke="#939598" width="14.255" height="9.98"/>
		</g>
	</g>
</g>
<g id="walls">
	<polyline fill="none" stroke="#939598" stroke-width="5" points="242.618,18.34 323.222,18.34 323.222,204.34 180.535,204.34 	"/>
	<line fill="none" stroke="#939598" stroke-width="3" x1="189.035" y1="18.34" x2="194.785" y2="18.34"/>
	<polyline fill="none" stroke="#939598" stroke-width="5" points="157.035,204.34 2.5,204.34 2.5,18.34 125.285,18.34 	"/>
	<polyline fill="none" stroke="#939598" stroke-width="3" points="143.535,128.609 148.952,128.609 148.952,203.275 	"/>
	<line fill="none" stroke="#939598" stroke-width="3" x1="52.812" y1="128.609" x2="120.186" y2="128.609"/>
	<line fill="none" stroke="#939598" stroke-width="3" x1="1.619" y1="128.609" x2="29.035" y2="128.609"/>
	<line fill="none" stroke="#939598" stroke-width="3" x1="114.952" y1="120.15" x2="114.952" y2="129.275"/>
	<line fill="none" stroke="#939598" stroke-width="3" x1="114.952" y1="24.775" x2="114.952" y2="97.944"/>
	<polyline fill="none" stroke="#939598" stroke-width="3" points="197.619,134.621 197.619,128.609 226.619,128.609 
		226.619,203.942 	"/>
	<line fill="none" stroke="#939598" stroke-width="3" x1="197.619" y1="170.025" x2="197.619" y2="156.775"/>
	<line fill="none" stroke="#939598" stroke-width="3" x1="197.619" y1="203.609" x2="197.619" y2="198.65"/>
	<line fill="none" stroke="#939598" stroke-width="3" x1="243.285" y1="176.609" x2="243.285" y2="203.609"/>
	<polyline fill="none" stroke="#939598" stroke-width="3" points="147.619,201.608 83.285,201.608 83.285,177.275 58.952,177.382 
		58.952,129.716 	"/>
	<polyline fill="none" stroke="#939598" stroke-width="5" points="243.737,18.609 243.737,9.718 193.619,9.718 193.619,18.274 	"/>
	<polyline fill="none" stroke="#939598" stroke-width="3" points="194.564,18.274 194.564,23.448 242.706,23.448 242.706,18.609 	
		"/>
	<polyline fill="none" stroke="#939598" stroke-width="3" points="27.285,18.275 27.285,23.866 2.619,23.866 	"/>
	<polyline fill="none" stroke="#939598" stroke-width="3" points="101.554,18.608 101.554,23.544 120.285,23.544 120.285,17.275 	
		"/>
	<line fill="none" stroke="#939598" stroke-width="5" x1="198.535" y1="163.275" x2="225.285" y2="163.275"/>
	<polyline fill="none" stroke="#939598" stroke-width="3" points="317.683,19.775 317.683,23.474 322.452,23.474 	"/>
</g>
<g id="windows">
	<g>
		<g>
			<rect x="30.244" y="16.443" fill="#FFFFFF" stroke="#939598" width="69.562" height="3.674"/>
			<line fill="none" stroke="#939598" x1="99.807" y1="18.261" x2="29.494" y2="18.261"/>
			<line fill="none" stroke="#939598" stroke-width="2" x1="77.133" y1="20.275" x2="77.133" y2="16.781"/>
		</g>
		<line fill="none" stroke="#939598" stroke-width="2" x1="53.744" y1="20.4" x2="53.744" y2="16.798"/>
	</g>
	<g>
		<g>
			<rect x="246.275" y="16.469" fill="#FFFFFF" stroke="#939598" width="69.562" height="3.674"/>
			<line fill="none" stroke="#939598" x1="315.838" y1="18.288" x2="245.525" y2="18.288"/>
			<line fill="none" stroke="#939598" stroke-width="2" x1="293.164" y1="20.301" x2="293.164" y2="16.807"/>
		</g>
		<line fill="none" stroke="#939598" stroke-width="2" x1="269.775" y1="20.426" x2="269.775" y2="16.825"/>
	</g>
</g>
<g id="Type">
	<text transform="matrix(1 0 0 1 129.4062 5.9497)" fill="#939598" font-family="'Gotham-Book'" font-size="7">Juliet Balcony</text>
	<text transform="matrix(1 0 0 1 103.855 163.6792)"><tspan x="0" y="0" fill="#939598" font-family="'Gotham-Book'" font-size="9">B</tspan><tspan x="6.498" y="0" fill="#939598" font-family="'Gotham-Book'" font-size="9">a</tspan><tspan x="11.619" y="0" fill="#939598" font-family="'Gotham-Book'" font-size="9">th</tspan></text>
	<text transform="matrix(1 0 0 1 268.8164 131.6167)"><tspan x="0" y="0" fill="#939598" font-family="'Gotham-Book'" font-size="7">I</tspan><tspan x="2.037" y="0" fill="#939598" font-family="'Gotham-Book'" font-size="7">s</tspan><tspan x="5.425" y="0" fill="#939598" font-family="'Gotham-Book'" font-size="7">la</tspan><tspan x="11.318" y="0" fill="#939598" font-family="'Gotham-Book'" font-size="7">n</tspan><tspan x="15.554" y="0" fill="#939598" font-family="'Gotham-Book'" font-size="7">d</tspan></text>
	<text transform="matrix(1 0 0 1 160.0405 205.6997)"><tspan x="0" y="0" fill="#939598" font-family="'Gotham-Book'" font-size="7">E</tspan><tspan x="4.69" y="0" fill="#939598" font-family="'Gotham-Book'" font-size="7">n</tspan><tspan x="8.953" y="0" fill="#939598" font-family="'Gotham-Book'" font-size="7">try</tspan></text>
	<text transform="matrix(1 0 0 1 255.8555 169.9321)" fill="#939598" font-family="'Gotham-Book'" font-size="9">Kitchen</text>
	<text transform="matrix(0 -1 1 0 217.3564 152.7349)" fill="#939598" font-family="'Gotham-Book'" font-size="7">W/D</text>
	<text transform="matrix(0 -1 1 0 205.5 195.6089)" fill="#939598" font-family="'Gotham-Book'" font-size="7">Closet</text>
	<text transform="matrix(1 0 0 1 26.5889 170.6157)" fill="#939598" font-family="'Gotham-Book'" font-size="7">Closet</text>
	<text transform="matrix(1 0 0 1 301.3613 190.0337)" fill="#939598" font-family="'Gotham-Book'" font-size="7">Ref</text>
	<text transform="matrix(1 0 0 1 258.0537 145.3657)" fill="#939598" font-family="'Gotham-Book'" font-size="7">DW</text>
	<text id="Living_x2F_Dining_Room_12_x27_0_x22__x__x_2_x27_10_x22__1_" transform="matrix(1 0 0 1 174.6279 72.6987)"><tspan x="0" y="0" fill="#939598" font-family="'Gotham-Book'" font-size="9">Living/Dining Room</tspan><tspan x="19.3" y="11" fill="#939598" font-family="'Gotham-Book'" font-size="9">22&apos;8&quot; x 11&apos;3&quot;</tspan></text>
	<text transform="matrix(1 0 0 1 38.5981 72.0317)"><tspan x="0" y="0" fill="#939598" font-family="'Gotham-Book'" font-size="9">Bedroom</tspan><tspan x="-4.135" y="11" fill="#939598" font-family="'Gotham-Book'" font-size="9">12&apos;0&quot; x 11&apos;3&quot;</tspan></text>
	<text transform="matrix(0 -1 1 0 237.4648 200.6421)"><tspan x="0" y="0" fill="#939598" font-family="'Gotham-Book'" font-size="7">Pan</tspan><tspan x="12.411" y="0" fill="#939598" font-family="'Gotham-Book'" font-size="7">t</tspan><tspan x="15.246" y="0" fill="#939598" font-family="'Gotham-Book'" font-size="7">r</tspan><tspan x="18.235" y="0" fill="#939598" font-family="'Gotham-Book'" font-size="7">y</tspan></text>
</g>
</svg>
