<?xml version="1.0" encoding="utf-8"?>
<!-- Generator: Adobe Illustrator 15.0.2, SVG Export Plug-In . SVG Version: 6.00 Build 0)  -->
<!DOCTYPE svg PUBLIC "-//W3C//DTD SVG 1.1//EN" "http://www.w3.org/Graphics/SVG/1.1/DTD/svg11.dtd">
<svg version="1.1" id="Layer_1" xmlns="http://www.w3.org/2000/svg" xmlns:xlink="http://www.w3.org/1999/xlink" x="0px" y="0px"
	 width="431.753px" height="167.002px" viewBox="0 0 431.753 167.002" enable-background="new 0 0 431.753 167.002"
	 xml:space="preserve">
<g id="_x32_0_x25___PMS_2985_fill">
	<path fill="none" d="M30.48,2.287c-1.333,0.333-28.333,28-28.333,28V140.62l27.667,24.333h400.334V2.287H30.48z"/>
</g>
<g id="_x33_0_x25__grey_fill">
	<polygon fill="#D1D3D4" points="30.146,2.453 25.48,7.62 90.146,7.62 90.146,2.62 	"/>
	<rect x="419.148" y="2.453" fill="#D1D3D4" stroke="#939598" stroke-miterlimit="10" width="10.332" height="5.667"/>
	<rect x="296.647" y="2.453" fill="#D1D3D4" width="51.166" height="4.833"/>
	<polygon fill="#D1D3D4" points="204.647,164.453 204.647,158.286 244.647,158.286 244.647,154.953 335.314,154.953 
		335.314,157.953 429.814,157.953 429.814,163.953 	"/>
</g>
<g id="icons">
	<polygon fill="#FFFFFF" stroke="#939598" points="79.105,140.328 26.605,140.328 24.23,137.953 24.23,10.953 2.48,31.62 
		3.48,141.62 28.147,163.62 79.48,163.62 	"/>
	<g>
		<g>
			<rect x="109.289" y="142.086" fill="#FFFFFF" stroke="#939598" width="20.188" height="18.543"/>
			<path fill="none" stroke="#939598" d="M119.382,150.742"/>
			<line fill="none" stroke="#939598" x1="109.257" y1="157.681" x2="129.507" y2="157.681"/>
			<line fill="none" stroke="#939598" x1="109.289" y1="158.556" x2="129.476" y2="158.556"/>
			<polygon fill="none" stroke="#939598" points="125.507,155.451 125.507,146.356 123.07,144.14 115.601,144.14 113.132,146.356 
				113.132,155.451 			"/>
			<path fill="none" stroke="#939598" d="M119.32,149.795"/>
		</g>
	</g>
	<g>
		<g>
			<rect x="85.703" y="142.086" fill="#FFFFFF" stroke="#939598" width="20.188" height="18.543"/>
			<path fill="none" stroke="#939598" d="M95.796,150.742"/>
			<line fill="none" stroke="#939598" x1="85.671" y1="157.681" x2="105.921" y2="157.681"/>
			<line fill="none" stroke="#939598" x1="85.703" y1="158.556" x2="105.89" y2="158.556"/>
			<g>
				<rect x="103.546" y="141.147" fill="none" stroke="#939598" width="0.875" height="0.875"/>
				<path fill="none" stroke="#939598" d="M103.984,141.586"/>
			</g>
		</g>
	</g>
	<g>
		<polygon fill="none" stroke="#939598" points="253.544,93.699 255.214,93.708 255.231,117.526 253.56,117.519 		"/>
		<path fill="none" stroke="#939598" d="M254.313,117.536c13.114-0.445,23.383-11.225,22.937-24.338"/>
	</g>
	<g>
		<polygon fill="none" stroke="#939598" points="296.593,81.472 296.603,79.886 319.23,79.87 319.222,81.458 		"/>
		<path fill="none" stroke="#939598" d="M319.24,80.742c-0.424-12.458-10.664-22.214-23.121-21.788"/>
	</g>
	<g>
		<polygon fill="none" stroke="#939598" points="176.078,164.733 177.748,164.746 177.763,140.928 176.049,140.915 		"/>
		<path fill="none" stroke="#939598" d="M176.781,140.896c13.114,0.445,23.383,11.289,22.936,24.402"/>
	</g>
	<g>
		<polygon fill="none" stroke="#939598" points="364.794,93.949 366.464,93.958 366.481,117.776 364.81,117.769 		"/>
		<path fill="none" stroke="#939598" d="M365.563,117.786c13.114-0.445,23.383-11.225,22.937-24.338"/>
	</g>
	<g>
		<polygon fill="none" stroke="#939598" points="141.078,134.233 142.748,134.246 142.763,110.429 141.049,110.415 		"/>
		<path fill="none" stroke="#939598" d="M141.781,110.396c13.114,0.445,23.383,11.289,22.936,24.402"/>
	</g>
	<g>
		<g>
			<polygon fill="none" stroke="#939598" points="86.781,134.476 88.284,134.485 88.298,113.049 86.756,113.037 			"/>
			<path fill="none" stroke="#939598" d="M87.414,113.021c11.803,0.4,21.044,10.16,20.642,21.961"/>
		</g>
		<g>
			<polygon fill="none" stroke="#939598" points="129.259,134.476 127.756,134.485 127.742,113.049 129.284,113.037 			"/>
			<path fill="none" stroke="#939598" d="M128.626,113.021c-11.803,0.4-21.044,10.16-20.642,21.961"/>
		</g>
	</g>
	<line fill="none" stroke="#939598" x1="137.48" y1="149.453" x2="168.48" y2="149.453"/>
	<polyline fill="#FFFFFF" stroke="#939598" points="273.48,155.203 273.48,136.244 297.73,136.244 297.73,154.703 	"/>
	<polyline fill="none" stroke="#939598" points="417.98,95.203 417.98,147.703 362.48,147.703 362.48,156.703 	"/>
	<rect x="53.98" y="44.703" fill="#FFFFFF" stroke="#939598" width="22.5" height="54.125"/>
	<line fill="none" stroke="#939598" x1="347.98" y1="8.587" x2="420.812" y2="8.587"/>
	<polyline fill="none" stroke="#939598" points="295.855,8.578 223.369,8.578 223.369,3.953 	"/>
	
		<line fill="none" stroke="#939598" stroke-dasharray="1.5,1.5,1.5,1.5,1.5,1.5" x1="135.98" y1="151.719" x2="168.589" y2="151.719"/>
	
		<line fill="none" stroke="#939598" stroke-dasharray="1.5,1.5,1.5,1.5,1.5,1.5" x1="123.479" y1="150.703" x2="135.23" y2="150.703"/>
	
		<line fill="none" stroke="#939598" stroke-dasharray="1.5,1.5,1.5,1.5,1.5,1.5" x1="99.229" y1="150.703" x2="114.98" y2="150.703"/>
	
		<line fill="none" stroke="#939598" stroke-dasharray="1.5,1.5,1.5,1.5,1.5,1.5" x1="79.98" y1="150.703" x2="92.979" y2="150.703"/>
	<polyline fill="none" stroke="#939598" stroke-dasharray="1.5,1.5,1.5,1.5,1.5,1.5" points="362.73,149.869 420.111,149.869 
		420.111,94.703 	"/>
	<g>
		<g>
			<path fill="#FFFFFF" stroke="#939598" d="M6.736,95.458c0,0.426,0.344,0.771,0.771,0.771h13.445c0.426,0,0.771-0.347,0.771-0.771
				V72.651c0-0.426-0.346-0.771-0.771-0.771H7.507c-0.428,0-0.771,0.345-0.771,0.771V95.458z"/>
			<path fill="#FFFFFF" stroke="#939598" d="M13.648,84.136"/>
		</g>
		<g>
			<circle fill="#FFFFFF" stroke="#939598" cx="14.559" cy="84.136" r="0.871"/>
			<path fill="#FFFFFF" stroke="#939598" d="M14.558,84.136"/>
		</g>
		<g>
			<g>
				<rect x="7.272" y="80.331" fill="#FFFFFF" stroke="#939598" width="1.82" height="7.609"/>
				<path fill="#FFFFFF" stroke="#939598" d="M8.181,84.136"/>
			</g>
			<g>
				<rect x="9.044" y="83.747" fill="#FFFFFF" stroke="#939598" width="3.586" height="0.777"/>
				<path fill="#FFFFFF" stroke="#939598" d="M10.606,84.136"/>
			</g>
			<g>
				<circle fill="#FFFFFF" stroke="#939598" cx="8.2" cy="84.136" r="0.847"/>
				<path fill="#FFFFFF" stroke="#939598" d="M8.2,84.136"/>
			</g>
		</g>
		<g>
			<path fill="#FFFFFF" stroke="#939598" d="M14.558,84.136"/>
			<path fill="none" stroke="#939598" d="M9.721,84.604v9.59c0,0.447,0.362,0.811,0.81,0.811h9.221c0.445,0,0.809-0.363,0.809-0.811
				V73.915c0-0.447-0.363-0.811-0.809-0.811h-9.221c-0.447,0-0.81,0.363-0.81,0.811v9.726"/>
		</g>
	</g>
	<g>
		<polyline fill="none" stroke="#939598" stroke-dasharray="1.5,1,1.5,1,1.5,1" points="24.826,99.399 7.849,99.399 7.849,116.048 
			24.444,116.048 		"/>
		<polyline fill="#FFFFFF" stroke="#939598" points="24.444,116.073 25.453,116.073 25.453,99.399 24.832,99.399 		"/>
	</g>
	<g>
		<g>
			<rect x="52.25" y="139.271" fill="#FFFFFF" stroke="#939598" width="24.901" height="21.97"/>
			<path fill="#FFFFFF" stroke="#939598" d="M65.99,150.256"/>
		</g>
		<line fill="none" stroke="#939598" x1="52.191" y1="140.808" x2="77.152" y2="140.808"/>
		<rect x="73.056" y="138.187" fill="#FFFFFF" stroke="#939598" width="2.018" height="1.069"/>
		<path fill="#FFFFFF" stroke="#939598" d="M74.065,138.78"/>
	</g>
	<g>
		<polyline fill="#FFFFFF" stroke="#939598" points="49.224,139.834 51.058,139.834 51.058,161.25 35.391,161.25 35.391,139.834 
			38.724,139.834 		"/>
		<g>
			<g>
				<g>
					<polygon fill="none" stroke="#939598" stroke-width="0.7" points="43.884,130.949 45.135,131.638 39.926,140.229 
						38.675,139.543 					"/>
					<path fill="none" stroke="#939598" stroke-width="0.8" d="M40.955,136.285"/>
				</g>
				<path fill="none" stroke="#939598" stroke-width="0.8" d="M44.363,131.362c3.202,1.941,4.926,5.395,4.81,8.889"/>
			</g>
		</g>
	</g>
	<g>
		<g>
			<rect x="6.046" y="35.975" fill="#FFFFFF" stroke="#939598" width="19.75" height="23.25"/>
			<path fill="#FFFFFF" stroke="#939598" d="M15.921,47.6"/>
		</g>
		<g>
			<g>
				<circle fill="#FFFFFF" stroke="#939598" cx="21.421" cy="52.915" r="2.824"/>
				<path fill="#FFFFFF" stroke="#939598" d="M21.421,52.915"/>
			</g>
			<g>
				<circle fill="#FFFFFF" stroke="#939598" stroke-width="0.8" cx="21.42" cy="52.943" r="1.989"/>
				<path fill="#FFFFFF" stroke="#939598" d="M21.421,52.943"/>
			</g>
		</g>
		<g>
			<g>
				<circle fill="#FFFFFF" stroke="#939598" cx="13.171" cy="41.628" r="2.824"/>
				<path fill="#FFFFFF" stroke="#939598" d="M13.171,41.628"/>
			</g>
			<g>
				<circle fill="#FFFFFF" stroke="#939598" stroke-width="0.8" cx="13.17" cy="41.6" r="1.989"/>
				<path fill="#FFFFFF" stroke="#939598" d="M13.171,41.6"/>
			</g>
		</g>
		<g>
			<g>
				<circle fill="#FFFFFF" stroke="#939598" cx="13.199" cy="52.953" r="3.219"/>
				<path fill="#FFFFFF" stroke="#939598" d="M13.199,52.953"/>
			</g>
			<g>
				<circle fill="#FFFFFF" stroke="#939598" stroke-width="0.8" cx="13.199" cy="52.922" r="2.268"/>
				<path fill="#FFFFFF" stroke="#939598" d="M13.199,52.922"/>
			</g>
		</g>
		<g>
			<g>
				<circle fill="#FFFFFF" stroke="#939598" cx="21.638" cy="41.641" r="3.219"/>
				<path fill="#FFFFFF" stroke="#939598" d="M21.638,41.641"/>
			</g>
			<g>
				<circle fill="#FFFFFF" stroke="#939598" stroke-width="0.8" cx="21.638" cy="41.608" r="2.268"/>
				<path fill="#FFFFFF" stroke="#939598" d="M21.638,41.608"/>
			</g>
		</g>
		<line fill="none" stroke="#939598" x1="8.779" y1="59.256" x2="8.779" y2="35.975"/>
		<line fill="none" stroke="#939598" x1="7.687" y1="59.225" x2="7.687" y2="35.975"/>
	</g>
	<text transform="matrix(1 0 0 1 115.3091 153.0107)" fill="#939598" font-family="'Gotham-Book'" font-size="7">W</text>
	<text transform="matrix(1 0 0 1 92.981 153.0107)" fill="#939598" font-family="'Gotham-Book'" font-size="7">D</text>
	<g>
		<path fill="#FFFFFF" stroke="#939598" stroke-miterlimit="10" d="M266.361,141.099c0-4.461-2.711-9.375-6.053-9.375
			s-6.041,4.914-6.041,9.375c0,4.463,2.699,6.785,6.041,6.785S266.361,145.562,266.361,141.099"/>
		<path fill="#FFFFFF" stroke="#939598" d="M266.361,141.099c0-4.461-2.711-9.375-6.053-9.375s-6.041,4.914-6.041,9.375
			c0,4.463,2.699,6.785,6.041,6.785S266.361,145.562,266.361,141.099z"/>
		<path fill="#FFFFFF" stroke="#939598" stroke-miterlimit="10" d="M256.685,146.421c0-0.25-0.205-0.455-0.455-0.455h-2.107
			c-0.25,0-0.455,0.205-0.455,0.455v0.077c0,0.25,0.205,0.455,0.455,0.455h2.107c0.25,0,0.455-0.205,0.455-0.455V146.421z"/>
		<path fill="#FFFFFF" stroke="#939598" d="M256.685,146.421c0-0.25-0.205-0.455-0.455-0.455h-2.107
			c-0.25,0-0.455,0.205-0.455,0.455v0.077c0,0.25,0.205,0.455,0.455,0.455h2.107c0.25,0,0.455-0.205,0.455-0.455V146.421z"/>
		<path fill="#FFFFFF" stroke="#939598" stroke-miterlimit="10" d="M253.347,146.965c-0.758,0-1.375,2.058-1.375,2.816
			c0,0.769,0.617,2.825,1.375,2.825h13.814c0.76,0,1.375-2.058,1.375-2.825c0-0.761-0.615-2.814-1.375-2.814L253.347,146.965z"/>
		<path fill="#FFFFFF" stroke="#939598" d="M253.347,146.965c-0.758,0-1.375,2.058-1.375,2.816c0,0.769,0.617,2.825,1.375,2.825
			h13.814c0.76,0,1.375-2.058,1.375-2.825c0-0.761-0.615-2.814-1.375-2.814L253.347,146.965z"/>
		<path fill="#FFFFFF" stroke="#939598" stroke-miterlimit="10" d="M264.757,140.912c0-3.279-1.992-6.894-4.449-6.894
			s-4.447,3.613-4.447,6.894s1.99,4.985,4.447,4.985S264.757,144.19,264.757,140.912"/>
		<path fill="#FFFFFF" stroke="#939598" d="M264.757,140.912c0-3.279-1.992-6.894-4.449-6.894s-4.447,3.613-4.447,6.894
			s1.99,4.985,4.447,4.985S264.757,144.19,264.757,140.912z"/>
	</g>
	<g>
		<g>
			<rect x="334.447" y="95.373" fill="#FFFFFF" stroke="#939598" width="23.625" height="45.692"/>
			<path fill="#FFFFFF" stroke="#939598" d="M346.259,118.222"/>
			<path fill="#FFFFFF" stroke="#939598" d="M346.259,118.377"/>
			<path fill="#FFFFFF" stroke="#939598" d="M346.259,133.87"/>
		</g>
		<circle fill="#FFFFFF" stroke="#939598" cx="346.373" cy="130.652" r="0.97"/>
		<path fill="#FFFFFF" stroke="#939598" d="M346.332,97.981c-6.771,0-9.25,1.562-9.25,3.752c0,0,0,32.84,0,33.377
			c0,0.535,0.146,1.641,1.562,1.641c1.418,0,7.688,0,7.688,0h0.017c0,0,6.271,0,7.688,0c1.416,0,1.562-1.105,1.562-1.641
			c0-0.537,0-33.354,0-33.354l-0.002-0.021C355.595,99.545,353.06,97.981,346.332,97.981z"/>
		<path fill="#FFFFFF" stroke="#939598" d="M344.339,138.45c0.002-0.549-0.439-0.988-0.994-0.988c-0.537,0-0.982,0.439-0.986,0.988
			c0.004,0.545,0.449,0.994,0.986,0.994C343.9,139.444,344.341,139.001,344.339,138.45z"/>
		<path fill="#FFFFFF" stroke="#939598" d="M350.482,138.45c0.006-0.549-0.445-0.988-0.99-0.988c-0.543,0-0.99,0.439-0.99,0.988
			c0,0.545,0.447,0.994,0.99,0.988C350.039,139.444,350.482,138.995,350.482,138.45z"/>
		<path fill="#FFFFFF" stroke="#939598" d="M345.039,138.743c0,0.812,0.549,1.469,1.361,1.471c0.811-0.002,1.254-0.658,1.254-1.471
			l-0.521-5.592c0-0.549-1.481-0.549-1.481,0L345.039,138.743z"/>
	</g>
	<polyline fill="none" stroke="#939598" stroke-dasharray="1.5,1.5,1.5,1.5,1.5,1.5" points="13.73,105.203 13.73,37.453 
		24.23,26.453 	"/>
	<polyline fill="none" stroke="#939598" stroke-dasharray="1.5,1.5,1.5,1.5,1.5,1.5" points="39.814,151.953 30.73,151.953 
		12.73,135.203 12.73,111.203 	"/>
	
		<line fill="none" stroke="#939598" stroke-dasharray="1.5,1.5,1.5,1.5,1.5,1.5" x1="80.23" y1="151.953" x2="47.803" y2="151.953"/>
	<g>
		<g>
			<g>
				<path fill="none" stroke="#939598" d="M285.328,143.333"/>
			</g>
			<g>
				<path fill="none" stroke="#939598" d="M285.328,144.396"/>
			</g>
			<g>
				<circle fill="none" stroke="#939598" cx="285.328" cy="143.333" r="1.018"/>
				<path fill="none" stroke="#939598" d="M285.328,143.333"/>
			</g>
			<g>
				<g>
					<rect x="281.061" y="149.708" fill="none" stroke="#939598" width="8.554" height="2.125"/>
					<path fill="none" stroke="#939598" d="M285.328,150.771"/>
				</g>
				<g>
					<rect x="284.875" y="145.583" fill="none" stroke="#939598" width="0.905" height="4.031"/>
					<path fill="none" stroke="#939598" d="M285.328,147.942"/>
				</g>
				<g>
					<circle fill="none" stroke="#939598" cx="285.328" cy="150.75" r="0.985"/>
					<path fill="none" stroke="#939598" d="M285.328,150.75"/>
				</g>
			</g>
		</g>
		<g>
			<rect x="276.798" y="138.283" fill="none" stroke="#939598" width="17.076" height="13.875"/>
			<rect x="278.192" y="139.678" fill="none" stroke="#939598" width="14.254" height="9.98"/>
		</g>
	</g>
</g>
<g id="walls">
	<polyline fill="none" stroke="#939598" stroke-width="5" points="199.605,164.502 429.253,164.502 429.253,2.524 30.307,2.524 
		2.5,31.19 2.5,140.265 27.124,164.502 176.078,164.502 	"/>
	<line fill="none" stroke="#939598" stroke-width="3" x1="388.48" y1="94.124" x2="428.48" y2="94.124"/>
	<line fill="none" stroke="#939598" stroke-width="3" x1="276.855" y1="94.124" x2="364.652" y2="94.124"/>
	<polyline fill="none" stroke="#939598" stroke-width="3" points="204.813,163.953 204.813,157.953 244.813,157.953 244.813,94.124 
		253.73,94.124 	"/>
	<line fill="none" stroke="#939598" stroke-width="3" x1="296.813" y1="81.453" x2="296.813" y2="92.62"/>
	<line fill="none" stroke="#939598" stroke-width="3" x1="296.813" y1="3.953" x2="296.813" y2="59.203"/>
	<line fill="none" stroke="#939598" stroke-width="3" x1="245.813" y1="154.953" x2="335.48" y2="154.953"/>
	<polyline fill="none" stroke="#939598" stroke-width="3" points="359.813,93.953 359.813,142.953 335.147,142.953 335.147,157.953 
		427.824,157.953 	"/>
	<polyline fill="none" stroke="#939598" stroke-width="3" points="25.48,7.953 90.48,7.953 90.593,4.953 	"/>
	<polyline fill="none" stroke="#939598" stroke-width="3" points="295.813,7.555 346.587,7.555 346.587,3.62 	"/>
	<polyline fill="none" stroke="#939598" stroke-width="3" points="420.167,3.285 420.167,7.603 428.48,7.603 	"/>
	<polyline fill="none" stroke="#939598" stroke-width="3" points="164.509,134.286 169.146,134.286 169.146,165.286 	"/>
	<line fill="none" stroke="#939598" stroke-width="3" x1="129.259" y1="134.286" x2="141.078" y2="134.286"/>
	<polyline fill="none" stroke="#939598" stroke-width="3" points="79.48,163.286 79.48,134.286 86.729,134.286 	"/>
	<line fill="none" stroke="#939598" stroke-width="4" x1="136.146" y1="134.62" x2="136.146" y2="164.953"/>
</g>
<g id="windows">
	<g>
		<g>
			<rect x="224.189" y="0.6" fill="#FFFFFF" stroke="#939598" width="69.562" height="3.674"/>
			<line fill="none" stroke="#939598" x1="293.751" y1="2.418" x2="223.439" y2="2.418"/>
			<line fill="none" stroke="#939598" stroke-width="2" x1="271.078" y1="4.432" x2="271.078" y2="0.938"/>
		</g>
		<line fill="none" stroke="#939598" stroke-width="2" x1="247.689" y1="4.557" x2="247.689" y2="0.955"/>
	</g>
	<g>
		<g>
			<rect x="349.208" y="0.5" fill="#FFFFFF" stroke="#939598" width="69.561" height="3.674"/>
			<line fill="none" stroke="#939598" x1="418.771" y1="2.318" x2="348.458" y2="2.318"/>
			<line fill="none" stroke="#939598" stroke-width="2" x1="396.097" y1="4.332" x2="396.097" y2="0.838"/>
		</g>
		<line fill="none" stroke="#939598" stroke-width="2" x1="372.708" y1="4.457" x2="372.708" y2="0.855"/>
	</g>
</g>
<g id="Type">
	<g enable-background="new    ">
		<path fill="#939598" d="M12.144,110.964h-1.702v-4.902h1.702c1.541,0,2.605,1.058,2.605,2.444S13.685,110.964,12.144,110.964z
			 M12.144,106.572h-1.149v3.88h1.149c1.239,0,2.031-0.84,2.031-1.933S13.383,106.572,12.144,106.572z"/>
		<path fill="#939598" d="M18.634,106.047h0.455l1.345,4.098l1.401-4.083h0.581l-1.751,4.938h-0.469l-1.345-3.979l-1.352,3.979
			h-0.462l-1.751-4.938h0.603l1.401,4.083L18.634,106.047z"/>
	</g>
	<g enable-background="new    ">
		<path fill="#939598" d="M62.126,149.462l-1.422-1.905h-1.401v1.905H58.75v-4.902h2.108c1.078,0,1.771,0.581,1.771,1.464
			c0,0.819-0.56,1.295-1.331,1.436l1.506,2.003H62.126z M60.816,145.07h-1.513v1.989h1.506c0.735,0,1.261-0.378,1.261-1.016
			C62.07,145.435,61.608,145.07,60.816,145.07z"/>
		<path fill="#939598" d="M65.247,149.077c0.497,0,0.848-0.203,1.142-0.512l0.336,0.301c-0.364,0.406-0.805,0.68-1.492,0.68
			c-0.995,0-1.807-0.764-1.807-1.891c0-1.051,0.735-1.892,1.737-1.892c1.071,0,1.688,0.854,1.688,1.919c0,0.05,0,0.105-0.007,0.168
			h-2.872C64.049,148.636,64.61,149.077,65.247,149.077z M66.305,147.452c-0.056-0.658-0.434-1.233-1.156-1.233
			c-0.63,0-1.106,0.525-1.177,1.233H66.305z"/>
		<path fill="#939598" d="M69.678,145.854v0.463h-1.142v3.145h-0.539v-3.145H67.5v-0.47h0.498v-0.314
			c0-0.792,0.399-1.212,1.092-1.212c0.252,0,0.42,0.028,0.595,0.091v0.47c-0.196-0.057-0.343-0.092-0.525-0.092
			c-0.42,0-0.63,0.253-0.63,0.771v0.294H69.678z"/>
	</g>
	<g enable-background="new    ">
		<path fill="#939598" d="M62.542,80.41h4.902v0.554h-4.902V80.41z"/>
	</g>
	<g enable-background="new    ">
		<path fill="#939598" d="M67.515,77.869c0,0.518-0.203,1.092-0.532,1.499l-0.386-0.273c0.294-0.392,0.463-0.827,0.463-1.254
			c0-0.434-0.225-0.749-0.575-0.749h-0.014c-0.364,0-0.504,0.427-0.638,0.903c-0.16,0.567-0.356,1.198-1.022,1.198h-0.014
			c-0.623,0-1.036-0.519-1.036-1.233c0-0.441,0.153-0.932,0.398-1.303l0.406,0.245c-0.217,0.336-0.35,0.722-0.35,1.072
			c0,0.427,0.224,0.7,0.525,0.7h0.014c0.343,0,0.477-0.448,0.623-0.932c0.168-0.56,0.386-1.163,1.037-1.163h0.014
			C67.115,76.58,67.515,77.147,67.515,77.869z"/>
	</g>
	<g enable-background="new    ">
		<path fill="#939598" d="M67.444,75.511h-5.112v-0.539h5.112V75.511z"/>
		<path fill="#939598" d="M64.517,73.509l-0.441,0.161c-0.182-0.399-0.301-0.792-0.301-1.317c0-0.987,0.504-1.541,1.457-1.541h2.213
			v0.518h-0.546c0.329,0.252,0.623,0.672,0.623,1.31c0,0.672-0.378,1.352-1.135,1.352c-0.771,0-1.177-0.63-1.177-1.548
			c0-0.462,0.063-0.792,0.154-1.114h-0.126c-0.651,0-0.987,0.399-0.987,1.079C64.251,72.836,64.362,73.173,64.517,73.509z
			 M66.366,73.446c0.462,0,0.728-0.42,0.728-0.911c0-0.665-0.406-1.211-0.98-1.211h-0.35c-0.077,0.266-0.154,0.623-0.154,1.064
			C65.609,73.067,65.903,73.446,66.366,73.446z"/>
	</g>
	<g enable-background="new    ">
		<path fill="#939598" d="M67.444,69.126v0.539h-3.621v-0.539h0.631c-0.393-0.238-0.708-0.616-0.708-1.24
			c0-0.875,0.589-1.387,1.45-1.387h2.248v0.54h-2.115c-0.672,0-1.093,0.364-1.093,1.001c0,0.623,0.455,1.085,1.135,1.085H67.444z"/>
	</g>
	<g enable-background="new    ">
		<path fill="#939598" d="M67.444,62.524h-0.729c0.435,0.294,0.806,0.721,0.806,1.387c0,0.868-0.687,1.73-1.884,1.73
			c-1.191,0-1.892-0.862-1.892-1.73c0-0.672,0.364-1.106,0.771-1.387h-2.185v-0.54h5.112V62.524z M64.229,63.813
			c0,0.7,0.519,1.275,1.4,1.275c0.862,0,1.408-0.588,1.408-1.275c0-0.672-0.561-1.31-1.408-1.31
			C64.79,62.503,64.229,63.141,64.229,63.813z"/>
	</g>
	<g enable-background="new    ">
		<path fill="#939598" d="M183.223,159.479h-2.991v1.674h2.675v0.505h-2.675v1.716h3.026v0.504h-3.579v-4.902h3.544V159.479z"/>
	</g>
	<g enable-background="new    ">
		<path fill="#939598" d="M184.817,163.878h-0.539v-3.621h0.539v0.631c0.238-0.393,0.616-0.708,1.24-0.708
			c0.875,0,1.387,0.589,1.387,1.45v2.248h-0.54v-2.115c0-0.672-0.364-1.093-1.001-1.093c-0.623,0-1.085,0.455-1.085,1.135V163.878z"
			/>
	</g>
	<g enable-background="new    ">
		<path fill="#939598" d="M189.269,162.849c0,0.441,0.245,0.603,0.609,0.603c0.182,0,0.336-0.035,0.525-0.127v0.463
			c-0.189,0.098-0.392,0.154-0.651,0.154c-0.582,0-1.022-0.288-1.022-1.023v-2.185h-0.504v-0.477h0.504v-1.093h0.539v1.093h1.149
			v0.477h-1.149V162.849z"/>
		<path fill="#939598" d="M191.908,163.878h-0.539v-3.621h0.539v0.945c0.266-0.602,0.792-1.036,1.478-1.008v0.581h-0.042
			c-0.791,0-1.436,0.567-1.436,1.66V163.878z"/>
		<path fill="#939598" d="M195.969,163.997c-0.308,0.749-0.658,1.022-1.205,1.022c-0.301,0-0.525-0.063-0.771-0.182l0.182-0.428
			c0.175,0.091,0.336,0.133,0.567,0.133c0.322,0,0.525-0.168,0.742-0.679l-1.646-3.607h0.595l1.317,3.019l1.163-3.019h0.574
			L195.969,163.997z"/>
	</g>
	<g enable-background="new    ">
		<path fill="#939598" d="M44.307,117.857h-0.891l-2.422-3.052l-1.341,1.359v1.692h-0.711v-6.302h0.711v3.763l3.619-3.763h0.918
			l-2.701,2.755L44.307,117.857z"/>
		<path fill="#939598" d="M45.313,112.186v-0.765h0.792v0.765H45.313z M45.358,117.857v-4.654h0.693v4.654H45.358z"/>
		<path fill="#939598" d="M48.599,116.534c0,0.567,0.315,0.774,0.783,0.774c0.234,0,0.432-0.045,0.675-0.162v0.594
			c-0.243,0.126-0.504,0.198-0.837,0.198c-0.747,0-1.314-0.369-1.314-1.314v-2.809h-0.648v-0.612h0.648v-1.404h0.693v1.404h1.477
			v0.612h-1.477V116.534z"/>
		<path fill="#939598" d="M53.262,117.966c-1.359,0-2.386-1.107-2.386-2.422c0-1.323,1.026-2.44,2.386-2.44
			c0.882,0,1.431,0.369,1.863,0.829l-0.459,0.485c-0.369-0.387-0.783-0.702-1.414-0.702c-0.945,0-1.666,0.802-1.666,1.81
			c0,1.018,0.738,1.819,1.71,1.819c0.594,0,1.053-0.298,1.422-0.693l0.441,0.414C54.693,117.587,54.135,117.966,53.262,117.966z"/>
		<path fill="#939598" d="M56.996,117.857h-0.693v-6.572h0.693v2.729c0.306-0.505,0.792-0.91,1.594-0.91
			c1.125,0,1.782,0.757,1.782,1.864v2.89h-0.693v-2.719c0-0.864-0.468-1.404-1.288-1.404c-0.801,0-1.396,0.585-1.396,1.458V117.857z
			"/>
		<path fill="#939598" d="M63.899,117.362c0.639,0,1.089-0.261,1.468-0.657l0.432,0.387c-0.468,0.522-1.036,0.874-1.918,0.874
			c-1.278,0-2.322-0.981-2.322-2.431c0-1.351,0.945-2.432,2.232-2.432c1.377,0,2.17,1.099,2.17,2.467c0,0.063,0,0.136-0.009,0.217
			h-3.691C62.36,116.795,63.081,117.362,63.899,117.362z M65.259,115.273c-0.072-0.846-0.558-1.584-1.485-1.584
			c-0.81,0-1.422,0.675-1.512,1.584H65.259z"/>
		<path fill="#939598" d="M67.868,117.857h-0.693v-4.654h0.693v0.811c0.306-0.505,0.792-0.91,1.594-0.91
			c1.125,0,1.782,0.757,1.782,1.864v2.89h-0.693v-2.719c0-0.864-0.468-1.404-1.288-1.404c-0.801,0-1.396,0.585-1.396,1.458V117.857z
			"/>
	</g>
	<g enable-background="new    ">
		<path fill="#939598" d="M144.969,145.878c-1.415,0-2.458-1.113-2.458-2.528c0-1.4,1.037-2.542,2.479-2.542
			c0.89,0,1.422,0.314,1.912,0.777l-0.378,0.406c-0.413-0.393-0.875-0.673-1.541-0.673c-1.086,0-1.898,0.876-1.898,2.018
			s0.819,2.031,1.898,2.031c0.672,0,1.113-0.26,1.583-0.708l0.364,0.357C146.419,145.535,145.859,145.878,144.969,145.878z"/>
		<path fill="#939598" d="M147.852,145.794v-5.112h0.539v5.112H147.852z"/>
		<path fill="#939598" d="M151.297,145.878c-1.086,0-1.877-0.854-1.877-1.884s0.798-1.898,1.891-1.898
			c1.086,0,1.884,0.854,1.884,1.884C153.195,145.01,152.389,145.878,151.297,145.878z M151.297,142.572
			c-0.785,0-1.324,0.623-1.324,1.407c0,0.785,0.574,1.415,1.337,1.415c0.785,0,1.331-0.623,1.331-1.4
			C152.642,143.202,152.06,142.572,151.297,142.572z"/>
		<path fill="#939598" d="M155.363,145.864c-0.518,0-1.092-0.203-1.499-0.532l0.273-0.386c0.392,0.294,0.827,0.463,1.254,0.463
			c0.434,0,0.75-0.225,0.75-0.575v-0.014c0-0.364-0.427-0.504-0.904-0.638c-0.567-0.16-1.198-0.356-1.198-1.022v-0.014
			c0-0.623,0.519-1.036,1.233-1.036c0.441,0,0.932,0.153,1.303,0.398l-0.245,0.406c-0.336-0.217-0.722-0.35-1.072-0.35
			c-0.427,0-0.7,0.224-0.7,0.525v0.014c0,0.343,0.448,0.477,0.932,0.623c0.56,0.168,1.163,0.386,1.163,1.037v0.014
			C156.652,145.465,156.085,145.864,155.363,145.864z"/>
		<path fill="#939598" d="M159.249,145.409c0.497,0,0.848-0.203,1.142-0.512l0.336,0.301c-0.364,0.406-0.805,0.68-1.492,0.68
			c-0.995,0-1.807-0.764-1.807-1.891c0-1.051,0.735-1.892,1.737-1.892c1.071,0,1.688,0.854,1.688,1.919c0,0.05,0,0.105-0.007,0.168
			h-2.872C158.051,144.968,158.611,145.409,159.249,145.409z M160.306,143.784c-0.056-0.658-0.434-1.233-1.156-1.233
			c-0.63,0-1.106,0.525-1.177,1.233H160.306z"/>
		<path fill="#939598" d="M162.524,144.765c0,0.441,0.245,0.603,0.609,0.603c0.182,0,0.336-0.035,0.525-0.127v0.463
			c-0.189,0.098-0.392,0.154-0.651,0.154c-0.581,0-1.022-0.288-1.022-1.023v-2.185h-0.504v-0.477h0.504v-1.093h0.539v1.093h1.149
			v0.477h-1.149V144.765z"/>
	</g>
	<g enable-background="new    ">
		<path fill="#939598" d="M94.193,135.07h0.553v4.391h2.76v0.512h-3.313V135.07z"/>
	</g>
	<g enable-background="new    ">
		<path fill="#939598" d="M98.645,137.045l-0.161-0.441c0.399-0.182,0.792-0.301,1.317-0.301c0.987,0,1.541,0.504,1.541,1.457v2.213
			h-0.518v-0.546c-0.252,0.329-0.672,0.623-1.31,0.623c-0.672,0-1.352-0.378-1.352-1.135c0-0.771,0.63-1.177,1.548-1.177
			c0.462,0,0.792,0.063,1.114,0.154v-0.126c0-0.651-0.399-0.987-1.079-0.987C99.317,136.779,98.981,136.891,98.645,137.045z
			 M98.708,138.895c0,0.462,0.42,0.728,0.911,0.728c0.665,0,1.211-0.406,1.211-0.98v-0.35c-0.266-0.077-0.623-0.154-1.064-0.154
			C99.086,138.138,98.708,138.432,98.708,138.895z"/>
	</g>
	<g enable-background="new    ">
		<path fill="#939598" d="M104.918,136.352h0.532v3.621h-0.532v-0.63c-0.245,0.392-0.617,0.707-1.24,0.707
			c-0.875,0-1.387-0.589-1.387-1.45v-2.248h0.539v2.115c0,0.673,0.364,1.093,1.001,1.093c0.617,0,1.086-0.455,1.086-1.135V136.352z"
			/>
	</g>
	<g enable-background="new    ">
		<path fill="#939598" d="M107.171,139.973h-0.539v-3.621h0.539v0.631c0.238-0.393,0.616-0.708,1.24-0.708
			c0.875,0,1.387,0.589,1.387,1.45v2.248h-0.54v-2.115c0-0.672-0.364-1.093-1.001-1.093c-0.623,0-1.085,0.455-1.085,1.135V139.973z"
			/>
	</g>
	<g enable-background="new    ">
		<path fill="#939598" d="M113.759,139.973v-0.729c-0.294,0.435-0.721,0.806-1.387,0.806c-0.868,0-1.73-0.687-1.73-1.884
			c0-1.191,0.862-1.892,1.73-1.892c0.672,0,1.106,0.364,1.387,0.771v-2.185h0.54v5.112H113.759z M112.471,136.758
			c-0.7,0-1.275,0.519-1.275,1.4c0,0.862,0.588,1.408,1.275,1.408c0.672,0,1.31-0.561,1.31-1.408
			C113.78,137.318,113.143,136.758,112.471,136.758z"/>
	</g>
	<g enable-background="new    ">
		<path fill="#939598" d="M116.04,139.973h-0.539v-3.621h0.539v0.945c0.266-0.602,0.792-1.036,1.478-1.008v0.581h-0.042
			c-0.791,0-1.436,0.567-1.436,1.66V139.973z"/>
	</g>
	<g enable-background="new    ">
		<path fill="#939598" d="M120.234,140.092c-0.308,0.749-0.658,1.022-1.205,1.022c-0.301,0-0.525-0.063-0.771-0.182l0.182-0.428
			c0.175,0.091,0.336,0.133,0.567,0.133c0.322,0,0.525-0.168,0.742-0.679l-1.646-3.607h0.595l1.317,3.019l1.163-3.019h0.574
			L120.234,140.092z"/>
	</g>
	<g enable-background="new    ">
		<path fill="#939598" d="M286.677,118.383c0,0.828-0.504,1.252-1,1.468c0.748,0.225,1.351,0.657,1.351,1.53
			c0,1.089-0.909,1.729-2.286,1.729h-2.801v-6.302h2.684C285.867,116.808,286.677,117.42,286.677,118.383z M285.957,118.482
			c0-0.631-0.495-1.036-1.395-1.036h-1.918v2.17h1.863C285.363,119.616,285.957,119.229,285.957,118.482z M286.308,121.336
			c0-0.693-0.576-1.09-1.675-1.09h-1.989v2.224h2.115C285.714,122.47,286.308,122.047,286.308,121.336z"/>
	</g>
	<g enable-background="new    ">
		<path fill="#939598" d="M288.593,119.347l-0.207-0.567c0.513-0.234,1.017-0.388,1.691-0.388c1.27,0,1.98,0.648,1.98,1.873v2.845
			h-0.666v-0.702c-0.324,0.423-0.863,0.801-1.684,0.801c-0.863,0-1.736-0.485-1.736-1.458c0-0.99,0.81-1.513,1.988-1.513
			c0.595,0,1.018,0.081,1.432,0.198v-0.162c0-0.837-0.513-1.27-1.387-1.27C289.457,119.004,289.025,119.148,288.593,119.347z
			 M288.673,121.723c0,0.595,0.541,0.937,1.171,0.937c0.854,0,1.558-0.522,1.558-1.261v-0.449c-0.342-0.1-0.802-0.198-1.369-0.198
			C289.16,120.751,288.673,121.129,288.673,121.723z"/>
	</g>
	<g enable-background="new    ">
		<path fill="#939598" d="M294.308,121.786c0,0.567,0.314,0.774,0.783,0.774c0.234,0,0.432-0.045,0.675-0.162v0.594
			c-0.243,0.126-0.504,0.198-0.837,0.198c-0.748,0-1.314-0.369-1.314-1.314v-2.809h-0.648v-0.612h0.648v-1.404h0.693v1.404h1.477
			v0.612h-1.477V121.786z"/>
		<path fill="#939598" d="M297.701,123.109h-0.693v-6.572h0.693v2.729c0.306-0.505,0.792-0.91,1.594-0.91
			c1.125,0,1.781,0.757,1.781,1.864v2.89h-0.692v-2.719c0-0.864-0.468-1.404-1.288-1.404c-0.801,0-1.395,0.585-1.395,1.458V123.109z
			"/>
	</g>
	<g enable-background="new    ">
		<path fill="#939598" d="M381.969,129.628c-1.415,0-2.458-1.113-2.458-2.528c0-1.4,1.036-2.542,2.479-2.542
			c0.891,0,1.422,0.314,1.912,0.777l-0.378,0.406c-0.413-0.393-0.876-0.673-1.54-0.673c-1.086,0-1.898,0.876-1.898,2.018
			s0.819,2.031,1.898,2.031c0.672,0,1.113-0.26,1.582-0.708l0.364,0.357C383.419,129.285,382.859,129.628,381.969,129.628z"/>
		<path fill="#939598" d="M384.852,129.544v-5.112h0.539v5.112H384.852z"/>
		<path fill="#939598" d="M388.296,129.628c-1.086,0-1.877-0.854-1.877-1.884s0.799-1.898,1.891-1.898
			c1.086,0,1.885,0.854,1.885,1.884C390.195,128.76,389.389,129.628,388.296,129.628z M388.296,126.322
			c-0.784,0-1.323,0.623-1.323,1.407c0,0.785,0.574,1.415,1.337,1.415c0.785,0,1.332-0.623,1.332-1.4
			C389.642,126.952,389.06,126.322,388.296,126.322z"/>
		<path fill="#939598" d="M392.363,129.614c-0.518,0-1.092-0.203-1.498-0.532l0.273-0.386c0.392,0.294,0.826,0.463,1.254,0.463
			c0.434,0,0.749-0.225,0.749-0.575v-0.014c0-0.364-0.427-0.504-0.903-0.638c-0.568-0.16-1.198-0.356-1.198-1.022v-0.014
			c0-0.623,0.519-1.036,1.233-1.036c0.441,0,0.932,0.153,1.303,0.398l-0.246,0.406c-0.336-0.217-0.721-0.35-1.071-0.35
			c-0.427,0-0.7,0.224-0.7,0.525v0.014c0,0.343,0.448,0.477,0.932,0.623c0.561,0.168,1.162,0.386,1.162,1.037v0.014
			C393.652,129.215,393.085,129.614,392.363,129.614z"/>
		<path fill="#939598" d="M396.249,129.159c0.497,0,0.848-0.203,1.142-0.512l0.336,0.301c-0.363,0.406-0.805,0.68-1.492,0.68
			c-0.994,0-1.807-0.764-1.807-1.891c0-1.051,0.736-1.892,1.737-1.892c1.071,0,1.688,0.854,1.688,1.919c0,0.05,0,0.105-0.008,0.168
			h-2.871C395.05,128.718,395.611,129.159,396.249,129.159z M397.306,127.534c-0.057-0.658-0.434-1.233-1.156-1.233
			c-0.63,0-1.105,0.525-1.176,1.233H397.306z"/>
		<path fill="#939598" d="M399.524,128.515c0,0.441,0.245,0.603,0.609,0.603c0.183,0,0.337-0.035,0.525-0.127v0.463
			c-0.188,0.098-0.392,0.154-0.651,0.154c-0.581,0-1.022-0.288-1.022-1.023v-2.185h-0.505v-0.477h0.505v-1.093h0.539v1.093h1.149
			v0.477h-1.149V128.515z"/>
	</g>
	<g enable-background="new    ">
		<path fill="#939598" d="M348.423,40.733c0,0.828-0.504,1.252-1,1.468c0.748,0.225,1.351,0.657,1.351,1.53
			c0,1.089-0.909,1.729-2.286,1.729h-2.801v-6.302h2.684C347.613,39.158,348.423,39.771,348.423,40.733z M347.703,40.833
			c0-0.631-0.495-1.036-1.395-1.036h-1.918v2.17h1.863C347.109,41.967,347.703,41.58,347.703,40.833z M348.054,43.687
			c0-0.693-0.576-1.09-1.675-1.09h-1.989v2.224h2.115C347.46,44.82,348.054,44.397,348.054,43.687z"/>
		<path fill="#939598" d="M352.121,44.965c0.64,0,1.09-0.261,1.469-0.657l0.432,0.387c-0.469,0.522-1.035,0.874-1.918,0.874
			c-1.278,0-2.322-0.981-2.322-2.431c0-1.351,0.945-2.432,2.232-2.432c1.377,0,2.17,1.099,2.17,2.467c0,0.063,0,0.136-0.01,0.217
			h-3.69C350.582,44.397,351.302,44.965,352.121,44.965z M353.48,42.876c-0.071-0.846-0.558-1.584-1.484-1.584
			c-0.811,0-1.423,0.675-1.513,1.584H353.48z"/>
		<path fill="#939598" d="M359.132,45.46v-0.937c-0.378,0.559-0.928,1.035-1.782,1.035c-1.116,0-2.224-0.882-2.224-2.421
			c0-1.531,1.107-2.432,2.224-2.432c0.864,0,1.423,0.469,1.782,0.991v-2.81h0.693v6.572H359.132z M357.476,41.328
			c-0.9,0-1.639,0.666-1.639,1.8c0,1.107,0.756,1.81,1.639,1.81c0.864,0,1.684-0.72,1.684-1.81
			C359.16,42.048,358.34,41.328,357.476,41.328z"/>
		<path fill="#939598" d="M362.066,45.46h-0.693v-4.654h0.693v1.215c0.342-0.773,1.018-1.332,1.899-1.296v0.747h-0.054
			c-1.018,0-1.846,0.729-1.846,2.134V45.46z"/>
		<path fill="#939598" d="M366.945,45.568c-1.396,0-2.413-1.099-2.413-2.422s1.026-2.44,2.431-2.44c1.396,0,2.422,1.099,2.422,2.422
			C369.384,44.452,368.349,45.568,366.945,45.568z M366.945,41.318c-1.009,0-1.702,0.802-1.702,1.81c0,1.009,0.738,1.819,1.72,1.819
			c1.008,0,1.711-0.802,1.711-1.801C368.673,42.129,367.925,41.318,366.945,41.318z"/>
		<path fill="#939598" d="M372.758,45.568c-1.396,0-2.413-1.099-2.413-2.422s1.026-2.44,2.432-2.44c1.395,0,2.421,1.099,2.421,2.422
			C375.198,44.452,374.163,45.568,372.758,45.568z M372.758,41.318c-1.009,0-1.702,0.802-1.702,1.81
			c0,1.009,0.738,1.819,1.721,1.819c1.008,0,1.71-0.802,1.71-1.801C374.487,42.129,373.74,41.318,372.758,41.318z"/>
		<path fill="#939598" d="M381.777,40.706c1.072,0,1.729,0.721,1.729,1.873v2.881h-0.693v-2.719c0-0.9-0.449-1.404-1.206-1.404
			c-0.702,0-1.287,0.521-1.287,1.44v2.683h-0.685v-2.736c0-0.874-0.459-1.387-1.197-1.387s-1.297,0.612-1.297,1.467v2.656h-0.692
			v-4.654h0.692v0.783c0.307-0.459,0.721-0.883,1.504-0.883c0.756,0,1.242,0.405,1.494,0.928
			C380.472,41.121,380.966,40.706,381.777,40.706z"/>
	</g>
	<g enable-background="new    ">
		<path fill="#939598" d="M341.861,50.113h0.521v6.347h-0.701v-5.608l-1.188,0.369l-0.171-0.576L341.861,50.113z"/>
		<path fill="#939598" d="M347.865,50.113v4.258h0.98v0.595h-0.98v1.494h-0.685v-1.494h-3.321l-0.181-0.514l3.565-4.339H347.865z
			 M347.18,51.121l-2.647,3.25h2.647V51.121z"/>
		<path fill="#939598" d="M350.185,50.158h0.847v0.045l-0.729,2.403h-0.387L350.185,50.158z"/>
		<path fill="#939598" d="M352.607,51.787l-0.522-0.378c0.567-0.846,1.161-1.341,2.269-1.341c1.143,0,1.953,0.756,1.953,1.791
			c0,0.928-0.486,1.495-1.594,2.458l-1.683,1.494h3.34v0.648h-4.402v-0.549l2.286-2.017c0.964-0.864,1.314-1.351,1.314-1.98
			c0-0.738-0.584-1.207-1.27-1.207C353.579,50.707,353.111,51.085,352.607,51.787z"/>
		<path fill="#939598" d="M357.782,50.158h0.837v0.045l-0.729,2.403h-0.379L357.782,50.158z M359.546,50.158h0.828v0.045
			l-0.729,2.403h-0.378L359.546,50.158z"/>
		<path fill="#939598" d="M368.402,56.46h-0.801l-1.44-1.899l-1.449,1.899h-0.774l1.828-2.368l-1.756-2.286h0.792l1.378,1.801
			l1.377-1.801h0.774l-1.765,2.269L368.402,56.46z"/>
		<path fill="#939598" d="M374.107,56.568c-0.818,0-1.413-0.333-1.943-0.774l0.414-0.55c0.513,0.45,0.99,0.676,1.548,0.676
			c1.134,0,1.899-1.152,1.872-2.764c-0.342,0.549-0.908,1.008-1.782,1.008c-1.296,0-2.196-0.819-2.196-1.962
			c0-1.207,0.928-2.152,2.269-2.152c0.72,0,1.251,0.243,1.656,0.648c0.495,0.495,0.783,1.18,0.783,2.449
			C376.727,55.154,375.666,56.568,374.107,56.568z M374.261,50.681c-0.945,0-1.514,0.692-1.514,1.485
			c0,0.81,0.631,1.386,1.549,1.386c0.963,0,1.566-0.702,1.566-1.431C375.863,51.311,375.206,50.681,374.261,50.681z"/>
		<path fill="#939598" d="M378.13,50.158h0.846v0.045l-0.729,2.403h-0.388L378.13,50.158z"/>
		<path fill="#939598" d="M380.263,50.797v-0.639h4.023v0.522l-1.98,2.196c1.107,0.09,2.08,0.621,2.08,1.782
			c0,1.135-0.937,1.909-2.107,1.909c-1.053,0-1.836-0.46-2.35-1.126l0.514-0.459c0.486,0.595,1.071,0.937,1.846,0.937
			c0.766,0,1.377-0.486,1.377-1.233c0-0.792-0.721-1.225-1.764-1.225h-0.406l-0.144-0.423l1.989-2.242H380.263z"/>
		<path fill="#939598" d="M385.852,50.158h0.837v0.045l-0.729,2.403h-0.379L385.852,50.158z M387.617,50.158h0.828v0.045
			l-0.729,2.403h-0.378L387.617,50.158z"/>
	</g>
	<g enable-background="new    ">
		<path fill="#939598" d="M128.547,54.325h0.711v5.645h3.547v0.657h-4.258V54.325z"/>
		<path fill="#939598" d="M134.02,54.955V54.19h0.792v0.765H134.02z M134.064,60.627v-4.654h0.693v4.654H134.064z"/>
		<path fill="#939598" d="M139.816,55.973h0.747l-2.025,4.69h-0.612l-2.017-4.69h0.766l1.566,3.862L139.816,55.973z"/>
		<path fill="#939598" d="M141.669,54.955V54.19h0.792v0.765H141.669z M141.714,60.627v-4.654h0.693v4.654H141.714z"/>
		<path fill="#939598" d="M144.711,60.627h-0.693v-4.654h0.693v0.811c0.306-0.505,0.792-0.91,1.594-0.91
			c1.125,0,1.782,0.757,1.782,1.864v2.89h-0.693v-2.719c0-0.864-0.468-1.404-1.288-1.404c-0.801,0-1.396,0.585-1.396,1.458V60.627z"
			/>
		<path fill="#939598" d="M151.624,62.085c-0.774,0-1.495-0.216-2.116-0.647l0.315-0.54c0.531,0.387,1.125,0.594,1.792,0.594
			c1.026,0,1.693-0.567,1.693-1.656v-0.55c-0.405,0.541-0.973,0.981-1.828,0.981c-1.116,0-2.188-0.828-2.188-2.188
			c0-1.368,1.08-2.206,2.188-2.206c0.873,0,1.44,0.433,1.818,0.937v-0.837h0.693v3.844C153.991,61.32,153.055,62.085,151.624,62.085
			z M151.614,56.485c-0.882,0-1.611,0.604-1.611,1.576c0,0.954,0.747,1.593,1.611,1.593c0.882,0,1.711-0.63,1.711-1.584
			C153.325,57.106,152.497,56.485,151.614,56.485z"/>
		<path fill="#939598" d="M159.391,53.442l-4.177,8.337h-0.639l4.177-8.337H159.391z"/>
		<path fill="#939598" d="M162.415,60.627h-2.188v-6.302h2.188c1.98,0,3.349,1.359,3.349,3.142
			C165.763,59.25,164.395,60.627,162.415,60.627z M162.415,54.982h-1.477v4.987h1.477c1.593,0,2.611-1.08,2.611-2.484
			S164.008,54.982,162.415,54.982z"/>
		<path fill="#939598" d="M167.166,54.955V54.19h0.792v0.765H167.166z M167.211,60.627v-4.654h0.693v4.654H167.211z"/>
		<path fill="#939598" d="M170.208,60.627h-0.693v-4.654h0.693v0.811c0.306-0.505,0.792-0.91,1.594-0.91
			c1.125,0,1.782,0.757,1.782,1.864v2.89h-0.693v-2.719c0-0.864-0.468-1.404-1.288-1.404c-0.801,0-1.396,0.585-1.396,1.458V60.627z"
			/>
		<path fill="#939598" d="M175.076,54.955V54.19h0.792v0.765H175.076z M175.122,60.627v-4.654h0.693v4.654H175.122z"/>
		<path fill="#939598" d="M178.119,60.627h-0.693v-4.654h0.693v0.811c0.306-0.505,0.792-0.91,1.594-0.91
			c1.125,0,1.782,0.757,1.782,1.864v2.89h-0.693v-2.719c0-0.864-0.468-1.404-1.288-1.404c-0.801,0-1.396,0.585-1.396,1.458V60.627z"
			/>
		<path fill="#939598" d="M185.031,62.085c-0.774,0-1.495-0.216-2.116-0.647l0.315-0.54c0.531,0.387,1.125,0.594,1.792,0.594
			c1.026,0,1.693-0.567,1.693-1.656v-0.55c-0.405,0.541-0.973,0.981-1.828,0.981c-1.116,0-2.188-0.828-2.188-2.188
			c0-1.368,1.081-2.206,2.188-2.206c0.873,0,1.44,0.433,1.818,0.937v-0.837h0.693v3.844
			C187.399,61.32,186.462,62.085,185.031,62.085z M185.022,56.485c-0.882,0-1.611,0.604-1.611,1.576
			c0,0.954,0.747,1.593,1.611,1.593c0.882,0,1.71-0.63,1.71-1.584C186.732,57.106,185.904,56.485,185.022,56.485z"/>
		<path fill="#939598" d="M196.102,60.627l-1.828-2.449h-1.8v2.449h-0.711v-6.302h2.71c1.386,0,2.278,0.747,2.278,1.882
			c0,1.053-0.72,1.665-1.71,1.845l1.936,2.575H196.102z M194.418,54.982h-1.944v2.557h1.936c0.945,0,1.621-0.486,1.621-1.306
			C196.03,55.45,195.436,54.982,194.418,54.982z"/>
		<path fill="#939598" d="M200.187,60.735c-1.396,0-2.413-1.099-2.413-2.422s1.026-2.44,2.431-2.44c1.396,0,2.421,1.099,2.421,2.422
			C202.626,59.619,201.591,60.735,200.187,60.735z M200.187,56.485c-1.008,0-1.702,0.802-1.702,1.81c0,1.009,0.738,1.819,1.72,1.819
			c1.008,0,1.71-0.802,1.71-1.801C201.916,57.296,201.168,56.485,200.187,56.485z"/>
		<path fill="#939598" d="M206.001,60.735c-1.396,0-2.413-1.099-2.413-2.422s1.026-2.44,2.431-2.44c1.396,0,2.421,1.099,2.421,2.422
			C208.44,59.619,207.405,60.735,206.001,60.735z M206.001,56.485c-1.008,0-1.702,0.802-1.702,1.81c0,1.009,0.738,1.819,1.72,1.819
			c1.008,0,1.71-0.802,1.71-1.801C207.729,57.296,206.982,56.485,206.001,56.485z"/>
		<path fill="#939598" d="M215.02,55.873c1.071,0,1.729,0.721,1.729,1.873v2.881h-0.693v-2.719c0-0.9-0.45-1.404-1.207-1.404
			c-0.702,0-1.287,0.521-1.287,1.44v2.683h-0.685v-2.736c0-0.874-0.459-1.387-1.197-1.387s-1.296,0.612-1.296,1.467v2.656h-0.693
			v-4.654h0.693v0.783c0.306-0.459,0.72-0.883,1.503-0.883c0.756,0,1.243,0.405,1.495,0.928
			C213.714,56.288,214.209,55.873,215.02,55.873z"/>
	</g>
	<g enable-background="new    ">
		<path fill="#939598" d="M146.403,66.954l-0.522-0.378c0.567-0.846,1.161-1.341,2.269-1.341c1.143,0,1.954,0.756,1.954,1.791
			c0,0.928-0.486,1.495-1.594,2.458l-1.683,1.494h3.34v0.648h-4.402v-0.549l2.287-2.017c0.963-0.864,1.314-1.351,1.314-1.98
			c0-0.738-0.585-1.207-1.27-1.207C147.375,65.874,146.908,66.252,146.403,66.954z"/>
		<path fill="#939598" d="M155.063,65.28v4.258h0.981v0.595h-0.981v1.494h-0.684v-1.494h-3.322l-0.18-0.514l3.565-4.339H155.063z
			 M154.379,66.288l-2.647,3.25h2.647V66.288z"/>
		<path fill="#939598" d="M157.384,65.325h0.846v0.045l-0.729,2.403h-0.387L157.384,65.325z"/>
		<path fill="#939598" d="M159.517,65.964v-0.639h4.024v0.522l-1.981,2.196c1.107,0.09,2.08,0.621,2.08,1.782
			c0,1.135-0.936,1.909-2.106,1.909c-1.053,0-1.836-0.46-2.35-1.126l0.513-0.459c0.486,0.595,1.071,0.937,1.846,0.937
			c0.765,0,1.377-0.486,1.377-1.233c0-0.792-0.72-1.225-1.764-1.225h-0.405l-0.144-0.423l1.99-2.242H159.517z"/>
		<path fill="#939598" d="M165.106,65.325h0.837v0.045l-0.729,2.403h-0.378L165.106,65.325z M166.871,65.325h0.829v0.045
			l-0.729,2.403h-0.378L166.871,65.325z"/>
		<path fill="#939598" d="M175.727,71.627h-0.801l-1.44-1.899l-1.449,1.899h-0.774l1.828-2.368l-1.755-2.286h0.792l1.377,1.801
			l1.377-1.801h0.774l-1.765,2.269L175.727,71.627z"/>
		<path fill="#939598" d="M180.568,65.28h0.522v6.347h-0.702v-5.608l-1.188,0.369l-0.171-0.576L180.568,65.28z"/>
		<path fill="#939598" d="M186.617,66.486c-0.468-0.396-0.909-0.621-1.485-0.621c-1.143,0-1.854,1.152-1.845,2.782
			c0.342-0.505,0.873-0.964,1.792-0.964c1.179,0,2.178,0.757,2.178,1.944c0,1.225-0.981,2.107-2.259,2.107
			c-0.693,0-1.261-0.243-1.657-0.64c-0.504-0.504-0.792-1.152-0.792-2.448c0-1.927,0.972-3.431,2.62-3.431
			c0.756,0,1.314,0.271,1.864,0.721L186.617,66.486z M184.987,68.296c-0.945,0-1.575,0.675-1.575,1.387
			c0,0.819,0.666,1.422,1.593,1.422s1.521-0.639,1.521-1.449C186.527,68.872,185.896,68.296,184.987,68.296z"/>
		<path fill="#939598" d="M188.677,65.325h0.846v0.045l-0.729,2.403h-0.387L188.677,65.325z"/>
		<path fill="#939598" d="M192.862,71.717c-1.341,0-2.368-0.729-2.368-1.791c0-0.757,0.54-1.288,1.296-1.558
			c-0.585-0.271-1.081-0.721-1.081-1.459c0-0.98,1-1.674,2.152-1.674s2.151,0.693,2.151,1.674c0,0.738-0.495,1.188-1.08,1.459
			c0.747,0.279,1.296,0.792,1.296,1.548C195.23,70.997,194.204,71.717,192.862,71.717z M192.862,68.701
			c-0.918,0-1.647,0.495-1.647,1.206c0,0.648,0.612,1.188,1.647,1.188s1.647-0.54,1.647-1.188
			C194.51,69.196,193.78,68.701,192.862,68.701z M192.862,65.856c-0.819,0-1.44,0.459-1.44,1.098c0,0.693,0.639,1.162,1.44,1.162
			s1.44-0.469,1.44-1.162C194.303,66.324,193.682,65.856,192.862,65.856z"/>
		<path fill="#939598" d="M196.552,65.325h0.837v0.045l-0.729,2.403h-0.378L196.552,65.325z M198.316,65.325h0.829v0.045
			l-0.729,2.403h-0.378L198.316,65.325z"/>
	</g>
	<g enable-background="new    ">
		<path fill="#939598" d="M44.404,157.858v1.104h1.605v0.514h-4.55v-1.703c0-1.026,0.546-1.703,1.449-1.703
			C43.897,156.07,44.404,156.89,44.404,157.858z M41.935,157.812v1.15h2.002v-1.124c0-0.754-0.403-1.248-1.008-1.248
			C42.272,156.591,41.935,157.078,41.935,157.812z"/>
		<path fill="#939598" d="M43.293,155.089l-0.41,0.15c-0.169-0.371-0.279-0.734-0.279-1.223c0-0.916,0.468-1.43,1.353-1.43h2.054
			v0.48h-0.507c0.306,0.234,0.578,0.625,0.578,1.216c0,0.624-0.351,1.255-1.053,1.255c-0.715,0-1.092-0.586-1.092-1.438
			c0-0.428,0.059-0.734,0.143-1.033h-0.117c-0.604,0-0.916,0.371-0.916,1.002C43.046,154.466,43.149,154.777,43.293,155.089z
			 M45.009,155.03c0.429,0,0.676-0.39,0.676-0.845c0-0.617-0.377-1.124-0.91-1.124h-0.325c-0.071,0.246-0.143,0.578-0.143,0.988
			C44.307,154.68,44.58,155.03,45.009,155.03z"/>
		<path fill="#939598" d="M46.01,151.021v0.5h-3.36v-0.5h0.585c-0.364-0.222-0.656-0.572-0.656-1.15
			c0-0.812,0.546-1.287,1.345-1.287h2.087v0.5h-1.963c-0.624,0-1.015,0.338-1.015,0.93c0,0.578,0.423,1.008,1.054,1.008H46.01z"/>
	</g>
	<g enable-background="new    ">
		<path fill="#939598" d="M45.055,147.36c0.409,0,0.559-0.227,0.559-0.565c0-0.169-0.032-0.312-0.117-0.487h0.429
			c0.092,0.176,0.144,0.364,0.144,0.604c0,0.54-0.267,0.949-0.949,0.949h-2.028v0.468h-0.441v-0.468h-1.015v-0.501h1.015v-1.066
			h0.441v1.066H45.055z"/>
	</g>
	<g enable-background="new    ">
		<path fill="#939598" d="M46.01,145.053v0.501h-3.36v-0.501h0.877c-0.559-0.247-0.962-0.734-0.936-1.372h0.539v0.039
			c0,0.734,0.526,1.333,1.541,1.333H46.01z"/>
	</g>
	<g enable-background="new    ">
		<path fill="#939598" d="M46.12,141.374c0.695,0.286,0.949,0.611,0.949,1.118c0,0.28-0.059,0.487-0.169,0.715l-0.396-0.169
			c0.084-0.162,0.123-0.312,0.123-0.526c0-0.299-0.155-0.487-0.63-0.688l-3.348,1.527v-0.553l2.802-1.223l-2.802-1.078v-0.533
			L46.12,141.374z"/>
	</g>
</g>
</svg>
