<?xml version="1.0" encoding="utf-8"?>
<!-- Generator: Adobe Illustrator 15.0.2, SVG Export Plug-In . SVG Version: 6.00 Build 0)  -->
<!DOCTYPE svg PUBLIC "-//W3C//DTD SVG 1.1//EN" "http://www.w3.org/Graphics/SVG/1.1/DTD/svg11.dtd">
<svg version="1.1" xmlns="http://www.w3.org/2000/svg" xmlns:xlink="http://www.w3.org/1999/xlink" x="0px" y="0px"
	 width="239.297px" height="331.02px" viewBox="0 0 239.297 331.02" enable-background="new 0 0 239.297 331.02"
	 xml:space="preserve">
<g id="_x32_0_x25___PMS_2985_fill">
	<polygon fill="none" points="1.829,308.941 47.162,308.941 47.162,327.608 231.162,327.608 231.162,160.275 237.829,160.275 
		237.829,19.608 114.829,19.608 114.829,8.608 25.829,8.608 25.829,16.275 1.496,16.275 	"/>
</g>
<g id="_x33_0_x25__grey_fill">
	<rect x="108.064" y="16.964" fill="#D1D3D4" width="35.334" height="9.333"/>
	<rect x="2.065" y="15.964" fill="#D1D3D4" width="30.333" height="10"/>
	<rect x="207.324" y="305.63" fill="#D1D3D4" width="22.645" height="22.667"/>
	<polygon fill="#D1D3D4" points="237.064,104.63 237.064,19.63 218.731,19.63 218.731,25.63 231.064,25.63 231.064,104.63 	"/>
</g>
<g id="icons">
	<polyline fill="#FFFFFF" stroke="#939598" points="88.996,308.775 132.162,308.775 132.162,256.367 151.496,256.367 
		151.496,326.775 76.662,326.109 76.662,308.775 78.42,308.775 	"/>
	<g>
		<g>
			<path fill="#FFFFFF" stroke="#939598" d="M149.57,259.024c0-0.448-0.361-0.812-0.812-0.812h-14.152
				c-0.449,0-0.812,0.364-0.812,0.812v24.007c0,0.447,0.363,0.811,0.812,0.811h14.152c0.451,0,0.812-0.363,0.812-0.811V259.024z"/>
			<path fill="#FFFFFF" stroke="#939598" d="M142.295,270.941"/>
		</g>
		<g>
			<circle fill="#FFFFFF" stroke="#939598" cx="141.335" cy="270.941" r="0.917"/>
			<path fill="#FFFFFF" stroke="#939598" d="M141.336,270.941"/>
		</g>
		<g>
			<g>
				<rect x="147.09" y="266.938" fill="#FFFFFF" stroke="#939598" width="1.916" height="8.01"/>
				<path fill="#FFFFFF" stroke="#939598" d="M148.049,270.941"/>
			</g>
			<g>
				<rect x="143.365" y="270.533" fill="#FFFFFF" stroke="#939598" width="3.775" height="0.818"/>
				<path fill="#FFFFFF" stroke="#939598" d="M145.496,270.941"/>
			</g>
			<g>
				<circle fill="#FFFFFF" stroke="#939598" cx="148.029" cy="270.941" r="0.891"/>
				<path fill="#FFFFFF" stroke="#939598" d="M148.029,270.941"/>
			</g>
		</g>
		<g>
			<path fill="#FFFFFF" stroke="#939598" d="M141.336,270.941"/>
			<path fill="#FFFFFF" stroke="#939598" d="M146.428,270.447v-10.094c0-0.471-0.381-0.854-0.852-0.854h-9.707
				c-0.469,0-0.852,0.383-0.852,0.854v21.348c0,0.471,0.383,0.853,0.852,0.853h9.707c0.471,0,0.852-0.382,0.852-0.853v-10.238"/>
		</g>
	</g>
	<g>
		<g>
			<rect x="50.717" y="303.331" fill="#FFFFFF" stroke="#939598" width="24.902" height="21.969"/>
			<path fill="#FFFFFF" stroke="#939598" d="M64.457,314.315"/>
		</g>
		<line fill="#FFFFFF" stroke="#939598" x1="50.658" y1="304.867" x2="75.62" y2="304.867"/>
		<rect x="71.523" y="302.246" fill="#FFFFFF" stroke="#939598" width="2.019" height="1.069"/>
		<path fill="#FFFFFF" stroke="#939598" d="M72.532,302.84"/>
	</g>
	<g>
		<polygon fill="none" stroke="#939598" points="9.53,310.054 11.179,310.002 11.194,286.227 9.523,286.214 		"/>
		<path fill="none" stroke="#939598" d="M10.276,286.195c13.114,0.445,23.383,11.246,22.936,24.359"/>
	</g>
	<g>
		<polygon fill="none" stroke="#939598" points="198.255,217.032 196.585,217.023 196.569,193.205 198.24,193.214 		"/>
		<path fill="none" stroke="#939598" d="M197.487,193.195c-13.114,0.445-23.383,11.225-22.936,24.338"/>
	</g>
	<g>
		<polygon fill="none" stroke="#939598" points="162.562,257.296 164.231,257.283 164.247,281.102 162.555,281.114 		"/>
		<path fill="none" stroke="#939598" d="M163.351,281.133c13.114-0.445,23.383-11.289,22.936-24.402"/>
	</g>
	<g>
		<polygon fill="none" stroke="#939598" points="10.011,246.339 11.681,246.326 11.696,270.145 9.982,270.157 		"/>
		<path fill="none" stroke="#939598" d="M10.714,270.176c13.114-0.445,23.383-11.289,22.936-24.402"/>
	</g>
	<g>
		<rect x="154.03" y="164.848" fill="none" stroke="#939598" stroke-width="0.8" width="1.1" height="29"/>
		<rect x="153.077" y="185.098" fill="none" stroke="#939598" stroke-width="0.8" width="1.078" height="29"/>
	</g>
	<g>
		<rect x="209.013" y="165.598" fill="none" stroke="#939598" stroke-width="0.8" width="1.143" height="29"/>
		<rect x="210.138" y="185.848" fill="none" stroke="#939598" stroke-width="0.8" width="1.164" height="29"/>
	</g>
	<g>
		<rect x="25.523" y="8.839" fill="none" stroke="#939598" width="2.875" height="2.875"/>
		<rect x="112.023" y="8.839" fill="none" stroke="#939598" width="2.875" height="2.875"/>
		<line fill="none" stroke="#939598" x1="28.148" y1="10.964" x2="112.023" y2="10.964"/>
		<line fill="none" stroke="#939598" x1="28.398" y1="11.714" x2="28.398" y2="15.214"/>
		<line fill="none" stroke="#939598" x1="112.58" y1="11.714" x2="112.58" y2="16.339"/>
		<line fill="none" stroke="#939598" x1="114.898" y1="11.714" x2="114.898" y2="16.089"/>
		<line fill="none" stroke="#939598" x1="112.023" y1="8.839" x2="27.898" y2="8.839"/>
		<line fill="none" stroke="#939598" x1="25.523" y1="11.714" x2="25.523" y2="14.714"/>
	</g>
	<g>
		<polygon fill="none" stroke="#939598" points="205.553,226.099 205.545,227.685 182.918,227.7 182.926,226.112 		"/>
		<path fill="none" stroke="#939598" d="M182.908,226.828c0.423,12.458,10.664,22.214,23.121,21.788"/>
	</g>
	<line fill="none" stroke="#939598" x1="41.273" y1="236.214" x2="3.398" y2="236.214"/>
	<line fill="none" stroke="#939598" x1="143.898" y1="216.714" x2="143.898" y2="164.589"/>
	<line fill="none" stroke="#939598" x1="220.023" y1="164.464" x2="220.023" y2="217.214"/>
	
		<line fill="none" stroke="#939598" stroke-dasharray="1.5,1.5,1.5,1.5,1.5,1.5" x1="141.986" y1="216.214" x2="141.986" y2="164.464"/>
	
		<line fill="none" stroke="#939598" stroke-dasharray="1.5,1.5,1.5,1.5,1.5,1.5" x1="221.898" y1="216.089" x2="221.898" y2="164.339"/>
	
		<line fill="none" stroke="#939598" stroke-dasharray="1.5,1.5,1.5,1.5,1.5,1.5" x1="41.273" y1="234.327" x2="3.148" y2="234.327"/>
	<line fill="none" stroke="#939598" x1="143.329" y1="24.964" x2="218.731" y2="24.964"/>
	<line fill="none" stroke="#939598" x1="230.248" y1="159.964" x2="230.248" y2="100.964"/>
	
		<rect x="67.017" y="251.213" transform="matrix(0.7071 -0.7072 0.7072 0.7071 -158.278 139.6015)" fill="#FFFFFF" stroke="#939598" width="44.678" height="19.251"/>
	<polyline fill="#FFFFFF" stroke="#939598" points="179.815,327.743 180.065,308.993 205.065,308.993 204.815,327.608 	"/>
	
		<line fill="none" stroke="#939598" stroke-dasharray="1.5,1.5,1.5,1.5,1.5,1.5" x1="48.148" y1="317.797" x2="76.496" y2="317.797"/>
	<g>
		<g>
			<rect x="104.095" y="305.617" fill="#FFFFFF" stroke="#939598" width="23.25" height="19.75"/>
			<path fill="#FFFFFF" stroke="#939598" d="M115.72,315.492"/>
		</g>
		<g>
			<g>
				<circle fill="#FFFFFF" stroke="#939598" cx="121.035" cy="309.992" r="2.824"/>
				<path fill="#FFFFFF" stroke="#939598" d="M121.035,309.992"/>
			</g>
			<g>
				<circle fill="#FFFFFF" stroke="#939598" stroke-width="0.8" cx="121.063" cy="309.993" r="1.989"/>
				<path fill="#FFFFFF" stroke="#939598" d="M121.063,309.992"/>
			</g>
		</g>
		<g>
			<g>
				<circle fill="#FFFFFF" stroke="#939598" cx="109.748" cy="318.242" r="2.824"/>
				<path fill="#FFFFFF" stroke="#939598" d="M109.748,318.242"/>
			</g>
			<g>
				<circle fill="#FFFFFF" stroke="#939598" stroke-width="0.8" cx="109.72" cy="318.243" r="1.989"/>
				<path fill="#FFFFFF" stroke="#939598" d="M109.72,318.242"/>
			</g>
		</g>
		<g>
			<g>
				<circle fill="#FFFFFF" stroke="#939598" cx="121.073" cy="318.215" r="3.219"/>
				<path fill="#FFFFFF" stroke="#939598" d="M121.073,318.215"/>
			</g>
			<g>
				<circle fill="#FFFFFF" stroke="#939598" stroke-width="0.8" cx="121.042" cy="318.215" r="2.268"/>
				<path fill="#FFFFFF" stroke="#939598" d="M121.042,318.215"/>
			</g>
		</g>
		<g>
			<g>
				<circle fill="#FFFFFF" stroke="#939598" cx="109.761" cy="309.775" r="3.219"/>
				<path fill="#FFFFFF" stroke="#939598" d="M109.761,309.775"/>
			</g>
			<g>
				<circle fill="#FFFFFF" stroke="#939598" stroke-width="0.8" cx="109.729" cy="309.775" r="2.268"/>
				<path fill="#FFFFFF" stroke="#939598" d="M109.729,309.775"/>
			</g>
		</g>
		<line fill="#FFFFFF" stroke="#939598" x1="127.376" y1="322.635" x2="104.095" y2="322.635"/>
		<line fill="#FFFFFF" stroke="#939598" x1="127.345" y1="323.727" x2="104.095" y2="323.727"/>
	</g>
	<g>
		<polyline fill="none" stroke="#939598" stroke-dasharray="1.5,1,1.5,1,1.5,1" points="131.617,303.317 149.486,303.317 
			149.486,285.792 132.019,285.792 		"/>
		<polyline fill="#FFFFFF" stroke="#939598" points="132.019,285.765 130.956,285.765 130.956,303.317 131.61,303.317 		"/>
	</g>
	<polyline fill="none" stroke="#939598" stroke-dasharray="1.5,1.5,1.5,1.5,1.5,1.5" points="141.148,291.358 141.148,256.265 
		151.398,256.265 	"/>
	<polyline fill="none" stroke="#939598" stroke-dasharray="1.5,1.5,1.5,1.5,1.5,1.5" points="90.996,317.797 141.148,317.797 
		141.148,298.608 	"/>
	<line fill="none" stroke="#939598" x1="90.829" y1="308.775" x2="90.829" y2="326.275"/>
	<g>
		<path fill="#FFFFFF" stroke="#939598" stroke-miterlimit="10" d="M173.215,312.81c0-4.462-2.711-9.376-6.053-9.376
			s-6.041,4.914-6.041,9.376c0,4.463,2.699,6.785,6.041,6.785S173.215,317.272,173.215,312.81"/>
		<path fill="#FFFFFF" stroke="#939598" d="M173.215,312.81c0-4.462-2.711-9.376-6.053-9.376s-6.041,4.914-6.041,9.376
			c0,4.463,2.699,6.785,6.041,6.785S173.215,317.272,173.215,312.81z"/>
		<path fill="#FFFFFF" stroke="#939598" stroke-miterlimit="10" d="M163.539,318.132c0-0.25-0.205-0.455-0.455-0.455h-2.107
			c-0.25,0-0.455,0.205-0.455,0.455v0.077c0,0.25,0.205,0.455,0.455,0.455h2.107c0.25,0,0.455-0.205,0.455-0.455V318.132z"/>
		<path fill="#FFFFFF" stroke="#939598" d="M163.539,318.132c0-0.25-0.205-0.455-0.455-0.455h-2.107
			c-0.25,0-0.455,0.205-0.455,0.455v0.077c0,0.25,0.205,0.455,0.455,0.455h2.107c0.25,0,0.455-0.205,0.455-0.455V318.132z"/>
		<path fill="#FFFFFF" stroke="#939598" stroke-miterlimit="10" d="M160.201,318.676c-0.758,0-1.375,2.057-1.375,2.816
			c0,0.769,0.617,2.825,1.375,2.825h13.814c0.76,0,1.375-2.057,1.375-2.825c0-0.76-0.615-2.814-1.375-2.814L160.201,318.676z"/>
		<path fill="#FFFFFF" stroke="#939598" d="M160.201,318.676c-0.758,0-1.375,2.057-1.375,2.816c0,0.769,0.617,2.825,1.375,2.825
			h13.814c0.76,0,1.375-2.057,1.375-2.825c0-0.76-0.615-2.814-1.375-2.814L160.201,318.676z"/>
		<path fill="#FFFFFF" stroke="#939598" stroke-miterlimit="10" d="M171.611,312.623c0-3.279-1.992-6.893-4.449-6.893
			s-4.447,3.613-4.447,6.893s1.99,4.985,4.447,4.985S171.611,315.902,171.611,312.623"/>
		<path fill="#FFFFFF" stroke="#939598" d="M171.611,312.623c0-3.279-1.992-6.893-4.449-6.893s-4.447,3.613-4.447,6.893
			s1.99,4.985,4.447,4.985S171.611,315.902,171.611,312.623z"/>
	</g>
	<g>
		<g>
			<rect x="205.708" y="259.245" fill="#FFFFFF" stroke="#939598" width="23.625" height="45.693"/>
			<path fill="#FFFFFF" stroke="#939598" d="M217.521,282.093"/>
			<path fill="#FFFFFF" stroke="#939598" d="M217.521,282.249"/>
			<path fill="#FFFFFF" stroke="#939598" d="M217.521,297.742"/>
		</g>
		<circle fill="#FFFFFF" stroke="#939598" cx="217.632" cy="294.524" r="0.969"/>
		<path fill="#FFFFFF" stroke="#939598" d="M217.593,261.854c-6.771,0-9.25,1.562-9.25,3.752c0,0,0,32.839,0,33.376
			c0,0.535,0.145,1.641,1.561,1.641c1.418,0,7.689,0,7.689,0h0.016c0,0,6.271,0,7.689,0c1.416,0,1.561-1.105,1.561-1.641
			c0-0.537,0-33.354,0-33.354l-0.002-0.021C226.856,263.417,224.321,261.854,217.593,261.854z"/>
		<path fill="#FFFFFF" stroke="#939598" d="M215.601,302.322c0.002-0.549-0.44-0.988-0.995-0.988c-0.537,0-0.982,0.439-0.986,0.988
			c0.004,0.545,0.449,0.995,0.986,0.995C215.16,303.317,215.603,302.873,215.601,302.322z"/>
		<path fill="#FFFFFF" stroke="#939598" d="M221.742,302.322c0.006-0.549-0.445-0.988-0.99-0.988c-0.543,0-0.99,0.439-0.99,0.988
			c0,0.545,0.447,0.995,0.99,0.988C221.299,303.317,221.742,302.867,221.742,302.322z"/>
		<path fill="#FFFFFF" stroke="#939598" d="M216.299,302.615c0,0.812,0.549,1.469,1.361,1.471c0.811-0.002,1.254-0.658,1.254-1.471
			l-0.521-5.592c0-0.549-1.482-0.549-1.482,0L216.299,302.615z"/>
	</g>
	<g>
		<g>
			<g>
				<g>
					<rect x="209.379" y="227.774" fill="#FFFFFF" stroke="#939598" width="18.545" height="20.188"/>
					<path fill="#FFFFFF" stroke="#939598" d="M218.035,237.868"/>
					<polyline fill="#FFFFFF" stroke="#939598" points="214.912,231.743 212.091,231.743 211.433,234.181 211.433,241.649 
						212.091,244.118 214.912,244.118 					"/>
					<line fill="#FFFFFF" stroke="#939598" x1="214.912" y1="248.108" x2="214.912" y2="227.774"/>
					<path fill="#FFFFFF" stroke="#939598" d="M217.089,237.931"/>
				</g>
			</g>
		</g>
		<polygon fill="#FFFFFF" stroke="#939598" points="213.695,246.98 213.691,245.35 214.829,244.991 214.834,247.339 		"/>
	</g>
	<g>
		<g>
			<g>
				<polygon fill="none" stroke="#939598" stroke-width="0.7" points="83.393,299.809 84.644,300.496 79.435,309.089 
					78.183,308.402 				"/>
				<path fill="none" stroke="#939598" stroke-width="0.8" d="M80.463,305.145"/>
			</g>
			<path fill="none" stroke="#939598" stroke-width="0.8" d="M83.872,300.223c3.202,1.94,4.925,5.394,4.809,8.888"/>
		</g>
	</g>
	<g>
		<g>
			<g>
				<path fill="none" stroke="#939598" d="M192.572,315.577"/>
			</g>
			<g>
				<path fill="none" stroke="#939598" d="M192.572,316.64"/>
			</g>
			<g>
				<circle fill="none" stroke="#939598" cx="192.572" cy="315.577" r="1.017"/>
				<path fill="none" stroke="#939598" d="M192.572,315.577"/>
			</g>
			<g>
				<g>
					<rect x="188.307" y="321.952" fill="none" stroke="#939598" width="8.553" height="2.125"/>
					<path fill="none" stroke="#939598" d="M192.572,323.015"/>
				</g>
				<g>
					<rect x="192.119" y="317.827" fill="none" stroke="#939598" width="0.906" height="4.031"/>
					<path fill="none" stroke="#939598" d="M192.572,320.187"/>
				</g>
				<g>
					<circle fill="none" stroke="#939598" cx="192.572" cy="322.994" r="0.986"/>
					<path fill="none" stroke="#939598" d="M192.572,322.994"/>
				</g>
			</g>
		</g>
		<g>
			<rect x="184.045" y="310.527" fill="none" stroke="#939598" width="17.076" height="13.875"/>
			<rect x="185.438" y="311.922" fill="none" stroke="#939598" width="14.255" height="9.98"/>
		</g>
	</g>
</g>
<g id="walls">
	<polyline fill="none" stroke="#939598" stroke-width="3" points="1.898,25.548 32.85,25.548 32.85,21.858 	"/>
	<polyline fill="none" stroke="#939598" stroke-width="3" points="141.98,20.608 141.98,25.505 108.156,25.505 108.113,22.394 	"/>
	<polyline fill="none" stroke="#939598" stroke-width="3" points="218.648,20.964 218.648,25.448 231.336,25.448 231.336,104.464 
		236.898,104.464 	"/>
	<path fill="none" stroke="#58595B" stroke-width="4" d="M131.398,217.464"/>
	<path fill="none" stroke="#58595B" stroke-width="4" d="M131.398,27.464"/>
	<polyline fill="none" stroke="#939598" stroke-width="3" points="33.398,246.964 42.398,246.964 42.398,225.214 2.148,225.214 	"/>
	<line fill="none" stroke="#939598" stroke-width="3" x1="3.648" y1="246.964" x2="9.898" y2="246.964"/>
	<polyline fill="none" stroke="#939598" stroke-width="3" points="174.709,217.464 130.398,217.464 130.398,25.964 	"/>
	<line fill="none" stroke="#939598" stroke-width="3" x1="230.148" y1="217.464" x2="198.289" y2="217.464"/>
	<line fill="none" stroke="#939598" stroke-width="3" x1="210.148" y1="209.464" x2="210.148" y2="216.964"/>
	<polyline fill="none" stroke="#939598" stroke-width="3" points="231.398,164.011 210.148,164.011 210.148,168.464 	"/>
	<polyline fill="none" stroke="#939598" stroke-width="3" points="154.148,168.464 154.148,164.063 130.162,163.858 	"/>
	<line fill="none" stroke="#939598" stroke-width="3" x1="154.148" y1="217.964" x2="154.148" y2="210.214"/>
	<polyline fill="none" stroke="#939598" stroke-width="3" points="206.635,327.464 206.635,306.214 230.898,306.214 	"/>
	<line fill="none" stroke="#939598" stroke-width="3" x1="186.023" y1="257.464" x2="230.148" y2="257.464"/>
	<polyline fill="none" stroke="#939598" stroke-width="3" points="152.398,327.464 152.398,257.464 162.523,257.464 	"/>
	<line fill="none" stroke="#939598" stroke-width="3" x1="205.877" y1="226.435" x2="205.898" y2="217.214"/>
	<line fill="none" stroke="#939598" stroke-width="3" x1="205.898" y1="257.464" x2="205.898" y2="248.271"/>
	<polyline fill="none" stroke="#939598" stroke-width="5" points="101.829,20.042 107.189,20.036 107.189,17.214 142.732,17.214 
		142.898,20.036 236.797,20.036 236.797,160.761 231.398,160.761 231.398,328.464 47.557,328.519 47.557,308.214 34.959,308.214 
		34.959,309.714 47.148,309.714 	"/>
	<polyline fill="none" stroke="#939598" stroke-width="5" points="2.398,308.464 7.535,308.464 7.535,310.212 2.5,310.11 
		2.5,247.214 2.5,16.108 33.662,16.108 33.861,20.108 38.162,20.104 	"/>
	<line fill="none" stroke="#939598" stroke-width="3" x1="155.148" y1="257.714" x2="155.148" y2="327.464"/>
	<g>
		<rect x="67.815" y="20.308" fill="none" stroke="#939598" width="37.5" height="1.766"/>
		<rect x="35.565" y="18.235" fill="none" stroke="#939598" width="41" height="1.938"/>
	</g>
</g>
<g id="windows">
	<g>
		<rect x="234.908" y="106.892" fill="#FFFFFF" stroke="#939598" width="3.824" height="50.75"/>
		<line fill="none" stroke="#939598" x1="236.898" y1="106.892" x2="236.898" y2="158.392"/>
		<line fill="none" stroke="#939598" stroke-width="2" x1="239.037" y1="131.267" x2="234.912" y2="131.267"/>
	</g>
	<g>
		<g>
			<rect x="146.336" y="18.276" fill="#FFFFFF" stroke="#939598" width="69.562" height="3.674"/>
			<line fill="none" stroke="#939598" x1="215.898" y1="20.095" x2="145.586" y2="20.095"/>
			<line fill="none" stroke="#939598" stroke-width="2" x1="193.225" y1="22.108" x2="193.225" y2="18.614"/>
		</g>
		<line fill="none" stroke="#939598" stroke-width="2" x1="169.836" y1="22.233" x2="169.836" y2="18.632"/>
	</g>
</g>
<g id="Type">
	<text transform="matrix(1 0 0 1 135.0977 298.0322)" fill="#939598" font-family="'Gotham-Book'" font-size="7">DW</text>
	<text transform="matrix(1 0 0 1 56.5713 314.0332)" fill="#939598" font-family="'Gotham-Book'" font-size="7">Ref</text>
	<text transform="matrix(1 0 0 1 172.0645 294.5156)"><tspan x="0" y="0" fill="#939598" font-family="'Gotham-Book'" font-size="9">B</tspan><tspan x="6.498" y="0" fill="#939598" font-family="'Gotham-Book'" font-size="9">a</tspan><tspan x="11.574" y="0" fill="#939598" font-family="'Gotham-Book'" font-size="9">th</tspan></text>
	<text transform="matrix(1 0 0 1 12.9995 312.1162)"><tspan x="0" y="0" fill="#939598" font-family="'Gotham-Book'" font-size="7">E</tspan><tspan x="4.69" y="0" fill="#939598" font-family="'Gotham-Book'" font-size="7">n</tspan><tspan x="8.953" y="0" fill="#939598" font-family="'Gotham-Book'" font-size="7">try</tspan></text>
	<text transform="matrix(1 0 0 1 159.1055 91.6963)"><tspan x="0" y="0" fill="#939598" font-family="'Gotham-Book'" font-size="9">Bedroom</tspan><tspan x="-4.343" y="11" fill="#939598" font-family="'Gotham-Book'" font-size="9">10&apos;7&quot;</tspan><tspan x="16.844" y="11" fill="#939598" font-family="'Gotham-Book'" font-size="9"> </tspan><tspan x="19.48" y="11" fill="#939598" font-family="'Gotham-Book'" font-size="9">x 15&apos;0&quot; </tspan></text>
	<text id="Living_x2F_Dining_Room_12_x27_0_x22__x__x_2_x27_10_x22__1_" transform="matrix(1 0 0 1 23.1719 128.6992)"><tspan x="0" y="0" fill="#939598" font-family="'Gotham-Book'" font-size="9">Living/Dining Room</tspan><tspan x="17.091" y="11" fill="#939598" font-family="'Gotham-Book'" font-size="9">13&apos;10&quot; x 21&apos;9&quot;</tspan></text>
	<text transform="matrix(0 -1 1 0 151.043 199.6094)" fill="#939598" font-family="'Gotham-Book'" font-size="7">Closet</text>
	<text transform="matrix(1 0 0 1 27.8989 282.3486)" fill="#939598" font-family="'Gotham-Book'" font-size="9">Kitchen</text>
	<text transform="matrix(1 0 0 1 11.7998 244.1162)" fill="#939598" font-family="'Gotham-Book'" font-size="7">Closet</text>
	<text transform="matrix(0.7071 -0.7071 0.7071 0.7071 84.4878 269.2539)"><tspan x="0" y="0" fill="#939598" font-family="'Gotham-Book'" font-size="7">I</tspan><tspan x="1.967" y="0" fill="#939598" font-family="'Gotham-Book'" font-size="7">sland</tspan></text>
	<text transform="matrix(1 0 0 1 44.6167 5.9497)" fill="#939598" font-family="'Gotham-Book'" font-size="7">Juliet Balcony</text>
	<text transform="matrix(0 -1 1 0 218.21 199.6094)" fill="#939598" font-family="'Gotham-Book'" font-size="7">Closet</text>
	<text transform="matrix(0 -1 1 0 223.8291 244.8662)" fill="#939598" font-family="'Gotham-Book'" font-size="7">W/D</text>
	<text transform="matrix(0 -1 1 0 86.0254 324.6143)"><tspan x="0" y="0" fill="#939598" font-family="'Gotham-Book'" font-size="5.6">Pan</tspan><tspan x="9.929" y="0" fill="#939598" font-family="'Gotham-Book'" font-size="5.6">t</tspan><tspan x="12.152" y="0" fill="#939598" font-family="'Gotham-Book'" font-size="5.6">r</tspan><tspan x="14.493" y="0" fill="#939598" font-family="'Gotham-Book'" font-size="5.6">y</tspan></text>
</g>
</svg>
