<svg xmlns="http://www.w3.org/2000/svg" width="337.797" height="333.926" viewBox="0 0 337.797 333.926"><path fill="#FFF" d="M1.512 18.65v313.79h176.5v-15.5h55v14.5h103.5v-313h-120v-9.5h-89v7h-26.5v3.5z"/><g fill="#D1D3D4"><path d="M234.262 310.707h22.25v21.484h-22.25zM310.512 308.055h24.785v23.295h-24.785zM101.127 17.307h32.635v9.135h-32.635zM209.654 17.307h38.95v8.627h-38.95zM323.512 20.44h12.25v5.75h-12.25zM2.5 20.664h24.762v5.027H2.5z"/></g><path fill="#FFF" stroke="#939598" d="M114.916 206.44V310.61h62.764v20.818H93.345v-125.15h20.237"/><g fill="none" stroke="#939598"><path d="M138.012 18.89h37.5v1.98h-37.5z"/><path d="M166.762 20.855h41v1.766h-41z"/></g><g fill="none" stroke="#939598"><path d="M214.262 9.566h2.875v2.875h-2.875zM127.762 9.566h2.875v2.875h-2.875zM214.512 11.69h-83.875M214.262 12.44v3.5M130.08 12.44v4.626M127.762 12.44v4.376M130.637 9.566h84.125M217.137 12.44v3.517"/></g><path fill="none" stroke="#939598" d="M101.845 26.69H27.512M322.762 26.96H248.43"/><g fill="none" stroke="#939598"><path d="M64.778 175.602l-1.65.05-.014 23.778 1.67.01zM64.032 199.46c-13.114-.444-23.383-11.246-22.936-24.358"/></g><g fill="none" stroke="#939598"><path d="M264.327 259.188l1.67.007.017 23.82-1.672-.01zM265.096 283.023c13.113-.444 23.383-11.225 22.936-24.338"/></g><g fill="none" stroke="#939598"><path d="M64.733 251.482l-1.67.014-.016-23.818 1.714-.013zM64.03 227.646c-13.114.444-23.383 11.29-22.936 24.4"/></g><g fill="none" stroke="#939598"><path d="M272.876 196.96l.01-1.586 22.626-.017-.008 1.588zM295.52 196.23c-.423-12.46-10.663-22.215-23.12-21.79"/></g><g fill="none" stroke="#939598"><path d="M242.61 220.473l1.67.01.015-23.817-1.714-.014zM243.312 196.635c13.113.445 23.383 11.29 22.936 24.402"/></g><g fill="none" stroke="#939598"><path d="M233.824 298.302l.84-1.346-19.13-12.087-.84 1.346zM215.062 285.602c4.342-6.39 11.318-9.89 18.45-9.96"/></g><g fill="none" stroke="#939598"><path d="M113.712 167.792l-.01-1.585-22.626-.016.008 1.59zM91.066 167.063c.424-12.458 10.664-22.32 23.12-21.896"/></g><g fill="none" stroke="#939598"><path d="M304.512 228.44l-.01 1.587-22.626.017.008-1.588zM281.866 229.172c.424 12.458 10.663 22.214 23.12 21.788"/></g><g fill="none" stroke="#939598"><path d="M113.564 181.727l.007 1.268 18.102.012-.006-1.27zM131.68 182.31c-.34 9.968-8.53 17.772-18.497 17.43"/></g><path fill="#FFF" stroke="#939598" d="M167.378 286.673l-31.593-31.598 13.615-13.613 31.593 31.598z" stroke-width="1.00006"/><path fill="none" stroke="#939598" d="M245.012 260.44v50.25M78.262 176.69v73.18M34.012 176.94v9h-20.75v54.5h21.5v10.75M100.762 176.94v29.25M274.762 163.44h50v45.5h-49.75"/><path fill="none" stroke="#939598" stroke-dasharray="1.5,1.5,1.5,1.5,1.5,1.5" d="M80.656 176.69v74.75M98.617 176.94v29.75M247.32 259.69v50.5M274.512 160.918h52.732v50.37h-52.482M33.512 183.312h-22.8v59.48h24.05"/><path fill="#FFF" stroke="#939598" d="M286.262 329.94v-17.987h23.418v19.99M74.598 251.275H94.17v79.666H74.598z"/><g stroke="#939598"><path fill="#FFF" d="M310.73 229.44h18.544v20.187H310.73z"/><path fill="#FFF" d="M316.262 233.41h-2.823l-.658 2.438v7.466l.657 2.47h2.822"/><path fill="none" d="M316.262 249.773V229.44"/></g><path fill="#FFF" stroke="#939598" d="M315.045 248.646l-.004-1.63 1.14-.36.004 2.35z"/><g fill="#FFF" stroke="#939598"><path stroke-miterlimit="10" d="M279.38 316.406c0-4.462-2.71-9.376-6.053-9.376s-6.04 4.914-6.04 9.376c0 4.463 2.697 6.785 6.04 6.785 3.342 0 6.053-2.32 6.053-6.784"/><path d="M279.38 316.406c0-4.462-2.71-9.376-6.053-9.376s-6.04 4.914-6.04 9.376c0 4.463 2.697 6.785 6.04 6.785 3.342 0 6.053-2.32 6.053-6.784z"/><path stroke-miterlimit="10" d="M269.704 321.73a.456.456 0 0 0-.455-.455h-2.107a.456.456 0 0 0-.455.454v.076c0 .25.205.455.455.455h2.106c.25 0 .454-.204.454-.454v-.077z"/><path d="M269.704 321.73a.456.456 0 0 0-.455-.455h-2.107a.456.456 0 0 0-.455.454v.076c0 .25.205.455.455.455h2.106c.25 0 .454-.204.454-.454v-.077z"/><path stroke-miterlimit="10" d="M266.366 322.272c-.76 0-1.375 2.057-1.375 2.815 0 .77.617 2.825 1.376 2.825h13.813c.76 0 1.374-2.057 1.374-2.825 0-.76-.615-2.813-1.375-2.813l-13.814-.002z"/><path d="M266.366 322.272c-.76 0-1.375 2.057-1.375 2.815 0 .77.617 2.825 1.376 2.825h13.813c.76 0 1.374-2.057 1.374-2.825 0-.76-.615-2.813-1.375-2.813l-13.814-.002z"/><path stroke-miterlimit="10" d="M277.775 316.22c0-3.278-1.99-6.893-4.448-6.893s-4.447 3.613-4.447 6.893 1.99 4.985 4.447 4.985 4.448-1.706 4.448-4.985"/><path d="M277.775 316.22c0-3.278-1.99-6.893-4.448-6.893s-4.447 3.613-4.447 6.893 1.99 4.985 4.447 4.985 4.448-1.706 4.448-4.985z"/></g><path fill="#FFF" stroke="#939598" d="M308.837 261.104h24.496v46.75h-24.496z"/><path fill="#FFF" stroke="#939598" d="M321.343 306.428h9.79v-43.57H311.04v43.57h9.4"/><path fill="none" stroke="#939598" d="M311.038 306.428l9.39-20.4M321.816 284.207l9.318-21.348M311.038 262.86l9.298 21.242M321.84 286.06l9.294 20.368"/><path fill="#FFF" stroke="#939598" d="M322.152 285.104c0-.6-.588-1.084-1.05-1.084-.458 0-.974.484-.974 1.084 0 .6.516 1.084.975 1.084.46 0 1.05-.487 1.05-1.084zM322.12 304.83c0-.617-2.23-.617-2.23 0a1.115 1.115 0 0 0 2.23 0zM320.773 308.148v-2.134h.623v2.136"/><g fill="#FFF" stroke="#939598"><path stroke-miterlimit="10" d="M17.643 272.923c4.462 0 9.376-2.71 9.376-6.053s-4.915-6.04-9.377-6.04c-4.463 0-6.785 2.697-6.785 6.04 0 3.342 2.322 6.053 6.785 6.053"/><path d="M17.643 272.923c4.462 0 9.376-2.71 9.376-6.053s-4.915-6.04-9.377-6.04c-4.463 0-6.785 2.697-6.785 6.04 0 3.342 2.322 6.053 6.785 6.053z"/><path stroke-miterlimit="10" d="M12.32 263.247c.25 0 .456-.205.456-.455v-2.106a.457.457 0 0 0-.455-.455h-.076a.457.457 0 0 0-.455.456v2.106c0 .25.204.455.454.455h.077z"/><path d="M12.32 263.247c.25 0 .456-.205.456-.455v-2.106a.457.457 0 0 0-.455-.455h-.076a.457.457 0 0 0-.455.456v2.106c0 .25.204.455.454.455h.077z"/><path stroke-miterlimit="10" d="M11.777 259.91c0-.76-2.057-1.376-2.816-1.376-.768 0-2.824.616-2.824 1.375v13.812c0 .76 2.057 1.375 2.825 1.375.76 0 2.815-.615 2.815-1.375l.002-13.813z"/><path d="M11.777 259.91c0-.76-2.057-1.376-2.816-1.376-.768 0-2.824.616-2.824 1.375v13.812c0 .76 2.057 1.375 2.825 1.375.76 0 2.815-.615 2.815-1.375l.002-13.813z"/><path stroke-miterlimit="10" d="M17.83 271.318c3.28 0 6.893-1.99 6.893-4.448s-3.613-4.447-6.893-4.447-4.985 1.99-4.985 4.447 1.705 4.448 4.985 4.448"/><path d="M17.83 271.318c3.28 0 6.893-1.99 6.893-4.448s-3.613-4.447-6.893-4.447-4.985 1.99-4.985 4.447 1.705 4.448 4.985 4.448z"/></g><path fill="#FFF" stroke="#939598" d="M4.8 283.82h23.625v45.692H4.8z"/><circle fill="#FFF" stroke="#939598" cx="16.501" cy="294.234" r=".969"/><path fill="#FFF" stroke="#939598" d="M16.54 326.904c6.77 0 9.25-1.562 9.25-3.752v-33.377c0-.535-.145-1.642-1.56-1.642h-7.706-7.69c-1.415 0-1.56 1.104-1.56 1.642v33.354l.002.02c0 2.192 2.536 3.754 9.264 3.754zM18.532 286.436c-.002.55.44.988.996.988.537 0 .982-.44.986-.988a1 1 0 0 0-.986-.994.99.99 0 0 0-.996.994zM12.392 286.436a.984.984 0 0 0 .99.988.986.986 0 1 0 0-1.975.983.983 0 0 0-.99.987z"/><path fill="#FFF" stroke="#939598" d="M17.835 286.143c0-.812-.55-1.47-1.36-1.47-.812 0-1.255.657-1.255 1.47l.52 5.592c0 .55 1.483.55 1.483 0l.612-5.592z"/><g><path fill="#FFF" stroke="#939598" d="M97.693 259.398a.77.77 0 0 1 .77-.77h13.446a.77.77 0 0 1 .77.77v22.807a.77.77 0 0 1-.77.77H98.464a.77.77 0 0 1-.77-.77l-.002-22.807z"/><circle fill="#FFF" stroke="#939598" cx="105.517" cy="270.721" r=".871"/><path fill="#FFF" stroke="#939598" d="M98.23 266.916h1.82v7.61h-1.82z"/><path fill="#FFF" stroke="#939598" d="M100.002 270.332h3.586v.777h-3.586z"/><circle fill="#FFF" stroke="#939598" cx="99.157" cy="270.721" r=".847"/><g><path fill="none" stroke="#939598" d="M100.68 270.252v-9.59a.81.81 0 0 1 .81-.81h9.22a.81.81 0 0 1 .81.81v20.28a.81.81 0 0 1-.81.81h-9.22a.81.81 0 0 1-.81-.81v-9.727"/></g></g><g><path fill="#FFF" stroke="#939598" d="M137.46 308.434h23.25v19.75h-23.25z"/><circle fill="#FFF" stroke="#939598" cx="154.4" cy="312.809" r="2.824"/><circle fill="#FFF" stroke="#939598" stroke-width=".8" cx="154.429" cy="312.81" r="1.989"/><circle fill="#FFF" stroke="#939598" cx="143.113" cy="321.059" r="2.824"/><circle fill="#FFF" stroke="#939598" stroke-width=".8" cx="143.085" cy="321.06" r="1.989"/><circle fill="#FFF" stroke="#939598" cx="154.438" cy="321.031" r="3.219"/><circle fill="#FFF" stroke="#939598" stroke-width=".8" cx="154.407" cy="321.031" r="2.268"/><g><circle fill="#FFF" stroke="#939598" cx="143.126" cy="312.592" r="3.219"/><circle fill="#FFF" stroke="#939598" stroke-width=".8" cx="143.094" cy="312.592" r="2.268"/></g><path fill="none" stroke="#939598" d="M160.74 325.45h-23.28M160.71 326.543h-23.25"/></g><g><path fill="#FFF" stroke="#939598" d="M96.788 208.826h21.97v24.9h-21.97z"/><path fill="none" stroke="#939598" d="M117.22 233.787v-24.96"/><path fill="#FFF" stroke="#939598" d="M118.772 210.904h1.07v2.018h-1.07z"/></g><g><path fill="#FFF" stroke="#939598" d="M118.41 236.852v-1.834H96.575v14.166h21.833v-1.832"/><path fill="none" stroke="#939598" stroke-width=".7" d="M127.293 242.19l-.687-1.252-8.593 5.208.687 1.252z"/><path fill="none" stroke="#939598" stroke-width=".8" d="M126.88 241.712a9.995 9.995 0 0 0-8.89-4.812"/></g><g fill="none" stroke="#939598"><path d="M222.732 318.097l-1.67.012-.014-23.82 1.714-.013zM222.03 294.26c-13.114.445-23.384 11.29-22.937 24.402"/></g><path fill="none" stroke="#939598" stroke-dasharray="1.5,1.5,1.5,1.5,1.5,1.5" d="M106.345 295.775v24.833h71.667M106.345 245.943v44.166M106.345 224.275v14.834M106.345 207.94v9.67"/><g stroke="#939598"><path fill="none" stroke-dasharray="1.5,1,1.5,1,1.5,1" d="M115.44 301.766H98.466v-16.65h16.595"/><path fill="#FFF" d="M115.06 285.092h1.008v16.674h-.62"/></g><g><circle fill="none" stroke="#939598" cx="297.846" cy="318.857" r="1.017"/><path fill="none" stroke="#939598" d="M293.58 325.232h8.553v2.125h-8.553zM297.393 321.107h.906v4.03h-.907z"/><circle fill="none" stroke="#939598" cx="297.846" cy="326.274" r=".986"/><g fill="none" stroke="#939598"><path d="M289.318 313.808h17.076v13.875h-17.076z"/><path d="M290.71 315.202h14.256v9.98H290.71z"/></g></g><g><circle fill="none" stroke="#939598" cx="82.011" cy="276.622" r="1.017"/><path fill="none" stroke="#939598" d="M88.386 272.335h2.125v8.554h-2.124zM84.26 276.17h4.032v.905h-4.03z"/><circle fill="none" stroke="#939598" cx="89.428" cy="276.622" r=".985"/><g fill="none" stroke="#939598"><path d="M76.96 268.073h13.876v17.075H76.96z"/><path d="M78.356 269.502h9.98v14.255h-9.98z"/></g></g><g><circle fill="none" stroke="#939598" cx="82.011" cy="304.608" r="1.017"/><path fill="none" stroke="#939598" d="M88.387 300.32h2.125v8.554h-2.125zM84.262 304.154h4.03v.906h-4.03z"/><circle fill="none" stroke="#939598" cx="89.428" cy="304.608" r=".986"/><g fill="none" stroke="#939598"><path d="M76.96 296.06h13.876v17.076H76.96z"/><path d="M78.355 297.488h9.98v14.255h-9.98z"/></g></g><g fill="none" stroke="#939598"><path stroke-width="3" d="M177.115 318.608l.172-11.23"/><path stroke-width="5" d="M138.02 20.693h-3.508M210.775 20.708h-4.472"/><path stroke-width="3" d="M233.512 297.94v20.668M264.262 259.602h-30.75v16.017M334.13 259.602H287.7"/><path stroke-width="5" d="M199.68 317.94h-21.498l-.12 13.486H2.5V20.664l99.272.022M222.732 317.94l10.78-.062v13.472h101.785V20.736l-87.285-.02"/><path stroke-width="4" d="M3.262 282.19h25.715"/><path stroke-width="3" d="M257.012 259.94v70.75M257.012 310.707h-22.75M309.953 330.94v-21.833h24.81M242.37 220.068h-8.858V26.19M335.512 220.068h-69.71M273.262 174.68v-22.317h62M273.262 219.19v-22.23"/><path stroke-width="5" d="M209.633 20.695v-3.302l38.97-.086v3.41"/><path stroke-width="3" d="M247.594 20.717v5.217H210.62V20.61"/><path stroke-width="5" d="M101.127 20.942v-3.635h33.09v3.386"/><path stroke-width="3" d="M133.23 20.65v5.026h-31.05v-4.734M323.512 20.44v5.488h11M26.27 20.756v4.986H3.262M235.512 26.94v193M113.582 199.418v7.023h-24.57v-31M113.582 167.934v13.878M113.582 26.44v118.895M64.963 175.69h48.3M3.87 175.69h37.6"/><path stroke-width="4" d="M94.17 207.44v123.5"/><path stroke-width="3" d="M64.678 251.19h28.584M3.762 251.19h37.703M304.512 250.617v8.574M304.512 219.94v8.253"/></g><g stroke="#939598"><path fill="#FFF" d="M28.29 18.733h69.562v3.674H28.29z"/><path fill="none" d="M97.852 20.55H27.54"/><path fill="none" stroke-width="2" d="M75.178 22.565V19.07M51.79 22.69v-3.602"/><g><path fill="#FFF" d="M251.79 18.894h69.56v3.674h-69.56z"/><path fill="none" d="M321.352 20.712H251.04"/><path fill="none" stroke-width="2" d="M298.678 22.726V19.23M275.29 22.85v-3.6"/></g></g><g><g fill="#939598"><path d="M149.362 6.02c-.735 0-1.205-.364-1.513-.87l.398-.342c.3.455.61.7 1.12.7.554 0 .96-.4.96-1.177V1.048h.56v3.277c0 1.128-.65 1.696-1.526 1.696zM154.676 2.328h.532v3.62h-.532v-.63c-.245.393-.617.708-1.24.708-.875 0-1.387-.59-1.387-1.45V2.328h.538v2.115c0 .673.364 1.093 1 1.093.618 0 1.087-.455 1.087-1.135V2.33zM156.467 5.95V.836h.54V5.95h-.54zM158.272 1.537V.94h.617v.597h-.618zm.036 4.412V2.327h.54v3.62h-.54zM161.696 5.564c.497 0 .848-.203 1.142-.512l.336.3c-.364.407-.805.68-1.492.68-.995 0-1.807-.763-1.807-1.89 0-1.05.735-1.892 1.737-1.892 1.07 0 1.688.854 1.688 1.92 0 .05 0 .104-.007.167h-2.872c.08.786.64 1.227 1.276 1.227zm1.058-1.625c-.056-.66-.434-1.234-1.156-1.234-.63 0-1.106.525-1.177 1.233h2.334zM164.972 4.92c0 .44.245.603.61.603.18 0 .335-.035.524-.127v.463c-.19.097-.392.153-.65.153-.583 0-1.023-.288-1.023-1.023V2.805h-.504v-.477h.503V1.235h.54v1.093h1.148v.477h-1.148V4.92zM172.946 2.272c0 .645-.392.974-.777 1.142.58.175 1.05.51 1.05 1.19 0 .848-.708 1.345-1.78 1.345h-2.177V1.046h2.087c.966 0 1.596.475 1.596 1.225zm-.56.078c0-.49-.386-.806-1.085-.806h-1.49v1.688h1.448c.666 0 1.128-.3 1.128-.882zm.273 2.22c0-.54-.45-.85-1.304-.85h-1.548v1.73h1.646c.743.002 1.205-.327 1.205-.88zM174.436 3.02l-.162-.44c.4-.182.792-.3 1.317-.3.988 0 1.54.503 1.54 1.456V5.95h-.517v-.547c-.252.33-.672.623-1.31.623-.673 0-1.353-.378-1.353-1.135 0-.77.63-1.176 1.55-1.176.46 0 .79.063 1.112.154v-.125c0-.65-.4-.987-1.078-.987-.427 0-.763.11-1.098.265zm.062 1.85c0 .463.42.73.91.73.666 0 1.212-.407 1.212-.98v-.35a3.78 3.78 0 0 0-1.064-.155c-.68 0-1.058.293-1.058.756zM178.327 5.95V.836h.54V5.95h-.54zM181.75 6.033c-1.057 0-1.855-.86-1.855-1.884 0-1.03.8-1.9 1.856-1.9.688 0 1.114.288 1.45.646l-.356.378c-.287-.3-.61-.546-1.1-.546-.736 0-1.296.623-1.296 1.407 0 .792.574 1.415 1.33 1.415.463 0 .82-.23 1.106-.54l.344.323c-.364.406-.798.7-1.477.7zM185.664 6.033c-1.086 0-1.877-.854-1.877-1.884s.8-1.9 1.89-1.9c1.087 0 1.886.855 1.886 1.885s-.806 1.898-1.9 1.898zm0-3.305c-.784 0-1.323.623-1.323 1.407 0 .785.575 1.415 1.338 1.415.785 0 1.332-.623 1.332-1.4 0-.793-.582-1.422-1.346-1.422zM189.072 5.95h-.54V2.327h.54v.63c.238-.392.617-.707 1.24-.707.875 0 1.387.59 1.387 1.45v2.25h-.54V3.833c0-.672-.364-1.093-1.002-1.093-.623 0-1.086.456-1.086 1.136V5.95zM194.506 6.068c-.308.75-.658 1.022-1.204 1.022a1.65 1.65 0 0 1-.77-.182l.18-.428c.177.09.338.133.57.133.32 0 .524-.168.74-.68l-1.645-3.606h.596l1.316 3.02 1.162-3.02h.574l-1.52 3.74z"/></g><g fill="#939598"><path d="M320.332 244.07v-.454l4.098-1.345-4.083-1.4v-.58l4.938 1.75v.47l-3.98 1.345 3.98 1.352v.462l-4.938 1.75v-.603l4.083-1.4-4.098-1.346zM319.66 237.086l6.485 3.25v.497l-6.485-3.25v-.497zM325.25 234.734v1.702h-4.903v-1.702c0-1.54 1.058-2.605 2.444-2.605s2.46 1.063 2.46 2.604zm-4.393 0v1.148h3.88v-1.148c0-1.24-.84-2.03-1.933-2.03s-1.947.79-1.947 2.03z"/></g><path fill="#939598" d="M279.793 292.284c0 .828-.504 1.252-1 1.468.748.225 1.35.657 1.35 1.53 0 1.09-.908 1.73-2.285 1.73h-2.8v-6.303h2.683c1.242 0 2.053.61 2.053 1.574zm-.72.1c0-.63-.496-1.036-1.396-1.036h-1.918v2.17h1.862c.857 0 1.45-.387 1.45-1.134zm.35 2.853c0-.693-.575-1.09-1.674-1.09h-1.99v2.224h2.115c.955 0 1.55-.422 1.55-1.133zM281.71 293.248l-.208-.567c.513-.233 1.017-.387 1.69-.387 1.27 0 1.98.648 1.98 1.873v2.845h-.665v-.7c-.324.422-.863.8-1.684.8-.863 0-1.736-.485-1.736-1.458 0-.99.81-1.513 1.988-1.513.595 0 1.018.08 1.432.197v-.162c0-.837-.513-1.27-1.387-1.27-.548 0-.98.145-1.41.343zm.08 2.376c0 .595.54.937 1.17.937.854 0 1.558-.52 1.558-1.26v-.45a4.825 4.825 0 0 0-1.37-.197c-.873 0-1.36.377-1.36.97z"/><g fill="#939598"><path d="M287.45 295.688c0 .567.315.774.784.774.234 0 .432-.045.675-.162v.594a1.743 1.743 0 0 1-.838.198c-.748 0-1.314-.37-1.314-1.314v-2.81h-.648v-.61h.648v-1.405h.693v1.404h1.478v.612h-1.477v2.718zM290.844 297.01h-.693v-6.57h.694v2.728c.306-.505.792-.91 1.594-.91 1.125 0 1.78.757 1.78 1.864v2.89h-.69v-2.72c0-.863-.47-1.403-1.29-1.403-.8 0-1.394.584-1.394 1.457v2.664z"/></g><g fill="#939598"><path d="M39.084 216.533c-1.415 0-2.458-1.113-2.458-2.528 0-1.4 1.037-2.542 2.48-2.542.89 0 1.42.314 1.91.777l-.377.406c-.414-.393-.876-.673-1.542-.673-1.086 0-1.898.876-1.898 2.018s.82 2.032 1.898 2.032c.672 0 1.113-.26 1.583-.708l.365.357c-.51.52-1.07.863-1.96.863zM41.967 216.45v-5.113h.54v5.112h-.54zM45.412 216.533c-1.086 0-1.877-.854-1.877-1.884s.798-1.9 1.89-1.9c1.087 0 1.885.855 1.885 1.885s-.806 1.898-1.898 1.898zm0-3.305c-.785 0-1.324.623-1.324 1.407 0 .785.574 1.415 1.337 1.415.785 0 1.33-.623 1.33-1.4 0-.793-.58-1.422-1.343-1.422zM49.478 216.52a2.494 2.494 0 0 1-1.5-.532l.274-.386c.392.294.827.463 1.254.463.434 0 .75-.225.75-.575v-.014c0-.364-.427-.504-.904-.638-.567-.16-1.198-.356-1.198-1.022v-.014c0-.623.52-1.036 1.233-1.036.44 0 .932.153 1.303.398l-.245.406c-.336-.217-.722-.35-1.072-.35-.427 0-.7.224-.7.525v.014c0 .342.448.476.932.622.56.168 1.163.386 1.163 1.037v.013c0 .687-.568 1.087-1.29 1.087zM53.363 216.064c.497 0 .848-.203 1.142-.512l.336.3c-.363.407-.804.68-1.49.68-.996 0-1.808-.763-1.808-1.89 0-1.05.735-1.892 1.737-1.892 1.07 0 1.687.854 1.687 1.92 0 .05 0 .104-.007.167h-2.872c.078.786.638 1.227 1.275 1.227zm1.058-1.625c-.055-.66-.433-1.234-1.155-1.234-.63 0-1.106.525-1.177 1.233h2.333zM56.64 215.42c0 .44.244.603.608.603.182 0 .336-.035.525-.127v.463c-.19.097-.392.153-.65.153-.582 0-1.023-.288-1.023-1.023v-2.185h-.504v-.477h.504v-1.093h.54v1.093h1.148v.477h-1.15v2.115z"/></g><g fill="#939598"><path d="M205.146 314.636h-2.99v1.674h2.675v.505h-2.675v1.716h3.026v.505h-3.578v-4.902h3.544v.503zM206.74 319.034h-.54v-3.62h.54v.63c.238-.393.615-.708 1.24-.708.875 0 1.386.59 1.386 1.45v2.248h-.54v-2.115c0-.673-.363-1.094-1-1.094-.624 0-1.086.455-1.086 1.135v2.074zM211.24 318.005c0 .44.246.603.61.603.182 0 .336-.035.524-.127v.464a1.352 1.352 0 0 1-.65.154c-.582 0-1.023-.288-1.023-1.023v-2.185h-.503v-.477h.504v-1.093h.54v1.093h1.15v.477h-1.15v2.115zM213.88 319.034h-.54v-3.62h.54v.944c.267-.602.792-1.036 1.478-1.008v.58h-.042c-.79 0-1.436.568-1.436 1.66v1.444zM217.94 319.153c-.308.75-.658 1.022-1.204 1.022a1.65 1.65 0 0 1-.77-.182l.182-.428c.175.09.337.133.567.133.322 0 .525-.168.742-.68l-1.646-3.606h.596l1.317 3.02 1.163-3.02h.574l-1.52 3.74z"/></g><g fill="#939598"><path d="M298.75 185.532c-1.414 0-2.457-1.113-2.457-2.528 0-1.4 1.036-2.542 2.48-2.542.89 0 1.42.314 1.91.777l-.377.405c-.413-.393-.876-.673-1.54-.673-1.086 0-1.898.876-1.898 2.018s.82 2.03 1.898 2.03c.672 0 1.113-.26 1.582-.707l.364.357c-.51.52-1.07.862-1.96.862zM301.634 185.448v-5.112h.54v5.112h-.54zM305.078 185.532c-1.086 0-1.877-.854-1.877-1.884s.8-1.898 1.892-1.898c1.086 0 1.885.854 1.885 1.884 0 1.03-.806 1.898-1.9 1.898zm0-3.305c-.784 0-1.323.623-1.323 1.407 0 .785.574 1.415 1.337 1.415.785 0 1.332-.624 1.332-1.4 0-.794-.582-1.423-1.346-1.423zM309.145 185.52a2.49 2.49 0 0 1-1.498-.533l.273-.386c.392.295.826.464 1.254.464.434 0 .75-.225.75-.575v-.015c0-.364-.428-.504-.904-.638-.568-.16-1.198-.356-1.198-1.022v-.014c0-.622.52-1.035 1.233-1.035.44 0 .932.153 1.303.398l-.246.406c-.336-.218-.72-.35-1.07-.35-.428 0-.7.223-.7.524v.014c0 .343.447.477.93.623.562.17 1.163.387 1.163 1.038v.014c0 .687-.568 1.087-1.29 1.087zM313.03 185.063c.497 0 .848-.203 1.142-.512l.336.302c-.363.406-.805.68-1.492.68-.994 0-1.807-.764-1.807-1.89 0-1.052.735-1.893 1.736-1.893 1.07 0 1.688.853 1.688 1.918 0 .05 0 .105-.008.168h-2.87c.076.786.637 1.227 1.274 1.227zm1.058-1.625c-.057-.658-.434-1.233-1.156-1.233-.63 0-1.105.525-1.176 1.233h2.332zM316.306 184.42c0 .44.245.602.61.602.182 0 .336-.035.524-.127v.463a1.353 1.353 0 0 1-.65.154c-.582 0-1.023-.288-1.023-1.023v-2.186h-.505v-.477h.505v-1.093h.54v1.093h1.148v.477h-1.15v2.115z"/></g><g fill="#939598"><path d="M241.978 295.34c0 1.416-1.113 2.46-2.528 2.46-1.4 0-2.542-1.037-2.542-2.48 0-.89.314-1.422.777-1.912l.406.378c-.392.413-.672.876-.672 1.54 0 1.086.876 1.898 2.018 1.898s2.03-.82 2.03-1.898c0-.672-.26-1.113-.707-1.582l.356-.364c.52.51.862 1.07.862 1.96zM241.894 292.458h-5.112v-.54h5.112v.54zM241.978 289.014c0 1.086-.854 1.877-1.884 1.877s-1.898-.798-1.898-1.89c0-1.086.854-1.885 1.884-1.885 1.03 0 1.898.806 1.898 1.9zm-3.306 0c0 .784.623 1.323 1.407 1.323s1.414-.574 1.414-1.337c0-.785-.623-1.332-1.4-1.332-.792 0-1.422.582-1.422 1.346zM241.964 284.947a2.49 2.49 0 0 1-.532 1.498l-.386-.273c.294-.392.463-.826.463-1.254 0-.434-.226-.75-.576-.75h-.014c-.364 0-.504.428-.638.904-.16.568-.356 1.198-1.022 1.198h-.014c-.623 0-1.036-.52-1.036-1.233 0-.44.153-.932.398-1.303l.406.246c-.217.336-.35.72-.35 1.07 0 .428.224.7.525.7h.013c.343 0 .477-.447.623-.93.168-.562.386-1.163 1.037-1.163h.014c.687 0 1.087.568 1.087 1.29zM241.51 281.062c0-.497-.204-.848-.513-1.142l.3-.336c.407.363.68.805.68 1.492 0 .994-.763 1.807-1.89 1.807-1.05 0-1.892-.736-1.892-1.737 0-1.07.854-1.688 1.92-1.688.05 0 .104 0 .167.008v2.87c.785-.076 1.227-.637 1.227-1.274zm-1.626-1.058c-.658.057-1.233.434-1.233 1.156 0 .63.526 1.105 1.234 1.176v-2.332zM240.864 277.786c.44 0 .603-.245.603-.61 0-.182-.035-.336-.127-.524h.463c.098.188.154.392.154.65 0 .582-.288 1.023-1.023 1.023h-2.185v.505h-.478v-.505h-1.093v-.54h1.092v-1.148h.477v1.15h2.114z"/></g><g fill="#939598"><path d="M108.978 199.007c0 1.415-1.113 2.458-2.528 2.458-1.4 0-2.542-1.036-2.542-2.48 0-.89.314-1.42.777-1.91l.406.377c-.392.413-.672.876-.672 1.54 0 1.086.876 1.898 2.018 1.898s2.03-.82 2.03-1.898c0-.672-.26-1.113-.707-1.582l.356-.364c.52.51.862 1.07.862 1.96zM108.894 196.124h-5.112v-.54h5.112v.54zM108.978 192.68c0 1.086-.854 1.877-1.884 1.877s-1.898-.8-1.898-1.89c0-1.087.854-1.886 1.884-1.886 1.03 0 1.898.807 1.898 1.9zm-3.306 0c0 .784.623 1.323 1.407 1.323s1.414-.574 1.414-1.337c0-.785-.623-1.332-1.4-1.332-.792 0-1.422.582-1.422 1.346zM108.964 188.613a2.49 2.49 0 0 1-.532 1.498l-.386-.272c.294-.392.463-.826.463-1.254 0-.434-.226-.75-.576-.75h-.014c-.364 0-.504.428-.638.904-.16.568-.356 1.198-1.022 1.198h-.014c-.623 0-1.036-.52-1.036-1.233 0-.44.153-.932.398-1.303l.406.246c-.217.336-.35.72-.35 1.07 0 .428.224.7.525.7h.013c.343 0 .477-.447.623-.93.168-.562.386-1.163 1.037-1.163h.014c.687 0 1.087.568 1.087 1.29zM108.51 184.728c0-.497-.204-.848-.513-1.142l.3-.336c.407.363.68.805.68 1.492 0 .994-.763 1.807-1.89 1.807-1.05 0-1.892-.737-1.892-1.738 0-1.07.854-1.688 1.92-1.688.05 0 .104 0 .167.008v2.87c.785-.076 1.227-.637 1.227-1.274zm-1.626-1.058c-.658.057-1.233.434-1.233 1.156 0 .63.526 1.105 1.234 1.176v-2.332zM107.864 181.452c.44 0 .603-.245.603-.61 0-.182-.035-.336-.127-.524h.463c.098.188.154.392.154.65 0 .582-.288 1.023-1.023 1.023h-2.185v.506h-.478v-.505h-1.093v-.538h1.092v-1.15h.477v1.15h2.114z"/></g><path fill="#939598" d="M45.543 291.958c0 .828-.504 1.252-1 1.468.748.225 1.35.657 1.35 1.53 0 1.09-.908 1.73-2.286 1.73h-2.8v-6.303h2.683c1.243 0 2.053.612 2.053 1.575zm-.72.1c0-.63-.495-1.036-1.395-1.036H41.51v2.17h1.864c.855 0 1.45-.387 1.45-1.134zm.352 2.853c0-.692-.576-1.09-1.675-1.09h-1.99v2.225h2.116c.955 0 1.55-.423 1.55-1.134zM47.46 292.922l-.208-.567c.513-.234 1.017-.388 1.692-.388 1.27 0 1.98.648 1.98 1.873v2.845h-.666v-.702c-.324.423-.864.8-1.684.8-.864 0-1.737-.484-1.737-1.457 0-.99.81-1.513 1.99-1.513.593 0 1.017.08 1.43.198v-.16c0-.838-.512-1.27-1.386-1.27-.546 0-.978.144-1.41.342zm.08 2.376c0 .595.54.937 1.17.937.856 0 1.558-.522 1.558-1.26v-.45c-.342-.1-.8-.198-1.368-.198-.874 0-1.36.377-1.36.97z"/><g fill="#939598"><path d="M53.202 295.36c0 .568.315.775.783.775.234 0 .432-.045.675-.162v.594a1.743 1.743 0 0 1-.837.198c-.747 0-1.314-.37-1.314-1.314v-2.808h-.65v-.612h.648v-1.404h.693v1.404h1.478v.612H53.2v2.72zM56.594 296.685H55.9v-6.572h.694v2.73c.306-.506.792-.91 1.594-.91 1.125 0 1.782.756 1.782 1.863v2.89h-.693v-2.72c0-.863-.468-1.403-1.288-1.403-.802 0-1.397.585-1.397 1.458v2.665z"/></g><g fill="#939598"><path d="M154.155 256.362l-3.466 3.467-.393-.393 3.466-3.466.392.392zM152.436 261.676a2.488 2.488 0 0 1-.683-1.437l.465-.08c.07.485.257.91.56 1.214.307.307.688.37.937.123l.01-.01c.257-.258.054-.658-.188-1.09-.288-.514-.595-1.1-.124-1.57l.01-.01c.44-.44 1.1-.365 1.604.14.312.313.55.768.64 1.203l-.46.114c-.085-.392-.264-.758-.512-1.006-.302-.302-.653-.336-.867-.123l-.01.01c-.242.242-.02.654.218 1.1.277.514.55 1.094.09 1.555l-.01.01c-.487.486-1.17.367-1.68-.144zM154.138 263.278l3.615-3.614.38.382-3.614 3.614-.382-.382zM157.624 262.624l.198-.426c.41.154.772.348 1.144.72.698.697.733 1.444.06 2.118l-1.565 1.564-.366-.366.386-.386c-.41.055-.916-.035-1.366-.485-.476-.476-.69-1.224-.154-1.76.545-.544 1.278-.385 1.927.265.327.326.515.604.678.896l.09-.09c.46-.46.415-.98-.065-1.46-.303-.302-.62-.46-.966-.59zm-1.264 1.353c-.327.327-.217.812.13 1.16.47.47 1.143.567 1.55.16l.247-.246a3.778 3.778 0 0 0-.644-.86c-.48-.48-.955-.54-1.283-.213zM158.652 267.793l-.38-.382 2.56-2.56.38.382-.445.446c.446-.11.936-.064 1.377.376.62.62.564 1.396-.045 2.006l-1.59 1.59-.38-.382 1.495-1.496c.475-.475.515-1.03.064-1.48-.44-.44-1.09-.445-1.57.035l-1.468 1.466zM163.375 272.516l.515-.515c-.516.1-1.08.06-1.55-.41-.614-.614-.738-1.708.11-2.556.84-.842 1.946-.728 2.56-.113.476.476.525 1.04.436 1.525l1.544-1.544.38.382-3.614 3.615-.38-.38zm1.362-3.185c-.495-.493-1.268-.533-1.892.09-.61.61-.58 1.412-.094 1.897.477.476 1.323.53 1.922-.07.595-.594.54-1.44.065-1.916z"/></g><g fill="#939598"><path d="M134.173 295.26h-.89l-2.423-3.05-1.34 1.358v1.692h-.712v-6.302h.71v3.763l3.62-3.762h.918l-2.7 2.755 2.817 3.548zM135.18 289.59v-.766h.79v.765h-.79zm.044 5.67v-4.653h.693v4.654h-.693zM138.464 293.938c0 .567.315.774.783.774.234 0 .432-.045.675-.162v.594a1.743 1.743 0 0 1-.837.198c-.747 0-1.314-.37-1.314-1.314v-2.81h-.647v-.61h.648v-1.405h.694v1.404h1.477v.612h-1.476v2.718zM143.128 295.37c-1.36 0-2.386-1.108-2.386-2.423 0-1.323 1.026-2.44 2.386-2.44.882 0 1.43.37 1.863.83l-.458.484c-.37-.386-.783-.7-1.414-.7-.945 0-1.666.8-1.666 1.81 0 1.017.738 1.818 1.71 1.818.594 0 1.053-.298 1.422-.693l.44.414c-.465.52-1.023.9-1.896.9zM146.862 295.26h-.693v-6.57h.692v2.728c.306-.505.792-.91 1.594-.91 1.125 0 1.782.757 1.782 1.864v2.89h-.693v-2.72c0-.863-.468-1.403-1.288-1.403-.8 0-1.396.584-1.396 1.457v2.664zM153.765 294.766c.64 0 1.09-.26 1.468-.657l.432.386c-.468.522-1.036.874-1.918.874-1.278 0-2.322-.98-2.322-2.43 0-1.352.945-2.433 2.232-2.433 1.377 0 2.17 1.1 2.17 2.467 0 .063 0 .136-.01.217h-3.69c.1 1.008.82 1.576 1.638 1.576zm1.36-2.09c-.072-.845-.558-1.583-1.485-1.583-.81 0-1.422.675-1.512 1.584h2.997zM157.734 295.26h-.693v-4.653h.694v.81c.306-.504.792-.91 1.594-.91 1.125 0 1.782.758 1.782 1.865v2.89h-.693v-2.72c0-.863-.468-1.403-1.288-1.403-.802 0-1.397.584-1.397 1.457v2.664z"/></g><g fill="#939598"><path d="M103.51 295.95h-1.703v-4.903h1.702c1.54 0 2.604 1.058 2.604 2.444s-1.065 2.46-2.605 2.46zm0-4.392h-1.15v3.88h1.15c1.238 0 2.03-.84 2.03-1.933s-.792-1.947-2.03-1.947zM110 291.032h.454l1.345 4.098 1.4-4.083h.58l-1.75 4.938h-.47l-1.344-3.98-1.352 3.98h-.462l-1.75-4.938h.602l1.4 4.083 1.345-4.098z"/></g><g fill="#939598"><path d="M104.158 223.2l-1.422-1.906h-1.4v1.905h-.554v-4.903h2.108c1.078 0 1.77.58 1.77 1.464 0 .82-.56 1.296-1.33 1.437l1.506 2.003h-.678zm-1.31-4.392h-1.513v1.99h1.506c.736 0 1.262-.38 1.262-1.017 0-.608-.462-.972-1.254-.972zM107.28 222.814c.496 0 .847-.203 1.14-.512l.337.3c-.364.407-.805.68-1.492.68-.995 0-1.807-.763-1.807-1.89 0-1.05.735-1.892 1.737-1.892 1.07 0 1.688.854 1.688 1.92 0 .05 0 .104-.007.167h-2.872c.077.786.638 1.227 1.275 1.227zm1.056-1.625c-.056-.66-.434-1.234-1.156-1.234-.63 0-1.106.525-1.177 1.233h2.333zM111.71 219.592v.463h-1.142v3.145h-.54v-3.145h-.497v-.47h.5v-.314c0-.79.398-1.21 1.09-1.21.253 0 .42.027.596.09v.47a1.77 1.77 0 0 0-.525-.092c-.42 0-.63.253-.63.77v.295h1.15z"/></g><g fill="#939598"><path d="M43 83.64c0 .827-.504 1.25-1 1.467.748.225 1.35.657 1.35 1.53 0 1.09-.908 1.73-2.286 1.73h-2.8v-6.303h2.683c1.242 0 2.053.612 2.053 1.575zm-.72.098c0-.63-.496-1.036-1.396-1.036h-1.918v2.17h1.864c.856 0 1.45-.387 1.45-1.134zm.35 2.854c0-.693-.575-1.09-1.674-1.09h-1.99v2.224h2.116c.955 0 1.55-.423 1.55-1.134zM46.698 87.87c.64 0 1.09-.26 1.468-.657l.432.387c-.468.522-1.036.874-1.918.874-1.278 0-2.322-.98-2.322-2.43 0-1.352.945-2.433 2.232-2.433 1.377 0 2.17 1.1 2.17 2.468 0 .063 0 .136-.01.217h-3.69c.1 1.008.82 1.575 1.638 1.575zm1.36-2.09c-.073-.845-.56-1.583-1.486-1.583-.81 0-1.422.675-1.512 1.584h2.997zM53.71 88.365v-.937c-.38.56-.928 1.035-1.783 1.035-1.117 0-2.224-.882-2.224-2.42 0-1.532 1.107-2.433 2.224-2.433.864 0 1.422.47 1.782.99v-2.81h.692v6.573h-.693zm-1.657-4.132c-.9 0-1.64.666-1.64 1.8 0 1.107.757 1.81 1.64 1.81.864 0 1.684-.72 1.684-1.81 0-1.08-.82-1.8-1.684-1.8zM56.642 88.365h-.693V83.71h.692v1.216c.342-.773 1.018-1.332 1.9-1.296v.747h-.054c-1.017 0-1.846.73-1.846 2.134v1.855zM61.52 88.474c-1.395 0-2.412-1.1-2.412-2.422s1.026-2.44 2.43-2.44c1.397 0 2.422 1.1 2.422 2.422 0 1.323-1.035 2.44-2.44 2.44zm0-4.25c-1.007 0-1.7.802-1.7 1.81 0 1.01.737 1.82 1.72 1.82 1.007 0 1.71-.803 1.71-1.802 0-1.018-.748-1.828-1.73-1.828zM67.335 88.474c-1.396 0-2.413-1.1-2.413-2.422s1.026-2.44 2.43-2.44c1.397 0 2.422 1.1 2.422 2.422 0 1.323-1.035 2.44-2.44 2.44zm0-4.25c-1.008 0-1.702.802-1.702 1.81 0 1.01.738 1.82 1.72 1.82 1.008 0 1.71-.803 1.71-1.802 0-1.018-.747-1.828-1.728-1.828zM76.354 83.61c1.07 0 1.73.722 1.73 1.874v2.88h-.694v-2.718c0-.9-.45-1.404-1.207-1.404-.702 0-1.287.52-1.287 1.44v2.683h-.685V85.63c0-.875-.458-1.388-1.196-1.388s-1.296.612-1.296 1.467v2.655h-.693V83.71h.693v.784c.306-.46.72-.883 1.503-.883.757 0 1.244.406 1.496.93.332-.514.827-.93 1.638-.93z"/></g><g fill="#939598"><path d="M35.416 93.02h.522v6.346h-.702v-5.608l-1.188.37-.17-.577 1.538-.53zM37.917 94.692l-.522-.378c.567-.846 1.16-1.34 2.27-1.34 1.142 0 1.953.755 1.953 1.79 0 .928-.486 1.495-1.594 2.458l-1.683 1.494h3.34v.648h-4.4v-.55l2.286-2.016c.963-.864 1.314-1.35 1.314-1.98 0-.738-.585-1.207-1.27-1.207-.72.002-1.19.38-1.693 1.082zM43.092 93.063h.846v.045l-.73 2.403h-.386l.27-2.447zM47.656 99.474c-1.63 0-2.656-1.477-2.656-3.25s1.044-3.27 2.674-3.27c1.62 0 2.647 1.478 2.647 3.25s-1.044 3.27-2.664 3.27zm0-5.87c-1.18 0-1.917 1.206-1.917 2.602s.755 2.62 1.935 2.62 1.91-1.216 1.91-2.602c-.002-1.387-.75-2.62-1.93-2.62z"/></g><path fill="#939598" d="M51.732 93.063h.837v.045l-.73 2.403h-.378l.27-2.447zm1.765 0h.83v.045l-.73 2.403h-.378l.277-2.447z"/><g fill="#939598"><path d="M61.984 99.365h-.8l-1.44-1.9-1.45 1.9h-.774l1.828-2.368-1.755-2.286h.792l1.377 1.802 1.377-1.8h.773l-1.765 2.268 1.836 2.385zM66.825 93.02h.522v6.346h-.702v-5.608l-1.188.37-.17-.577 1.538-.53zM68.868 93.063h4.276v.53l-2.863 5.772h-.79l2.844-5.653h-3.466v-.65zM74.475 93.063h.846v.045l-.728 2.403h-.387l.27-2.447zM78.66 99.455c-1.34 0-2.368-.73-2.368-1.79 0-.758.54-1.29 1.296-1.56-.585-.27-1.08-.72-1.08-1.458 0-.98 1-1.674 2.15-1.674s2.152.693 2.152 1.674c0 .738-.495 1.188-1.08 1.46.747.278 1.296.79 1.296 1.547.002 1.08-1.025 1.8-2.366 1.8zm0-3.016c-.918 0-1.647.494-1.647 1.205 0 .648.612 1.188 1.647 1.188s1.647-.54 1.647-1.188c0-.71-.73-1.206-1.647-1.206zm0-2.845c-.82 0-1.44.46-1.44 1.098 0 .693.64 1.162 1.44 1.162s1.44-.47 1.44-1.162c0-.63-.62-1.098-1.44-1.098zM82.35 93.063h.837v.045l-.73 2.403h-.377l.27-2.447zm1.764 0h.83v.045l-.73 2.403h-.378l.278-2.447z"/></g><g fill="#939598"><path d="M131.162 131.062h.71v5.645h3.548v.657h-4.258v-6.302zM136.634 131.692v-.765h.792v.765h-.792zm.045 5.672v-4.654h.692v4.654h-.693zM142.43 132.71h.748l-2.025 4.69h-.612l-2.016-4.69h.766l1.566 3.862 1.575-3.862zM144.283 131.692v-.765h.792v.765h-.792zm.046 5.672v-4.654h.692v4.654h-.693zM147.325 137.364h-.693v-4.654h.693v.81c.306-.504.792-.91 1.594-.91 1.124 0 1.78.758 1.78 1.865v2.89h-.692v-2.72c0-.863-.468-1.403-1.288-1.403-.8 0-1.396.585-1.396 1.458v2.664zM154.238 138.822a3.657 3.657 0 0 1-2.116-.647l.315-.54c.53.387 1.125.594 1.792.594 1.025 0 1.692-.568 1.692-1.657v-.55c-.405.54-.973.98-1.828.98-1.116 0-2.188-.827-2.188-2.187 0-1.368 1.08-2.206 2.188-2.206.873 0 1.44.433 1.818.937v-.837h.693v3.844c0 1.504-.936 2.268-2.367 2.268zm-.01-5.6c-.88 0-1.61.605-1.61 1.577 0 .953.747 1.592 1.61 1.592.883 0 1.712-.63 1.712-1.584 0-.964-.83-1.585-1.71-1.585zM162.005 130.18l-4.177 8.337h-.64l4.178-8.337h.64zM165.03 137.364h-2.19v-6.302h2.19c1.98 0 3.348 1.36 3.348 3.142 0 1.783-1.37 3.16-3.35 3.16zm0-5.644h-1.478v4.987h1.477c1.592 0 2.61-1.08 2.61-2.484s-1.018-2.503-2.61-2.503zM169.78 131.692v-.765h.792v.765h-.792zm.045 5.672v-4.654h.692v4.654h-.692zM172.822 137.364h-.693v-4.654h.692v.81c.306-.504.792-.91 1.594-.91 1.125 0 1.78.758 1.78 1.865v2.89h-.69v-2.72c0-.863-.47-1.403-1.29-1.403-.8 0-1.394.585-1.394 1.458v2.664zM177.69 131.692v-.765h.792v.765h-.792zm.046 5.672v-4.654h.692v4.654h-.692zM180.732 137.364h-.692v-4.654h.692v.81c.307-.504.793-.91 1.594-.91 1.125 0 1.783.758 1.783 1.865v2.89h-.694v-2.72c0-.863-.47-1.403-1.287-1.403-.803 0-1.397.585-1.397 1.458v2.664zM187.646 138.822a3.657 3.657 0 0 1-2.116-.647l.315-.54c.53.387 1.126.594 1.792.594 1.025 0 1.692-.568 1.692-1.657v-.55c-.406.54-.974.98-1.828.98-1.117 0-2.188-.827-2.188-2.187 0-1.368 1.08-2.206 2.188-2.206.873 0 1.44.433 1.818.937v-.837h.693v3.844c0 1.504-.937 2.268-2.367 2.268zm-.01-5.6c-.882 0-1.61.605-1.61 1.577 0 .953.746 1.592 1.61 1.592.883 0 1.71-.63 1.71-1.584 0-.964-.827-1.585-1.71-1.585zM198.716 137.364l-1.827-2.45h-1.802v2.45h-.71v-6.302h2.708c1.387 0 2.278.747 2.278 1.882 0 1.053-.72 1.665-1.71 1.845l1.936 2.574h-.874zm-1.684-5.644h-1.944v2.557h1.936c.945 0 1.62-.486 1.62-1.306 0-.782-.594-1.25-1.612-1.25zM202.8 137.473c-1.394 0-2.41-1.1-2.41-2.422s1.025-2.44 2.43-2.44c1.396 0 2.42 1.1 2.42 2.423s-1.035 2.44-2.44 2.44zm0-4.25c-1.007 0-1.7.802-1.7 1.81 0 1.01.738 1.82 1.72 1.82 1.01 0 1.71-.803 1.71-1.802 0-1.017-.747-1.827-1.73-1.827zM208.615 137.473c-1.396 0-2.412-1.1-2.412-2.422s1.025-2.44 2.43-2.44c1.396 0 2.422 1.1 2.422 2.423a2.42 2.42 0 0 1-2.44 2.44zm0-4.25c-1.008 0-1.7.802-1.7 1.81 0 1.01.737 1.82 1.718 1.82 1.01 0 1.71-.803 1.71-1.802 0-1.017-.746-1.827-1.728-1.827zM217.635 132.61c1.07 0 1.73.72 1.73 1.873v2.88h-.694v-2.718c0-.9-.45-1.404-1.206-1.404-.702 0-1.287.522-1.287 1.44v2.684h-.685v-2.736c0-.874-.46-1.387-1.197-1.387s-1.296.613-1.296 1.468v2.656h-.694v-4.654H213v.783c.305-.46.72-.883 1.502-.883.757 0 1.243.405 1.495.928.33-.513.827-.928 1.638-.928z"/></g><g fill="#939598"><path d="M149.657 142.018h.522v6.347h-.703v-5.608l-1.188.37-.172-.577 1.54-.532zM152.16 143.69l-.523-.377c.567-.846 1.16-1.34 2.27-1.34 1.142 0 1.953.755 1.953 1.79 0 .928-.486 1.495-1.594 2.458l-1.683 1.495h3.34v.648h-4.402v-.55l2.288-2.016c.963-.864 1.314-1.35 1.314-1.98 0-.738-.585-1.207-1.27-1.207-.72 0-1.19.38-1.693 1.08zM157.334 142.062h.846v.045l-.73 2.403h-.386l.27-2.448zM160.475 142.018h.522v6.347h-.702v-5.608l-1.188.37-.17-.577 1.538-.532zM163.697 142.018h.522v6.347h-.703v-5.608l-1.188.37-.172-.577 1.54-.532z"/></g><path fill="#939598" d="M165.982 142.062h.837v.045l-.73 2.403h-.378l.27-2.448zm1.764 0h.83v.045l-.73 2.403h-.378l.278-2.448z"/><g fill="#939598"><path d="M176.152 148.364h-.8l-1.44-1.9-1.45 1.9h-.774l1.828-2.368-1.756-2.286h.792l1.378 1.8 1.377-1.8h.774l-1.764 2.27 1.836 2.384zM180.273 143.69l-.52-.377c.565-.846 1.16-1.34 2.268-1.34 1.145 0 1.955.755 1.955 1.79 0 .928-.486 1.495-1.594 2.458l-1.683 1.495h3.34v.648h-4.402v-.55l2.287-2.016c.963-.864 1.314-1.35 1.314-1.98 0-.738-.586-1.207-1.27-1.207-.72 0-1.188.38-1.693 1.08zM187.807 148.473c-1.63 0-2.655-1.477-2.655-3.25s1.044-3.27 2.674-3.27c1.62 0 2.647 1.478 2.647 3.25s-1.045 3.27-2.666 3.27zm0-5.87c-1.18 0-1.917 1.206-1.917 2.602s.757 2.62 1.936 2.62 1.91-1.216 1.91-2.602c-.002-1.387-.75-2.62-1.93-2.62zM191.884 142.062h.847v.045l-.73 2.403h-.386l.27-2.448zM194.305 143.69l-.52-.377c.565-.846 1.16-1.34 2.267-1.34 1.144 0 1.954.755 1.954 1.79 0 .928-.486 1.495-1.594 2.458l-1.683 1.495h3.34v.648h-4.403v-.55l2.286-2.016c.964-.864 1.314-1.35 1.314-1.98 0-.738-.585-1.207-1.27-1.207-.72 0-1.188.38-1.692 1.08zM199.48 142.062h.836v.045l-.73 2.403h-.378l.272-2.448zm1.764 0h.828v.045l-.73 2.403h-.378l.28-2.448z"/></g><g fill="#939598"><path d="M269.338 83.64c0 .827-.504 1.25-1 1.467.748.225 1.35.657 1.35 1.53 0 1.09-.908 1.73-2.285 1.73h-2.8v-6.303h2.683c1.24 0 2.052.612 2.052 1.575zm-.72.098c0-.63-.496-1.036-1.396-1.036h-1.918v2.17h1.863c.856 0 1.45-.387 1.45-1.134zm.35 2.854c0-.693-.575-1.09-1.674-1.09h-1.99v2.224h2.116c.955 0 1.55-.423 1.55-1.134zM273.035 87.87c.64 0 1.09-.26 1.47-.657l.43.387c-.468.522-1.034.874-1.917.874-1.278 0-2.322-.98-2.322-2.43 0-1.352.945-2.433 2.232-2.433 1.377 0 2.17 1.1 2.17 2.468 0 .063 0 .136-.01.217h-3.69c.098 1.008.82 1.575 1.637 1.575zm1.36-2.09c-.07-.845-.558-1.583-1.484-1.583-.81 0-1.422.675-1.512 1.584h2.997zM280.047 88.365v-.937c-.378.56-.928 1.035-1.782 1.035-1.116 0-2.224-.882-2.224-2.42 0-1.532 1.108-2.433 2.225-2.433.864 0 1.423.47 1.782.99v-2.81h.693v6.573h-.693zm-1.656-4.132c-.9 0-1.638.666-1.638 1.8 0 1.107.756 1.81 1.64 1.81.863 0 1.683-.72 1.683-1.81 0-1.08-.82-1.8-1.684-1.8zM282.98 88.365h-.693V83.71h.693v1.216c.342-.773 1.018-1.332 1.9-1.296v.747h-.055c-1.018 0-1.846.73-1.846 2.134v1.855zM287.86 88.474c-1.397 0-2.414-1.1-2.414-2.422s1.026-2.44 2.43-2.44c1.397 0 2.423 1.1 2.423 2.422a2.42 2.42 0 0 1-2.44 2.44zm0-4.25c-1.01 0-1.703.802-1.703 1.81 0 1.01.738 1.82 1.72 1.82 1.008 0 1.71-.803 1.71-1.802 0-1.018-.747-1.828-1.728-1.828zM293.673 88.474c-1.396 0-2.413-1.1-2.413-2.422s1.026-2.44 2.432-2.44c1.395 0 2.42 1.1 2.42 2.422 0 1.323-1.035 2.44-2.44 2.44zm0-4.25c-1.01 0-1.702.802-1.702 1.81 0 1.01.74 1.82 1.722 1.82 1.008 0 1.71-.803 1.71-1.802 0-1.018-.748-1.828-1.73-1.828zM302.69 83.61c1.073 0 1.73.722 1.73 1.874v2.88h-.693v-2.718c0-.9-.45-1.404-1.206-1.404-.7 0-1.286.52-1.286 1.44v2.683h-.685V85.63c0-.875-.46-1.388-1.198-1.388s-1.297.612-1.297 1.467v2.655h-.692V83.71h.692v.784c.307-.46.72-.883 1.504-.883.755 0 1.24.406 1.493.93.334-.514.828-.93 1.638-.93z"/></g><g fill="#939598"><path d="M261.385 93.02h.522v6.346h-.702v-5.608l-1.188.37-.172-.577 1.54-.53zM266.03 99.474c-1.63 0-2.657-1.477-2.657-3.25s1.045-3.27 2.674-3.27c1.62 0 2.647 1.478 2.647 3.25s-1.044 3.27-2.665 3.27zm0-5.87c-1.18 0-1.92 1.206-1.92 2.602s.758 2.62 1.937 2.62c1.18 0 1.91-1.216 1.91-2.602 0-1.387-.748-2.62-1.928-2.62zM270.105 93.063h.847v.045l-.73 2.403h-.386l.27-2.447zM276.074 94.225c-.47-.396-.91-.62-1.486-.62-1.143 0-1.854 1.15-1.845 2.78.342-.504.873-.963 1.792-.963 1.18 0 2.178.757 2.178 1.944 0 1.225-.98 2.107-2.26 2.107-.693 0-1.26-.243-1.656-.64-.504-.504-.792-1.152-.792-2.448 0-1.927.972-3.43 2.62-3.43.756 0 1.314.27 1.863.72l-.414.55zm-1.63 1.81c-.945 0-1.575.674-1.575 1.386 0 .82.665 1.423 1.593 1.423.927 0 1.52-.64 1.52-1.45 0-.783-.63-1.36-1.54-1.36z"/></g><path fill="#939598" d="M278.133 93.063h.838v.045l-.728 2.403h-.378l.27-2.447zm1.764 0h.83v.045l-.73 2.403h-.378l.277-2.447z"/><g fill="#939598"><path d="M288.385 99.365h-.8l-1.44-1.9-1.45 1.9h-.774l1.83-2.368-1.757-2.286h.792l1.378 1.802 1.377-1.8h.774l-1.765 2.268 1.835 2.385zM293.227 93.02h.52v6.346h-.7v-5.608l-1.188.37-.172-.577 1.54-.53zM295.44 93.702v-.64h4.024v.523l-1.98 2.196c1.106.09 2.078.622 2.078 1.783 0 1.135-.936 1.91-2.105 1.91-1.054 0-1.837-.46-2.35-1.127l.513-.46c.485.596 1.07.938 1.846.938.765 0 1.377-.486 1.377-1.233 0-.79-.72-1.224-1.765-1.224h-.404l-.145-.423 1.99-2.242h-3.08zM301.03 93.063h.845v.045l-.73 2.403h-.387l.27-2.447zM305.034 99.474c-.82 0-1.413-.333-1.944-.774l.414-.55c.514.45.99.676 1.55.676 1.133 0 1.897-1.152 1.87-2.764-.342.55-.908 1.008-1.78 1.008-1.298 0-2.198-.82-2.198-1.962 0-1.207.928-2.152 2.27-2.152.72 0 1.25.243 1.656.648.494.495.783 1.18.783 2.45 0 2.006-1.063 3.42-2.62 3.42zm.154-5.888c-.945 0-1.513.692-1.513 1.485 0 .81.63 1.387 1.548 1.387.964 0 1.566-.702 1.566-1.43 0-.81-.657-1.44-1.602-1.44zM309.057 93.063h.838v.045l-.73 2.403h-.377l.27-2.447zm1.764 0h.83v.045l-.73 2.403h-.377l.278-2.447z"/></g><g fill="#939598"><path d="M100.453 242.45h-1.105v1.606h-.514v-4.55h1.703c1.027 0 1.703.546 1.703 1.45 0 .988-.82 1.495-1.787 1.495zm.046-2.47h-1.15v2.003h1.124c.754 0 1.248-.403 1.248-1.008 0-.656-.49-.994-1.223-.994zM103.222 241.34l-.15-.41c.372-.17.735-.28 1.223-.28.917 0 1.43.47 1.43 1.354v2.054h-.48v-.507c-.235.307-.625.58-1.216.58-.625 0-1.255-.352-1.255-1.054 0-.715.585-1.092 1.437-1.092.43 0 .734.06 1.033.143v-.117c0-.604-.37-.916-1-.916-.4 0-.71.102-1.023.246zm.058 1.716c0 .43.39.676.845.676.617 0 1.125-.377 1.125-.91v-.325a3.527 3.527 0 0 0-.988-.143c-.63 0-.982.273-.982.702zM107.29 244.057h-.5v-3.36h.5v.585c.222-.364.573-.656 1.15-.656.813 0 1.288.546 1.288 1.345v2.088h-.5v-1.963c0-.624-.338-1.015-.93-1.015-.578 0-1.007.423-1.007 1.054v1.923zM111.47 243.102c0 .41.228.56.566.56.17 0 .312-.033.487-.118v.43a1.246 1.246 0 0 1-.604.143c-.54 0-.95-.267-.95-.95v-2.027h-.468v-.44h.468v-1.016h.5v1.015h1.066v.44h-1.066v1.962zM113.92 244.057h-.5v-3.36h.5v.877c.248-.56.735-.962 1.373-.936v.54h-.04c-.733 0-1.332.525-1.332 1.54v1.34zM117.69 244.167c-.285.695-.61.95-1.117.95-.28 0-.488-.06-.715-.17l.17-.396c.16.085.31.124.525.124.3 0 .487-.155.69-.63l-1.528-3.348h.552l1.222 2.802 1.078-2.802h.533l-1.41 3.47z"/></g></g></svg>