<svg xmlns="http://www.w3.org/2000/svg" width="431.753" height="167.002" viewBox="0 0 431.753 167.002"><path fill="none" d="M30.48 2.287c-1.333.333-28.333 28-28.333 28V140.62l27.667 24.333h400.334V2.287H30.48z"/><g fill="#D1D3D4"><path d="M30.146 2.453L25.48 7.62h64.666v-5z"/><path stroke="#939598" stroke-miterlimit="10" d="M419.148 2.453h10.332V8.12h-10.332z"/><path d="M296.647 2.453h51.166v4.833h-51.166zM204.647 164.453v-6.167h40v-3.333h90.667v3h94.5v6z"/></g><path fill="#FFF" stroke="#939598" d="M79.105 140.328h-52.5l-2.375-2.375v-127L2.48 31.62l1 110 24.667 22H79.48z"/><g stroke="#939598"><path fill="#FFF" d="M109.29 142.086h20.187v18.543H109.29z"/><path fill="none" d="M109.257 157.68h20.25M109.29 158.556h20.186M125.507 155.45v-9.094l-2.437-2.216h-7.47l-2.468 2.216v9.095z"/></g><path fill="#FFF" stroke="#939598" d="M85.703 142.086h20.188v18.543H85.704z"/><path fill="none" stroke="#939598" d="M85.67 157.68h20.25M85.703 158.556h20.187M103.546 141.147h.875v.875h-.874z"/><g fill="none" stroke="#939598"><path d="M253.544 93.7l1.67.008.017 23.818-1.67-.007zM254.313 117.536c13.114-.445 23.383-11.225 22.937-24.338"/></g><g fill="none" stroke="#939598"><path d="M296.593 81.472l.01-1.586 22.627-.016-.008 1.588zM319.24 80.742c-.424-12.458-10.664-22.214-23.12-21.788"/></g><g fill="none" stroke="#939598"><path d="M176.078 164.733l1.67.013.015-23.818-1.714-.013zM176.78 140.896c13.115.445 23.384 11.29 22.937 24.402"/></g><g fill="none" stroke="#939598"><path d="M364.794 93.95l1.67.008.017 23.818-1.67-.007zM365.563 117.786c13.114-.445 23.383-11.225 22.937-24.338"/></g><g fill="none" stroke="#939598"><path d="M141.078 134.233l1.67.013.015-23.817-1.714-.015zM141.78 110.396c13.115.445 23.384 11.29 22.937 24.402"/></g><g fill="none" stroke="#939598"><path d="M86.78 134.476l1.504.01.014-21.437-1.542-.013zM87.414 113.02c11.803.4 21.044 10.16 20.642 21.962"/><g><path d="M129.26 134.476l-1.504.01-.014-21.437 1.542-.013zM128.626 113.02c-11.803.4-21.044 10.16-20.642 21.962"/></g></g><path fill="none" stroke="#939598" d="M137.48 149.453h31"/><path fill="#FFF" stroke="#939598" d="M273.48 155.203v-18.96h24.25v18.46"/><path fill="none" stroke="#939598" d="M417.98 95.203v52.5h-55.5v9"/><path fill="#FFF" stroke="#939598" d="M53.98 44.703h22.5v54.125h-22.5z"/><path fill="none" stroke="#939598" d="M347.98 8.587h72.832M295.855 8.578H223.37V3.953"/><path fill="none" stroke="#939598" stroke-dasharray="1.5,1.5,1.5,1.5,1.5,1.5" d="M135.98 151.72h32.61M123.48 150.703h11.75M99.23 150.703h15.75M79.98 150.703h13M362.73 149.87h57.38V94.702"/><path fill="#FFF" stroke="#939598" d="M6.736 95.458c0 .426.344.77.77.77h13.446c.426 0 .77-.346.77-.77V72.65a.77.77 0 0 0-.77-.77H7.507a.77.77 0 0 0-.77.77V95.46z"/><circle fill="#FFF" stroke="#939598" cx="14.559" cy="84.136" r=".871"/><path fill="#FFF" stroke="#939598" d="M7.272 80.33h1.82v7.61h-1.82z"/><path fill="#FFF" stroke="#939598" d="M9.044 83.747h3.586v.777H9.044z"/><circle fill="#FFF" stroke="#939598" cx="8.2" cy="84.136" r=".847"/><path fill="none" stroke="#939598" d="M9.72 84.604v9.59c0 .447.363.81.81.81h9.222a.81.81 0 0 0 .81-.81v-20.28a.81.81 0 0 0-.81-.81h-9.22a.81.81 0 0 0-.81.81v9.727"/><g stroke="#939598"><path fill="none" stroke-dasharray="1.5,1,1.5,1,1.5,1" d="M24.826 99.4H7.85v16.648h16.594"/><path fill="#FFF" d="M24.444 116.073h1.01V99.4h-.622"/></g><path fill="#FFF" stroke="#939598" d="M52.25 139.27h24.9v21.97h-24.9z"/><path fill="none" stroke="#939598" d="M52.19 140.808h24.962"/><path fill="#FFF" stroke="#939598" d="M73.056 138.187h2.018v1.07h-2.018z"/><g><path fill="#FFF" stroke="#939598" d="M49.224 139.834h1.834v21.416H35.39v-21.416h3.334"/><path fill="none" stroke="#939598" stroke-width=".7" d="M43.884 130.95l1.25.688-5.208 8.59-1.25-.685z"/><path fill="none" stroke="#939598" stroke-width=".8" d="M44.363 131.362a9.994 9.994 0 0 1 4.81 8.89"/></g><g><path fill="#FFF" stroke="#939598" d="M6.046 35.975h19.75v23.25H6.046z"/><circle fill="#FFF" stroke="#939598" cx="21.421" cy="52.915" r="2.824"/><circle fill="#FFF" stroke="#939598" stroke-width=".8" cx="21.42" cy="52.943" r="1.989"/><circle fill="#FFF" stroke="#939598" cx="13.171" cy="41.628" r="2.824"/><circle fill="#FFF" stroke="#939598" stroke-width=".8" cx="13.17" cy="41.6" r="1.989"/><circle fill="#FFF" stroke="#939598" cx="13.199" cy="52.953" r="3.219"/><circle fill="#FFF" stroke="#939598" stroke-width=".8" cx="13.199" cy="52.922" r="2.268"/><g><circle fill="#FFF" stroke="#939598" cx="21.638" cy="41.641" r="3.219"/><circle fill="#FFF" stroke="#939598" stroke-width=".8" cx="21.638" cy="41.608" r="2.268"/></g><path fill="none" stroke="#939598" d="M8.78 59.256v-23.28M7.687 59.225v-23.25"/></g><text transform="translate(115.31 153.01)" fill="#939598" font-family="'Gotham-Book'" font-size="7">W</text><text transform="translate(92.98 153.01)" fill="#939598" font-family="'Gotham-Book'" font-size="7">D</text><g fill="#FFF" stroke="#939598"><path stroke-miterlimit="10" d="M266.36 141.1c0-4.462-2.71-9.376-6.052-9.376s-6.04 4.914-6.04 9.375c0 4.462 2.698 6.784 6.04 6.784s6.053-2.322 6.053-6.785"/><path d="M266.36 141.1c0-4.462-2.71-9.376-6.052-9.376s-6.04 4.914-6.04 9.375c0 4.462 2.698 6.784 6.04 6.784s6.053-2.322 6.053-6.785z"/><path stroke-miterlimit="10" d="M256.685 146.42a.457.457 0 0 0-.455-.454h-2.107a.457.457 0 0 0-.455.455v.078c0 .25.205.455.455.455h2.107c.25 0 .455-.205.455-.455v-.077z"/><path d="M256.685 146.42a.457.457 0 0 0-.455-.454h-2.107a.457.457 0 0 0-.455.455v.078c0 .25.205.455.455.455h2.107c.25 0 .455-.205.455-.455v-.077z"/><path stroke-miterlimit="10" d="M253.347 146.965c-.758 0-1.375 2.058-1.375 2.816 0 .77.617 2.826 1.375 2.826h13.814c.76 0 1.376-2.058 1.376-2.825 0-.76-.615-2.813-1.375-2.813l-13.813-.002z"/><path d="M253.347 146.965c-.758 0-1.375 2.058-1.375 2.816 0 .77.617 2.826 1.375 2.826h13.814c.76 0 1.376-2.058 1.376-2.825 0-.76-.615-2.813-1.375-2.813l-13.813-.002z"/><path stroke-miterlimit="10" d="M264.757 140.912c0-3.28-1.992-6.894-4.45-6.894s-4.446 3.613-4.446 6.894 1.99 4.985 4.448 4.985 4.45-1.707 4.45-4.985"/><path d="M264.757 140.912c0-3.28-1.992-6.894-4.45-6.894s-4.446 3.613-4.446 6.894 1.99 4.985 4.448 4.985 4.45-1.707 4.45-4.985z"/></g><g><path fill="#FFF" stroke="#939598" d="M334.447 95.373h23.625v45.692h-23.625z"/><circle fill="#FFF" stroke="#939598" cx="346.373" cy="130.652" r=".97"/><path fill="#FFF" stroke="#939598" d="M346.332 97.98c-6.77 0-9.25 1.563-9.25 3.753v33.377c0 .535.146 1.64 1.562 1.64h15.392c1.416 0 1.562-1.104 1.562-1.64v-33.354l-.003-.02c-.002-2.19-2.537-3.755-9.265-3.755zM344.34 138.45a.984.984 0 0 0-.995-.988.992.992 0 0 0-.986.988 1 1 0 0 0 .985.994.988.988 0 0 0 .994-.994zM350.482 138.45a.984.984 0 0 0-.99-.988.988.988 0 1 0 0 1.976.985.985 0 0 0 .99-.988z"/><path fill="#FFF" stroke="#939598" d="M345.04 138.743c0 .812.548 1.47 1.36 1.47.81 0 1.254-.657 1.254-1.47l-.52-5.592c0-.548-1.482-.548-1.482 0l-.613 5.593z"/></g><path fill="none" stroke="#939598" stroke-dasharray="1.5,1.5,1.5,1.5,1.5,1.5" d="M13.73 105.203v-67.75l10.5-11M39.814 151.953H30.73l-18-16.75v-24M80.23 151.953H47.803"/><g><circle fill="none" stroke="#939598" cx="285.328" cy="143.333" r="1.018"/><path fill="none" stroke="#939598" d="M281.06 149.708h8.555v2.125h-8.554zM284.875 145.583h.905v4.03h-.905z"/><circle fill="none" stroke="#939598" cx="285.328" cy="150.75" r=".985"/><g fill="none" stroke="#939598"><path d="M276.798 138.283h17.076v13.875h-17.076z"/><path d="M278.192 139.678h14.254v9.98h-14.254z"/></g></g><g fill="none" stroke="#939598"><path stroke-width="5" d="M199.605 164.502h229.648V2.524H30.307L2.5 31.19v109.075l24.624 24.237h148.954"/><path stroke-width="3" d="M388.48 94.124h40M276.855 94.124h87.797M204.813 163.953v-6h40v-63.83h8.917M296.813 81.453V92.62M296.813 3.953v55.25M245.813 154.953h89.667M359.813 93.953v49h-24.666v15h92.677M25.48 7.953h65l.113-3M295.813 7.555h50.774V3.62M420.167 3.285v4.318h8.313M164.51 134.286h4.636v31M129.26 134.286h11.818M79.48 163.286v-29h7.25"/><path stroke-width="4" d="M136.146 134.62v30.333"/></g><g stroke="#939598"><path fill="#FFF" d="M224.19.6h69.56v3.674h-69.56z"/><path fill="none" d="M293.75 2.418h-70.31"/><path fill="none" stroke-width="2" d="M271.078 4.432V.938M247.69 4.557V.955"/><g><path fill="#FFF" d="M349.208.5h69.56v3.674h-69.56z"/><path fill="none" d="M418.77 2.318H348.46"/><path fill="none" stroke-width="2" d="M396.097 4.332V.838M372.708 4.457V.855"/></g></g><g><g fill="#939598"><path d="M12.144 110.964h-1.702v-4.902h1.702c1.54 0 2.605 1.058 2.605 2.444s-1.065 2.458-2.606 2.458zm0-4.392h-1.15v3.88h1.15c1.24 0 2.03-.84 2.03-1.933s-.79-1.948-2.03-1.948zM18.634 106.047h.455l1.344 4.098 1.4-4.083h.582L20.666 111h-.47l-1.345-3.98L17.5 111h-.463l-1.75-4.938h.602l1.4 4.083 1.344-4.098z"/></g><g fill="#939598"><path d="M62.126 149.462l-1.422-1.905h-1.4v1.905h-.554v-4.902h2.108c1.078 0 1.77.58 1.77 1.464 0 .82-.56 1.295-1.33 1.436l1.506 2.003h-.678zm-1.31-4.392h-1.513v1.99h1.506c.734 0 1.26-.38 1.26-1.017 0-.608-.462-.973-1.254-.973zM65.247 149.077c.497 0 .848-.203 1.142-.512l.335.3c-.364.407-.805.68-1.492.68-.995 0-1.807-.763-1.807-1.89 0-1.05.735-1.892 1.737-1.892 1.07 0 1.688.854 1.688 1.92 0 .05 0 .104-.006.167h-2.872c.077.786.638 1.227 1.275 1.227zm1.058-1.625c-.056-.658-.434-1.233-1.156-1.233-.63 0-1.107.524-1.178 1.232h2.333zM69.678 145.854v.463h-1.142v3.145h-.54v-3.145H67.5v-.47h.498v-.314c0-.792.4-1.212 1.092-1.212.252 0 .42.03.595.092v.47a1.77 1.77 0 0 0-.525-.092c-.42 0-.63.253-.63.77v.295h1.148z"/></g><path fill="#939598" d="M62.542 80.41h4.902v.554h-4.902v-.554zM67.515 77.87c0 .517-.203 1.09-.532 1.498l-.386-.273c.294-.392.463-.827.463-1.254 0-.433-.225-.748-.575-.748h-.014c-.363 0-.503.427-.637.903-.16.567-.356 1.198-1.022 1.198h-.013c-.623 0-1.036-.52-1.036-1.233 0-.44.154-.932.4-1.303l.405.245c-.217.336-.35.722-.35 1.072 0 .427.224.7.525.7h.014c.343 0 .477-.448.623-.932.168-.56.386-1.163 1.037-1.163h.014c.687 0 1.087.567 1.087 1.29z"/><g fill="#939598"><path d="M67.444 75.51h-5.112v-.538h5.112v.54zM64.517 73.51l-.44.16c-.183-.4-.302-.792-.302-1.317 0-.987.504-1.54 1.457-1.54h2.213v.517H66.9c.328.252.622.672.622 1.31 0 .672-.378 1.352-1.135 1.352-.77 0-1.177-.63-1.177-1.548 0-.462.063-.792.154-1.114h-.126c-.65 0-.987.4-.987 1.08 0 .426.112.763.267 1.1zm1.85-.064c.46 0 .727-.42.727-.91 0-.666-.406-1.212-.98-1.212h-.35a3.775 3.775 0 0 0-.154 1.064c0 .68.293 1.058.756 1.058z"/></g><path fill="#939598" d="M67.444 69.126v.54h-3.62v-.54h.63c-.393-.238-.708-.616-.708-1.24 0-.875.59-1.387 1.45-1.387h2.248v.54H65.33c-.673 0-1.094.363-1.094 1 0 .623.455 1.085 1.135 1.085h2.074zM67.444 62.524h-.73c.436.294.807.72.807 1.387 0 .87-.686 1.73-1.883 1.73-1.19 0-1.892-.86-1.892-1.73 0-.67.364-1.105.77-1.386h-2.184v-.54h5.113v.54zm-3.215 1.29c0 .7.518 1.274 1.4 1.274.86 0 1.407-.588 1.407-1.275 0-.672-.56-1.31-1.408-1.31-.84 0-1.4.638-1.4 1.31zM183.223 159.48h-2.99v1.673h2.674v.505h-2.675v1.716h3.026v.504h-3.58v-4.902h3.545v.503zM184.817 163.878h-.54v-3.62h.54v.63c.238-.393.616-.708 1.24-.708.875 0 1.387.59 1.387 1.45v2.248h-.54v-2.115c0-.672-.364-1.093-1-1.093-.624 0-1.086.455-1.086 1.135v2.073z"/><g fill="#939598"><path d="M189.27 162.85c0 .44.244.602.608.602.182 0 .336-.035.525-.127v.463c-.19.098-.392.154-.65.154-.583 0-1.023-.288-1.023-1.023v-2.186h-.504v-.477h.504v-1.093h.54v1.093h1.148v.477h-1.15v2.115zM191.908 163.878h-.54v-3.62h.54v.944c.266-.602.792-1.036 1.478-1.008v.58h-.042c-.79 0-1.436.568-1.436 1.66v1.444zM195.97 163.997c-.31.75-.66 1.022-1.206 1.022-.3 0-.525-.064-.77-.183l.18-.428c.176.09.337.132.568.132.322 0 .525-.168.742-.68l-1.646-3.606h.595l1.317 3.02 1.163-3.02h.574l-1.518 3.74z"/></g><g fill="#939598"><path d="M44.307 117.857h-.89l-2.423-3.052-1.34 1.36v1.69h-.712v-6.3h.71v3.762l3.62-3.763h.918l-2.7 2.755 2.817 3.547zM45.313 112.186v-.765h.792v.766h-.792zm.045 5.67v-4.653h.693v4.654h-.692zM48.6 116.534c0 .567.314.774.782.774.234 0 .432-.045.675-.162v.594a1.743 1.743 0 0 1-.837.198c-.747 0-1.314-.37-1.314-1.314v-2.81h-.648v-.61h.648v-1.405h.693v1.403h1.476v.612H48.6v2.72zM53.262 117.966c-1.36 0-2.386-1.107-2.386-2.422 0-1.323 1.026-2.44 2.386-2.44.882 0 1.43.37 1.863.83l-.46.484c-.368-.387-.782-.702-1.413-.702-.945 0-1.666.802-1.666 1.81 0 1.018.738 1.82 1.71 1.82.594 0 1.053-.3 1.422-.694l.44.414c-.465.52-1.023.9-1.896.9zM56.996 117.857h-.693v-6.572h.693v2.73c.306-.506.792-.91 1.594-.91 1.125 0 1.782.756 1.782 1.863v2.89h-.693v-2.72c0-.863-.47-1.403-1.29-1.403-.8 0-1.395.585-1.395 1.458v2.664zM63.9 117.362c.638 0 1.088-.26 1.467-.657l.432.387c-.47.522-1.037.874-1.92.874-1.277 0-2.32-.98-2.32-2.43 0-1.352.944-2.433 2.23-2.433 1.378 0 2.17 1.1 2.17 2.467 0 .063 0 .136-.008.217h-3.69c.098 1.008.82 1.575 1.637 1.575zm1.36-2.09c-.073-.845-.56-1.583-1.486-1.583-.81 0-1.422.674-1.512 1.583h2.997zM67.868 117.857h-.693v-4.654h.693v.81c.306-.504.792-.91 1.594-.91 1.125 0 1.782.758 1.782 1.865v2.89h-.693v-2.72c0-.863-.467-1.403-1.287-1.403-.8 0-1.396.585-1.396 1.458v2.664z"/></g><g fill="#939598"><path d="M144.97 145.878c-1.416 0-2.46-1.113-2.46-2.528 0-1.4 1.038-2.542 2.48-2.542.89 0 1.422.314 1.912.777l-.378.406c-.413-.392-.875-.672-1.54-.672-1.087 0-1.9.876-1.9 2.018s.82 2.03 1.9 2.03c.67 0 1.112-.26 1.582-.707l.364.356c-.51.52-1.07.862-1.96.862zM147.852 145.794v-5.112h.54v5.112h-.54zM151.297 145.878c-1.086 0-1.877-.854-1.877-1.884s.798-1.898 1.89-1.898c1.087 0 1.885.854 1.885 1.884 0 1.03-.806 1.898-1.898 1.898zm0-3.306c-.785 0-1.324.623-1.324 1.407s.574 1.414 1.337 1.414c.785 0 1.33-.623 1.33-1.4.002-.792-.58-1.422-1.343-1.422zM155.363 145.864a2.494 2.494 0 0 1-1.5-.532l.274-.386c.392.294.827.463 1.254.463.435 0 .75-.226.75-.576v-.014c0-.364-.426-.504-.903-.638-.567-.16-1.198-.356-1.198-1.022v-.014c0-.623.518-1.036 1.232-1.036.44 0 .932.153 1.303.398l-.245.406c-.336-.217-.722-.35-1.072-.35-.427 0-.7.224-.7.525v.013c0 .343.448.477.932.623.56.168 1.163.386 1.163 1.037v.014c0 .688-.568 1.087-1.29 1.087zM159.25 145.41c.496 0 .847-.204 1.14-.513l.337.3c-.364.407-.805.68-1.492.68-.995 0-1.807-.763-1.807-1.89 0-1.05.735-1.892 1.737-1.892 1.07 0 1.688.854 1.688 1.92 0 .05 0 .104-.007.167h-2.872c.077.786.637 1.227 1.275 1.227zm1.056-1.626c-.056-.658-.434-1.233-1.156-1.233-.63 0-1.106.526-1.177 1.234h2.333zM162.524 144.765c0 .44.245.603.61.603.18 0 .335-.035.524-.127v.464c-.19.098-.392.154-.65.154-.582 0-1.023-.288-1.023-1.023v-2.185h-.504v-.477h.505v-1.093h.54v1.093h1.148v.477h-1.15v2.115z"/></g><path fill="#939598" d="M94.193 135.07h.553v4.39h2.76v.513h-3.313v-4.903zM98.645 137.045l-.16-.44c.398-.183.79-.302 1.316-.302.988 0 1.542.504 1.542 1.457v2.213h-.518v-.546c-.252.33-.672.623-1.31.623-.672 0-1.352-.378-1.352-1.135 0-.77.63-1.177 1.548-1.177.462 0 .792.063 1.114.154v-.126c0-.65-.4-.987-1.08-.987-.427 0-.763.11-1.1.265zm.063 1.85c0 .462.42.728.91.728.666 0 1.212-.406 1.212-.98v-.35a3.775 3.775 0 0 0-1.064-.154c-.68-.002-1.058.292-1.058.755zM104.918 136.352h.532v3.62h-.532v-.63c-.245.393-.617.708-1.24.708-.875 0-1.387-.59-1.387-1.45v-2.248h.54v2.115c0 .673.364 1.093 1 1.093.618 0 1.087-.455 1.087-1.135v-2.073zM107.17 139.973h-.538v-3.62h.54v.63c.237-.393.615-.708 1.24-.708.874 0 1.386.59 1.386 1.45v2.248h-.54v-2.115c0-.672-.364-1.093-1-1.093-.624 0-1.086.455-1.086 1.135v2.073zM113.76 139.973v-.73c-.295.436-.722.807-1.388.807-.868 0-1.73-.687-1.73-1.884 0-1.19.862-1.892 1.73-1.892.672 0 1.106.364 1.387.77v-2.184h.54v5.112h-.54zm-1.29-3.215c-.7 0-1.274.52-1.274 1.4 0 .862.588 1.408 1.275 1.408.673 0 1.31-.56 1.31-1.408 0-.84-.637-1.4-1.31-1.4zM116.04 139.973h-.54v-3.62h.54v.944c.266-.602.792-1.036 1.478-1.008v.58h-.042c-.79 0-1.436.567-1.436 1.66v1.443zM120.234 140.092c-.308.75-.658 1.022-1.205 1.022-.302 0-.526-.063-.772-.182l.182-.428c.175.09.336.133.567.133.322 0 .525-.168.742-.68l-1.647-3.606h.595l1.317 3.02 1.163-3.02h.574l-1.518 3.742zM286.677 118.383c0 .828-.504 1.252-1 1.468.748.226 1.35.658 1.35 1.53 0 1.09-.908 1.73-2.285 1.73h-2.8v-6.302h2.683c1.242 0 2.052.612 2.052 1.575zm-.72.1c0-.632-.495-1.037-1.395-1.037h-1.918v2.17h1.863c.856 0 1.45-.387 1.45-1.134zm.35 2.853c0-.693-.575-1.09-1.674-1.09h-1.99v2.224h2.116c.954 0 1.548-.423 1.548-1.134zM288.593 119.347l-.207-.567c.513-.234 1.017-.388 1.69-.388 1.27 0 1.98.648 1.98 1.873v2.845h-.665v-.702c-.323.423-.862.8-1.683.8-.863 0-1.736-.484-1.736-1.457 0-.99.81-1.512 1.99-1.512.594 0 1.017.08 1.43.198v-.162c0-.837-.512-1.27-1.386-1.27-.547 0-.98.144-1.41.343zm.08 2.376c0 .595.54.937 1.17.937.855 0 1.56-.522 1.56-1.26v-.45a4.825 4.825 0 0 0-1.37-.198c-.873 0-1.36.377-1.36.97z"/><g fill="#939598"><path d="M294.308 121.786c0 .567.314.774.783.774.235 0 .433-.045.676-.162v.594a1.743 1.743 0 0 1-.837.198c-.75 0-1.315-.37-1.315-1.314v-2.81h-.648v-.61h.648v-1.405h.693v1.405h1.477v.612h-1.477v2.72zM297.7 123.11h-.692v-6.573h.693v2.73c.307-.506.793-.91 1.595-.91 1.125 0 1.78.756 1.78 1.863v2.89h-.69v-2.72c0-.863-.47-1.403-1.29-1.403-.8 0-1.394.585-1.394 1.458v2.664z"/></g><g fill="#939598"><path d="M381.97 129.628c-1.416 0-2.46-1.113-2.46-2.528 0-1.4 1.037-2.542 2.48-2.542.89 0 1.422.314 1.912.777l-.378.406c-.413-.392-.876-.672-1.54-.672-1.086 0-1.898.876-1.898 2.018s.82 2.03 1.898 2.03c.672 0 1.113-.26 1.582-.707l.364.356c-.51.52-1.07.862-1.96.862zM384.852 129.544v-5.112h.54v5.112h-.54zM388.296 129.628c-1.086 0-1.877-.854-1.877-1.884s.798-1.898 1.89-1.898c1.086 0 1.885.854 1.885 1.884 0 1.03-.806 1.898-1.9 1.898zm0-3.306c-.784 0-1.323.623-1.323 1.407s.574 1.414 1.337 1.414c.785 0 1.332-.623 1.332-1.4 0-.792-.582-1.422-1.346-1.422zM392.363 129.614a2.49 2.49 0 0 1-1.498-.532l.273-.386c.392.294.826.463 1.254.463.434 0 .75-.226.75-.576v-.014c0-.364-.428-.504-.904-.638-.568-.16-1.198-.356-1.198-1.022v-.014c0-.623.52-1.036 1.233-1.036.44 0 .932.153 1.303.398l-.246.406c-.336-.217-.72-.35-1.07-.35-.428 0-.7.224-.7.525v.013c0 .343.447.477.93.623.562.168 1.163.386 1.163 1.037v.014c0 .688-.568 1.087-1.29 1.087zM396.25 129.16c.496 0 .847-.204 1.14-.513l.337.3c-.363.407-.805.68-1.492.68-.994 0-1.807-.763-1.807-1.89 0-1.05.736-1.892 1.737-1.892 1.07 0 1.688.854 1.688 1.92 0 .05 0 .104-.008.167h-2.87c.075.786.636 1.227 1.274 1.227zm1.056-1.626c-.057-.658-.434-1.233-1.156-1.233-.63 0-1.105.526-1.176 1.234h2.332zM399.524 128.515c0 .44.245.603.61.603.182 0 .336-.035.524-.127v.464a1.353 1.353 0 0 1-.65.154c-.582 0-1.023-.288-1.023-1.023V126.4h-.505v-.477h.505v-1.093h.54v1.093h1.148v.477h-1.15v2.115z"/></g><g fill="#939598"><path d="M348.423 40.733c0 .828-.504 1.252-1 1.468.748.226 1.35.658 1.35 1.53 0 1.09-.908 1.73-2.285 1.73h-2.8v-6.302h2.683c1.243 0 2.053.613 2.053 1.575zm-.72.1c0-.63-.495-1.036-1.395-1.036h-1.918v2.17h1.863c.856 0 1.45-.387 1.45-1.134zm.35 2.854c0-.693-.575-1.09-1.674-1.09h-1.99v2.224h2.115c.955 0 1.55-.423 1.55-1.133zM352.12 44.965c.64 0 1.09-.26 1.47-.657l.432.387c-.47.522-1.035.874-1.918.874-1.278 0-2.322-.982-2.322-2.432 0-1.35.945-2.432 2.232-2.432 1.377 0 2.17 1.1 2.17 2.467 0 .063 0 .136-.01.217h-3.69c.098 1.007.818 1.575 1.637 1.575zm1.36-2.09c-.07-.845-.558-1.583-1.484-1.583-.81 0-1.423.675-1.513 1.584h2.997zM359.132 45.46v-.937c-.378.56-.928 1.035-1.782 1.035-1.116 0-2.224-.882-2.224-2.42 0-1.532 1.107-2.433 2.224-2.433.864 0 1.423.47 1.782.99v-2.81h.693v6.573h-.693zm-1.656-4.132c-.9 0-1.64.666-1.64 1.8 0 1.107.757 1.81 1.64 1.81.864 0 1.684-.72 1.684-1.81 0-1.08-.82-1.8-1.684-1.8zM362.066 45.46h-.693v-4.654h.693v1.215c.342-.772 1.018-1.33 1.9-1.295v.747h-.055c-1.017 0-1.845.73-1.845 2.134v1.854zM366.945 45.568c-1.396 0-2.413-1.1-2.413-2.422s1.026-2.44 2.43-2.44c1.397 0 2.423 1.1 2.423 2.422 0 1.324-1.036 2.44-2.44 2.44zm0-4.25c-1.01 0-1.702.802-1.702 1.81 0 1.01.738 1.82 1.72 1.82 1.008 0 1.71-.803 1.71-1.802 0-1.017-.748-1.828-1.728-1.828zM372.758 45.568c-1.396 0-2.413-1.1-2.413-2.422s1.026-2.44 2.432-2.44c1.395 0 2.42 1.1 2.42 2.422 0 1.324-1.034 2.44-2.44 2.44zm0-4.25c-1.01 0-1.702.802-1.702 1.81 0 1.01.738 1.82 1.72 1.82 1.01 0 1.71-.803 1.71-1.802 0-1.017-.746-1.828-1.728-1.828zM381.777 40.706c1.072 0 1.73.72 1.73 1.873v2.88h-.694v-2.72c0-.9-.45-1.403-1.206-1.403-.702 0-1.287.52-1.287 1.44v2.683h-.685v-2.736c0-.874-.46-1.387-1.197-1.387s-1.297.612-1.297 1.467v2.656h-.69v-4.654h.69v.783c.308-.46.722-.884 1.505-.884.756 0 1.242.405 1.494.928.332-.513.826-.928 1.637-.928z"/></g><g fill="#939598"><path d="M341.86 50.113h.522v6.347h-.7v-5.608l-1.19.37-.17-.577 1.54-.532zM347.865 50.113v4.258h.98v.596h-.98v1.494h-.685v-1.494h-3.32l-.182-.514 3.565-4.34h.622zm-.685 1.008l-2.647 3.25h2.647v-3.25zM350.185 50.158h.847v.045l-.73 2.403h-.386l.27-2.448zM352.607 51.787l-.522-.378c.567-.847 1.16-1.342 2.27-1.342 1.142 0 1.952.756 1.952 1.79 0 .93-.486 1.496-1.594 2.46l-1.683 1.493h3.34v.65h-4.402v-.55l2.286-2.017c.964-.864 1.314-1.35 1.314-1.98 0-.738-.584-1.207-1.27-1.207-.72 0-1.187.38-1.69 1.08zM357.782 50.158h.837v.045l-.73 2.403h-.38l.272-2.448zm1.764 0h.828v.045l-.73 2.403h-.377l.28-2.448zM368.402 56.46h-.8l-1.44-1.9-1.45 1.9h-.774l1.828-2.368-1.756-2.286h.792l1.378 1.8 1.377-1.8h.774l-1.764 2.27 1.836 2.384zM374.107 56.568c-.818 0-1.413-.333-1.943-.774l.414-.55c.513.45.99.676 1.548.676 1.134 0 1.9-1.152 1.872-2.764-.342.55-.908 1.008-1.782 1.008-1.296 0-2.196-.82-2.196-1.962 0-1.207.928-2.152 2.27-2.152.72 0 1.25.243 1.655.648.495.495.783 1.18.783 2.45 0 2.006-1.062 3.42-2.62 3.42zm.154-5.887c-.944 0-1.513.693-1.513 1.486 0 .81.63 1.386 1.55 1.386.962 0 1.565-.702 1.565-1.43 0-.81-.656-1.44-1.6-1.44zM378.13 50.158h.846v.045l-.73 2.403h-.387l.27-2.448zM380.263 50.797v-.64h4.023v.523l-1.98 2.196c1.107.09 2.08.62 2.08 1.782 0 1.135-.937 1.91-2.107 1.91-1.054 0-1.837-.46-2.35-1.127l.513-.458c.486.595 1.07.937 1.846.937.765 0 1.376-.487 1.376-1.234 0-.792-.72-1.225-1.764-1.225h-.406l-.144-.422 1.99-2.242h-3.08zM385.852 50.158h.837v.045l-.73 2.403h-.38l.272-2.448zm1.765 0h.828v.045l-.73 2.403h-.377l.28-2.448z"/></g><g fill="#939598"><path d="M128.547 54.325h.71v5.645h3.548v.657h-4.258v-6.302zM134.02 54.955v-.765h.792v.765h-.792zm.044 5.672v-4.654h.693v4.654h-.693zM139.816 55.973h.747l-2.025 4.69h-.612l-2.017-4.69h.765l1.566 3.862 1.576-3.862zM141.67 54.955v-.765h.79v.765h-.79zm.044 5.672v-4.654h.693v4.654h-.693zM144.71 60.627h-.692v-4.654h.693v.81c.307-.504.793-.91 1.595-.91 1.125 0 1.782.758 1.782 1.865v2.89h-.693v-2.72c0-.863-.468-1.403-1.288-1.403-.8 0-1.396.585-1.396 1.458v2.664zM151.624 62.085a3.657 3.657 0 0 1-2.116-.647l.315-.54c.53.387 1.125.594 1.792.594 1.026 0 1.693-.567 1.693-1.656v-.55c-.405.54-.973.98-1.828.98-1.116 0-2.188-.827-2.188-2.187 0-1.37 1.08-2.207 2.188-2.207.873 0 1.44.433 1.818.937v-.837h.693v3.844c0 1.503-.935 2.268-2.366 2.268zm-.01-5.6c-.882 0-1.61.604-1.61 1.576 0 .955.746 1.594 1.61 1.594.882 0 1.71-.63 1.71-1.584 0-.964-.827-1.585-1.71-1.585zM159.39 53.442l-4.176 8.337h-.64l4.178-8.338h.64zM162.415 60.627h-2.188v-6.302h2.188c1.98 0 3.35 1.36 3.35 3.142-.002 1.783-1.37 3.16-3.35 3.16zm0-5.645h-1.477v4.987h1.477c1.593 0 2.61-1.08 2.61-2.485s-1.017-2.503-2.61-2.503zM167.166 54.955v-.765h.792v.765h-.792zm.045 5.672v-4.654h.694v4.654h-.693zM170.208 60.627h-.693v-4.654h.693v.81c.306-.504.792-.91 1.594-.91 1.125 0 1.782.758 1.782 1.865v2.89h-.693v-2.72c0-.863-.467-1.403-1.287-1.403-.8 0-1.396.585-1.396 1.458v2.664zM175.076 54.955v-.765h.792v.765h-.792zm.046 5.672v-4.654h.693v4.654h-.693zM178.12 60.627h-.694v-4.654h.693v.81c.305-.504.79-.91 1.593-.91 1.125 0 1.782.758 1.782 1.865v2.89h-.693v-2.72c0-.863-.468-1.403-1.288-1.403-.8 0-1.396.585-1.396 1.458v2.664zM185.03 62.085a3.657 3.657 0 0 1-2.115-.647l.315-.54c.53.387 1.125.594 1.792.594 1.026 0 1.693-.567 1.693-1.656v-.55c-.405.54-.973.98-1.828.98-1.116 0-2.188-.827-2.188-2.187 0-1.37 1.08-2.207 2.187-2.207.873 0 1.44.433 1.818.937v-.837h.693v3.844c0 1.503-.936 2.268-2.367 2.268zm-.008-5.6c-.882 0-1.61.604-1.61 1.576 0 .955.746 1.594 1.61 1.594.882 0 1.71-.63 1.71-1.584 0-.964-.828-1.585-1.71-1.585zM196.102 60.627l-1.828-2.45h-1.8v2.45h-.71v-6.302h2.71c1.385 0 2.277.747 2.277 1.882 0 1.053-.72 1.665-1.71 1.845l1.937 2.575h-.875zm-1.684-5.645h-1.944v2.557h1.936c.945 0 1.62-.487 1.62-1.307 0-.783-.594-1.25-1.612-1.25zM200.187 60.735c-1.396 0-2.413-1.1-2.413-2.422s1.026-2.44 2.43-2.44c1.397 0 2.422 1.1 2.422 2.422 0 1.324-1.035 2.44-2.44 2.44zm0-4.25c-1.008 0-1.702.802-1.702 1.81 0 1.01.738 1.82 1.72 1.82 1.008 0 1.71-.803 1.71-1.802 0-1.017-.747-1.828-1.728-1.828zM206 60.735c-1.395 0-2.412-1.1-2.412-2.422s1.026-2.44 2.43-2.44c1.397 0 2.422 1.1 2.422 2.422 0 1.324-1.035 2.44-2.44 2.44zm0-4.25c-1.007 0-1.7.802-1.7 1.81 0 1.01.737 1.82 1.72 1.82 1.007 0 1.71-.803 1.71-1.802 0-1.017-.748-1.828-1.73-1.828zM215.02 55.873c1.07 0 1.73.72 1.73 1.873v2.88h-.694V57.91c0-.9-.45-1.404-1.207-1.404-.703 0-1.288.52-1.288 1.44v2.683h-.685V57.89c0-.873-.46-1.386-1.197-1.386s-1.296.612-1.296 1.467v2.657h-.693v-4.654h.694v.783c.306-.46.72-.883 1.503-.883.756 0 1.243.405 1.495.928.332-.512.827-.927 1.638-.927z"/></g><g fill="#939598"><path d="M146.403 66.954l-.522-.378c.568-.846 1.162-1.34 2.27-1.34 1.143 0 1.954.755 1.954 1.79 0 .928-.486 1.495-1.594 2.458l-1.683 1.494h3.34v.648h-4.402v-.55l2.287-2.016c.963-.864 1.314-1.35 1.314-1.98 0-.738-.585-1.207-1.27-1.207-.72 0-1.188.38-1.693 1.08zM155.063 65.28v4.258h.98v.595h-.98v1.494h-.684v-1.494h-3.323l-.18-.514 3.565-4.34h.62zm-.684 1.008l-2.648 3.25h2.647v-3.25zM157.384 65.325h.846v.045l-.73 2.403h-.386l.27-2.448zM159.517 65.964v-.64h4.024v.523l-1.98 2.196c1.107.09 2.08.62 2.08 1.782 0 1.135-.936 1.91-2.106 1.91-1.053 0-1.836-.46-2.35-1.127l.513-.46c.486.596 1.07.938 1.846.938.765 0 1.377-.486 1.377-1.233 0-.792-.72-1.225-1.764-1.225h-.405l-.143-.423 1.99-2.242h-3.08zM165.106 65.325h.837v.045l-.73 2.403h-.377l.27-2.448zm1.765 0h.83v.045l-.73 2.403h-.377l.278-2.448zM175.727 71.627h-.8l-1.44-1.9-1.45 1.9h-.774l1.828-2.368-1.754-2.287h.792l1.377 1.8 1.377-1.8h.774l-1.765 2.27 1.837 2.384zM180.568 65.28h.522v6.347h-.702V66.02l-1.188.368-.17-.576 1.538-.532zM186.617 66.486c-.468-.396-.91-.62-1.485-.62-1.143 0-1.854 1.15-1.845 2.78.342-.504.873-.963 1.792-.963 1.178 0 2.177.757 2.177 1.944 0 1.225-.98 2.107-2.26 2.107-.692 0-1.26-.243-1.656-.64-.503-.504-.79-1.152-.79-2.448 0-1.927.97-3.43 2.62-3.43.755 0 1.313.27 1.863.72l-.416.55zm-1.63 1.81c-.945 0-1.575.675-1.575 1.387 0 .82.666 1.422 1.593 1.422s1.52-.64 1.52-1.45c.002-.783-.63-1.36-1.538-1.36zM188.677 65.325h.846v.045l-.73 2.403h-.386l.27-2.448zM192.862 71.717c-1.34 0-2.368-.73-2.368-1.79 0-.758.54-1.29 1.296-1.56-.585-.27-1.08-.72-1.08-1.458 0-.98 1-1.675 2.15-1.675s2.152.693 2.152 1.674c0 .737-.495 1.187-1.08 1.458.747.28 1.296.792 1.296 1.548.002 1.08-1.024 1.8-2.366 1.8zm0-3.016c-.918 0-1.647.496-1.647 1.207 0 .648.612 1.188 1.647 1.188s1.647-.54 1.647-1.188c0-.71-.73-1.206-1.648-1.206zm0-2.844c-.82 0-1.44.46-1.44 1.098 0 .693.64 1.162 1.44 1.162s1.44-.47 1.44-1.162c0-.63-.62-1.098-1.44-1.098zM196.552 65.325h.837v.045l-.73 2.403h-.378l.27-2.448zm1.764 0h.83v.045l-.73 2.403h-.378l.278-2.448z"/></g><g fill="#939598"><path d="M44.404 157.858v1.104h1.605v.514h-4.55v-1.703c0-1.026.545-1.703 1.448-1.703.99 0 1.496.82 1.496 1.788zm-2.47-.046v1.15h2.003v-1.124c0-.754-.403-1.248-1.008-1.248-.658 0-.995.488-.995 1.222zM43.293 155.09l-.41.15c-.17-.372-.28-.735-.28-1.224 0-.916.47-1.43 1.354-1.43h2.054v.48h-.506c.306.234.578.625.578 1.216 0 .624-.35 1.255-1.053 1.255-.716 0-1.093-.586-1.093-1.438 0-.43.06-.735.143-1.034h-.117c-.604 0-.916.37-.916 1.002 0 .398.102.71.246 1.02zm1.716-.06c.428 0 .675-.39.675-.845 0-.617-.377-1.124-.91-1.124h-.325c-.07.247-.143.58-.143.99 0 .63.273.98.702.98zM46.01 151.02v.5h-3.36v-.5h.585c-.364-.22-.656-.57-.656-1.15 0-.81.545-1.286 1.344-1.286h2.087v.5H44.05c-.624 0-1.015.338-1.015.93 0 .578.423 1.008 1.054 1.008h1.923z"/></g><path fill="#939598" d="M45.055 147.36c.41 0 .56-.227.56-.565 0-.17-.033-.312-.118-.487h.43c.09.176.143.364.143.604 0 .54-.267.95-.95.95h-2.027v.467h-.44v-.47h-1.016v-.5h1.015v-1.066h.44v1.066h1.963zM46.01 145.053v.5h-3.36v-.5h.877c-.56-.247-.962-.734-.936-1.372h.54v.04c0 .734.526 1.333 1.54 1.333h1.34zM46.12 141.374c.695.286.95.61.95 1.118 0 .28-.06.487-.17.715l-.396-.17c.084-.16.123-.31.123-.525 0-.3-.155-.487-.63-.688l-3.348 1.527v-.552l2.8-1.223-2.8-1.078v-.533l3.47 1.41z"/></g></svg>