<?xml version="1.0" encoding="utf-8"?>
<!-- Generator: Adobe Illustrator 15.0.2, SVG Export Plug-In . SVG Version: 6.00 Build 0)  -->
<!DOCTYPE svg PUBLIC "-//W3C//DTD SVG 1.1//EN" "http://www.w3.org/Graphics/SVG/1.1/DTD/svg11.dtd">
<svg version="1.1" id="Layer_1" xmlns="http://www.w3.org/2000/svg" xmlns:xlink="http://www.w3.org/1999/xlink" x="0px" y="0px"
	 width="243.523px" height="190.264px" viewBox="0 0 243.523 190.264" enable-background="new 0 0 243.523 190.264"
	 xml:space="preserve">
<g id="_x32_0_x25___PMS_2985_fill">
	<polygon fill="none" points="2.634,1.848 2.634,187.439 242.301,187.439 242.301,105.773 215.635,105.773 215.635,2.439 	"/>
</g>
<g id="_x33_0_x25__grey_fill">
	<rect x="103.695" y="163.939" fill="#D1D3D4" width="15.854" height="23"/>
	<rect x="2.5" y="2.52" fill="#D1D3D4" width="40.752" height="4.748"/>
	<rect x="117.188" y="2.439" fill="#D1D3D4" width="18.362" height="4.75"/>
	<rect x="209.451" y="2.689" fill="#D1D3D4" width="6.85" height="4.75"/>
</g>
<g id="icons">
	<rect x="102.634" y="138.439" fill="#FFFFFF" stroke="#939598" width="17.667" height="24.334"/>
	<g>
		<polygon fill="none" stroke="#939598" points="24.165,118.427 24.174,120.013 46.801,120.028 46.793,118.44 		"/>
		<path fill="none" stroke="#939598" d="M46.811,119.156c-0.424,12.458-10.664,22.214-23.121,21.788"/>
	</g>
	<g>
		<polygon fill="none" stroke="#939598" points="11.648,187.827 13.318,187.84 13.334,164.021 11.62,164.009 		"/>
		<path fill="none" stroke="#939598" d="M12.352,163.99c13.113,0.445,23.383,11.289,22.936,24.402"/>
	</g>
	<g>
		<polygon fill="none" stroke="#939598" points="55.165,117.677 55.174,119.263 77.801,119.278 77.793,117.69 		"/>
		<path fill="none" stroke="#939598" d="M77.811,118.406c-0.424,12.458-10.664,22.214-23.121,21.788"/>
	</g>
	<g>
		<rect x="213.148" y="142.939" fill="none" stroke="#939598" width="1.25" height="37.5"/>
		<rect x="214.383" y="110.689" fill="none" stroke="#939598" width="1.25" height="41"/>
	</g>
	<polyline fill="none" stroke="#939598" points="240.551,138.439 228.301,138.439 228.301,186.439 	"/>
	<line fill="none" stroke="#939598" x1="14.551" y1="111.939" x2="14.551" y2="148.189"/>
	<line fill="none" stroke="#939598" x1="208.551" y1="8.512" x2="42.801" y2="8.512"/>
	
		<line fill="none" stroke="#939598" stroke-dasharray="1.5,1.5,1.5,1.5,1.5,1.5" x1="12.285" y1="112.689" x2="12.285" y2="146.689"/>
	
		<line fill="none" stroke="#939598" stroke-dasharray="1.5,1.5,1.5,1.5,1.5,1.5" x1="230.66" y1="138.439" x2="230.66" y2="187.439"/>
	
		<line fill="none" stroke="#333333" stroke-dasharray="1.5,1.5,1.5,1.5,1.5,1.5" x1="12.968" y1="86.439" x2="12.968" y2="111.773"/>
	<rect x="53.483" y="32.403" fill="#FFFFFF" stroke="#A7A9AC" width="27.625" height="48"/>
	<g>
		<g>
			<path fill="#FFFFFF" stroke="#939598" d="M70.171,58.427c0,0.427-0.344,0.771-0.771,0.771H55.954
				c-0.426,0-0.771-0.346-0.771-0.771V35.622c0-0.426,0.346-0.771,0.771-0.771H69.4c0.428,0,0.771,0.345,0.771,0.771V58.427z"/>
			<path fill="#FFFFFF" stroke="#939598" d="M63.258,47.106"/>
		</g>
		<g>
			<circle fill="#FFFFFF" stroke="#939598" cx="62.348" cy="47.106" r="0.871"/>
			<path fill="#FFFFFF" stroke="#939598" d="M62.348,47.106"/>
		</g>
		<g>
			<g>
				<rect x="67.814" y="43.301" fill="#FFFFFF" stroke="#939598" width="1.819" height="7.609"/>
				<path fill="#FFFFFF" stroke="#939598" d="M68.726,47.106"/>
			</g>
			<g>
				<rect x="64.276" y="46.717" fill="#FFFFFF" stroke="#939598" width="3.586" height="0.777"/>
				<path fill="#FFFFFF" stroke="#939598" d="M66.301,47.106"/>
			</g>
			<g>
				<circle fill="#FFFFFF" stroke="#939598" cx="68.707" cy="47.106" r="0.847"/>
				<path fill="#FFFFFF" stroke="#939598" d="M68.707,47.106"/>
			</g>
		</g>
		<g>
			<path fill="#FFFFFF" stroke="#939598" d="M62.348,47.106"/>
			<path fill="none" stroke="#939598" d="M67.186,47.576v9.588c0,0.447-0.362,0.812-0.811,0.812h-9.221
				c-0.445,0-0.809-0.363-0.809-0.812V36.885c0-0.446,0.362-0.811,0.809-0.811h9.221c0.447,0,0.811,0.363,0.811,0.811v9.727"/>
		</g>
	</g>
	<g>
		<polyline fill="none" stroke="#939598" stroke-dasharray="1.5,1,1.5,1,1.5,1" points="52.987,61.23 69.963,61.23 69.963,77.879 
			53.368,77.879 		"/>
		<polyline fill="#FFFFFF" stroke="#939598" points="53.368,77.904 52.36,77.904 52.36,61.23 52.981,61.23 		"/>
	</g>
	<rect x="3.673" y="8.135" fill="#FFFFFF" stroke="#939598" width="20.833" height="103.168"/>
	<g>
		<g>
			<rect x="5.861" y="32.419" fill="#FFFFFF" stroke="#939598" width="19.75" height="23.25"/>
			<path fill="#FFFFFF" stroke="#939598" d="M15.736,44.044"/>
		</g>
		<g>
			<g>
				<circle fill="#FFFFFF" stroke="#939598" cx="21.236" cy="49.36" r="2.824"/>
				<path fill="#FFFFFF" stroke="#939598" d="M21.236,49.36"/>
			</g>
			<g>
				<circle fill="#FFFFFF" stroke="#939598" stroke-width="0.8" cx="21.235" cy="49.388" r="1.989"/>
				<path fill="#FFFFFF" stroke="#939598" d="M21.236,49.388"/>
			</g>
		</g>
		<g>
			<g>
				<circle fill="#FFFFFF" stroke="#939598" cx="12.986" cy="38.072" r="2.824"/>
				<path fill="#FFFFFF" stroke="#939598" d="M12.986,38.072"/>
			</g>
			<g>
				<circle fill="#FFFFFF" stroke="#939598" stroke-width="0.8" cx="12.985" cy="38.044" r="1.989"/>
				<path fill="#FFFFFF" stroke="#939598" d="M12.986,38.044"/>
			</g>
		</g>
		<g>
			<g>
				<circle fill="#FFFFFF" stroke="#939598" cx="13.014" cy="49.397" r="3.219"/>
				<path fill="#FFFFFF" stroke="#939598" d="M13.014,49.397"/>
			</g>
			<g>
				<circle fill="#FFFFFF" stroke="#939598" stroke-width="0.8" cx="13.014" cy="49.366" r="2.268"/>
				<path fill="#FFFFFF" stroke="#939598" d="M13.014,49.366"/>
			</g>
		</g>
		<g>
			<g>
				<circle fill="#FFFFFF" stroke="#939598" cx="21.453" cy="38.085" r="3.219"/>
				<path fill="#FFFFFF" stroke="#939598" d="M21.453,38.085"/>
			</g>
			<g>
				<circle fill="#FFFFFF" stroke="#939598" stroke-width="0.8" cx="21.453" cy="38.053" r="2.268"/>
				<path fill="#FFFFFF" stroke="#939598" d="M21.453,38.052"/>
			</g>
		</g>
		<line fill="none" stroke="#939598" x1="8.594" y1="55.7" x2="8.594" y2="32.419"/>
		<line fill="none" stroke="#939598" x1="7.502" y1="55.669" x2="7.502" y2="32.419"/>
	</g>
	<g>
		<g>
			<rect x="5.647" y="83.617" fill="#FFFFFF" stroke="#939598" width="21.969" height="24.901"/>
			<path fill="#FFFFFF" stroke="#939598" d="M16.632,97.356"/>
		</g>
		<line fill="none" stroke="#939598" x1="26.08" y1="83.558" x2="26.08" y2="108.519"/>
		<rect x="27.632" y="104.423" fill="#FFFFFF" stroke="#939598" width="1.069" height="2.019"/>
		<path fill="#FFFFFF" stroke="#939598" d="M28.107,105.432"/>
	</g>
	<g>
		<polyline fill="#FFFFFF" stroke="#939598" points="25.685,80.591 25.685,82.425 3.852,82.425 3.852,66.759 25.685,66.759 
			25.685,70.091 		"/>
		<g>
			<g>
				<g>
					<polygon fill="none" stroke="#939598" stroke-width="0.7" points="34.569,75.251 33.882,76.503 25.289,71.294 25.976,70.042 
											"/>
					<path fill="none" stroke="#939598" stroke-width="0.8" d="M29.233,72.321"/>
				</g>
				<path fill="none" stroke="#939598" stroke-width="0.8" d="M34.155,75.729c-1.94,3.203-5.394,4.926-8.888,4.811"/>
			</g>
		</g>
	</g>
	
		<line fill="none" stroke="#A7A9AC" stroke-dasharray="1.5,1.5,1.5,1.5,1.5,1.5" x1="15.619" y1="98.605" x2="15.619" y2="108.426"/>
	<line fill="none" stroke="#939598" stroke-dasharray="1.5,1.5,1.5,1.5,1.5,1.5" x1="15.619" y1="78.079" x2="15.619" y2="92.79"/>
	<line fill="none" stroke="#A7A9AC" stroke-dasharray="1.5,1.5,1.5,1.5,1.5,1.5" x1="15.619" y1="7.939" x2="15.619" y2="72.106"/>
	<g>
		<path fill="#FFFFFF" stroke="#939598" stroke-miterlimit="10" d="M106.825,120.051c-4.462,0-9.376,2.712-9.376,6.054
			s4.914,6.041,9.376,6.041c4.463,0,6.785-2.699,6.785-6.041S111.288,120.051,106.825,120.051"/>
		<path fill="#FFFFFF" stroke="#939598" d="M106.825,120.051c-4.462,0-9.376,2.712-9.376,6.054s4.914,6.041,9.376,6.041
			c4.463,0,6.785-2.699,6.785-6.041S111.288,120.051,106.825,120.051z"/>
		<path fill="#FFFFFF" stroke="#939598" stroke-miterlimit="10" d="M112.147,129.727c-0.25,0-0.455,0.205-0.455,0.455v2.106
			c0,0.25,0.205,0.455,0.455,0.455h0.077c0.25,0,0.455-0.205,0.455-0.455v-2.106c0-0.25-0.205-0.455-0.455-0.455H112.147z"/>
		<path fill="#FFFFFF" stroke="#939598" d="M112.147,129.727c-0.25,0-0.455,0.205-0.455,0.455v2.106c0,0.25,0.205,0.455,0.455,0.455
			h0.077c0.25,0,0.455-0.205,0.455-0.455v-2.106c0-0.25-0.205-0.455-0.455-0.455H112.147z"/>
		<path fill="#FFFFFF" stroke="#939598" stroke-miterlimit="10" d="M112.691,133.064c0,0.758,2.057,1.375,2.815,1.375
			c0.77,0,2.825-0.617,2.825-1.375V119.25c0-0.76-2.057-1.375-2.825-1.375c-0.76,0-2.813,0.615-2.813,1.375L112.691,133.064z"/>
		<path fill="#FFFFFF" stroke="#939598" d="M112.691,133.064c0,0.758,2.057,1.375,2.815,1.375c0.77,0,2.825-0.617,2.825-1.375
			V119.25c0-0.76-2.057-1.375-2.825-1.375c-0.76,0-2.813,0.615-2.813,1.375L112.691,133.064z"/>
		<path fill="#FFFFFF" stroke="#939598" stroke-miterlimit="10" d="M106.639,121.654c-3.279,0-6.894,1.992-6.894,4.449
			s3.613,4.446,6.894,4.446c3.279,0,4.984-1.989,4.984-4.446S109.918,121.654,106.639,121.654"/>
		<path fill="#FFFFFF" stroke="#939598" d="M106.639,121.654c-3.279,0-6.894,1.992-6.894,4.449s3.613,4.446,6.894,4.446
			c3.279,0,4.984-1.989,4.984-4.446S109.918,121.654,106.639,121.654z"/>
	</g>
	<g>
		<g>
			<rect x="57.27" y="161.753" fill="#FFFFFF" stroke="#939598" width="45.692" height="23.625"/>
			<path fill="#FFFFFF" stroke="#939598" d="M80.117,173.565"/>
			<path fill="#FFFFFF" stroke="#939598" d="M80.273,173.565"/>
			<path fill="#FFFFFF" stroke="#939598" d="M95.767,173.565"/>
		</g>
		<circle fill="#FFFFFF" stroke="#939598" cx="92.549" cy="173.454" r="0.969"/>
		<path fill="#FFFFFF" stroke="#939598" d="M59.879,173.493c0,6.771,1.562,9.25,3.752,9.25c0,0,32.84,0,33.376,0
			c0.535,0,1.642-0.145,1.642-1.561c0-1.418,0-7.689,0-7.689v-0.016c0,0,0-6.271,0-7.689c0-1.416-1.105-1.561-1.642-1.561
			s-33.354,0-33.354,0l-0.021,0.002C61.441,164.229,59.879,166.765,59.879,173.493z"/>
		<path fill="#FFFFFF" stroke="#939598" d="M100.347,175.485c-0.55-0.002-0.988,0.44-0.988,0.996c0,0.537,0.438,0.981,0.988,0.985
			c0.545-0.004,0.994-0.448,0.994-0.985C101.342,175.927,100.897,175.483,100.347,175.485z"/>
		<path fill="#FFFFFF" stroke="#939598" d="M100.347,169.345c-0.55-0.007-0.988,0.444-0.988,0.989c0,0.543,0.438,0.99,0.988,0.99
			c0.545,0,0.994-0.447,0.987-0.99C101.342,169.788,100.892,169.345,100.347,169.345z"/>
		<path fill="#FFFFFF" stroke="#939598" d="M100.64,174.788c0.812,0,1.469-0.549,1.471-1.361c-0.002-0.811-0.658-1.254-1.471-1.254
			l-5.593,0.521c-0.549,0-0.549,1.481,0,1.481L100.64,174.788z"/>
	</g>
	<g>
		<g>
			<g>
				<g>
					<rect x="218.521" y="115.805" fill="#FFFFFF" stroke="#939598" width="18.545" height="20.188"/>
					<path fill="#FFFFFF" stroke="#939598" d="M227.178,125.898"/>
					<polyline fill="#FFFFFF" stroke="#939598" points="224.055,119.773 221.233,119.773 220.575,122.211 220.575,129.68 
						221.233,132.148 224.055,132.148 					"/>
					<line fill="none" stroke="#939598" x1="224.055" y1="136.139" x2="224.055" y2="115.805"/>
					<path fill="#FFFFFF" stroke="#939598" d="M226.231,125.961"/>
				</g>
			</g>
		</g>
		<polygon fill="#FFFFFF" stroke="#939598" points="222.838,135.01 222.834,133.38 223.972,133.021 223.977,135.369 		"/>
	</g>
	<g>
		<g>
			<g>
				<path fill="none" stroke="#939598" d="M110.301,149.939"/>
			</g>
			<g>
				<path fill="none" stroke="#939598" d="M111.311,149.939"/>
			</g>
			<g>
				<circle fill="none" stroke="#939598" cx="110.302" cy="149.939" r="0.966"/>
				<path fill="none" stroke="#939598" d="M110.301,149.939"/>
			</g>
			<g>
				<g>
					<rect x="116.357" y="145.866" fill="none" stroke="#939598" width="2.02" height="8.125"/>
					<path fill="none" stroke="#939598" d="M117.367,149.939"/>
				</g>
				<g>
					<rect x="112.439" y="149.509" fill="none" stroke="#939598" width="3.829" height="0.86"/>
					<path fill="none" stroke="#939598" d="M114.68,149.939"/>
				</g>
				<g>
					<circle fill="none" stroke="#939598" cx="117.348" cy="149.939" r="0.938"/>
					<path fill="none" stroke="#939598" d="M117.348,149.939"/>
				</g>
			</g>
		</g>
		<g>
			<rect x="105.504" y="141.818" fill="none" stroke="#939598" width="13.183" height="16.222"/>
			<rect x="106.829" y="143.175" fill="none" stroke="#939598" width="9.481" height="13.542"/>
		</g>
	</g>
</g>
<g id="walls">
	<polyline fill="none" stroke="#939598" stroke-width="5" points="34.967,187.711 241.023,187.711 241.023,105.189 215.242,105.189 
		215.242,2.5 2.5,2.52 2.5,187.711 11.801,187.711 	"/>
	<line fill="none" stroke="#939598" stroke-width="3" x1="214.34" y1="172.689" x2="214.34" y2="186.439"/>
	<line fill="none" stroke="#939598" stroke-width="3" x1="214.34" y1="105.189" x2="214.34" y2="119.189"/>
	<polyline fill="none" stroke="#939598" stroke-width="3" points="117.188,2.439 117.188,7.189 135.551,7.189 135.551,2.689 	"/>
	<polyline fill="none" stroke="#939598" stroke-width="3" points="209.451,2.689 209.451,7.512 214.051,7.512 	"/>
	<polyline fill="none" stroke="#939598" stroke-width="3" points="43.166,2.689 43.252,7.504 3.801,7.504 	"/>
	<polyline fill="none" stroke="#939598" stroke-width="3" points="24.301,140.859 24.301,147.939 3.301,147.939 	"/>
	<polyline fill="none" stroke="#939598" stroke-width="3" points="3.551,110.934 24.301,110.934 24.301,118.189 	"/>
	<polyline fill="none" stroke="#939598" stroke-width="3" points="55.868,117.637 55.801,110.939 120.884,110.939 120.884,186.939 	
		"/>
	<line fill="none" stroke="#939598" stroke-width="3" x1="55.801" y1="186.939" x2="55.967" y2="140.106"/>
	<polyline fill="none" stroke="#939598" stroke-width="3" points="104.312,186.689 104.312,162.779 120.551,162.779 	"/>
</g>
<g id="windows">
	<g>
		<g>
			<rect x="44.808" y="0.774" fill="#FFFFFF" stroke="#939598" width="69.562" height="3.674"/>
			<line fill="none" stroke="#939598" x1="114.371" y1="2.593" x2="44.058" y2="2.593"/>
			<line fill="none" stroke="#939598" stroke-width="2" x1="91.697" y1="4.606" x2="91.697" y2="1.112"/>
		</g>
		<line fill="none" stroke="#939598" stroke-width="2" x1="68.308" y1="4.731" x2="68.308" y2="1.13"/>
	</g>
	<g>
		<g>
			<rect x="137.309" y="0.607" fill="#FFFFFF" stroke="#939598" width="69.562" height="3.674"/>
			<line fill="none" stroke="#939598" x1="206.871" y1="2.426" x2="136.559" y2="2.426"/>
			<line fill="none" stroke="#939598" stroke-width="2" x1="184.197" y1="4.439" x2="184.197" y2="0.945"/>
		</g>
		<line fill="none" stroke="#939598" stroke-width="2" x1="160.809" y1="4.564" x2="160.809" y2="0.963"/>
	</g>
</g>
<g id="Type">
	<g enable-background="new    ">
		<path fill="#939598" d="M73.529,65.091h4.902v0.554h-4.902V65.091z"/>
		<path fill="#939598" d="M78.502,62.55c0,0.518-0.203,1.092-0.532,1.499l-0.386-0.273c0.294-0.392,0.463-0.827,0.463-1.254
			c0-0.434-0.225-0.749-0.575-0.749h-0.014c-0.364,0-0.504,0.427-0.638,0.903c-0.16,0.567-0.356,1.198-1.022,1.198h-0.014
			c-0.623,0-1.036-0.519-1.036-1.233c0-0.441,0.153-0.932,0.398-1.303l0.406,0.245c-0.217,0.336-0.35,0.722-0.35,1.072
			c0,0.427,0.224,0.7,0.525,0.7h0.014c0.343,0,0.477-0.448,0.623-0.932c0.168-0.56,0.386-1.163,1.037-1.163h0.014
			C78.102,61.26,78.502,61.828,78.502,62.55z"/>
		<path fill="#939598" d="M78.431,60.212h-5.112v-0.539h5.112V60.212z"/>
		<path fill="#939598" d="M75.504,58.21l-0.441,0.161c-0.182-0.399-0.301-0.792-0.301-1.317c0-0.987,0.504-1.541,1.457-1.541h2.213
			v0.518h-0.546c0.329,0.252,0.623,0.672,0.623,1.31c0,0.673-0.378,1.352-1.135,1.352c-0.771,0-1.177-0.63-1.177-1.548
			c0-0.462,0.063-0.792,0.154-1.114h-0.126c-0.651,0-0.987,0.399-0.987,1.079C75.238,57.538,75.349,57.874,75.504,58.21z
			 M77.353,58.147c0.462,0,0.728-0.42,0.728-0.911c0-0.665-0.406-1.211-0.98-1.211h-0.35c-0.077,0.266-0.154,0.623-0.154,1.064
			C76.596,57.769,76.89,58.147,77.353,58.147z"/>
		<path fill="#939598" d="M78.431,53.828v0.539H74.81v-0.539h0.631c-0.393-0.238-0.708-0.616-0.708-1.24
			c0-0.875,0.589-1.387,1.45-1.387h2.248v0.54h-2.115c-0.672,0-1.093,0.364-1.093,1.001c0,0.623,0.455,1.085,1.135,1.085H78.431z"/>
		<path fill="#939598" d="M78.431,47.149h-0.729c0.435,0.294,0.806,0.721,0.806,1.387c0,0.868-0.687,1.73-1.884,1.73
			c-1.191,0-1.892-0.862-1.892-1.73c0-0.672,0.364-1.106,0.771-1.387h-2.185v-0.54h5.112V47.149z M75.217,48.438
			c0,0.7,0.519,1.275,1.4,1.275c0.862,0,1.408-0.588,1.408-1.275c0-0.672-0.561-1.31-1.408-1.31
			C75.777,47.128,75.217,47.765,75.217,48.438z"/>
	</g>
	<g enable-background="new    ">
		<path fill="#939598" d="M56.128,97.764h-0.891l-2.422-3.052l-1.341,1.359v1.692h-0.711v-6.302h0.711v3.763l3.619-3.763h0.918
			l-2.701,2.755L56.128,97.764z"/>
		<path fill="#939598" d="M57.134,92.093v-0.765h0.792v0.765H57.134z M57.179,97.764V93.11h0.693v4.654H57.179z"/>
		<path fill="#939598" d="M60.419,96.441c0,0.567,0.315,0.774,0.783,0.774c0.234,0,0.432-0.045,0.675-0.162v0.594
			c-0.243,0.126-0.504,0.198-0.837,0.198c-0.747,0-1.314-0.369-1.314-1.314v-2.809h-0.648V93.11h0.648v-1.404h0.693v1.404h1.477
			v0.612h-1.477V96.441z"/>
		<path fill="#939598" d="M65.083,97.873c-1.359,0-2.386-1.107-2.386-2.422c0-1.323,1.026-2.44,2.386-2.44
			c0.882,0,1.431,0.369,1.863,0.829l-0.459,0.485c-0.369-0.387-0.783-0.702-1.414-0.702c-0.945,0-1.666,0.802-1.666,1.81
			c0,1.018,0.738,1.819,1.71,1.819c0.594,0,1.053-0.298,1.422-0.693l0.441,0.414C66.514,97.494,65.956,97.873,65.083,97.873z"/>
		<path fill="#939598" d="M68.817,97.764h-0.693v-6.572h0.693v2.729c0.306-0.505,0.792-0.91,1.594-0.91
			c1.125,0,1.782,0.757,1.782,1.864v2.89H71.5v-2.719c0-0.864-0.468-1.404-1.288-1.404c-0.801,0-1.396,0.585-1.396,1.458V97.764z"/>
		<path fill="#939598" d="M75.72,97.269c0.639,0,1.089-0.261,1.468-0.657l0.432,0.387c-0.468,0.522-1.036,0.874-1.918,0.874
			c-1.278,0-2.322-0.981-2.322-2.431c0-1.351,0.945-2.432,2.232-2.432c1.377,0,2.17,1.099,2.17,2.467c0,0.063,0,0.136-0.009,0.217
			h-3.691C74.181,96.702,74.901,97.269,75.72,97.269z M77.079,95.18c-0.072-0.846-0.558-1.584-1.485-1.584
			c-0.81,0-1.422,0.675-1.512,1.584H77.079z"/>
		<path fill="#939598" d="M79.689,97.764h-0.693V93.11h0.693v0.811c0.306-0.505,0.792-0.91,1.594-0.91
			c1.125,0,1.782,0.757,1.782,1.864v2.89h-0.693v-2.719c0-0.864-0.468-1.404-1.288-1.404c-0.801,0-1.396,0.585-1.396,1.458V97.764z"
			/>
	</g>
	<g enable-background="new    ">
		<path fill="#939598" d="M57.465,72.312h-1.702V67.41h1.702c1.541,0,2.605,1.058,2.605,2.444S59.005,72.312,57.465,72.312z
			 M57.465,67.921h-1.149v3.88h1.149c1.239,0,2.031-0.84,2.031-1.933S58.704,67.921,57.465,67.921z"/>
		<path fill="#939598" d="M63.955,67.395h0.455l1.345,4.098l1.401-4.083h0.581l-1.751,4.938h-0.469l-1.345-3.979l-1.352,3.979
			h-0.462l-1.751-4.938h0.603l1.401,4.083L63.955,67.395z"/>
	</g>
	<g enable-background="new    ">
		<path fill="#939598" d="M13.614,97.364l-1.422-1.905h-1.401v1.905h-0.553v-4.902h2.108c1.078,0,1.771,0.581,1.771,1.464
			c0,0.819-0.56,1.295-1.331,1.436l1.506,2.003H13.614z M12.303,92.972h-1.513v1.989h1.506c0.735,0,1.261-0.378,1.261-1.016
			C13.557,93.337,13.095,92.972,12.303,92.972z"/>
		<path fill="#939598" d="M16.734,96.979c0.497,0,0.848-0.203,1.142-0.512l0.336,0.301c-0.364,0.406-0.805,0.68-1.492,0.68
			c-0.995,0-1.807-0.764-1.807-1.891c0-1.051,0.735-1.892,1.737-1.892c1.071,0,1.688,0.854,1.688,1.919c0,0.05,0,0.105-0.007,0.168
			h-2.872C15.536,96.538,16.097,96.979,16.734,96.979z M17.792,95.354c-0.056-0.658-0.434-1.233-1.156-1.233
			c-0.63,0-1.106,0.525-1.177,1.233H17.792z"/>
		<path fill="#939598" d="M21.165,93.757v0.463h-1.142v3.145h-0.539v-3.145h-0.498v-0.47h0.498v-0.314
			c0-0.792,0.399-1.212,1.092-1.212c0.252,0,0.42,0.028,0.595,0.091v0.47c-0.196-0.057-0.343-0.092-0.525-0.092
			c-0.42,0-0.63,0.253-0.63,0.771v0.294H21.165z"/>
	</g>
	<g enable-background="new    ">
		<path fill="#939598" d="M76.829,145.784c0,0.828-0.504,1.252-0.999,1.468c0.747,0.225,1.35,0.657,1.35,1.53
			c0,1.089-0.909,1.729-2.287,1.729h-2.8v-6.302h2.683C76.019,144.209,76.829,144.821,76.829,145.784z M76.109,145.884
			c0-0.631-0.495-1.036-1.395-1.036h-1.918v2.17h1.864C75.515,147.017,76.109,146.631,76.109,145.884z M76.46,148.737
			c0-0.693-0.576-1.09-1.675-1.09h-1.99v2.224h2.116C75.866,149.871,76.46,149.448,76.46,148.737z"/>
	</g>
	<g enable-background="new    ">
		<path fill="#939598" d="M78.745,146.748l-0.207-0.567c0.513-0.234,1.017-0.388,1.692-0.388c1.27,0,1.98,0.648,1.98,1.873v2.845
			h-0.666v-0.702c-0.324,0.423-0.864,0.801-1.684,0.801c-0.864,0-1.737-0.485-1.737-1.458c0-0.99,0.81-1.513,1.989-1.513
			c0.594,0,1.018,0.081,1.432,0.198v-0.162c0-0.837-0.513-1.27-1.387-1.27C79.609,146.405,79.177,146.55,78.745,146.748z
			 M78.826,149.124c0,0.595,0.54,0.937,1.17,0.937c0.855,0,1.557-0.522,1.557-1.261v-0.449c-0.342-0.1-0.801-0.198-1.368-0.198
			C79.312,148.152,78.826,148.53,78.826,149.124z"/>
	</g>
	<g enable-background="new    ">
		<path fill="#939598" d="M84.487,149.187c0,0.567,0.315,0.774,0.783,0.774c0.234,0,0.432-0.045,0.675-0.162v0.594
			c-0.243,0.126-0.504,0.198-0.837,0.198c-0.747,0-1.314-0.369-1.314-1.314v-2.809h-0.648v-0.612h0.648v-1.404h0.693v1.404h1.477
			v0.612h-1.477V149.187z"/>
		<path fill="#939598" d="M87.879,150.51h-0.693v-6.572h0.693v2.729c0.306-0.505,0.792-0.91,1.594-0.91
			c1.125,0,1.782,0.757,1.782,1.864v2.89h-0.693v-2.719c0-0.864-0.468-1.404-1.288-1.404c-0.801,0-1.396,0.585-1.396,1.458V150.51z"
			/>
	</g>
	<g enable-background="new    ">
		<path fill="#939598" d="M229.027,130.435v-0.455l4.098-1.345l-4.083-1.4v-0.582l4.938,1.752v0.469l-3.979,1.345l3.979,1.352v0.462
			l-4.938,1.752v-0.604l4.083-1.4L229.027,130.435z"/>
		<path fill="#939598" d="M228.355,123.45l6.485,3.25v0.497l-6.485-3.249V123.45z"/>
		<path fill="#939598" d="M233.944,121.098v1.702h-4.902v-1.702c0-1.541,1.058-2.605,2.444-2.605S233.944,119.557,233.944,121.098z
			 M229.552,121.098v1.148h3.88v-1.148c0-1.239-0.84-2.031-1.933-2.031S229.552,119.859,229.552,121.098z"/>
	</g>
	<g enable-background="new    ">
		<path fill="#939598" d="M19.043,184.716h-2.991v1.674h2.675v0.505h-2.675v1.716h3.026v0.504h-3.579v-4.902h3.544V184.716z"/>
	</g>
	<g enable-background="new    ">
		<path fill="#939598" d="M20.637,189.114h-0.539v-3.621h0.539v0.631c0.238-0.393,0.616-0.708,1.24-0.708
			c0.875,0,1.387,0.589,1.387,1.45v2.248h-0.54v-2.115c0-0.672-0.364-1.093-1.001-1.093c-0.623,0-1.085,0.455-1.085,1.135V189.114z"
			/>
	</g>
	<g enable-background="new    ">
		<path fill="#939598" d="M25.09,188.085c0,0.441,0.245,0.603,0.609,0.603c0.182,0,0.336-0.035,0.525-0.127v0.463
			c-0.189,0.098-0.392,0.154-0.651,0.154c-0.582,0-1.022-0.288-1.022-1.023v-2.185h-0.504v-0.477h0.504V184.4h0.539v1.093h1.149
			v0.477H25.09V188.085z"/>
		<path fill="#939598" d="M27.729,189.114H27.19v-3.621h0.539v0.945c0.266-0.602,0.792-1.036,1.478-1.008v0.581h-0.042
			c-0.791,0-1.436,0.567-1.436,1.66V189.114z"/>
		<path fill="#939598" d="M31.789,189.233c-0.308,0.749-0.658,1.022-1.205,1.022c-0.301,0-0.525-0.063-0.771-0.182l0.182-0.428
			c0.175,0.091,0.336,0.133,0.567,0.133c0.322,0,0.525-0.168,0.742-0.679l-1.646-3.607h0.595l1.317,3.019l1.163-3.019h0.574
			L31.789,189.233z"/>
	</g>
	<g enable-background="new    ">
		<path fill="#939598" d="M223.697,169.505c0,1.414-1.113,2.459-2.528,2.459c-1.4,0-2.542-1.037-2.542-2.48
			c0-0.889,0.314-1.422,0.777-1.912l0.406,0.379c-0.393,0.413-0.673,0.875-0.673,1.541c0,1.086,0.876,1.897,2.018,1.897
			s2.031-0.819,2.031-1.897c0-0.673-0.26-1.113-0.708-1.583l0.357-0.364C223.354,168.055,223.697,168.615,223.697,169.505z"/>
		<path fill="#939598" d="M223.613,166.622h-5.112v-0.539h5.112V166.622z"/>
		<path fill="#939598" d="M223.697,163.177c0,1.086-0.854,1.877-1.884,1.877s-1.898-0.798-1.898-1.891
			c0-1.086,0.854-1.884,1.884-1.884C222.829,161.279,223.697,162.085,223.697,163.177z M220.391,163.177
			c0,0.785,0.623,1.324,1.407,1.324c0.785,0,1.415-0.574,1.415-1.338c0-0.784-0.623-1.33-1.4-1.33
			C221.021,161.833,220.391,162.414,220.391,163.177z"/>
		<path fill="#939598" d="M223.683,159.11c0,0.519-0.203,1.093-0.532,1.499l-0.386-0.272c0.294-0.393,0.463-0.827,0.463-1.254
			c0-0.435-0.225-0.75-0.575-0.75h-0.014c-0.364,0-0.504,0.428-0.638,0.904c-0.16,0.566-0.356,1.197-1.022,1.197h-0.014
			c-0.623,0-1.036-0.519-1.036-1.232c0-0.441,0.153-0.932,0.398-1.303l0.406,0.244c-0.217,0.337-0.35,0.723-0.35,1.072
			c0,0.428,0.224,0.7,0.525,0.7h0.014c0.343,0,0.477-0.448,0.623-0.932c0.168-0.56,0.386-1.163,1.037-1.163h0.014
			C223.284,157.821,223.683,158.389,223.683,159.11z"/>
		<path fill="#939598" d="M223.228,155.225c0-0.497-0.203-0.848-0.512-1.142l0.301-0.336c0.406,0.364,0.68,0.806,0.68,1.491
			c0,0.995-0.764,1.807-1.891,1.807c-1.051,0-1.892-0.734-1.892-1.736c0-1.071,0.854-1.688,1.919-1.688c0.05,0,0.105,0,0.168,0.007
			v2.872C222.787,156.423,223.228,155.862,223.228,155.225z M221.603,154.168c-0.658,0.056-1.233,0.435-1.233,1.155
			c0,0.631,0.525,1.107,1.233,1.178V154.168z"/>
		<path fill="#939598" d="M222.584,151.95c0.441,0,0.603-0.245,0.603-0.609c0-0.182-0.035-0.336-0.127-0.525h0.463
			c0.098,0.189,0.154,0.393,0.154,0.651c0,0.581-0.288,1.022-1.023,1.022h-2.185v0.504h-0.477v-0.504h-1.093v-0.539h1.093v-1.148
			h0.477v1.148H222.584z"/>
	</g>
	<g enable-background="new    ">
		<path fill="#939598" d="M140.177,139.446c1.404,0.307,2.053,0.819,2.053,1.792c0,1.089-0.9,1.791-2.151,1.791
			c-0.999,0-1.818-0.333-2.575-1.008l0.441-0.522c0.658,0.594,1.287,0.892,2.161,0.892c0.847,0,1.404-0.441,1.404-1.081
			c0-0.594-0.315-0.927-1.639-1.206c-1.449-0.315-2.116-0.783-2.116-1.827c0-1.009,0.874-1.729,2.071-1.729
			c0.919,0,1.575,0.261,2.215,0.774l-0.414,0.549c-0.585-0.478-1.171-0.685-1.819-0.685c-0.818,0-1.341,0.45-1.341,1.026
			C138.468,138.816,138.792,139.149,140.177,139.446z"/>
		<path fill="#939598" d="M143.625,142.939v-6.572h0.692v6.572H143.625z"/>
		<path fill="#939598" d="M147.98,142.444c0.64,0,1.09-0.261,1.469-0.657l0.432,0.387c-0.469,0.522-1.035,0.874-1.918,0.874
			c-1.278,0-2.322-0.981-2.322-2.431c0-1.351,0.945-2.432,2.232-2.432c1.377,0,2.17,1.099,2.17,2.467c0,0.063,0,0.136-0.01,0.217
			h-3.69C146.441,141.877,147.162,142.444,147.98,142.444z M149.34,140.355c-0.071-0.846-0.558-1.584-1.484-1.584
			c-0.811,0-1.423,0.675-1.513,1.584H149.34z"/>
		<path fill="#939598" d="M153.308,142.444c0.639,0,1.09-0.261,1.468-0.657l0.433,0.387c-0.469,0.522-1.036,0.874-1.918,0.874
			c-1.279,0-2.322-0.981-2.322-2.431c0-1.351,0.945-2.432,2.232-2.432c1.377,0,2.17,1.099,2.17,2.467c0,0.063,0,0.136-0.01,0.217
			h-3.691C151.769,141.877,152.49,142.444,153.308,142.444z M154.668,140.355c-0.072-0.846-0.559-1.584-1.485-1.584
			c-0.81,0-1.423,0.675-1.513,1.584H154.668z"/>
		<path fill="#939598" d="M159.06,143.038c-0.865,0-1.423-0.468-1.783-0.99v2.332h-0.693v-6.095h0.693v0.937
			c0.379-0.559,0.928-1.036,1.783-1.036c1.115,0,2.223,0.883,2.223,2.422C161.283,142.138,160.185,143.038,159.06,143.038z
			 M158.933,138.807c-0.863,0-1.684,0.72-1.684,1.8c0,1.09,0.82,1.81,1.684,1.81c0.9,0,1.639-0.666,1.639-1.8
			C160.572,139.51,159.816,138.807,158.933,138.807z"/>
		<path fill="#939598" d="M162.578,137.267v-0.765h0.793v0.765H162.578z M162.623,142.939v-4.654h0.693v4.654H162.623z"/>
		<path fill="#939598" d="M165.62,142.939h-0.692v-4.654h0.692v0.811c0.306-0.505,0.792-0.91,1.594-0.91
			c1.125,0,1.782,0.757,1.782,1.864v2.89h-0.693v-2.719c0-0.864-0.468-1.404-1.287-1.404c-0.801,0-1.396,0.585-1.396,1.458V142.939z
			"/>
		<path fill="#939598" d="M172.533,144.397c-0.775,0-1.495-0.216-2.116-0.647l0.315-0.54c0.531,0.387,1.125,0.594,1.791,0.594
			c1.026,0,1.693-0.567,1.693-1.656v-0.55c-0.406,0.541-0.973,0.981-1.828,0.981c-1.116,0-2.188-0.828-2.188-2.188
			c0-1.368,1.08-2.206,2.188-2.206c0.873,0,1.44,0.433,1.818,0.937v-0.837h0.693v3.844
			C174.9,143.633,173.964,144.397,172.533,144.397z M172.523,138.798c-0.882,0-1.611,0.604-1.611,1.576
			c0,0.954,0.747,1.593,1.611,1.593c0.883,0,1.711-0.63,1.711-1.584C174.234,139.419,173.406,138.798,172.523,138.798z"/>
		<path fill="#939598" d="M185.134,142.939h-0.766l-0.738-1.665h-3.43l-0.747,1.665h-0.729l2.872-6.347h0.666L185.134,142.939z
			 M181.92,137.421l-1.441,3.214h2.873L181.92,137.421z"/>
		<path fill="#939598" d="M186.949,142.939h-0.692v-4.654h0.692v1.215c0.343-0.773,1.018-1.332,1.9-1.296v0.747h-0.055
			c-1.017,0-1.846,0.729-1.846,2.134V142.939z"/>
		<path fill="#939598" d="M191.756,142.444c0.64,0,1.09-0.261,1.469-0.657l0.432,0.387c-0.469,0.522-1.035,0.874-1.918,0.874
			c-1.278,0-2.322-0.981-2.322-2.431c0-1.351,0.945-2.432,2.232-2.432c1.377,0,2.17,1.099,2.17,2.467c0,0.063,0,0.136-0.01,0.217
			h-3.69C190.217,141.877,190.937,142.444,191.756,142.444z M193.115,140.355c-0.071-0.846-0.558-1.584-1.484-1.584
			c-0.811,0-1.423,0.675-1.513,1.584H193.115z"/>
		<path fill="#939598" d="M195.302,139.177l-0.207-0.567c0.513-0.234,1.017-0.388,1.691-0.388c1.27,0,1.98,0.648,1.98,1.873v2.845
			h-0.666v-0.702c-0.324,0.423-0.863,0.801-1.684,0.801c-0.863,0-1.736-0.485-1.736-1.458c0-0.99,0.81-1.513,1.988-1.513
			c0.595,0,1.018,0.081,1.432,0.198v-0.162c0-0.837-0.513-1.27-1.387-1.27C196.166,138.834,195.734,138.978,195.302,139.177z
			 M195.383,141.552c0,0.595,0.541,0.937,1.171,0.937c0.854,0,1.558-0.522,1.558-1.261v-0.449c-0.342-0.1-0.802-0.198-1.369-0.198
			C195.869,140.581,195.383,140.959,195.383,141.552z"/>
	</g>
	<g enable-background="new    ">
		<path fill="#939598" d="M143.975,147.593h0.522v6.347h-0.703v-5.608l-1.188,0.369l-0.172-0.576L143.975,147.593z"/>
		<path fill="#939598" d="M148.619,154.048c-1.629,0-2.655-1.477-2.655-3.25s1.044-3.269,2.674-3.269c1.62,0,2.647,1.477,2.647,3.25
			S150.24,154.048,148.619,154.048z M148.619,148.177c-1.179,0-1.917,1.206-1.917,2.602s0.757,2.62,1.936,2.62
			s1.909-1.216,1.909-2.602C150.547,149.411,149.799,148.177,148.619,148.177z"/>
		<path fill="#939598" d="M152.696,147.637h0.847v0.045l-0.73,2.403h-0.387L152.696,147.637z"/>
		<path fill="#939598" d="M158.619,147.593v4.258h0.981v0.595h-0.981v1.494h-0.684v-1.494h-3.322l-0.18-0.514l3.564-4.339H158.619z
			 M157.935,148.6l-2.647,3.25h2.647V148.6z"/>
		<path fill="#939598" d="M160.94,147.637h0.837v0.045l-0.729,2.403h-0.379L160.94,147.637z M162.705,147.637h0.828v0.045
			l-0.729,2.403h-0.378L162.705,147.637z"/>
		<path fill="#939598" d="M171.56,153.939h-0.801l-1.44-1.899l-1.449,1.899h-0.774l1.828-2.368l-1.756-2.286h0.792l1.378,1.801
			l1.377-1.801h0.774l-1.765,2.269L171.56,153.939z"/>
		<path fill="#939598" d="M177.446,154.029c-1.341,0-2.368-0.729-2.368-1.791c0-0.757,0.541-1.288,1.297-1.558
			c-0.586-0.271-1.08-0.721-1.08-1.459c0-0.98,0.999-1.674,2.151-1.674s2.151,0.693,2.151,1.674c0,0.738-0.495,1.188-1.08,1.459
			c0.747,0.279,1.297,0.792,1.297,1.548C179.814,153.309,178.787,154.029,177.446,154.029z M177.446,151.013
			c-0.919,0-1.647,0.495-1.647,1.206c0,0.648,0.611,1.188,1.647,1.188c1.035,0,1.647-0.54,1.647-1.188
			C179.094,151.509,178.364,151.013,177.446,151.013z M177.446,148.169c-0.819,0-1.44,0.459-1.44,1.098
			c0,0.693,0.639,1.162,1.44,1.162s1.44-0.469,1.44-1.162C178.886,148.636,178.265,148.169,177.446,148.169z"/>
		<path fill="#939598" d="M181.135,147.637h0.847v0.045l-0.73,2.403h-0.387L181.135,147.637z"/>
		<path fill="#939598" d="M183.097,147.637h4.276v0.531l-2.863,5.771h-0.792l2.845-5.653h-3.466V147.637z"/>
		<path fill="#939598" d="M188.705,147.637h0.836v0.045l-0.729,2.403h-0.379L188.705,147.637z M190.469,147.637h0.828v0.045
			l-0.729,2.403h-0.379L190.469,147.637z"/>
	</g>
	<g enable-background="new    ">
		<path fill="#939598" d="M105.817,48.818h0.711v5.645h3.547v0.657h-4.258V48.818z"/>
		<path fill="#939598" d="M111.289,49.448v-0.765h0.792v0.765H111.289z M111.334,55.12v-4.654h0.693v4.654H111.334z"/>
		<path fill="#939598" d="M117.086,50.466h0.747l-2.025,4.69h-0.612l-2.017-4.69h0.766l1.566,3.862L117.086,50.466z"/>
		<path fill="#939598" d="M118.939,49.448v-0.765h0.792v0.765H118.939z M118.984,55.12v-4.654h0.693v4.654H118.984z"/>
		<path fill="#939598" d="M121.981,55.12h-0.693v-4.654h0.693v0.811c0.306-0.505,0.792-0.91,1.593-0.91
			c1.125,0,1.783,0.757,1.783,1.864v2.89h-0.693v-2.719c0-0.864-0.469-1.404-1.287-1.404c-0.802,0-1.396,0.585-1.396,1.458V55.12z"
			/>
		<path fill="#939598" d="M128.893,56.578c-0.774,0-1.495-0.216-2.116-0.647l0.315-0.54c0.531,0.387,1.126,0.594,1.792,0.594
			c1.025,0,1.692-0.567,1.692-1.656v-0.55c-0.405,0.541-0.973,0.981-1.827,0.981c-1.117,0-2.188-0.828-2.188-2.188
			c0-1.368,1.08-2.206,2.188-2.206c0.873,0,1.439,0.433,1.818,0.937v-0.837h0.693v3.844
			C131.261,55.813,130.324,56.578,128.893,56.578z M128.885,50.978c-0.883,0-1.611,0.604-1.611,1.576
			c0,0.954,0.746,1.593,1.611,1.593c0.882,0,1.711-0.63,1.711-1.584C130.595,51.599,129.766,50.978,128.885,50.978z"/>
		<path fill="#939598" d="M136.661,47.935l-4.177,8.337h-0.64l4.177-8.337H136.661z"/>
		<path fill="#939598" d="M139.684,55.12h-2.188v-6.302h2.188c1.98,0,3.349,1.359,3.349,3.142
			C143.033,53.743,141.665,55.12,139.684,55.12z M139.684,49.475h-1.477v4.987h1.477c1.593,0,2.61-1.08,2.61-2.484
			S141.277,49.475,139.684,49.475z"/>
		<path fill="#939598" d="M144.435,49.448v-0.765h0.793v0.765H144.435z M144.48,55.12v-4.654h0.693v4.654H144.48z"/>
		<path fill="#939598" d="M147.477,55.12h-0.692v-4.654h0.692v0.811c0.306-0.505,0.792-0.91,1.594-0.91
			c1.125,0,1.782,0.757,1.782,1.864v2.89h-0.693v-2.719c0-0.864-0.468-1.404-1.287-1.404c-0.801,0-1.396,0.585-1.396,1.458V55.12z"
			/>
		<path fill="#939598" d="M152.345,49.448v-0.765h0.793v0.765H152.345z M152.391,55.12v-4.654h0.692v4.654H152.391z"/>
		<path fill="#939598" d="M155.388,55.12h-0.693v-4.654h0.693v0.811c0.307-0.505,0.793-0.91,1.594-0.91
			c1.125,0,1.782,0.757,1.782,1.864v2.89h-0.692v-2.719c0-0.864-0.469-1.404-1.288-1.404c-0.802,0-1.396,0.585-1.396,1.458V55.12z"
			/>
		<path fill="#939598" d="M162.301,56.578c-0.773,0-1.494-0.216-2.115-0.647l0.314-0.54c0.531,0.387,1.126,0.594,1.792,0.594
			c1.026,0,1.692-0.567,1.692-1.656v-0.55c-0.404,0.541-0.973,0.981-1.827,0.981c-1.116,0-2.188-0.828-2.188-2.188
			c0-1.368,1.081-2.206,2.188-2.206c0.873,0,1.44,0.433,1.818,0.937v-0.837h0.693v3.844
			C164.669,55.813,163.732,56.578,162.301,56.578z M162.292,50.978c-0.882,0-1.611,0.604-1.611,1.576
			c0,0.954,0.747,1.593,1.611,1.593c0.882,0,1.71-0.63,1.71-1.584C164.002,51.599,163.174,50.978,162.292,50.978z"/>
		<path fill="#939598" d="M174.902,55.12h-0.766l-0.738-1.665h-3.43l-0.748,1.665h-0.729l2.872-6.347h0.666L174.902,55.12z
			 M171.687,49.601l-1.439,3.214h2.871L171.687,49.601z"/>
		<path fill="#939598" d="M176.719,55.12h-0.693v-4.654h0.693v1.215c0.342-0.773,1.018-1.332,1.899-1.296v0.747h-0.054
			c-1.018,0-1.846,0.729-1.846,2.134V55.12z"/>
		<path fill="#939598" d="M181.525,54.625c0.639,0,1.089-0.261,1.467-0.657l0.433,0.387c-0.468,0.522-1.036,0.874-1.917,0.874
			c-1.279,0-2.323-0.981-2.323-2.431c0-1.351,0.945-2.432,2.232-2.432c1.378,0,2.17,1.099,2.17,2.467c0,0.063,0,0.136-0.009,0.217
			h-3.691C179.986,54.057,180.706,54.625,181.525,54.625z M182.885,52.536c-0.072-0.846-0.559-1.584-1.486-1.584
			c-0.81,0-1.422,0.675-1.512,1.584H182.885z"/>
		<path fill="#939598" d="M185.07,51.357l-0.207-0.567c0.514-0.234,1.018-0.388,1.693-0.388c1.27,0,1.98,0.648,1.98,1.873v2.845
			h-0.666v-0.702c-0.324,0.423-0.865,0.801-1.684,0.801c-0.865,0-1.738-0.485-1.738-1.458c0-0.99,0.811-1.513,1.99-1.513
			c0.594,0,1.018,0.081,1.432,0.198v-0.162c0-0.837-0.514-1.27-1.387-1.27C185.935,51.014,185.503,51.159,185.07,51.357z
			 M185.152,53.733c0,0.595,0.539,0.937,1.17,0.937c0.855,0,1.557-0.522,1.557-1.261V52.96c-0.342-0.1-0.801-0.198-1.367-0.198
			C185.637,52.761,185.152,53.139,185.152,53.733z"/>
	</g>
	<g enable-background="new    ">
		<path fill="#939598" d="M120.34,58.773h0.522v6.347h-0.702v-5.608l-1.188,0.369l-0.171-0.576L120.34,58.773z"/>
		<path fill="#939598" d="M122.842,60.447l-0.522-0.378c0.567-0.846,1.161-1.341,2.269-1.341c1.143,0,1.953,0.756,1.953,1.791
			c0,0.928-0.486,1.495-1.594,2.458l-1.683,1.494h3.34v0.648h-4.402v-0.549l2.286-2.017c0.964-0.864,1.314-1.351,1.314-1.98
			c0-0.738-0.584-1.207-1.27-1.207C123.813,59.367,123.345,59.745,122.842,60.447z"/>
		<path fill="#939598" d="M128.016,58.818h0.847v0.045l-0.73,2.403h-0.387L128.016,58.818z"/>
		<path fill="#939598" d="M131.158,58.773h0.521v6.347h-0.702v-5.608l-1.188,0.369l-0.171-0.576L131.158,58.773z"/>
		<path fill="#939598" d="M134.379,58.773h0.522v6.347h-0.702v-5.608l-1.188,0.369l-0.172-0.576L134.379,58.773z"/>
		<path fill="#939598" d="M136.666,58.818h0.836v0.045l-0.729,2.403h-0.379L136.666,58.818z M138.429,58.818h0.828v0.045
			l-0.729,2.403h-0.379L138.429,58.818z"/>
		<path fill="#939598" d="M147.286,65.12h-0.802l-1.439-1.899l-1.449,1.899h-0.775l1.828-2.368l-1.756-2.286h0.793l1.377,1.801
			l1.377-1.801h0.775l-1.766,2.269L147.286,65.12z"/>
		<path fill="#939598" d="M152.127,58.773h0.521v6.347h-0.701v-5.608l-1.188,0.369l-0.171-0.576L152.127,58.773z"/>
		<path fill="#939598" d="M156.771,65.228c-1.63,0-2.656-1.477-2.656-3.25s1.045-3.269,2.674-3.269c1.621,0,2.646,1.477,2.646,3.25
			S158.391,65.228,156.771,65.228z M156.771,59.358c-1.18,0-1.918,1.206-1.918,2.602s0.756,2.62,1.936,2.62s1.908-1.216,1.908-2.602
			C158.697,60.592,157.951,59.358,156.771,59.358z"/>
		<path fill="#939598" d="M160.847,58.818h0.846v0.045l-0.729,2.403h-0.388L160.847,58.818z"/>
		<path fill="#939598" d="M163.988,58.773h0.522v6.347h-0.702v-5.608l-1.188,0.369l-0.172-0.576L163.988,58.773z"/>
		<path fill="#939598" d="M168.633,65.228c-1.629,0-2.656-1.477-2.656-3.25s1.045-3.269,2.674-3.269c1.621,0,2.647,1.477,2.647,3.25
			S170.254,65.228,168.633,65.228z M168.633,59.358c-1.18,0-1.918,1.206-1.918,2.602s0.757,2.62,1.936,2.62
			c1.18,0,1.909-1.216,1.909-2.602C170.559,60.592,169.812,59.358,168.633,59.358z"/>
		<path fill="#939598" d="M172.709,58.818h0.838v0.045l-0.729,2.403h-0.378L172.709,58.818z M174.473,58.818h0.829v0.045
			l-0.73,2.403h-0.377L174.473,58.818z"/>
	</g>
	<g enable-background="new    ">
		<path fill="#939598" d="M22.349,138.089c0,1.414-1.113,2.459-2.528,2.459c-1.4,0-2.542-1.037-2.542-2.48
			c0-0.889,0.314-1.422,0.777-1.912l0.406,0.379c-0.393,0.413-0.673,0.875-0.673,1.541c0,1.086,0.876,1.897,2.018,1.897
			s2.031-0.819,2.031-1.897c0-0.673-0.26-1.113-0.708-1.583l0.357-0.364C22.007,136.639,22.349,137.199,22.349,138.089z"/>
		<path fill="#939598" d="M22.265,135.206h-5.112v-0.539h5.112V135.206z"/>
		<path fill="#939598" d="M22.349,131.76c0,1.086-0.854,1.877-1.884,1.877s-1.898-0.798-1.898-1.891
			c0-1.086,0.854-1.884,1.884-1.884C21.481,129.863,22.349,130.669,22.349,131.76z M19.044,131.76c0,0.785,0.623,1.324,1.407,1.324
			c0.785,0,1.415-0.574,1.415-1.338c0-0.784-0.623-1.33-1.4-1.33C19.674,130.417,19.044,130.998,19.044,131.76z"/>
		<path fill="#939598" d="M22.336,127.694c0,0.519-0.203,1.093-0.532,1.499l-0.386-0.272c0.294-0.393,0.463-0.827,0.463-1.254
			c0-0.435-0.225-0.75-0.575-0.75h-0.014c-0.364,0-0.504,0.428-0.638,0.904c-0.16,0.566-0.356,1.197-1.022,1.197h-0.014
			c-0.623,0-1.036-0.519-1.036-1.232c0-0.441,0.153-0.932,0.398-1.303l0.406,0.244c-0.217,0.337-0.35,0.723-0.35,1.072
			c0,0.428,0.224,0.7,0.525,0.7h0.014c0.343,0,0.477-0.448,0.623-0.932c0.168-0.56,0.386-1.163,1.037-1.163h0.014
			C21.936,126.405,22.336,126.973,22.336,127.694z"/>
		<path fill="#939598" d="M21.881,123.809c0-0.497-0.203-0.848-0.512-1.142l0.301-0.336c0.406,0.364,0.68,0.806,0.68,1.491
			c0,0.995-0.764,1.807-1.891,1.807c-1.051,0-1.892-0.734-1.892-1.736c0-1.071,0.854-1.688,1.919-1.688c0.05,0,0.105,0,0.168,0.007
			v2.872C21.439,125.007,21.881,124.446,21.881,123.809z M20.256,122.752c-0.658,0.056-1.233,0.435-1.233,1.155
			c0,0.631,0.525,1.107,1.233,1.178V122.752z"/>
		<path fill="#939598" d="M21.236,120.534c0.441,0,0.603-0.245,0.603-0.609c0-0.182-0.035-0.336-0.127-0.525h0.463
			c0.098,0.189,0.154,0.393,0.154,0.651c0,0.581-0.288,1.022-1.023,1.022h-2.185v0.504h-0.477v-0.504h-1.093v-0.539h1.093v-1.148
			h0.477v1.148H21.236z"/>
	</g>
	<g enable-background="new    ">
		<path fill="#939598" d="M8.455,76.18H7.35v1.605H6.837v-4.55H8.54c1.027,0,1.703,0.546,1.703,1.449
			C10.243,75.674,9.424,76.18,8.455,76.18z M8.501,73.711H7.35v2.002h1.125c0.754,0,1.248-0.403,1.248-1.008
			C9.723,74.049,9.235,73.711,8.501,73.711z"/>
		<path fill="#939598" d="M11.224,75.069l-0.149-0.41c0.371-0.169,0.734-0.279,1.222-0.279c0.917,0,1.43,0.468,1.43,1.353v2.054
			h-0.481v-0.507c-0.234,0.306-0.624,0.578-1.215,0.578c-0.624,0-1.254-0.351-1.254-1.053c0-0.715,0.585-1.092,1.437-1.092
			c0.429,0,0.734,0.059,1.033,0.143v-0.117c0-0.604-0.37-0.916-1.001-0.916C11.848,74.822,11.536,74.926,11.224,75.069z
			 M11.282,76.785c0,0.429,0.39,0.676,0.845,0.676c0.617,0,1.125-0.377,1.125-0.91v-0.325c-0.247-0.071-0.579-0.143-0.988-0.143
			C11.634,76.083,11.282,76.356,11.282,76.785z"/>
		<path fill="#939598" d="M15.293,77.786h-0.5v-3.36h0.5v0.585c0.221-0.364,0.572-0.656,1.15-0.656c0.812,0,1.287,0.546,1.287,1.345
			v2.087h-0.5v-1.963c0-0.624-0.338-1.015-0.93-1.015c-0.578,0-1.007,0.423-1.007,1.054V77.786z"/>
	</g>
	<g enable-background="new    ">
		<path fill="#939598" d="M19.537,76.831c0,0.409,0.228,0.559,0.566,0.559c0.169,0,0.312-0.032,0.487-0.117v0.429
			c-0.175,0.092-0.364,0.144-0.604,0.144c-0.54,0-0.949-0.267-0.949-0.949v-2.028h-0.468v-0.441h0.468v-1.015h0.5v1.015h1.066v0.441
			h-1.066V76.831z"/>
	</g>
	<g enable-background="new    ">
		<path fill="#939598" d="M22.092,77.786h-0.5v-3.36h0.5v0.877c0.247-0.559,0.734-0.962,1.372-0.936v0.539h-0.039
			c-0.734,0-1.333,0.526-1.333,1.541V77.786z"/>
	</g>
	<g enable-background="new    ">
		<path fill="#939598" d="M26.077,77.896c-0.286,0.695-0.611,0.949-1.118,0.949c-0.28,0-0.488-0.059-0.715-0.169l0.169-0.396
			c0.162,0.084,0.312,0.123,0.526,0.123c0.299,0,0.487-0.155,0.689-0.63l-1.527-3.348h0.552l1.222,2.802l1.079-2.802h0.533
			L26.077,77.896z"/>
	</g>
</g>
</svg>
