<?xml version="1.0" encoding="utf-8"?>
<!-- Generator: Adobe Illustrator 15.0.2, SVG Export Plug-In . SVG Version: 6.00 Build 0)  -->
<!DOCTYPE svg PUBLIC "-//W3C//DTD SVG 1.1//EN" "http://www.w3.org/Graphics/SVG/1.1/DTD/svg11.dtd">
<svg version="1.1" id="Layer_1" xmlns="http://www.w3.org/2000/svg" xmlns:xlink="http://www.w3.org/1999/xlink" x="0px" y="0px"
	 width="337.797px" height="333.926px" viewBox="0 0 337.797 333.926" enable-background="new 0 0 337.797 333.926"
	 xml:space="preserve">
<g id="_x32_0_x25___PMS_2985_fill">
	<polygon fill="#FFFFFF" points="1.512,18.65 1.512,332.441 178.012,332.441 178.012,316.941 233.012,316.941 233.012,331.441 
		336.512,331.441 336.512,18.441 216.512,18.441 216.512,8.941 127.512,8.941 127.512,15.941 101.012,15.941 101.012,19.441 	"/>
</g>
<g id="_x33_0_x25__grey_fill">
	<rect x="234.262" y="310.707" fill="#D1D3D4" width="22.25" height="21.484"/>
	<rect x="310.512" y="308.055" fill="#D1D3D4" width="24.785" height="23.295"/>
	<rect x="101.127" y="17.307" fill="#D1D3D4" width="32.635" height="9.135"/>
	<rect x="209.654" y="17.307" fill="#D1D3D4" width="38.949" height="8.627"/>
	<rect x="323.512" y="20.441" fill="#D1D3D4" width="12.25" height="5.75"/>
	<rect x="2.5" y="20.664" fill="#D1D3D4" width="24.762" height="5.027"/>
</g>
<g id="icons">
	<polyline fill="#FFFFFF" stroke="#939598" points="114.916,206.441 114.916,310.608 177.68,310.608 177.68,331.426 93.345,331.426 
		93.345,206.275 113.582,206.275 	"/>
	<g>
		<rect x="138.012" y="18.891" fill="none" stroke="#939598" width="37.5" height="1.98"/>
		<rect x="166.762" y="20.855" fill="none" stroke="#939598" width="41" height="1.766"/>
	</g>
	<g>
		<rect x="214.262" y="9.566" fill="none" stroke="#939598" width="2.875" height="2.875"/>
		<rect x="127.762" y="9.566" fill="none" stroke="#939598" width="2.875" height="2.875"/>
		<line fill="none" stroke="#939598" x1="214.512" y1="11.691" x2="130.637" y2="11.691"/>
		<line fill="none" stroke="#939598" x1="214.262" y1="12.441" x2="214.262" y2="15.941"/>
		<line fill="none" stroke="#939598" x1="130.08" y1="12.441" x2="130.08" y2="17.066"/>
		<line fill="none" stroke="#939598" x1="127.762" y1="12.441" x2="127.762" y2="16.816"/>
		<line fill="none" stroke="#939598" x1="130.637" y1="9.566" x2="214.762" y2="9.566"/>
		<line fill="none" stroke="#939598" x1="217.137" y1="12.441" x2="217.137" y2="15.957"/>
	</g>
	<line fill="none" stroke="#939598" x1="101.845" y1="26.691" x2="27.512" y2="26.691"/>
	<line fill="none" stroke="#939598" x1="322.762" y1="26.96" x2="248.43" y2="26.96"/>
	<g>
		<polygon fill="none" stroke="#939598" points="64.778,175.602 63.129,175.652 63.114,199.43 64.785,199.441 		"/>
		<path fill="none" stroke="#939598" d="M64.032,199.46c-13.114-0.444-23.383-11.246-22.936-24.358"/>
	</g>
	<g>
		<polygon fill="none" stroke="#939598" points="264.327,259.188 265.997,259.195 266.014,283.016 264.342,283.006 		"/>
		<path fill="none" stroke="#939598" d="M265.096,283.023c13.113-0.444,23.383-11.225,22.936-24.338"/>
	</g>
	<g>
		<polygon fill="none" stroke="#939598" points="64.733,251.482 63.063,251.496 63.047,227.678 64.761,227.665 		"/>
		<path fill="none" stroke="#939598" d="M64.03,227.646c-13.114,0.444-23.383,11.289-22.936,24.401"/>
	</g>
	<g>
		<polygon fill="none" stroke="#939598" points="272.876,196.96 272.885,195.374 295.512,195.357 295.504,196.945 		"/>
		<path fill="none" stroke="#939598" d="M295.521,196.23c-0.424-12.459-10.664-22.215-23.121-21.789"/>
	</g>
	<g>
		<polygon fill="none" stroke="#939598" points="242.609,220.473 244.279,220.484 244.295,196.666 242.581,196.652 		"/>
		<path fill="none" stroke="#939598" d="M243.312,196.635c13.113,0.445,23.383,11.289,22.936,24.402"/>
	</g>
	<g>
		<polygon fill="none" stroke="#939598" points="233.824,298.302 234.664,296.956 215.535,284.869 214.695,286.216 		"/>
		<path fill="none" stroke="#939598" d="M246.242,279.514"/>
		<path fill="none" stroke="#939598" d="M215.062,285.602c4.342-6.389,11.318-9.889,18.449-9.959"/>
	</g>
	<g>
		<polygon fill="none" stroke="#939598" points="113.712,167.792 113.703,166.207 91.076,166.191 91.084,167.779 		"/>
		<path fill="none" stroke="#939598" d="M91.066,167.063c0.424-12.458,10.664-22.321,23.121-21.896"/>
	</g>
	<g>
		<polygon fill="none" stroke="#939598" points="304.512,228.441 304.503,230.027 281.876,230.044 281.884,228.456 		"/>
		<path fill="none" stroke="#939598" d="M281.866,229.172c0.424,12.458,10.663,22.214,23.12,21.788"/>
	</g>
	<g>
		<polygon fill="none" stroke="#939598" points="113.564,181.727 113.571,182.995 131.672,183.007 131.666,181.736 		"/>
		<path fill="none" stroke="#939598" d="M131.68,182.311c-0.339,9.967-8.531,17.771-18.497,17.43"/>
	</g>
	
		<rect x="136.044" y="254.461" transform="matrix(-0.7071 -0.7072 0.7072 -0.7071 83.6199 562.8127)" fill="#FFFFFF" stroke="#939598" width="44.68" height="19.252"/>
	<line fill="none" stroke="#939598" x1="245.012" y1="260.441" x2="245.012" y2="310.691"/>
	<line fill="none" stroke="#939598" x1="78.262" y1="176.691" x2="78.262" y2="249.871"/>
	<polyline fill="none" stroke="#939598" points="34.012,176.941 34.012,185.941 13.262,185.941 13.262,240.441 34.762,240.441 
		34.762,251.191 	"/>
	<line fill="none" stroke="#939598" x1="100.762" y1="176.941" x2="100.762" y2="206.191"/>
	<polyline fill="none" stroke="#939598" points="274.762,163.441 324.762,163.441 324.762,208.941 275.012,208.941 	"/>
	
		<line fill="none" stroke="#939598" stroke-dasharray="1.5,1.5,1.5,1.5,1.5,1.5" x1="80.656" y1="176.691" x2="80.656" y2="251.441"/>
	
		<line fill="none" stroke="#939598" stroke-dasharray="1.5,1.5,1.5,1.5,1.5,1.5" x1="98.617" y1="176.941" x2="98.617" y2="206.691"/>
	
		<line fill="none" stroke="#939598" stroke-dasharray="1.5,1.5,1.5,1.5,1.5,1.5" x1="247.32" y1="259.691" x2="247.32" y2="310.191"/>
	<polyline fill="none" stroke="#939598" stroke-dasharray="1.5,1.5,1.5,1.5,1.5,1.5" points="274.512,160.918 327.244,160.918 
		327.244,211.287 274.762,211.287 	"/>
	<polyline fill="none" stroke="#939598" stroke-dasharray="1.5,1.5,1.5,1.5,1.5,1.5" points="33.512,183.312 10.711,183.312 
		10.711,242.793 34.762,242.793 	"/>
	<polyline fill="#FFFFFF" stroke="#939598" points="286.262,329.941 286.262,311.953 309.68,311.953 309.68,331.942 	"/>
	<rect x="74.598" y="251.275" fill="#FFFFFF" stroke="#939598" width="19.572" height="79.666"/>
	<g>
		<g>
			<g>
				<g>
					<rect x="310.729" y="229.439" fill="#FFFFFF" stroke="#939598" width="18.545" height="20.188"/>
					<path fill="#FFFFFF" stroke="#939598" d="M319.385,239.534"/>
					<polyline fill="#FFFFFF" stroke="#939598" points="316.262,233.409 313.439,233.409 312.782,235.848 312.782,243.314 
						313.439,245.784 316.262,245.784 					"/>
					<line fill="none" stroke="#939598" x1="316.262" y1="249.773" x2="316.262" y2="229.439"/>
					<path fill="#FFFFFF" stroke="#939598" d="M318.438,239.598"/>
				</g>
			</g>
		</g>
		<polygon fill="#FFFFFF" stroke="#939598" points="315.045,248.646 315.041,247.016 316.18,246.657 316.184,249.005 		"/>
	</g>
	<g>
		<path fill="#FFFFFF" stroke="#939598" stroke-miterlimit="10" d="M279.38,316.406c0-4.462-2.711-9.376-6.053-9.376
			c-3.343,0-6.041,4.914-6.041,9.376c0,4.463,2.698,6.785,6.041,6.785C276.669,323.191,279.38,320.869,279.38,316.406"/>
		<path fill="#FFFFFF" stroke="#939598" d="M279.38,316.406c0-4.462-2.711-9.376-6.053-9.376c-3.343,0-6.041,4.914-6.041,9.376
			c0,4.463,2.698,6.785,6.041,6.785C276.669,323.191,279.38,320.869,279.38,316.406z"/>
		<path fill="#FFFFFF" stroke="#939598" stroke-miterlimit="10" d="M269.704,321.729c0-0.25-0.205-0.454-0.455-0.454h-2.106
			c-0.25,0-0.455,0.204-0.455,0.454v0.077c0,0.25,0.205,0.455,0.455,0.455h2.106c0.25,0,0.455-0.205,0.455-0.455V321.729z"/>
		<path fill="#FFFFFF" stroke="#939598" d="M269.704,321.729c0-0.25-0.205-0.454-0.455-0.454h-2.106
			c-0.25,0-0.455,0.204-0.455,0.454v0.077c0,0.25,0.205,0.455,0.455,0.455h2.106c0.25,0,0.455-0.205,0.455-0.455V321.729z"/>
		<path fill="#FFFFFF" stroke="#939598" stroke-miterlimit="10" d="M266.366,322.272c-0.759,0-1.375,2.057-1.375,2.815
			c0,0.77,0.616,2.825,1.375,2.825h13.813c0.76,0,1.375-2.057,1.375-2.825c0-0.76-0.615-2.813-1.375-2.813L266.366,322.272z"/>
		<path fill="#FFFFFF" stroke="#939598" d="M266.366,322.272c-0.759,0-1.375,2.057-1.375,2.815c0,0.77,0.616,2.825,1.375,2.825
			h13.813c0.76,0,1.375-2.057,1.375-2.825c0-0.76-0.615-2.813-1.375-2.813L266.366,322.272z"/>
		<path fill="#FFFFFF" stroke="#939598" stroke-miterlimit="10" d="M277.775,316.22c0-3.278-1.991-6.893-4.448-6.893
			s-4.447,3.613-4.447,6.893c0,3.28,1.99,4.985,4.447,4.985S277.775,319.499,277.775,316.22"/>
		<path fill="#FFFFFF" stroke="#939598" d="M277.775,316.22c0-3.278-1.991-6.893-4.448-6.893s-4.447,3.613-4.447,6.893
			c0,3.28,1.99,4.985,4.447,4.985S277.775,319.499,277.775,316.22z"/>
	</g>
	<g>
		<g>
			<g>
				<rect x="308.837" y="261.104" fill="#FFFFFF" stroke="#939598" width="24.496" height="46.75"/>
				<path fill="#FFFFFF" stroke="#939598" d="M321.104,285.104"/>
			</g>
			<g>
				<polyline fill="#FFFFFF" stroke="#939598" points="321.343,306.428 331.134,306.428 331.134,262.859 311.038,262.859 
					311.038,306.428 320.439,306.428 				"/>
				<path fill="#FFFFFF" stroke="#939598" d="M321.104,285.104"/>
			</g>
			<line fill="none" stroke="#939598" x1="311.038" y1="306.428" x2="320.428" y2="286.027"/>
			<line fill="none" stroke="#939598" x1="321.816" y1="284.207" x2="331.134" y2="262.859"/>
			<line fill="none" stroke="#939598" x1="311.038" y1="262.859" x2="320.336" y2="284.102"/>
			<line fill="none" stroke="#939598" x1="321.841" y1="286.061" x2="331.134" y2="306.428"/>
			<g>
				<path fill="#FFFFFF" stroke="#939598" d="M322.152,285.104c0-0.6-0.588-1.084-1.049-1.084c-0.459,0-0.975,0.484-0.975,1.084
					c0,0.599,0.516,1.084,0.975,1.084C321.564,286.188,322.152,285.701,322.152,285.104z"/>
				<path fill="#FFFFFF" stroke="#939598" d="M321.104,285.104"/>
			</g>
		</g>
		<path fill="#FFFFFF" stroke="#939598" d="M322.12,304.83c0-0.617-2.231-0.617-2.231,0s0.5,1.115,1.115,1.115
			C321.622,305.945,322.12,305.447,322.12,304.83z"/>
		<polyline fill="#FFFFFF" stroke="#939598" points="320.773,308.148 320.773,306.014 321.396,306.014 321.396,308.15 		"/>
	</g>
	<g>
		<path fill="#FFFFFF" stroke="#939598" stroke-miterlimit="10" d="M17.643,272.923c4.462,0,9.376-2.711,9.376-6.053
			c0-3.343-4.914-6.041-9.376-6.041c-4.463,0-6.785,2.698-6.785,6.041C10.858,270.212,13.18,272.923,17.643,272.923"/>
		<path fill="#FFFFFF" stroke="#939598" d="M17.643,272.923c4.462,0,9.376-2.711,9.376-6.053c0-3.343-4.914-6.041-9.376-6.041
			c-4.463,0-6.785,2.698-6.785,6.041C10.858,270.212,13.18,272.923,17.643,272.923z"/>
		<path fill="#FFFFFF" stroke="#939598" stroke-miterlimit="10" d="M12.321,263.247c0.25,0,0.455-0.205,0.455-0.455v-2.106
			c0-0.25-0.205-0.455-0.455-0.455h-0.077c-0.25,0-0.455,0.205-0.455,0.455v2.106c0,0.25,0.205,0.455,0.455,0.455H12.321z"/>
		<path fill="#FFFFFF" stroke="#939598" d="M12.321,263.247c0.25,0,0.455-0.205,0.455-0.455v-2.106c0-0.25-0.205-0.455-0.455-0.455
			h-0.077c-0.25,0-0.455,0.205-0.455,0.455v2.106c0,0.25,0.205,0.455,0.455,0.455H12.321z"/>
		<path fill="#FFFFFF" stroke="#939598" stroke-miterlimit="10" d="M11.777,259.909c0-0.759-2.057-1.375-2.816-1.375
			c-0.769,0-2.825,0.616-2.825,1.375v13.813c0,0.76,2.057,1.375,2.825,1.375c0.76,0,2.814-0.615,2.814-1.375L11.777,259.909z"/>
		<path fill="#FFFFFF" stroke="#939598" d="M11.777,259.909c0-0.759-2.057-1.375-2.816-1.375c-0.769,0-2.825,0.616-2.825,1.375
			v13.813c0,0.76,2.057,1.375,2.825,1.375c0.76,0,2.814-0.615,2.814-1.375L11.777,259.909z"/>
		<path fill="#FFFFFF" stroke="#939598" stroke-miterlimit="10" d="M17.83,271.318c3.279,0,6.893-1.991,6.893-4.448
			s-3.613-4.447-6.893-4.447c-3.28,0-4.985,1.99-4.985,4.447S14.55,271.318,17.83,271.318"/>
		<path fill="#FFFFFF" stroke="#939598" d="M17.83,271.318c3.279,0,6.893-1.991,6.893-4.448s-3.613-4.447-6.893-4.447
			c-3.28,0-4.985,1.99-4.985,4.447S14.55,271.318,17.83,271.318z"/>
	</g>
	<g>
		<g>
			<rect x="4.8" y="283.82" fill="#FFFFFF" stroke="#939598" width="23.625" height="45.692"/>
			<path fill="#FFFFFF" stroke="#939598" d="M16.612,306.666"/>
			<path fill="#FFFFFF" stroke="#939598" d="M16.612,306.51"/>
			<path fill="#FFFFFF" stroke="#939598" d="M16.612,291.016"/>
		</g>
		<circle fill="#FFFFFF" stroke="#939598" cx="16.501" cy="294.234" r="0.969"/>
		<path fill="#FFFFFF" stroke="#939598" d="M16.54,326.904c6.771,0,9.25-1.562,9.25-3.752c0,0,0-32.84,0-33.377
			c0-0.535-0.145-1.642-1.561-1.642c-1.418,0-7.689,0-7.689,0h-0.016c0,0-6.271,0-7.689,0c-1.416,0-1.561,1.104-1.561,1.642
			s0,33.354,0,33.354l0.002,0.021C7.276,325.342,9.812,326.904,16.54,326.904z"/>
		<path fill="#FFFFFF" stroke="#939598" d="M18.532,286.436c-0.002,0.549,0.441,0.988,0.996,0.988c0.537,0,0.982-0.439,0.986-0.988
			c-0.004-0.545-0.449-0.994-0.986-0.994C18.974,285.441,18.53,285.885,18.532,286.436z"/>
		<path fill="#FFFFFF" stroke="#939598" d="M12.392,286.436c-0.006,0.549,0.445,0.988,0.99,0.988c0.543,0,0.99-0.439,0.99-0.988
			c0-0.545-0.447-0.994-0.99-0.987C12.835,285.441,12.392,285.891,12.392,286.436z"/>
		<path fill="#FFFFFF" stroke="#939598" d="M17.835,286.143c0-0.812-0.549-1.469-1.361-1.471c-0.811,0.002-1.254,0.658-1.254,1.471
			l0.521,5.592c0,0.55,1.482,0.55,1.482,0L17.835,286.143z"/>
	</g>
	<g>
		<g>
			<path fill="#FFFFFF" stroke="#939598" d="M97.693,259.398c0-0.426,0.344-0.771,0.771-0.771h13.445
				c0.426,0,0.771,0.346,0.771,0.771v22.807c0,0.426-0.346,0.771-0.771,0.771H98.465c-0.428,0-0.771-0.347-0.771-0.771
				L97.693,259.398L97.693,259.398z"/>
			<path fill="#FFFFFF" stroke="#939598" d="M104.605,270.721"/>
		</g>
		<g>
			<circle fill="#FFFFFF" stroke="#939598" cx="105.517" cy="270.721" r="0.871"/>
			<path fill="#FFFFFF" stroke="#939598" d="M105.516,270.721"/>
		</g>
		<g>
			<g>
				<rect x="98.229" y="266.916" fill="#FFFFFF" stroke="#939598" width="1.82" height="7.609"/>
				<path fill="#FFFFFF" stroke="#939598" d="M99.139,270.721"/>
			</g>
			<g>
				<rect x="100.002" y="270.332" fill="#FFFFFF" stroke="#939598" width="3.586" height="0.777"/>
				<path fill="#FFFFFF" stroke="#939598" d="M101.563,270.721"/>
			</g>
			<g>
				<circle fill="#FFFFFF" stroke="#939598" cx="99.157" cy="270.721" r="0.847"/>
				<path fill="#FFFFFF" stroke="#939598" d="M99.157,270.721"/>
			</g>
		</g>
		<g>
			<path fill="#FFFFFF" stroke="#939598" d="M105.516,270.721"/>
			<path fill="none" stroke="#939598" d="M100.679,270.252v-9.59c0-0.447,0.362-0.811,0.81-0.811h9.221
				c0.445,0,0.809,0.362,0.809,0.811v20.279c0,0.447-0.363,0.811-0.809,0.811h-9.221c-0.447,0-0.81-0.363-0.81-0.811v-9.726"/>
		</g>
	</g>
	<g>
		<g>
			<rect x="137.46" y="308.434" fill="#FFFFFF" stroke="#939598" width="23.25" height="19.75"/>
			<path fill="#FFFFFF" stroke="#939598" d="M149.085,318.309"/>
		</g>
		<g>
			<g>
				<circle fill="#FFFFFF" stroke="#939598" cx="154.4" cy="312.809" r="2.824"/>
				<path fill="#FFFFFF" stroke="#939598" d="M154.4,312.809"/>
			</g>
			<g>
				<circle fill="#FFFFFF" stroke="#939598" stroke-width="0.8" cx="154.429" cy="312.81" r="1.989"/>
				<path fill="#FFFFFF" stroke="#939598" d="M154.429,312.809"/>
			</g>
		</g>
		<g>
			<g>
				<circle fill="#FFFFFF" stroke="#939598" cx="143.113" cy="321.059" r="2.824"/>
				<path fill="#FFFFFF" stroke="#939598" d="M143.113,321.059"/>
			</g>
			<g>
				<circle fill="#FFFFFF" stroke="#939598" stroke-width="0.8" cx="143.085" cy="321.06" r="1.989"/>
				<path fill="#FFFFFF" stroke="#939598" d="M143.085,321.059"/>
			</g>
		</g>
		<g>
			<g>
				<circle fill="#FFFFFF" stroke="#939598" cx="154.438" cy="321.031" r="3.219"/>
				<path fill="#FFFFFF" stroke="#939598" d="M154.438,321.031"/>
			</g>
			<g>
				<circle fill="#FFFFFF" stroke="#939598" stroke-width="0.8" cx="154.407" cy="321.031" r="2.268"/>
				<path fill="#FFFFFF" stroke="#939598" d="M154.407,321.031"/>
			</g>
		</g>
		<g>
			<g>
				<circle fill="#FFFFFF" stroke="#939598" cx="143.126" cy="312.592" r="3.219"/>
				<path fill="#FFFFFF" stroke="#939598" d="M143.126,312.592"/>
			</g>
			<g>
				<circle fill="#FFFFFF" stroke="#939598" stroke-width="0.8" cx="143.094" cy="312.592" r="2.268"/>
				<path fill="#FFFFFF" stroke="#939598" d="M143.094,312.592"/>
			</g>
		</g>
		<line fill="none" stroke="#939598" x1="160.741" y1="325.451" x2="137.46" y2="325.451"/>
		<line fill="none" stroke="#939598" x1="160.71" y1="326.543" x2="137.46" y2="326.543"/>
	</g>
	<g>
		<g>
			<rect x="96.788" y="208.826" fill="#FFFFFF" stroke="#939598" width="21.969" height="24.9"/>
			<path fill="#FFFFFF" stroke="#939598" d="M107.772,219.988"/>
		</g>
		<line fill="none" stroke="#939598" x1="117.221" y1="233.787" x2="117.221" y2="208.826"/>
		<rect x="118.772" y="210.904" fill="#FFFFFF" stroke="#939598" width="1.069" height="2.018"/>
		<path fill="#FFFFFF" stroke="#939598" d="M119.248,211.913"/>
	</g>
	<g>
		<polyline fill="#FFFFFF" stroke="#939598" points="118.409,236.852 118.409,235.018 96.576,235.018 96.576,249.184 
			118.409,249.184 118.409,247.352 		"/>
		<g>
			<g>
				<g>
					<polygon fill="none" stroke="#939598" stroke-width="0.7" points="127.293,242.189 126.606,240.938 118.013,246.146 
						118.7,247.398 					"/>
					<path fill="none" stroke="#939598" stroke-width="0.8" d="M121.958,245.12"/>
				</g>
				<path fill="none" stroke="#939598" stroke-width="0.8" d="M126.879,241.712c-1.94-3.203-5.394-4.926-8.888-4.812"/>
			</g>
		</g>
	</g>
	<g>
		<polygon fill="none" stroke="#939598" points="222.732,318.097 221.062,318.109 221.048,294.291 222.762,294.277 		"/>
		<path fill="none" stroke="#939598" d="M222.029,294.26c-13.113,0.445-23.383,11.289-22.936,24.402"/>
	</g>
	<polyline fill="none" stroke="#939598" stroke-dasharray="1.5,1.5,1.5,1.5,1.5,1.5" points="106.345,295.775 106.345,320.608 
		178.012,320.608 	"/>
	
		<line fill="none" stroke="#939598" stroke-dasharray="1.5,1.5,1.5,1.5,1.5,1.5" x1="106.345" y1="245.943" x2="106.345" y2="290.109"/>
	
		<line fill="none" stroke="#939598" stroke-dasharray="1.5,1.5,1.5,1.5,1.5,1.5" x1="106.345" y1="224.275" x2="106.345" y2="239.109"/>
	
		<line fill="none" stroke="#939598" stroke-dasharray="1.5,1.5,1.5,1.5,1.5,1.5" x1="106.345" y1="207.941" x2="106.345" y2="217.609"/>
	<g>
		<polyline fill="none" stroke="#939598" stroke-dasharray="1.5,1,1.5,1,1.5,1" points="115.441,301.766 98.465,301.766 
			98.465,285.117 115.06,285.117 		"/>
		<polyline fill="#FFFFFF" stroke="#939598" points="115.06,285.092 116.068,285.092 116.068,301.766 115.447,301.766 		"/>
	</g>
	<g>
		<g>
			<g>
				<path fill="none" stroke="#939598" d="M297.846,318.857"/>
			</g>
			<g>
				<path fill="none" stroke="#939598" d="M297.846,319.92"/>
			</g>
			<g>
				<circle fill="none" stroke="#939598" cx="297.846" cy="318.857" r="1.017"/>
				<path fill="none" stroke="#939598" d="M297.846,318.857"/>
			</g>
			<g>
				<g>
					<rect x="293.58" y="325.232" fill="none" stroke="#939598" width="8.553" height="2.125"/>
					<path fill="none" stroke="#939598" d="M297.846,326.295"/>
				</g>
				<g>
					<rect x="297.393" y="321.107" fill="none" stroke="#939598" width="0.906" height="4.03"/>
					<path fill="none" stroke="#939598" d="M297.846,323.467"/>
				</g>
				<g>
					<circle fill="none" stroke="#939598" cx="297.846" cy="326.274" r="0.986"/>
					<path fill="none" stroke="#939598" d="M297.846,326.274"/>
				</g>
			</g>
		</g>
		<g>
			<rect x="289.318" y="313.808" fill="none" stroke="#939598" width="17.076" height="13.875"/>
			<rect x="290.711" y="315.202" fill="none" stroke="#939598" width="14.255" height="9.979"/>
		</g>
	</g>
	<g>
		<g>
			<g>
				<path fill="none" stroke="#939598" d="M82.011,276.622"/>
			</g>
			<g>
				<path fill="none" stroke="#939598" d="M83.074,276.622"/>
			</g>
			<g>
				<circle fill="none" stroke="#939598" cx="82.011" cy="276.622" r="1.017"/>
				<path fill="none" stroke="#939598" d="M82.011,276.622"/>
			</g>
			<g>
				<g>
					<rect x="88.386" y="272.335" fill="none" stroke="#939598" width="2.125" height="8.554"/>
					<path fill="none" stroke="#939598" d="M89.449,276.622"/>
				</g>
				<g>
					<rect x="84.261" y="276.169" fill="none" stroke="#939598" width="4.031" height="0.906"/>
					<path fill="none" stroke="#939598" d="M86.621,276.622"/>
				</g>
				<g>
					<circle fill="none" stroke="#939598" cx="89.428" cy="276.622" r="0.985"/>
					<path fill="none" stroke="#939598" d="M89.428,276.622"/>
				</g>
			</g>
		</g>
		<g>
			<rect x="76.961" y="268.073" fill="none" stroke="#939598" width="13.875" height="17.075"/>
			<rect x="78.356" y="269.502" fill="none" stroke="#939598" width="9.98" height="14.255"/>
		</g>
	</g>
	<g>
		<g>
			<g>
				<path fill="none" stroke="#939598" d="M82.012,304.607"/>
			</g>
			<g>
				<path fill="none" stroke="#939598" d="M83.074,304.607"/>
			</g>
			<g>
				<circle fill="none" stroke="#939598" cx="82.011" cy="304.608" r="1.017"/>
				<path fill="none" stroke="#939598" d="M82.012,304.607"/>
			</g>
			<g>
				<g>
					<rect x="88.387" y="300.32" fill="none" stroke="#939598" width="2.125" height="8.554"/>
					<path fill="none" stroke="#939598" d="M89.449,304.607"/>
				</g>
				<g>
					<rect x="84.262" y="304.154" fill="none" stroke="#939598" width="4.031" height="0.906"/>
					<path fill="none" stroke="#939598" d="M86.621,304.607"/>
				</g>
				<g>
					<circle fill="none" stroke="#939598" cx="89.428" cy="304.608" r="0.986"/>
					<path fill="none" stroke="#939598" d="M89.428,304.607"/>
				</g>
			</g>
		</g>
		<g>
			<rect x="76.961" y="296.061" fill="none" stroke="#939598" width="13.875" height="17.075"/>
			<rect x="78.355" y="297.488" fill="none" stroke="#939598" width="9.98" height="14.255"/>
		</g>
	</g>
</g>
<g id="walls">
	<path fill="none" stroke="#939598" stroke-width="3" d="M234.512,316.941"/>
	<line fill="none" stroke="#939598" stroke-width="3" x1="177.115" y1="318.608" x2="177.287" y2="307.377"/>
	<line fill="none" stroke="#939598" stroke-width="5" x1="138.021" y1="20.693" x2="134.512" y2="20.693"/>
	<line fill="none" stroke="#939598" stroke-width="5" x1="210.775" y1="20.708" x2="206.303" y2="20.708"/>
	<line fill="none" stroke="#939598" stroke-width="3" x1="233.512" y1="297.941" x2="233.512" y2="318.608"/>
	<polyline fill="none" stroke="#939598" stroke-width="3" points="264.262,259.602 233.512,259.602 233.512,275.619 	"/>
	<line fill="none" stroke="#939598" stroke-width="3" x1="334.131" y1="259.602" x2="287.701" y2="259.602"/>
	<polyline fill="none" stroke="#939598" stroke-width="5" points="199.68,317.941 178.182,317.941 178.061,331.426 2.5,331.426 
		2.5,20.664 101.772,20.686 	"/>
	<polyline fill="none" stroke="#939598" stroke-width="5" points="222.732,317.941 233.512,317.878 233.512,331.35 335.297,331.35 
		335.297,20.736 248.012,20.717 	"/>
	<line fill="none" stroke="#939598" stroke-width="4" x1="3.262" y1="282.191" x2="28.977" y2="282.191"/>
	<line fill="none" stroke="#939598" stroke-width="3" x1="257.012" y1="259.941" x2="257.012" y2="330.691"/>
	<line fill="none" stroke="#939598" stroke-width="3" x1="257.012" y1="310.707" x2="234.262" y2="310.707"/>
	<polyline fill="none" stroke="#939598" stroke-width="3" points="309.953,330.941 309.953,309.107 334.762,309.107 	"/>
	<polyline fill="none" stroke="#939598" stroke-width="3" points="242.369,220.068 233.512,220.068 233.512,26.191 	"/>
	<line fill="none" stroke="#939598" stroke-width="3" x1="335.512" y1="220.068" x2="265.803" y2="220.068"/>
	<polyline fill="none" stroke="#939598" stroke-width="3" points="273.262,174.68 273.262,152.363 335.262,152.363 	"/>
	<line fill="none" stroke="#939598" stroke-width="3" x1="273.262" y1="219.191" x2="273.262" y2="196.96"/>
	<polyline fill="none" stroke="#939598" stroke-width="5" points="209.633,20.695 209.633,17.393 248.604,17.307 248.604,20.717 	
		"/>
	<polyline fill="none" stroke="#939598" stroke-width="3" points="247.594,20.717 247.594,25.934 210.621,25.934 210.621,20.609 	
		"/>
	<polyline fill="none" stroke="#939598" stroke-width="5" points="101.127,20.942 101.127,17.307 134.217,17.307 134.217,20.693 	
		"/>
	<polyline fill="none" stroke="#939598" stroke-width="3" points="133.229,20.65 133.229,25.676 102.18,25.676 102.18,20.942 	"/>
	<polyline fill="none" stroke="#939598" stroke-width="3" points="323.512,20.441 323.512,25.928 334.512,25.928 	"/>
	<polyline fill="none" stroke="#939598" stroke-width="3" points="26.27,20.756 26.27,25.742 3.262,25.742 	"/>
	<line fill="none" stroke="#939598" stroke-width="3" x1="235.512" y1="26.941" x2="235.512" y2="219.941"/>
	<polyline fill="none" stroke="#939598" stroke-width="3" points="113.582,199.418 113.582,206.441 89.012,206.441 89.012,175.441 	
		"/>
	<line fill="none" stroke="#939598" stroke-width="3" x1="113.582" y1="167.934" x2="113.582" y2="181.812"/>
	<line fill="none" stroke="#939598" stroke-width="3" x1="113.582" y1="26.441" x2="113.582" y2="145.335"/>
	<line fill="none" stroke="#939598" stroke-width="3" x1="64.963" y1="175.691" x2="113.262" y2="175.691"/>
	<line fill="none" stroke="#939598" stroke-width="3" x1="3.869" y1="175.691" x2="41.471" y2="175.691"/>
	<line fill="none" stroke="#939598" stroke-width="4" x1="94.17" y1="207.441" x2="94.17" y2="330.941"/>
	<line fill="none" stroke="#939598" stroke-width="3" x1="64.678" y1="251.191" x2="93.262" y2="251.191"/>
	<line fill="none" stroke="#939598" stroke-width="3" x1="3.762" y1="251.191" x2="41.465" y2="251.191"/>
	<line fill="none" stroke="#939598" stroke-width="3" x1="304.512" y1="250.617" x2="304.512" y2="259.191"/>
	<line fill="none" stroke="#939598" stroke-width="3" x1="304.512" y1="219.941" x2="304.512" y2="228.193"/>
</g>
<g id="windows">
	<g>
		<g>
			<rect x="28.29" y="18.733" fill="#FFFFFF" stroke="#939598" width="69.562" height="3.674"/>
			<line fill="none" stroke="#939598" x1="97.852" y1="20.551" x2="27.54" y2="20.551"/>
			<line fill="none" stroke="#939598" stroke-width="2" x1="75.178" y1="22.565" x2="75.178" y2="19.071"/>
		</g>
		<line fill="none" stroke="#939598" stroke-width="2" x1="51.79" y1="22.69" x2="51.79" y2="19.088"/>
	</g>
	<g>
		<g>
			<rect x="251.789" y="18.894" fill="#FFFFFF" stroke="#939598" width="69.562" height="3.674"/>
			<line fill="none" stroke="#939598" x1="321.352" y1="20.712" x2="251.039" y2="20.712"/>
			<line fill="none" stroke="#939598" stroke-width="2" x1="298.678" y1="22.726" x2="298.678" y2="19.231"/>
		</g>
		<line fill="none" stroke="#939598" stroke-width="2" x1="275.289" y1="22.851" x2="275.289" y2="19.249"/>
	</g>
</g>
<g id="Type">
	<g enable-background="new    ">
		<path fill="#939598" d="M149.362,6.02c-0.735,0-1.205-0.364-1.513-0.869l0.399-0.343c0.301,0.455,0.609,0.7,1.121,0.7
			c0.553,0,0.959-0.399,0.959-1.177V1.047h0.561v3.277C150.889,5.452,150.238,6.02,149.362,6.02z"/>
		<path fill="#939598" d="M154.676,2.328h0.532v3.621h-0.532v-0.63c-0.245,0.392-0.617,0.707-1.24,0.707
			c-0.875,0-1.387-0.589-1.387-1.45V2.328h0.539v2.115c0,0.673,0.364,1.093,1.001,1.093c0.617,0,1.086-0.455,1.086-1.135V2.328z"/>
		<path fill="#939598" d="M156.467,5.949V0.837h0.539v5.112H156.467z"/>
		<path fill="#939598" d="M158.272,1.537V0.941h0.617v0.596H158.272z M158.308,5.949V2.328h0.539v3.621H158.308z"/>
		<path fill="#939598" d="M161.696,5.564c0.497,0,0.848-0.203,1.142-0.512l0.336,0.301c-0.364,0.406-0.805,0.68-1.492,0.68
			c-0.995,0-1.807-0.764-1.807-1.891c0-1.051,0.735-1.892,1.737-1.892c1.071,0,1.688,0.854,1.688,1.919c0,0.05,0,0.105-0.007,0.168
			h-2.872C160.499,5.123,161.059,5.564,161.696,5.564z M162.754,3.939c-0.056-0.658-0.434-1.233-1.156-1.233
			c-0.63,0-1.106,0.525-1.177,1.233H162.754z"/>
		<path fill="#939598" d="M164.972,4.92c0,0.441,0.245,0.603,0.609,0.603c0.182,0,0.336-0.035,0.525-0.127v0.463
			c-0.189,0.098-0.392,0.154-0.651,0.154c-0.582,0-1.022-0.288-1.022-1.023V2.805h-0.504V2.328h0.504V1.235h0.539v1.093h1.149v0.477
			h-1.149V4.92z"/>
		<path fill="#939598" d="M172.946,2.272c0,0.645-0.392,0.974-0.777,1.142c0.581,0.175,1.05,0.511,1.05,1.19
			c0,0.848-0.707,1.345-1.778,1.345h-2.178V1.047h2.087C172.316,1.047,172.946,1.522,172.946,2.272z M172.386,2.35
			c0-0.49-0.386-0.806-1.085-0.806h-1.492v1.688h1.449C171.924,3.231,172.386,2.931,172.386,2.35z M172.659,4.569
			c0-0.539-0.448-0.848-1.303-0.848h-1.548v1.73h1.646C172.197,5.452,172.659,5.123,172.659,4.569z"/>
		<path fill="#939598" d="M174.436,3.021l-0.162-0.441c0.4-0.182,0.792-0.301,1.317-0.301c0.987,0,1.54,0.504,1.54,1.457v2.213
			h-0.518V5.403c-0.252,0.329-0.672,0.623-1.311,0.623c-0.672,0-1.352-0.378-1.352-1.135c0-0.771,0.631-1.177,1.549-1.177
			c0.462,0,0.791,0.063,1.113,0.154V3.743c0-0.651-0.399-0.987-1.078-0.987C175.107,2.756,174.771,2.867,174.436,3.021z
			 M174.498,4.871c0,0.462,0.42,0.728,0.91,0.728c0.666,0,1.212-0.406,1.212-0.98v-0.35c-0.267-0.077-0.623-0.154-1.064-0.154
			C174.877,4.114,174.498,4.408,174.498,4.871z"/>
		<path fill="#939598" d="M178.327,5.949V0.837h0.539v5.112H178.327z"/>
		<path fill="#939598" d="M181.751,6.033c-1.058,0-1.856-0.861-1.856-1.884c0-1.029,0.799-1.898,1.856-1.898
			c0.687,0,1.113,0.287,1.45,0.645l-0.357,0.378c-0.287-0.301-0.609-0.546-1.1-0.546c-0.736,0-1.296,0.623-1.296,1.407
			c0,0.792,0.574,1.415,1.331,1.415c0.462,0,0.818-0.23,1.105-0.539l0.344,0.322C182.864,5.739,182.43,6.033,181.751,6.033z"/>
		<path fill="#939598" d="M185.664,6.033c-1.086,0-1.877-0.854-1.877-1.884s0.799-1.898,1.891-1.898
			c1.086,0,1.885,0.854,1.885,1.884C187.562,5.165,186.757,6.033,185.664,6.033z M185.664,2.728c-0.784,0-1.323,0.623-1.323,1.407
			c0,0.785,0.574,1.415,1.337,1.415c0.785,0,1.332-0.623,1.332-1.4C187.01,3.357,186.428,2.728,185.664,2.728z"/>
		<path fill="#939598" d="M189.072,5.949h-0.539V2.328h0.539v0.631c0.238-0.393,0.617-0.708,1.24-0.708
			c0.875,0,1.387,0.589,1.387,1.45v2.248h-0.539V3.834c0-0.672-0.364-1.093-1.002-1.093c-0.623,0-1.086,0.455-1.086,1.135V5.949z"/>
		<path fill="#939598" d="M194.506,6.068c-0.308,0.749-0.658,1.022-1.204,1.022c-0.302,0-0.525-0.063-0.771-0.182l0.182-0.428
			c0.176,0.091,0.337,0.133,0.568,0.133c0.322,0,0.525-0.168,0.742-0.679l-1.646-3.607h0.596l1.316,3.019l1.163-3.019h0.574
			L194.506,6.068z"/>
	</g>
	<g enable-background="new    ">
		<path fill="#939598" d="M320.332,244.071v-0.455l4.098-1.345l-4.083-1.4v-0.582l4.938,1.752v0.469l-3.979,1.345l3.979,1.352v0.462
			l-4.938,1.752v-0.604l4.083-1.4L320.332,244.071z"/>
		<path fill="#939598" d="M319.66,237.086l6.485,3.25v0.497l-6.485-3.249V237.086z"/>
		<path fill="#939598" d="M325.249,234.734v1.702h-4.902v-1.702c0-1.541,1.058-2.605,2.444-2.605S325.249,233.193,325.249,234.734z
			 M320.857,234.734v1.148h3.88v-1.148c0-1.239-0.84-2.031-1.933-2.031S320.857,233.495,320.857,234.734z"/>
	</g>
	<g enable-background="new    ">
		<path fill="#939598" d="M279.793,292.284c0,0.828-0.504,1.252-1,1.468c0.748,0.225,1.351,0.657,1.351,1.53
			c0,1.089-0.909,1.729-2.286,1.729h-2.801v-6.302h2.684C278.982,290.709,279.793,291.321,279.793,292.284z M279.072,292.384
			c0-0.631-0.495-1.036-1.395-1.036h-1.918v2.17h1.863C278.479,293.518,279.072,293.131,279.072,292.384z M279.424,295.237
			c0-0.693-0.576-1.09-1.675-1.09h-1.989v2.224h2.115C278.83,296.371,279.424,295.948,279.424,295.237z"/>
	</g>
	<g enable-background="new    ">
		<path fill="#939598" d="M281.709,293.248l-0.207-0.567c0.513-0.234,1.017-0.388,1.691-0.388c1.27,0,1.98,0.648,1.98,1.873v2.845
			h-0.666v-0.702c-0.324,0.423-0.863,0.801-1.684,0.801c-0.863,0-1.736-0.485-1.736-1.458c0-0.99,0.81-1.513,1.988-1.513
			c0.595,0,1.018,0.081,1.432,0.198v-0.162c0-0.837-0.513-1.27-1.387-1.27C282.572,292.905,282.141,293.05,281.709,293.248z
			 M281.789,295.624c0,0.595,0.541,0.937,1.171,0.937c0.854,0,1.558-0.522,1.558-1.261v-0.449c-0.342-0.1-0.802-0.198-1.369-0.198
			C282.275,294.652,281.789,295.03,281.789,295.624z"/>
	</g>
	<g enable-background="new    ">
		<path fill="#939598" d="M287.451,295.688c0,0.567,0.314,0.774,0.783,0.774c0.234,0,0.432-0.045,0.675-0.162v0.594
			c-0.243,0.126-0.504,0.198-0.837,0.198c-0.748,0-1.314-0.369-1.314-1.314v-2.809h-0.648v-0.612h0.648v-1.404h0.693v1.404h1.477
			v0.612h-1.477V295.688z"/>
		<path fill="#939598" d="M290.844,297.011h-0.693v-6.572h0.693v2.729c0.306-0.505,0.792-0.91,1.594-0.91
			c1.125,0,1.781,0.757,1.781,1.864v2.89h-0.692v-2.719c0-0.864-0.468-1.404-1.288-1.404c-0.801,0-1.395,0.585-1.395,1.458V297.011z
			"/>
	</g>
	<g enable-background="new    ">
		<path fill="#939598" d="M39.084,216.533c-1.415,0-2.458-1.113-2.458-2.528c0-1.4,1.037-2.542,2.479-2.542
			c0.89,0,1.422,0.314,1.912,0.777l-0.378,0.406c-0.413-0.393-0.875-0.673-1.541-0.673c-1.086,0-1.898,0.876-1.898,2.018
			s0.819,2.031,1.898,2.031c0.672,0,1.113-0.26,1.583-0.708l0.364,0.357C40.534,216.19,39.974,216.533,39.084,216.533z"/>
		<path fill="#939598" d="M41.967,216.449v-5.112h0.539v5.112H41.967z"/>
		<path fill="#939598" d="M45.412,216.533c-1.086,0-1.877-0.854-1.877-1.884s0.798-1.898,1.891-1.898
			c1.086,0,1.884,0.854,1.884,1.884C47.31,215.665,46.504,216.533,45.412,216.533z M45.412,213.228
			c-0.785,0-1.324,0.623-1.324,1.407c0,0.785,0.574,1.415,1.337,1.415c0.785,0,1.331-0.623,1.331-1.4
			C46.756,213.857,46.175,213.228,45.412,213.228z"/>
		<path fill="#939598" d="M49.478,216.52c-0.518,0-1.092-0.203-1.499-0.532l0.273-0.386c0.392,0.294,0.827,0.463,1.254,0.463
			c0.434,0,0.75-0.225,0.75-0.575v-0.014c0-0.364-0.427-0.504-0.904-0.638c-0.567-0.16-1.198-0.356-1.198-1.022v-0.014
			c0-0.623,0.519-1.036,1.233-1.036c0.441,0,0.932,0.153,1.303,0.398l-0.245,0.406c-0.336-0.217-0.722-0.35-1.072-0.35
			c-0.427,0-0.7,0.224-0.7,0.525v0.014c0,0.343,0.448,0.477,0.932,0.623c0.56,0.168,1.163,0.386,1.163,1.037v0.014
			C50.767,216.12,50.2,216.52,49.478,216.52z"/>
		<path fill="#939598" d="M53.363,216.064c0.497,0,0.848-0.203,1.142-0.512l0.336,0.301c-0.364,0.406-0.805,0.68-1.492,0.68
			c-0.995,0-1.807-0.764-1.807-1.891c0-1.051,0.735-1.892,1.737-1.892c1.071,0,1.688,0.854,1.688,1.919c0,0.05,0,0.105-0.007,0.168
			h-2.872C52.166,215.623,52.726,216.064,53.363,216.064z M54.421,214.439c-0.056-0.658-0.434-1.233-1.156-1.233
			c-0.63,0-1.106,0.525-1.177,1.233H54.421z"/>
		<path fill="#939598" d="M56.639,215.42c0,0.441,0.245,0.603,0.609,0.603c0.182,0,0.336-0.035,0.525-0.127v0.463
			c-0.189,0.098-0.392,0.154-0.651,0.154c-0.581,0-1.022-0.288-1.022-1.023v-2.185h-0.504v-0.477H56.1v-1.093h0.539v1.093h1.149
			v0.477h-1.149V215.42z"/>
	</g>
	<g enable-background="new    ">
		<path fill="#939598" d="M205.146,314.636h-2.991v1.674h2.676v0.505h-2.676v1.716h3.026v0.504h-3.579v-4.902h3.544V314.636z"/>
		<path fill="#939598" d="M206.74,319.034h-0.539v-3.621h0.539v0.631c0.238-0.393,0.615-0.708,1.239-0.708
			c0.876,0,1.387,0.589,1.387,1.45v2.248h-0.54v-2.115c0-0.672-0.363-1.093-1.001-1.093c-0.623,0-1.085,0.455-1.085,1.135V319.034z"
			/>
		<path fill="#939598" d="M211.24,318.005c0,0.441,0.246,0.603,0.609,0.603c0.183,0,0.337-0.035,0.525-0.127v0.463
			c-0.188,0.098-0.392,0.154-0.65,0.154c-0.582,0-1.023-0.288-1.023-1.023v-2.185h-0.504v-0.477h0.504v-1.093h0.539v1.093h1.149
			v0.477h-1.149V318.005z"/>
		<path fill="#939598" d="M213.88,319.034h-0.539v-3.621h0.539v0.945c0.267-0.602,0.792-1.036,1.478-1.008v0.581h-0.042
			c-0.791,0-1.436,0.567-1.436,1.66V319.034z"/>
		<path fill="#939598" d="M217.94,319.153c-0.308,0.749-0.658,1.022-1.204,1.022c-0.302,0-0.525-0.063-0.771-0.182l0.183-0.428
			c0.175,0.091,0.337,0.133,0.567,0.133c0.322,0,0.525-0.168,0.742-0.679l-1.646-3.607h0.595l1.317,3.019l1.163-3.019h0.574
			L217.94,319.153z"/>
	</g>
	<g enable-background="new    ">
		<path fill="#939598" d="M298.751,185.532c-1.415,0-2.458-1.113-2.458-2.528c0-1.4,1.036-2.542,2.479-2.542
			c0.891,0,1.422,0.314,1.912,0.777l-0.378,0.406c-0.413-0.393-0.876-0.673-1.54-0.673c-1.086,0-1.898,0.876-1.898,2.018
			s0.819,2.031,1.898,2.031c0.672,0,1.113-0.26,1.582-0.708l0.364,0.357C300.201,185.189,299.641,185.532,298.751,185.532z"/>
		<path fill="#939598" d="M301.634,185.448v-5.112h0.539v5.112H301.634z"/>
		<path fill="#939598" d="M305.078,185.532c-1.086,0-1.877-0.854-1.877-1.884s0.799-1.898,1.891-1.898
			c1.086,0,1.885,0.854,1.885,1.884C306.977,184.664,306.171,185.532,305.078,185.532z M305.078,182.227
			c-0.784,0-1.323,0.623-1.323,1.407c0,0.785,0.574,1.415,1.337,1.415c0.785,0,1.332-0.623,1.332-1.4
			C306.424,182.856,305.842,182.227,305.078,182.227z"/>
		<path fill="#939598" d="M309.145,185.519c-0.518,0-1.092-0.203-1.498-0.532l0.273-0.386c0.392,0.294,0.826,0.463,1.254,0.463
			c0.434,0,0.749-0.225,0.749-0.575v-0.014c0-0.364-0.427-0.504-0.903-0.638c-0.568-0.16-1.198-0.356-1.198-1.022v-0.014
			c0-0.623,0.519-1.036,1.233-1.036c0.441,0,0.932,0.153,1.303,0.398l-0.246,0.406c-0.336-0.217-0.721-0.35-1.071-0.35
			c-0.427,0-0.7,0.224-0.7,0.525v0.014c0,0.343,0.448,0.477,0.932,0.623c0.561,0.168,1.162,0.386,1.162,1.037v0.014
			C310.434,185.119,309.867,185.519,309.145,185.519z"/>
		<path fill="#939598" d="M313.03,185.063c0.497,0,0.848-0.203,1.142-0.512l0.336,0.301c-0.363,0.406-0.805,0.68-1.492,0.68
			c-0.994,0-1.807-0.764-1.807-1.891c0-1.051,0.736-1.892,1.737-1.892c1.071,0,1.688,0.854,1.688,1.919c0,0.05,0,0.105-0.008,0.168
			h-2.871C311.832,184.622,312.393,185.063,313.03,185.063z M314.088,183.438c-0.057-0.658-0.434-1.233-1.156-1.233
			c-0.63,0-1.105,0.525-1.176,1.233H314.088z"/>
		<path fill="#939598" d="M316.306,184.419c0,0.441,0.245,0.603,0.609,0.603c0.183,0,0.337-0.035,0.525-0.127v0.463
			c-0.188,0.098-0.392,0.154-0.651,0.154c-0.581,0-1.022-0.288-1.022-1.023v-2.185h-0.505v-0.477h0.505v-1.093h0.539v1.093h1.149
			v0.477h-1.149V184.419z"/>
	</g>
	<g enable-background="new    ">
		<path fill="#939598" d="M241.978,295.341c0,1.415-1.113,2.458-2.528,2.458c-1.4,0-2.542-1.036-2.542-2.479
			c0-0.891,0.314-1.422,0.777-1.912l0.406,0.378c-0.393,0.413-0.673,0.876-0.673,1.54c0,1.086,0.876,1.898,2.018,1.898
			s2.031-0.819,2.031-1.898c0-0.672-0.26-1.113-0.708-1.582l0.357-0.364C241.635,293.891,241.978,294.451,241.978,295.341z"/>
		<path fill="#939598" d="M241.894,292.458h-5.112v-0.539h5.112V292.458z"/>
		<path fill="#939598" d="M241.978,289.014c0,1.086-0.854,1.877-1.884,1.877s-1.898-0.799-1.898-1.891
			c0-1.086,0.854-1.885,1.884-1.885C241.109,287.115,241.978,287.921,241.978,289.014z M238.672,289.014
			c0,0.784,0.623,1.323,1.407,1.323c0.785,0,1.415-0.574,1.415-1.337c0-0.785-0.623-1.332-1.4-1.332
			C239.302,287.668,238.672,288.25,238.672,289.014z"/>
		<path fill="#939598" d="M241.964,284.947c0,0.518-0.203,1.092-0.532,1.498l-0.386-0.273c0.294-0.392,0.463-0.826,0.463-1.254
			c0-0.434-0.225-0.749-0.575-0.749h-0.014c-0.364,0-0.504,0.427-0.638,0.903c-0.16,0.568-0.356,1.198-1.022,1.198h-0.014
			c-0.623,0-1.036-0.519-1.036-1.233c0-0.441,0.153-0.932,0.398-1.303l0.406,0.246c-0.217,0.336-0.35,0.721-0.35,1.071
			c0,0.427,0.224,0.7,0.525,0.7h0.014c0.343,0,0.477-0.448,0.623-0.932c0.168-0.561,0.386-1.162,1.037-1.162h0.014
			C241.564,283.658,241.964,284.225,241.964,284.947z"/>
		<path fill="#939598" d="M241.509,281.062c0-0.497-0.203-0.848-0.512-1.142l0.301-0.336c0.406,0.363,0.68,0.805,0.68,1.492
			c0,0.994-0.764,1.807-1.891,1.807c-1.051,0-1.892-0.736-1.892-1.737c0-1.071,0.854-1.688,1.919-1.688c0.05,0,0.105,0,0.168,0.008
			v2.871C241.067,282.26,241.509,281.699,241.509,281.062z M239.884,280.004c-0.658,0.057-1.233,0.434-1.233,1.156
			c0,0.63,0.525,1.105,1.233,1.176V280.004z"/>
		<path fill="#939598" d="M240.864,277.786c0.441,0,0.603-0.245,0.603-0.609c0-0.183-0.035-0.337-0.127-0.525h0.463
			c0.098,0.188,0.154,0.392,0.154,0.651c0,0.581-0.288,1.022-1.023,1.022h-2.185v0.505h-0.477v-0.505h-1.093v-0.539h1.093v-1.149
			h0.477v1.149H240.864z"/>
	</g>
	<g enable-background="new    ">
		<path fill="#939598" d="M108.978,199.007c0,1.415-1.113,2.458-2.528,2.458c-1.4,0-2.542-1.036-2.542-2.479
			c0-0.891,0.314-1.422,0.777-1.912l0.406,0.378c-0.393,0.413-0.673,0.876-0.673,1.54c0,1.086,0.876,1.898,2.018,1.898
			s2.031-0.819,2.031-1.898c0-0.672-0.26-1.113-0.708-1.582l0.357-0.364C108.635,197.557,108.978,198.117,108.978,199.007z"/>
		<path fill="#939598" d="M108.894,196.124h-5.112v-0.539h5.112V196.124z"/>
		<path fill="#939598" d="M108.978,192.68c0,1.086-0.854,1.877-1.884,1.877s-1.898-0.799-1.898-1.891
			c0-1.086,0.854-1.885,1.884-1.885C108.109,190.781,108.978,191.587,108.978,192.68z M105.672,192.68
			c0,0.784,0.623,1.323,1.407,1.323c0.785,0,1.415-0.574,1.415-1.337c0-0.785-0.623-1.332-1.4-1.332
			C106.302,191.334,105.672,191.916,105.672,192.68z"/>
		<path fill="#939598" d="M108.964,188.613c0,0.518-0.203,1.092-0.532,1.498l-0.386-0.273c0.294-0.392,0.463-0.826,0.463-1.254
			c0-0.434-0.225-0.749-0.575-0.749h-0.014c-0.364,0-0.504,0.427-0.638,0.903c-0.16,0.568-0.356,1.198-1.022,1.198h-0.014
			c-0.623,0-1.036-0.519-1.036-1.233c0-0.441,0.153-0.932,0.398-1.303l0.406,0.246c-0.217,0.336-0.35,0.721-0.35,1.071
			c0,0.427,0.224,0.7,0.525,0.7h0.014c0.343,0,0.477-0.448,0.623-0.932c0.168-0.561,0.386-1.162,1.037-1.162h0.014
			C108.564,187.324,108.964,187.891,108.964,188.613z"/>
		<path fill="#939598" d="M108.509,184.728c0-0.497-0.203-0.848-0.512-1.142l0.301-0.336c0.406,0.363,0.68,0.805,0.68,1.492
			c0,0.994-0.764,1.807-1.891,1.807c-1.051,0-1.892-0.736-1.892-1.737c0-1.071,0.854-1.688,1.919-1.688c0.05,0,0.105,0,0.168,0.008
			v2.871C108.067,185.926,108.509,185.365,108.509,184.728z M106.884,183.67c-0.658,0.057-1.233,0.434-1.233,1.156
			c0,0.63,0.525,1.105,1.233,1.176V183.67z"/>
		<path fill="#939598" d="M107.864,181.452c0.441,0,0.603-0.245,0.603-0.609c0-0.183-0.035-0.337-0.127-0.525h0.463
			c0.098,0.188,0.154,0.392,0.154,0.651c0,0.581-0.288,1.022-1.023,1.022h-2.185v0.505h-0.477v-0.505h-1.093v-0.539h1.093v-1.149
			h0.477v1.149H107.864z"/>
	</g>
	<g enable-background="new    ">
		<path fill="#939598" d="M45.543,291.958c0,0.828-0.504,1.252-0.999,1.468c0.747,0.225,1.35,0.657,1.35,1.53
			c0,1.089-0.909,1.729-2.287,1.729h-2.8v-6.302h2.683C44.733,290.383,45.543,290.995,45.543,291.958z M44.823,292.058
			c0-0.631-0.495-1.036-1.395-1.036H41.51v2.17h1.864C44.229,293.191,44.823,292.805,44.823,292.058z M45.175,294.911
			c0-0.693-0.576-1.09-1.675-1.09h-1.99v2.224h2.116C44.581,296.045,45.175,295.622,45.175,294.911z"/>
	</g>
	<g enable-background="new    ">
		<path fill="#939598" d="M47.459,292.922l-0.207-0.567c0.513-0.234,1.017-0.388,1.692-0.388c1.27,0,1.98,0.648,1.98,1.873v2.845
			h-0.666v-0.702c-0.324,0.423-0.864,0.801-1.684,0.801c-0.864,0-1.737-0.485-1.737-1.458c0-0.99,0.81-1.513,1.989-1.513
			c0.594,0,1.018,0.081,1.432,0.198v-0.162c0-0.837-0.513-1.27-1.387-1.27C48.324,292.579,47.892,292.724,47.459,292.922z
			 M47.541,295.298c0,0.595,0.54,0.937,1.17,0.937c0.855,0,1.557-0.522,1.557-1.261v-0.449c-0.342-0.1-0.801-0.198-1.368-0.198
			C48.026,294.326,47.541,294.704,47.541,295.298z"/>
	</g>
	<g enable-background="new    ">
		<path fill="#939598" d="M53.202,295.361c0,0.567,0.315,0.774,0.783,0.774c0.234,0,0.432-0.045,0.675-0.162v0.594
			c-0.243,0.126-0.504,0.198-0.837,0.198c-0.747,0-1.314-0.369-1.314-1.314v-2.809H51.86v-0.612h0.648v-1.404h0.693v1.404h1.477
			v0.612h-1.477V295.361z"/>
		<path fill="#939598" d="M56.594,296.685h-0.693v-6.572h0.693v2.729c0.306-0.505,0.792-0.91,1.594-0.91
			c1.125,0,1.782,0.757,1.782,1.864v2.89h-0.693v-2.719c0-0.864-0.468-1.404-1.288-1.404c-0.801,0-1.396,0.585-1.396,1.458V296.685z
			"/>
	</g>
	<g enable-background="new    ">
		<path fill="#939598" d="M154.155,256.362l-3.466,3.467l-0.392-0.392l3.466-3.466L154.155,256.362z"/>
		<path fill="#939598" d="M152.436,261.676c-0.366-0.366-0.629-0.916-0.683-1.437l0.465-0.079c0.07,0.485,0.257,0.911,0.56,1.214
			c0.307,0.307,0.688,0.371,0.937,0.123l0.01-0.01c0.257-0.258,0.054-0.658-0.188-1.09c-0.288-0.514-0.595-1.099-0.124-1.57
			l0.01-0.01c0.44-0.439,1.099-0.365,1.604,0.141c0.312,0.312,0.55,0.767,0.639,1.202l-0.46,0.114
			c-0.084-0.392-0.263-0.758-0.511-1.006c-0.302-0.302-0.653-0.336-0.867-0.123l-0.01,0.01c-0.242,0.242-0.02,0.654,0.218,1.1
			c0.277,0.514,0.55,1.094,0.089,1.555l-0.009,0.01C153.629,262.306,152.946,262.187,152.436,261.676z"/>
		<path fill="#939598" d="M154.138,263.278l3.615-3.614l0.381,0.382l-3.615,3.614L154.138,263.278z"/>
		<path fill="#939598" d="M157.624,262.624l0.198-0.426c0.411,0.154,0.772,0.348,1.144,0.719c0.698,0.698,0.733,1.445,0.059,2.119
			l-1.564,1.564l-0.367-0.366l0.386-0.386c-0.411,0.055-0.916-0.035-1.366-0.485c-0.476-0.476-0.689-1.224-0.154-1.759
			c0.545-0.545,1.278-0.386,1.927,0.264c0.327,0.326,0.515,0.604,0.678,0.896l0.089-0.089c0.461-0.461,0.416-0.98-0.064-1.461
			C158.287,262.912,157.971,262.753,157.624,262.624z M156.36,263.977c-0.327,0.327-0.217,0.812,0.129,1.159
			c0.47,0.47,1.144,0.568,1.55,0.162l0.248-0.247c-0.134-0.242-0.332-0.55-0.644-0.861
			C157.163,263.709,156.688,263.649,156.36,263.977z"/>
		<path fill="#939598" d="M158.652,267.793l-0.381-0.382l2.561-2.561l0.381,0.382l-0.446,0.446c0.446-0.109,0.936-0.064,1.377,0.376
			c0.619,0.619,0.564,1.396-0.045,2.006l-1.589,1.589l-0.381-0.381l1.496-1.496c0.475-0.475,0.515-1.029,0.064-1.48
			c-0.44-0.44-1.089-0.445-1.569,0.035L158.652,267.793z"/>
		<path fill="#939598" d="M163.375,272.516l0.515-0.515c-0.516,0.1-1.08,0.06-1.55-0.411c-0.614-0.614-0.738-1.708,0.109-2.556
			c0.842-0.842,1.947-0.728,2.561-0.113c0.476,0.475,0.525,1.039,0.436,1.524l1.544-1.544l0.381,0.381l-3.615,3.615L163.375,272.516
			z M164.737,269.331c-0.495-0.494-1.268-0.534-1.892,0.09c-0.609,0.609-0.58,1.411-0.094,1.896c0.476,0.476,1.322,0.529,1.921-0.07
			C165.267,270.653,165.212,269.808,164.737,269.331z"/>
	</g>
	<g enable-background="new    ">
		<path fill="#939598" d="M134.173,295.261h-0.891l-2.422-3.052l-1.341,1.359v1.692h-0.711v-6.302h0.711v3.763l3.619-3.763h0.918
			l-2.701,2.755L134.173,295.261z"/>
		<path fill="#939598" d="M135.179,289.589v-0.765h0.792v0.765H135.179z M135.224,295.261v-4.654h0.693v4.654H135.224z"/>
		<path fill="#939598" d="M138.464,293.938c0,0.567,0.315,0.774,0.783,0.774c0.234,0,0.432-0.045,0.675-0.162v0.594
			c-0.243,0.126-0.504,0.198-0.837,0.198c-0.747,0-1.314-0.369-1.314-1.314v-2.809h-0.648v-0.612h0.648v-1.404h0.693v1.404h1.477
			v0.612h-1.477V293.938z"/>
		<path fill="#939598" d="M143.128,295.369c-1.359,0-2.386-1.107-2.386-2.422c0-1.323,1.026-2.44,2.386-2.44
			c0.882,0,1.431,0.369,1.863,0.829l-0.459,0.485c-0.369-0.387-0.783-0.702-1.414-0.702c-0.945,0-1.666,0.802-1.666,1.81
			c0,1.018,0.738,1.819,1.71,1.819c0.594,0,1.053-0.298,1.422-0.693l0.441,0.414C144.559,294.99,144.001,295.369,143.128,295.369z"
			/>
		<path fill="#939598" d="M146.862,295.261h-0.693v-6.572h0.693v2.729c0.306-0.505,0.792-0.91,1.594-0.91
			c1.125,0,1.782,0.757,1.782,1.864v2.89h-0.693v-2.719c0-0.864-0.468-1.404-1.288-1.404c-0.801,0-1.396,0.585-1.396,1.458V295.261z
			"/>
		<path fill="#939598" d="M153.765,294.766c0.639,0,1.089-0.261,1.468-0.657l0.432,0.387c-0.468,0.522-1.036,0.874-1.918,0.874
			c-1.278,0-2.322-0.981-2.322-2.431c0-1.351,0.945-2.432,2.232-2.432c1.377,0,2.17,1.099,2.17,2.467c0,0.063,0,0.136-0.009,0.217
			h-3.691C152.226,294.198,152.946,294.766,153.765,294.766z M155.125,292.677c-0.072-0.846-0.558-1.584-1.485-1.584
			c-0.81,0-1.422,0.675-1.512,1.584H155.125z"/>
		<path fill="#939598" d="M157.734,295.261h-0.693v-4.654h0.693v0.811c0.306-0.505,0.792-0.91,1.594-0.91
			c1.125,0,1.782,0.757,1.782,1.864v2.89h-0.693v-2.719c0-0.864-0.468-1.404-1.288-1.404c-0.801,0-1.396,0.585-1.396,1.458V295.261z
			"/>
	</g>
	<g enable-background="new    ">
		<path fill="#939598" d="M103.509,295.949h-1.702v-4.902h1.702c1.541,0,2.605,1.058,2.605,2.444S105.049,295.949,103.509,295.949z
			 M103.509,291.558h-1.149v3.88h1.149c1.239,0,2.031-0.84,2.031-1.933S104.748,291.558,103.509,291.558z"/>
		<path fill="#939598" d="M109.999,291.032h0.455l1.345,4.098l1.401-4.083h0.581l-1.751,4.938h-0.469l-1.345-3.979l-1.352,3.979
			h-0.462l-1.751-4.938h0.603l1.401,4.083L109.999,291.032z"/>
	</g>
	<g enable-background="new    ">
		<path fill="#939598" d="M104.158,223.199l-1.422-1.905h-1.401v1.905h-0.553v-4.902h2.108c1.078,0,1.771,0.581,1.771,1.464
			c0,0.819-0.56,1.295-1.331,1.436l1.506,2.003H104.158z M102.848,218.808h-1.513v1.989h1.506c0.735,0,1.261-0.378,1.261-1.016
			C104.102,219.172,103.64,218.808,102.848,218.808z"/>
		<path fill="#939598" d="M107.279,222.814c0.497,0,0.848-0.203,1.142-0.512l0.336,0.301c-0.364,0.406-0.805,0.68-1.492,0.68
			c-0.995,0-1.807-0.764-1.807-1.891c0-1.051,0.735-1.892,1.737-1.892c1.071,0,1.688,0.854,1.688,1.919c0,0.05,0,0.105-0.007,0.168
			h-2.872C106.081,222.373,106.642,222.814,107.279,222.814z M108.336,221.189c-0.056-0.658-0.434-1.233-1.156-1.233
			c-0.63,0-1.106,0.525-1.177,1.233H108.336z"/>
		<path fill="#939598" d="M111.71,219.592v0.463h-1.142v3.145h-0.539v-3.145h-0.498v-0.47h0.498v-0.314
			c0-0.792,0.399-1.212,1.092-1.212c0.252,0,0.42,0.028,0.595,0.091v0.47c-0.196-0.057-0.343-0.092-0.525-0.092
			c-0.42,0-0.63,0.253-0.63,0.771v0.294H111.71z"/>
	</g>
	<g enable-background="new    ">
		<path fill="#939598" d="M43,83.639c0,0.828-0.504,1.252-0.999,1.468c0.747,0.225,1.35,0.657,1.35,1.53
			c0,1.089-0.909,1.729-2.287,1.729h-2.8v-6.302h2.683C42.189,82.063,43,82.676,43,83.639z M42.279,83.738
			c0-0.631-0.495-1.036-1.395-1.036h-1.918v2.17h1.864C41.686,84.872,42.279,84.485,42.279,83.738z M42.631,86.592
			c0-0.693-0.576-1.09-1.675-1.09h-1.99v2.224h2.116C42.037,87.726,42.631,87.303,42.631,86.592z"/>
		<path fill="#939598" d="M46.698,87.87c0.639,0,1.089-0.261,1.468-0.657l0.432,0.387c-0.468,0.522-1.036,0.874-1.918,0.874
			c-1.278,0-2.322-0.981-2.322-2.431c0-1.351,0.945-2.432,2.232-2.432c1.377,0,2.17,1.099,2.17,2.467c0,0.063,0,0.136-0.009,0.217
			H45.06C45.159,87.303,45.879,87.87,46.698,87.87z M48.057,85.781c-0.072-0.846-0.558-1.584-1.485-1.584
			c-0.81,0-1.422,0.675-1.512,1.584H48.057z"/>
		<path fill="#939598" d="M53.709,88.365v-0.937c-0.378,0.559-0.927,1.035-1.782,1.035c-1.117,0-2.224-0.882-2.224-2.421
			c0-1.531,1.107-2.432,2.224-2.432c0.864,0,1.422,0.469,1.782,0.991v-2.81h0.693v6.572H53.709z M52.053,84.233
			c-0.9,0-1.639,0.666-1.639,1.8c0,1.107,0.756,1.81,1.639,1.81c0.864,0,1.684-0.72,1.684-1.81
			C53.736,84.953,52.917,84.233,52.053,84.233z"/>
		<path fill="#939598" d="M56.642,88.365h-0.693v-4.654h0.693v1.215c0.342-0.773,1.018-1.332,1.9-1.296v0.747h-0.054
			c-1.017,0-1.846,0.729-1.846,2.134V88.365z"/>
		<path fill="#939598" d="M61.521,88.474c-1.396,0-2.413-1.099-2.413-2.422s1.026-2.44,2.431-2.44c1.396,0,2.421,1.099,2.421,2.422
			C63.96,87.357,62.925,88.474,61.521,88.474z M61.521,84.224c-1.008,0-1.702,0.802-1.702,1.81c0,1.009,0.738,1.819,1.72,1.819
			c1.008,0,1.71-0.802,1.71-1.801C63.25,85.034,62.502,84.224,61.521,84.224z"/>
		<path fill="#939598" d="M67.335,88.474c-1.396,0-2.413-1.099-2.413-2.422s1.026-2.44,2.431-2.44c1.396,0,2.421,1.099,2.421,2.422
			C69.774,87.357,68.739,88.474,67.335,88.474z M67.335,84.224c-1.008,0-1.702,0.802-1.702,1.81c0,1.009,0.738,1.819,1.72,1.819
			c1.008,0,1.71-0.802,1.71-1.801C69.063,85.034,68.316,84.224,67.335,84.224z"/>
		<path fill="#939598" d="M76.354,83.611c1.071,0,1.729,0.721,1.729,1.873v2.881h-0.693v-2.719c0-0.9-0.45-1.404-1.207-1.404
			c-0.702,0-1.287,0.521-1.287,1.44v2.683h-0.685v-2.736c0-0.874-0.459-1.387-1.197-1.387s-1.296,0.612-1.296,1.467v2.656h-0.693
			v-4.654h0.693v0.783c0.306-0.459,0.72-0.883,1.503-0.883c0.756,0,1.243,0.405,1.495,0.928
			C75.048,84.026,75.543,83.611,76.354,83.611z"/>
	</g>
	<g enable-background="new    ">
		<path fill="#939598" d="M35.416,93.019h0.522v6.347h-0.702v-5.608l-1.188,0.369l-0.171-0.576L35.416,93.019z"/>
		<path fill="#939598" d="M37.917,94.692l-0.522-0.378c0.567-0.846,1.161-1.341,2.269-1.341c1.143,0,1.954,0.756,1.954,1.791
			c0,0.928-0.486,1.495-1.594,2.458l-1.683,1.494h3.34v0.648h-4.402v-0.549l2.287-2.017c0.963-0.864,1.314-1.351,1.314-1.98
			c0-0.738-0.585-1.207-1.27-1.207C38.889,93.612,38.421,93.99,37.917,94.692z"/>
		<path fill="#939598" d="M43.092,93.063h0.846v0.045l-0.729,2.403h-0.387L43.092,93.063z"/>
		<path fill="#939598" d="M47.656,99.474c-1.629,0-2.656-1.477-2.656-3.25s1.044-3.269,2.674-3.269c1.621,0,2.647,1.477,2.647,3.25
			S49.276,99.474,47.656,99.474z M47.656,93.604c-1.179,0-1.917,1.206-1.917,2.602s0.756,2.62,1.936,2.62s1.909-1.216,1.909-2.602
			C49.583,94.837,48.835,93.604,47.656,93.604z"/>
	</g>
	<g enable-background="new    ">
		<path fill="#939598" d="M51.732,93.063h0.837v0.045l-0.729,2.403h-0.378L51.732,93.063z M53.497,93.063h0.829v0.045l-0.729,2.403
			h-0.378L53.497,93.063z"/>
	</g>
	<g enable-background="new    ">
		<path fill="#939598" d="M61.984,99.365h-0.801l-1.44-1.899l-1.449,1.899h-0.774l1.828-2.368l-1.755-2.286h0.792l1.377,1.801
			l1.377-1.801h0.774l-1.765,2.269L61.984,99.365z"/>
		<path fill="#939598" d="M66.825,93.019h0.522v6.347h-0.702v-5.608l-1.188,0.369l-0.171-0.576L66.825,93.019z"/>
		<path fill="#939598" d="M68.868,93.063h4.276v0.531l-2.863,5.771h-0.792l2.845-5.653h-3.466V93.063z"/>
		<path fill="#939598" d="M74.475,93.063h0.846v0.045l-0.729,2.403h-0.387L74.475,93.063z"/>
		<path fill="#939598" d="M78.66,99.455c-1.341,0-2.368-0.729-2.368-1.791c0-0.757,0.54-1.288,1.296-1.558
			c-0.585-0.271-1.081-0.721-1.081-1.459c0-0.98,1-1.674,2.152-1.674s2.151,0.693,2.151,1.674c0,0.738-0.495,1.188-1.08,1.459
			c0.747,0.279,1.296,0.792,1.296,1.548C81.028,98.735,80.001,99.455,78.66,99.455z M78.66,96.439c-0.918,0-1.647,0.495-1.647,1.206
			c0,0.648,0.612,1.188,1.647,1.188s1.647-0.54,1.647-1.188C80.308,96.935,79.578,96.439,78.66,96.439z M78.66,93.595
			c-0.819,0-1.44,0.459-1.44,1.098c0,0.693,0.639,1.162,1.44,1.162s1.44-0.469,1.44-1.162C80.101,94.062,79.479,93.595,78.66,93.595
			z"/>
		<path fill="#939598" d="M82.35,93.063h0.837v0.045l-0.729,2.403h-0.378L82.35,93.063z M84.114,93.063h0.829v0.045l-0.729,2.403
			h-0.378L84.114,93.063z"/>
	</g>
	<g enable-background="new    ">
		<path fill="#939598" d="M131.162,131.062h0.711v5.645h3.547v0.657h-4.258V131.062z"/>
		<path fill="#939598" d="M136.634,131.692v-0.765h0.792v0.765H136.634z M136.679,137.364v-4.654h0.693v4.654H136.679z"/>
		<path fill="#939598" d="M142.431,132.71h0.747l-2.025,4.69h-0.612l-2.017-4.69h0.766l1.566,3.862L142.431,132.71z"/>
		<path fill="#939598" d="M144.283,131.692v-0.765h0.792v0.765H144.283z M144.329,137.364v-4.654h0.693v4.654H144.329z"/>
		<path fill="#939598" d="M147.325,137.364h-0.693v-4.654h0.693v0.811c0.306-0.505,0.792-0.91,1.594-0.91
			c1.125,0,1.782,0.757,1.782,1.864v2.89h-0.693v-2.719c0-0.864-0.468-1.404-1.288-1.404c-0.801,0-1.396,0.585-1.396,1.458V137.364z
			"/>
		<path fill="#939598" d="M154.238,138.822c-0.774,0-1.495-0.216-2.116-0.647l0.315-0.54c0.531,0.387,1.125,0.594,1.792,0.594
			c1.026,0,1.693-0.567,1.693-1.656v-0.55c-0.405,0.541-0.973,0.981-1.828,0.981c-1.116,0-2.188-0.828-2.188-2.188
			c0-1.368,1.08-2.206,2.188-2.206c0.873,0,1.44,0.433,1.818,0.937v-0.837h0.693v3.844
			C156.605,138.058,155.669,138.822,154.238,138.822z M154.229,133.223c-0.882,0-1.611,0.604-1.611,1.576
			c0,0.954,0.747,1.593,1.611,1.593c0.882,0,1.711-0.63,1.711-1.584C155.939,133.844,155.111,133.223,154.229,133.223z"/>
		<path fill="#939598" d="M162.005,130.18l-4.177,8.337h-0.639l4.177-8.337H162.005z"/>
		<path fill="#939598" d="M165.029,137.364h-2.188v-6.302h2.188c1.98,0,3.349,1.359,3.349,3.142
			C168.377,135.987,167.009,137.364,165.029,137.364z M165.029,131.72h-1.477v4.987h1.477c1.593,0,2.611-1.08,2.611-2.484
			S166.622,131.72,165.029,131.72z"/>
		<path fill="#939598" d="M169.78,131.692v-0.765h0.792v0.765H169.78z M169.825,137.364v-4.654h0.692v4.654H169.825z"/>
		<path fill="#939598" d="M172.822,137.364h-0.693v-4.654h0.693v0.811c0.306-0.505,0.792-0.91,1.594-0.91
			c1.125,0,1.781,0.757,1.781,1.864v2.89h-0.692v-2.719c0-0.864-0.468-1.404-1.288-1.404c-0.801,0-1.395,0.585-1.395,1.458V137.364z
			"/>
		<path fill="#939598" d="M177.69,131.692v-0.765h0.792v0.765H177.69z M177.736,137.364v-4.654h0.692v4.654H177.736z"/>
		<path fill="#939598" d="M180.732,137.364h-0.692v-4.654h0.692v0.811c0.307-0.505,0.793-0.91,1.594-0.91
			c1.125,0,1.783,0.757,1.783,1.864v2.89h-0.693v-2.719c0-0.864-0.469-1.404-1.287-1.404c-0.802,0-1.396,0.585-1.396,1.458V137.364z
			"/>
		<path fill="#939598" d="M187.646,138.822c-0.774,0-1.495-0.216-2.116-0.647l0.315-0.54c0.531,0.387,1.126,0.594,1.792,0.594
			c1.025,0,1.692-0.567,1.692-1.656v-0.55c-0.405,0.541-0.973,0.981-1.827,0.981c-1.117,0-2.188-0.828-2.188-2.188
			c0-1.368,1.081-2.206,2.188-2.206c0.873,0,1.439,0.433,1.818,0.937v-0.837h0.693v3.844
			C190.014,138.058,189.076,138.822,187.646,138.822z M187.637,133.223c-0.883,0-1.611,0.604-1.611,1.576
			c0,0.954,0.746,1.593,1.611,1.593c0.882,0,1.71-0.63,1.71-1.584C189.347,133.844,188.519,133.223,187.637,133.223z"/>
		<path fill="#939598" d="M198.716,137.364l-1.827-2.449h-1.801v2.449h-0.711v-6.302h2.709c1.387,0,2.278,0.747,2.278,1.882
			c0,1.053-0.72,1.665-1.71,1.845l1.936,2.575H198.716z M197.032,131.72h-1.944v2.557h1.936c0.945,0,1.621-0.486,1.621-1.306
			C198.645,132.188,198.05,131.72,197.032,131.72z"/>
		<path fill="#939598" d="M202.801,137.473c-1.395,0-2.412-1.099-2.412-2.422s1.026-2.44,2.431-2.44
			c1.396,0,2.421,1.099,2.421,2.422C205.24,136.356,204.205,137.473,202.801,137.473z M202.801,133.223
			c-1.008,0-1.701,0.802-1.701,1.81c0,1.009,0.738,1.819,1.72,1.819c1.009,0,1.71-0.802,1.71-1.801
			C204.529,134.033,203.783,133.223,202.801,133.223z"/>
		<path fill="#939598" d="M208.615,137.473c-1.396,0-2.412-1.099-2.412-2.422s1.025-2.44,2.43-2.44c1.396,0,2.422,1.099,2.422,2.422
			C211.055,136.356,210.02,137.473,208.615,137.473z M208.615,133.223c-1.008,0-1.701,0.802-1.701,1.81
			c0,1.009,0.738,1.819,1.719,1.819c1.009,0,1.711-0.802,1.711-1.801C210.344,134.033,209.597,133.223,208.615,133.223z"/>
		<path fill="#939598" d="M217.635,132.61c1.07,0,1.729,0.721,1.729,1.873v2.881h-0.693v-2.719c0-0.9-0.451-1.404-1.207-1.404
			c-0.702,0-1.287,0.521-1.287,1.44v2.683h-0.685v-2.736c0-0.874-0.459-1.387-1.197-1.387s-1.296,0.612-1.296,1.467v2.656h-0.693
			v-4.654h0.693v0.783c0.306-0.459,0.72-0.883,1.503-0.883c0.757,0,1.243,0.405,1.495,0.928
			C216.328,133.025,216.824,132.61,217.635,132.61z"/>
	</g>
	<g enable-background="new    ">
		<path fill="#939598" d="M149.657,142.018h0.522v6.347h-0.702v-5.608l-1.188,0.369l-0.171-0.576L149.657,142.018z"/>
		<path fill="#939598" d="M152.159,143.691l-0.522-0.378c0.567-0.846,1.161-1.341,2.269-1.341c1.143,0,1.954,0.756,1.954,1.791
			c0,0.928-0.486,1.495-1.594,2.458l-1.683,1.494h3.34v0.648h-4.402v-0.549l2.287-2.017c0.963-0.864,1.314-1.351,1.314-1.98
			c0-0.738-0.585-1.207-1.27-1.207C153.131,142.611,152.663,142.989,152.159,143.691z"/>
		<path fill="#939598" d="M157.334,142.062h0.846v0.045l-0.729,2.403h-0.387L157.334,142.062z"/>
		<path fill="#939598" d="M160.475,142.018h0.522v6.347h-0.702v-5.608l-1.188,0.369l-0.171-0.576L160.475,142.018z"/>
		<path fill="#939598" d="M163.697,142.018h0.522v6.347h-0.702v-5.608l-1.188,0.369l-0.171-0.576L163.697,142.018z"/>
	</g>
	<g enable-background="new    ">
		<path fill="#939598" d="M165.982,142.062h0.837v0.045l-0.729,2.403h-0.378L165.982,142.062z M167.746,142.062h0.829v0.045
			l-0.729,2.403h-0.378L167.746,142.062z"/>
	</g>
	<g enable-background="new    ">
		<path fill="#939598" d="M176.152,148.364h-0.801l-1.44-1.899l-1.449,1.899h-0.774l1.828-2.368l-1.756-2.286h0.792l1.378,1.801
			l1.377-1.801h0.774l-1.765,2.269L176.152,148.364z"/>
		<path fill="#939598" d="M180.273,143.691l-0.521-0.378c0.566-0.846,1.161-1.341,2.269-1.341c1.144,0,1.954,0.756,1.954,1.791
			c0,0.928-0.486,1.495-1.594,2.458l-1.684,1.494h3.34v0.648h-4.402v-0.549l2.287-2.017c0.963-0.864,1.314-1.351,1.314-1.98
			c0-0.738-0.586-1.207-1.27-1.207C181.246,142.611,180.778,142.989,180.273,143.691z"/>
		<path fill="#939598" d="M187.807,148.473c-1.629,0-2.655-1.477-2.655-3.25s1.044-3.269,2.674-3.269c1.62,0,2.647,1.477,2.647,3.25
			S189.428,148.473,187.807,148.473z M187.807,142.603c-1.179,0-1.917,1.206-1.917,2.602s0.757,2.62,1.936,2.62
			s1.909-1.216,1.909-2.602C189.734,143.836,188.986,142.603,187.807,142.603z"/>
		<path fill="#939598" d="M191.884,142.062h0.847v0.045l-0.73,2.403h-0.387L191.884,142.062z"/>
		<path fill="#939598" d="M194.305,143.691l-0.521-0.378c0.566-0.846,1.16-1.341,2.268-1.341c1.144,0,1.954,0.756,1.954,1.791
			c0,0.928-0.486,1.495-1.594,2.458l-1.683,1.494h3.34v0.648h-4.402v-0.549l2.286-2.017c0.964-0.864,1.314-1.351,1.314-1.98
			c0-0.738-0.585-1.207-1.27-1.207C195.277,142.611,194.809,142.989,194.305,143.691z"/>
		<path fill="#939598" d="M199.48,142.062h0.836v0.045l-0.729,2.403h-0.379L199.48,142.062z M201.244,142.062h0.828v0.045
			l-0.729,2.403h-0.379L201.244,142.062z"/>
	</g>
	<g enable-background="new    ">
		<path fill="#939598" d="M269.338,83.639c0,0.828-0.504,1.252-1,1.468c0.748,0.225,1.351,0.657,1.351,1.53
			c0,1.089-0.909,1.729-2.286,1.729h-2.801v-6.302h2.684C268.527,82.063,269.338,82.676,269.338,83.639z M268.617,83.738
			c0-0.631-0.495-1.036-1.395-1.036h-1.918v2.17h1.863C268.023,84.872,268.617,84.485,268.617,83.738z M268.969,86.592
			c0-0.693-0.576-1.09-1.675-1.09h-1.989v2.224h2.115C268.375,87.726,268.969,87.303,268.969,86.592z"/>
		<path fill="#939598" d="M273.035,87.87c0.64,0,1.09-0.261,1.469-0.657l0.432,0.387c-0.469,0.522-1.035,0.874-1.918,0.874
			c-1.278,0-2.322-0.981-2.322-2.431c0-1.351,0.945-2.432,2.232-2.432c1.377,0,2.17,1.099,2.17,2.467c0,0.063,0,0.136-0.01,0.217
			h-3.69C271.496,87.303,272.217,87.87,273.035,87.87z M274.395,85.781c-0.071-0.846-0.558-1.584-1.484-1.584
			c-0.811,0-1.423,0.675-1.513,1.584H274.395z"/>
		<path fill="#939598" d="M280.047,88.365v-0.937c-0.378,0.559-0.928,1.035-1.782,1.035c-1.116,0-2.224-0.882-2.224-2.421
			c0-1.531,1.107-2.432,2.224-2.432c0.864,0,1.423,0.469,1.782,0.991v-2.81h0.693v6.572H280.047z M278.391,84.233
			c-0.9,0-1.639,0.666-1.639,1.8c0,1.107,0.756,1.81,1.639,1.81c0.864,0,1.684-0.72,1.684-1.81
			C280.074,84.953,279.255,84.233,278.391,84.233z"/>
		<path fill="#939598" d="M282.98,88.365h-0.693v-4.654h0.693v1.215c0.342-0.773,1.018-1.332,1.899-1.296v0.747h-0.054
			c-1.018,0-1.846,0.729-1.846,2.134V88.365z"/>
		<path fill="#939598" d="M287.859,88.474c-1.396,0-2.413-1.099-2.413-2.422s1.026-2.44,2.431-2.44c1.396,0,2.422,1.099,2.422,2.422
			C290.299,87.357,289.264,88.474,287.859,88.474z M287.859,84.224c-1.009,0-1.702,0.802-1.702,1.81c0,1.009,0.738,1.819,1.72,1.819
			c1.008,0,1.711-0.802,1.711-1.801C289.588,85.034,288.84,84.224,287.859,84.224z"/>
		<path fill="#939598" d="M293.673,88.474c-1.396,0-2.413-1.099-2.413-2.422s1.026-2.44,2.432-2.44c1.395,0,2.421,1.099,2.421,2.422
			C296.112,87.357,295.077,88.474,293.673,88.474z M293.673,84.224c-1.009,0-1.702,0.802-1.702,1.81
			c0,1.009,0.738,1.819,1.721,1.819c1.008,0,1.71-0.802,1.71-1.801C295.401,85.034,294.654,84.224,293.673,84.224z"/>
		<path fill="#939598" d="M302.691,83.611c1.072,0,1.729,0.721,1.729,1.873v2.881h-0.693v-2.719c0-0.9-0.449-1.404-1.206-1.404
			c-0.702,0-1.287,0.521-1.287,1.44v2.683h-0.685v-2.736c0-0.874-0.459-1.387-1.197-1.387s-1.297,0.612-1.297,1.467v2.656h-0.692
			v-4.654h0.692v0.783c0.307-0.459,0.721-0.883,1.504-0.883c0.756,0,1.242,0.405,1.494,0.928
			C301.387,84.026,301.881,83.611,302.691,83.611z"/>
	</g>
	<g enable-background="new    ">
		<path fill="#939598" d="M261.385,93.019h0.522v6.347h-0.702v-5.608l-1.188,0.369l-0.172-0.576L261.385,93.019z"/>
		<path fill="#939598" d="M266.029,99.474c-1.629,0-2.656-1.477-2.656-3.25s1.045-3.269,2.674-3.269c1.621,0,2.647,1.477,2.647,3.25
			S267.65,99.474,266.029,99.474z M266.029,93.604c-1.18,0-1.918,1.206-1.918,2.602s0.757,2.62,1.936,2.62
			c1.18,0,1.909-1.216,1.909-2.602C267.956,94.837,267.209,93.604,266.029,93.604z"/>
		<path fill="#939598" d="M270.105,93.063h0.847v0.045l-0.729,2.403h-0.387L270.105,93.063z"/>
		<path fill="#939598" d="M276.074,94.225c-0.469-0.396-0.91-0.621-1.486-0.621c-1.143,0-1.854,1.152-1.845,2.782
			c0.342-0.505,0.873-0.964,1.792-0.964c1.179,0,2.178,0.757,2.178,1.944c0,1.225-0.98,2.107-2.26,2.107
			c-0.693,0-1.26-0.243-1.656-0.64c-0.504-0.504-0.792-1.152-0.792-2.448c0-1.927,0.972-3.431,2.62-3.431
			c0.756,0,1.314,0.271,1.863,0.721L276.074,94.225z M274.444,96.034c-0.945,0-1.575,0.675-1.575,1.387
			c0,0.819,0.666,1.422,1.594,1.422c0.927,0,1.521-0.639,1.521-1.449C275.984,96.61,275.354,96.034,274.444,96.034z"/>
	</g>
	<g enable-background="new    ">
		<path fill="#939598" d="M278.133,93.063h0.838v0.045l-0.729,2.403h-0.378L278.133,93.063z M279.897,93.063h0.829v0.045
			l-0.73,2.403h-0.377L279.897,93.063z"/>
	</g>
	<g enable-background="new    ">
		<path fill="#939598" d="M288.385,99.365h-0.801l-1.44-1.899l-1.449,1.899h-0.774l1.828-2.368l-1.756-2.286h0.792l1.378,1.801
			l1.377-1.801h0.774l-1.765,2.269L288.385,99.365z"/>
		<path fill="#939598" d="M293.227,93.019h0.521v6.347h-0.701v-5.608l-1.188,0.369l-0.171-0.576L293.227,93.019z"/>
		<path fill="#939598" d="M295.439,93.702v-0.639h4.025v0.522l-1.981,2.196c1.107,0.09,2.079,0.621,2.079,1.782
			c0,1.135-0.936,1.909-2.105,1.909c-1.054,0-1.837-0.46-2.35-1.126l0.513-0.459c0.485,0.595,1.071,0.937,1.846,0.937
			c0.765,0,1.377-0.486,1.377-1.233c0-0.792-0.72-1.225-1.765-1.225h-0.404l-0.145-0.423l1.99-2.242H295.439z"/>
		<path fill="#939598" d="M301.029,93.063h0.846v0.045l-0.729,2.403h-0.388L301.029,93.063z"/>
		<path fill="#939598" d="M305.034,99.474c-0.819,0-1.413-0.333-1.944-0.774l0.414-0.55c0.514,0.45,0.99,0.676,1.549,0.676
			c1.134,0,1.898-1.152,1.872-2.764c-0.343,0.549-0.909,1.008-1.782,1.008c-1.297,0-2.197-0.819-2.197-1.962
			c0-1.207,0.928-2.152,2.27-2.152c0.72,0,1.251,0.243,1.656,0.648c0.494,0.495,0.783,1.18,0.783,2.449
			C307.654,98.06,306.592,99.474,305.034,99.474z M305.188,93.586c-0.945,0-1.513,0.692-1.513,1.485c0,0.81,0.63,1.386,1.548,1.386
			c0.964,0,1.566-0.702,1.566-1.431C306.789,94.216,306.133,93.586,305.188,93.586z"/>
		<path fill="#939598" d="M309.057,93.063h0.838v0.045l-0.729,2.403h-0.378L309.057,93.063z M310.821,93.063h0.829v0.045
			l-0.73,2.403h-0.377L310.821,93.063z"/>
	</g>
	<g enable-background="new    ">
		<path fill="#939598" d="M100.453,242.451h-1.105v1.605h-0.514v-4.55h1.703c1.027,0,1.703,0.546,1.703,1.449
			C102.241,241.944,101.421,242.451,100.453,242.451z M100.499,239.981h-1.15v2.002h1.125c0.754,0,1.248-0.403,1.248-1.008
			C101.721,240.319,101.233,239.981,100.499,239.981z"/>
		<path fill="#939598" d="M103.222,241.34l-0.149-0.41c0.371-0.169,0.734-0.279,1.222-0.279c0.917,0,1.43,0.468,1.43,1.353v2.054
			h-0.481v-0.507c-0.234,0.306-0.624,0.578-1.215,0.578c-0.624,0-1.254-0.351-1.254-1.053c0-0.715,0.585-1.092,1.437-1.092
			c0.429,0,0.734,0.059,1.033,0.143v-0.117c0-0.604-0.37-0.916-1.001-0.916C103.846,241.093,103.534,241.196,103.222,241.34z
			 M103.28,243.056c0,0.429,0.39,0.676,0.845,0.676c0.617,0,1.125-0.377,1.125-0.91v-0.325c-0.247-0.071-0.579-0.143-0.988-0.143
			C103.631,242.354,103.28,242.627,103.28,243.056z"/>
		<path fill="#939598" d="M107.291,244.057h-0.5v-3.36h0.5v0.585c0.221-0.364,0.572-0.656,1.15-0.656
			c0.812,0,1.287,0.546,1.287,1.345v2.087h-0.5v-1.963c0-0.624-0.338-1.015-0.93-1.015c-0.578,0-1.007,0.423-1.007,1.054V244.057z"
			/>
		<path fill="#939598" d="M111.47,243.102c0,0.409,0.228,0.559,0.566,0.559c0.169,0,0.312-0.032,0.487-0.117v0.429
			c-0.175,0.092-0.364,0.144-0.604,0.144c-0.54,0-0.949-0.267-0.949-0.949v-2.028h-0.468v-0.441h0.468v-1.015h0.5v1.015h1.066v0.441
			h-1.066V243.102z"/>
		<path fill="#939598" d="M113.921,244.057h-0.5v-3.36h0.5v0.877c0.247-0.559,0.734-0.962,1.372-0.936v0.539h-0.039
			c-0.734,0-1.333,0.526-1.333,1.541V244.057z"/>
		<path fill="#939598" d="M117.691,244.167c-0.286,0.695-0.611,0.949-1.118,0.949c-0.28,0-0.488-0.059-0.715-0.169l0.169-0.396
			c0.162,0.084,0.312,0.123,0.526,0.123c0.299,0,0.487-0.155,0.689-0.63l-1.527-3.348h0.552l1.222,2.802l1.079-2.802h0.533
			L117.691,244.167z"/>
	</g>
</g>
</svg>
