<?xml version="1.0" encoding="utf-8"?>
<!-- Generator: Adobe Illustrator 15.0.2, SVG Export Plug-In . SVG Version: 6.00 Build 0)  -->
<!DOCTYPE svg PUBLIC "-//W3C//DTD SVG 1.1//EN" "http://www.w3.org/Graphics/SVG/1.1/DTD/svg11.dtd">
<svg version="1.1" id="Layer_1" xmlns="http://www.w3.org/2000/svg" xmlns:xlink="http://www.w3.org/1999/xlink" x="0px" y="0px"
	 width="522.021px" height="207.312px" viewBox="0 0 522.021 207.312" enable-background="new 0 0 522.021 207.312"
	 xml:space="preserve">
<g id="_x32_0_x25___PMS_2985_fill">
	<polygon fill="none" points="3.688,17.108 3.688,173.608 106.688,173.608 106.688,203.608 288.188,203.608 315.188,178.108 
		520.688,178.108 520.688,19.108 307.188,19.108 307.188,8.108 171.188,8.108 171.188,18.108 	"/>
</g>
<g id="_x33_0_x25__grey_fill">
	<rect x="388.522" y="18.942" fill="#D1D3D4" width="49.333" height="4.667"/>
	<rect x="296.188" y="18.608" fill="#D1D3D4" width="18.332" height="4.967"/>
	<rect x="171.688" y="10.608" fill="#D1D3D4" width="49.5" height="12.5"/>
	<rect x="79.438" y="17.858" fill="#D1D3D4" width="19" height="6.25"/>
	<rect x="512.188" y="17.275" fill="#D1D3D4" width="7" height="6.344"/>
	<polygon fill="#D1D3D4" points="299.688,194.858 299.688,172.108 341.938,172.108 341.938,178.608 314.938,178.608 	"/>
	<polygon fill="#D1D3D4" points="372.938,179.108 372.938,172.608 445.438,172.608 445.438,160.858 472.188,160.858 
		472.188,172.858 519.438,172.858 519.438,178.858 	"/>
</g>
<g id="icons">
	<polygon fill="#FFFFFF" stroke="#939598" points="177.356,123.275 177.356,184.442 268.022,184.442 268.022,203.275 
		157.356,203.275 157.356,122.609 	"/>
	<g>
		<polygon fill="none" stroke="#939598" points="99.516,122.186 101.165,122.237 101.18,146.013 99.509,146.025 		"/>
		<path fill="none" stroke="#939598" d="M100.262,146.044c13.114-0.444,23.383-11.246,22.936-24.358"/>
	</g>
	<g>
		<polygon fill="none" stroke="#939598" points="369.744,179.485 368.074,179.498 368.06,155.68 369.771,155.667 		"/>
		<path fill="none" stroke="#939598" d="M369.041,155.648c-13.115,0.444-23.383,11.289-22.937,24.401"/>
	</g>
	<g>
		<polygon fill="none" stroke="#939598" points="388.704,104.186 388.713,102.6 411.34,102.584 411.332,104.172 		"/>
		<path fill="none" stroke="#939598" d="M411.35,103.456c-0.424-12.458-10.664-22.214-23.12-21.788"/>
	</g>
	<g>
		<polygon fill="none" stroke="#939598" points="172.425,112.376 172.416,110.79 149.789,110.774 149.797,112.362 		"/>
		<path fill="none" stroke="#939598" d="M149.779,111.646c0.424-12.458,10.664-22.214,23.121-21.788"/>
	</g>
	<g>
		<polygon fill="none" stroke="#939598" points="389.021,119.276 389.013,120.862 366.386,120.878 366.394,119.29 		"/>
		<path fill="none" stroke="#939598" d="M366.376,120.006c0.424,12.458,10.664,22.215,23.121,21.788"/>
	</g>
	<g>
		<polygon fill="none" stroke="#939598" points="295.746,172.589 294.41,172.599 294.397,153.544 295.769,153.534 		"/>
		<path fill="none" stroke="#939598" d="M295.185,153.519c-10.492,0.356-18.707,9.03-18.35,19.521"/>
	</g>
	<g>
		<polygon fill="none" stroke="#939598" points="22.684,122.51 24.332,122.562 24.348,146.337 22.676,146.35 		"/>
		<path fill="none" stroke="#939598" d="M23.43,146.368c13.113-0.445,23.383-11.246,22.936-24.359"/>
	</g>
	<g>
		<polygon fill="none" stroke="#939598" points="396.779,111.019 398.428,111.07 398.443,134.846 396.771,134.858 		"/>
		<path fill="none" stroke="#939598" d="M397.525,134.877c13.112-0.444,23.383-11.246,22.936-24.358"/>
	</g>
	<g>
		<polygon fill="none" stroke="#939598" points="477.934,110.936 479.582,110.987 479.598,134.763 477.926,134.775 		"/>
		<path fill="none" stroke="#939598" d="M478.68,134.794c13.113-0.444,23.383-11.246,22.937-24.358"/>
	</g>
	<polyline fill="#FFFFFF" stroke="#A7A9AC" points="420.021,172.109 420.021,153.549 390.022,153.549 390.022,172.609 	"/>
	<line fill="none" stroke="#939598" x1="313.188" y1="136.941" x2="313.188" y2="171.941"/>
	<rect x="204.188" y="126.275" fill="#FFFFFF" stroke="#939598" width="54.333" height="22.333"/>
	<polyline fill="none" stroke="#939598" points="12.938,124.108 12.938,162.608 58.188,162.608 58.188,124.108 	"/>
	<polyline fill="#FFFFFF" stroke="#939598" points="157.022,156.358 138.512,156.358 138.512,123.608 156.522,123.608 	"/>
	<line fill="none" stroke="#939598" x1="5.938" y1="25.017" x2="172.188" y2="25.017"/>
	<line fill="none" stroke="#939598" x1="511.438" y1="24.858" x2="313.938" y2="24.858"/>
	<g>
		<polygon fill="none" stroke="#939598" points="322.235,167.127 322.244,165.541 344.871,165.525 344.862,167.113 		"/>
		<path fill="none" stroke="#939598" d="M344.881,166.397c-0.424-12.458-10.664-22.214-23.121-21.788"/>
	</g>
	<polyline fill="none" stroke="#939598" stroke-dasharray="1.5,1.5,1.5,1.5,1.5,1.5" points="11.101,123.608 11.101,164.474 
		59.804,164.474 59.804,123.608 	"/>
	
		<line fill="none" stroke="#939598" stroke-dasharray="1.5,1.5,1.5,1.5,1.5,1.5" x1="311.188" y1="136.608" x2="311.188" y2="172.358"/>
	<polyline fill="none" stroke="#939598" points="508.688,112.579 508.688,159.608 473.438,159.608 	"/>
	<polyline fill="none" stroke="#939598" stroke-dasharray="1.5,1.5,1.5,1.5,1.5,1.5" points="473.188,161.708 510.579,161.708 
		510.579,113.108 	"/>
	<g>
		<rect x="257.754" y="16.347" fill="none" stroke="#939598" width="37.5" height="1.508"/>
		<rect x="225.504" y="17.839" fill="none" stroke="#939598" width="41" height="1.509"/>
	</g>
	<g>
		<rect x="303.938" y="8.79" fill="none" stroke="#939598" width="2.875" height="2.875"/>
		<line fill="none" stroke="#939598" x1="304.188" y1="10.915" x2="220.313" y2="10.915"/>
		<line fill="none" stroke="#939598" x1="303.938" y1="11.665" x2="303.938" y2="18.343"/>
		<line fill="none" stroke="#939598" x1="220.313" y1="8.79" x2="304.438" y2="8.79"/>
		<line fill="none" stroke="#939598" x1="306.813" y1="11.665" x2="306.813" y2="18.358"/>
	</g>
	<g>
		<path fill="#FFFFFF" stroke="#939598" stroke-miterlimit="10" d="M92.575,158.917c0-4.462-2.711-9.376-6.053-9.376
			s-6.041,4.914-6.041,9.376c0,4.463,2.699,6.785,6.041,6.785S92.575,163.38,92.575,158.917"/>
		<path fill="#FFFFFF" stroke="#939598" d="M92.575,158.917c0-4.462-2.711-9.376-6.053-9.376s-6.041,4.914-6.041,9.376
			c0,4.463,2.699,6.785,6.041,6.785S92.575,163.38,92.575,158.917z"/>
		<path fill="#FFFFFF" stroke="#939598" stroke-miterlimit="10" d="M82.899,164.239c0-0.25-0.205-0.455-0.455-0.455h-2.107
			c-0.25,0-0.455,0.205-0.455,0.455v0.077c0,0.25,0.205,0.455,0.455,0.455h2.107c0.25,0,0.455-0.205,0.455-0.455V164.239z"/>
		<path fill="#FFFFFF" stroke="#939598" d="M82.899,164.239c0-0.25-0.205-0.455-0.455-0.455h-2.107c-0.25,0-0.455,0.205-0.455,0.455
			v0.077c0,0.25,0.205,0.455,0.455,0.455h2.107c0.25,0,0.455-0.205,0.455-0.455V164.239z"/>
		<path fill="#FFFFFF" stroke="#939598" stroke-miterlimit="10" d="M79.562,164.783c-0.758,0-1.375,2.057-1.375,2.816
			c0,0.769,0.617,2.824,1.375,2.824h13.814c0.76,0,1.375-2.057,1.375-2.824c0-0.761-0.615-2.814-1.375-2.814L79.562,164.783z"/>
		<path fill="#FFFFFF" stroke="#939598" d="M79.562,164.783c-0.758,0-1.375,2.057-1.375,2.816c0,0.769,0.617,2.824,1.375,2.824
			h13.814c0.76,0,1.375-2.057,1.375-2.824c0-0.761-0.615-2.814-1.375-2.814L79.562,164.783z"/>
		<path fill="#FFFFFF" stroke="#939598" stroke-miterlimit="10" d="M90.972,158.73c0-3.279-1.992-6.894-4.449-6.894
			s-4.447,3.613-4.447,6.894c0,3.279,1.99,4.984,4.447,4.984S90.972,162.01,90.972,158.73"/>
		<path fill="#FFFFFF" stroke="#939598" d="M90.972,158.73c0-3.279-1.992-6.894-4.449-6.894s-4.447,3.613-4.447,6.894
			c0,3.279,1.99,4.984,4.447,4.984S90.972,162.01,90.972,158.73z"/>
	</g>
	<g>
		<g>
			<rect x="110.271" y="178.854" fill="#FFFFFF" stroke="#939598" width="45.693" height="23.625"/>
			<path fill="#FFFFFF" stroke="#939598" d="M133.118,190.667"/>
			<path fill="#FFFFFF" stroke="#939598" d="M133.274,190.667"/>
			<path fill="#FFFFFF" stroke="#939598" d="M148.768,190.667"/>
		</g>
		<circle fill="#FFFFFF" stroke="#939598" cx="145.55" cy="190.556" r="0.969"/>
		<path fill="#FFFFFF" stroke="#939598" d="M112.88,190.595c0,6.771,1.562,9.25,3.752,9.25c0,0,32.839,0,33.376,0
			c0.535,0,1.641-0.146,1.641-1.562c0-1.418,0-7.688,0-7.688v-0.017c0,0,0-6.271,0-7.688c0-1.416-1.105-1.562-1.641-1.562
			c-0.537,0-33.354,0-33.354,0l-0.021,0.002C114.442,181.331,112.88,183.866,112.88,190.595z"/>
		<path fill="#FFFFFF" stroke="#939598" d="M153.348,192.587c-0.549-0.002-0.988,0.441-0.988,0.996c0,0.537,0.439,0.982,0.988,0.986
			c0.545-0.004,0.995-0.449,0.995-0.986C154.343,193.028,153.898,192.585,153.348,192.587z"/>
		<path fill="#FFFFFF" stroke="#939598" d="M153.348,186.446c-0.549-0.006-0.988,0.445-0.988,0.99c0,0.543,0.439,0.989,0.988,0.989
			c0.545,0,0.995-0.446,0.988-0.989C154.343,186.89,153.893,186.446,153.348,186.446z"/>
		<path fill="#FFFFFF" stroke="#939598" d="M153.641,191.89c0.812,0,1.469-0.55,1.471-1.361c-0.002-0.812-0.658-1.254-1.471-1.254
			l-5.592,0.521c-0.549,0-0.549,1.482,0,1.482L153.641,191.89z"/>
	</g>
	<g>
		<path fill="#FFFFFF" stroke="#939598" stroke-miterlimit="10" d="M438.389,159.073c0-4.462-2.711-9.376-6.053-9.376
			s-6.041,4.914-6.041,9.376c0,4.463,2.699,6.785,6.041,6.785S438.389,163.536,438.389,159.073"/>
		<path fill="#FFFFFF" stroke="#939598" d="M438.389,159.073c0-4.462-2.711-9.376-6.053-9.376s-6.041,4.914-6.041,9.376
			c0,4.463,2.699,6.785,6.041,6.785S438.389,163.536,438.389,159.073z"/>
		<path fill="#FFFFFF" stroke="#939598" stroke-miterlimit="10" d="M428.713,164.396c0-0.25-0.205-0.455-0.455-0.455h-2.106
			c-0.25,0-0.455,0.205-0.455,0.455v0.077c0,0.25,0.205,0.454,0.455,0.454h2.106c0.25,0,0.455-0.204,0.455-0.454V164.396z"/>
		<path fill="#FFFFFF" stroke="#939598" d="M428.713,164.396c0-0.25-0.205-0.455-0.455-0.455h-2.106
			c-0.25,0-0.455,0.205-0.455,0.455v0.077c0,0.25,0.205,0.454,0.455,0.454h2.106c0.25,0,0.455-0.204,0.455-0.454V164.396z"/>
		<path fill="#FFFFFF" stroke="#939598" stroke-miterlimit="10" d="M425.375,164.939c-0.758,0-1.375,2.057-1.375,2.815
			c0,0.77,0.617,2.825,1.375,2.825h13.814c0.76,0,1.375-2.057,1.375-2.825c0-0.76-0.615-2.813-1.375-2.813L425.375,164.939z"/>
		<path fill="#FFFFFF" stroke="#939598" d="M425.375,164.939c-0.758,0-1.375,2.057-1.375,2.815c0,0.77,0.617,2.825,1.375,2.825
			h13.814c0.76,0,1.375-2.057,1.375-2.825c0-0.76-0.615-2.813-1.375-2.813L425.375,164.939z"/>
		<path fill="#FFFFFF" stroke="#939598" stroke-miterlimit="10" d="M436.785,158.887c0-3.279-1.992-6.894-4.449-6.894
			s-4.447,3.613-4.447,6.894c0,3.279,1.99,4.984,4.447,4.984S436.785,162.166,436.785,158.887"/>
		<path fill="#FFFFFF" stroke="#939598" d="M436.785,158.887c0-3.279-1.992-6.894-4.449-6.894s-4.447,3.613-4.447,6.894
			c0,3.279,1.99,4.984,4.447,4.984S436.785,162.166,436.785,158.887z"/>
	</g>
	<g>
		<g>
			<g>
				<rect x="446.062" y="112.492" fill="#FFFFFF" stroke="#939598" width="24.495" height="46.75"/>
				<path fill="#FFFFFF" stroke="#939598" d="M458.329,136.492"/>
			</g>
			<g>
				<polyline fill="#FFFFFF" stroke="#939598" points="458.567,157.816 468.358,157.816 468.358,114.248 448.263,114.248 
					448.263,157.816 457.664,157.816 				"/>
				<path fill="#FFFFFF" stroke="#939598" d="M458.329,136.492"/>
			</g>
			<line fill="none" stroke="#939598" x1="448.263" y1="157.816" x2="457.652" y2="137.416"/>
			<line fill="none" stroke="#939598" x1="459.041" y1="135.596" x2="468.358" y2="114.248"/>
			<line fill="none" stroke="#939598" x1="448.263" y1="114.248" x2="457.561" y2="135.49"/>
			<line fill="none" stroke="#939598" x1="459.065" y1="137.449" x2="468.358" y2="157.816"/>
			<g>
				<path fill="#FFFFFF" stroke="#939598" d="M459.377,136.492c0-0.6-0.587-1.084-1.048-1.084c-0.46,0-0.976,0.484-0.976,1.084
					c0,0.598,0.516,1.084,0.976,1.084C458.79,137.576,459.377,137.09,459.377,136.492z"/>
				<path fill="#FFFFFF" stroke="#939598" d="M458.329,136.492"/>
			</g>
		</g>
		<path fill="#FFFFFF" stroke="#939598" d="M459.345,156.219c0-0.616-2.231-0.616-2.231,0c0,0.617,0.5,1.115,1.115,1.115
			C458.847,157.334,459.345,156.836,459.345,156.219z"/>
		<polyline fill="#FFFFFF" stroke="#939598" points="457.998,159.537 457.998,157.402 458.62,157.402 458.62,159.539 		"/>
	</g>
	<g>
		<g>
			<g>
				<g>
					<rect x="274.991" y="175.835" fill="#FFFFFF" stroke="#939598" width="20.188" height="18.545"/>
					<path fill="#FFFFFF" stroke="#939598" d="M285.085,184.491"/>
					<polyline fill="#FFFFFF" stroke="#939598" points="291.21,181.368 291.21,178.547 288.772,177.889 281.304,177.889 
						278.835,178.547 278.835,181.368 					"/>
					<line fill="none" stroke="#939598" x1="274.845" y1="181.368" x2="295.179" y2="181.368"/>
					<path fill="#FFFFFF" stroke="#939598" d="M285.022,183.545"/>
				</g>
			</g>
		</g>
		<polygon fill="#FFFFFF" stroke="#939598" points="275.974,180.151 277.604,180.147 277.962,181.285 275.614,181.29 		"/>
	</g>
	<g>
		<g>
			<path fill="#FFFFFF" stroke="#939598" d="M199.872,201.108c-0.426,0-0.771-0.344-0.771-0.771v-13.444
				c0-0.427,0.346-0.771,0.771-0.771h22.807c0.426,0,0.771,0.346,0.771,0.771v13.444c0,0.429-0.345,0.771-0.771,0.771H199.872z"/>
			<path fill="#FFFFFF" stroke="#939598" d="M211.194,194.196"/>
		</g>
		<g>
			<circle fill="#FFFFFF" stroke="#939598" cx="211.194" cy="193.285" r="0.871"/>
			<path fill="#FFFFFF" stroke="#939598" d="M211.194,193.286"/>
		</g>
		<g>
			<g>
				<rect x="207.39" y="198.752" fill="#FFFFFF" stroke="#939598" width="7.609" height="1.82"/>
				<path fill="#FFFFFF" stroke="#939598" d="M211.194,199.663"/>
			</g>
			<g>
				<rect x="210.806" y="195.214" fill="#FFFFFF" stroke="#939598" width="0.777" height="3.586"/>
				<path fill="#FFFFFF" stroke="#939598" d="M211.194,197.238"/>
			</g>
			<g>
				<circle fill="#FFFFFF" stroke="#939598" cx="211.194" cy="199.645" r="0.847"/>
				<path fill="#FFFFFF" stroke="#939598" d="M211.194,199.645"/>
			</g>
		</g>
		<g>
			<path fill="#FFFFFF" stroke="#939598" d="M211.194,193.286"/>
			<path fill="none" stroke="#939598" d="M210.725,198.123h-9.589c-0.447,0-0.811-0.362-0.811-0.81v-9.222
				c0-0.444,0.363-0.809,0.811-0.809h20.279c0.447,0,0.811,0.363,0.811,0.809v9.222c0,0.446-0.363,0.81-0.811,0.81h-9.726"/>
		</g>
	</g>
	<g>
		<polyline fill="none" stroke="#939598" stroke-dasharray="1.5,1,1.5,1,1.5,1" points="196.069,183.758 196.069,200.734 
			179.421,200.734 179.421,184.14 		"/>
		<polyline fill="#FFFFFF" stroke="#939598" points="179.396,184.14 179.396,183.131 196.069,183.131 196.069,183.752 		"/>
	</g>
	<g>
		<g>
			<rect x="159.402" y="146.002" fill="#FFFFFF" stroke="#939598" width="19.75" height="23.25"/>
			<path fill="#FFFFFF" stroke="#939598" d="M169.277,157.627"/>
		</g>
		<g>
			<g>
				<circle fill="#FFFFFF" stroke="#939598" cx="174.777" cy="162.942" r="2.824"/>
				<path fill="#FFFFFF" stroke="#939598" d="M174.777,162.942"/>
			</g>
			<g>
				<circle fill="#FFFFFF" stroke="#939598" stroke-width="0.8" cx="174.776" cy="162.971" r="1.989"/>
				<path fill="#FFFFFF" stroke="#939598" d="M174.777,162.971"/>
			</g>
		</g>
		<g>
			<g>
				<circle fill="#FFFFFF" stroke="#939598" cx="166.527" cy="151.655" r="2.824"/>
				<path fill="#FFFFFF" stroke="#939598" d="M166.527,151.655"/>
			</g>
			<g>
				<circle fill="#FFFFFF" stroke="#939598" stroke-width="0.8" cx="166.526" cy="151.627" r="1.989"/>
				<path fill="#FFFFFF" stroke="#939598" d="M166.527,151.627"/>
			</g>
		</g>
		<g>
			<g>
				<circle fill="#FFFFFF" stroke="#939598" cx="166.555" cy="162.98" r="3.219"/>
				<path fill="#FFFFFF" stroke="#939598" d="M166.555,162.98"/>
			</g>
			<g>
				<circle fill="#FFFFFF" stroke="#939598" stroke-width="0.8" cx="166.555" cy="162.949" r="2.268"/>
				<path fill="#FFFFFF" stroke="#939598" d="M166.555,162.949"/>
			</g>
		</g>
		<g>
			<g>
				<circle fill="#FFFFFF" stroke="#939598" cx="174.994" cy="151.668" r="3.219"/>
				<path fill="#FFFFFF" stroke="#939598" d="M174.994,151.668"/>
			</g>
			<g>
				<circle fill="#FFFFFF" stroke="#939598" stroke-width="0.8" cx="174.994" cy="151.636" r="2.268"/>
				<path fill="#FFFFFF" stroke="#939598" d="M174.994,151.635"/>
			</g>
		</g>
		<line fill="none" stroke="#939598" x1="162.135" y1="169.283" x2="162.135" y2="146.002"/>
		<line fill="none" stroke="#939598" x1="161.043" y1="169.252" x2="161.043" y2="146.002"/>
	</g>
	<g>
		<g>
			<rect x="244.738" y="179.875" fill="#FFFFFF" stroke="#939598" width="24.902" height="21.969"/>
			<path fill="#FFFFFF" stroke="#939598" d="M258.478,190.859"/>
		</g>
		<line fill="none" stroke="#939598" x1="244.679" y1="181.411" x2="269.64" y2="181.411"/>
		<rect x="265.544" y="178.79" fill="#FFFFFF" stroke="#939598" width="2.018" height="1.069"/>
		<path fill="#FFFFFF" stroke="#939598" d="M266.554,179.384"/>
	</g>
	<g>
		<polyline fill="#FFFFFF" stroke="#939598" points="241.695,183.12 243.528,183.12 243.528,204.953 229.363,204.953 
			229.363,183.12 231.195,183.12 		"/>
		<g>
			<g>
				<g>
					<polygon fill="none" stroke="#939598" stroke-width="0.7" points="236.355,174.235 237.607,174.923 232.398,183.516 
						231.146,182.829 					"/>
					<path fill="none" stroke="#939598" stroke-width="0.8" d="M233.425,179.571"/>
				</g>
				<path fill="none" stroke="#939598" stroke-width="0.8" d="M236.833,174.649c3.203,1.939,4.926,5.394,4.811,8.888"/>
			</g>
		</g>
	</g>
	
		<line fill="none" stroke="#939598" stroke-dasharray="1.5,1.5,1.5,1.5,1.5,1.5" x1="241.522" y1="192.691" x2="272.688" y2="192.691"/>
	<polyline fill="none" stroke="#939598" stroke-dasharray="1.5,1.5,1.5,1.5,1.5,1.5" points="169.022,123.275 169.022,183.941 
		177.772,192.691 233.188,192.691 	"/>
	<g>
		<g>
			<g>
				<path fill="none" stroke="#939598" d="M405.371,160.889"/>
			</g>
			<g>
				<path fill="none" stroke="#939598" d="M405.371,161.951"/>
			</g>
			<g>
				<circle fill="none" stroke="#939598" cx="405.371" cy="160.889" r="1.017"/>
				<path fill="none" stroke="#939598" d="M405.371,160.889"/>
			</g>
			<g>
				<g>
					<rect x="401.105" y="167.264" fill="none" stroke="#939598" width="8.553" height="2.125"/>
					<path fill="none" stroke="#939598" d="M405.371,168.326"/>
				</g>
				<g>
					<rect x="404.918" y="163.139" fill="none" stroke="#939598" width="0.906" height="4.03"/>
					<path fill="none" stroke="#939598" d="M405.371,165.498"/>
				</g>
				<g>
					<circle fill="none" stroke="#939598" cx="405.371" cy="168.306" r="0.986"/>
					<path fill="none" stroke="#939598" d="M405.371,168.306"/>
				</g>
			</g>
		</g>
		<g>
			<rect x="396.844" y="155.839" fill="none" stroke="#939598" width="17.076" height="13.875"/>
			<rect x="398.236" y="157.233" fill="none" stroke="#939598" width="14.255" height="9.979"/>
		</g>
	</g>
	<g>
		<g>
			<g>
				<path fill="none" stroke="#939598" d="M145.774,139.842"/>
			</g>
			<g>
				<path fill="none" stroke="#939598" d="M146.836,139.842"/>
			</g>
			<g>
				<circle fill="none" stroke="#939598" cx="145.774" cy="139.842" r="1.017"/>
				<path fill="none" stroke="#939598" d="M145.774,139.842"/>
			</g>
			<g>
				<g>
					<rect x="152.149" y="135.555" fill="none" stroke="#939598" width="2.125" height="8.553"/>
					<path fill="none" stroke="#939598" d="M153.211,139.842"/>
				</g>
				<g>
					<rect x="148.024" y="139.389" fill="none" stroke="#939598" width="4.031" height="0.905"/>
					<path fill="none" stroke="#939598" d="M150.383,139.842"/>
				</g>
				<g>
					<circle fill="none" stroke="#939598" cx="153.191" cy="139.842" r="0.986"/>
					<path fill="none" stroke="#939598" d="M153.191,139.842"/>
				</g>
			</g>
		</g>
		<g>
			<rect x="140.724" y="131.293" fill="none" stroke="#939598" width="13.875" height="17.076"/>
			<rect x="142.119" y="132.722" fill="none" stroke="#939598" width="9.98" height="14.255"/>
		</g>
	</g>
</g>
<g id="walls">
	<polyline fill="none" stroke="#939598" stroke-width="5" points="172.188,18.333 2.5,18.38 2.5,173.941 107.92,173.941 
		107.92,204.812 289.522,204.812 315.354,179.107 346.315,179.107 	"/>
	<line fill="none" stroke="#939598" stroke-width="3" x1="227.534" y1="18.323" x2="221.188" y2="18.324"/>
	<polyline fill="none" stroke="#939598" stroke-width="5" points="369.791,179.107 519.521,179.107 519.521,18.275 291.194,18.312 	
		"/>
	<line fill="none" stroke="#939598" stroke-width="3" x1="388.522" y1="141.729" x2="388.522" y2="172.275"/>
	<line fill="none" stroke="#939598" stroke-width="3" x1="388.522" y1="104.093" x2="388.522" y2="119.276"/>
	<line fill="none" stroke="#939598" stroke-width="3" x1="388.522" y1="18.942" x2="388.522" y2="82.027"/>
	<path fill="none" stroke="#939598" stroke-width="3" d="M512.188,17.275c0,1,0,6.624,0,6.624h7"/>
	<polyline fill="none" stroke="#939598" stroke-width="3" points="437.855,17.942 437.855,23.608 388.854,23.608 	"/>
	<line fill="none" stroke="#939598" stroke-width="3" x1="322.522" y1="167.275" x2="322.522" y2="172.608"/>
	<polyline fill="none" stroke="#939598" stroke-width="3" points="299.854,194.275 299.854,136.608 322.522,136.608 
		322.438,144.858 	"/>
	<line fill="none" stroke="#939598" stroke-width="3" x1="396.854" y1="111.328" x2="388.188" y2="111.328"/>
	<line fill="none" stroke="#939598" stroke-width="3" x1="477.854" y1="111.328" x2="420.374" y2="111.358"/>
	<line fill="none" stroke="#939598" stroke-width="3" x1="519.188" y1="111.328" x2="501.2" y2="111.328"/>
	<polyline fill="none" stroke="#939598" stroke-width="3" points="471.93,110.941 471.93,173.275 518.854,173.275 	"/>
	<polyline fill="none" stroke="#939598" stroke-width="3" points="470.769,160.683 447.058,160.683 446.95,172.888 373.188,172.866 
		373.188,178.275 	"/>
	<polyline fill="none" stroke="#939598" stroke-width="3" points="295.854,172.305 341.188,172.275 341.188,178.941 	"/>
	<polyline fill="none" stroke="#939598" stroke-width="3" points="271.854,204.275 271.854,172.48 277.166,172.446 	"/>
	<line fill="none" stroke="#939598" stroke-width="3" x1="123.188" y1="122.758" x2="181.854" y2="122.758"/>
	<line fill="none" stroke="#939598" stroke-width="3" x1="46.188" y1="122.758" x2="99.823" y2="122.758"/>
	<line fill="none" stroke="#939598" stroke-width="3" x1="2.521" y1="122.758" x2="22.521" y2="122.758"/>
	<line fill="none" stroke="#939598" stroke-width="3" x1="172.188" y1="89.858" x2="172.188" y2="18.608"/>
	<line fill="none" stroke="#939598" stroke-width="3" x1="172.188" y1="122.608" x2="172.188" y2="112.358"/>
	<line fill="none" stroke="#939598" stroke-width="3" x1="157.499" y1="121.941" x2="157.499" y2="203.608"/>
	<line fill="none" stroke="#939598" stroke-width="3" x1="68.854" y1="122.275" x2="68.854" y2="173.941"/>
	<polyline fill="none" stroke="#939598" stroke-width="3" points="173.259,18.276 173.272,23.275 221.2,23.275 221.2,18.775 	"/>
	<polyline fill="none" stroke="#939598" stroke-width="5" points="222.188,19.719 222.188,10.801 172.199,10.801 172.292,19.222 	
		"/>
	<polyline fill="none" stroke="#939598" stroke-width="3" points="296.188,18.608 296.188,23.876 314.521,23.876 314.521,19.275 	
		"/>
	<polyline fill="none" stroke="#939598" stroke-width="3" points="80.188,18.942 80.188,23.275 97.854,23.275 97.854,19.608 	"/>
	<line fill="none" stroke="#939598" stroke-width="4" x1="5.188" y1="25.425" x2="5.188" y2="19.608"/>
</g>
<g id="windows">
	<g>
		<g>
			<rect x="7.98" y="16.443" fill="#FFFFFF" stroke="#939598" width="69.562" height="3.674"/>
			<line fill="none" stroke="#939598" x1="77.543" y1="18.26" x2="7.23" y2="18.26"/>
			<line fill="none" stroke="#939598" stroke-width="2" x1="54.869" y1="20.275" x2="54.869" y2="16.781"/>
		</g>
		<line fill="none" stroke="#939598" stroke-width="2" x1="31.48" y1="20.4" x2="31.48" y2="16.798"/>
	</g>
	<g>
		<g>
			<rect x="99.981" y="16.341" fill="#FFFFFF" stroke="#939598" width="69.562" height="3.675"/>
			<line fill="none" stroke="#939598" x1="169.543" y1="18.16" x2="99.231" y2="18.16"/>
			<line fill="none" stroke="#939598" stroke-width="2" x1="146.87" y1="20.173" x2="146.87" y2="16.679"/>
		</g>
		<line fill="none" stroke="#939598" stroke-width="2" x1="123.481" y1="20.298" x2="123.481" y2="16.697"/>
	</g>
	<g>
		<g>
			<rect x="316.813" y="16.443" fill="#FFFFFF" stroke="#939598" width="69.562" height="3.674"/>
			<line fill="none" stroke="#939598" x1="386.377" y1="18.262" x2="316.063" y2="18.262"/>
			<line fill="none" stroke="#939598" stroke-width="2" x1="363.703" y1="20.275" x2="363.703" y2="16.781"/>
		</g>
		<line fill="none" stroke="#939598" stroke-width="2" x1="340.313" y1="20.4" x2="340.313" y2="16.799"/>
	</g>
	<g>
		<g>
			<rect x="440.368" y="16.389" fill="#FFFFFF" stroke="#939598" width="69.562" height="3.674"/>
			<line fill="none" stroke="#939598" x1="509.931" y1="18.207" x2="439.618" y2="18.207"/>
			<line fill="none" stroke="#939598" stroke-width="2" x1="487.257" y1="20.221" x2="487.257" y2="16.727"/>
		</g>
		<line fill="none" stroke="#939598" stroke-width="2" x1="463.868" y1="20.346" x2="463.868" y2="16.744"/>
	</g>
</g>
<g id="Type">
	<g enable-background="new    ">
		<path fill="#939598" d="M242.205,6.019c-0.735,0-1.205-0.364-1.513-0.869l0.399-0.343c0.301,0.455,0.609,0.7,1.121,0.7
			c0.553,0,0.959-0.399,0.959-1.177V1.047h0.561v3.277C243.732,5.452,243.081,6.019,242.205,6.019z"/>
		<path fill="#939598" d="M247.519,2.328h0.532v3.621h-0.532v-0.63c-0.245,0.392-0.617,0.707-1.24,0.707
			c-0.875,0-1.387-0.589-1.387-1.45V2.328h0.539v2.115c0,0.673,0.364,1.093,1.001,1.093c0.617,0,1.086-0.455,1.086-1.135V2.328z"/>
		<path fill="#939598" d="M249.31,5.949V0.837h0.539v5.112H249.31z"/>
		<path fill="#939598" d="M251.115,1.537V0.941h0.617v0.596H251.115z M251.15,5.949V2.328h0.539v3.621H251.15z"/>
		<path fill="#939598" d="M254.539,5.564c0.497,0,0.848-0.203,1.142-0.512l0.336,0.301c-0.364,0.406-0.805,0.68-1.492,0.68
			c-0.995,0-1.807-0.764-1.807-1.891c0-1.051,0.735-1.892,1.737-1.892c1.071,0,1.688,0.854,1.688,1.919c0,0.05,0,0.105-0.007,0.168
			h-2.872C253.341,5.123,253.902,5.564,254.539,5.564z M255.597,3.939c-0.056-0.658-0.434-1.233-1.156-1.233
			c-0.63,0-1.106,0.525-1.177,1.233H255.597z"/>
		<path fill="#939598" d="M257.814,4.92c0,0.441,0.245,0.603,0.609,0.603c0.182,0,0.336-0.035,0.525-0.127v0.463
			c-0.189,0.098-0.392,0.154-0.651,0.154c-0.582,0-1.022-0.288-1.022-1.023V2.804h-0.504V2.328h0.504V1.235h0.539v1.093h1.149v0.477
			h-1.149V4.92z"/>
		<path fill="#939598" d="M265.789,2.272c0,0.645-0.392,0.974-0.777,1.142c0.581,0.175,1.05,0.511,1.05,1.19
			c0,0.848-0.707,1.345-1.778,1.345h-2.179V1.047h2.088C265.159,1.047,265.789,1.522,265.789,2.272z M265.229,2.349
			c0-0.49-0.386-0.806-1.085-0.806h-1.492v1.688h1.449C264.767,3.231,265.229,2.93,265.229,2.349z M265.502,4.569
			c0-0.539-0.448-0.848-1.303-0.848h-1.548v1.73h1.646C265.04,5.452,265.502,5.123,265.502,4.569z"/>
		<path fill="#939598" d="M267.278,3.021l-0.162-0.441c0.4-0.182,0.792-0.301,1.317-0.301c0.987,0,1.54,0.504,1.54,1.457v2.213
			h-0.518V5.403c-0.252,0.329-0.672,0.623-1.311,0.623c-0.672,0-1.352-0.378-1.352-1.135c0-0.771,0.631-1.177,1.549-1.177
			c0.462,0,0.791,0.063,1.113,0.154V3.743c0-0.651-0.399-0.987-1.078-0.987C267.95,2.756,267.614,2.867,267.278,3.021z
			 M267.341,4.871c0,0.462,0.42,0.728,0.91,0.728c0.666,0,1.212-0.406,1.212-0.98v-0.35c-0.267-0.077-0.623-0.154-1.064-0.154
			C267.72,4.114,267.341,4.408,267.341,4.871z"/>
		<path fill="#939598" d="M271.17,5.949V0.837h0.539v5.112H271.17z"/>
		<path fill="#939598" d="M274.594,6.033c-1.058,0-1.856-0.861-1.856-1.884c0-1.029,0.799-1.898,1.856-1.898
			c0.687,0,1.113,0.287,1.45,0.645l-0.357,0.378c-0.287-0.301-0.609-0.546-1.1-0.546c-0.736,0-1.296,0.623-1.296,1.407
			c0,0.792,0.574,1.415,1.331,1.415c0.462,0,0.818-0.23,1.105-0.539l0.344,0.322C275.707,5.739,275.272,6.033,274.594,6.033z"/>
		<path fill="#939598" d="M278.507,6.033c-1.086,0-1.877-0.854-1.877-1.884s0.799-1.898,1.891-1.898
			c1.086,0,1.885,0.854,1.885,1.884C280.405,5.165,279.6,6.033,278.507,6.033z M278.507,2.727c-0.784,0-1.323,0.623-1.323,1.407
			c0,0.785,0.574,1.415,1.337,1.415c0.785,0,1.332-0.623,1.332-1.4C279.853,3.357,279.271,2.727,278.507,2.727z"/>
		<path fill="#939598" d="M281.915,5.949h-0.539V2.328h0.539v0.631c0.238-0.393,0.617-0.708,1.24-0.708
			c0.875,0,1.387,0.589,1.387,1.45v2.248h-0.539V3.834c0-0.672-0.364-1.093-1.002-1.093c-0.623,0-1.086,0.455-1.086,1.135V5.949z"/>
		<path fill="#939598" d="M287.349,6.068c-0.308,0.749-0.658,1.022-1.204,1.022c-0.302,0-0.525-0.063-0.771-0.182l0.182-0.428
			c0.176,0.091,0.337,0.133,0.568,0.133c0.322,0,0.525-0.168,0.742-0.679l-1.646-3.607h0.596l1.316,3.019l1.163-3.019h0.574
			L287.349,6.068z"/>
	</g>
	<g enable-background="new    ">
		<path fill="#939598" d="M107.385,155.453c0,0.828-0.504,1.252-0.999,1.468c0.747,0.225,1.35,0.657,1.35,1.53
			c0,1.089-0.909,1.729-2.287,1.729h-2.8v-6.302h2.683C106.575,153.878,107.385,154.49,107.385,155.453z M106.665,155.552
			c0-0.631-0.495-1.036-1.395-1.036h-1.918v2.17h1.864C106.071,156.686,106.665,156.3,106.665,155.552z M107.016,158.406
			c0-0.693-0.576-1.09-1.675-1.09h-1.99v2.224h2.116C106.422,159.54,107.016,159.117,107.016,158.406z"/>
	</g>
	<g enable-background="new    ">
		<path fill="#939598" d="M109.301,156.417l-0.207-0.567c0.513-0.234,1.017-0.388,1.692-0.388c1.27,0,1.98,0.648,1.98,1.873v2.845
			h-0.666v-0.702c-0.324,0.423-0.864,0.801-1.684,0.801c-0.864,0-1.737-0.485-1.737-1.458c0-0.99,0.81-1.513,1.989-1.513
			c0.594,0,1.018,0.081,1.432,0.198v-0.162c0-0.837-0.513-1.27-1.387-1.27C110.165,156.074,109.733,156.219,109.301,156.417z
			 M109.382,158.793c0,0.595,0.54,0.937,1.17,0.937c0.855,0,1.557-0.522,1.557-1.261v-0.449c-0.342-0.1-0.801-0.198-1.368-0.198
			C109.868,157.821,109.382,158.199,109.382,158.793z"/>
	</g>
	<g enable-background="new    ">
		<path fill="#939598" d="M115.088,158.856c0,0.567,0.315,0.774,0.783,0.774c0.234,0,0.432-0.045,0.675-0.162v0.594
			c-0.243,0.126-0.504,0.198-0.837,0.198c-0.747,0-1.314-0.369-1.314-1.314v-2.809h-0.648v-0.612h0.648v-1.404h0.693v1.404h1.477
			v0.612h-1.477V158.856z"/>
		<path fill="#939598" d="M118.48,160.179h-0.693v-6.572h0.693v2.729c0.306-0.505,0.792-0.91,1.594-0.91
			c1.125,0,1.782,0.757,1.782,1.864v2.89h-0.693v-2.719c0-0.864-0.468-1.404-1.288-1.404c-0.801,0-1.396,0.585-1.396,1.458V160.179z
			"/>
	</g>
	<g enable-background="new    ">
		<path fill="#939598" d="M26.261,155.867c-1.415,0-2.458-1.113-2.458-2.528c0-1.4,1.037-2.542,2.479-2.542
			c0.89,0,1.422,0.314,1.912,0.777l-0.378,0.406c-0.413-0.393-0.875-0.673-1.541-0.673c-1.086,0-1.898,0.876-1.898,2.018
			s0.819,2.031,1.898,2.031c0.672,0,1.113-0.26,1.583-0.708l0.364,0.357C27.711,155.524,27.151,155.867,26.261,155.867z"/>
		<path fill="#939598" d="M29.144,155.783v-5.112h0.539v5.112H29.144z"/>
		<path fill="#939598" d="M32.589,155.867c-1.086,0-1.877-0.854-1.877-1.884s0.798-1.898,1.891-1.898
			c1.086,0,1.884,0.854,1.884,1.884C34.487,154.999,33.681,155.867,32.589,155.867z M32.589,152.561
			c-0.785,0-1.324,0.623-1.324,1.407c0,0.785,0.574,1.415,1.337,1.415c0.785,0,1.331-0.623,1.331-1.4
			C33.934,153.191,33.352,152.561,32.589,152.561z"/>
		<path fill="#939598" d="M36.655,155.853c-0.518,0-1.092-0.203-1.499-0.532l0.273-0.386c0.392,0.294,0.827,0.463,1.254,0.463
			c0.434,0,0.75-0.225,0.75-0.575v-0.014c0-0.364-0.427-0.504-0.904-0.638c-0.567-0.16-1.198-0.356-1.198-1.022v-0.014
			c0-0.623,0.519-1.036,1.233-1.036c0.441,0,0.932,0.153,1.303,0.398l-0.245,0.406c-0.336-0.217-0.722-0.35-1.072-0.35
			c-0.427,0-0.7,0.224-0.7,0.525v0.014c0,0.343,0.448,0.477,0.932,0.623c0.56,0.168,1.163,0.386,1.163,1.037v0.014
			C37.944,155.454,37.377,155.853,36.655,155.853z"/>
		<path fill="#939598" d="M40.541,155.398c0.497,0,0.848-0.203,1.142-0.512l0.336,0.301c-0.364,0.406-0.805,0.68-1.492,0.68
			c-0.995,0-1.807-0.764-1.807-1.891c0-1.051,0.735-1.892,1.737-1.892c1.071,0,1.688,0.854,1.688,1.919c0,0.05,0,0.105-0.007,0.168
			h-2.872C39.343,154.957,39.903,155.398,40.541,155.398z M41.598,153.773c-0.056-0.658-0.434-1.233-1.156-1.233
			c-0.63,0-1.106,0.525-1.177,1.233H41.598z"/>
		<path fill="#939598" d="M43.816,154.754c0,0.441,0.245,0.603,0.609,0.603c0.182,0,0.336-0.035,0.525-0.127v0.463
			c-0.189,0.098-0.392,0.154-0.651,0.154c-0.581,0-1.022-0.288-1.022-1.023v-2.185h-0.504v-0.477h0.504v-1.093h0.539v1.093h1.149
			v0.477h-1.149V154.754z"/>
	</g>
	<g enable-background="new    ">
		<path fill="#939598" d="M416.72,139.285c0,0.828-0.504,1.252-1,1.468c0.748,0.225,1.351,0.657,1.351,1.53
			c0,1.089-0.909,1.729-2.286,1.729h-2.801v-6.302h2.684C415.909,137.71,416.72,138.322,416.72,139.285z M415.999,139.385
			c0-0.631-0.495-1.036-1.395-1.036h-1.918v2.17h1.863C415.405,140.518,415.999,140.132,415.999,139.385z M416.351,142.238
			c0-0.693-0.576-1.09-1.675-1.09h-1.989v2.224h2.115C415.757,143.372,416.351,142.949,416.351,142.238z"/>
	</g>
	<g enable-background="new    ">
		<path fill="#939598" d="M418.636,140.249l-0.207-0.567c0.513-0.234,1.017-0.388,1.691-0.388c1.27,0,1.98,0.648,1.98,1.873v2.845
			h-0.666v-0.702c-0.324,0.423-0.863,0.801-1.684,0.801c-0.863,0-1.736-0.485-1.736-1.458c0-0.99,0.81-1.513,1.988-1.513
			c0.595,0,1.018,0.081,1.432,0.198v-0.162c0-0.837-0.513-1.27-1.387-1.27C419.499,139.906,419.067,140.051,418.636,140.249z
			 M418.716,142.625c0,0.595,0.541,0.937,1.171,0.937c0.854,0,1.558-0.522,1.558-1.261v-0.449c-0.342-0.1-0.802-0.198-1.369-0.198
			C419.202,141.653,418.716,142.031,418.716,142.625z"/>
	</g>
	<g enable-background="new    ">
		<path fill="#939598" d="M424.423,142.688c0,0.567,0.314,0.774,0.783,0.774c0.234,0,0.432-0.045,0.675-0.162v0.594
			c-0.243,0.126-0.504,0.198-0.837,0.198c-0.748,0-1.314-0.369-1.314-1.314v-2.809h-0.648v-0.612h0.648v-1.404h0.693v1.404h1.477
			v0.612h-1.477V142.688z"/>
		<path fill="#939598" d="M427.815,144.011h-0.693v-6.572h0.693v2.729c0.306-0.505,0.792-0.91,1.594-0.91
			c1.125,0,1.781,0.757,1.781,1.864v2.89h-0.692v-2.719c0-0.864-0.468-1.404-1.288-1.404c-0.801,0-1.395,0.585-1.395,1.458V144.011z
			"/>
	</g>
	<g enable-background="new    ">
		<path fill="#939598" d="M481.928,146.533c-1.415,0-2.458-1.113-2.458-2.528c0-1.4,1.036-2.542,2.479-2.542
			c0.891,0,1.422,0.314,1.912,0.777l-0.378,0.406c-0.413-0.393-0.876-0.673-1.54-0.673c-1.086,0-1.898,0.876-1.898,2.018
			s0.819,2.031,1.898,2.031c0.672,0,1.113-0.26,1.582-0.708l0.364,0.357C483.378,146.19,482.817,146.533,481.928,146.533z"/>
		<path fill="#939598" d="M484.811,146.449v-5.112h0.539v5.112H484.811z"/>
		<path fill="#939598" d="M488.255,146.533c-1.086,0-1.877-0.854-1.877-1.884s0.799-1.898,1.891-1.898
			c1.086,0,1.885,0.854,1.885,1.884C490.153,145.665,489.348,146.533,488.255,146.533z M488.255,143.227
			c-0.784,0-1.323,0.623-1.323,1.407c0,0.785,0.574,1.415,1.337,1.415c0.785,0,1.332-0.623,1.332-1.4
			C489.601,143.857,489.019,143.227,488.255,143.227z"/>
		<path fill="#939598" d="M492.321,146.519c-0.518,0-1.092-0.203-1.498-0.532l0.273-0.386c0.392,0.294,0.826,0.463,1.254,0.463
			c0.434,0,0.749-0.225,0.749-0.575v-0.014c0-0.364-0.427-0.504-0.903-0.638c-0.568-0.16-1.198-0.356-1.198-1.022v-0.014
			c0-0.623,0.519-1.036,1.233-1.036c0.441,0,0.932,0.153,1.303,0.398l-0.246,0.406c-0.336-0.217-0.721-0.35-1.071-0.35
			c-0.427,0-0.7,0.224-0.7,0.525v0.014c0,0.343,0.448,0.477,0.932,0.623c0.561,0.168,1.162,0.386,1.162,1.037v0.014
			C493.61,146.12,493.044,146.519,492.321,146.519z"/>
		<path fill="#939598" d="M496.207,146.064c0.497,0,0.848-0.203,1.142-0.512l0.336,0.301c-0.363,0.406-0.805,0.68-1.492,0.68
			c-0.994,0-1.807-0.764-1.807-1.891c0-1.051,0.736-1.892,1.737-1.892c1.071,0,1.688,0.854,1.688,1.919c0,0.05,0,0.105-0.008,0.168
			h-2.871C495.009,145.623,495.569,146.064,496.207,146.064z M497.265,144.439c-0.057-0.658-0.434-1.233-1.156-1.233
			c-0.63,0-1.105,0.525-1.176,1.233H497.265z"/>
		<path fill="#939598" d="M499.482,145.42c0,0.441,0.245,0.603,0.609,0.603c0.183,0,0.337-0.035,0.525-0.127v0.463
			c-0.188,0.098-0.392,0.154-0.651,0.154c-0.581,0-1.022-0.288-1.022-1.023v-2.185h-0.505v-0.477h0.505v-1.093h0.539v1.093h1.149
			v0.477h-1.149V145.42z"/>
	</g>
	<g enable-background="new    ">
		<path fill="#939598" d="M280.548,185.438h0.455l1.345,4.098l1.401-4.083h0.58l-1.75,4.938h-0.47l-1.345-3.979l-1.352,3.979h-0.463
			l-1.75-4.938h0.602l1.401,4.083L280.548,185.438z"/>
		<path fill="#939598" d="M287.533,184.766l-3.25,6.485h-0.497l3.25-6.485H287.533z"/>
		<path fill="#939598" d="M289.885,190.355h-1.702v-4.902h1.702c1.54,0,2.604,1.058,2.604,2.444S291.425,190.355,289.885,190.355z
			 M289.885,185.964h-1.149v3.88h1.149c1.239,0,2.03-0.84,2.03-1.933S291.124,185.964,289.885,185.964z"/>
	</g>
	<g enable-background="new    ">
		<path fill="#939598" d="M351.848,175.302h-2.991v1.674h2.676v0.505h-2.676v1.716h3.026v0.504h-3.579v-4.902h3.544V175.302z"/>
	</g>
	<g enable-background="new    ">
		<path fill="#939598" d="M353.44,179.7h-0.539v-3.621h0.539v0.631c0.238-0.393,0.617-0.708,1.24-0.708
			c0.875,0,1.387,0.589,1.387,1.45v2.248h-0.539v-2.115c0-0.672-0.364-1.093-1.002-1.093c-0.623,0-1.086,0.455-1.086,1.135V179.7z"
			/>
	</g>
	<g enable-background="new    ">
		<path fill="#939598" d="M357.894,178.671c0,0.441,0.244,0.603,0.609,0.603c0.182,0,0.336-0.035,0.525-0.127v0.463
			c-0.189,0.098-0.393,0.154-0.652,0.154c-0.581,0-1.021-0.288-1.021-1.023v-2.185h-0.505v-0.477h0.505v-1.093h0.539v1.093h1.148
			v0.477h-1.148V178.671z"/>
		<path fill="#939598" d="M360.532,179.7h-0.539v-3.621h0.539v0.945c0.266-0.602,0.791-1.036,1.479-1.008v0.581h-0.043
			c-0.791,0-1.436,0.567-1.436,1.66V179.7z"/>
		<path fill="#939598" d="M364.593,179.819c-0.309,0.749-0.658,1.022-1.205,1.022c-0.301,0-0.525-0.063-0.77-0.182l0.182-0.428
			c0.176,0.091,0.336,0.133,0.567,0.133c0.322,0,0.525-0.168,0.742-0.679l-1.646-3.607h0.596l1.316,3.019l1.162-3.019h0.574
			L364.593,179.819z"/>
	</g>
	<g enable-background="new    ">
		<path fill="#939598" d="M309.154,162.341c0,1.415-1.113,2.458-2.528,2.458c-1.4,0-2.542-1.036-2.542-2.479
			c0-0.891,0.314-1.422,0.777-1.912l0.406,0.378c-0.393,0.413-0.673,0.876-0.673,1.54c0,1.086,0.876,1.898,2.018,1.898
			s2.031-0.819,2.031-1.898c0-0.672-0.26-1.113-0.708-1.582l0.357-0.364C308.812,160.89,309.154,161.451,309.154,162.341z"/>
		<path fill="#939598" d="M309.07,159.458h-5.112v-0.539h5.112V159.458z"/>
		<path fill="#939598" d="M309.154,156.013c0,1.086-0.854,1.877-1.884,1.877s-1.898-0.799-1.898-1.891
			c0-1.086,0.854-1.885,1.884-1.885C308.286,154.115,309.154,154.921,309.154,156.013z M305.849,156.013
			c0,0.784,0.623,1.323,1.407,1.323c0.785,0,1.415-0.574,1.415-1.337c0-0.785-0.623-1.332-1.4-1.332
			C306.479,154.668,305.849,155.25,305.849,156.013z"/>
		<path fill="#939598" d="M309.141,151.947c0,0.518-0.203,1.092-0.532,1.498l-0.386-0.273c0.294-0.392,0.463-0.826,0.463-1.254
			c0-0.434-0.225-0.749-0.575-0.749h-0.014c-0.364,0-0.504,0.427-0.638,0.903c-0.16,0.568-0.356,1.198-1.022,1.198h-0.014
			c-0.623,0-1.036-0.519-1.036-1.233c0-0.441,0.153-0.932,0.398-1.303l0.406,0.246c-0.217,0.336-0.35,0.721-0.35,1.071
			c0,0.427,0.224,0.7,0.525,0.7h0.014c0.343,0,0.477-0.448,0.623-0.932c0.168-0.561,0.386-1.162,1.037-1.162h0.014
			C308.741,150.658,309.141,151.224,309.141,151.947z"/>
		<path fill="#939598" d="M308.686,148.061c0-0.497-0.203-0.848-0.512-1.142l0.301-0.336c0.406,0.363,0.68,0.805,0.68,1.492
			c0,0.994-0.764,1.807-1.891,1.807c-1.051,0-1.892-0.736-1.892-1.737c0-1.071,0.854-1.688,1.919-1.688c0.05,0,0.105,0,0.168,0.008
			v2.871C308.244,149.26,308.686,148.699,308.686,148.061z M307.061,147.004c-0.658,0.057-1.233,0.434-1.233,1.156
			c0,0.63,0.525,1.105,1.233,1.176V147.004z"/>
		<path fill="#939598" d="M308.041,144.786c0.441,0,0.603-0.245,0.603-0.609c0-0.183-0.035-0.337-0.127-0.525h0.463
			c0.098,0.188,0.154,0.392,0.154,0.651c0,0.581-0.288,1.022-1.023,1.022h-2.185v0.505h-0.477v-0.505h-1.093v-0.539h1.093v-1.149
			h0.477v1.149H308.041z"/>
	</g>
	<g enable-background="new    ">
		<path fill="#939598" d="M222.259,134.716v4.902h-0.554v-4.902H222.259z"/>
		<path fill="#939598" d="M224.8,139.688c-0.518,0-1.092-0.203-1.499-0.532l0.273-0.386c0.392,0.294,0.827,0.463,1.254,0.463
			c0.434,0,0.749-0.225,0.749-0.575v-0.014c0-0.364-0.427-0.504-0.903-0.638c-0.567-0.16-1.198-0.356-1.198-1.022v-0.014
			c0-0.623,0.519-1.036,1.233-1.036c0.441,0,0.932,0.153,1.303,0.398l-0.245,0.406c-0.336-0.217-0.722-0.35-1.072-0.35
			c-0.427,0-0.7,0.224-0.7,0.525v0.014c0,0.343,0.448,0.477,0.932,0.623c0.56,0.168,1.163,0.386,1.163,1.037v0.014
			C226.089,139.289,225.521,139.688,224.8,139.688z"/>
		<path fill="#939598" d="M227.137,139.618v-5.112h0.539v5.112H227.137z"/>
		<path fill="#939598" d="M229.139,136.69l-0.161-0.441c0.399-0.182,0.792-0.301,1.317-0.301c0.987,0,1.541,0.504,1.541,1.457v2.213
			h-0.518v-0.546c-0.252,0.329-0.672,0.623-1.31,0.623c-0.673,0-1.352-0.378-1.352-1.135c0-0.771,0.63-1.177,1.548-1.177
			c0.462,0,0.792,0.063,1.114,0.154v-0.126c0-0.651-0.399-0.987-1.079-0.987C229.812,136.425,229.475,136.536,229.139,136.69z
			 M229.202,138.54c0,0.462,0.42,0.728,0.911,0.728c0.665,0,1.211-0.406,1.211-0.98v-0.35c-0.266-0.077-0.623-0.154-1.064-0.154
			C229.581,137.783,229.202,138.077,229.202,138.54z"/>
		<path fill="#939598" d="M233.521,139.618h-0.539v-3.621h0.539v0.631c0.238-0.393,0.616-0.708,1.24-0.708
			c0.875,0,1.387,0.589,1.387,1.45v2.248h-0.54v-2.115c0-0.672-0.364-1.093-1.001-1.093c-0.623,0-1.085,0.455-1.085,1.135V139.618z"
			/>
		<path fill="#939598" d="M240.2,139.618v-0.729c-0.294,0.435-0.721,0.806-1.387,0.806c-0.868,0-1.73-0.687-1.73-1.884
			c0-1.191,0.862-1.892,1.73-1.892c0.672,0,1.106,0.364,1.387,0.771v-2.185h0.54v5.112H240.2z M238.912,136.403
			c-0.7,0-1.275,0.519-1.275,1.4c0,0.862,0.588,1.408,1.275,1.408c0.672,0,1.31-0.561,1.31-1.408
			C240.221,136.964,239.584,136.403,238.912,136.403z"/>
	</g>
	<g enable-background="new    ">
		<path fill="#939598" d="M220.016,163.928h-0.891l-2.422-3.052l-1.341,1.359v1.692h-0.711v-6.302h0.711v3.763l3.619-3.763h0.918
			l-2.701,2.755L220.016,163.928z"/>
		<path fill="#939598" d="M221.021,158.257v-0.765h0.792v0.765H221.021z M221.067,163.928v-4.654h0.693v4.654H221.067z"/>
		<path fill="#939598" d="M224.307,162.605c0,0.567,0.315,0.774,0.783,0.774c0.234,0,0.432-0.045,0.675-0.162v0.594
			c-0.243,0.126-0.504,0.198-0.837,0.198c-0.747,0-1.314-0.369-1.314-1.314v-2.809h-0.648v-0.612h0.648v-1.404h0.693v1.404h1.477
			v0.612h-1.477V162.605z"/>
		<path fill="#939598" d="M228.971,164.037c-1.359,0-2.386-1.107-2.386-2.422c0-1.323,1.026-2.44,2.386-2.44
			c0.882,0,1.431,0.369,1.863,0.829l-0.459,0.485c-0.369-0.387-0.783-0.702-1.414-0.702c-0.945,0-1.666,0.802-1.666,1.81
			c0,1.018,0.738,1.819,1.71,1.819c0.594,0,1.053-0.298,1.422-0.693l0.441,0.414C230.402,163.658,229.844,164.037,228.971,164.037z"
			/>
		<path fill="#939598" d="M232.705,163.928h-0.693v-6.572h0.693v2.729c0.306-0.505,0.792-0.91,1.594-0.91
			c1.125,0,1.782,0.757,1.782,1.864v2.89h-0.693v-2.719c0-0.864-0.468-1.404-1.288-1.404c-0.801,0-1.396,0.585-1.396,1.458V163.928z
			"/>
		<path fill="#939598" d="M239.608,163.433c0.639,0,1.089-0.261,1.468-0.657l0.432,0.387c-0.468,0.522-1.036,0.874-1.918,0.874
			c-1.278,0-2.322-0.981-2.322-2.431c0-1.351,0.945-2.432,2.232-2.432c1.377,0,2.17,1.099,2.17,2.467c0,0.063,0,0.136-0.009,0.217
			h-3.691C238.069,162.866,238.789,163.433,239.608,163.433z M240.967,161.344c-0.072-0.846-0.558-1.584-1.485-1.584
			c-0.81,0-1.422,0.675-1.512,1.584H240.967z"/>
		<path fill="#939598" d="M243.577,163.928h-0.693v-4.654h0.693v0.811c0.306-0.505,0.792-0.91,1.594-0.91
			c1.125,0,1.782,0.757,1.782,1.864v2.89h-0.693v-2.719c0-0.864-0.468-1.404-1.288-1.404c-0.801,0-1.396,0.585-1.396,1.458V163.928z
			"/>
	</g>
	<g enable-background="new    ">
		<path fill="#939598" d="M183.853,191.366h-1.702v-4.902h1.702c1.541,0,2.605,1.058,2.605,2.444S185.393,191.366,183.853,191.366z
			 M183.853,186.974h-1.149v3.88h1.149c1.239,0,2.031-0.84,2.031-1.933S185.092,186.974,183.853,186.974z"/>
		<path fill="#939598" d="M190.343,186.449h0.455l1.345,4.098l1.401-4.083h0.581l-1.751,4.938h-0.469l-1.345-3.979l-1.352,3.979
			h-0.462l-1.751-4.938h0.603l1.401,4.083L190.343,186.449z"/>
	</g>
	<g enable-background="new    ">
		<path fill="#939598" d="M254.668,189.199l-1.422-1.905h-1.401v1.905h-0.553v-4.902h2.108c1.078,0,1.771,0.581,1.771,1.464
			c0,0.819-0.56,1.295-1.331,1.436l1.506,2.003H254.668z M253.358,184.807h-1.513v1.989h1.506c0.735,0,1.261-0.378,1.261-1.016
			C254.612,185.172,254.149,184.807,253.358,184.807z"/>
		<path fill="#939598" d="M257.789,188.814c0.497,0,0.848-0.203,1.142-0.512l0.336,0.301c-0.364,0.406-0.805,0.68-1.492,0.68
			c-0.995,0-1.807-0.764-1.807-1.891c0-1.051,0.735-1.892,1.737-1.892c1.071,0,1.688,0.854,1.688,1.919c0,0.05,0,0.105-0.007,0.168
			h-2.872C256.591,188.373,257.151,188.814,257.789,188.814z M258.846,187.189c-0.056-0.658-0.434-1.233-1.156-1.233
			c-0.63,0-1.106,0.525-1.177,1.233H258.846z"/>
		<path fill="#939598" d="M262.22,185.592v0.463h-1.142v3.145h-0.539v-3.145h-0.498v-0.47h0.498v-0.314
			c0-0.792,0.399-1.212,1.093-1.212c0.252,0,0.42,0.028,0.595,0.091v0.47c-0.196-0.057-0.343-0.092-0.524-0.092
			c-0.421,0-0.631,0.253-0.631,0.771v0.294H262.22z"/>
	</g>
	<g enable-background="new    ">
		<path fill="#939598" d="M67.18,60.641c0,0.828-0.504,1.252-0.999,1.468c0.747,0.225,1.35,0.657,1.35,1.53
			c0,1.089-0.909,1.729-2.287,1.729h-2.8v-6.302h2.683C66.37,59.066,67.18,59.678,67.18,60.641z M66.46,60.741
			c0-0.631-0.495-1.036-1.395-1.036h-1.918v2.17h1.864C65.866,61.875,66.46,61.488,66.46,60.741z M66.812,63.594
			c0-0.693-0.576-1.09-1.675-1.09h-1.99v2.224h2.116C66.217,64.728,66.812,64.305,66.812,63.594z"/>
		<path fill="#939598" d="M70.878,64.873c0.639,0,1.089-0.261,1.468-0.657l0.432,0.387c-0.468,0.522-1.036,0.874-1.918,0.874
			c-1.278,0-2.322-0.981-2.322-2.431c0-1.351,0.945-2.432,2.232-2.432c1.377,0,2.17,1.099,2.17,2.467c0,0.063,0,0.136-0.009,0.217
			H69.24C69.339,64.305,70.06,64.873,70.878,64.873z M72.238,62.784c-0.072-0.846-0.558-1.584-1.485-1.584
			c-0.81,0-1.422,0.675-1.512,1.584H72.238z"/>
		<path fill="#939598" d="M77.89,65.368v-0.937c-0.378,0.559-0.927,1.035-1.782,1.035c-1.117,0-2.224-0.882-2.224-2.421
			c0-1.531,1.107-2.432,2.224-2.432c0.864,0,1.422,0.469,1.782,0.991v-2.81h0.693v6.572H77.89z M76.233,61.236
			c-0.9,0-1.639,0.666-1.639,1.8c0,1.107,0.756,1.81,1.639,1.81c0.864,0,1.684-0.72,1.684-1.81
			C77.917,61.956,77.098,61.236,76.233,61.236z"/>
		<path fill="#939598" d="M80.823,65.368H80.13v-4.654h0.693v1.215c0.342-0.773,1.018-1.332,1.9-1.296v0.747h-0.054
			c-1.017,0-1.846,0.729-1.846,2.134V65.368z"/>
		<path fill="#939598" d="M85.702,65.476c-1.396,0-2.413-1.099-2.413-2.422s1.026-2.44,2.431-2.44c1.396,0,2.421,1.099,2.421,2.422
			C88.141,64.36,87.106,65.476,85.702,65.476z M85.702,61.226c-1.008,0-1.702,0.802-1.702,1.81c0,1.009,0.738,1.819,1.72,1.819
			c1.008,0,1.71-0.802,1.71-1.801C87.43,62.037,86.683,61.226,85.702,61.226z"/>
		<path fill="#939598" d="M91.516,65.476c-1.396,0-2.413-1.099-2.413-2.422s1.026-2.44,2.431-2.44c1.396,0,2.421,1.099,2.421,2.422
			C93.955,64.36,92.92,65.476,91.516,65.476z M91.516,61.226c-1.008,0-1.702,0.802-1.702,1.81c0,1.009,0.738,1.819,1.72,1.819
			c1.008,0,1.71-0.802,1.71-1.801C93.244,62.037,92.497,61.226,91.516,61.226z"/>
		<path fill="#939598" d="M100.535,60.614c1.071,0,1.729,0.721,1.729,1.873v2.881h-0.693v-2.719c0-0.9-0.45-1.404-1.207-1.404
			c-0.702,0-1.287,0.521-1.287,1.44v2.683h-0.685v-2.736c0-0.874-0.459-1.387-1.197-1.387s-1.296,0.612-1.296,1.467v2.656h-0.693
			v-4.654h0.693v0.783c0.306-0.459,0.72-0.883,1.503-0.883c0.756,0,1.243,0.405,1.495,0.928
			C99.229,61.029,99.724,60.614,100.535,60.614z"/>
	</g>
	<g enable-background="new    ">
		<path fill="#939598" d="M58.935,70.021h0.522v6.347h-0.702V70.76l-1.188,0.369l-0.171-0.576L58.935,70.021z"/>
		<path fill="#939598" d="M63.201,76.458c-1.341,0-2.368-0.729-2.368-1.791c0-0.757,0.54-1.288,1.296-1.558
			c-0.585-0.271-1.081-0.721-1.081-1.459c0-0.98,1-1.674,2.152-1.674s2.151,0.693,2.151,1.674c0,0.738-0.495,1.188-1.08,1.459
			c0.747,0.279,1.296,0.792,1.296,1.548C65.569,75.738,64.542,76.458,63.201,76.458z M63.201,73.442
			c-0.918,0-1.647,0.495-1.647,1.206c0,0.648,0.612,1.188,1.647,1.188s1.647-0.54,1.647-1.188
			C64.849,73.937,64.119,73.442,63.201,73.442z M63.201,70.597c-0.819,0-1.44,0.459-1.44,1.098c0,0.693,0.639,1.162,1.44,1.162
			s1.44-0.469,1.44-1.162C64.642,71.065,64.021,70.597,63.201,70.597z"/>
		<path fill="#939598" d="M66.891,70.066h0.846v0.045l-0.729,2.403H66.62L66.891,70.066z"/>
		<path fill="#939598" d="M72.813,70.021v4.258h0.981v0.595h-0.981v1.494h-0.684v-1.494h-3.322l-0.18-0.514l3.565-4.339H72.813z
			 M72.129,71.029l-2.647,3.25h2.647V71.029z"/>
		<path fill="#939598" d="M75.135,70.066h0.837v0.045l-0.729,2.403h-0.378L75.135,70.066z M76.899,70.066h0.829v0.045l-0.729,2.403
			H76.62L76.899,70.066z"/>
		<path fill="#939598" d="M85.755,76.368h-0.801l-1.44-1.899l-1.449,1.899H81.29L83.118,74l-1.755-2.286h0.792l1.377,1.801
			l1.377-1.801h0.774l-1.765,2.269L85.755,76.368z"/>
		<path fill="#939598" d="M90.596,70.021h0.522v6.347h-0.702V70.76l-1.188,0.369l-0.171-0.576L90.596,70.021z"/>
		<path fill="#939598" d="M95.241,76.476c-1.629,0-2.656-1.477-2.656-3.25s1.044-3.269,2.674-3.269c1.621,0,2.647,1.477,2.647,3.25
			S96.861,76.476,95.241,76.476z M95.241,70.606c-1.179,0-1.917,1.206-1.917,2.602s0.756,2.62,1.936,2.62s1.909-1.216,1.909-2.602
			C97.167,71.84,96.42,70.606,95.241,70.606z"/>
		<path fill="#939598" d="M99.317,70.066h0.846v0.045l-0.729,2.403h-0.387L99.317,70.066z"/>
		<path fill="#939598" d="M103.502,76.458c-1.341,0-2.368-0.729-2.368-1.791c0-0.757,0.54-1.288,1.296-1.558
			c-0.585-0.271-1.081-0.721-1.081-1.459c0-0.98,1-1.674,2.152-1.674s2.151,0.693,2.151,1.674c0,0.738-0.495,1.188-1.08,1.459
			c0.747,0.279,1.296,0.792,1.296,1.548C105.87,75.738,104.844,76.458,103.502,76.458z M103.502,73.442
			c-0.918,0-1.647,0.495-1.647,1.206c0,0.648,0.612,1.188,1.647,1.188c1.035,0,1.647-0.54,1.647-1.188
			C105.15,73.937,104.42,73.442,103.502,73.442z M103.502,70.597c-0.819,0-1.44,0.459-1.44,1.098c0,0.693,0.639,1.162,1.44,1.162
			s1.44-0.469,1.44-1.162C104.943,71.065,104.322,70.597,103.502,70.597z"/>
		<path fill="#939598" d="M107.192,70.066h0.837v0.045l-0.729,2.403h-0.378L107.192,70.066z M108.956,70.066h0.829v0.045
			l-0.729,2.403h-0.378L108.956,70.066z"/>
	</g>
	<g enable-background="new    ">
		<path fill="#939598" d="M234.672,71.397h0.711v5.645h3.547v0.657h-4.258V71.397z"/>
		<path fill="#939598" d="M240.145,72.027v-0.765h0.792v0.765H240.145z M240.189,77.699v-4.654h0.693v4.654H240.189z"/>
		<path fill="#939598" d="M245.941,73.045h0.747l-2.025,4.69h-0.612l-2.017-4.69h0.766l1.566,3.862L245.941,73.045z"/>
		<path fill="#939598" d="M247.794,72.027v-0.765h0.792v0.765H247.794z M247.839,77.699v-4.654h0.693v4.654H247.839z"/>
		<path fill="#939598" d="M250.836,77.699h-0.693v-4.654h0.693v0.811c0.306-0.505,0.792-0.91,1.594-0.91
			c1.125,0,1.782,0.757,1.782,1.864v2.89h-0.693V74.98c0-0.864-0.468-1.404-1.288-1.404c-0.801,0-1.396,0.585-1.396,1.458V77.699z"
			/>
		<path fill="#939598" d="M257.749,79.157c-0.774,0-1.495-0.216-2.116-0.647l0.315-0.54c0.531,0.387,1.125,0.594,1.792,0.594
			c1.026,0,1.693-0.567,1.693-1.656v-0.55c-0.405,0.541-0.973,0.981-1.828,0.981c-1.116,0-2.188-0.828-2.188-2.188
			c0-1.368,1.08-2.206,2.188-2.206c0.873,0,1.44,0.433,1.818,0.937v-0.837h0.693v3.844C260.116,78.392,259.18,79.157,257.749,79.157
			z M257.739,73.557c-0.882,0-1.611,0.604-1.611,1.576c0,0.954,0.747,1.593,1.611,1.593c0.882,0,1.711-0.63,1.711-1.584
			C259.45,74.178,258.622,73.557,257.739,73.557z"/>
		<path fill="#939598" d="M265.517,70.514l-4.178,8.337H260.7l4.177-8.337H265.517z"/>
		<path fill="#939598" d="M268.54,77.699h-2.188v-6.302h2.188c1.98,0,3.348,1.359,3.348,3.142
			C271.888,76.322,270.521,77.699,268.54,77.699z M268.54,72.054h-1.477v4.987h1.477c1.593,0,2.61-1.08,2.61-2.484
			S270.133,72.054,268.54,72.054z"/>
		<path fill="#939598" d="M273.291,72.027v-0.765h0.792v0.765H273.291z M273.336,77.699v-4.654h0.692v4.654H273.336z"/>
		<path fill="#939598" d="M276.333,77.699h-0.693v-4.654h0.693v0.811c0.306-0.505,0.792-0.91,1.594-0.91
			c1.125,0,1.781,0.757,1.781,1.864v2.89h-0.692V74.98c0-0.864-0.468-1.404-1.288-1.404c-0.801,0-1.395,0.585-1.395,1.458V77.699z"
			/>
		<path fill="#939598" d="M281.201,72.027v-0.765h0.792v0.765H281.201z M281.247,77.699v-4.654h0.692v4.654H281.247z"/>
		<path fill="#939598" d="M284.243,77.699h-0.692v-4.654h0.692v0.811c0.307-0.505,0.793-0.91,1.594-0.91
			c1.125,0,1.783,0.757,1.783,1.864v2.89h-0.693V74.98c0-0.864-0.469-1.404-1.287-1.404c-0.802,0-1.396,0.585-1.396,1.458V77.699z"
			/>
		<path fill="#939598" d="M291.156,79.157c-0.774,0-1.495-0.216-2.116-0.647l0.315-0.54c0.531,0.387,1.126,0.594,1.792,0.594
			c1.025,0,1.692-0.567,1.692-1.656v-0.55c-0.405,0.541-0.973,0.981-1.827,0.981c-1.117,0-2.188-0.828-2.188-2.188
			c0-1.368,1.081-2.206,2.188-2.206c0.873,0,1.439,0.433,1.818,0.937v-0.837h0.693v3.844
			C293.524,78.392,292.587,79.157,291.156,79.157z M291.147,73.557c-0.883,0-1.611,0.604-1.611,1.576
			c0,0.954,0.746,1.593,1.611,1.593c0.882,0,1.71-0.63,1.71-1.584C292.857,74.178,292.029,73.557,291.147,73.557z"/>
		<path fill="#939598" d="M302.227,77.699l-1.827-2.449h-1.801v2.449h-0.711v-6.302h2.709c1.387,0,2.278,0.747,2.278,1.882
			c0,1.053-0.72,1.665-1.71,1.845l1.936,2.575H302.227z M300.543,72.054h-1.944v2.557h1.936c0.945,0,1.621-0.486,1.621-1.306
			C302.155,72.522,301.561,72.054,300.543,72.054z"/>
		<path fill="#939598" d="M306.312,77.807c-1.395,0-2.412-1.099-2.412-2.422s1.026-2.44,2.431-2.44c1.396,0,2.421,1.099,2.421,2.422
			C308.751,76.691,307.716,77.807,306.312,77.807z M306.312,73.557c-1.008,0-1.701,0.802-1.701,1.81c0,1.009,0.738,1.819,1.72,1.819
			c1.009,0,1.71-0.802,1.71-1.801C308.04,74.368,307.294,73.557,306.312,73.557z"/>
		<path fill="#939598" d="M312.126,77.807c-1.396,0-2.412-1.099-2.412-2.422s1.025-2.44,2.43-2.44c1.396,0,2.422,1.099,2.422,2.422
			C314.565,76.691,313.53,77.807,312.126,77.807z M312.126,73.557c-1.008,0-1.701,0.802-1.701,1.81c0,1.009,0.738,1.819,1.719,1.819
			c1.009,0,1.711-0.802,1.711-1.801C313.854,74.368,313.107,73.557,312.126,73.557z"/>
		<path fill="#939598" d="M321.146,72.945c1.07,0,1.729,0.721,1.729,1.873v2.881h-0.693V74.98c0-0.9-0.451-1.404-1.207-1.404
			c-0.702,0-1.287,0.521-1.287,1.44v2.683h-0.685v-2.736c0-0.874-0.459-1.387-1.197-1.387s-1.296,0.612-1.296,1.467v2.656h-0.693
			v-4.654h0.693v0.783c0.306-0.459,0.72-0.883,1.503-0.883c0.757,0,1.243,0.405,1.495,0.928
			C319.839,73.36,320.335,72.945,321.146,72.945z"/>
	</g>
	<g enable-background="new    ">
		<path fill="#939598" d="M252.483,84.026l-0.522-0.378c0.567-0.846,1.161-1.341,2.269-1.341c1.143,0,1.954,0.756,1.954,1.791
			c0,0.928-0.486,1.495-1.594,2.458l-1.683,1.494h3.34v0.648h-4.402V88.15l2.287-2.017c0.963-0.864,1.314-1.351,1.314-1.98
			c0-0.738-0.585-1.207-1.27-1.207C253.456,82.946,252.988,83.324,252.483,84.026z"/>
		<path fill="#939598" d="M257.586,83.036v-0.639h4.024v0.522l-1.98,2.196c1.107,0.09,2.08,0.621,2.08,1.782
			c0,1.135-0.937,1.909-2.107,1.909c-1.053,0-1.836-0.46-2.35-1.126l0.513-0.459c0.486,0.595,1.071,0.937,1.846,0.937
			c0.765,0,1.377-0.486,1.377-1.233c0-0.792-0.72-1.225-1.764-1.225h-0.405l-0.144-0.423l1.99-2.242H257.586z"/>
		<path fill="#939598" d="M263.175,82.397h0.847v0.045l-0.729,2.403h-0.387L263.175,82.397z"/>
		<path fill="#939598" d="M269.144,83.558c-0.469-0.396-0.91-0.621-1.486-0.621c-1.143,0-1.854,1.152-1.845,2.782
			c0.342-0.505,0.873-0.964,1.792-0.964c1.179,0,2.178,0.757,2.178,1.944c0,1.225-0.98,2.107-2.26,2.107
			c-0.693,0-1.26-0.243-1.656-0.64c-0.504-0.504-0.792-1.152-0.792-2.448c0-1.927,0.972-3.431,2.62-3.431
			c0.756,0,1.314,0.271,1.863,0.721L269.144,83.558z M267.514,85.368c-0.945,0-1.575,0.675-1.575,1.387
			c0,0.819,0.666,1.422,1.594,1.422c0.927,0,1.521-0.639,1.521-1.449C269.054,85.944,268.423,85.368,267.514,85.368z"/>
		<path fill="#939598" d="M271.203,82.397h0.837v0.045l-0.729,2.403h-0.379L271.203,82.397z M272.968,82.397h0.828v0.045
			l-0.729,2.403h-0.378L272.968,82.397z"/>
		<path fill="#939598" d="M281.824,88.699h-0.802l-1.439-1.899l-1.449,1.899h-0.775l1.828-2.368l-1.756-2.286h0.793l1.377,1.801
			l1.377-1.801h0.775l-1.766,2.269L281.824,88.699z"/>
		<path fill="#939598" d="M286.665,82.352h0.521v6.347h-0.701v-5.608l-1.188,0.369l-0.171-0.576L286.665,82.352z"/>
		<path fill="#939598" d="M291.31,88.807c-1.63,0-2.656-1.477-2.656-3.25s1.045-3.269,2.674-3.269c1.621,0,2.646,1.477,2.646,3.25
			S292.93,88.807,291.31,88.807z M291.31,82.937c-1.18,0-1.918,1.206-1.918,2.602s0.756,2.62,1.936,2.62s1.908-1.216,1.908-2.602
			C293.235,84.171,292.488,82.937,291.31,82.937z"/>
		<path fill="#939598" d="M295.386,82.397h0.846v0.045l-0.729,2.403h-0.388L295.386,82.397z"/>
		<path fill="#939598" d="M297.348,82.397h4.276v0.531l-2.863,5.771h-0.792l2.845-5.653h-3.466V82.397z"/>
		<path fill="#939598" d="M302.954,82.397h0.838v0.045l-0.729,2.403h-0.378L302.954,82.397z M304.719,82.397h0.829v0.045
			l-0.73,2.403h-0.377L304.719,82.397z"/>
	</g>
	<g enable-background="new    ">
		<path fill="#939598" d="M439.179,60.641c0,0.828-0.504,1.252-1,1.468c0.748,0.225,1.351,0.657,1.351,1.53
			c0,1.089-0.909,1.729-2.286,1.729h-2.801v-6.302h2.684C438.368,59.066,439.179,59.678,439.179,60.641z M438.458,60.741
			c0-0.631-0.495-1.036-1.395-1.036h-1.918v2.17h1.863C437.864,61.875,438.458,61.488,438.458,60.741z M438.81,63.594
			c0-0.693-0.576-1.09-1.675-1.09h-1.989v2.224h2.115C438.216,64.728,438.81,64.305,438.81,63.594z"/>
		<path fill="#939598" d="M442.876,64.873c0.64,0,1.09-0.261,1.469-0.657l0.432,0.387c-0.469,0.522-1.035,0.874-1.918,0.874
			c-1.278,0-2.322-0.981-2.322-2.431c0-1.351,0.945-2.432,2.232-2.432c1.377,0,2.17,1.099,2.17,2.467c0,0.063,0,0.136-0.01,0.217
			h-3.69C441.337,64.305,442.058,64.873,442.876,64.873z M444.235,62.784c-0.071-0.846-0.558-1.584-1.484-1.584
			c-0.811,0-1.423,0.675-1.513,1.584H444.235z"/>
		<path fill="#939598" d="M449.888,65.368v-0.937c-0.378,0.559-0.928,1.035-1.782,1.035c-1.116,0-2.224-0.882-2.224-2.421
			c0-1.531,1.107-2.432,2.224-2.432c0.864,0,1.423,0.469,1.782,0.991v-2.81h0.693v6.572H449.888z M448.231,61.236
			c-0.9,0-1.639,0.666-1.639,1.8c0,1.107,0.756,1.81,1.639,1.81c0.864,0,1.684-0.72,1.684-1.81
			C449.915,61.956,449.096,61.236,448.231,61.236z"/>
		<path fill="#939598" d="M452.821,65.368h-0.693v-4.654h0.693v1.215c0.342-0.773,1.018-1.332,1.899-1.296v0.747h-0.054
			c-1.018,0-1.846,0.729-1.846,2.134V65.368z"/>
		<path fill="#939598" d="M457.7,65.476c-1.396,0-2.413-1.099-2.413-2.422s1.026-2.44,2.431-2.44c1.396,0,2.422,1.099,2.422,2.422
			C460.14,64.36,459.104,65.476,457.7,65.476z M457.7,61.226c-1.009,0-1.702,0.802-1.702,1.81c0,1.009,0.738,1.819,1.72,1.819
			c1.008,0,1.711-0.802,1.711-1.801C459.429,62.037,458.681,61.226,457.7,61.226z"/>
		<path fill="#939598" d="M463.514,65.476c-1.396,0-2.413-1.099-2.413-2.422s1.026-2.44,2.432-2.44c1.395,0,2.421,1.099,2.421,2.422
			C465.953,64.36,464.918,65.476,463.514,65.476z M463.514,61.226c-1.009,0-1.702,0.802-1.702,1.81c0,1.009,0.738,1.819,1.721,1.819
			c1.008,0,1.71-0.802,1.71-1.801C465.242,62.037,464.495,61.226,463.514,61.226z"/>
		<path fill="#939598" d="M472.532,60.614c1.072,0,1.729,0.721,1.729,1.873v2.881h-0.693v-2.719c0-0.9-0.449-1.404-1.206-1.404
			c-0.702,0-1.287,0.521-1.287,1.44v2.683h-0.685v-2.736c0-0.874-0.459-1.387-1.197-1.387s-1.297,0.612-1.297,1.467v2.656h-0.692
			v-4.654h0.692v0.783c0.307-0.459,0.721-0.883,1.504-0.883c0.756,0,1.242,0.405,1.494,0.928
			C471.228,61.029,471.722,60.614,472.532,60.614z"/>
	</g>
	<g enable-background="new    ">
		<path fill="#939598" d="M433.071,70.021h0.521v6.347h-0.701V70.76l-1.188,0.369l-0.171-0.576L433.071,70.021z"/>
		<path fill="#939598" d="M439.075,70.021v4.258h0.98v0.595h-0.98v1.494h-0.685v-1.494h-3.321l-0.181-0.514l3.565-4.339H439.075z
			 M438.391,71.029l-2.647,3.25h2.647V71.029z"/>
		<path fill="#939598" d="M441.396,70.066h0.847v0.045l-0.729,2.403h-0.387L441.396,70.066z"/>
		<path fill="#939598" d="M443.817,71.695l-0.522-0.378c0.567-0.846,1.161-1.341,2.269-1.341c1.143,0,1.953,0.756,1.953,1.791
			c0,0.928-0.486,1.495-1.594,2.458l-1.683,1.494h3.34v0.648h-4.402v-0.549l2.286-2.017c0.964-0.864,1.314-1.351,1.314-1.98
			c0-0.738-0.584-1.207-1.27-1.207C444.789,70.615,444.321,70.993,443.817,71.695z"/>
		<path fill="#939598" d="M448.992,70.066h0.837v0.045l-0.729,2.403h-0.379L448.992,70.066z M450.757,70.066h0.828v0.045
			l-0.729,2.403h-0.378L450.757,70.066z"/>
		<path fill="#939598" d="M459.612,76.368h-0.801l-1.44-1.899l-1.449,1.899h-0.774L456.976,74l-1.756-2.286h0.792l1.378,1.801
			l1.377-1.801h0.774l-1.765,2.269L459.612,76.368z"/>
		<path fill="#939598" d="M465.317,76.476c-0.818,0-1.413-0.333-1.943-0.774l0.414-0.55c0.513,0.45,0.99,0.676,1.548,0.676
			c1.134,0,1.899-1.152,1.872-2.764c-0.342,0.549-0.908,1.008-1.782,1.008c-1.296,0-2.196-0.819-2.196-1.962
			c0-1.207,0.928-2.152,2.269-2.152c0.72,0,1.251,0.243,1.656,0.648c0.495,0.495,0.783,1.18,0.783,2.449
			C467.938,75.062,466.876,76.476,465.317,76.476z M465.472,70.589c-0.945,0-1.514,0.692-1.514,1.485
			c0,0.81,0.631,1.386,1.549,1.386c0.963,0,1.566-0.702,1.566-1.431C467.073,71.219,466.416,70.589,465.472,70.589z"/>
		<path fill="#939598" d="M469.341,70.066h0.846v0.045l-0.729,2.403h-0.388L469.341,70.066z"/>
		<path fill="#939598" d="M471.761,70.066h3.629v0.657h-3.008l-0.135,2.017c0.369-0.162,0.721-0.279,1.242-0.279
			c1.225,0,2.18,0.729,2.18,1.936c0,1.242-0.938,2.08-2.251,2.08c-0.9,0-1.684-0.433-2.251-1l0.469-0.513
			c0.549,0.531,1.152,0.864,1.791,0.864c0.9,0,1.521-0.595,1.521-1.404c0-0.792-0.639-1.333-1.566-1.333
			c-0.531,0-0.955,0.162-1.324,0.36l-0.477-0.315L471.761,70.066z"/>
		<path fill="#939598" d="M477.054,70.066h0.836v0.045l-0.729,2.403h-0.379L477.054,70.066z M478.817,70.066h0.828v0.045
			l-0.729,2.403h-0.379L478.817,70.066z"/>
	</g>
	<g enable-background="new    ">
		<path fill="#939598" d="M237.531,199.695v1.105h1.605v0.514h-4.55v-1.703c0-1.027,0.546-1.703,1.449-1.703
			C237.024,197.908,237.531,198.727,237.531,199.695z M235.062,199.65v1.15h2.002v-1.125c0-0.754-0.403-1.248-1.008-1.248
			C235.399,198.427,235.062,198.916,235.062,199.65z"/>
		<path fill="#939598" d="M236.42,196.927l-0.41,0.148c-0.169-0.37-0.279-0.734-0.279-1.222c0-0.917,0.468-1.431,1.353-1.431h2.054
			v0.482h-0.507c0.306,0.233,0.578,0.623,0.578,1.215c0,0.624-0.351,1.254-1.053,1.254c-0.715,0-1.092-0.584-1.092-1.436
			c0-0.43,0.059-0.734,0.143-1.033h-0.117c-0.604,0-0.916,0.369-0.916,1C236.173,196.302,236.276,196.615,236.42,196.927z
			 M238.136,196.869c0.429,0,0.676-0.391,0.676-0.846c0-0.617-0.377-1.125-0.91-1.125h-0.325c-0.071,0.248-0.143,0.579-0.143,0.988
			C237.434,196.517,237.707,196.869,238.136,196.869z"/>
		<path fill="#939598" d="M239.137,192.857v0.501h-3.36v-0.501h0.585c-0.364-0.221-0.656-0.571-0.656-1.15
			c0-0.812,0.546-1.287,1.345-1.287h2.087v0.501h-1.963c-0.624,0-1.015,0.338-1.015,0.93c0,0.578,0.423,1.007,1.054,1.007H239.137z"
			/>
		<path fill="#939598" d="M238.182,188.678c0.409,0,0.559-0.228,0.559-0.565c0-0.17-0.032-0.312-0.117-0.488h0.429
			c0.092,0.176,0.144,0.364,0.144,0.605c0,0.539-0.267,0.949-0.949,0.949h-2.028v0.467h-0.441v-0.467h-1.015v-0.501h1.015v-1.066
			h0.441v1.066H238.182z"/>
	</g>
	<g enable-background="new    ">
		<path fill="#939598" d="M239.137,186.943v0.5h-3.36v-0.5h0.877c-0.559-0.247-0.962-0.734-0.936-1.371h0.539v0.039
			c0,0.734,0.526,1.332,1.541,1.332H239.137z"/>
	</g>
	<g enable-background="new    ">
		<path fill="#939598" d="M239.247,183.224c0.695,0.286,0.949,0.611,0.949,1.118c0,0.28-0.059,0.487-0.169,0.715l-0.396-0.169
			c0.084-0.162,0.123-0.312,0.123-0.526c0-0.299-0.155-0.487-0.63-0.688l-3.348,1.527v-0.553l2.802-1.223l-2.802-1.078v-0.533
			L239.247,183.224z"/>
	</g>
</g>
</svg>
