<?xml version="1.0" encoding="utf-8"?>
<!-- Generator: Adobe Illustrator 15.0.2, SVG Export Plug-In . SVG Version: 6.00 Build 0)  -->
<!DOCTYPE svg PUBLIC "-//W3C//DTD SVG 1.1//EN" "http://www.w3.org/Graphics/SVG/1.1/DTD/svg11.dtd">
<svg version="1.1" id="Layer_1" xmlns="http://www.w3.org/2000/svg" xmlns:xlink="http://www.w3.org/1999/xlink" x="0px" y="0px"
	 width="26.776px" height="11.293px" viewBox="238.09 492.759 26.776 11.293" enable-background="new 238.09 492.759 26.776 11.293"
	 xml:space="preserve">
<path fill="#FFFFFF" d="M240.064,497.446l5.07-2.69l5.353,2.659l0.003,5.328h-10.426V497.446L240.064,497.446z M238.934,503.936
	h12.685v-5.402h0.926v-1.479l-7.405-3.713l-7.05,3.71v1.481h0.844V503.936L238.934,503.936z"/>
<rect x="242.925" y="500.203" fill="#FFFFFF" width="4.582" height="1.131"/>
<rect x="242.925" y="497.833" fill="#FFFFFF" width="4.582" height="1.131"/>
<g>
	<path fill="#FFFFFF" d="M258.65,503.211c-1.536,0-2.787-1.25-2.787-2.787c0-0.884,0.442-1.733,1.182-2.273l0.026-0.02l0.001-0.974
		l-0.094,0.05c-1.207,0.632-1.956,1.864-1.956,3.217c0,2.001,1.627,3.628,3.628,3.628c1.431,0,2.732-0.844,3.316-2.15l0.012-0.027
		l-0.555-1.111l-0.036,0.188C261.137,502.26,259.986,503.211,258.65,503.211"/>
	<path fill="#FFFFFF" d="M264.534,501.463l-1.041,0.413l-1.556-3.442h-3.464l-0.041-0.654h2.413v-0.901h-2.469l-0.136-2.189
		l0.066-0.003c0.531-0.021,0.946-0.443,0.946-0.962c0-0.531-0.442-0.965-0.985-0.965c-0.544,0-0.986,0.434-0.986,0.965
		c0,0.051,0.006,0.105,0.018,0.17l0.013,0.072l-0.021,0.001l0.334,5.371h3.729l1.672,3.693l1.84-0.729L264.534,501.463z"/>
</g>
</svg>
