<svg xmlns="http://www.w3.org/2000/svg" width="85.331" height="57.2" viewBox="0.5 14.563 85.331 57.2"><path fill="#FFF" d="M69.57 34.015c-2.5 0-4.898.557-7.134 1.652l-.396.192-4.755-7.828v-7.19c0-.58-.473-1.052-1.053-1.052h-10.18c-.58 0-1.053.472-1.053 1.052 0 .58.472 1.053 1.052 1.053h9.13v6.275L42.984 48.25 31.448 29.26l-2.527-4.744h4.927c.58 0 1.053-.472 1.053-1.05 0-.58-.472-1.054-1.053-1.054H23.4a1.053 1.053 0 0 0 0 2.104h3.12l2.018 3.758-4.525 7.45-.392-.185a16.078 16.078 0 0 0-6.857-1.522C7.796 34.015.5 41.312.5 50.278c0 8.966 7.296 16.262 16.263 16.262 8.324 0 15.437-6.488 16.19-14.77l.042-.44h9.995c.096-.005.182-.017.275-.04a1.16 1.16 0 0 0 .438-.252.992.992 0 0 0 .183-.215l12.39-20.4 3.97 6.533-.354.26c-4.123 3.066-6.586 7.95-6.586 13.063 0 8.967 7.297 16.262 16.264 16.262 8.968 0 16.262-7.295 16.262-16.263 0-8.968-7.296-16.265-16.263-16.265zm0 30.422c-7.81 0-14.16-6.352-14.16-14.158 0-4.394 2.008-8.468 5.508-11.183l.426-.33 7.325 12.058c.18.297.547.49.937.49a.985.985 0 0 0 .51-.136c.494-.304.654-.952.353-1.448L63.142 37.67l.488-.227c1.89-.88 3.89-1.324 5.94-1.324 7.806 0 14.155 6.352 14.155 14.158 0 7.806-6.35 14.16-14.156 14.16zm-52.807 0c-7.808 0-14.16-6.352-14.16-14.158 0-7.806 6.353-14.16 14.16-14.16 1.95 0 3.852.4 5.65 1.187l.504.22L15.5 49.735a1.053 1.053 0 0 0 .9 1.598h14.485l-.06.535a14.14 14.14 0 0 1-14.062 12.57zm12.93-34.013l11.422 18.804h-8.12l-.04-.438c-.43-4.7-2.893-8.98-6.76-11.747l-.365-.258 3.863-6.36zm-4.535 8.48c3.166 2.342 5.23 5.908 5.667 9.787l.06.538H18.27l6.463-10.64.425.316z"/></svg>