<svg xmlns="http://www.w3.org/2000/svg" width="59.486" height="57.2" viewBox="13.422 14.563 59.486 57.2"><g fill="#FFF"><path d="M38.307 58.63c-2.68 0-4.86 2.18-4.86 4.86 0 2.678 2.18 4.858 4.86 4.858s4.86-2.18 4.86-4.86c0-2.678-2.18-4.858-4.86-4.858zm0 7.994a3.14 3.14 0 0 1-3.136-3.135c0-1.73 1.407-3.138 3.137-3.138s3.137 1.405 3.137 3.137a3.14 3.14 0 0 1-3.137 3.134zM52.685 58.63a4.863 4.863 0 0 0-4.858 4.86c0 2.678 2.18 4.858 4.858 4.858 2.68 0 4.86-2.18 4.86-4.86 0-2.678-2.18-4.858-4.86-4.858zm0 7.994a3.14 3.14 0 0 1-3.137-3.135c0-1.73 1.407-3.138 3.137-3.138s3.137 1.405 3.137 3.137a3.142 3.142 0 0 1-3.137 3.134zM68.246 29.013a.864.864 0 0 0-.722-.387H28.31c-.694-3.203-1.236-5.643-1.414-6.28-.658-2.364-2.89-2.99-3.98-2.99h-.474a2.36 2.36 0 0 0-2.138-1.374 2.363 2.363 0 0 0-2.362 2.36c0 1.3 1.06 2.362 2.362 2.362 1.04 0 1.918-.686 2.23-1.625h.382c.02 0 1.85.024 2.32 1.73.348 1.255 2.32 10.425 5.862 27.253l.363 1.72c.995 2.972 2.52 3.187 4.912 3.187h22.256c.473 0 .857-.39.857-.865a.857.857 0 0 0-.857-.856H36.373c-2.175 0-2.653-.155-3.252-1.915l-.544-2.603H57.28c1.835-.04 2.787-.63 3.78-2.346l7.253-16.557a.836.836 0 0 0-.067-.817zm-8.72 16.593c-.688 1.176-1.147 1.373-2.275 1.4H32.23l-3.433-16.66h37.41l-6.68 15.26z"/></g></svg>