<svg xmlns="http://www.w3.org/2000/svg" width="59.486" height="57.2" viewBox="13.422 14.563 59.486 57.2"><g fill="#FFF"><path d="M22.087 50.274h42.156v-.905c0-10.358-7.404-19.103-17.607-20.792a.59.59 0 0 1-.494-.584v-1.527h.328a2.404 2.404 0 0 0 2.402-2.402v-.596a2.404 2.404 0 0 0-2.402-2.403h-6.607a2.405 2.405 0 0 0-2.402 2.402v.595c0 1.232.925 2.26 2.15 2.39l.065.007v1.63a.59.59 0 0 1-.48.58C29.282 30.565 22.088 39.27 22.088 49.37v.904zm40.326-1.81H23.918l.004-.08a19.198 19.198 0 0 1 15.61-17.933 2.402 2.402 0 0 0 1.953-2.358V26.04a.63.63 0 0 1 .037-.185l.238-1.2h-1.898a.593.593 0 0 1-.592-.59v-.597c0-.326.266-.592.592-.592h6.607c.325 0 .592.266.592.592v.596a.594.594 0 0 1-.593.592h-2.43l.253 1.203a.62.62 0 0 1 .037.18v1.954c0 1.18.844 2.176 2.01 2.37 9.01 1.493 15.615 8.903 16.068 18.02l.005.08zM15.376 65.265h55.578V59.91a6.912 6.912 0 0 0-6.904-6.904H22.28a6.913 6.913 0 0 0-6.904 6.904v5.355zm1.785-5.357a5.126 5.126 0 0 1 5.12-5.12h41.77a5.126 5.126 0 0 1 5.12 5.12v3.57H17.16v-3.57z"/></g></svg>