<svg xmlns="http://www.w3.org/2000/svg" width="85.745" height="66.731" viewBox="0.292 9.8 85.745 66.731"><g fill="#FFF"><path d="M45.858 37.346l-6.042-5.855-2.035 8.216-7.483 3.966 7.187 4.476.008.05 1.453 8.298 6.48-5.455.047.01 8.342 1.183-3.194-7.853 3.73-7.603-8.448.604-.044-.034zm1.87 6.937l1.898 4.68-5.006-.712-3.862 3.255-.033-.186-.837-4.788-4.29-2.672 4.466-2.366 1.213-4.91.137.13 3.494 3.39 5.038-.36-2.218 4.54z"/><path d="M77.73 26.75L72.87 9.8.29 30.614 5.15 47.562l1.272-.363a6.222 6.222 0 0 1 4.758.54 6.26 6.26 0 0 1 2.438 8.498 6.205 6.205 0 0 1-3.75 2.98l-1.27.365 4.86 16.95 72.58-20.81-4.86-16.954-1.276.364a6.216 6.216 0 0 1-4.756-.54 6.207 6.207 0 0 1-2.975-3.746 6.206 6.206 0 0 1 .538-4.754 6.232 6.232 0 0 1 3.75-2.977l1.27-.366zm-3.25-1.72l-.085.04a8.782 8.782 0 0 0-4.004 3.74c-2.376 4.292-.82 9.723 3.466 12.104a8.995 8.995 0 0 0 5.38 1.054l.097-.01 3.424 11.94-67.48 19.353-3.425-11.947.083-.038a8.808 8.808 0 0 0 4.004-3.742 8.846 8.846 0 0 0 .764-6.77 8.852 8.852 0 0 0-4.238-5.334 8.824 8.824 0 0 0-5.377-1.056l-.09.01L3.57 32.43l67.486-19.35 3.423 11.95z"/></g></svg>