<?xml version="1.0" encoding="utf-8"?>
<!-- Generator: Adobe Illustrator 15.0.2, SVG Export Plug-In . SVG Version: 6.00 Build 0)  -->
<!DOCTYPE svg PUBLIC "-//W3C//DTD SVG 1.1//EN" "http://www.w3.org/Graphics/SVG/1.1/DTD/svg11.dtd">
<svg version="1.1" id="Layer_1" xmlns="http://www.w3.org/2000/svg" xmlns:xlink="http://www.w3.org/1999/xlink" x="0px" y="0px"
	 width="85.745px" height="66.731px" viewBox="0.292 9.8 85.745 66.731" enable-background="new 0.292 9.8 85.745 66.731"
	 xml:space="preserve">
<g id="Layer_2" display="none">
	<rect x="0.5" y="0.5" display="inline" fill="#EC008C" width="85.33" height="85.33"/>
</g>
<g id="Layer_1_1_">
	<g id="Restaurants__x26__Bars" display="none">
		<path display="inline" fill="#FFFFFF" d="M55.429,42.325l-0.254-24.959c-0.01-0.757-0.312-1.464-0.851-1.992
			c-0.531-0.521-1.234-0.809-2.009-0.809h-0.002c-1.621,0.017-3.535,1.199-3.691,2.879L47.03,39.36
			c-0.065,0.898,0.25,1.791,0.867,2.448c0.528,0.562,1.248,0.917,2.017,1l-0.509,26.493c-0.014,0.544,0.199,1.077,0.585,1.462
			c0.377,0.375,0.877,0.582,1.407,0.582l2.875-0.074c0.526-0.015,1.037-0.242,1.396-0.623c0.361-0.383,0.561-0.902,0.544-1.43
			L55.429,42.325z M51.681,41.163l-1.242-0.065l-0.185-0.007c-0.411,0-0.81-0.172-1.091-0.472c-0.286-0.304-0.432-0.717-0.402-1.133
			l1.592-21.895c0.062-0.618,1.08-1.281,1.992-1.291c0.287,0,0.559,0.111,0.766,0.313c0.207,0.204,0.324,0.478,0.328,0.771
			l0.242,23.658h-0.025l0.824,28.229c0.002,0.068-0.021,0.133-0.07,0.186c-0.047,0.048-0.112,0.078-0.182,0.079l-2.83,0.075
			c-0.064,0-0.133-0.028-0.182-0.075c-0.05-0.052-0.076-0.12-0.074-0.196L51.681,41.163z"/>
		<path display="inline" fill="#FFFFFF" d="M40.806,26.575c0,1.561-0.355,3.129-1.043,4.568l-1.706,4.438
			c-0.265,0.563-0.392,1.189-0.366,1.811l1.248,30.414c0.024,0.578-0.192,1.148-0.593,1.566c-0.401,0.417-0.963,0.656-1.542,0.656
			h-0.952c-0.578,0-1.141-0.238-1.541-0.656c-0.401-0.417-0.617-0.988-0.594-1.566L34.965,37.4c0.026-0.628-0.104-1.259-0.36-1.796
			l-1.683-4.34l-0.021-0.049c-0.687-1.419-1.05-3.003-1.05-4.58v-12.07h-1.736v12.069c0,1.831,0.42,3.67,1.201,5.288l1.676,4.323
			l0.028,0.063c0.152,0.316,0.226,0.669,0.211,1.019l-1.247,30.404c-0.044,1.05,0.349,2.084,1.074,2.842
			c0.727,0.757,1.745,1.189,2.794,1.189h0.952c1.05,0,2.068-0.435,2.794-1.189c0.727-0.756,1.118-1.792,1.075-2.84L39.425,37.32
			c-0.014-0.348,0.058-0.697,0.222-1.042l1.704-4.436c0.779-1.634,1.191-3.456,1.191-5.269v-12.01h-1.736V26.575z"/>
		<rect x="33.694" y="14.565" display="inline" fill="#FFFFFF" width="1.736" height="13.601"/>
		<rect x="37.439" y="14.565" display="inline" fill="#FFFFFF" width="1.736" height="13.601"/>
	</g>
	<path id="Recreation__x26__Parks" display="none" fill="#FFFFFF" d="M69.569,34.015c-2.498,0-4.897,0.557-7.133,1.652l-0.396,0.192
		l-4.755-7.827v-7.19c0-0.58-0.474-1.052-1.054-1.052h-10.18c-0.58,0-1.053,0.472-1.053,1.052c0,0.58,0.473,1.053,1.053,1.053h9.129
		v6.275L42.985,48.251L31.448,29.258l-2.527-4.744h4.926c0.581,0,1.053-0.472,1.053-1.051c0-0.58-0.472-1.053-1.053-1.053H23.399
		c-0.58,0-1.052,0.473-1.052,1.053c0,0.579,0.472,1.051,1.052,1.051h3.12l2.019,3.758l-4.525,7.45l-0.392-0.185
		c-2.161-1.01-4.468-1.522-6.858-1.522C7.796,34.015,0.5,41.312,0.5,50.278c0,8.966,7.296,16.262,16.263,16.262
		c8.324,0,15.437-6.488,16.191-14.771l0.041-0.438h9.995c0.096-0.006,0.182-0.018,0.275-0.041c0.089-0.029,0.155-0.057,0.224-0.096
		c0.112-0.066,0.166-0.109,0.214-0.156c0.101-0.096,0.146-0.154,0.183-0.215l12.391-20.399l3.97,6.532l-0.354,0.261
		c-4.123,3.065-6.586,7.948-6.586,13.062c0,8.969,7.297,16.264,16.264,16.264c8.969,0,16.263-7.295,16.263-16.264
		C85.831,41.312,78.536,34.015,69.569,34.015z M69.569,64.437c-7.81,0-14.159-6.352-14.159-14.158c0-4.393,2.008-8.466,5.508-11.181
		l0.426-0.331l7.325,12.059c0.18,0.297,0.548,0.488,0.938,0.488c0.188,0,0.363-0.047,0.51-0.135
		c0.494-0.303,0.654-0.951,0.354-1.447L63.142,37.67l0.488-0.227c1.891-0.879,3.889-1.324,5.939-1.324
		c7.807,0,14.156,6.353,14.156,14.159C83.726,58.084,77.376,64.437,69.569,64.437z M16.763,64.437
		c-7.808,0-14.159-6.352-14.159-14.158c0-7.804,6.352-14.157,14.159-14.157c1.951,0,3.852,0.398,5.649,1.186l0.505,0.22
		l-7.416,12.208c-0.195,0.324-0.202,0.73-0.017,1.062c0.186,0.33,0.537,0.535,0.917,0.535h14.484l-0.06,0.535
		C30.021,59.032,23.975,64.437,16.763,64.437z M29.693,30.424l11.422,18.804h-8.12l-0.041-0.438
		c-0.428-4.699-2.892-8.981-6.76-11.747l-0.364-0.258L29.693,30.424z M25.158,38.904c3.166,2.342,5.231,5.908,5.667,9.787
		l0.06,0.537H18.271l6.462-10.641L25.158,38.904z"/>
	<g id="Services" display="none">
		<path display="inline" fill="#FFFFFF" d="M22.087,50.274h42.156v-0.905c0-10.357-7.404-19.102-17.607-20.791
			c-0.287-0.049-0.494-0.293-0.494-0.584v-1.527h0.328c1.326,0,2.402-1.078,2.402-2.402v-0.596c0-1.324-1.076-2.402-2.402-2.402
			h-6.607c-1.324,0-2.402,1.078-2.402,2.402v0.596c0,1.232,0.924,2.26,2.148,2.389l0.066,0.008v1.631c0,0.283-0.201,0.527-0.48,0.58
			c-9.913,1.891-17.107,10.596-17.107,20.697L22.087,50.274L22.087,50.274z M62.413,48.465H23.918l0.004-0.08
			c0.45-8.891,6.869-16.266,15.61-17.934c1.133-0.215,1.953-1.207,1.953-2.359v-2.053c0-0.051,0.014-0.113,0.037-0.184l0.238-1.199
			h-1.898c-0.326,0-0.592-0.266-0.592-0.592v-0.596c0-0.326,0.266-0.592,0.592-0.592h6.607c0.326,0,0.593,0.266,0.593,0.592v0.596
			c0,0.326-0.267,0.592-0.593,0.592h-2.428l0.252,1.203c0.022,0.068,0.037,0.129,0.037,0.18v1.955c0,1.18,0.844,2.176,2.01,2.369
			c9.009,1.494,15.615,8.904,16.068,18.021L62.413,48.465z"/>
		<path display="inline" fill="#FFFFFF" d="M15.376,65.265h55.578V59.91c0-3.808-3.098-6.904-6.904-6.904H22.281
			c-3.808,0-6.905,3.099-6.905,6.904V65.265z M17.161,59.908c0-2.822,2.297-5.119,5.12-5.119H64.05c2.822,0,5.119,2.297,5.119,5.119
			v3.569H17.161V59.908z"/>
	</g>
	<g id="Institutions" display="none">
		<path display="inline" fill="#FFFFFF" d="M43.155,34.573c2.11,0,3.929-1.432,4.421-3.482c0.087-0.359,0.131-0.719,0.131-1.068
			c0-2.51-2.041-4.553-4.552-4.553c-2.51,0-4.552,2.043-4.552,4.553c0,0.352,0.044,0.711,0.131,1.066
			C39.226,33.142,41.044,34.573,43.155,34.573z M43.155,27.224c1.543,0,2.799,1.256,2.799,2.799c0,0.211-0.027,0.432-0.082,0.656
			c-0.303,1.262-1.421,2.143-2.717,2.143c-1.296,0-2.413-0.881-2.717-2.146c-0.054-0.223-0.081-0.441-0.081-0.654
			C40.357,28.479,41.612,27.224,43.155,27.224z"/>
		<path display="inline" fill="#FFFFFF" d="M64.976,57.185c-0.215-0.098-0.729-0.332-0.974-0.479l0.056-16.408h3.328
			c0.721,0,1.289-0.48,1.521-1.281c0.369-1.275-0.079-3.381-1.188-4.082L45.483,20.888c-0.629-0.396-1.448-0.613-2.33-0.613
			c-0.86,0-1.68,0.217-2.308,0.613L18.611,34.933c-1.109,0.701-1.558,2.805-1.188,4.08c0.231,0.803,0.801,1.283,1.521,1.283h3.328
			l0.056,16.408c-0.243,0.148-0.758,0.383-0.974,0.48c-1.755,0.797-5.021,2.279-5.021,6.332c0,1.398,1.369,2.539,3.053,2.539h47.56
			c1.684,0,3.053-1.141,3.053-2.539C69.998,59.466,66.731,57.981,64.976,57.185z M24.082,56.915L24.02,38.542h-4.908
			c-0.002-0.006-0.003-0.01-0.005-0.016c-0.209-0.723,0.183-1.947,0.44-2.109L41.784,22.37c0.341-0.215,0.854-0.344,1.371-0.344
			h0.021c0.519,0,1.03,0.129,1.371,0.344l22.236,14.047c0.258,0.162,0.649,1.387,0.44,2.109c-0.002,0.006-0.004,0.01-0.007,0.016
			H62.31l-0.06,18.375c0,0.953,0.926,1.375,2.002,1.863c1.685,0.766,3.993,1.812,3.993,4.736c0,0.361-0.566,0.783-1.301,0.783
			H19.384c-0.732,0-1.3-0.422-1.3-0.783c0-2.924,2.309-3.973,3.998-4.738C23.156,58.292,24.082,57.87,24.082,56.915z"/>
		<path display="inline" fill="#FFFFFF" d="M52.835,57.942h3.329c1.34,0,2.431-1.09,2.431-2.43V41.562c0-1.34-1.091-2.43-2.431-2.43
			h-3.329c-1.34,0-2.43,1.09-2.43,2.43v13.951C50.405,56.853,51.496,57.942,52.835,57.942z M56.84,55.513
			c0,0.373-0.303,0.678-0.676,0.678h-3.329c-0.373,0-0.677-0.305-0.677-0.678V41.562c0-0.373,0.304-0.676,0.677-0.676h3.329
			c0.373,0,0.676,0.303,0.676,0.676V55.513z"/>
		<path display="inline" fill="#FFFFFF" d="M44.5,39.132h-3.329c-1.34,0-2.43,1.09-2.43,2.43v13.951c0,1.34,1.09,2.43,2.43,2.43
			H44.5c1.34,0,2.431-1.09,2.431-2.43V41.562C46.931,40.222,45.84,39.132,44.5,39.132z M40.495,41.562
			c0-0.373,0.304-0.676,0.677-0.676H44.5c0.373,0,0.676,0.303,0.676,0.676v13.951c0,0.373-0.303,0.678-0.676,0.678h-3.329
			c-0.373,0-0.677-0.305-0.677-0.678L40.495,41.562L40.495,41.562z"/>
		<path display="inline" fill="#FFFFFF" d="M30.166,57.942h3.329c1.34,0,2.43-1.09,2.43-2.43V41.562c0-1.34-1.09-2.43-2.43-2.43
			h-3.329c-1.34,0-2.43,1.09-2.43,2.43v13.951C27.736,56.853,28.826,57.942,30.166,57.942z M34.171,55.513
			c0,0.373-0.304,0.678-0.677,0.678h-3.329c-0.373,0-0.676-0.305-0.676-0.678V41.562c0-0.373,0.303-0.676,0.676-0.676h3.329
			c0.373,0,0.677,0.303,0.677,0.676V55.513z"/>
	</g>
	<g id="Entertainment">
		<path fill="#FFFFFF" d="M45.858,37.346l-6.042-5.855l-2.035,8.215l-7.484,3.966l7.187,4.476l0.008,0.049l1.453,8.299l6.479-5.455
			l0.048,0.008l8.342,1.184L50.62,44.38l3.729-7.603l-8.447,0.604L45.858,37.346z M47.728,44.283l1.898,4.68l-5.006-0.712
			l-3.862,3.254l-0.033-0.186l-0.837-4.787l-4.291-2.672l4.467-2.366l1.213-4.911l0.137,0.132l3.494,3.39l5.038-0.36L47.728,44.283z
			"/>
		<path fill="#FFFFFF" d="M77.729,26.751L72.869,9.8L0.292,30.614L5.15,47.562l1.272-0.363c1.609-0.459,3.298-0.268,4.758,0.542
			c3.014,1.673,4.106,5.481,2.438,8.497c-0.811,1.463-2.141,2.519-3.75,2.979l-1.271,0.366l4.86,16.949l72.58-20.81l-4.86-16.953
			l-1.275,0.365c-1.604,0.46-3.293,0.27-4.756-0.54c-1.461-0.81-2.515-2.141-2.975-3.746c-0.462-1.607-0.271-3.297,0.537-4.754
			c0.814-1.46,2.145-2.517,3.75-2.977L77.729,26.751z M74.481,25.029l-0.086,0.041c-1.707,0.795-3.092,2.088-4.004,3.739
			c-2.377,4.293-0.822,9.724,3.465,12.105c1.636,0.9,3.543,1.277,5.379,1.054l0.098-0.011l3.424,11.942l-67.48,19.352l-3.425-11.948
			l0.083-0.038c1.705-0.796,3.089-2.089,4.004-3.742c1.15-2.076,1.422-4.479,0.765-6.771c-0.656-2.287-2.162-4.18-4.238-5.333
			c-1.652-0.917-3.51-1.281-5.377-1.055l-0.09,0.01L3.572,32.43l67.486-19.349L74.481,25.029z"/>
	</g>
	<g id="Groceries" display="none">
		<g display="inline">
			<path fill="#FFFFFF" d="M38.307,58.63c-2.681,0-4.86,2.18-4.86,4.859c0,2.679,2.18,4.859,4.86,4.859
				c2.68,0,4.859-2.182,4.859-4.859C43.166,60.81,40.986,58.63,38.307,58.63z M38.307,66.624c-1.729,0-3.136-1.406-3.136-3.135
				c0-1.73,1.406-3.137,3.136-3.137s3.137,1.404,3.137,3.137C41.443,65.218,40.036,66.624,38.307,66.624z"/>
			<path fill="#FFFFFF" d="M52.685,58.63c-2.68,0-4.857,2.18-4.857,4.859c0,2.679,2.18,4.859,4.857,4.859
				c2.681,0,4.86-2.182,4.86-4.859C57.545,60.81,55.364,58.63,52.685,58.63z M52.685,66.624c-1.729,0-3.137-1.406-3.137-3.135
				c0-1.73,1.407-3.137,3.137-3.137c1.73,0,3.137,1.404,3.137,3.137C55.819,65.218,54.413,66.624,52.685,66.624z"/>
		</g>
		<path display="inline" fill="#FFFFFF" d="M68.246,29.013c-0.16-0.242-0.431-0.387-0.722-0.387H28.309
			c-0.693-3.203-1.235-5.643-1.413-6.281c-0.658-2.363-2.891-2.988-3.979-2.988h-0.475c-0.376-0.811-1.191-1.375-2.138-1.375
			c-1.304,0-2.362,1.059-2.362,2.361c0,1.299,1.059,2.361,2.362,2.361c1.04,0,1.918-0.686,2.231-1.625h0.381
			c0.019,0,1.849,0.025,2.32,1.732c0.348,1.254,2.319,10.424,5.862,27.252c0.218,1.035,0.35,1.662,0.363,1.721
			c0.994,2.971,2.519,3.186,4.911,3.186h22.256c0.473,0,0.857-0.389,0.857-0.865c0-0.473-0.385-0.855-0.857-0.855H36.373
			c-2.175,0-2.653-0.154-3.252-1.914c-0.01-0.049-0.215-1.027-0.545-2.604h24.702h0.002c1.835-0.039,2.787-0.629,3.781-2.346
			l7.252-16.557C68.435,29.558,68.408,29.251,68.246,29.013z M59.526,45.606c-0.688,1.176-1.147,1.373-2.275,1.398h-25.02
			l-3.434-16.658h37.411L59.526,45.606z"/>
	</g>
	<path id="Shopping" display="none" fill="#FFFFFF" d="M65.819,27.554h-9.391c-2.58-7.572-7.559-12.713-13.265-12.713
		S32.482,19.982,29.9,27.554h-9.389c-0.5,0-0.908,0.408-0.908,0.909V70.58c0,0.5,0.408,0.907,0.908,0.907h45.308
		c0.5,0,0.906-0.407,0.906-0.907V28.463C66.728,27.962,66.319,27.554,65.819,27.554z M43.166,16.657
		c4.81,0,9.032,4.368,11.377,10.897H31.789C34.134,21.024,38.356,16.657,43.166,16.657z M64.912,69.672H21.419V29.37h7.925
		c-0.6,2.164-1.01,4.491-1.2,6.93c-1.13,0.339-1.96,1.376-1.96,2.617c0,1.516,1.229,2.744,2.744,2.744
		c1.516,0,2.744-1.229,2.744-2.744c0-1.15-0.711-2.133-1.716-2.541c0.193-2.483,0.621-4.842,1.247-7.006h23.925
		c0.626,2.165,1.055,4.522,1.247,7.006c-1.005,0.407-1.717,1.39-1.717,2.541c0,1.516,1.229,2.744,2.743,2.744
		c1.519,0,2.746-1.229,2.746-2.744c0-1.241-0.83-2.278-1.961-2.617c-0.189-2.439-0.603-4.767-1.199-6.93h7.925V69.672z"/>
	<g id="Salons" display="none">
		<path display="inline" fill="#FFFFFF" d="M19.411,36.522L49.81,66.92c1.422,1.42,3.155,2.353,4.89,2.623
			c1.7,0.269,3.188-0.137,4.188-1.14L69.485,57.81c0.117-0.115,0.164-0.299,0.131-0.512c-0.035-0.24-0.17-0.492-0.371-0.693
			c-0.393-0.391-0.945-0.5-1.207-0.238l-6.521,6.521l-2.145-2.146l6.521-6.521c0.262-0.26,0.148-0.812-0.242-1.203
			c-0.393-0.395-0.943-0.502-1.205-0.24l-6.521,6.52l-2.146-2.146l6.521-6.521c0.263-0.26,0.152-0.812-0.239-1.203
			c-0.24-0.241-0.547-0.385-0.819-0.385c-0.111,0-0.269,0.026-0.386,0.144l-6.521,6.521l-2.146-2.146l6.521-6.521
			c0.264-0.261,0.148-0.812-0.24-1.203c-0.203-0.206-0.449-0.339-0.691-0.375c-0.213-0.032-0.395,0.015-0.512,0.133l-6.521,6.521
			l-2.146-2.146l0.16-0.226l6.328-6.327c0.117-0.117,0.143-0.271,0.143-0.383c0-0.274-0.143-0.58-0.383-0.821
			c-0.393-0.392-0.945-0.501-1.205-0.241l-6.52,6.52l-2.168-2.165l6.514-6.513c0.117-0.117,0.143-0.274,0.143-0.385
			c0-0.548-0.656-1.203-1.205-1.204c-0.107,0.001-0.268,0.026-0.383,0.145l-6.514,6.513l-2.146-2.147l6.514-6.512
			c0.117-0.118,0.162-0.299,0.131-0.512c-0.077-0.528-0.69-1.078-1.192-1.078c-0.108,0-0.267,0.025-0.383,0.142l-6.517,6.513
			l-2.145-2.146l6.511-6.513c0.263-0.261,0.152-0.812-0.237-1.204c-0.239-0.241-0.549-0.385-0.822-0.384
			c-0.111,0-0.268,0.025-0.385,0.142l-6.512,6.513l-2.096-2.095l6.521-6.521c0.262-0.261,0.15-0.813-0.242-1.206
			c-0.238-0.24-0.545-0.383-0.818-0.383c-0.111,0-0.268,0.024-0.385,0.142l-6.521,6.521l-2.147-2.146l6.522-6.521
			c0.26-0.261,0.15-0.813-0.242-1.205c-0.391-0.393-0.943-0.503-1.203-0.242l-6.522,6.521l-2.146-2.146l6.521-6.521
			c0.116-0.118,0.142-0.273,0.142-0.385c0-0.273-0.144-0.58-0.382-0.819c-0.394-0.392-0.946-0.502-1.207-0.241l-6.521,6.52
			l-2.146-2.146l6.521-6.521c0.117-0.118,0.142-0.274,0.142-0.384c0-0.274-0.143-0.582-0.383-0.821
			c-0.394-0.393-0.944-0.504-1.205-0.242l-6.502,6.504l-0.003-0.003l-4.093,4.094C15.832,29.537,16.498,33.609,19.411,36.522z
			 M22.246,26.23l37.856,37.854l-2.77,2.769c-1.424,1.424-4.457,0.521-6.215-1.24l-30.4-30.399c-1.759-1.76-2.662-4.792-1.24-6.216
			L22.246,26.23z"/>
	</g>
	<path id="Show_All" display="none" fill="#FFFFFF" d="M61.761,42.04H44.29V24.569c0-0.62-0.505-1.125-1.125-1.125
		s-1.125,0.505-1.125,1.125V42.04H24.569c-0.62,0-1.125,0.505-1.125,1.125s0.505,1.125,1.125,1.125H42.04v17.471
		c0,0.62,0.505,1.125,1.125,1.125s1.125-0.505,1.125-1.125V44.29h17.471c0.62,0,1.125-0.505,1.125-1.125S62.381,42.04,61.761,42.04z
		"/>
</g>
</svg>
