<svg xmlns="http://www.w3.org/2000/svg" width="59.486" height="57.2" viewBox="13.422 14.563 59.486 57.2"><g fill="#FFF"><path d="M55.43 42.325l-.255-24.96a2.82 2.82 0 0 0-.85-1.99 2.83 2.83 0 0 0-2.01-.81h-.002c-1.62.017-3.535 1.2-3.69 2.88L47.03 39.36c-.065.898.25 1.79.867 2.448.53.562 1.248.917 2.017 1l-.51 26.493a2 2 0 0 0 .586 1.463c.377.375.877.582 1.407.582l2.875-.074a2.014 2.014 0 0 0 1.397-.622c.36-.383.56-.903.543-1.43l-.784-26.893zm-3.75-1.162l-1.24-.065-.186-.007c-.41 0-.81-.17-1.09-.47a1.5 1.5 0 0 1-.403-1.134l1.593-21.895c.062-.617 1.08-1.28 1.992-1.29a1.09 1.09 0 0 1 1.094 1.084l.24 23.658h-.024l.824 28.23a.255.255 0 0 1-.252.263l-2.83.076a.27.27 0 0 1-.182-.075.265.265 0 0 1-.074-.196l.54-28.177zM40.806 26.575c0 1.56-.355 3.13-1.043 4.568l-1.706 4.438a3.888 3.888 0 0 0-.366 1.812l1.25 30.414a2.143 2.143 0 0 1-.594 1.566 2.15 2.15 0 0 1-1.542.656h-.952c-.578 0-1.14-.238-1.54-.656a2.147 2.147 0 0 1-.595-1.566L34.965 37.4a3.854 3.854 0 0 0-.36-1.796l-1.683-4.34-.02-.05a10.572 10.572 0 0 1-1.05-4.58v-12.07h-1.737v12.07c0 1.83.42 3.67 1.2 5.288l1.677 4.323.028.063c.152.316.226.67.21 1.02L31.985 67.73a3.895 3.895 0 0 0 1.074 2.843 3.89 3.89 0 0 0 2.794 1.19h.952c1.05 0 2.068-.435 2.794-1.19a3.887 3.887 0 0 0 1.075-2.84L39.425 37.32a2.197 2.197 0 0 1 .222-1.042l1.704-4.436a12.32 12.32 0 0 0 1.192-5.27v-12.01h-1.736v12.013z"/><path d="M33.694 14.565h1.736v13.6h-1.736zM37.44 14.565h1.735v13.6H37.44z"/></g></svg>