<?xml version="1.0" encoding="utf-8"?>
<!-- Generator: Adobe Illustrator 15.0.2, SVG Export Plug-In . SVG Version: 6.00 Build 0)  -->
<!DOCTYPE svg PUBLIC "-//W3C//DTD SVG 1.1//EN" "http://www.w3.org/Graphics/SVG/1.1/DTD/svg11.dtd">
<svg version="1.1" id="Layer_2" xmlns="http://www.w3.org/2000/svg" xmlns:xlink="http://www.w3.org/1999/xlink" x="0px" y="0px"
	 width="252.725px" height="285.389px" viewBox="273.884 0 252.725 285.389" enable-background="new 273.884 0 252.725 285.389"
	 xml:space="preserve">
<g>
	<path fill="#FFFFFF" d="M453.542,142.693c-8.83,6.621-20.846,9.325-34.333,9.333c0,0,0,0,0.001,0.001
		c17.903,0.011,31.385,5.423,31.385,26.771c0,22.35-15.228,27.017-31.438,27.017h-69.26v18.666h69.26
		c19.648,0,50.103-7.86,50.103-45.68C469.26,161.359,463.366,149.816,453.542,142.693z"/>
	<path fill="#FFFFFF" d="M350.145,79.82h69.258c16.21,0,31.437,4.667,31.437,27.017c0,21.122-13.508,26.77-31.437,26.77h-69.26
		V79.821L350.145,79.82z M419.157,60.908h-87.925v163.57h18.666v-72.207h69.26c13.507,0,25.542-2.703,34.384-9.334
		c9.578-7.123,15.718-18.666,15.718-36.103C469.26,68.769,438.805,60.909,419.157,60.908"/>
</g>
<path fill="#FFFFFF" d="M328.162,265.494h145.395v19.895H328.162V265.494z"/>
<path fill="#FFFFFF" d="M273.885,0h19.895v284.896h-19.896L273.885,0z"/>
<path fill="#FFFFFF" d="M506.713,0h19.896v284.896h-19.896V0L506.713,0z"/>
<rect x="328.162" y="0" fill="#FFFFFF" width="145.395" height="19.895"/>
</svg>
