<?xml version="1.0" encoding="utf-8"?>
<!-- Generator: Adobe Illustrator 15.0.0, SVG Export Plug-In . SVG Version: 6.00 Build 0)  -->
<!DOCTYPE svg PUBLIC "-//W3C//DTD SVG 1.1//EN" "http://www.w3.org/Graphics/SVG/1.1/DTD/svg11.dtd">
<svg version="1.1" id="Layer_1" xmlns="http://www.w3.org/2000/svg" xmlns:xlink="http://www.w3.org/1999/xlink" x="0px" y="0px"
	 width="40.949px" height="45px" viewBox="0 0 40.949 45" enable-background="new 0 0 40.949 45" xml:space="preserve">
<path opacity="0.8" fill="#90CEDD" d="M49.542,49.91h40.95v33.597L70.018,94.91L49.542,83.507V49.91z"/>
<g>
	<path fill="#FFFFFF" d="M70.012,62.67c1.102,0.004,2.059-0.752,2.313-1.822c0.308-1.281-0.481-2.569-1.763-2.877
		c-0.18-0.043-0.365-0.065-0.551-0.066c-1.318,0.004-2.384,1.073-2.381,2.391c0,0.186,0.021,0.369,0.064,0.551
		C67.951,61.917,68.91,62.672,70.012,62.67L70.012,62.67z M70.012,58.824c0.809,0,1.465,0.656,1.465,1.465
		c0,0.109-0.015,0.225-0.043,0.342c-0.156,0.658-0.744,1.121-1.42,1.12c-0.678,0.002-1.268-0.462-1.425-1.12
		c-0.188-0.787,0.298-1.578,1.085-1.767C69.785,58.838,69.898,58.824,70.012,58.824z"/>
	<path fill="#FFFFFF" d="M81.432,74.503c-0.111-0.05-0.382-0.173-0.51-0.25l0.03-8.59h1.739c0.379,0,0.677-0.25,0.797-0.67
		c0.193-0.667-0.041-1.771-0.621-2.136l-11.641-7.351c-0.328-0.21-0.756-0.323-1.217-0.323c-0.449,0-0.88,0.114-1.207,0.322
		l-11.64,7.35c-0.58,0.369-0.813,1.471-0.62,2.138c0.12,0.42,0.42,0.67,0.796,0.67h1.74l0.03,8.59c-0.129,0.076-0.396,0.2-0.51,0.25
		c-0.92,0.417-2.629,1.192-2.629,3.315c0,0.729,0.717,1.326,1.598,1.326h24.891c0.883,0,1.6-0.596,1.6-1.326
		C84.059,75.698,82.35,74.92,81.432,74.503L81.432,74.503z M60.027,74.363l-0.029-9.616h-2.57l-0.002-0.008
		c-0.109-0.38,0.096-1.021,0.23-1.105l11.638-7.352c0.181-0.112,0.446-0.181,0.718-0.181h0.01c0.272,0,0.541,0.067,0.719,0.181
		l11.64,7.352c0.134,0.085,0.341,0.726,0.229,1.104l-0.004,0.007h-2.569l-0.03,9.616c0,0.5,0.483,0.721,1.049,0.976
		c0.879,0.399,2.09,0.948,2.09,2.479c0,0.188-0.299,0.41-0.681,0.41H57.57c-0.383,0-0.68-0.222-0.68-0.41
		c0-1.529,1.207-2.08,2.092-2.479c0.562-0.257,1.045-0.478,1.045-0.978V74.363z"/>
	<path fill="#FFFFFF" d="M75.078,74.9h1.742c0.699,0,1.27-0.57,1.27-1.271v-7.302c0-0.7-0.568-1.271-1.27-1.271h-1.742
		c-0.7,0-1.271,0.569-1.271,1.271v7.3C73.807,74.331,74.376,74.9,75.078,74.9L75.078,74.9z M77.174,73.628
		c0,0.195-0.158,0.354-0.354,0.354h-1.742c-0.195-0.001-0.354-0.159-0.354-0.354v-7.3c0-0.197,0.159-0.355,0.354-0.355h1.742
		c0.195,0,0.354,0.158,0.354,0.354V73.628L77.174,73.628z M70.716,65.055h-1.741c-0.703,0-1.272,0.57-1.272,1.272v7.3
		c0,0.702,0.569,1.273,1.272,1.273h1.741c0.7,0,1.271-0.57,1.271-1.272v-7.3C71.986,65.626,71.416,65.055,70.716,65.055z
		 M68.619,66.328c0-0.196,0.156-0.354,0.354-0.354h1.741c0.196,0,0.354,0.157,0.354,0.354v7.3c0,0.196-0.158,0.354-0.354,0.354
		c0,0-0.001,0-0.002,0h-1.742c-0.195,0-0.354-0.158-0.354-0.354v-7.302L68.619,66.328z M63.213,74.9h1.742
		c0.699,0,1.271-0.57,1.271-1.271v-7.302c0-0.7-0.569-1.271-1.271-1.271h-1.742c-0.699,0-1.27,0.569-1.27,1.271v7.3
		C61.941,74.331,62.514,74.9,63.213,74.9L63.213,74.9z M65.311,73.628c0,0.195-0.159,0.354-0.354,0.354h-1.742
		c-0.195-0.001-0.354-0.159-0.354-0.354v-7.3c0-0.197,0.158-0.355,0.354-0.355h1.742c0.196,0,0.354,0.158,0.354,0.354V73.628
		L65.311,73.628z"/>
</g>
</svg>
