<svg xmlns="http://www.w3.org/2000/svg" width="40.95" height="45" viewBox="50.066 49.848 40.95 45"><path fill="#90CEDD" d="M50.066 49.848h40.95v33.598L70.54 94.848 50.067 83.446z"/><path fill="#FFF" d="M81.47 63.597c-1.04 0-2.042.23-2.975.688l-.12.06-1.936-3.187v-2.962a.49.49 0 0 0-.49-.49h-4.215a.49.49 0 0 0 0 .98h3.726v2.528l-4.995 8.226-4.728-7.785-1.004-1.886h1.95a.49.49 0 0 0 0-.977h-4.326a.49.49 0 0 0 0 .976h1.26l.807 1.5-1.833 3.017-.118-.056a6.693 6.693 0 0 0-2.86-.634 6.792 6.792 0 0 0-6.786 6.785 6.793 6.793 0 0 0 6.785 6.786c3.474 0 6.44-2.707 6.757-6.163l.01-.133h4.094a.683.683 0 0 0 .13-.02.707.707 0 0 0 .102-.045.488.488 0 0 0 .183-.172l5.083-8.37 1.572 2.588-.107.08a6.82 6.82 0 0 0-2.747 5.45 6.792 6.792 0 0 0 6.785 6.785 6.793 6.793 0 0 0 6.786-6.785 6.793 6.793 0 0 0-6.785-6.783zm0 12.592a5.814 5.814 0 0 1-5.808-5.808c0-1.802.824-3.474 2.26-4.588l.128-.1 3.002 4.94a.51.51 0 0 0 .67.165.49.49 0 0 0 .165-.673l-3-4.94.146-.07a5.74 5.74 0 0 1 2.437-.543 5.814 5.814 0 0 1 5.807 5.808 5.812 5.812 0 0 1-5.806 5.807zM63.056 65.715a5.825 5.825 0 0 1 2.325 4.014l.018.164h-5.066l2.595-4.273.128.096zM59.612 76.19a5.814 5.814 0 0 1-5.81-5.808 5.814 5.814 0 0 1 5.81-5.808c.8 0 1.58.163 2.317.486l.15.066-3.037 5a.492.492 0 0 0-.007.496c.085.153.25.248.425.248H65.4l-.018.163a5.8 5.8 0 0 1-5.768 5.156zm9.985-6.296H66.38l-.013-.134a6.785 6.785 0 0 0-2.82-4.9l-.11-.08 1.527-2.515 4.633 7.63z"/></svg>