<?xml version="1.0" encoding="utf-8"?>
<!-- Generator: Adobe Illustrator 15.0.2, SVG Export Plug-In . SVG Version: 6.00 Build 0)  -->
<!DOCTYPE svg PUBLIC "-//W3C//DTD SVG 1.1//EN" "http://www.w3.org/Graphics/SVG/1.1/DTD/svg11.dtd">
<svg version="1.1" id="Layer_1" xmlns="http://www.w3.org/2000/svg" xmlns:xlink="http://www.w3.org/1999/xlink" x="0px" y="0px"
	 width="40.951px" height="45px" viewBox="50.629 49.646 40.951 45" enable-background="new 50.629 49.646 40.951 45"
	 xml:space="preserve">
<path opacity="0.8" fill="#90CEDD" enable-background="new    " d="M50.629,49.646h40.951v33.599L71.106,94.646L50.629,83.245
	V49.646z"/>
<g>
	<path fill="#FFFFFF" d="M77.653,69.064L77.517,55.74c-0.009-0.834-0.69-1.504-1.524-1.495c0,0,0,0-0.002,0
		c-0.867,0.01-1.89,0.64-1.972,1.537l-0.851,11.7c-0.035,0.479,0.133,0.955,0.463,1.307c0.283,0.3,0.666,0.488,1.076,0.531
		l-0.27,14.146c-0.016,0.587,0.448,1.075,1.035,1.091c0.01,0,0.018,0,0.027,0l1.535-0.041c0.586-0.015,1.051-0.502,1.034-1.09
		c0-0.002,0-0.004,0-0.006L77.653,69.064L77.653,69.064z M75.653,68.445l-0.666-0.036l-0.1-0.005c-0.219-0.002-0.43-0.092-0.58-0.25
		c-0.152-0.164-0.23-0.383-0.215-0.606l0.85-11.69c0.033-0.33,0.576-0.684,1.062-0.688c0.152,0,0.301,0.061,0.408,0.167
		c0.11,0.108,0.174,0.255,0.176,0.41l0.129,12.63h-0.014l0.44,15.07c0,0.037-0.015,0.07-0.041,0.1
		c-0.024,0.026-0.06,0.041-0.095,0.042l-1.51,0.04c-0.037-0.001-0.072-0.016-0.098-0.042c-0.027-0.028-0.042-0.065-0.041-0.104
		l0.291-15.041v0.004H75.653z M69.847,60.657c0,0.833-0.191,1.67-0.558,2.438l-0.91,2.37c-0.145,0.301-0.211,0.635-0.196,0.967
		l0.666,16.236c0.012,0.311-0.104,0.613-0.315,0.836c-0.216,0.225-0.517,0.35-0.824,0.35h-0.508
		c-0.63,0.002-1.141-0.509-1.142-1.139c0-0.016,0.001-0.031,0.002-0.047l0.666-16.23c0.015-0.33-0.052-0.66-0.19-0.959l-0.898-2.315
		l-0.012-0.024c-0.367-0.764-0.56-1.599-0.562-2.445v-6.442h-0.928v6.442c0,0.979,0.225,1.961,0.643,2.824l0.896,2.31l0.016,0.032
		c0.082,0.17,0.119,0.354,0.111,0.545l-0.668,16.229c-0.021,0.561,0.188,1.112,0.574,1.518c0.389,0.402,0.932,0.636,1.49,0.636h0.51
		c1.143-0.002,2.067-0.931,2.065-2.073c0-0.025,0-0.053-0.002-0.079l-0.664-16.235c-0.008-0.192,0.033-0.383,0.117-0.557
		l0.909-2.367c0.418-0.879,0.636-1.839,0.638-2.812v-6.41h-0.928v6.41L69.847,60.657z"/>
	<path fill="#FFFFFF" d="M66.047,54.245h0.929v7.26h-0.929V54.245z M68.047,54.245h0.929v7.26h-0.929V54.245z"/>
</g>
</svg>
