<svg xmlns="http://www.w3.org/2000/svg" xmlns:xlink="http://www.w3.org/1999/xlink" width="37.688" height="45" viewBox="-6.23 -7.438 37.688 45"><defs><path id="a" d="M-6.23-7.438h37.688v45H-6.23z"/></defs><clipPath id="b"><use xlink:href="#a" overflow="visible"/></clipPath><g clip-path="url(#b)"><defs><path id="c" d="M-6.23-7.438h37.688v45H-6.23z"/></defs><clipPath id="d"><use xlink:href="#c" overflow="visible"/></clipPath><g clip-path="url(#d)"><g opacity=".8"><defs><path id="e" d="M-19.675-8.933h64.577v47.988h-64.577z"/></defs><clipPath id="f"><use xlink:href="#e" overflow="visible"/></clipPath><path clip-path="url(#f)" fill="#333" d="M-6.23-7.438v34.506l18.843 10.494 18.845-10.494V-7.438z"/></g><defs><path id="g" d="M-6.23-7.438h37.688v45H-6.23z"/></defs><defs><path id="i" d="M-6.23-7.438h37.688v45H-6.23z"/></defs><clipPath id="h"><use xlink:href="#g" overflow="visible"/></clipPath><clipPath id="j" clip-path="url(#h)"><use xlink:href="#i" overflow="visible"/></clipPath><path clip-path="url(#j)" fill="#74C3D6" d="M17.828 11.2c-.863.632-2.03.897-3.33.897H7.805v.012h6.69c1.725 0 3.042.532 3.042 2.584 0 2.156-1.48 2.608-3.04 2.608H7.805v1.806h6.69c1.912 0 4.848-.76 4.848-4.414 0-1.694-.582-2.81-1.516-3.495"/><path clip-path="url(#j)" fill="#A6A8AB" d="M14.497 3.29H6v15.818h1.806v-7.014h6.69c1.304 0 2.47-.265 3.332-.896.936-.684 1.516-1.8 1.516-3.498 0-3.653-2.938-4.41-4.847-4.41m-6.69 1.805h6.69c1.562 0 3.04.45 3.04 2.606 0 2.055-1.316 2.587-3.04 2.587h-6.69V5.095z"/><g><defs><path id="k" d="M-6.23-7.438h37.688v45H-6.23z"/></defs><clipPath id="l"><use xlink:href="#k" overflow="visible"/></clipPath><path clip-path="url(#l)" fill="#74C3D6" d="M5.998 22.492h13.346v1.82H5.998z"/></g><g><defs><path id="m" d="M-6.23-7.438h37.688v45H-6.23z"/></defs><clipPath id="n"><use xlink:href="#m" overflow="visible"/></clipPath><path clip-path="url(#n)" fill="#A6A8AB" d="M5.998-1.88h13.346v1.82H5.998z"/></g><g><defs><path id="o" d="M-6.23-7.438h37.688v45H-6.23z"/></defs><clipPath id="p"><use xlink:href="#o" overflow="visible"/></clipPath><path clip-path="url(#p)" fill="#A6A8AB" d="M1.027-1.88h1.82v26.16h-1.82z"/></g><g><defs><path id="q" d="M-6.23-7.438h37.688v45H-6.23z"/></defs><clipPath id="r"><use xlink:href="#q" overflow="visible"/></clipPath><path clip-path="url(#r)" fill="#74C3D6" d="M22.383-1.88H24.2v26.16h-1.817z"/></g></g></g></svg>