<?xml version="1.0" encoding="utf-8"?>
<!-- Generator: Adobe Illustrator 15.0.2, SVG Export Plug-In . SVG Version: 6.00 Build 0)  -->
<!DOCTYPE svg PUBLIC "-//W3C//DTD SVG 1.1//EN" "http://www.w3.org/Graphics/SVG/1.1/DTD/svg11.dtd">
<svg version="1.1" id="Layer_1" xmlns="http://www.w3.org/2000/svg" xmlns:xlink="http://www.w3.org/1999/xlink" x="0px" y="0px"
	 width="40.949px" height="45px" viewBox="52.764 55.41 40.949 45" enable-background="new 52.764 55.41 40.949 45"
	 xml:space="preserve">
<polygon fill="#8FCDDE" points="52.764,55.41 93.713,55.41 93.713,89.006 73.236,100.41 52.764,89.006 "/>
<g>
	<path fill="#FFFFFF" d="M70.529,82.175c-1.461,0-2.648,1.188-2.648,2.647s1.189,2.646,2.648,2.646s2.646-1.188,2.646-2.646
		S71.988,82.175,70.529,82.175z M70.529,86.443c-0.895,0-1.619-0.728-1.619-1.621c0-0.893,0.727-1.619,1.619-1.619
		c0.895,0,1.621,0.727,1.621,1.619C72.15,85.716,71.424,86.443,70.529,86.443z"/>
	<path fill="#FFFFFF" d="M78.205,82.175c-1.46,0-2.646,1.188-2.646,2.647s1.188,2.646,2.646,2.646s2.646-1.188,2.646-2.646
		S79.665,82.175,78.205,82.175z M78.205,86.443c-0.895,0-1.621-0.728-1.621-1.621c0-0.893,0.727-1.619,1.621-1.619
		s1.621,0.727,1.621,1.619C79.826,85.716,79.1,86.443,78.205,86.443z"/>
	<path fill="#FFFFFF" d="M86.557,66.389c-0.096-0.145-0.256-0.229-0.43-0.229H65.234c-0.416-1.925-0.659-3.009-0.744-3.314
		c-0.36-1.292-1.581-1.634-2.178-1.634h-0.22c-0.221-0.447-0.679-0.734-1.175-0.734c-0.725,0-1.312,0.59-1.312,1.313
		s0.588,1.313,1.312,1.313c0.551,0,1.039-0.348,1.229-0.867h0.166c0.011,0,0.947,0.018,1.188,0.887
		c0.188,0.67,1.238,5.562,3.129,14.544c0.105,0.505,0.186,0.884,0.195,0.925c0.543,1.619,1.371,1.736,2.672,1.736h11.881
		c0.282,0,0.512-0.232,0.512-0.516c0-0.281-0.229-0.513-0.512-0.513h-11.88c-1.146,0-1.375-0.073-1.685-0.978
		c-0.004-0.025-0.108-0.523-0.277-1.325h13.124c1.002-0.021,1.522-0.345,2.065-1.284l3.873-8.838
		C86.668,66.713,86.652,66.531,86.557,66.389z M85.343,67.186l-3.53,8.064c-0.356,0.609-0.582,0.707-1.17,0.721H67.33l-1.811-8.785
		H85.343z"/>
</g>
</svg>
