<?xml version="1.0" encoding="utf-8"?>
<!-- Generator: Adobe Illustrator 15.0.2, SVG Export Plug-In . SVG Version: 6.00 Build 0)  -->
<!DOCTYPE svg PUBLIC "-//W3C//DTD SVG 1.1//EN" "http://www.w3.org/Graphics/SVG/1.1/DTD/svg11.dtd">
<svg version="1.1" id="Layer_1" xmlns="http://www.w3.org/2000/svg" xmlns:xlink="http://www.w3.org/1999/xlink" x="0px" y="0px"
	 width="40.949px" height="45px" viewBox="49.542 49.91 40.949 45" enable-background="new 49.542 49.91 40.949 45"
	 xml:space="preserve">
<polygon fill="#90CEDD" points="49.542,49.91 90.491,49.91 90.491,83.507 70.018,94.91 49.542,83.507 "/>
<g>
	<path fill="#FFFFFF" d="M70.012,62.669c1.104,0,2.057-0.749,2.313-1.822c0.045-0.188,0.068-0.376,0.068-0.559
		c0-1.313-1.068-2.383-2.382-2.383s-2.383,1.068-2.383,2.383c0,0.184,0.023,0.371,0.068,0.558
		C67.955,61.92,68.906,62.669,70.012,62.669z M70.012,58.824c0.808,0,1.465,0.656,1.465,1.465c0,0.11-0.015,0.225-0.044,0.343
		c-0.157,0.66-0.743,1.121-1.421,1.121c-0.679,0-1.264-0.461-1.423-1.122c-0.027-0.117-0.042-0.231-0.042-0.342
		C68.547,59.481,69.204,58.824,70.012,58.824z"/>
	<path fill="#FFFFFF" d="M81.432,74.503c-0.112-0.051-0.382-0.173-0.51-0.251l0.029-8.588h1.742c0.377,0,0.675-0.251,0.796-0.671
		c0.193-0.667-0.041-1.769-0.621-2.136l-11.639-7.351c-0.329-0.208-0.758-0.322-1.218-0.322c-0.45,0-0.88,0.114-1.208,0.322
		l-11.639,7.351c-0.58,0.367-0.814,1.468-0.621,2.136c0.121,0.42,0.419,0.671,0.796,0.671h1.742l0.029,8.588
		c-0.128,0.077-0.396,0.2-0.51,0.251c-0.919,0.417-2.628,1.193-2.628,3.315c0,0.731,0.716,1.327,1.598,1.327h24.891
		c0.882,0,1.599-0.596,1.599-1.327C84.061,75.697,82.351,74.92,81.432,74.503z M60.028,74.363l-0.031-9.616h-2.569
		c-0.001-0.003-0.002-0.005-0.002-0.008c-0.109-0.378,0.095-1.02,0.23-1.104l11.638-7.352c0.179-0.112,0.446-0.181,0.718-0.181
		h0.011c0.271,0,0.539,0.068,0.717,0.181l11.639,7.352c0.135,0.085,0.34,0.726,0.23,1.104c-0.001,0.003-0.002,0.005-0.003,0.008
		h-2.569l-0.031,9.617c0,0.499,0.483,0.72,1.048,0.975c0.881,0.4,2.089,0.949,2.089,2.48c0,0.188-0.297,0.41-0.68,0.41H57.571
		c-0.384,0-0.68-0.221-0.68-0.41c0-1.53,1.207-2.08,2.091-2.48C59.545,75.083,60.028,74.863,60.028,74.363z"/>
	<path fill="#FFFFFF" d="M75.078,74.901h1.742c0.701,0,1.271-0.57,1.271-1.272v-7.301c0-0.701-0.569-1.272-1.271-1.272h-1.742
		c-0.701,0-1.272,0.571-1.272,1.272v7.301C73.806,74.331,74.377,74.901,75.078,74.901z M77.174,73.628
		c0,0.195-0.158,0.354-0.354,0.354h-1.742c-0.195,0-0.354-0.159-0.354-0.354v-7.301c0-0.196,0.159-0.354,0.354-0.354h1.742
		c0.195,0,0.354,0.158,0.354,0.354V73.628z"/>
	<path fill="#FFFFFF" d="M70.716,65.055h-1.742c-0.702,0-1.272,0.571-1.272,1.272v7.301c0,0.701,0.57,1.272,1.272,1.272h1.742
		c0.7,0,1.271-0.57,1.271-1.272v-7.301C71.987,65.626,71.417,65.055,70.716,65.055z M68.619,66.328c0-0.196,0.158-0.354,0.354-0.354
		h1.742c0.196,0,0.354,0.158,0.354,0.354v7.301c0,0.195-0.158,0.354-0.354,0.354h-1.742c-0.195,0-0.354-0.159-0.354-0.354V66.328z"
		/>
	<path fill="#FFFFFF" d="M63.213,74.901h1.742c0.701,0,1.272-0.57,1.272-1.272v-7.301c0-0.701-0.571-1.272-1.272-1.272h-1.742
		c-0.701,0-1.271,0.571-1.271,1.272v7.301C61.941,74.331,62.512,74.901,63.213,74.901z M65.31,73.628
		c0,0.195-0.158,0.354-0.354,0.354h-1.742c-0.194,0-0.354-0.159-0.354-0.354v-7.301c0-0.196,0.158-0.354,0.354-0.354h1.742
		c0.196,0,0.354,0.158,0.354,0.354V73.628z"/>
</g>
</svg>
