<svg xmlns="http://www.w3.org/2000/svg" width="40.949" height="45" viewBox="52.764 55.41 40.949 45"><path fill="#8FCDDE" d="M52.764 55.41h40.95v33.596L73.235 100.41 52.764 89.006z"/><g fill="#FFF"><path d="M70.53 82.175c-1.462 0-2.65 1.188-2.65 2.647s1.19 2.646 2.65 2.646 2.645-1.188 2.645-2.646-1.187-2.647-2.646-2.647zm0 4.268a1.62 1.62 0 0 1 0-3.24c.894 0 1.62.727 1.62 1.62 0 .893-.726 1.62-1.62 1.62zM78.205 82.175c-1.46 0-2.646 1.188-2.646 2.647s1.187 2.646 2.645 2.646 2.646-1.188 2.646-2.646-1.185-2.647-2.645-2.647zm0 4.268c-.895 0-1.62-.728-1.62-1.62a1.622 1.622 0 0 1 3.24 0c0 .893-.725 1.62-1.62 1.62zM86.557 66.39a.51.51 0 0 0-.43-.23H65.234c-.416-1.925-.66-3.01-.744-3.314-.36-1.292-1.58-1.634-2.178-1.634h-.22a1.318 1.318 0 0 0-1.175-.734 1.314 1.314 0 0 0 0 2.626c.55 0 1.04-.348 1.23-.867h.165c.01 0 .947.018 1.188.887.188.67 1.238 5.562 3.13 14.544.104.505.185.884.194.925.543 1.62 1.37 1.736 2.672 1.736h11.88a.515.515 0 0 0 0-1.03h-11.88c-1.145 0-1.374-.073-1.684-.978-.004-.025-.108-.523-.277-1.325H80.66c1-.02 1.52-.345 2.064-1.284l3.873-8.838a.506.506 0 0 0-.04-.486zm-1.214.796l-3.53 8.064c-.356.61-.582.707-1.17.72H67.33l-1.81-8.784h19.823z"/></g></svg>