<svg xmlns="http://www.w3.org/2000/svg" width="40.949" height="45" viewBox="50.121 49.91 40.949 45"><path fill="#90CEDD" d="M50.12 49.91h40.95v33.597L70.596 94.91 50.12 83.507z"/><path fill="#FFF" d="M81.403 59.22h-4.427c-1.29-3.74-3.73-6.063-6.38-6.063s-5.09 2.322-6.38 6.064H59.79a.508.508 0 0 0-.507.508v20.094c0 .278.227.506.507.506h21.613c.28 0 .506-.228.506-.506V59.728a.507.507 0 0 0-.507-.507zm-16.13 0c1.164-3.165 3.148-5.05 5.323-5.05s4.16 1.886 5.323 5.05H65.273zm-1.913 4.192a1.37 1.37 0 0 0-.938 1.304c0 .763.62 1.383 1.383 1.383.762 0 1.382-.62 1.382-1.384 0-.547-.317-1.035-.814-1.26a16.64 16.64 0 0 1 .573-3.22H76.25c.29 1.014.48 2.098.57 3.22a1.377 1.377 0 0 0-.814 1.26 1.384 1.384 0 0 0 2.767 0 1.37 1.37 0 0 0-.94-1.303c-.088-1.1-.27-2.166-.545-3.178H80.9v19.08H60.295v-19.08h3.61a17.73 17.73 0 0 0-.545 3.177z"/></svg>