<svg xmlns="http://www.w3.org/2000/svg" width="40.949" height="45" viewBox="49.542 49.91 40.949 45"><path fill="#90CEDD" d="M49.542 49.91h40.95v33.597L70.017 94.91 49.542 83.507z"/><g fill="#FFF"><path d="M70.012 62.67a2.37 2.37 0 0 0 2.313-1.823 2.385 2.385 0 0 0-2.314-2.942 2.385 2.385 0 0 0-2.315 2.94 2.374 2.374 0 0 0 2.316 1.824zm0-3.846c.808 0 1.465.656 1.465 1.465 0 .11-.015.224-.044.342a1.456 1.456 0 0 1-1.42 1.12 1.46 1.46 0 0 1-1.424-1.12 1.466 1.466 0 0 1 1.423-1.807z"/><path d="M81.432 74.503c-.112-.05-.382-.173-.51-.25l.03-8.59h1.74c.378 0 .676-.25.797-.67.192-.667-.042-1.77-.622-2.136l-11.64-7.35c-.328-.21-.757-.323-1.217-.323-.45 0-.88.114-1.207.322l-11.64 7.35c-.58.368-.813 1.47-.62 2.137.12.42.42.67.796.67h1.74l.03 8.59c-.128.076-.396.2-.51.25-.92.417-2.628 1.193-2.628 3.315 0 .73.716 1.327 1.598 1.327h24.89c.883 0 1.6-.596 1.6-1.327 0-2.12-1.71-2.898-2.628-3.315zm-21.404-.14l-.03-9.616h-2.57l-.002-.008c-.11-.38.095-1.02.23-1.105l11.638-7.352c.18-.112.446-.18.718-.18h.01c.272 0 .54.067.718.18l11.64 7.352c.134.085.34.726.23 1.104l-.004.007h-2.57l-.03 9.617c0 .5.483.72 1.048.975.88.4 2.09.948 2.09 2.48 0 .187-.298.41-.68.41H57.57c-.383 0-.68-.222-.68-.41 0-1.53 1.208-2.08 2.092-2.48.563-.257 1.046-.477 1.046-.977z"/><path d="M75.078 74.9h1.742c.7 0 1.27-.57 1.27-1.27v-7.302c0-.7-.568-1.272-1.27-1.272h-1.742c-.7 0-1.272.57-1.272 1.272v7.3c0 .703.57 1.273 1.272 1.273zm2.096-1.272a.354.354 0 0 1-.354.354h-1.742a.355.355 0 0 1-.354-.354v-7.3c0-.197.16-.355.354-.355h1.742c.195 0 .354.158.354.354v7.3zM70.716 65.055h-1.742c-.702 0-1.272.57-1.272 1.272v7.3c0 .702.57 1.273 1.272 1.273h1.742c.7 0 1.27-.57 1.27-1.272v-7.3c0-.702-.57-1.273-1.27-1.273zm-2.097 1.273c0-.196.157-.354.353-.354h1.742c.196 0 .354.158.354.354v7.3a.354.354 0 0 1-.355.355h-1.742a.355.355 0 0 1-.354-.354v-7.302zM63.213 74.9h1.742c.7 0 1.272-.57 1.272-1.27v-7.302c0-.7-.57-1.272-1.272-1.272h-1.742c-.7 0-1.27.57-1.27 1.272v7.3c-.002.703.57 1.273 1.27 1.273zm2.097-1.272a.354.354 0 0 1-.354.354h-1.742a.355.355 0 0 1-.354-.354v-7.3c0-.197.158-.355.354-.355h1.742c.196 0 .354.158.354.354v7.3z"/></g></svg>