<?xml version="1.0" encoding="utf-8"?>
<!-- Generator: Adobe Illustrator 15.0.2, SVG Export Plug-In . SVG Version: 6.00 Build 0)  -->
<!DOCTYPE svg PUBLIC "-//W3C//DTD SVG 1.1//EN" "http://www.w3.org/Graphics/SVG/1.1/DTD/svg11.dtd">
<svg version="1.1" id="Layer_1" xmlns="http://www.w3.org/2000/svg" xmlns:xlink="http://www.w3.org/1999/xlink" x="0px" y="0px"
	 width="37.688px" height="45px" viewBox="-6.23 -7.438 37.688 45" enable-background="new -6.23 -7.438 37.688 45"
	 xml:space="preserve">
<g>
	<defs>
		<rect id="SVGID_1_" x="-6.23" y="-7.438" width="37.688" height="45"/>
	</defs>
	<clipPath id="SVGID_2_">
		<use xlink:href="#SVGID_1_"  overflow="visible"/>
	</clipPath>
	<g clip-path="url(#SVGID_2_)">
		<g>
			<defs>
				<rect id="SVGID_3_" x="-6.23" y="-7.438" width="37.688" height="45"/>
			</defs>
			<clipPath id="SVGID_4_">
				<use xlink:href="#SVGID_3_"  overflow="visible"/>
			</clipPath>
			<g clip-path="url(#SVGID_4_)">
				<g>
					<g opacity="0.8">
						<defs>
							<rect id="SVGID_5_" x="-19.675" y="-8.933" opacity="0.8" width="64.576" height="47.988"/>
						</defs>
						<clipPath id="SVGID_6_">
							<use xlink:href="#SVGID_5_"  overflow="visible"/>
						</clipPath>
						<path clip-path="url(#SVGID_6_)" fill="#333333" d="M-6.23-7.438v34.506l18.843,10.494l18.846-10.494V-7.438H-6.23z"/>
					</g>
					<g>
						<defs>
							<rect id="SVGID_7_" x="-6.23" y="-7.438" width="37.688" height="45"/>
						</defs>
						<defs>
							<rect id="SVGID_8_" x="-6.23" y="-7.438" width="37.688" height="45"/>
						</defs>
						<defs>
							<rect id="SVGID_9_" x="-6.23" y="-7.438" width="37.688" height="45"/>
						</defs>
						<defs>
							<rect id="SVGID_10_" x="-6.23" y="-7.438" width="37.688" height="45"/>
						</defs>
						<defs>
							<rect id="SVGID_11_" x="-6.23" y="-7.438" width="37.688" height="45"/>
						</defs>
						<clipPath id="SVGID_12_">
							<use xlink:href="#SVGID_7_"  overflow="visible"/>
						</clipPath>
						<clipPath id="SVGID_13_" clip-path="url(#SVGID_12_)">
							<use xlink:href="#SVGID_8_"  overflow="visible"/>
						</clipPath>
						<clipPath id="SVGID_14_" clip-path="url(#SVGID_13_)">
							<use xlink:href="#SVGID_9_"  overflow="visible"/>
						</clipPath>
						<clipPath id="SVGID_15_" clip-path="url(#SVGID_14_)">
							<use xlink:href="#SVGID_10_"  overflow="visible"/>
						</clipPath>
						<clipPath id="SVGID_16_" clip-path="url(#SVGID_15_)">
							<use xlink:href="#SVGID_11_"  overflow="visible"/>
						</clipPath>
						<path clip-path="url(#SVGID_16_)" fill="#74C3D6" d="M17.828,11.2c-0.863,0.632-2.03,0.897-3.33,0.897H7.805v0.012h6.69
							c1.725,0,3.042,0.532,3.042,2.584c0,2.156-1.48,2.608-3.04,2.608H7.805v1.806h6.69c1.912,0,4.848-0.76,4.848-4.414
							c0-1.694-0.582-2.81-1.516-3.495"/>
						<g clip-path="url(#SVGID_16_)">
							<g>
								<defs>
									<rect id="SVGID_17_" x="-6.23" y="-7.438" width="37.688" height="45"/>
								</defs>
								<clipPath id="SVGID_18_">
									<use xlink:href="#SVGID_17_"  overflow="visible"/>
								</clipPath>
								<path clip-path="url(#SVGID_18_)" fill="#74C3D6" d="M5.998,22.492h13.346v1.82H5.998V22.492z"/>
							</g>
							<g>
								<g>
									<defs>
										<rect id="SVGID_19_" x="-6.23" y="-7.438" width="37.688" height="45"/>
									</defs>
									<clipPath id="SVGID_20_">
										<use xlink:href="#SVGID_19_"  overflow="visible"/>
									</clipPath>
									<path clip-path="url(#SVGID_20_)" fill="#A6A8AB" d="M5.998-1.88h13.346v1.82H5.998V-1.88z"/>
								</g>
								<g>
									<g>
										<defs>
											<rect id="SVGID_21_" x="-6.23" y="-7.438" width="37.688" height="45"/>
										</defs>
										<clipPath id="SVGID_22_">
											<use xlink:href="#SVGID_21_"  overflow="visible"/>
										</clipPath>
										<path clip-path="url(#SVGID_22_)" fill="#A6A8AB" d="M1.027-1.88h1.82v26.16h-1.82V-1.88z"/>
									</g>
									<g>
										<g>
											<defs>
												<rect id="SVGID_23_" x="-6.23" y="-7.438" width="37.688" height="45"/>
											</defs>
											<clipPath id="SVGID_24_">
												<use xlink:href="#SVGID_23_"  overflow="visible"/>
											</clipPath>
											<path clip-path="url(#SVGID_24_)" fill="#74C3D6" d="M22.383-1.88H24.2v26.16h-1.817V-1.88z"/>
										</g>
									</g>
								</g>
							</g>
						</g>
						<path clip-path="url(#SVGID_16_)" fill="#A6A8AB" d="M14.497,3.29H6v15.818h1.806v-7.014h6.69c1.304,0,2.47-0.265,3.332-0.896
							c0.936-0.684,1.516-1.8,1.516-3.498C19.344,4.047,16.406,3.29,14.497,3.29 M7.807,5.095h6.69c1.562,0,3.04,0.45,3.04,2.606
							c0,2.055-1.316,2.587-3.04,2.587h-6.69V5.095z"/>
					</g>
				</g>
			</g>
		</g>
	</g>
</g>
</svg>
