<?xml version="1.0" encoding="utf-8"?>
<!-- Generator: Adobe Illustrator 15.0.2, SVG Export Plug-In . SVG Version: 6.00 Build 0)  -->
<!DOCTYPE svg PUBLIC "-//W3C//DTD SVG 1.1//EN" "http://www.w3.org/Graphics/SVG/1.1/DTD/svg11.dtd">
<svg version="1.1" id="Layer_1" xmlns="http://www.w3.org/2000/svg" xmlns:xlink="http://www.w3.org/1999/xlink" x="0px" y="0px"
	 width="40.95px" height="45px" viewBox="50.63 49.646 40.95 45" enable-background="new 50.63 49.646 40.95 45"
	 xml:space="preserve">
<path opacity="0.8" fill="#90CEDD" d="M50.63,49.646h40.95v33.599L71.106,94.646L50.63,83.245V49.646z"/>
<g>
	<path fill="#FFFFFF" d="M77.653,69.064L77.517,55.74c-0.008-0.834-0.69-1.504-1.524-1.495c-0.001,0-0.001,0-0.002,0
		c-0.867,0.01-1.89,0.64-1.972,1.537l-0.851,11.7c-0.035,0.479,0.134,0.955,0.463,1.307c0.283,0.3,0.667,0.488,1.077,0.531
		l-0.27,14.146c-0.016,0.587,0.448,1.075,1.035,1.09c0.01,0,0.018,0.001,0.027,0.001l1.535-0.041
		c0.587-0.015,1.051-0.503,1.035-1.09c0-0.002,0-0.004,0-0.006L77.653,69.064L77.653,69.064z M75.653,68.445l-0.666-0.036
		l-0.1-0.005c-0.219-0.001-0.429-0.092-0.58-0.25c-0.152-0.164-0.23-0.383-0.215-0.606l0.85-11.69
		c0.033-0.33,0.576-0.684,1.062-0.688c0.153,0,0.301,0.061,0.408,0.167c0.111,0.108,0.175,0.255,0.177,0.41l0.128,12.63h-0.013
		l0.44,15.07c0,0.037-0.014,0.07-0.041,0.1c-0.024,0.026-0.059,0.041-0.095,0.042l-1.51,0.04c-0.036-0.001-0.071-0.016-0.097-0.042
		c-0.027-0.028-0.042-0.065-0.041-0.104l0.291-15.041V68.445z M69.847,60.657c0,0.833-0.191,1.67-0.558,2.438l-0.91,2.37
		c-0.144,0.301-0.21,0.635-0.196,0.967l0.666,16.236c0.012,0.311-0.104,0.613-0.316,0.836c-0.215,0.225-0.516,0.35-0.823,0.35
		h-0.508c-0.63,0.001-1.141-0.509-1.142-1.139c0-0.016,0.001-0.031,0.002-0.047l0.666-16.23c0.015-0.33-0.051-0.66-0.191-0.959
		l-0.898-2.316l-0.012-0.025c-0.367-0.763-0.559-1.598-0.561-2.445v-6.442h-0.928v6.442c0,0.979,0.225,1.961,0.643,2.824l0.895,2.31
		l0.016,0.032c0.082,0.17,0.119,0.355,0.111,0.545l-0.668,16.229c-0.021,0.56,0.188,1.112,0.574,1.517
		c0.389,0.403,0.932,0.636,1.49,0.636h0.51c1.143-0.002,2.068-0.931,2.066-2.073c0-0.026,0-0.053-0.002-0.079l-0.664-16.235
		c-0.008-0.193,0.033-0.384,0.117-0.557l0.91-2.367c0.417-0.879,0.635-1.839,0.637-2.812v-6.41h-0.928v6.41L69.847,60.657z"/>
	<path fill="#FFFFFF" d="M66.048,54.245h0.928v7.26h-0.928V54.245z M68.048,54.245h0.928v7.26h-0.928V54.245z"/>
</g>
</svg>
