<?xml version="1.0" encoding="utf-8"?>
<!-- Generator: Adobe Illustrator 15.0.0, SVG Export Plug-In . SVG Version: 6.00 Build 0)  -->
<!DOCTYPE svg PUBLIC "-//W3C//DTD SVG 1.1//EN" "http://www.w3.org/Graphics/SVG/1.1/DTD/svg11.dtd">
<svg version="1.1" id="Layer_1" xmlns="http://www.w3.org/2000/svg" xmlns:xlink="http://www.w3.org/1999/xlink" x="0px" y="0px"
	 width="40.95px" height="45px" viewBox="0 0 40.95 45" enable-background="new 0 0 40.95 45" xml:space="preserve">
<path opacity="0.8" fill="#90CEDD" d="M50.066,49.848h40.95v33.598L70.54,94.848L50.067,83.445L50.066,49.848z"/>
<path fill="#FFFFFF" d="M81.47,63.598c-1.04,0-2.042,0.229-2.976,0.688l-0.119,0.061l-1.937-3.188v-2.963
	c0-0.27-0.22-0.489-0.489-0.489h-4.216c-0.271,0-0.489,0.22-0.489,0.49s0.219,0.489,0.489,0.489h3.726v2.528l-4.994,8.226
	l-4.729-7.785l-1.004-1.885h1.95c0.27-0.021,0.472-0.258,0.45-0.527c-0.02-0.24-0.21-0.432-0.45-0.45h-4.326
	c-0.27,0.024-0.468,0.263-0.444,0.532c0.021,0.236,0.209,0.422,0.444,0.443h1.261l0.807,1.5l-1.834,3.018l-0.117-0.057
	c-0.895-0.42-1.871-0.636-2.86-0.633c-3.745,0.002-6.782,3.038-6.786,6.784c0.004,3.746,3.039,6.782,6.785,6.786
	c3.475,0,6.439-2.707,6.758-6.163l0.01-0.133h4.094c0.044-0.003,0.088-0.009,0.13-0.021c0.035-0.012,0.069-0.027,0.103-0.045
	c0.074-0.04,0.138-0.1,0.183-0.172l5.083-8.369l1.572,2.588l-0.107,0.08c-1.723,1.282-2.74,3.301-2.747,5.449
	c0.004,3.746,3.04,6.781,6.785,6.785c3.745-0.004,6.781-3.039,6.786-6.785c-0.006-3.744-3.041-6.778-6.785-6.783H81.47z
	 M81.47,76.189c-3.206-0.004-5.805-2.602-5.808-5.809c0-1.802,0.823-3.474,2.26-4.588l0.127-0.1l3.002,4.939
	c0.147,0.221,0.438,0.293,0.671,0.165c0.231-0.14,0.306-0.441,0.165-0.673l-3-4.939l0.146-0.07c0.762-0.357,1.594-0.543,2.437-0.543
	c3.206,0.004,5.804,2.602,5.807,5.808c-0.003,3.206-2.601,5.804-5.806,5.808L81.47,76.189z M63.056,65.715
	c1.298,0.959,2.14,2.412,2.325,4.014l0.018,0.164h-5.066l2.596-4.272L63.056,65.715L63.056,65.715z M59.612,76.189
	c-3.207-0.002-5.807-2.601-5.811-5.808c0.004-3.207,2.604-5.806,5.811-5.808c0.801,0,1.58,0.162,2.317,0.486l0.149,0.065l-3.037,5
	c-0.092,0.151-0.094,0.342-0.006,0.496c0.084,0.153,0.25,0.248,0.424,0.248h5.94l-0.019,0.163c-0.328,2.938-2.812,5.158-5.768,5.156
	H59.612z M69.597,69.895h-3.218l-0.012-0.135c-0.184-1.966-1.213-3.754-2.82-4.9l-0.11-0.08l1.526-2.514L69.597,69.895
	L69.597,69.895z"/>
</svg>
