<?xml version="1.0" encoding="utf-8"?>
<!-- Generator: Adobe Illustrator 15.0.2, SVG Export Plug-In . SVG Version: 6.00 Build 0)  -->
<!DOCTYPE svg PUBLIC "-//W3C//DTD SVG 1.1//EN" "http://www.w3.org/Graphics/SVG/1.1/DTD/svg11.dtd">
<svg version="1.1" id="Layer_1" xmlns="http://www.w3.org/2000/svg" xmlns:xlink="http://www.w3.org/1999/xlink" x="0px" y="0px"
	 width="40.951px" height="45px" viewBox="50.629 49.647 40.951 45" enable-background="new 50.629 49.647 40.951 45"
	 xml:space="preserve">
<polygon fill="#90CEDD" points="50.629,49.647 91.581,49.647 91.581,83.245 71.105,94.647 50.629,83.245 "/>
<g>
	<path fill="#FFFFFF" d="M77.653,69.065L77.517,55.74c-0.006-0.403-0.166-0.781-0.454-1.063c-0.285-0.277-0.658-0.432-1.073-0.432
		l0,0c-0.867,0.009-1.889,0.641-1.972,1.537l-0.85,11.7c-0.035,0.479,0.134,0.956,0.463,1.307c0.282,0.3,0.666,0.489,1.076,0.533
		l-0.271,14.145c-0.008,0.29,0.106,0.574,0.312,0.779c0.201,0.202,0.469,0.312,0.752,0.312l1.535-0.041
		c0.281-0.007,0.553-0.128,0.745-0.333c0.193-0.204,0.299-0.481,0.29-0.763L77.653,69.065z M75.652,68.444l-0.664-0.035
		l-0.099-0.004c-0.219,0-0.433-0.092-0.582-0.251c-0.152-0.163-0.23-0.383-0.214-0.605l0.849-11.688
		c0.033-0.33,0.576-0.685,1.063-0.689c0.153,0,0.299,0.06,0.408,0.167c0.112,0.109,0.175,0.256,0.177,0.411l0.128,12.631h-0.013
		l0.44,15.07c0,0.036-0.013,0.07-0.039,0.098c-0.023,0.026-0.06,0.042-0.096,0.043L75.5,83.631c-0.035,0-0.072-0.016-0.097-0.041
		c-0.027-0.026-0.041-0.064-0.041-0.105L75.652,68.444z"/>
	<path fill="#FFFFFF" d="M69.846,60.657c0,0.833-0.189,1.67-0.557,2.438l-0.91,2.369c-0.143,0.301-0.21,0.635-0.196,0.967
		l0.666,16.236c0.013,0.31-0.102,0.613-0.315,0.836c-0.214,0.224-0.515,0.351-0.823,0.351h-0.509c-0.309,0-0.608-0.127-0.822-0.351
		c-0.214-0.223-0.329-0.526-0.317-0.836l0.666-16.231c0.015-0.335-0.055-0.672-0.191-0.959l-0.898-2.316l-0.012-0.026
		c-0.366-0.757-0.56-1.603-0.56-2.445v-6.443h-0.928v6.443c0,0.978,0.225,1.96,0.642,2.823l0.895,2.309l0.015,0.033
		c0.082,0.169,0.121,0.356,0.112,0.545L65.136,82.63c-0.022,0.56,0.187,1.112,0.574,1.517c0.388,0.403,0.932,0.635,1.491,0.635
		h0.509c0.561,0,1.104-0.232,1.491-0.635c0.389-0.404,0.598-0.957,0.574-1.517L69.11,66.394c-0.008-0.186,0.03-0.372,0.118-0.556
		l0.91-2.367c0.415-0.873,0.636-1.846,0.636-2.813v-6.411h-0.927L69.846,60.657L69.846,60.657L69.846,60.657z"/>
	<rect x="66.048" y="54.245" fill="#FFFFFF" width="0.927" height="7.261"/>
	<rect x="68.048" y="54.245" fill="#FFFFFF" width="0.927" height="7.261"/>
</g>
</svg>
