<?xml version="1.0" encoding="utf-8"?>
<!-- Generator: Adobe Illustrator 15.0.0, SVG Export Plug-In . SVG Version: 6.00 Build 0)  -->
<!DOCTYPE svg PUBLIC "-//W3C//DTD SVG 1.1//EN" "http://www.w3.org/Graphics/SVG/1.1/DTD/svg11.dtd">
<svg version="1.1" id="Layer_1" xmlns="http://www.w3.org/2000/svg" xmlns:xlink="http://www.w3.org/1999/xlink" x="0px" y="0px"
	 width="40.949px" height="45px" viewBox="0 0 40.949 45" enable-background="new 0 0 40.949 45" xml:space="preserve">
<path opacity="0.8" fill="#90CEDD" d="M50.12,49.91h40.95v33.597L70.596,94.91L50.12,83.507V49.91z"/>
<path fill="#FFFFFF" d="M81.402,59.221h-4.426c-1.291-3.74-3.73-6.063-6.381-6.063s-5.09,2.321-6.38,6.063H59.79
	c-0.28,0.001-0.507,0.229-0.507,0.508v20.095c0,0.278,0.227,0.506,0.507,0.506h21.612c0.281,0,0.507-0.228,0.507-0.506V59.729
	C81.909,59.448,81.682,59.221,81.402,59.221L81.402,59.221L81.402,59.221z M65.273,59.221c1.164-3.166,3.147-5.051,5.322-5.051
	c2.176,0,4.16,1.887,5.323,5.051H65.273z M63.359,63.412c-0.561,0.187-0.939,0.713-0.938,1.304c0,0.763,0.62,1.384,1.383,1.384
	c0.762,0,1.383-0.621,1.383-1.385c0-0.547-0.317-1.035-0.814-1.26c0.085-1.09,0.277-2.168,0.572-3.221H76.25
	c0.29,1.015,0.48,2.099,0.57,3.221c-0.496,0.223-0.815,0.716-0.814,1.26c0.021,0.764,0.656,1.367,1.421,1.347
	c0.735-0.021,1.327-0.611,1.347-1.347c0-0.592-0.379-1.117-0.94-1.303c-0.088-1.1-0.271-2.166-0.545-3.178H80.9v19.08H60.295v-19.08
	h3.609C63.627,61.274,63.445,62.338,63.359,63.412L63.359,63.412z"/>
</svg>
