<?xml version="1.0" encoding="utf-8"?>
<!-- Generator: Adobe Illustrator 15.0.2, SVG Export Plug-In . SVG Version: 6.00 Build 0)  -->
<!DOCTYPE svg PUBLIC "-//W3C//DTD SVG 1.1//EN" "http://www.w3.org/Graphics/SVG/1.1/DTD/svg11.dtd">
<svg version="1.1" id="Layer_1" xmlns="http://www.w3.org/2000/svg" xmlns:xlink="http://www.w3.org/1999/xlink" x="0px" y="0px"
	 width="40.95px" height="45px" viewBox="52.764 55.41 40.95 45" enable-background="new 52.764 55.41 40.95 45"
	 xml:space="preserve">
<path opacity="0.8" fill="#8FCDDE" enable-background="new    " d="M52.764,55.41h40.95v33.596L73.234,100.41L52.764,89.006V55.41z"
	/>
<g>
	<path fill="#FFFFFF" d="M70.529,82.175c-1.461,0-2.649,1.188-2.649,2.647s1.19,2.646,2.649,2.646c1.461,0,2.646-1.188,2.646-2.646
		S71.988,82.175,70.529,82.175L70.529,82.175z M70.529,86.443c-0.896-0.002-1.619-0.729-1.617-1.623
		c0.001-0.894,0.725-1.616,1.617-1.617c0.895,0,1.621,0.727,1.621,1.62C72.15,85.716,71.424,86.443,70.529,86.443z M78.205,82.175
		c-1.46,0-2.646,1.188-2.646,2.647s1.188,2.646,2.646,2.646s2.646-1.188,2.646-2.646C80.85,83.364,79.665,82.175,78.205,82.175z
		 M78.205,86.443c-0.895,0-1.62-0.729-1.62-1.62c0.044-0.896,0.806-1.584,1.7-1.54c0.833,0.042,1.498,0.707,1.54,1.54
		C79.825,85.716,79.1,86.443,78.205,86.443z M86.557,66.391c-0.095-0.146-0.256-0.231-0.43-0.229H65.234
		c-0.416-1.927-0.66-3.011-0.744-3.313c-0.36-1.291-1.58-1.635-2.178-1.635h-0.222c-0.221-0.447-0.676-0.73-1.175-0.732
		c-0.727,0.026-1.29,0.639-1.262,1.362c0.025,0.687,0.576,1.235,1.262,1.263c0.55,0,1.04-0.349,1.229-0.867h0.166
		c0.01,0,0.946,0.019,1.188,0.888c0.188,0.67,1.237,5.562,3.13,14.544c0.104,0.505,0.186,0.885,0.194,0.925
		c0.543,1.62,1.368,1.736,2.672,1.736h11.88c0.284-0.001,0.516-0.231,0.516-0.517c-0.002-0.283-0.23-0.515-0.516-0.515h-11.88
		c-1.146,0-1.374-0.071-1.685-0.979c-0.004-0.023-0.107-0.521-0.276-1.323H80.66c1-0.021,1.52-0.347,2.064-1.284l3.873-8.838
		C86.667,66.717,86.652,66.533,86.557,66.391L86.557,66.391L86.557,66.391z M85.343,67.186l-3.53,8.064
		c-0.354,0.609-0.582,0.707-1.17,0.721H67.33l-1.811-8.785H85.343L85.343,67.186z"/>
</g>
</svg>
