<?xml version="1.0" encoding="utf-8"?>
<!-- Generator: Adobe Illustrator 15.0.2, SVG Export Plug-In . SVG Version: 6.00 Build 0)  -->
<!DOCTYPE svg PUBLIC "-//W3C//DTD SVG 1.1//EN" "http://www.w3.org/Graphics/SVG/1.1/DTD/svg11.dtd">
<svg version="1.1" id="Layer_1" xmlns="http://www.w3.org/2000/svg" xmlns:xlink="http://www.w3.org/1999/xlink" x="0px" y="0px"
	 width="40.95px" height="45px" viewBox="52.936 55.147 40.95 45" enable-background="new 52.936 55.147 40.95 45"
	 xml:space="preserve">
<polygon fill="#8FCDDE" points="52.936,55.147 93.886,55.147 93.886,88.745 73.41,100.147 52.936,88.745 "/>
<g>
	<path fill="#FFFFFF" d="M59.175,83.239h28.472v-2.743c0-1.95-1.587-3.537-3.537-3.537H62.712c-1.951,0-3.537,1.587-3.537,3.537
		V83.239z M60.089,80.496c0-1.447,1.177-2.623,2.624-2.623h21.396c1.446,0,2.622,1.176,2.622,2.623v1.829H60.089V80.496z"/>
	<g>
		<path fill="#FFFFFF" d="M62.612,75.56h21.596v-0.464c0-5.306-3.792-9.785-9.02-10.65c-0.146-0.025-0.254-0.15-0.254-0.299v-0.783
			h0.169c0.678,0,1.23-0.552,1.23-1.23v-0.305c0-0.679-0.552-1.231-1.23-1.231h-3.386c-0.679,0-1.231,0.552-1.231,1.231v0.305
			c0,0.632,0.474,1.157,1.102,1.224l0.034,0.003v0.837c0,0.145-0.104,0.27-0.247,0.296c-5.078,0.97-8.764,5.429-8.764,10.604
			L62.612,75.56L62.612,75.56z M83.271,74.633H63.55l0.002-0.04c0.231-4.556,3.52-8.333,7.997-9.188
			c0.58-0.11,1.001-0.619,1.001-1.209v-1.052c0-0.026,0.007-0.058,0.019-0.095l0.122-0.614h-0.972c-0.168,0-0.304-0.136-0.304-0.303
			v-0.305c0-0.167,0.136-0.303,0.304-0.303h3.385c0.167,0,0.303,0.136,0.303,0.303v0.305c0,0.167-0.136,0.303-0.303,0.303h-1.244
			l0.13,0.617c0.011,0.034,0.018,0.065,0.018,0.092v1.002c0,0.604,0.433,1.115,1.03,1.213c4.614,0.766,7.999,4.561,8.231,9.232
			L83.271,74.633z"/>
	</g>
</g>
</svg>
