<?xml version="1.0" encoding="utf-8"?>
<!-- Generator: Adobe Illustrator 15.0.0, SVG Export Plug-In . SVG Version: 6.00 Build 0)  -->
<!DOCTYPE svg PUBLIC "-//W3C//DTD SVG 1.1//EN" "http://www.w3.org/Graphics/SVG/1.1/DTD/svg11.dtd">
<svg version="1.1" id="Layer_1" xmlns="http://www.w3.org/2000/svg" xmlns:xlink="http://www.w3.org/1999/xlink" x="0px" y="0px"
	 width="40.95px" height="45px" viewBox="0 0 40.95 45" enable-background="new 0 0 40.95 45" xml:space="preserve">
<path opacity="0.8" fill="#8FCDDE" d="M52.936,55.146h40.95v33.599l-20.476,11.401L52.936,88.745V55.146z"/>
<path fill="#FFFFFF" d="M59.174,83.24h28.473v-2.744c-0.002-1.953-1.584-3.535-3.537-3.537H62.711
	c-1.951,0.002-3.534,1.584-3.537,3.536v2.743V83.24z M60.088,80.496c0.002-1.448,1.176-2.621,2.623-2.623H84.11
	c1.447,0.003,2.619,1.176,2.62,2.623v1.83H60.09v-1.83H60.088z M62.612,75.561h21.596v-0.465c0.02-5.284-3.804-9.799-9.02-10.65
	c-0.146-0.023-0.254-0.15-0.254-0.299v-0.783h0.17c0.678,0,1.23-0.551,1.23-1.229v-0.305c0-0.681-0.553-1.231-1.23-1.231h-3.387
	c-0.68,0-1.23,0.551-1.23,1.229v0.306c0,0.629,0.475,1.158,1.1,1.225l0.035,0.002v0.839c0.001,0.146-0.104,0.271-0.246,0.296
	c-5.086,0.979-8.762,5.426-8.765,10.604L62.612,75.561L62.612,75.561z M83.272,74.633H63.549l0.002-0.04
	c0.222-4.543,3.528-8.343,7.998-9.188c0.58-0.109,1-0.619,1-1.209v-1.051c0-0.026,0.007-0.06,0.02-0.096l0.12-0.615h-0.97
	c-0.168,0.001-0.305-0.135-0.305-0.303l0,0v-0.305c0-0.167,0.135-0.303,0.303-0.303h3.385c0.167,0,0.303,0.136,0.303,0.303v0.305
	c0,0.168-0.135,0.303-0.303,0.303l0,0H73.86l0.131,0.617c0.01,0.029,0.016,0.061,0.018,0.092v1.002c0,0.604,0.433,1.115,1.029,1.213
	c4.614,0.766,8,4.561,8.23,9.23l0.003,0.043L83.272,74.633z"/>
</svg>
