<?xml version="1.0" encoding="utf-8"?>
<!-- Generator: Adobe Illustrator 15.0.2, SVG Export Plug-In . SVG Version: 6.00 Build 0)  -->
<!DOCTYPE svg PUBLIC "-//W3C//DTD SVG 1.1//EN" "http://www.w3.org/Graphics/SVG/1.1/DTD/svg11.dtd">
<svg version="1.1" id="Layer_1" xmlns="http://www.w3.org/2000/svg" xmlns:xlink="http://www.w3.org/1999/xlink" x="0px" y="0px"
	 width="40.949px" height="45px" viewBox="50.121 49.91 40.949 45" enable-background="new 50.121 49.91 40.949 45"
	 xml:space="preserve">
<polygon fill="#90CEDD" points="50.121,49.91 91.07,49.91 91.07,83.507 70.596,94.91 50.121,83.507 "/>
<path fill="#FFFFFF" d="M81.403,59.221h-4.427c-1.291-3.742-3.731-6.064-6.38-6.064c-2.649,0-5.09,2.322-6.381,6.064H59.79
	c-0.28,0-0.507,0.228-0.507,0.507v20.094c0,0.278,0.227,0.506,0.507,0.506h21.613c0.279,0,0.506-0.228,0.506-0.506V59.728
	C81.909,59.449,81.683,59.221,81.403,59.221z M65.274,59.221c1.163-3.166,3.147-5.051,5.322-5.051s4.159,1.886,5.323,5.051H65.274z
	 M63.36,63.412c-0.563,0.191-0.938,0.709-0.938,1.304c0,0.763,0.62,1.383,1.383,1.383c0.762,0,1.382-0.62,1.382-1.383
	c0-0.547-0.317-1.035-0.814-1.259c0.091-1.124,0.283-2.207,0.573-3.222h11.303c0.29,1.015,0.481,2.099,0.572,3.222
	c-0.497,0.224-0.815,0.713-0.815,1.259c0,0.763,0.62,1.383,1.384,1.383c0.763,0,1.383-0.62,1.383-1.383
	c0-0.595-0.375-1.111-0.939-1.303c-0.089-1.099-0.272-2.166-0.546-3.178h3.612v19.081H60.295V60.235h3.611
	C63.633,61.247,63.449,62.315,63.36,63.412z"/>
</svg>
