<svg xmlns="http://www.w3.org/2000/svg" width="40.95" height="45" viewBox="50.39 49.646 40.95 45"><path fill="#90CEDD" d="M50.39 49.646h40.95v33.6l-20.474 11.4-20.476-11.4z"/><g fill="#FFF"><path d="M71.864 65.164l-2.24-2.168-.752 3.042-2.772 1.47 2.66 1.657.003.017.54 3.073 2.396-2.02h.02l3.088.44-1.183-2.908 1.38-2.814-3.128.224-.013-.013zm.69 2.568l.702 1.733-1.854-.264-1.432 1.206-.014-.07-.31-1.77-1.59-.99 1.653-.876.448-1.817.053.047 1.296 1.256 1.865-.133-.817 1.68z"/><path d="M83.667 61.24l-1.8-6.278-26.88 7.708 1.8 6.277.472-.137c.595-.17 1.22-.1 1.76.2 1.118.62 1.522 2.03.903 3.15-.3.54-.793.93-1.39 1.1l-.47.138 1.8 6.277 26.882-7.708-1.802-6.278-.473.135a2.31 2.31 0 0 1-2.865-1.587 2.308 2.308 0 0 1 1.588-2.864l.474-.134zm-1.206-.638l-.028.016a3.24 3.24 0 0 0-1.484 1.386 3.3 3.3 0 0 0 3.277 4.873l.033-.004 1.27 4.424-24.99 7.167-1.27-4.425.03-.016a3.242 3.242 0 0 0 1.483-1.387c.427-.77.527-1.658.282-2.508a3.276 3.276 0 0 0-1.568-1.976 3.26 3.26 0 0 0-1.99-.39l-.034.003-1.27-4.426 24.993-7.164 1.268 4.426z"/></g></svg>