<?xml version="1.0" encoding="utf-8"?>
<!-- Generator: Adobe Illustrator 15.0.2, SVG Export Plug-In . SVG Version: 6.00 Build 0)  -->
<!DOCTYPE svg PUBLIC "-//W3C//DTD SVG 1.1//EN" "http://www.w3.org/Graphics/SVG/1.1/DTD/svg11.dtd">
<svg version="1.1" id="Layer_1" xmlns="http://www.w3.org/2000/svg" xmlns:xlink="http://www.w3.org/1999/xlink" x="0px" y="0px"
	 width="37.69px" height="45px" viewBox="-6.23 -7.438 37.69 45" enable-background="new -6.23 -7.438 37.69 45"
	 xml:space="preserve">
<g>
	<g>
		<g>
			<g>
				<g>
					<g>
						<g>
							<g>
								<g opacity="0.8" enable-background="new    ">
									<path fill="#333333" d="M-6.23-7.438v34.506l18.843,10.494L31.46,27.068V-7.438H-6.23z"/>
								</g>
							</g>
						</g>
					</g>
				</g>
			</g>
		</g>
	</g>
</g>
<g>
	<g>
		<g>
			<defs>
				<rect id="SVGID_1_" x="0.82" y="-0.791" width="23.131" height="26.141"/>
			</defs>
			<clipPath id="SVGID_2_">
				<use xlink:href="#SVGID_1_"  overflow="visible"/>
			</clipPath>
			<path clip-path="url(#SVGID_2_)" fill="#FFFFFF" d="M17.591,12.262c-0.862,0.632-2.024,0.896-3.325,0.896h-6.68v0.013h6.68
				c1.72,0,3.033,0.532,3.033,2.582c0,2.151-1.476,2.602-3.033,2.602h-6.68v1.804h6.68c1.905,0,4.837-0.759,4.837-4.405
				C19.103,14.059,18.524,12.945,17.591,12.262"/>
		</g>
		<g>
			<defs>
				<rect id="SVGID_3_" x="0.82" y="-0.791" width="23.131" height="26.141"/>
			</defs>
			<clipPath id="SVGID_4_">
				<use xlink:href="#SVGID_3_"  overflow="visible"/>
			</clipPath>
			<path clip-path="url(#SVGID_4_)" fill="#FFFFFF" d="M7.586,6.17h6.68c1.558,0,3.033,0.45,3.033,2.603
				c0,2.049-1.312,2.581-3.033,2.581h-6.68V6.17z M14.266,4.367h-6.68H5.782v15.79h1.804v-1.804V13.17v-0.012h6.68
				c1.3,0,2.463-0.264,3.326-0.896c0.932-0.683,1.511-1.797,1.511-3.489C19.103,5.125,16.172,4.367,14.266,4.367"/>
		</g>
	</g>
	<rect x="5.783" y="23.533" fill="#FFFFFF" width="13.319" height="1.816"/>
	<rect x="5.783" y="-0.791" fill="#FFFFFF" width="13.319" height="1.815"/>
	<rect x="0.82" y="-0.791" fill="#FFFFFF" width="1.815" height="26.107"/>
	<rect x="22.137" y="-0.791" fill="#FFFFFF" width="1.813" height="26.107"/>
</g>
</svg>
