<svg xmlns="http://www.w3.org/2000/svg" width="40.95" height="45" viewBox="52.936 55.147 40.95 45"><path fill="#8FCDDE" d="M52.936 55.147h40.95v33.598L73.41 100.147 52.936 88.745z"/><path fill="#FFF" d="M59.175 83.24h28.472v-2.744a3.54 3.54 0 0 0-3.537-3.537H62.712a3.54 3.54 0 0 0-3.537 3.536v2.743zm.914-2.744a2.626 2.626 0 0 1 2.623-2.623H84.11a2.625 2.625 0 0 1 2.62 2.623v1.83H60.09v-1.83zM62.612 75.56h21.596v-.464a10.75 10.75 0 0 0-9.02-10.65.304.304 0 0 1-.254-.3v-.782h.17c.677 0 1.23-.552 1.23-1.23v-.305c0-.68-.553-1.232-1.23-1.232h-3.387c-.68 0-1.23.552-1.23 1.23v.306a1.23 1.23 0 0 0 1.1 1.224l.035.003v.838a.3.3 0 0 1-.247.296 10.805 10.805 0 0 0-8.764 10.604l.002.462zm20.66-.927H63.55l.002-.04a9.837 9.837 0 0 1 7.997-9.188c.58-.11 1-.62 1-1.21v-1.05c0-.027.007-.06.02-.096l.12-.615h-.97a.304.304 0 0 1-.305-.303v-.305c0-.167.136-.303.304-.303h3.384c.167 0 .303.136.303.303v.305a.303.303 0 0 1-.303.303H73.86l.13.617a.31.31 0 0 1 .018.092v1.002c0 .604.433 1.115 1.03 1.213 4.614.765 8 4.56 8.23 9.23l.003.043z"/></svg>