<?xml version="1.0" encoding="utf-8"?>
<!-- Generator: Adobe Illustrator 15.0.2, SVG Export Plug-In . SVG Version: 6.00 Build 0)  -->
<!DOCTYPE svg PUBLIC "-//W3C//DTD SVG 1.1//EN" "http://www.w3.org/Graphics/SVG/1.1/DTD/svg11.dtd">
<svg version="1.1" id="Layer_1" xmlns="http://www.w3.org/2000/svg" xmlns:xlink="http://www.w3.org/1999/xlink" x="0px" y="0px"
	 width="40.951px" height="45px" viewBox="50.389 49.646 40.951 45" enable-background="new 50.389 49.646 40.951 45"
	 xml:space="preserve">
<path opacity="0.8" fill="#90CEDD" enable-background="new    " d="M50.39,49.646h40.95v33.6l-20.475,11.4l-20.477-11.4
	L50.39,49.646L50.39,49.646z"/>
<g>
	<path fill="#FFFFFF" d="M71.864,65.164l-2.24-2.168l-0.752,3.042l-2.771,1.47l2.66,1.657l0.003,0.017l0.54,3.073l2.396-2.021h0.021
		l3.088,0.439l-1.185-2.906l1.381-2.814l-3.129,0.224L71.864,65.164L71.864,65.164z M72.554,67.732l0.702,1.731L71.402,69.2
		l-1.432,1.206l-0.015-0.07l-0.311-1.771l-1.59-0.988l1.652-0.876l0.447-1.817l0.053,0.049l1.297,1.256l1.865-0.133l-0.816,1.68
		L72.554,67.732L72.554,67.732z"/>
	<path fill="#FFFFFF" d="M83.667,61.24l-1.799-6.278L54.987,62.67l1.801,6.277l0.471-0.137c0.597-0.17,1.222-0.102,1.762,0.198
		c1.118,0.62,1.521,2.03,0.902,3.15c-0.301,0.54-0.793,0.93-1.391,1.1l-0.47,0.14l1.8,6.275l26.883-7.708l-1.803-6.276l-0.473,0.135
		c-1.227,0.355-2.508-0.352-2.861-1.576c-0.002-0.004-0.003-0.008-0.004-0.012c-0.355-1.225,0.35-2.504,1.572-2.859
		c0.006-0.001,0.011-0.002,0.016-0.004L83.667,61.24L83.667,61.24z M82.461,60.602l-0.028,0.018
		c-0.63,0.291-1.151,0.775-1.483,1.386c-0.883,1.597-0.304,3.604,1.291,4.484c0.605,0.334,1.299,0.471,1.985,0.389l0.032-0.004
		l1.271,4.424L60.54,78.464l-1.271-4.425l0.03-0.016c0.63-0.293,1.148-0.778,1.481-1.389c0.429-0.77,0.527-1.656,0.282-2.508
		c-0.236-0.841-0.803-1.553-1.566-1.977c-0.605-0.338-1.304-0.475-1.99-0.391l-0.034,0.004l-1.271-4.427l24.992-7.164l1.27,4.427
		h-0.002V60.602z"/>
</g>
</svg>
