<?xml version="1.0" encoding="utf-8"?>
<!-- Generator: Adobe Illustrator 15.0.0, SVG Export Plug-In . SVG Version: 6.00 Build 0)  -->
<!DOCTYPE svg PUBLIC "-//W3C//DTD SVG 1.1//EN" "http://www.w3.org/Graphics/SVG/1.1/DTD/svg11.dtd">
<svg version="1.1" id="Layer_1" xmlns="http://www.w3.org/2000/svg" xmlns:xlink="http://www.w3.org/1999/xlink" x="0px" y="0px"
	 width="40.95px" height="45px" viewBox="0 0 40.95 45" enable-background="new 0 0 40.95 45" xml:space="preserve">
<path opacity="0.8" fill="#90CEDD" d="M50.39,49.646h40.95v33.6l-20.475,11.4l-20.476-11.4V49.646z"/>
<g>
	<path fill="#FFFFFF" d="M71.864,65.164l-2.24-2.168l-0.752,3.042l-2.771,1.47l2.66,1.657l0.003,0.017l0.54,3.073l2.396-2.021h0.02
		l3.088,0.44l-1.184-2.907l1.381-2.814l-3.129,0.224L71.864,65.164L71.864,65.164z M72.554,67.732l0.702,1.732l-1.854-0.264
		l-1.432,1.206l-0.015-0.07l-0.31-1.771l-1.59-0.989l1.653-0.876l0.447-1.817l0.053,0.048l1.297,1.256l1.865-0.133l-0.817,1.68
		V67.732z"/>
	<path fill="#FFFFFF" d="M83.667,61.24l-1.799-6.278L54.987,62.67l1.801,6.277l0.471-0.137c0.596-0.17,1.221-0.101,1.761,0.199
		c1.118,0.62,1.522,2.03,0.903,3.15c-0.301,0.54-0.793,0.93-1.391,1.1l-0.47,0.139l1.8,6.276l26.883-7.708l-1.803-6.277
		l-0.473,0.135c-1.226,0.355-2.507-0.351-2.861-1.576c-0.002-0.004-0.003-0.008-0.004-0.012c-0.355-1.224,0.35-2.504,1.573-2.859
		c0.005-0.001,0.01-0.002,0.015-0.004L83.667,61.24L83.667,61.24z M82.461,60.602l-0.028,0.017c-0.63,0.291-1.151,0.776-1.483,1.386
		c-0.883,1.596-0.304,3.604,1.291,4.484c0.605,0.334,1.299,0.471,1.985,0.389l0.032-0.004l1.271,4.424L60.54,78.464l-1.271-4.425
		l0.03-0.016c0.63-0.292,1.149-0.778,1.482-1.388c0.428-0.77,0.527-1.657,0.282-2.508c-0.237-0.841-0.803-1.553-1.567-1.976
		c-0.605-0.338-1.303-0.475-1.99-0.391l-0.034,0.004l-1.271-4.427l24.993-7.164l1.269,4.427H82.461z"/>
</g>
</svg>
