<?xml version="1.0" encoding="utf-8"?>
<!-- Generator: Adobe Illustrator 15.0.2, SVG Export Plug-In . SVG Version: 6.00 Build 0)  -->
<!DOCTYPE svg PUBLIC "-//W3C//DTD SVG 1.1//EN" "http://www.w3.org/Graphics/SVG/1.1/DTD/svg11.dtd">
<svg version="1.1" id="Layer_1" xmlns="http://www.w3.org/2000/svg" xmlns:xlink="http://www.w3.org/1999/xlink" x="0px" y="0px"
	 width="40.951px" height="45px" viewBox="49.542 49.91 40.951 45" enable-background="new 49.542 49.91 40.951 45"
	 xml:space="preserve">
<path opacity="0.8" fill="#90CEDD" enable-background="new    " d="M49.542,49.91h40.951v33.597L70.018,94.91L49.542,83.507V49.91z"
	/>
<g>
	<path fill="#FFFFFF" d="M70.012,62.67c1.102,0.004,2.059-0.752,2.312-1.822c0.309-1.281-0.48-2.567-1.763-2.877
		c-0.181-0.043-0.365-0.063-0.551-0.064c-1.318,0.004-2.386,1.072-2.382,2.391c0,0.188,0.021,0.369,0.062,0.553
		C67.952,61.917,68.911,62.672,70.012,62.67L70.012,62.67z M70.012,58.824c0.809,0,1.465,0.656,1.465,1.465
		c0,0.109-0.016,0.225-0.043,0.342c-0.156,0.658-0.744,1.121-1.42,1.12c-0.678,0.002-1.268-0.462-1.426-1.12
		c-0.188-0.787,0.299-1.578,1.086-1.767C69.786,58.838,69.898,58.824,70.012,58.824z"/>
	<path fill="#FFFFFF" d="M81.432,74.503c-0.111-0.05-0.383-0.173-0.51-0.25l0.029-8.59h1.739c0.379,0,0.677-0.25,0.797-0.67
		c0.193-0.667-0.041-1.771-0.62-2.136l-11.642-7.353c-0.328-0.21-0.756-0.321-1.218-0.321c-0.448,0-0.881,0.112-1.207,0.32
		l-11.641,7.352c-0.58,0.369-0.812,1.471-0.619,2.138c0.119,0.42,0.42,0.67,0.795,0.67h1.74l0.029,8.59
		c-0.129,0.076-0.396,0.2-0.51,0.25c-0.92,0.417-2.629,1.192-2.629,3.315c0,0.729,0.717,1.326,1.598,1.326h24.893
		c0.883,0,1.601-0.598,1.601-1.326C84.059,75.698,82.35,74.92,81.432,74.503L81.432,74.503z M60.027,74.363l-0.028-9.616h-2.57
		l-0.002-0.008c-0.109-0.38,0.096-1.021,0.229-1.105l11.638-7.352c0.182-0.112,0.447-0.181,0.719-0.181h0.01
		c0.271,0,0.541,0.065,0.721,0.181l11.639,7.352c0.136,0.085,0.343,0.726,0.229,1.104l-0.004,0.007H80.04l-0.031,9.616
		c0,0.5,0.484,0.721,1.051,0.976c0.879,0.399,2.09,0.948,2.09,2.479c0,0.188-0.299,0.41-0.682,0.41H57.57
		c-0.383,0-0.68-0.224-0.68-0.41c0-1.529,1.207-2.08,2.092-2.479c0.562-0.257,1.045-0.478,1.045-0.978V74.363z"/>
	<path fill="#FFFFFF" d="M75.079,74.9h1.741c0.699,0,1.271-0.57,1.271-1.271v-7.302c0-0.7-0.568-1.271-1.271-1.271h-1.741
		c-0.701,0-1.271,0.567-1.271,1.271v7.3C73.807,74.331,74.375,74.9,75.079,74.9L75.079,74.9z M77.174,73.628
		c0,0.195-0.158,0.354-0.354,0.354h-1.741c-0.195-0.002-0.354-0.159-0.354-0.354v-7.3c0-0.197,0.157-0.355,0.354-0.355h1.741
		c0.195,0,0.354,0.158,0.354,0.354V73.628L77.174,73.628z M70.715,65.055h-1.74c-0.703,0-1.271,0.57-1.271,1.272v7.3
		c0,0.702,0.568,1.273,1.271,1.273h1.74c0.701,0,1.271-0.57,1.271-1.272v-7.3C71.986,65.626,71.417,65.055,70.715,65.055z
		 M68.62,66.328c0-0.196,0.155-0.354,0.354-0.354h1.74c0.197,0,0.354,0.155,0.354,0.354v7.3c0,0.196-0.157,0.354-0.354,0.354
		c0,0,0,0-0.002,0h-1.74c-0.195,0-0.354-0.158-0.354-0.354v-7.302L68.62,66.328z M63.213,74.9h1.742c0.698,0,1.271-0.57,1.271-1.271
		v-7.302c0-0.7-0.569-1.271-1.271-1.271h-1.742c-0.699,0-1.271,0.567-1.271,1.271v7.3C61.941,74.331,62.514,74.9,63.213,74.9
		L63.213,74.9z M65.311,73.628c0,0.195-0.158,0.354-0.354,0.354h-1.742c-0.195-0.002-0.354-0.159-0.354-0.354v-7.3
		c0-0.197,0.158-0.355,0.354-0.355h1.742c0.194,0,0.354,0.158,0.354,0.354V73.628L65.311,73.628z"/>
</g>
</svg>
