<?xml version="1.0" encoding="utf-8"?>
<!-- Generator: Adobe Illustrator 15.0.2, SVG Export Plug-In . SVG Version: 6.00 Build 0)  -->
<!DOCTYPE svg PUBLIC "-//W3C//DTD SVG 1.1//EN" "http://www.w3.org/Graphics/SVG/1.1/DTD/svg11.dtd">
<svg version="1.1" id="Layer_1" xmlns="http://www.w3.org/2000/svg" xmlns:xlink="http://www.w3.org/1999/xlink" x="0px" y="0px"
	 width="40.95px" height="45px" viewBox="50.066 49.848 40.95 45" enable-background="new 50.066 49.848 40.95 45"
	 xml:space="preserve">
<polygon fill="#90CEDD" points="50.066,49.848 91.016,49.848 91.016,83.446 70.541,94.848 50.066,83.446 "/>
<path fill="#FFFFFF" d="M81.471,63.597c-1.042,0-2.043,0.231-2.976,0.688l-0.121,0.059l-1.935-3.186v-2.962
	c0-0.269-0.219-0.489-0.489-0.489h-4.215c-0.27,0-0.487,0.221-0.487,0.489c0,0.27,0.218,0.489,0.487,0.489h3.726v2.529l-4.996,8.226
	l-4.728-7.785l-1.004-1.886h1.949c0.27,0,0.489-0.219,0.489-0.487c0-0.271-0.22-0.489-0.489-0.489h-4.325
	c-0.269,0-0.488,0.219-0.488,0.489c0,0.269,0.22,0.487,0.488,0.487h1.26l0.807,1.501l-1.833,3.017l-0.119-0.056
	c-0.901-0.422-1.863-0.635-2.861-0.635c-3.741,0-6.785,3.043-6.785,6.785c0,3.741,3.044,6.785,6.785,6.785
	c3.473,0,6.439-2.707,6.756-6.163l0.011-0.133h4.093c0.046-0.003,0.084-0.009,0.128-0.02c0.041-0.015,0.07-0.027,0.103-0.045
	c0.051-0.03,0.076-0.05,0.098-0.071c0.048-0.045,0.068-0.072,0.085-0.101l5.083-8.369l1.572,2.587l-0.107,0.079
	c-1.721,1.279-2.747,3.316-2.747,5.45c0,3.741,3.043,6.785,6.785,6.785c3.741,0,6.785-3.044,6.785-6.785
	C88.255,66.64,85.211,63.597,81.471,63.597z M81.471,76.189c-3.203,0-5.809-2.604-5.809-5.807c0-1.802,0.824-3.474,2.26-4.588
	l0.128-0.1l3.002,4.94c0.084,0.139,0.255,0.228,0.433,0.228c0.089,0,0.171-0.021,0.237-0.063c0.231-0.14,0.305-0.441,0.165-0.672
	l-3.001-4.941l0.147-0.068c0.774-0.36,1.594-0.544,2.437-0.544c3.202,0,5.807,2.605,5.807,5.808
	C87.278,73.584,84.673,76.189,81.471,76.189z M63.055,65.716c1.299,0.961,2.146,2.424,2.325,4.014l0.018,0.164h-5.066l2.595-4.273
	L63.055,65.716z M59.612,76.189c-3.203,0-5.809-2.604-5.809-5.807c0-3.203,2.605-5.808,5.809-5.808c0.8,0,1.579,0.163,2.317,0.486
	l0.152,0.066l-3.038,5.001c-0.091,0.151-0.094,0.34-0.007,0.495c0.085,0.153,0.249,0.248,0.425,0.248h5.937l-0.018,0.163
	C65.049,73.973,62.569,76.189,59.612,76.189z M69.597,69.894h-3.218l-0.012-0.134c-0.179-1.961-1.208-3.748-2.821-4.901
	l-0.109-0.078l1.527-2.516L69.597,69.894z"/>
</svg>
