<?xml version="1.0" encoding="utf-8"?>
<!-- Generator: Adobe Illustrator 15.0.2, SVG Export Plug-In . SVG Version: 6.00 Build 0)  -->
<!DOCTYPE svg PUBLIC "-//W3C//DTD SVG 1.1//EN" "http://www.w3.org/Graphics/SVG/1.1/DTD/svg11.dtd">
<svg version="1.1" id="Layer_1" xmlns="http://www.w3.org/2000/svg" xmlns:xlink="http://www.w3.org/1999/xlink" x="0px" y="0px"
	 width="40.95px" height="45px" viewBox="50.39 49.646 40.95 45" enable-background="new 50.39 49.646 40.95 45"
	 xml:space="preserve">
<polygon fill="#90CEDD" points="50.39,49.646 91.34,49.646 91.34,83.245 70.866,94.646 50.39,83.245 "/>
<g>
	<path fill="#FFFFFF" d="M71.864,65.164l-2.24-2.168l-0.752,3.042L66.1,67.507l2.661,1.658l0.002,0.017l0.539,3.073l2.397-2.021
		l0.02,0.002l3.089,0.439l-1.183-2.908l1.381-2.814l-3.129,0.224L71.864,65.164z M72.553,67.732l0.703,1.733l-1.854-0.264
		l-1.432,1.205l-0.014-0.069l-0.309-1.771l-1.59-0.99l1.652-0.876l0.449-1.817l0.053,0.047l1.295,1.256l1.865-0.133L72.553,67.732z"
		/>
	<path fill="#FFFFFF" d="M83.667,61.24l-1.8-6.278L54.987,62.67l1.799,6.277l0.473-0.137c0.596-0.17,1.222-0.099,1.762,0.201
		c1.117,0.619,1.521,2.03,0.902,3.148c-0.299,0.54-0.793,0.932-1.389,1.102l-0.472,0.137l1.801,6.277l26.882-7.708l-1.802-6.278
		l-0.473,0.136c-0.595,0.171-1.22,0.101-1.761-0.199s-0.932-0.793-1.104-1.388c-0.169-0.596-0.1-1.221,0.2-1.762
		c0.302-0.539,0.794-0.932,1.388-1.102L83.667,61.24z M82.461,60.602l-0.029,0.016c-0.635,0.295-1.146,0.773-1.484,1.386
		c-0.88,1.589-0.304,3.603,1.285,4.481c0.604,0.334,1.312,0.475,1.992,0.392l0.033-0.004l1.27,4.424l-24.99,7.167l-1.269-4.425
		l0.03-0.015c0.632-0.295,1.144-0.772,1.482-1.387c0.426-0.769,0.526-1.658,0.281-2.508c-0.242-0.847-0.801-1.549-1.568-1.975
		c-0.611-0.34-1.301-0.475-1.99-0.391l-0.034,0.004l-1.269-4.426l24.992-7.165L82.461,60.602z"/>
</g>
</svg>
