<?xml version="1.0" encoding="utf-8"?>
<!-- Generator: Adobe Illustrator 15.0.2, SVG Export Plug-In . SVG Version: 6.00 Build 0)  -->
<!DOCTYPE svg PUBLIC "-//W3C//DTD SVG 1.1//EN" "http://www.w3.org/Graphics/SVG/1.1/DTD/svg11.dtd">
<svg version="1.1" id="Layer_1" xmlns="http://www.w3.org/2000/svg" xmlns:xlink="http://www.w3.org/1999/xlink" x="0px" y="0px"
	 width="40.949px" height="45px" viewBox="52.764 55.41 40.949 45" enable-background="new 52.764 55.41 40.949 45"
	 xml:space="preserve">
<path opacity="0.8" fill="#8FCDDE" enable-background="new    " d="M52.764,55.41h40.949v33.596L73.234,100.41l-20.47-11.404V55.41z
	"/>
<g>
	<path fill="#FFFFFF" d="M70.529,82.175c-1.461,0-2.649,1.188-2.649,2.647s1.19,2.646,2.649,2.646c1.462,0,2.646-1.188,2.646-2.646
		S71.988,82.175,70.529,82.175L70.529,82.175z M70.529,86.443c-0.896-0.002-1.618-0.729-1.616-1.623
		c0-0.895,0.725-1.616,1.616-1.617c0.896,0,1.621,0.727,1.621,1.62C72.15,85.716,71.424,86.443,70.529,86.443z M78.206,82.175
		c-1.461,0-2.646,1.188-2.646,2.647s1.188,2.646,2.646,2.646c1.457,0,2.646-1.188,2.646-2.646
		C80.85,83.364,79.665,82.175,78.206,82.175z M78.206,86.443c-0.896,0-1.621-0.729-1.621-1.62c0.045-0.896,0.807-1.584,1.701-1.54
		c0.832,0.042,1.498,0.707,1.539,1.54C79.825,85.716,79.1,86.443,78.206,86.443z M86.557,66.391c-0.096-0.146-0.256-0.23-0.43-0.229
		H65.234c-0.416-1.928-0.659-3.012-0.743-3.312c-0.361-1.291-1.58-1.636-2.179-1.636H62.09c-0.221-0.446-0.676-0.729-1.176-0.731
		c-0.727,0.025-1.289,0.639-1.262,1.361c0.025,0.688,0.576,1.235,1.262,1.264c0.551,0,1.041-0.35,1.229-0.867h0.166
		c0.01,0,0.946,0.019,1.188,0.888c0.188,0.67,1.236,5.562,3.129,14.544c0.104,0.505,0.187,0.885,0.194,0.926
		c0.544,1.619,1.368,1.735,2.673,1.735h11.879c0.285-0.001,0.517-0.231,0.517-0.517c-0.002-0.283-0.229-0.516-0.517-0.516H69.495
		c-1.146,0-1.375-0.07-1.686-0.979c-0.004-0.023-0.107-0.521-0.275-1.323h13.127c1-0.021,1.52-0.347,2.063-1.284l3.873-8.838
		C86.667,66.717,86.652,66.533,86.557,66.391L86.557,66.391L86.557,66.391z M85.342,67.186l-3.529,8.064
		c-0.354,0.609-0.582,0.707-1.17,0.721H67.331l-1.812-8.785H85.342L85.342,67.186z"/>
</g>
</svg>
