<svg xmlns="http://www.w3.org/2000/svg" width="40.951" height="45" viewBox="50.629 49.647 40.951 45"><path fill="#90CEDD" d="M50.63 49.647h40.95v33.598L71.106 94.647 50.63 83.245z"/><g fill="#FFF"><path d="M77.653 69.065l-.136-13.325a1.51 1.51 0 0 0-1.527-1.495c-.867.01-1.89.64-1.972 1.537l-.85 11.7c-.035.48.134.956.463 1.307.283.3.667.488 1.077.532l-.27 14.145a1.063 1.063 0 0 0 1.063 1.09l1.535-.04a1.063 1.063 0 0 0 1.035-1.096l-.417-14.355zm-2-.62l-.665-.036-.1-.005a.803.803 0 0 1-.58-.25.804.804 0 0 1-.215-.606l.85-11.69c.032-.33.575-.684 1.062-.688.153 0 .3.06.408.167.112.108.175.255.177.41l.128 12.63h-.013l.44 15.07c0 .037-.013.07-.04.1a.136.136 0 0 1-.095.042l-1.51.04a.142.142 0 0 1-.097-.042.144.144 0 0 1-.04-.105l.29-15.04zM69.846 60.657c0 .833-.19 1.67-.557 2.438l-.91 2.37c-.144.3-.21.634-.197.966l.666 16.237c.012.31-.103.613-.316.836-.214.224-.515.35-.823.35h-.508a1.14 1.14 0 0 1-1.14-1.186l.667-16.23a2.053 2.053 0 0 0-.192-.96l-.898-2.316-.012-.025a5.652 5.652 0 0 1-.56-2.445v-6.443h-.928v6.443c0 .978.225 1.96.642 2.823l.895 2.31.015.032c.082.17.12.356.112.545l-.668 16.23c-.022.56.187 1.112.574 1.517.388.403.932.635 1.49.635h.51a2.07 2.07 0 0 0 2.065-2.152l-.665-16.236a1.16 1.16 0 0 1 .118-.556l.91-2.367a6.595 6.595 0 0 0 .636-2.812v-6.41h-.927v6.41z"/><path d="M66.048 54.245h.927v7.26h-.927zM68.048 54.245h.927v7.26h-.927z"/></g></svg>