<?xml version="1.0" encoding="utf-8"?>
<!-- Generator: Adobe Illustrator 15.0.2, SVG Export Plug-In . SVG Version: 6.00 Build 0)  -->
<!DOCTYPE svg PUBLIC "-//W3C//DTD SVG 1.1//EN" "http://www.w3.org/Graphics/SVG/1.1/DTD/svg11.dtd">
<svg version="1.1" id="Layer_1" xmlns="http://www.w3.org/2000/svg" xmlns:xlink="http://www.w3.org/1999/xlink" x="0px" y="0px"
	 width="337.797px" height="333.926px" viewBox="0 0 337.797 333.926" enable-background="new 0 0 337.797 333.926"
	 xml:space="preserve">
<g id="_x32_0_x25___PMS_2985_fill" display="none">
	<polygon display="inline" fill="#EBEEEF" points="1.512,18.65 1.512,332.441 178.012,332.441 178.012,316.941 233.012,316.941 
		233.012,331.441 336.512,331.441 336.512,18.441 216.512,18.441 216.512,8.941 127.512,8.941 127.512,15.941 101.012,15.941 
		101.012,19.441 	"/>
</g>
<g id="_x32_0_x25__grey_fill">
	<rect x="234.262" y="310.707" fill="#B3B3B3" width="22.25" height="21.484"/>
	<rect x="310.512" y="308.055" fill="#B3B3B3" width="24.785" height="23.295"/>
	<rect x="101.127" y="17.307" fill="#B3B3B3" width="32.635" height="9.135"/>
	<rect x="209.654" y="17.307" fill="#B3B3B3" width="38.949" height="8.627"/>
	<rect x="323.512" y="20.441" fill="#B3B3B3" width="12.25" height="5.75"/>
	<rect x="2.5" y="20.664" fill="#B3B3B3" width="24.762" height="5.027"/>
</g>
<g id="icons">
	<polyline fill="#FFFFFF" stroke="#939598" points="114.916,206.441 114.916,310.608 177.68,310.608 177.68,331.426 93.345,331.426 
		93.345,206.275 113.582,206.275 	"/>
	<g>
		<rect x="138.012" y="18.891" fill="none" stroke="#939598" width="37.5" height="1.98"/>
		<rect x="166.762" y="20.855" fill="none" stroke="#939598" width="41" height="1.766"/>
	</g>
	<g>
		<rect x="214.262" y="9.566" fill="none" stroke="#939598" width="2.875" height="2.875"/>
		<rect x="127.762" y="9.566" fill="none" stroke="#939598" width="2.875" height="2.875"/>
		<line fill="none" stroke="#939598" x1="214.512" y1="11.691" x2="130.637" y2="11.691"/>
		<line fill="none" stroke="#939598" x1="214.262" y1="12.441" x2="214.262" y2="15.941"/>
		<line fill="none" stroke="#939598" x1="130.08" y1="12.441" x2="130.08" y2="17.066"/>
		<line fill="none" stroke="#939598" x1="127.762" y1="12.441" x2="127.762" y2="16.816"/>
		<line fill="none" stroke="#939598" x1="130.637" y1="9.566" x2="214.762" y2="9.566"/>
		<line fill="none" stroke="#939598" x1="217.137" y1="12.441" x2="217.137" y2="15.957"/>
	</g>
	<line fill="none" stroke="#939598" x1="101.845" y1="26.691" x2="27.512" y2="26.691"/>
	<line fill="none" stroke="#939598" x1="322.762" y1="26.96" x2="248.43" y2="26.96"/>
	<g>
		<polygon fill="none" stroke="#939598" points="64.778,175.602 63.129,175.652 63.114,199.43 64.785,199.441 		"/>
		<path fill="none" stroke="#939598" d="M64.032,199.46c-13.114-0.444-23.383-11.246-22.936-24.358"/>
	</g>
	<g>
		<polygon fill="none" stroke="#939598" points="264.327,259.188 265.997,259.195 266.014,283.016 264.342,283.006 		"/>
		<path fill="none" stroke="#939598" d="M265.096,283.023c13.113-0.444,23.383-11.225,22.936-24.338"/>
	</g>
	<g>
		<polygon fill="none" stroke="#939598" points="64.733,251.482 63.063,251.496 63.047,227.678 64.761,227.665 		"/>
		<path fill="none" stroke="#939598" d="M64.03,227.646c-13.114,0.444-23.383,11.289-22.936,24.401"/>
	</g>
	<g>
		<polygon fill="none" stroke="#939598" points="272.876,196.96 272.885,195.374 295.512,195.357 295.504,196.945 		"/>
		<path fill="none" stroke="#939598" d="M295.521,196.23c-0.424-12.459-10.664-22.215-23.121-21.789"/>
	</g>
	<g>
		<polygon fill="none" stroke="#939598" points="242.609,220.473 244.279,220.484 244.295,196.666 242.581,196.652 		"/>
		<path fill="none" stroke="#939598" d="M243.312,196.635c13.113,0.445,23.383,11.289,22.936,24.402"/>
	</g>
	<g>
		<polygon fill="none" stroke="#939598" points="233.824,298.302 234.664,296.956 215.535,284.869 214.695,286.216 		"/>
		<path fill="none" stroke="#939598" d="M246.242,279.514"/>
		<path fill="none" stroke="#939598" d="M215.062,285.602c4.342-6.389,11.318-9.889,18.449-9.959"/>
	</g>
	<g>
		<polygon fill="none" stroke="#939598" points="113.712,167.792 113.703,166.207 91.076,166.191 91.084,167.779 		"/>
		<path fill="none" stroke="#939598" d="M91.066,167.063c0.424-12.458,10.664-22.321,23.121-21.896"/>
	</g>
	<g>
		<polygon fill="none" stroke="#939598" points="304.512,228.441 304.503,230.027 281.876,230.044 281.884,228.456 		"/>
		<path fill="none" stroke="#939598" d="M281.866,229.172c0.424,12.458,10.663,22.214,23.12,21.788"/>
	</g>
	<g>
		<polygon fill="none" stroke="#939598" points="113.564,181.727 113.571,182.995 131.672,183.007 131.666,181.736 		"/>
		<path fill="none" stroke="#939598" d="M131.68,182.311c-0.339,9.967-8.531,17.771-18.497,17.43"/>
	</g>
	
		<rect x="136.044" y="254.461" transform="matrix(-0.7071 -0.7072 0.7072 -0.7071 83.6199 562.8127)" fill="#FFFFFF" stroke="#939598" width="44.68" height="19.252"/>
	<line fill="none" stroke="#939598" x1="245.012" y1="260.441" x2="245.012" y2="310.691"/>
	<line fill="none" stroke="#939598" x1="78.262" y1="176.691" x2="78.262" y2="249.871"/>
	<polyline fill="none" stroke="#939598" points="34.012,176.941 34.012,185.941 13.262,185.941 13.262,240.441 34.762,240.441 
		34.762,251.191 	"/>
	<line fill="none" stroke="#939598" x1="100.762" y1="176.941" x2="100.762" y2="206.191"/>
	<polyline fill="none" stroke="#939598" points="274.762,163.441 324.762,163.441 324.762,208.941 275.012,208.941 	"/>
	
		<line fill="none" stroke="#939598" stroke-dasharray="1.5,1.5,1.5,1.5,1.5,1.5" x1="80.656" y1="176.691" x2="80.656" y2="251.441"/>
	
		<line fill="none" stroke="#939598" stroke-dasharray="1.5,1.5,1.5,1.5,1.5,1.5" x1="98.617" y1="176.941" x2="98.617" y2="206.691"/>
	
		<line fill="none" stroke="#939598" stroke-dasharray="1.5,1.5,1.5,1.5,1.5,1.5" x1="247.32" y1="259.691" x2="247.32" y2="310.191"/>
	<polyline fill="none" stroke="#939598" stroke-dasharray="1.5,1.5,1.5,1.5,1.5,1.5" points="274.512,160.918 327.244,160.918 
		327.244,211.287 274.762,211.287 	"/>
	<polyline fill="none" stroke="#939598" stroke-dasharray="1.5,1.5,1.5,1.5,1.5,1.5" points="33.512,183.312 10.711,183.312 
		10.711,242.793 34.762,242.793 	"/>
	<polyline fill="#FFFFFF" stroke="#939598" points="286.262,329.941 286.262,311.953 309.68,311.953 309.68,331.942 	"/>
	<rect x="74.598" y="251.275" fill="#FFFFFF" stroke="#939598" width="19.572" height="79.666"/>
	<g>
		<g>
			<g>
				<g>
					<rect x="310.729" y="229.439" fill="#FFFFFF" stroke="#939598" width="18.545" height="20.188"/>
					<path fill="#FFFFFF" stroke="#939598" d="M319.385,239.534"/>
					<polyline fill="#FFFFFF" stroke="#939598" points="316.262,233.409 313.439,233.409 312.782,235.848 312.782,243.314 
						313.439,245.784 316.262,245.784 					"/>
					<line fill="none" stroke="#939598" x1="316.262" y1="249.773" x2="316.262" y2="229.439"/>
					<path fill="#FFFFFF" stroke="#939598" d="M318.438,239.598"/>
				</g>
			</g>
		</g>
		<polygon fill="#FFFFFF" stroke="#939598" points="315.045,248.646 315.041,247.016 316.18,246.657 316.184,249.005 		"/>
	</g>
	<g>
		<path fill="#FFFFFF" stroke="#939598" stroke-miterlimit="10" d="M279.38,316.406c0-4.462-2.711-9.376-6.053-9.376
			c-3.343,0-6.041,4.914-6.041,9.376c0,4.463,2.698,6.785,6.041,6.785C276.669,323.191,279.38,320.869,279.38,316.406"/>
		<path fill="#FFFFFF" stroke="#939598" d="M279.38,316.406c0-4.462-2.711-9.376-6.053-9.376c-3.343,0-6.041,4.914-6.041,9.376
			c0,4.463,2.698,6.785,6.041,6.785C276.669,323.191,279.38,320.869,279.38,316.406z"/>
		<path fill="#FFFFFF" stroke="#939598" stroke-miterlimit="10" d="M269.704,321.729c0-0.25-0.205-0.454-0.455-0.454h-2.106
			c-0.25,0-0.455,0.204-0.455,0.454v0.077c0,0.25,0.205,0.455,0.455,0.455h2.106c0.25,0,0.455-0.205,0.455-0.455V321.729z"/>
		<path fill="#FFFFFF" stroke="#939598" d="M269.704,321.729c0-0.25-0.205-0.454-0.455-0.454h-2.106
			c-0.25,0-0.455,0.204-0.455,0.454v0.077c0,0.25,0.205,0.455,0.455,0.455h2.106c0.25,0,0.455-0.205,0.455-0.455V321.729z"/>
		<path fill="#FFFFFF" stroke="#939598" stroke-miterlimit="10" d="M266.366,322.272c-0.759,0-1.375,2.057-1.375,2.815
			c0,0.77,0.616,2.825,1.375,2.825h13.813c0.76,0,1.375-2.057,1.375-2.825c0-0.76-0.615-2.813-1.375-2.813L266.366,322.272z"/>
		<path fill="#FFFFFF" stroke="#939598" d="M266.366,322.272c-0.759,0-1.375,2.057-1.375,2.815c0,0.77,0.616,2.825,1.375,2.825
			h13.813c0.76,0,1.375-2.057,1.375-2.825c0-0.76-0.615-2.813-1.375-2.813L266.366,322.272z"/>
		<path fill="#FFFFFF" stroke="#939598" stroke-miterlimit="10" d="M277.775,316.22c0-3.278-1.991-6.893-4.448-6.893
			s-4.447,3.613-4.447,6.893c0,3.28,1.99,4.985,4.447,4.985S277.775,319.499,277.775,316.22"/>
		<path fill="#FFFFFF" stroke="#939598" d="M277.775,316.22c0-3.278-1.991-6.893-4.448-6.893s-4.447,3.613-4.447,6.893
			c0,3.28,1.99,4.985,4.447,4.985S277.775,319.499,277.775,316.22z"/>
	</g>
	<g>
		<g>
			<g>
				<rect x="308.837" y="261.104" fill="#FFFFFF" stroke="#939598" width="24.496" height="46.75"/>
				<path fill="#FFFFFF" stroke="#939598" d="M321.104,285.104"/>
			</g>
			<g>
				<polyline fill="#FFFFFF" stroke="#939598" points="321.343,306.428 331.134,306.428 331.134,262.859 311.038,262.859 
					311.038,306.428 320.439,306.428 				"/>
				<path fill="#FFFFFF" stroke="#939598" d="M321.104,285.104"/>
			</g>
			<line fill="none" stroke="#939598" x1="311.038" y1="306.428" x2="320.428" y2="286.027"/>
			<line fill="none" stroke="#939598" x1="321.816" y1="284.207" x2="331.134" y2="262.859"/>
			<line fill="none" stroke="#939598" x1="311.038" y1="262.859" x2="320.336" y2="284.102"/>
			<line fill="none" stroke="#939598" x1="321.841" y1="286.061" x2="331.134" y2="306.428"/>
			<g>
				<path fill="#FFFFFF" stroke="#939598" d="M322.152,285.104c0-0.6-0.588-1.084-1.049-1.084c-0.459,0-0.975,0.484-0.975,1.084
					c0,0.599,0.516,1.084,0.975,1.084C321.564,286.188,322.152,285.701,322.152,285.104z"/>
				<path fill="#FFFFFF" stroke="#939598" d="M321.104,285.104"/>
			</g>
		</g>
		<path fill="#FFFFFF" stroke="#939598" d="M322.12,304.83c0-0.617-2.231-0.617-2.231,0s0.5,1.115,1.115,1.115
			C321.622,305.945,322.12,305.447,322.12,304.83z"/>
		<polyline fill="#FFFFFF" stroke="#939598" points="320.773,308.148 320.773,306.014 321.396,306.014 321.396,308.15 		"/>
	</g>
	<g>
		<path fill="#FFFFFF" stroke="#939598" stroke-miterlimit="10" d="M17.643,272.923c4.462,0,9.376-2.711,9.376-6.053
			c0-3.343-4.914-6.041-9.376-6.041c-4.463,0-6.785,2.698-6.785,6.041C10.858,270.212,13.18,272.923,17.643,272.923"/>
		<path fill="#FFFFFF" stroke="#939598" d="M17.643,272.923c4.462,0,9.376-2.711,9.376-6.053c0-3.343-4.914-6.041-9.376-6.041
			c-4.463,0-6.785,2.698-6.785,6.041C10.858,270.212,13.18,272.923,17.643,272.923z"/>
		<path fill="#FFFFFF" stroke="#939598" stroke-miterlimit="10" d="M12.321,263.247c0.25,0,0.455-0.205,0.455-0.455v-2.106
			c0-0.25-0.205-0.455-0.455-0.455h-0.077c-0.25,0-0.455,0.205-0.455,0.455v2.106c0,0.25,0.205,0.455,0.455,0.455H12.321z"/>
		<path fill="#FFFFFF" stroke="#939598" d="M12.321,263.247c0.25,0,0.455-0.205,0.455-0.455v-2.106c0-0.25-0.205-0.455-0.455-0.455
			h-0.077c-0.25,0-0.455,0.205-0.455,0.455v2.106c0,0.25,0.205,0.455,0.455,0.455H12.321z"/>
		<path fill="#FFFFFF" stroke="#939598" stroke-miterlimit="10" d="M11.777,259.909c0-0.759-2.057-1.375-2.816-1.375
			c-0.769,0-2.825,0.616-2.825,1.375v13.813c0,0.76,2.057,1.375,2.825,1.375c0.76,0,2.814-0.615,2.814-1.375L11.777,259.909z"/>
		<path fill="#FFFFFF" stroke="#939598" d="M11.777,259.909c0-0.759-2.057-1.375-2.816-1.375c-0.769,0-2.825,0.616-2.825,1.375
			v13.813c0,0.76,2.057,1.375,2.825,1.375c0.76,0,2.814-0.615,2.814-1.375L11.777,259.909z"/>
		<path fill="#FFFFFF" stroke="#939598" stroke-miterlimit="10" d="M17.83,271.318c3.279,0,6.893-1.991,6.893-4.448
			s-3.613-4.447-6.893-4.447c-3.28,0-4.985,1.99-4.985,4.447S14.55,271.318,17.83,271.318"/>
		<path fill="#FFFFFF" stroke="#939598" d="M17.83,271.318c3.279,0,6.893-1.991,6.893-4.448s-3.613-4.447-6.893-4.447
			c-3.28,0-4.985,1.99-4.985,4.447S14.55,271.318,17.83,271.318z"/>
	</g>
	<g>
		<g>
			<rect x="4.8" y="283.82" fill="#FFFFFF" stroke="#939598" width="23.625" height="45.692"/>
			<path fill="#FFFFFF" stroke="#939598" d="M16.612,306.666"/>
			<path fill="#FFFFFF" stroke="#939598" d="M16.612,306.51"/>
			<path fill="#FFFFFF" stroke="#939598" d="M16.612,291.016"/>
		</g>
		<circle fill="#FFFFFF" stroke="#939598" cx="16.501" cy="294.234" r="0.969"/>
		<path fill="#FFFFFF" stroke="#939598" d="M16.54,326.904c6.771,0,9.25-1.562,9.25-3.752c0,0,0-32.84,0-33.377
			c0-0.535-0.145-1.642-1.561-1.642c-1.418,0-7.689,0-7.689,0h-0.016c0,0-6.271,0-7.689,0c-1.416,0-1.561,1.104-1.561,1.642
			s0,33.354,0,33.354l0.002,0.021C7.276,325.342,9.812,326.904,16.54,326.904z"/>
		<path fill="#FFFFFF" stroke="#939598" d="M18.532,286.436c-0.002,0.549,0.441,0.988,0.996,0.988c0.537,0,0.982-0.439,0.986-0.988
			c-0.004-0.545-0.449-0.994-0.986-0.994C18.974,285.441,18.53,285.885,18.532,286.436z"/>
		<path fill="#FFFFFF" stroke="#939598" d="M12.392,286.436c-0.006,0.549,0.445,0.988,0.99,0.988c0.543,0,0.99-0.439,0.99-0.988
			c0-0.545-0.447-0.994-0.99-0.987C12.835,285.441,12.392,285.891,12.392,286.436z"/>
		<path fill="#FFFFFF" stroke="#939598" d="M17.835,286.143c0-0.812-0.549-1.469-1.361-1.471c-0.811,0.002-1.254,0.658-1.254,1.471
			l0.521,5.592c0,0.55,1.482,0.55,1.482,0L17.835,286.143z"/>
	</g>
	<g>
		<g>
			<path fill="#FFFFFF" stroke="#939598" d="M97.693,259.398c0-0.426,0.344-0.771,0.771-0.771h13.445
				c0.426,0,0.771,0.346,0.771,0.771v22.807c0,0.426-0.346,0.771-0.771,0.771H98.465c-0.428,0-0.771-0.347-0.771-0.771
				L97.693,259.398L97.693,259.398z"/>
			<path fill="#FFFFFF" stroke="#939598" d="M104.605,270.721"/>
		</g>
		<g>
			<circle fill="#FFFFFF" stroke="#939598" cx="105.517" cy="270.721" r="0.871"/>
			<path fill="#FFFFFF" stroke="#939598" d="M105.516,270.721"/>
		</g>
		<g>
			<g>
				<rect x="98.229" y="266.916" fill="#FFFFFF" stroke="#939598" width="1.82" height="7.609"/>
				<path fill="#FFFFFF" stroke="#939598" d="M99.139,270.721"/>
			</g>
			<g>
				<rect x="100.002" y="270.332" fill="#FFFFFF" stroke="#939598" width="3.586" height="0.777"/>
				<path fill="#FFFFFF" stroke="#939598" d="M101.563,270.721"/>
			</g>
			<g>
				<circle fill="#FFFFFF" stroke="#939598" cx="99.157" cy="270.721" r="0.847"/>
				<path fill="#FFFFFF" stroke="#939598" d="M99.157,270.721"/>
			</g>
		</g>
		<g>
			<path fill="#FFFFFF" stroke="#939598" d="M105.516,270.721"/>
			<path fill="none" stroke="#939598" d="M100.679,270.252v-9.59c0-0.447,0.362-0.811,0.81-0.811h9.221
				c0.445,0,0.809,0.362,0.809,0.811v20.279c0,0.447-0.363,0.811-0.809,0.811h-9.221c-0.447,0-0.81-0.363-0.81-0.811v-9.726"/>
		</g>
	</g>
	<g>
		<g>
			<rect x="137.46" y="308.434" fill="#FFFFFF" stroke="#939598" width="23.25" height="19.75"/>
			<path fill="#FFFFFF" stroke="#939598" d="M149.085,318.309"/>
		</g>
		<g>
			<g>
				<circle fill="#FFFFFF" stroke="#939598" cx="154.4" cy="312.809" r="2.824"/>
				<path fill="#FFFFFF" stroke="#939598" d="M154.4,312.809"/>
			</g>
			<g>
				<circle fill="#FFFFFF" stroke="#939598" stroke-width="0.8" cx="154.429" cy="312.81" r="1.989"/>
				<path fill="#FFFFFF" stroke="#939598" d="M154.429,312.809"/>
			</g>
		</g>
		<g>
			<g>
				<circle fill="#FFFFFF" stroke="#939598" cx="143.113" cy="321.059" r="2.824"/>
				<path fill="#FFFFFF" stroke="#939598" d="M143.113,321.059"/>
			</g>
			<g>
				<circle fill="#FFFFFF" stroke="#939598" stroke-width="0.8" cx="143.085" cy="321.06" r="1.989"/>
				<path fill="#FFFFFF" stroke="#939598" d="M143.085,321.059"/>
			</g>
		</g>
		<g>
			<g>
				<circle fill="#FFFFFF" stroke="#939598" cx="154.438" cy="321.031" r="3.219"/>
				<path fill="#FFFFFF" stroke="#939598" d="M154.438,321.031"/>
			</g>
			<g>
				<circle fill="#FFFFFF" stroke="#939598" stroke-width="0.8" cx="154.407" cy="321.031" r="2.268"/>
				<path fill="#FFFFFF" stroke="#939598" d="M154.407,321.031"/>
			</g>
		</g>
		<g>
			<g>
				<circle fill="#FFFFFF" stroke="#939598" cx="143.126" cy="312.592" r="3.219"/>
				<path fill="#FFFFFF" stroke="#939598" d="M143.126,312.592"/>
			</g>
			<g>
				<circle fill="#FFFFFF" stroke="#939598" stroke-width="0.8" cx="143.094" cy="312.592" r="2.268"/>
				<path fill="#FFFFFF" stroke="#939598" d="M143.094,312.592"/>
			</g>
		</g>
		<line fill="none" stroke="#939598" x1="160.741" y1="325.451" x2="137.46" y2="325.451"/>
		<line fill="none" stroke="#939598" x1="160.71" y1="326.543" x2="137.46" y2="326.543"/>
	</g>
	<g>
		<g>
			<rect x="96.788" y="208.826" fill="#FFFFFF" stroke="#939598" width="21.969" height="24.9"/>
			<path fill="#FFFFFF" stroke="#939598" d="M107.772,219.988"/>
		</g>
		<line fill="none" stroke="#939598" x1="117.221" y1="233.787" x2="117.221" y2="208.826"/>
		<rect x="118.772" y="210.904" fill="#FFFFFF" stroke="#939598" width="1.069" height="2.018"/>
		<path fill="#FFFFFF" stroke="#939598" d="M119.248,211.913"/>
	</g>
	<g>
		<polygon fill="none" stroke="#939598" points="222.732,318.097 221.062,318.109 221.048,294.291 222.762,294.277 		"/>
		<path fill="none" stroke="#939598" d="M222.029,294.26c-13.113,0.445-23.383,11.289-22.936,24.402"/>
	</g>
	<polyline fill="none" stroke="#939598" stroke-dasharray="1.5,1.5,1.5,1.5,1.5,1.5" points="106.345,295.775 106.345,320.608 
		178.012,320.608 	"/>
	
		<line fill="none" stroke="#939598" stroke-dasharray="1.5,1.5,1.5,1.5,1.5,1.5" x1="106.345" y1="224.673" x2="106.345" y2="290.109"/>
	
		<line fill="none" stroke="#939598" stroke-dasharray="1.5,1.5,1.5,1.5,1.5,1.5" x1="106.345" y1="207.941" x2="106.345" y2="217.609"/>
	<g>
		<polyline fill="none" stroke="#939598" stroke-dasharray="1.5,1,1.5,1,1.5,1" points="115.441,301.766 98.465,301.766 
			98.465,285.117 115.06,285.117 		"/>
		<polyline fill="#FFFFFF" stroke="#939598" points="115.06,285.092 116.068,285.092 116.068,301.766 115.447,301.766 		"/>
	</g>
	<g>
		<g>
			<g>
				<path fill="none" stroke="#939598" d="M297.846,318.857"/>
			</g>
			<g>
				<path fill="none" stroke="#939598" d="M297.846,319.92"/>
			</g>
			<g>
				<circle fill="none" stroke="#939598" cx="297.846" cy="318.857" r="1.017"/>
				<path fill="none" stroke="#939598" d="M297.846,318.857"/>
			</g>
			<g>
				<g>
					<rect x="293.58" y="325.232" fill="none" stroke="#939598" width="8.553" height="2.125"/>
					<path fill="none" stroke="#939598" d="M297.846,326.295"/>
				</g>
				<g>
					<rect x="297.393" y="321.107" fill="none" stroke="#939598" width="0.906" height="4.03"/>
					<path fill="none" stroke="#939598" d="M297.846,323.467"/>
				</g>
				<g>
					<circle fill="none" stroke="#939598" cx="297.846" cy="326.274" r="0.986"/>
					<path fill="none" stroke="#939598" d="M297.846,326.274"/>
				</g>
			</g>
		</g>
		<g>
			<rect x="289.318" y="313.808" fill="none" stroke="#939598" width="17.076" height="13.875"/>
			<rect x="290.711" y="315.202" fill="none" stroke="#939598" width="14.255" height="9.979"/>
		</g>
	</g>
	<g>
		<g>
			<g>
				<path fill="none" stroke="#939598" d="M82.011,276.622"/>
			</g>
			<g>
				<path fill="none" stroke="#939598" d="M83.074,276.622"/>
			</g>
			<g>
				<circle fill="none" stroke="#939598" cx="82.011" cy="276.622" r="1.017"/>
				<path fill="none" stroke="#939598" d="M82.011,276.622"/>
			</g>
			<g>
				<g>
					<rect x="88.386" y="272.335" fill="none" stroke="#939598" width="2.125" height="8.554"/>
					<path fill="none" stroke="#939598" d="M89.449,276.622"/>
				</g>
				<g>
					<rect x="84.261" y="276.169" fill="none" stroke="#939598" width="4.031" height="0.906"/>
					<path fill="none" stroke="#939598" d="M86.621,276.622"/>
				</g>
				<g>
					<circle fill="none" stroke="#939598" cx="89.428" cy="276.622" r="0.985"/>
					<path fill="none" stroke="#939598" d="M89.428,276.622"/>
				</g>
			</g>
		</g>
		<g>
			<rect x="76.961" y="268.073" fill="none" stroke="#939598" width="13.875" height="17.075"/>
			<rect x="78.356" y="269.502" fill="none" stroke="#939598" width="9.98" height="14.255"/>
		</g>
	</g>
	<g>
		<g>
			<g>
				<path fill="none" stroke="#939598" d="M82.012,304.607"/>
			</g>
			<g>
				<path fill="none" stroke="#939598" d="M83.074,304.607"/>
			</g>
			<g>
				<circle fill="none" stroke="#939598" cx="82.011" cy="304.608" r="1.017"/>
				<path fill="none" stroke="#939598" d="M82.012,304.607"/>
			</g>
			<g>
				<g>
					<rect x="88.387" y="300.32" fill="none" stroke="#939598" width="2.125" height="8.554"/>
					<path fill="none" stroke="#939598" d="M89.449,304.607"/>
				</g>
				<g>
					<rect x="84.262" y="304.154" fill="none" stroke="#939598" width="4.031" height="0.906"/>
					<path fill="none" stroke="#939598" d="M86.621,304.607"/>
				</g>
				<g>
					<circle fill="none" stroke="#939598" cx="89.428" cy="304.608" r="0.986"/>
					<path fill="none" stroke="#939598" d="M89.428,304.607"/>
				</g>
			</g>
		</g>
		<g>
			<rect x="76.961" y="296.061" fill="none" stroke="#939598" width="13.875" height="17.075"/>
			<rect x="78.355" y="297.488" fill="none" stroke="#939598" width="9.98" height="14.255"/>
		</g>
	</g>
</g>
<g id="walls">
	<path fill="none" stroke="#939598" stroke-width="3" d="M234.512,316.941"/>
	<line fill="none" stroke="#939598" stroke-width="3" x1="177.115" y1="318.608" x2="177.287" y2="307.377"/>
	<line fill="none" stroke="#939598" stroke-width="5" x1="138.021" y1="20.693" x2="134.512" y2="20.693"/>
	<line fill="none" stroke="#939598" stroke-width="5" x1="210.775" y1="20.708" x2="206.303" y2="20.708"/>
	<line fill="none" stroke="#939598" stroke-width="3" x1="233.512" y1="297.941" x2="233.512" y2="318.608"/>
	<polyline fill="none" stroke="#939598" stroke-width="3" points="264.262,259.602 233.512,259.602 233.512,275.619 	"/>
	<line fill="none" stroke="#939598" stroke-width="3" x1="334.131" y1="259.602" x2="287.701" y2="259.602"/>
	<polyline fill="none" stroke="#939598" stroke-width="5" points="199.68,317.941 178.182,317.941 178.061,331.426 2.5,331.426 
		2.5,20.664 101.772,20.686 	"/>
	<polyline fill="none" stroke="#939598" stroke-width="5" points="222.732,317.941 233.512,317.878 233.512,331.35 335.297,331.35 
		335.297,20.736 248.012,20.717 	"/>
	<line fill="none" stroke="#939598" stroke-width="4" x1="3.262" y1="282.191" x2="28.977" y2="282.191"/>
	<line fill="none" stroke="#939598" stroke-width="3" x1="257.012" y1="259.941" x2="257.012" y2="330.691"/>
	<line fill="none" stroke="#939598" stroke-width="3" x1="257.012" y1="310.707" x2="234.262" y2="310.707"/>
	<polyline fill="none" stroke="#939598" stroke-width="3" points="309.953,330.941 309.953,309.107 334.762,309.107 	"/>
	<polyline fill="none" stroke="#939598" stroke-width="3" points="242.369,220.068 233.512,220.068 233.512,26.191 	"/>
	<line fill="none" stroke="#939598" stroke-width="3" x1="335.512" y1="220.068" x2="265.803" y2="220.068"/>
	<polyline fill="none" stroke="#939598" stroke-width="3" points="273.262,174.68 273.262,152.363 335.262,152.363 	"/>
	<line fill="none" stroke="#939598" stroke-width="3" x1="273.262" y1="219.191" x2="273.262" y2="196.96"/>
	<polyline fill="none" stroke="#939598" stroke-width="5" points="209.633,20.695 209.633,17.393 248.604,17.307 248.604,20.717 	
		"/>
	<polyline fill="none" stroke="#939598" stroke-width="3" points="247.594,20.717 247.594,25.934 210.621,25.934 210.621,20.609 	
		"/>
	<polyline fill="none" stroke="#939598" stroke-width="5" points="101.127,20.942 101.127,17.307 134.217,17.307 134.217,20.693 	
		"/>
	<polyline fill="none" stroke="#939598" stroke-width="3" points="133.229,20.65 133.229,25.676 102.18,25.676 102.18,20.942 	"/>
	<polyline fill="none" stroke="#939598" stroke-width="3" points="323.512,20.441 323.512,25.928 334.512,25.928 	"/>
	<polyline fill="none" stroke="#939598" stroke-width="3" points="26.27,20.756 26.27,25.742 3.262,25.742 	"/>
	<line fill="none" stroke="#939598" stroke-width="3" x1="235.512" y1="26.941" x2="235.512" y2="219.941"/>
	<polyline fill="none" stroke="#939598" stroke-width="3" points="113.582,199.418 113.582,206.441 89.012,206.441 89.012,175.441 	
		"/>
	<line fill="none" stroke="#939598" stroke-width="3" x1="113.582" y1="167.934" x2="113.582" y2="181.812"/>
	<line fill="none" stroke="#939598" stroke-width="3" x1="113.582" y1="26.441" x2="113.582" y2="145.335"/>
	<line fill="none" stroke="#939598" stroke-width="3" x1="64.963" y1="175.691" x2="113.262" y2="175.691"/>
	<line fill="none" stroke="#939598" stroke-width="3" x1="3.869" y1="175.691" x2="41.471" y2="175.691"/>
	<line fill="none" stroke="#939598" stroke-width="4" x1="94.17" y1="207.441" x2="94.17" y2="330.941"/>
	<line fill="none" stroke="#939598" stroke-width="3" x1="64.678" y1="251.191" x2="93.262" y2="251.191"/>
	<line fill="none" stroke="#939598" stroke-width="3" x1="3.762" y1="251.191" x2="41.465" y2="251.191"/>
	<line fill="none" stroke="#939598" stroke-width="3" x1="304.512" y1="250.617" x2="304.512" y2="259.191"/>
	<line fill="none" stroke="#939598" stroke-width="3" x1="304.512" y1="219.941" x2="304.512" y2="228.193"/>
</g>
<g id="windows">
	<g>
		<g>
			<rect x="28.29" y="18.733" fill="#FFFFFF" stroke="#939598" width="69.562" height="3.674"/>
			<line fill="none" stroke="#939598" x1="97.852" y1="20.551" x2="27.54" y2="20.551"/>
			<line fill="none" stroke="#939598" stroke-width="2" x1="75.178" y1="22.565" x2="75.178" y2="19.071"/>
		</g>
		<line fill="none" stroke="#939598" stroke-width="2" x1="51.79" y1="22.69" x2="51.79" y2="19.088"/>
	</g>
	<g>
		<g>
			<rect x="251.789" y="18.894" fill="#FFFFFF" stroke="#939598" width="69.562" height="3.674"/>
			<line fill="none" stroke="#939598" x1="321.352" y1="20.712" x2="251.039" y2="20.712"/>
			<line fill="none" stroke="#939598" stroke-width="2" x1="298.678" y1="22.726" x2="298.678" y2="19.231"/>
		</g>
		<line fill="none" stroke="#939598" stroke-width="2" x1="275.289" y1="22.851" x2="275.289" y2="19.249"/>
	</g>
</g>
<g id="Type">
	<g enable-background="new    ">
		<path fill="#939598" d="M152.862,6.02c-0.735,0-1.205-0.364-1.513-0.869l0.399-0.343c0.301,0.455,0.609,0.7,1.121,0.7
			c0.553,0,0.959-0.399,0.959-1.177V1.047h0.561v3.277C154.389,5.452,153.738,6.02,152.862,6.02z"/>
		<path fill="#939598" d="M158.176,2.328h0.532v3.621h-0.532v-0.63c-0.245,0.392-0.617,0.707-1.24,0.707
			c-0.875,0-1.387-0.589-1.387-1.45V2.328h0.539v2.115c0,0.673,0.364,1.093,1.001,1.093c0.617,0,1.086-0.455,1.086-1.135V2.328z"/>
		<path fill="#939598" d="M159.967,5.949V0.837h0.539v5.112H159.967z"/>
		<path fill="#939598" d="M161.772,1.537V0.941h0.617v0.596H161.772z M161.808,5.949V2.328h0.539v3.621H161.808z"/>
		<path fill="#939598" d="M165.196,5.564c0.497,0,0.848-0.203,1.142-0.512l0.336,0.301c-0.364,0.406-0.805,0.68-1.492,0.68
			c-0.995,0-1.807-0.764-1.807-1.891c0-1.051,0.735-1.892,1.737-1.892c1.071,0,1.688,0.854,1.688,1.919c0,0.05,0,0.105-0.007,0.168
			h-2.872C163.999,5.123,164.559,5.564,165.196,5.564z M166.254,3.939c-0.056-0.658-0.434-1.233-1.156-1.233
			c-0.63,0-1.106,0.525-1.177,1.233H166.254z"/>
		<path fill="#939598" d="M168.472,4.92c0,0.441,0.245,0.603,0.609,0.603c0.182,0,0.337-0.035,0.525-0.127v0.463
			c-0.188,0.098-0.392,0.154-0.651,0.154c-0.582,0-1.022-0.288-1.022-1.023V2.805h-0.504V2.328h0.504V1.235h0.539v1.093h1.149v0.477
			h-1.149V4.92z"/>
		<path fill="#939598" d="M176.446,2.272c0,0.645-0.392,0.974-0.777,1.142c0.581,0.175,1.05,0.511,1.05,1.19
			c0,0.848-0.707,1.345-1.778,1.345h-2.179V1.047h2.088C175.816,1.047,176.446,1.522,176.446,2.272z M175.886,2.35
			c0-0.49-0.386-0.806-1.085-0.806h-1.492v1.688h1.449C175.424,3.231,175.886,2.931,175.886,2.35z M176.159,4.569
			c0-0.539-0.448-0.848-1.303-0.848h-1.548v1.73h1.646C175.697,5.452,176.159,5.123,176.159,4.569z"/>
		<path fill="#939598" d="M177.936,3.021l-0.162-0.441c0.4-0.182,0.792-0.301,1.317-0.301c0.987,0,1.54,0.504,1.54,1.457v2.213
			h-0.518V5.403c-0.252,0.329-0.672,0.623-1.311,0.623c-0.672,0-1.352-0.378-1.352-1.135c0-0.771,0.631-1.177,1.549-1.177
			c0.462,0,0.791,0.063,1.113,0.154V3.743c0-0.651-0.399-0.987-1.078-0.987C178.607,2.756,178.271,2.867,177.936,3.021z
			 M177.998,4.871c0,0.462,0.42,0.728,0.91,0.728c0.666,0,1.212-0.406,1.212-0.98v-0.35c-0.267-0.077-0.623-0.154-1.064-0.154
			C178.377,4.114,177.998,4.408,177.998,4.871z"/>
		<path fill="#939598" d="M181.827,5.949V0.837h0.539v5.112H181.827z"/>
		<path fill="#939598" d="M185.251,6.033c-1.058,0-1.856-0.861-1.856-1.884c0-1.029,0.799-1.898,1.856-1.898
			c0.687,0,1.113,0.287,1.45,0.645l-0.357,0.378c-0.287-0.301-0.609-0.546-1.1-0.546c-0.736,0-1.296,0.623-1.296,1.407
			c0,0.792,0.574,1.415,1.331,1.415c0.462,0,0.818-0.23,1.105-0.539l0.344,0.322C186.364,5.739,185.93,6.033,185.251,6.033z"/>
		<path fill="#939598" d="M189.164,6.033c-1.086,0-1.877-0.854-1.877-1.884s0.799-1.898,1.891-1.898
			c1.086,0,1.885,0.854,1.885,1.884C191.062,5.165,190.257,6.033,189.164,6.033z M189.164,2.728c-0.784,0-1.323,0.623-1.323,1.407
			c0,0.785,0.574,1.415,1.337,1.415c0.785,0,1.332-0.623,1.332-1.4C190.51,3.357,189.928,2.728,189.164,2.728z"/>
		<path fill="#939598" d="M192.572,5.949h-0.539V2.328h0.539v0.631c0.238-0.393,0.617-0.708,1.24-0.708
			c0.875,0,1.387,0.589,1.387,1.45v2.248h-0.539V3.834c0-0.672-0.364-1.093-1.002-1.093c-0.623,0-1.086,0.455-1.086,1.135V5.949z"/>
		<path fill="#939598" d="M198.006,6.068c-0.308,0.749-0.658,1.022-1.204,1.022c-0.302,0-0.525-0.063-0.771-0.182l0.182-0.428
			c0.176,0.091,0.337,0.133,0.568,0.133c0.322,0,0.525-0.168,0.742-0.679l-1.646-3.607h0.596l1.316,3.019l1.163-3.019h0.574
			L198.006,6.068z"/>
	</g>
	<g enable-background="new    ">
		<path fill="#939598" d="M320.332,244.071v-0.455l4.098-1.345l-4.083-1.4v-0.582l4.938,1.752v0.469l-3.979,1.345l3.979,1.352v0.462
			l-4.938,1.752v-0.604l4.083-1.4L320.332,244.071z"/>
		<path fill="#939598" d="M319.66,237.086l6.485,3.25v0.497l-6.485-3.249V237.086z"/>
		<path fill="#939598" d="M325.249,234.734v1.702h-4.902v-1.702c0-1.541,1.058-2.605,2.444-2.605S325.249,233.193,325.249,234.734z
			 M320.857,234.734v1.148h3.88v-1.148c0-1.239-0.84-2.031-1.933-2.031S320.857,233.495,320.857,234.734z"/>
	</g>
	<g enable-background="new    ">
		<path fill="#939598" d="M284.543,292.284c0,0.828-0.504,1.252-1,1.468c0.748,0.225,1.351,0.657,1.351,1.53
			c0,1.089-0.909,1.729-2.286,1.729h-2.801v-6.302h2.684C283.732,290.709,284.543,291.321,284.543,292.284z M283.822,292.384
			c0-0.631-0.495-1.036-1.395-1.036h-1.918v2.17h1.863C283.229,293.518,283.822,293.131,283.822,292.384z M284.174,295.237
			c0-0.693-0.576-1.09-1.675-1.09h-1.989v2.224h2.115C283.58,296.371,284.174,295.948,284.174,295.237z"/>
		<path fill="#939598" d="M286.459,293.248l-0.207-0.567c0.513-0.234,1.017-0.388,1.691-0.388c1.27,0,1.98,0.648,1.98,1.873v2.845
			h-0.666v-0.702c-0.324,0.423-0.863,0.801-1.684,0.801c-0.863,0-1.736-0.485-1.736-1.458c0-0.99,0.81-1.513,1.988-1.513
			c0.595,0,1.018,0.081,1.432,0.198v-0.162c0-0.837-0.513-1.27-1.387-1.27C287.322,292.905,286.891,293.05,286.459,293.248z
			 M286.539,295.624c0,0.595,0.541,0.937,1.171,0.937c0.854,0,1.558-0.522,1.558-1.261v-0.449c-0.342-0.1-0.802-0.198-1.369-0.198
			C287.025,294.652,286.539,295.03,286.539,295.624z"/>
		<path fill="#939598" d="M292.291,295.688c0,0.567,0.315,0.774,0.783,0.774c0.234,0,0.433-0.045,0.676-0.162v0.594
			c-0.243,0.126-0.504,0.198-0.838,0.198c-0.746,0-1.314-0.369-1.314-1.314v-2.809h-0.647v-0.612h0.647v-1.404h0.693v1.404h1.477
			v0.612h-1.477V295.688z"/>
		<path fill="#939598" d="M295.684,297.011h-0.692v-6.572h0.692v2.729c0.307-0.505,0.793-0.91,1.594-0.91
			c1.125,0,1.783,0.757,1.783,1.864v2.89h-0.693v-2.719c0-0.864-0.469-1.404-1.287-1.404c-0.802,0-1.396,0.585-1.396,1.458V297.011z
			"/>
	</g>
	<g enable-background="new    ">
		<path fill="#939598" d="M39.084,215.532c-1.415,0-2.458-1.113-2.458-2.528c0-1.4,1.037-2.542,2.479-2.542
			c0.89,0,1.422,0.314,1.912,0.777l-0.378,0.406c-0.413-0.393-0.875-0.673-1.541-0.673c-1.086,0-1.898,0.876-1.898,2.018
			s0.819,2.031,1.898,2.031c0.672,0,1.113-0.26,1.583-0.708l0.364,0.357C40.534,215.189,39.974,215.532,39.084,215.532z"/>
		<path fill="#939598" d="M41.967,215.448v-5.112h0.539v5.112H41.967z"/>
		<path fill="#939598" d="M45.412,215.532c-1.086,0-1.877-0.854-1.877-1.884s0.798-1.898,1.891-1.898
			c1.086,0,1.884,0.854,1.884,1.884C47.31,214.664,46.504,215.532,45.412,215.532z M45.412,212.227
			c-0.785,0-1.324,0.623-1.324,1.407c0,0.785,0.574,1.415,1.337,1.415c0.785,0,1.331-0.623,1.331-1.4
			C46.756,212.856,46.175,212.227,45.412,212.227z"/>
		<path fill="#939598" d="M49.478,215.519c-0.518,0-1.092-0.203-1.499-0.532l0.273-0.386c0.392,0.294,0.827,0.463,1.254,0.463
			c0.434,0,0.75-0.225,0.75-0.575v-0.014c0-0.364-0.427-0.504-0.904-0.638c-0.567-0.16-1.198-0.356-1.198-1.022v-0.014
			c0-0.623,0.519-1.036,1.233-1.036c0.441,0,0.932,0.153,1.303,0.398l-0.245,0.406c-0.336-0.217-0.722-0.35-1.072-0.35
			c-0.427,0-0.7,0.224-0.7,0.525v0.014c0,0.343,0.448,0.477,0.932,0.623c0.56,0.168,1.163,0.386,1.163,1.037v0.014
			C50.767,215.119,50.2,215.519,49.478,215.519z"/>
		<path fill="#939598" d="M53.363,215.063c0.497,0,0.848-0.203,1.142-0.512l0.336,0.301c-0.364,0.406-0.805,0.68-1.492,0.68
			c-0.995,0-1.807-0.764-1.807-1.891c0-1.051,0.735-1.892,1.737-1.892c1.071,0,1.688,0.854,1.688,1.919c0,0.05,0,0.105-0.007,0.168
			h-2.872C52.166,214.622,52.726,215.063,53.363,215.063z M54.421,213.438c-0.056-0.658-0.434-1.233-1.156-1.233
			c-0.63,0-1.106,0.525-1.177,1.233H54.421z"/>
		<path fill="#939598" d="M56.639,214.419c0,0.441,0.245,0.603,0.609,0.603c0.182,0,0.336-0.035,0.525-0.127v0.463
			c-0.189,0.098-0.392,0.154-0.651,0.154c-0.581,0-1.022-0.288-1.022-1.023v-2.185h-0.504v-0.477H56.1v-1.093h0.539v1.093h1.149
			v0.477h-1.149V214.419z"/>
	</g>
	<g enable-background="new    ">
		<path fill="#939598" d="M205.146,314.636h-2.991v1.674h2.676v0.505h-2.676v1.716h3.026v0.504h-3.579v-4.902h3.544V314.636z"/>
		<path fill="#939598" d="M206.74,319.034h-0.539v-3.621h0.539v0.631c0.238-0.393,0.615-0.708,1.239-0.708
			c0.876,0,1.387,0.589,1.387,1.45v2.248h-0.54v-2.115c0-0.672-0.363-1.093-1.001-1.093c-0.623,0-1.085,0.455-1.085,1.135V319.034z"
			/>
		<path fill="#939598" d="M211.24,318.005c0,0.441,0.246,0.603,0.609,0.603c0.183,0,0.337-0.035,0.525-0.127v0.463
			c-0.188,0.098-0.392,0.154-0.65,0.154c-0.582,0-1.023-0.288-1.023-1.023v-2.185h-0.504v-0.477h0.504v-1.093h0.539v1.093h1.149
			v0.477h-1.149V318.005z"/>
		<path fill="#939598" d="M213.88,319.034h-0.539v-3.621h0.539v0.945c0.267-0.602,0.792-1.036,1.478-1.008v0.581h-0.042
			c-0.791,0-1.436,0.567-1.436,1.66V319.034z"/>
		<path fill="#939598" d="M217.94,319.153c-0.308,0.749-0.658,1.022-1.204,1.022c-0.302,0-0.525-0.063-0.771-0.182l0.183-0.428
			c0.175,0.091,0.337,0.133,0.567,0.133c0.322,0,0.525-0.168,0.742-0.679l-1.646-3.607h0.595l1.317,3.019l1.163-3.019h0.574
			L217.94,319.153z"/>
	</g>
	<g enable-background="new    ">
		<path fill="#939598" d="M298.751,185.532c-1.415,0-2.458-1.113-2.458-2.528c0-1.4,1.036-2.542,2.479-2.542
			c0.891,0,1.422,0.314,1.912,0.777l-0.378,0.406c-0.413-0.393-0.876-0.673-1.54-0.673c-1.086,0-1.898,0.876-1.898,2.018
			s0.819,2.031,1.898,2.031c0.672,0,1.113-0.26,1.582-0.708l0.364,0.357C300.201,185.189,299.641,185.532,298.751,185.532z"/>
		<path fill="#939598" d="M301.634,185.448v-5.112h0.539v5.112H301.634z"/>
		<path fill="#939598" d="M305.078,185.532c-1.086,0-1.877-0.854-1.877-1.884s0.799-1.898,1.891-1.898
			c1.086,0,1.885,0.854,1.885,1.884C306.977,184.664,306.171,185.532,305.078,185.532z M305.078,182.227
			c-0.784,0-1.323,0.623-1.323,1.407c0,0.785,0.574,1.415,1.337,1.415c0.785,0,1.332-0.623,1.332-1.4
			C306.424,182.856,305.842,182.227,305.078,182.227z"/>
		<path fill="#939598" d="M309.145,185.519c-0.518,0-1.092-0.203-1.498-0.532l0.273-0.386c0.392,0.294,0.826,0.463,1.254,0.463
			c0.434,0,0.749-0.225,0.749-0.575v-0.014c0-0.364-0.427-0.504-0.903-0.638c-0.568-0.16-1.198-0.356-1.198-1.022v-0.014
			c0-0.623,0.519-1.036,1.233-1.036c0.441,0,0.932,0.153,1.303,0.398l-0.246,0.406c-0.336-0.217-0.721-0.35-1.071-0.35
			c-0.427,0-0.7,0.224-0.7,0.525v0.014c0,0.343,0.448,0.477,0.932,0.623c0.561,0.168,1.162,0.386,1.162,1.037v0.014
			C310.434,185.119,309.867,185.519,309.145,185.519z"/>
		<path fill="#939598" d="M313.03,185.063c0.497,0,0.848-0.203,1.142-0.512l0.336,0.301c-0.363,0.406-0.805,0.68-1.492,0.68
			c-0.994,0-1.807-0.764-1.807-1.891c0-1.051,0.736-1.892,1.737-1.892c1.071,0,1.688,0.854,1.688,1.919c0,0.05,0,0.105-0.008,0.168
			h-2.871C311.832,184.622,312.393,185.063,313.03,185.063z M314.088,183.438c-0.057-0.658-0.434-1.233-1.156-1.233
			c-0.63,0-1.105,0.525-1.176,1.233H314.088z"/>
		<path fill="#939598" d="M316.306,184.419c0,0.441,0.245,0.603,0.609,0.603c0.183,0,0.337-0.035,0.525-0.127v0.463
			c-0.188,0.098-0.392,0.154-0.651,0.154c-0.581,0-1.022-0.288-1.022-1.023v-2.185h-0.505v-0.477h0.505v-1.093h0.539v1.093h1.149
			v0.477h-1.149V184.419z"/>
	</g>
	<g enable-background="new    ">
		<path fill="#939598" d="M241.978,295.341c0,1.415-1.113,2.458-2.528,2.458c-1.4,0-2.542-1.036-2.542-2.479
			c0-0.891,0.314-1.422,0.777-1.912l0.406,0.378c-0.393,0.413-0.673,0.876-0.673,1.54c0,1.086,0.876,1.898,2.018,1.898
			s2.031-0.819,2.031-1.898c0-0.672-0.26-1.113-0.708-1.582l0.357-0.364C241.635,293.891,241.978,294.451,241.978,295.341z"/>
		<path fill="#939598" d="M241.894,292.458h-5.112v-0.539h5.112V292.458z"/>
		<path fill="#939598" d="M241.978,289.014c0,1.086-0.854,1.877-1.884,1.877s-1.898-0.799-1.898-1.891
			c0-1.086,0.854-1.885,1.884-1.885C241.109,287.115,241.978,287.921,241.978,289.014z M238.672,289.014
			c0,0.784,0.623,1.323,1.407,1.323c0.785,0,1.415-0.574,1.415-1.337c0-0.785-0.623-1.332-1.4-1.332
			C239.302,287.668,238.672,288.25,238.672,289.014z"/>
		<path fill="#939598" d="M241.964,284.947c0,0.518-0.203,1.092-0.532,1.498l-0.386-0.273c0.294-0.392,0.463-0.826,0.463-1.254
			c0-0.434-0.225-0.749-0.575-0.749h-0.014c-0.364,0-0.504,0.427-0.638,0.903c-0.16,0.568-0.356,1.198-1.022,1.198h-0.014
			c-0.623,0-1.036-0.519-1.036-1.233c0-0.441,0.153-0.932,0.398-1.303l0.406,0.246c-0.217,0.336-0.35,0.721-0.35,1.071
			c0,0.427,0.224,0.7,0.525,0.7h0.014c0.343,0,0.477-0.448,0.623-0.932c0.168-0.561,0.386-1.162,1.037-1.162h0.014
			C241.564,283.658,241.964,284.225,241.964,284.947z"/>
		<path fill="#939598" d="M241.509,281.062c0-0.497-0.203-0.848-0.512-1.142l0.301-0.336c0.406,0.363,0.68,0.805,0.68,1.492
			c0,0.994-0.764,1.807-1.891,1.807c-1.051,0-1.892-0.736-1.892-1.737c0-1.071,0.854-1.688,1.919-1.688c0.05,0,0.105,0,0.168,0.008
			v2.871C241.067,282.26,241.509,281.699,241.509,281.062z M239.884,280.004c-0.658,0.057-1.233,0.434-1.233,1.156
			c0,0.63,0.525,1.105,1.233,1.176V280.004z"/>
		<path fill="#939598" d="M240.864,277.786c0.441,0,0.603-0.245,0.603-0.609c0-0.183-0.035-0.337-0.127-0.525h0.463
			c0.098,0.188,0.154,0.392,0.154,0.651c0,0.581-0.288,1.022-1.023,1.022h-2.185v0.505h-0.477v-0.505h-1.093v-0.539h1.093v-1.149
			h0.477v1.149H240.864z"/>
	</g>
	<g enable-background="new    ">
		<path fill="#939598" d="M108.978,199.007c0,1.415-1.113,2.458-2.528,2.458c-1.4,0-2.542-1.036-2.542-2.479
			c0-0.891,0.314-1.422,0.777-1.912l0.406,0.378c-0.393,0.413-0.673,0.876-0.673,1.54c0,1.086,0.876,1.898,2.018,1.898
			s2.031-0.819,2.031-1.898c0-0.672-0.26-1.113-0.708-1.582l0.357-0.364C108.635,197.557,108.978,198.117,108.978,199.007z"/>
		<path fill="#939598" d="M108.894,196.124h-5.112v-0.539h5.112V196.124z"/>
		<path fill="#939598" d="M108.978,192.68c0,1.086-0.854,1.877-1.884,1.877s-1.898-0.799-1.898-1.891
			c0-1.086,0.854-1.885,1.884-1.885C108.109,190.781,108.978,191.587,108.978,192.68z M105.672,192.68
			c0,0.784,0.623,1.323,1.407,1.323c0.785,0,1.415-0.574,1.415-1.337c0-0.785-0.623-1.332-1.4-1.332
			C106.302,191.334,105.672,191.916,105.672,192.68z"/>
		<path fill="#939598" d="M108.964,188.613c0,0.518-0.203,1.092-0.532,1.498l-0.386-0.273c0.294-0.392,0.463-0.826,0.463-1.254
			c0-0.434-0.225-0.749-0.575-0.749h-0.014c-0.364,0-0.504,0.427-0.638,0.903c-0.16,0.568-0.356,1.198-1.022,1.198h-0.014
			c-0.623,0-1.036-0.519-1.036-1.233c0-0.441,0.153-0.932,0.398-1.303l0.406,0.246c-0.217,0.336-0.35,0.721-0.35,1.071
			c0,0.427,0.224,0.7,0.525,0.7h0.014c0.343,0,0.477-0.448,0.623-0.932c0.168-0.561,0.386-1.162,1.037-1.162h0.014
			C108.564,187.324,108.964,187.891,108.964,188.613z"/>
		<path fill="#939598" d="M108.509,184.728c0-0.497-0.203-0.848-0.512-1.142l0.301-0.336c0.406,0.363,0.68,0.805,0.68,1.492
			c0,0.994-0.764,1.807-1.891,1.807c-1.051,0-1.892-0.736-1.892-1.737c0-1.071,0.854-1.688,1.919-1.688c0.05,0,0.105,0,0.168,0.008
			v2.871C108.067,185.926,108.509,185.365,108.509,184.728z M106.884,183.67c-0.658,0.057-1.233,0.434-1.233,1.156
			c0,0.63,0.525,1.105,1.233,1.176V183.67z"/>
		<path fill="#939598" d="M107.864,181.452c0.441,0,0.603-0.245,0.603-0.609c0-0.183-0.035-0.337-0.127-0.525h0.463
			c0.098,0.188,0.154,0.392,0.154,0.651c0,0.581-0.288,1.022-1.023,1.022h-2.185v0.505h-0.477v-0.505h-1.093v-0.539h1.093v-1.149
			h0.477v1.149H107.864z"/>
	</g>
	<g enable-background="new    ">
		<path fill="#939598" d="M43.542,286.953c0,0.828-0.504,1.252-0.999,1.468c0.747,0.225,1.35,0.657,1.35,1.53
			c0,1.089-0.909,1.729-2.287,1.729h-2.8v-6.302h2.683C42.731,285.378,43.542,285.99,43.542,286.953z M42.821,287.053
			c0-0.631-0.495-1.036-1.395-1.036h-1.918v2.17h1.864C42.228,288.187,42.821,287.8,42.821,287.053z M43.173,289.906
			c0-0.693-0.576-1.09-1.675-1.09h-1.99v2.224h2.116C42.579,291.04,43.173,290.617,43.173,289.906z"/>
		<path fill="#939598" d="M45.458,287.917l-0.207-0.567c0.513-0.234,1.017-0.388,1.692-0.388c1.27,0,1.98,0.648,1.98,1.873v2.845
			h-0.666v-0.702c-0.324,0.423-0.864,0.801-1.684,0.801c-0.864,0-1.737-0.485-1.737-1.458c0-0.99,0.81-1.513,1.989-1.513
			c0.594,0,1.018,0.081,1.432,0.198v-0.162c0-0.837-0.513-1.27-1.387-1.27C46.322,287.574,45.89,287.719,45.458,287.917z
			 M45.539,290.293c0,0.595,0.54,0.937,1.17,0.937c0.855,0,1.557-0.522,1.557-1.261v-0.449c-0.342-0.1-0.801-0.198-1.368-0.198
			C46.024,289.321,45.539,289.699,45.539,290.293z"/>
		<path fill="#939598" d="M51.291,290.356c0,0.567,0.315,0.774,0.783,0.774c0.234,0,0.432-0.045,0.675-0.162v0.594
			c-0.243,0.126-0.504,0.198-0.837,0.198c-0.747,0-1.314-0.369-1.314-1.314v-2.809h-0.648v-0.612h0.648v-1.404h0.693v1.404h1.477
			v0.612h-1.477V290.356z"/>
		<path fill="#939598" d="M54.683,291.68H53.99v-6.572h0.693v2.729c0.306-0.505,0.792-0.91,1.594-0.91
			c1.125,0,1.782,0.757,1.782,1.864v2.89h-0.693v-2.719c0-0.864-0.468-1.404-1.288-1.404c-0.801,0-1.396,0.585-1.396,1.458V291.68z"
			/>
	</g>
	<g enable-background="new    ">
		<path fill="#939598" d="M154.155,255.861l-3.466,3.467l-0.392-0.392l3.466-3.466L154.155,255.861z"/>
		<path fill="#939598" d="M152.436,261.175c-0.366-0.366-0.629-0.916-0.683-1.437l0.465-0.079c0.07,0.485,0.257,0.911,0.56,1.214
			c0.307,0.307,0.688,0.371,0.937,0.123l0.01-0.01c0.257-0.258,0.054-0.658-0.188-1.09c-0.288-0.514-0.595-1.099-0.124-1.57
			l0.01-0.01c0.44-0.439,1.099-0.365,1.604,0.141c0.312,0.312,0.55,0.767,0.639,1.202l-0.46,0.114
			c-0.084-0.392-0.263-0.758-0.511-1.006c-0.302-0.302-0.653-0.336-0.867-0.123l-0.01,0.01c-0.242,0.242-0.02,0.654,0.218,1.1
			c0.277,0.514,0.55,1.094,0.089,1.555l-0.009,0.01C153.629,261.805,152.946,261.686,152.436,261.175z"/>
		<path fill="#939598" d="M154.138,262.777l3.615-3.614l0.381,0.382l-3.615,3.614L154.138,262.777z"/>
		<path fill="#939598" d="M157.624,262.123l0.198-0.426c0.411,0.154,0.772,0.348,1.144,0.719c0.698,0.698,0.733,1.445,0.059,2.119
			l-1.564,1.564l-0.367-0.366l0.386-0.386c-0.411,0.055-0.916-0.035-1.366-0.485c-0.476-0.476-0.689-1.224-0.154-1.759
			c0.545-0.545,1.278-0.386,1.927,0.264c0.327,0.326,0.515,0.604,0.678,0.896l0.089-0.089c0.461-0.461,0.416-0.98-0.064-1.461
			C158.287,262.411,157.971,262.252,157.624,262.123z M156.36,263.476c-0.327,0.327-0.217,0.812,0.129,1.159
			c0.47,0.47,1.144,0.568,1.55,0.162l0.248-0.247c-0.134-0.242-0.332-0.55-0.644-0.861
			C157.163,263.208,156.688,263.148,156.36,263.476z"/>
		<path fill="#939598" d="M158.652,267.292l-0.381-0.382l2.561-2.561l0.381,0.382l-0.446,0.446c0.446-0.109,0.936-0.064,1.377,0.376
			c0.619,0.619,0.564,1.396-0.045,2.006l-1.589,1.589l-0.381-0.381l1.496-1.496c0.475-0.475,0.515-1.029,0.064-1.48
			c-0.44-0.44-1.089-0.445-1.569,0.035L158.652,267.292z"/>
		<path fill="#939598" d="M163.375,272.015l0.515-0.515c-0.516,0.1-1.08,0.06-1.55-0.411c-0.614-0.614-0.738-1.708,0.109-2.556
			c0.842-0.842,1.947-0.728,2.561-0.113c0.476,0.475,0.525,1.039,0.436,1.524l1.544-1.544l0.381,0.381l-3.615,3.615L163.375,272.015
			z M164.737,268.83c-0.495-0.494-1.268-0.534-1.892,0.09c-0.609,0.609-0.58,1.411-0.094,1.896c0.476,0.476,1.322,0.529,1.921-0.07
			C165.267,270.152,165.212,269.307,164.737,268.83z"/>
	</g>
	<g enable-background="new    ">
		<path fill="#939598" d="M134.173,295.261h-0.891l-2.422-3.052l-1.341,1.359v1.692h-0.711v-6.302h0.711v3.763l3.619-3.763h0.918
			l-2.701,2.755L134.173,295.261z"/>
		<path fill="#939598" d="M135.179,289.589v-0.765h0.792v0.765H135.179z M135.224,295.261v-4.654h0.693v4.654H135.224z"/>
		<path fill="#939598" d="M138.464,293.938c0,0.567,0.315,0.774,0.783,0.774c0.234,0,0.432-0.045,0.675-0.162v0.594
			c-0.243,0.126-0.504,0.198-0.837,0.198c-0.747,0-1.314-0.369-1.314-1.314v-2.809h-0.648v-0.612h0.648v-1.404h0.693v1.404h1.477
			v0.612h-1.477V293.938z"/>
		<path fill="#939598" d="M143.128,295.369c-1.359,0-2.386-1.107-2.386-2.422c0-1.323,1.026-2.44,2.386-2.44
			c0.882,0,1.431,0.369,1.863,0.829l-0.459,0.485c-0.369-0.387-0.783-0.702-1.414-0.702c-0.945,0-1.666,0.802-1.666,1.81
			c0,1.018,0.738,1.819,1.71,1.819c0.594,0,1.053-0.298,1.422-0.693l0.441,0.414C144.559,294.99,144.001,295.369,143.128,295.369z"
			/>
		<path fill="#939598" d="M146.862,295.261h-0.693v-6.572h0.693v2.729c0.306-0.505,0.792-0.91,1.594-0.91
			c1.125,0,1.782,0.757,1.782,1.864v2.89h-0.693v-2.719c0-0.864-0.468-1.404-1.288-1.404c-0.801,0-1.396,0.585-1.396,1.458V295.261z
			"/>
		<path fill="#939598" d="M153.765,294.766c0.639,0,1.089-0.261,1.468-0.657l0.432,0.387c-0.468,0.522-1.036,0.874-1.918,0.874
			c-1.278,0-2.322-0.981-2.322-2.431c0-1.351,0.945-2.432,2.232-2.432c1.377,0,2.17,1.099,2.17,2.467c0,0.063,0,0.136-0.009,0.217
			h-3.691C152.226,294.198,152.946,294.766,153.765,294.766z M155.125,292.677c-0.072-0.846-0.558-1.584-1.485-1.584
			c-0.81,0-1.422,0.675-1.512,1.584H155.125z"/>
		<path fill="#939598" d="M157.734,295.261h-0.693v-4.654h0.693v0.811c0.306-0.505,0.792-0.91,1.594-0.91
			c1.125,0,1.782,0.757,1.782,1.864v2.89h-0.693v-2.719c0-0.864-0.468-1.404-1.288-1.404c-0.801,0-1.396,0.585-1.396,1.458V295.261z
			"/>
	</g>
	<g enable-background="new    ">
		<path fill="#939598" d="M103.509,295.949h-1.702v-4.902h1.702c1.541,0,2.605,1.058,2.605,2.444S105.049,295.949,103.509,295.949z
			 M103.509,291.558h-1.149v3.88h1.149c1.239,0,2.031-0.84,2.031-1.933S104.748,291.558,103.509,291.558z"/>
		<path fill="#939598" d="M109.999,291.032h0.455l1.345,4.098l1.401-4.083h0.581l-1.751,4.938h-0.469l-1.345-3.979l-1.352,3.979
			h-0.462l-1.751-4.938h0.603l1.401,4.083L109.999,291.032z"/>
	</g>
	<g enable-background="new    ">
		<path fill="#939598" d="M104.158,223.199l-1.422-1.905h-1.401v1.905h-0.553v-4.902h2.108c1.078,0,1.771,0.581,1.771,1.464
			c0,0.819-0.56,1.295-1.331,1.436l1.506,2.003H104.158z M102.848,218.808h-1.513v1.989h1.506c0.735,0,1.261-0.378,1.261-1.016
			C104.102,219.172,103.64,218.808,102.848,218.808z"/>
		<path fill="#939598" d="M107.279,222.814c0.497,0,0.848-0.203,1.142-0.512l0.336,0.301c-0.364,0.406-0.805,0.68-1.492,0.68
			c-0.995,0-1.807-0.764-1.807-1.891c0-1.051,0.735-1.892,1.737-1.892c1.071,0,1.688,0.854,1.688,1.919c0,0.05,0,0.105-0.007,0.168
			h-2.872C106.081,222.373,106.642,222.814,107.279,222.814z M108.336,221.189c-0.056-0.658-0.434-1.233-1.156-1.233
			c-0.63,0-1.106,0.525-1.177,1.233H108.336z"/>
		<path fill="#939598" d="M111.71,219.592v0.463h-1.142v3.145h-0.539v-3.145h-0.498v-0.47h0.498v-0.314
			c0-0.792,0.399-1.212,1.092-1.212c0.252,0,0.42,0.028,0.595,0.091v0.47c-0.196-0.057-0.343-0.092-0.525-0.092
			c-0.42,0-0.63,0.253-0.63,0.771v0.294H111.71z"/>
	</g>
	<g enable-background="new    ">
		<path fill="#939598" d="M47.701,94.639c0,0.828-0.504,1.252-0.999,1.468c0.747,0.225,1.35,0.657,1.35,1.53
			c0,1.089-0.909,1.729-2.287,1.729h-2.8v-6.302h2.683C46.891,93.063,47.701,93.676,47.701,94.639z M46.981,94.738
			c0-0.631-0.495-1.036-1.395-1.036h-1.918v2.17h1.864C46.387,95.872,46.981,95.485,46.981,94.738z M47.333,97.592
			c0-0.693-0.576-1.09-1.675-1.09h-1.99v2.224h2.116C46.738,98.726,47.333,98.303,47.333,97.592z"/>
		<path fill="#939598" d="M51.399,98.87c0.639,0,1.089-0.261,1.468-0.657l0.432,0.387c-0.468,0.522-1.036,0.874-1.918,0.874
			c-1.278,0-2.322-0.981-2.322-2.431c0-1.351,0.945-2.432,2.232-2.432c1.377,0,2.17,1.099,2.17,2.467c0,0.063,0,0.136-0.009,0.217
			h-3.691C49.86,98.303,50.581,98.87,51.399,98.87z M52.759,96.781c-0.072-0.846-0.558-1.584-1.485-1.584
			c-0.81,0-1.422,0.675-1.512,1.584H52.759z"/>
		<path fill="#939598" d="M58.411,99.365v-0.937c-0.378,0.559-0.927,1.035-1.782,1.035c-1.117,0-2.224-0.882-2.224-2.421
			c0-1.531,1.107-2.432,2.224-2.432c0.864,0,1.422,0.469,1.782,0.991v-2.81h0.693v6.572H58.411z M56.754,95.233
			c-0.9,0-1.639,0.666-1.639,1.8c0,1.107,0.756,1.81,1.639,1.81c0.864,0,1.684-0.72,1.684-1.81
			C58.438,95.953,57.619,95.233,56.754,95.233z"/>
		<path fill="#939598" d="M61.344,99.365h-0.693v-4.654h0.693v1.215c0.342-0.773,1.018-1.332,1.9-1.296v0.747h-0.054
			c-1.017,0-1.846,0.729-1.846,2.134V99.365z"/>
		<path fill="#939598" d="M66.223,99.474c-1.396,0-2.413-1.099-2.413-2.422s1.026-2.44,2.431-2.44c1.396,0,2.421,1.099,2.421,2.422
			C68.662,98.357,67.627,99.474,66.223,99.474z M66.223,95.224c-1.008,0-1.702,0.802-1.702,1.81c0,1.009,0.738,1.819,1.72,1.819
			c1.008,0,1.71-0.802,1.71-1.801C67.951,96.034,67.204,95.224,66.223,95.224z"/>
		<path fill="#939598" d="M72.037,99.474c-1.396,0-2.413-1.099-2.413-2.422s1.026-2.44,2.431-2.44c1.396,0,2.421,1.099,2.421,2.422
			C74.476,98.357,73.441,99.474,72.037,99.474z M72.037,95.224c-1.008,0-1.702,0.802-1.702,1.81c0,1.009,0.738,1.819,1.72,1.819
			c1.008,0,1.71-0.802,1.71-1.801C73.765,96.034,73.018,95.224,72.037,95.224z"/>
		<path fill="#939598" d="M81.056,94.611c1.071,0,1.729,0.721,1.729,1.873v2.881h-0.693v-2.719c0-0.9-0.45-1.404-1.207-1.404
			c-0.702,0-1.287,0.521-1.287,1.44v2.683h-0.685v-2.736c0-0.874-0.459-1.387-1.197-1.387s-1.296,0.612-1.296,1.467v2.656h-0.693
			v-4.654h0.693v0.783c0.306-0.459,0.72-0.883,1.503-0.883c0.756,0,1.243,0.405,1.495,0.928
			C79.75,95.026,80.245,94.611,81.056,94.611z"/>
	</g>
	<g enable-background="new    ">
		<path fill="#939598" d="M37.234,104.019h0.522v6.347h-0.702v-5.608l-1.188,0.369l-0.171-0.576L37.234,104.019z"/>
		<path fill="#939598" d="M39.736,105.692l-0.522-0.378c0.567-0.846,1.161-1.341,2.269-1.341c1.143,0,1.954,0.756,1.954,1.791
			c0,0.928-0.486,1.495-1.594,2.458l-1.683,1.494h3.34v0.648h-4.402v-0.549l2.287-2.017c0.963-0.864,1.314-1.351,1.314-1.98
			c0-0.738-0.585-1.207-1.27-1.207C40.708,104.612,40.24,104.99,39.736,105.692z"/>
		<path fill="#939598" d="M44.911,104.063h0.846v0.045l-0.729,2.403h-0.387L44.911,104.063z"/>
		<path fill="#939598" d="M49.475,110.474c-1.629,0-2.656-1.477-2.656-3.25s1.044-3.269,2.674-3.269c1.621,0,2.647,1.477,2.647,3.25
			S51.095,110.474,49.475,110.474z M49.475,104.604c-1.179,0-1.917,1.206-1.917,2.602s0.756,2.62,1.936,2.62
			s1.909-1.216,1.909-2.602C51.401,105.837,50.654,104.604,49.475,104.604z"/>
		<path fill="#939598" d="M53.551,104.063h0.837v0.045l-0.729,2.403h-0.378L53.551,104.063z M55.315,104.063h0.829v0.045
			l-0.729,2.403h-0.378L55.315,104.063z"/>
		<path fill="#939598" d="M64.172,110.365h-0.801l-1.44-1.899l-1.449,1.899h-0.774l1.828-2.368l-1.755-2.286h0.792l1.377,1.801
			l1.377-1.801H64.1l-1.765,2.269L64.172,110.365z"/>
		<path fill="#939598" d="M69.013,104.019h0.522v6.347h-0.702v-5.608l-1.188,0.369l-0.171-0.576L69.013,104.019z"/>
		<path fill="#939598" d="M71.055,104.063h4.276v0.531l-2.863,5.771h-0.792l2.845-5.653h-3.466V104.063z"/>
		<path fill="#939598" d="M76.663,104.063h0.846v0.045l-0.729,2.403h-0.387L76.663,104.063z"/>
		<path fill="#939598" d="M80.848,110.455c-1.341,0-2.368-0.729-2.368-1.791c0-0.757,0.54-1.288,1.296-1.558
			c-0.585-0.271-1.081-0.721-1.081-1.459c0-0.98,1-1.674,2.152-1.674S83,104.667,83,105.647c0,0.738-0.495,1.188-1.08,1.459
			c0.747,0.279,1.296,0.792,1.296,1.548C83.216,109.735,82.189,110.455,80.848,110.455z M80.848,107.439
			c-0.918,0-1.647,0.495-1.647,1.206c0,0.648,0.612,1.188,1.647,1.188s1.647-0.54,1.647-1.188
			C82.496,107.935,81.766,107.439,80.848,107.439z M80.848,104.595c-0.819,0-1.44,0.459-1.44,1.098c0,0.693,0.639,1.162,1.44,1.162
			s1.44-0.469,1.44-1.162C82.289,105.062,81.667,104.595,80.848,104.595z"/>
		<path fill="#939598" d="M84.538,104.063h0.837v0.045l-0.729,2.403h-0.378L84.538,104.063z M86.302,104.063h0.829v0.045
			l-0.729,2.403h-0.378L86.302,104.063z"/>
	</g>
	<g enable-background="new    ">
		<path fill="#939598" d="M132.163,131.062h0.711v5.645h3.547v0.657h-4.258V131.062z"/>
		<path fill="#939598" d="M137.635,131.692v-0.765h0.792v0.765H137.635z M137.68,137.364v-4.654h0.693v4.654H137.68z"/>
		<path fill="#939598" d="M143.432,132.71h0.747l-2.025,4.69h-0.612l-2.017-4.69h0.766l1.566,3.862L143.432,132.71z"/>
		<path fill="#939598" d="M145.284,131.692v-0.765h0.792v0.765H145.284z M145.33,137.364v-4.654h0.693v4.654H145.33z"/>
		<path fill="#939598" d="M148.326,137.364h-0.693v-4.654h0.693v0.811c0.306-0.505,0.792-0.91,1.594-0.91
			c1.125,0,1.782,0.757,1.782,1.864v2.89h-0.693v-2.719c0-0.864-0.468-1.404-1.288-1.404c-0.801,0-1.396,0.585-1.396,1.458V137.364z
			"/>
		<path fill="#939598" d="M155.239,138.822c-0.774,0-1.495-0.216-2.116-0.647l0.315-0.54c0.531,0.387,1.125,0.594,1.792,0.594
			c1.026,0,1.693-0.567,1.693-1.656v-0.55c-0.405,0.541-0.973,0.981-1.828,0.981c-1.116,0-2.188-0.828-2.188-2.188
			c0-1.368,1.08-2.206,2.188-2.206c0.873,0,1.44,0.433,1.818,0.937v-0.837h0.693v3.844
			C157.606,138.058,156.67,138.822,155.239,138.822z M155.229,133.223c-0.882,0-1.611,0.604-1.611,1.576
			c0,0.954,0.747,1.593,1.611,1.593c0.882,0,1.711-0.63,1.711-1.584C156.94,133.844,156.112,133.223,155.229,133.223z"/>
		<path fill="#939598" d="M163.006,130.18l-4.177,8.337h-0.639l4.177-8.337H163.006z"/>
		<path fill="#939598" d="M166.03,137.364h-2.188v-6.302h2.188c1.98,0,3.349,1.359,3.349,3.142
			C169.378,135.987,168.01,137.364,166.03,137.364z M166.03,131.72h-1.477v4.987h1.477c1.593,0,2.611-1.08,2.611-2.484
			S167.623,131.72,166.03,131.72z"/>
		<path fill="#939598" d="M170.781,131.692v-0.765h0.792v0.765H170.781z M170.826,137.364v-4.654h0.693v4.654H170.826z"/>
		<path fill="#939598" d="M173.822,137.364h-0.692v-4.654h0.692v0.811c0.307-0.505,0.793-0.91,1.594-0.91
			c1.125,0,1.783,0.757,1.783,1.864v2.89h-0.693v-2.719c0-0.864-0.469-1.404-1.287-1.404c-0.802,0-1.396,0.585-1.396,1.458V137.364z
			"/>
		<path fill="#939598" d="M178.691,131.692v-0.765h0.793v0.765H178.691z M178.736,137.364v-4.654h0.693v4.654H178.736z"/>
		<path fill="#939598" d="M181.734,137.364h-0.693v-4.654h0.693v0.811c0.306-0.505,0.792-0.91,1.594-0.91
			c1.125,0,1.781,0.757,1.781,1.864v2.89h-0.692v-2.719c0-0.864-0.468-1.404-1.288-1.404c-0.801,0-1.395,0.585-1.395,1.458V137.364z
			"/>
		<path fill="#939598" d="M188.646,138.822c-0.774,0-1.494-0.216-2.115-0.647l0.314-0.54c0.531,0.387,1.125,0.594,1.791,0.594
			c1.027,0,1.693-0.567,1.693-1.656v-0.55c-0.405,0.541-0.973,0.981-1.828,0.981c-1.115,0-2.188-0.828-2.188-2.188
			c0-1.368,1.08-2.206,2.188-2.206c0.873,0,1.441,0.433,1.818,0.937v-0.837h0.693v3.844
			C191.014,138.058,190.078,138.822,188.646,138.822z M188.637,133.223c-0.882,0-1.611,0.604-1.611,1.576
			c0,0.954,0.748,1.593,1.611,1.593c0.883,0,1.711-0.63,1.711-1.584C190.348,133.844,189.52,133.223,188.637,133.223z"/>
		<path fill="#939598" d="M199.717,137.364l-1.828-2.449h-1.8v2.449h-0.712v-6.302h2.711c1.386,0,2.277,0.747,2.277,1.882
			c0,1.053-0.721,1.665-1.711,1.845l1.936,2.575H199.717z M198.033,131.72h-1.944v2.557h1.936c0.945,0,1.62-0.486,1.62-1.306
			C199.645,132.188,199.051,131.72,198.033,131.72z"/>
		<path fill="#939598" d="M203.803,137.473c-1.396,0-2.413-1.099-2.413-2.422s1.026-2.44,2.431-2.44
			c1.396,0,2.422,1.099,2.422,2.422C206.242,136.356,205.207,137.473,203.803,137.473z M203.803,133.223
			c-1.009,0-1.702,0.802-1.702,1.81c0,1.009,0.738,1.819,1.72,1.819c1.008,0,1.711-0.802,1.711-1.801
			C205.531,134.033,204.783,133.223,203.803,133.223z"/>
		<path fill="#939598" d="M209.616,137.473c-1.396,0-2.413-1.099-2.413-2.422s1.026-2.44,2.432-2.44
			c1.395,0,2.421,1.099,2.421,2.422C212.056,136.356,211.021,137.473,209.616,137.473z M209.616,133.223
			c-1.009,0-1.702,0.802-1.702,1.81c0,1.009,0.738,1.819,1.721,1.819c1.008,0,1.71-0.802,1.71-1.801
			C211.345,134.033,210.598,133.223,209.616,133.223z"/>
		<path fill="#939598" d="M218.635,132.61c1.072,0,1.729,0.721,1.729,1.873v2.881h-0.693v-2.719c0-0.9-0.449-1.404-1.206-1.404
			c-0.702,0-1.287,0.521-1.287,1.44v2.683h-0.685v-2.736c0-0.874-0.459-1.387-1.197-1.387s-1.297,0.612-1.297,1.467v2.656h-0.692
			v-4.654h0.692v0.783c0.307-0.459,0.721-0.883,1.504-0.883c0.756,0,1.242,0.405,1.494,0.928
			C217.33,133.025,217.824,132.61,218.635,132.61z"/>
	</g>
	<g enable-background="new    ">
		<path fill="#939598" d="M150.433,142.018h0.522v6.347h-0.702v-5.608l-1.188,0.369l-0.171-0.576L150.433,142.018z"/>
		<path fill="#939598" d="M152.935,143.691l-0.522-0.378c0.567-0.846,1.161-1.341,2.269-1.341c1.143,0,1.954,0.756,1.954,1.791
			c0,0.928-0.486,1.495-1.594,2.458l-1.683,1.494h3.34v0.648h-4.402v-0.549l2.287-2.017c0.963-0.864,1.314-1.351,1.314-1.98
			c0-0.738-0.585-1.207-1.27-1.207C153.907,142.611,153.439,142.989,152.935,143.691z"/>
		<path fill="#939598" d="M158.11,142.062h0.846v0.045l-0.729,2.403h-0.387L158.11,142.062z"/>
		<path fill="#939598" d="M161.251,142.018h0.522v6.347h-0.702v-5.608l-1.188,0.369l-0.171-0.576L161.251,142.018z"/>
		<path fill="#939598" d="M164.473,142.018h0.522v6.347h-0.702v-5.608l-1.188,0.369l-0.171-0.576L164.473,142.018z"/>
		<path fill="#939598" d="M166.759,142.062h0.837v0.045l-0.729,2.403h-0.378L166.759,142.062z M168.523,142.062h0.829v0.045
			l-0.729,2.403h-0.378L168.523,142.062z"/>
		<path fill="#939598" d="M177.379,148.364h-0.801l-1.44-1.899l-1.449,1.899h-0.774l1.828-2.368l-1.756-2.286h0.792l1.378,1.801
			l1.377-1.801h0.774l-1.765,2.269L177.379,148.364z"/>
		<path fill="#939598" d="M181.5,143.691l-0.521-0.378c0.566-0.846,1.16-1.341,2.268-1.341c1.144,0,1.954,0.756,1.954,1.791
			c0,0.928-0.486,1.495-1.594,2.458l-1.683,1.494h3.34v0.648h-4.402v-0.549l2.286-2.017c0.964-0.864,1.314-1.351,1.314-1.98
			c0-0.738-0.585-1.207-1.27-1.207C182.473,142.611,182.004,142.989,181.5,143.691z"/>
		<path fill="#939598" d="M189.033,148.473c-1.629,0-2.655-1.477-2.655-3.25s1.044-3.269,2.674-3.269c1.62,0,2.647,1.477,2.647,3.25
			S190.654,148.473,189.033,148.473z M189.033,142.603c-1.179,0-1.917,1.206-1.917,2.602s0.757,2.62,1.936,2.62
			s1.909-1.216,1.909-2.602C190.961,143.836,190.213,142.603,189.033,142.603z"/>
		<path fill="#939598" d="M193.11,142.062h0.847v0.045l-0.73,2.403h-0.387L193.11,142.062z"/>
		<path fill="#939598" d="M195.531,143.691l-0.522-0.378c0.567-0.846,1.161-1.341,2.269-1.341c1.144,0,1.953,0.756,1.953,1.791
			c0,0.928-0.486,1.495-1.594,2.458l-1.683,1.494h3.34v0.648h-4.402v-0.549l2.286-2.017c0.964-0.864,1.314-1.351,1.314-1.98
			c0-0.738-0.584-1.207-1.27-1.207C196.503,142.611,196.035,142.989,195.531,143.691z"/>
		<path fill="#939598" d="M200.706,142.062h0.837v0.045l-0.729,2.403h-0.379L200.706,142.062z M202.471,142.062h0.828v0.045
			l-0.729,2.403h-0.378L202.471,142.062z"/>
	</g>
	<g enable-background="new    ">
		<path fill="#939598" d="M270.035,83.973c0,0.828-0.504,1.252-0.998,1.468c0.746,0.225,1.35,0.657,1.35,1.53
			c0,1.089-0.909,1.729-2.287,1.729h-2.799v-6.302h2.683C269.226,82.397,270.035,83.01,270.035,83.973z M269.315,84.072
			c0-0.631-0.495-1.036-1.396-1.036h-1.918v2.17h1.864C268.722,85.206,269.315,84.819,269.315,84.072z M269.667,86.926
			c0-0.693-0.576-1.09-1.675-1.09h-1.99v2.224h2.116C269.072,88.06,269.667,87.637,269.667,86.926z"/>
		<path fill="#939598" d="M273.734,88.204c0.639,0,1.089-0.261,1.467-0.657l0.433,0.387c-0.468,0.522-1.036,0.874-1.918,0.874
			c-1.278,0-2.322-0.981-2.322-2.431c0-1.351,0.945-2.432,2.232-2.432c1.378,0,2.17,1.099,2.17,2.467c0,0.063,0,0.136-0.009,0.217
			h-3.691C272.195,87.637,272.915,88.204,273.734,88.204z M275.094,86.115c-0.072-0.846-0.559-1.584-1.486-1.584
			c-0.81,0-1.422,0.675-1.512,1.584H275.094z"/>
		<path fill="#939598" d="M280.745,88.699v-0.937c-0.378,0.559-0.927,1.035-1.782,1.035c-1.117,0-2.224-0.882-2.224-2.421
			c0-1.531,1.106-2.432,2.224-2.432c0.864,0,1.422,0.469,1.782,0.991v-2.81h0.693v6.572H280.745z M279.089,84.567
			c-0.9,0-1.639,0.666-1.639,1.8c0,1.107,0.757,1.81,1.639,1.81c0.864,0,1.684-0.72,1.684-1.81
			C280.772,85.287,279.953,84.567,279.089,84.567z"/>
		<path fill="#939598" d="M283.678,88.699h-0.692v-4.654h0.692v1.215c0.343-0.773,1.018-1.332,1.9-1.296v0.747h-0.055
			c-1.017,0-1.846,0.729-1.846,2.134V88.699z"/>
		<path fill="#939598" d="M288.557,88.808c-1.395,0-2.412-1.099-2.412-2.422s1.026-2.44,2.431-2.44c1.396,0,2.421,1.099,2.421,2.422
			C290.996,87.691,289.961,88.808,288.557,88.808z M288.557,84.558c-1.008,0-1.701,0.802-1.701,1.81c0,1.009,0.738,1.819,1.72,1.819
			c1.009,0,1.71-0.802,1.71-1.801C290.285,85.368,289.539,84.558,288.557,84.558z"/>
		<path fill="#939598" d="M294.371,88.808c-1.396,0-2.412-1.099-2.412-2.422s1.025-2.44,2.43-2.44c1.396,0,2.422,1.099,2.422,2.422
			C296.811,87.691,295.775,88.808,294.371,88.808z M294.371,84.558c-1.008,0-1.701,0.802-1.701,1.81
			c0,1.009,0.738,1.819,1.719,1.819c1.009,0,1.711-0.802,1.711-1.801C296.1,85.368,295.353,84.558,294.371,84.558z"/>
		<path fill="#939598" d="M303.391,83.945c1.07,0,1.729,0.721,1.729,1.873v2.881h-0.693V85.98c0-0.9-0.451-1.404-1.207-1.404
			c-0.702,0-1.287,0.521-1.287,1.44v2.683h-0.685v-2.736c0-0.874-0.459-1.387-1.197-1.387s-1.296,0.612-1.296,1.467v2.656h-0.693
			v-4.654h0.693v0.783c0.306-0.459,0.72-0.883,1.503-0.883c0.757,0,1.243,0.405,1.495,0.928
			C302.084,84.36,302.58,83.945,303.391,83.945z"/>
	</g>
	<g enable-background="new    ">
		<path fill="#939598" d="M259.199,93.353h0.521v6.347h-0.702v-5.608l-1.188,0.369l-0.171-0.576L259.199,93.353z"/>
		<path fill="#939598" d="M263.843,99.808c-1.63,0-2.655-1.477-2.655-3.25s1.044-3.269,2.674-3.269c1.62,0,2.646,1.477,2.646,3.25
			S265.463,99.808,263.843,99.808z M263.843,93.938c-1.179,0-1.917,1.206-1.917,2.602s0.756,2.62,1.936,2.62
			c1.179,0,1.908-1.216,1.908-2.602C265.77,95.171,265.022,93.938,263.843,93.938z"/>
		<path fill="#939598" d="M267.92,93.397h0.846v0.045l-0.729,2.403h-0.388L267.92,93.397z"/>
		<path fill="#939598" d="M273.887,94.559c-0.467-0.396-0.908-0.621-1.484-0.621c-1.144,0-1.855,1.152-1.846,2.782
			c0.342-0.505,0.873-0.964,1.791-0.964c1.18,0,2.179,0.757,2.179,1.944c0,1.225-0.981,2.107-2.259,2.107
			c-0.693,0-1.262-0.243-1.657-0.64c-0.504-0.504-0.792-1.152-0.792-2.448c0-1.927,0.973-3.431,2.619-3.431
			c0.757,0,1.314,0.271,1.864,0.721L273.887,94.559z M272.258,96.368c-0.945,0-1.575,0.675-1.575,1.387
			c0,0.819,0.666,1.422,1.593,1.422c0.928,0,1.521-0.639,1.521-1.449C273.797,96.944,273.167,96.368,272.258,96.368z"/>
		<path fill="#939598" d="M275.947,93.397h0.837v0.045l-0.729,2.403h-0.378L275.947,93.397z M277.711,93.397h0.829v0.045
			l-0.729,2.403h-0.378L277.711,93.397z"/>
		<path fill="#939598" d="M286.568,99.699h-0.802l-1.44-1.899l-1.449,1.899h-0.774l1.827-2.368l-1.755-2.286h0.792l1.377,1.801
			l1.378-1.801h0.774l-1.765,2.269L286.568,99.699z"/>
		<path fill="#939598" d="M291.409,93.353h0.522v6.347h-0.703v-5.608l-1.188,0.369l-0.172-0.576L291.409,93.353z"/>
		<path fill="#939598" d="M293.623,94.036v-0.639h4.023v0.522l-1.98,2.196c1.107,0.09,2.08,0.621,2.08,1.782
			c0,1.135-0.937,1.909-2.107,1.909c-1.053,0-1.836-0.46-2.35-1.126l0.514-0.459c0.486,0.595,1.071,0.937,1.846,0.937
			c0.766,0,1.377-0.486,1.377-1.233c0-0.792-0.721-1.225-1.764-1.225h-0.406l-0.144-0.423l1.989-2.242H293.623z"/>
		<path fill="#939598" d="M299.212,93.397h0.847v0.045l-0.73,2.403h-0.387L299.212,93.397z"/>
		<path fill="#939598" d="M303.217,99.808c-0.819,0-1.414-0.333-1.944-0.774l0.414-0.55c0.513,0.45,0.99,0.676,1.548,0.676
			c1.135,0,1.9-1.152,1.873-2.764c-0.342,0.549-0.909,1.008-1.783,1.008c-1.296,0-2.195-0.819-2.195-1.962
			c0-1.207,0.927-2.152,2.268-2.152c0.721,0,1.252,0.243,1.656,0.648c0.496,0.495,0.783,1.18,0.783,2.449
			C305.836,98.394,304.774,99.808,303.217,99.808z M303.37,93.92c-0.945,0-1.513,0.692-1.513,1.485c0,0.81,0.631,1.386,1.549,1.386
			c0.963,0,1.566-0.702,1.566-1.431C304.973,94.55,304.314,93.92,303.37,93.92z"/>
		<path fill="#939598" d="M307.24,93.397h0.836v0.045l-0.729,2.403h-0.379L307.24,93.397z M309.004,93.397h0.828v0.045l-0.729,2.403
			h-0.379L309.004,93.397z"/>
	</g>
</g>
</svg>
