<?xml version="1.0" encoding="utf-8"?>
<!-- Generator: Adobe Illustrator 15.0.2, SVG Export Plug-In . SVG Version: 6.00 Build 0)  -->
<!DOCTYPE svg PUBLIC "-//W3C//DTD SVG 1.1//EN" "http://www.w3.org/Graphics/SVG/1.1/DTD/svg11.dtd">
<svg version="1.1" id="Layer_1" xmlns="http://www.w3.org/2000/svg" xmlns:xlink="http://www.w3.org/1999/xlink" x="0px" y="0px"
	 width="333.94px" height="492.374px" viewBox="83.03 4.498 333.94 492.374" enable-background="new 83.03 4.498 333.94 492.374"
	 xml:space="preserve">
<g id="_x32_0_x25___PMS_2985_fill" display="none">
	<path display="inline" fill="none" d="M2.168,251.757v165.398l229.5,0.189v-29.307c0,0,27.5,2,27.5,0s0-268,0-268l24.576-25.5
		v-95.5H89.668v253L2.168,251.757z"/>
</g>
<g>
	<g id="_x32_0_x25__grey_fill">
		<rect x="86.312" y="302.564" fill="#D1D3D4" width="23.384" height="5.912"/>
		<rect x="377.445" y="212.155" fill="#D1D3D4" width="7.016" height="190.379"/>
		<rect x="187.74" y="102.629" fill="#D1D3D4" width="7.016" height="60.507"/>
		<polygon fill="#D1D3D4" points="378.615,133.029 378.615,175.706 385.338,175.706 385.338,146.183 397.614,133.614 		"/>
		<polyline fill="#D1D3D4" points="170.202,300.812 170.202,307.828 195.341,307.828 195.341,252.874 188.033,252.874 
			188.033,301.688 171.079,301.688 		"/>
	</g>
	<g id="icons">
		<polygon fill="#FFFFFF" stroke="#939598" points="353.875,310.546 353.9,378.91 279.922,379.005 279.922,401.95 376.479,401.88 
			376.402,296.377 353.875,296.377 353.875,298.182 		"/>
		<g>
			<g>
				<rect x="354.768" y="404.207" fill="#FFFFFF" stroke="#939598" width="27.623" height="53.426"/>
				<path fill="#FFFFFF" stroke="#939598" d="M368.576,430.921"/>
				<path fill="#FFFFFF" stroke="#939598" d="M368.576,431.104"/>
				<path fill="#FFFFFF" stroke="#939598" d="M368.576,449.218"/>
			</g>
			<circle fill="#FFFFFF" stroke="#939598" cx="368.705" cy="445.457" r="1.132"/>
			<path fill="#FFFFFF" stroke="#939598" d="M368.659,407.259c-7.916,0-10.815,1.824-10.815,4.388c0,0,0,38.396,0,39.021
				c0,0.625,0.172,1.918,1.826,1.918c1.658,0,8.989,0,8.989,0h0.021c0,0,7.33,0,8.988,0c1.656,0,1.826-1.293,1.826-1.918
				c0-0.628,0-38.998,0-38.998l-0.002-0.023C379.492,409.085,376.525,407.259,368.659,407.259z"/>
			<path fill="#FFFFFF" stroke="#939598" d="M366.331,454.573c0.002-0.644-0.517-1.155-1.163-1.155
				c-0.628,0-1.146,0.514-1.152,1.155c0.006,0.638,0.524,1.165,1.152,1.165C365.814,455.738,366.333,455.217,366.331,454.573z"/>
			<path fill="#FFFFFF" stroke="#939598" d="M373.514,454.573c0.006-0.644-0.521-1.155-1.158-1.155
				c-0.635,0-1.158,0.514-1.158,1.155c0,0.638,0.523,1.165,1.158,1.155C372.991,455.738,373.514,455.21,373.514,454.573z"/>
			<path fill="#FFFFFF" stroke="#939598" d="M367.146,454.915c0,0.95,0.643,1.717,1.593,1.72c0.944-0.003,1.464-0.77,1.464-1.72
				l-0.607-6.538c0-0.642-1.732-0.642-1.732,0L367.146,454.915z"/>
		</g>
		<g>
			<polygon fill="none" stroke="#A7A9AC" points="279.68,411.077 279.689,413.029 307.537,413.047 307.525,411.095 			"/>
			<path fill="none" stroke="#A7A9AC" d="M307.55,411.974c-0.521,15.335-13.126,27.342-28.457,26.816"/>
		</g>
		<polyline fill="#FFFFFF" stroke="#A7A9AC" points="318.176,493.44 318.176,469.91 354.958,469.91 354.958,491.248 		"/>
		<g>
			<path fill="#FFFFFF" stroke="#939598" stroke-miterlimit="10" d="M306.004,475.894c0-5.219-3.17-10.965-7.076-10.965
				s-7.062,5.746-7.062,10.965s3.156,7.935,7.062,7.935C302.834,483.827,306.004,481.111,306.004,475.894"/>
			<path fill="#FFFFFF" stroke="#939598" d="M306.004,475.894c0-5.219-3.17-10.965-7.076-10.965s-7.062,5.746-7.062,10.965
				s3.156,7.935,7.062,7.935C302.834,483.827,306.004,481.111,306.004,475.894z"/>
			<path fill="#FFFFFF" stroke="#939598" stroke-miterlimit="10" d="M294.693,482.116c0-0.292-0.24-0.532-0.533-0.532h-2.463
				c-0.293,0-0.532,0.24-0.532,0.532v0.089c0,0.292,0.239,0.532,0.532,0.532h2.463c0.293,0,0.533-0.24,0.533-0.532V482.116z"/>
			<path fill="#FFFFFF" stroke="#939598" d="M294.693,482.116c0-0.292-0.24-0.532-0.533-0.532h-2.463
				c-0.293,0-0.532,0.24-0.532,0.532v0.089c0,0.292,0.239,0.532,0.532,0.532h2.463c0.293,0,0.533-0.24,0.533-0.532V482.116z"/>
			<path fill="#FFFFFF" stroke="#939598" stroke-miterlimit="10" d="M290.79,482.75c-0.888,0-1.606,2.404-1.606,3.293
				c0,0.899,0.721,3.303,1.606,3.303h16.151c0.888,0,1.605-2.403,1.605-3.303c0-0.889-0.72-3.291-1.605-3.291L290.79,482.75z"/>
			<path fill="#FFFFFF" stroke="#939598" d="M290.79,482.75c-0.888,0-1.606,2.404-1.606,3.293c0,0.899,0.721,3.303,1.606,3.303
				h16.151c0.888,0,1.605-2.403,1.605-3.303c0-0.889-0.72-3.291-1.605-3.291L290.79,482.75z"/>
			<path fill="#FFFFFF" stroke="#939598" stroke-miterlimit="10" d="M304.13,475.673c0-3.834-2.328-8.059-5.2-8.059
				c-2.873,0-5.199,4.225-5.199,8.059s2.326,5.828,5.199,5.828C301.802,481.501,304.13,479.507,304.13,475.673"/>
			<path fill="#FFFFFF" stroke="#939598" d="M304.13,475.673c0-3.834-2.328-8.059-5.2-8.059c-2.873,0-5.199,4.225-5.199,8.059
				s2.326,5.828,5.199,5.828C301.802,481.501,304.13,479.507,304.13,475.673z"/>
		</g>
		<g>
			<g>
				<g>
					<path fill="none" stroke="#A7A9AC" d="M335.021,478.777"/>
				</g>
				<g>
					<path fill="none" stroke="#A7A9AC" d="M335.021,480.021"/>
				</g>
				<g>
					<circle fill="none" stroke="#A7A9AC" cx="335.021" cy="478.776" r="1.188"/>
					<path fill="none" stroke="#A7A9AC" d="M335.021,478.777"/>
				</g>
				<g>
					<g>
						<rect x="330.033" y="486.231" fill="none" stroke="#A7A9AC" width="10" height="2.482"/>
						<path fill="none" stroke="#A7A9AC" d="M335.021,487.473"/>
					</g>
					<g>
						<rect x="334.491" y="481.408" fill="none" stroke="#A7A9AC" width="1.059" height="4.713"/>
						<path fill="none" stroke="#A7A9AC" d="M335.021,484.166"/>
					</g>
					<g>
						<circle fill="none" stroke="#A7A9AC" cx="335.021" cy="487.448" r="1.153"/>
						<path fill="none" stroke="#A7A9AC" d="M335.021,487.448"/>
					</g>
				</g>
			</g>
			<g>
				<rect x="325.049" y="472.873" fill="none" stroke="#A7A9AC" width="19.967" height="16.223"/>
				<rect x="326.68" y="474.502" fill="none" stroke="#A7A9AC" width="16.668" height="11.669"/>
			</g>
		</g>
		<g>
			<g>
				<rect x="251.24" y="466.412" fill="#FFFFFF" stroke="#939598" width="23.604" height="21.681"/>
				<path fill="none" stroke="#939598" d="M263.039,476.533"/>
				<line fill="none" stroke="#939598" x1="251.201" y1="484.644" x2="274.878" y2="484.644"/>
				<line fill="none" stroke="#939598" x1="251.24" y1="485.666" x2="274.842" y2="485.666"/>
				<polygon fill="none" stroke="#939598" points="270.201,482.038 270.201,471.406 267.354,468.812 258.619,468.812 
					255.73,471.406 255.73,482.038 				"/>
				<path fill="none" stroke="#939598" d="M262.968,475.424"/>
			</g>
		</g>
		<g>
			<g>
				<rect x="223.663" y="466.412" fill="#FFFFFF" stroke="#939598" width="23.604" height="21.681"/>
				<path fill="none" stroke="#939598" d="M235.463,476.533"/>
				<line fill="none" stroke="#939598" x1="223.625" y1="484.644" x2="247.302" y2="484.644"/>
				<line fill="none" stroke="#939598" x1="223.663" y1="485.666" x2="247.268" y2="485.666"/>
				<g>
					<rect x="244.523" y="465.315" fill="none" stroke="#939598" width="1.022" height="1.021"/>
					<path fill="none" stroke="#939598" d="M245.037,465.827"/>
				</g>
			</g>
		</g>
		
			<line fill="none" stroke="#A7A9AC" stroke-dasharray="1.5,1.5,1.5,1.5,1.5,1.5" x1="267.832" y1="476.487" x2="281.568" y2="476.487"/>
		
			<line fill="none" stroke="#A7A9AC" stroke-dasharray="1.5,1.5,1.5,1.5,1.5,1.5" x1="239.479" y1="476.487" x2="257.895" y2="476.487"/>
		
			<line fill="none" stroke="#A7A9AC" stroke-dasharray="1.5,1.5,1.5,1.5,1.5,1.5" x1="216.973" y1="476.487" x2="232.171" y2="476.487"/>
		<g>
			<path fill="#939598" d="M263.146,473.438h0.531l1.571,4.79l1.638-4.772h0.682l-2.047,5.772h-0.551l-1.572-4.651l-1.58,4.651
				h-0.539l-2.049-5.772h0.705l1.638,4.772L263.146,473.438z"/>
		</g>
		<g>
			<path fill="#939598" d="M234.975,479.184h-1.99v-5.729h1.99c1.801,0,3.045,1.235,3.045,2.856
				C238.02,477.932,236.773,479.184,234.975,479.184z M234.975,474.05h-1.346v4.535h1.346c1.446,0,2.375-0.981,2.375-2.259
				C237.35,475.047,236.422,474.05,234.975,474.05z"/>
		</g>
		<g>
			<polygon fill="none" stroke="#A7A9AC" points="107.088,466.584 109.04,466.598 109.06,438.749 107.056,438.734 			"/>
			<path fill="none" stroke="#A7A9AC" d="M107.91,438.713c15.333,0.521,27.34,13.199,26.817,28.531"/>
		</g>
		<g>
			<polygon fill="none" stroke="#A7A9AC" points="225.02,402.789 226.973,402.805 226.988,374.956 224.984,374.943 			"/>
			<path fill="none" stroke="#A7A9AC" d="M225.841,374.92c15.333,0.521,27.341,13.199,26.817,28.531"/>
		</g>
		<g>
			<polygon fill="none" stroke="#A7A9AC" points="193.557,466.584 191.604,466.598 191.584,438.749 193.588,438.734 			"/>
			<path fill="none" stroke="#A7A9AC" d="M192.733,438.713c-15.333,0.521-27.34,13.199-26.817,28.531"/>
		</g>
		<g>
			<polygon fill="none" stroke="#A7A9AC" points="334.812,128.742 334.823,126.887 361.277,126.869 361.271,128.725 			"/>
			<path fill="none" stroke="#A7A9AC" d="M361.29,127.888c-0.496-14.566-12.47-25.973-27.033-25.475"/>
		</g>
		<g>
			<polygon fill="none" stroke="#A7A9AC" points="385.611,180.66 385.604,182.514 359.146,182.532 359.157,180.675 			"/>
			<path fill="none" stroke="#A7A9AC" d="M359.139,181.512c0.493,14.565,12.469,25.973,27.031,25.475"/>
		</g>
		<g>
			<polygon fill="none" stroke="#A7A9AC" points="351.58,236.053 351.57,237.796 327.762,237.739 327.77,236.066 			"/>
			<path fill="none" stroke="#A7A9AC" d="M327.75,236.821c0.445,13.108,11.225,23.375,24.33,22.927"/>
		</g>
		<g>
			<polygon fill="none" stroke="#A7A9AC" points="334.812,59.39 334.823,57.536 361.277,57.517 361.271,59.373 			"/>
			<path fill="none" stroke="#A7A9AC" d="M361.29,58.538c-0.496-14.567-12.47-26.099-27.033-25.602"/>
		</g>
		<polyline fill="none" stroke="#A7A9AC" points="335.062,20.493 400.544,20.493 400.544,68.138 		"/>
		<path fill="none" stroke="#A7A9AC" stroke-dasharray="1.5,1.5,1.5,1.5,1.5,1.5" d="M335.354,18.154c0.877,0,67.521,0,67.521,0
			v48.229"/>
		<line fill="none" stroke="#A7A9AC" x1="86.896" y1="478.241" x2="214.925" y2="478.241"/>
		
			<line fill="none" stroke="#A7A9AC" stroke-dasharray="1.5,1.5,1.5,1.5,1.5,1.5" x1="87.48" y1="480.287" x2="214.341" y2="480.287"/>
		<line fill="none" stroke="#A7A9AC" x1="362.538" y1="233.581" x2="362.538" y2="265.15"/>
		
			<line fill="none" stroke="#A7A9AC" stroke-dasharray="1.5,1.5,1.5,1.5,1.5,1.5" x1="365.302" y1="233.581" x2="365.302" y2="264.566"/>
		<polyline fill="#FFFFFF" stroke="#A7A9AC" points="334.545,66.812 334.545,90.341 376.004,90.341 376.004,69.005 		"/>
		<g>
			<path fill="#FFFFFF" stroke="#939598" stroke-miterlimit="10" d="M402.756,84.1c0,5.217-3.169,10.962-7.074,10.962
				c-3.908,0-7.063-5.745-7.063-10.962c0-5.219,3.155-7.933,7.063-7.933C399.587,76.167,402.756,78.881,402.756,84.1"/>
			<path fill="#FFFFFF" stroke="#939598" d="M402.756,84.1c0,5.217-3.169,10.962-7.074,10.962c-3.908,0-7.063-5.745-7.063-10.962
				c0-5.219,3.155-7.933,7.063-7.933C399.587,76.167,402.756,78.881,402.756,84.1z"/>
			<path fill="#FFFFFF" stroke="#939598" stroke-miterlimit="10" d="M391.443,77.877c0,0.292-0.237,0.532-0.53,0.532h-2.464
				c-0.293,0-0.532-0.24-0.532-0.532v-0.09c0-0.293,0.239-0.532,0.532-0.532h2.464c0.293,0,0.53,0.239,0.53,0.532V77.877z"/>
			<path fill="#FFFFFF" stroke="#939598" d="M391.443,77.877c0,0.292-0.237,0.532-0.53,0.532h-2.464
				c-0.293,0-0.532-0.24-0.532-0.532v-0.09c0-0.293,0.239-0.532,0.532-0.532h2.464c0.293,0,0.53,0.239,0.53,0.532V77.877z"/>
			<path fill="#FFFFFF" stroke="#939598" stroke-miterlimit="10" d="M387.542,77.242c-0.888,0-1.606-2.405-1.606-3.293
				c0-0.898,0.722-3.303,1.606-3.303h16.15c0.89,0,1.606,2.405,1.606,3.303c0,0.889-0.719,3.291-1.606,3.291L387.542,77.242z"/>
			<path fill="#FFFFFF" stroke="#939598" d="M387.542,77.242c-0.888,0-1.606-2.405-1.606-3.293c0-0.898,0.722-3.303,1.606-3.303
				h16.15c0.89,0,1.606,2.405,1.606,3.303c0,0.889-0.719,3.291-1.606,3.291L387.542,77.242z"/>
			<path fill="#FFFFFF" stroke="#939598" stroke-miterlimit="10" d="M400.883,84.317c0,3.835-2.329,8.06-5.199,8.06
				c-2.873,0-5.199-4.224-5.199-8.06c0-3.834,2.326-5.828,5.199-5.828C398.554,78.489,400.883,80.484,400.883,84.317"/>
			<path fill="#FFFFFF" stroke="#939598" d="M400.883,84.317c0,3.835-2.329,8.06-5.199,8.06c-2.873,0-5.199-4.224-5.199-8.06
				c0-3.834,2.326-5.828,5.199-5.828C398.554,78.489,400.883,80.484,400.883,84.317z"/>
		</g>
		<g>
			<g>
				<g>
					<path fill="none" stroke="#A7A9AC" d="M357.092,81.742"/>
				</g>
				<g>
					<path fill="none" stroke="#A7A9AC" d="M357.092,80.5"/>
				</g>
				<g>
					<circle fill="none" stroke="#A7A9AC" cx="357.092" cy="81.742" r="1.189"/>
					<path fill="none" stroke="#A7A9AC" d="M357.092,81.742"/>
				</g>
				<g>
					<g>
						<rect x="352.104" y="71.803" fill="none" stroke="#A7A9AC" width="10" height="2.484"/>
						<path fill="none" stroke="#A7A9AC" d="M357.092,73.046"/>
					</g>
					<g>
						<rect x="356.562" y="74.398" fill="none" stroke="#A7A9AC" width="1.059" height="4.713"/>
						<path fill="none" stroke="#A7A9AC" d="M357.092,76.353"/>
					</g>
					<g>
						<circle fill="none" stroke="#A7A9AC" cx="357.092" cy="73.069" r="1.153"/>
						<path fill="none" stroke="#A7A9AC" d="M357.092,73.069"/>
					</g>
				</g>
			</g>
			<g>
				<rect x="347.12" y="71.423" fill="none" stroke="#A7A9AC" width="19.966" height="16.223"/>
				<rect x="348.75" y="74.346" fill="none" stroke="#A7A9AC" width="16.667" height="11.669"/>
			</g>
		</g>
		<g>
			<polygon fill="none" stroke="#939598" points="326.648,137.845 324.697,137.859 324.68,110.011 326.656,109.996 			"/>
			<path fill="none" stroke="#939598" d="M325.729,109.975c-15.332,0.52-27.34,13.198-26.817,28.531"/>
		</g>
		<g>
			<g>
				<g>
					<rect x="337.042" y="135.207" fill="#FFFFFF" stroke="#A7A9AC" width="38.826" height="32.45"/>
					<path fill="#FFFFFF" stroke="#A7A9AC" d="M356.091,151.406"/>
				</g>
				<g>
					<polyline fill="#FFFFFF" stroke="#A7A9AC" points="373.604,151.09 373.604,138.12 339.369,138.12 339.369,164.742 
						373.604,164.742 373.604,152.288 					"/>
					<path fill="#FFFFFF" stroke="#A7A9AC" d="M356.091,151.406"/>
				</g>
				<line fill="none" stroke="#A7A9AC" x1="373.604" y1="164.742" x2="357.314" y2="152.302"/>
				<line fill="none" stroke="#A7A9AC" x1="354.904" y1="150.463" x2="339.369" y2="138.12"/>
				<line fill="none" stroke="#A7A9AC" x1="339.369" y1="164.742" x2="354.768" y2="152.423"/>
				<line fill="none" stroke="#A7A9AC" x1="357.355" y1="150.429" x2="373.604" y2="138.12"/>
				<g>
					<path fill="#FFFFFF" stroke="#A7A9AC" d="M356.091,150.018c-0.793,0-1.438,0.777-1.438,1.389c0,0.609,0.646,1.292,1.438,1.292
						c0.792,0,1.438-0.683,1.438-1.292C357.525,150.795,356.883,150.018,356.091,150.018z"/>
					<path fill="#FFFFFF" stroke="#A7A9AC" d="M356.091,151.406"/>
				</g>
			</g>
			<path fill="#FFFFFF" stroke="#A7A9AC" d="M371.484,150.061c-0.815,0-0.815,2.956,0,2.956c0.818,0,1.479-0.662,1.479-1.479
				S372.307,150.061,371.484,150.061z"/>
			<polyline fill="#FFFFFF" stroke="#A7A9AC" points="375.883,151.844 373.057,151.844 373.057,151.02 375.885,151.02 			"/>
		</g>
		<g>
			<polygon fill="none" stroke="#939598" points="215.859,446.604 216.693,444.945 193.127,432.924 192.294,434.582 			"/>
			<path fill="none" stroke="#939598" d="M192.655,433.824c4.629-8.371,13.05-13.285,21.896-13.68"/>
		</g>
		<g>
			<g>
				<path fill="#FFFFFF" stroke="#939598" d="M373.921,314.29c0-0.499-0.401-0.902-0.901-0.902h-15.722
					c-0.497,0-0.899,0.405-0.899,0.902v26.665c0,0.499,0.406,0.901,0.899,0.901h15.722c0.5,0,0.901-0.402,0.901-0.901V314.29
					L373.921,314.29z"/>
				<path fill="#FFFFFF" stroke="#939598" d="M365.839,327.528"/>
			</g>
			<g>
				<circle fill="#FFFFFF" stroke="#939598" cx="364.771" cy="327.528" r="1.019"/>
				<path fill="#FFFFFF" stroke="#939598" d="M364.773,327.528"/>
			</g>
			<g>
				<g>
					<rect x="371.166" y="323.08" fill="#FFFFFF" stroke="#939598" width="2.128" height="8.896"/>
					<path fill="#FFFFFF" stroke="#939598" d="M372.229,327.528"/>
				</g>
				<g>
					<rect x="367.027" y="327.074" fill="#FFFFFF" stroke="#939598" width="4.193" height="0.907"/>
					<path fill="#FFFFFF" stroke="#939598" d="M369.396,327.528"/>
				</g>
				<g>
					<circle fill="#FFFFFF" stroke="#939598" cx="372.208" cy="327.527" r="0.991"/>
					<path fill="#FFFFFF" stroke="#939598" d="M372.208,327.528"/>
				</g>
			</g>
			<g>
				<path fill="#FFFFFF" stroke="#939598" d="M364.773,327.528"/>
				<path fill="none" stroke="#939598" d="M370.432,326.978v-11.211c0-0.521-0.425-0.946-0.945-0.946h-10.782
					c-0.521,0-0.946,0.423-0.946,0.946v23.711c0,0.522,0.424,0.949,0.946,0.949h10.78c0.521,0,0.947-0.426,0.947-0.949v-11.372"/>
			</g>
		</g>
		<g>
			<polyline fill="none" stroke="#939598" stroke-dasharray="1.5,1,1.5,1,1.5,1" points="352.609,365.729 373.503,365.729 
				373.503,345.238 353.08,345.238 			"/>
			<polyline fill="#FFFFFF" stroke="#939598" points="353.08,345.206 351.838,345.206 351.838,365.729 352.604,365.729 			"/>
		</g>
		<g>
			<g>
				<rect x="349.096" y="266.061" fill="#FFFFFF" stroke="#939598" width="25.688" height="29.116"/>
				<path fill="#FFFFFF" stroke="#939598" d="M361.938,279.111"/>
			</g>
			<line fill="none" stroke="#939598" x1="350.891" y1="295.245" x2="350.891" y2="266.061"/>
			<rect x="347.824" y="268.489" fill="#FFFFFF" stroke="#939598" width="1.251" height="2.36"/>
			<path fill="#FFFFFF" stroke="#939598" d="M348.521,269.67"/>
		</g>
		<line fill="none" stroke="#939598" x1="353.875" y1="311.716" x2="376.375" y2="311.716"/>
		<g>
			<g>
				<rect x="307.542" y="376.638" fill="#FFFFFF" stroke="#939598" width="27.185" height="23.094"/>
				<path fill="#FFFFFF" stroke="#939598" d="M321.133,388.184"/>
			</g>
			<g>
				<g>
					<circle fill="#FFFFFF" stroke="#939598" cx="314.917" cy="381.752" r="3.302"/>
					<path fill="#FFFFFF" stroke="#939598" d="M314.917,381.752"/>
				</g>
				<g>
					<circle fill="#FFFFFF" stroke="#939598" stroke-width="0.8" cx="314.887" cy="381.754" r="2.326"/>
					<path fill="#FFFFFF" stroke="#939598" d="M314.887,381.752"/>
				</g>
			</g>
			<g>
				<g>
					<circle fill="#FFFFFF" stroke="#939598" cx="328.116" cy="391.398" r="3.302"/>
					<path fill="#FFFFFF" stroke="#939598" d="M328.116,391.399"/>
				</g>
				<g>
					<circle fill="#FFFFFF" stroke="#939598" stroke-width="0.8" cx="328.148" cy="391.4" r="2.326"/>
					<path fill="#FFFFFF" stroke="#939598" d="M328.148,391.399"/>
				</g>
			</g>
			<g>
				<g>
					<circle fill="#FFFFFF" stroke="#939598" cx="314.873" cy="391.367" r="3.764"/>
					<path fill="#FFFFFF" stroke="#939598" d="M314.873,391.367"/>
				</g>
				<g>
					<circle fill="#FFFFFF" stroke="#939598" stroke-width="0.8" cx="314.912" cy="391.367" r="2.651"/>
					<path fill="#FFFFFF" stroke="#939598" d="M314.912,391.367"/>
				</g>
			</g>
			<g>
				<g>
					<circle fill="#FFFFFF" stroke="#939598" cx="328.102" cy="381.499" r="3.763"/>
					<path fill="#FFFFFF" stroke="#939598" d="M328.102,381.499"/>
				</g>
				<g>
					<circle fill="#FFFFFF" stroke="#939598" stroke-width="0.8" cx="328.139" cy="381.499" r="2.651"/>
					<path fill="#FFFFFF" stroke="#939598" d="M328.139,381.499"/>
				</g>
			</g>
			<line fill="none" stroke="#939598" x1="307.506" y1="396.535" x2="334.727" y2="396.535"/>
			<line fill="none" stroke="#939598" x1="307.542" y1="397.812" x2="334.727" y2="397.812"/>
		</g>
		<polyline fill="none" stroke="#A7A9AC" stroke-dasharray="1.5,1.5,1.5,1.5,1.5,1.5" points="364.877,358.889 364.877,388.21 
			279.816,388.21 		"/>
		
			<line fill="none" stroke="#A7A9AC" stroke-dasharray="1.5,1.5,1.5,1.5,1.5,1.5" x1="364.877" y1="285.32" x2="364.877" y2="351.38"/>
		
			<line fill="none" stroke="#A7A9AC" stroke-dasharray="1.5,1.5,1.5,1.5,1.5,1.5" x1="364.877" y1="264.664" x2="364.877" y2="278.498"/>
		<rect x="271.924" y="277.428" fill="#FFFFFF" stroke="#939598" width="27.771" height="67.229"/>
	</g>
	<g id="Type">
		<g>
			<path fill="#939598" d="M312.591,440.839c0,0.968-0.591,1.464-1.17,1.715c0.874,0.267,1.579,0.771,1.579,1.79
				c0,1.272-1.062,2.021-2.671,2.021h-3.274v-7.369h3.139C311.646,438.997,312.591,439.713,312.591,440.839z M311.749,440.956
				c0-0.738-0.58-1.211-1.633-1.211h-2.241v2.538h2.18C311.055,442.283,311.749,441.831,311.749,440.956z M312.159,444.292
				c0-0.812-0.675-1.273-1.958-1.273h-2.326v2.6h2.475C311.464,445.617,312.159,445.123,312.159,444.292z"/>
			<path fill="#939598" d="M314.829,441.965l-0.241-0.662c0.602-0.272,1.189-0.453,1.979-0.453c1.484,0,2.314,0.758,2.314,2.188
				v3.328h-0.777v-0.82c-0.379,0.494-1.012,0.938-1.97,0.938c-1.011,0-2.03-0.568-2.03-1.706c0-1.157,0.947-1.77,2.326-1.77
				c0.693,0,1.188,0.095,1.674,0.231v-0.189c0-0.978-0.602-1.482-1.621-1.482C315.842,441.566,315.336,441.735,314.829,441.965z
				 M314.923,444.745c0,0.696,0.634,1.096,1.37,1.096c0.998,0,1.821-0.61,1.821-1.476v-0.525c-0.4-0.115-0.938-0.229-1.601-0.229
				C315.494,443.607,314.923,444.05,314.923,444.745z"/>
			<path fill="#939598" d="M321.648,444.82c0,0.662,0.369,0.902,0.916,0.902c0.272,0,0.506-0.053,0.791-0.188v0.694
				c-0.285,0.146-0.59,0.23-0.98,0.23c-0.872,0-1.534-0.432-1.534-1.537v-3.283h-0.759v-0.718h0.759v-1.642h0.81v1.642h1.728v0.718
				h-1.728L321.648,444.82L321.648,444.82z"/>
			<path fill="#939598" d="M325.617,446.366h-0.811v-7.687h0.811v3.192c0.359-0.591,0.926-1.063,1.863-1.063
				c1.314,0,2.084,0.886,2.084,2.18v3.38h-0.812v-3.179c0-1.014-0.548-1.644-1.504-1.644c-0.938,0-1.634,0.685-1.634,1.703
				L325.617,446.366L325.617,446.366z"/>
		</g>
		<g>
			<path fill="#939598" d="M232.932,454.409h0.646v5.134h3.229v0.598h-3.873v-5.731H232.932z"/>
			<path fill="#939598" d="M238.139,456.717l-0.188-0.516c0.466-0.213,0.926-0.354,1.538-0.354c1.154,0,1.803,0.592,1.803,1.704
				v2.587h-0.604v-0.64c-0.297,0.387-0.787,0.729-1.533,0.729c-0.785,0-1.58-0.44-1.58-1.326c0-0.9,0.736-1.375,1.81-1.375
				c0.541,0,0.929,0.071,1.306,0.181v-0.148c0-0.761-0.469-1.151-1.264-1.151C238.922,456.407,238.529,456.537,238.139,456.717z
				 M238.21,458.88c0,0.54,0.491,0.854,1.065,0.854c0.775,0,1.416-0.477,1.416-1.146v-0.409c-0.312-0.091-0.729-0.18-1.244-0.18
				C238.65,457.994,238.21,458.338,238.21,458.88z"/>
			<path fill="#939598" d="M245.637,455.907h0.62v4.231h-0.62v-0.735c-0.287,0.459-0.723,0.827-1.449,0.827
				c-1.022,0-1.621-0.688-1.621-1.695v-2.628h0.631v2.473c0,0.786,0.426,1.279,1.171,1.279c0.72,0,1.271-0.532,1.271-1.329
				L245.637,455.907L245.637,455.907z"/>
			<path fill="#939598" d="M248.302,460.14h-0.631v-4.231h0.631v0.735c0.278-0.459,0.722-0.824,1.449-0.824
				c1.022,0,1.622,0.687,1.622,1.692v2.628h-0.632v-2.473c0-0.786-0.425-1.276-1.171-1.276c-0.729,0-1.271,0.529-1.271,1.326
				L248.302,460.14L248.302,460.14z"/>
			<path fill="#939598" d="M256.111,460.14v-0.852c-0.344,0.507-0.846,0.941-1.622,0.941c-1.017,0-2.023-0.804-2.023-2.201
				c0-1.396,1.009-2.214,2.023-2.214c0.786,0,1.293,0.425,1.622,0.9v-2.556h0.63v5.977h-0.63V460.14z M254.604,456.381
				c-0.819,0-1.489,0.607-1.489,1.638c0,1.009,0.687,1.646,1.489,1.646c0.785,0,1.529-0.658,1.529-1.646
				C256.135,457.038,255.391,456.381,254.604,456.381z"/>
			<path fill="#939598" d="M258.775,460.14h-0.629v-4.231h0.629v1.104c0.312-0.703,0.928-1.213,1.729-1.179v0.679h-0.048
				c-0.925,0-1.682,0.664-1.682,1.941V460.14L258.775,460.14z"/>
			<path fill="#939598" d="M263.523,460.28c-0.359,0.874-0.77,1.192-1.406,1.192c-0.354,0-0.614-0.071-0.902-0.213l0.215-0.5
				c0.204,0.105,0.395,0.155,0.661,0.155c0.377,0,0.614-0.196,0.868-0.794l-1.925-4.216h0.696l1.539,3.525l1.357-3.525h0.672
				L263.523,460.28z"/>
		</g>
		<g>
			<path fill="#939598" d="M139.305,476.496c-1.654,0-2.874-1.302-2.874-2.955c0-1.637,1.212-2.971,2.897-2.971
				c1.039,0,1.663,0.363,2.235,0.904l-0.441,0.478c-0.482-0.459-1.022-0.785-1.802-0.785c-1.27,0-2.22,1.022-2.22,2.358
				s0.958,2.375,2.22,2.375c0.785,0,1.303-0.306,1.851-0.829l0.427,0.418C140.998,476.096,140.343,476.496,139.305,476.496z"/>
			<path fill="#939598" d="M142.675,476.398v-5.979h0.631v5.979H142.675z"/>
			<path fill="#939598" d="M146.701,476.496c-1.269,0-2.194-0.997-2.194-2.201c0-1.206,0.934-2.22,2.211-2.22
				c1.27,0,2.202,0.998,2.202,2.204C148.92,475.482,147.979,476.496,146.701,476.496z M146.701,472.632
				c-0.916,0-1.548,0.729-1.548,1.646s0.672,1.651,1.563,1.651c0.918,0,1.558-0.729,1.558-1.638
				C148.274,473.368,147.596,472.632,146.701,472.632z"/>
			<path fill="#939598" d="M151.456,476.482c-0.604,0-1.276-0.237-1.752-0.623l0.319-0.45c0.458,0.343,0.965,0.541,1.465,0.541
				c0.509,0,0.877-0.263,0.877-0.673v-0.019c0-0.425-0.5-0.589-1.057-0.744c-0.663-0.188-1.4-0.418-1.4-1.195v-0.018
				c0-0.729,0.607-1.21,1.441-1.21c0.516,0,1.089,0.179,1.523,0.463l-0.288,0.478c-0.393-0.254-0.843-0.409-1.253-0.409
				c-0.499,0-0.816,0.263-0.816,0.614v0.016c0,0.402,0.522,0.559,1.089,0.729c0.654,0.193,1.358,0.449,1.358,1.212v0.017
				C152.962,476.014,152.299,476.482,151.456,476.482z"/>
			<path fill="#939598" d="M155.999,475.95c0.581,0,0.99-0.237,1.335-0.599l0.395,0.353c-0.428,0.475-0.941,0.794-1.745,0.794
				c-1.163,0-2.112-0.893-2.112-2.21c0-1.229,0.859-2.213,2.03-2.213c1.252,0,1.974,0.998,1.974,2.244c0,0.058,0,0.122-0.008,0.195
				h-3.358C154.599,475.432,155.253,475.95,155.999,475.95z M157.236,474.05c-0.065-0.771-0.509-1.441-1.353-1.441
				c-0.736,0-1.294,0.612-1.377,1.441H157.236z"/>
			<path fill="#939598" d="M159.828,475.194c0,0.517,0.286,0.706,0.712,0.706c0.213,0,0.395-0.041,0.614-0.148v0.541
				c-0.221,0.114-0.46,0.181-0.762,0.181c-0.682,0-1.195-0.336-1.195-1.194v-2.556h-0.589v-0.56h0.589v-1.276h0.631v1.276h1.342
				v0.56h-1.342V475.194z"/>
		</g>
		<g>
			<path fill="#939598" d="M364.961,41.84c-1.652,0-2.874-1.302-2.874-2.955c0-1.638,1.21-2.972,2.896-2.972
				c1.043,0,1.664,0.367,2.236,0.908l-0.441,0.475c-0.481-0.459-1.021-0.786-1.803-0.786c-1.269,0-2.218,1.023-2.218,2.358
				c0,1.336,0.957,2.375,2.218,2.375c0.787,0,1.303-0.303,1.853-0.828l0.427,0.418C366.652,41.44,366.001,41.84,364.961,41.84z"/>
			<path fill="#939598" d="M368.331,41.743v-5.979h0.631v5.979H368.331z"/>
			<path fill="#939598" d="M372.357,41.84c-1.27,0-2.193-0.997-2.193-2.202c0-1.204,0.936-2.219,2.212-2.219
				c1.271,0,2.202,0.998,2.202,2.202C374.578,40.827,373.639,41.84,372.357,41.84z M372.357,37.977
				c-0.916,0-1.547,0.729-1.547,1.646s0.67,1.654,1.563,1.654c0.917,0,1.556-0.728,1.556-1.636
				C373.934,38.713,373.252,37.977,372.357,37.977z"/>
			<path fill="#939598" d="M377.114,41.825c-0.605,0-1.277-0.237-1.755-0.622l0.32-0.45c0.459,0.344,0.967,0.54,1.465,0.54
				c0.508,0,0.877-0.262,0.877-0.671v-0.017c0-0.426-0.502-0.589-1.058-0.745c-0.661-0.188-1.397-0.417-1.397-1.194v-0.018
				c0-0.729,0.605-1.212,1.439-1.212c0.514,0,1.09,0.18,1.523,0.466l-0.287,0.475c-0.395-0.254-0.844-0.409-1.252-0.409
				c-0.5,0-0.818,0.262-0.818,0.614v0.016c0,0.401,0.523,0.557,1.092,0.729c0.651,0.196,1.356,0.451,1.356,1.212v0.017
				C378.621,41.358,377.956,41.825,377.114,41.825z"/>
			<path fill="#939598" d="M381.658,41.292c0.578,0,0.99-0.237,1.334-0.598l0.395,0.353c-0.428,0.475-0.941,0.793-1.744,0.793
				c-1.162,0-2.112-0.892-2.112-2.21c0-1.229,0.858-2.211,2.03-2.211c1.252,0,1.975,0.998,1.975,2.243c0,0.058,0,0.123-0.01,0.196
				h-3.355C380.256,40.777,380.911,41.292,381.658,41.292z M382.895,39.393c-0.065-0.77-0.511-1.44-1.354-1.44
				c-0.734,0-1.293,0.613-1.375,1.44H382.895z"/>
			<path fill="#939598" d="M385.484,40.539c0,0.516,0.287,0.705,0.713,0.705c0.214,0,0.395-0.041,0.613-0.147v0.54
				c-0.221,0.115-0.459,0.181-0.761,0.181c-0.68,0-1.196-0.336-1.196-1.195v-2.555h-0.59V37.51h0.59v-1.277h0.631v1.277h1.344v0.558
				h-1.344V40.539L385.484,40.539z"/>
		</g>
		<g>
			<path fill="#939598" d="M360.451,258.081c0,1.655-1.303,2.876-2.956,2.876c-1.638,0-2.972-1.213-2.972-2.898
				c0-1.041,0.367-1.664,0.908-2.235l0.475,0.44c-0.461,0.482-0.786,1.023-0.786,1.803c0,1.27,1.022,2.218,2.356,2.218
				c1.336,0,2.375-0.956,2.375-2.218c0-0.786-0.304-1.303-0.828-1.853l0.418-0.425C360.051,256.387,360.451,257.04,360.451,258.081z
				"/>
			<path fill="#939598" d="M360.354,254.71h-5.979v-0.631h5.979V254.71z"/>
			<path fill="#939598" d="M360.451,250.682c0,1.271-0.999,2.194-2.203,2.194s-2.221-0.935-2.221-2.212c0-1.269,1-2.202,2.203-2.202
				C359.438,248.463,360.451,249.406,360.451,250.682z M356.586,250.682c0,0.918,0.729,1.549,1.645,1.549
				c0.92,0,1.656-0.672,1.656-1.564c0-0.916-0.729-1.555-1.639-1.555C357.322,249.111,356.586,249.79,356.586,250.682z"/>
			<path fill="#939598" d="M360.438,245.927c0,0.606-0.238,1.277-0.623,1.753l-0.451-0.318c0.344-0.459,0.541-0.967,0.541-1.466
				c0-0.509-0.264-0.877-0.672-0.877h-0.018c-0.427,0-0.59,0.5-0.747,1.057c-0.188,0.662-0.415,1.399-1.192,1.399h-0.018
				c-0.729,0-1.212-0.606-1.212-1.44c0-0.516,0.181-1.09,0.464-1.522l0.477,0.285c-0.254,0.394-0.408,0.843-0.408,1.253
				c0,0.5,0.262,0.818,0.613,0.818h0.018c0.4,0,0.559-0.524,0.729-1.09c0.196-0.655,0.451-1.358,1.213-1.358h0.018
				C359.968,244.421,360.438,245.084,360.438,245.927z"/>
			<path fill="#939598" d="M359.9,241.384c0-0.58-0.235-0.991-0.598-1.334l0.354-0.394c0.474,0.426,0.795,0.942,0.795,1.743
				c0,1.163-0.895,2.114-2.211,2.114c-1.229,0-2.213-0.859-2.213-2.031c0-1.252,0.998-1.974,2.242-1.974
				c0.062,0,0.123,0,0.196,0.008v3.357C359.389,242.787,359.9,242.13,359.9,241.384z M358.003,240.15
				c-0.771,0.065-1.44,0.508-1.44,1.351c0,0.736,0.612,1.293,1.44,1.376V240.15z"/>
			<path fill="#939598" d="M359.148,237.555c0.517,0,0.705-0.286,0.705-0.712c0-0.212-0.041-0.393-0.147-0.613h0.542
				c0.115,0.221,0.181,0.459,0.181,0.761c0,0.68-0.338,1.195-1.196,1.195h-2.554v0.59h-0.559v-0.59h-1.279v-0.631h1.279v-1.342
				h0.559v1.342H359.148L359.148,237.555z"/>
		</g>
		<g>
			<path fill="#939598" d="M369.006,103.229c0,0.969-0.591,1.462-1.17,1.716c0.874,0.264,1.579,0.769,1.579,1.788
				c0,1.274-1.062,2.022-2.671,2.022h-3.273v-7.368h3.137C368.061,101.387,369.006,102.102,369.006,103.229z M368.164,103.344
				c0-0.737-0.581-1.21-1.633-1.21h-2.241v2.536h2.177C367.469,104.671,368.164,104.217,368.164,103.344z M368.574,106.681
				c0-0.811-0.676-1.273-1.958-1.273h-2.326v2.601h2.474C367.879,108.008,368.574,107.512,368.574,106.681z"/>
			<path fill="#939598" d="M371.244,104.356l-0.242-0.663c0.602-0.274,1.189-0.453,1.979-0.453c1.484,0,2.314,0.758,2.314,2.19
				v3.326h-0.779v-0.82c-0.379,0.494-1.01,0.936-1.969,0.936c-1.01,0-2.029-0.567-2.029-1.704c0-1.157,0.947-1.769,2.324-1.769
				c0.695,0,1.19,0.095,1.674,0.231v-0.19c0-0.979-0.601-1.484-1.621-1.484C372.256,103.955,371.75,104.123,371.244,104.356z
				 M371.338,107.135c0,0.694,0.635,1.094,1.37,1.094c0.998,0,1.819-0.61,1.819-1.474v-0.525c-0.398-0.116-0.938-0.232-1.6-0.232
				C371.909,105.997,371.338,106.439,371.338,107.135z"/>
			<path fill="#939598" d="M378.062,107.208c0,0.663,0.369,0.904,0.916,0.904c0.272,0,0.506-0.052,0.791-0.189v0.695
				c-0.285,0.147-0.592,0.231-0.979,0.231c-0.873,0-1.535-0.432-1.535-1.537v-3.283h-0.759v-0.716h0.759v-1.642h0.812v1.642h1.727
				v0.716h-1.727v3.179H378.062z"/>
			<path fill="#939598" d="M382.032,108.755h-0.812v-7.684h0.812v3.19c0.356-0.59,0.927-1.062,1.862-1.062
				c1.314,0,2.084,0.885,2.084,2.18v3.379h-0.811v-3.179c0-1.011-0.548-1.642-1.505-1.642c-0.938,0-1.633,0.684-1.633,1.705
				L382.032,108.755L382.032,108.755z"/>
		</g>
		<g>
			<path fill="#939598" d="M358.812,358.111h-1.99v-5.731h1.99c1.803,0,3.045,1.236,3.045,2.858
				C361.855,356.858,360.614,358.111,358.812,358.111z M358.812,352.978h-1.342v4.537h1.342c1.451,0,2.375-0.98,2.375-2.262
				S360.264,352.978,358.812,352.978z"/>
			<path fill="#939598" d="M366.398,352.363h0.535l1.571,4.791l1.638-4.774h0.681l-2.048,5.774h-0.549l-1.574-4.653l-1.578,4.653
				h-0.541l-2.049-5.774h0.703l1.64,4.774L366.398,352.363z"/>
		</g>
		<g>
			<path fill="#939598" d="M361.582,283.381l-1.662-2.229h-1.641v2.229h-0.646v-5.732h2.466c1.262,0,2.069,0.682,2.069,1.713
				c0,0.957-0.653,1.516-1.555,1.681l1.761,2.341L361.582,283.381L361.582,283.381z M360.049,278.248h-1.77v2.324h1.762
				c0.857,0,1.475-0.441,1.475-1.188C361.516,278.672,360.977,278.248,360.049,278.248z"/>
			<path fill="#939598" d="M365.229,282.932c0.582,0,0.99-0.238,1.336-0.6l0.395,0.352c-0.426,0.478-0.939,0.797-1.745,0.797
				c-1.161,0-2.11-0.895-2.11-2.211c0-1.229,0.857-2.213,2.027-2.213c1.254,0,1.977,1,1.977,2.243c0,0.06,0,0.123-0.012,0.197
				h-3.355C363.83,282.414,364.484,282.932,365.229,282.932z M366.465,281.031c-0.062-0.77-0.507-1.44-1.35-1.44
				c-0.737,0-1.295,0.614-1.379,1.44H366.465z"/>
			<path fill="#939598" d="M370.411,279.164v0.541h-1.336v3.677h-0.632v-3.677h-0.582v-0.549h0.582v-0.367
				c0-0.928,0.467-1.418,1.277-1.418c0.297,0,0.491,0.033,0.696,0.107v0.549c-0.229-0.067-0.399-0.107-0.614-0.107
				c-0.49,0-0.736,0.296-0.736,0.9v0.345L370.411,279.164L370.411,279.164z"/>
		</g>
		<g>
			<path fill="#939598" d="M329.785,326.901v1.045l-3.569,2.828l1.591,1.569h1.979v0.832h-7.367v-0.832h4.398l-4.398-4.229v-1.073
				l3.221,3.157L329.785,326.901z"/>
			<path fill="#939598" d="M323.152,325.728h-0.896v-0.929h0.896V325.728z M329.785,325.673h-5.442v-0.811h5.442V325.673z"/>
			<path fill="#939598" d="M328.238,321.886c0.662,0,0.904-0.367,0.904-0.916c0-0.272-0.054-0.507-0.188-0.791h0.694
				c0.146,0.284,0.229,0.59,0.229,0.979c0,0.875-0.432,1.536-1.536,1.536h-3.282v0.758h-0.718v-0.758H322.7v-0.81h1.642v-1.728
				h0.717v1.728L328.238,321.886L328.238,321.886z"/>
			<path fill="#939598" d="M329.913,316.433c0,1.591-1.295,2.791-2.833,2.791c-1.547,0-2.852-1.2-2.852-2.791
				c0-1.03,0.43-1.674,0.969-2.18l0.566,0.537c-0.453,0.432-0.82,0.915-0.82,1.652c0,1.104,0.938,1.946,2.115,1.946
				c1.189,0,2.129-0.862,2.129-2c0-0.693-0.352-1.23-0.812-1.664l0.484-0.515C329.471,314.759,329.913,315.412,329.913,316.433z"/>
			<path fill="#939598" d="M329.785,312.065v0.811h-7.684v-0.811h3.188c-0.589-0.357-1.062-0.927-1.062-1.863
				c0-1.314,0.885-2.084,2.178-2.084h3.38v0.811h-3.181c-1.008,0-1.643,0.549-1.643,1.506c0,0.938,0.686,1.634,1.706,1.634h3.116
				v-0.003H329.785z"/>
			<path fill="#939598" d="M329.206,303.995c0-0.748-0.306-1.272-0.769-1.718l0.453-0.506c0.608,0.547,1.021,1.211,1.021,2.244
				c0,1.492-1.146,2.713-2.845,2.713c-1.578,0-2.842-1.104-2.842-2.607c0-1.61,1.284-2.537,2.885-2.537c0.072,0,0.158,0,0.254,0.011
				v4.315C328.543,305.794,329.206,304.953,329.206,303.995z M326.766,302.404c-0.988,0.085-1.854,0.654-1.854,1.736
				c0,0.947,0.789,1.664,1.854,1.77V302.404z"/>
			<path fill="#939598" d="M329.785,299.354v0.812h-5.442v-0.812h0.948c-0.589-0.355-1.062-0.924-1.062-1.86
				c0-1.317,0.885-2.085,2.179-2.085h3.379v0.811h-3.181c-1.008,0-1.643,0.547-1.643,1.504c0,0.938,0.686,1.633,1.706,1.633h3.115
				L329.785,299.354L329.785,299.354z"/>
		</g>
		<g>
			<path fill="#939598" d="M376.236,191.034h-3.493v1.958h3.128v0.589h-3.128v2.006h3.534v0.59h-4.186v-5.732h4.145V191.034
				L376.236,191.034z"/>
			<path fill="#939598" d="M378.104,196.176h-0.631v-4.233h0.631v0.736c0.275-0.458,0.719-0.828,1.447-0.828
				c1.023,0,1.621,0.688,1.621,1.695v2.628h-0.631v-2.472c0-0.786-0.425-1.277-1.169-1.277c-0.729,0-1.271,0.532-1.271,1.326v2.425
				H378.104z"/>
			<path fill="#939598" d="M383.361,194.973c0,0.516,0.289,0.705,0.715,0.705c0.215,0,0.395-0.041,0.613-0.147v0.54
				c-0.223,0.115-0.459,0.181-0.762,0.181c-0.68,0-1.195-0.336-1.195-1.195v-2.555h-0.59v-0.558h0.59v-1.277h0.631v1.277h1.343
				v0.558h-1.343L383.361,194.973L383.361,194.973z"/>
			<path fill="#939598" d="M386.45,196.176h-0.632v-4.233h0.632v1.106c0.312-0.706,0.926-1.213,1.729-1.181v0.681h-0.051
				c-0.925,0-1.68,0.663-1.68,1.941L386.45,196.176L386.45,196.176z"/>
			<path fill="#939598" d="M391.198,196.316c-0.36,0.876-0.771,1.194-1.408,1.194c-0.354,0-0.613-0.073-0.899-0.213l0.213-0.499
				c0.205,0.105,0.394,0.155,0.662,0.155c0.377,0,0.613-0.196,0.866-0.795l-1.923-4.217h0.696l1.538,3.53l1.359-3.53h0.67
				L391.198,196.316z"/>
		</g>
		<g>
			<path fill="#939598" d="M131.956,370.319c0,0.968-0.589,1.464-1.168,1.717c0.874,0.263,1.579,0.768,1.579,1.788
				c0,1.272-1.062,2.021-2.675,2.021h-3.273v-7.366h3.138C131.008,368.479,131.956,369.193,131.956,370.319z M131.113,370.435
				c0-0.735-0.579-1.213-1.633-1.213h-2.241v2.537h2.18C130.419,371.759,131.113,371.307,131.113,370.435z M131.523,373.772
				c0-0.812-0.673-1.274-1.957-1.274h-2.327v2.601h2.475C130.829,375.098,131.523,374.604,131.523,373.772z"/>
			<path fill="#939598" d="M136.279,375.265c0.748,0,1.274-0.304,1.716-0.768l0.505,0.452c-0.547,0.607-1.21,1.021-2.241,1.021
				c-1.493,0-2.716-1.146-2.716-2.844c0-1.579,1.104-2.843,2.61-2.843c1.61,0,2.536,1.283,2.536,2.885c0,0.072,0,0.159-0.01,0.253
				h-4.315C134.479,374.604,135.321,375.265,136.279,375.265z M137.869,372.824c-0.085-0.988-0.652-1.854-1.736-1.854
				c-0.947,0-1.662,0.788-1.769,1.854H137.869z"/>
			<path fill="#939598" d="M144.479,375.845v-1.097c-0.442,0.653-1.084,1.211-2.084,1.211c-1.307,0-2.601-1.033-2.601-2.832
				c0-1.788,1.294-2.843,2.601-2.843c1.011,0,1.663,0.548,2.084,1.159v-3.285h0.811v7.684h-0.811V375.845z M142.541,371.013
				c-1.053,0-1.916,0.778-1.916,2.105c0,1.295,0.884,2.117,1.916,2.117c1.012,0,1.969-0.846,1.969-2.117
				C144.509,371.855,143.553,371.013,142.541,371.013z"/>
			<path fill="#939598" d="M147.907,375.845h-0.812v-5.44h0.812v1.421c0.399-0.904,1.188-1.56,2.22-1.517v0.873h-0.063
				c-1.19,0-2.158,0.854-2.158,2.496v2.167H147.907L147.907,375.845z"/>
			<path fill="#939598" d="M153.611,375.973c-1.631,0-2.821-1.285-2.821-2.832c0-1.548,1.199-2.854,2.843-2.854
				c1.633,0,2.831,1.285,2.831,2.832C156.463,374.666,155.253,375.973,153.611,375.973z M153.611,371.003
				c-1.179,0-1.989,0.938-1.989,2.115c0,1.181,0.863,2.128,2.011,2.128c1.179,0,1.999-0.938,1.999-2.105
				C155.632,371.949,154.759,371.003,153.611,371.003z"/>
			<path fill="#939598" d="M160.409,375.973c-1.631,0-2.821-1.285-2.821-2.832c0-1.548,1.199-2.854,2.844-2.854
				c1.632,0,2.831,1.285,2.831,2.832C163.262,374.666,162.051,375.973,160.409,375.973z M160.409,371.003
				c-1.179,0-1.989,0.938-1.989,2.115c0,1.181,0.863,2.128,2.012,2.128c1.178,0,1.999-0.938,1.999-2.105
				C162.431,371.949,161.557,371.003,160.409,371.003z"/>
			<path fill="#939598" d="M170.954,370.287c1.252,0,2.021,0.843,2.021,2.189v3.367h-0.811v-3.179c0-1.053-0.525-1.643-1.411-1.643
				c-0.82,0-1.507,0.607-1.507,1.684v3.138h-0.8v-3.197c0-1.021-0.536-1.622-1.398-1.622c-0.863,0-1.517,0.716-1.517,1.715v3.104
				h-0.81v-5.44h0.81v0.916c0.358-0.537,0.843-1.032,1.758-1.032c0.885,0,1.452,0.473,1.748,1.085
				C169.428,370.771,170.006,370.287,170.954,370.287z"/>
			<path fill="#939598" d="M118.591,381.287h0.61v7.42h-0.82v-6.557l-1.389,0.432l-0.201-0.674L118.591,381.287z"/>
			<path fill="#939598" d="M122.358,381.287h0.609v7.42h-0.82v-6.557l-1.39,0.432l-0.199-0.674L122.358,381.287z"/>
			<path fill="#939598" d="M125.031,381.339h0.989v0.053l-0.854,2.811h-0.452L125.031,381.339z"/>
			<path fill="#939598" d="M128.703,381.287h0.61v7.42h-0.82v-6.557l-1.389,0.432l-0.2-0.674L128.703,381.287z"/>
			<path fill="#939598" d="M134.133,388.834c-1.904,0-3.104-1.729-3.104-3.8c0-2.074,1.221-3.823,3.126-3.823
				c1.896,0,3.095,1.729,3.095,3.8C137.25,387.084,136.027,388.834,134.133,388.834z M134.133,381.969
				c-1.379,0-2.241,1.412-2.241,3.042c0,1.633,0.885,3.064,2.264,3.064c1.38,0,2.232-1.422,2.232-3.041
				C136.388,383.411,135.514,381.969,134.133,381.969z"/>
			<path fill="#939598" d="M138.9,381.339h0.979v0.053l-0.853,2.811h-0.442L138.9,381.339z M140.963,381.339h0.97v0.053
				l-0.854,2.811h-0.44L140.963,381.339z"/>
			<path fill="#939598" d="M151.317,388.706h-0.938l-1.684-2.22l-1.695,2.22h-0.904l2.138-2.771l-2.052-2.672h0.926l1.608,2.105
				l1.61-2.105h0.906l-2.063,2.654L151.317,388.706z"/>
			<path fill="#939598" d="M156.979,381.287h0.609v7.42h-0.82v-6.557l-1.39,0.432l-0.199-0.674L156.979,381.287z"/>
			<path fill="#939598" d="M163.997,381.287v4.979h1.147v0.694h-1.147v1.747h-0.8v-1.747h-3.884l-0.211-0.601l4.169-5.072H163.997z
				 M163.197,382.463l-3.095,3.8h3.095V382.463z"/>
			<path fill="#939598" d="M166.711,381.339h0.989v0.053l-0.853,2.811h-0.452L166.711,381.339z"/>
			<path fill="#939598" d="M171.604,388.812c-1.568,0-2.77-0.854-2.77-2.097c0-0.886,0.631-1.507,1.516-1.821
				c-0.685-0.316-1.264-0.844-1.264-1.705c0-1.146,1.168-1.957,2.517-1.957c1.347,0,2.516,0.811,2.516,1.957
				c0,0.861-0.579,1.389-1.264,1.705c0.874,0.326,1.516,0.929,1.516,1.812C174.373,387.968,173.173,388.812,171.604,388.812z
				 M171.604,385.286c-1.073,0-1.926,0.58-1.926,1.411c0,0.756,0.716,1.389,1.926,1.389c1.211,0,1.926-0.633,1.926-1.389
				C173.531,385.866,172.68,385.286,171.604,385.286z M171.604,381.96c-0.958,0-1.685,0.537-1.685,1.283
				c0,0.812,0.747,1.358,1.685,1.358c0.937,0,1.684-0.549,1.684-1.358C173.289,382.506,172.563,381.96,171.604,381.96z"/>
			<path fill="#939598" d="M175.919,381.339h0.979v0.053l-0.854,2.811h-0.44L175.919,381.339z M177.981,381.339h0.968v0.053
				l-0.853,2.811h-0.441L177.981,381.339z"/>
		</g>
		<g>
			<path fill="#939598" d="M247.709,63.401c0,0.969-0.591,1.462-1.17,1.716c0.874,0.263,1.58,0.769,1.58,1.789
				c0,1.273-1.062,2.021-2.674,2.021h-3.272V61.56h3.138C246.762,61.559,247.709,62.274,247.709,63.401z M246.865,63.516
				c0-0.736-0.578-1.21-1.633-1.21h-2.24v2.536h2.18C246.172,64.842,246.865,64.389,246.865,63.516z M247.277,66.853
				c0-0.811-0.674-1.273-1.959-1.273h-2.326v2.601h2.474C246.582,68.179,247.277,67.684,247.277,66.853z"/>
			<path fill="#939598" d="M252.029,68.347c0.75,0,1.275-0.305,1.718-0.769l0.508,0.453c-0.55,0.61-1.213,1.021-2.241,1.021
				c-1.496,0-2.718-1.146-2.718-2.842c0-1.579,1.104-2.843,2.608-2.843c1.611,0,2.537,1.284,2.537,2.885c0,0.073,0,0.157-0.01,0.252
				h-4.314C250.232,67.684,251.073,68.347,252.029,68.347z M253.622,65.905c-0.085-0.989-0.651-1.854-1.738-1.854
				c-0.944,0-1.659,0.79-1.767,1.854H253.622z"/>
			<path fill="#939598" d="M260.229,68.925v-1.094c-0.44,0.653-1.084,1.211-2.084,1.211c-1.305,0-2.601-1.031-2.601-2.831
				c0-1.789,1.294-2.843,2.601-2.843c1.012,0,1.662,0.547,2.084,1.157v-3.284h0.811v7.684H260.229z M258.293,64.095
				c-1.052,0-1.916,0.779-1.916,2.105c0,1.294,0.885,2.115,1.916,2.115c1.012,0,1.971-0.841,1.971-2.115
				C260.262,64.937,259.305,64.095,258.293,64.095z"/>
			<path fill="#939598" d="M263.658,68.925h-0.809v-5.44h0.809v1.42c0.402-0.905,1.191-1.559,2.223-1.515v0.873h-0.062
				c-1.189,0-2.158,0.853-2.158,2.495L263.658,68.925L263.658,68.925z"/>
			<path fill="#939598" d="M269.363,69.052c-1.633,0-2.82-1.284-2.82-2.831c0-1.548,1.199-2.853,2.844-2.853
				c1.633,0,2.831,1.284,2.831,2.832C272.216,67.748,271.005,69.052,269.363,69.052z M269.363,64.084
				c-1.18,0-1.989,0.937-1.989,2.116c0,1.179,0.862,2.126,2.013,2.126c1.18,0,1.998-0.938,1.998-2.105
				C271.384,65.031,270.51,64.084,269.363,64.084z"/>
			<path fill="#939598" d="M276.161,69.052c-1.634,0-2.821-1.284-2.821-2.831c0-1.548,1.2-2.853,2.844-2.853
				c1.633,0,2.832,1.284,2.832,2.832C279.016,67.748,277.805,69.052,276.161,69.052z M276.161,64.084
				c-1.181,0-1.99,0.937-1.99,2.116c0,1.179,0.863,2.126,2.013,2.126c1.181,0,2-0.938,2-2.105
				C278.184,65.031,277.309,64.084,276.161,64.084z"/>
			<path fill="#939598" d="M286.707,63.369c1.251,0,2.021,0.842,2.021,2.189v3.368h-0.812v-3.178c0-1.053-0.523-1.643-1.409-1.643
				c-0.819,0-1.504,0.611-1.504,1.685v3.136h-0.802v-3.199c0-1.021-0.537-1.621-1.4-1.621c-0.861,0-1.516,0.716-1.516,1.716v3.104
				h-0.809v-5.439h0.809v0.915c0.357-0.536,0.842-1.031,1.758-1.031c0.885,0,1.452,0.474,1.747,1.084
				C285.182,63.853,285.758,63.369,286.707,63.369z"/>
			<path fill="#939598" d="M234.723,74.368h0.609v7.42h-0.818V75.23l-1.392,0.432l-0.199-0.674L234.723,74.368z"/>
			<path fill="#939598" d="M237.646,76.325l-0.609-0.442c0.663-0.99,1.357-1.568,2.652-1.568c1.338,0,2.285,0.884,2.285,2.095
				c0,1.085-0.568,1.748-1.863,2.874l-1.969,1.747h3.904v0.757H236.9v-0.642l2.675-2.358c1.126-1.01,1.536-1.578,1.536-2.314
				c0-0.863-0.686-1.411-1.483-1.411C238.784,75.061,238.236,75.503,237.646,76.325z"/>
			<path fill="#939598" d="M243.698,74.42h0.989v0.052l-0.854,2.812h-0.453L243.698,74.42z"/>
			<path fill="#939598" d="M248.592,81.893c-1.566,0-2.768-0.853-2.768-2.096c0-0.885,0.631-1.505,1.515-1.82
				c-0.685-0.317-1.263-0.842-1.263-1.705c0-1.146,1.168-1.958,2.516-1.958s2.518,0.811,2.518,1.958c0,0.863-0.58,1.39-1.264,1.705
				c0.871,0.325,1.516,0.926,1.516,1.81C251.359,81.05,250.16,81.893,248.592,81.893z M248.592,78.368
				c-1.072,0-1.926,0.578-1.926,1.41c0,0.757,0.715,1.389,1.926,1.389s1.926-0.632,1.926-1.389
				C250.518,78.946,249.666,78.368,248.592,78.368z M248.592,75.04c-0.958,0-1.685,0.537-1.685,1.284
				c0,0.811,0.749,1.357,1.685,1.357c0.938,0,1.686-0.547,1.686-1.357C250.275,75.588,249.549,75.04,248.592,75.04z"/>
			<path fill="#939598" d="M252.904,74.42h0.978v0.052l-0.853,2.812h-0.441L252.904,74.42z M254.968,74.42h0.97v0.052l-0.854,2.812
				h-0.439L254.968,74.42z"/>
			<path fill="#939598" d="M265.323,81.787h-0.938l-1.686-2.22l-1.695,2.22h-0.901l2.135-2.768l-2.053-2.675h0.928l1.609,2.104
				l1.608-2.104h0.905l-2.063,2.653L265.323,81.787z"/>
			<path fill="#939598" d="M270.982,74.368h0.608v7.42h-0.819V75.23l-1.391,0.432l-0.197-0.674L270.982,74.368z"/>
			<path fill="#939598" d="M274.75,74.368h0.609v7.42h-0.819V75.23l-1.39,0.432l-0.2-0.674L274.75,74.368z"/>
			<path fill="#939598" d="M277.423,74.42h0.989v0.052l-0.854,2.812h-0.453L277.423,74.42z"/>
			<path fill="#939598" d="M281.098,74.368h0.608v7.42h-0.821V75.23l-1.39,0.432l-0.198-0.674L281.098,74.368z"/>
			<path fill="#939598" d="M286.525,81.914c-1.906,0-3.104-1.726-3.104-3.8c0-2.073,1.222-3.821,3.126-3.821
				c1.896,0,3.096,1.728,3.096,3.8C289.643,80.166,288.42,81.914,286.525,81.914z M286.525,75.051c-1.381,0-2.241,1.411-2.241,3.043
				c0,1.632,0.884,3.062,2.263,3.062s2.23-1.42,2.23-3.042C288.777,76.492,287.904,75.051,286.525,75.051z"/>
			<path fill="#939598" d="M291.29,74.42h0.979v0.052l-0.854,2.812h-0.441L291.29,74.42z M293.354,74.42h0.969v0.052l-0.852,2.812
				h-0.443L293.354,74.42z"/>
		</g>
		<g>
			<path fill="#939598" d="M225.971,193.29h0.83v6.601h4.147v0.768h-4.979L225.971,193.29L225.971,193.29z"/>
			<path fill="#939598" d="M232.367,194.026v-0.895h0.926v0.895H232.367z M232.42,200.658v-5.441h0.812v5.441H232.42z"/>
			<path fill="#939598" d="M239.146,195.216h0.873l-2.367,5.483h-0.717l-2.357-5.483h0.896l1.83,4.516L239.146,195.216z"/>
			<path fill="#939598" d="M241.312,194.026v-0.895h0.926v0.895H241.312z M241.363,200.658v-5.441h0.812v5.441H241.363z"/>
			<path fill="#939598" d="M244.867,200.658h-0.811v-5.441h0.811v0.947c0.357-0.59,0.926-1.062,1.863-1.062
				c1.314,0,2.084,0.884,2.084,2.179v3.379h-0.812v-3.179c0-1.011-0.547-1.642-1.505-1.642c-0.937,0-1.632,0.685-1.632,1.704
				L244.867,200.658L244.867,200.658z"/>
			<path fill="#939598" d="M252.951,202.363c-0.906,0-1.75-0.251-2.475-0.757l0.366-0.631c0.62,0.452,1.315,0.694,2.095,0.694
				c1.199,0,1.979-0.663,1.979-1.937v-0.642c-0.474,0.631-1.138,1.146-2.137,1.146c-1.306,0-2.558-0.968-2.558-2.558
				c0-1.6,1.262-2.579,2.558-2.579c1.021,0,1.685,0.505,2.125,1.094v-0.979h0.811v4.494
				C255.718,201.469,254.623,202.363,252.951,202.363z M252.938,195.817c-1.029,0-1.883,0.704-1.883,1.841
				c0,1.116,0.875,1.863,1.883,1.863c1.033,0,2.002-0.736,2.002-1.852C254.939,196.541,253.973,195.817,252.938,195.817z"/>
			<path fill="#939598" d="M262.031,192.258l-4.885,9.747h-0.748l4.885-9.747H262.031z"/>
			<path fill="#939598" d="M265.564,200.658h-2.56v-7.368h2.56c2.315,0,3.918,1.589,3.918,3.674S267.884,200.658,265.564,200.658z
				 M265.564,194.059h-1.727v5.831h1.727c1.865,0,3.054-1.263,3.054-2.906C268.619,195.342,267.432,194.059,265.564,194.059z"/>
			<path fill="#939598" d="M271.121,194.026v-0.895h0.927v0.895H271.121z M271.174,200.658v-5.441h0.812v5.441H271.174z"/>
			<path fill="#939598" d="M274.68,200.658h-0.811v-5.441h0.811v0.947c0.356-0.59,0.926-1.062,1.863-1.062
				c1.314,0,2.082,0.884,2.082,2.179v3.379h-0.809v-3.179c0-1.011-0.549-1.642-1.506-1.642c-0.938,0-1.633,0.685-1.633,1.704
				L274.68,200.658L274.68,200.658z"/>
			<path fill="#939598" d="M280.372,194.026v-0.895h0.928v0.895H280.372z M280.425,200.658v-5.441h0.81v5.441H280.425z"/>
			<path fill="#939598" d="M283.932,200.658h-0.812v-5.441h0.812v0.947c0.356-0.59,0.924-1.062,1.859-1.062
				c1.316,0,2.085,0.884,2.085,2.179v3.379h-0.81v-3.179c0-1.011-0.549-1.642-1.506-1.642c-0.938,0-1.632,0.685-1.632,1.704
				L283.932,200.658L283.932,200.658z"/>
			<path fill="#939598" d="M292.014,202.363c-0.906,0-1.75-0.251-2.478-0.757l0.368-0.631c0.621,0.452,1.316,0.694,2.097,0.694
				c1.199,0,1.979-0.663,1.979-1.937v-0.642c-0.477,0.631-1.141,1.146-2.14,1.146c-1.305,0-2.559-0.968-2.559-2.558
				c0-1.6,1.263-2.579,2.559-2.579c1.022,0,1.687,0.505,2.125,1.094v-0.979h0.812v4.494
				C294.777,201.469,293.686,202.363,292.014,202.363z M292.001,195.817c-1.033,0-1.885,0.704-1.885,1.841
				c0,1.116,0.875,1.863,1.885,1.863c1.031,0,1.998-0.736,1.998-1.852C293.999,196.541,293.032,195.817,292.001,195.817z"/>
			<path fill="#939598" d="M304.954,200.658l-2.136-2.863h-2.105v2.863h-0.832v-7.368h3.167c1.622,0,2.663,0.874,2.663,2.199
				c0,1.231-0.842,1.948-2,2.158l2.266,3.011H304.954L304.954,200.658z M302.984,194.059h-2.271v2.989h2.264
				c1.104,0,1.896-0.568,1.896-1.526C304.871,194.606,304.176,194.059,302.984,194.059z"/>
			<path fill="#939598" d="M309.73,200.785c-1.633,0-2.82-1.284-2.82-2.831c0-1.548,1.199-2.853,2.844-2.853
				c1.631,0,2.829,1.283,2.829,2.831C312.583,199.479,311.373,200.785,309.73,200.785z M309.73,195.817
				c-1.181,0-1.989,0.936-1.989,2.115c0,1.179,0.862,2.126,2.013,2.126c1.18,0,1.998-0.937,1.998-2.104
				C311.752,196.762,310.877,195.817,309.73,195.817z"/>
			<path fill="#939598" d="M316.529,200.785c-1.635,0-2.822-1.284-2.822-2.831c0-1.548,1.2-2.853,2.842-2.853
				c1.635,0,2.832,1.283,2.832,2.831C319.381,199.479,318.171,200.785,316.529,200.785z M316.529,195.817
				c-1.182,0-1.991,0.936-1.991,2.115c0,1.179,0.862,2.126,2.011,2.126c1.182,0,2.001-0.937,2.001-2.104
				C318.55,196.762,317.676,195.817,316.529,195.817z"/>
			<path fill="#939598" d="M327.073,195.101c1.253,0,2.022,0.842,2.022,2.189v3.368h-0.812v-3.179c0-1.053-0.526-1.642-1.41-1.642
				c-0.82,0-1.505,0.61-1.505,1.685v3.136h-0.802v-3.2c0-1.021-0.537-1.62-1.398-1.62s-1.518,0.716-1.518,1.716v3.104h-0.811v-5.441
				h0.811v0.916c0.357-0.537,0.844-1.032,1.76-1.032c0.883,0,1.451,0.475,1.747,1.085
				C325.547,195.584,326.124,195.101,327.073,195.101z"/>
			<path fill="#939598" d="M247.578,206.099h0.609v7.421h-0.82v-6.558l-1.389,0.432l-0.201-0.674L247.578,206.099z"/>
			<path fill="#939598" d="M250.166,206.899v-0.747h4.705v0.61l-2.314,2.568c1.293,0.105,2.433,0.727,2.433,2.084
				c0,1.327-1.097,2.232-2.464,2.232c-1.23,0-2.146-0.537-2.746-1.315l0.6-0.536c0.568,0.693,1.252,1.095,2.158,1.095
				c0.896,0,1.609-0.568,1.609-1.442c0-0.925-0.842-1.432-2.062-1.432h-0.475l-0.17-0.495l2.326-2.62h-3.601L250.166,206.899
				L250.166,206.899z"/>
			<path fill="#939598" d="M256.7,206.152h0.989v0.053l-0.854,2.812h-0.454L256.7,206.152z"/>
			<path fill="#939598" d="M259.529,208.057l-0.609-0.442c0.662-0.99,1.357-1.569,2.653-1.569c1.337,0,2.282,0.885,2.282,2.096
				c0,1.085-0.565,1.747-1.861,2.874l-1.969,1.746h3.904v0.758h-5.146v-0.642l2.674-2.358c1.126-1.01,1.537-1.578,1.537-2.315
				c0-0.862-0.686-1.411-1.485-1.411C260.668,206.792,260.119,207.236,259.529,208.057z"/>
			<path fill="#939598" d="M265.581,206.152h0.979v0.053l-0.854,2.812h-0.438L265.581,206.152z M267.646,206.152h0.969v0.053
				l-0.854,2.812h-0.438L267.646,206.152z"/>
			<path fill="#939598" d="M278,213.519h-0.938l-1.686-2.221l-1.693,2.221h-0.904l2.137-2.769l-2.053-2.674h0.926l1.611,2.104
				l1.608-2.104h0.904l-2.063,2.653L278,213.519z"/>
			<path fill="#939598" d="M282.818,208.057l-0.611-0.442c0.663-0.99,1.357-1.569,2.652-1.569c1.338,0,2.283,0.885,2.283,2.096
				c0,1.085-0.565,1.747-1.861,2.874l-1.969,1.746h3.903v0.758h-5.146v-0.642l2.673-2.358c1.127-1.01,1.536-1.578,1.536-2.315
				c0-0.862-0.687-1.411-1.484-1.411C283.954,206.792,283.407,207.236,282.818,208.057z"/>
			<path fill="#939598" d="M292.943,206.099v4.979h1.146v0.695h-1.146v1.747h-0.801v-1.747h-3.885l-0.211-0.601l4.166-5.073H292.943
				z M292.145,207.278l-3.095,3.8h3.095V207.278z"/>
			<path fill="#939598" d="M295.656,206.152h0.99v0.053l-0.854,2.812h-0.452L295.656,206.152z"/>
			<path fill="#939598" d="M300.991,213.646c-1.904,0-3.104-1.726-3.104-3.8c0-2.074,1.221-3.821,3.127-3.821
				c1.895,0,3.094,1.728,3.094,3.8C304.107,211.899,302.889,213.646,300.991,213.646z M300.991,206.784
				c-1.378,0-2.24,1.411-2.24,3.042c0,1.632,0.884,3.062,2.265,3.062c1.379,0,2.229-1.42,2.229-3.041
				C303.245,208.225,302.372,206.784,300.991,206.784z"/>
			<path fill="#939598" d="M305.757,206.152h0.979v0.053l-0.854,2.812h-0.439L305.757,206.152z M307.82,206.152h0.97v0.053
				l-0.854,2.812h-0.441L307.82,206.152z"/>
		</g>
		<g>
			<path fill="#939598" d="M283.882,320.147h5.731v0.647h-5.731V320.147z"/>
			<path fill="#939598" d="M289.697,317.177c0,0.606-0.237,1.277-0.622,1.754l-0.451-0.319c0.344-0.459,0.541-0.965,0.541-1.465
				c0-0.511-0.265-0.878-0.673-0.878h-0.016c-0.428,0-0.59,0.5-0.746,1.058c-0.188,0.662-0.416,1.397-1.194,1.397h-0.017
				c-0.729,0-1.211-0.604-1.211-1.438c0-0.517,0.178-1.09,0.465-1.523l0.475,0.285c-0.254,0.396-0.408,0.846-0.408,1.253
				c0,0.5,0.262,0.819,0.612,0.819h0.019c0.399,0,0.557-0.523,0.729-1.09c0.196-0.655,0.45-1.358,1.212-1.358h0.018
				C289.23,315.669,289.697,316.332,289.697,317.177z"/>
			<path fill="#939598" d="M289.615,314.442h-5.979v-0.63h5.979V314.442z"/>
			<path fill="#939598" d="M286.191,312.103l-0.517,0.188c-0.213-0.465-0.353-0.925-0.353-1.538c0-1.153,0.59-1.801,1.703-1.801
				h2.588v0.604h-0.639c0.385,0.295,0.729,0.787,0.729,1.531c0,0.788-0.439,1.581-1.326,1.581c-0.9,0-1.377-0.735-1.377-1.81
				c0-0.541,0.074-0.927,0.182-1.304h-0.147c-0.763,0-1.154,0.468-1.154,1.263C285.88,311.317,286.014,311.709,286.191,312.103z
				 M288.355,312.029c0.539,0,0.851-0.491,0.851-1.063c0-0.778-0.476-1.418-1.146-1.418h-0.408
				c-0.092,0.312-0.182,0.729-0.182,1.244C287.471,311.586,287.812,312.029,288.355,312.029z"/>
			<path fill="#939598" d="M289.615,306.979v0.63h-4.232v-0.63h0.737c-0.46-0.276-0.829-0.722-0.829-1.449
				c0-1.021,0.689-1.62,1.695-1.62h2.629v0.631h-2.473c-0.785,0-1.278,0.424-1.278,1.17c0,0.729,0.532,1.271,1.327,1.271h2.424
				V306.979z"/>
			<path fill="#939598" d="M289.615,299.17h-0.854c0.511,0.344,0.942,0.844,0.942,1.621c0,1.018-0.805,2.021-2.202,2.021
				c-1.394,0-2.212-1.004-2.212-2.021c0-0.787,0.425-1.295,0.9-1.621h-2.555v-0.632h5.977L289.615,299.17L289.615,299.17z
				 M285.855,300.675c0,0.819,0.605,1.491,1.638,1.491c1.009,0,1.646-0.688,1.646-1.491c0-0.784-0.654-1.528-1.646-1.528
				C286.514,299.146,285.855,299.891,285.855,300.675z"/>
		</g>
	</g>
	<g id="walls">
		<polyline fill="none" stroke="#939598" stroke-width="5" points="385.252,180.382 385.252,147.353 414.47,117.23 414.47,6.998 
			187.82,6.998 187.82,302.244 85.53,302.244 85.53,493.191 355.032,494.361 355.032,460.691 385.252,460.703 385.252,206.69 		"/>
		<polyline fill="none" stroke="#939598" stroke-width="3" points="215.314,420.985 215.314,308.478 170.202,308.478 
			170.202,302.857 		"/>
		<line fill="none" stroke="#939598" stroke-width="3" x1="215.314" y1="495" x2="215.314" y2="446.672"/>
		<line fill="none" stroke="#939598" x1="110.67" y1="309.603" x2="170.3" y2="309.603"/>
		<polyline fill="none" stroke="#939598" stroke-width="3" points="87.48,308.478 109.695,308.478 109.695,302.564 		"/>
		<line fill="none" stroke="#939598" stroke-width="3" x1="252.239" y1="402.631" x2="377.059" y2="402.631"/>
		<line fill="none" stroke="#939598" stroke-width="3" x1="216.874" y1="402.631" x2="224.669" y2="402.631"/>
		<line fill="none" stroke="#939598" stroke-width="3" x1="107.553" y1="466.158" x2="87.285" y2="466.158"/>
		<line fill="none" stroke="#939598" stroke-width="3" x1="165.993" y1="466.158" x2="134.541" y2="466.158"/>
		<line fill="none" stroke="#939598" stroke-width="3" x1="214.534" y1="466.158" x2="193.557" y2="466.158"/>
		<line fill="none" stroke="#939598" stroke-width="3" x1="280.4" y1="438.78" x2="280.4" y2="491.88"/>
		<line fill="none" stroke="#939598" stroke-width="3" x1="280.4" y1="403.801" x2="280.4" y2="410.814"/>
		<polyline fill="none" stroke="#939598" stroke-width="3" points="195.438,307.536 195.438,252.874 189.494,252.874 		"/>
		<line fill="none" stroke="#939598" x1="196.456" y1="164.112" x2="196.456" y2="251.607"/>
		<polyline fill="none" stroke="#939598" stroke-width="3" points="188.325,163.136 195.438,163.136 195.438,102.922 
			190.664,102.922 		"/>
		<polyline fill="none" stroke="#939598" stroke-width="3" points="397.907,133.906 377.807,133.906 377.807,175.848 
			384.753,175.848 		"/>
		<polyline fill="none" stroke="#939598" stroke-width="3" points="383.584,212.155 377.445,212.155 377.445,404.455 		"/>
		<line fill="none" stroke="#939598" stroke-width="3" x1="327.062" y1="137.414" x2="335.354" y2="137.414"/>
		<line fill="none" stroke="#939598" stroke-width="3" x1="195.926" y1="137.414" x2="299.107" y2="137.414"/>
		<polyline fill="none" stroke="#939598" stroke-width="3" points="334.846,128.841 334.846,168.983 378.029,168.983 		"/>
		<line fill="none" stroke="#939598" stroke-width="3" x1="334.846" y1="59.077" x2="334.846" y2="103.119"/>
		<line fill="none" stroke="#939598" stroke-width="3" x1="334.846" y1="7.338" x2="334.846" y2="33.229"/>
		<line fill="none" stroke="#939598" stroke-width="3" x1="335.062" y1="67.261" x2="413.397" y2="67.261"/>
		<polyline fill="none" stroke="#939598" stroke-width="3" points="350.848,259.598 350.848,263.396 376.566,263.396 		"/>
		<polyline fill="none" stroke="#939598" stroke-width="3" points="376.859,232.705 350.848,232.705 350.848,236.466 		"/>
		<line fill="none" stroke="#939598" stroke-width="3" x1="376.473" y1="402.438" x2="383.486" y2="402.438"/>
		<line fill="none" stroke="#939598" x1="196.495" y1="102.045" x2="196.495" y2="5"/>
	</g>
	<g id="windows">
		<g>
			<g>
				<rect x="185.619" y="167.723" fill="#FFFFFF" stroke="#939598" width="4.295" height="81.333"/>
				<line fill="none" stroke="#939598" x1="187.744" y1="167.723" x2="187.744" y2="249.934"/>
				<line fill="none" stroke="#939598" stroke-width="2" x1="190.1" y1="194.234" x2="186.014" y2="194.234"/>
			</g>
			<line fill="none" stroke="#939598" stroke-width="2" x1="190.245" y1="221.581" x2="186.034" y2="221.581"/>
		</g>
		<g>
			<g>
				<rect x="185.627" y="16.602" fill="#FFFFFF" stroke="#939598" width="4.296" height="81.333"/>
				<line fill="none" stroke="#939598" x1="187.754" y1="16.602" x2="187.754" y2="98.813"/>
				<line fill="none" stroke="#939598" stroke-width="2" x1="190.107" y1="43.113" x2="186.022" y2="43.113"/>
			</g>
			<line fill="none" stroke="#939598" stroke-width="2" x1="190.253" y1="70.459" x2="186.043" y2="70.459"/>
		</g>
		<g>
			<rect x="112.067" y="299.988" fill="#FFFFFF" stroke="#939598" width="55.306" height="4.472"/>
			<line fill="none" stroke="#939598" x1="112.067" y1="302.132" x2="168.25" y2="302.132"/>
			<line fill="none" stroke="#939598" stroke-width="2" x1="138.67" y1="299.631" x2="138.67" y2="304.455"/>
		</g>
	</g>
</g>
</svg>
