<?xml version="1.0" encoding="utf-8"?>
<!-- Generator: Adobe Illustrator 15.0.2, SVG Export Plug-In . SVG Version: 6.00 Build 0)  -->
<!DOCTYPE svg PUBLIC "-//W3C//DTD SVG 1.1//EN" "http://www.w3.org/Graphics/SVG/1.1/DTD/svg11.dtd">
<svg version="1.1" id="Layer_1" xmlns="http://www.w3.org/2000/svg" xmlns:xlink="http://www.w3.org/1999/xlink" x="0px" y="0px"
	 width="395px" height="300.5px" viewBox="52.5 99.713 395 300.5" enable-background="new 52.5 99.713 395 300.5"
	 xml:space="preserve">
<g id="_x32_0_x25___PMS_2985_fill" display="none">
	<path display="inline" fill="#EBEEEF" d="M2.5,32.421v162.75c0,0,255.5,2,255.5,0s0-192.5,0-192.5H30v29.75H2.5z"/>
</g>
<g>
	<g id="_x32_0_x25__grey_fill">
		<rect x="404.831" y="103.49" fill="#D1D3D4" width="38.135" height="29.746"/>
		<rect x="381.439" y="135.778" fill="#B3B3B3" width="8.39" height="12.712"/>
		<rect x="305.932" y="103.998" fill="#D1D3D4" width="40.805" height="29.746"/>
	</g>
	<g id="icons">
		<rect x="179.248" y="146.433" fill="#FFFFFF" stroke="#939598" width="42.712" height="73.22"/>
		<g>
			<g>
				<rect x="405.682" y="136.237" fill="#FFFFFF" stroke="#939598" width="36.038" height="69.699"/>
				<path fill="#FFFFFF" stroke="#939598" d="M423.701,171.09"/>
				<path fill="#FFFFFF" stroke="#939598" d="M423.701,171.328"/>
				<path fill="#FFFFFF" stroke="#939598" d="M423.701,194.96"/>
			</g>
			<circle fill="#FFFFFF" stroke="#939598" cx="423.872" cy="190.052" r="1.478"/>
			<path fill="#FFFFFF" stroke="#939598" d="M423.81,140.218c-10.327,0-14.109,2.384-14.109,5.724c0,0,0,50.093,0,50.912
				c0,0.816,0.222,2.504,2.381,2.504c2.164,0,11.729,0,11.729,0h0.025c0,0,9.565,0,11.729,0c2.16,0,2.382-1.686,2.382-2.504
				c0-0.819,0-50.878,0-50.878l-0.003-0.032C437.942,142.602,434.075,140.218,423.81,140.218z"/>
			<path fill="#FFFFFF" stroke="#939598" d="M420.771,201.946c0.004-0.837-0.674-1.507-1.52-1.507c-0.819,0-1.497,0.67-1.503,1.507
				c0.006,0.832,0.684,1.518,1.503,1.518C420.099,203.465,420.775,202.789,420.771,201.946z"/>
			<path fill="#FFFFFF" stroke="#939598" d="M430.141,201.946c0.011-0.837-0.679-1.507-1.509-1.507c-0.829,0-1.511,0.67-1.511,1.507
				c0,0.832,0.682,1.518,1.511,1.509C429.463,203.465,430.141,202.778,430.141,201.946z"/>
			<path fill="#FFFFFF" stroke="#939598" d="M421.837,202.394c0,1.24,0.837,2.241,2.076,2.244c1.236-0.003,1.912-1.004,1.912-2.244
				l-0.796-8.53c0-0.837-2.263-0.837-2.263,0L421.837,202.394z"/>
		</g>
		<g>
			<polygon fill="none" stroke="#939598" points="97.256,204.843 97.267,207.262 131.782,207.283 131.772,204.861 			"/>
			<path fill="none" stroke="#939598" d="M131.798,205.954c-0.646,19.004-16.268,33.887-35.27,33.235"/>
		</g>
		<g>
			<g>
				<g>
					<g>
						<rect x="63.294" y="206.708" fill="#FFFFFF" stroke="#939598" width="28.289" height="30.795"/>
						<path fill="#FFFFFF" stroke="#939598" d="M78.378,222.106"/>
						<polyline fill="#FFFFFF" stroke="#939598" points="83.142,212.763 87.446,212.763 88.45,216.481 88.45,227.873 
							87.446,231.641 83.142,231.641 						"/>
						<line fill="none" stroke="#939598" x1="83.142" y1="237.726" x2="83.142" y2="206.708"/>
						<path fill="#FFFFFF" stroke="#939598" d="M79.821,222.201"/>
					</g>
				</g>
			</g>
			<polygon fill="#FFFFFF" stroke="#939598" points="84.998,236.005 85.003,233.519 83.268,232.971 83.26,236.553 			"/>
		</g>
		<g>
			<polygon fill="none" stroke="#939598" points="97.256,156.792 97.267,159.211 131.784,159.233 131.772,156.812 			"/>
			<path fill="none" stroke="#939598" d="M131.8,157.903c-0.647,19.004-16.267,33.593-35.271,32.942"/>
		</g>
		<g>
			<polygon fill="none" stroke="#939598" points="394.915,244.847 392.368,244.867 392.344,208.532 394.927,208.515 			"/>
			<path fill="none" stroke="#939598" d="M393.711,208.484c-20.001,0.68-35.668,17.221-34.988,37.225"/>
		</g>
		<g>
			<polygon fill="none" stroke="#939598" points="110.798,100.718 113.345,100.696 113.368,137.031 110.785,137.05 			"/>
			<path fill="none" stroke="#939598" d="M112.001,137.079c20.002-0.68,35.668-17.221,34.985-37.225"/>
		</g>
		<g>
			<polygon fill="none" stroke="#939598" points="436.671,243.964 434.734,243.949 434.716,271.562 436.679,271.578 			"/>
			<path fill="none" stroke="#939598" d="M435.755,271.598c-15.203-0.516-27.107-13.088-26.589-28.291"/>
		</g>
		<g>
			<polygon fill="none" stroke="#939598" points="377.363,133.476 375.43,133.461 375.409,161.072 377.373,161.088 			"/>
			<path fill="none" stroke="#939598" d="M376.449,161.108c-15.202-0.515-27.106-13.088-26.59-28.29"/>
		</g>
		<g>
			<g>
				<path fill="#FFFFFF" stroke="#939598" d="M196.498,150.21c0-0.649,0.525-1.176,1.177-1.176h20.509
					c0.649,0,1.176,0.528,1.176,1.176v34.791c0,0.649-0.526,1.175-1.176,1.175h-20.511c-0.652,0-1.176-0.524-1.176-1.175
					L196.498,150.21L196.498,150.21z"/>
				<path fill="#FFFFFF" stroke="#939598" d="M207.042,167.481"/>
			</g>
			<g>
				<circle fill="#FFFFFF" stroke="#939598" cx="208.432" cy="167.481" r="1.329"/>
				<path fill="#FFFFFF" stroke="#939598" d="M208.43,167.481"/>
			</g>
			<g>
				<g>
					<rect x="197.316" y="161.679" fill="#FFFFFF" stroke="#939598" width="2.777" height="11.605"/>
					<path fill="#FFFFFF" stroke="#939598" d="M198.703,167.481"/>
				</g>
				<g>
					<rect x="200.019" y="166.889" fill="#FFFFFF" stroke="#939598" width="5.469" height="1.185"/>
					<path fill="#FFFFFF" stroke="#939598" d="M202.4,167.481"/>
				</g>
				<g>
					<circle fill="#FFFFFF" stroke="#939598" cx="198.731" cy="167.481" r="1.292"/>
					<path fill="#FFFFFF" stroke="#939598" d="M198.731,167.481"/>
				</g>
			</g>
			<g>
				<path fill="#FFFFFF" stroke="#939598" d="M208.43,167.481"/>
				<path fill="none" stroke="#939598" d="M201.052,166.764v-14.626c0-0.682,0.552-1.237,1.235-1.237h14.064
					c0.681,0,1.234,0.554,1.234,1.237v30.933c0,0.683-0.553,1.238-1.234,1.238h-14.063c-0.683,0-1.235-0.554-1.235-1.238v-14.837"/>
			</g>
		</g>
		<g>
			<polyline fill="none" stroke="#939598" stroke-dasharray="1.5,1,1.5,1,1.5,1" points="223.51,216.913 196.253,216.913 
				196.253,190.178 222.896,190.178 			"/>
			<polyline fill="#FFFFFF" stroke="#939598" points="222.896,190.138 224.52,190.138 224.52,216.913 223.521,216.913 			"/>
		</g>
		<polyline fill="#FFFFFF" stroke="#939598" points="274.801,165.133 274.801,243.573 304.289,243.484 304.189,146.645 
			274.801,146.645 274.801,148.998 		"/>
		<g>
			<g>
				<rect x="268.562" y="107.092" fill="#FFFFFF" stroke="#939598" width="33.513" height="37.987"/>
				<path fill="#FFFFFF" stroke="#939598" d="M285.316,124.119"/>
			</g>
			<line fill="none" stroke="#939598" x1="270.902" y1="145.168" x2="270.902" y2="107.092"/>
			<rect x="266.904" y="110.262" fill="#FFFFFF" stroke="#939598" width="1.634" height="3.078"/>
			<path fill="#FFFFFF" stroke="#939598" d="M267.811,111.802"/>
		</g>
		<line fill="none" stroke="#939598" x1="274.801" y1="166.656" x2="304.152" y2="166.656"/>
		<g>
			<g>
				<g>
					<polygon fill="none" stroke="#939598" stroke-width="0.7" points="260.611,157.227 261.662,155.318 274.77,163.265 
						273.723,165.173 					"/>
					<path fill="none" stroke="#939598" stroke-width="0.8" d="M268.752,161.696"/>
				</g>
				<path fill="none" stroke="#939598" stroke-width="0.8" d="M261.244,156.495c2.96-4.885,8.229-7.514,13.559-7.337"/>
			</g>
		</g>
		<g>
			<g>
				<rect x="271.909" y="183.692" fill="#FFFFFF" stroke="#939598" width="30.129" height="35.467"/>
				<path fill="#FFFFFF" stroke="#939598" d="M286.975,201.425"/>
			</g>
			<g>
				<g>
					<circle fill="#FFFFFF" stroke="#939598" cx="278.585" cy="209.534" r="4.308"/>
					<path fill="#FFFFFF" stroke="#939598" d="M278.585,209.533"/>
				</g>
				<g>
					<path fill="#FFFFFF" stroke="#939598" stroke-width="0.8" d="M278.587,206.543c1.675,0,3.034,1.358,3.034,3.033
						c0,1.675-1.359,3.034-3.034,3.034c-1.677,0-3.035-1.359-3.035-3.034C275.55,207.901,276.909,206.543,278.587,206.543z"/>
					<path fill="#FFFFFF" stroke="#939598" d="M278.585,209.575"/>
				</g>
			</g>
			<g>
				<g>
					<circle fill="#FFFFFF" stroke="#939598" cx="291.169" cy="192.316" r="4.308"/>
					<path fill="#FFFFFF" stroke="#939598" d="M291.169,192.316"/>
				</g>
				<g>
					<circle fill="#FFFFFF" stroke="#939598" stroke-width="0.8" cx="291.172" cy="192.272" r="3.034"/>
					<path fill="#FFFFFF" stroke="#939598" d="M291.169,192.272"/>
				</g>
			</g>
			<g>
				<g>
					<circle fill="#FFFFFF" stroke="#939598" cx="291.127" cy="209.591" r="4.911"/>
					<path fill="#FFFFFF" stroke="#939598" d="M291.127,209.592"/>
				</g>
				<g>
					<circle fill="#FFFFFF" stroke="#939598" stroke-width="0.8" cx="291.127" cy="209.542" r="3.459"/>
					<path fill="#FFFFFF" stroke="#939598" d="M291.127,209.543"/>
				</g>
			</g>
			<g>
				<g>
					<circle fill="#FFFFFF" stroke="#939598" cx="278.254" cy="192.336" r="4.909"/>
					<path fill="#FFFFFF" stroke="#939598" d="M278.254,192.335"/>
				</g>
				<g>
					<circle fill="#FFFFFF" stroke="#939598" stroke-width="0.8" cx="278.254" cy="192.285" r="3.46"/>
					<path fill="#FFFFFF" stroke="#939598" d="M278.254,192.284"/>
				</g>
			</g>
			<line fill="none" stroke="#939598" x1="297.868" y1="219.204" x2="297.868" y2="183.692"/>
			<line fill="none" stroke="#939598" x1="299.536" y1="219.156" x2="299.536" y2="183.692"/>
		</g>
		
			<line fill="none" stroke="#939598" stroke-dasharray="1.5,1.5,1.5,1.5,1.5,1.5" x1="289.152" y1="165.777" x2="289.152" y2="243.828"/>
		
			<line fill="none" stroke="#A7A9AC" stroke-dasharray="1.5,1.5,1.5,1.5,1.5,1.5" x1="289.152" y1="132.085" x2="289.152" y2="145.565"/>
		
			<line fill="none" stroke="#A7A9AC" stroke-dasharray="1.5,1.5,1.5,1.5,1.5,1.5" x1="289.152" y1="105.27" x2="289.152" y2="123.32"/>
		<line fill="none" stroke="#939598" x1="76.971" y1="199.754" x2="76.971" y2="146.711"/>
		
			<line fill="none" stroke="#939598" stroke-dasharray="1.5,1.5,1.5,1.5,1.5,1.5" x1="73.038" y1="198.991" x2="73.038" y2="148.235"/>
		
			<line fill="none" stroke="#939598" stroke-dasharray="1.5,1.5,1.5,1.5,1.5,1.5" x1="406.355" y1="222.472" x2="443.981" y2="222.472"/>
		<line fill="none" stroke="#939598" x1="405.847" y1="225.522" x2="443.475" y2="225.522"/>
		<polygon fill="#FFFFFF" stroke="#939598" points="306.562,183.871 335.039,183.871 335.039,244.843 306.288,244.843 		"/>
		<g>
			<path fill="#FFFFFF" stroke="#939598" stroke-miterlimit="10" d="M326.969,167.863c6.809,0,14.305-4.136,14.305-9.233
				c0-5.097-7.496-9.215-14.305-9.215s-10.351,4.117-10.351,9.215C316.618,163.728,320.16,167.863,326.969,167.863"/>
			<path fill="#FFFFFF" stroke="#939598" d="M326.969,167.863c6.809,0,14.305-4.136,14.305-9.233c0-5.097-7.496-9.215-14.305-9.215
				s-10.351,4.117-10.351,9.215C316.618,163.728,320.16,167.863,326.969,167.863z"/>
			<path fill="#FFFFFF" stroke="#939598" stroke-miterlimit="10" d="M318.85,153.102c0.381,0,0.693-0.312,0.693-0.694v-3.215
				c0-0.381-0.312-0.693-0.693-0.693h-0.115c-0.381,0-0.693,0.312-0.693,0.693v3.215c0,0.382,0.312,0.694,0.693,0.694H318.85z"/>
			<path fill="#FFFFFF" stroke="#939598" d="M318.85,153.102c0.381,0,0.693-0.312,0.693-0.694v-3.215
				c0-0.381-0.312-0.693-0.693-0.693h-0.115c-0.381,0-0.693,0.312-0.693,0.693v3.215c0,0.382,0.312,0.694,0.693,0.694H318.85z"/>
			<path fill="#FFFFFF" stroke="#939598" stroke-miterlimit="10" d="M318.021,148.01c0-1.156-3.137-2.097-4.295-2.097
				c-1.176,0-4.311,0.941-4.311,2.097v21.073c0,1.16,3.139,2.097,4.311,2.097c1.159,0,4.293-0.937,4.293-2.097L318.021,148.01z"/>
			<path fill="#FFFFFF" stroke="#939598" d="M318.021,148.01c0-1.156-3.137-2.097-4.295-2.097c-1.176,0-4.311,0.941-4.311,2.097
				v21.073c0,1.16,3.139,2.097,4.311,2.097c1.159,0,4.293-0.937,4.293-2.097L318.021,148.01z"/>
			<path fill="#FFFFFF" stroke="#939598" stroke-miterlimit="10" d="M327.256,165.417c5,0,10.516-3.041,10.516-6.789
				c0-3.747-5.512-6.783-10.516-6.783c-5.005,0-7.605,3.036-7.605,6.783C319.65,162.376,322.251,165.417,327.256,165.417"/>
			<path fill="#FFFFFF" stroke="#939598" d="M327.256,165.417c5,0,10.516-3.041,10.516-6.789c0-3.747-5.512-6.783-10.516-6.783
				c-5.005,0-7.605,3.036-7.605,6.783C319.65,162.376,322.251,165.417,327.256,165.417z"/>
		</g>
		<g>
			<g>
				<g>
					<path fill="none" stroke="#A7A9AC" d="M323.564,201.539"/>
				</g>
				<g>
					<path fill="none" stroke="#A7A9AC" d="M321.941,201.539"/>
				</g>
				<g>
					<circle fill="none" stroke="#939598" cx="323.566" cy="201.539" r="1.551"/>
					<path fill="none" stroke="#A7A9AC" d="M323.564,201.539"/>
				</g>
				<g>
					<g>
						<rect x="310.598" y="195.033" fill="none" stroke="#939598" width="3.242" height="13.046"/>
						<path fill="none" stroke="#A7A9AC" d="M312.217,201.539"/>
					</g>
					<g>
						<rect x="313.98" y="200.848" fill="none" stroke="#939598" width="6.149" height="1.382"/>
						<path fill="none" stroke="#A7A9AC" d="M316.531,201.539"/>
					</g>
					<g>
						<circle fill="none" stroke="#939598" cx="312.252" cy="201.539" r="1.505"/>
						<path fill="none" stroke="#A7A9AC" d="M312.252,201.539"/>
					</g>
				</g>
			</g>
			<g>
				<rect x="310.104" y="188.531" fill="none" stroke="#939598" width="21.164" height="26.048"/>
				<rect x="313.916" y="190.655" fill="none" stroke="#939598" width="15.225" height="21.745"/>
			</g>
		</g>
		<line fill="none" stroke="#939598" x1="348.896" y1="124.083" x2="402.289" y2="124.083"/>
	</g>
	<g id="walls">
		<polyline fill="none" stroke="#939598" stroke-width="5" points="111.439,102.219 95.836,102.214 95.836,147.745 55,147.745 
			55,396.599 445,396.599 445,102.343 146.526,102.236 		"/>
		<polyline fill="none" stroke="#939598" stroke-width="3" points="97.331,238.602 97.331,243.573 57.67,243.573 		"/>
		<line fill="none" stroke="#939598" stroke-width="3" x1="97.331" y1="190.259" x2="97.331" y2="204.843"/>
		<line fill="none" stroke="#939598" stroke-width="3" x1="97.331" y1="149.762" x2="97.331" y2="156.792"/>
		<line fill="none" stroke="#939598" stroke-width="3" x1="97.331" y1="198.956" x2="55" y2="198.956"/>
		<line fill="none" stroke="#939598" stroke-width="3" x1="436.671" y1="243.956" x2="444.744" y2="243.956"/>
		<line fill="none" stroke="#939598" stroke-width="3" x1="394.661" y1="243.956" x2="410.168" y2="243.956"/>
		<line fill="none" stroke="#939598" stroke-width="3" x1="273.896" y1="243.956" x2="359.018" y2="243.956"/>
		<line fill="none" stroke="#939598" stroke-width="3" x1="305.55" y1="244.336" x2="305.55" y2="103.235"/>
		<line fill="none" stroke="#939598" stroke-width="3" x1="350.33" y1="134.125" x2="304.404" y2="134.125"/>
		<line fill="none" stroke="#939598" stroke-width="3" x1="442.075" y1="134.125" x2="377.273" y2="134.125"/>
		<line fill="none" stroke="#939598" stroke-width="3" x1="346.736" y1="133.743" x2="346.736" y2="103.998"/>
		<line fill="none" stroke="#939598" stroke-width="3" x1="404.703" y1="104.761" x2="404.703" y2="132.6"/>
		<polyline fill="none" stroke="#939598" stroke-width="3" points="403.939,242.812 403.939,208.205 443.981,208.205 		"/>
		<polyline fill="none" stroke="#939598" stroke-width="3" points="381.439,132.6 381.439,149.762 390.211,149.762 390.211,133.362 
					"/>
	</g>
	<g id="windows">
		<g>
			<g>
				<rect x="123.399" y="394.109" fill="#FFFFFF" stroke="#939598" width="106.111" height="5.604"/>
				<line fill="none" stroke="#939598" x1="229.514" y1="396.882" x2="122.256" y2="396.882"/>
				<line fill="none" stroke="#939598" stroke-width="2" x1="194.926" y1="399.955" x2="194.926" y2="394.626"/>
			</g>
			<line fill="none" stroke="#939598" stroke-width="2" x1="159.248" y1="400.146" x2="159.248" y2="394.65"/>
		</g>
		<g>
			<g>
				<rect x="317.639" y="394.109" fill="#FFFFFF" stroke="#939598" width="106.108" height="5.604"/>
				<line fill="none" stroke="#939598" x1="423.747" y1="396.882" x2="316.492" y2="396.882"/>
				<line fill="none" stroke="#939598" stroke-width="2" x1="389.161" y1="399.955" x2="389.161" y2="394.626"/>
			</g>
			<line fill="none" stroke="#939598" stroke-width="2" x1="353.484" y1="400.146" x2="353.484" y2="394.65"/>
		</g>
	</g>
	<g id="Type">
		<g>
			<path fill="#939598" d="M72.29,229.719v-0.694l6.25-2.051l-6.229-2.139v-0.885l7.533,2.671v0.715l-6.07,2.052l6.07,2.062v0.705
				l-7.533,2.671v-0.921l6.229-2.137L72.29,229.719z"/>
			<path fill="#939598" d="M71.265,219.064l9.892,4.957v0.759l-9.892-4.958V219.064z"/>
			<path fill="#939598" d="M79.789,215.476v2.597H72.31v-2.597c0-2.351,1.613-3.973,3.728-3.973
				C78.151,211.503,79.789,213.125,79.789,215.476z M73.09,215.476v1.753h5.918v-1.752c0-1.89-1.281-3.097-2.948-3.097
				C74.394,212.381,73.09,213.587,73.09,215.476z"/>
		</g>
		<g>
			<path fill="#939598" d="M202.684,206.593h-2.597v-7.479h2.597c2.35,0,3.974,1.612,3.974,3.728
				C206.656,204.957,205.033,206.593,202.684,206.593z M202.684,199.896h-1.752v5.918h1.752c1.89,0,3.099-1.28,3.099-2.947
				S204.574,199.896,202.684,199.896z"/>
			<path fill="#939598" d="M212.584,199.096h0.693l2.053,6.249l2.137-6.228h0.889l-2.672,7.531h-0.713l-2.053-6.068l-2.062,6.068
				h-0.703l-2.67-7.531h0.918l2.137,6.228L212.584,199.096z"/>
		</g>
		<g>
			<path fill="#939598" d="M284.854,129.69l-2.17-2.906h-2.138v2.906h-0.843v-7.479h3.215c1.645,0,2.701,0.889,2.701,2.233
				c0,1.25-0.854,1.978-2.03,2.189l2.298,3.057H284.854z M282.854,122.989h-2.307v3.034h2.297c1.121,0,1.924-0.576,1.924-1.551
				C284.766,123.545,284.062,122.989,282.854,122.989z"/>
			<path fill="#939598" d="M289.614,129.101c0.759,0,1.292-0.311,1.741-0.779l0.515,0.459c-0.556,0.62-1.229,1.037-2.276,1.037
				c-1.517,0-2.756-1.165-2.756-2.886c0-1.602,1.12-2.884,2.648-2.884c1.636,0,2.574,1.303,2.574,2.928c0,0.074,0,0.159-0.014,0.256
				h-4.379C287.786,128.429,288.643,129.101,289.614,129.101z M291.225,126.621c-0.084-1.003-0.66-1.878-1.761-1.878
				c-0.962,0-1.688,0.8-1.796,1.878H291.225z"/>
			<path fill="#939598" d="M296.371,124.188v0.704h-1.74v4.798h-0.822v-4.798h-0.761v-0.714h0.761v-0.481
				c0-1.208,0.607-1.848,1.664-1.848c0.387,0,0.644,0.044,0.91,0.139v0.717c-0.299-0.086-0.521-0.141-0.803-0.141
				c-0.641,0-0.959,0.385-0.959,1.178v0.447L296.371,124.188L296.371,124.188z"/>
		</g>
		<g>
			<path fill="#939598" d="M277.936,156.684h-1.453v2.108h-0.676v-5.979h2.238c1.352,0,2.239,0.718,2.239,1.905
				C280.283,156.019,279.205,156.684,277.936,156.684z M277.994,153.438h-1.514v2.633h1.479c0.989,0,1.64-0.531,1.64-1.324
				C279.6,153.883,278.958,153.438,277.994,153.438z"/>
			<path fill="#939598" d="M281.402,155.224l-0.196-0.538c0.483-0.224,0.966-0.368,1.606-0.368c1.203,0,1.877,0.615,1.877,1.778
				v2.699h-0.633v-0.666c-0.308,0.4-0.818,0.762-1.598,0.762c-0.818,0-1.646-0.461-1.646-1.384c0-0.94,0.77-1.435,1.886-1.435
				c0.563,0,0.966,0.077,1.358,0.188v-0.155c0-0.795-0.485-1.205-1.312-1.205C282.223,154.898,281.812,155.036,281.402,155.224z
				 M281.477,157.479c0,0.564,0.515,0.889,1.114,0.889c0.812,0,1.478-0.495,1.478-1.196v-0.427
				c-0.323-0.095-0.762-0.188-1.301-0.188C281.938,156.555,281.477,156.916,281.477,157.479z"/>
			<path fill="#939598" d="M286.491,158.794h-0.656v-4.416h0.656v0.77c0.29-0.477,0.753-0.861,1.513-0.861
				c1.066,0,1.691,0.716,1.691,1.767v2.741h-0.66v-2.579c0-0.82-0.444-1.333-1.223-1.333c-0.76,0-1.321,0.556-1.321,1.385V158.794
				L286.491,158.794z"/>
			<path fill="#939598" d="M291.729,157.54c0,0.538,0.299,0.732,0.744,0.732c0.221,0,0.41-0.041,0.642-0.153v0.564
				c-0.23,0.119-0.479,0.188-0.794,0.188c-0.711,0-1.25-0.35-1.25-1.246v-2.666h-0.612v-0.581h0.612v-1.333h0.662v1.333h1.399v0.581
				h-1.399v2.581H291.729z"/>
			<path fill="#939598" d="M294.691,158.794h-0.656v-4.416h0.656v1.153c0.326-0.732,0.968-1.265,1.805-1.23v0.709h-0.051
				c-0.965,0-1.752,0.693-1.752,2.024v1.76H294.691z"/>
			<path fill="#939598" d="M299.393,158.939c-0.377,0.913-0.805,1.246-1.471,1.246c-0.369,0-0.641-0.076-0.941-0.223l0.224-0.52
				c0.216,0.11,0.412,0.161,0.692,0.161c0.396,0,0.642-0.205,0.908-0.829l-2.009-4.398h0.726l1.607,3.682l1.418-3.682h0.703
				L299.393,158.939z"/>
		</g>
		<g>
			<path fill="#939598" d="M217.449,132.709h-1.359l-3.695-4.656l-2.045,2.073v2.581h-1.086v-9.611h1.086v5.739l5.521-5.739h1.399
				l-4.119,4.202L217.449,132.709z"/>
			<path fill="#939598" d="M218.982,124.057v-1.167h1.209v1.167H218.982z M219.052,132.709v-7.1h1.058v7.1H219.052z"/>
			<path fill="#939598" d="M223.996,130.688c0,0.865,0.48,1.181,1.193,1.181c0.357,0,0.66-0.068,1.031-0.247v0.905
				c-0.371,0.192-0.77,0.303-1.277,0.303c-1.141,0-2.006-0.563-2.006-2.005v-4.283h-0.988v-0.934h0.988v-2.141h1.059v2.141h2.253
				v0.934h-2.253V130.688z"/>
			<path fill="#939598" d="M231.109,132.874c-2.073,0-3.641-1.689-3.641-3.693c0-2.02,1.565-3.722,3.641-3.722
				c1.345,0,2.184,0.562,2.843,1.263l-0.7,0.74c-0.562-0.59-1.195-1.069-2.156-1.069c-1.441,0-2.543,1.222-2.543,2.76
				c0,1.551,1.127,2.773,2.608,2.773c0.907,0,1.606-0.452,2.169-1.058l0.673,0.633C233.291,132.297,232.439,132.874,231.109,132.874
				z"/>
			<path fill="#939598" d="M236.807,132.709h-1.058v-10.026h1.058v4.163c0.465-0.77,1.207-1.387,2.43-1.387
				c1.716,0,2.72,1.152,2.72,2.843v4.408h-1.058v-4.146c0-1.318-0.713-2.142-1.963-2.142c-1.223,0-2.129,0.892-2.129,2.224V132.709
				L236.807,132.709z"/>
			<path fill="#939598" d="M247.336,131.953c0.975,0,1.662-0.397,2.238-1.003l0.658,0.592c-0.713,0.796-1.578,1.331-2.924,1.331
				c-1.949,0-3.543-1.497-3.543-3.71c0-2.058,1.441-3.707,3.405-3.707c2.101,0,3.31,1.675,3.31,3.764c0,0.097,0,0.205-0.014,0.329
				h-5.63C244.986,131.088,246.087,131.953,247.336,131.953z M249.409,128.767c-0.11-1.289-0.851-2.416-2.265-2.416
				c-1.238,0-2.17,1.029-2.308,2.416H249.409z"/>
			<path fill="#939598" d="M253.391,132.709h-1.058v-7.1h1.058v1.236c0.467-0.77,1.209-1.387,2.43-1.387
				c1.719,0,2.722,1.152,2.722,2.843v4.408h-1.056v-4.146c0-1.318-0.717-2.142-1.965-2.142c-1.225,0-2.131,0.892-2.131,2.224
				V132.709L253.391,132.709z"/>
		</g>
		<g>
			<path fill="#939598" d="M90.286,185.965c0,2.159-1.698,3.75-3.856,3.75c-2.137,0-3.877-1.582-3.877-3.782
				c0-1.355,0.481-2.169,1.185-2.916l0.619,0.577c-0.598,0.631-1.025,1.335-1.025,2.351c0,1.655,1.334,2.895,3.076,2.895
				c1.741,0,3.099-1.249,3.099-2.895c0-1.025-0.396-1.699-1.079-2.414l0.544-0.556C89.763,183.753,90.286,184.609,90.286,185.965z"
				/>
			<path fill="#939598" d="M90.158,181.568h-7.799v-0.822h7.799V181.568z"/>
			<path fill="#939598" d="M90.286,176.313c0,1.655-1.303,2.864-2.873,2.864c-1.572,0-2.895-1.217-2.895-2.885
				c0-1.654,1.303-2.873,2.873-2.873C88.962,173.418,90.286,174.647,90.286,176.313z M85.245,176.313
				c0,1.196,0.95,2.021,2.147,2.021c1.197,0,2.159-0.878,2.159-2.041c0-1.198-0.95-2.03-2.135-2.03
				C86.207,174.263,85.245,175.148,85.245,176.313z"/>
			<path fill="#939598" d="M90.266,170.109c0,0.791-0.311,1.668-0.812,2.287l-0.587-0.415c0.448-0.598,0.705-1.261,0.705-1.912
				c0-0.664-0.342-1.145-0.876-1.145h-0.021c-0.556,0-0.77,0.651-0.972,1.378c-0.246,0.863-0.544,1.827-1.559,1.827h-0.021
				c-0.952,0-1.582-0.791-1.582-1.88c0-0.674,0.235-1.421,0.609-1.989l0.618,0.376c-0.331,0.513-0.534,1.101-0.534,1.634
				c0,0.651,0.342,1.068,0.802,1.068h0.021c0.523,0,0.727-0.684,0.952-1.421c0.257-0.855,0.588-1.773,1.581-1.773h0.021
				C89.657,168.145,90.266,169.011,90.266,170.109z"/>
			<path fill="#939598" d="M89.572,164.183c0-0.759-0.31-1.292-0.779-1.742l0.459-0.513c0.619,0.555,1.036,1.229,1.036,2.276
				c0,1.517-1.163,2.756-2.885,2.756c-1.602,0-2.884-1.121-2.884-2.65c0-1.633,1.303-2.573,2.928-2.573c0.074,0,0.16,0,0.256,0.01
				v4.381C88.899,166.01,89.572,165.156,89.572,164.183z M87.092,162.57c-1.003,0.085-1.879,0.663-1.879,1.764
				c0,0.961,0.801,1.687,1.879,1.795V162.57z"/>
			<path fill="#939598" d="M88.589,159.188c0.672,0,0.92-0.375,0.92-0.93c0-0.277-0.053-0.513-0.192-0.802h0.704
				c0.15,0.289,0.235,0.601,0.235,0.993c0,0.889-0.437,1.561-1.559,1.561h-3.333v0.768h-0.728v-0.768H82.97v-0.822h1.666v-1.752
				h0.728v1.752H88.589z"/>
		</g>
		<g>
			<path fill="#939598" d="M411.989,237.106c-2.158,0-3.75-1.701-3.75-3.857c0-2.139,1.581-3.878,3.784-3.878
				c1.355,0,2.168,0.48,2.916,1.186l-0.578,0.618c-0.629-0.598-1.336-1.025-2.353-1.025c-1.652,0-2.893,1.335-2.893,3.078
				c0,1.741,1.247,3.097,2.893,3.097c1.028,0,1.7-0.395,2.417-1.079l0.555,0.545C414.202,236.582,413.348,237.106,411.989,237.106z"
				/>
			<path fill="#939598" d="M416.387,236.978v-7.8h0.822v7.8H416.387z"/>
			<path fill="#939598" d="M421.641,237.106c-1.652,0-2.862-1.305-2.862-2.875s1.219-2.896,2.887-2.896
				c1.655,0,2.874,1.303,2.874,2.874C424.538,235.78,423.309,237.106,421.641,237.106z M421.641,232.063
				c-1.194,0-2.018,0.95-2.018,2.147c0,1.196,0.876,2.159,2.041,2.159c1.195,0,2.029-0.951,2.029-2.138
				C423.693,233.023,422.808,232.063,421.641,232.063z"/>
			<path fill="#939598" d="M427.845,237.084c-0.789,0-1.665-0.311-2.284-0.812l0.414-0.587c0.602,0.448,1.264,0.705,1.913,0.705
				c0.665,0,1.146-0.342,1.146-0.875v-0.021c0-0.557-0.652-0.77-1.379-0.973c-0.863-0.246-1.825-0.545-1.825-1.559v-0.021
				c0-0.952,0.79-1.583,1.879-1.583c0.673,0,1.422,0.236,1.986,0.609l-0.372,0.619c-0.515-0.331-1.102-0.533-1.636-0.533
				c-0.65,0-1.067,0.341-1.067,0.802v0.021c0,0.522,0.685,0.725,1.421,0.951c0.854,0.256,1.772,0.586,1.772,1.58v0.021
				C429.812,236.476,428.947,237.084,427.845,237.084z"/>
			<path fill="#939598" d="M433.772,236.39c0.759,0,1.293-0.311,1.741-0.779l0.513,0.46c-0.555,0.618-1.229,1.036-2.272,1.036
				c-1.52,0-2.76-1.165-2.76-2.886c0-1.602,1.123-2.884,2.649-2.884c1.636,0,2.575,1.303,2.575,2.928c0,0.074,0,0.159-0.012,0.255
				h-4.38C431.944,235.717,432.8,236.39,433.772,236.39z M435.385,233.911c-0.086-1.004-0.663-1.878-1.763-1.878
				c-0.962,0-1.688,0.8-1.794,1.878H435.385z"/>
			<path fill="#939598" d="M438.768,235.405c0,0.673,0.376,0.919,0.93,0.919c0.277,0,0.514-0.053,0.802-0.191v0.705
				c-0.288,0.149-0.599,0.234-0.992,0.234c-0.887,0-1.562-0.438-1.562-1.559v-3.334h-0.769v-0.727h0.769v-1.667h0.822v1.667h1.752
				v0.727h-1.752V235.405L438.768,235.405z"/>
		</g>
		<g>
			<path fill="#939598" d="M362.418,181.051c0,1.265-0.77,1.908-1.525,2.238c1.143,0.343,2.062,1.003,2.062,2.334
				c0,1.661-1.386,2.638-3.485,2.638h-4.273v-9.612h4.096C361.184,178.646,362.418,179.579,362.418,181.051z M361.32,181.201
				c0-0.96-0.756-1.578-2.131-1.578h-2.924v3.308h2.842C360.414,182.931,361.32,182.341,361.32,181.201z M361.855,185.555
				c0-1.056-0.877-1.661-2.556-1.661h-3.034v3.394h3.227C360.947,187.285,361.855,186.641,361.855,185.555z"/>
			<path fill="#939598" d="M365.34,182.52l-0.316-0.865c0.785-0.357,1.553-0.59,2.582-0.59c1.938,0,3.021,0.987,3.021,2.857v4.339
				h-1.018v-1.07c-0.493,0.646-1.315,1.221-2.568,1.221c-1.316,0-2.646-0.74-2.646-2.225c0-1.509,1.236-2.307,3.032-2.307
				c0.909,0,1.554,0.123,2.185,0.302v-0.246c0-1.276-0.782-1.936-2.113-1.936C366.659,181.999,366.001,182.217,365.34,182.52z
				 M365.463,186.146c0,0.906,0.824,1.428,1.787,1.428c1.302,0,2.373-0.796,2.373-1.922v-0.687
				c-0.521-0.149-1.223-0.303-2.085-0.303C366.206,184.66,365.463,185.24,365.463,186.146z"/>
			<path fill="#939598" d="M374.236,186.241c0,0.865,0.48,1.182,1.193,1.182c0.356,0,0.66-0.068,1.032-0.248v0.905
				c-0.372,0.192-0.771,0.303-1.278,0.303c-1.141,0-2.004-0.563-2.004-2.006v-4.284h-0.986v-0.935h0.986v-2.139h1.057v2.14h2.254
				v0.935h-2.254V186.241z"/>
			<path fill="#939598" d="M379.414,188.26h-1.059v-10.025h1.059v4.162c0.468-0.77,1.21-1.387,2.432-1.387
				c1.717,0,2.721,1.152,2.721,2.844v4.407h-1.06v-4.148c0-1.318-0.715-2.142-1.964-2.142c-1.223,0-2.13,0.892-2.13,2.224
				L379.414,188.26L379.414,188.26z"/>
		</g>
		<g>
			<path fill="#939598" d="M234.625,308.3c2.143,0.468,3.132,1.248,3.132,2.733c0,1.661-1.373,2.731-3.282,2.731
				c-1.524,0-2.773-0.507-3.929-1.539l0.672-0.795c1.003,0.905,1.964,1.36,3.298,1.36c1.289,0,2.141-0.673,2.141-1.649
				c0-0.905-0.481-1.413-2.5-1.84c-2.211-0.479-3.227-1.192-3.227-2.786c0-1.539,1.332-2.638,3.157-2.638
				c1.399,0,2.405,0.397,3.38,1.181l-0.632,0.838c-0.892-0.729-1.784-1.045-2.774-1.045c-1.25,0-2.045,0.688-2.045,1.565
				C232.016,307.339,232.51,307.848,234.625,308.3z"/>
			<path fill="#939598" d="M241.146,311.611c0,0.863,0.481,1.179,1.195,1.179c0.356,0,0.659-0.068,1.029-0.248v0.908
				c-0.37,0.19-0.77,0.301-1.275,0.301c-1.141,0-2.005-0.562-2.005-2.005v-4.286h-0.987v-0.931h0.987v-2.144h1.058v2.144h2.252
				v0.931h-2.252v4.151H241.146z"/>
			<path fill="#939598" d="M250.307,306.529h1.043v7.1h-1.043v-1.238c-0.48,0.771-1.209,1.389-2.431,1.389
				c-1.716,0-2.72-1.154-2.72-2.843v-4.408h1.057v4.146c0,1.318,0.713,2.143,1.963,2.143c1.208,0,2.129-0.894,2.129-2.225v-4.063
				H250.307z"/>
			<path fill="#939598" d="M259.421,313.629v-1.431c-0.575,0.853-1.412,1.58-2.718,1.58c-1.702,0-3.395-1.346-3.395-3.694
				c0-2.336,1.689-3.71,3.395-3.71c1.316,0,2.17,0.716,2.718,1.512V303.6h1.058v10.024h-1.058V313.629z M256.896,307.325
				c-1.373,0-2.502,1.015-2.502,2.746c0,1.688,1.154,2.76,2.502,2.76c1.316,0,2.569-1.098,2.569-2.76
				C259.463,308.424,258.214,307.325,256.896,307.325z"/>
			<path fill="#939598" d="M262.867,304.977v-1.168h1.207v1.168H262.867z M262.934,313.629v-7.1h1.059v7.1H262.934z"/>
			<path fill="#939598" d="M269.691,313.795c-2.133,0-3.684-1.677-3.684-3.695c0-2.018,1.565-3.723,3.709-3.723
				c2.129,0,3.694,1.677,3.694,3.696C273.412,312.09,271.833,313.795,269.691,313.795z M269.691,307.312
				c-1.541,0-2.598,1.222-2.598,2.762c0,1.539,1.124,2.772,2.623,2.772c1.539,0,2.609-1.224,2.609-2.747
				C272.327,308.547,271.188,307.312,269.691,307.312z"/>
			<path fill="#939598" d="M210.311,323.279l-0.795-0.577c0.864-1.29,1.771-2.046,3.461-2.046c1.744,0,2.98,1.153,2.98,2.732
				c0,1.414-0.742,2.28-2.434,3.749l-2.566,2.279h5.096v0.987h-6.716v-0.837l3.489-3.076c1.469-1.318,2.005-2.062,2.005-3.021
				c0-1.125-0.894-1.842-1.938-1.842C211.796,321.632,211.081,322.209,210.311,323.279z"/>
			<path fill="#939598" d="M217.671,320.794h6.522v0.812l-4.367,8.806h-1.208l4.34-8.625h-5.287V320.794z"/>
			<path fill="#939598" d="M226.225,320.794h1.291v0.069l-1.113,3.665h-0.59L226.225,320.794z"/>
			<path fill="#939598" d="M235.259,320.727v6.495h1.496v0.91h-1.496v2.278h-1.044v-2.278h-5.066l-0.274-0.785l5.438-6.618h0.947
				L235.259,320.727L235.259,320.727z M234.214,322.263l-4.036,4.957h4.036V322.263z"/>
			<path fill="#939598" d="M238.8,320.794h1.277v0.069l-1.112,3.665h-0.576L238.8,320.794z M241.491,320.794h1.265v0.069
				l-1.111,3.665h-0.578L241.491,320.794z"/>
			<path fill="#939598" d="M255,330.408h-1.223l-2.198-2.897l-2.209,2.897h-1.181l2.789-3.612l-2.678-3.487h1.209l2.102,2.747
				l2.102-2.747h1.18l-2.691,3.461L255,330.408z"/>
			<path fill="#939598" d="M261.286,323.279l-0.796-0.577c0.863-1.29,1.771-2.046,3.46-2.046c1.745,0,2.981,1.153,2.981,2.732
				c0,1.414-0.742,2.28-2.433,3.749l-2.569,2.279h5.096v0.987h-6.715v-0.837l3.488-3.076c1.469-1.318,2.004-2.062,2.004-3.021
				c0-1.125-0.893-1.842-1.938-1.842C262.77,321.632,262.055,322.209,261.286,323.279z"/>
			<path fill="#939598" d="M272.779,330.574c-2.485,0-4.051-2.252-4.051-4.958c0-2.702,1.592-4.986,4.078-4.986
				c2.471,0,4.036,2.253,4.036,4.959C276.844,328.291,275.252,330.574,272.779,330.574z M272.779,321.617
				c-1.801,0-2.926,1.841-2.926,3.971s1.153,3.996,2.953,3.996c1.799,0,2.91-1.855,2.91-3.97
				C275.717,323.501,274.576,321.617,272.779,321.617z"/>
			<path fill="#939598" d="M278.995,320.794h1.293v0.069l-1.111,3.665h-0.59L278.995,320.794z"/>
			<path fill="#939598" d="M281.989,320.794h6.521v0.812l-4.363,8.806h-1.211l4.34-8.625h-5.286V320.794L281.989,320.794z"/>
			<path fill="#939598" d="M290.544,320.794h1.274v0.069l-1.111,3.665h-0.576L290.544,320.794z M293.232,320.794h1.265v0.069
				l-1.11,3.665h-0.576L293.232,320.794z"/>
		</g>
		<g>
			<path fill="#939598" d="M361.005,111.533h0.847v6.699h4.209v0.78h-5.054v-7.479H361.005L361.005,111.533z"/>
			<path fill="#939598" d="M367.497,112.282v-0.911h0.94v0.909h-0.94V112.282z M367.551,119.013v-5.524h0.822v5.524H367.551z"/>
			<path fill="#939598" d="M371.107,119.013h-0.822v-5.524h0.822v0.961c0.363-0.599,0.938-1.08,1.889-1.08
				c1.338,0,2.115,0.896,2.115,2.212v3.43h-0.82v-3.227c0-1.025-0.557-1.665-1.529-1.665c-0.949,0-1.654,0.692-1.654,1.729V119.013
				L371.107,119.013z"/>
			<path fill="#939598" d="M379.298,118.425c0.757,0,1.293-0.311,1.742-0.779l0.515,0.459c-0.555,0.619-1.229,1.036-2.277,1.036
				c-1.516,0-2.756-1.164-2.756-2.885c0-1.602,1.121-2.885,2.648-2.885c1.635,0,2.574,1.302,2.574,2.928
				c0,0.073,0,0.158-0.014,0.256h-4.379C377.469,117.752,378.325,118.425,379.298,118.425z M380.909,115.945
				c-0.085-1.004-0.661-1.879-1.763-1.879c-0.961,0-1.687,0.8-1.795,1.879H380.909z"/>
			<path fill="#939598" d="M384.007,119.013h-0.823v-5.524h0.823v0.961c0.361-0.599,0.938-1.08,1.89-1.08
				c1.336,0,2.115,0.896,2.115,2.212v3.43h-0.82v-3.227c0-1.025-0.557-1.665-1.529-1.665c-0.949,0-1.654,0.692-1.654,1.729
				L384.007,119.013L384.007,119.013z"/>
		</g>
		<g>
			<path fill="#939598" d="M122.068,106.836h-4.562v2.553h4.08v0.77h-4.08v2.616h4.615v0.771h-5.459v-7.479h5.406V106.836
				L122.068,106.836z"/>
			<path fill="#939598" d="M124.502,113.545h-0.822v-5.523h0.822v0.961c0.363-0.599,0.94-1.08,1.891-1.08
				c1.335,0,2.116,0.896,2.116,2.212v3.429h-0.824v-3.224c0-1.025-0.555-1.666-1.527-1.666c-0.95,0-1.654,0.693-1.654,1.729v3.162
				H124.502z"/>
			<path fill="#939598" d="M131.366,111.974c0,0.671,0.375,0.919,0.929,0.919c0.278,0,0.513-0.054,0.801-0.192v0.705
				c-0.289,0.15-0.597,0.235-0.994,0.235c-0.887,0-1.558-0.438-1.558-1.56v-3.333h-0.769v-0.728h0.769v-1.666h0.822v1.666h1.753
				v0.728h-1.753V111.974z"/>
			<path fill="#939598" d="M135.393,113.545h-0.823v-5.523h0.823v1.442c0.405-0.919,1.207-1.582,2.255-1.54v0.888h-0.064
				c-1.208,0-2.19,0.866-2.19,2.533L135.393,113.545L135.393,113.545z"/>
			<path fill="#939598" d="M141.587,113.726c-0.471,1.145-1.005,1.56-1.839,1.56c-0.46,0-0.8-0.098-1.176-0.277l0.277-0.652
				c0.268,0.139,0.514,0.203,0.865,0.203c0.491,0,0.801-0.257,1.132-1.037l-2.511-5.502h0.91l2.007,4.604l1.774-4.604h0.875
				L141.587,113.726z"/>
		</g>
	</g>
</g>
</svg>
