<?xml version="1.0" encoding="utf-8"?>
<!-- Generator: Adobe Illustrator 15.0.2, SVG Export Plug-In . SVG Version: 6.00 Build 0)  -->
<!DOCTYPE svg PUBLIC "-//W3C//DTD SVG 1.1//EN" "http://www.w3.org/Graphics/SVG/1.1/DTD/svg11.dtd">
<svg version="1.1" id="Layer_1" xmlns="http://www.w3.org/2000/svg" xmlns:xlink="http://www.w3.org/1999/xlink" x="0px" y="0px"
	 width="495px" height="226.492px" viewBox="2.5 137.168 495 226.492" enable-background="new 2.5 137.168 495 226.492"
	 xml:space="preserve">
<g id="_x32_0_x25___PMS_2985_fill" display="none">
	<polygon display="inline" fill="#EBEEEF" points="2.713,19.591 2.713,210.257 448.175,210.257 448.175,180.257 458.713,180.257 
		458.713,16.924 236.198,16.924 236.198,8.258 98.584,8.258 98.584,18.258 	"/>
</g>
<g>
	<g id="_x32_0_x25__grey_fill">
		<rect x="60.979" y="345.023" fill="#D1D3D4" width="26.309" height="16.125"/>
		<rect x="108.071" y="143.642" fill="#D1D3D4" width="53.414" height="16.415"/>
	</g>
	<g id="icons">
		<g>
			<g>
				<rect x="60.082" y="294.061" fill="#FFFFFF" stroke="#939598" width="25.396" height="49.118"/>
				<path fill="#FFFFFF" stroke="#939598" d="M72.78,318.62"/>
				<path fill="#FFFFFF" stroke="#939598" d="M72.78,318.788"/>
				<path fill="#FFFFFF" stroke="#939598" d="M72.78,335.441"/>
			</g>
			<circle fill="#FFFFFF" stroke="#939598" cx="72.9" cy="331.984" r="1.041"/>
			<path fill="#FFFFFF" stroke="#939598" d="M72.858,296.863c-7.279,0-9.944,1.681-9.944,4.033c0,0,0,35.301,0,35.879
				c0,0.573,0.156,1.764,1.678,1.764c1.524,0,8.266,0,8.266,0h0.018c0,0,6.742,0,8.267,0c1.522,0,1.678-1.188,1.678-1.764
				c0-0.578,0-35.854,0-35.854l-0.002-0.022C82.817,298.544,80.092,296.863,72.858,296.863z"/>
			<path fill="#FFFFFF" stroke="#939598" d="M70.716,340.365c0.002-0.59-0.473-1.062-1.069-1.062c-0.577,0-1.056,0.474-1.06,1.062
				c0.004,0.586,0.483,1.069,1.06,1.069C70.242,341.436,70.717,340.958,70.716,340.365z"/>
			<path fill="#FFFFFF" stroke="#939598" d="M77.317,340.365c0.006-0.59-0.478-1.062-1.064-1.062c-0.584,0-1.064,0.474-1.064,1.062
				c0,0.586,0.48,1.069,1.064,1.062C76.841,341.436,77.317,340.951,77.317,340.365z"/>
			<path fill="#FFFFFF" stroke="#939598" d="M71.467,340.68c0,0.872,0.59,1.58,1.463,1.582c0.872-0.002,1.347-0.707,1.347-1.582
				l-0.56-6.011c0-0.591-1.593-0.591-1.593,0L71.467,340.68z"/>
		</g>
		<g>
			<polygon fill="none" stroke="#939598" points="352.861,361.91 351.066,361.925 351.051,336.32 352.869,336.307 			"/>
			<path fill="none" stroke="#939598" d="M352.014,336.285c-14.098,0.479-25.137,12.136-24.656,26.229"/>
		</g>
		<g>
			<polygon fill="none" stroke="#939598" points="140.293,257.654 140.284,255.949 115.96,255.932 115.968,257.639 			"/>
			<path fill="none" stroke="#939598" d="M115.949,256.87c0.455-13.394,11.464-23.718,24.855-23.261"/>
		</g>
		<g>
			<polygon fill="none" stroke="#939598" points="54.989,291.922 53.196,291.908 53.178,317.514 54.997,317.525 			"/>
			<path fill="none" stroke="#939598" d="M54.141,317.548c-14.097-0.479-25.136-12.136-24.656-26.231"/>
		</g>
		<g>
			<g>
				<polygon fill="none" stroke="#939598" points="300.285,351.52 300.292,350.17 315.126,350.158 315.119,351.512 				"/>
				<path fill="none" stroke="#939598" d="M315.132,351.042c-0.274-8.167-6.991-14.562-15.157-14.283"/>
			</g>
			<g>
				<polygon fill="none" stroke="#939598" points="300.285,321.923 300.292,323.273 315.126,323.287 315.119,321.932 				"/>
				<path fill="none" stroke="#939598" d="M315.132,322.398c-0.274,8.168-6.991,14.562-15.157,14.284"/>
			</g>
		</g>
		<g>
			<polygon fill="none" stroke="#939598" points="96.219,291.922 98.014,291.908 98.031,317.514 96.212,317.525 			"/>
			<path fill="none" stroke="#939598" d="M97.067,317.548c14.097-0.479,25.136-12.136,24.656-26.231"/>
		</g>
		<g>
			<polygon fill="none" stroke="#939598" points="300.748,305.316 300.757,303.611 325.078,303.596 325.072,305.303 			"/>
			<path fill="none" stroke="#939598" d="M325.09,304.533c-0.454-13.393-11.464-23.881-24.854-23.422"/>
		</g>
		<g>
			<polygon fill="none" stroke="#939598" points="442.287,263.105 444.083,263.093 444.099,288.697 442.279,288.711 			"/>
			<path fill="none" stroke="#939598" d="M443.136,288.73c14.097-0.479,25.138-12.137,24.655-26.231"/>
		</g>
		<g>
			<polygon fill="none" stroke="#939598" points="363.002,295.648 364.264,294.369 382.38,312.462 381.105,313.759 			"/>
			<path fill="none" stroke="#939598" d="M381.723,313.169c9.629-10.306,9.193-26.354-1.115-35.983"/>
		</g>
		<g>
			<polygon fill="none" stroke="#939598" points="392.266,256.604 390.986,255.344 409.08,237.227 410.376,238.503 			"/>
			<path fill="none" stroke="#939598" d="M409.783,237.882c-10.307-9.628-26.354-9.19-35.982,1.115"/>
		</g>
		<g>
			<g>
				<g>
					<g>
						<rect x="276.258" y="282.316" fill="#FFFFFF" stroke="#939598" width="19.936" height="21.701"/>
						<path fill="#FFFFFF" stroke="#939598" d="M286.889,293.167"/>
						<polyline fill="#FFFFFF" stroke="#939598" points="290.244,286.583 293.279,286.583 293.986,289.203 293.986,297.23 
							293.279,299.886 290.244,299.886 						"/>
						<line fill="none" stroke="#939598" x1="290.244" y1="304.174" x2="290.244" y2="282.316"/>
						<path fill="#FFFFFF" stroke="#939598" d="M287.904,293.234"/>
					</g>
				</g>
			</g>
			<polygon fill="#FFFFFF" stroke="#939598" points="291.553,302.962 291.559,301.21 290.335,300.824 290.328,303.348 			"/>
		</g>
		<line fill="none" stroke="#939598" x1="287.67" y1="360.074" x2="287.67" y2="312.754"/>
		
			<line fill="none" stroke="#939598" stroke-dasharray="1.5,1.5,1.5,1.5,1.5,1.5" x1="285.127" y1="360.074" x2="285.127" y2="312.62"/>
		<polygon fill="#FFFFFF" stroke="#939598" points="25.61,324.956 25.61,291.99 6.752,291.99 6.752,325.316 		"/>
		<g>
			<path fill="#FFFFFF" stroke="#939598" stroke-miterlimit="10" d="M39.738,344.729c0-4.797,2.915-10.079,6.507-10.079
				c3.592,0,6.494,5.282,6.494,10.079c0,4.8-2.902,7.296-6.494,7.296C42.653,352.023,39.738,349.525,39.738,344.729"/>
			<path fill="#FFFFFF" stroke="#939598" d="M39.738,344.729c0-4.797,2.915-10.079,6.507-10.079c3.592,0,6.494,5.282,6.494,10.079
				c0,4.8-2.902,7.296-6.494,7.296C42.653,352.023,39.738,349.525,39.738,344.729z"/>
			<path fill="#FFFFFF" stroke="#939598" stroke-miterlimit="10" d="M50.14,350.449c0-0.269,0.22-0.488,0.489-0.488h2.266
				c0.269,0,0.489,0.221,0.489,0.488v0.082c0,0.269-0.22,0.487-0.489,0.487h-2.266c-0.269,0-0.489-0.221-0.489-0.487V350.449z"/>
			<path fill="#FFFFFF" stroke="#939598" d="M50.14,350.449c0-0.269,0.22-0.488,0.489-0.488h2.266c0.269,0,0.489,0.221,0.489,0.488
				v0.082c0,0.269-0.22,0.487-0.489,0.487h-2.266c-0.269,0-0.489-0.221-0.489-0.487V350.449z"/>
			<path fill="#FFFFFF" stroke="#939598" stroke-miterlimit="10" d="M53.729,351.033c0.814,0,1.478,2.212,1.478,3.026
				c0,0.828-0.664,3.037-1.478,3.037H38.878c-0.817,0-1.478-2.212-1.478-3.037c0-0.817,0.661-3.023,1.478-3.023L53.729,351.033z"/>
			<path fill="#FFFFFF" stroke="#939598" d="M53.729,351.033c0.814,0,1.478,2.212,1.478,3.026c0,0.828-0.664,3.037-1.478,3.037
				H38.878c-0.817,0-1.478-2.212-1.478-3.037c0-0.817,0.661-3.023,1.478-3.023L53.729,351.033z"/>
			<path fill="#FFFFFF" stroke="#939598" stroke-miterlimit="10" d="M41.462,344.525c0-3.523,2.142-7.41,4.783-7.41
				s4.78,3.885,4.78,7.41s-2.139,5.358-4.78,5.358C43.603,349.886,41.462,348.053,41.462,344.525"/>
			<path fill="#FFFFFF" stroke="#939598" d="M41.462,344.525c0-3.523,2.142-7.41,4.783-7.41s4.78,3.885,4.78,7.41
				s-2.139,5.358-4.78,5.358C43.603,349.886,41.462,348.053,41.462,344.525z"/>
		</g>
		<g>
			<g>
				<g>
					<path fill="none" stroke="#939598" d="M18.476,308.461"/>
				</g>
				<g>
					<path fill="none" stroke="#939598" d="M17.335,308.461"/>
				</g>
				<g>
					<circle fill="none" stroke="#939598" cx="18.476" cy="308.459" r="1.094"/>
					<path fill="none" stroke="#939598" d="M18.476,308.461"/>
				</g>
				<g>
					<g>
						<rect x="9.339" y="303.875" fill="none" stroke="#939598" width="2.284" height="9.193"/>
						<path fill="none" stroke="#939598" d="M10.482,308.461"/>
					</g>
					<g>
						<rect x="11.724" y="307.975" fill="none" stroke="#939598" width="4.333" height="0.974"/>
						<path fill="none" stroke="#939598" d="M13.521,308.461"/>
					</g>
					<g>
						<circle fill="none" stroke="#939598" cx="10.503" cy="308.461" r="1.061"/>
						<path fill="none" stroke="#939598" d="M10.503,308.461"/>
					</g>
				</g>
			</g>
			<g>
				<rect x="8.989" y="299.293" fill="none" stroke="#939598" width="14.916" height="18.355"/>
				<rect x="11.677" y="300.791" fill="none" stroke="#939598" width="10.729" height="15.324"/>
			</g>
		</g>
		<g>
			<g>
				<polygon fill="none" stroke="#939598" points="24.849,352.857 24.852,351.611 35.237,351.605 35.232,352.854 				"/>
				<path fill="none" stroke="#939598" d="M35.241,352.523c-0.192-5.718-4.894-10.192-10.61-9.998"/>
			</g>
			<g>
				<polygon fill="none" stroke="#939598" points="24.849,332.141 24.852,333.48 35.237,333.486 35.232,332.146 				"/>
				<path fill="none" stroke="#939598" d="M35.241,332.477c-0.192,5.718-4.894,10.192-10.61,9.998"/>
			</g>
		</g>
		<polyline fill="none" stroke="#939598" points="87.825,348.605 127.779,348.605 127.779,293.242 		"/>
		<polyline fill="none" stroke="#939598" stroke-dasharray="1.5,1.5,1.5,1.5,1.5,1.5" points="130.448,292.886 130.448,351.115 
			88.72,351.115 		"/>
		
			<line fill="none" stroke="#939598" stroke-dasharray="1.5,1.5,1.5,1.5,1.5,1.5" x1="482.526" y1="348.652" x2="439.347" y2="348.652"/>
		
			<line fill="none" stroke="#939598" stroke-dasharray="1.5,1.5,1.5,1.5,1.5,1.5" x1="484.855" y1="264.936" x2="484.855" y2="328.539"/>
		<line fill="none" stroke="#939598" x1="482.705" y1="346.457" x2="439.526" y2="346.457"/>
		<line fill="none" stroke="#939598" x1="482.648" y1="264.756" x2="482.648" y2="329.436"/>
		<g>
			<rect x="252.365" y="145.321" fill="none" stroke="#939598" width="3.092" height="3.09"/>
			<line fill="none" stroke="#939598" x1="159.501" y1="147.606" x2="252.365" y2="147.606"/>
			<line fill="none" stroke="#939598" x1="252.389" y1="148.411" x2="252.389" y2="154.479"/>
			<line fill="none" stroke="#939598" x1="255.457" y1="148.411" x2="255.457" y2="154.748"/>
			<line fill="none" stroke="#939598" x1="252.365" y1="145.321" x2="159.232" y2="145.321"/>
		</g>
		<polygon fill="#FFFFFF" stroke="#939598" points="397.869,359.781 397.869,339.713 358.486,339.713 358.486,359.977 		"/>
		<g>
			<path fill="#FFFFFF" stroke="#939598" stroke-miterlimit="10" d="M411.926,279.163c0,4.796,2.915,10.077,6.507,10.077
				c3.595,0,6.494-5.281,6.494-10.077c0-4.798-2.899-7.294-6.494-7.294C414.841,271.869,411.926,274.365,411.926,279.163"/>
			<path fill="#FFFFFF" stroke="#939598" d="M411.926,279.163c0,4.796,2.915,10.077,6.507,10.077c3.595,0,6.494-5.281,6.494-10.077
				c0-4.798-2.899-7.294-6.494-7.294C414.841,271.869,411.926,274.365,411.926,279.163z"/>
			<path fill="#FFFFFF" stroke="#939598" stroke-miterlimit="10" d="M422.326,273.441c0,0.269,0.221,0.488,0.488,0.488h2.267
				c0.269,0,0.489-0.222,0.489-0.488v-0.084c0-0.27-0.223-0.488-0.489-0.488h-2.267c-0.27,0-0.488,0.221-0.488,0.488V273.441z"/>
			<path fill="#FFFFFF" stroke="#939598" d="M422.326,273.441c0,0.269,0.221,0.488,0.488,0.488h2.267
				c0.269,0,0.489-0.222,0.489-0.488v-0.084c0-0.27-0.223-0.488-0.489-0.488h-2.267c-0.27,0-0.488,0.221-0.488,0.488V273.441z"/>
			<path fill="#FFFFFF" stroke="#939598" stroke-miterlimit="10" d="M425.915,272.857c0.812,0,1.478-2.213,1.478-3.026
				c0-0.827-0.662-3.038-1.478-3.038h-14.851c-0.816,0-1.479,2.212-1.479,3.038c0,0.815,0.661,3.024,1.479,3.024L425.915,272.857z"
				/>
			<path fill="#FFFFFF" stroke="#939598" d="M425.915,272.857c0.812,0,1.478-2.213,1.478-3.026c0-0.827-0.662-3.038-1.478-3.038
				h-14.851c-0.816,0-1.479,2.212-1.479,3.038c0,0.815,0.661,3.024,1.479,3.024L425.915,272.857z"/>
			<path fill="#FFFFFF" stroke="#939598" stroke-miterlimit="10" d="M413.65,279.361c0,3.524,2.142,7.41,4.78,7.41
				c2.644,0,4.781-3.883,4.781-7.41c0-3.524-2.14-5.357-4.781-5.357C415.791,274.004,413.65,275.837,413.65,279.361"/>
			<path fill="#FFFFFF" stroke="#939598" d="M413.65,279.361c0,3.524,2.142,7.41,4.78,7.41c2.644,0,4.781-3.883,4.781-7.41
				c0-3.524-2.14-5.357-4.781-5.357C415.791,274.004,413.65,275.837,413.65,279.361z"/>
		</g>
		<g>
			<g>
				<g>
					<path fill="none" stroke="#939598" d="M381.836,347.801"/>
				</g>
				<g>
					<path fill="none" stroke="#939598" d="M381.836,348.941"/>
				</g>
				<g>
					<circle fill="none" stroke="#939598" cx="381.836" cy="347.8" r="1.093"/>
					<path fill="none" stroke="#939598" d="M381.836,347.801"/>
				</g>
				<g>
					<g>
						<rect x="377.229" y="354.652" fill="none" stroke="#939598" width="9.192" height="2.285"/>
						<path fill="none" stroke="#939598" d="M381.836,355.796"/>
					</g>
					<g>
						<rect x="381.35" y="350.22" fill="none" stroke="#939598" width="0.976" height="4.333"/>
						<path fill="none" stroke="#939598" d="M381.836,352.756"/>
					</g>
					<g>
						<circle fill="none" stroke="#939598" cx="381.836" cy="355.773" r="1.06"/>
						<path fill="none" stroke="#939598" d="M381.836,355.773"/>
					</g>
				</g>
			</g>
			<g>
				<rect x="372.646" y="342.372" fill="none" stroke="#939598" width="18.356" height="14.916"/>
				<rect x="374.182" y="343.87" fill="none" stroke="#939598" width="15.324" height="10.729"/>
			</g>
		</g>
		<rect x="191.203" y="272.998" fill="#FFFFFF" stroke="#939598" width="50.525" height="25.084"/>
		<polyline fill="#FFFFFF" stroke="#939598" points="229.353,337.9 162.258,337.9 162.258,271.953 142.28,272.014 142.28,359.758 
			270.15,359.332 270.15,337.9 268.49,337.9 		"/>
		<g>
			<g>
				<rect x="143.411" y="295.779" fill="#FFFFFF" stroke="#939598" width="21.231" height="24.992"/>
				<path fill="#FFFFFF" stroke="#939598" d="M154.026,308.275"/>
			</g>
			<g>
				<g>
					<circle fill="#FFFFFF" stroke="#939598" cx="159.939" cy="313.99" r="3.035"/>
					<path fill="#FFFFFF" stroke="#939598" d="M159.939,313.99"/>
				</g>
				<g>
					<circle fill="#FFFFFF" stroke="#939598" stroke-width="0.8" cx="159.938" cy="314.02" r="2.138"/>
					<path fill="#FFFFFF" stroke="#939598" d="M159.939,314.021"/>
				</g>
			</g>
			<g>
				<g>
					<circle fill="#FFFFFF" stroke="#939598" cx="151.071" cy="301.856" r="3.036"/>
					<path fill="#FFFFFF" stroke="#939598" d="M151.071,301.857"/>
				</g>
				<g>
					<circle fill="#FFFFFF" stroke="#939598" stroke-width="0.8" cx="151.069" cy="301.825" r="2.138"/>
					<path fill="#FFFFFF" stroke="#939598" d="M151.071,301.826"/>
				</g>
			</g>
			<g>
				<g>
					<circle fill="#FFFFFF" stroke="#939598" cx="151.1" cy="314.029" r="3.461"/>
					<path fill="#FFFFFF" stroke="#939598" d="M151.1,314.029"/>
				</g>
				<g>
					<circle fill="#FFFFFF" stroke="#939598" stroke-width="0.8" cx="151.1" cy="313.997" r="2.437"/>
					<path fill="#FFFFFF" stroke="#939598" d="M151.1,313.997"/>
				</g>
			</g>
			<g>
				<g>
					<circle fill="#FFFFFF" stroke="#939598" cx="160.173" cy="301.87" r="3.46"/>
					<path fill="#FFFFFF" stroke="#939598" d="M160.173,301.87"/>
				</g>
				<g>
					<circle fill="#FFFFFF" stroke="#939598" stroke-width="0.8" cx="160.173" cy="301.837" r="2.438"/>
					<path fill="#FFFFFF" stroke="#939598" d="M160.173,301.836"/>
				</g>
			</g>
			<line fill="none" stroke="#939598" x1="146.348" y1="320.807" x2="146.348" y2="295.779"/>
			<line fill="none" stroke="#939598" x1="145.175" y1="320.773" x2="145.175" y2="295.779"/>
		</g>
		<g>
			<polyline fill="none" stroke="#939598" stroke-dasharray="1.5,1,1.5,1,1.5,1" points="174.407,336.645 174.407,355.854 
				193.248,355.854 193.248,337.074 			"/>
			<polyline fill="#FFFFFF" stroke="#939598" points="193.277,337.074 193.277,335.932 174.407,335.932 174.407,336.635 			"/>
		</g>
		<line fill="none" stroke="#939598" x1="256.41" y1="336.992" x2="256.41" y2="358.539"/>
		<g>
			<g>
				<g>
					<polygon fill="none" stroke="#939598" stroke-width="0.7" points="262.822,328.262 261.479,329.001 267.078,338.236 
						268.422,337.499 					"/>
					<path fill="none" stroke="#939598" stroke-width="0.8" d="M265.973,333.998"/>
				</g>
				<path fill="none" stroke="#939598" stroke-width="0.8" d="M262.309,328.707c-3.44,2.085-5.295,5.799-5.17,9.554"/>
			</g>
		</g>
		<g>
			<g>
				<path fill="#FFFFFF" stroke="#939598" d="M222.93,355.668c0.458,0,0.829-0.37,0.829-0.827v-14.454
					c0-0.457-0.372-0.828-0.829-0.828h-24.517c-0.458,0-0.828,0.371-0.828,0.828v14.454c0,0.46,0.37,0.827,0.828,0.827H222.93z"/>
				<path fill="#FFFFFF" stroke="#939598" d="M210.759,348.238"/>
			</g>
			<g>
				<circle fill="#FFFFFF" stroke="#939598" cx="210.759" cy="347.259" r="0.937"/>
				<path fill="#FFFFFF" stroke="#939598" d="M210.759,347.259"/>
			</g>
			<g>
				<g>
					<rect x="206.669" y="353.135" fill="#FFFFFF" stroke="#939598" width="8.18" height="1.957"/>
					<path fill="#FFFFFF" stroke="#939598" d="M210.759,354.113"/>
				</g>
				<g>
					<rect x="210.342" y="349.331" fill="#FFFFFF" stroke="#939598" width="0.835" height="3.854"/>
					<path fill="#FFFFFF" stroke="#939598" d="M210.759,351.509"/>
				</g>
				<g>
					<circle fill="#FFFFFF" stroke="#939598" cx="210.759" cy="354.095" r="0.911"/>
					<path fill="#FFFFFF" stroke="#939598" d="M210.759,354.096"/>
				</g>
			</g>
			<g>
				<path fill="#FFFFFF" stroke="#939598" d="M210.759,347.259"/>
				<path fill="none" stroke="#939598" d="M211.265,352.459h10.307c0.481,0,0.872-0.391,0.872-0.871v-9.912
					c0-0.479-0.39-0.869-0.872-0.869h-21.8c-0.481,0-0.872,0.39-0.872,0.869v9.912c0,0.48,0.39,0.871,0.872,0.871h10.457"/>
			</g>
		</g>
		<g>
			<g>
				<g>
					<rect x="228.025" y="334.09" fill="#FFFFFF" stroke="#939598" width="26.771" height="23.616"/>
					<path fill="#FFFFFF" stroke="#939598" d="M242.797,345.898"/>
				</g>
				<line fill="none" stroke="#939598" x1="227.962" y1="335.74" x2="254.796" y2="335.74"/>
				<rect x="250.392" y="332.924" fill="#FFFFFF" stroke="#939598" width="2.168" height="1.148"/>
				<path fill="#FFFFFF" stroke="#939598" d="M251.477,333.562"/>
			</g>
		</g>
		<polyline fill="none" stroke="#939598" stroke-dasharray="1.5,1.5,1.5,1.5,1.5,1.5" points="151.428,271.566 151.428,348.965 
			256.24,348.965 		"/>
		<line fill="none" stroke="#939598" x1="22.429" y1="326.391" x2="22.429" y2="360.432"/>
		<g>
			<g>
				<g>
					<rect x="401.32" y="328.84" fill="#FFFFFF" stroke="#939598" width="35.694" height="29.836"/>
					<path fill="#FFFFFF" stroke="#939598" d="M419.503,343.732"/>
				</g>
				<g>
					<polyline fill="#FFFFFF" stroke="#939598" points="403.404,343.443 403.404,331.52 434.878,331.52 434.878,355.992 
						403.404,355.992 403.404,344.544 					"/>
					<path fill="#FFFFFF" stroke="#939598" d="M419.503,343.732"/>
				</g>
				<line fill="none" stroke="#939598" x1="403.404" y1="355.992" x2="418.378" y2="344.557"/>
				<line fill="none" stroke="#939598" x1="420.595" y1="342.865" x2="434.878" y2="331.52"/>
				<line fill="none" stroke="#939598" x1="434.878" y1="355.992" x2="420.723" y2="344.668"/>
				<line fill="none" stroke="#939598" x1="418.337" y1="342.835" x2="403.404" y2="331.52"/>
				<g>
					<path fill="#FFFFFF" stroke="#939598" d="M419.503,342.457c0.729,0,1.32,0.714,1.32,1.275c0,0.561-0.591,1.188-1.32,1.188
						c-0.729,0-1.321-0.627-1.321-1.188C418.182,343.171,418.776,342.457,419.503,342.457z"/>
					<path fill="#FFFFFF" stroke="#939598" d="M419.503,343.732"/>
				</g>
			</g>
			<path fill="#FFFFFF" stroke="#939598" d="M405.349,342.497c0.751,0,0.751,2.717,0,2.717s-1.359-0.605-1.359-1.357
				C403.99,343.104,404.598,342.497,405.349,342.497z"/>
			<polyline fill="#FFFFFF" stroke="#939598" points="401.308,344.137 403.908,344.137 403.908,343.379 401.306,343.379 			"/>
		</g>
		<line fill="none" stroke="#939598" x1="266.451" y1="160.933" x2="485.751" y2="160.933"/>
		<line fill="none" stroke="#939598" x1="105.528" y1="161.304" x2="24.545" y2="161.304"/>
	</g>
	<g id="walls">
		<polyline fill="none" stroke="#939598" stroke-width="5" points="165.519,156.105 161.6,156.105 161.485,159.201 106.728,159.201 
			106.728,142.925 161.557,142.925 161.614,156.105 		"/>
		<polyline fill="none" stroke="#939598" stroke-width="5" points="352.811,361.16 484.793,361.16 484.793,329.975 495,329.975 
			495,156.105 239.578,156.105 		"/>
		<polyline fill="none" stroke="#939598" stroke-width="5" points="105.568,156.105 5,156.105 5,361.16 327.645,361.16 		"/>
		<line fill="none" stroke="#939598" stroke-width="3" x1="139.962" y1="257.053" x2="139.962" y2="361.865"/>
		<line fill="none" stroke="#939598" stroke-width="3" x1="139.962" y1="159.766" x2="139.962" y2="233.456"/>
		<line fill="none" stroke="#939598" stroke-width="3" x1="26.729" y1="160.125" x2="7.021" y2="160.125"/>
		<line fill="none" stroke="#939598" stroke-width="3" x1="241.37" y1="159.941" x2="266.451" y2="159.941"/>
		<line fill="none" stroke="#939598" stroke-width="3" x1="481.451" y1="159.836" x2="494.352" y2="159.836"/>
		<line fill="none" stroke="#939598" stroke-width="3" x1="343.852" y1="159.952" x2="403.693" y2="160.044"/>
		<polyline fill="none" stroke="#939598" stroke-width="3" points="374.1,239.126 369.652,234.657 360.336,234.657 360.336,160.482 
					"/>
		<polyline fill="none" stroke="#939598" stroke-width="3" points="441.826,263.324 398.318,263.324 392.583,256.604 		"/>
		<line fill="none" stroke="#939598" stroke-width="3" x1="494.352" y1="263.324" x2="467.477" y2="263.324"/>
		<line fill="none" stroke="#939598" stroke-width="3" x1="380.654" y1="277.714" x2="396.169" y2="261.531"/>
		<polyline fill="none" stroke="#939598" stroke-width="3" points="358.902,359.357 358.902,300.59 363.283,295.999 		"/>
		<line fill="none" stroke="#939598" stroke-width="3" x1="399.394" y1="327.988" x2="399.394" y2="361.148"/>
		<polyline fill="none" stroke="#939598" stroke-width="3" points="433.436,262.966 433.436,293.424 438.811,298.441 
			438.811,359.715 		"/>
		<line fill="none" stroke="#939598" stroke-width="3" x1="300.854" y1="351.475" x2="300.854" y2="360.79"/>
		<line fill="none" stroke="#939598" stroke-width="3" x1="300.854" y1="305.759" x2="300.854" y2="322.357"/>
		<polyline fill="none" stroke="#939598" stroke-width="3" points="272.545,311.34 272.545,274.434 300.854,274.434 300.854,281.6 
					"/>
		<line fill="none" stroke="#939598" stroke-width="3" x1="272.545" y1="360.074" x2="272.545" y2="311.34"/>
		<line fill="none" stroke="#939598" stroke-width="3" x1="121.367" y1="291.99" x2="140.678" y2="291.99"/>
		<line fill="none" stroke="#939598" stroke-width="3" x1="54.947" y1="291.99" x2="96.604" y2="291.99"/>
		<line fill="none" stroke="#939598" stroke-width="3" x1="6.752" y1="291.99" x2="29.999" y2="291.99"/>
		<line fill="none" stroke="#939598" stroke-width="3" x1="87.288" y1="291.99" x2="87.288" y2="361.148"/>
		<polyline fill="none" stroke="#939598" stroke-width="3" points="60.979,358.999 60.979,345.023 86.928,345.023 		"/>
		<line fill="none" stroke="#939598" stroke-width="3" x1="301.57" y1="312.415" x2="271.826" y2="312.415"/>
		<polyline fill="none" stroke="#939598" stroke-width="2" points="24.928,332.303 24.928,325.182 6.752,325.316 		"/>
		<line fill="none" stroke="#939598" stroke-width="2" x1="24.928" y1="360.117" x2="24.928" y2="352.996"/>
		<g>
			<rect x="200.431" y="154.095" fill="none" stroke="#939598" width="40.312" height="1.899"/>
			<rect x="165.762" y="156.139" fill="none" stroke="#939598" width="44.075" height="2.083"/>
		</g>
	</g>
	<g id="Type">
		<g>
			<path fill="#939598" d="M280.876,298.076v-0.489l4.405-1.446l-4.391-1.505v-0.626l5.309,1.883v0.506l-4.277,1.445l4.277,1.454
				v0.495l-5.309,1.884v-0.647l4.391-1.506L280.876,298.076z"/>
			<path fill="#939598" d="M280.154,290.566l6.972,3.494v0.532l-6.972-3.493V290.566z"/>
			<path fill="#939598" d="M286.16,288.039v1.828h-5.27v-1.828c0-1.656,1.139-2.801,2.627-2.801
				C285.009,285.238,286.16,286.383,286.16,288.039z M281.441,288.039v1.234h4.172v-1.234c0-1.333-0.904-2.184-2.078-2.184
				C282.359,285.857,281.441,286.705,281.441,288.039z"/>
		</g>
		<g>
			<path fill="#939598" d="M297.771,345.453c0,1.521-1.197,2.645-2.722,2.645c-1.504,0-2.729-1.114-2.729-2.666
				c0-0.957,0.336-1.528,0.834-2.055l0.438,0.404c-0.423,0.444-0.725,0.94-0.725,1.656c0,1.168,0.941,2.04,2.17,2.04
				s2.184-0.881,2.184-2.04c0-0.724-0.279-1.195-0.761-1.699l0.383-0.395C297.4,343.896,297.771,344.498,297.771,345.453z"/>
			<path fill="#939598" d="M297.68,342.355h-5.496v-0.58h5.496V342.355z"/>
			<path fill="#939598" d="M297.771,338.652c0,1.166-0.92,2.019-2.027,2.019c-1.105,0-2.041-0.857-2.041-2.035
				c0-1.165,0.92-2.021,2.027-2.021C296.836,336.611,297.771,337.477,297.771,338.652z M294.217,338.652
				c0,0.843,0.67,1.422,1.514,1.422c0.845,0,1.521-0.616,1.521-1.438c0-0.842-0.668-1.43-1.504-1.43
				C294.893,337.206,294.217,337.832,294.217,338.652z"/>
			<path fill="#939598" d="M297.755,334.279c0,0.559-0.218,1.176-0.571,1.61l-0.414-0.293c0.315-0.423,0.498-0.889,0.498-1.349
				c0-0.468-0.242-0.808-0.619-0.808h-0.016c-0.393,0-0.541,0.461-0.686,0.974c-0.172,0.607-0.383,1.286-1.1,1.286h-0.017
				c-0.67,0-1.113-0.56-1.113-1.324c0-0.475,0.164-1.002,0.431-1.4l0.436,0.265c-0.232,0.36-0.377,0.774-0.377,1.151
				c0,0.459,0.24,0.752,0.562,0.752h0.016c0.371,0,0.515-0.48,0.67-1.002c0.182-0.604,0.416-1.25,1.115-1.25h0.017
				C297.324,332.896,297.755,333.506,297.755,334.279z"/>
			<path fill="#939598" d="M297.266,330.104c0-0.534-0.219-0.909-0.551-1.229l0.322-0.361c0.438,0.394,0.732,0.867,0.732,1.604
				c0,1.067-0.822,1.94-2.033,1.94c-1.131,0-2.033-0.789-2.033-1.864c0-1.15,0.918-1.813,2.062-1.813c0.056,0,0.112,0,0.181,0.006
				v3.087C296.792,331.393,297.266,330.79,297.266,330.104z M295.52,328.968c-0.709,0.062-1.326,0.468-1.326,1.242
				c0,0.677,0.563,1.188,1.326,1.265V328.968z"/>
			<path fill="#939598" d="M296.572,326.582c0.475,0,0.646-0.264,0.646-0.654c0-0.194-0.037-0.36-0.136-0.563h0.497
				c0.105,0.203,0.165,0.424,0.165,0.701c0,0.622-0.31,1.098-1.101,1.098h-2.349v0.544h-0.513v-0.544h-1.176v-0.579h1.176v-1.233
				h0.513v1.232L296.572,326.582L296.572,326.582z"/>
		</g>
		<g>
			<path fill="#939598" d="M37.691,322.014c0,0.892-0.542,1.347-1.074,1.576c0.803,0.243,1.453,0.708,1.453,1.646
				c0,1.168-0.979,1.856-2.459,1.856h-3.01v-6.774h2.884C36.82,320.318,37.691,320.979,37.691,322.014z M36.916,322.12
				c0-0.679-0.532-1.113-1.5-1.113h-2.062v2.332h2.004C36.279,323.339,36.916,322.923,36.916,322.12z M37.294,325.189
				c0-0.746-0.62-1.175-1.799-1.175h-2.14v2.392h2.275C36.655,326.404,37.294,325.951,37.294,325.189z"/>
			<path fill="#939598" d="M39.75,323.049l-0.223-0.608c0.551-0.253,1.094-0.418,1.82-0.418c1.364,0,2.128,0.696,2.128,2.015v3.06
				h-0.717v-0.755c-0.349,0.454-0.929,0.86-1.81,0.86c-0.929,0-1.868-0.521-1.868-1.567c0-1.062,0.872-1.626,2.139-1.626
				c0.639,0,1.093,0.087,1.539,0.213v-0.174c0-0.899-0.552-1.365-1.49-1.365C40.678,322.682,40.214,322.837,39.75,323.049z
				 M39.836,325.604c0,0.642,0.582,1.009,1.258,1.009c0.919,0,1.674-0.562,1.674-1.355v-0.481c-0.367-0.106-0.861-0.214-1.471-0.214
				C40.36,324.559,39.836,324.966,39.836,325.604z"/>
			<path fill="#939598" d="M46.021,325.671c0,0.608,0.338,0.831,0.841,0.831c0.251,0,0.464-0.048,0.726-0.174v0.64
				c-0.262,0.136-0.542,0.214-0.9,0.214c-0.803,0-1.413-0.396-1.413-1.414v-3.02h-0.696v-0.658h0.696v-1.509h0.746v1.509h1.588
				v0.658h-1.588V325.671z"/>
			<path fill="#939598" d="M49.667,327.095h-0.745v-7.064h0.745v2.934c0.329-0.541,0.851-0.979,1.714-0.979
				c1.209,0,1.915,0.813,1.915,2.006v3.104h-0.745v-2.924c0-0.928-0.503-1.509-1.385-1.509c-0.861,0-1.5,0.629-1.5,1.567
				L49.667,327.095L49.667,327.095z"/>
		</g>
		<g>
			<path fill="#939598" d="M99.638,332.759c-1.521,0-2.642-1.196-2.642-2.717c0-1.505,1.115-2.733,2.665-2.733
				c0.955,0,1.528,0.339,2.055,0.836l-0.407,0.438c-0.443-0.422-0.94-0.725-1.657-0.725c-1.166,0-2.04,0.941-2.04,2.17
				c0,1.228,0.881,2.184,2.04,2.184c0.723,0,1.198-0.279,1.702-0.762l0.391,0.385C101.196,332.391,100.594,332.759,99.638,332.759z"
				/>
			<path fill="#939598" d="M102.737,332.669v-5.495h0.58v5.495H102.737z"/>
			<path fill="#939598" d="M106.44,332.759c-1.167,0-2.018-0.917-2.018-2.023s0.858-2.039,2.033-2.039
				c1.167,0,2.026,0.918,2.026,2.022C108.481,331.826,107.615,332.759,106.44,332.759z M106.44,329.207
				c-0.842,0-1.423,0.669-1.423,1.512c0,0.844,0.618,1.521,1.438,1.521c0.844,0,1.431-0.67,1.431-1.506
				C107.886,329.883,107.26,329.207,106.44,329.207z"/>
			<path fill="#939598" d="M110.812,332.745c-0.557,0-1.175-0.218-1.612-0.572l0.293-0.414c0.422,0.315,0.888,0.497,1.347,0.497
				c0.468,0,0.806-0.242,0.806-0.618v-0.015c0-0.393-0.459-0.542-0.971-0.688c-0.61-0.172-1.288-0.382-1.288-1.098v-0.016
				c0-0.67,0.558-1.113,1.326-1.113c0.474,0,1.001,0.165,1.401,0.428l-0.265,0.438c-0.361-0.233-0.775-0.377-1.151-0.377
				c-0.459,0-0.753,0.239-0.753,0.563v0.017c0,0.368,0.482,0.513,1.001,0.67c0.603,0.181,1.25,0.414,1.25,1.114v0.015
				C112.196,332.316,111.587,332.745,110.812,332.745z"/>
			<path fill="#939598" d="M114.988,332.255c0.535,0,0.911-0.218,1.228-0.55l0.361,0.322c-0.391,0.438-0.865,0.729-1.604,0.729
				c-1.069,0-1.942-0.819-1.942-2.031c0-1.131,0.79-2.034,1.867-2.034c1.151,0,1.815,0.918,1.815,2.062c0,0.054,0,0.112-0.007,0.181
				h-3.087C113.7,331.779,114.302,332.255,114.988,332.255z M116.126,330.509c-0.061-0.708-0.468-1.325-1.243-1.325
				c-0.677,0-1.189,0.563-1.265,1.325H116.126z"/>
			<path fill="#939598" d="M118.509,331.562c0,0.476,0.264,0.647,0.655,0.647c0.195,0,0.361-0.038,0.564-0.137v0.498
				c-0.204,0.104-0.423,0.166-0.7,0.166c-0.626,0-1.099-0.311-1.099-1.103v-2.348h-0.542v-0.514h0.542V327.6h0.579v1.177h1.234
				v0.514h-1.234L118.509,331.562L118.509,331.562z"/>
		</g>
		<g>
			<path fill="#939598" d="M183.451,142.74c-0.79,0-1.295-0.392-1.627-0.934l0.43-0.368c0.323,0.489,0.654,0.752,1.205,0.752
				c0.595,0,1.031-0.429,1.031-1.264v-3.533h0.603v3.524C185.092,142.131,184.393,142.74,183.451,142.74z"/>
			<path fill="#939598" d="M189.164,138.773h0.572v3.893h-0.572v-0.678c-0.264,0.422-0.662,0.761-1.333,0.761
				c-0.941,0-1.491-0.632-1.491-1.558v-2.418h0.581v2.273c0,0.723,0.391,1.175,1.076,1.175c0.663,0,1.167-0.49,1.167-1.22V138.773
				L189.164,138.773z"/>
			<path fill="#939598" d="M191.088,142.665v-5.497h0.581v5.497H191.088z"/>
			<path fill="#939598" d="M193.031,137.921v-0.64h0.662v0.64H193.031z M193.069,142.665v-3.893h0.579v3.893H193.069z"/>
			<path fill="#939598" d="M196.71,142.25c0.535,0,0.911-0.219,1.228-0.55l0.361,0.324c-0.391,0.436-0.865,0.729-1.604,0.729
				c-1.069,0-1.942-0.82-1.942-2.032c0-1.13,0.79-2.033,1.867-2.033c1.151,0,1.815,0.918,1.815,2.062c0,0.053,0,0.113-0.007,0.181
				h-3.088C195.424,141.775,196.026,142.25,196.71,142.25z M197.848,140.503c-0.061-0.707-0.468-1.324-1.243-1.324
				c-0.677,0-1.189,0.563-1.265,1.324H197.848z"/>
			<path fill="#939598" d="M200.232,141.558c0,0.474,0.264,0.648,0.655,0.648c0.195,0,0.361-0.038,0.564-0.136v0.496
				c-0.203,0.105-0.423,0.166-0.7,0.166c-0.626,0-1.099-0.309-1.099-1.099v-2.35h-0.542v-0.512h0.542v-1.176h0.579v1.175h1.234
				v0.513h-1.234L200.232,141.558L200.232,141.558z"/>
			<path fill="#939598" d="M208.804,138.712c0,0.692-0.421,1.046-0.835,1.228c0.625,0.188,1.128,0.549,1.128,1.279
				c0,0.912-0.761,1.446-1.912,1.446h-2.342v-5.271h2.244C208.127,137.394,208.804,137.905,208.804,138.712z M208.202,138.795
				c0-0.527-0.414-0.865-1.167-0.865h-1.604v1.813h1.559C207.705,139.743,208.202,139.42,208.202,138.795z M208.495,141.181
				c0-0.578-0.481-0.91-1.4-0.91h-1.664v1.86h1.769C207.999,142.131,208.495,141.775,208.495,141.181z"/>
			<path fill="#939598" d="M210.405,139.518l-0.173-0.475c0.429-0.195,0.852-0.323,1.416-0.323c1.061,0,1.657,0.542,1.657,1.565
				v2.38h-0.558v-0.589c-0.271,0.354-0.722,0.671-1.408,0.671c-0.722,0-1.454-0.406-1.454-1.22c0-0.829,0.678-1.266,1.665-1.266
				c0.497,0,0.852,0.068,1.197,0.166v-0.134c0-0.701-0.429-1.062-1.16-1.062C211.128,139.232,210.767,139.352,210.405,139.518z
				 M210.473,141.505c0,0.497,0.451,0.784,0.979,0.784c0.716,0,1.302-0.438,1.302-1.054v-0.378
				c-0.285-0.083-0.669-0.165-1.144-0.165C210.88,140.692,210.473,141.009,210.473,141.505z"/>
			<path fill="#939598" d="M214.589,142.665v-5.497h0.579v5.497H214.589z"/>
			<path fill="#939598" d="M218.27,142.755c-1.138,0-1.996-0.926-1.996-2.025c0-1.106,0.859-2.04,1.996-2.04
				c0.737,0,1.196,0.309,1.558,0.692l-0.384,0.406c-0.309-0.323-0.654-0.587-1.183-0.587c-0.79,0-1.392,0.67-1.392,1.514
				c0,0.851,0.618,1.521,1.431,1.521c0.497,0,0.88-0.248,1.189-0.579l0.369,0.347C219.466,142.44,218.999,142.755,218.27,142.755z"
				/>
			<path fill="#939598" d="M222.477,142.755c-1.167,0-2.018-0.918-2.018-2.025c0-1.106,0.858-2.04,2.033-2.04
				c1.166,0,2.025,0.918,2.025,2.025C224.517,141.821,223.651,142.755,222.477,142.755z M222.477,139.201
				c-0.844,0-1.424,0.67-1.424,1.514c0,0.843,0.617,1.521,1.438,1.521c0.843,0,1.431-0.67,1.431-1.505
				C223.922,139.878,223.297,139.201,222.477,139.201z"/>
			<path fill="#939598" d="M226.14,142.665h-0.58v-3.893h0.58v0.677c0.256-0.421,0.664-0.76,1.333-0.76
				c0.94,0,1.49,0.632,1.49,1.559v2.417h-0.58v-2.275c0-0.722-0.391-1.173-1.076-1.173c-0.671,0-1.167,0.489-1.167,1.219V142.665
				L226.14,142.665z"/>
			<path fill="#939598" d="M231.981,142.793c-0.331,0.806-0.708,1.099-1.295,1.099c-0.323,0-0.564-0.068-0.829-0.195l0.196-0.46
				c0.188,0.099,0.361,0.144,0.609,0.144c0.347,0,0.564-0.181,0.798-0.731l-1.77-3.877h0.641l1.415,3.245l1.25-3.245h0.618
				L231.981,142.793z"/>
		</g>
		<g>
			<path fill="#939598" d="M399.273,307.158c0,0.891-0.541,1.348-1.074,1.578c0.804,0.241,1.453,0.707,1.453,1.646
				c0,1.172-0.979,1.858-2.459,1.858h-3.01v-6.773h2.885C398.402,305.467,399.273,306.124,399.273,307.158z M398.498,307.266
				c0-0.678-0.532-1.11-1.502-1.11h-2.059v2.332h2.002C397.861,308.484,398.498,308.068,398.498,307.266z M398.876,310.333
				c0-0.744-0.618-1.171-1.8-1.171h-2.141v2.392h2.273C398.238,311.554,398.876,311.098,398.876,310.333z"/>
			<path fill="#939598" d="M401.333,308.195l-0.224-0.608c0.553-0.252,1.094-0.418,1.817-0.418c1.364,0,2.129,0.696,2.129,2.015
				v3.06h-0.716v-0.756c-0.349,0.455-0.931,0.86-1.812,0.86c-0.931,0-1.867-0.521-1.867-1.565c0-1.064,0.871-1.627,2.139-1.627
				c0.64,0,1.097,0.086,1.54,0.213v-0.174c0-0.899-0.554-1.366-1.491-1.366C402.261,307.826,401.798,307.982,401.333,308.195z
				 M401.419,310.75c0,0.641,0.581,1.007,1.26,1.007c0.917,0,1.673-0.562,1.673-1.354v-0.483c-0.366-0.105-0.858-0.212-1.471-0.212
				C401.941,309.706,401.419,310.109,401.419,310.75z"/>
			<path fill="#939598" d="M407.603,310.818c0,0.606,0.34,0.83,0.844,0.83c0.252,0,0.465-0.048,0.727-0.175v0.64
				c-0.262,0.137-0.542,0.214-0.899,0.214c-0.804,0-1.412-0.396-1.412-1.412v-3.021h-0.695v-0.657h0.695v-1.51h0.744v1.51h1.588
				v0.657h-1.588L407.603,310.818L407.603,310.818z"/>
			<path fill="#939598" d="M411.251,312.238h-0.745v-7.063h0.745v2.936c0.329-0.543,0.852-0.979,1.713-0.979
				c1.21,0,1.917,0.812,1.917,2.003v3.105h-0.746v-2.922c0-0.931-0.504-1.511-1.383-1.511c-0.862,0-1.501,0.63-1.501,1.566V312.238z
				"/>
		</g>
		<g>
			<path fill="#939598" d="M240.131,343.777l-1.529-2.05h-1.505v2.05h-0.595v-5.271h2.266c1.16,0,1.905,0.624,1.905,1.572
				c0,0.882-0.603,1.394-1.431,1.546l1.618,2.152L240.131,343.777L240.131,343.777z M238.722,339.057h-1.627v2.14h1.618
				c0.791,0,1.355-0.406,1.355-1.093C240.069,339.447,239.572,339.057,238.722,339.057z"/>
			<path fill="#939598" d="M243.486,343.363c0.535,0,0.91-0.22,1.228-0.554l0.361,0.325c-0.392,0.438-0.865,0.731-1.604,0.731
				c-1.07,0-1.943-0.822-1.943-2.033c0-1.131,0.791-2.034,1.868-2.034c1.152,0,1.815,0.918,1.815,2.062c0,0.056,0,0.112-0.008,0.182
				h-3.087C242.197,342.891,242.8,343.363,243.486,343.363z M244.621,341.615c-0.06-0.705-0.467-1.325-1.242-1.325
				c-0.677,0-1.19,0.565-1.266,1.325H244.621z"/>
			<path fill="#939598" d="M248.249,339.898v0.498h-1.228v3.381h-0.579v-3.381h-0.536v-0.507h0.536v-0.337
				c0-0.853,0.428-1.303,1.173-1.303c0.272,0,0.453,0.028,0.641,0.099v0.504c-0.211-0.062-0.369-0.099-0.564-0.099
				c-0.452,0-0.678,0.272-0.678,0.829v0.313h1.235V339.898z"/>
		</g>
		<g>
			<path fill="#939598" d="M179.09,346.016h-1.83v-5.27h1.83c1.656,0,2.8,1.138,2.8,2.629
				C181.89,344.863,180.746,346.016,179.09,346.016z M179.09,341.296h-1.235v4.171h1.235c1.332,0,2.184-0.901,2.184-2.076
				C181.274,342.214,180.423,341.296,179.09,341.296z"/>
			<path fill="#939598" d="M186.068,340.732h0.489l1.445,4.403l1.506-4.391h0.626l-1.883,5.309h-0.504l-1.446-4.276l-1.453,4.276
				h-0.497l-1.882-5.309h0.647l1.506,4.391L186.068,340.732z"/>
		</g>
		<g>
			<path fill="#939598" d="M264.566,354.311v1.023h1.485v0.475h-4.214v-1.575c0-0.951,0.508-1.578,1.344-1.578
				C264.096,352.654,264.566,353.413,264.566,354.311z M262.279,354.268v1.066h1.854v-1.042c0-0.698-0.374-1.156-0.934-1.156
				C262.591,353.136,262.279,353.587,262.279,354.268z"/>
			<path fill="#939598" d="M263.535,351.865l-0.379,0.14c-0.156-0.343-0.26-0.681-0.26-1.133c0-0.849,0.434-1.322,1.252-1.322h1.902
				v0.445h-0.47c0.28,0.216,0.535,0.577,0.535,1.125c0,0.577-0.325,1.161-0.976,1.161c-0.664,0-1.012-0.541-1.012-1.329
				c0-0.396,0.055-0.681,0.133-0.957h-0.109c-0.56,0-0.848,0.342-0.848,0.926C263.309,351.289,263.402,351.578,263.535,351.865z
				 M265.125,351.814c0.396,0,0.626-0.361,0.626-0.785c0-0.571-0.349-1.041-0.845-1.041h-0.299
				c-0.065,0.229-0.133,0.535-0.133,0.916C264.477,351.486,264.727,351.814,265.125,351.814z"/>
			<path fill="#939598" d="M266.052,348.279v0.463h-3.114v-0.463h0.543c-0.336-0.205-0.605-0.53-0.605-1.065
				c0-0.753,0.506-1.189,1.245-1.189h1.935v0.463h-1.818c-0.576,0-0.938,0.312-0.938,0.86c0,0.535,0.392,0.935,0.978,0.935
				L266.052,348.279L266.052,348.279z"/>
			<path fill="#939598" d="M265.168,344.588c0.379,0,0.516-0.21,0.516-0.521c0-0.158-0.029-0.291-0.106-0.453h0.396
				c0.086,0.162,0.137,0.338,0.137,0.561c0,0.499-0.248,0.877-0.881,0.877h-1.879v0.437h-0.41v-0.437H262v-0.464h0.938v-0.984h0.412
				v0.984H265.168L265.168,344.588L265.168,344.588z"/>
			<path fill="#939598" d="M266.052,342.499v0.464h-3.114v-0.464h0.813c-0.519-0.229-0.89-0.681-0.866-1.271h0.5v0.035
				c0,0.683,0.486,1.234,1.426,1.234L266.052,342.499L266.052,342.499z"/>
			<path fill="#939598" d="M266.154,339.189c0.645,0.264,0.879,0.564,0.879,1.034c0,0.261-0.055,0.451-0.156,0.662l-0.368-0.155
				c0.077-0.151,0.112-0.291,0.112-0.488c0-0.277-0.145-0.45-0.582-0.64l-3.102,1.414v-0.511l2.596-1.133l-2.596-1.001v-0.493
				L266.154,339.189z"/>
		</g>
		<g>
			<path fill="#939598" d="M11.835,351.244v-0.596h4.722v-2.968h0.55v3.562L11.835,351.244L11.835,351.244z"/>
			<path fill="#939598" d="M12.363,346.669h-0.641v-0.662h0.64L12.363,346.669L12.363,346.669z M17.106,346.631h-3.893v-0.579h3.893
				V346.631z"/>
			<path fill="#939598" d="M17.106,344.124v0.58h-3.893v-0.58h0.677c-0.421-0.257-0.761-0.661-0.761-1.331
				c0-0.941,0.632-1.491,1.559-1.491h2.416v0.579h-2.273c-0.723,0-1.174,0.394-1.174,1.077c0,0.67,0.489,1.166,1.219,1.166H17.106
				L17.106,344.124z"/>
			<path fill="#939598" d="M16.692,338.354c0-0.532-0.218-0.911-0.549-1.229l0.323-0.36c0.436,0.392,0.73,0.865,0.73,1.604
				c0,1.068-0.82,1.94-2.033,1.94c-1.129,0-2.033-0.79-2.033-1.866c0-1.149,0.918-1.812,2.062-1.812c0.053,0,0.113,0,0.181,0.008
				v3.088C16.218,339.641,16.692,339.037,16.692,338.354z M14.945,337.217c-0.708,0.062-1.324,0.467-1.324,1.24
				c0,0.679,0.564,1.189,1.324,1.268V337.217z"/>
			<path fill="#939598" d="M17.106,335.033v0.58h-3.893v-0.58h0.677c-0.421-0.254-0.761-0.661-0.761-1.332
				c0-0.94,0.632-1.49,1.559-1.49h2.416v0.58h-2.273c-0.723,0-1.174,0.391-1.174,1.076c0,0.67,0.489,1.166,1.219,1.166H17.106
				L17.106,335.033z"/>
		</g>
		<g>
			<path fill="#939598" d="M206.784,314.016h-0.958l-2.604-3.28l-1.441,1.461v1.817h-0.765v-6.774h0.765v4.047l3.89-4.047h0.987
				l-2.903,2.964L206.784,314.016z"/>
			<path fill="#939598" d="M207.865,307.917v-0.821h0.852v0.821H207.865z M207.914,314.016v-5.004h0.745v5.004H207.914z"/>
			<path fill="#939598" d="M211.398,312.592c0,0.609,0.338,0.832,0.842,0.832c0.251,0,0.464-0.048,0.726-0.174v0.639
				c-0.262,0.136-0.542,0.211-0.9,0.211c-0.803,0-1.413-0.396-1.413-1.409v-3.021h-0.696v-0.657h0.696v-1.51h0.745v1.51h1.588v0.657
				h-1.588V312.592z"/>
			<path fill="#939598" d="M216.411,314.132c-1.461,0-2.565-1.189-2.565-2.604c0-1.425,1.103-2.623,2.565-2.623
				c0.948,0,1.54,0.396,2.003,0.892l-0.493,0.521c-0.396-0.416-0.843-0.754-1.52-0.754c-1.016,0-1.791,0.86-1.791,1.944
				c0,1.097,0.793,1.956,1.838,1.956c0.639,0,1.132-0.321,1.529-0.745l0.474,0.444C217.949,313.725,217.349,314.132,216.411,314.132
				z"/>
			<path fill="#939598" d="M220.425,314.016h-0.745v-7.063h0.745v2.934c0.329-0.544,0.852-0.979,1.712-0.979
				c1.209,0,1.917,0.812,1.917,2.002v3.106h-0.745v-2.922c0-0.93-0.503-1.51-1.385-1.51c-0.861,0-1.5,0.629-1.5,1.566
				L220.425,314.016L220.425,314.016z"/>
			<path fill="#939598" d="M227.846,313.482c0.687,0,1.171-0.281,1.577-0.707l0.464,0.418c-0.503,0.561-1.112,0.938-2.061,0.938
				c-1.374,0-2.498-1.055-2.498-2.613c0-1.45,1.016-2.612,2.4-2.612c1.48,0,2.332,1.182,2.332,2.651c0,0.067,0,0.146-0.009,0.231
				h-3.968C226.191,312.872,226.965,313.482,227.846,313.482z M229.308,311.236c-0.078-0.91-0.6-1.703-1.597-1.703
				c-0.872,0-1.528,0.727-1.626,1.703H229.308z"/>
			<path fill="#939598" d="M232.112,314.016h-0.745v-5.004h0.745v0.872c0.329-0.544,0.852-0.979,1.713-0.979
				c1.209,0,1.916,0.812,1.916,2.004v3.106h-0.745v-2.923c0-0.93-0.503-1.51-1.385-1.51c-0.861,0-1.5,0.629-1.5,1.567
				L232.112,314.016L232.112,314.016z"/>
		</g>
		<g>
			<path fill="#939598" d="M454.029,309.469c-1.521,0-2.645-1.196-2.645-2.718c0-1.505,1.114-2.733,2.665-2.733
				c0.957,0,1.529,0.338,2.057,0.836l-0.406,0.438c-0.443-0.422-0.94-0.726-1.656-0.726c-1.166,0-2.038,0.942-2.038,2.171
				c0,1.228,0.879,2.184,2.038,2.184c0.724,0,1.198-0.279,1.702-0.762l0.392,0.385C455.586,309.1,454.983,309.469,454.029,309.469z"
				/>
			<path fill="#939598" d="M457.126,309.378v-5.494h0.58v5.494H457.126z"/>
			<path fill="#939598" d="M460.83,309.469c-1.166,0-2.02-0.918-2.02-2.024s0.858-2.04,2.033-2.04c1.166,0,2.025,0.919,2.025,2.023
				C462.87,308.536,462.005,309.469,460.83,309.469z M460.83,305.916c-0.844,0-1.423,0.67-1.423,1.512
				c0,0.844,0.616,1.521,1.438,1.521c0.843,0,1.431-0.67,1.431-1.506C462.275,306.592,461.65,305.916,460.83,305.916z"/>
			<path fill="#939598" d="M465.201,309.455c-0.56,0-1.176-0.219-1.611-0.572l0.293-0.415c0.422,0.315,0.891,0.498,1.349,0.498
				c0.469,0,0.808-0.243,0.808-0.618v-0.016c0-0.393-0.46-0.541-0.973-0.688c-0.607-0.17-1.285-0.381-1.285-1.098v-0.016
				c0-0.671,0.557-1.113,1.321-1.113c0.477,0,1.004,0.165,1.4,0.429l-0.262,0.438c-0.362-0.233-0.776-0.377-1.152-0.377
				c-0.46,0-0.753,0.239-0.753,0.563v0.017c0,0.368,0.481,0.513,1.002,0.67c0.604,0.181,1.249,0.414,1.249,1.114v0.016
				C466.586,309.025,465.978,309.455,465.201,309.455z"/>
			<path fill="#939598" d="M469.379,308.965c0.533,0,0.911-0.219,1.228-0.551l0.36,0.322c-0.392,0.438-0.866,0.73-1.604,0.73
				c-1.069,0-1.942-0.821-1.942-2.032c0-1.129,0.789-2.034,1.867-2.034c1.148,0,1.812,0.92,1.812,2.062c0,0.054,0,0.112-0.008,0.181
				h-3.086C468.091,308.49,468.692,308.965,469.379,308.965z M470.516,307.218c-0.061-0.708-0.467-1.325-1.242-1.325
				c-0.678,0-1.188,0.563-1.265,1.325H470.516z"/>
			<path fill="#939598" d="M472.898,308.271c0,0.476,0.265,0.647,0.654,0.647c0.195,0,0.361-0.037,0.563-0.137v0.498
				c-0.202,0.104-0.423,0.166-0.699,0.166c-0.624,0-1.1-0.311-1.1-1.103v-2.348h-0.543v-0.514h0.543v-1.176h0.579v1.176h1.233v0.514
				h-1.233L472.898,308.271L472.898,308.271z"/>
		</g>
		<g>
			<path fill="#939598" d="M333.604,356.877h-3.213v1.8h2.877v0.543h-2.877v1.846h3.252v0.541h-3.849v-5.271h3.81V356.877
				L333.604,356.877z"/>
			<path fill="#939598" d="M335.32,361.605h-0.58v-3.894h0.58v0.678c0.256-0.423,0.66-0.762,1.33-0.762
				c0.941,0,1.49,0.635,1.49,1.562v2.416h-0.58v-2.272c0-0.724-0.391-1.177-1.074-1.177c-0.672,0-1.166,0.49-1.166,1.221V361.605
				L335.32,361.605z"/>
			<path fill="#939598" d="M340.156,360.499c0,0.474,0.265,0.647,0.654,0.647c0.196,0,0.36-0.037,0.564-0.138v0.497
				c-0.204,0.106-0.423,0.166-0.7,0.166c-0.625,0-1.1-0.31-1.1-1.101v-2.349h-0.543v-0.514h0.543v-1.176h0.577v1.176h1.236v0.514
				h-1.236v2.274h0.004V360.499z"/>
			<path fill="#939598" d="M342.994,361.605h-0.579v-3.894h0.579v1.016c0.287-0.646,0.852-1.112,1.591-1.084v0.625h-0.046
				c-0.852,0-1.545,0.608-1.545,1.784V361.605z"/>
			<path fill="#939598" d="M347.359,361.732c-0.332,0.806-0.709,1.1-1.293,1.1c-0.326,0-0.565-0.068-0.83-0.195l0.193-0.461
				c0.188,0.099,0.363,0.144,0.61,0.144c0.347,0,0.562-0.181,0.799-0.729l-1.771-3.878h0.642l1.415,3.246l1.251-3.246h0.616
				L347.359,361.732z"/>
		</g>
		<g>
			<path fill="#939598" d="M57.946,215.161c0,0.891-0.542,1.345-1.074,1.578c0.803,0.241,1.451,0.706,1.451,1.646
				c0,1.17-0.977,1.858-2.458,1.858h-3.01v-6.775h2.884C57.075,213.468,57.946,214.126,57.946,215.161z M57.172,215.268
				c0-0.677-0.532-1.111-1.5-1.111h-2.061v2.332h2.003C56.533,216.488,57.172,216.07,57.172,215.268z M57.549,218.336
				c0-0.745-0.619-1.171-1.799-1.171h-2.139v2.392h2.274C56.911,219.557,57.549,219.1,57.549,218.336z"/>
			<path fill="#939598" d="M61.921,219.711c0.687,0,1.171-0.281,1.577-0.707l0.464,0.417c-0.503,0.562-1.113,0.938-2.061,0.938
				c-1.375,0-2.498-1.055-2.498-2.614c0-1.452,1.016-2.613,2.4-2.613c1.48,0,2.332,1.181,2.332,2.652c0,0.067,0,0.146-0.01,0.231
				h-3.968C60.267,219.1,61.041,219.711,61.921,219.711z M63.383,217.465c-0.078-0.908-0.6-1.701-1.596-1.701
				c-0.872,0-1.529,0.726-1.626,1.701H63.383z"/>
			<path fill="#939598" d="M69.458,220.243v-1.007c-0.406,0.6-0.996,1.111-1.915,1.111c-1.201,0-2.391-0.947-2.391-2.604
				c0-1.645,1.19-2.613,2.391-2.613c0.928,0,1.528,0.504,1.915,1.064v-3.021h0.745v7.065L69.458,220.243L69.458,220.243z
				 M67.678,215.8c-0.968,0-1.762,0.718-1.762,1.937c0,1.189,0.812,1.945,1.762,1.945c0.929,0,1.81-0.773,1.81-1.945
				C69.488,216.575,68.607,215.8,67.678,215.8z"/>
			<path fill="#939598" d="M72.612,220.243h-0.745v-5.004h0.745v1.307c0.367-0.832,1.093-1.435,2.042-1.394v0.804h-0.058
				c-1.094,0-1.984,0.783-1.984,2.294V220.243L72.612,220.243z"/>
			<path fill="#939598" d="M77.856,220.359c-1.5,0-2.594-1.182-2.594-2.604s1.104-2.623,2.614-2.623c1.5,0,2.604,1.181,2.604,2.604
				C80.479,219.158,79.366,220.359,77.856,220.359z M77.856,215.791c-1.083,0-1.829,0.861-1.829,1.945s0.793,1.955,1.848,1.955
				c1.083,0,1.838-0.861,1.838-1.937C79.713,216.662,78.91,215.791,77.856,215.791z"/>
			<path fill="#939598" d="M84.106,220.359c-1.5,0-2.594-1.182-2.594-2.604s1.104-2.623,2.614-2.623c1.5,0,2.604,1.181,2.604,2.604
				C86.729,219.158,85.616,220.359,84.106,220.359z M84.106,215.791c-1.083,0-1.828,0.861-1.828,1.945s0.793,1.955,1.848,1.955
				c1.083,0,1.838-0.861,1.838-1.937C85.963,216.662,85.16,215.791,84.106,215.791z"/>
			<path fill="#939598" d="M93.801,215.132c1.151,0,1.859,0.774,1.859,2.015v3.098h-0.745v-2.924c0-0.967-0.484-1.51-1.297-1.51
				c-0.755,0-1.385,0.562-1.385,1.549v2.885h-0.735v-2.942c0-0.938-0.493-1.489-1.287-1.489s-1.393,0.658-1.393,1.576v2.855h-0.746
				v-5.006h0.745v0.844c0.329-0.494,0.774-0.949,1.616-0.949c0.812,0,1.335,0.436,1.607,0.997
				C92.398,215.577,92.93,215.132,93.801,215.132z"/>
			<path fill="#939598" d="M58.651,225.245h0.561v6.823h-0.754v-6.029l-1.277,0.396l-0.184-0.621L58.651,225.245z"/>
			<path fill="#939598" d="M61.031,225.98v-0.688h4.326v0.562l-2.128,2.359c1.19,0.098,2.236,0.669,2.236,1.917
				c0,1.22-1.007,2.052-2.265,2.052c-1.132,0-1.974-0.494-2.526-1.209l0.552-0.494c0.522,0.639,1.151,1.006,1.984,1.006
				c0.823,0,1.48-0.521,1.48-1.325c0-0.853-0.774-1.315-1.897-1.315h-0.435l-0.155-0.455l2.139-2.408L61.031,225.98L61.031,225.98z"
				/>
			<path fill="#939598" d="M67.039,225.292h0.91v0.048l-0.784,2.585h-0.417L67.039,225.292z"/>
			<path fill="#939598" d="M76.57,232.068h-0.861l-1.548-2.043l-1.557,2.043h-0.833l1.965-2.547l-1.887-2.459h0.852l1.48,1.938
				l1.48-1.938h0.832l-1.897,2.44L76.57,232.068z"/>
			<path fill="#939598" d="M81.773,225.245h0.561v6.823h-0.755v-6.029l-1.277,0.396l-0.184-0.621L81.773,225.245z"/>
			<path fill="#939598" d="M84.153,225.98v-0.688h4.326v0.562l-2.128,2.359c1.19,0.098,2.236,0.669,2.236,1.917
				c0,1.22-1.006,2.052-2.264,2.052c-1.132,0-1.975-0.494-2.526-1.209l0.552-0.494c0.522,0.639,1.152,1.006,1.984,1.006
				c0.822,0,1.48-0.521,1.48-1.325c0-0.853-0.774-1.315-1.897-1.315H85.48l-0.155-0.455l2.138-2.408L84.153,225.98L84.153,225.98z"
				/>
			<path fill="#939598" d="M90.161,225.292h0.909v0.048l-0.784,2.585H89.87L90.161,225.292z"/>
		</g>
		<g>
			<path fill="#939598" d="M202.433,219.381h0.764v6.068h3.813v0.705h-4.577V219.381L202.433,219.381z"/>
			<path fill="#939598" d="M208.315,220.059v-0.822h0.852v0.822H208.315z M208.363,226.154v-5.002h0.746v5.002H208.363z"/>
			<path fill="#939598" d="M214.547,221.152h0.802l-2.178,5.041h-0.658l-2.168-5.041h0.823l1.683,4.15L214.547,221.152z"/>
			<path fill="#939598" d="M216.539,220.059v-0.822h0.852v0.822H216.539z M216.587,226.154v-5.002h0.745v5.002H216.587z"/>
			<path fill="#939598" d="M219.809,226.154h-0.745v-5.002h0.745v0.871c0.329-0.543,0.852-0.979,1.713-0.979
				c1.209,0,1.917,0.812,1.917,2.004v3.105h-0.745v-2.922c0-0.93-0.503-1.51-1.384-1.51c-0.861,0-1.501,0.629-1.501,1.567V226.154
				L219.809,226.154z"/>
			<path fill="#939598" d="M227.239,227.723c-0.832,0-1.607-0.231-2.274-0.695l0.338-0.58c0.571,0.416,1.209,0.639,1.927,0.639
				c1.103,0,1.818-0.609,1.818-1.779v-0.592c-0.435,0.581-1.045,1.055-1.965,1.055c-1.2,0-2.352-0.891-2.352-2.353
				c0-1.472,1.161-2.371,2.352-2.371c0.938,0,1.548,0.464,1.955,1.006v-0.899h0.745v4.133
				C229.785,226.9,228.779,227.723,227.239,227.723z M227.231,221.704c-0.948,0-1.733,0.647-1.733,1.692
				c0,1.025,0.804,1.713,1.733,1.713c0.948,0,1.838-0.676,1.838-1.702C229.069,222.371,228.177,221.704,227.231,221.704z"/>
			<path fill="#939598" d="M235.59,218.434l-4.49,8.961h-0.688l4.49-8.961H235.59z"/>
			<path fill="#939598" d="M238.839,226.154h-2.352v-6.773h2.352c2.129,0,3.601,1.461,3.601,3.378
				C242.44,224.675,240.969,226.154,238.839,226.154z M238.839,220.088h-1.588v5.361h1.588c1.713,0,2.807-1.161,2.807-2.672
				C241.646,221.27,240.553,220.088,238.839,220.088z"/>
			<path fill="#939598" d="M243.946,220.059v-0.822h0.852v0.822H243.946z M243.996,226.154v-5.002h0.745v5.002H243.996z"/>
			<path fill="#939598" d="M247.217,226.154h-0.745v-5.002h0.745v0.871c0.329-0.543,0.852-0.979,1.714-0.979
				c1.209,0,1.915,0.812,1.915,2.004v3.105h-0.744v-2.922c0-0.93-0.502-1.51-1.383-1.51c-0.862,0-1.501,0.629-1.501,1.567
				L247.217,226.154L247.217,226.154z"/>
			<path fill="#939598" d="M252.449,220.059v-0.822h0.854v0.822H252.449z M252.501,226.154v-5.002h0.743v5.002H252.501z"/>
			<path fill="#939598" d="M255.723,226.154h-0.744v-5.002h0.744v0.871c0.328-0.543,0.853-0.979,1.713-0.979
				c1.211,0,1.916,0.812,1.916,2.004v3.105h-0.744v-2.922c0-0.93-0.504-1.51-1.385-1.51c-0.861,0-1.5,0.629-1.5,1.567V226.154
				L255.723,226.154z"/>
			<path fill="#939598" d="M263.152,227.723c-0.832,0-1.605-0.231-2.273-0.695l0.338-0.58c0.57,0.416,1.21,0.639,1.928,0.639
				c1.104,0,1.818-0.609,1.818-1.779v-0.592c-0.436,0.581-1.046,1.055-1.967,1.055c-1.198,0-2.352-0.891-2.352-2.353
				c0-1.472,1.16-2.371,2.352-2.371c0.941,0,1.549,0.464,1.955,1.006v-0.899h0.744v4.133
				C265.695,226.9,264.693,227.723,263.152,227.723z M263.143,221.704c-0.949,0-1.731,0.647-1.731,1.692
				c0,1.025,0.804,1.713,1.731,1.713c0.948,0,1.838-0.676,1.838-1.702C264.98,222.371,264.091,221.704,263.143,221.704z"/>
			<path fill="#939598" d="M275.053,226.154l-1.964-2.633h-1.937v2.633h-0.766v-6.773h2.911c1.492,0,2.449,0.803,2.449,2.021
				c0,1.133-0.774,1.791-1.84,1.982l2.082,2.77H275.053L275.053,226.154z M273.242,220.088h-2.09v2.749h2.082
				c1.016,0,1.74-0.522,1.74-1.403C274.975,220.59,274.336,220.088,273.242,220.088z"/>
			<path fill="#939598" d="M279.443,226.273c-1.5,0-2.594-1.183-2.594-2.604c0-1.424,1.104-2.623,2.613-2.623
				c1.501,0,2.604,1.181,2.604,2.603S280.953,226.273,279.443,226.273z M279.443,221.704c-1.082,0-1.826,0.86-1.826,1.944
				s0.791,1.955,1.848,1.955c1.084,0,1.84-0.862,1.84-1.938C281.303,222.574,280.499,221.704,279.443,221.704z"/>
			<path fill="#939598" d="M285.695,226.273c-1.5,0-2.594-1.183-2.594-2.604c0-1.424,1.104-2.623,2.611-2.623
				c1.502,0,2.604,1.181,2.604,2.603S287.205,226.273,285.695,226.273z M285.695,221.704c-1.086,0-1.83,0.86-1.83,1.944
				s0.793,1.955,1.85,1.955c1.086,0,1.84-0.862,1.84-1.938C287.553,222.574,286.749,221.704,285.695,221.704z"/>
			<path fill="#939598" d="M295.389,221.046c1.152,0,1.857,0.772,1.857,2.015v3.097h-0.743v-2.923c0-0.969-0.483-1.51-1.297-1.51
				c-0.755,0-1.384,0.562-1.384,1.549v2.884h-0.735v-2.942c0-0.939-0.493-1.49-1.287-1.49c-0.793,0-1.396,0.657-1.396,1.576v2.855
				h-0.744v-5.004h0.744v0.843c0.332-0.493,0.775-0.948,1.617-0.948c0.812,0,1.336,0.436,1.605,0.996
				C293.986,221.49,294.518,221.046,295.389,221.046z"/>
			<path fill="#939598" d="M221.598,232.957l-0.561-0.406c0.61-0.91,1.249-1.441,2.439-1.441c1.23,0,2.101,0.812,2.101,1.926
				c0,0.997-0.522,1.605-1.712,2.643l-1.811,1.605h3.59v0.697h-4.732v-0.592l2.458-2.168c1.035-0.929,1.413-1.451,1.413-2.129
				c0-0.793-0.629-1.297-1.364-1.297C222.643,231.796,222.141,232.202,221.598,232.957z"/>
			<path fill="#939598" d="M228.168,231.158h0.561v6.822h-0.755v-6.028l-1.277,0.397l-0.184-0.621L228.168,231.158z"/>
			<path fill="#939598" d="M230.625,231.205h0.91v0.049l-0.784,2.583h-0.416L230.625,231.205z"/>
			<path fill="#939598" d="M237.041,232.455c-0.503-0.426-0.977-0.668-1.596-0.668c-1.229,0-1.993,1.238-1.984,2.99
				c0.367-0.543,0.938-1.036,1.926-1.036c1.268,0,2.343,0.813,2.343,2.09c0,1.315-1.055,2.267-2.43,2.267
				c-0.745,0-1.354-0.263-1.78-0.688c-0.542-0.542-0.851-1.238-0.851-2.632c0-2.071,1.044-3.688,2.816-3.688
				c0.813,0,1.413,0.291,2.004,0.774L237.041,232.455z M235.29,234.398c-1.016,0-1.694,0.727-1.694,1.492
				c0,0.881,0.716,1.527,1.714,1.527c0.996,0,1.635-0.688,1.635-1.559C236.945,235.02,236.267,234.398,235.29,234.398z"/>
			<path fill="#939598" d="M239.256,231.205h0.899v0.049l-0.784,2.583h-0.406L239.256,231.205z M241.152,231.205h0.89v0.049
				l-0.784,2.583h-0.406L241.152,231.205z"/>
			<path fill="#939598" d="M250.673,237.98h-0.861l-1.548-2.041l-1.559,2.041h-0.832l1.965-2.545l-1.888-2.457h0.852l1.481,1.936
				l1.48-1.936h0.833l-1.896,2.438L250.673,237.98z"/>
			<path fill="#939598" d="M255.102,232.957l-0.561-0.406c0.609-0.91,1.248-1.441,2.439-1.441c1.229,0,2.1,0.812,2.1,1.926
				c0,0.997-0.521,1.605-1.713,2.643l-1.811,1.605h3.592v0.697h-4.733v-0.592l2.459-2.168c1.034-0.929,1.413-1.451,1.413-2.129
				c0-0.793-0.631-1.297-1.365-1.297C256.146,231.796,255.645,232.202,255.102,232.957z"/>
			<path fill="#939598" d="M263.199,238.098c-1.75,0-2.854-1.588-2.854-3.494c0-1.904,1.122-3.514,2.873-3.514
				c1.743,0,2.848,1.588,2.848,3.493C266.066,236.489,264.943,238.098,263.199,238.098z M263.199,231.786
				c-1.27,0-2.062,1.297-2.062,2.797c0,1.501,0.813,2.815,2.081,2.815c1.271,0,2.054-1.307,2.054-2.797
				S264.471,231.786,263.199,231.786z"/>
			<path fill="#939598" d="M267.582,231.205h0.91v0.049l-0.783,2.583h-0.416L267.582,231.205z"/>
			<path fill="#939598" d="M269.693,231.205h4.596v0.57l-3.078,6.205h-0.852l3.059-6.078h-3.725V231.205L269.693,231.205z"/>
			<path fill="#939598" d="M275.719,231.205h0.9v0.049l-0.783,2.583h-0.408L275.719,231.205z M277.615,231.205h0.891v0.049
				l-0.783,2.583h-0.406L277.615,231.205z"/>
		</g>
		<g>
			<path fill="#939598" d="M418.068,197.604c0,0.891-0.543,1.345-1.074,1.578c0.804,0.242,1.453,0.706,1.453,1.645
				c0,1.171-0.979,1.858-2.459,1.858h-3.008v-6.776h2.883C417.197,195.909,418.068,196.568,418.068,197.604z M417.295,197.71
				c0-0.678-0.532-1.112-1.5-1.112h-2.062v2.331h2.003C416.654,198.929,417.295,198.513,417.295,197.71z M417.672,200.777
				c0-0.744-0.619-1.17-1.801-1.17h-2.139v2.391h2.272C417.033,201.997,417.672,201.542,417.672,200.777z"/>
			<path fill="#939598" d="M422.044,202.15c0.688,0,1.172-0.279,1.578-0.705l0.466,0.416c-0.505,0.562-1.114,0.938-2.062,0.938
				c-1.375,0-2.496-1.055-2.496-2.613c0-1.451,1.015-2.613,2.397-2.613c1.481,0,2.332,1.181,2.332,2.652c0,0.067,0,0.145-0.01,0.231
				h-3.968C420.39,201.542,421.162,202.15,422.044,202.15z M423.505,199.906c-0.076-0.909-0.601-1.703-1.596-1.703
				c-0.872,0-1.529,0.726-1.626,1.703H423.505z"/>
			<path fill="#939598" d="M429.581,202.686v-1.009c-0.406,0.601-0.997,1.113-1.915,1.113c-1.201,0-2.393-0.948-2.393-2.604
				c0-1.645,1.189-2.613,2.393-2.613c0.928,0,1.526,0.503,1.915,1.064v-3.018h0.745v7.064L429.581,202.686L429.581,202.686z
				 M427.8,198.242c-0.968,0-1.761,0.717-1.761,1.936c0,1.19,0.812,1.945,1.761,1.945c0.931,0,1.812-0.773,1.812-1.945
				C429.611,199.016,428.729,198.242,427.8,198.242z"/>
			<path fill="#939598" d="M432.733,202.686h-0.742v-5.004h0.742v1.306c0.368-0.832,1.096-1.433,2.043-1.393v0.803h-0.06
				c-1.095,0-1.984,0.784-1.984,2.294L432.733,202.686L432.733,202.686z"/>
			<path fill="#939598" d="M437.979,202.8c-1.502,0-2.594-1.181-2.594-2.603c0-1.423,1.104-2.623,2.613-2.623
				c1.501,0,2.604,1.181,2.604,2.604S439.488,202.8,437.979,202.8z M437.979,198.232c-1.085,0-1.828,0.86-1.828,1.945
				s0.793,1.955,1.85,1.955c1.083,0,1.838-0.86,1.838-1.936C439.836,199.104,439.033,198.232,437.979,198.232z"/>
			<path fill="#939598" d="M444.229,202.8c-1.5,0-2.594-1.181-2.594-2.603c0-1.423,1.104-2.623,2.613-2.623
				c1.501,0,2.604,1.181,2.604,2.604S445.739,202.8,444.229,202.8z M444.229,198.232c-1.084,0-1.829,0.86-1.829,1.945
				s0.794,1.955,1.851,1.955c1.085,0,1.84-0.86,1.84-1.936C446.088,199.104,445.284,198.232,444.229,198.232z"/>
			<path fill="#939598" d="M453.925,197.574c1.15,0,1.857,0.774,1.857,2.014v3.098h-0.745v-2.923c0-0.967-0.482-1.509-1.296-1.509
				c-0.755,0-1.384,0.562-1.384,1.548v2.885h-0.736v-2.942c0-0.938-0.493-1.489-1.287-1.489c-0.792,0-1.395,0.657-1.395,1.577v2.854
				h-0.742v-5.003h0.742v0.842c0.329-0.493,0.774-0.948,1.615-0.948c0.813,0,1.336,0.436,1.606,0.997
				C452.52,198.02,453.052,197.574,453.925,197.574z"/>
			<path fill="#939598" d="M418.279,207.688h0.562v6.822h-0.753v-6.029l-1.278,0.396l-0.184-0.619L418.279,207.688z"/>
			<path fill="#939598" d="M420.66,208.422v-0.688h4.325v0.561l-2.129,2.362c1.189,0.097,2.234,0.667,2.234,1.915
				c0,1.221-1.007,2.053-2.265,2.053c-1.133,0-1.976-0.493-2.525-1.209l0.552-0.494c0.522,0.639,1.152,1.008,1.984,1.008
				c0.823,0,1.479-0.522,1.479-1.326c0-0.852-0.774-1.315-1.896-1.315h-0.437l-0.153-0.455l2.139-2.41L420.66,208.422
				L420.66,208.422z"/>
			<path fill="#939598" d="M426.668,207.734h0.91v0.048l-0.783,2.585h-0.416L426.668,207.734z"/>
			<path fill="#939598" d="M436.199,214.509h-0.86l-1.549-2.042l-1.56,2.042h-0.83l1.965-2.546l-1.891-2.458h0.854l1.479,1.935
				l1.481-1.935h0.831l-1.897,2.438L436.199,214.509z"/>
			<path fill="#939598" d="M441.402,207.688h0.562v6.822h-0.755v-6.029l-1.277,0.396l-0.184-0.619L441.402,207.688z"/>
			<path fill="#939598" d="M446.396,214.625c-1.753,0-2.854-1.587-2.854-3.494c0-1.904,1.123-3.513,2.874-3.513
				c1.743,0,2.845,1.588,2.845,3.493C449.261,213.018,448.137,214.625,446.396,214.625z M446.396,208.316
				c-1.27,0-2.062,1.298-2.062,2.798s0.812,2.815,2.081,2.815s2.053-1.307,2.053-2.797
				C448.468,209.641,447.664,208.316,446.396,208.316z"/>
			<path fill="#939598" d="M450.777,207.734h0.911v0.048l-0.783,2.585h-0.417L450.777,207.734z"/>
		</g>
		<g>
			<path fill="#939598" d="M206.895,282.459v5.271H206.3v-5.271H206.895z"/>
			<path fill="#939598" d="M209.627,287.805c-0.557,0-1.174-0.218-1.612-0.57l0.293-0.416c0.422,0.316,0.889,0.498,1.348,0.498
				c0.467,0,0.805-0.241,0.805-0.616v-0.017c0-0.392-0.459-0.541-0.971-0.687c-0.609-0.173-1.288-0.384-1.288-1.099v-0.017
				c0-0.67,0.558-1.112,1.326-1.112c0.474,0,1.002,0.164,1.401,0.428l-0.264,0.437c-0.361-0.231-0.776-0.375-1.152-0.375
				c-0.459,0-0.753,0.24-0.753,0.563v0.016c0,0.367,0.482,0.514,1.002,0.67c0.602,0.182,1.25,0.413,1.25,1.113v0.018
				C211.012,287.375,210.403,287.805,209.627,287.805z"/>
			<path fill="#939598" d="M212.139,287.73v-5.496h0.58v5.496H212.139z"/>
			<path fill="#939598" d="M214.291,284.582l-0.173-0.475c0.43-0.195,0.852-0.322,1.417-0.322c1.061,0,1.656,0.542,1.656,1.566
				v2.379h-0.557v-0.588c-0.271,0.354-0.723,0.67-1.408,0.67c-0.723,0-1.454-0.408-1.454-1.222c0-0.827,0.677-1.266,1.664-1.266
				c0.497,0,0.851,0.067,1.198,0.166v-0.138c0-0.699-0.429-1.062-1.16-1.062C215.014,284.296,214.653,284.416,214.291,284.582z
				 M214.359,286.57c0,0.496,0.451,0.783,0.979,0.783c0.716,0,1.302-0.438,1.302-1.057v-0.375c-0.286-0.083-0.67-0.166-1.144-0.166
				C214.766,285.758,214.359,286.072,214.359,286.57z"/>
			<path fill="#939598" d="M219.003,287.73h-0.581v-3.894h0.581v0.679c0.256-0.423,0.662-0.762,1.333-0.762
				c0.94,0,1.491,0.635,1.491,1.561v2.416h-0.581v-2.273c0-0.723-0.392-1.176-1.076-1.176c-0.671,0-1.167,0.49-1.167,1.221V287.73
				L219.003,287.73z"/>
			<path fill="#939598" d="M226.182,287.73v-0.783c-0.316,0.468-0.776,0.867-1.491,0.867c-0.934,0-1.86-0.74-1.86-2.026
				c0-1.28,0.926-2.033,1.86-2.033c0.722,0,1.189,0.392,1.491,0.828v-2.349h0.58v5.496H226.182L226.182,287.73z M224.797,284.273
				c-0.753,0-1.371,0.559-1.371,1.504c0,0.928,0.632,1.515,1.371,1.515c0.722,0,1.408-0.603,1.408-1.515
				C226.205,284.876,225.52,284.273,224.797,284.273z"/>
		</g>
	</g>
	<g id="windows">
		<g>
			<g>
				<rect x="267.076" y="154.186" fill="#FFFFFF" stroke="#939598" width="74.779" height="3.949"/>
				<line fill="none" stroke="#939598" x1="341.857" y1="156.14" x2="266.271" y2="156.14"/>
				<line fill="none" stroke="#939598" stroke-width="2" x1="317.484" y1="158.305" x2="317.484" y2="154.548"/>
			</g>
			<line fill="none" stroke="#939598" stroke-width="2" x1="292.34" y1="158.44" x2="292.34" y2="154.567"/>
		</g>
		<g>
			<g>
				<rect x="28.246" y="154.254" fill="#FFFFFF" stroke="#939598" width="74.779" height="3.95"/>
				<line fill="none" stroke="#939598" x1="103.026" y1="156.208" x2="27.44" y2="156.208"/>
				<line fill="none" stroke="#939598" stroke-width="2" x1="78.652" y1="158.374" x2="78.652" y2="154.617"/>
			</g>
			<line fill="none" stroke="#939598" stroke-width="2" x1="53.508" y1="158.508" x2="53.508" y2="154.636"/>
		</g>
		<g>
			<g>
				<rect x="403.523" y="154.254" fill="#FFFFFF" stroke="#939598" width="74.776" height="3.95"/>
				<line fill="none" stroke="#939598" x1="478.302" y1="156.208" x2="402.717" y2="156.208"/>
				<line fill="none" stroke="#939598" stroke-width="2" x1="453.928" y1="158.374" x2="453.928" y2="154.617"/>
			</g>
			<line fill="none" stroke="#939598" stroke-width="2" x1="428.784" y1="158.508" x2="428.784" y2="154.636"/>
		</g>
	</g>
</g>
</svg>
