<?xml version="1.0" encoding="utf-8"?>
<!-- Generator: Adobe Illustrator 15.0.2, SVG Export Plug-In . SVG Version: 6.00 Build 0)  -->
<!DOCTYPE svg PUBLIC "-//W3C//DTD SVG 1.1//EN" "http://www.w3.org/Graphics/SVG/1.1/DTD/svg11.dtd">
<svg version="1.1" id="Layer_1" xmlns="http://www.w3.org/2000/svg" xmlns:xlink="http://www.w3.org/1999/xlink" x="0px" y="0px"
	 width="500px" height="500px" viewBox="-34.124 -166.499 500 500" enable-background="new -34.124 -166.499 500 500"
	 xml:space="preserve">
<g id="_x32_0_x25___PMS_2985_fill" display="none">
	<path display="inline" fill="#EBEEEF" d="M30.48,2.287c-1.333,0.333-28.333,28-28.333,28V140.62l27.667,24.333h400.334V2.287H30.48
		z"/>
</g>
<g>
	<g id="_x32_0_x25__grey_fill">
		<polygon fill="#D1D3D4" points="2.6,-8.742 -2.75,-2.817 71.398,-2.817 71.398,-8.55 		"/>
		<rect x="448.646" y="-8.742" fill="#D1D3D4" width="11.848" height="6.498"/>
		<rect x="308.181" y="-8.742" fill="#D1D3D4" width="58.669" height="5.542"/>
		<polygon fill="#D1D3D4" points="202.69,177.015 202.69,169.943 248.556,169.943 248.556,166.121 352.519,166.121 352.519,169.562 
			460.876,169.562 460.876,176.441 		"/>
	</g>
	<g id="icons">
		<polygon fill="#FFFFFF" stroke="#A7A9AC" points="13.637,149.352 -1.461,149.352 -4.184,146.628 -4.184,1.004 -29.124,24.702 
			-27.977,150.833 0.308,176.06 14.067,176.06 		"/>
		<g>
			<g>
				<rect x="93.349" y="151.367" fill="#FFFFFF" stroke="#939598" width="23.148" height="21.262"/>
				<path fill="none" stroke="#939598" d="M104.921,161.293"/>
				<line fill="none" stroke="#939598" x1="93.312" y1="169.249" x2="116.531" y2="169.249"/>
				<line fill="none" stroke="#939598" x1="93.349" y1="170.252" x2="116.496" y2="170.252"/>
				<polygon fill="none" stroke="#939598" points="111.944,166.692 111.944,156.264 109.15,153.722 100.586,153.722 97.755,156.264 
					97.755,166.692 				"/>
				<path fill="none" stroke="#939598" d="M104.85,160.207"/>
			</g>
		</g>
		<g>
			<g>
				<rect x="66.304" y="151.367" fill="#FFFFFF" stroke="#939598" width="23.148" height="21.262"/>
				<path fill="none" stroke="#939598" d="M77.876,161.293"/>
				<line fill="none" stroke="#939598" x1="66.267" y1="169.249" x2="89.486" y2="169.249"/>
				<line fill="none" stroke="#939598" x1="66.304" y1="170.252" x2="89.451" y2="170.252"/>
				<g>
					<rect x="86.763" y="150.291" fill="none" stroke="#939598" width="1.003" height="1.004"/>
					<path fill="none" stroke="#939598" d="M87.265,150.794"/>
				</g>
			</g>
		</g>
		<g>
			<polygon fill="none" stroke="#A7A9AC" points="258.758,95.885 260.672,95.895 260.692,123.206 258.776,123.197 			"/>
			<path fill="none" stroke="#A7A9AC" d="M259.639,123.218c15.037-0.511,26.812-12.871,26.3-27.907"/>
		</g>
		<g>
			<polygon fill="none" stroke="#A7A9AC" points="308.12,81.865 308.131,80.046 334.076,80.027 334.067,81.849 			"/>
			<path fill="none" stroke="#A7A9AC" d="M334.087,81.027c-0.486-14.285-12.229-25.472-26.512-24.983"/>
		</g>
		<g>
			<polygon fill="none" stroke="#A7A9AC" points="169.932,177.336 171.847,177.351 171.864,150.039 169.898,150.024 			"/>
			<path fill="none" stroke="#A7A9AC" d="M170.738,150.002c15.037,0.511,26.812,12.945,26.299,27.981"/>
		</g>
		<g>
			<polygon fill="none" stroke="#A7A9AC" points="386.322,96.172 388.237,96.182 388.256,123.493 386.34,123.483 			"/>
			<path fill="none" stroke="#A7A9AC" d="M387.204,123.504c15.037-0.511,26.812-12.87,26.3-27.907"/>
		</g>
		<g>
			<polygon fill="none" stroke="#A7A9AC" points="129.799,142.363 131.714,142.378 131.731,115.067 129.766,115.052 			"/>
			<path fill="none" stroke="#A7A9AC" d="M130.605,115.029c15.037,0.511,26.812,12.945,26.299,27.981"/>
		</g>
		<g>
			<g>
				<polygon fill="none" stroke="#A7A9AC" points="67.54,142.641 69.263,142.652 69.279,118.072 67.511,118.059 				"/>
				<path fill="none" stroke="#A7A9AC" d="M68.266,118.039c13.534,0.46,24.13,11.65,23.669,25.182"/>
			</g>
			<g>
				<polygon fill="none" stroke="#A7A9AC" points="116.247,142.641 114.523,142.652 114.508,118.072 116.276,118.059 				"/>
				<path fill="none" stroke="#A7A9AC" d="M115.521,118.039c-13.534,0.46-24.13,11.65-23.669,25.182"/>
			</g>
		</g>
		<line fill="none" stroke="#A7A9AC" x1="125.673" y1="159.814" x2="161.219" y2="159.814"/>
		<polyline fill="#FFFFFF" stroke="#A7A9AC" points="281.617,166.408 281.617,144.669 309.423,144.669 309.423,165.835 		"/>
		<polyline fill="none" stroke="#A7A9AC" points="447.307,97.609 447.307,157.809 383.668,157.809 383.668,168.128 		"/>
		<rect x="29.929" y="39.704" fill="#FFFFFF" stroke="#A7A9AC" width="25.799" height="62.062"/>
		<line fill="none" stroke="#A7A9AC" x1="367.042" y1="-1.708" x2="450.554" y2="-1.708"/>
		<polyline fill="none" stroke="#A7A9AC" points="307.273,-1.719 224.157,-1.719 224.157,-7.022 		"/>
		
			<line fill="none" stroke="#A7A9AC" stroke-dasharray="1.5,1.5,1.5,1.5,1.5,1.5" x1="123.954" y1="162.413" x2="161.344" y2="162.413"/>
		
			<line fill="none" stroke="#A7A9AC" stroke-dasharray="1.5,1.5,1.5,1.5,1.5,1.5" x1="109.619" y1="161.248" x2="123.093" y2="161.248"/>
		
			<line fill="none" stroke="#A7A9AC" stroke-dasharray="1.5,1.5,1.5,1.5,1.5,1.5" x1="81.813" y1="161.248" x2="99.874" y2="161.248"/>
		
			<line fill="none" stroke="#A7A9AC" stroke-dasharray="1.5,1.5,1.5,1.5,1.5,1.5" x1="59.741" y1="161.248" x2="74.646" y2="161.248"/>
		<polyline fill="none" stroke="#A7A9AC" stroke-dasharray="1.5,1.5,1.5,1.5,1.5,1.5" points="383.955,160.292 449.75,160.292 
			449.75,97.036 		"/>
		<g>
			<g>
				<path fill="#FFFFFF" stroke="#939598" d="M-24.244,97.901c0,0.488,0.395,0.885,0.884,0.885h15.417
					c0.488,0,0.884-0.398,0.884-0.885V71.75c0-0.488-0.397-0.884-0.884-0.884h-15.417c-0.491,0-0.884,0.396-0.884,0.884V97.901z"/>
				<path fill="#FFFFFF" stroke="#939598" d="M-16.318,84.919"/>
			</g>
			<g>
				<circle fill="#FFFFFF" stroke="#939598" cx="-15.273" cy="84.919" r="0.999"/>
				<path fill="#FFFFFF" stroke="#939598" d="M-15.274,84.919"/>
			</g>
			<g>
				<g>
					<rect x="-23.629" y="80.557" fill="#FFFFFF" stroke="#939598" width="2.087" height="8.725"/>
					<path fill="#FFFFFF" stroke="#939598" d="M-22.586,84.919"/>
				</g>
				<g>
					<rect x="-21.597" y="84.474" fill="#FFFFFF" stroke="#939598" width="4.112" height="0.891"/>
					<path fill="#FFFFFF" stroke="#939598" d="M-19.806,84.919"/>
				</g>
				<g>
					<circle fill="#FFFFFF" stroke="#939598" cx="-22.564" cy="84.919" r="0.971"/>
					<path fill="#FFFFFF" stroke="#939598" d="M-22.564,84.919"/>
				</g>
			</g>
			<g>
				<path fill="#FFFFFF" stroke="#939598" d="M-15.274,84.919"/>
				<path fill="none" stroke="#939598" d="M-20.82,85.456v10.997c0,0.513,0.415,0.929,0.928,0.929h10.573
					c0.51,0,0.928-0.416,0.928-0.929V73.199c0-0.513-0.416-0.93-0.928-0.93h-10.573c-0.512,0-0.928,0.416-0.928,0.93v11.152"/>
			</g>
		</g>
		<g>
			<polyline fill="none" stroke="#939598" stroke-dasharray="1.5,1,1.5,1,1.5,1" points="-3.5,102.421 -22.967,102.421 
				-22.967,121.511 -3.939,121.511 			"/>
			<polyline fill="#FFFFFF" stroke="#939598" points="-3.939,121.54 -2.782,121.54 -2.782,102.421 -3.494,102.421 			"/>
		</g>
		<g>
			<g>
				<rect x="8.315" y="148.36" fill="#FFFFFF" stroke="#939598" width="28.553" height="25.19"/>
				<path fill="#FFFFFF" stroke="#939598" d="M24.071,160.956"/>
			</g>
			<line fill="none" stroke="#939598" x1="8.248" y1="150.122" x2="36.87" y2="150.122"/>
			<rect x="32.173" y="147.116" fill="#FFFFFF" stroke="#939598" width="2.314" height="1.227"/>
			<path fill="#FFFFFF" stroke="#939598" d="M33.33,147.799"/>
		</g>
		<g>
			<polyline fill="#FFFFFF" stroke="#939598" points="54.53,149.59 56.633,149.59 56.633,174.146 38.668,174.146 38.668,149.59 
				42.49,149.59 			"/>
			<g>
				<g>
					<g>
						<polygon fill="none" stroke="#939598" stroke-width="0.7" points="48.407,139.402 49.841,140.19 43.869,150.045 
							42.434,149.257 						"/>
						<path fill="none" stroke="#939598" stroke-width="0.8" d="M45.048,145.521"/>
					</g>
					<path fill="none" stroke="#939598" stroke-width="0.8" d="M48.957,139.877c3.671,2.223,5.648,6.185,5.515,10.191"/>
				</g>
			</g>
		</g>
		<g>
			<g>
				<rect x="-25.035" y="29.696" fill="#FFFFFF" stroke="#939598" width="22.646" height="26.66"/>
				<path fill="#FFFFFF" stroke="#939598" d="M-13.711,43.025"/>
			</g>
			<g>
				<g>
					<circle fill="#FFFFFF" stroke="#939598" cx="-7.405" cy="49.12" r="3.239"/>
					<path fill="#FFFFFF" stroke="#939598" d="M-7.405,49.12"/>
				</g>
				<g>
					<circle fill="#FFFFFF" stroke="#939598" stroke-width="0.8" cx="-7.406" cy="49.152" r="2.281"/>
					<path fill="#FFFFFF" stroke="#939598" d="M-7.405,49.152"/>
				</g>
			</g>
			<g>
				<g>
					<circle fill="#FFFFFF" stroke="#939598" cx="-16.865" cy="36.178" r="3.238"/>
					<path fill="#FFFFFF" stroke="#939598" d="M-16.865,36.178"/>
				</g>
				<g>
					<circle fill="#FFFFFF" stroke="#939598" stroke-width="0.8" cx="-16.866" cy="36.146" r="2.281"/>
					<path fill="#FFFFFF" stroke="#939598" d="M-16.865,36.146"/>
				</g>
			</g>
			<g>
				<g>
					<circle fill="#FFFFFF" stroke="#939598" cx="-16.833" cy="49.163" r="3.691"/>
					<path fill="#FFFFFF" stroke="#939598" d="M-16.833,49.164"/>
				</g>
				<g>
					<circle fill="#FFFFFF" stroke="#939598" stroke-width="0.8" cx="-16.833" cy="49.128" r="2.601"/>
					<path fill="#FFFFFF" stroke="#939598" d="M-16.833,49.128"/>
				</g>
			</g>
			<g>
				<g>
					<circle fill="#FFFFFF" stroke="#939598" cx="-7.156" cy="36.192" r="3.691"/>
					<path fill="#FFFFFF" stroke="#939598" d="M-7.156,36.193"/>
				</g>
				<g>
					<circle fill="#FFFFFF" stroke="#939598" stroke-width="0.8" cx="-7.156" cy="36.155" r="2.601"/>
					<path fill="#FFFFFF" stroke="#939598" d="M-7.156,36.155"/>
				</g>
			</g>
			<line fill="none" stroke="#939598" x1="-21.901" y1="56.391" x2="-21.901" y2="29.696"/>
			<line fill="none" stroke="#939598" x1="-23.153" y1="56.355" x2="-23.153" y2="29.696"/>
		</g>
		<g enable-background="new    ">
			<path fill="#939598" d="M105.026,158.256h0.522l1.542,4.7l1.606-4.684h0.667l-2.008,5.663h-0.538l-1.542-4.563l-1.55,4.563
				h-0.529l-2.008-5.663h0.691l1.606,4.684L105.026,158.256z"/>
		</g>
		<g enable-background="new    ">
			<path fill="#939598" d="M77.395,163.895h-1.952v-5.622h1.952c1.767,0,2.987,1.214,2.987,2.805
				C80.382,162.665,79.162,163.895,77.395,163.895z M77.395,158.858h-1.317v4.449h1.317c1.421,0,2.329-0.963,2.329-2.218
				C79.724,159.838,78.817,158.858,77.395,158.858z"/>
		</g>
		<g>
			<path fill="#FFFFFF" stroke="#939598" stroke-miterlimit="10" d="M273.454,150.235c0-5.115-3.108-10.75-6.94-10.75
				c-3.831,0-6.927,5.635-6.927,10.75c0,5.117,3.096,7.78,6.927,7.78C270.345,158.016,273.454,155.353,273.454,150.235"/>
			<path fill="#FFFFFF" stroke="#939598" d="M273.454,150.235c0-5.115-3.108-10.75-6.94-10.75c-3.831,0-6.927,5.635-6.927,10.75
				c0,5.117,3.096,7.78,6.927,7.78C270.345,158.016,273.454,155.353,273.454,150.235z"/>
			<path fill="#FFFFFF" stroke="#939598" stroke-miterlimit="10" d="M262.359,156.338c0-0.287-0.234-0.521-0.521-0.521h-2.416
				c-0.287,0-0.522,0.234-0.522,0.521v0.089c0,0.286,0.235,0.521,0.522,0.521h2.416c0.287,0,0.521-0.235,0.521-0.521V156.338z"/>
			<path fill="#FFFFFF" stroke="#939598" d="M262.359,156.338c0-0.287-0.234-0.521-0.521-0.521h-2.416
				c-0.287,0-0.522,0.234-0.522,0.521v0.089c0,0.286,0.235,0.521,0.522,0.521h2.416c0.287,0,0.521-0.235,0.521-0.521V156.338z"/>
			<path fill="#FFFFFF" stroke="#939598" stroke-miterlimit="10" d="M258.532,156.962c-0.869,0-1.576,2.359-1.576,3.229
				c0,0.881,0.707,3.239,1.576,3.239h15.841c0.871,0,1.576-2.36,1.576-3.239c0-0.873-0.705-3.228-1.576-3.228L258.532,156.962z"/>
			<path fill="#FFFFFF" stroke="#939598" d="M258.532,156.962c-0.869,0-1.576,2.359-1.576,3.229c0,0.881,0.707,3.239,1.576,3.239
				h15.841c0.871,0,1.576-2.36,1.576-3.239c0-0.873-0.705-3.228-1.576-3.228L258.532,156.962z"/>
			<path fill="#FFFFFF" stroke="#939598" stroke-miterlimit="10" d="M271.616,150.021c0-3.761-2.285-7.904-5.103-7.904
				s-5.099,4.142-5.099,7.904c0,3.761,2.281,5.716,5.099,5.716S271.616,153.78,271.616,150.021"/>
			<path fill="#FFFFFF" stroke="#939598" d="M271.616,150.021c0-3.761-2.285-7.904-5.103-7.904s-5.099,4.142-5.099,7.904
				c0,3.761,2.281,5.716,5.099,5.716S271.616,153.78,271.616,150.021z"/>
		</g>
		<g>
			<g>
				<rect x="351.524" y="97.805" fill="#FFFFFF" stroke="#939598" width="27.09" height="52.393"/>
				<path fill="#FFFFFF" stroke="#939598" d="M365.069,124.004"/>
				<path fill="#FFFFFF" stroke="#939598" d="M365.069,124.182"/>
				<path fill="#FFFFFF" stroke="#939598" d="M365.069,141.946"/>
			</g>
			<circle fill="#FFFFFF" stroke="#939598" cx="365.199" cy="138.257" r="1.112"/>
			<path fill="#FFFFFF" stroke="#939598" d="M365.152,100.795c-7.764,0-10.606,1.791-10.606,4.303c0,0,0,37.655,0,38.271
				c0,0.613,0.168,1.881,1.792,1.881c1.626,0,8.814,0,8.814,0h0.021c0,0,7.19,0,8.814,0s1.792-1.268,1.792-1.881
				c0-0.616,0-38.246,0-38.246l-0.003-0.023C375.774,102.588,372.867,100.795,365.152,100.795z"/>
			<path fill="#FFFFFF" stroke="#939598" d="M362.868,147.198c0.002-0.629-0.504-1.133-1.14-1.133c-0.616,0-1.127,0.504-1.132,1.133
				c0.005,0.625,0.516,1.14,1.132,1.14C362.364,148.338,362.87,147.83,362.868,147.198z"/>
			<path fill="#FFFFFF" stroke="#939598" d="M369.911,147.198c0.007-0.629-0.511-1.133-1.135-1.133
				c-0.623,0-1.136,0.504-1.136,1.133c0,0.625,0.513,1.14,1.136,1.134C369.403,148.338,369.911,147.823,369.911,147.198z"/>
			<path fill="#FFFFFF" stroke="#939598" d="M363.669,147.534c0,0.932,0.629,1.685,1.561,1.687c0.93-0.002,1.438-0.755,1.438-1.687
				l-0.599-6.412c0-0.629-1.697-0.629-1.697,0L363.669,147.534z"/>
		</g>
		<polyline fill="none" stroke="#A7A9AC" stroke-dasharray="1.5,1.5,1.5,1.5,1.5,1.5" points="-16.224,109.076 -16.224,31.391 
			-4.184,18.777 		"/>
		<polyline fill="none" stroke="#A7A9AC" stroke-dasharray="1.5,1.5,1.5,1.5,1.5,1.5" points="39.389,162.682 3.269,162.682 
			-17.371,143.475 -17.371,115.956 		"/>
		<g>
			<g>
				<g>
					<path fill="none" stroke="#A7A9AC" d="M295.202,152.797"/>
				</g>
				<g>
					<path fill="none" stroke="#A7A9AC" d="M295.202,154.016"/>
				</g>
				<g>
					<circle fill="none" stroke="#A7A9AC" cx="295.202" cy="152.797" r="1.167"/>
					<path fill="none" stroke="#A7A9AC" d="M295.202,152.797"/>
				</g>
				<g>
					<g>
						<rect x="290.31" y="160.107" fill="none" stroke="#A7A9AC" width="9.808" height="2.437"/>
						<path fill="none" stroke="#A7A9AC" d="M295.202,161.325"/>
					</g>
					<g>
						<rect x="294.682" y="155.377" fill="none" stroke="#A7A9AC" width="1.038" height="4.623"/>
						<path fill="none" stroke="#A7A9AC" d="M295.202,158.082"/>
					</g>
					<g>
						<circle fill="none" stroke="#A7A9AC" cx="295.202" cy="161.302" r="1.13"/>
						<path fill="none" stroke="#A7A9AC" d="M295.202,161.302"/>
					</g>
				</g>
			</g>
			<g>
				<rect x="285.422" y="147.007" fill="none" stroke="#A7A9AC" width="19.58" height="15.91"/>
				<rect x="287.02" y="148.605" fill="none" stroke="#A7A9AC" width="16.344" height="11.444"/>
			</g>
		</g>
	</g>
	<g id="walls">
		<polyline fill="none" stroke="#939598" stroke-width="5" points="196.909,177.07 460.234,177.07 460.234,-8.661 2.784,-8.661 
			-29.101,24.209 -29.101,149.279 -0.866,177.07 169.932,177.07 		"/>
		<line fill="none" stroke="#939598" stroke-width="3" x1="413.481" y1="96.372" x2="459.347" y2="96.372"/>
		<line fill="none" stroke="#939598" stroke-width="3" x1="285.487" y1="96.372" x2="386.159" y2="96.372"/>
		<polyline fill="none" stroke="#939598" stroke-width="3" points="202.88,176.441 202.88,169.562 248.747,169.562 248.747,96.372 
			258.971,96.372 		"/>
		<line fill="none" stroke="#939598" stroke-width="3" x1="308.372" y1="81.843" x2="308.372" y2="94.647"/>
		<line fill="none" stroke="#939598" stroke-width="3" x1="308.372" y1="-7.022" x2="308.372" y2="56.33"/>
		<line fill="none" stroke="#939598" stroke-width="3" x1="249.893" y1="166.121" x2="352.709" y2="166.121"/>
		<polyline fill="none" stroke="#939598" stroke-width="3" points="380.61,96.176 380.61,152.361 352.327,152.361 352.327,169.562 
			458.594,169.562 		"/>
		<polyline fill="none" stroke="#939598" stroke-width="3" points="-2.75,-2.436 71.781,-2.436 71.911,-5.875 		"/>
		<polyline fill="none" stroke="#939598" stroke-width="3" points="307.225,-2.892 365.445,-2.892 365.445,-7.404 		"/>
		<polyline fill="none" stroke="#939598" stroke-width="3" points="449.815,-7.404 449.815,-3.026 459.347,-3.026 		"/>
		<polyline fill="none" stroke="#939598" stroke-width="3" points="156.666,142.424 161.983,142.424 161.983,177.97 		"/>
		<line fill="none" stroke="#939598" stroke-width="3" x1="116.247" y1="142.424" x2="129.799" y2="142.424"/>
		<polyline fill="none" stroke="#939598" stroke-width="3" points="59.168,175.677 59.168,142.424 67.48,142.424 		"/>
		<line fill="none" stroke="#939598" stroke-width="4" x1="124.144" y1="142.807" x2="124.144" y2="177.588"/>
	</g>
	<g id="windows">
		<g>
			<g>
				<rect x="225.098" y="-10.867" fill="#FFFFFF" stroke="#A7A9AC" width="79.763" height="4.212"/>
				<line fill="none" stroke="#A7A9AC" x1="304.861" y1="-8.782" x2="224.238" y2="-8.782"/>
				<line fill="none" stroke="#A7A9AC" stroke-width="2" x1="278.863" y1="-6.473" x2="278.863" y2="-10.479"/>
			</g>
			<line fill="none" stroke="#A7A9AC" stroke-width="2" x1="252.043" y1="-6.33" x2="252.043" y2="-10.459"/>
		</g>
		<g>
			<g>
				<rect x="368.451" y="-10.981" fill="#FFFFFF" stroke="#A7A9AC" width="79.761" height="4.212"/>
				<line fill="none" stroke="#A7A9AC" x1="448.214" y1="-8.897" x2="367.59" y2="-8.897"/>
				<line fill="none" stroke="#A7A9AC" stroke-width="2" x1="422.215" y1="-6.587" x2="422.215" y2="-10.594"/>
			</g>
			<line fill="none" stroke="#A7A9AC" stroke-width="2" x1="395.397" y1="-6.444" x2="395.397" y2="-10.574"/>
		</g>
	</g>
	<g id="Type">
		<g enable-background="new    ">
			<path fill="#939598" d="M-18.042,115.682h-1.952v-5.621h1.952c1.767,0,2.987,1.213,2.987,2.803
				C-15.055,114.452-16.275,115.682-18.042,115.682z M-18.042,110.645h-1.317v4.45h1.317c1.42,0,2.329-0.963,2.329-2.218
				C-15.714,111.624-16.622,110.645-18.042,110.645z"/>
			<path fill="#939598" d="M-10.601,110.043h0.522l1.542,4.7l1.606-4.683h0.666l-2.008,5.662H-8.81l-1.542-4.562l-1.55,4.562h-0.53
				l-2.008-5.662h0.691l1.606,4.683L-10.601,110.043z"/>
		</g>
		<g enable-background="new    ">
			<path fill="#939598" d="M20.744,159.824l-1.631-2.186h-1.606v2.186h-0.634v-5.621h2.417c1.235,0,2.03,0.666,2.03,1.678
				c0,0.939-0.642,1.485-1.526,1.647l1.727,2.297L20.744,159.824L20.744,159.824z M19.242,154.788h-1.735v2.28h1.727
				c0.843,0,1.446-0.433,1.446-1.165C20.68,155.207,20.15,154.788,19.242,154.788z"/>
			<path fill="#939598" d="M24.323,159.383c0.57,0,0.972-0.233,1.31-0.588l0.385,0.346c-0.417,0.465-0.922,0.779-1.71,0.779
				c-1.141,0-2.072-0.876-2.072-2.169c0-1.205,0.842-2.168,1.991-2.168c1.229,0,1.936,0.979,1.936,2.199
				c0,0.059,0,0.121-0.008,0.192h-3.293C22.949,158.876,23.592,159.383,24.323,159.383z M25.535,157.52
				c-0.064-0.755-0.498-1.414-1.325-1.414c-0.723,0-1.268,0.602-1.35,1.414H25.535z"/>
			<path fill="#939598" d="M29.403,155.688v0.53h-1.31v3.606h-0.618v-3.606h-0.571v-0.539h0.571v-0.359
				c0-0.908,0.458-1.39,1.252-1.39c0.289,0,0.482,0.031,0.682,0.104v0.539c-0.225-0.065-0.393-0.105-0.602-0.105
				c-0.481,0-0.722,0.29-0.722,0.885v0.336H29.403L29.403,155.688z"/>
		</g>
		<g enable-background="new    ">
			<path fill="#939598" d="M39.363,79.532h5.621v0.636h-5.621V79.532z"/>
			<path fill="#939598" d="M45.066,76.617c0,0.595-0.233,1.253-0.61,1.719l-0.442-0.312c0.337-0.449,0.531-0.948,0.531-1.438
				c0-0.498-0.258-0.859-0.66-0.859h-0.016c-0.417,0-0.578,0.489-0.732,1.035c-0.184,0.65-0.408,1.374-1.172,1.374h-0.016
				c-0.714,0-1.188-0.595-1.188-1.414c0-0.506,0.176-1.068,0.457-1.494l0.465,0.281c-0.249,0.386-0.402,0.828-0.402,1.229
				c0,0.489,0.257,0.803,0.602,0.803h0.016c0.394,0,0.547-0.515,0.714-1.069c0.193-0.642,0.443-1.333,1.189-1.333h0.016
				C44.606,75.14,45.066,75.791,45.066,76.617z"/>
			<path fill="#939598" d="M44.984,73.938h-5.861V73.32h5.861V73.938z"/>
			<path fill="#939598" d="M41.628,71.643l-0.505,0.184c-0.209-0.458-0.346-0.908-0.346-1.51c0-1.131,0.578-1.767,1.671-1.767h2.537
				v0.594h-0.626c0.377,0.289,0.715,0.771,0.715,1.502c0,0.771-0.434,1.55-1.301,1.55c-0.884,0-1.35-0.722-1.35-1.775
				c0-0.53,0.072-0.908,0.176-1.278h-0.144c-0.747,0-1.132,0.458-1.132,1.237C41.323,70.872,41.45,71.257,41.628,71.643z
				 M43.749,71.57c0.529,0,0.834-0.481,0.834-1.045c0-0.763-0.465-1.389-1.124-1.389h-0.401c-0.088,0.305-0.177,0.715-0.177,1.22
				C42.88,71.137,43.217,71.57,43.749,71.57z"/>
			<path fill="#939598" d="M44.984,66.618v0.618h-4.152v-0.618h0.724c-0.451-0.273-0.812-0.706-0.812-1.422
				c0-1.003,0.675-1.59,1.662-1.59h2.578v0.619h-2.425c-0.771,0-1.253,0.417-1.253,1.147c0,0.715,0.521,1.244,1.302,1.244h2.376
				V66.618z"/>
			<path fill="#939598" d="M44.984,58.959h-0.836c0.499,0.337,0.924,0.826,0.924,1.59c0,0.996-0.788,1.984-2.16,1.984
				c-1.366,0-2.17-0.988-2.17-1.984c0-0.771,0.417-1.268,0.884-1.59h-2.505V58.34h5.861L44.984,58.959L44.984,58.959z
				 M41.299,60.438c0,0.802,0.595,1.462,1.605,1.462c0.989,0,1.615-0.674,1.615-1.462c0-0.771-0.643-1.502-1.615-1.502
				C41.941,58.935,41.299,59.666,41.299,60.438z"/>
		</g>
		<g enable-background="new    ">
			<path fill="#939598" d="M178.096,171.312h-3.43v1.919h3.067v0.579h-3.067v1.968h3.47v0.577h-4.104v-5.621h4.064V171.312
				L178.096,171.312z"/>
			<path fill="#939598" d="M179.923,176.354h-0.618v-4.151h0.618v0.723c0.273-0.45,0.707-0.811,1.422-0.811
				c1.003,0,1.59,0.674,1.59,1.662v2.577h-0.619v-2.425c0-0.771-0.417-1.253-1.148-1.253c-0.714,0-1.244,0.521-1.244,1.302v2.376
				H179.923z"/>
			<path fill="#939598" d="M185.084,175.175c0,0.506,0.281,0.692,0.698,0.692c0.209,0,0.385-0.041,0.602-0.146v0.531
				c-0.217,0.112-0.449,0.177-0.747,0.177c-0.667,0-1.172-0.331-1.172-1.174v-2.506h-0.578v-0.546h0.578v-1.253h0.618v1.253h1.317
				v0.546h-1.317V175.175L185.084,175.175z"/>
			<path fill="#939598" d="M188.112,176.354h-0.618v-4.151h0.618v1.084c0.305-0.69,0.908-1.188,1.695-1.156v0.665h-0.048
				c-0.907,0-1.646,0.651-1.646,1.904V176.354L188.112,176.354z"/>
			<path fill="#939598" d="M192.767,176.491c-0.353,0.859-0.754,1.172-1.382,1.172c-0.345,0-0.602-0.072-0.884-0.209l0.209-0.49
				c0.2,0.104,0.385,0.152,0.65,0.152c0.369,0,0.602-0.192,0.85-0.779l-1.887-4.136h0.683l1.51,3.462l1.334-3.462h0.658
				L192.767,176.491z"/>
		</g>
		<g enable-background="new    ">
			<path fill="#939598" d="M18.837,123.585h-1.022l-2.777-3.498l-1.538,1.558v1.94h-0.815v-7.228H13.5v4.315l4.15-4.315h1.053
				l-3.098,3.16L18.837,123.585z"/>
			<path fill="#939598" d="M19.991,117.083v-0.878h0.908v0.878H19.991z M20.042,123.585v-5.336h0.795v5.336H20.042z"/>
			<path fill="#939598" d="M23.759,122.068c0,0.649,0.361,0.887,0.897,0.887c0.269,0,0.496-0.051,0.774-0.186v0.682
				c-0.279,0.145-0.578,0.228-0.96,0.228c-0.856,0-1.507-0.423-1.507-1.507v-3.221h-0.743v-0.702h0.743v-1.61h0.795v1.61h1.693
				v0.702h-1.693V122.068z"/>
			<path fill="#939598" d="M29.105,123.71c-1.559,0-2.736-1.27-2.736-2.777c0-1.516,1.176-2.797,2.736-2.797
				c1.011,0,1.641,0.423,2.136,0.949l-0.526,0.557c-0.423-0.443-0.898-0.805-1.622-0.805c-1.083,0-1.91,0.92-1.91,2.076
				c0,1.167,0.847,2.085,1.96,2.085c0.682,0,1.208-0.342,1.63-0.795l0.506,0.475C30.746,123.275,30.106,123.71,29.105,123.71z"/>
			<path fill="#939598" d="M33.387,123.585h-0.794v-7.535h0.794v3.13c0.351-0.58,0.908-1.044,1.827-1.044
				c1.29,0,2.044,0.867,2.044,2.137v3.314h-0.795v-3.117c0-0.992-0.537-1.61-1.477-1.61c-0.919,0-1.601,0.67-1.601,1.671v3.055
				H33.387z"/>
			<path fill="#939598" d="M41.302,123.018c0.733,0,1.249-0.3,1.684-0.753l0.495,0.443c-0.536,0.599-1.188,1.002-2.199,1.002
				c-1.465,0-2.662-1.124-2.662-2.787c0-1.549,1.083-2.789,2.559-2.789c1.579,0,2.488,1.261,2.488,2.828c0,0.073,0,0.157-0.01,0.25
				h-4.232C39.538,122.367,40.364,123.018,41.302,123.018z M42.861,120.622c-0.082-0.97-0.639-1.816-1.703-1.816
				c-0.929,0-1.63,0.774-1.733,1.816H42.861z"/>
			<path fill="#939598" d="M45.854,123.585h-0.795v-5.336h0.795v0.931c0.351-0.58,0.908-1.044,1.828-1.044
				c1.29,0,2.043,0.867,2.043,2.137v3.314H48.93v-3.117c0-0.992-0.537-1.61-1.477-1.61c-0.919,0-1.601,0.67-1.601,1.671
				L45.854,123.585L45.854,123.585z"/>
		</g>
		<g enable-background="new    ">
			<path fill="#939598" d="M134.26,155.715c-1.622,0-2.818-1.276-2.818-2.897c0-1.605,1.189-2.916,2.843-2.916
				c1.02,0,1.63,0.36,2.192,0.892l-0.434,0.466c-0.474-0.45-1.003-0.772-1.767-0.772c-1.246,0-2.176,1.005-2.176,2.314
				c0,1.309,0.938,2.329,2.176,2.329c0.77,0,1.276-0.299,1.815-0.812l0.417,0.41C135.923,155.322,135.281,155.715,134.26,155.715z"
				/>
			<path fill="#939598" d="M137.566,155.619v-5.861h0.618v5.861H137.566z"/>
			<path fill="#939598" d="M141.517,155.715c-1.245,0-2.152-0.979-2.152-2.159c0-1.182,0.915-2.176,2.168-2.176
				c1.245,0,2.16,0.979,2.16,2.158C143.693,154.72,142.769,155.715,141.517,155.715z M141.517,151.925
				c-0.9,0-1.518,0.714-1.518,1.613c0,0.9,0.658,1.622,1.533,1.622c0.9,0,1.526-0.715,1.526-1.604
				C143.059,152.647,142.392,151.925,141.517,151.925z"/>
			<path fill="#939598" d="M146.179,155.699c-0.594,0-1.252-0.232-1.718-0.609l0.313-0.442c0.449,0.337,0.948,0.53,1.438,0.53
				c0.498,0,0.86-0.258,0.86-0.659v-0.017c0-0.417-0.49-0.578-1.037-0.73c-0.65-0.184-1.374-0.409-1.374-1.173v-0.017
				c0-0.714,0.595-1.187,1.414-1.187c0.505,0,1.069,0.175,1.494,0.455l-0.281,0.466c-0.385-0.249-0.828-0.401-1.229-0.401
				c-0.489,0-0.802,0.257-0.802,0.603v0.016c0,0.394,0.514,0.547,1.069,0.714c0.642,0.192,1.333,0.443,1.333,1.189v0.016
				C147.657,155.241,147.007,155.699,146.179,155.699z"/>
			<path fill="#939598" d="M150.635,155.178c0.57,0,0.973-0.232,1.31-0.587l0.385,0.345c-0.417,0.466-0.923,0.779-1.711,0.779
				c-1.141,0-2.072-0.875-2.072-2.167c0-1.205,0.843-2.171,1.992-2.171c1.228,0,1.936,0.98,1.936,2.202c0,0.056,0,0.119-0.008,0.192
				h-3.293C149.261,154.672,149.903,155.178,150.635,155.178z M151.847,153.314c-0.064-0.755-0.498-1.414-1.326-1.414
				c-0.722,0-1.268,0.603-1.349,1.414H151.847z"/>
			<path fill="#939598" d="M154.39,154.438c0,0.507,0.281,0.692,0.698,0.692c0.209,0,0.385-0.04,0.603-0.146v0.53
				c-0.217,0.112-0.45,0.178-0.747,0.178c-0.667,0-1.172-0.332-1.172-1.174v-2.506h-0.578v-0.547h0.578v-1.253h0.618v1.253h1.317
				v0.547h-1.317V154.438L154.39,154.438z"/>
		</g>
		<g enable-background="new    ">
			<path fill="#939598" d="M75.966,143.321h0.634v5.036h3.165v0.588h-3.799V143.321z"/>
			<path fill="#939598" d="M81.071,145.587l-0.185-0.505c0.458-0.209,0.908-0.345,1.51-0.345c1.132,0,1.767,0.577,1.767,1.669v2.539
				H83.57v-0.627c-0.29,0.377-0.771,0.714-1.502,0.714c-0.771,0-1.55-0.433-1.55-1.301c0-0.885,0.722-1.351,1.775-1.351
				c0.53,0,0.908,0.073,1.278,0.177v-0.144c0-0.746-0.458-1.133-1.238-1.133C81.842,145.281,81.457,145.411,81.071,145.587z
				 M81.144,147.709c0,0.528,0.481,0.834,1.045,0.834c0.762,0,1.388-0.466,1.388-1.123v-0.402c-0.305-0.088-0.714-0.176-1.22-0.176
				C81.577,146.84,81.144,147.178,81.144,147.709z"/>
			<path fill="#939598" d="M88.425,144.793h0.61v4.152h-0.61v-0.724c-0.281,0.45-0.708,0.811-1.422,0.811
				c-1.003,0-1.59-0.675-1.59-1.661v-2.578h0.618v2.425c0,0.771,0.417,1.253,1.148,1.253c0.707,0,1.245-0.522,1.245-1.302
				L88.425,144.793L88.425,144.793z"/>
			<path fill="#939598" d="M91.04,148.945h-0.618v-4.152h0.618v0.724c0.273-0.451,0.707-0.813,1.422-0.813
				c1.003,0,1.59,0.677,1.59,1.664v2.578h-0.619v-2.426c0-0.771-0.417-1.254-1.148-1.254c-0.714,0-1.244,0.521-1.244,1.301
				L91.04,148.945L91.04,148.945z"/>
			<path fill="#939598" d="M98.699,148.945v-0.837c-0.337,0.499-0.827,0.924-1.591,0.924c-0.995,0-1.983-0.788-1.983-2.16
				c0-1.364,0.989-2.169,1.983-2.169c0.771,0,1.269,0.417,1.591,0.884v-2.505h0.619v5.861h-0.619V148.945z M97.222,145.258
				c-0.803,0-1.462,0.595-1.462,1.605c0,0.989,0.674,1.614,1.462,1.614c0.771,0,1.502-0.644,1.502-1.614
				C98.723,145.899,97.992,145.258,97.222,145.258z"/>
			<path fill="#939598" d="M101.314,148.945h-0.618v-4.152h0.618v1.083c0.305-0.691,0.908-1.188,1.695-1.155v0.666h-0.048
				c-0.908,0-1.646,0.649-1.646,1.903V148.945z"/>
			<path fill="#939598" d="M105.969,149.081c-0.353,0.858-0.754,1.172-1.382,1.172c-0.345,0-0.602-0.072-0.884-0.208l0.209-0.492
				c0.2,0.104,0.385,0.154,0.65,0.154c0.37,0,0.602-0.194,0.851-0.779l-1.888-4.137h0.682l1.511,3.462l1.333-3.462h0.658
				L105.969,149.081z"/>
		</g>
		<g enable-background="new    ">
			<path fill="#939598" d="M296.75,121.893c0,0.949-0.578,1.436-1.146,1.684c0.857,0.258,1.549,0.753,1.549,1.754
				c0,1.249-1.043,1.983-2.622,1.983h-3.211v-7.227h3.077C295.82,120.087,296.75,120.789,296.75,121.893z M295.923,122.006
				c0-0.724-0.566-1.188-1.6-1.188h-2.199v2.488h2.137C295.243,123.307,295.923,122.863,295.923,122.006z M296.327,125.279
				c0-0.794-0.661-1.25-1.922-1.25h-2.28v2.55h2.426C295.645,126.579,296.327,126.094,296.327,125.279z"/>
			<path fill="#939598" d="M298.947,122.998l-0.237-0.649c0.588-0.269,1.165-0.446,1.939-0.446c1.455,0,2.27,0.744,2.27,2.148v3.263
				h-0.764v-0.805c-0.372,0.484-0.99,0.918-1.932,0.918c-0.988,0-1.99-0.557-1.99-1.672c0-1.136,0.929-1.735,2.279-1.735
				c0.683,0,1.168,0.094,1.643,0.229v-0.187c0-0.961-0.588-1.457-1.591-1.457C299.936,122.604,299.442,122.77,298.947,122.998z
				 M299.039,125.724c0,0.681,0.62,1.073,1.341,1.073c0.981,0,1.788-0.599,1.788-1.445v-0.515c-0.393-0.114-0.92-0.228-1.57-0.228
				C299.596,124.608,299.039,125.041,299.039,125.724z"/>
			<path fill="#939598" d="M305.634,125.795c0,0.649,0.36,0.887,0.897,0.887c0.268,0,0.496-0.051,0.775-0.186v0.682
				c-0.279,0.145-0.578,0.228-0.961,0.228c-0.855,0-1.508-0.423-1.508-1.507v-3.221h-0.741v-0.702h0.741v-1.61h0.796v1.61h1.692
				v0.702h-1.692V125.795L305.634,125.795z"/>
			<path fill="#939598" d="M309.524,127.312h-0.793v-7.535h0.793v3.13c0.352-0.58,0.909-1.044,1.827-1.044
				c1.29,0,2.045,0.867,2.045,2.137v3.314h-0.795v-3.117c0-0.992-0.537-1.61-1.476-1.61c-0.919,0-1.601,0.67-1.601,1.671
				L309.524,127.312L309.524,127.312z"/>
		</g>
		<g enable-background="new    ">
			<path fill="#939598" d="M406.014,137.082c-1.621,0-2.817-1.276-2.817-2.897c0-1.606,1.188-2.916,2.843-2.916
				c1.021,0,1.63,0.36,2.192,0.892l-0.434,0.466c-0.474-0.45-1.005-0.772-1.766-0.772c-1.245,0-2.177,1.005-2.177,2.314
				c0,1.309,0.939,2.329,2.177,2.329c0.771,0,1.276-0.3,1.813-0.812l0.418,0.41C407.678,136.689,407.036,137.082,406.014,137.082z"
				/>
			<path fill="#939598" d="M409.321,136.986v-5.861h0.618v5.861H409.321z"/>
			<path fill="#939598" d="M413.271,137.082c-1.245,0-2.152-0.979-2.152-2.16c0-1.181,0.916-2.176,2.168-2.176
				c1.245,0,2.161,0.979,2.161,2.159C415.448,136.087,414.524,137.082,413.271,137.082z M413.271,133.291
				c-0.899,0-1.518,0.714-1.518,1.614s0.657,1.622,1.533,1.622c0.9,0,1.527-0.715,1.527-1.605
				C414.814,134.014,414.146,133.291,413.271,133.291z"/>
			<path fill="#939598" d="M417.933,137.066c-0.593,0-1.252-0.232-1.718-0.61l0.313-0.442c0.45,0.338,0.947,0.531,1.438,0.531
				c0.497,0,0.858-0.258,0.858-0.659v-0.018c0-0.416-0.489-0.577-1.036-0.729c-0.651-0.184-1.372-0.409-1.372-1.173v-0.017
				c0-0.715,0.595-1.187,1.413-1.187c0.506,0,1.068,0.174,1.493,0.455l-0.282,0.466c-0.385-0.249-0.826-0.401-1.227-0.401
				c-0.491,0-0.803,0.257-0.803,0.603v0.016c0,0.394,0.514,0.547,1.069,0.714c0.643,0.192,1.331,0.443,1.331,1.189v0.016
				C419.412,136.608,418.762,137.066,417.933,137.066z"/>
			<path fill="#939598" d="M422.39,136.545c0.568,0,0.972-0.233,1.308-0.587l0.386,0.345c-0.415,0.466-0.923,0.779-1.709,0.779
				c-1.14,0-2.074-0.875-2.074-2.168c0-1.204,0.845-2.17,1.993-2.17c1.228,0,1.936,0.98,1.936,2.201c0,0.057,0,0.12-0.01,0.193
				h-3.292C421.015,136.039,421.658,136.545,422.39,136.545z M423.602,134.682c-0.065-0.755-0.498-1.414-1.326-1.414
				c-0.723,0-1.268,0.603-1.349,1.414H423.602z"/>
			<path fill="#939598" d="M426.146,135.806c0,0.506,0.279,0.692,0.696,0.692c0.21,0,0.388-0.041,0.603-0.146v0.53
				c-0.215,0.112-0.45,0.177-0.746,0.177c-0.667,0-1.171-0.331-1.171-1.173v-2.506h-0.58v-0.547h0.58v-1.253h0.618v1.253h1.316
				v0.547h-1.316V135.806z"/>
		</g>
		<g enable-background="new    ">
			<path fill="#939598" d="M366.686,35.151c0,0.95-0.578,1.436-1.145,1.684c0.855,0.257,1.548,0.753,1.548,1.754
				c0,1.249-1.043,1.983-2.623,1.983h-3.209v-7.226h3.077C365.757,33.346,366.686,34.048,366.686,35.151z M365.862,35.266
				c0-0.723-0.569-1.188-1.602-1.188h-2.199v2.488h2.137C365.18,36.566,365.862,36.123,365.862,35.266z M366.262,38.539
				c0-0.794-0.659-1.25-1.919-1.25h-2.282v2.55h2.426C365.582,39.837,366.262,39.353,366.262,38.539z"/>
			<path fill="#939598" d="M370.927,40.004c0.732,0,1.25-0.299,1.683-0.753l0.497,0.443c-0.538,0.599-1.188,1.002-2.199,1.002
				c-1.465,0-2.663-1.125-2.663-2.787c0-1.549,1.084-2.789,2.56-2.789c1.58,0,2.488,1.26,2.488,2.829c0,0.072,0,0.156-0.011,0.249
				h-4.232C369.163,39.353,369.987,40.004,370.927,40.004z M372.487,37.609c-0.083-0.97-0.641-1.816-1.705-1.816
				c-0.928,0-1.63,0.774-1.733,1.816H372.487z"/>
			<path fill="#939598" d="M378.965,40.572v-1.075c-0.433,0.641-1.062,1.187-2.042,1.187c-1.281,0-2.552-1.012-2.552-2.776
				c0-1.756,1.27-2.789,2.552-2.789c0.989,0,1.63,0.537,2.042,1.136v-3.222h0.795v7.536h-0.795V40.572z M377.067,35.834
				c-1.031,0-1.88,0.764-1.88,2.063c0,1.27,0.869,2.076,1.88,2.076c0.991,0,1.932-0.826,1.932-2.076
				C378.999,36.659,378.058,35.834,377.067,35.834z"/>
			<path fill="#939598" d="M382.329,40.572h-0.792v-5.336h0.792v1.393c0.394-0.886,1.167-1.527,2.18-1.486v0.856h-0.062
				c-1.167,0-2.118,0.836-2.118,2.447L382.329,40.572L382.329,40.572z"/>
			<path fill="#939598" d="M387.923,40.695c-1.599,0-2.766-1.26-2.766-2.777c0-1.517,1.177-2.798,2.788-2.798
				c1.601,0,2.774,1.26,2.774,2.777C390.72,39.416,389.534,40.695,387.923,40.695z M387.923,35.822c-1.155,0-1.95,0.92-1.95,2.075
				c0,1.157,0.847,2.086,1.973,2.086c1.157,0,1.96-0.92,1.96-2.065C389.906,36.752,389.05,35.822,387.923,35.822z"/>
			<path fill="#939598" d="M394.59,40.695c-1.601,0-2.766-1.26-2.766-2.777c0-1.517,1.176-2.798,2.786-2.798
				c1.602,0,2.777,1.26,2.777,2.777C397.388,39.416,396.201,40.695,394.59,40.695z M394.59,35.822c-1.155,0-1.95,0.92-1.95,2.075
				c0,1.157,0.847,2.086,1.971,2.086c1.158,0,1.962-0.92,1.962-2.065C396.573,36.752,395.716,35.822,394.59,35.822z"/>
			<path fill="#939598" d="M404.933,35.121c1.227,0,1.981,0.826,1.981,2.148v3.303h-0.794v-3.118c0-1.032-0.517-1.61-1.384-1.61
				c-0.805,0-1.476,0.598-1.476,1.651v3.077h-0.785v-3.137c0-1.002-0.526-1.591-1.373-1.591s-1.485,0.702-1.485,1.683v3.045h-0.794
				v-5.336h0.794v0.897c0.35-0.526,0.825-1.012,1.723-1.012c0.868,0,1.426,0.464,1.715,1.064
				C403.434,35.597,404.003,35.121,404.933,35.121z"/>
		</g>
		<g enable-background="new    ">
			<path fill="#939598" d="M358.131,45.907h0.597v7.278h-0.806v-6.43l-1.361,0.423l-0.197-0.661L358.131,45.907z"/>
			<path fill="#939598" d="M365.013,45.907v4.883h1.125v0.682h-1.125v1.713h-0.785v-1.713h-3.809l-0.207-0.589l4.089-4.976H365.013z
				 M364.229,47.063l-3.034,3.727h3.034V47.063z"/>
			<path fill="#939598" d="M367.676,45.959h0.97v0.051l-0.836,2.755h-0.444L367.676,45.959z"/>
			<path fill="#939598" d="M370.453,47.827l-0.599-0.434c0.65-0.97,1.331-1.538,2.604-1.538c1.31,0,2.238,0.867,2.238,2.053
				c0,1.064-0.557,1.714-1.827,2.819l-1.932,1.713h3.829v0.743h-5.047v-0.629l2.623-2.313c1.104-0.991,1.506-1.549,1.506-2.27
				c0-0.847-0.67-1.384-1.456-1.384C371.566,46.588,371.031,47.021,370.453,47.827z"/>
			<path fill="#939598" d="M376.385,45.959h0.961v0.051l-0.837,2.755h-0.433L376.385,45.959z M378.409,45.959h0.951v0.051
				l-0.838,2.755h-0.433L378.409,45.959z"/>
			<path fill="#939598" d="M388.564,53.185h-0.918l-1.653-2.177l-1.66,2.177h-0.886l2.094-2.715l-2.012-2.621h0.906l1.58,2.064
				l1.58-2.064h0.886l-2.022,2.602L388.564,53.185z"/>
			<path fill="#939598" d="M395.106,53.309c-0.938,0-1.622-0.382-2.229-0.888l0.475-0.63c0.588,0.516,1.136,0.775,1.775,0.775
				c1.301,0,2.178-1.321,2.147-3.169c-0.394,0.629-1.043,1.156-2.045,1.156c-1.486,0-2.517-0.939-2.517-2.25
				c0-1.384,1.062-2.468,2.601-2.468c0.826,0,1.436,0.279,1.899,0.744c0.568,0.567,0.897,1.353,0.897,2.808
				C398.109,51.687,396.892,53.309,395.106,53.309z M395.282,46.559c-1.083,0-1.734,0.793-1.734,1.703
				c0,0.929,0.723,1.589,1.775,1.589c1.104,0,1.796-0.805,1.796-1.641C397.119,47.281,396.365,46.559,395.282,46.559z"/>
			<path fill="#939598" d="M399.718,45.959h0.971v0.051l-0.838,2.755h-0.443L399.718,45.959z"/>
			<path fill="#939598" d="M402.164,46.691v-0.732h4.614v0.598l-2.271,2.518c1.27,0.103,2.384,0.712,2.384,2.043
				c0,1.301-1.073,2.188-2.415,2.188c-1.207,0-2.105-0.527-2.694-1.291l0.589-0.526c0.557,0.683,1.228,1.075,2.116,1.075
				c0.878,0,1.58-0.557,1.58-1.414c0-0.908-0.827-1.405-2.023-1.405h-0.466l-0.165-0.485l2.281-2.571h-3.53V46.691z"/>
			<path fill="#939598" d="M408.572,45.959h0.961v0.051l-0.835,2.755h-0.434L408.572,45.959z M410.594,45.959h0.952v0.051
				l-0.838,2.755h-0.433L410.594,45.959z"/>
		</g>
		<g enable-background="new    ">
			<path fill="#939598" d="M115.43,50.737h0.815v6.472h4.067v0.754h-4.883V50.737z"/>
			<path fill="#939598" d="M121.706,51.459v-0.877h0.908v0.877H121.706z M121.756,57.963v-5.336h0.794v5.336H121.756z"/>
			<path fill="#939598" d="M128.352,52.626h0.856l-2.322,5.378h-0.702l-2.312-5.378h0.878l1.796,4.428L128.352,52.626z"/>
			<path fill="#939598" d="M130.477,51.459v-0.877h0.908v0.877H130.477z M130.528,57.963v-5.336h0.795v5.336H130.528z"/>
			<path fill="#939598" d="M133.965,57.963h-0.794v-5.336h0.794v0.93c0.351-0.58,0.908-1.044,1.828-1.044
				c1.29,0,2.043,0.868,2.043,2.137v3.314h-0.794v-3.117c0-0.991-0.537-1.61-1.477-1.61c-0.918,0-1.601,0.67-1.601,1.672
				L133.965,57.963L133.965,57.963z"/>
			<path fill="#939598" d="M141.892,59.635c-0.887,0-1.714-0.248-2.427-0.742l0.362-0.619c0.609,0.444,1.29,0.682,2.055,0.682
				c1.177,0,1.941-0.651,1.941-1.899v-0.63c-0.465,0.621-1.116,1.125-2.096,1.125c-1.28,0-2.509-0.95-2.509-2.509
				c0-1.569,1.238-2.53,2.509-2.53c1.001,0,1.651,0.497,2.084,1.074v-0.959h0.795v4.407
				C144.606,58.757,143.533,59.635,141.892,59.635z M141.88,53.213c-1.011,0-1.847,0.692-1.847,1.807
				c0,1.094,0.857,1.826,1.847,1.826c1.012,0,1.962-0.722,1.962-1.816C143.842,53.925,142.893,53.213,141.88,53.213z"/>
			<path fill="#939598" d="M150.798,49.724l-4.79,9.56h-0.732l4.79-9.56H150.798z"/>
			<path fill="#939598" d="M154.265,57.963h-2.509v-7.226h2.509c2.271,0,3.84,1.558,3.84,3.603
				C158.104,56.384,156.536,57.963,154.265,57.963z M154.265,51.49h-1.694v5.718h1.694c1.826,0,2.994-1.238,2.994-2.848
				C157.259,52.75,156.091,51.49,154.265,51.49z"/>
			<path fill="#939598" d="M159.713,51.459v-0.877h0.908v0.877H159.713z M159.764,57.963v-5.336h0.794v5.336H159.764z"/>
			<path fill="#939598" d="M163.201,57.963h-0.794v-5.336h0.794v0.93c0.351-0.58,0.908-1.044,1.828-1.044
				c1.29,0,2.043,0.868,2.043,2.137v3.314h-0.794v-3.117c0-0.991-0.537-1.61-1.477-1.61c-0.918,0-1.601,0.67-1.601,1.672
				L163.201,57.963L163.201,57.963z"/>
			<path fill="#939598" d="M168.783,51.459v-0.877h0.908v0.877H168.783z M168.835,57.963v-5.336h0.794v5.336H168.835z"/>
			<path fill="#939598" d="M172.272,57.963h-0.795v-5.336h0.795v0.93c0.351-0.58,0.908-1.044,1.828-1.044
				c1.29,0,2.043,0.868,2.043,2.137v3.314h-0.795v-3.117c0-0.991-0.537-1.61-1.477-1.61c-0.918,0-1.601,0.67-1.601,1.672
				L172.272,57.963L172.272,57.963z"/>
			<path fill="#939598" d="M180.198,59.635c-0.888,0-1.714-0.248-2.426-0.742l0.361-0.619c0.609,0.444,1.29,0.682,2.055,0.682
				c1.176,0,1.941-0.651,1.941-1.899v-0.63c-0.464,0.621-1.115,1.125-2.096,1.125c-1.28,0-2.509-0.95-2.509-2.509
				c0-1.569,1.239-2.53,2.509-2.53c1,0,1.651,0.497,2.084,1.074v-0.959h0.794v4.407C182.913,58.757,181.838,59.635,180.198,59.635z
				 M180.187,53.213c-1.011,0-1.847,0.692-1.847,1.807c0,1.094,0.856,1.826,1.847,1.826c1.011,0,1.961-0.722,1.961-1.816
				C182.148,53.925,181.198,53.213,180.187,53.213z"/>
			<path fill="#939598" d="M192.892,57.963l-2.096-2.809h-2.064v2.809h-0.815v-7.226h3.107c1.589,0,2.612,0.857,2.612,2.158
				c0,1.207-0.825,1.909-1.961,2.115l2.22,2.953H192.892z M190.961,51.49h-2.229v2.932h2.22c1.083,0,1.859-0.558,1.859-1.498
				C192.809,52.027,192.128,51.49,190.961,51.49z"/>
			<path fill="#939598" d="M197.576,58.086c-1.601,0-2.767-1.26-2.767-2.777s1.176-2.798,2.788-2.798
				c1.601,0,2.776,1.26,2.776,2.777C200.373,56.807,199.186,58.086,197.576,58.086z M197.576,53.213
				c-1.156,0-1.952,0.92-1.952,2.075c0,1.157,0.846,2.086,1.972,2.086c1.156,0,1.961-0.92,1.961-2.065
				C199.559,54.143,198.701,53.213,197.576,53.213z"/>
			<path fill="#939598" d="M204.243,58.086c-1.601,0-2.767-1.26-2.767-2.777s1.177-2.798,2.788-2.798
				c1.601,0,2.776,1.26,2.776,2.777C207.039,56.807,205.852,58.086,204.243,58.086z M204.243,53.213
				c-1.156,0-1.952,0.92-1.952,2.075c0,1.157,0.846,2.086,1.972,2.086c1.156,0,1.961-0.92,1.961-2.065
				C206.224,54.143,205.368,53.213,204.243,53.213z"/>
			<path fill="#939598" d="M214.584,52.512c1.228,0,1.982,0.826,1.982,2.148v3.303h-0.794v-3.118c0-1.032-0.516-1.61-1.384-1.61
				c-0.805,0-1.476,0.597-1.476,1.651v3.077h-0.786v-3.137c0-1.002-0.526-1.59-1.373-1.59s-1.486,0.702-1.486,1.682v3.045h-0.794
				v-5.336h0.794v0.897c0.351-0.526,0.826-1.012,1.724-1.012c0.867,0,1.425,0.464,1.714,1.064
				C213.086,52.988,213.654,52.512,214.584,52.512z"/>
		</g>
		<g enable-background="new    ">
			<path fill="#939598" d="M135.905,65.218l-0.599-0.434c0.651-0.97,1.332-1.538,2.602-1.538c1.311,0,2.241,0.867,2.241,2.054
				c0,1.064-0.557,1.714-1.828,2.818l-1.93,1.713h3.83v0.743h-5.047v-0.629l2.622-2.313c1.104-0.991,1.507-1.549,1.507-2.27
				c0-0.847-0.671-1.384-1.456-1.384C137.02,63.979,136.484,64.413,135.905,65.218z"/>
			<path fill="#939598" d="M145.835,63.298v4.882h1.125v0.682h-1.125v1.713h-0.785v-1.713h-3.809l-0.207-0.589l4.087-4.975H145.835z
				 M145.05,64.454l-3.035,3.727h3.035V64.454z"/>
			<path fill="#939598" d="M148.496,63.35h0.97v0.051l-0.836,2.755h-0.444L148.496,63.35z"/>
			<path fill="#939598" d="M150.942,64.083V63.35h4.614v0.599l-2.271,2.518c1.27,0.103,2.385,0.712,2.385,2.043
				c0,1.301-1.073,2.188-2.415,2.188c-1.208,0-2.105-0.527-2.694-1.291l0.587-0.526c0.558,0.683,1.229,1.075,2.117,1.075
				c0.877,0,1.579-0.557,1.579-1.414c0-0.908-0.826-1.405-2.023-1.405h-0.464l-0.165-0.485l2.282-2.571h-3.532V64.083z"/>
			<path fill="#939598" d="M157.351,63.35h0.959v0.051l-0.836,2.755h-0.433L157.351,63.35z M159.375,63.35h0.951v0.051l-0.836,2.755
				h-0.434L159.375,63.35z"/>
			<path fill="#939598" d="M169.529,70.576h-0.919l-1.651-2.177l-1.661,2.177h-0.888l2.096-2.715l-2.012-2.621h0.908l1.579,2.065
				l1.579-2.065h0.888l-2.024,2.602L169.529,70.576z"/>
			<path fill="#939598" d="M175.08,63.298h0.598v7.277h-0.804v-6.43l-1.362,0.423l-0.197-0.661L175.08,63.298z"/>
			<path fill="#939598" d="M182.016,64.681c-0.537-0.454-1.042-0.711-1.703-0.711c-1.311,0-2.125,1.321-2.115,3.189
				c0.392-0.579,1.001-1.105,2.055-1.105c1.352,0,2.498,0.868,2.498,2.229c0,1.405-1.125,2.416-2.59,2.416
				c-0.794,0-1.446-0.278-1.9-0.734c-0.578-0.578-0.908-1.321-0.908-2.807c0-2.21,1.115-3.934,3.004-3.934
				c0.866,0,1.506,0.311,2.137,0.827L182.016,64.681z M180.147,66.756c-1.083,0-1.806,0.774-1.806,1.591
				c0,0.938,0.764,1.63,1.826,1.63c1.063,0,1.744-0.733,1.744-1.662C181.913,67.417,181.189,66.756,180.147,66.756z"/>
			<path fill="#939598" d="M184.378,63.35h0.97v0.051l-0.836,2.755h-0.443L184.378,63.35z"/>
			<path fill="#939598" d="M189.177,70.679c-1.538,0-2.715-0.835-2.715-2.054c0-0.868,0.619-1.476,1.486-1.786
				c-0.671-0.311-1.24-0.827-1.24-1.673c0-1.124,1.147-1.919,2.468-1.919c1.321,0,2.467,0.794,2.467,1.919
				c0,0.846-0.568,1.362-1.239,1.673c0.857,0.319,1.486,0.908,1.486,1.775C191.892,69.854,190.716,70.679,189.177,70.679z
				 M189.177,67.221c-1.053,0-1.889,0.567-1.889,1.383c0,0.743,0.702,1.362,1.889,1.362c1.187,0,1.888-0.619,1.888-1.362
				C191.066,67.788,190.229,67.221,189.177,67.221z M189.177,63.958c-0.939,0-1.651,0.526-1.651,1.259
				c0,0.794,0.733,1.333,1.651,1.333s1.651-0.538,1.651-1.333C190.83,64.496,190.117,63.958,189.177,63.958z"/>
			<path fill="#939598" d="M193.408,63.35h0.96v0.051l-0.836,2.755h-0.434L193.408,63.35z M195.431,63.35h0.951v0.051l-0.836,2.755
				h-0.434L195.431,63.35z"/>
		</g>
		<g enable-background="new    ">
			<path fill="#939598" d="M48.29,169.159v1.267h1.84v0.59h-5.217v-1.953c0-1.177,0.625-1.952,1.662-1.952
				C47.708,167.107,48.29,168.049,48.29,169.159z M45.458,169.107v1.318h2.295v-1.289c0-0.864-0.462-1.431-1.155-1.431
				C45.845,167.706,45.458,168.265,45.458,169.107z"/>
			<path fill="#939598" d="M47.016,165.983l-0.47,0.173c-0.193-0.426-0.32-0.842-0.32-1.403c0-1.05,0.537-1.64,1.552-1.64h2.355
				v0.55h-0.582c0.351,0.27,0.663,0.717,0.663,1.396c0,0.715-0.403,1.439-1.207,1.439c-0.82,0-1.252-0.674-1.252-1.65
				c0-0.49,0.067-0.842,0.164-1.185h-0.135c-0.692,0-1.049,0.426-1.049,1.149C46.732,165.27,46.851,165.625,47.016,165.983z
				 M48.984,165.916c0.492,0,0.775-0.447,0.775-0.97c0-0.707-0.432-1.287-1.044-1.287h-0.372c-0.082,0.281-0.164,0.661-0.164,1.132
				C48.179,165.515,48.492,165.916,48.984,165.916z"/>
			<path fill="#939598" d="M50.131,161.318v0.573h-3.853v-0.573h0.671c-0.417-0.254-0.752-0.656-0.752-1.317
				c0-0.931,0.626-1.477,1.542-1.477h2.393v0.573h-2.251c-0.715,0-1.164,0.388-1.164,1.066c0,0.663,0.485,1.157,1.208,1.157h2.205
				V161.318z"/>
			<path fill="#939598" d="M49.037,156.526c0.469,0,0.641-0.263,0.641-0.649c0-0.193-0.037-0.357-0.134-0.557h0.492
				c0.105,0.2,0.165,0.415,0.165,0.693c0,0.617-0.306,1.087-1.088,1.087h-2.327v0.538h-0.506v-0.538h-1.164v-0.573h1.164v-1.222
				h0.506v1.222L49.037,156.526L49.037,156.526z"/>
			<path fill="#939598" d="M50.131,153.716v0.574h-3.853v-0.574h1.006c-0.641-0.282-1.104-0.843-1.073-1.572h0.618v0.045
				c0,0.842,0.603,1.527,1.767,1.527H50.131z"/>
			<path fill="#939598" d="M50.257,149.393c0.797,0.327,1.088,0.701,1.088,1.281c0,0.322-0.067,0.559-0.194,0.82l-0.454-0.193
				c0.096-0.186,0.141-0.357,0.141-0.604c0-0.342-0.178-0.559-0.723-0.789l-3.839,1.751v-0.634l3.213-1.401l-3.213-1.236v-0.611
				L50.257,149.393z"/>
		</g>
	</g>
</g>
</svg>
