<?xml version="1.0" encoding="utf-8"?>
<!-- Generator: Adobe Illustrator 15.0.2, SVG Export Plug-In . SVG Version: 6.00 Build 0)  -->
<!DOCTYPE svg PUBLIC "-//W3C//DTD SVG 1.1//EN" "http://www.w3.org/Graphics/SVG/1.1/DTD/svg11.dtd">
<svg version="1.1" id="Layer_1" xmlns="http://www.w3.org/2000/svg" xmlns:xlink="http://www.w3.org/1999/xlink" x="0px" y="0px"
	 width="500px" height="500px" viewBox="-124.854 -144.572 500 500" enable-background="new -124.854 -144.572 500 500"
	 xml:space="preserve">
<g id="_x32_0_x25___PMS_2985_fill" display="none">
	<path display="inline" fill="#EBEEEF" d="M2.415,18.68c0,0-3,189.012,0,189.012s244.333,0,244.333,0v-84.334l-11.5-0.25V19.357
		l-4.707,0.792l-3.418-11.336L141.332,8.82l-1.75,10.24L2.415,18.68z"/>
</g>
<g>
	<g id="_x32_0_x25__grey_fill">
		<rect x="-9.829" y="256.571" fill="#D1D3D4" width="21.725" height="50.44"/>
		<rect x="110.779" y="258.569" fill="#D1D3D4" width="6.243" height="54.187"/>
		<rect x="55.594" y="-89.023" fill="#D1D3D4" width="104.376" height="30.964"/>
		<rect x="-113.957" y="-62.554" fill="#D1D3D4" width="21.475" height="4.745"/>
		<rect x="306.798" y="-62.055" fill="#D1D3D4" width="37.624" height="4.745"/>
	</g>
	<g id="icons">
		<polyline fill="#FFFFFF" stroke="#939598" points="-69.561,91.944 -69.561,95.628 -112.714,95.628 -112.842,-51.335 
			-73.91,-51.335 -73.91,69.625 		"/>
		<g>
			<g>
				<rect x="14.788" y="258.428" fill="#FFFFFF" stroke="#939598" width="91.279" height="47.194"/>
				<path fill="#FFFFFF" stroke="#939598" d="M60.428,282.025"/>
				<path fill="#FFFFFF" stroke="#939598" d="M60.742,282.025"/>
				<path fill="#FFFFFF" stroke="#939598" d="M91.691,282.025"/>
			</g>
			<circle fill="#FFFFFF" stroke="#939598" cx="85.263" cy="281.801" r="1.937"/>
			<path fill="#FFFFFF" stroke="#939598" d="M20,281.882c0,13.524,3.121,18.478,7.495,18.478c0,0,65.601,0,66.674,0
				c1.068,0,3.278-0.29,3.278-3.119c0-2.832,0-15.358,0-15.358v-0.031c0,0,0-12.528,0-15.359c0-2.828-2.208-3.119-3.278-3.119
				c-1.073,0-66.63,0-66.63,0l-0.042,0.004C23.123,263.376,20,268.438,20,281.882z"/>
			<path fill="#FFFFFF" stroke="#939598" d="M100.841,285.861c-1.096-0.004-1.973,0.876-1.973,1.986c0,1.07,0.877,1.96,1.973,1.968
				c1.088-0.008,1.988-0.897,1.988-1.968C102.829,286.737,101.942,285.857,100.841,285.861z"/>
			<path fill="#FFFFFF" stroke="#939598" d="M100.841,273.589c-1.096-0.012-1.973,0.89-1.973,1.978c0,1.085,0.877,1.977,1.973,1.977
				c1.088,0,1.988-0.892,1.974-1.977C102.829,274.476,101.929,273.589,100.841,273.589z"/>
			<path fill="#FFFFFF" stroke="#939598" d="M101.426,284.465c1.622,0,2.935-1.097,2.938-2.718
				c-0.004-1.621-1.314-2.505-2.938-2.505l-11.171,1.042c-1.097,0-1.097,2.959,0,2.959L101.426,284.465z"/>
		</g>
		<g>
			<polygon fill="none" stroke="#A7A9AC" points="-102.007,313.405 -98.671,313.385 -98.639,265.806 -101.977,265.824 			"/>
			<path fill="none" stroke="#A7A9AC" d="M-100.473,265.787c26.197,0.888,46.711,22.423,45.818,48.619"/>
		</g>
		<g>
			<polygon fill="none" stroke="#A7A9AC" points="-74.859,166.968 -74.841,170.135 -29.64,170.169 -29.655,166.997 			"/>
			<path fill="none" stroke="#A7A9AC" d="M-29.62,168.427c-0.847,24.887-21.302,44.378-46.187,43.525"/>
		</g>
		<g>
			<polygon fill="none" stroke="#A7A9AC" points="-8.603,168.632 -8.584,171.8 36.616,171.833 36.601,168.661 			"/>
			<path fill="none" stroke="#A7A9AC" d="M36.634,170.091c-0.847,24.887-21.303,44.378-46.187,43.525"/>
		</g>
		<rect x="-23.812" y="-0.389" fill="#FFFFFF" stroke="#A7A9AC" width="58.431" height="93.89"/>
		<g>
			<rect x="311.789" y="167.459" fill="none" stroke="#939598" stroke-width="0.7" width="2.028" height="66.631"/>
			<rect x="309.151" y="216.614" fill="none" stroke="#939598" stroke-width="0.7" width="2.368" height="59.701"/>
		</g>
		<g>
			<g>
				<g>
					<g>
						<rect x="322.694" y="175.894" fill="#FFFFFF" stroke="#939598" width="37.046" height="40.328"/>
						<path fill="#FFFFFF" stroke="#939598" d="M339.984,196.058"/>
						<polyline fill="#FFFFFF" stroke="#939598" points="333.745,183.823 328.109,183.823 326.794,188.69 326.794,203.612 
							328.109,208.544 333.745,208.544 						"/>
						<line fill="none" stroke="#939598" x1="333.745" y1="216.514" x2="333.745" y2="175.894"/>
						<path fill="#FFFFFF" stroke="#939598" d="M338.097,196.181"/>
					</g>
				</g>
			</g>
			<polygon fill="#FFFFFF" stroke="#939598" points="331.314,214.26 331.306,211.002 333.582,210.288 333.591,214.977 			"/>
		</g>
		<line fill="none" stroke="#939598" x1="-90.914" y1="153.941" x2="-90.914" y2="231.35"/>
		
			<line fill="none" stroke="#939598" stroke-dasharray="1.5,1.5,1.5,1.5,1.5,1.5" x1="-95.183" y1="157.061" x2="-95.183" y2="229.103"/>
		<polygon fill="#FFFFFF" stroke="#A7A9AC" points="79.548,257.763 79.548,211.624 116.838,210.851 116.838,257.658 		"/>
		<g>
			<path fill="#FFFFFF" stroke="#939598" stroke-miterlimit="10" d="M90.511,195.644c-8.914,0-18.73-5.415-18.73-12.091
				c0-6.678,9.816-12.068,18.73-12.068c8.915,0,13.554,5.391,13.554,12.068C104.065,190.229,99.426,195.644,90.511,195.644"/>
			<path fill="#FFFFFF" stroke="#939598" d="M90.511,195.644c-8.914,0-18.73-5.415-18.73-12.091c0-6.678,9.816-12.068,18.73-12.068
				c8.915,0,13.554,5.391,13.554,12.068C104.065,190.229,99.426,195.644,90.511,195.644z"/>
			<path fill="#FFFFFF" stroke="#939598" stroke-miterlimit="10" d="M101.142,176.316c-0.5,0-0.908-0.41-0.908-0.909v-4.208
				c0-0.5,0.409-0.909,0.908-0.909h0.154c0.5,0,0.909,0.409,0.909,0.909v4.208c0,0.499-0.41,0.909-0.909,0.909H101.142z"/>
			<path fill="#FFFFFF" stroke="#939598" d="M101.142,176.316c-0.5,0-0.908-0.41-0.908-0.909v-4.208c0-0.5,0.409-0.909,0.908-0.909
				h0.154c0.5,0,0.909,0.409,0.909,0.909v4.208c0,0.499-0.41,0.909-0.909,0.909H101.142z"/>
			<path fill="#FFFFFF" stroke="#939598" stroke-miterlimit="10" d="M102.229,169.648c0-1.517,4.109-2.747,5.626-2.747
				c1.536,0,5.643,1.23,5.643,2.747v27.594c0,1.519-4.108,2.747-5.643,2.747c-1.519,0-5.621-1.229-5.621-2.747L102.229,169.648z"/>
			<path fill="#FFFFFF" stroke="#939598" d="M102.229,169.648c0-1.517,4.109-2.747,5.626-2.747c1.536,0,5.643,1.23,5.643,2.747
				v27.594c0,1.519-4.108,2.747-5.643,2.747c-1.519,0-5.621-1.229-5.621-2.747L102.229,169.648z"/>
			<path fill="#FFFFFF" stroke="#939598" stroke-miterlimit="10" d="M90.14,192.439c-6.55,0-13.77-3.978-13.77-8.886
				s7.218-8.884,13.77-8.884c6.552,0,9.958,3.976,9.958,8.884S96.689,192.439,90.14,192.439"/>
			<path fill="#FFFFFF" stroke="#939598" d="M90.14,192.439c-6.55,0-13.77-3.978-13.77-8.886s7.218-8.884,13.77-8.884
				c6.552,0,9.958,3.976,9.958,8.884S96.689,192.439,90.14,192.439z"/>
		</g>
		<g>
			<g>
				<g>
					<path fill="none" stroke="#A7A9AC" d="M93.954,234.068"/>
				</g>
				<g>
					<path fill="none" stroke="#A7A9AC" d="M96.075,234.068"/>
				</g>
				<g>
					<circle fill="none" stroke="#A7A9AC" cx="93.954" cy="234.07" r="2.032"/>
					<path fill="none" stroke="#A7A9AC" d="M93.954,234.068"/>
				</g>
				<g>
					<g>
						<rect x="106.688" y="225.549" fill="none" stroke="#A7A9AC" width="4.245" height="17.086"/>
						<path fill="none" stroke="#A7A9AC" d="M108.81,234.068"/>
					</g>
					<g>
						<rect x="98.448" y="233.165" fill="none" stroke="#A7A9AC" width="8.052" height="1.809"/>
						<path fill="none" stroke="#A7A9AC" d="M103.16,234.068"/>
					</g>
					<g>
						<circle fill="none" stroke="#A7A9AC" cx="108.768" cy="234.07" r="1.969"/>
						<path fill="none" stroke="#A7A9AC" d="M108.77,234.068"/>
					</g>
				</g>
			</g>
			<g>
				<rect x="83.865" y="217.036" fill="none" stroke="#A7A9AC" width="27.715" height="34.112"/>
				<rect x="86.649" y="219.815" fill="none" stroke="#A7A9AC" width="19.937" height="28.475"/>
			</g>
		</g>
		<g>
			<g>
				<rect x="-110.894" y="3.932" fill="#FFFFFF" stroke="#939598" width="39.454" height="46.443"/>
				<path fill="#FFFFFF" stroke="#939598" d="M-91.167,27.155"/>
			</g>
			<g>
				<g>
					<circle fill="#FFFFFF" stroke="#939598" cx="-80.18" cy="37.773" r="5.642"/>
					<path fill="#FFFFFF" stroke="#939598" d="M-80.18,37.773"/>
				</g>
				<g>
					<circle fill="#FFFFFF" stroke="#939598" stroke-width="0.8" cx="-80.183" cy="37.828" r="3.974"/>
					<path fill="#FFFFFF" stroke="#939598" d="M-80.18,37.828"/>
				</g>
			</g>
			<g>
				<g>
					<circle fill="#FFFFFF" stroke="#939598" cx="-96.661" cy="15.223" r="5.642"/>
					<path fill="#FFFFFF" stroke="#939598" d="M-96.661,15.223"/>
				</g>
				<g>
					<circle fill="#FFFFFF" stroke="#939598" stroke-width="0.8" cx="-96.664" cy="15.168" r="3.973"/>
					<path fill="#FFFFFF" stroke="#939598" d="M-96.661,15.169"/>
				</g>
			</g>
			<g>
				<g>
					<circle fill="#FFFFFF" stroke="#939598" cx="-96.607" cy="37.847" r="6.43"/>
					<path fill="#FFFFFF" stroke="#939598" d="M-96.607,37.847"/>
				</g>
				<g>
					<circle fill="#FFFFFF" stroke="#939598" stroke-width="0.8" cx="-96.607" cy="37.784" r="4.531"/>
					<path fill="#FFFFFF" stroke="#939598" d="M-96.607,37.783"/>
				</g>
			</g>
			<g>
				<g>
					<circle fill="#FFFFFF" stroke="#939598" cx="-79.747" cy="15.25" r="6.431"/>
					<path fill="#FFFFFF" stroke="#939598" d="M-79.747,15.251"/>
				</g>
				<g>
					<circle fill="#FFFFFF" stroke="#939598" stroke-width="0.8" cx="-79.747" cy="15.186" r="4.531"/>
					<path fill="#FFFFFF" stroke="#939598" d="M-79.747,15.186"/>
				</g>
			</g>
			<line fill="none" stroke="#939598" x1="-105.437" y1="50.436" x2="-105.437" y2="3.932"/>
			<line fill="none" stroke="#939598" x1="-107.619" y1="50.376" x2="-107.619" y2="3.932"/>
		</g>
		<g>
			<g>
				<rect x="-112.777" y="98.819" fill="#FFFFFF" stroke="#939598" width="43.887" height="49.744"/>
				<path fill="#FFFFFF" stroke="#939598" d="M-90.833,126.265"/>
			</g>
			<line fill="none" stroke="#939598" x1="-71.958" y1="98.702" x2="-71.958" y2="148.565"/>
			<rect x="-68.859" y="140.384" fill="#FFFFFF" stroke="#939598" width="2.137" height="4.032"/>
			<path fill="#FFFFFF" stroke="#939598" d="M-67.907,142.398"/>
		</g>
		<g>
			<g>
				<g>
					<polygon fill="none" stroke="#939598" stroke-width="0.7" points="-50.983,81.213 -52.355,83.712 -69.523,73.305 
						-68.148,70.806 					"/>
					<path fill="none" stroke="#939598" stroke-width="0.8" d="M-61.64,75.36"/>
				</g>
				<path fill="none" stroke="#939598" stroke-width="0.8" d="M-51.81,82.169c-3.877,6.395-10.777,9.84-17.756,9.609"/>
			</g>
		</g>
		<g>
			<g>
				<path fill="#FFFFFF" stroke="#939598" d="M10.727,49.246c0.012,0.851-0.666,1.549-1.519,1.561l-26.856,0.379
					c-0.851,0.012-1.55-0.669-1.562-1.52l-0.644-45.554c-0.012-0.851,0.667-1.546,1.519-1.558l26.856-0.38
					c0.854-0.012,1.55,0.665,1.562,1.516L10.727,49.246z"/>
				<path fill="#FFFFFF" stroke="#939598" d="M-3.399,26.827"/>
			</g>
			<g>
				<circle fill="#FFFFFF" stroke="#939598" cx="-5.218" cy="26.852" r="1.74"/>
				<path fill="#FFFFFF" stroke="#939598" d="M-5.216,26.854"/>
			</g>
			<g>
				<g>
					
						<rect x="5.7" y="19.071" transform="matrix(0.9999 -0.0145 0.0145 0.9999 -0.3858 0.1118)" fill="#FFFFFF" stroke="#939598" width="3.638" height="15.202"/>
					<path fill="#FFFFFF" stroke="#939598" d="M7.521,26.671"/>
				</g>
				<g>
					
						<rect x="-1.358" y="25.962" transform="matrix(0.9999 -0.0144 0.0144 0.9999 -0.3861 0.0349)" fill="#FFFFFF" stroke="#939598" width="7.164" height="1.553"/>
					<path fill="#FFFFFF" stroke="#939598" d="M2.676,26.741"/>
				</g>
				<g>
					<circle fill="#FFFFFF" stroke="#939598" cx="7.484" cy="26.672" r="1.692"/>
					<path fill="#FFFFFF" stroke="#939598" d="M7.484,26.673"/>
				</g>
			</g>
			<g>
				<path fill="#FFFFFF" stroke="#939598" d="M-5.216,26.854"/>
				<path fill="none" stroke="#939598" d="M4.458,27.658l0.27,19.149c0.012,0.892-0.701,1.629-1.595,1.641l-18.418,0.264
					c-0.889,0.012-1.626-0.706-1.638-1.6l-0.572-40.505c-0.013-0.892,0.704-1.627,1.592-1.641L2.517,4.705
					c0.893-0.012,1.628,0.704,1.64,1.598l0.274,19.429"/>
			</g>
		</g>
		<g>
			<polyline fill="none" stroke="#939598" stroke-dasharray="1.5,1,1.5,1,1.5,1" points="-25.423,55.581 10.271,55.075 
				10.767,90.083 -24.127,90.577 			"/>
			<polyline fill="#FFFFFF" stroke="#939598" points="-24.125,90.632 -26.249,90.661 -26.743,55.598 -25.435,55.581 			"/>
		</g>
		<line fill="none" stroke="#939598" x1="-114.848" y1="70.009" x2="-68.234" y2="70.009"/>
		<line fill="none" stroke="#939598" stroke-dasharray="1.5,1,1.5,1,1.5,1" x1="-95.063" y1="96.925" x2="-95.063" y2="117.235"/>
		<line fill="none" stroke="#939598" stroke-dasharray="1.5,1,1.5,1,1.5,1" x1="-95.063" y1="-57.226" x2="-95.063" y2="68.958"/>
		<path fill="none" stroke="#939598" stroke-dasharray="1.5,1,1.5,1,1.5,1" d="M-95.063,129.22c0.665,1.333,0,25.97,0,25.97"/>
		
			<line fill="none" stroke="#939598" stroke-dasharray="1.5,1.5,1.5,1.5,1.5,1.5" x1="347.836" y1="144.203" x2="347.836" y2="300.687"/>
		<line fill="none" stroke="#A7A9AC" x1="-93.399" y1="-53.703" x2="307.297" y2="-53.703"/>
		<g>
			<rect x="220.899" y="-68.343" fill="none" stroke="#939598" stroke-width="0.7" width="77.409" height="2.027"/>
			<rect x="173.186" y="-66.046" fill="none" stroke="#939598" stroke-width="0.7" width="65.192" height="2.37"/>
		</g>
		<g>
			<rect x="326.736" y="-87.983" fill="none" stroke="#939598" width="5.743" height="5.743"/>
			<line fill="none" stroke="#939598" x1="161.469" y1="-83.739" x2="326.736" y2="-83.739"/>
			<line fill="none" stroke="#939598" x1="326.775" y1="-82.24" x2="326.775" y2="-70.962"/>
			<line fill="none" stroke="#939598" x1="332.479" y1="-82.24" x2="332.479" y2="-70.463"/>
			<line fill="none" stroke="#939598" x1="326.736" y1="-87.983" x2="163.966" y2="-87.983"/>
		</g>
	</g>
	<g id="walls">
		<polyline fill="none" stroke="#939598" stroke-width="5" points="55.844,-66.05 -119.854,-66.05 -119.033,311.008 
			-101.721,311.008 		"/>
		<polyline fill="none" stroke="#939598" stroke-width="5" points="-54.944,311.008 370.146,311.008 370.146,140.208 
			348.085,140.208 348.16,-66.05 298.058,-66.05 		"/>
		<polyline fill="none" stroke="#939598" stroke-width="3" points="-116.704,230.601 -74.253,230.601 -74.253,212.623 		"/>
		<polyline fill="none" stroke="#939598" stroke-width="3" points="-116.704,153.442 -74.253,153.442 -74.253,167.05 		"/>
		<line fill="none" stroke="#939598" stroke-width="3" x1="311.763" y1="276.217" x2="311.763" y2="306.181"/>
		<polyline fill="none" stroke="#939598" stroke-width="3" points="118.52,306.013 118.52,153.495 -9.33,153.495 -9.33,168.632 		
			"/>
		<path fill="none" stroke="#939598" stroke-width="3" d="M-9.33,306.013c0-0.89,0-49.196,0-92.642"/>
		<polyline fill="none" stroke="#939598" stroke-width="3" points="-7.832,257.422 12.145,257.422 12.145,306.013 		"/>
		<polyline fill="none" stroke="#939598" stroke-width="3" points="118.52,257.898 109.527,258.069 109.527,306.013 		"/>
		<polyline fill="none" stroke="#939598" stroke-width="3" points="344.422,-55.648 306.56,-55.648 306.56,-65.052 		"/>
		<polygon fill="none" stroke="#939598" stroke-width="3" points="55.834,-90.272 55.834,-55.648 160.891,-55.648 160.891,-90.119 
					"/>
		<polyline fill="none" stroke="#939598" stroke-width="3" points="-116.204,-55.648 -89.808,-55.648 -89.808,-67.549 		"/>
		<polyline fill="none" stroke="#939598" stroke-width="3" points="313.185,169.424 313.185,142.206 344.004,142.206 		"/>
		<line fill="none" stroke="#939598" stroke-width="5" x1="174.704" y1="-64.802" x2="162.717" y2="-64.802"/>
	</g>
	<g id="Type">
		<g enable-background="new    ">
			<path fill="#939598" d="M336.994,205.417v-0.909l8.186-2.687l-8.154-2.8v-1.156l9.865,3.495v0.938l-7.95,2.687l7.95,2.702v0.925
				l-9.865,3.496v-1.204l8.154-2.798L336.994,205.417z"/>
			<path fill="#939598" d="M335.651,191.464l12.958,6.493v0.992l-12.958-6.492V191.464z"/>
			<path fill="#939598" d="M346.818,186.764v3.4h-9.793v-3.4c0-3.076,2.112-5.201,4.881-5.201
				C344.675,181.563,346.818,183.688,346.818,186.764z M338.042,186.764v2.296h7.753v-2.296c0-2.476-1.678-4.056-3.862-4.056
				C339.751,182.709,338.042,184.289,338.042,186.764z"/>
		</g>
		<g enable-background="new    ">
			<path fill="#939598" d="M-78.237,207.344c0,2.825-2.223,4.912-5.049,4.912c-2.797,0-5.078-2.069-5.078-4.953
				c0-1.775,0.627-2.84,1.552-3.819l0.812,0.757c-0.785,0.825-1.345,1.748-1.345,3.078c0,2.17,1.75,3.791,4.032,3.791
				c2.281,0,4.058-1.637,4.058-3.791c0-1.344-0.52-2.224-1.415-3.162l0.713-0.728C-78.922,204.451-78.237,205.566-78.237,207.344z"
				/>
			<path fill="#939598" d="M-78.405,201.585h-10.212v-1.076h10.212V201.585z"/>
			<path fill="#939598" d="M-78.237,194.704c0,2.17-1.706,3.75-3.763,3.75c-2.058,0-3.791-1.596-3.791-3.778
				c0-2.17,1.706-3.764,3.763-3.764C-79.97,190.912-78.237,192.521-78.237,194.704z M-84.841,194.704
				c0,1.567,1.244,2.644,2.811,2.644c1.568,0,2.827-1.145,2.827-2.672c0-1.567-1.245-2.657-2.797-2.657
				C-83.583,192.018-84.841,193.178-84.841,194.704z"/>
			<path fill="#939598" d="M-78.264,186.581c0,1.036-0.406,2.184-1.063,2.995l-0.771-0.545c0.588-0.784,0.926-1.65,0.926-2.505
				c0-0.868-0.45-1.498-1.149-1.498h-0.028c-0.727,0-1.006,0.856-1.273,1.807c-0.32,1.132-0.711,2.392-2.042,2.392h-0.028
				c-1.245,0-2.07-1.038-2.07-2.462c0-0.88,0.306-1.861,0.795-2.603l0.812,0.488c-0.433,0.673-0.7,1.443-0.7,2.142
				c0,0.854,0.448,1.396,1.049,1.396h0.028c0.685,0,0.953-0.894,1.245-1.86c0.335-1.12,0.771-2.324,2.072-2.324h0.027
				C-79.062,184.004-78.264,185.141-78.264,186.581z"/>
			<path fill="#939598" d="M-79.173,178.821c0-0.993-0.406-1.695-1.023-2.283l0.602-0.671c0.811,0.728,1.357,1.611,1.357,2.979
				c0,1.987-1.525,3.608-3.778,3.608c-2.099,0-3.778-1.465-3.778-3.467c0-2.14,1.706-3.373,3.833-3.373c0.1,0,0.21,0,0.336,0.014
				v5.738C-80.054,181.211-79.173,180.091-79.173,178.821z M-82.419,176.706c-1.315,0.113-2.463,0.87-2.463,2.308
				c0,1.261,1.049,2.213,2.463,2.354V176.706z"/>
			<path fill="#939598" d="M-80.46,172.275c0.881,0,1.205-0.489,1.205-1.217c0-0.363-0.07-0.671-0.254-1.048h0.925
				c0.196,0.377,0.308,0.784,0.308,1.302c0,1.158-0.576,2.04-2.044,2.04h-4.365v1.007h-0.953v-1.007h-2.183v-1.077h2.183v-2.292
				h0.953v2.292H-80.46z"/>
		</g>
		<g enable-background="new    ">
			<path fill="#939598" d="M28.963,215.763c0,1.652-1.007,2.501-1.996,2.933c1.493,0.448,2.697,1.312,2.697,3.055
				c0,2.177-1.816,3.455-4.569,3.455h-5.593v-12.589h5.359C27.345,212.617,28.963,213.838,28.963,215.763z M27.524,215.963
				c0-1.261-0.988-2.07-2.786-2.07h-3.833v4.335h3.724C26.338,218.225,27.524,217.455,27.524,215.963z M28.226,221.661
				c0-1.383-1.15-2.177-3.346-2.177h-3.976v4.443h4.228C27.04,223.927,28.226,223.081,28.226,221.661z"/>
			<path fill="#939598" d="M32.791,217.689l-0.413-1.134c1.025-0.468,2.032-0.774,3.379-0.774c2.537,0,3.956,1.294,3.956,3.742
				v5.683h-1.331v-1.402c-0.646,0.844-1.726,1.6-3.363,1.6c-1.727,0-3.47-0.968-3.47-2.913c0-1.977,1.618-3.021,3.974-3.021
				c1.186,0,2.033,0.162,2.86,0.396v-0.323c0-1.672-1.024-2.538-2.77-2.538C34.516,217.003,33.654,217.293,32.791,217.689z
				 M32.953,222.435c0,1.188,1.079,1.871,2.337,1.871c1.708,0,3.111-1.042,3.111-2.519v-0.897c-0.684-0.199-1.601-0.396-2.733-0.396
				C33.923,220.492,32.953,221.248,32.953,222.435z"/>
			<path fill="#939598" d="M44.443,222.56c0,1.134,0.629,1.547,1.565,1.547c0.467,0,0.862-0.09,1.348-0.323v1.186
				c-0.486,0.252-1.007,0.396-1.672,0.396c-1.493,0-2.625-0.737-2.625-2.626v-5.61h-1.294v-1.224h1.294v-2.804h1.384v2.804h2.951
				v1.224h-2.951V222.56z"/>
			<path fill="#939598" d="M51.221,225.204h-1.384v-13.129h1.384v5.452c0.612-1.009,1.582-1.818,3.184-1.818
				c2.247,0,3.56,1.512,3.56,3.725v5.772h-1.384v-5.432c0-1.727-0.935-2.805-2.573-2.805c-1.601,0-2.789,1.168-2.789,2.912v5.322
				H51.221z"/>
		</g>
		<g enable-background="new    ">
			<path fill="#939598" d="M-87.139,301.235h-5.975v3.346h5.343v1.009h-5.343v3.428h6.045v1.007h-7.15v-9.793h7.08V301.235z"/>
			<path fill="#939598" d="M-83.954,310.022h-1.077v-7.233h1.077v1.26c0.475-0.784,1.23-1.414,2.477-1.414
				c1.748,0,2.771,1.176,2.771,2.896v4.491h-1.079v-4.226c0-1.342-0.727-2.183-2-2.183c-1.245,0-2.167,0.909-2.167,2.267v4.142
				H-83.954z"/>
			<path fill="#939598" d="M-74.962,307.966c0,0.882,0.489,1.206,1.216,1.206c0.364,0,0.671-0.07,1.048-0.254v0.925
				c-0.377,0.195-0.782,0.309-1.3,0.309c-1.163,0-2.042-0.576-2.042-2.045v-4.364h-1.006v-0.953h1.006v-2.184h1.077v2.184h2.295
				v0.953h-2.295V307.966z"/>
			<path fill="#939598" d="M-69.69,310.022h-1.077v-7.233h1.077v1.888c0.531-1.203,1.582-2.069,2.953-2.013v1.16h-0.085
				c-1.579,0-2.868,1.132-2.868,3.314V310.022z"/>
			<path fill="#939598" d="M-61.579,310.262c-0.614,1.496-1.313,2.04-2.406,2.04c-0.602,0-1.049-0.125-1.54-0.362l0.363-0.854
				c0.35,0.181,0.672,0.265,1.133,0.265c0.643,0,1.049-0.335,1.482-1.355l-3.288-7.206h1.189l2.63,6.031l2.324-6.031h1.146
				L-61.579,310.262z"/>
		</g>
		<g enable-background="new    ">
			<path fill="#939598" d="M-98.542,84.088h-1.901v2.763h-0.884v-7.83h2.931c1.768,0,2.93,0.939,2.93,2.495
				C-95.465,83.213-96.874,84.088-98.542,84.088z M-98.463,79.838h-1.979v3.444h1.935c1.296,0,2.148-0.694,2.148-1.733
				C-96.357,80.417-97.198,79.838-98.463,79.838z"/>
			<path fill="#939598" d="M-93.774,82.175l-0.256-0.706c0.637-0.291,1.264-0.482,2.103-0.482c1.579,0,2.461,0.806,2.461,2.327
				v3.537h-0.829v-0.874c-0.403,0.527-1.074,0.995-2.091,0.995c-1.073,0-2.159-0.604-2.159-1.812c0-1.229,1.007-1.877,2.474-1.877
				c0.739,0,1.264,0.1,1.777,0.246v-0.203c0-1.039-0.637-1.578-1.721-1.578C-92.702,81.747-93.237,81.928-93.774,82.175z
				 M-93.675,85.126c0,0.737,0.671,1.163,1.454,1.163c1.063,0,1.936-0.647,1.936-1.566v-0.557c-0.425-0.125-0.997-0.245-1.702-0.245
				C-93.069,83.921-93.675,84.386-93.675,85.126z"/>
			<path fill="#939598" d="M-86.773,86.85h-0.861v-5.786h0.861v1.007c0.379-0.624,0.985-1.128,1.98-1.128
				c1.398,0,2.215,0.94,2.215,2.315v3.592h-0.861v-3.379c0-1.073-0.582-1.744-1.6-1.744c-0.997,0-1.734,0.726-1.734,1.812V86.85z"/>
			<path fill="#939598" d="M-79.579,85.204c0,0.704,0.391,0.962,0.972,0.962c0.292,0,0.538-0.055,0.84-0.203V86.7
				c-0.302,0.158-0.626,0.248-1.042,0.248c-0.927,0-1.632-0.46-1.632-1.635v-3.49h-0.805v-0.761h0.805v-1.744h0.861v1.744h1.833
				v0.761h-1.833V85.204z"/>
			<path fill="#939598" d="M-75.363,86.85h-0.86v-5.786h0.86v1.51c0.427-0.96,1.266-1.652,2.362-1.609v0.929h-0.066
				c-1.264,0-2.293,0.905-2.293,2.651v2.306H-75.363z"/>
			<path fill="#939598" d="M-68.874,87.038c-0.492,1.197-1.051,1.635-1.923,1.635c-0.482,0-0.839-0.104-1.231-0.293l0.292-0.683
				c0.28,0.145,0.537,0.211,0.907,0.211c0.516,0,0.839-0.27,1.187-1.085l-2.629-5.763h0.95l2.104,4.822l1.858-4.822h0.917
				L-68.874,87.038z"/>
		</g>
		<g enable-background="new    ">
			<path fill="#939598" d="M-13.541,78.403h-3.4v-9.791h3.4c3.078,0,5.204,2.112,5.204,4.881
				C-8.337,76.263-10.462,78.403-13.541,78.403z M-13.541,69.633h-2.295v7.75h2.295c2.475,0,4.057-1.677,4.057-3.86
				C-9.484,71.338-11.066,69.633-13.541,69.633z"/>
			<path fill="#939598" d="M-0.576,68.581h0.909l2.687,8.188l2.798-8.156h1.161l-3.498,9.863H2.544l-2.686-7.947l-2.701,7.947
				h-0.923l-3.498-9.863h1.205l2.798,8.156L-0.576,68.581z"/>
		</g>
		<g enable-background="new    ">
			<path fill="#939598" d="M-99.092,128.021l-2.841-3.805h-2.798v3.805h-1.105v-9.792h4.211c2.153,0,3.538,1.161,3.538,2.925
				c0,1.637-1.119,2.587-2.659,2.867l3.009,4.002h-1.354V128.021z M-101.709,119.248h-3.022v3.974h3.008
				c1.468,0,2.519-0.755,2.519-2.03C-99.205,119.977-100.129,119.248-101.709,119.248z"/>
			<path fill="#939598" d="M-92.857,127.253c0.993,0,1.694-0.406,2.281-1.022l0.671,0.601c-0.728,0.812-1.609,1.357-2.981,1.357
				c-1.988,0-3.609-1.525-3.609-3.776c0-2.099,1.468-3.778,3.47-3.778c2.139,0,3.372,1.704,3.372,3.833c0,0.1,0,0.209-0.014,0.336
				h-5.737C-95.251,126.373-94.132,127.253-92.857,127.253z M-90.746,124.006c-0.112-1.314-0.867-2.462-2.31-2.462
				c-1.258,0-2.209,1.048-2.351,2.462H-90.746z"/>
			<path fill="#939598" d="M-84.006,120.816v0.925h-2.281v6.282h-1.077v-6.282h-0.995v-0.938h0.995v-0.628
				c0-1.582,0.797-2.421,2.181-2.421c0.503,0,0.839,0.057,1.189,0.182v0.94c-0.392-0.115-0.686-0.186-1.048-0.186
				c-0.839,0-1.259,0.505-1.259,1.541v0.587h2.296V120.816z"/>
		</g>
		<g enable-background="new    ">
			<path fill="#939598" d="M334.11,272.685c0,2.824-2.224,4.912-5.049,4.912c-2.797,0-5.08-2.07-5.08-4.953
				c0-1.775,0.629-2.841,1.553-3.82l0.812,0.758c-0.786,0.824-1.344,1.747-1.344,3.078c0,2.169,1.748,3.79,4.032,3.79
				c2.278,0,4.058-1.637,4.058-3.79c0-1.345-0.521-2.225-1.416-3.162l0.712-0.729C333.427,269.792,334.11,270.908,334.11,272.685z"
				/>
			<path fill="#939598" d="M333.942,266.927h-10.21v-1.077h10.21V266.927z"/>
			<path fill="#939598" d="M334.11,260.046c0,2.169-1.707,3.749-3.761,3.749c-2.057,0-3.793-1.596-3.793-3.778
				c0-2.169,1.705-3.763,3.762-3.763C332.377,256.254,334.11,257.863,334.11,260.046z M327.508,260.046
				c0,1.566,1.244,2.644,2.81,2.644c1.568,0,2.828-1.146,2.828-2.673c0-1.566-1.244-2.657-2.797-2.657
				C328.764,257.359,327.508,258.52,327.508,260.046z"/>
			<path fill="#939598" d="M334.083,251.923c0,1.035-0.405,2.183-1.062,2.994l-0.772-0.544c0.59-0.784,0.925-1.65,0.925-2.505
				c0-0.868-0.448-1.498-1.146-1.498H332c-0.729,0-1.007,0.856-1.276,1.806c-0.32,1.132-0.71,2.393-2.04,2.393h-0.027
				c-1.245,0-2.072-1.038-2.072-2.463c0-0.879,0.309-1.86,0.796-2.602l0.812,0.487c-0.435,0.673-0.7,1.443-0.7,2.142
				c0,0.854,0.451,1.397,1.048,1.397h0.029c0.687,0,0.954-0.894,1.244-1.861c0.336-1.118,0.772-2.323,2.072-2.323h0.027
				C333.287,249.345,334.083,250.482,334.083,251.923z"/>
			<path fill="#939598" d="M333.173,244.162c0-0.993-0.405-1.695-1.022-2.282l0.602-0.671c0.812,0.728,1.357,1.611,1.357,2.979
				c0,1.988-1.525,3.609-3.776,3.609c-2.1,0-3.777-1.466-3.777-3.467c0-2.141,1.705-3.373,3.832-3.373c0.101,0,0.21,0,0.335,0.014
				v5.737C332.292,246.552,333.173,245.432,333.173,244.162z M329.927,242.048c-1.314,0.112-2.46,0.87-2.46,2.308
				c0,1.26,1.048,2.212,2.46,2.353V242.048z"/>
			<path fill="#939598" d="M331.886,237.617c0.882,0,1.205-0.49,1.205-1.218c0-0.362-0.07-0.671-0.253-1.047h0.924
				c0.197,0.376,0.309,0.784,0.309,1.301c0,1.159-0.577,2.041-2.044,2.041h-4.366v1.006h-0.952v-1.006h-2.181v-1.077h2.181v-2.292
				h0.952v2.292H331.886z"/>
		</g>
		<g enable-background="new    ">
			<path fill="#939598" d="M-20.612,125.812h-1.78l-4.838-6.096l-2.68,2.713v3.381h-1.42v-12.589h1.42v7.517l7.23-7.517h1.833
				l-5.395,5.504L-20.612,125.812z"/>
			<path fill="#939598" d="M-18.603,114.482v-1.529h1.582v1.529H-18.603z M-18.513,125.812v-9.298h1.385v9.298H-18.513z"/>
			<path fill="#939598" d="M-12.039,123.167c0,1.134,0.629,1.548,1.563,1.548c0.468,0,0.863-0.09,1.349-0.324v1.187
				c-0.486,0.251-1.006,0.396-1.672,0.396c-1.492,0-2.625-0.737-2.625-2.626v-5.61h-1.295v-1.224h1.295v-2.805h1.384v2.805h2.951
				v1.224h-2.951V123.167z"/>
			<path fill="#939598" d="M-2.723,126.027c-2.716,0-4.767-2.21-4.767-4.838c0-2.642,2.049-4.873,4.767-4.873
				c1.762,0,2.858,0.737,3.721,1.656l-0.917,0.968c-0.737-0.773-1.564-1.403-2.825-1.403c-1.888,0-3.328,1.604-3.328,3.617
				c0,2.032,1.475,3.635,3.416,3.635c1.187,0,2.104-0.598,2.841-1.386l0.881,0.827C0.135,125.27-0.979,126.027-2.723,126.027z"/>
			<path fill="#939598" d="M4.736,125.812H3.352v-13.129h1.384v5.453c0.611-1.009,1.582-1.818,3.184-1.818
				c2.248,0,3.561,1.512,3.561,3.724v5.772h-1.384v-5.431c0-1.727-0.936-2.806-2.573-2.806c-1.601,0-2.789,1.169-2.789,2.913v5.321
				H4.736z"/>
			<path fill="#939598" d="M18.525,124.821c1.277,0,2.176-0.521,2.933-1.312l0.862,0.772c-0.935,1.044-2.069,1.746-3.832,1.746
				c-2.553,0-4.638-1.959-4.638-4.855c0-2.698,1.888-4.857,4.458-4.857c2.751,0,4.335,2.194,4.335,4.928
				c0,0.125,0,0.271-0.018,0.433h-7.373C15.451,123.688,16.892,124.821,18.525,124.821z M21.243,120.651
				c-0.144-1.689-1.115-3.165-2.967-3.165c-1.618,0-2.84,1.349-3.02,3.165H21.243z"/>
			<path fill="#939598" d="M26.455,125.812h-1.385v-9.298h1.385v1.622c0.61-1.009,1.582-1.818,3.184-1.818
				c2.248,0,3.561,1.512,3.561,3.724v5.772h-1.384v-5.431c0-1.727-0.936-2.806-2.573-2.806c-1.601,0-2.789,1.169-2.789,2.913v5.321
				H26.455z"/>
		</g>
		<g enable-background="new    ">
			<path fill="#939598" d="M188.734,40.27c2.805,0.614,4.101,1.637,4.101,3.58c0,2.175-1.799,3.578-4.296,3.578
				c-1.998,0-3.633-0.666-5.145-2.014l0.88-1.044c1.315,1.188,2.571,1.783,4.319,1.783c1.689,0,2.804-0.882,2.804-2.159
				c0-1.187-0.631-1.852-3.275-2.409c-2.894-0.631-4.226-1.565-4.226-3.65c0-2.016,1.745-3.453,4.136-3.453
				c1.837,0,3.148,0.521,4.424,1.545l-0.825,1.097c-1.168-0.954-2.339-1.367-3.634-1.367c-1.635,0-2.679,0.898-2.679,2.05
				C185.318,39.012,185.963,39.677,188.734,40.27z"/>
			<path fill="#939598" d="M197.275,44.605c0,1.134,0.628,1.547,1.564,1.547c0.466,0,0.864-0.09,1.35-0.324v1.187
				c-0.485,0.252-1.007,0.396-1.674,0.396c-1.49,0-2.626-0.738-2.626-2.626v-5.611h-1.291v-1.223h1.291v-2.804h1.386v2.804h2.949
				v1.223h-2.949V44.605z"/>
			<path fill="#939598" d="M209.268,37.951h1.367v9.298h-1.367V45.63c-0.628,1.008-1.58,1.813-3.184,1.813
				c-2.247,0-3.559-1.51-3.559-3.72v-5.774h1.386v5.433c0,1.725,0.932,2.804,2.569,2.804c1.582,0,2.787-1.169,2.787-2.912V37.951z"
				/>
			<path fill="#939598" d="M221.208,47.249v-1.871c-0.755,1.116-1.854,2.065-3.559,2.065c-2.231,0-4.444-1.761-4.444-4.836
				c0-3.057,2.213-4.857,4.444-4.857c1.725,0,2.841,0.937,3.559,1.98v-5.614h1.385v13.129h-1.385V47.249z M217.899,38.997
				c-1.797,0-3.273,1.33-3.273,3.595c0,2.213,1.51,3.615,3.273,3.615c1.727,0,3.365-1.438,3.365-3.615
				C221.262,40.432,219.625,38.997,217.899,38.997z"/>
			<path fill="#939598" d="M225.717,35.92v-1.527h1.584v1.527H225.717z M225.807,47.249v-9.298h1.386v9.298H225.807z"/>
			<path fill="#939598" d="M234.653,47.467c-2.788,0-4.819-2.196-4.819-4.84c0-2.642,2.049-4.873,4.858-4.873
				c2.785,0,4.838,2.195,4.838,4.838C239.53,45.237,237.461,47.467,234.653,47.467z M234.653,38.977
				c-2.014,0-3.398,1.602-3.398,3.614c0,2.016,1.475,3.635,3.438,3.635c2.013,0,3.415-1.604,3.415-3.6
				C238.107,40.594,236.615,38.977,234.653,38.977z"/>
		</g>
		<g enable-background="new    ">
			<path fill="#939598" d="M156.344,59.89l-1.044-0.756c1.134-1.691,2.321-2.678,4.536-2.678c2.284,0,3.899,1.51,3.899,3.577
				c0,1.854-0.97,2.985-3.184,4.91l-3.363,2.983h6.672v1.295h-8.795v-1.096l4.569-4.031c1.924-1.724,2.626-2.697,2.626-3.954
				c0-1.475-1.169-2.411-2.536-2.411C158.285,57.732,157.352,58.485,156.344,59.89z"/>
			<path fill="#939598" d="M167.115,56.635h7.245v1.313h-6.005l-0.269,4.028c0.737-0.324,1.439-0.558,2.481-0.558
				c2.446,0,4.35,1.457,4.35,3.868c0,2.481-1.868,4.155-4.494,4.155c-1.799,0-3.363-0.866-4.497-1.998l0.935-1.025
				c1.101,1.061,2.302,1.727,3.582,1.727c1.797,0,3.037-1.188,3.037-2.806c0-1.582-1.277-2.663-3.129-2.663
				c-1.06,0-1.906,0.324-2.644,0.72l-0.954-0.63L167.115,56.635z"/>
			<path fill="#939598" d="M177.684,56.635h1.693v0.09l-1.457,4.802h-0.772L177.684,56.635z"/>
			<path fill="#939598" d="M189.608,58.956c-0.937-0.792-1.818-1.241-2.97-1.241c-2.282,0-3.702,2.3-3.687,5.556
				c0.685-1.008,1.744-1.925,3.581-1.925c2.355,0,4.351,1.514,4.351,3.884c0,2.446-1.958,4.21-4.514,4.21
				c-1.386,0-2.517-0.485-3.309-1.279c-1.007-1.007-1.582-2.301-1.582-4.892c0-3.849,1.94-6.853,5.233-6.853
				c1.51,0,2.626,0.542,3.723,1.439L189.608,58.956z M186.354,62.568c-1.889,0-3.149,1.349-3.149,2.771
				c0,1.637,1.331,2.841,3.187,2.841c1.851,0,3.037-1.276,3.037-2.894C189.428,63.721,188.168,62.568,186.354,62.568z"/>
			<path fill="#939598" d="M193.722,56.635h1.672v0.09l-1.455,4.802h-0.758L193.722,56.635z M197.248,56.635h1.654v0.09
				l-1.456,4.802h-0.757L197.248,56.635z"/>
			<path fill="#939598" d="M214.937,69.222h-1.6l-2.877-3.794l-2.894,3.794h-1.549l3.652-4.73l-3.508-4.566h1.584l2.751,3.599
				l2.75-3.599h1.548l-3.525,4.533L214.937,69.222z"/>
			<path fill="#939598" d="M223.169,59.89l-1.041-0.756c1.131-1.691,2.319-2.678,4.533-2.678c2.284,0,3.901,1.51,3.901,3.577
				c0,1.854-0.969,2.985-3.184,4.91l-3.363,2.983h6.672v1.295h-8.794v-1.096l4.568-4.031c1.924-1.724,2.626-2.697,2.626-3.954
				c0-1.475-1.17-2.411-2.536-2.411C225.113,57.732,224.178,58.485,223.169,59.89z"/>
			<path fill="#939598" d="M235.378,56.547h1.042v12.678h-1.401V58.021l-2.372,0.737l-0.344-1.151L235.378,56.547z"/>
			<path fill="#939598" d="M239.947,56.635h1.689v0.09l-1.457,4.802h-0.772L239.947,56.635z"/>
			<path fill="#939598" d="M249.061,69.441c-3.258,0-5.306-2.951-5.306-6.492c0-3.543,2.087-6.531,5.341-6.531
				c3.238,0,5.287,2.951,5.287,6.492C254.383,66.453,252.295,69.441,249.061,69.441z M249.061,57.715
				c-2.356,0-3.831,2.409-3.831,5.197c0,2.79,1.51,5.234,3.866,5.234s3.812-2.429,3.812-5.197
				C252.909,60.177,251.416,57.715,249.061,57.715z"/>
			<path fill="#939598" d="M257.204,56.635h1.67v0.09l-1.455,4.802h-0.755L257.204,56.635z M260.727,56.635h1.656v0.09l-1.457,4.802
				h-0.753L260.727,56.635z"/>
		</g>
		<g enable-background="new    ">
			<path fill="#939598" d="M199.545-93.194c-1.471,0-2.407-0.728-3.024-1.736l0.796-0.685c0.605,0.909,1.218,1.397,2.238,1.397
				c1.105,0,1.918-0.796,1.918-2.351v-6.561h1.119v6.547C202.592-94.329,201.293-93.194,199.545-93.194z"/>
			<path fill="#939598" d="M210.162-100.57h1.062v7.233h-1.062v-1.256c-0.491,0.783-1.232,1.413-2.478,1.413
				c-1.748,0-2.771-1.176-2.771-2.897v-4.493h1.077v4.226c0,1.344,0.726,2.183,2.002,2.183c1.229,0,2.169-0.909,2.169-2.267V-100.57
				L210.162-100.57z"/>
			<path fill="#939598" d="M213.736-93.337v-10.212h1.076v10.212H213.736z"/>
			<path fill="#939598" d="M217.344-102.15v-1.188h1.229v1.19h-1.229V-102.15z M217.415-93.337v-7.233h1.077v7.233H217.415z"/>
			<path fill="#939598" d="M224.184-94.103c0.991,0,1.693-0.406,2.278-1.024l0.672,0.603c-0.726,0.81-1.607,1.358-2.978,1.358
				c-1.989,0-3.61-1.525-3.61-3.777c0-2.101,1.469-3.781,3.47-3.781c2.139,0,3.371,1.707,3.371,3.833c0,0.1,0,0.211-0.016,0.335
				h-5.735C221.791-94.987,222.909-94.103,224.184-94.103z M226.295-97.349c-0.111-1.315-0.866-2.464-2.307-2.464
				c-1.26,0-2.21,1.049-2.353,2.464H226.295z"/>
			<path fill="#939598" d="M230.727-95.393c0,0.882,0.488,1.206,1.216,1.206c0.364,0,0.671-0.07,1.048-0.254v0.925
				c-0.377,0.195-0.784,0.308-1.302,0.308c-1.16,0-2.038-0.576-2.038-2.044v-4.364h-1.011v-0.954h1.011v-2.181h1.076v2.183h2.293
				v0.954h-2.293V-95.393z"/>
			<path fill="#939598" d="M246.658-100.679c0,1.288-0.784,1.945-1.553,2.281c1.159,0.349,2.099,1.02,2.099,2.378
				c0,1.693-1.412,2.686-3.552,2.686h-4.353v-9.795h4.167C245.398-103.13,246.658-102.177,246.658-100.679z M245.538-100.525
				c0-0.979-0.771-1.611-2.169-1.611h-2.98v3.373h2.898C244.614-98.764,245.538-99.365,245.538-100.525z M246.084-96.091
				c0-1.077-0.897-1.693-2.603-1.693h-3.094v3.455h3.287C245.16-94.329,246.084-94.987,246.084-96.091z"/>
			<path fill="#939598" d="M249.631-99.183l-0.322-0.882c0.798-0.363,1.582-0.601,2.632-0.601c1.968,0,3.074,1.007,3.074,2.911v4.42
				h-1.036v-1.09c-0.503,0.657-1.342,1.245-2.615,1.245c-1.343,0-2.702-0.755-2.702-2.267c0-1.541,1.258-2.353,3.092-2.353
				c0.925,0,1.58,0.127,2.224,0.308v-0.251c0-1.301-0.796-1.972-2.153-1.972C250.973-99.716,250.302-99.493,249.631-99.183z
				 M249.755-95.49c0,0.922,0.843,1.455,1.82,1.455c1.329,0,2.421-0.812,2.421-1.958v-0.698c-0.534-0.154-1.244-0.309-2.126-0.309
				C250.513-97,249.755-96.415,249.755-95.49z"/>
			<path fill="#939598" d="M257.407-93.337v-10.212h1.077v10.212H257.407z"/>
			<path fill="#939598" d="M264.247-93.169c-2.114,0-3.707-1.721-3.707-3.763c0-2.056,1.595-3.792,3.707-3.792
				c1.369,0,2.224,0.574,2.896,1.29l-0.715,0.755c-0.573-0.601-1.215-1.09-2.196-1.09c-1.467,0-2.587,1.245-2.587,2.809
				c0,1.582,1.147,2.827,2.657,2.827c0.925,0,1.635-0.458,2.208-1.077l0.687,0.644C266.47-93.754,265.6-93.169,264.247-93.169z"/>
			<path fill="#939598" d="M272.064-93.169c-2.17,0-3.75-1.705-3.75-3.763s1.594-3.792,3.779-3.792c2.169,0,3.761,1.707,3.761,3.763
				C275.854-94.903,274.247-93.169,272.064-93.169z M272.064-99.77c-1.567,0-2.644,1.245-2.644,2.809
				c0,1.568,1.146,2.827,2.673,2.827c1.564,0,2.656-1.245,2.656-2.795C274.75-98.512,273.587-99.77,272.064-99.77z"/>
			<path fill="#939598" d="M278.872-93.337h-1.076v-7.233h1.076v1.26c0.475-0.784,1.231-1.415,2.477-1.415
				c1.747,0,2.77,1.176,2.77,2.897v4.491h-1.077v-4.225c0-1.342-0.726-2.183-2.001-2.183c-1.245,0-2.168,0.909-2.168,2.267V-93.337
				L278.872-93.337z"/>
			<path fill="#939598" d="M289.728-93.096c-0.616,1.496-1.314,2.041-2.407,2.041c-0.603,0-1.047-0.125-1.539-0.363l0.365-0.854
				c0.351,0.181,0.675,0.265,1.133,0.265c0.643,0,1.048-0.335,1.483-1.355l-3.288-7.207h1.187l2.632,6.032l2.323-6.032h1.147
				L289.728-93.096z"/>
		</g>
	</g>
	<g id="windows">
		<g>
			<g>
				<rect x="-86.672" y="-69.778" fill="#FFFFFF" stroke="#A7A9AC" width="138.96" height="7.339"/>
				<line fill="none" stroke="#A7A9AC" x1="52.288" y1="-66.144" x2="-88.171" y2="-66.144"/>
				<line fill="none" stroke="#A7A9AC" stroke-width="2" x1="6.993" y1="-62.123" x2="6.993" y2="-69.103"/>
			</g>
			<line fill="none" stroke="#A7A9AC" stroke-width="2" x1="-39.728" y1="-61.873" x2="-39.728" y2="-69.066"/>
		</g>
	</g>
</g>
</svg>
