<?xml version="1.0" encoding="utf-8"?>
<!-- Generator: Adobe Illustrator 15.0.2, SVG Export Plug-In . SVG Version: 6.00 Build 0)  -->
<!DOCTYPE svg PUBLIC "-//W3C//DTD SVG 1.1//EN" "http://www.w3.org/Graphics/SVG/1.1/DTD/svg11.dtd">
<svg version="1.1" id="Layer_1" xmlns="http://www.w3.org/2000/svg" xmlns:xlink="http://www.w3.org/1999/xlink" x="0px" y="0px"
	 width="500px" height="500px" viewBox="-144.082 -9.67 500 500" enable-background="new -144.082 -9.67 500 500"
	 xml:space="preserve">
<g id="_x32_0_x25___PMS_2985_fill" display="none">
	<polygon display="inline" fill="#EBEEEF" points="2.512,18.025 2.512,479.024 180.846,479.024 180.846,424.026 210.514,424.026 
		210.514,16.692 207.18,16.525 207.014,7.858 114.984,8.025 115.18,19.192 	"/>
</g>
<g>
	<g id="_x32_0_x25__grey_fill">
		<rect x="61.125" y="193.551" fill="#B3B3B3" width="24.221" height="11.599"/>
		<rect x="94.216" y="13.432" fill="#B3B3B3" width="31.044" height="7.164"/>
		<rect x="201.333" y="13.09" fill="#B3B3B3" width="9.211" height="6.481"/>
		<rect x="1.427" y="14.796" fill="#B3B3B3" width="14.669" height="4.776"/>
	</g>
	<g id="icons">
		<polygon fill="#FFFFFF" stroke="#939598" points="20.872,204.808 20.872,173.424 1.768,173.424 1.768,205.15 		"/>
		<polygon fill="#FFFFFF" stroke="#939598" points="210.358,367.559 191.253,367.559 191.253,394.138 210.544,394.138 		"/>
		<polyline fill="#FFFFFF" stroke="#939598" points="181.377,277.641 190.382,277.641 190.382,181.1 145.386,181.252 
			145.386,153.391 209.009,153.391 209.009,296.062 168.974,295.996 168.974,277.641 170.554,277.641 		"/>
		<g>
			<g>
				<rect x="59.31" y="144.895" fill="#FFFFFF" stroke="#939598" width="24.178" height="46.762"/>
				<path fill="#FFFFFF" stroke="#939598" d="M71.397,168.277"/>
				<path fill="#FFFFFF" stroke="#939598" d="M71.397,168.437"/>
				<path fill="#FFFFFF" stroke="#939598" d="M71.397,184.292"/>
			</g>
			<circle fill="#FFFFFF" stroke="#939598" cx="71.513" cy="180.999" r="0.991"/>
			<path fill="#FFFFFF" stroke="#939598" d="M71.473,147.564c-6.93,0-9.467,1.599-9.467,3.84c0,0,0,33.608,0,34.157
				c0,0.547,0.148,1.68,1.598,1.68c1.451,0,7.869,0,7.869,0h0.017c0,0,6.418,0,7.869,0c1.449,0,1.597-1.131,1.597-1.68
				c0-0.549,0-34.135,0-34.135l-0.002-0.021C80.952,149.164,78.358,147.564,71.473,147.564z"/>
			<path fill="#FFFFFF" stroke="#939598" d="M69.433,188.98c0.002-0.562-0.45-1.012-1.019-1.012c-0.549,0-1.005,0.45-1.009,1.012
				c0.004,0.558,0.46,1.018,1.009,1.018C68.982,189.998,69.435,189.544,69.433,188.98z"/>
			<path fill="#FFFFFF" stroke="#939598" d="M75.719,188.98c0.006-0.562-0.455-1.012-1.013-1.012c-0.557,0-1.014,0.45-1.014,1.012
				c0,0.558,0.457,1.018,1.014,1.011C75.266,189.998,75.719,189.538,75.719,188.98z"/>
			<path fill="#FFFFFF" stroke="#939598" d="M70.148,189.28c0,0.831,0.562,1.503,1.393,1.505c0.83-0.002,1.283-0.673,1.283-1.505
				l-0.533-5.724c0-0.562-1.517-0.562-1.517,0L70.148,189.28z"/>
		</g>
		<g>
			<polygon fill="none" stroke="#939598" points="46.762,319.024 45.053,319.012 45.037,343.388 46.769,343.4 			"/>
			<path fill="none" stroke="#939598" d="M45.954,343.42c-13.421-0.455-23.931-11.554-23.473-24.973"/>
		</g>
		<g>
			<path fill="#FFFFFF" stroke="#939598" stroke-miterlimit="10" d="M15.949,166.113c4.566,0,9.595-2.774,9.595-6.194
				c0-3.42-5.028-6.183-9.595-6.183c-4.568,0-6.944,2.762-6.944,6.183C9.005,163.338,11.381,166.113,15.949,166.113"/>
			<path fill="#FFFFFF" stroke="#939598" d="M15.949,166.113c4.566,0,9.595-2.774,9.595-6.194c0-3.42-5.028-6.183-9.595-6.183
				c-4.568,0-6.944,2.762-6.944,6.183C9.005,163.338,11.381,166.113,15.949,166.113z"/>
			<path fill="#FFFFFF" stroke="#939598" stroke-miterlimit="10" d="M10.502,156.21c0.256,0,0.466-0.21,0.466-0.466v-2.156
				c0-0.255-0.21-0.465-0.466-0.465h-0.078c-0.256,0-0.466,0.21-0.466,0.465v2.156c0,0.256,0.21,0.466,0.466,0.466H10.502z"/>
			<path fill="#FFFFFF" stroke="#939598" d="M10.502,156.21c0.256,0,0.466-0.21,0.466-0.466v-2.156c0-0.255-0.21-0.465-0.466-0.465
				h-0.078c-0.256,0-0.466,0.21-0.466,0.465v2.156c0,0.256,0.21,0.466,0.466,0.466H10.502z"/>
			<path fill="#FFFFFF" stroke="#939598" stroke-miterlimit="10" d="M9.945,152.794c0-0.776-2.105-1.407-2.882-1.407
				c-0.787,0-2.892,0.631-2.892,1.407v14.137c0,0.777,2.105,1.407,2.892,1.407c0.777,0,2.88-0.63,2.88-1.407L9.945,152.794z"/>
			<path fill="#FFFFFF" stroke="#939598" d="M9.945,152.794c0-0.776-2.105-1.407-2.882-1.407c-0.787,0-2.892,0.631-2.892,1.407
				v14.137c0,0.777,2.105,1.407,2.892,1.407c0.777,0,2.88-0.63,2.88-1.407L9.945,152.794z"/>
			<path fill="#FFFFFF" stroke="#939598" stroke-miterlimit="10" d="M16.141,164.471c3.355,0,7.054-2.039,7.054-4.553
				c0-2.515-3.697-4.551-7.054-4.551c-3.357,0-5.103,2.037-5.103,4.551C11.038,162.433,12.783,164.471,16.141,164.471"/>
			<path fill="#FFFFFF" stroke="#939598" d="M16.141,164.471c3.355,0,7.054-2.039,7.054-4.553c0-2.515-3.697-4.551-7.054-4.551
				c-3.357,0-5.103,2.037-5.103,4.551C11.038,162.433,12.783,164.471,16.141,164.471z"/>
		</g>
		<g>
			<g>
				<g>
					<path fill="none" stroke="#939598" d="M13.523,189.104"/>
				</g>
				<g>
					<path fill="none" stroke="#939598" d="M12.436,189.104"/>
				</g>
				<g>
					<circle fill="none" stroke="#939598" cx="13.523" cy="189.104" r="1.041"/>
					<path fill="none" stroke="#939598" d="M13.523,189.104"/>
				</g>
				<g>
					<g>
						<rect x="4.824" y="184.739" fill="none" stroke="#939598" width="2.175" height="8.753"/>
						<path fill="none" stroke="#939598" d="M5.911,189.104"/>
					</g>
					<g>
						<rect x="7.094" y="188.64" fill="none" stroke="#939598" width="4.126" height="0.927"/>
						<path fill="none" stroke="#939598" d="M8.806,189.104"/>
					</g>
					<g>
						<circle fill="none" stroke="#939598" cx="5.933" cy="189.104" r="1.009"/>
						<path fill="none" stroke="#939598" d="M5.933,189.104"/>
					</g>
				</g>
			</g>
			<g>
				<rect x="4.49" y="180.377" fill="none" stroke="#939598" width="14.2" height="17.476"/>
				<rect x="7.049" y="181.802" fill="none" stroke="#939598" width="10.214" height="14.588"/>
			</g>
		</g>
		<g>
			<polygon fill="none" stroke="#939598" points="51.708,205.704 49.999,205.718 49.983,181.342 51.716,181.329 			"/>
			<path fill="none" stroke="#939598" d="M50.9,181.31c-13.42,0.455-23.931,11.553-23.473,24.973"/>
		</g>
		<g>
			<polygon fill="none" stroke="#939598" points="98.955,372.008 97.246,372.021 97.229,347.645 98.962,347.632 			"/>
			<path fill="none" stroke="#939598" d="M98.147,347.612c-13.42,0.455-23.93,11.553-23.473,24.974"/>
		</g>
		<g>
			<polygon fill="none" stroke="#939598" points="178.645,400.297 178.637,401.919 155.479,401.936 155.488,400.311 			"/>
			<path fill="none" stroke="#939598" d="M155.47,401.043c0.433,12.749,10.914,22.733,23.663,22.297"/>
		</g>
		<g>
			<polygon fill="none" stroke="#939598" points="105.786,380.142 105.779,381.766 82.623,381.781 82.63,380.156 			"/>
			<path fill="none" stroke="#939598" d="M82.612,380.889c0.433,12.75,10.913,22.733,23.662,22.298"/>
		</g>
		<g>
			<g>
				<g>
					<g>
						<rect x="185.179" y="400.867" fill="#FFFFFF" stroke="#939598" width="18.979" height="20.661"/>
						<path fill="#FFFFFF" stroke="#939598" d="M194.039,411.197"/>
						<polyline fill="#FFFFFF" stroke="#939598" points="190.844,404.929 187.955,404.929 187.281,407.423 187.281,415.067 
							187.955,417.594 190.844,417.594 						"/>
						<line fill="none" stroke="#939598" x1="190.844" y1="421.677" x2="190.844" y2="400.867"/>
						<path fill="#FFFFFF" stroke="#939598" d="M193.07,411.261"/>
					</g>
				</g>
			</g>
			<polygon fill="#FFFFFF" stroke="#939598" points="189.597,420.522 189.593,418.854 190.758,418.487 190.764,420.89 			"/>
		</g>
		<g>
			<polygon fill="none" stroke="#939598" points="184.333,475.351 184.327,473.728 161.171,473.712 161.177,475.337 			"/>
			<path fill="none" stroke="#939598" d="M161.159,474.604c0.434-12.75,10.914-22.734,23.662-22.298"/>
		</g>
		<g>
			<polygon fill="none" stroke="#939598" points="143.226,331.341 143.234,332.964 166.391,332.979 166.382,331.354 			"/>
			<path fill="none" stroke="#939598" d="M166.4,332.087c-0.433,12.75-10.913,22.735-23.662,22.298"/>
		</g>
		<g>
			<path fill="#FFFFFF" stroke="#939598" stroke-miterlimit="10" d="M195.985,358.523c-4.566,0-9.596-2.774-9.596-6.194
				s5.029-6.183,9.596-6.183c4.567,0,6.944,2.763,6.944,6.183S200.553,358.523,195.985,358.523"/>
			<path fill="#FFFFFF" stroke="#939598" d="M195.985,358.523c-4.566,0-9.596-2.774-9.596-6.194s5.029-6.183,9.596-6.183
				c4.567,0,6.944,2.763,6.944,6.183S200.553,358.523,195.985,358.523z"/>
			<path fill="#FFFFFF" stroke="#939598" stroke-miterlimit="10" d="M201.431,348.622c-0.255,0-0.465-0.21-0.465-0.466V346
				c0-0.256,0.21-0.466,0.465-0.466h0.08c0.256,0,0.466,0.21,0.466,0.466v2.156c0,0.256-0.21,0.466-0.466,0.466H201.431z"/>
			<path fill="#FFFFFF" stroke="#939598" d="M201.431,348.622c-0.255,0-0.465-0.21-0.465-0.466V346c0-0.256,0.21-0.466,0.465-0.466
				h0.08c0.256,0,0.466,0.21,0.466,0.466v2.156c0,0.256-0.21,0.466-0.466,0.466H201.431z"/>
			<path fill="#FFFFFF" stroke="#939598" stroke-miterlimit="10" d="M201.989,345.205c0-0.775,2.104-1.407,2.882-1.407
				c0.786,0,2.891,0.632,2.891,1.407v14.138c0,0.778-2.104,1.407-2.891,1.407c-0.778,0-2.88-0.629-2.88-1.407L201.989,345.205z"/>
			<path fill="#FFFFFF" stroke="#939598" d="M201.989,345.205c0-0.775,2.104-1.407,2.882-1.407c0.786,0,2.891,0.632,2.891,1.407
				v14.138c0,0.778-2.104,1.407-2.891,1.407c-0.778,0-2.88-0.629-2.88-1.407L201.989,345.205z"/>
			<path fill="#FFFFFF" stroke="#939598" stroke-miterlimit="10" d="M195.795,356.883c-3.355,0-7.054-2.039-7.054-4.554
				s3.697-4.551,7.054-4.551s5.102,2.036,5.102,4.551S199.15,356.883,195.795,356.883"/>
			<path fill="#FFFFFF" stroke="#939598" d="M195.795,356.883c-3.355,0-7.054-2.039-7.054-4.554s3.697-4.551,7.054-4.551
				s5.102,2.036,5.102,4.551S199.15,356.883,195.795,356.883z"/>
		</g>
		<g>
			<g>
				<g>
					<path fill="none" stroke="#939598" d="M198.953,379.412"/>
				</g>
				<g>
					<path fill="none" stroke="#939598" d="M200.04,379.412"/>
				</g>
				<g>
					<circle fill="none" stroke="#939598" cx="198.953" cy="379.412" r="1.041"/>
					<path fill="none" stroke="#939598" d="M198.953,379.412"/>
				</g>
				<g>
					<g>
						<rect x="205.477" y="375.046" fill="none" stroke="#939598" width="2.175" height="8.753"/>
						<path fill="none" stroke="#939598" d="M206.564,379.412"/>
					</g>
					<g>
						<rect x="201.255" y="378.947" fill="none" stroke="#939598" width="4.126" height="0.928"/>
						<path fill="none" stroke="#939598" d="M203.67,379.412"/>
					</g>
					<g>
						<circle fill="none" stroke="#939598" cx="206.542" cy="379.412" r="1.009"/>
						<path fill="none" stroke="#939598" d="M206.542,379.412"/>
					</g>
				</g>
			</g>
			<g>
				<rect x="193.783" y="370.685" fill="none" stroke="#939598" width="14.2" height="17.475"/>
				<rect x="195.211" y="372.11" fill="none" stroke="#939598" width="10.214" height="14.589"/>
			</g>
		</g>
		<line fill="none" stroke="#939598" x1="119.531" y1="485.33" x2="119.531" y2="431.985"/>
		
			<line fill="none" stroke="#939598" stroke-dasharray="1.5,1.5,1.5,1.5,1.5,1.5" x1="116.892" y1="484.818" x2="116.892" y2="431.856"/>
		<polyline fill="none" stroke="#939598" points="104.45,330.457 65.219,330.457 65.219,370.259 		"/>
		<polyline fill="none" stroke="#939598" points="13.708,320.112 13.708,358.66 52.001,358.66 		"/>
		<line fill="none" stroke="#939598" x1="159.032" y1="323.523" x2="144.021" y2="323.523"/>
		<path fill="none" stroke="#939598" stroke-dasharray="1.5,1.5,1.5,1.5,1.5,1.5" d="M104.791,328.3c-4.094,0-41.96,0-41.96,0
			v41.618"/>
		<polyline fill="none" stroke="#939598" stroke-dasharray="1.5,1.5,1.5,1.5,1.5,1.5" points="11.319,320.112 11.319,360.959 
			52.597,360.959 		"/>
		<g>
			<g>
				<rect x="187.719" y="229.278" fill="#FFFFFF" stroke="#939598" width="20.212" height="23.795"/>
				<path fill="#FFFFFF" stroke="#939598" d="M197.824,241.176"/>
			</g>
			<g>
				<g>
					<circle fill="#FFFFFF" stroke="#939598" cx="192.195" cy="246.616" r="2.89"/>
					<path fill="#FFFFFF" stroke="#939598" d="M192.195,246.616"/>
				</g>
				<g>
					<circle fill="#FFFFFF" stroke="#939598" stroke-width="0.8" cx="192.196" cy="246.644" r="2.036"/>
					<path fill="#FFFFFF" stroke="#939598" d="M192.195,246.643"/>
				</g>
			</g>
			<g>
				<g>
					<circle fill="#FFFFFF" stroke="#939598" cx="200.639" cy="235.064" r="2.89"/>
					<path fill="#FFFFFF" stroke="#939598" d="M200.639,235.063"/>
				</g>
				<g>
					<circle fill="#FFFFFF" stroke="#939598" stroke-width="0.8" cx="200.64" cy="235.035" r="2.036"/>
					<path fill="#FFFFFF" stroke="#939598" d="M200.639,235.035"/>
				</g>
			</g>
			<g>
				<g>
					<circle fill="#FFFFFF" stroke="#939598" cx="200.611" cy="246.653" r="3.295"/>
					<path fill="#FFFFFF" stroke="#939598" d="M200.611,246.653"/>
				</g>
				<g>
					<circle fill="#FFFFFF" stroke="#939598" stroke-width="0.8" cx="200.611" cy="246.622" r="2.321"/>
					<path fill="#FFFFFF" stroke="#939598" d="M200.611,246.622"/>
				</g>
			</g>
			<g>
				<g>
					<circle fill="#FFFFFF" stroke="#939598" cx="191.974" cy="235.077" r="3.294"/>
					<path fill="#FFFFFF" stroke="#939598" d="M191.974,235.077"/>
				</g>
				<g>
					<circle fill="#FFFFFF" stroke="#939598" stroke-width="0.8" cx="191.974" cy="235.044" r="2.321"/>
					<path fill="#FFFFFF" stroke="#939598" d="M191.974,235.044"/>
				</g>
			</g>
			<line fill="none" stroke="#939598" x1="205.135" y1="253.104" x2="205.135" y2="229.278"/>
			<line fill="none" stroke="#939598" x1="206.25" y1="253.073" x2="206.25" y2="229.278"/>
		</g>
		<g>
			<g>
				<rect x="142.354" y="272.763" fill="#FFFFFF" stroke="#939598" width="25.485" height="22.484"/>
				<path fill="#FFFFFF" stroke="#939598" d="M156.417,284.004"/>
			</g>
			<line fill="none" stroke="#939598" x1="142.295" y1="274.335" x2="167.84" y2="274.335"/>
			<rect x="163.647" y="271.652" fill="#FFFFFF" stroke="#939598" width="2.065" height="1.095"/>
			<path fill="#FFFFFF" stroke="#939598" d="M164.681,272.26"/>
		</g>
		<g>
			<polyline fill="none" stroke="#939598" stroke-dasharray="1.5,1,1.5,1,1.5,1" points="188.845,211.29 207.132,211.29 
				207.132,193.355 189.255,193.355 			"/>
			<polyline fill="#FFFFFF" stroke="#939598" points="189.255,193.326 188.167,193.326 188.167,211.29 188.839,211.29 			"/>
		</g>
		<line fill="none" stroke="#939598" x1="183.252" y1="277.641" x2="183.252" y2="295.55"/>
		<g>
			<g>
				<g>
					<polygon fill="none" stroke="#939598" stroke-width="0.7" points="175.642,268.464 176.921,269.168 171.591,277.962 
						170.311,277.259 					"/>
					<path fill="none" stroke="#333333" stroke-width="0.8" d="M172.642,273.925"/>
				</g>
				<path fill="none" stroke="#939598" stroke-width="0.8" d="M176.132,268.888c3.276,1.986,5.041,5.521,4.922,9.097"/>
			</g>
		</g>
		<g>
			<rect x="115.539" y="2.752" fill="none" stroke="#939598" width="2.942" height="2.942"/>
			<rect x="206.636" y="2.752" fill="none" stroke="#939598" width="2.942" height="2.942"/>
			<line fill="none" stroke="#939598" x1="118.226" y1="4.927" x2="206.636" y2="4.927"/>
			<line fill="none" stroke="#939598" x1="118.481" y1="5.694" x2="118.481" y2="11.726"/>
			<line fill="none" stroke="#939598" x1="206.656" y1="5.694" x2="206.656" y2="11.47"/>
			<line fill="none" stroke="#939598" x1="209.578" y1="5.694" x2="209.578" y2="11.726"/>
			<line fill="none" stroke="#939598" x1="206.636" y1="2.752" x2="117.97" y2="2.752"/>
			<line fill="none" stroke="#939598" x1="115.539" y1="5.694" x2="115.539" y2="11.214"/>
		</g>
		<g>
			<polygon fill="none" stroke="#939598" points="105.405,312.118 105.397,310.495 82.242,310.479 82.249,312.104 			"/>
			<path fill="none" stroke="#939598" d="M82.231,311.371c0.434-12.75,10.914-22.734,23.662-22.299"/>
		</g>
		<g>
			<g>
				<polygon fill="none" stroke="#939598" points="129.13,476.972 129.136,475.364 146.789,475.351 146.782,476.962 				"/>
				<path fill="none" stroke="#939598" d="M146.797,476.403c-0.33-9.719-8.321-17.33-18.037-16.997"/>
			</g>
			<g>
				<polygon fill="none" stroke="#939598" points="129.13,441.75 129.136,443.358 146.789,443.372 146.782,441.761 				"/>
				<path fill="none" stroke="#939598" d="M146.797,442.319c-0.33,9.718-8.321,17.329-18.037,16.997"/>
			</g>
		</g>
		<g>
			<g>
				<g>
					<rect x="161.324" y="299.531" fill="#FFFFFF" stroke="#939598" width="47.845" height="25.069"/>
					<path fill="#FFFFFF" stroke="#939598" d="M185.886,312.046"/>
				</g>
				<g>
					<polyline fill="#FFFFFF" stroke="#939598" points="207.71,311.802 207.71,301.78 163.122,301.78 163.122,322.348 
						207.71,322.348 207.71,312.727 					"/>
					<path fill="#FFFFFF" stroke="#939598" d="M185.886,312.046"/>
				</g>
				<line fill="none" stroke="#939598" x1="207.71" y1="322.348" x2="186.832" y2="312.738"/>
				<line fill="none" stroke="#939598" x1="184.969" y1="311.317" x2="163.122" y2="301.78"/>
				<line fill="none" stroke="#939598" x1="163.122" y1="322.348" x2="184.86" y2="312.832"/>
				<line fill="none" stroke="#939598" x1="186.865" y1="311.292" x2="207.71" y2="301.78"/>
				<g>
					<path fill="#FFFFFF" stroke="#939598" d="M185.886,310.974c-0.613,0-1.108,0.601-1.108,1.072c0,0.471,0.495,0.998,1.108,0.998
						c0.612,0,1.11-0.527,1.11-0.998C186.996,311.574,186.498,310.974,185.886,310.974z"/>
					<path fill="#FFFFFF" stroke="#939598" d="M185.886,312.046"/>
				</g>
			</g>
			<path fill="#FFFFFF" stroke="#939598" d="M206.074,311.007c-0.631,0-0.631,2.284,0,2.284c0.632,0,1.142-0.512,1.142-1.143
				C207.216,311.517,206.706,311.007,206.074,311.007z"/>
			<polyline fill="#FFFFFF" stroke="#939598" points="209.471,312.385 207.286,312.385 207.286,311.748 209.473,311.748 			"/>
		</g>
		<polyline fill="none" stroke="#939598" stroke-dasharray="1.5,1.5,1.5,1.5,1.5,1.5" points="198.858,198.498 198.858,180.844 
			210.884,180.844 		"/>
		<polyline fill="none" stroke="#939598" stroke-dasharray="1.5,1.5,1.5,1.5,1.5,1.5" points="184.02,284.549 198.858,284.549 
			198.858,206.319 		"/>
		
			<line fill="none" stroke="#939598" stroke-dasharray="1.5,1.5,1.5,1.5,1.5,1.5" x1="142.657" y1="284.549" x2="168.412" y2="284.549"/>
		<g>
			<g>
				<path fill="#FFFFFF" stroke="#939598" d="M179.147,163.74c0.437,0,0.788,0.353,0.788,0.789v13.759
					c0,0.436-0.354,0.789-0.788,0.789h-23.342c-0.436,0-0.787-0.354-0.787-0.789v-13.759c0-0.438,0.352-0.789,0.787-0.789H179.147
					L179.147,163.74z"/>
				<path fill="#FFFFFF" stroke="#939598" d="M167.562,170.813"/>
			</g>
			<g>
				<path fill="#FFFFFF" stroke="#939598" d="M167.562,170.854c0.491,0,0.89,0.398,0.89,0.891s-0.398,0.891-0.89,0.891
					c-0.494,0-0.892-0.398-0.892-0.891S167.067,170.854,167.562,170.854z"/>
				<path fill="#FFFFFF" stroke="#939598" d="M167.562,171.744"/>
			</g>
			<g>
				<g>
					<rect x="163.666" y="164.288" fill="#FFFFFF" stroke="#939598" width="7.787" height="1.862"/>
					<path fill="#FFFFFF" stroke="#939598" d="M167.562,165.218"/>
				</g>
				<g>
					<rect x="167.162" y="166.102" fill="#FFFFFF" stroke="#939598" width="0.795" height="3.669"/>
					<path fill="#FFFFFF" stroke="#939598" d="M167.562,167.7"/>
				</g>
				<g>
					<circle fill="#FFFFFF" stroke="#939598" cx="167.562" cy="165.237" r="0.867"/>
					<path fill="#FFFFFF" stroke="#939598" d="M167.562,165.236"/>
				</g>
			</g>
			<g>
				<path fill="#FFFFFF" stroke="#939598" d="M167.562,171.744"/>
				<path fill="none" stroke="#939598" d="M168.041,166.794h9.812c0.458,0,0.831,0.371,0.831,0.829v9.437
					c0,0.456-0.371,0.828-0.831,0.828H157.1c-0.456,0-0.83-0.372-0.83-0.828v-9.437c0-0.457,0.372-0.829,0.83-0.829h9.956"/>
			</g>
		</g>
	</g>
	<g id="walls">
		<polyline fill="none" stroke="#939598" stroke-width="5" points="130.549,13.237 0.22,13.524 0.22,483.697 183.438,483.823 
			183.438,475.585 		"/>
		<polyline fill="none" stroke="#939598" stroke-width="5" points="183.438,452.786 183.438,428.251 211.897,428.251 
			211.897,13.059 197.583,13.09 		"/>
		<line fill="none" stroke="#939598" stroke-width="3" x1="27.893" y1="205.49" x2="0.062" y2="205.49"/>
		<polyline fill="none" stroke="#939598" stroke-width="3" points="105.133,289.324 105.133,205.49 51.233,205.49 		"/>
		<line fill="none" stroke="#939598" stroke-width="3" x1="105.133" y1="379.812" x2="105.133" y2="312.267"/>
		<line fill="none" stroke="#939598" stroke-width="3" x1="105.133" y1="481.98" x2="105.133" y2="402.838"/>
		<polyline fill="none" stroke="#939598" stroke-width="3" points="-1.984,143.404 85.346,143.404 85.346,204.467 		"/>
		<line fill="none" stroke="#939598" stroke-width="3" x1="22.853" y1="319.089" x2="2.109" y2="319.089"/>
		<line fill="none" stroke="#939598" stroke-width="3" x1="106.155" y1="319.089" x2="46.798" y2="319.089"/>
		<line fill="none" stroke="#939598" stroke-width="3" x1="75.113" y1="371.282" x2="2.109" y2="371.282"/>
		<line fill="none" stroke="#939598" stroke-width="3" x1="105.132" y1="371.282" x2="98.991" y2="371.282"/>
		<line fill="none" stroke="#939598" stroke-width="3" x1="129.354" y1="477.375" x2="129.354" y2="483.516"/>
		<polyline fill="none" stroke="#939598" stroke-width="3" points="105.474,432.005 129.354,432.005 129.354,441.812 		"/>
		<polyline fill="none" stroke="#939598" stroke-width="3" points="209.86,394.139 178.818,394.139 143.681,394.139 
			143.681,354.215 		"/>
		<path fill="none" stroke="#939598" stroke-width="3" d="M212.591,297.597c-2.389,0-68.91,0-68.91,0v33.774"/>
		<polyline fill="none" stroke="#939598" stroke-width="3" points="178.85,422.727 178.818,427.296 184.617,427.296 		"/>
		<line fill="none" stroke="#939598" stroke-width="3" x1="178.818" y1="394.139" x2="178.671" y2="400.62"/>
		<line fill="none" stroke="#939598" stroke-width="3" x1="53.28" y1="318.748" x2="53.28" y2="371.282"/>
		<line fill="none" stroke="#939598" stroke-width="3" x1="160.056" y1="298.278" x2="160.056" y2="326.253"/>
		<polyline fill="none" stroke="#939598" stroke-width="3" points="85.346,193.608 60.266,193.608 60.266,204.126 		"/>
		<polyline fill="none" stroke="#939598" stroke-width="3" points="201.333,13.09 201.333,18.89 210.884,18.89 		"/>
		<polyline fill="none" stroke="#939598" stroke-width="3" points="16.097,14.114 16.097,19.573 1.086,19.573 		"/>
		<polyline fill="none" stroke="#939598" stroke-width="3" points="94.216,13.432 94.216,19.913 124.236,19.913 124.236,12.409 		
			"/>
		<g>
			<rect x="160.469" y="13.298" fill="none" stroke="#939598" width="38.378" height="1.807"/>
			<rect x="127.465" y="11.176" fill="none" stroke="#939598" width="41.959" height="1.983"/>
		</g>
	</g>
	<g id="windows">
		<g>
			<g>
				<rect x="210.06" y="41.293" fill="#FFFFFF" stroke="#939598" width="3.761" height="28.426"/>
			</g>
			<line fill="none" stroke="#939598" x1="211.933" y1="40.612" x2="211.933" y2="70.146"/>
		</g>
		<g>
			<g>
				<rect x="-1.562" y="147.983" fill="#FFFFFF" stroke="#939598" width="3.76" height="23.651"/>
			</g>
			<line fill="none" stroke="#939598" x1="0.311" y1="147.301" x2="0.311" y2="172.06"/>
		</g>
		<g>
			<g>
				<rect x="-1.741" y="379.017" fill="#FFFFFF" stroke="#939598" width="3.761" height="28.427"/>
			</g>
			<line fill="none" stroke="#939598" x1="0.131" y1="378.335" x2="0.131" y2="407.87"/>
		</g>
		<g>
			<rect x="-1.793" y="211.119" fill="#FFFFFF" stroke="#939598" width="3.913" height="75.049"/>
			<line fill="none" stroke="#939598" stroke-width="2" x1="2.433" y1="248.978" x2="-1.789" y2="248.978"/>
		</g>
		<g>
			<g>
				<rect x="20.026" y="11.574" fill="#FFFFFF" stroke="#939598" width="71.189" height="3.76"/>
				<line fill="none" stroke="#939598" x1="91.216" y1="13.434" x2="19.259" y2="13.434"/>
				<line fill="none" stroke="#939598" stroke-width="2" x1="68.012" y1="15.495" x2="68.012" y2="11.919"/>
			</g>
			<line fill="none" stroke="#939598" stroke-width="2" x1="44.076" y1="15.623" x2="44.076" y2="11.937"/>
		</g>
		<line fill="none" stroke="#939598" x1="0.062" y1="208.731" x2="0.062" y2="292.65"/>
	</g>
	<g id="Type">
		<g>
			<path fill="#939598" d="M34.717,168.489c0,0.849-0.516,1.28-1.022,1.502c0.765,0.23,1.382,0.672,1.382,1.566
				c0,1.114-0.931,1.77-2.341,1.77H29.87v-6.45h2.746C33.888,166.877,34.717,167.504,34.717,168.489z M33.98,168.59
				c0-0.645-0.507-1.059-1.428-1.059H30.59v2.22h1.907C33.373,169.752,33.98,169.354,33.98,168.59z M34.34,171.512
				c0-0.71-0.589-1.115-1.714-1.115H30.59v2.276h2.165C33.732,172.673,34.34,172.239,34.34,171.512z"/>
			<path fill="#939598" d="M36.678,169.476l-0.212-0.58c0.525-0.24,1.042-0.397,1.732-0.397c1.299,0,2.026,0.664,2.026,1.917v2.912
				h-0.683v-0.718c-0.331,0.433-0.884,0.819-1.722,0.819c-0.885,0-1.779-0.498-1.779-1.492c0-1.013,0.83-1.549,2.037-1.549
				c0.607,0,1.04,0.083,1.464,0.203v-0.166c0-0.857-0.524-1.3-1.418-1.3C37.562,169.125,37.12,169.273,36.678,169.476z
				 M36.761,171.907c0,0.608,0.554,0.958,1.197,0.958c0.875,0,1.595-0.534,1.595-1.29v-0.46c-0.351-0.102-0.82-0.203-1.401-0.203
				C37.258,170.913,36.761,171.3,36.761,171.907z"/>
			<path fill="#939598" d="M42.648,171.972c0,0.58,0.322,0.792,0.802,0.792c0.239,0,0.441-0.046,0.69-0.166v0.608
				c-0.249,0.129-0.516,0.202-0.856,0.202c-0.765,0-1.345-0.377-1.345-1.344v-2.875h-0.663v-0.626h0.663v-1.437h0.709v1.437h1.512
				v0.626h-1.512V171.972z"/>
			<path fill="#939598" d="M46.12,173.327h-0.709v-6.727h0.709v2.792c0.312-0.516,0.811-0.931,1.631-0.931
				c1.151,0,1.824,0.774,1.824,1.908v2.958h-0.709v-2.783c0-0.884-0.479-1.437-1.318-1.437c-0.82,0-1.429,0.598-1.429,1.492
				L46.12,173.327L46.12,173.327z"/>
		</g>
		<g>
			<path fill="#939598" d="M194.938,414.94v-0.465l4.193-1.378l-4.18-1.432v-0.596l5.054,1.792v0.48l-4.072,1.376l4.072,1.385v0.473
				l-5.054,1.792v-0.618l4.18-1.432L194.938,414.94z"/>
			<path fill="#939598" d="M194.249,407.791l6.637,3.326v0.509l-6.637-3.326V407.791z"/>
			<path fill="#939598" d="M199.968,405.385v1.742h-5.017v-1.742c0-1.576,1.083-2.665,2.502-2.665
				C198.871,402.72,199.968,403.809,199.968,405.385z M195.474,405.385v1.176h3.971v-1.176c0-1.268-0.859-2.077-1.979-2.077
				C196.349,403.308,195.474,404.116,195.474,405.385z"/>
		</g>
		<g>
			<path fill="#939598" d="M166.056,365.665c0,0.848-0.517,1.281-1.023,1.503c0.766,0.23,1.383,0.673,1.383,1.565
				c0,1.115-0.931,1.77-2.34,1.77h-2.864v-6.449h2.745C165.227,364.054,166.056,364.68,166.056,365.665z M165.318,365.768
				c0-0.646-0.507-1.061-1.43-1.061h-1.961v2.222h1.906C164.711,366.929,165.318,366.532,165.318,365.768z M165.679,368.688
				c0-0.709-0.59-1.115-1.715-1.115h-2.035v2.276h2.164C165.069,369.849,165.679,369.415,165.679,368.688z"/>
			<path fill="#939598" d="M168.016,366.652l-0.212-0.581c0.527-0.239,1.043-0.396,1.732-0.396c1.299,0,2.025,0.663,2.025,1.917
				v2.911h-0.682v-0.719c-0.331,0.434-0.885,0.82-1.724,0.82c-0.884,0-1.777-0.496-1.777-1.492c0-1.013,0.829-1.549,2.036-1.549
				c0.608,0,1.041,0.083,1.465,0.203v-0.166c0-0.856-0.524-1.3-1.418-1.3C168.9,366.301,168.458,366.449,168.016,366.652z
				 M168.099,369.083c0,0.609,0.553,0.96,1.198,0.96c0.875,0,1.594-0.534,1.594-1.291v-0.461c-0.351-0.101-0.82-0.2-1.401-0.2
				C168.597,368.089,168.099,368.477,168.099,369.083z"/>
			<path fill="#939598" d="M173.985,369.148c0,0.58,0.322,0.792,0.802,0.792c0.239,0,0.442-0.046,0.691-0.166v0.607
				c-0.249,0.129-0.516,0.203-0.857,0.203c-0.765,0-1.344-0.378-1.344-1.345v-2.875h-0.663v-0.626h0.663v-1.437h0.708v1.437h1.511
				v0.626h-1.511V369.148z"/>
			<path fill="#939598" d="M177.459,370.503h-0.709v-6.726h0.709v2.793c0.313-0.517,0.81-0.931,1.629-0.931
				c1.153,0,1.825,0.773,1.825,1.907v2.957h-0.708v-2.782c0-0.885-0.481-1.438-1.317-1.438c-0.821,0-1.429,0.599-1.429,1.492
				V370.503L177.459,370.503z"/>
		</g>
		<g>
			<path fill="#939598" d="M127.101,465.846c0,1.448-1.14,2.515-2.588,2.515c-1.433,0-2.602-1.06-2.602-2.536
				c0-0.911,0.322-1.455,0.796-1.957l0.415,0.387c-0.402,0.423-0.688,0.896-0.688,1.577c0,1.11,0.896,1.941,2.064,1.941
				c1.169,0,2.079-0.838,2.079-1.941c0-0.688-0.267-1.14-0.725-1.62l0.365-0.372C126.749,464.362,127.101,464.935,127.101,465.846z"
				/>
			<path fill="#939598" d="M127.015,462.896h-5.232v-0.553h5.232V462.896z"/>
			<path fill="#939598" d="M127.101,459.37c0,1.11-0.874,1.921-1.929,1.921c-1.054,0-1.943-0.817-1.943-1.937
				c0-1.109,0.875-1.927,1.93-1.927C126.211,457.428,127.101,458.252,127.101,459.37z M123.717,459.37
				c0,0.803,0.637,1.354,1.439,1.354s1.448-0.588,1.448-1.37c0-0.802-0.638-1.36-1.433-1.36
				C124.361,457.994,123.717,458.589,123.717,459.37z"/>
			<path fill="#939598" d="M127.086,455.208c0,0.53-0.208,1.118-0.545,1.534l-0.395-0.279c0.3-0.402,0.474-0.847,0.474-1.283
				c0-0.444-0.23-0.768-0.589-0.768h-0.014c-0.372,0-0.517,0.438-0.653,0.926c-0.163,0.578-0.364,1.224-1.046,1.224h-0.015
				c-0.637,0-1.06-0.53-1.06-1.26c0-0.452,0.157-0.954,0.406-1.334l0.416,0.25c-0.222,0.345-0.358,0.739-0.358,1.097
				c0,0.438,0.23,0.717,0.538,0.717h0.014c0.352,0,0.488-0.459,0.638-0.953c0.172-0.574,0.395-1.19,1.062-1.19h0.015
				C126.677,453.89,127.086,454.47,127.086,455.208z"/>
			<path fill="#939598" d="M126.62,451.231c0-0.509-0.207-0.868-0.523-1.169l0.307-0.344c0.416,0.373,0.697,0.824,0.697,1.526
				c0,1.018-0.783,1.85-1.936,1.85c-1.075,0-1.937-0.752-1.937-1.777c0-1.096,0.874-1.728,1.964-1.728c0.051,0,0.107,0,0.172,0.007
				v2.938C126.167,452.458,126.62,451.885,126.62,451.231z M124.957,450.149c-0.673,0.06-1.263,0.446-1.263,1.184
				c0,0.645,0.538,1.131,1.263,1.203V450.149z"/>
			<path fill="#939598" d="M125.959,447.88c0.452,0,0.618-0.251,0.618-0.624c0-0.186-0.036-0.344-0.131-0.536h0.475
				c0.1,0.192,0.158,0.401,0.158,0.665c0,0.595-0.294,1.047-1.048,1.047h-2.236v0.517h-0.488v-0.517h-1.117v-0.552h1.117v-1.175
				h0.488v1.175H125.959z"/>
		</g>
		<g>
			<path fill="#939598" d="M152.733,282.425l-1.455-1.95h-1.434v1.95h-0.565v-5.017h2.156c1.104,0,1.813,0.595,1.813,1.498
				c0,0.839-0.574,1.325-1.361,1.469l1.541,2.051L152.733,282.425L152.733,282.425z M151.394,277.931h-1.549v2.036h1.541
				c0.752,0,1.292-0.388,1.292-1.04C152.678,278.304,152.204,277.931,151.394,277.931z"/>
			<path fill="#939598" d="M155.928,282.03c0.51,0,0.867-0.208,1.168-0.523l0.346,0.308c-0.372,0.416-0.826,0.696-1.527,0.696
				c-1.018,0-1.85-0.782-1.85-1.936c0-1.075,0.752-1.936,1.777-1.936c1.097,0,1.727,0.874,1.727,1.964c0,0.051,0,0.107-0.008,0.171
				h-2.938C154.702,281.579,155.276,282.03,155.928,282.03z M157.01,280.367c-0.057-0.673-0.444-1.261-1.182-1.261
				c-0.646,0-1.132,0.537-1.204,1.261H157.01z"/>
			<path fill="#939598" d="M160.463,278.733v0.475h-1.169v3.218h-0.552v-3.218h-0.51v-0.481h0.51v-0.322
				c0-0.81,0.407-1.239,1.117-1.239c0.26,0,0.432,0.028,0.61,0.092v0.482c-0.2-0.059-0.351-0.094-0.536-0.094
				c-0.43,0-0.646,0.258-0.646,0.788v0.301L160.463,278.733L160.463,278.733z"/>
		</g>
		<g>
			<path fill="#939598" d="M195.684,205.243h-1.742v-5.019h1.742c1.577,0,2.665,1.083,2.665,2.502
				C198.349,204.145,197.261,205.243,195.684,205.243z M195.684,200.748h-1.175v3.971h1.175c1.269,0,2.078-0.859,2.078-1.979
				C197.762,201.622,196.952,200.748,195.684,200.748z"/>
			<path fill="#939598" d="M202.325,200.211h0.467l1.377,4.192l1.432-4.179h0.596l-1.793,5.054h-0.479l-1.376-4.072l-1.385,4.072
				h-0.474l-1.792-5.054h0.617l1.433,4.179L202.325,200.211z"/>
		</g>
		<g>
			<path fill="#939598" d="M178.612,461.369h-3.06v1.713h2.738v0.518h-2.738v1.756h3.096v0.516h-3.664v-5.017h3.628V461.369z"/>
			<path fill="#939598" d="M180.245,465.87h-0.553v-3.706h0.553v0.646c0.242-0.401,0.63-0.724,1.268-0.724
				c0.896,0,1.419,0.603,1.419,1.483v2.301h-0.551v-2.165c0-0.687-0.373-1.118-1.024-1.118c-0.639,0-1.111,0.466-1.111,1.161V465.87
				L180.245,465.87z"/>
			<path fill="#939598" d="M184.851,464.816c0,0.452,0.25,0.618,0.624,0.618c0.187,0,0.344-0.036,0.537-0.131v0.475
				c-0.193,0.1-0.403,0.157-0.667,0.157c-0.594,0-1.046-0.295-1.046-1.047v-2.236h-0.516v-0.488h0.516v-1.118h0.552v1.118h1.176
				v0.488h-1.176V464.816L184.851,464.816z"/>
			<path fill="#939598" d="M187.552,465.87H187v-3.706h0.552v0.968c0.273-0.616,0.811-1.061,1.513-1.032v0.595h-0.042
				c-0.812,0-1.471,0.58-1.471,1.699V465.87z"/>
			<path fill="#939598" d="M191.707,465.992c-0.316,0.767-0.674,1.046-1.233,1.046c-0.308,0-0.537-0.064-0.788-0.187l0.187-0.438
				c0.18,0.094,0.344,0.137,0.58,0.137c0.329,0,0.537-0.172,0.76-0.695l-1.684-3.691h0.609l1.348,3.09l1.189-3.09h0.587
				L191.707,465.992z"/>
		</g>
		<g>
			<path fill="#939598" d="M176.238,292.793v0.975h1.415v0.451h-4.012v-1.501c0-0.905,0.481-1.502,1.278-1.502
				C175.79,291.217,176.238,291.939,176.238,292.793z M174.059,292.753v1.015h1.767v-0.991c0-0.665-0.355-1.102-0.889-1.102
				C174.357,291.675,174.059,292.105,174.059,292.753z"/>
			<path fill="#939598" d="M175.257,290.468l-0.36,0.132c-0.149-0.327-0.248-0.647-0.248-1.079c0-0.807,0.413-1.26,1.193-1.26h1.812
				v0.424h-0.448c0.271,0.206,0.51,0.55,0.51,1.071c0,0.552-0.31,1.107-0.928,1.107c-0.63,0-0.962-0.516-0.962-1.267
				c0-0.379,0.051-0.647,0.126-0.912h-0.103c-0.534,0-0.81,0.326-0.81,0.884C175.039,289.918,175.132,290.191,175.257,290.468z
				 M176.771,290.415c0.377,0,0.596-0.344,0.596-0.745c0-0.545-0.332-0.991-0.804-0.991h-0.285
				c-0.062,0.218-0.126,0.509-0.126,0.871C176.152,290.105,176.392,290.415,176.771,290.415z"/>
			<path fill="#939598" d="M177.653,287.051v0.442h-2.965v-0.442h0.516c-0.319-0.193-0.577-0.503-0.577-1.013
				c0-0.718,0.481-1.136,1.187-1.136h1.84v0.441h-1.731c-0.55,0-0.894,0.299-0.894,0.82c0,0.51,0.372,0.89,0.929,0.89h1.696V287.051
				z"/>
			<path fill="#939598" d="M176.811,283.537c0.36,0,0.493-0.2,0.493-0.497c0-0.15-0.028-0.276-0.104-0.432h0.378
				c0.081,0.155,0.127,0.321,0.127,0.533c0,0.477-0.234,0.837-0.837,0.837h-1.789v0.412h-0.39v-0.412h-0.893v-0.442h0.893v-0.939
				h0.39v0.939L176.811,283.537L176.811,283.537z"/>
			<path fill="#939598" d="M177.653,281.55v0.44h-2.965v-0.44h0.774c-0.492-0.218-0.847-0.648-0.824-1.209h0.476v0.032
				c0,0.648,0.464,1.176,1.357,1.176L177.653,281.55L177.653,281.55z"/>
			<path fill="#939598" d="M177.751,278.398c0.613,0.251,0.837,0.538,0.837,0.985c0,0.246-0.054,0.43-0.149,0.63l-0.351-0.149
				c0.074-0.145,0.108-0.276,0.108-0.465c0-0.264-0.138-0.43-0.556-0.607l-2.952,1.347v-0.487l2.471-1.077l-2.471-0.952v-0.471
				L177.751,278.398z"/>
		</g>
		<g>
			<path fill="#939598" d="M137.495,0.634c-0.752,0-1.234-0.372-1.549-0.888l0.409-0.351c0.308,0.466,0.622,0.716,1.146,0.716
				c0.567,0,0.982-0.408,0.982-1.203v-3.363h0.573V-1.1C139.057,0.054,138.39,0.634,137.495,0.634z"/>
			<path fill="#939598" d="M142.933-3.143h0.544v3.706h-0.544v-0.645c-0.251,0.401-0.631,0.725-1.269,0.725
				c-0.896,0-1.419-0.602-1.419-1.484v-2.302h0.552v2.165c0,0.688,0.372,1.119,1.024,1.119c0.63,0,1.111-0.466,1.111-1.162V-3.143
				L142.933-3.143z"/>
			<path fill="#939598" d="M144.764,0.563V-4.67h0.552v5.233H144.764z"/>
			<path fill="#939598" d="M146.613-3.954v-0.609h0.631v0.609H146.613z M146.649,0.563v-3.706h0.552v3.706H146.649z"/>
			<path fill="#939598" d="M150.117,0.168c0.509,0,0.867-0.208,1.169-0.523l0.344,0.309c-0.372,0.415-0.825,0.695-1.525,0.695
				c-1.019,0-1.851-0.781-1.851-1.936c0-1.075,0.752-1.935,1.777-1.935c1.096,0,1.728,0.874,1.728,1.964c0,0.05,0,0.107-0.007,0.172
				h-2.938C148.892-0.283,149.465,0.168,150.117,0.168z M151.198-1.495c-0.058-0.673-0.444-1.261-1.182-1.261
				c-0.645,0-1.133,0.537-1.205,1.261H151.198z"/>
			<path fill="#939598" d="M153.469-0.491c0,0.451,0.25,0.617,0.624,0.617c0.186,0,0.344-0.036,0.537-0.129V0.47
				c-0.193,0.101-0.403,0.158-0.667,0.158c-0.594,0-1.046-0.294-1.046-1.046v-2.237H152.4v-0.487h0.517v-1.119h0.552v1.118h1.176
				v0.488h-1.176V-0.491z"/>
			<path fill="#939598" d="M161.63-3.2c0,0.659-0.401,0.996-0.795,1.168c0.596,0.179,1.076,0.523,1.076,1.218
				c0,0.868-0.725,1.376-1.82,1.376h-2.23v-5.018h2.137C160.984-4.455,161.63-3.968,161.63-3.2z M161.057-3.122
				c0-0.501-0.394-0.824-1.111-0.824h-1.526v1.728h1.482C160.583-2.219,161.057-2.527,161.057-3.122z M161.337-0.85
				c0-0.551-0.458-0.866-1.333-0.866h-1.585v1.77h1.685C160.863,0.054,161.337-0.283,161.337-0.85z"/>
			<path fill="#939598" d="M163.154-2.434l-0.165-0.452c0.408-0.186,0.81-0.308,1.348-0.308c1.01,0,1.577,0.516,1.577,1.491v2.265
				h-0.532v-0.56c-0.258,0.336-0.688,0.639-1.34,0.639c-0.688,0-1.385-0.387-1.385-1.161c0-0.79,0.646-1.205,1.586-1.205
				c0.472,0,0.81,0.064,1.138,0.158v-0.128c0-0.667-0.408-1.011-1.103-1.011C163.842-2.706,163.499-2.591,163.154-2.434z
				 M163.22-0.541c0,0.473,0.43,0.746,0.932,0.746c0.682,0,1.238-0.416,1.238-1.003v-0.359c-0.271-0.079-0.637-0.157-1.088-0.157
				C163.605-1.315,163.22-1.014,163.22-0.541z"/>
			<path fill="#939598" d="M167.137,0.563V-4.67h0.552v5.233H167.137z"/>
			<path fill="#939598" d="M170.642,0.649c-1.084,0-1.9-0.881-1.9-1.928c0-1.054,0.817-1.942,1.9-1.942
				c0.702,0,1.139,0.293,1.482,0.659l-0.364,0.387c-0.294-0.308-0.624-0.559-1.126-0.559c-0.752,0-1.326,0.638-1.326,1.44
				c0,0.811,0.587,1.448,1.36,1.448c0.475,0,0.84-0.236,1.134-0.551l0.351,0.329C171.78,0.348,171.336,0.649,170.642,0.649z"/>
			<path fill="#939598" d="M174.647,0.649c-1.111,0-1.922-0.874-1.922-1.928c0-1.054,0.817-1.942,1.937-1.942
				c1.11,0,1.928,0.874,1.928,1.928C176.589-0.241,175.765,0.649,174.647,0.649z M174.647-2.734c-0.805,0-1.355,0.638-1.355,1.44
				s0.587,1.448,1.37,1.448c0.802,0,1.36-0.638,1.36-1.433C176.022-2.09,175.428-2.734,174.647-2.734z"/>
			<path fill="#939598" d="M178.135,0.563h-0.552v-3.706h0.552v0.645c0.243-0.401,0.631-0.724,1.269-0.724
				c0.896,0,1.42,0.602,1.42,1.484v2.3h-0.552v-2.166c0-0.688-0.373-1.118-1.025-1.118c-0.638,0-1.111,0.466-1.111,1.161V0.563
				L178.135,0.563z"/>
			<path fill="#939598" d="M183.693,0.685c-0.313,0.768-0.673,1.046-1.231,1.046c-0.31,0-0.537-0.064-0.789-0.186l0.186-0.437
				c0.181,0.093,0.346,0.136,0.582,0.136c0.329,0,0.537-0.172,0.76-0.696l-1.686-3.691h0.61l1.347,3.089l1.191-3.089h0.587
				L183.693,0.685z"/>
		</g>
		<g>
			<path fill="#939598" d="M149.372,320.745v-0.565h4.494v-2.824h0.524v3.39H149.372L149.372,320.745z"/>
			<path fill="#939598" d="M149.873,316.391h-0.609v-0.63h0.609V316.391z M154.391,316.354h-3.706v-0.551h3.706V316.354z"/>
			<path fill="#939598" d="M154.391,313.968v0.552h-3.706v-0.552h0.646c-0.402-0.243-0.726-0.63-0.726-1.268
				c0-0.896,0.604-1.42,1.485-1.42h2.301v0.552h-2.165c-0.688,0-1.119,0.373-1.119,1.025c0,0.638,0.466,1.11,1.161,1.11H154.391z"/>
			<path fill="#939598" d="M153.996,308.474c0-0.508-0.207-0.868-0.524-1.169l0.309-0.345c0.415,0.373,0.696,0.825,0.696,1.527
				c0,1.017-0.782,1.849-1.936,1.849c-1.075,0-1.937-0.752-1.937-1.776c0-1.096,0.874-1.728,1.963-1.728
				c0.053,0,0.108,0,0.173,0.008v2.938C153.543,309.699,153.996,309.125,153.996,308.474z M152.333,307.392
				c-0.673,0.058-1.263,0.444-1.263,1.183c0,0.646,0.538,1.132,1.263,1.204V307.392z"/>
			<path fill="#939598" d="M154.391,305.314v0.552h-3.706v-0.552h0.646c-0.402-0.243-0.726-0.63-0.726-1.269
				c0-0.896,0.604-1.42,1.485-1.42h2.301v0.552h-2.165c-0.688,0-1.119,0.373-1.119,1.025c0,0.638,0.466,1.111,1.161,1.111H154.391z"
				/>
		</g>
		<g>
			<path fill="#939598" d="M22.651,352.273c-1.448,0-2.516-1.14-2.516-2.588c0-1.432,1.062-2.601,2.537-2.601
				c0.909,0,1.455,0.321,1.956,0.795l-0.386,0.416c-0.423-0.402-0.896-0.689-1.577-0.689c-1.11,0-1.942,0.896-1.942,2.065
				c0,1.168,0.838,2.079,1.942,2.079c0.688,0,1.14-0.267,1.619-0.725l0.373,0.364C24.135,351.923,23.561,352.273,22.651,352.273z"/>
			<path fill="#939598" d="M25.602,352.188v-5.232h0.552v5.232H25.602z"/>
			<path fill="#939598" d="M29.126,352.273c-1.11,0-1.921-0.875-1.921-1.928c0-1.055,0.816-1.943,1.936-1.943
				c1.11,0,1.928,0.875,1.928,1.928C31.069,351.385,30.245,352.273,29.126,352.273z M29.126,348.892
				c-0.803,0-1.355,0.637-1.355,1.438c0,0.804,0.589,1.448,1.37,1.448c0.803,0,1.362-0.637,1.362-1.432
				C30.503,349.535,29.908,348.892,29.126,348.892z"/>
			<path fill="#939598" d="M33.288,352.26c-0.53,0-1.118-0.207-1.534-0.544l0.279-0.396c0.401,0.302,0.846,0.475,1.282,0.475
				c0.445,0,0.768-0.231,0.768-0.589v-0.015c0-0.372-0.437-0.516-0.924-0.653c-0.58-0.164-1.226-0.363-1.226-1.045v-0.016
				c0-0.638,0.531-1.06,1.262-1.06c0.451,0,0.953,0.156,1.333,0.407l-0.252,0.416c-0.344-0.223-0.737-0.358-1.096-0.358
				c-0.437,0-0.716,0.229-0.716,0.537v0.015c0,0.35,0.458,0.488,0.952,0.637c0.574,0.172,1.19,0.396,1.19,1.062v0.015
				C34.607,351.851,34.026,352.26,33.288,352.26z"/>
			<path fill="#939598" d="M37.264,351.794c0.509,0,0.867-0.208,1.169-0.525l0.344,0.31c-0.372,0.414-0.823,0.695-1.526,0.695
				c-1.019,0-1.85-0.782-1.85-1.937c0-1.075,0.752-1.936,1.777-1.936c1.097,0,1.728,0.875,1.728,1.964c0,0.052,0,0.108-0.007,0.172
				h-2.939C36.039,351.342,36.612,351.794,37.264,351.794z M38.347,350.131c-0.057-0.674-0.445-1.263-1.183-1.263
				c-0.645,0-1.132,0.538-1.205,1.263H38.347z"/>
			<path fill="#939598" d="M40.617,351.134c0,0.452,0.25,0.618,0.623,0.618c0.187,0,0.344-0.036,0.537-0.13v0.474
				c-0.193,0.1-0.402,0.157-0.666,0.157c-0.596,0-1.046-0.295-1.046-1.047v-2.236H39.55v-0.488h0.516v-1.118h0.552v1.118h1.175
				v0.488h-1.175V351.134z"/>
		</g>
		<g>
			<path fill="#939598" d="M74.589,342.551c-1.448,0-2.516-1.14-2.516-2.587c0-1.433,1.062-2.602,2.537-2.602
				c0.91,0,1.455,0.321,1.957,0.795l-0.387,0.416c-0.423-0.402-0.896-0.689-1.577-0.689c-1.11,0-1.942,0.896-1.942,2.066
				c0,1.168,0.838,2.078,1.942,2.078c0.688,0,1.14-0.267,1.62-0.725l0.372,0.364C76.073,342.2,75.499,342.551,74.589,342.551z"/>
			<path fill="#939598" d="M77.539,342.465v-5.231h0.552v5.231H77.539z"/>
			<path fill="#939598" d="M81.064,342.551c-1.11,0-1.921-0.874-1.921-1.928c0-1.055,0.816-1.942,1.935-1.942
				c1.11,0,1.929,0.874,1.929,1.928C83.008,341.662,82.183,342.551,81.064,342.551z M81.064,339.169
				c-0.803,0-1.355,0.637-1.355,1.439s0.589,1.448,1.369,1.448c0.804,0,1.362-0.638,1.362-1.433
				C82.44,339.812,81.846,339.169,81.064,339.169z"/>
			<path fill="#939598" d="M85.227,342.537c-0.53,0-1.119-0.207-1.534-0.544l0.279-0.396c0.401,0.302,0.846,0.475,1.282,0.475
				c0.445,0,0.768-0.231,0.768-0.589v-0.015c0-0.372-0.438-0.516-0.924-0.653c-0.58-0.163-1.227-0.363-1.227-1.045v-0.015
				c0-0.638,0.531-1.061,1.262-1.061c0.451,0,0.953,0.157,1.334,0.407l-0.252,0.416c-0.344-0.223-0.737-0.358-1.097-0.358
				c-0.437,0-0.716,0.229-0.716,0.537v0.015c0,0.351,0.458,0.488,0.952,0.638c0.574,0.172,1.191,0.395,1.191,1.062v0.014
				C86.546,342.128,85.964,342.537,85.227,342.537z"/>
			<path fill="#939598" d="M89.202,342.071c0.509,0,0.866-0.208,1.169-0.524l0.343,0.309c-0.372,0.415-0.823,0.695-1.526,0.695
				c-1.018,0-1.85-0.782-1.85-1.936c0-1.075,0.753-1.936,1.778-1.936c1.096,0,1.728,0.874,1.728,1.963c0,0.052,0,0.108-0.008,0.173
				h-2.938C87.977,341.62,88.55,342.071,89.202,342.071z M90.285,340.408c-0.058-0.674-0.445-1.263-1.184-1.263
				c-0.645,0-1.132,0.538-1.204,1.263H90.285z"/>
			<path fill="#939598" d="M92.555,341.411c0,0.452,0.251,0.618,0.623,0.618c0.187,0,0.344-0.036,0.537-0.13v0.474
				c-0.193,0.1-0.402,0.157-0.666,0.157c-0.596,0-1.046-0.294-1.046-1.047v-2.236h-0.516v-0.488h0.516v-1.118h0.552v1.118h1.175
				v0.488h-1.175V341.411z"/>
		</g>
		<g>
			<path fill="#939598" d="M39.502,254.305c0,0.848-0.516,1.281-1.022,1.503c0.765,0.229,1.382,0.672,1.382,1.564
				c0,1.115-0.93,1.771-2.34,1.771h-2.866v-6.449h2.746C38.674,252.691,39.502,253.319,39.502,254.305z M38.766,254.406
				c0-0.646-0.507-1.061-1.429-1.061h-1.962v2.221h1.907C38.157,255.566,38.766,255.17,38.766,254.406z M39.125,257.326
				c0-0.709-0.59-1.115-1.714-1.115h-2.036v2.276h2.165C38.517,258.487,39.125,258.055,39.125,257.326z"/>
			<path fill="#939598" d="M43.288,258.635c0.654,0,1.114-0.267,1.501-0.673l0.442,0.396c-0.479,0.535-1.06,0.896-1.962,0.896
				c-1.308,0-2.377-1.004-2.377-2.488c0-1.383,0.967-2.488,2.285-2.488c1.409,0,2.22,1.124,2.22,2.524c0,0.064,0,0.139-0.01,0.222
				H41.61C41.712,258.055,42.449,258.635,43.288,258.635z M44.679,256.497c-0.073-0.865-0.571-1.621-1.52-1.621
				c-0.83,0-1.455,0.69-1.549,1.621H44.679z"/>
			<path fill="#939598" d="M50.463,259.142v-0.96c-0.387,0.572-0.948,1.06-1.823,1.06c-1.144,0-2.276-0.902-2.276-2.478
				c0-1.567,1.133-2.487,2.276-2.487c0.884,0,1.455,0.479,1.823,1.014v-2.877h0.71v6.727h-0.71V259.142z M48.769,254.912
				c-0.921,0-1.678,0.682-1.678,1.843c0,1.134,0.774,1.852,1.678,1.852c0.884,0,1.724-0.736,1.724-1.852
				C50.491,255.649,49.652,254.912,48.769,254.912z"/>
			<path fill="#939598" d="M53.465,259.142h-0.709v-4.764h0.709v1.244c0.35-0.792,1.041-1.364,1.943-1.327v0.765h-0.055
				c-1.042,0-1.89,0.746-1.89,2.184L53.465,259.142L53.465,259.142z"/>
			<path fill="#939598" d="M58.457,259.253c-1.428,0-2.47-1.125-2.47-2.479c0-1.354,1.05-2.495,2.488-2.495
				c1.429,0,2.479,1.123,2.479,2.478S59.895,259.253,58.457,259.253z M58.457,254.904c-1.031,0-1.741,0.819-1.741,1.852
				s0.756,1.862,1.76,1.862c1.031,0,1.75-0.822,1.75-1.845C60.227,255.732,59.462,254.904,58.457,254.904z"/>
			<path fill="#939598" d="M64.407,259.253c-1.428,0-2.47-1.125-2.47-2.479c0-1.354,1.05-2.495,2.487-2.495
				c1.429,0,2.479,1.123,2.479,2.478S65.845,259.253,64.407,259.253z M64.407,254.904c-1.032,0-1.741,0.819-1.741,1.852
				s0.755,1.862,1.759,1.862c1.032,0,1.75-0.822,1.75-1.845C66.177,255.732,65.412,254.904,64.407,254.904z"/>
			<path fill="#939598" d="M73.637,254.276c1.097,0,1.77,0.737,1.77,1.917v2.948h-0.709v-2.782c0-0.922-0.46-1.438-1.235-1.438
				c-0.718,0-1.318,0.534-1.318,1.473v2.747h-0.699v-2.801c0-0.895-0.47-1.419-1.226-1.419c-0.755,0-1.326,0.626-1.326,1.501v2.719
				h-0.709v-4.764h0.709v0.802c0.313-0.47,0.736-0.903,1.538-0.903c0.773,0,1.271,0.414,1.53,0.949
				C72.302,254.7,72.809,254.276,73.637,254.276z"/>
			<path fill="#939598" d="M43.725,270.511c-0.838,0-1.446-0.342-1.989-0.792l0.424-0.562c0.525,0.459,1.014,0.691,1.584,0.691
				c1.161,0,1.943-1.18,1.917-2.828c-0.35,0.562-0.93,1.031-1.824,1.031c-1.327,0-2.248-0.839-2.248-2.009
				c0-1.235,0.949-2.202,2.322-2.202c0.737,0,1.28,0.249,1.695,0.663c0.506,0.507,0.801,1.208,0.801,2.505
				C46.406,269.063,45.319,270.511,43.725,270.511z M43.882,264.484c-0.968,0-1.548,0.708-1.548,1.52
				c0,0.829,0.645,1.419,1.585,1.419c0.985,0,1.603-0.719,1.603-1.465C45.522,265.129,44.849,264.484,43.882,264.484z"/>
			<path fill="#939598" d="M47.843,263.948h0.865v0.047l-0.746,2.46h-0.396L47.843,263.948z"/>
			<path fill="#939598" d="M56.915,270.398h-0.82l-1.474-1.943l-1.482,1.943h-0.792l1.87-2.423l-1.796-2.34h0.811l1.409,1.843
				l1.409-1.843h0.792l-1.806,2.322L56.915,270.398z"/>
			<path fill="#939598" d="M61.87,263.905h0.534v6.495h-0.719v-5.74l-1.216,0.378l-0.176-0.591L61.87,263.905z"/>
			<path fill="#939598" d="M65.166,263.905H65.7v6.495h-0.719v-5.74l-1.215,0.378l-0.175-0.59L65.166,263.905z"/>
			<path fill="#939598" d="M67.506,263.948h0.865v0.047l-0.746,2.46h-0.396L67.506,263.948z"/>
		</g>
		<g>
			<path fill="#939598" d="M58.938,67.01h0.728v5.777h3.631v0.672h-4.358V67.01z"/>
			<path fill="#939598" d="M64.538,67.655v-0.783h0.811v0.783H64.538z M64.584,73.46v-4.763h0.709v4.763H64.584z"/>
			<path fill="#939598" d="M70.471,68.696h0.765l-2.073,4.8h-0.627l-2.064-4.8h0.783l1.603,3.953L70.471,68.696z"/>
			<path fill="#939598" d="M72.366,67.655v-0.783h0.811v0.783H72.366z M72.413,73.46v-4.763h0.709v4.763H72.413z"/>
			<path fill="#939598" d="M75.479,73.46h-0.709v-4.763h0.709v0.829c0.313-0.516,0.811-0.93,1.631-0.93
				c1.151,0,1.825,0.774,1.825,1.908v2.958h-0.709v-2.783c0-0.884-0.479-1.437-1.318-1.437c-0.82,0-1.429,0.599-1.429,1.492V73.46z"
				/>
			<path fill="#939598" d="M82.554,74.952c-0.792,0-1.529-0.221-2.165-0.663l0.322-0.553c0.544,0.396,1.151,0.608,1.834,0.608
				c1.05,0,1.731-0.58,1.731-1.695v-0.562c-0.414,0.553-0.995,1.004-1.87,1.004c-1.143,0-2.239-0.847-2.239-2.239
				c0-1.399,1.104-2.258,2.239-2.258c0.894,0,1.473,0.442,1.86,0.958v-0.856h0.709v3.934C84.977,74.169,84.019,74.952,82.554,74.952
				z M82.545,69.222c-0.902,0-1.649,0.617-1.649,1.612c0,0.977,0.766,1.631,1.649,1.631c0.902,0,1.75-0.645,1.75-1.621
				C84.295,69.857,83.447,69.222,82.545,69.222z"/>
			<path fill="#939598" d="M90.503,66.108l-4.274,8.531h-0.654l4.274-8.531H90.503z"/>
			<path fill="#939598" d="M93.598,73.46h-2.239v-6.45h2.239c2.026,0,3.427,1.391,3.427,3.216
				C97.024,72.049,95.624,73.46,93.598,73.46z M93.598,67.683h-1.512v5.104h1.512c1.63,0,2.672-1.105,2.672-2.543
				C96.27,68.806,95.228,67.683,93.598,67.683z"/>
			<path fill="#939598" d="M98.46,67.655v-0.783h0.811v0.783H98.46z M98.506,73.46v-4.763h0.709v4.763H98.506z"/>
			<path fill="#939598" d="M101.573,73.46h-0.71v-4.763h0.71v0.829c0.312-0.516,0.811-0.93,1.63-0.93
				c1.151,0,1.825,0.774,1.825,1.908v2.958h-0.71v-2.783c0-0.884-0.479-1.437-1.317-1.437c-0.82,0-1.428,0.599-1.428,1.492V73.46z"
				/>
			<path fill="#939598" d="M106.556,67.655v-0.783h0.811v0.783H106.556z M106.603,73.46v-4.763h0.709v4.763H106.603z"/>
			<path fill="#939598" d="M109.669,73.46h-0.709v-4.763h0.709v0.829c0.313-0.516,0.811-0.93,1.631-0.93
				c1.152,0,1.825,0.774,1.825,1.908v2.958h-0.71v-2.783c0-0.884-0.479-1.437-1.318-1.437c-0.819,0-1.428,0.599-1.428,1.492V73.46z"
				/>
			<path fill="#939598" d="M116.742,74.952c-0.791,0-1.528-0.221-2.164-0.663l0.321-0.553c0.544,0.396,1.151,0.608,1.835,0.608
				c1.05,0,1.731-0.58,1.731-1.695v-0.562c-0.414,0.553-0.995,1.004-1.871,1.004c-1.142,0-2.238-0.847-2.238-2.239
				c0-1.399,1.104-2.258,2.238-2.258c0.895,0,1.473,0.442,1.861,0.958v-0.856h0.709v3.934
				C119.167,74.169,118.209,74.952,116.742,74.952z M116.734,69.222c-0.903,0-1.649,0.617-1.649,1.612
				c0,0.977,0.766,1.631,1.649,1.631c0.903,0,1.751-0.645,1.751-1.621C118.485,69.857,117.636,69.222,116.734,69.222z"/>
			<path fill="#939598" d="M128.074,73.46l-1.871-2.506h-1.843v2.506h-0.728v-6.45h2.772c1.419,0,2.331,0.765,2.331,1.925
				c0,1.078-0.738,1.705-1.751,1.89l1.98,2.635H128.074z M126.35,67.683h-1.989v2.616h1.98c0.968,0,1.659-0.497,1.659-1.336
				C127.998,68.162,127.393,67.683,126.35,67.683z"/>
			<path fill="#939598" d="M132.254,73.571c-1.429,0-2.469-1.124-2.469-2.478c0-1.355,1.049-2.498,2.488-2.498
				c1.429,0,2.478,1.124,2.478,2.479C134.75,72.427,133.69,73.571,132.254,73.571z M132.254,69.222
				c-1.032,0-1.741,0.819-1.741,1.853c0,1.032,0.756,1.86,1.761,1.86c1.031,0,1.75-0.82,1.75-1.842
				C134.022,70.051,133.258,69.222,132.254,69.222z"/>
			<path fill="#939598" d="M138.204,73.571c-1.429,0-2.47-1.124-2.47-2.478c0-1.355,1.051-2.498,2.487-2.498
				c1.43,0,2.479,1.124,2.479,2.479C140.7,72.427,139.642,73.571,138.204,73.571z M138.204,69.222c-1.033,0-1.742,0.819-1.742,1.853
				c0,1.032,0.756,1.86,1.76,1.86c1.034,0,1.751-0.82,1.751-1.842C139.973,70.051,139.209,69.222,138.204,69.222z"/>
			<path fill="#939598" d="M147.435,68.594c1.096,0,1.769,0.737,1.769,1.917v2.949h-0.709v-2.783c0-0.921-0.46-1.437-1.233-1.437
				c-0.72,0-1.317,0.534-1.317,1.474v2.746h-0.701v-2.801c0-0.894-0.47-1.418-1.226-1.418s-1.327,0.626-1.327,1.501v2.718h-0.708
				v-4.763h0.708v0.802c0.313-0.47,0.737-0.903,1.539-0.903c0.773,0,1.271,0.415,1.529,0.949
				C146.098,69.018,146.604,68.594,147.435,68.594z"/>
			<path fill="#939598" d="M75.995,79.935l-0.534-0.387c0.58-0.866,1.189-1.373,2.322-1.373c1.17,0,2,0.774,2,1.834
				c0,0.95-0.498,1.53-1.632,2.516l-1.724,1.529h3.419v0.663h-4.506v-0.562l2.341-2.064c0.985-0.884,1.345-1.381,1.345-2.026
				c0-0.755-0.599-1.235-1.3-1.235C76.991,78.83,76.511,79.217,75.995,79.935z"/>
			<path fill="#939598" d="M81.513,79.935l-0.534-0.387c0.58-0.866,1.189-1.373,2.321-1.373c1.171,0,2,0.774,2,1.834
				c0,0.95-0.497,1.53-1.63,2.516l-1.724,1.529h3.418v0.663h-4.505v-0.562L83.2,82.09c0.985-0.884,1.345-1.381,1.345-2.026
				c0-0.755-0.599-1.235-1.299-1.235C82.508,78.83,82.029,79.217,81.513,79.935z"/>
			<path fill="#939598" d="M86.809,78.268h0.865v0.045l-0.745,2.461h-0.396L86.809,78.268z"/>
			<path fill="#939598" d="M90.908,84.828c-0.838,0-1.447-0.341-1.991-0.792l0.426-0.562c0.524,0.461,1.013,0.691,1.584,0.691
				c1.16,0,1.943-1.18,1.917-2.829c-0.351,0.562-0.931,1.031-1.825,1.031c-1.326,0-2.248-0.838-2.248-2.007
				c0-1.235,0.949-2.203,2.321-2.203c0.737,0,1.28,0.249,1.695,0.663c0.506,0.507,0.801,1.207,0.801,2.507
				C93.588,83.382,92.501,84.828,90.908,84.828z M91.064,78.802c-0.967,0-1.547,0.709-1.547,1.52c0,0.83,0.645,1.419,1.584,1.419
				c0.985,0,1.603-0.719,1.603-1.466C92.704,79.447,92.031,78.802,91.064,78.802z"/>
			<path fill="#939598" d="M95.024,78.268h0.856v0.045l-0.746,2.461h-0.387L95.024,78.268z M96.829,78.268h0.849v0.045l-0.746,2.461
				h-0.387L96.829,78.268z"/>
			<path fill="#939598" d="M105.894,84.718h-0.819l-1.474-1.943l-1.484,1.943h-0.792l1.871-2.424l-1.796-2.34h0.811l1.409,1.842
				l1.409-1.842h0.792l-1.807,2.322L105.894,84.718z"/>
			<path fill="#939598" d="M109.816,78.922v-0.654h4.118v0.534l-2.027,2.249c1.134,0.092,2.129,0.635,2.129,1.823
				c0,1.162-0.959,1.954-2.155,1.954c-1.079,0-1.881-0.47-2.405-1.151l0.524-0.47c0.498,0.607,1.097,0.959,1.891,0.959
				c0.783,0,1.409-0.498,1.409-1.262c0-0.811-0.737-1.254-1.806-1.254h-0.414l-0.148-0.434l2.036-2.294L109.816,78.922
				L109.816,78.922z"/>
			<path fill="#939598" d="M115.757,79.935l-0.533-0.387c0.58-0.866,1.189-1.373,2.322-1.373c1.17,0,1.999,0.774,1.999,1.834
				c0,0.95-0.498,1.53-1.631,2.516l-1.724,1.529h3.42v0.663h-4.506v-0.562l2.34-2.064c0.986-0.884,1.345-1.381,1.345-2.026
				c0-0.755-0.6-1.235-1.3-1.235C116.753,78.83,116.272,79.217,115.757,79.935z"/>
			<path fill="#939598" d="M121.052,78.268h0.868v0.045l-0.746,2.461h-0.396L121.052,78.268z"/>
			<path fill="#939598" d="M125.724,84.828c-1.667,0-2.717-1.511-2.717-3.326c0-1.814,1.067-3.345,2.736-3.345
				c1.657,0,2.707,1.512,2.707,3.326S127.382,84.828,125.724,84.828z M125.724,78.82c-1.207,0-1.962,1.235-1.962,2.663
				c0,1.429,0.774,2.682,1.981,2.682s1.953-1.244,1.953-2.663C127.696,80.082,126.931,78.82,125.724,78.82z"/>
			<path fill="#939598" d="M129.896,78.268h0.857v0.045l-0.746,2.461h-0.388L129.896,78.268z M131.702,78.268h0.848v0.045
				l-0.746,2.461h-0.388L131.702,78.268z"/>
		</g>
		<g>
			<path fill="#939598" d="M39.502,421.119c0,0.848-0.516,1.281-1.022,1.503c0.765,0.23,1.382,0.672,1.382,1.565
				c0,1.114-0.93,1.77-2.34,1.77h-2.866v-6.449h2.746C38.674,419.507,39.502,420.134,39.502,421.119z M38.766,421.221
				c0-0.646-0.507-1.06-1.429-1.06h-1.962v2.221h1.907C38.157,422.382,38.766,421.985,38.766,421.221z M39.125,424.142
				c0-0.709-0.59-1.115-1.714-1.115h-2.036v2.275h2.165C38.517,425.302,39.125,424.869,39.125,424.142z"/>
			<path fill="#939598" d="M43.288,425.45c0.654,0,1.114-0.268,1.501-0.673l0.442,0.396c-0.479,0.534-1.06,0.895-1.962,0.895
				c-1.308,0-2.377-1.003-2.377-2.487c0-1.382,0.967-2.487,2.285-2.487c1.409,0,2.22,1.123,2.22,2.523c0,0.063,0,0.139-0.01,0.222
				H41.61C41.712,424.869,42.449,425.45,43.288,425.45z M44.679,423.312c-0.073-0.866-0.571-1.621-1.52-1.621
				c-0.83,0-1.455,0.691-1.549,1.621H44.679z"/>
			<path fill="#939598" d="M50.463,425.956v-0.959c-0.387,0.572-0.948,1.06-1.823,1.06c-1.144,0-2.276-0.902-2.276-2.478
				c0-1.567,1.133-2.488,2.276-2.488c0.884,0,1.455,0.479,1.823,1.013v-2.875h0.71v6.726h-0.71V425.956z M48.769,421.728
				c-0.921,0-1.678,0.682-1.678,1.843c0,1.132,0.774,1.852,1.678,1.852c0.884,0,1.724-0.736,1.724-1.852
				C50.491,422.465,49.652,421.728,48.769,421.728z"/>
			<path fill="#939598" d="M53.465,425.956h-0.709v-4.763h0.709v1.243c0.35-0.79,1.041-1.363,1.943-1.326v0.765h-0.055
				c-1.042,0-1.89,0.746-1.89,2.184L53.465,425.956L53.465,425.956z"/>
			<path fill="#939598" d="M58.457,426.067c-1.428,0-2.47-1.124-2.47-2.479c0-1.354,1.05-2.495,2.488-2.495
				c1.429,0,2.479,1.123,2.479,2.477C60.954,424.925,59.895,426.067,58.457,426.067z M58.457,421.718
				c-1.031,0-1.741,0.821-1.741,1.853c0,1.033,0.756,1.861,1.76,1.861c1.031,0,1.75-0.82,1.75-1.843
				C60.227,422.548,59.462,421.718,58.457,421.718z"/>
			<path fill="#939598" d="M64.407,426.067c-1.428,0-2.47-1.124-2.47-2.479c0-1.354,1.05-2.495,2.487-2.495
				c1.429,0,2.479,1.123,2.479,2.477C66.904,424.925,65.845,426.067,64.407,426.067z M64.407,421.718
				c-1.032,0-1.741,0.821-1.741,1.853c0,1.033,0.755,1.861,1.759,1.861c1.032,0,1.75-0.82,1.75-1.843
				C66.177,422.548,65.412,421.718,64.407,421.718z"/>
			<path fill="#939598" d="M73.637,421.093c1.097,0,1.77,0.736,1.77,1.915v2.948h-0.709v-2.782c0-0.921-0.46-1.437-1.235-1.437
				c-0.718,0-1.318,0.533-1.318,1.473v2.746h-0.699v-2.801c0-0.894-0.47-1.418-1.226-1.418c-0.755,0-1.326,0.626-1.326,1.501v2.718
				h-0.709v-4.763h0.709v0.802c0.313-0.47,0.736-0.902,1.538-0.902c0.773,0,1.271,0.412,1.53,0.948
				C72.302,421.517,72.809,421.093,73.637,421.093z"/>
			<path fill="#939598" d="M41.353,430.719h0.534v6.496h-0.719v-5.739l-1.216,0.378l-0.176-0.59L41.353,430.719z"/>
			<path fill="#939598" d="M44.651,430.719h0.534v6.496h-0.719v-5.739l-1.216,0.378l-0.175-0.59L44.651,430.719z"/>
			<path fill="#939598" d="M46.99,430.764h0.865v0.047l-0.746,2.459h-0.396L46.99,430.764z"/>
			<path fill="#939598" d="M56.063,437.214h-0.82l-1.474-1.943l-1.482,1.943h-0.792l1.87-2.424l-1.796-2.339h0.811l1.409,1.843
				l1.409-1.843h0.792l-1.806,2.322L56.063,437.214z"/>
			<path fill="#939598" d="M61.018,430.719h0.534v6.496h-0.719v-5.739l-1.216,0.378l-0.175-0.59L61.018,430.719z"/>
			<path fill="#939598" d="M63.578,430.764h3.713v0.673h-3.078l-0.138,2.064c0.378-0.166,0.737-0.286,1.272-0.286
				c1.252,0,2.229,0.747,2.229,1.981c0,1.271-0.959,2.129-2.304,2.129c-0.921,0-1.724-0.443-2.303-1.023l0.479-0.525
				c0.562,0.544,1.179,0.885,1.834,0.885c0.921,0,1.557-0.608,1.557-1.438c0-0.812-0.654-1.363-1.604-1.363
				c-0.544,0-0.977,0.166-1.354,0.368l-0.488-0.322L63.578,430.764z"/>
			<path fill="#939598" d="M68.994,430.764h0.865v0.047l-0.746,2.459h-0.396L68.994,430.764z"/>
		</g>
		<g>
			<path fill="#939598" d="M153.396,229.528h-0.913l-2.479-3.124l-1.373,1.391v1.731h-0.728v-6.449h0.728v3.851l3.704-3.851h0.939
				l-2.763,2.819L153.396,229.528z"/>
			<path fill="#939598" d="M154.427,223.723v-0.783h0.812v0.783H154.427z M154.473,229.528v-4.763h0.709v4.763H154.473z"/>
			<path fill="#939598" d="M157.788,228.173c0,0.581,0.322,0.792,0.802,0.792c0.238,0,0.442-0.046,0.69-0.166v0.608
				c-0.248,0.129-0.516,0.202-0.856,0.202c-0.765,0-1.345-0.377-1.345-1.344v-2.875h-0.662v-0.626h0.662v-1.437h0.709v1.437h1.512
				v0.626h-1.512V228.173z"/>
			<path fill="#939598" d="M162.561,229.639c-1.39,0-2.441-1.133-2.441-2.478c0-1.355,1.05-2.498,2.441-2.498
				c0.902,0,1.465,0.378,1.907,0.848l-0.47,0.498c-0.378-0.396-0.802-0.719-1.447-0.719c-0.968,0-1.704,0.82-1.704,1.853
				c0,1.041,0.756,1.86,1.751,1.86c0.608,0,1.077-0.303,1.455-0.709l0.452,0.425C164.025,229.252,163.454,229.639,162.561,229.639z"
				/>
			<path fill="#939598" d="M166.382,229.528h-0.709v-6.726h0.709v2.792c0.313-0.516,0.812-0.931,1.632-0.931
				c1.151,0,1.824,0.774,1.824,1.908v2.958h-0.71v-2.783c0-0.884-0.479-1.437-1.317-1.437c-0.82,0-1.429,0.599-1.429,1.492V229.528z
				"/>
			<path fill="#939598" d="M173.447,229.021c0.654,0,1.115-0.268,1.503-0.672l0.442,0.396c-0.479,0.534-1.06,0.894-1.963,0.894
				c-1.308,0-2.377-1.004-2.377-2.488c0-1.382,0.968-2.488,2.285-2.488c1.41,0,2.221,1.124,2.221,2.525c0,0.065,0,0.138-0.01,0.221
				h-3.777C171.872,228.44,172.608,229.021,173.447,229.021z M174.839,226.884c-0.074-0.866-0.571-1.622-1.52-1.622
				c-0.83,0-1.457,0.691-1.549,1.622H174.839z"/>
			<path fill="#939598" d="M177.509,229.528H176.8v-4.763h0.709v0.829c0.313-0.516,0.81-0.931,1.631-0.931
				c1.152,0,1.823,0.774,1.823,1.908v2.958h-0.708v-2.783c0-0.884-0.479-1.437-1.317-1.437c-0.82,0-1.429,0.599-1.429,1.492V229.528
				L177.509,229.528z"/>
		</g>
	</g>
</g>
</svg>
