<?xml version="1.0" encoding="utf-8"?>
<!-- Generator: Adobe Illustrator 15.0.2, SVG Export Plug-In . SVG Version: 6.00 Build 0)  -->
<!DOCTYPE svg PUBLIC "-//W3C//DTD SVG 1.1//EN" "http://www.w3.org/Graphics/SVG/1.1/DTD/svg11.dtd">
<svg version="1.1" id="Layer_1" xmlns="http://www.w3.org/2000/svg" xmlns:xlink="http://www.w3.org/1999/xlink" x="0px" y="0px"
	 width="500px" height="500px" viewBox="-87.138 -146.58 500 500" enable-background="new -87.138 -146.58 500 500"
	 xml:space="preserve">
<g id="_x32_0_x25___PMS_2985_fill" display="none">
	<polygon display="inline" fill="#EBEEEF" points="2.619,17.275 2.619,203.941 323.619,203.941 323.619,16.941 244.285,16.941 
		244.285,8.608 108.619,8.608 108.619,17.608 	"/>
</g>
<g>
	<g id="_x32_0_x25__grey_fill">
		<rect x="-81.125" y="-25.676" fill="#D1D3D4" width="39.058" height="7.608"/>
		<rect x="69.747" y="-25.676" fill="#D1D3D4" width="28.439" height="8.115"/>
		<rect x="398.223" y="-24.662" fill="#D1D3D4" width="8.876" height="6.087"/>
		<rect x="209.273" y="-38.865" fill="#D1D3D4" width="76.849" height="21.304"/>
	</g>
	<g id="icons">
		<g>
			<polygon fill="none" stroke="#939598" points="-4.49,141.231 -7.031,141.243 -7.054,177.49 -4.512,177.478 			"/>
			<path fill="none" stroke="#939598" d="M-5.657,177.504c-19.955-0.678-35.583-17.081-34.904-37.036"/>
		</g>
		<g>
			<polygon fill="none" stroke="#939598" points="153.952,258.194 156.494,258.214 156.517,221.967 153.942,221.949 			"/>
			<path fill="none" stroke="#939598" d="M155.154,221.92c19.955,0.676,35.582,17.179,34.903,37.132"/>
		</g>
		<g>
			<polygon fill="none" stroke="#939598" points="90.472,129.337 90.46,126.924 56.028,126.9 56.04,129.314 			"/>
			<path fill="none" stroke="#939598" d="M56.011,128.228C56.656,109.27,72.24,94.425,91.196,95.07"/>
		</g>
		<g>
			<polygon fill="none" stroke="#939598" points="133.799,141.979 131.259,141.992 131.235,178.238 133.778,178.223 			"/>
			<path fill="none" stroke="#939598" d="M132.632,178.253c-19.955-0.678-35.583-17.081-34.904-37.036"/>
		</g>
		<g>
			<polygon fill="none" stroke="#939598" points="216.016,185.261 216.003,182.848 181.572,182.824 181.583,185.239 			"/>
			<path fill="none" stroke="#939598" d="M181.555,184.151c0.645-18.958,16.228-33.804,35.185-33.156"/>
		</g>
		<g>
			<g>
				<polygon fill="none" stroke="#939598" points="216.867,248.8 216.861,246.823 195.169,246.807 195.176,248.786 				"/>
				<path fill="none" stroke="#939598" d="M195.16,248.102c0.405-11.945,10.226-21.296,22.166-20.89"/>
			</g>
			<g>
				<polygon fill="none" stroke="#939598" points="216.867,205.517 216.861,207.493 195.169,207.508 195.176,205.528 				"/>
				<path fill="none" stroke="#939598" d="M195.16,206.215c0.405,11.943,10.226,21.295,22.166,20.888"/>
			</g>
		</g>
		<line fill="none" stroke="#939598" x1="233.685" y1="197.83" x2="233.685" y2="256.037"/>
		<polyline fill="#FFFFFF" stroke="#939598" points="90.641,250.963 90.641,224.526 140.542,224.526 140.542,252.295 		"/>
		<rect x="302.417" y="135.249" fill="#FFFFFF" stroke="#939598" width="73.044" height="42.038"/>
		<polyline fill="none" stroke="#939598" points="-56.968,143.809 -56.968,240.249 41.185,240.249 		"/>
		<line fill="none" stroke="#939598" x1="-42.067" y1="-15.76" x2="407.862" y2="-15.76"/>
		<g>
			<rect x="100.279" y="-25.147" fill="none" stroke="#939598" width="57.065" height="2.654"/>
			<rect x="144.029" y="-27.648" fill="none" stroke="#939598" width="62.392" height="2.523"/>
		</g>
		<g>
			<rect x="80.688" y="-40.572" fill="none" stroke="#939598" width="4.375" height="4.375"/>
			<line fill="none" stroke="#939598" x1="212.698" y1="-37.338" x2="85.063" y2="-37.338"/>
			<line fill="none" stroke="#939598" x1="84.214" y1="-36.197" x2="84.214" y2="-26.183"/>
			<line fill="none" stroke="#939598" x1="80.688" y1="-36.197" x2="80.688" y2="-26.563"/>
			<line fill="none" stroke="#939598" x1="85.063" y1="-40.572" x2="213.079" y2="-40.572"/>
		</g>
		<polyline fill="none" stroke="#939598" stroke-dasharray="1.5,1.5,1.5,1.5,1.5,1.5" points="-60.091,143.238 -60.057,243.246 
			40.393,243.246 		"/>
		
			<line fill="none" stroke="#939598" stroke-dasharray="1.5,1.5,1.5,1.5,1.5,1.5" x1="236.958" y1="198.273" x2="236.958" y2="258.382"/>
		<g>
			<path fill="#FFFFFF" stroke="#939598" stroke-miterlimit="10" d="M76.424,231.699c0-6.79-4.125-14.268-9.21-14.268
				c-5.087,0-9.193,7.478-9.193,14.268c0,6.792,4.106,10.324,9.193,10.324C72.299,242.023,76.424,238.491,76.424,231.699"/>
			<path fill="#FFFFFF" stroke="#939598" d="M76.424,231.699c0-6.79-4.125-14.268-9.21-14.268c-5.087,0-9.193,7.478-9.193,14.268
				c0,6.792,4.106,10.324,9.193,10.324C72.299,242.023,76.424,238.491,76.424,231.699z"/>
			<path fill="#FFFFFF" stroke="#939598" stroke-miterlimit="10" d="M61.7,239.797c0-0.38-0.312-0.692-0.692-0.692h-3.206
				c-0.38,0-0.692,0.312-0.692,0.692v0.119c0,0.381,0.312,0.691,0.692,0.691h3.206c0.38,0,0.692-0.311,0.692-0.691V239.797z"/>
			<path fill="#FFFFFF" stroke="#939598" d="M61.7,239.797c0-0.38-0.312-0.692-0.692-0.692h-3.206c-0.38,0-0.692,0.312-0.692,0.692
				v0.119c0,0.381,0.312,0.691,0.692,0.691h3.206c0.38,0,0.692-0.311,0.692-0.691V239.797z"/>
			<path fill="#FFFFFF" stroke="#939598" stroke-miterlimit="10" d="M56.621,240.626c-1.155,0-2.092,3.13-2.092,4.283
				c0,1.171,0.938,4.299,2.092,4.299h21.021c1.156,0,2.092-3.131,2.092-4.299c0-1.156-0.936-4.28-2.092-4.28L56.621,240.626z"/>
			<path fill="#FFFFFF" stroke="#939598" d="M56.621,240.626c-1.155,0-2.092,3.13-2.092,4.283c0,1.171,0.938,4.299,2.092,4.299
				h21.021c1.156,0,2.092-3.131,2.092-4.299c0-1.156-0.936-4.28-2.092-4.28L56.621,240.626z"/>
			<path fill="#FFFFFF" stroke="#939598" stroke-miterlimit="10" d="M73.984,231.416c0-4.99-3.03-10.49-6.769-10.49
				c-3.739,0-6.768,5.497-6.768,10.49c0,4.99,3.028,7.584,6.768,7.584C70.954,239,73.984,236.406,73.984,231.416"/>
			<path fill="#FFFFFF" stroke="#939598" d="M73.984,231.416c0-4.99-3.03-10.49-6.769-10.49c-3.739,0-6.768,5.497-6.768,10.49
				c0,4.99,3.028,7.584,6.768,7.584C70.954,239,73.984,236.406,73.984,231.416z"/>
		</g>
		<g>
			<g>
				<rect x="6.743" y="144.721" fill="#FFFFFF" stroke="#939598" width="35.951" height="69.534"/>
				<path fill="#FFFFFF" stroke="#939598" d="M24.719,179.489"/>
				<path fill="#FFFFFF" stroke="#939598" d="M24.719,179.726"/>
				<path fill="#FFFFFF" stroke="#939598" d="M24.719,203.304"/>
			</g>
			<circle fill="#FFFFFF" stroke="#939598" cx="24.89" cy="198.407" r="1.474"/>
			<path fill="#FFFFFF" stroke="#939598" d="M24.831,148.691c-10.305,0-14.076,2.377-14.076,5.71c0,0,0,49.972,0,50.788
				c0,0.814,0.221,2.498,2.376,2.498c2.158,0,11.7,0,11.7,0h0.025c0,0,9.544,0,11.7,0c2.155,0,2.376-1.681,2.376-2.498
				c0-0.816,0-50.757,0-50.757l-0.004-0.031C38.926,151.068,35.068,148.691,24.831,148.691z"/>
			<path fill="#FFFFFF" stroke="#939598" d="M21.798,210.273c0.003-0.837-0.669-1.504-1.514-1.504c-0.816,0-1.494,0.667-1.5,1.504
				c0.006,0.829,0.684,1.514,1.5,1.514C21.127,211.787,21.801,211.11,21.798,210.273z"/>
			<path fill="#FFFFFF" stroke="#939598" d="M31.143,210.273c0.009-0.837-0.676-1.504-1.507-1.504c-0.826,0-1.505,0.667-1.505,1.504
				c0,0.829,0.679,1.514,1.505,1.502C30.47,211.787,31.143,211.103,31.143,210.273z"/>
			<path fill="#FFFFFF" stroke="#939598" d="M22.862,210.719c0,1.235,0.835,2.235,2.07,2.238c1.235-0.003,1.908-1,1.908-2.238
				l-0.792-8.511c0-0.835-2.254-0.835-2.254,0L22.862,210.719z"/>
		</g>
		<g>
			<g>
				<g>
					<g>
						<rect x="224.061" y="151.1" fill="#FFFFFF" stroke="#939598" width="28.221" height="30.72"/>
						<path fill="#FFFFFF" stroke="#939598" d="M237.234,166.459"/>
						<polyline fill="#FFFFFF" stroke="#939598" points="232.481,157.139 228.188,157.139 227.186,160.848 227.186,172.214 
							228.188,175.97 232.481,175.97 						"/>
						<line fill="none" stroke="#939598" x1="232.481" y1="182.042" x2="232.481" y2="151.1"/>
						<path fill="#FFFFFF" stroke="#939598" d="M235.793,166.555"/>
					</g>
				</g>
			</g>
			<polygon fill="#FFFFFF" stroke="#939598" points="230.628,180.324 230.622,177.843 232.355,177.299 232.363,180.87 			"/>
		</g>
		<g>
			<g>
				<path fill="#FFFFFF" stroke="#939598" d="M335.857,151.892c-0.647,0-1.172,0.524-1.172,1.172v20.461
					c0,0.647,0.525,1.174,1.172,1.174h34.707c0.649,0,1.175-0.526,1.175-1.174v-20.461c0-0.65-0.525-1.172-1.175-1.172H335.857z"/>
				<path fill="#FFFFFF" stroke="#939598" d="M353.086,162.411"/>
			</g>
			<g>
				<circle fill="#FFFFFF" stroke="#939598" cx="353.086" cy="163.798" r="1.325"/>
				<path fill="#FFFFFF" stroke="#939598" d="M353.086,163.796"/>
			</g>
			<g>
				<g>
					<rect x="347.295" y="152.709" fill="#FFFFFF" stroke="#939598" width="11.579" height="2.769"/>
					<path fill="#FFFFFF" stroke="#939598" d="M353.086,154.092"/>
				</g>
				<g>
					<rect x="352.493" y="155.406" fill="#FFFFFF" stroke="#939598" width="1.183" height="5.456"/>
					<path fill="#FFFFFF" stroke="#939598" d="M353.086,157.782"/>
				</g>
				<g>
					<circle fill="#FFFFFF" stroke="#939598" cx="353.086" cy="154.12" r="1.29"/>
					<path fill="#FFFFFF" stroke="#939598" d="M353.086,154.119"/>
				</g>
			</g>
			<g>
				<path fill="#FFFFFF" stroke="#939598" d="M353.086,163.796"/>
				<path fill="none" stroke="#939598" d="M352.37,156.436h-14.592c-0.68,0-1.235,0.552-1.235,1.232v14.031
					c0,0.678,0.553,1.233,1.235,1.233h30.858c0.681,0,1.236-0.553,1.236-1.233v-14.031c0-0.681-0.553-1.232-1.236-1.232h-14.8"/>
			</g>
		</g>
		<g>
			<polyline fill="none" stroke="#939598" stroke-dasharray="1.5,1,1.5,1,1.5,1" points="331.592,178.042 331.592,152.208 
				306.257,152.208 306.257,177.462 			"/>
			<polyline fill="#FFFFFF" stroke="#939598" points="306.219,177.462 306.219,178.996 331.592,178.996 331.592,178.051 			"/>
		</g>
		<rect x="285.615" y="224.143" fill="#FFFFFF" stroke="#939598" width="120.978" height="31.704"/>
		<g>
			<g>
				<rect x="314.448" y="222.101" fill="#FFFFFF" stroke="#939598" width="35.381" height="30.055"/>
				<path fill="#FFFFFF" stroke="#939598" d="M332.139,237.128"/>
			</g>
			<g>
				<g>
					<circle fill="#FFFFFF" stroke="#939598" cx="340.229" cy="228.759" r="4.298"/>
					<path fill="#FFFFFF" stroke="#939598" d="M340.229,228.759"/>
				</g>
				<g>
					<circle fill="#FFFFFF" stroke="#939598" stroke-width="0.8" cx="340.272" cy="228.76" r="3.027"/>
					<path fill="#FFFFFF" stroke="#939598" d="M340.272,228.759"/>
				</g>
			</g>
			<g>
				<g>
					<circle fill="#FFFFFF" stroke="#939598" cx="323.053" cy="241.313" r="4.297"/>
					<path fill="#FFFFFF" stroke="#939598" d="M323.053,241.312"/>
				</g>
				<g>
					<circle fill="#FFFFFF" stroke="#939598" stroke-width="0.8" cx="323.008" cy="241.314" r="3.027"/>
					<path fill="#FFFFFF" stroke="#939598" d="M323.008,241.312"/>
				</g>
			</g>
			<g>
				<g>
					<circle fill="#FFFFFF" stroke="#939598" cx="340.287" cy="241.272" r="4.899"/>
					<path fill="#FFFFFF" stroke="#939598" d="M340.287,241.272"/>
				</g>
				<g>
					<circle fill="#FFFFFF" stroke="#939598" stroke-width="0.8" cx="340.24" cy="241.272" r="3.452"/>
					<path fill="#FFFFFF" stroke="#939598" d="M340.24,241.272"/>
				</g>
			</g>
			<g>
				<g>
					<circle fill="#FFFFFF" stroke="#939598" cx="323.071" cy="228.429" r="4.898"/>
					<path fill="#FFFFFF" stroke="#939598" d="M323.071,228.429"/>
				</g>
				<g>
					<circle fill="#FFFFFF" stroke="#939598" stroke-width="0.8" cx="323.023" cy="228.428" r="3.451"/>
					<path fill="#FFFFFF" stroke="#939598" d="M323.023,228.429"/>
				</g>
			</g>
			<line fill="none" stroke="#939598" x1="349.878" y1="247.999" x2="314.448" y2="247.999"/>
			<line fill="none" stroke="#939598" x1="349.829" y1="249.658" x2="314.448" y2="249.658"/>
		</g>
		<g>
			<g>
				<rect x="364.462" y="219.411" fill="#FFFFFF" stroke="#939598" width="37.892" height="33.431"/>
				<path fill="#FFFFFF" stroke="#939598" d="M385.369,236.127"/>
			</g>
			<line fill="none" stroke="#939598" x1="364.371" y1="221.749" x2="402.356" y2="221.749"/>
			<rect x="396.121" y="217.76" fill="#FFFFFF" stroke="#939598" width="3.072" height="1.628"/>
			<path fill="#FFFFFF" stroke="#939598" d="M397.658,218.662"/>
		</g>
		
			<line fill="none" stroke="#939598" stroke-dasharray="1.5,1.5,1.5,1.5,1.5,1.5" x1="287.39" y1="240.882" x2="406.847" y2="240.882"/>
		<g>
			<polyline fill="#FFFFFF" stroke="#939598" points="281.416,216.298 284.207,216.298 284.207,256.115 260.365,256.115 
				260.365,216.298 265.438,216.298 			"/>
			<g>
				<g>
					<g>
						<polygon fill="none" stroke="#939598" stroke-width="0.7" points="273.291,202.776 275.194,203.822 267.267,216.899 
							265.365,215.854 						"/>
						<path fill="none" stroke="#939598" stroke-width="0.8" d="M268.833,210.896"/>
					</g>
					<path fill="none" stroke="#939598" stroke-width="0.8" d="M274.02,203.406c4.873,2.951,7.496,8.209,7.32,13.526"/>
				</g>
			</g>
		</g>
		<g>
			<g>
				<g>
					<path fill="none" stroke="#939598" d="M115.435,235.306"/>
				</g>
				<g>
					<path fill="none" stroke="#939598" d="M115.435,236.922"/>
				</g>
				<g>
					<circle fill="none" stroke="#939598" cx="115.435" cy="235.306" r="1.548"/>
					<path fill="none" stroke="#939598" d="M115.435,235.306"/>
				</g>
				<g>
					<g>
						<rect x="108.944" y="245.007" fill="none" stroke="#939598" width="13.016" height="3.234"/>
						<path fill="none" stroke="#939598" d="M115.435,246.623"/>
					</g>
					<g>
						<rect x="114.745" y="238.73" fill="none" stroke="#939598" width="1.379" height="6.134"/>
						<path fill="none" stroke="#939598" d="M115.435,242.319"/>
					</g>
					<g>
						<circle fill="none" stroke="#939598" cx="115.435" cy="246.592" r="1.5"/>
						<path fill="none" stroke="#939598" d="M115.435,246.592"/>
					</g>
				</g>
			</g>
			<g>
				<rect x="102.459" y="227.62" fill="none" stroke="#939598" width="25.985" height="21.114"/>
				<rect x="104.576" y="229.744" fill="none" stroke="#939598" width="21.693" height="15.186"/>
			</g>
		</g>
	</g>
	<g id="walls">
		<polyline fill="none" stroke="#939598" stroke-width="5" points="284.599,-25.577 407.257,-25.577 407.257,257.467 
			190.125,257.467 		"/>
		<line fill="none" stroke="#939598" stroke-width="3" x1="203.06" y1="-25.577" x2="211.81" y2="-25.577"/>
		<polyline fill="none" stroke="#939598" stroke-width="5" points="154.364,257.467 -80.798,257.467 -80.798,-25.577 
			106.049,-25.577 		"/>
		<polyline fill="none" stroke="#939598" stroke-width="3" points="133.821,142.225 142.064,142.225 142.064,255.847 		"/>
		<line fill="none" stroke="#939598" stroke-width="3" x1="-4.237" y1="142.225" x2="98.289" y2="142.225"/>
		<line fill="none" stroke="#939598" stroke-width="3" x1="-82.138" y1="142.225" x2="-40.418" y2="142.225"/>
		<line fill="none" stroke="#939598" stroke-width="3" x1="90.325" y1="129.353" x2="90.325" y2="143.238"/>
		<line fill="none" stroke="#939598" stroke-width="3" x1="90.325" y1="-15.785" x2="90.325" y2="95.56"/>
		<polyline fill="none" stroke="#939598" stroke-width="3" points="216.122,151.373 216.122,142.225 260.253,142.225 
			260.253,256.86 		"/>
		<line fill="none" stroke="#939598" stroke-width="3" x1="216.122" y1="205.249" x2="216.122" y2="185.086"/>
		<line fill="none" stroke="#939598" stroke-width="3" x1="216.122" y1="256.354" x2="216.122" y2="248.809"/>
		<line fill="none" stroke="#939598" stroke-width="3" x1="285.615" y1="215.268" x2="285.615" y2="256.354"/>
		<polyline fill="none" stroke="#939598" stroke-width="3" points="140.035,253.309 42.136,253.309 42.136,216.281 5.108,216.443 
			5.108,143.908 		"/>
		<polyline fill="none" stroke="#939598" stroke-width="5" points="286.301,-25.167 286.301,-38.698 210.035,-38.698 
			210.035,-25.677 		"/>
		<polyline fill="none" stroke="#939598" stroke-width="3" points="211.473,-25.677 211.473,-17.803 284.733,-17.803 
			284.733,-25.167 		"/>
		<polyline fill="none" stroke="#939598" stroke-width="3" points="-43.081,-25.676 -43.081,-17.167 -80.616,-17.167 		"/>
		<polyline fill="none" stroke="#939598" stroke-width="3" points="69.936,-25.169 69.936,-17.658 98.44,-17.658 98.44,-27.198 		
			"/>
		<line fill="none" stroke="#939598" stroke-width="5" x1="217.517" y1="194.978" x2="258.223" y2="194.978"/>
		<polyline fill="none" stroke="#939598" stroke-width="3" points="398.827,-23.393 398.827,-17.764 406.086,-17.764 		"/>
	</g>
	<g id="windows">
		<g>
			<g>
				<rect x="-38.579" y="-28.464" fill="#FFFFFF" stroke="#939598" width="105.854" height="5.591"/>
				<line fill="none" stroke="#939598" x1="67.278" y1="-25.697" x2="-39.72" y2="-25.697"/>
				<line fill="none" stroke="#939598" stroke-width="2" x1="32.774" y1="-22.632" x2="32.774" y2="-27.949"/>
			</g>
			<line fill="none" stroke="#939598" stroke-width="2" x1="-2.818" y1="-22.442" x2="-2.818" y2="-27.923"/>
		</g>
		<g>
			<g>
				<rect x="290.163" y="-28.424" fill="#FFFFFF" stroke="#939598" width="105.855" height="5.591"/>
				<line fill="none" stroke="#939598" x1="396.021" y1="-25.656" x2="289.022" y2="-25.656"/>
				<line fill="none" stroke="#939598" stroke-width="2" x1="361.517" y1="-22.593" x2="361.517" y2="-27.909"/>
			</g>
			<line fill="none" stroke="#939598" stroke-width="2" x1="325.924" y1="-22.403" x2="325.924" y2="-27.882"/>
		</g>
	</g>
	<g id="Type">
		<g enable-background="new    ">
			<path fill="#939598" d="M114.952-44.325c-1.119,0-1.833-0.553-2.302-1.322l0.606-0.522c0.459,0.693,0.927,1.065,1.706,1.065
				c0.841,0,1.459-0.607,1.459-1.791v-4.998h0.854v4.987C117.276-45.188,116.283-44.325,114.952-44.325z"/>
			<path fill="#939598" d="M123.039-49.943h0.809v5.511h-0.809v-0.959c-0.373,0.597-0.939,1.076-1.887,1.076
				c-1.332,0-2.11-0.896-2.11-2.206v-3.421h0.819v3.218c0,1.025,0.554,1.664,1.523,1.664c0.939,0,1.654-0.692,1.654-1.728v-3.154
				H123.039z"/>
			<path fill="#939598" d="M125.763-44.432v-7.78h0.819v7.78H125.763z"/>
			<path fill="#939598" d="M128.511-51.146v-0.907h0.939v0.907H128.511z M128.565-44.432v-5.511h0.82v5.511H128.565z"/>
			<path fill="#939598" d="M133.721-45.019c0.757,0,1.29-0.309,1.737-0.779l0.513,0.458c-0.554,0.617-1.226,1.035-2.271,1.035
				c-1.514,0-2.751-1.163-2.751-2.877c0-1.6,1.119-2.879,2.644-2.879c1.63,0,2.569,1.299,2.569,2.92c0,0.076,0,0.16-0.012,0.256
				h-4.371C131.898-45.689,132.752-45.019,133.721-45.019z M135.331-47.491c-0.085-1.001-0.66-1.876-1.758-1.876
				c-0.958,0-1.684,0.799-1.792,1.876H135.331z"/>
			<path fill="#939598" d="M138.705-45.999c0,0.671,0.373,0.917,0.926,0.917c0.278,0,0.511-0.053,0.8-0.193v0.705
				c-0.289,0.149-0.598,0.235-0.991,0.235c-0.886,0-1.555-0.438-1.555-1.557v-3.325h-0.767v-0.726h0.767v-1.664h0.82v1.664h1.748
				v0.726h-1.748V-45.999L138.705-45.999z"/>
			<path fill="#939598" d="M150.841-50.028c0,0.982-0.596,1.482-1.183,1.738c0.884,0.266,1.599,0.777,1.599,1.811
				c0,1.291-1.076,2.047-2.708,2.047h-3.314v-7.46h3.176C149.882-51.893,150.841-51.169,150.841-50.028z M149.988-49.909
				c0-0.746-0.587-1.227-1.651-1.227h-2.271v2.568h2.207C149.286-48.569,149.988-49.025,149.988-49.909z M150.404-46.533
				c0-0.82-0.682-1.29-1.982-1.29h-2.355v2.632h2.504C149.699-45.188,150.404-45.689,150.404-46.533z"/>
			<path fill="#939598" d="M153.107-48.888l-0.246-0.671c0.606-0.277,1.206-0.458,2.005-0.458c1.501,0,2.345,0.768,2.345,2.217
				v3.368h-0.789v-0.832c-0.384,0.5-1.022,0.948-1.993,0.948c-1.022,0-2.058-0.575-2.058-1.727c0-1.173,0.958-1.792,2.355-1.792
				c0.703,0,1.205,0.096,1.696,0.235v-0.19c0-0.991-0.608-1.502-1.642-1.502C154.13-49.292,153.618-49.123,153.107-48.888z
				 M153.202-46.073c0,0.703,0.639,1.108,1.387,1.108c1.012,0,1.843-0.619,1.843-1.492v-0.533c-0.404-0.117-0.948-0.234-1.618-0.234
				C153.777-47.225,153.202-46.777,153.202-46.073z"/>
			<path fill="#939598" d="M159.029-44.432v-7.78h0.82v7.78H159.029z"/>
			<path fill="#939598" d="M164.24-44.305c-1.61,0-2.824-1.311-2.824-2.867c0-1.565,1.214-2.888,2.824-2.888
				c1.044,0,1.693,0.437,2.205,0.981l-0.542,0.575c-0.438-0.458-0.928-0.831-1.676-0.831c-1.117,0-1.97,0.948-1.97,2.141
				c0,1.205,0.874,2.153,2.026,2.153c0.704,0,1.247-0.35,1.684-0.82l0.521,0.49C165.933-44.752,165.274-44.305,164.24-44.305z"/>
			<path fill="#939598" d="M170.194-44.305c-1.652,0-2.855-1.299-2.855-2.867c0-1.567,1.214-2.888,2.878-2.888
				c1.652,0,2.867,1.299,2.867,2.867C173.083-45.625,171.859-44.305,170.194-44.305z M170.194-49.334
				c-1.193,0-2.012,0.948-2.012,2.141c0,1.195,0.872,2.153,2.034,2.153c1.192,0,2.025-0.948,2.025-2.13
				C172.241-48.377,171.356-49.334,170.194-49.334z"/>
			<path fill="#939598" d="M175.38-44.432h-0.82v-5.511h0.82v0.96c0.362-0.599,0.938-1.078,1.886-1.078
				c1.333,0,2.11,0.896,2.11,2.207v3.421h-0.82v-3.219c0-1.022-0.553-1.663-1.524-1.663c-0.948,0-1.651,0.692-1.651,1.727V-44.432
				L175.38-44.432z"/>
			<path fill="#939598" d="M183.649-44.252c-0.468,1.14-1,1.555-1.831,1.555c-0.46,0-0.799-0.096-1.174-0.276l0.278-0.651
				c0.268,0.138,0.514,0.202,0.863,0.202c0.49,0,0.8-0.256,1.129-1.033l-2.505-5.489h0.906l2.003,4.594l1.771-4.594h0.873
				L183.649-44.252z"/>
		</g>
		<g enable-background="new    ">
			<path fill="#939598" d="M81.998,188.399c0,1.261-0.767,1.905-1.52,2.233c1.137,0.344,2.055,1.001,2.055,2.329
				c0,1.657-1.384,2.631-3.48,2.631h-4.261v-9.59h4.083C80.766,186.003,81.998,186.935,81.998,188.399z M80.903,188.552
				c0-0.961-0.753-1.576-2.122-1.576h-2.918v3.303h2.835C80,190.278,80.903,189.688,80.903,188.552z M81.438,192.894
				c0-1.055-0.875-1.658-2.549-1.658h-3.027v3.384h3.219C80.533,194.619,81.438,193.976,81.438,192.894z"/>
			<path fill="#939598" d="M84.914,189.866l-0.315-0.863c0.782-0.355,1.549-0.59,2.576-0.59c1.932,0,3.012,0.985,3.012,2.851v4.329
				h-1.014v-1.067c-0.492,0.642-1.313,1.219-2.562,1.219c-1.315,0-2.644-0.739-2.644-2.221c0-1.505,1.233-2.3,3.027-2.3
				c0.904,0,1.55,0.121,2.179,0.3v-0.247c0-1.273-0.78-1.932-2.11-1.932C86.229,189.345,85.573,189.564,84.914,189.866z
				 M85.037,193.482c0,0.906,0.822,1.427,1.78,1.427c1.302,0,2.371-0.796,2.371-1.921v-0.684c-0.522-0.151-1.22-0.3-2.082-0.3
				C85.778,192.002,85.037,192.578,85.037,193.482z"/>
			<path fill="#939598" d="M93.79,193.577c0,0.863,0.48,1.179,1.192,1.179c0.357,0,0.657-0.068,1.027-0.247v0.905
				c-0.37,0.19-0.767,0.3-1.273,0.3c-1.137,0-1.999-0.562-1.999-2v-4.273H91.75v-0.931h0.986v-2.137h1.054v2.137h2.249v0.931H93.79
				V193.577z"/>
			<path fill="#939598" d="M98.954,195.593h-1.055v-10.002h1.055v4.153c0.465-0.768,1.206-1.385,2.425-1.385
				c1.712,0,2.712,1.152,2.712,2.837v4.399h-1.055v-4.139c0-1.315-0.712-2.136-1.96-2.136c-1.218,0-2.124,0.889-2.124,2.217v4.055
				H98.954z"/>
		</g>
		<g enable-background="new    ">
			<path fill="#939598" d="M324.78,139.214v7.46h-0.843v-7.46H324.78z"/>
			<path fill="#939598" d="M328.647,146.78c-0.788,0-1.662-0.309-2.28-0.808l0.415-0.589c0.596,0.449,1.259,0.704,1.908,0.704
				c0.661,0,1.14-0.342,1.14-0.873v-0.021c0-0.556-0.649-0.767-1.375-0.972c-0.861-0.244-1.821-0.541-1.821-1.555v-0.022
				c0-0.946,0.79-1.576,1.875-1.576c0.672,0,1.418,0.233,1.982,0.606l-0.371,0.618c-0.513-0.33-1.1-0.532-1.632-0.532
				c-0.649,0-1.064,0.339-1.064,0.798v0.021c0,0.521,0.681,0.727,1.418,0.947c0.854,0.256,1.769,0.587,1.769,1.578v0.022
				C330.608,146.173,329.746,146.78,328.647,146.78z"/>
			<path fill="#939598" d="M332.204,146.674v-7.779h0.82v7.779H332.204z"/>
			<path fill="#939598" d="M335.25,142.219l-0.245-0.672c0.608-0.276,1.205-0.458,2.004-0.458c1.502,0,2.343,0.767,2.343,2.218
				v3.367h-0.787v-0.832c-0.384,0.502-1.022,0.948-1.994,0.948c-1.024,0-2.059-0.574-2.059-1.728c0-1.172,0.96-1.79,2.357-1.79
				c0.702,0,1.203,0.097,1.693,0.234v-0.191c0-0.991-0.607-1.503-1.641-1.503C336.275,141.814,335.763,141.983,335.25,142.219z
				 M335.347,145.033c0,0.703,0.64,1.108,1.386,1.108c1.013,0,1.844-0.618,1.844-1.492v-0.531c-0.405-0.119-0.948-0.235-1.62-0.235
				C335.922,143.882,335.347,144.329,335.347,145.033z"/>
			<path fill="#939598" d="M341.918,146.674h-0.82v-5.511h0.82v0.96c0.361-0.597,0.938-1.077,1.886-1.077
				c1.332,0,2.112,0.896,2.112,2.207v3.421h-0.82v-3.219c0-1.022-0.555-1.663-1.524-1.663c-0.948,0-1.653,0.691-1.653,1.727V146.674
				L341.918,146.674z"/>
			<path fill="#939598" d="M352.083,146.674v-1.108c-0.447,0.661-1.097,1.225-2.11,1.225c-1.321,0-2.633-1.045-2.633-2.865
				c0-1.813,1.312-2.88,2.633-2.88c1.022,0,1.683,0.554,2.11,1.174v-3.326h0.82v7.779h-0.82V146.674z M350.121,141.781
				c-1.063,0-1.939,0.789-1.939,2.13c0,1.312,0.898,2.143,1.939,2.143c1.024,0,1.995-0.854,1.995-2.143
				C352.115,142.635,351.144,141.781,350.121,141.781z"/>
		</g>
		<g enable-background="new    ">
			<path fill="#939598" d="M165.349,249.037h-4.551v2.548h4.07v0.77h-4.07v2.609h4.605v0.769h-5.448v-7.46h5.393L165.349,249.037
				L165.349,249.037z"/>
			<path fill="#939598" d="M167.773,255.73h-0.82v-5.51h0.82v0.96c0.363-0.598,0.938-1.078,1.888-1.078
				c1.331,0,2.11,0.896,2.11,2.207v3.421h-0.822v-3.219c0-1.022-0.554-1.663-1.522-1.663c-0.948,0-1.653,0.691-1.653,1.728V255.73z"
				/>
			<path fill="#939598" d="M174.622,254.164c0,0.672,0.373,0.919,0.928,0.919c0.277,0,0.513-0.054,0.798-0.193v0.704
				c-0.285,0.148-0.596,0.235-0.99,0.235c-0.886,0-1.556-0.44-1.556-1.558v-3.326h-0.769v-0.725h0.769v-1.665h0.82v1.665h1.749
				v0.725h-1.749V254.164L174.622,254.164z"/>
			<path fill="#939598" d="M178.639,255.73h-0.818v-5.51h0.818v1.438c0.406-0.917,1.204-1.578,2.25-1.534v0.883h-0.063
				c-1.204,0-2.187,0.863-2.187,2.526V255.73L178.639,255.73z"/>
			<path fill="#939598" d="M184.82,255.912c-0.47,1.139-1.001,1.555-1.834,1.555c-0.457,0-0.799-0.096-1.172-0.276l0.277-0.651
				c0.267,0.137,0.512,0.202,0.86,0.202c0.491,0,0.8-0.256,1.13-1.034l-2.503-5.488h0.905l2.005,4.594l1.769-4.594h0.872
				L184.82,255.912z"/>
		</g>
		<g enable-background="new    ">
			<path fill="#939598" d="M314.263,200.538h-1.357l-3.685-4.645l-2.041,2.067v2.577h-1.083v-9.591h1.083v5.727l5.508-5.727h1.396
				l-4.108,4.191L314.263,200.538z"/>
			<path fill="#939598" d="M315.795,191.907v-1.164H317v1.164H315.795z M315.865,200.538v-7.083h1.053v7.083H315.865z"/>
			<path fill="#939598" d="M320.794,198.522c0,0.864,0.479,1.179,1.191,1.179c0.356,0,0.658-0.068,1.027-0.246v0.904
				c-0.369,0.19-0.767,0.301-1.273,0.301c-1.139,0-1.999-0.562-1.999-2.001v-4.273h-0.986v-0.931h0.986v-2.137h1.054v2.137h2.248
				v0.931h-2.248V198.522L320.794,198.522z"/>
			<path fill="#939598" d="M327.89,200.703c-2.067,0-3.63-1.684-3.63-3.686c0-2.014,1.562-3.714,3.63-3.714
				c1.344,0,2.179,0.562,2.836,1.262l-0.699,0.738c-0.562-0.588-1.191-1.068-2.15-1.068c-1.438,0-2.535,1.221-2.535,2.754
				c0,1.55,1.124,2.769,2.604,2.769c0.904,0,1.604-0.453,2.164-1.054l0.672,0.63C330.069,200.126,329.219,200.703,327.89,200.703z"
				/>
			<path fill="#939598" d="M333.573,200.538h-1.054v-10.001h1.054v4.153c0.467-0.769,1.207-1.385,2.426-1.385
				c1.712,0,2.713,1.151,2.713,2.837v4.398h-1.055v-4.139c0-1.315-0.713-2.136-1.957-2.136c-1.222,0-2.125,0.889-2.125,2.218v4.054
				H333.573z"/>
			<path fill="#939598" d="M344.079,199.786c0.972,0,1.657-0.398,2.232-1.002l0.658,0.59c-0.712,0.795-1.577,1.33-2.919,1.33
				c-1.943,0-3.532-1.492-3.532-3.7c0-2.055,1.437-3.7,3.396-3.7c2.097,0,3.302,1.674,3.302,3.754c0,0.097,0,0.208-0.013,0.33
				h-5.617C341.738,198.921,342.831,199.786,344.079,199.786z M346.147,196.605c-0.108-1.286-0.851-2.41-2.261-2.41
				c-1.233,0-2.163,1.028-2.302,2.41H346.147z"/>
			<path fill="#939598" d="M350.118,200.538h-1.055v-7.083h1.055v1.235c0.466-0.769,1.205-1.385,2.426-1.385
				c1.712,0,2.71,1.151,2.71,2.837v4.398h-1.053v-4.139c0-1.315-0.712-2.136-1.961-2.136c-1.218,0-2.122,0.889-2.122,2.218V200.538
				L350.118,200.538z"/>
		</g>
		<g enable-background="new    ">
			<path fill="#939598" d="M238.674,173.36v-0.69l6.236-2.047l-6.213-2.131v-0.886l7.514,2.666v0.714l-6.055,2.048l6.055,2.057
				v0.702l-7.514,2.666v-0.92l6.213-2.129L238.674,173.36z"/>
			<path fill="#939598" d="M237.652,162.732l9.868,4.945v0.757l-9.868-4.944V162.732z"/>
			<path fill="#939598" d="M246.156,159.153v2.589h-7.459v-2.589c0-2.345,1.609-3.965,3.718-3.965
				C244.526,155.188,246.156,156.809,246.156,159.153z M239.475,159.153v1.747h5.904v-1.747c0-1.886-1.278-3.091-2.941-3.091
				C240.774,156.062,239.475,157.268,239.475,159.153z"/>
		</g>
		<g enable-background="new    ">
			<path fill="#939598" d="M228.242,239.715c0,2.154-1.693,3.741-3.847,3.741c-2.13,0-3.868-1.575-3.868-3.772
				c0-1.354,0.479-2.163,1.183-2.909l0.616,0.575c-0.597,0.629-1.023,1.333-1.023,2.344c0,1.652,1.333,2.889,3.071,2.889
				c1.737,0,3.092-1.248,3.092-2.889c0-1.022-0.397-1.694-1.078-2.408l0.543-0.554C227.721,237.509,228.242,238.361,228.242,239.715
				z"/>
			<path fill="#939598" d="M228.115,235.328h-7.78v-0.82h7.78V235.328z"/>
			<path fill="#939598" d="M228.242,230.087c0,1.652-1.3,2.856-2.866,2.856c-1.567,0-2.889-1.216-2.889-2.877
				c0-1.652,1.3-2.868,2.866-2.868C226.922,227.198,228.242,228.424,228.242,230.087z M223.211,230.087
				c0,1.193,0.948,2.014,2.142,2.014c1.194,0,2.153-0.872,2.153-2.034c0-1.195-0.948-2.027-2.13-2.027
				C224.171,228.039,223.211,228.925,223.211,230.087z"/>
			<path fill="#939598" d="M228.221,223.899c0,0.787-0.308,1.661-0.809,2.279l-0.589-0.416c0.447-0.596,0.706-1.258,0.706-1.908
				c0-0.66-0.344-1.14-0.875-1.14h-0.022c-0.553,0-0.767,0.649-0.971,1.374c-0.243,0.865-0.541,1.822-1.555,1.822h-0.021
				c-0.948,0-1.577-0.789-1.577-1.875c0-0.672,0.233-1.418,0.606-1.982l0.618,0.374c-0.331,0.512-0.533,1.097-0.533,1.629
				c0,0.65,0.342,1.065,0.799,1.065h0.021c0.521,0,0.727-0.682,0.948-1.419c0.255-0.854,0.587-1.768,1.578-1.768h0.021
				C227.615,221.938,228.221,222.8,228.221,223.899z"/>
			<path fill="#939598" d="M227.53,217.987c0-0.758-0.309-1.291-0.78-1.738l0.458-0.512c0.618,0.553,1.035,1.225,1.035,2.271
				c0,1.514-1.163,2.75-2.878,2.75c-1.6,0-2.879-1.121-2.879-2.643c0-1.63,1.299-2.569,2.92-2.569c0.076,0,0.161,0,0.256,0.012
				v4.369C226.858,219.81,227.53,218.956,227.53,217.987z M225.057,216.377c-1.002,0.086-1.877,0.659-1.877,1.759
				c0,0.959,0.8,1.683,1.877,1.789V216.377z"/>
			<path fill="#939598" d="M226.547,213.002c0.672,0,0.919-0.373,0.919-0.928c0-0.277-0.054-0.513-0.195-0.798h0.706
				c0.148,0.285,0.233,0.596,0.233,0.989c0,0.885-0.438,1.557-1.556,1.557h-3.326v0.768h-0.726v-0.768h-1.662v-0.82h1.662v-1.749
				h0.726v1.749H226.547z"/>
		</g>
		<g enable-background="new    ">
			<path fill="#939598" d="M-38.154,206.274c-2.153,0-3.741-1.694-3.741-3.848c0-2.13,1.579-3.868,3.773-3.868
				c1.354,0,2.164,0.479,2.91,1.183l-0.575,0.618c-0.628-0.599-1.332-1.025-2.345-1.025c-1.653,0-2.889,1.335-2.889,3.072
				s1.247,3.089,2.889,3.089c1.022,0,1.692-0.395,2.409-1.075l0.553,0.542C-35.947,205.751-36.798,206.274-38.154,206.274z"/>
			<path fill="#939598" d="M-33.765,206.146v-7.779h0.819v7.779H-33.765z"/>
			<path fill="#939598" d="M-28.524,206.274c-1.653,0-2.856-1.299-2.856-2.868c0-1.566,1.214-2.888,2.878-2.888
				c1.653,0,2.867,1.301,2.867,2.867C-25.635,204.953-26.863,206.274-28.524,206.274z M-28.524,201.245
				c-1.195,0-2.015,0.948-2.015,2.141c0,1.194,0.874,2.153,2.036,2.153c1.193,0,2.024-0.948,2.024-2.13
				C-26.477,202.202-27.362,201.245-28.524,201.245z"/>
			<path fill="#939598" d="M-22.336,206.253c-0.789,0-1.662-0.309-2.281-0.808l0.415-0.589c0.598,0.449,1.259,0.704,1.908,0.704
				c0.661,0,1.141-0.342,1.141-0.873v-0.021c0-0.556-0.649-0.767-1.375-0.972c-0.863-0.244-1.823-0.541-1.823-1.555v-0.022
				c0-0.947,0.789-1.576,1.877-1.576c0.67,0,1.417,0.233,1.982,0.606l-0.373,0.618c-0.511-0.33-1.098-0.533-1.632-0.533
				c-0.649,0-1.065,0.34-1.065,0.799v0.021c0,0.521,0.682,0.727,1.419,0.947c0.852,0.256,1.77,0.587,1.77,1.578v0.022
				C-20.374,205.646-21.238,206.253-22.336,206.253z"/>
			<path fill="#939598" d="M-16.424,205.561c0.756,0,1.29-0.309,1.737-0.78l0.511,0.46c-0.553,0.616-1.224,1.034-2.269,1.034
				c-1.514,0-2.75-1.162-2.75-2.877c0-1.601,1.119-2.88,2.644-2.88c1.63,0,2.569,1.299,2.569,2.92c0,0.075,0,0.159-0.012,0.256
				h-4.371C-18.246,204.89-17.393,205.561-16.424,205.561z M-14.815,203.088c-0.085-1.001-0.66-1.877-1.758-1.877
				c-0.958,0-1.684,0.798-1.792,1.877H-14.815z"/>
			<path fill="#939598" d="M-11.438,204.58c0,0.672,0.373,0.918,0.926,0.918c0.278,0,0.511-0.053,0.799-0.192v0.704
				c-0.288,0.148-0.597,0.234-0.991,0.234c-0.884,0-1.554-0.439-1.554-1.557v-3.326h-0.767v-0.726h0.767v-1.664h0.82v1.664h1.748
				v0.726h-1.748V204.58z"/>
		</g>
		<g enable-background="new    ">
			<path fill="#939598" d="M311.734,167.723h-2.591v-7.46h2.591c2.345,0,3.963,1.61,3.963,3.72
				C315.697,166.091,314.078,167.723,311.734,167.723z M311.734,161.041h-1.748v5.902h1.748c1.884,0,3.089-1.277,3.089-2.94
				S313.617,161.041,311.734,161.041z"/>
			<path fill="#939598" d="M321.609,160.24h0.692l2.046,6.235l2.133-6.213h0.883l-2.663,7.514h-0.715l-2.048-6.055l-2.057,6.055
				h-0.704l-2.663-7.514h0.915l2.133,6.213L321.609,160.24z"/>
		</g>
		<g enable-background="new    ">
			<path fill="#939598" d="M381.705,235.695l-2.164-2.899h-2.131v2.899h-0.843v-7.46h3.209c1.641,0,2.694,0.884,2.694,2.229
				c0,1.245-0.854,1.97-2.024,2.185l2.292,3.048h-1.033V235.695z M379.712,229.014h-2.302v3.026h2.293
				c1.116,0,1.917-0.575,1.917-1.546C381.62,229.567,380.917,229.014,379.712,229.014z"/>
			<path fill="#939598" d="M386.454,235.11c0.755,0,1.29-0.31,1.736-0.78l0.511,0.459c-0.551,0.616-1.225,1.034-2.268,1.034
				c-1.515,0-2.751-1.162-2.751-2.877c0-1.601,1.119-2.88,2.644-2.88c1.629,0,2.568,1.299,2.568,2.92c0,0.076,0,0.159-0.012,0.256
				h-4.369C384.631,234.438,385.486,235.11,386.454,235.11z M388.063,232.637c-0.085-1.001-0.66-1.877-1.757-1.877
				c-0.958,0-1.684,0.799-1.792,1.877H388.063z"/>
			<path fill="#939598" d="M393.198,230.206v0.704h-1.737v4.787h-0.82v-4.787h-0.759v-0.715h0.759v-0.477
				c0-1.207,0.605-1.846,1.661-1.846c0.385,0,0.641,0.043,0.908,0.14v0.715c-0.298-0.088-0.523-0.142-0.8-0.142
				c-0.639,0-0.959,0.387-0.959,1.174v0.447L393.198,230.206L393.198,230.206z"/>
		</g>
		<g enable-background="new    ">
			<path fill="#939598" d="M-17.305,48.936c0,1.259-0.767,1.905-1.521,2.233c1.137,0.343,2.056,1,2.056,2.328
				c0,1.657-1.384,2.632-3.48,2.632h-4.262v-9.59h4.083C-18.537,46.537-17.305,47.469-17.305,48.936z M-18.401,49.085
				c0-0.96-0.753-1.576-2.124-1.576h-2.919v3.302h2.837C-19.304,50.812-18.401,50.222-18.401,49.085z M-17.866,53.429
				c0-1.055-0.876-1.658-2.548-1.658h-3.029v3.384h3.221C-18.771,55.154-17.866,54.511-17.866,53.429z"/>
			<path fill="#939598" d="M-11.676,55.374c0.972,0,1.657-0.397,2.233-1l0.658,0.589c-0.713,0.794-1.577,1.33-2.92,1.33
				c-1.944,0-3.533-1.493-3.533-3.699c0-2.056,1.437-3.701,3.396-3.701c2.095,0,3.302,1.672,3.302,3.754c0,0.097,0,0.207-0.013,0.33
				h-5.616C-14.018,54.511-12.923,55.374-11.676,55.374z M-9.608,52.195c-0.11-1.288-0.85-2.411-2.26-2.411
				c-1.233,0-2.164,1.027-2.3,2.411H-9.608z"/>
			<path fill="#939598" d="M-1.008,56.127V54.7c-0.575,0.852-1.411,1.576-2.712,1.576c-1.698,0-3.384-1.343-3.384-3.685
				c0-2.33,1.686-3.701,3.384-3.701c1.315,0,2.166,0.714,2.712,1.509v-4.276h1.055v10.001h-1.055V56.127z M-3.528,49.839
				c-1.369,0-2.494,1.014-2.494,2.739c0,1.685,1.15,2.754,2.494,2.754c1.315,0,2.563-1.095,2.563-2.754
				C-0.966,50.935-2.213,49.839-3.528,49.839z"/>
			<path fill="#939598" d="M3.456,56.127H2.401v-7.082h1.055v1.849c0.521-1.176,1.549-2.027,2.891-1.972v1.137H6.265
				c-1.548,0-2.809,1.11-2.809,3.248V56.127z"/>
			<path fill="#939598" d="M10.881,56.293c-2.125,0-3.672-1.673-3.672-3.687c0-2.013,1.561-3.712,3.699-3.712
				c2.125,0,3.684,1.672,3.684,3.686C14.592,54.593,13.016,56.293,10.881,56.293z M10.881,49.826c-1.535,0-2.59,1.22-2.59,2.754
				c0,1.535,1.124,2.768,2.617,2.768c1.534,0,2.602-1.221,2.602-2.741C13.51,51.059,12.373,49.826,10.881,49.826z"/>
			<path fill="#939598" d="M19.727,56.293c-2.124,0-3.672-1.673-3.672-3.687c0-2.013,1.562-3.712,3.7-3.712
				c2.124,0,3.684,1.672,3.684,3.686C23.44,54.593,21.865,56.293,19.727,56.293z M19.727,49.826c-1.534,0-2.59,1.22-2.59,2.754
				c0,1.535,1.123,2.768,2.618,2.768c1.534,0,2.602-1.221,2.602-2.741C22.358,51.059,21.221,49.826,19.727,49.826z"/>
			<path fill="#939598" d="M33.453,48.893c1.629,0,2.63,1.097,2.63,2.85v4.385H35.03v-4.138c0-1.369-0.685-2.136-1.837-2.136
				c-1.068,0-1.958,0.793-1.958,2.191v4.083h-1.043v-4.164c0-1.33-0.698-2.11-1.822-2.11c-1.122,0-1.972,0.931-1.972,2.232v4.042
				h-1.053v-7.082h1.053v1.191c0.467-0.698,1.097-1.344,2.287-1.344c1.152,0,1.892,0.617,2.275,1.412
				C31.465,49.524,32.218,48.893,33.453,48.893z"/>
		</g>
		<g enable-background="new    ">
			<path fill="#939598" d="M-29.433,63.209h0.793v9.659h-1.067v-8.535l-1.809,0.562l-0.26-0.877L-29.433,63.209z"/>
			<path fill="#939598" d="M-25.626,65.755l-0.795-0.575c0.863-1.288,1.767-2.04,3.454-2.04c1.739,0,2.974,1.149,2.974,2.726
				c0,1.411-0.74,2.274-2.427,3.74l-2.561,2.272h5.083v0.987h-6.698v-0.836l3.479-3.069c1.467-1.314,2-2.056,2-3.014
				c0-1.122-0.89-1.837-1.932-1.837C-24.147,64.111-24.859,64.688-25.626,65.755z"/>
			<path fill="#939598" d="M-17.751,63.276h1.287v0.068l-1.108,3.656h-0.59L-17.751,63.276z"/>
			<path fill="#939598" d="M-10.807,73.032c-2.479,0-4.042-2.248-4.042-4.945c0-2.698,1.588-4.975,4.069-4.975
				c2.467,0,4.029,2.247,4.029,4.945S-8.34,73.032-10.807,73.032z M-10.807,64.1c-1.795,0-2.917,1.835-2.917,3.959
				c0,2.125,1.15,3.987,2.945,3.987c1.795,0,2.905-1.851,2.905-3.959C-7.875,65.976-9.011,64.1-10.807,64.1z"/>
			<path fill="#939598" d="M-4.604,63.276h1.275v0.068l-1.11,3.656h-0.575L-4.604,63.276z M-1.919,63.276h1.262v0.068l-1.11,3.656
				h-0.575L-1.919,63.276z"/>
			<path fill="#939598" d="M11.558,72.866h-1.22l-2.19-2.891l-2.206,2.891H4.764l2.782-3.604l-2.67-3.479h1.205l2.095,2.74
				l2.096-2.74h1.178l-2.687,3.452L11.558,72.866z"/>
			<path fill="#939598" d="M18.925,63.209h0.793v9.659H18.65v-8.535l-1.807,0.562l-0.26-0.877L18.925,63.209z"/>
			<path fill="#939598" d="M23.827,63.209h0.794v9.659h-1.067v-8.535l-1.809,0.562l-0.26-0.877L23.827,63.209z"/>
			<path fill="#939598" d="M27.306,63.276h1.287v0.068l-1.109,3.656h-0.59L27.306,63.276z"/>
			<path fill="#939598" d="M30.552,64.249v-0.973h6.123v0.794l-3.014,3.342c1.685,0.137,3.166,0.945,3.166,2.712
				c0,1.728-1.425,2.905-3.206,2.905c-1.602,0-2.794-0.701-3.576-1.714l0.78-0.699c0.74,0.906,1.63,1.427,2.81,1.427
				c1.164,0,2.096-0.74,2.096-1.877c0-1.205-1.097-1.863-2.686-1.863H32.43l-0.22-0.645l3.028-3.411h-4.687V64.249z"/>
			<path fill="#939598" d="M39.057,63.276h1.273v0.068l-1.108,3.656h-0.575L39.057,63.276z M41.74,63.276h1.262v0.068l-1.108,3.656
				h-0.575L41.74,63.276z"/>
		</g>
		<g enable-background="new    ">
			<path fill="#939598" d="M182.491,47.553h1.081v8.59h5.397v1h-6.479V47.553z"/>
			<path fill="#939598" d="M190.819,48.512v-1.164h1.206v1.164H190.819z M190.887,57.144v-7.083h1.053v7.083H190.887z"/>
			<path fill="#939598" d="M199.641,50.061h1.137l-3.082,7.137h-0.933l-3.068-7.137h1.165l2.384,5.877L199.641,50.061z"/>
			<path fill="#939598" d="M202.458,48.512v-1.164h1.206v1.164H202.458z M202.527,57.144v-7.083h1.055v7.083H202.527z"/>
			<path fill="#939598" d="M207.087,57.144h-1.052v-7.083h1.052v1.234c0.465-0.768,1.205-1.385,2.425-1.385
				c1.713,0,2.713,1.152,2.713,2.837v4.398h-1.054v-4.14c0-1.314-0.714-2.136-1.959-2.136c-1.22,0-2.125,0.89-2.125,2.218V57.144z"
				/>
			<path fill="#939598" d="M217.607,59.362c-1.18,0-2.274-0.329-3.22-0.985l0.479-0.821c0.809,0.589,1.712,0.904,2.726,0.904
				c1.561,0,2.575-0.863,2.575-2.52v-0.838c-0.616,0.823-1.479,1.493-2.78,1.493c-1.698,0-3.33-1.261-3.33-3.33
				c0-2.081,1.644-3.357,3.33-3.357c1.329,0,2.19,0.659,2.766,1.426v-1.274h1.056v5.85
				C221.211,58.199,219.784,59.362,217.607,59.362z M217.594,50.842c-1.342,0-2.452,0.918-2.452,2.398
				c0,1.451,1.137,2.424,2.452,2.424c1.343,0,2.604-0.958,2.604-2.41C220.198,51.787,218.937,50.842,217.594,50.842z"/>
			<path fill="#939598" d="M229.427,46.211l-6.357,12.687h-0.972l6.356-12.687H229.427z"/>
			<path fill="#939598" d="M234.029,57.144h-3.329v-9.59h3.329c3.014,0,5.094,2.068,5.094,4.782S237.043,57.144,234.029,57.144z
				 M234.029,48.555h-2.247v7.588h2.247c2.424,0,3.972-1.644,3.972-3.779C238,50.227,236.452,48.555,234.029,48.555z"/>
			<path fill="#939598" d="M241.258,48.512v-1.164h1.205v1.164H241.258z M241.326,57.144v-7.083h1.054v7.083H241.326z"/>
			<path fill="#939598" d="M245.887,57.144h-1.055v-7.083h1.055v1.234c0.465-0.768,1.205-1.385,2.426-1.385
				c1.712,0,2.71,1.152,2.71,2.837v4.398h-1.054v-4.14c0-1.314-0.712-2.136-1.958-2.136c-1.221,0-2.124,0.89-2.124,2.218V57.144z"/>
			<path fill="#939598" d="M253.296,48.512v-1.164h1.206v1.164H253.296z M253.366,57.144v-7.083h1.054v7.083H253.366z"/>
			<path fill="#939598" d="M257.926,57.144h-1.054v-7.083h1.054v1.234c0.467-0.768,1.206-1.385,2.425-1.385
				c1.712,0,2.714,1.152,2.714,2.837v4.398h-1.056v-4.14c0-1.314-0.713-2.136-1.958-2.136c-1.221,0-2.124,0.89-2.124,2.218
				L257.926,57.144L257.926,57.144z"/>
			<path fill="#939598" d="M268.446,59.362c-1.179,0-2.275-0.329-3.221-0.985l0.48-0.821c0.807,0.589,1.714,0.904,2.727,0.904
				c1.56,0,2.574-0.863,2.574-2.52v-0.838c-0.615,0.823-1.48,1.493-2.78,1.493c-1.698,0-3.329-1.261-3.329-3.33
				c0-2.081,1.646-3.357,3.329-3.357c1.328,0,2.19,0.659,2.767,1.426v-1.274h1.056v5.85
				C272.049,58.199,270.621,59.362,268.446,59.362z M268.432,50.842c-1.345,0-2.451,0.918-2.451,2.398
				c0,1.451,1.135,2.424,2.451,2.424c1.342,0,2.603-0.958,2.603-2.41C271.034,51.787,269.774,50.842,268.432,50.842z"/>
			<path fill="#939598" d="M285.291,57.144l-2.78-3.727h-2.741v3.727h-1.082v-9.59h4.122c2.112,0,3.467,1.137,3.467,2.864
				c0,1.603-1.095,2.534-2.602,2.808l2.945,3.919H285.291z M282.729,48.555h-2.959v3.89h2.946c1.438,0,2.467-0.739,2.467-1.987
				C285.183,49.265,284.279,48.555,282.729,48.555z"/>
			<path fill="#939598" d="M291.508,57.31c-2.124,0-3.671-1.673-3.671-3.687c0-2.013,1.561-3.713,3.699-3.713
				c2.125,0,3.684,1.673,3.684,3.687C295.219,55.609,293.644,57.31,291.508,57.31z M291.508,50.842c-1.535,0-2.589,1.22-2.589,2.754
				c0,1.535,1.122,2.768,2.617,2.768c1.535,0,2.602-1.221,2.602-2.741C294.137,52.075,293.001,50.842,291.508,50.842z"/>
			<path fill="#939598" d="M300.355,57.31c-2.124,0-3.671-1.673-3.671-3.687c0-2.013,1.561-3.713,3.699-3.713
				c2.123,0,3.686,1.673,3.686,3.687C304.069,55.609,302.493,57.31,300.355,57.31z M300.355,50.842c-1.534,0-2.589,1.22-2.589,2.754
				c0,1.535,1.123,2.768,2.617,2.768c1.535,0,2.604-1.221,2.604-2.741C302.987,52.075,301.85,50.842,300.355,50.842z"/>
			<path fill="#939598" d="M314.081,49.909c1.627,0,2.631,1.097,2.631,2.85v4.385h-1.056v-4.138c0-1.369-0.685-2.136-1.837-2.136
				c-1.066,0-1.957,0.792-1.957,2.191v4.083h-1.043v-4.164c0-1.33-0.698-2.11-1.822-2.11c-1.122,0-1.972,0.931-1.972,2.232v4.042
				h-1.054v-7.083h1.054v1.192c0.467-0.698,1.097-1.344,2.287-1.344c1.153,0,1.892,0.617,2.275,1.413
				C312.092,50.541,312.847,49.909,314.081,49.909z"/>
		</g>
		<g enable-background="new    ">
			<path fill="#939598" d="M212.135,66.771l-0.795-0.575c0.863-1.288,1.769-2.04,3.455-2.04c1.739,0,2.973,1.149,2.973,2.725
				c0,1.412-0.74,2.274-2.427,3.741l-2.562,2.272h5.083v0.987h-6.699v-0.835l3.48-3.069c1.465-1.314,2-2.056,2-3.013
				c0-1.123-0.891-1.837-1.934-1.837C213.613,65.128,212.904,65.703,212.135,66.771z"/>
			<path fill="#939598" d="M220.338,66.771l-0.793-0.575c0.861-1.288,1.766-2.04,3.452-2.04c1.74,0,2.972,1.149,2.972,2.725
				c0,1.412-0.74,2.274-2.425,3.741l-2.562,2.272h5.083v0.987h-6.698v-0.835l3.479-3.069c1.466-1.314,1.998-2.056,1.998-3.013
				c0-1.123-0.889-1.837-1.932-1.837C221.817,65.128,221.106,65.703,220.338,66.771z"/>
			<path fill="#939598" d="M228.213,64.293h1.29v0.068l-1.111,3.656h-0.589L228.213,64.293z"/>
			<path fill="#939598" d="M234.582,74.02c-2.04,0-3.602-1.109-3.602-2.726c0-1.151,0.821-1.96,1.973-2.371
				c-0.892-0.412-1.645-1.098-1.645-2.22c0-1.491,1.521-2.547,3.273-2.547c1.752,0,3.274,1.054,3.274,2.547
				c0,1.122-0.755,1.808-1.644,2.22c1.135,0.425,1.973,1.205,1.973,2.355C238.186,72.924,236.624,74.02,234.582,74.02z
				 M234.582,69.43c-1.396,0-2.505,0.754-2.505,1.836c0,0.985,0.93,1.808,2.505,1.808s2.507-0.822,2.507-1.808
				C237.089,70.185,235.98,69.43,234.582,69.43z M234.582,65.103c-1.245,0-2.19,0.698-2.19,1.67c0,1.055,0.974,1.769,2.19,1.769
				c1.221,0,2.192-0.714,2.192-1.769C236.775,65.812,235.829,65.103,234.582,65.103z"/>
			<path fill="#939598" d="M240.196,64.293h1.274v0.068l-1.108,3.656h-0.575L240.196,64.293z M242.882,64.293h1.262v0.068
				l-1.111,3.656h-0.574L242.882,64.293z"/>
			<path fill="#939598" d="M256.358,73.883h-1.219l-2.193-2.891l-2.203,2.891h-1.178l2.781-3.604l-2.671-3.479h1.204l2.097,2.741
				l2.097-2.741h1.176l-2.685,3.453L256.358,73.883z"/>
			<path fill="#939598" d="M263.726,64.226h0.794v9.659h-1.068V65.35l-1.808,0.562l-0.262-0.876L263.726,64.226z"/>
			<path fill="#939598" d="M268.628,64.226h0.794v9.659h-1.068V65.35l-1.808,0.562l-0.262-0.876L268.628,64.226z"/>
			<path fill="#939598" d="M272.108,64.293h1.288v0.068l-1.111,3.656h-0.589L272.108,64.293z"/>
			<path fill="#939598" d="M275.353,65.266v-0.973h6.123v0.794l-3.013,3.342c1.684,0.137,3.164,0.944,3.164,2.712
				c0,1.728-1.427,2.905-3.205,2.905c-1.603,0-2.794-0.7-3.576-1.714l0.782-0.698c0.738,0.905,1.628,1.426,2.807,1.426
				c1.167,0,2.097-0.74,2.097-1.877c0-1.205-1.097-1.863-2.685-1.863h-0.617l-0.22-0.645l3.028-3.411h-4.686V65.266z"/>
			<path fill="#939598" d="M283.858,64.293h1.275v0.068l-1.109,3.656h-0.576L283.858,64.293z M286.541,64.293h1.262v0.068
				l-1.109,3.656h-0.574L286.541,64.293z"/>
		</g>
		<g enable-background="new    ">
			<path fill="#939598" d="M274.124,248.131v1.813h2.632v0.841h-7.461v-2.794c0-1.683,0.896-2.791,2.378-2.791
				C273.291,245.2,274.124,246.544,274.124,248.131z M270.074,248.057v1.888h3.281v-1.846c0-1.237-0.66-2.047-1.651-2.047
				C270.627,246.054,270.074,246.853,270.074,248.057z"/>
			<path fill="#939598" d="M272.302,243.596l-0.672,0.243c-0.276-0.606-0.458-1.203-0.458-2.003c0-1.501,0.768-2.345,2.218-2.345
				h3.367v0.79h-0.831c0.501,0.385,0.948,1.025,0.948,1.994c0,1.024-0.575,2.057-1.727,2.057c-1.174,0-1.792-0.958-1.792-2.354
				c0-0.704,0.097-1.205,0.234-1.695h-0.191c-0.991,0-1.502,0.607-1.502,1.642C271.897,242.571,272.068,243.084,272.302,243.596z
				 M275.115,243.499c0.702,0,1.106-0.641,1.106-1.387c0-1.011-0.616-1.843-1.49-1.843h-0.532c-0.117,0.404-0.234,0.948-0.234,1.62
				C273.965,242.924,274.412,243.499,275.115,243.499z"/>
			<path fill="#939598" d="M276.757,236.926v0.82h-5.51v-0.82h0.96c-0.598-0.362-1.078-0.936-1.078-1.884
				c0-1.335,0.896-2.112,2.207-2.112h3.421v0.822h-3.219c-1.022,0-1.663,0.553-1.663,1.523c0,0.947,0.692,1.65,1.727,1.65H276.757
				L276.757,236.926z"/>
			<path fill="#939598" d="M275.19,230.078c0.672,0,0.918-0.374,0.918-0.928c0-0.277-0.054-0.511-0.193-0.798h0.705
				c0.148,0.287,0.233,0.596,0.233,0.988c0,0.886-0.438,1.558-1.557,1.558h-3.325v0.767h-0.726v-0.767h-1.663v-0.82h1.663v-1.748
				h0.726v1.748H275.19z"/>
			<path fill="#939598" d="M276.757,226.062v0.82h-5.51v-0.82h1.438c-0.917-0.406-1.577-1.205-1.534-2.249h0.883v0.062
				c0,1.204,0.863,2.187,2.526,2.187H276.757L276.757,226.062z"/>
			<path fill="#939598" d="M276.939,219.884c1.14,0.468,1.555,1,1.555,1.831c0,0.46-0.096,0.799-0.276,1.174l-0.651-0.279
				c0.138-0.267,0.202-0.512,0.202-0.862c0-0.49-0.256-0.8-1.033-1.129l-5.489,2.505v-0.906l4.594-2.003l-4.594-1.771v-0.872
				L276.939,219.884z"/>
		</g>
	</g>
</g>
</svg>
