<?xml version="1.0" encoding="utf-8"?>
<!-- Generator: Adobe Illustrator 15.0.2, SVG Export Plug-In . SVG Version: 6.00 Build 0)  -->
<!DOCTYPE svg PUBLIC "-//W3C//DTD SVG 1.1//EN" "http://www.w3.org/Graphics/SVG/1.1/DTD/svg11.dtd">
<svg version="1.1" id="Layer_1" xmlns="http://www.w3.org/2000/svg" xmlns:xlink="http://www.w3.org/1999/xlink" x="0px" y="0px"
	 width="500px" height="500px" viewBox="-19.592 -144.149 500 500" enable-background="new -19.592 -144.149 500 500"
	 xml:space="preserve">
<g id="_x32_0_x25___PMS_2985_fill" display="none">
	<polygon display="inline" fill="#EBEEEF" points="2.713,19.591 2.713,210.257 448.175,210.257 448.175,180.257 458.713,180.257 
		458.713,16.924 236.198,16.924 236.198,8.258 98.584,8.258 98.584,18.258 	"/>
</g>
<g>
	<g id="_x32_0_x25__grey_fill">
		<rect x="41.387" y="200.875" fill="#D1D3D4" width="26.309" height="16.124"/>
		<rect x="88.479" y="-0.507" fill="#D1D3D4" width="53.414" height="16.415"/>
	</g>
	<g id="icons">
		<g>
			<g>
				<rect x="40.49" y="149.911" fill="#FFFFFF" stroke="#939598" width="25.396" height="49.119"/>
				<path fill="#FFFFFF" stroke="#939598" d="M53.188,174.471"/>
				<path fill="#FFFFFF" stroke="#939598" d="M53.188,174.639"/>
				<path fill="#FFFFFF" stroke="#939598" d="M53.188,191.292"/>
			</g>
			<circle fill="#FFFFFF" stroke="#939598" cx="53.308" cy="187.835" r="1.041"/>
			<path fill="#FFFFFF" stroke="#939598" d="M53.266,152.715c-7.279,0-9.944,1.68-9.944,4.033c0,0,0,35.301,0,35.878
				c0,0.575,0.156,1.764,1.678,1.764c1.524,0,8.266,0,8.266,0h0.018c0,0,6.742,0,8.267,0c1.522,0,1.678-1.188,1.678-1.764
				c0-0.577,0-35.854,0-35.854l-0.002-0.023C63.225,154.395,60.5,152.715,53.266,152.715z"/>
			<path fill="#FFFFFF" stroke="#939598" d="M51.124,196.216c0.002-0.59-0.473-1.062-1.069-1.062c-0.577,0-1.056,0.472-1.06,1.062
				c0.004,0.586,0.483,1.07,1.06,1.07C50.65,197.287,51.125,196.809,51.124,196.216z"/>
			<path fill="#FFFFFF" stroke="#939598" d="M57.725,196.216c0.006-0.59-0.478-1.062-1.064-1.062c-0.584,0-1.064,0.472-1.064,1.062
				c0,0.586,0.48,1.07,1.064,1.062C57.249,197.287,57.725,196.802,57.725,196.216z"/>
			<path fill="#FFFFFF" stroke="#939598" d="M51.875,196.531c0,0.872,0.59,1.58,1.463,1.582c0.872-0.002,1.347-0.707,1.347-1.582
				l-0.56-6.011c0-0.591-1.593-0.591-1.593,0L51.875,196.531z"/>
		</g>
		<g>
			<polygon fill="none" stroke="#939598" points="333.27,217.761 331.475,217.776 331.459,192.171 333.278,192.157 			"/>
			<path fill="none" stroke="#939598" d="M332.421,192.136c-14.097,0.478-25.136,12.136-24.655,26.231"/>
		</g>
		<g>
			<polygon fill="none" stroke="#939598" points="120.701,113.505 120.692,111.8 96.368,111.783 96.376,113.49 			"/>
			<path fill="none" stroke="#939598" d="M96.357,112.721c0.455-13.393,11.464-23.718,24.855-23.261"/>
		</g>
		<g>
			<polygon fill="none" stroke="#939598" points="35.397,147.773 33.604,147.76 33.586,173.365 35.405,173.377 			"/>
			<path fill="none" stroke="#939598" d="M34.549,173.399c-14.097-0.479-25.136-12.136-24.656-26.232"/>
		</g>
		<g>
			<g>
				<polygon fill="none" stroke="#939598" points="280.693,207.37 280.7,206.021 295.534,206.009 295.527,207.363 				"/>
				<path fill="none" stroke="#939598" d="M295.54,206.893c-0.275-8.167-6.991-14.562-15.157-14.283"/>
			</g>
			<g>
				<polygon fill="none" stroke="#939598" points="280.693,177.774 280.7,179.125 295.534,179.138 295.527,177.783 				"/>
				<path fill="none" stroke="#939598" d="M295.54,178.25c-0.275,8.168-6.991,14.563-15.157,14.284"/>
			</g>
		</g>
		<g>
			<polygon fill="none" stroke="#939598" points="76.627,147.773 78.422,147.76 78.439,173.365 76.62,173.377 			"/>
			<path fill="none" stroke="#939598" d="M77.475,173.399c14.097-0.479,25.136-12.136,24.656-26.232"/>
		</g>
		<g>
			<polygon fill="none" stroke="#939598" points="281.156,161.168 281.165,159.463 305.487,159.447 305.48,161.154 			"/>
			<path fill="none" stroke="#939598" d="M305.498,160.384c-0.454-13.393-11.464-23.88-24.854-23.422"/>
		</g>
		<g>
			<polygon fill="none" stroke="#939598" points="422.695,118.956 424.491,118.944 424.507,144.548 422.688,144.562 			"/>
			<path fill="none" stroke="#939598" d="M423.544,144.582c14.096-0.479,25.137-12.136,24.655-26.232"/>
		</g>
		<g>
			<polygon fill="none" stroke="#939598" points="343.41,151.5 344.672,150.22 362.788,168.313 361.513,169.61 			"/>
			<path fill="none" stroke="#939598" d="M362.131,169.02c9.629-10.306,9.193-26.355-1.115-35.984"/>
		</g>
		<g>
			<polygon fill="none" stroke="#939598" points="372.674,112.454 371.395,111.195 389.488,93.077 390.784,94.354 			"/>
			<path fill="none" stroke="#939598" d="M390.192,93.733c-10.306-9.628-26.354-9.191-35.983,1.115"/>
		</g>
		<g>
			<g>
				<g>
					<g>
						<rect x="256.666" y="138.167" fill="#FFFFFF" stroke="#939598" width="19.936" height="21.702"/>
						<path fill="#FFFFFF" stroke="#939598" d="M267.296,149.018"/>
						<polyline fill="#FFFFFF" stroke="#939598" points="270.653,142.434 273.687,142.434 274.395,145.054 274.395,153.082 
							273.687,155.737 270.653,155.737 						"/>
						<line fill="none" stroke="#939598" x1="270.653" y1="160.025" x2="270.653" y2="138.167"/>
						<path fill="#FFFFFF" stroke="#939598" d="M268.313,149.085"/>
					</g>
				</g>
			</g>
			<polygon fill="#FFFFFF" stroke="#939598" points="271.961,158.813 271.966,157.061 270.743,156.675 270.737,159.199 			"/>
		</g>
		<line fill="none" stroke="#939598" x1="268.078" y1="215.925" x2="268.078" y2="168.605"/>
		
			<line fill="none" stroke="#939598" stroke-dasharray="1.5,1.5,1.5,1.5,1.5,1.5" x1="265.535" y1="215.925" x2="265.535" y2="168.471"/>
		<polygon fill="#FFFFFF" stroke="#939598" points="6.018,180.807 6.018,147.841 -12.84,147.841 -12.84,181.167 		"/>
		<g>
			<path fill="#FFFFFF" stroke="#939598" stroke-miterlimit="10" d="M20.146,200.58c0-4.797,2.915-10.08,6.507-10.08
				c3.592,0,6.494,5.283,6.494,10.08c0,4.798-2.902,7.294-6.494,7.294C23.061,207.874,20.146,205.377,20.146,200.58"/>
			<path fill="#FFFFFF" stroke="#939598" d="M20.146,200.58c0-4.797,2.915-10.08,6.507-10.08c3.592,0,6.494,5.283,6.494,10.08
				c0,4.798-2.902,7.294-6.494,7.294C23.061,207.874,20.146,205.377,20.146,200.58z"/>
			<path fill="#FFFFFF" stroke="#939598" stroke-miterlimit="10" d="M30.548,206.301c0-0.269,0.22-0.489,0.489-0.489h2.266
				c0.269,0,0.489,0.221,0.489,0.489v0.081c0,0.269-0.22,0.489-0.489,0.489h-2.266c-0.269,0-0.489-0.221-0.489-0.489V206.301z"/>
			<path fill="#FFFFFF" stroke="#939598" d="M30.548,206.301c0-0.269,0.22-0.489,0.489-0.489h2.266c0.269,0,0.489,0.221,0.489,0.489
				v0.081c0,0.269-0.22,0.489-0.489,0.489h-2.266c-0.269,0-0.489-0.221-0.489-0.489V206.301z"/>
			<path fill="#FFFFFF" stroke="#939598" stroke-miterlimit="10" d="M34.137,206.885c0.814,0,1.478,2.211,1.478,3.026
				c0,0.828-0.664,3.037-1.478,3.037H19.286c-0.817,0-1.478-2.211-1.478-3.037c0-0.817,0.661-3.024,1.478-3.024L34.137,206.885z"/>
			<path fill="#FFFFFF" stroke="#939598" d="M34.137,206.885c0.814,0,1.478,2.211,1.478,3.026c0,0.828-0.664,3.037-1.478,3.037
				H19.286c-0.817,0-1.478-2.211-1.478-3.037c0-0.817,0.661-3.024,1.478-3.024L34.137,206.885z"/>
			<path fill="#FFFFFF" stroke="#939598" stroke-miterlimit="10" d="M21.87,200.377c0-3.524,2.142-7.41,4.783-7.41
				c2.641,0,4.78,3.884,4.78,7.41s-2.139,5.359-4.78,5.359C24.011,205.737,21.87,203.904,21.87,200.377"/>
			<path fill="#FFFFFF" stroke="#939598" d="M21.87,200.377c0-3.524,2.142-7.41,4.783-7.41c2.641,0,4.78,3.884,4.78,7.41
				s-2.139,5.359-4.78,5.359C24.011,205.737,21.87,203.904,21.87,200.377z"/>
		</g>
		<g>
			<g>
				<g>
					<path fill="none" stroke="#939598" d="M-1.116,164.312"/>
				</g>
				<g>
					<path fill="none" stroke="#939598" d="M-2.257,164.312"/>
				</g>
				<g>
					<circle fill="none" stroke="#939598" cx="-1.116" cy="164.311" r="1.094"/>
					<path fill="none" stroke="#939598" d="M-1.116,164.312"/>
				</g>
				<g>
					<g>
						<rect x="-10.253" y="159.726" fill="none" stroke="#939598" width="2.284" height="9.194"/>
						<path fill="none" stroke="#939598" d="M-9.11,164.312"/>
					</g>
					<g>
						<rect x="-7.868" y="163.825" fill="none" stroke="#939598" width="4.333" height="0.974"/>
						<path fill="none" stroke="#939598" d="M-6.071,164.312"/>
					</g>
					<g>
						<circle fill="none" stroke="#939598" cx="-9.089" cy="164.312" r="1.06"/>
						<path fill="none" stroke="#939598" d="M-9.089,164.312"/>
					</g>
				</g>
			</g>
			<g>
				<rect x="-10.603" y="155.144" fill="none" stroke="#939598" width="14.916" height="18.356"/>
				<rect x="-7.915" y="156.642" fill="none" stroke="#939598" width="10.729" height="15.324"/>
			</g>
		</g>
		<g>
			<g>
				<polygon fill="none" stroke="#939598" points="5.257,208.708 5.26,207.463 15.645,207.456 15.64,208.704 				"/>
				<path fill="none" stroke="#939598" d="M15.649,208.375c-0.192-5.717-4.894-10.193-10.61-9.998"/>
			</g>
			<g>
				<polygon fill="none" stroke="#939598" points="5.257,187.991 5.26,189.331 15.645,189.338 15.64,187.998 				"/>
				<path fill="none" stroke="#939598" d="M15.649,188.327c-0.192,5.718-4.894,10.193-10.61,9.998"/>
			</g>
		</g>
		<polyline fill="none" stroke="#939598" points="68.233,204.457 108.187,204.457 108.187,149.094 		"/>
		<polyline fill="none" stroke="#939598" stroke-dasharray="1.5,1.5,1.5,1.5,1.5,1.5" points="110.856,148.737 110.856,206.966 
			69.128,206.966 		"/>
		
			<line fill="none" stroke="#939598" stroke-dasharray="1.5,1.5,1.5,1.5,1.5,1.5" x1="462.935" y1="204.504" x2="419.755" y2="204.504"/>
		
			<line fill="none" stroke="#939598" stroke-dasharray="1.5,1.5,1.5,1.5,1.5,1.5" x1="465.264" y1="120.787" x2="465.264" y2="184.39"/>
		<line fill="none" stroke="#939598" x1="463.113" y1="202.308" x2="419.935" y2="202.308"/>
		<line fill="none" stroke="#939598" x1="463.057" y1="120.607" x2="463.057" y2="185.287"/>
		<g>
			<rect x="232.774" y="1.172" fill="none" stroke="#939598" width="3.091" height="3.09"/>
			<line fill="none" stroke="#939598" x1="139.909" y1="3.457" x2="232.774" y2="3.457"/>
			<line fill="none" stroke="#939598" x1="232.796" y1="4.262" x2="232.796" y2="10.33"/>
			<line fill="none" stroke="#939598" x1="235.865" y1="4.262" x2="235.865" y2="10.599"/>
			<line fill="none" stroke="#939598" x1="232.774" y1="1.172" x2="139.64" y2="1.172"/>
		</g>
		<polygon fill="#FFFFFF" stroke="#939598" points="378.277,215.632 378.277,195.564 338.895,195.564 338.895,215.828 		"/>
		<g>
			<path fill="#FFFFFF" stroke="#939598" stroke-miterlimit="10" d="M392.334,135.014c0,4.796,2.915,10.078,6.507,10.078
				c3.594,0,6.494-5.282,6.494-10.078c0-4.798-2.9-7.294-6.494-7.294C395.249,127.72,392.334,130.216,392.334,135.014"/>
			<path fill="#FFFFFF" stroke="#939598" d="M392.334,135.014c0,4.796,2.915,10.078,6.507,10.078c3.594,0,6.494-5.282,6.494-10.078
				c0-4.798-2.9-7.294-6.494-7.294C395.249,127.72,392.334,130.216,392.334,135.014z"/>
			<path fill="#FFFFFF" stroke="#939598" stroke-miterlimit="10" d="M402.734,129.292c0,0.269,0.221,0.489,0.489,0.489h2.266
				c0.269,0,0.489-0.221,0.489-0.489v-0.083c0-0.269-0.221-0.489-0.489-0.489h-2.266c-0.269,0-0.489,0.221-0.489,0.489V129.292z"/>
			<path fill="#FFFFFF" stroke="#939598" d="M402.734,129.292c0,0.269,0.221,0.489,0.489,0.489h2.266
				c0.269,0,0.489-0.221,0.489-0.489v-0.083c0-0.269-0.221-0.489-0.489-0.489h-2.266c-0.269,0-0.489,0.221-0.489,0.489V129.292z"/>
			<path fill="#FFFFFF" stroke="#939598" stroke-miterlimit="10" d="M406.323,128.708c0.814,0,1.478-2.212,1.478-3.026
				c0-0.827-0.663-3.038-1.478-3.038h-14.851c-0.816,0-1.479,2.212-1.479,3.038c0,0.816,0.662,3.024,1.479,3.024L406.323,128.708z"
				/>
			<path fill="#FFFFFF" stroke="#939598" d="M406.323,128.708c0.814,0,1.478-2.212,1.478-3.026c0-0.827-0.663-3.038-1.478-3.038
				h-14.851c-0.816,0-1.479,2.212-1.479,3.038c0,0.816,0.662,3.024,1.479,3.024L406.323,128.708z"/>
			<path fill="#FFFFFF" stroke="#939598" stroke-miterlimit="10" d="M394.058,135.213c0,3.525,2.142,7.409,4.782,7.409
				c2.642,0,4.781-3.883,4.781-7.409c0-3.525-2.14-5.358-4.781-5.358C396.199,129.855,394.058,131.688,394.058,135.213"/>
			<path fill="#FFFFFF" stroke="#939598" d="M394.058,135.213c0,3.525,2.142,7.409,4.782,7.409c2.642,0,4.781-3.883,4.781-7.409
				c0-3.525-2.14-5.358-4.781-5.358C396.199,129.855,394.058,131.688,394.058,135.213z"/>
		</g>
		<g>
			<g>
				<g>
					<path fill="none" stroke="#939598" d="M362.244,203.652"/>
				</g>
				<g>
					<path fill="none" stroke="#939598" d="M362.244,204.793"/>
				</g>
				<g>
					<circle fill="none" stroke="#939598" cx="362.244" cy="203.651" r="1.093"/>
					<path fill="none" stroke="#939598" d="M362.244,203.652"/>
				</g>
				<g>
					<g>
						<rect x="357.636" y="210.504" fill="none" stroke="#939598" width="9.193" height="2.285"/>
						<path fill="none" stroke="#939598" d="M362.244,211.647"/>
					</g>
					<g>
						<rect x="361.757" y="206.071" fill="none" stroke="#939598" width="0.975" height="4.333"/>
						<path fill="none" stroke="#939598" d="M362.244,208.607"/>
					</g>
					<g>
						<circle fill="none" stroke="#939598" cx="362.244" cy="211.624" r="1.06"/>
						<path fill="none" stroke="#939598" d="M362.244,211.624"/>
					</g>
				</g>
			</g>
			<g>
				<rect x="353.055" y="198.223" fill="none" stroke="#939598" width="18.357" height="14.916"/>
				<rect x="354.589" y="199.721" fill="none" stroke="#939598" width="15.325" height="10.729"/>
			</g>
		</g>
		<rect x="171.611" y="128.849" fill="#FFFFFF" stroke="#939598" width="50.525" height="25.084"/>
		<polyline fill="#FFFFFF" stroke="#939598" points="209.761,193.751 142.666,193.751 142.666,127.804 122.688,127.865 
			122.688,215.609 250.558,215.183 250.558,193.751 248.899,193.751 		"/>
		<g>
			<g>
				<rect x="123.819" y="151.63" fill="#FFFFFF" stroke="#939598" width="21.231" height="24.993"/>
				<path fill="#FFFFFF" stroke="#939598" d="M134.434,164.126"/>
			</g>
			<g>
				<g>
					<circle fill="#FFFFFF" stroke="#939598" cx="140.347" cy="169.841" r="3.035"/>
					<path fill="#FFFFFF" stroke="#939598" d="M140.347,169.842"/>
				</g>
				<g>
					<circle fill="#FFFFFF" stroke="#939598" stroke-width="0.8" cx="140.346" cy="169.871" r="2.138"/>
					<path fill="#FFFFFF" stroke="#939598" d="M140.347,169.872"/>
				</g>
			</g>
			<g>
				<g>
					<circle fill="#FFFFFF" stroke="#939598" cx="131.479" cy="157.708" r="3.036"/>
					<path fill="#FFFFFF" stroke="#939598" d="M131.479,157.708"/>
				</g>
				<g>
					<circle fill="#FFFFFF" stroke="#939598" stroke-width="0.8" cx="131.477" cy="157.676" r="2.138"/>
					<path fill="#FFFFFF" stroke="#939598" d="M131.479,157.677"/>
				</g>
			</g>
			<g>
				<g>
					<circle fill="#FFFFFF" stroke="#939598" cx="131.508" cy="169.881" r="3.461"/>
					<path fill="#FFFFFF" stroke="#939598" d="M131.508,169.88"/>
				</g>
				<g>
					<circle fill="#FFFFFF" stroke="#939598" stroke-width="0.8" cx="131.508" cy="169.848" r="2.437"/>
					<path fill="#FFFFFF" stroke="#939598" d="M131.508,169.848"/>
				</g>
			</g>
			<g>
				<g>
					<circle fill="#FFFFFF" stroke="#939598" cx="140.581" cy="157.721" r="3.46"/>
					<path fill="#FFFFFF" stroke="#939598" d="M140.581,157.721"/>
				</g>
				<g>
					<circle fill="#FFFFFF" stroke="#939598" stroke-width="0.8" cx="140.581" cy="157.688" r="2.438"/>
					<path fill="#FFFFFF" stroke="#939598" d="M140.581,157.687"/>
				</g>
			</g>
			<line fill="none" stroke="#939598" x1="126.756" y1="176.657" x2="126.756" y2="151.63"/>
			<line fill="none" stroke="#939598" x1="125.583" y1="176.624" x2="125.583" y2="151.63"/>
		</g>
		<g>
			<polyline fill="none" stroke="#939598" stroke-dasharray="1.5,1,1.5,1,1.5,1" points="154.815,192.495 154.815,211.704 
				173.656,211.704 173.656,192.925 			"/>
			<polyline fill="#FFFFFF" stroke="#939598" points="173.685,192.925 173.685,191.782 154.815,191.782 154.815,192.486 			"/>
		</g>
		<line fill="none" stroke="#939598" x1="236.818" y1="192.844" x2="236.818" y2="214.39"/>
		<g>
			<g>
				<g>
					<polygon fill="none" stroke="#939598" stroke-width="0.7" points="243.23,184.113 241.887,184.852 247.486,194.088 
						248.83,193.35 					"/>
					<path fill="none" stroke="#939598" stroke-width="0.8" d="M246.38,189.849"/>
				</g>
				<path fill="none" stroke="#939598" stroke-width="0.8" d="M242.716,184.558c-3.44,2.085-5.295,5.799-5.169,9.554"/>
			</g>
		</g>
		<g>
			<g>
				<path fill="#FFFFFF" stroke="#939598" d="M203.338,211.519c0.458,0,0.829-0.37,0.829-0.827v-14.454
					c0-0.457-0.372-0.829-0.829-0.829h-24.517c-0.458,0-0.828,0.372-0.828,0.829v14.454c0,0.46,0.37,0.827,0.828,0.827H203.338z"/>
				<path fill="#FFFFFF" stroke="#939598" d="M191.167,204.089"/>
			</g>
			<g>
				<circle fill="#FFFFFF" stroke="#939598" cx="191.167" cy="203.11" r="0.937"/>
				<path fill="#FFFFFF" stroke="#939598" d="M191.167,203.11"/>
			</g>
			<g>
				<g>
					<rect x="187.077" y="208.986" fill="#FFFFFF" stroke="#939598" width="8.18" height="1.957"/>
					<path fill="#FFFFFF" stroke="#939598" d="M191.167,209.965"/>
				</g>
				<g>
					<rect x="190.75" y="205.182" fill="#FFFFFF" stroke="#939598" width="0.835" height="3.855"/>
					<path fill="#FFFFFF" stroke="#939598" d="M191.167,207.36"/>
				</g>
				<g>
					<circle fill="#FFFFFF" stroke="#939598" cx="191.167" cy="209.946" r="0.911"/>
					<path fill="#FFFFFF" stroke="#939598" d="M191.167,209.947"/>
				</g>
			</g>
			<g>
				<path fill="#FFFFFF" stroke="#939598" d="M191.167,203.11"/>
				<path fill="none" stroke="#939598" d="M191.673,208.31h10.307c0.481,0,0.872-0.39,0.872-0.871v-9.912
					c0-0.479-0.39-0.87-0.872-0.87H180.18c-0.481,0-0.872,0.39-0.872,0.87v9.912c0,0.481,0.39,0.871,0.872,0.871h10.457"/>
			</g>
		</g>
		<g>
			<g>
				<g>
					<rect x="208.433" y="189.941" fill="#FFFFFF" stroke="#939598" width="26.771" height="23.616"/>
					<path fill="#FFFFFF" stroke="#939598" d="M223.205,201.75"/>
				</g>
				<line fill="none" stroke="#939598" x1="208.37" y1="191.592" x2="235.204" y2="191.592"/>
				<rect x="230.8" y="188.775" fill="#FFFFFF" stroke="#939598" width="2.169" height="1.149"/>
				<path fill="#FFFFFF" stroke="#939598" d="M231.884,189.413"/>
			</g>
		</g>
		<polyline fill="none" stroke="#939598" stroke-dasharray="1.5,1.5,1.5,1.5,1.5,1.5" points="131.836,127.417 131.836,204.816 
			236.648,204.816 		"/>
		<line fill="none" stroke="#939598" x1="2.837" y1="182.242" x2="2.837" y2="216.283"/>
		<g>
			<g>
				<g>
					<rect x="381.728" y="184.691" fill="#FFFFFF" stroke="#939598" width="35.696" height="29.836"/>
					<path fill="#FFFFFF" stroke="#939598" d="M399.911,199.584"/>
				</g>
				<g>
					<polyline fill="#FFFFFF" stroke="#939598" points="383.812,199.294 383.812,187.37 415.286,187.37 415.286,211.844 
						383.812,211.844 383.812,200.395 					"/>
					<path fill="#FFFFFF" stroke="#939598" d="M399.911,199.584"/>
				</g>
				<line fill="none" stroke="#939598" x1="383.812" y1="211.844" x2="398.786" y2="200.408"/>
				<line fill="none" stroke="#939598" x1="401.003" y1="198.717" x2="415.286" y2="187.37"/>
				<line fill="none" stroke="#939598" x1="415.286" y1="211.844" x2="401.131" y2="200.519"/>
				<line fill="none" stroke="#939598" x1="398.745" y1="198.686" x2="383.812" y2="187.37"/>
				<g>
					<path fill="#FFFFFF" stroke="#939598" d="M399.911,198.308c0.73,0,1.32,0.714,1.32,1.276c0,0.561-0.59,1.188-1.32,1.188
						c-0.728,0-1.321-0.627-1.321-1.188C398.59,199.022,399.185,198.308,399.911,198.308z"/>
					<path fill="#FFFFFF" stroke="#939598" d="M399.911,199.584"/>
				</g>
			</g>
			<path fill="#FFFFFF" stroke="#939598" d="M385.757,198.348c0.751,0,0.751,2.717,0,2.717s-1.36-0.607-1.36-1.359
				C384.399,198.954,385.006,198.348,385.757,198.348z"/>
			<polyline fill="#FFFFFF" stroke="#939598" points="381.716,199.988 384.316,199.988 384.316,199.23 381.714,199.23 			"/>
		</g>
		<line fill="none" stroke="#939598" x1="246.86" y1="16.784" x2="466.159" y2="16.784"/>
		<line fill="none" stroke="#939598" x1="85.936" y1="17.155" x2="4.953" y2="17.155"/>
	</g>
	<g id="walls">
		<polyline fill="none" stroke="#939598" stroke-width="5" points="145.927,11.956 142.008,11.956 141.893,15.052 87.136,15.052 
			87.136,-1.224 141.965,-1.224 142.022,11.956 		"/>
		<polyline fill="none" stroke="#939598" stroke-width="5" points="333.218,217.011 465.201,217.011 465.201,185.825 
			475.408,185.825 475.408,11.956 219.986,11.956 		"/>
		<polyline fill="none" stroke="#939598" stroke-width="5" points="85.976,11.956 -14.592,11.956 -14.592,217.011 308.052,217.011 
					"/>
		<line fill="none" stroke="#939598" stroke-width="3" x1="120.37" y1="112.904" x2="120.37" y2="217.716"/>
		<line fill="none" stroke="#939598" stroke-width="3" x1="120.37" y1="15.617" x2="120.37" y2="89.307"/>
		<line fill="none" stroke="#939598" stroke-width="3" x1="7.137" y1="15.976" x2="-12.571" y2="15.976"/>
		<line fill="none" stroke="#939598" stroke-width="3" x1="221.778" y1="15.792" x2="246.86" y2="15.792"/>
		<line fill="none" stroke="#939598" stroke-width="3" x1="461.859" y1="15.687" x2="474.76" y2="15.687"/>
		<line fill="none" stroke="#939598" stroke-width="3" x1="324.26" y1="15.803" x2="384.102" y2="15.895"/>
		<polyline fill="none" stroke="#939598" stroke-width="3" points="354.507,94.977 350.061,90.508 340.744,90.508 340.744,16.333 		
			"/>
		<polyline fill="none" stroke="#939598" stroke-width="3" points="422.234,119.175 378.727,119.175 372.991,112.454 		"/>
		<line fill="none" stroke="#939598" stroke-width="3" x1="474.76" y1="119.175" x2="447.885" y2="119.175"/>
		<line fill="none" stroke="#939598" stroke-width="3" x1="361.062" y1="133.565" x2="376.577" y2="117.383"/>
		<polyline fill="none" stroke="#939598" stroke-width="3" points="339.311,215.208 339.311,156.441 343.691,151.85 		"/>
		<line fill="none" stroke="#939598" stroke-width="3" x1="379.802" y1="183.84" x2="379.802" y2="217"/>
		<polyline fill="none" stroke="#939598" stroke-width="3" points="413.844,118.817 413.844,149.275 419.219,154.292 
			419.219,215.566 		"/>
		<line fill="none" stroke="#939598" stroke-width="3" x1="281.261" y1="207.325" x2="281.261" y2="216.641"/>
		<line fill="none" stroke="#939598" stroke-width="3" x1="281.261" y1="161.61" x2="281.261" y2="178.209"/>
		<polyline fill="none" stroke="#939598" stroke-width="3" points="252.953,167.191 252.953,130.284 281.261,130.284 
			281.261,137.451 		"/>
		<line fill="none" stroke="#939598" stroke-width="3" x1="252.953" y1="215.925" x2="252.953" y2="167.191"/>
		<line fill="none" stroke="#939598" stroke-width="3" x1="101.775" y1="147.841" x2="121.086" y2="147.841"/>
		<line fill="none" stroke="#939598" stroke-width="3" x1="35.355" y1="147.841" x2="77.012" y2="147.841"/>
		<line fill="none" stroke="#939598" stroke-width="3" x1="-12.84" y1="147.841" x2="10.407" y2="147.841"/>
		<line fill="none" stroke="#939598" stroke-width="3" x1="67.696" y1="147.841" x2="67.696" y2="217"/>
		<polyline fill="none" stroke="#939598" stroke-width="3" points="41.387,214.85 41.387,200.875 67.336,200.875 		"/>
		<line fill="none" stroke="#939598" stroke-width="3" x1="281.978" y1="168.266" x2="252.235" y2="168.266"/>
		<polyline fill="none" stroke="#939598" stroke-width="2" points="5.336,188.154 5.336,181.032 -12.84,181.167 		"/>
		<line fill="none" stroke="#939598" stroke-width="2" x1="5.336" y1="215.969" x2="5.336" y2="208.847"/>
		<g>
			<rect x="180.839" y="9.946" fill="none" stroke="#939598" width="40.312" height="1.899"/>
			<rect x="146.17" y="11.99" fill="none" stroke="#939598" width="44.075" height="2.083"/>
		</g>
	</g>
	<g id="Type">
		<g>
			<path fill="#939598" d="M261.284,153.927v-0.489l4.405-1.447l-4.39-1.504v-0.626l5.309,1.883v0.506l-4.278,1.445l4.278,1.454
				v0.495l-5.309,1.884v-0.648l4.39-1.506L261.284,153.927z"/>
			<path fill="#939598" d="M260.562,146.417l6.972,3.494v0.534l-6.972-3.494V146.417z"/>
			<path fill="#939598" d="M266.569,143.89v1.829h-5.27v-1.829c0-1.656,1.138-2.8,2.627-2.8
				C265.417,141.09,266.569,142.234,266.569,143.89z M261.85,143.89v1.235h4.171v-1.235c0-1.333-0.904-2.183-2.077-2.183
				C262.768,141.708,261.85,142.556,261.85,143.89z"/>
		</g>
		<g>
			<path fill="#939598" d="M278.179,201.304c0,1.522-1.197,2.644-2.72,2.644c-1.504,0-2.731-1.114-2.731-2.665
				c0-0.957,0.337-1.529,0.835-2.055l0.437,0.405c-0.423,0.445-0.724,0.94-0.724,1.656c0,1.168,0.942,2.04,2.169,2.04
				c1.229,0,2.184-0.881,2.184-2.04c0-0.723-0.279-1.196-0.761-1.7l0.383-0.393C277.809,199.748,278.179,200.349,278.179,201.304z"
				/>
			<path fill="#939598" d="M278.087,198.206h-5.496v-0.58h5.496V198.206z"/>
			<path fill="#939598" d="M278.179,194.503c0,1.167-0.919,2.019-2.026,2.019c-1.106,0-2.041-0.859-2.041-2.035
				c0-1.165,0.919-2.023,2.026-2.023C277.244,192.463,278.179,193.328,278.179,194.503z M274.625,194.503
				c0,0.843,0.67,1.422,1.513,1.422c0.844,0,1.52-0.616,1.52-1.438c0-0.842-0.668-1.43-1.504-1.43
				C275.301,193.057,274.625,193.683,274.625,194.503z"/>
			<path fill="#939598" d="M278.163,190.13c0,0.559-0.218,1.176-0.571,1.611l-0.415-0.293c0.316-0.422,0.498-0.888,0.498-1.348
				c0-0.468-0.242-0.807-0.619-0.807h-0.015c-0.392,0-0.541,0.461-0.686,0.973c-0.172,0.608-0.383,1.287-1.099,1.287h-0.016
				c-0.669,0-1.113-0.559-1.113-1.325c0-0.474,0.164-1.002,0.429-1.4l0.436,0.264c-0.233,0.361-0.376,0.775-0.376,1.151
				c0,0.46,0.24,0.752,0.563,0.752h0.015c0.37,0,0.514-0.481,0.67-1.002c0.181-0.603,0.416-1.249,1.115-1.249h0.016
				C277.733,188.747,278.163,189.357,278.163,190.13z"/>
			<path fill="#939598" d="M277.673,185.955c0-0.535-0.218-0.911-0.55-1.229l0.323-0.361c0.436,0.393,0.732,0.867,0.732,1.604
				c0,1.068-0.822,1.941-2.034,1.941c-1.131,0-2.033-0.789-2.033-1.866c0-1.15,0.918-1.813,2.062-1.813c0.055,0,0.113,0,0.181,0.006
				v3.086C277.2,187.244,277.673,186.641,277.673,185.955z M275.927,184.819c-0.708,0.061-1.326,0.467-1.326,1.242
				c0,0.677,0.564,1.188,1.326,1.265V184.819z"/>
			<path fill="#939598" d="M276.981,182.433c0.474,0,0.647-0.263,0.647-0.654c0-0.196-0.037-0.362-0.136-0.564h0.497
				c0.106,0.202,0.166,0.423,0.166,0.7c0,0.624-0.309,1.098-1.101,1.098h-2.348v0.544h-0.513v-0.544h-1.176v-0.579h1.176V181.2
				h0.513v1.233H276.981L276.981,182.433z"/>
		</g>
		<g>
			<path fill="#939598" d="M18.099,177.865c0,0.89-0.542,1.346-1.074,1.576c0.803,0.243,1.453,0.708,1.453,1.646
				c0,1.169-0.979,1.858-2.459,1.858h-3.01v-6.775h2.884C17.228,176.17,18.099,176.83,18.099,177.865z M17.324,177.971
				c0-0.678-0.532-1.113-1.5-1.113h-2.062v2.332h2.004C16.687,179.19,17.324,178.774,17.324,177.971z M17.702,181.04
				c0-0.746-0.62-1.173-1.799-1.173h-2.14v2.39h2.275C17.063,182.256,17.702,181.803,17.702,181.04z"/>
			<path fill="#939598" d="M20.158,178.9l-0.223-0.609c0.551-0.252,1.094-0.418,1.82-0.418c1.364,0,2.128,0.697,2.128,2.014v3.06
				h-0.717v-0.755c-0.349,0.454-0.929,0.86-1.81,0.86c-0.929,0-1.868-0.521-1.868-1.567c0-1.064,0.872-1.626,2.139-1.626
				c0.639,0,1.093,0.087,1.539,0.213v-0.174c0-0.9-0.552-1.365-1.49-1.365C21.086,178.532,20.622,178.688,20.158,178.9z
				 M20.244,181.455c0,0.64,0.582,1.007,1.258,1.007c0.919,0,1.674-0.562,1.674-1.355v-0.482c-0.367-0.107-0.861-0.213-1.471-0.213
				C20.768,180.409,20.244,180.817,20.244,181.455z"/>
			<path fill="#939598" d="M26.429,181.522c0,0.609,0.338,0.831,0.841,0.831c0.251,0,0.464-0.048,0.726-0.174v0.64
				c-0.262,0.135-0.542,0.213-0.9,0.213c-0.803,0-1.413-0.396-1.413-1.413v-3.02h-0.696v-0.658h0.696v-1.509h0.746v1.509h1.588
				v0.658h-1.588V181.522z"/>
			<path fill="#939598" d="M30.075,182.946H29.33v-7.065h0.745v2.933c0.329-0.541,0.851-0.978,1.714-0.978
				c1.209,0,1.915,0.814,1.915,2.005v3.106h-0.745v-2.924c0-0.928-0.503-1.509-1.385-1.509c-0.861,0-1.5,0.629-1.5,1.567
				L30.075,182.946L30.075,182.946z"/>
		</g>
		<g>
			<path fill="#939598" d="M80.046,188.61c-1.521,0-2.642-1.196-2.642-2.717c0-1.505,1.115-2.733,2.665-2.733
				c0.955,0,1.528,0.338,2.055,0.836l-0.407,0.437c-0.443-0.422-0.94-0.724-1.657-0.724c-1.166,0-2.04,0.942-2.04,2.17
				c0,1.227,0.881,2.183,2.04,2.183c0.723,0,1.198-0.279,1.702-0.761l0.391,0.384C81.604,188.242,81.002,188.61,80.046,188.61z"/>
			<path fill="#939598" d="M83.145,188.52v-5.495h0.58v5.495H83.145z"/>
			<path fill="#939598" d="M86.848,188.61c-1.167,0-2.018-0.917-2.018-2.024s0.858-2.04,2.033-2.04c1.167,0,2.026,0.918,2.026,2.024
				C88.889,187.678,88.023,188.61,86.848,188.61z M86.848,185.058c-0.842,0-1.423,0.669-1.423,1.512
				c0,0.844,0.618,1.521,1.438,1.521c0.844,0,1.431-0.669,1.431-1.505C88.294,185.734,87.668,185.058,86.848,185.058z"/>
			<path fill="#939598" d="M91.22,188.596c-0.557,0-1.175-0.218-1.612-0.572l0.293-0.414c0.422,0.315,0.888,0.497,1.347,0.497
				c0.468,0,0.806-0.242,0.806-0.618v-0.015c0-0.392-0.459-0.542-0.971-0.687c-0.61-0.172-1.288-0.382-1.288-1.098v-0.015
				c0-0.67,0.558-1.114,1.326-1.114c0.474,0,1.001,0.165,1.401,0.428l-0.265,0.437c-0.361-0.233-0.775-0.376-1.151-0.376
				c-0.459,0-0.753,0.24-0.753,0.564v0.015c0,0.369,0.482,0.513,1.001,0.67c0.603,0.181,1.25,0.415,1.25,1.115v0.015
				C92.604,188.167,91.995,188.596,91.22,188.596z"/>
			<path fill="#939598" d="M95.396,188.106c0.535,0,0.911-0.218,1.228-0.55l0.361,0.323c-0.391,0.437-0.865,0.73-1.604,0.73
				c-1.069,0-1.942-0.82-1.942-2.032c0-1.13,0.79-2.034,1.867-2.034c1.151,0,1.815,0.918,1.815,2.063c0,0.053,0,0.112-0.007,0.181
				h-3.087C94.108,187.631,94.71,188.106,95.396,188.106z M96.534,186.36c-0.061-0.708-0.468-1.325-1.243-1.325
				c-0.677,0-1.189,0.563-1.265,1.325H96.534z"/>
			<path fill="#939598" d="M98.917,187.414c0,0.475,0.264,0.648,0.655,0.648c0.195,0,0.361-0.038,0.564-0.137v0.498
				c-0.204,0.104-0.423,0.166-0.7,0.166c-0.626,0-1.099-0.309-1.099-1.101v-2.348h-0.542v-0.514h0.542v-1.175h0.579v1.175h1.234
				v0.514h-1.234V187.414z"/>
		</g>
		<g>
			<path fill="#939598" d="M163.859-1.409c-0.79,0-1.295-0.392-1.627-0.934l0.43-0.368c0.323,0.489,0.654,0.752,1.205,0.752
				c0.595,0,1.031-0.429,1.031-1.264v-3.533h0.603v3.524C165.5-2.018,164.801-1.409,163.859-1.409z"/>
			<path fill="#939598" d="M169.572-5.376h0.572v3.893h-0.572v-0.678c-0.264,0.422-0.662,0.761-1.333,0.761
				c-0.941,0-1.491-0.632-1.491-1.558v-2.418h0.581v2.273c0,0.723,0.391,1.175,1.076,1.175c0.663,0,1.167-0.49,1.167-1.22
				L169.572-5.376L169.572-5.376z"/>
			<path fill="#939598" d="M171.496-1.484v-5.497h0.581v5.497H171.496z"/>
			<path fill="#939598" d="M173.439-6.228v-0.64h0.662v0.64H173.439z M173.477-1.484v-3.893h0.579v3.893H173.477z"/>
			<path fill="#939598" d="M177.118-1.899c0.535,0,0.911-0.219,1.228-0.55l0.361,0.324c-0.391,0.436-0.865,0.729-1.604,0.729
				c-1.069,0-1.942-0.82-1.942-2.032c0-1.13,0.79-2.033,1.867-2.033c1.151,0,1.815,0.918,1.815,2.062c0,0.053,0,0.113-0.007,0.181
				h-3.088C175.832-2.374,176.434-1.899,177.118-1.899z M178.256-3.646c-0.061-0.707-0.468-1.324-1.243-1.324
				c-0.677,0-1.189,0.564-1.265,1.324H178.256z"/>
			<path fill="#939598" d="M180.64-2.591c0,0.474,0.264,0.648,0.655,0.648c0.195,0,0.361-0.038,0.564-0.136v0.496
				c-0.203,0.105-0.423,0.166-0.7,0.166c-0.626,0-1.099-0.309-1.099-1.099v-2.35h-0.542v-0.512h0.542v-1.176h0.579v1.175h1.234
				v0.513h-1.234V-2.591L180.64-2.591z"/>
			<path fill="#939598" d="M189.212-5.437c0,0.692-0.421,1.046-0.835,1.228c0.625,0.188,1.128,0.549,1.128,1.279
				c0,0.912-0.761,1.446-1.912,1.446h-2.342v-5.271h2.244C188.535-6.755,189.212-6.244,189.212-5.437z M188.61-5.354
				c0-0.527-0.414-0.865-1.167-0.865h-1.604v1.814h1.559C188.113-4.406,188.61-4.729,188.61-5.354z M188.903-2.968
				c0-0.578-0.481-0.91-1.4-0.91h-1.664v1.86h1.769C188.407-2.018,188.903-2.374,188.903-2.968z"/>
			<path fill="#939598" d="M190.813-4.631l-0.173-0.475c0.429-0.195,0.852-0.323,1.416-0.323c1.061,0,1.657,0.542,1.657,1.565v2.38
				h-0.558v-0.589c-0.271,0.354-0.722,0.671-1.408,0.671c-0.722,0-1.454-0.406-1.454-1.22c0-0.829,0.678-1.266,1.665-1.266
				c0.497,0,0.852,0.068,1.197,0.166v-0.134c0-0.701-0.429-1.062-1.16-1.062C191.536-4.917,191.175-4.797,190.813-4.631z
				 M190.881-2.644c0,0.497,0.451,0.784,0.979,0.784c0.716,0,1.302-0.438,1.302-1.054v-0.378c-0.285-0.083-0.669-0.165-1.144-0.165
				C191.288-3.457,190.881-3.14,190.881-2.644z"/>
			<path fill="#939598" d="M194.997-1.484v-5.497h0.579v5.497H194.997z"/>
			<path fill="#939598" d="M198.678-1.394c-1.138,0-1.996-0.926-1.996-2.025c0-1.106,0.859-2.04,1.996-2.04
				c0.737,0,1.196,0.309,1.558,0.692l-0.384,0.406c-0.309-0.323-0.654-0.587-1.183-0.587c-0.79,0-1.392,0.67-1.392,1.514
				c0,0.851,0.618,1.521,1.431,1.521c0.497,0,0.88-0.248,1.189-0.579l0.369,0.347C199.874-1.709,199.407-1.394,198.678-1.394z"/>
			<path fill="#939598" d="M202.885-1.394c-1.167,0-2.018-0.918-2.018-2.025c0-1.106,0.858-2.04,2.033-2.04
				c1.166,0,2.025,0.918,2.025,2.025C204.925-2.328,204.059-1.394,202.885-1.394z M202.885-4.948c-0.844,0-1.424,0.67-1.424,1.514
				c0,0.843,0.617,1.521,1.438,1.521c0.843,0,1.431-0.67,1.431-1.505C204.33-4.271,203.705-4.948,202.885-4.948z"/>
			<path fill="#939598" d="M206.548-1.484h-0.58v-3.893h0.58V-4.7c0.256-0.421,0.664-0.76,1.333-0.76c0.94,0,1.49,0.632,1.49,1.559
				v2.417h-0.58v-2.275c0-0.722-0.391-1.173-1.076-1.173c-0.671,0-1.167,0.489-1.167,1.219V-1.484z"/>
			<path fill="#939598" d="M212.389-1.356c-0.331,0.806-0.708,1.099-1.295,1.099c-0.323,0-0.564-0.068-0.829-0.195l0.196-0.46
				c0.188,0.099,0.361,0.144,0.609,0.144c0.347,0,0.564-0.181,0.798-0.731l-1.77-3.877h0.641l1.415,3.245l1.25-3.245h0.618
				L212.389-1.356z"/>
		</g>
		<g>
			<path fill="#939598" d="M379.682,163.01c0,0.89-0.542,1.347-1.075,1.578c0.804,0.242,1.453,0.706,1.453,1.645
				c0,1.172-0.978,1.859-2.458,1.859h-3.01v-6.774h2.884C378.811,161.318,379.682,161.975,379.682,163.01z M378.906,163.117
				c0-0.678-0.532-1.112-1.501-1.112h-2.06v2.332h2.003C378.27,164.336,378.906,163.92,378.906,163.117z M379.284,166.184
				c0-0.744-0.618-1.171-1.799-1.171h-2.14v2.392h2.273C378.646,167.405,379.284,166.949,379.284,166.184z"/>
			<path fill="#939598" d="M381.741,164.047l-0.223-0.609c0.552-0.252,1.094-0.418,1.818-0.418c1.364,0,2.129,0.697,2.129,2.014
				v3.059h-0.716v-0.755c-0.349,0.455-0.93,0.86-1.812,0.86c-0.929,0-1.867-0.521-1.867-1.566c0-1.064,0.872-1.627,2.139-1.627
				c0.639,0,1.095,0.087,1.54,0.213v-0.174c0-0.899-0.553-1.366-1.491-1.366C382.669,163.677,382.206,163.833,381.741,164.047z
				 M381.827,166.601c0,0.64,0.581,1.007,1.26,1.007c0.917,0,1.673-0.561,1.673-1.355v-0.483c-0.367-0.106-0.86-0.212-1.471-0.212
				C382.35,165.557,381.827,165.961,381.827,166.601z"/>
			<path fill="#939598" d="M388.011,166.669c0,0.608,0.339,0.831,0.842,0.831c0.252,0,0.466-0.048,0.727-0.174v0.639
				c-0.261,0.136-0.542,0.213-0.901,0.213c-0.802,0-1.411-0.396-1.411-1.412v-3.021h-0.696v-0.658h0.696v-1.51h0.744v1.51h1.588
				v0.658h-1.588V166.669L388.011,166.669z"/>
			<path fill="#939598" d="M391.659,168.09h-0.745v-7.064h0.745v2.934c0.329-0.542,0.852-0.977,1.713-0.977
				c1.21,0,1.917,0.812,1.917,2.003v3.106h-0.746v-2.923c0-0.93-0.504-1.509-1.383-1.509c-0.862,0-1.501,0.628-1.501,1.566V168.09z"
				/>
		</g>
		<g>
			<path fill="#939598" d="M220.539,199.629l-1.529-2.05h-1.505v2.05h-0.595v-5.271h2.266c1.16,0,1.905,0.624,1.905,1.572
				c0,0.882-0.603,1.394-1.431,1.546l1.618,2.152H220.539L220.539,199.629z M219.13,194.908h-1.627v2.139h1.618
				c0.791,0,1.355-0.407,1.355-1.092C220.477,195.299,219.98,194.908,219.13,194.908z"/>
			<path fill="#939598" d="M223.894,199.214c0.535,0,0.91-0.219,1.228-0.552l0.361,0.325c-0.392,0.436-0.865,0.731-1.604,0.731
				c-1.07,0-1.943-0.822-1.943-2.033c0-1.131,0.791-2.034,1.868-2.034c1.152,0,1.815,0.918,1.815,2.062c0,0.055,0,0.113-0.008,0.181
				h-3.087C222.605,198.741,223.208,199.214,223.894,199.214z M225.029,197.467c-0.06-0.706-0.467-1.326-1.242-1.326
				c-0.677,0-1.19,0.565-1.266,1.326H225.029z"/>
			<path fill="#939598" d="M228.657,195.75v0.498h-1.228v3.381h-0.579v-3.381h-0.536v-0.506h0.536v-0.337
				c0-0.852,0.428-1.303,1.173-1.303c0.272,0,0.453,0.029,0.641,0.098v0.505c-0.211-0.062-0.369-0.099-0.564-0.099
				c-0.452,0-0.678,0.272-0.678,0.829v0.314H228.657L228.657,195.75z"/>
		</g>
		<g>
			<path fill="#939598" d="M159.498,201.867h-1.83v-5.27h1.83c1.656,0,2.8,1.138,2.8,2.629
				C162.298,200.714,161.154,201.867,159.498,201.867z M159.498,197.147h-1.235v4.171h1.235c1.332,0,2.184-0.902,2.184-2.077
				C161.682,198.065,160.831,197.147,159.498,197.147z"/>
			<path fill="#939598" d="M166.476,196.583h0.489l1.445,4.405l1.506-4.391h0.626l-1.883,5.309h-0.504l-1.446-4.277l-1.453,4.277
				h-0.497l-1.882-5.309h0.647l1.506,4.391L166.476,196.583z"/>
		</g>
		<g>
			<path fill="#939598" d="M244.975,210.161v1.024h1.486v0.475h-4.214v-1.577c0-0.951,0.507-1.578,1.343-1.578
				C244.503,208.506,244.975,209.264,244.975,210.161z M242.687,210.119v1.066h1.854v-1.042c0-0.698-0.374-1.156-0.933-1.156
				C242.999,208.987,242.687,209.438,242.687,210.119z"/>
			<path fill="#939598" d="M243.944,207.717l-0.38,0.139c-0.156-0.343-0.259-0.68-0.259-1.133c0-0.848,0.433-1.322,1.252-1.322
				h1.903v0.445h-0.47c0.282,0.216,0.535,0.577,0.535,1.125c0,0.578-0.325,1.162-0.975,1.162c-0.663,0-1.011-0.542-1.011-1.33
				c0-0.396,0.054-0.681,0.132-0.957h-0.108c-0.56,0-0.849,0.342-0.849,0.926C243.716,207.14,243.811,207.429,243.944,207.717z
				 M245.533,207.665c0.397,0,0.626-0.361,0.626-0.785c0-0.571-0.349-1.041-0.844-1.041h-0.299
				c-0.066,0.229-0.133,0.536-0.133,0.917C244.884,207.338,245.135,207.665,245.533,207.665z"/>
			<path fill="#939598" d="M246.46,204.13v0.463h-3.114v-0.463h0.543c-0.337-0.205-0.607-0.53-0.607-1.065
				c0-0.753,0.506-1.191,1.246-1.191h1.933v0.464h-1.818c-0.577,0-0.938,0.312-0.938,0.86c0,0.536,0.391,0.934,0.976,0.934
				L246.46,204.13L246.46,204.13z"/>
			<path fill="#939598" d="M245.576,200.439c0.379,0,0.516-0.21,0.516-0.522c0-0.157-0.029-0.291-0.108-0.453h0.396
				c0.086,0.162,0.135,0.338,0.135,0.561c0,0.499-0.248,0.877-0.88,0.877h-1.878v0.435h-0.411v-0.435h-0.938v-0.464h0.938v-0.986
				h0.411v0.986h1.819V200.439z"/>
			<path fill="#939598" d="M246.46,198.35v0.464h-3.114v-0.464h0.813c-0.518-0.229-0.89-0.68-0.866-1.271h0.5v0.036
				c0,0.681,0.487,1.234,1.426,1.234H246.46L246.46,198.35z"/>
			<path fill="#939598" d="M246.562,195.041c0.645,0.263,0.879,0.565,0.879,1.035c0,0.259-0.055,0.451-0.156,0.662l-0.368-0.157
				c0.077-0.151,0.113-0.29,0.113-0.487c0-0.278-0.145-0.451-0.583-0.64l-3.102,1.414v-0.51l2.596-1.133l-2.596-1.001v-0.493
				L246.562,195.041z"/>
		</g>
		<g>
			<path fill="#939598" d="M-7.757,207.095V206.5h4.722v-2.967h0.55v3.561L-7.757,207.095L-7.757,207.095z"/>
			<path fill="#939598" d="M-7.229,202.52H-7.87v-0.662h0.64L-7.229,202.52L-7.229,202.52z M-2.486,202.482h-3.893v-0.579h3.893
				V202.482z"/>
			<path fill="#939598" d="M-2.486,199.975v0.58h-3.893v-0.58h0.677c-0.421-0.256-0.761-0.661-0.761-1.331
				c0-0.942,0.632-1.491,1.559-1.491h2.416v0.579h-2.273c-0.723,0-1.174,0.392-1.174,1.077c0,0.67,0.489,1.166,1.219,1.166H-2.486
				L-2.486,199.975z"/>
			<path fill="#939598" d="M-2.9,194.204c0-0.533-0.218-0.911-0.549-1.229l0.323-0.361c0.436,0.391,0.73,0.866,0.73,1.604
				c0,1.068-0.82,1.942-2.033,1.942c-1.129,0-2.033-0.791-2.033-1.867c0-1.15,0.918-1.813,2.062-1.813c0.053,0,0.113,0,0.181,0.008
				v3.087C-3.374,195.492-2.9,194.888-2.9,194.204z M-4.647,193.068c-0.708,0.06-1.324,0.466-1.324,1.24
				c0,0.679,0.564,1.189,1.324,1.267V193.068z"/>
			<path fill="#939598" d="M-2.486,190.885v0.58h-3.893v-0.58h0.677c-0.421-0.255-0.761-0.662-0.761-1.332
				c0-0.941,0.632-1.491,1.559-1.491h2.416v0.58h-2.273c-0.723,0-1.174,0.39-1.174,1.077c0,0.669,0.489,1.166,1.219,1.166H-2.486
				L-2.486,190.885z"/>
		</g>
		<g>
			<path fill="#939598" d="M187.192,169.866h-0.958l-2.604-3.28l-1.441,1.46v1.819h-0.765v-6.775h0.765v4.046l3.89-4.046h0.987
				l-2.903,2.963L187.192,169.866z"/>
			<path fill="#939598" d="M188.273,163.768v-0.821h0.852v0.821H188.273z M188.322,169.866v-5.003h0.745v5.003H188.322z"/>
			<path fill="#939598" d="M191.806,168.443c0,0.609,0.338,0.832,0.842,0.832c0.251,0,0.464-0.048,0.726-0.174v0.638
				c-0.262,0.136-0.542,0.212-0.9,0.212c-0.803,0-1.413-0.396-1.413-1.411v-3.021h-0.696v-0.657h0.696v-1.51h0.745v1.51h1.588v0.657
				h-1.588V168.443z"/>
			<path fill="#939598" d="M196.819,169.983c-1.461,0-2.565-1.19-2.565-2.604c0-1.424,1.103-2.623,2.565-2.623
				c0.948,0,1.54,0.396,2.003,0.891l-0.493,0.521c-0.396-0.416-0.843-0.754-1.52-0.754c-1.016,0-1.791,0.861-1.791,1.945
				c0,1.095,0.793,1.956,1.838,1.956c0.639,0,1.132-0.321,1.529-0.745l0.474,0.444C198.357,169.576,197.757,169.983,196.819,169.983
				z"/>
			<path fill="#939598" d="M200.833,169.866h-0.745v-7.064h0.745v2.934c0.329-0.544,0.852-0.979,1.712-0.979
				c1.209,0,1.917,0.813,1.917,2.003v3.107h-0.745v-2.922c0-0.93-0.503-1.51-1.385-1.51c-0.861,0-1.5,0.629-1.5,1.567V169.866
				L200.833,169.866z"/>
			<path fill="#939598" d="M208.254,169.333c0.687,0,1.171-0.281,1.577-0.706l0.464,0.417c-0.503,0.561-1.112,0.938-2.061,0.938
				c-1.374,0-2.498-1.055-2.498-2.613c0-1.452,1.016-2.613,2.4-2.613c1.48,0,2.332,1.181,2.332,2.651c0,0.068,0,0.146-0.009,0.232
				h-3.968C206.599,168.723,207.373,169.333,208.254,169.333z M209.716,167.088c-0.078-0.91-0.6-1.704-1.597-1.704
				c-0.872,0-1.528,0.727-1.626,1.704H209.716z"/>
			<path fill="#939598" d="M212.52,169.866h-0.745v-5.003h0.745v0.872c0.329-0.544,0.852-0.979,1.713-0.979
				c1.209,0,1.916,0.813,1.916,2.003v3.107h-0.745v-2.922c0-0.93-0.503-1.51-1.385-1.51c-0.861,0-1.5,0.629-1.5,1.567
				L212.52,169.866L212.52,169.866z"/>
		</g>
		<g>
			<path fill="#939598" d="M434.437,165.32c-1.521,0-2.643-1.197-2.643-2.718c0-1.505,1.114-2.733,2.665-2.733
				c0.957,0,1.529,0.338,2.056,0.836l-0.407,0.437c-0.443-0.422-0.94-0.724-1.656-0.724c-1.166,0-2.038,0.942-2.038,2.17
				c0,1.227,0.879,2.183,2.038,2.183c0.724,0,1.198-0.279,1.702-0.761l0.392,0.384C435.994,164.951,435.392,165.32,434.437,165.32z"
				/>
			<path fill="#939598" d="M437.534,165.229v-5.494h0.58v5.494H437.534z"/>
			<path fill="#939598" d="M441.238,165.32c-1.166,0-2.018-0.918-2.018-2.025s0.858-2.04,2.033-2.04
				c1.166,0,2.025,0.918,2.025,2.024C443.278,164.387,442.413,165.32,441.238,165.32z M441.238,161.767
				c-0.843,0-1.423,0.67-1.423,1.512c0,0.844,0.617,1.522,1.438,1.522c0.843,0,1.43-0.67,1.43-1.506
				C442.684,162.443,442.059,161.767,441.238,161.767z"/>
			<path fill="#939598" d="M445.609,165.306c-0.558,0-1.175-0.219-1.611-0.572l0.293-0.415c0.422,0.316,0.89,0.498,1.348,0.498
				c0.468,0,0.807-0.243,0.807-0.619v-0.015c0-0.392-0.46-0.541-0.972-0.687c-0.608-0.171-1.286-0.382-1.286-1.098v-0.015
				c0-0.67,0.557-1.114,1.323-1.114c0.475,0,1.003,0.165,1.4,0.428l-0.262,0.437c-0.362-0.233-0.776-0.376-1.152-0.376
				c-0.46,0-0.753,0.24-0.753,0.564v0.016c0,0.368,0.482,0.512,1.002,0.669c0.603,0.181,1.249,0.415,1.249,1.115v0.015
				C446.994,164.876,446.386,165.306,445.609,165.306z"/>
			<path fill="#939598" d="M449.787,164.816c0.533,0,0.911-0.219,1.227-0.551l0.361,0.323c-0.392,0.438-0.866,0.731-1.603,0.731
				c-1.07,0-1.943-0.821-1.943-2.033c0-1.129,0.789-2.034,1.867-2.034c1.15,0,1.814,0.919,1.814,2.063c0,0.053,0,0.112-0.008,0.181
				h-3.086C448.499,164.341,449.101,164.816,449.787,164.816z M450.924,163.069c-0.061-0.708-0.467-1.325-1.243-1.325
				c-0.677,0-1.188,0.563-1.264,1.325H450.924z"/>
			<path fill="#939598" d="M453.307,164.123c0,0.475,0.264,0.648,0.655,0.648c0.195,0,0.361-0.037,0.563-0.136v0.497
				c-0.202,0.105-0.422,0.166-0.699,0.166c-0.624,0-1.099-0.309-1.099-1.101v-2.348h-0.543v-0.514h0.543v-1.175h0.579v1.175h1.234
				v0.514h-1.234V164.123z"/>
		</g>
		<g>
			<path fill="#939598" d="M314.012,212.728h-3.214v1.8h2.877v0.543h-2.877v1.844h3.252v0.542h-3.848v-5.27h3.81V212.728z"/>
			<path fill="#939598" d="M315.728,217.457h-0.579v-3.893h0.579v0.678c0.256-0.423,0.661-0.762,1.331-0.762
				c0.942,0,1.49,0.634,1.49,1.56v2.417h-0.579v-2.273c0-0.723-0.391-1.176-1.075-1.176c-0.672,0-1.167,0.489-1.167,1.22V217.457z"
				/>
			<path fill="#939598" d="M320.564,216.35c0,0.474,0.265,0.647,0.655,0.647c0.197,0,0.361-0.037,0.565-0.136v0.497
				c-0.204,0.106-0.423,0.166-0.7,0.166c-0.625,0-1.1-0.31-1.1-1.1v-2.349h-0.542v-0.513h0.542v-1.176h0.579v1.176h1.235v0.513
				h-1.235V216.35z"/>
			<path fill="#939598" d="M323.402,217.457h-0.579v-3.893h0.579v1.015c0.287-0.647,0.852-1.113,1.591-1.083v0.625h-0.046
				c-0.851,0-1.545,0.608-1.545,1.784V217.457z"/>
			<path fill="#939598" d="M327.767,217.583c-0.331,0.806-0.708,1.1-1.293,1.1c-0.326,0-0.565-0.068-0.83-0.195l0.195-0.461
				c0.189,0.098,0.363,0.143,0.61,0.143c0.346,0,0.563-0.181,0.799-0.729l-1.771-3.878h0.641l1.415,3.246l1.251-3.246h0.617
				L327.767,217.583z"/>
		</g>
		<g>
			<path fill="#939598" d="M38.354,71.012c0,0.891-0.542,1.345-1.074,1.578c0.803,0.242,1.451,0.707,1.451,1.646
				c0,1.17-0.977,1.858-2.458,1.858h-3.01v-6.775h2.884C37.483,69.319,38.354,69.977,38.354,71.012z M37.58,71.119
				c0-0.677-0.532-1.112-1.5-1.112h-2.061v2.332h2.003C36.941,72.339,37.58,71.921,37.58,71.119z M37.957,74.187
				c0-0.745-0.619-1.171-1.799-1.171h-2.139v2.391h2.274C37.319,75.407,37.957,74.951,37.957,74.187z"/>
			<path fill="#939598" d="M42.329,75.562c0.687,0,1.171-0.281,1.577-0.707l0.464,0.417c-0.503,0.561-1.113,0.938-2.061,0.938
				c-1.375,0-2.498-1.055-2.498-2.614c0-1.452,1.016-2.613,2.4-2.613c1.48,0,2.332,1.181,2.332,2.652c0,0.068,0,0.146-0.01,0.232
				h-3.968C40.675,74.951,41.449,75.562,42.329,75.562z M43.791,73.316c-0.078-0.909-0.6-1.702-1.596-1.702
				c-0.872,0-1.529,0.726-1.626,1.702H43.791z"/>
			<path fill="#939598" d="M49.866,76.094v-1.007c-0.406,0.6-0.996,1.112-1.915,1.112c-1.201,0-2.391-0.947-2.391-2.604
				c0-1.645,1.19-2.613,2.391-2.613c0.928,0,1.528,0.504,1.915,1.064v-3.02h0.745v7.065L49.866,76.094L49.866,76.094z
				 M48.086,71.651c-0.968,0-1.762,0.717-1.762,1.937c0,1.189,0.812,1.945,1.762,1.945c0.929,0,1.81-0.774,1.81-1.945
				C49.896,72.426,49.015,71.651,48.086,71.651z"/>
			<path fill="#939598" d="M53.02,76.094h-0.745V71.09h0.745v1.307c0.367-0.832,1.093-1.434,2.042-1.394v0.804h-0.058
				c-1.094,0-1.984,0.783-1.984,2.294L53.02,76.094L53.02,76.094z"/>
			<path fill="#939598" d="M58.264,76.21c-1.5,0-2.594-1.181-2.594-2.604s1.104-2.623,2.614-2.623c1.5,0,2.604,1.181,2.604,2.604
				C60.887,75.009,59.774,76.21,58.264,76.21z M58.264,71.642c-1.083,0-1.829,0.861-1.829,1.946c0,1.084,0.793,1.954,1.848,1.954
				c1.083,0,1.838-0.861,1.838-1.936C60.121,72.513,59.318,71.642,58.264,71.642z"/>
			<path fill="#939598" d="M64.514,76.21c-1.5,0-2.594-1.181-2.594-2.604s1.104-2.623,2.614-2.623c1.5,0,2.604,1.181,2.604,2.604
				C67.137,75.009,66.024,76.21,64.514,76.21z M64.514,71.642c-1.083,0-1.828,0.861-1.828,1.946c0,1.084,0.793,1.954,1.848,1.954
				c1.083,0,1.838-0.861,1.838-1.936C66.371,72.513,65.568,71.642,64.514,71.642z"/>
			<path fill="#939598" d="M74.209,70.983c1.151,0,1.859,0.774,1.859,2.014v3.098h-0.745v-2.923c0-0.968-0.484-1.51-1.297-1.51
				c-0.755,0-1.385,0.562-1.385,1.548v2.885h-0.735v-2.942c0-0.938-0.493-1.49-1.287-1.49s-1.393,0.658-1.393,1.577v2.855H68.48
				V71.09h0.745v0.843c0.329-0.494,0.774-0.949,1.616-0.949c0.812,0,1.335,0.436,1.607,0.997
				C72.806,71.428,73.338,70.983,74.209,70.983z"/>
			<path fill="#939598" d="M39.059,81.096h0.561v6.824h-0.754v-6.03l-1.277,0.396l-0.184-0.62L39.059,81.096z"/>
			<path fill="#939598" d="M41.439,81.832v-0.688h4.326v0.562l-2.128,2.36c1.19,0.098,2.236,0.669,2.236,1.917
				c0,1.219-1.007,2.051-2.265,2.051c-1.132,0-1.974-0.493-2.526-1.209l0.552-0.493c0.522,0.638,1.151,1.006,1.984,1.006
				c0.823,0,1.48-0.521,1.48-1.326c0-0.852-0.774-1.315-1.897-1.315h-0.435l-0.155-0.456l2.139-2.408L41.439,81.832L41.439,81.832z"
				/>
			<path fill="#939598" d="M47.447,81.143h0.91v0.048l-0.784,2.585h-0.417L47.447,81.143z"/>
			<path fill="#939598" d="M56.978,87.919h-0.861l-1.548-2.043l-1.557,2.043h-0.833l1.965-2.546l-1.887-2.459h0.852l1.48,1.937
				l1.48-1.937h0.832l-1.897,2.44L56.978,87.919z"/>
			<path fill="#939598" d="M62.181,81.096h0.561v6.824h-0.755v-6.03l-1.277,0.396l-0.184-0.62L62.181,81.096z"/>
			<path fill="#939598" d="M64.561,81.832v-0.688h4.326v0.562l-2.128,2.36c1.19,0.098,2.236,0.669,2.236,1.917
				c0,1.219-1.006,2.051-2.264,2.051c-1.132,0-1.975-0.493-2.526-1.209l0.552-0.493c0.522,0.638,1.152,1.006,1.984,1.006
				c0.822,0,1.48-0.521,1.48-1.326c0-0.852-0.774-1.315-1.897-1.315h-0.436l-0.155-0.456l2.138-2.408L64.561,81.832L64.561,81.832z"
				/>
			<path fill="#939598" d="M70.569,81.143h0.909v0.048l-0.784,2.585h-0.416L70.569,81.143z"/>
		</g>
		<g>
			<path fill="#939598" d="M182.841,75.232h0.764V81.3h3.813v0.706h-4.577V75.232z"/>
			<path fill="#939598" d="M188.723,75.909v-0.822h0.852v0.822H188.723z M188.771,82.006v-5.003h0.746v5.003H188.771z"/>
			<path fill="#939598" d="M194.955,77.003h0.802l-2.178,5.041h-0.658l-2.168-5.041h0.823l1.683,4.151L194.955,77.003z"/>
			<path fill="#939598" d="M196.947,75.909v-0.822h0.852v0.822H196.947z M196.995,82.006v-5.003h0.745v5.003H196.995z"/>
			<path fill="#939598" d="M200.217,82.006h-0.745v-5.003h0.745v0.871c0.329-0.542,0.852-0.978,1.713-0.978
				c1.209,0,1.917,0.812,1.917,2.004v3.106h-0.745v-2.923c0-0.929-0.503-1.509-1.384-1.509c-0.861,0-1.501,0.629-1.501,1.567V82.006
				L200.217,82.006z"/>
			<path fill="#939598" d="M207.647,83.574c-0.832,0-1.607-0.232-2.274-0.696l0.338-0.58c0.571,0.416,1.209,0.639,1.927,0.639
				c1.103,0,1.818-0.609,1.818-1.78v-0.591c-0.435,0.581-1.045,1.055-1.965,1.055c-1.2,0-2.352-0.891-2.352-2.353
				c0-1.471,1.161-2.371,2.352-2.371c0.938,0,1.548,0.464,1.955,1.006v-0.899h0.745v4.132
				C210.193,82.752,209.187,83.574,207.647,83.574z M207.639,77.555c-0.948,0-1.733,0.648-1.733,1.693
				c0,1.025,0.804,1.713,1.733,1.713c0.948,0,1.838-0.677,1.838-1.703C209.477,78.222,208.585,77.555,207.639,77.555z"/>
			<path fill="#939598" d="M215.998,74.284l-4.49,8.961h-0.688l4.49-8.961H215.998z"/>
			<path fill="#939598" d="M219.247,82.006h-2.352v-6.774h2.352c2.129,0,3.601,1.461,3.601,3.378
				C222.848,80.526,221.377,82.006,219.247,82.006z M219.247,75.939h-1.588V81.3h1.588c1.713,0,2.807-1.161,2.807-2.672
				C222.054,77.12,220.961,75.939,219.247,75.939z"/>
			<path fill="#939598" d="M224.354,75.909v-0.822h0.852v0.822H224.354z M224.404,82.006v-5.003h0.745v5.003H224.404z"/>
			<path fill="#939598" d="M227.625,82.006h-0.745v-5.003h0.745v0.871c0.329-0.542,0.852-0.978,1.714-0.978
				c1.209,0,1.915,0.812,1.915,2.004v3.106h-0.744v-2.923c0-0.929-0.502-1.509-1.383-1.509c-0.862,0-1.501,0.629-1.501,1.567V82.006
				z"/>
			<path fill="#939598" d="M232.858,75.909v-0.822h0.853v0.822H232.858z M232.909,82.006v-5.003h0.743v5.003H232.909z"/>
			<path fill="#939598" d="M236.13,82.006h-0.744v-5.003h0.744v0.871c0.329-0.542,0.853-0.978,1.713-0.978
				c1.211,0,1.917,0.812,1.917,2.004v3.106h-0.745v-2.923c0-0.929-0.504-1.509-1.385-1.509c-0.861,0-1.5,0.629-1.5,1.567V82.006
				L236.13,82.006z"/>
			<path fill="#939598" d="M243.561,83.574c-0.832,0-1.606-0.232-2.274-0.696l0.338-0.58c0.571,0.416,1.21,0.639,1.927,0.639
				c1.104,0,1.819-0.609,1.819-1.78v-0.591c-0.436,0.581-1.046,1.055-1.966,1.055c-1.199,0-2.352-0.891-2.352-2.353
				c0-1.471,1.161-2.371,2.352-2.371c0.94,0,1.548,0.464,1.955,1.006v-0.899h0.744v4.132
				C246.104,82.752,245.101,83.574,243.561,83.574z M243.551,77.555c-0.949,0-1.733,0.648-1.733,1.693
				c0,1.025,0.804,1.713,1.733,1.713c0.948,0,1.838-0.677,1.838-1.703C245.389,78.222,244.499,77.555,243.551,77.555z"/>
			<path fill="#939598" d="M255.461,82.006l-1.964-2.633h-1.937v2.633h-0.765v-6.774h2.912c1.492,0,2.449,0.803,2.449,2.021
				c0,1.133-0.774,1.791-1.839,1.983l2.081,2.769L255.461,82.006L255.461,82.006z M253.65,75.939h-2.089v2.749h2.081
				c1.016,0,1.742-0.522,1.742-1.404C255.383,76.441,254.744,75.939,253.65,75.939z"/>
			<path fill="#939598" d="M259.852,82.124c-1.5,0-2.593-1.182-2.593-2.604c0-1.424,1.103-2.623,2.613-2.623
				c1.501,0,2.604,1.181,2.604,2.603C262.476,80.922,261.362,82.124,259.852,82.124z M259.852,77.555
				c-1.083,0-1.827,0.86-1.827,1.944c0,1.085,0.792,1.955,1.848,1.955c1.084,0,1.839-0.862,1.839-1.937
				C261.711,78.425,260.907,77.555,259.852,77.555z"/>
			<path fill="#939598" d="M266.104,82.124c-1.501,0-2.594-1.182-2.594-2.604c0-1.424,1.103-2.623,2.612-2.623
				c1.502,0,2.604,1.181,2.604,2.603C268.725,80.922,267.613,82.124,266.104,82.124z M266.104,77.555c-1.086,0-1.83,0.86-1.83,1.944
				c0,1.085,0.793,1.955,1.849,1.955c1.086,0,1.84-0.862,1.84-1.937C267.961,78.425,267.157,77.555,266.104,77.555z"/>
			<path fill="#939598" d="M275.797,76.897c1.152,0,1.858,0.773,1.858,2.014v3.097h-0.744v-2.923c0-0.968-0.484-1.509-1.297-1.509
				c-0.755,0-1.383,0.561-1.383,1.548v2.884h-0.736v-2.942c0-0.939-0.493-1.49-1.287-1.49c-0.793,0-1.395,0.657-1.395,1.576v2.855
				h-0.744v-5.003h0.744v0.842c0.331-0.493,0.775-0.948,1.617-0.948c0.812,0,1.335,0.436,1.606,0.996
				C274.395,77.341,274.926,76.897,275.797,76.897z"/>
			<path fill="#939598" d="M202.006,88.808l-0.561-0.406c0.61-0.91,1.249-1.441,2.439-1.441c1.23,0,2.101,0.812,2.101,1.925
				c0,0.997-0.522,1.606-1.712,2.643l-1.811,1.605h3.59v0.697h-4.732V93.24l2.458-2.168c1.035-0.929,1.413-1.452,1.413-2.129
				c0-0.793-0.629-1.297-1.364-1.297C203.051,87.647,202.549,88.053,202.006,88.808z"/>
			<path fill="#939598" d="M208.576,87.009h0.561v6.823h-0.755v-6.029l-1.277,0.397l-0.184-0.62L208.576,87.009z"/>
			<path fill="#939598" d="M211.033,87.056h0.91v0.049l-0.784,2.583h-0.416L211.033,87.056z"/>
			<path fill="#939598" d="M217.449,88.306c-0.503-0.426-0.977-0.668-1.596-0.668c-1.229,0-1.993,1.238-1.984,2.99
				c0.367-0.543,0.938-1.036,1.926-1.036c1.268,0,2.343,0.814,2.343,2.09c0,1.316-1.055,2.266-2.43,2.266
				c-0.745,0-1.354-0.262-1.78-0.688c-0.542-0.542-0.851-1.238-0.851-2.632c0-2.071,1.044-3.688,2.816-3.688
				c0.813,0,1.413,0.291,2.004,0.774L217.449,88.306z M215.698,90.25c-1.016,0-1.694,0.726-1.694,1.491
				c0,0.881,0.716,1.528,1.714,1.528c0.996,0,1.635-0.687,1.635-1.558C217.353,90.87,216.675,90.25,215.698,90.25z"/>
			<path fill="#939598" d="M219.664,87.056h0.899v0.049l-0.784,2.583h-0.406L219.664,87.056z M221.56,87.056h0.89v0.049
				l-0.784,2.583h-0.406L221.56,87.056z"/>
			<path fill="#939598" d="M231.081,93.832h-0.861l-1.548-2.042l-1.559,2.042h-0.832l1.965-2.546l-1.888-2.457h0.852l1.481,1.936
				l1.48-1.936h0.833l-1.897,2.438L231.081,93.832z"/>
			<path fill="#939598" d="M235.51,88.808l-0.561-0.406c0.61-0.91,1.249-1.441,2.44-1.441c1.229,0,2.1,0.812,2.1,1.925
				c0,0.997-0.522,1.606-1.714,2.643l-1.81,1.605h3.591v0.697h-4.733V93.24l2.459-2.168c1.035-0.929,1.413-1.452,1.413-2.129
				c0-0.793-0.63-1.297-1.365-1.297C236.555,87.647,236.053,88.053,235.51,88.808z"/>
			<path fill="#939598" d="M243.608,93.949c-1.751,0-2.854-1.588-2.854-3.494c0-1.905,1.123-3.514,2.874-3.514
				c1.743,0,2.847,1.588,2.847,3.493C246.475,92.34,245.351,93.949,243.608,93.949z M243.608,87.637
				c-1.269,0-2.062,1.297-2.062,2.797c0,1.501,0.814,2.816,2.081,2.816c1.27,0,2.053-1.307,2.053-2.797
				S244.878,87.637,243.608,87.637z"/>
			<path fill="#939598" d="M247.99,87.056h0.911v0.049l-0.784,2.583h-0.416L247.99,87.056z"/>
			<path fill="#939598" d="M250.101,87.056h4.596v0.571l-3.078,6.204h-0.851l3.058-6.077h-3.725V87.056L250.101,87.056z"/>
			<path fill="#939598" d="M256.127,87.056h0.9v0.049l-0.783,2.583h-0.408L256.127,87.056z M258.024,87.056h0.89v0.049l-0.783,2.583
				h-0.407L258.024,87.056z"/>
		</g>
		<g>
			<path fill="#939598" d="M398.477,53.455c0,0.891-0.543,1.345-1.075,1.578c0.804,0.242,1.453,0.706,1.453,1.645
				c0,1.171-0.979,1.859-2.458,1.859h-3.009V51.76h2.884C397.605,51.76,398.477,52.419,398.477,53.455z M397.703,53.561
				c0-0.678-0.532-1.112-1.5-1.112h-2.062v2.331h2.003C397.063,54.78,397.703,54.364,397.703,53.561z M398.08,56.628
				c0-0.744-0.619-1.17-1.801-1.17h-2.138v2.391h2.273C397.441,57.848,398.08,57.393,398.08,56.628z"/>
			<path fill="#939598" d="M402.452,58.002c0.688,0,1.172-0.28,1.578-0.706l0.466,0.416c-0.505,0.562-1.114,0.938-2.062,0.938
				c-1.375,0-2.496-1.055-2.496-2.613c0-1.451,1.014-2.613,2.398-2.613c1.481,0,2.332,1.181,2.332,2.652c0,0.067,0,0.145-0.01,0.231
				h-3.968C400.798,57.393,401.57,58.002,402.452,58.002z M403.913,55.757c-0.076-0.909-0.6-1.703-1.596-1.703
				c-0.872,0-1.529,0.726-1.626,1.703H403.913z"/>
			<path fill="#939598" d="M409.989,58.536v-1.008c-0.406,0.601-0.997,1.113-1.915,1.113c-1.201,0-2.392-0.948-2.392-2.604
				c0-1.645,1.19-2.613,2.392-2.613c0.928,0,1.527,0.503,1.915,1.064V51.47h0.745v7.065H409.989z M408.208,54.093
				c-0.968,0-1.761,0.717-1.761,1.936c0,1.19,0.812,1.945,1.761,1.945c0.93,0,1.812-0.773,1.812-1.945
				C410.02,54.867,409.138,54.093,408.208,54.093z"/>
			<path fill="#939598" d="M413.142,58.536h-0.743v-5.004h0.743v1.306c0.369-0.832,1.095-1.433,2.043-1.393v0.803h-0.059
				c-1.095,0-1.985,0.784-1.985,2.294L413.142,58.536L413.142,58.536z"/>
			<path fill="#939598" d="M418.388,58.651c-1.502,0-2.594-1.181-2.594-2.603c0-1.423,1.103-2.623,2.613-2.623
				c1.501,0,2.604,1.181,2.604,2.604C421.01,57.452,419.896,58.651,418.388,58.651z M418.388,54.083
				c-1.085,0-1.829,0.86-1.829,1.945s0.793,1.955,1.849,1.955c1.083,0,1.838-0.861,1.838-1.936
				C420.244,54.955,419.441,54.083,418.388,54.083z"/>
			<path fill="#939598" d="M424.637,58.651c-1.5,0-2.594-1.181-2.594-2.603c0-1.423,1.104-2.623,2.613-2.623
				c1.501,0,2.604,1.181,2.604,2.604S426.147,58.651,424.637,58.651z M424.637,54.083c-1.084,0-1.83,0.86-1.83,1.945
				s0.794,1.955,1.85,1.955c1.085,0,1.84-0.861,1.84-1.936C426.496,54.955,425.692,54.083,424.637,54.083z"/>
			<path fill="#939598" d="M434.333,53.425c1.15,0,1.857,0.774,1.857,2.014v3.098h-0.745v-2.924c0-0.967-0.482-1.509-1.296-1.509
				c-0.754,0-1.383,0.562-1.383,1.548v2.885h-0.737v-2.943c0-0.938-0.493-1.489-1.287-1.489c-0.792,0-1.394,0.657-1.394,1.577v2.855
				h-0.743v-5.004h0.743v0.842c0.33-0.493,0.775-0.948,1.616-0.948c0.813,0,1.336,0.436,1.606,0.997
				C432.928,53.871,433.46,53.425,434.333,53.425z"/>
			<path fill="#939598" d="M398.688,63.538h0.561v6.823h-0.753v-6.029l-1.278,0.396l-0.184-0.619L398.688,63.538z"/>
			<path fill="#939598" d="M401.068,64.273v-0.688h4.326v0.561l-2.129,2.362c1.19,0.097,2.235,0.667,2.235,1.915
				c0,1.221-1.007,2.053-2.265,2.053c-1.132,0-1.974-0.493-2.525-1.209l0.552-0.494c0.522,0.639,1.152,1.008,1.984,1.008
				c0.823,0,1.48-0.523,1.48-1.326c0-0.852-0.775-1.316-1.897-1.316h-0.436l-0.154-0.455l2.139-2.41H401.068z"/>
			<path fill="#939598" d="M407.076,63.585h0.91v0.048l-0.783,2.585h-0.416L407.076,63.585z"/>
			<path fill="#939598" d="M416.607,70.36h-0.86l-1.549-2.042l-1.559,2.042h-0.83l1.964-2.546l-1.889-2.458h0.853l1.48,1.935
				l1.481-1.935h0.831l-1.897,2.438L416.607,70.36z"/>
			<path fill="#939598" d="M421.811,63.538h0.562v6.823h-0.755v-6.029l-1.277,0.396l-0.184-0.619L421.811,63.538z"/>
			<path fill="#939598" d="M426.804,70.476c-1.752,0-2.854-1.587-2.854-3.494c0-1.905,1.123-3.513,2.874-3.513
				c1.743,0,2.845,1.588,2.845,3.494S428.545,70.476,426.804,70.476z M426.804,64.167c-1.269,0-2.062,1.298-2.062,2.798
				s0.814,2.816,2.081,2.816c1.269,0,2.053-1.307,2.053-2.797C428.876,65.492,428.072,64.167,426.804,64.167z"/>
			<path fill="#939598" d="M431.186,63.585h0.911v0.048l-0.784,2.585h-0.417L431.186,63.585z"/>
		</g>
		<g>
			<path fill="#939598" d="M187.303,138.31v5.271h-0.595v-5.271H187.303z"/>
			<path fill="#939598" d="M190.035,143.656c-0.557,0-1.174-0.218-1.612-0.571l0.293-0.416c0.422,0.317,0.889,0.498,1.348,0.498
				c0.467,0,0.805-0.241,0.805-0.617v-0.015c0-0.392-0.459-0.542-0.971-0.687c-0.609-0.172-1.288-0.383-1.288-1.099v-0.015
				c0-0.67,0.558-1.114,1.326-1.114c0.474,0,1.002,0.164,1.401,0.428l-0.264,0.437c-0.361-0.232-0.776-0.375-1.152-0.375
				c-0.459,0-0.753,0.24-0.753,0.563v0.016c0,0.367,0.482,0.513,1.002,0.67c0.602,0.181,1.25,0.413,1.25,1.113v0.017
				C191.42,143.226,190.811,143.656,190.035,143.656z"/>
			<path fill="#939598" d="M192.547,143.582v-5.496h0.58v5.496H192.547z"/>
			<path fill="#939598" d="M194.699,140.433l-0.173-0.474c0.43-0.196,0.852-0.323,1.417-0.323c1.061,0,1.656,0.542,1.656,1.566
				v2.379h-0.557v-0.587c-0.271,0.353-0.723,0.67-1.408,0.67c-0.723,0-1.454-0.408-1.454-1.221c0-0.829,0.677-1.266,1.664-1.266
				c0.497,0,0.851,0.068,1.198,0.166v-0.136c0-0.7-0.429-1.062-1.16-1.062C195.422,140.147,195.061,140.267,194.699,140.433z
				 M194.767,142.421c0,0.496,0.451,0.783,0.979,0.783c0.716,0,1.302-0.437,1.302-1.055v-0.375c-0.286-0.083-0.67-0.166-1.144-0.166
				C195.174,141.609,194.767,141.924,194.767,142.421z"/>
			<path fill="#939598" d="M199.411,143.582h-0.581v-3.893h0.581v0.678c0.256-0.422,0.662-0.761,1.333-0.761
				c0.94,0,1.491,0.634,1.491,1.559v2.417h-0.581v-2.274c0-0.722-0.392-1.175-1.076-1.175c-0.671,0-1.167,0.489-1.167,1.22
				L199.411,143.582L199.411,143.582z"/>
			<path fill="#939598" d="M206.59,143.582v-0.784c-0.316,0.468-0.776,0.867-1.491,0.867c-0.934,0-1.86-0.739-1.86-2.026
				c0-1.28,0.926-2.033,1.86-2.033c0.722,0,1.189,0.392,1.491,0.828v-2.348h0.58v5.495L206.59,143.582L206.59,143.582z
				 M205.205,140.125c-0.753,0-1.371,0.558-1.371,1.504c0,0.927,0.632,1.514,1.371,1.514c0.722,0,1.408-0.603,1.408-1.514
				C206.613,140.727,205.928,140.125,205.205,140.125z"/>
		</g>
	</g>
	<g id="windows">
		<g>
			<g>
				<rect x="247.485" y="10.037" fill="#FFFFFF" stroke="#939598" width="74.778" height="3.949"/>
				<line fill="none" stroke="#939598" x1="322.266" y1="11.991" x2="246.679" y2="11.991"/>
				<line fill="none" stroke="#939598" stroke-width="2" x1="297.892" y1="14.156" x2="297.892" y2="10.399"/>
			</g>
			<line fill="none" stroke="#939598" stroke-width="2" x1="272.748" y1="14.291" x2="272.748" y2="10.418"/>
		</g>
		<g>
			<g>
				<rect x="8.654" y="10.105" fill="#FFFFFF" stroke="#939598" width="74.779" height="3.95"/>
				<line fill="none" stroke="#939598" x1="83.434" y1="12.059" x2="7.848" y2="12.059"/>
				<line fill="none" stroke="#939598" stroke-width="2" x1="59.06" y1="14.225" x2="59.06" y2="10.468"/>
			</g>
			<line fill="none" stroke="#939598" stroke-width="2" x1="33.916" y1="14.359" x2="33.916" y2="10.487"/>
		</g>
		<g>
			<g>
				<rect x="383.931" y="10.105" fill="#FFFFFF" stroke="#939598" width="74.778" height="3.95"/>
				<line fill="none" stroke="#939598" x1="458.71" y1="12.059" x2="383.125" y2="12.059"/>
				<line fill="none" stroke="#939598" stroke-width="2" x1="434.336" y1="14.225" x2="434.336" y2="10.468"/>
			</g>
			<line fill="none" stroke="#939598" stroke-width="2" x1="409.192" y1="14.359" x2="409.192" y2="10.487"/>
		</g>
	</g>
</g>
</svg>
