<?xml version="1.0" encoding="utf-8"?>
<!-- Generator: Adobe Illustrator 15.0.2, SVG Export Plug-In . SVG Version: 6.00 Build 0)  -->
<!DOCTYPE svg PUBLIC "-//W3C//DTD SVG 1.1//EN" "http://www.w3.org/Graphics/SVG/1.1/DTD/svg11.dtd">
<svg version="1.1" id="Layer_1" xmlns="http://www.w3.org/2000/svg" xmlns:xlink="http://www.w3.org/1999/xlink" x="0px" y="0px"
	 width="500px" height="500px" viewBox="-56.83 -119.704 500 500" enable-background="new -56.83 -119.704 500 500"
	 xml:space="preserve">
<g id="_x32_0_x25___PMS_2985_fill" display="none">
	<polygon display="inline" fill="#EBEEEF" points="2.791,100.5 2.791,257.5 384.211,257.5 384.211,2.963 229.689,2.963 
		229.689,100.5 	"/>
</g>
<g>
	<g id="icons">
		<g>
			<g>
				<rect x="403.148" y="230.837" fill="#FFFFFF" stroke="#939598" width="30.166" height="58.344"/>
				<path fill="#FFFFFF" stroke="#939598" d="M418.231,260.013"/>
				<path fill="#FFFFFF" stroke="#939598" d="M418.231,260.21"/>
				<path fill="#FFFFFF" stroke="#939598" d="M418.231,279.993"/>
			</g>
			<circle fill="#FFFFFF" stroke="#939598" cx="418.375" cy="275.886" r="1.238"/>
			<path fill="#FFFFFF" stroke="#939598" d="M418.323,234.169c-8.646,0-11.811,1.994-11.811,4.791c0,0,0,41.932,0,42.617
				c0,0.684,0.185,2.096,1.992,2.096c1.811,0,9.818,0,9.818,0h0.021c0,0,8.008,0,9.818,0c1.808,0,1.992-1.412,1.992-2.096
				c0-0.686,0-42.588,0-42.588l-0.002-0.027C430.152,236.165,426.915,234.169,418.323,234.169z"/>
			<path fill="#FFFFFF" stroke="#939598" d="M415.779,285.843c0.003-0.701-0.561-1.264-1.269-1.264c-0.687,0-1.252,0.562-1.26,1.264
				c0.008,0.695,0.573,1.27,1.26,1.27C415.219,287.112,415.782,286.546,415.779,285.843z"/>
			<path fill="#FFFFFF" stroke="#939598" d="M423.623,285.843c0.008-0.701-0.568-1.264-1.265-1.264
				c-0.693,0-1.265,0.562-1.265,1.264c0,0.695,0.571,1.27,1.265,1.262C423.057,287.112,423.623,286.538,423.623,285.843z"/>
			<path fill="#FFFFFF" stroke="#939598" d="M416.673,286.216c0,1.037,0.7,1.875,1.738,1.879c1.034-0.004,1.601-0.842,1.601-1.879
				l-0.666-7.141c0-0.699-1.893-0.699-1.893,0L416.673,286.216z"/>
		</g>
		<g>
			<polygon fill="none" stroke="#939598" points="302.452,293.562 300.32,293.577 300.3,263.165 302.461,263.149 			"/>
			<path fill="none" stroke="#939598" d="M301.444,263.124c-16.743,0.57-29.856,14.416-29.285,31.16"/>
		</g>
		<g>
			<polygon fill="none" stroke="#939598" points="429.314,128.218 427.182,128.23 427.162,158.642 429.295,158.632 			"/>
			<path fill="none" stroke="#939598" d="M428.334,158.655c-16.744-0.568-29.856-14.334-29.286-31.077"/>
		</g>
		<g>
			<polygon fill="none" stroke="#939598" points="242.502,251.478 242.512,253.503 271.403,253.524 271.394,251.495 			"/>
			<path fill="none" stroke="#939598" d="M271.416,252.409c-0.541,15.906-13.617,28.363-29.522,27.818"/>
		</g>
		<line fill="none" stroke="#939598" x1="230.394" y1="241.952" x2="230.394" y2="290.794"/>
		
			<line fill="none" stroke="#939598" stroke-dasharray="1.5,1.5,1.5,1.5,1.5,1.5" x1="227.646" y1="242.325" x2="227.646" y2="292.763"/>
		<g>
			<polygon fill="none" stroke="#939598" points="321.042,206.581 323.174,206.593 323.194,237.005 321.061,236.993 			"/>
			<path fill="none" stroke="#939598" d="M322.021,237.019c16.744-0.568,29.857-14.334,29.286-31.078"/>
		</g>
		<g>
			<polygon fill="none" stroke="#939598" points="321.438,129.121 323.57,129.11 323.591,98.697 321.457,98.707 			"/>
			<path fill="none" stroke="#939598" d="M322.418,98.684c16.746,0.568,29.857,14.333,29.289,31.076"/>
		</g>
		<line fill="none" stroke="#939598" x1="403.056" y1="214.979" x2="434.339" y2="214.979"/>
		<line fill="none" stroke="#939598" x1="373.368" y1="130.067" x2="373.368" y2="207.638"/>
		
			<line fill="none" stroke="#939598" stroke-dasharray="1.5,1.5,1.5,1.5,1.5,1.5" x1="402.099" y1="217.44" x2="433.382" y2="217.44"/>
		
			<line fill="none" stroke="#939598" stroke-dasharray="1.5,1.5,1.5,1.5,1.5,1.5" x1="370.814" y1="130.386" x2="370.814" y2="206.679"/>
		<rect x="348.789" y="268.595" fill="#FFFFFF" stroke="#939598" width="40.222" height="21.721"/>
		<g>
			<path fill="#FFFFFF" stroke="#939598" stroke-miterlimit="10" d="M338.616,273.563c0-5.697-3.462-11.971-7.729-11.971
				s-7.714,6.273-7.714,11.971c0,5.699,3.447,8.664,7.714,8.664S338.616,279.263,338.616,273.563"/>
			<path fill="#FFFFFF" stroke="#939598" d="M338.616,273.563c0-5.697-3.462-11.971-7.729-11.971s-7.714,6.273-7.714,11.971
				c0,5.699,3.447,8.664,7.714,8.664S338.616,279.263,338.616,273.563z"/>
			<path fill="#FFFFFF" stroke="#939598" stroke-miterlimit="10" d="M326.262,280.36c0-0.318-0.262-0.582-0.581-0.582h-2.691
				c-0.319,0-0.581,0.264-0.581,0.582v0.098c0,0.32,0.262,0.58,0.581,0.58h2.691c0.319,0,0.581-0.26,0.581-0.58V280.36z"/>
			<path fill="#FFFFFF" stroke="#939598" d="M326.262,280.36c0-0.318-0.262-0.582-0.581-0.582h-2.691
				c-0.319,0-0.581,0.264-0.581,0.582v0.098c0,0.32,0.262,0.58,0.581,0.58h2.691c0.319,0,0.581-0.26,0.581-0.58V280.36z"/>
			<path fill="#FFFFFF" stroke="#939598" stroke-miterlimit="10" d="M321.999,281.056c-0.967,0-1.755,2.627-1.755,3.594
				c0,0.982,0.788,3.609,1.755,3.609h17.64c0.97,0,1.756-2.629,1.756-3.609c0-0.971-0.786-3.592-1.756-3.592L321.999,281.056z"/>
			<path fill="#FFFFFF" stroke="#939598" d="M321.999,281.056c-0.967,0-1.755,2.627-1.755,3.594c0,0.982,0.788,3.609,1.755,3.609
				h17.64c0.97,0,1.756-2.629,1.756-3.609c0-0.971-0.786-3.592-1.756-3.592L321.999,281.056z"/>
			<path fill="#FFFFFF" stroke="#939598" stroke-miterlimit="10" d="M336.568,273.325c0-4.186-2.543-8.803-5.681-8.803
				s-5.676,4.613-5.676,8.803s2.538,6.367,5.676,6.367S336.568,277.515,336.568,273.325"/>
			<path fill="#FFFFFF" stroke="#939598" d="M336.568,273.325c0-4.186-2.543-8.803-5.681-8.803s-5.676,4.613-5.676,8.803
				s2.538,6.367,5.676,6.367S336.568,277.515,336.568,273.325z"/>
		</g>
		<g>
			<g>
				<g>
					<path fill="none" stroke="#939598" d="M368.89,277.075"/>
				</g>
				<g>
					<path fill="none" stroke="#939598" d="M368.89,278.431"/>
				</g>
				<g>
					<circle fill="none" stroke="#939598" cx="368.89" cy="277.074" r="1.298"/>
					<path fill="none" stroke="#939598" d="M368.89,277.075"/>
				</g>
				<g>
					<g>
						<rect x="363.443" y="285.214" fill="none" stroke="#939598" width="10.92" height="2.715"/>
						<path fill="none" stroke="#939598" d="M368.89,286.569"/>
					</g>
					<g>
						<rect x="368.311" y="279.948" fill="none" stroke="#939598" width="1.157" height="5.146"/>
						<path fill="none" stroke="#939598" d="M368.89,282.96"/>
					</g>
					<g>
						<circle fill="none" stroke="#939598" cx="368.89" cy="286.545" r="1.259"/>
						<path fill="none" stroke="#939598" d="M368.89,286.546"/>
					</g>
				</g>
			</g>
			<g>
				<rect x="358.001" y="270.626" fill="none" stroke="#939598" width="21.805" height="17.717"/>
				<rect x="359.779" y="272.407" fill="none" stroke="#939598" width="18.2" height="12.744"/>
			</g>
		</g>
		<rect x="-9.32" y="194.229" fill="#FFFFFF" stroke="#939598" width="61.29" height="35.273"/>
		<g>
			<g>
				<path fill="#FFFFFF" stroke="#939598" d="M23.91,208.196c0.544,0,0.984,0.439,0.984,0.984v17.166
					c0,0.545-0.441,0.984-0.984,0.984H-5.21c-0.544,0-0.984-0.441-0.984-0.984v-17.166c0-0.547,0.44-0.984,0.984-0.984H23.91z"/>
				<path fill="#FFFFFF" stroke="#939598" d="M9.454,217.022"/>
			</g>
			<g>
				<circle fill="#FFFFFF" stroke="#939598" cx="9.454" cy="218.186" r="1.112"/>
				<path fill="#FFFFFF" stroke="#939598" d="M9.454,218.185"/>
			</g>
			<g>
				<g>
					<rect x="4.595" y="208.88" fill="#FFFFFF" stroke="#939598" width="9.716" height="2.324"/>
					<path fill="#FFFFFF" stroke="#939598" d="M9.454,210.042"/>
				</g>
				<g>
					<rect x="8.957" y="211.144" fill="#FFFFFF" stroke="#939598" width="0.992" height="4.578"/>
					<path fill="#FFFFFF" stroke="#939598" d="M9.454,213.138"/>
				</g>
				<g>
					<circle fill="#FFFFFF" stroke="#939598" cx="9.454" cy="210.064" r="1.081"/>
					<path fill="#FFFFFF" stroke="#939598" d="M9.454,210.065"/>
				</g>
			</g>
			<g>
				<path fill="#FFFFFF" stroke="#939598" d="M9.454,218.185"/>
				<path fill="none" stroke="#939598" d="M10.053,212.007h12.245c0.57,0,1.035,0.463,1.035,1.035v11.775
					c0,0.568-0.463,1.033-1.035,1.033H-3.598c-0.57,0-1.036-0.463-1.036-1.033v-11.775c0-0.568,0.464-1.035,1.036-1.035H8.821"/>
			</g>
		</g>
		<g>
			<polyline fill="none" stroke="#939598" stroke-dasharray="1.5,1,1.5,1,1.5,1" points="27.489,230.138 27.489,208.462 
				48.748,208.462 48.748,229.651 			"/>
			<polyline fill="#FFFFFF" stroke="#939598" points="48.78,229.651 48.78,230.938 27.489,230.938 27.489,230.146 			"/>
		</g>
		<rect x="-47.361" y="263.394" fill="#FFFFFF" stroke="#939598" width="85.231" height="26.602"/>
		<g>
			<g>
				<rect x="-23.165" y="262.638" fill="#FFFFFF" stroke="#939598" width="29.687" height="25.219"/>
				<path fill="#FFFFFF" stroke="#939598" d="M-8.322,275.247"/>
			</g>
			<g>
				<g>
					<circle fill="#FFFFFF" stroke="#939598" cx="-1.534" cy="268.225" r="3.606"/>
					<path fill="#FFFFFF" stroke="#939598" d="M-1.534,268.226"/>
				</g>
				<g>
					<circle fill="#FFFFFF" stroke="#939598" stroke-width="0.8" cx="-1.499" cy="268.227" r="2.54"/>
					<path fill="#FFFFFF" stroke="#939598" d="M-1.499,268.226"/>
				</g>
			</g>
			<g>
				<g>
					<circle fill="#FFFFFF" stroke="#939598" cx="-15.946" cy="278.76" r="3.606"/>
					<path fill="#FFFFFF" stroke="#939598" d="M-15.946,278.759"/>
				</g>
				<g>
					<circle fill="#FFFFFF" stroke="#939598" stroke-width="0.8" cx="-15.983" cy="278.76" r="2.54"/>
					<path fill="#FFFFFF" stroke="#939598" d="M-15.983,278.759"/>
				</g>
			</g>
			<g>
				<g>
					<circle fill="#FFFFFF" stroke="#939598" cx="-1.485" cy="278.725" r="4.11"/>
					<path fill="#FFFFFF" stroke="#939598" d="M-1.485,278.724"/>
				</g>
				<g>
					<circle fill="#FFFFFF" stroke="#939598" stroke-width="0.8" cx="-1.525" cy="278.725" r="2.896"/>
					<path fill="#FFFFFF" stroke="#939598" d="M-1.525,278.724"/>
				</g>
			</g>
			<g>
				<g>
					<circle fill="#FFFFFF" stroke="#939598" cx="-15.931" cy="267.948" r="4.109"/>
					<path fill="#FFFFFF" stroke="#939598" d="M-15.931,267.948"/>
				</g>
				<g>
					<circle fill="#FFFFFF" stroke="#939598" stroke-width="0.8" cx="-15.972" cy="267.947" r="2.896"/>
					<path fill="#FFFFFF" stroke="#939598" d="M-15.972,267.948"/>
				</g>
			</g>
			<line fill="none" stroke="#939598" x1="6.562" y1="284.368" x2="-23.165" y2="284.368"/>
			<line fill="none" stroke="#939598" x1="6.522" y1="285.763" x2="-23.165" y2="285.763"/>
		</g>
		<g>
			<g>
				<rect x="60.982" y="260.153" fill="#FFFFFF" stroke="#939598" width="31.795" height="28.053"/>
				<path fill="#FFFFFF" stroke="#939598" d="M78.524,274.179"/>
			</g>
			<line fill="none" stroke="#939598" x1="60.905" y1="262.114" x2="92.777" y2="262.114"/>
			<rect x="87.547" y="258.769" fill="#FFFFFF" stroke="#939598" width="2.577" height="1.363"/>
			<path fill="#FFFFFF" stroke="#939598" d="M88.835,259.526"/>
		</g>
		<g>
			<polyline fill="#FFFFFF" stroke="#939598" points="57.188,255.296 59.53,255.296 59.53,288.708 39.525,288.708 39.525,255.296 
				43.781,255.296 			"/>
			<g>
				<g>
					<g>
						<polygon fill="none" stroke="#939598" stroke-width="0.7" points="50.37,243.952 51.967,244.829 45.316,255.804 
							43.718,254.925 						"/>
						<path fill="none" stroke="#939598" stroke-width="0.8" d="M46.628,250.765"/>
					</g>
					<path fill="none" stroke="#939598" stroke-width="0.8" d="M50.981,244.481c4.088,2.475,6.29,6.887,6.142,11.348"/>
				</g>
			</g>
		</g>
		
			<line fill="none" stroke="#939598" stroke-dasharray="1.5,1.5,1.5,1.5,1.5,1.5" x1="-51.83" y1="276.163" x2="38.189" y2="276.163"/>
		<g>
			<g>
				<rect x="248.2" y="133.345" fill="#FFFFFF" stroke="#939598" width="25.778" height="23.678"/>
				<path fill="none" stroke="#939598" d="M261.089,145.97"/>
				<line fill="none" stroke="#939598" x1="274.017" y1="137.114" x2="248.16" y2="137.114"/>
				<line fill="none" stroke="#939598" x1="273.977" y1="135.997" x2="248.2" y2="135.997"/>
				<polygon fill="none" stroke="#939598" points="253.268,139.958 253.268,151.569 256.38,154.403 265.917,154.403 
					269.069,151.569 269.069,139.958 				"/>
				<path fill="none" stroke="#939598" d="M261.168,147.179"/>
			</g>
		</g>
		<g>
			<g>
				<rect x="278.316" y="133.345" fill="#FFFFFF" stroke="#939598" width="25.778" height="23.678"/>
				<path fill="none" stroke="#939598" d="M291.205,145.97"/>
				<line fill="none" stroke="#939598" x1="304.133" y1="137.114" x2="278.276" y2="137.114"/>
				<line fill="none" stroke="#939598" x1="304.094" y1="135.997" x2="278.316" y2="135.997"/>
				<g>
					<rect x="280.191" y="157.103" fill="none" stroke="#939598" width="1.117" height="1.117"/>
					<path fill="none" stroke="#939598" d="M280.75,157.661"/>
				</g>
			</g>
		</g>
		<g>
			<g>
				<polygon fill="none" stroke="#939598" points="303.731,166.825 301.812,166.808 301.794,194.183 303.764,194.198 				"/>
				<path fill="none" stroke="#939598" d="M302.924,194.218c-15.07-0.512-26.872-12.973-26.358-28.043"/>
			</g>
			<g>
				<polygon fill="none" stroke="#939598" points="249.492,166.825 251.412,166.808 251.43,194.183 249.46,194.198 				"/>
				<path fill="none" stroke="#939598" d="M250.3,194.218c15.071-0.512,26.872-12.973,26.358-28.043"/>
			</g>
		</g>
		
			<line fill="none" stroke="#939598" stroke-dasharray="1.5,1.5,1.5,1.5,1.5,1.5" x1="256.854" y1="146.021" x2="239.297" y2="146.021"/>
		
			<line fill="none" stroke="#939598" stroke-dasharray="1.5,1.5,1.5,1.5,1.5,1.5" x1="286.222" y1="146.021" x2="265.792" y2="146.021"/>
		
			<line fill="none" stroke="#939598" stroke-dasharray="1.5,1.5,1.5,1.5,1.5,1.5" x1="310.163" y1="146.021" x2="297.395" y2="146.021"/>
		<g enable-background="new    ">
			<path fill="#939598" d="M291.959,142.698h0.58l1.719,5.23l1.788-5.213h0.743l-2.237,6.305h-0.6l-1.718-5.08l-1.726,5.08h-0.591
				l-2.237-6.305h0.772l1.786,5.213L291.959,142.698z"/>
		</g>
		<g enable-background="new    ">
			<path fill="#939598" d="M261.19,148.974h-2.172v-6.258h2.172c1.968,0,3.327,1.352,3.327,3.121
				C264.518,147.604,263.158,148.974,261.19,148.974z M261.19,143.366h-1.465v4.955h1.465c1.583,0,2.594-1.072,2.594-2.469
				C263.784,144.458,262.773,143.366,261.19,143.366z"/>
		</g>
		<g>
			<polyline fill="#FFFFFF" stroke="#939598" points="112.313,255.296 114.655,255.296 114.655,288.708 94.65,288.708 
				94.65,255.296 98.906,255.296 			"/>
			<g>
				<g>
					<g>
						<polygon fill="none" stroke="#939598" stroke-width="0.7" points="105.495,243.952 107.092,244.829 100.441,255.804 
							98.843,254.925 						"/>
						<path fill="none" stroke="#939598" stroke-width="0.8" d="M101.753,250.765"/>
					</g>
					<path fill="none" stroke="#939598" stroke-width="0.8" d="M106.105,244.481c4.089,2.475,6.29,6.887,6.142,11.348"/>
				</g>
			</g>
		</g>
		
			<line fill="none" stroke="#939598" stroke-dasharray="1.5,1.5,1.5,1.5,1.5,1.5" x1="60.181" y1="275.312" x2="91.465" y2="275.312"/>
	</g>
	<g id="Type">
		<g enable-background="new    ">
			<path fill="#939598" d="M280.116,287.155h-3.82v2.139h3.417v0.645h-3.417v2.191h3.864v0.643h-4.569v-6.26h4.525V287.155z"/>
			<path fill="#939598" d="M282.152,292.772h-0.688v-4.623h0.688v0.805c0.304-0.502,0.785-0.902,1.582-0.902
				c1.118,0,1.771,0.75,1.771,1.85v2.871h-0.69v-2.701c0-0.857-0.463-1.395-1.276-1.395c-0.796,0-1.387,0.58-1.387,1.449V292.772z"
				/>
			<path fill="#939598" d="M287.898,291.458c0,0.564,0.313,0.771,0.777,0.771c0.234,0,0.431-0.045,0.671-0.162v0.59
				c-0.24,0.125-0.501,0.197-0.83,0.197c-0.743,0-1.307-0.367-1.307-1.307v-2.791h-0.644v-0.607h0.644v-1.396h0.688v1.396h1.467
				v0.607h-1.467V291.458z"/>
			<path fill="#939598" d="M291.269,292.772h-0.688v-4.623h0.688v1.207c0.34-0.77,1.011-1.324,1.887-1.287v0.74h-0.053
				c-1.01,0-1.834,0.727-1.834,2.119V292.772z"/>
			<path fill="#939598" d="M296.454,292.925c-0.394,0.957-0.84,1.305-1.538,1.305c-0.386,0-0.67-0.08-0.984-0.232l0.233-0.547
				c0.225,0.117,0.432,0.17,0.725,0.17c0.41,0,0.67-0.215,0.946-0.867l-2.101-4.604h0.759l1.683,3.854l1.484-3.854h0.733
				L296.454,292.925z"/>
		</g>
		<g enable-background="new    ">
			<path fill="#939598" d="M239.04,276.46c0,1.805-1.422,3.141-3.228,3.141c-1.788,0-3.246-1.326-3.246-3.168
				c0-1.135,0.401-1.816,0.992-2.441l0.519,0.484c-0.501,0.527-0.86,1.117-0.86,1.967c0,1.387,1.12,2.422,2.577,2.422
				c1.458,0,2.594-1.045,2.594-2.422c0-0.859-0.333-1.422-0.903-2.02l0.456-0.467C238.603,274.608,239.04,275.323,239.04,276.46z"/>
			<path fill="#939598" d="M238.933,272.778h-6.526v-0.688h6.526V272.778z"/>
			<path fill="#939598" d="M239.04,268.38c0,1.387-1.09,2.396-2.405,2.396s-2.423-1.02-2.423-2.414c0-1.387,1.09-2.406,2.404-2.406
				C237.933,265.956,239.04,266.985,239.04,268.38z M234.819,268.38c0,1.002,0.795,1.691,1.797,1.691s1.806-0.734,1.806-1.709
				c0-1.002-0.796-1.699-1.787-1.699C235.623,266.663,234.819,267.407,234.819,268.38z"/>
			<path fill="#939598" d="M239.022,263.187c0,0.664-0.259,1.396-0.68,1.914l-0.492-0.348c0.375-0.5,0.591-1.055,0.591-1.6
				c0-0.557-0.287-0.959-0.734-0.959h-0.018c-0.465,0-0.645,0.547-0.814,1.154c-0.204,0.725-0.455,1.529-1.305,1.529h-0.02
				c-0.795,0-1.321-0.664-1.321-1.574c0-0.562,0.194-1.189,0.509-1.662l0.518,0.311c-0.277,0.432-0.448,0.924-0.448,1.369
				c0,0.547,0.287,0.893,0.671,0.893h0.018c0.439,0,0.61-0.57,0.796-1.189c0.214-0.715,0.493-1.484,1.324-1.484h0.018
				C238.513,261.542,239.022,262.267,239.022,263.187z"/>
			<path fill="#939598" d="M238.441,258.228c0-0.635-0.259-1.082-0.653-1.459l0.384-0.43c0.52,0.465,0.868,1.029,0.868,1.904
				c0,1.271-0.975,2.309-2.414,2.309c-1.342,0-2.417-0.938-2.417-2.217c0-1.369,1.092-2.156,2.452-2.156
				c0.062,0,0.133,0,0.214,0.008v3.67C237.878,259.755,238.441,259.04,238.441,258.228z M236.366,256.876
				c-0.84,0.072-1.573,0.555-1.573,1.475c0,0.807,0.67,1.414,1.573,1.506V256.876z"/>
			<path fill="#939598" d="M237.618,254.044c0.564,0,0.771-0.311,0.771-0.777c0-0.232-0.045-0.43-0.162-0.67h0.591
				c0.124,0.24,0.197,0.502,0.197,0.832c0,0.74-0.368,1.305-1.308,1.305h-2.79v0.643h-0.608v-0.643h-1.396v-0.689h1.396v-1.465
				h0.608v1.465H237.618L237.618,254.044z"/>
		</g>
		<g enable-background="new    ">
			<path fill="#939598" d="M354.468,241.063c0,1.057-0.644,1.6-1.277,1.873c0.955,0.289,1.725,0.84,1.725,1.955
				c0,1.389-1.161,2.207-2.919,2.207h-3.576v-8.047h3.427C353.433,239.052,354.468,239.833,354.468,241.063z M353.547,241.188
				c0-0.805-0.631-1.322-1.78-1.322h-2.449v2.771h2.379C352.789,242.638,353.547,242.144,353.547,241.188z M353.996,244.833
				c0-0.883-0.735-1.391-2.14-1.391h-2.539v2.838h2.701C353.238,246.28,353.996,245.741,353.996,244.833z"/>
			<path fill="#939598" d="M356.914,242.294l-0.265-0.725c0.655-0.299,1.298-0.496,2.16-0.496c1.621,0,2.527,0.828,2.527,2.393
				v3.633h-0.851v-0.896c-0.414,0.541-1.103,1.023-2.15,1.023c-1.102,0-2.217-0.621-2.217-1.861c0-1.266,1.034-1.932,2.538-1.932
				c0.761,0,1.301,0.104,1.829,0.252v-0.207c0-1.068-0.654-1.621-1.771-1.621C358.017,241.856,357.465,242.04,356.914,242.294z
				 M357.017,245.329c0,0.758,0.69,1.195,1.493,1.195c1.092,0,1.99-0.668,1.99-1.609v-0.574c-0.437-0.127-1.023-0.254-1.748-0.254
				C357.637,244.087,357.017,244.569,357.017,245.329z"/>
			<path fill="#939598" d="M364.36,245.409c0,0.723,0.401,0.986,1,0.986c0.299,0,0.553-0.057,0.863-0.207v0.76
				c-0.311,0.16-0.644,0.254-1.07,0.254c-0.952,0-1.678-0.473-1.678-1.68v-3.586h-0.826v-0.781h0.826v-1.793h0.885v1.793h1.886
				v0.781h-1.886V245.409L364.36,245.409z"/>
			<path fill="#939598" d="M368.692,247.097h-0.883v-8.391h0.883v3.484c0.392-0.645,1.013-1.162,2.035-1.162
				c1.437,0,2.277,0.967,2.277,2.381v3.689h-0.886v-3.471c0-1.104-0.599-1.793-1.644-1.793c-1.022,0-1.782,0.746-1.782,1.861
				L368.692,247.097L368.692,247.097z"/>
		</g>
		<g enable-background="new    ">
			<path fill="#939598" d="M388.995,175.3c-1.806,0-3.137-1.422-3.137-3.227c0-1.789,1.321-3.248,3.164-3.248
				c1.138,0,1.815,0.402,2.441,0.994l-0.482,0.518c-0.527-0.502-1.118-0.859-1.966-0.859c-1.387,0-2.425,1.119-2.425,2.576
				c0,1.459,1.047,2.594,2.425,2.594c0.857,0,1.421-0.332,2.02-0.904l0.465,0.457C390.849,174.862,390.133,175.3,388.995,175.3z"/>
			<path fill="#939598" d="M392.678,175.192v-6.525h0.688v6.525H392.678z"/>
			<path fill="#939598" d="M397.075,175.3c-1.386,0-2.396-1.09-2.396-2.404c0-1.316,1.021-2.424,2.414-2.424
				c1.387,0,2.407,1.09,2.407,2.404C399.5,174.192,398.471,175.3,397.075,175.3z M397.075,171.079c-1.001,0-1.689,0.795-1.689,1.797
				s0.732,1.805,1.707,1.805c1.003,0,1.701-0.795,1.701-1.785C398.794,171.884,398.051,171.079,397.075,171.079z"/>
			<path fill="#939598" d="M402.268,175.282c-0.66,0-1.394-0.26-1.912-0.68l0.349-0.492c0.5,0.375,1.055,0.592,1.602,0.592
				c0.554,0,0.956-0.287,0.956-0.734v-0.018c0-0.465-0.545-0.645-1.153-0.814c-0.726-0.205-1.529-0.455-1.529-1.307v-0.018
				c0-0.797,0.662-1.322,1.574-1.322c0.563,0,1.189,0.195,1.663,0.51l-0.314,0.516c-0.429-0.275-0.92-0.447-1.366-0.447
				c-0.546,0-0.895,0.287-0.895,0.672v0.018c0,0.438,0.573,0.609,1.19,0.795c0.717,0.215,1.483,0.494,1.483,1.324v0.02
				C403.914,174.774,403.19,175.282,402.268,175.282z"/>
			<path fill="#939598" d="M407.23,174.702c0.634,0,1.083-0.26,1.458-0.654l0.429,0.385c-0.464,0.518-1.028,0.867-1.905,0.867
				c-1.27,0-2.308-0.975-2.308-2.414c0-1.342,0.939-2.416,2.219-2.416c1.367,0,2.155,1.09,2.155,2.451c0,0.062,0,0.133-0.01,0.215
				h-3.666C405.699,174.138,406.415,174.702,407.23,174.702z M408.58,172.626c-0.072-0.84-0.554-1.572-1.477-1.572
				c-0.805,0-1.411,0.668-1.501,1.572H408.58z"/>
			<path fill="#939598" d="M411.412,173.878c0,0.564,0.312,0.771,0.776,0.771c0.234,0,0.432-0.045,0.671-0.162v0.59
				c-0.239,0.125-0.5,0.195-0.83,0.195c-0.743,0-1.306-0.367-1.306-1.305v-2.791h-0.645v-0.609h0.645v-1.395h0.688v1.395h1.467
				v0.609h-1.467V173.878z"/>
		</g>
		<g enable-background="new    ">
			<path fill="#939598" d="M10.402,197.981v6.26H9.695v-6.26H10.402z"/>
			<path fill="#939598" d="M13.646,204.333c-0.662,0-1.394-0.26-1.914-0.68l0.349-0.492c0.5,0.375,1.056,0.59,1.601,0.59
				c0.554,0,0.957-0.287,0.957-0.734v-0.018c0-0.465-0.546-0.643-1.154-0.814c-0.724-0.205-1.529-0.455-1.529-1.305v-0.018
				c0-0.795,0.663-1.322,1.574-1.322c0.563,0,1.19,0.195,1.664,0.508l-0.313,0.518c-0.429-0.277-0.922-0.445-1.369-0.445
				c-0.545,0-0.893,0.285-0.893,0.668v0.02c0,0.438,0.572,0.609,1.189,0.795c0.715,0.215,1.485,0.492,1.485,1.324v0.018
				C15.292,203.823,14.568,204.333,13.646,204.333z"/>
			<path fill="#939598" d="M16.632,204.243v-6.527h0.688v6.527H16.632z"/>
			<path fill="#939598" d="M19.188,200.505l-0.206-0.562c0.509-0.232,1.011-0.385,1.681-0.385c1.261,0,1.968,0.643,1.968,1.859
				v2.826H21.97v-0.697c-0.321,0.42-0.858,0.795-1.672,0.795c-0.859,0-1.727-0.482-1.727-1.449c0-0.984,0.805-1.504,1.977-1.504
				c0.59,0,1.011,0.082,1.422,0.197v-0.16c0-0.832-0.509-1.26-1.377-1.26C20.046,200.165,19.618,200.308,19.188,200.505z
				 M19.269,202.868c0,0.588,0.536,0.928,1.163,0.928c0.849,0,1.547-0.518,1.547-1.25v-0.447c-0.34-0.1-0.795-0.197-1.359-0.197
				C19.751,201.899,19.269,202.274,19.269,202.868z"/>
			<path fill="#939598" d="M24.784,204.243h-0.688v-4.623h0.688v0.807c0.304-0.504,0.787-0.906,1.583-0.906
				c1.117,0,1.771,0.754,1.771,1.852v2.871h-0.689v-2.699c0-0.859-0.464-1.396-1.278-1.396c-0.795,0-1.385,0.58-1.385,1.447
				L24.784,204.243L24.784,204.243z"/>
			<path fill="#939598" d="M33.312,204.243v-0.932c-0.376,0.557-0.921,1.029-1.771,1.029c-1.108,0-2.209-0.877-2.209-2.404
				c0-1.521,1.101-2.416,2.209-2.416c0.858,0,1.413,0.465,1.771,0.984v-2.789h0.689v6.525h-0.689V204.243z M31.666,200.138
				c-0.894,0-1.628,0.662-1.628,1.787c0,1.102,0.751,1.799,1.628,1.799c0.858,0,1.673-0.717,1.673-1.799
				C33.339,200.854,32.524,200.138,31.666,200.138z"/>
		</g>
		<g enable-background="new    ">
			<path fill="#939598" d="M1.259,249.013H0.121l-3.092-3.896l-1.712,1.734v2.162h-0.908v-8.049h0.908v4.807l4.621-4.807h1.172
				l-3.449,3.52L1.259,249.013z"/>
			<path fill="#939598" d="M2.543,241.771v-0.977h1.011v0.977H2.543z M2.601,249.013v-5.941h0.884v5.941H2.601z"/>
			<path fill="#939598" d="M6.739,247.323c0,0.725,0.402,0.988,1,0.988c0.299,0,0.552-0.059,0.862-0.207v0.76
				c-0.311,0.16-0.644,0.252-1.069,0.252c-0.953,0-1.678-0.471-1.678-1.678v-3.586H5.026v-0.781h0.827v-1.793h0.885v1.793h1.886
				v0.781H6.739V247.323z"/>
			<path fill="#939598" d="M12.693,249.151c-1.736,0-3.047-1.412-3.047-3.092c0-1.689,1.31-3.115,3.047-3.115
				c1.126,0,1.827,0.471,2.378,1.057l-0.586,0.621c-0.472-0.494-1-0.896-1.806-0.896c-1.207,0-2.127,1.023-2.127,2.311
				c0,1.301,0.942,2.322,2.184,2.322c0.759,0,1.345-0.381,1.815-0.885l0.563,0.529C14.52,248.667,13.807,249.151,12.693,249.151z"/>
			<path fill="#939598" d="M17.461,249.013h-0.885v-8.391h0.885v3.484c0.39-0.646,1.011-1.162,2.035-1.162
				c1.436,0,2.275,0.967,2.275,2.379v3.691h-0.885v-3.471c0-1.104-0.598-1.795-1.645-1.795c-1.023,0-1.783,0.748-1.783,1.863v3.4
				H17.461z"/>
			<path fill="#939598" d="M26.275,248.382c0.816,0,1.39-0.334,1.875-0.84l0.551,0.494c-0.597,0.666-1.322,1.115-2.449,1.115
				c-1.632,0-2.965-1.252-2.965-3.104c0-1.725,1.207-3.105,2.85-3.105c1.758,0,2.771,1.404,2.771,3.15c0,0.082,0,0.174-0.011,0.277
				h-4.713C24.31,247.657,25.23,248.382,26.275,248.382z M28.011,245.712c-0.092-1.08-0.712-2.021-1.896-2.021
				c-1.034,0-1.815,0.863-1.93,2.021H28.011z"/>
			<path fill="#939598" d="M31.343,249.013h-0.885v-5.941h0.885v1.035c0.39-0.646,1.011-1.162,2.035-1.162
				c1.437,0,2.276,0.967,2.276,2.379v3.691h-0.885v-3.471c0-1.104-0.597-1.795-1.644-1.795c-1.023,0-1.783,0.748-1.783,1.863v3.4
				H31.343z"/>
		</g>
		<g enable-background="new    ">
			<path fill="#939598" d="M32.653,222.757h-2.173v-6.26h2.173c1.968,0,3.327,1.352,3.327,3.121S34.621,222.757,32.653,222.757z
				 M32.653,217.149h-1.467v4.953h1.467c1.582,0,2.593-1.072,2.593-2.469C35.246,218.239,34.235,217.149,32.653,217.149z"/>
			<path fill="#939598" d="M40.939,216.478h0.581l1.718,5.234l1.789-5.215h0.742l-2.236,6.305h-0.599l-1.717-5.08l-1.726,5.08h-0.59
				l-2.236-6.305h0.77l1.789,5.215L40.939,216.478z"/>
		</g>
		<g enable-background="new    ">
			<path fill="#939598" d="M74.413,272.38l-1.816-2.434h-1.789v2.434h-0.706v-6.26h2.691c1.377,0,2.262,0.742,2.262,1.871
				c0,1.045-0.715,1.652-1.7,1.832l1.923,2.559h-0.866V272.38z M72.74,266.771h-1.932v2.541h1.923c0.939,0,1.611-0.482,1.611-1.297
				C74.342,267.237,73.752,266.771,72.74,266.771z"/>
			<path fill="#939598" d="M78.398,271.888c0.635,0,1.083-0.258,1.458-0.652l0.429,0.385c-0.464,0.518-1.027,0.867-1.905,0.867
				c-1.271,0-2.308-0.975-2.308-2.414c0-1.342,0.938-2.416,2.218-2.416c1.368,0,2.155,1.09,2.155,2.449c0,0.064,0,0.133-0.008,0.215
				H76.77C76.869,271.325,77.585,271.888,78.398,271.888z M79.748,269.813c-0.071-0.84-0.554-1.574-1.476-1.574
				c-0.805,0-1.412,0.67-1.503,1.574H79.748z"/>
			<path fill="#939598" d="M84.056,267.774v0.59h-1.458v4.018h-0.688v-4.018h-0.635v-0.6h0.635v-0.4c0-1.012,0.51-1.549,1.395-1.549
				c0.321,0,0.536,0.037,0.759,0.117v0.6c-0.25-0.072-0.438-0.117-0.67-0.117c-0.536,0-0.804,0.324-0.804,0.984v0.377h1.467V267.774
				z"/>
		</g>
		<g enable-background="new    ">
			<path fill="#939598" d="M51.069,282.007v1.521h2.208v0.705h-6.259v-2.342c0-1.412,0.75-2.344,1.994-2.344
				C50.371,279.548,51.069,280.675,51.069,282.007z M47.67,281.944v1.584h2.754v-1.547c0-1.037-0.554-1.719-1.385-1.719
				C48.135,280.263,47.67,280.935,47.67,281.944z"/>
			<path fill="#939598" d="M49.54,278.2l-0.564,0.207c-0.232-0.512-0.384-1.012-0.384-1.68c0-1.262,0.643-1.969,1.86-1.969h2.826
				v0.662h-0.697c0.42,0.322,0.795,0.857,0.795,1.672c0,0.861-0.482,1.729-1.449,1.729c-0.985,0-1.503-0.805-1.503-1.977
				c0-0.592,0.081-1.012,0.197-1.422H50.46c-0.831,0-1.26,0.508-1.26,1.377C49.2,277.343,49.341,277.772,49.54,278.2z M51.9,278.12
				c0.59,0,0.93-0.535,0.93-1.162c0-0.85-0.519-1.547-1.251-1.547h-0.447c-0.098,0.34-0.196,0.795-0.196,1.357
				C50.934,277.638,51.309,278.12,51.9,278.12z"/>
			<path fill="#939598" d="M53.277,272.606v0.689h-4.624v-0.689h0.806c-0.502-0.305-0.904-0.787-0.904-1.584
				c0-1.117,0.752-1.77,1.851-1.77h2.871v0.688h-2.7c-0.858,0-1.396,0.465-1.396,1.279c0,0.797,0.581,1.387,1.45,1.387H53.277z"/>
			<path fill="#939598" d="M51.963,266.858c0.563,0,0.77-0.312,0.77-0.777c0-0.232-0.045-0.43-0.162-0.67h0.591
				c0.125,0.24,0.196,0.502,0.196,0.832c0,0.742-0.368,1.303-1.306,1.303h-2.79v0.645h-0.609v-0.645h-1.396v-0.688h1.396v-1.467
				h0.609v1.467H51.963z"/>
			<path fill="#939598" d="M53.277,263.489v0.688h-4.624v-0.688h1.207c-0.769-0.34-1.323-1.01-1.288-1.889h0.742v0.055
				c0,1.012,0.724,1.834,2.12,1.834H53.277z"/>
			<path fill="#939598" d="M53.43,258.304c0.957,0.396,1.305,0.842,1.305,1.539c0,0.385-0.081,0.672-0.233,0.984l-0.546-0.234
				c0.116-0.223,0.169-0.428,0.169-0.723c0-0.412-0.214-0.67-0.867-0.947l-4.605,2.102v-0.762l3.855-1.68l-3.855-1.482v-0.734
				L53.43,258.304z"/>
		</g>
		<g enable-background="new    ">
			<path fill="#939598" d="M258.323,158.692h0.705v5.607h3.524v0.652h-4.229V158.692L258.323,158.692z"/>
			<path fill="#939598" d="M264.009,161.214l-0.207-0.562c0.51-0.232,1.01-0.385,1.681-0.385c1.263,0,1.968,0.645,1.968,1.861v2.824
				h-0.66v-0.697c-0.324,0.422-0.86,0.795-1.675,0.795c-0.858,0-1.726-0.48-1.726-1.449c0-0.982,0.805-1.502,1.976-1.502
				c0.59,0,1.012,0.08,1.422,0.197v-0.16c0-0.832-0.51-1.262-1.377-1.262C264.867,160.874,264.436,161.015,264.009,161.214z
				 M264.089,163.575c0,0.59,0.536,0.93,1.162,0.93c0.849,0,1.546-0.52,1.546-1.252v-0.447c-0.339-0.098-0.795-0.197-1.359-0.197
				C264.571,162.608,264.089,162.983,264.089,163.575z"/>
			<path fill="#939598" d="M272.196,160.327h0.68v4.623h-0.68v-0.803c-0.312,0.5-0.788,0.902-1.584,0.902
				c-1.117,0-1.771-0.752-1.771-1.852v-2.871h0.688v2.701c0,0.859,0.467,1.396,1.279,1.396c0.788,0,1.387-0.582,1.387-1.449V160.327
				z"/>
			<path fill="#939598" d="M275.109,164.95h-0.688v-4.623h0.688v0.807c0.304-0.502,0.785-0.904,1.582-0.904
				c1.119,0,1.771,0.752,1.771,1.852v2.869h-0.689v-2.699c0-0.857-0.464-1.396-1.278-1.396c-0.795,0-1.385,0.582-1.385,1.449V164.95
				z"/>
			<path fill="#939598" d="M283.639,164.95v-0.93c-0.377,0.557-0.923,1.029-1.772,1.029c-1.108,0-2.208-0.877-2.208-2.406
				c0-1.52,1.1-2.416,2.208-2.416c0.859,0,1.413,0.465,1.772,0.984v-2.789h0.688v6.527H283.639L283.639,164.95z M281.992,160.845
				c-0.896,0-1.627,0.664-1.627,1.789c0,1.102,0.751,1.799,1.627,1.799c0.858,0,1.672-0.717,1.672-1.799
				C283.663,161.562,282.851,160.845,281.992,160.845z"/>
			<path fill="#939598" d="M286.549,164.95h-0.688v-4.623h0.688v1.207c0.342-0.768,1.011-1.322,1.888-1.287v0.742h-0.053
				c-1.012,0-1.835,0.725-1.835,2.119V164.95z"/>
			<path fill="#939598" d="M291.733,165.103c-0.394,0.957-0.84,1.305-1.538,1.305c-0.385,0-0.67-0.08-0.984-0.232l0.233-0.547
				c0.225,0.117,0.429,0.17,0.725,0.17c0.411,0,0.671-0.215,0.947-0.865l-2.101-4.605h0.76l1.682,3.854l1.483-3.854h0.733
				L291.733,165.103z"/>
		</g>
		<g enable-background="new    ">
			<path fill="#939598" d="M318.066,31.467c0,1.057-0.644,1.599-1.274,1.874c0.953,0.288,1.724,0.839,1.724,1.954
				c0,1.391-1.161,2.208-2.921,2.208h-3.573v-8.046h3.427C317.033,29.456,318.066,30.237,318.066,31.467z M317.147,31.594
				c0-0.805-0.632-1.323-1.782-1.323h-2.448v2.771h2.379C316.39,33.043,317.147,32.548,317.147,31.594z M317.596,35.237
				c0-0.885-0.735-1.392-2.138-1.392h-2.541v2.84h2.7C316.837,36.686,317.596,36.145,317.596,35.237z"/>
			<path fill="#939598" d="M322.79,36.871c0.815,0,1.392-0.333,1.873-0.839l0.554,0.495c-0.599,0.667-1.323,1.116-2.449,1.116
				c-1.632,0-2.965-1.253-2.965-3.104c0-1.726,1.207-3.106,2.85-3.106c1.76,0,2.771,1.404,2.771,3.15c0,0.081,0,0.174-0.013,0.277
				h-4.712C320.825,36.145,321.742,36.871,322.79,36.871z M324.525,34.203c-0.092-1.08-0.713-2.022-1.897-2.022
				c-1.034,0-1.815,0.862-1.931,2.022H324.525z"/>
			<path fill="#939598" d="M331.74,37.502v-1.196c-0.481,0.714-1.182,1.322-2.274,1.322c-1.426,0-2.84-1.126-2.84-3.091
				c0-1.955,1.412-3.105,2.84-3.105c1.103,0,1.815,0.599,2.274,1.266v-3.588h0.886V37.5h-0.886V37.502z M329.627,32.227
				c-1.149,0-2.094,0.851-2.094,2.298c0,1.414,0.968,2.311,2.094,2.311c1.104,0,2.149-0.919,2.149-2.311
				C331.776,33.146,330.73,32.227,329.627,32.227z"/>
			<path fill="#939598" d="M335.486,37.502h-0.883V31.56h0.883v1.551c0.438-0.987,1.3-1.701,2.427-1.655v0.954h-0.071
				c-1.298,0-2.356,0.931-2.356,2.725L335.486,37.502L335.486,37.502z"/>
			<path fill="#939598" d="M341.716,37.641c-1.78,0-3.08-1.404-3.08-3.093c0-1.689,1.311-3.116,3.105-3.116
				c1.782,0,3.09,1.404,3.09,3.093C344.831,36.216,343.509,37.641,341.716,37.641z M341.716,32.214
				c-1.286,0-2.172,1.023-2.172,2.311c0,1.289,0.942,2.323,2.197,2.323c1.288,0,2.182-1.024,2.182-2.3
				C343.923,33.249,342.971,32.214,341.716,32.214z"/>
			<path fill="#939598" d="M349.141,37.641c-1.783,0-3.08-1.404-3.08-3.093c0-1.689,1.31-3.116,3.103-3.116
				c1.783,0,3.092,1.404,3.092,3.093C352.255,36.216,350.934,37.641,349.141,37.641z M349.141,32.214
				c-1.287,0-2.172,1.023-2.172,2.311c0,1.289,0.942,2.323,2.194,2.323c1.288,0,2.185-1.024,2.185-2.3
				C351.348,33.249,350.394,32.214,349.141,32.214z"/>
			<path fill="#939598" d="M360.657,31.432c1.366,0,2.207,0.921,2.207,2.392v3.678h-0.884v-3.472c0-1.149-0.576-1.793-1.541-1.793
				c-0.896,0-1.644,0.666-1.644,1.839v3.425h-0.874v-3.493c0-1.116-0.587-1.771-1.529-1.771s-1.654,0.782-1.654,1.874v3.391h-0.886
				V31.56h0.886v1c0.39-0.586,0.919-1.127,1.919-1.127c0.966,0,1.587,0.518,1.909,1.186
				C358.989,31.962,359.622,31.432,360.657,31.432z"/>
		</g>
		<g enable-background="new    ">
			<path fill="#939598" d="M306.747,43.444h0.664v8.104h-0.896v-7.161l-1.516,0.471l-0.219-0.736L306.747,43.444z"/>
			<path fill="#939598" d="M314.469,44.984c-0.597-0.506-1.16-0.793-1.896-0.793c-1.459,0-2.366,1.471-2.356,3.552
				c0.437-0.645,1.114-1.231,2.288-1.231c1.505,0,2.782,0.966,2.782,2.482c0,1.564-1.252,2.691-2.886,2.691
				c-0.886,0-1.609-0.31-2.115-0.817c-0.643-0.643-1.012-1.471-1.012-3.126c0-2.46,1.241-4.38,3.346-4.38
				c0.966,0,1.677,0.346,2.38,0.92L314.469,44.984z M312.388,47.295c-1.207,0-2.01,0.862-2.01,1.771
				c0,1.046,0.851,1.816,2.034,1.816c1.183,0,1.941-0.816,1.941-1.85C314.354,48.03,313.55,47.295,312.388,47.295z"/>
			<path fill="#939598" d="M317.102,43.501h1.08v0.058l-0.932,3.068h-0.494L317.102,43.501z"/>
			<path fill="#939598" d="M320.191,43.501h4.631v0.839h-3.838l-0.172,2.575c0.471-0.207,0.92-0.356,1.586-0.356
				c1.563,0,2.78,0.931,2.78,2.472c0,1.585-1.194,2.656-2.872,2.656c-1.15,0-2.15-0.553-2.875-1.277l0.598-0.655
				c0.703,0.678,1.472,1.103,2.289,1.103c1.148,0,1.941-0.759,1.941-1.792c0-1.011-0.816-1.702-1.998-1.702
				c-0.679,0-1.22,0.207-1.691,0.459l-0.609-0.402L320.191,43.501z"/>
			<path fill="#939598" d="M326.95,43.501h1.067v0.058l-0.931,3.068h-0.483L326.95,43.501z M329.202,43.501h1.057v0.058
				l-0.931,3.068h-0.483L329.202,43.501z"/>
			<path fill="#939598" d="M340.509,51.548h-1.022l-1.838-2.425l-1.851,2.425h-0.988l2.334-3.023l-2.242-2.919h1.012l1.759,2.299
				l1.759-2.299h0.988l-2.254,2.897L340.509,51.548z"/>
			<path fill="#939598" d="M346.691,43.444h0.665v8.104h-0.896v-7.161l-1.517,0.471l-0.22-0.736L346.691,43.444z"/>
			<path fill="#939598" d="M349.517,44.317v-0.815h5.139v0.667l-2.529,2.804c1.414,0.115,2.655,0.793,2.655,2.276
				c0,1.449-1.195,2.438-2.688,2.438c-1.345,0-2.345-0.588-3-1.438l0.655-0.586c0.619,0.76,1.367,1.197,2.357,1.197
				c0.976,0,1.759-0.621,1.759-1.574c0-1.011-0.921-1.564-2.255-1.564h-0.517l-0.185-0.54l2.542-2.863L349.517,44.317
				L349.517,44.317z"/>
			<path fill="#939598" d="M356.654,43.501h1.08v0.058l-0.93,3.068h-0.497L356.654,43.501z"/>
			<path fill="#939598" d="M359.744,43.501h4.634v0.839h-3.841l-0.172,2.575c0.472-0.207,0.921-0.356,1.586-0.356
				c1.564,0,2.783,0.931,2.783,2.472c0,1.585-1.198,2.656-2.875,2.656c-1.148,0-2.149-0.553-2.873-1.277l0.599-0.655
				c0.701,0.678,1.472,1.103,2.287,1.103c1.149,0,1.942-0.759,1.942-1.792c0-1.011-0.816-1.702-2-1.702
				c-0.679,0-1.22,0.207-1.689,0.459l-0.61-0.402L359.744,43.501z"/>
			<path fill="#939598" d="M366.503,43.501h1.067v0.058l-0.931,3.068h-0.483L366.503,43.501z M368.755,43.501h1.058v0.058
				l-0.931,3.068h-0.483L368.755,43.501z"/>
		</g>
		<g enable-background="new    ">
			<path fill="#939598" d="M37.317,142.673h0.908v7.207h4.529v0.84h-5.437V142.673z"/>
			<path fill="#939598" d="M44.306,143.478v-0.977h1.011v0.977H44.306z M44.362,150.72v-5.943h0.885v5.943H44.362z"/>
			<path fill="#939598" d="M51.707,144.776h0.954l-2.585,5.988h-0.782l-2.575-5.988h0.978l2,4.932L51.707,144.776z"/>
			<path fill="#939598" d="M54.072,143.478v-0.977h1.011v0.977H54.072z M54.13,150.72v-5.943h0.885v5.943H54.13z"/>
			<path fill="#939598" d="M57.957,150.72h-0.885v-5.943h0.885v1.035c0.391-0.645,1.011-1.162,2.036-1.162
				c1.437,0,2.275,0.967,2.275,2.381v3.689h-0.885v-3.471c0-1.104-0.598-1.793-1.645-1.793c-1.022,0-1.782,0.748-1.782,1.861
				L57.957,150.72L57.957,150.72z"/>
			<path fill="#939598" d="M66.784,152.581c-0.988,0-1.909-0.275-2.702-0.826l0.402-0.691c0.678,0.496,1.437,0.76,2.288,0.76
				c1.311,0,2.162-0.725,2.162-2.115v-0.701c-0.518,0.691-1.243,1.252-2.334,1.252c-1.425,0-2.794-1.057-2.794-2.793
				c0-1.748,1.379-2.816,2.794-2.816c1.115,0,1.838,0.553,2.321,1.195v-1.068h0.885v4.908
				C69.806,151.604,68.611,152.581,66.784,152.581z M66.771,145.431c-1.126,0-2.057,0.771-2.057,2.012
				c0,1.219,0.954,2.035,2.057,2.035c1.127,0,2.186-0.805,2.186-2.023C68.956,146.224,67.898,145.431,66.771,145.431z"/>
			<path fill="#939598" d="M76.701,141.546l-5.333,10.645h-0.815l5.333-10.645H76.701z"/>
			<path fill="#939598" d="M80.562,150.72h-2.794v-8.047h2.794c2.528,0,4.276,1.736,4.276,4.012
				C84.838,148.96,83.091,150.72,80.562,150.72z M80.562,143.511h-1.886v6.369h1.886c2.034,0,3.334-1.379,3.334-3.172
				S82.596,143.511,80.562,143.511z"/>
			<path fill="#939598" d="M86.629,143.478v-0.977h1.011v0.977H86.629z M86.687,150.72v-5.943h0.884v5.943H86.687z"/>
			<path fill="#939598" d="M90.513,150.72h-0.885v-5.943h0.885v1.035c0.391-0.645,1.011-1.162,2.035-1.162
				c1.437,0,2.275,0.967,2.275,2.381v3.689h-0.885v-3.471c0-1.104-0.598-1.793-1.645-1.793c-1.023,0-1.783,0.748-1.783,1.861v3.402
				H90.513z"/>
			<path fill="#939598" d="M96.729,143.478v-0.977h1.012v0.977H96.729z M96.788,150.72v-5.943h0.885v5.943H96.788z"/>
			<path fill="#939598" d="M100.615,150.72h-0.885v-5.943h0.885v1.035c0.39-0.645,1.011-1.162,2.035-1.162
				c1.437,0,2.275,0.967,2.275,2.381v3.689h-0.885v-3.471c0-1.104-0.597-1.793-1.644-1.793c-1.023,0-1.783,0.748-1.783,1.861v3.402
				H100.615z"/>
			<path fill="#939598" d="M109.44,152.581c-0.988,0-1.908-0.275-2.702-0.826l0.402-0.691c0.678,0.496,1.437,0.76,2.288,0.76
				c1.31,0,2.162-0.725,2.162-2.115v-0.701c-0.517,0.691-1.242,1.252-2.333,1.252c-1.425,0-2.794-1.057-2.794-2.793
				c0-1.748,1.38-2.816,2.794-2.816c1.114,0,1.838,0.553,2.321,1.195v-1.068h0.885v4.908
				C112.464,151.604,111.268,152.581,109.44,152.581z M109.429,145.431c-1.126,0-2.057,0.771-2.057,2.012
				c0,1.219,0.953,2.035,2.057,2.035c1.126,0,2.184-0.805,2.184-2.023C111.612,146.224,110.555,145.431,109.429,145.431z"/>
			<path fill="#939598" d="M123.577,150.72l-2.334-3.127h-2.298v3.127h-0.908v-8.047h3.46c1.77,0,2.909,0.953,2.909,2.402
				c0,1.346-0.92,2.127-2.184,2.355l2.472,3.289H123.577z M121.426,143.511h-2.482v3.266h2.472c1.206,0,2.069-0.619,2.069-1.668
				C123.484,144.108,122.726,143.511,121.426,143.511z"/>
			<path fill="#939598" d="M128.792,150.856c-1.782,0-3.081-1.402-3.081-3.092s1.31-3.115,3.104-3.115
				c1.783,0,3.091,1.402,3.091,3.092C131.908,149.433,130.585,150.856,128.792,150.856z M128.792,145.431
				c-1.287,0-2.173,1.023-2.173,2.311c0,1.289,0.943,2.322,2.196,2.322c1.287,0,2.184-1.023,2.184-2.299
				C131,146.466,130.045,145.431,128.792,145.431z"/>
			<path fill="#939598" d="M136.216,150.856c-1.783,0-3.081-1.402-3.081-3.092s1.31-3.115,3.104-3.115
				c1.783,0,3.091,1.402,3.091,3.092C139.331,149.433,138.009,150.856,136.216,150.856z M136.216,145.431
				c-1.287,0-2.173,1.023-2.173,2.311c0,1.289,0.942,2.322,2.196,2.322c1.287,0,2.184-1.023,2.184-2.299
				C138.424,146.466,137.469,145.431,136.216,145.431z"/>
			<path fill="#939598" d="M147.732,144.649c1.367,0,2.208,0.922,2.208,2.391v3.68h-0.884v-3.473c0-1.148-0.575-1.793-1.542-1.793
				c-0.896,0-1.644,0.664-1.644,1.84v3.426h-0.875v-3.494c0-1.117-0.586-1.771-1.528-1.771s-1.655,0.781-1.655,1.875v3.391h-0.885
				v-5.943h0.885v1c0.391-0.586,0.92-1.127,1.92-1.127c0.965,0,1.586,0.518,1.908,1.186
				C146.064,145.179,146.698,144.649,147.732,144.649z"/>
		</g>
		<g enable-background="new    ">
			<path fill="#939598" d="M60.117,158.798l-0.667-0.482c0.724-1.082,1.482-1.713,2.897-1.713c1.459,0,2.495,0.967,2.495,2.287
				c0,1.186-0.62,1.908-2.036,3.139l-2.148,1.906h4.265v0.828h-5.621v-0.699l2.92-2.576c1.23-1.104,1.678-1.725,1.678-2.529
				c0-0.941-0.747-1.541-1.621-1.541C61.359,157.419,60.762,157.901,60.117,158.798z"/>
			<path fill="#939598" d="M71.176,156.661v5.436h1.252v0.762h-1.252v1.906h-0.875v-1.906H66.06l-0.23-0.658l4.552-5.539H71.176
				L71.176,156.661z M70.301,157.948l-3.38,4.148h3.38V157.948z"/>
			<path fill="#939598" d="M74.138,156.718h1.081v0.059l-0.931,3.066h-0.495L74.138,156.718z"/>
			<path fill="#939598" d="M81.759,158.2c-0.598-0.504-1.161-0.793-1.896-0.793c-1.46,0-2.368,1.471-2.356,3.553
				c0.437-0.646,1.115-1.232,2.288-1.232c1.506,0,2.781,0.969,2.781,2.482c0,1.566-1.253,2.691-2.885,2.691
				c-0.885,0-1.61-0.311-2.115-0.816c-0.644-0.643-1.011-1.471-1.011-3.127c0-2.459,1.241-4.379,3.345-4.379
				c0.966,0,1.678,0.344,2.38,0.92L81.759,158.2z M79.679,160.511c-1.207,0-2.011,0.863-2.011,1.771c0,1.045,0.85,1.814,2.034,1.814
				c1.184,0,1.943-0.814,1.943-1.848C81.645,161.247,80.839,160.511,79.679,160.511z"/>
			<path fill="#939598" d="M84.39,156.718h1.068v0.059l-0.931,3.066h-0.483L84.39,156.718z M86.642,156.718H87.7v0.059l-0.931,3.066
				h-0.482L86.642,156.718z"/>
			<path fill="#939598" d="M97.951,164.765h-1.023l-1.839-2.426l-1.85,2.426h-0.988l2.334-3.023l-2.241-2.918h1.011l1.758,2.299
				l1.758-2.299h0.988l-2.254,2.896L97.951,164.765z"/>
			<path fill="#939598" d="M104.132,156.661h0.667v8.104h-0.896v-7.162l-1.517,0.473l-0.218-0.736L104.132,156.661z"/>
			<path fill="#939598" d="M111.854,158.2c-0.597-0.504-1.16-0.793-1.896-0.793c-1.459,0-2.367,1.471-2.356,3.553
				c0.437-0.646,1.115-1.232,2.288-1.232c1.506,0,2.781,0.969,2.781,2.482c0,1.566-1.252,2.691-2.885,2.691
				c-0.885,0-1.61-0.311-2.115-0.816c-0.644-0.643-1.011-1.471-1.011-3.127c0-2.459,1.241-4.379,3.345-4.379
				c0.965,0,1.678,0.344,2.38,0.92L111.854,158.2z M109.775,160.511c-1.207,0-2.011,0.863-2.011,1.771
				c0,1.045,0.85,1.814,2.034,1.814c1.184,0,1.942-0.814,1.942-1.848C111.741,161.247,110.936,160.511,109.775,160.511z"/>
			<path fill="#939598" d="M114.486,156.718h1.081v0.059l-0.931,3.066h-0.495L114.486,156.718z"/>
			<path fill="#939598" d="M116.99,156.718h5.46v0.678l-3.656,7.369h-1.011l3.633-7.219h-4.426V156.718L116.99,156.718z"/>
			<path fill="#939598" d="M124.151,156.718h1.069v0.059l-0.931,3.066h-0.483L124.151,156.718z M126.403,156.718h1.059v0.059
				l-0.931,3.066h-0.482L126.403,156.718z"/>
		</g>
		<g enable-background="new    ">
			<path fill="#939598" d="M106.194,282.007v1.521h2.208v0.705h-6.259v-2.342c0-1.412,0.75-2.344,1.994-2.344
				C105.496,279.548,106.194,280.675,106.194,282.007z M102.795,281.944v1.584h2.754v-1.547c0-1.037-0.554-1.719-1.385-1.719
				C103.26,280.263,102.795,280.935,102.795,281.944z"/>
			<path fill="#939598" d="M104.665,278.2l-0.563,0.207c-0.232-0.512-0.384-1.012-0.384-1.68c0-1.262,0.643-1.969,1.86-1.969h2.826
				v0.662h-0.697c0.42,0.322,0.795,0.857,0.795,1.672c0,0.861-0.482,1.729-1.449,1.729c-0.984,0-1.503-0.805-1.503-1.977
				c0-0.592,0.081-1.012,0.197-1.422h-0.161c-0.832,0-1.26,0.508-1.26,1.377C104.325,277.343,104.466,277.772,104.665,278.2z
				 M107.026,278.12c0.59,0,0.93-0.535,0.93-1.162c0-0.85-0.519-1.547-1.251-1.547h-0.447c-0.099,0.34-0.197,0.795-0.197,1.357
				C106.059,277.638,106.434,278.12,107.026,278.12z"/>
			<path fill="#939598" d="M108.402,272.606v0.689h-4.623v-0.689h0.806c-0.502-0.305-0.904-0.787-0.904-1.584
				c0-1.117,0.752-1.77,1.851-1.77h2.871v0.688h-2.7c-0.858,0-1.396,0.465-1.396,1.279c0,0.797,0.581,1.387,1.45,1.387H108.402z"/>
			<path fill="#939598" d="M107.088,266.858c0.563,0,0.77-0.312,0.77-0.777c0-0.232-0.045-0.43-0.162-0.67h0.591
				c0.125,0.24,0.196,0.502,0.196,0.832c0,0.742-0.367,1.303-1.306,1.303h-2.79v0.645h-0.608v-0.645h-1.396v-0.688h1.396v-1.467
				h0.608v1.467H107.088z"/>
			<path fill="#939598" d="M108.402,263.489v0.688h-4.623v-0.688h1.207c-0.769-0.34-1.323-1.01-1.287-1.889h0.742v0.055
				c0,1.012,0.724,1.834,2.12,1.834H108.402z"/>
			<path fill="#939598" d="M108.554,258.304c0.956,0.396,1.305,0.842,1.305,1.539c0,0.385-0.081,0.672-0.232,0.984l-0.546-0.234
				c0.116-0.223,0.17-0.428,0.17-0.723c0-0.412-0.215-0.67-0.867-0.947l-4.606,2.102v-0.762l3.854-1.68l-3.854-1.482v-0.734
				L108.554,258.304z"/>
		</g>
	</g>
	<g id="walls">
		<polyline fill="none" stroke="#939598" stroke-width="5" points="303.141,292.667 436.955,292.667 436.955,-33.692 
			239.616,-33.692 239.616,92.569 -49.967,92.426 -49.967,292.667 272.137,292.667 		"/>
		<polyline fill="none" stroke="#939598" stroke-width="3" points="304.25,166.944 310.535,166.944 310.535,129.748 		"/>
		<polyline fill="none" stroke="#939598" stroke-width="3" points="240.075,94.314 240.075,166.944 249.068,166.944 		"/>
		<line fill="none" stroke="#939598" stroke-width="3" x1="243.447" y1="280.419" x2="243.447" y2="290.634"/>
		<polyline fill="none" stroke="#939598" stroke-width="3" points="215.034,291.911 215.034,240.198 243.447,240.198 
			243.447,251.37 		"/>
		<polyline fill="none" stroke="#939598" stroke-width="3" points="351.023,207.585 401.779,207.585 401.779,228.688 
			435.616,228.688 		"/>
		<polyline fill="none" stroke="#939598" stroke-width="3" points="311.442,291.911 311.442,207.585 321.017,207.585 		"/>
		<line fill="none" stroke="#939598" stroke-width="3" x1="358.365" y1="131.024" x2="358.365" y2="206.042"/>
		<line fill="none" stroke="#939598" stroke-width="3" x1="429.231" y1="129.11" x2="438.17" y2="129.11"/>
		<line fill="none" stroke="#939598" stroke-width="3" x1="351.45" y1="129.11" x2="398.863" y2="129.11"/>
		<line fill="none" stroke="#939598" stroke-width="3" x1="240.574" y1="129.11" x2="321.336" y2="129.11"/>
	</g>
	<g id="windows">
		<g>
			<g>
				<rect x="-34.006" y="90.06" fill="#FFFFFF" stroke="#939598" width="88.822" height="4.691"/>
				<line fill="none" stroke="#939598" x1="54.815" y1="92.381" x2="-34.964" y2="92.381"/>
				<line fill="none" stroke="#939598" stroke-width="2" x1="25.865" y1="94.953" x2="25.865" y2="90.492"/>
			</g>
			<line fill="none" stroke="#939598" stroke-width="2" x1="-4" y1="95.113" x2="-4" y2="90.513"/>
		</g>
		<g>
			<g>
				<rect x="130.71" y="90.089" fill="#FFFFFF" stroke="#939598" width="88.823" height="4.691"/>
				<line fill="none" stroke="#939598" x1="219.533" y1="92.412" x2="129.753" y2="92.412"/>
				<line fill="none" stroke="#939598" stroke-width="2" x1="190.582" y1="94.982" x2="190.582" y2="90.521"/>
			</g>
			<line fill="none" stroke="#939598" stroke-width="2" x1="160.717" y1="95.142" x2="160.717" y2="90.544"/>
		</g>
		<g>
			<rect x="237.629" y="-4.962" fill="#FFFFFF" stroke="#939598" width="4.69" height="46.287"/>
			<line fill="none" stroke="#939598" x1="239.95" y1="-4.962" x2="239.95" y2="42.282"/>
		</g>
	</g>
</g>
</svg>
