<?xml version="1.0" encoding="utf-8"?>
<!-- Generator: Adobe Illustrator 15.0.2, SVG Export Plug-In . SVG Version: 6.00 Build 0)  -->
<!DOCTYPE svg PUBLIC "-//W3C//DTD SVG 1.1//EN" "http://www.w3.org/Graphics/SVG/1.1/DTD/svg11.dtd">
<svg version="1.1" id="Layer_1" xmlns="http://www.w3.org/2000/svg" xmlns:xlink="http://www.w3.org/1999/xlink" x="0px" y="0px"
	 width="493.939px" height="166.907px" viewBox="2.5 167.196 493.939 166.907" enable-background="new 2.5 167.196 493.939 166.907"
	 xml:space="preserve">
<g id="_x32_0_x25___PMS_2985_fill" display="none">
	<polygon display="inline" fill="#EBEEEF" points="237.925,-179.511 237.925,99.822 205.925,133.323 205.925,306.488 
		238.592,340.488 238.842,400.238 398.175,400.238 397.925,-180.178 	"/>
</g>
<g>
	<g id="_x32_0_x25__grey_fill">
		<rect x="65.548" y="298.995" fill="#D1D3D4" width="20.041" height="6.539"/>
		<rect x="111.67" y="169.696" fill="#D1D3D4" width="15.469" height="5.343"/>
		<rect x="5.573" y="169.415" fill="#D1D3D4" width="42.537" height="5.808"/>
		<rect x="190.559" y="170.117" fill="#D1D3D4" width="45.139" height="4.641"/>
		<rect x="380.254" y="170.258" fill="#D1D3D4" width="44.438" height="4.781"/>
		<rect x="298.557" y="170.258" fill="#D1D3D4" width="17.856" height="4.71"/>
		<rect x="486" y="168.571" fill="#D1D3D4" width="9" height="6.75"/>
		<polygon fill="#D1D3D4" points="428.908,318.19 428.908,301.878 443.252,301.878 		"/>
		<polyline fill="#D1D3D4" points="239.915,304.409 261.57,304.409 261.57,324.377 238.792,304.409 		"/>
	</g>
	<g id="icons">
		<g>
			<g>
				<rect x="66.477" y="258.889" fill="#FFFFFF" stroke="#939598" width="19.933" height="38.553"/>
				<path fill="#FFFFFF" stroke="#939598" d="M76.443,278.164"/>
				<path fill="#FFFFFF" stroke="#939598" d="M76.443,278.032"/>
				<path fill="#FFFFFF" stroke="#939598" d="M76.443,264.961"/>
			</g>
			<circle fill="#FFFFFF" stroke="#939598" cx="76.35" cy="267.675" r="0.818"/>
			<path fill="#FFFFFF" stroke="#939598" d="M76.383,295.239c5.713,0,7.804-1.317,7.804-3.166c0,0,0-27.706,0-28.159
				c0-0.451-0.122-1.384-1.316-1.384c-1.196,0-6.487,0-6.487,0H76.37c0,0-5.291,0-6.487,0c-1.195,0-1.317,0.932-1.317,1.384
				c0,0.453,0,28.143,0,28.143l0.002,0.019C68.566,293.921,70.705,295.239,76.383,295.239z"/>
			<path fill="#FFFFFF" stroke="#939598" d="M78.063,261.098c-0.002,0.463,0.371,0.832,0.839,0.832c0.453,0,0.829-0.369,0.832-0.832
				c-0.003-0.461-0.379-0.842-0.832-0.842C78.435,260.256,78.061,260.632,78.063,261.098z"/>
			<path fill="#FFFFFF" stroke="#939598" d="M72.883,261.098c-0.005,0.463,0.375,0.832,0.835,0.832c0.459,0,0.836-0.369,0.836-0.832
				c0-0.461-0.377-0.842-0.836-0.834C73.257,260.256,72.883,260.637,72.883,261.098z"/>
			<path fill="#FFFFFF" stroke="#939598" d="M77.475,260.85c0-0.686-0.464-1.238-1.148-1.24c-0.684,0.002-1.058,0.557-1.058,1.24
				l0.44,4.719c0,0.465,1.249,0.465,1.249,0L77.475,260.85z"/>
		</g>
		<g>
			<g>
				<g>
					<rect x="471.279" y="261.709" fill="#FFFFFF" stroke="#939598" width="20.667" height="39.443"/>
					<path fill="#FFFFFF" stroke="#939598" d="M481.597,280.904"/>
				</g>
				<g>
					<polyline fill="#FFFFFF" stroke="#939598" points="481.396,262.912 473.135,262.912 473.135,299.671 490.09,299.671 
						490.09,262.912 482.157,262.912 					"/>
					<path fill="#FFFFFF" stroke="#939598" d="M481.597,280.904"/>
				</g>
				<line fill="none" stroke="#939598" x1="490.09" y1="262.912" x2="482.167" y2="280.124"/>
				<line fill="none" stroke="#939598" x1="480.996" y1="281.659" x2="473.135" y2="299.671"/>
				<line fill="none" stroke="#939598" x1="490.09" y1="299.671" x2="482.246" y2="281.749"/>
				<line fill="none" stroke="#939598" x1="480.976" y1="280.098" x2="473.135" y2="262.912"/>
				<g>
					<path fill="#FFFFFF" stroke="#939598" d="M480.712,280.904c0,0.506,0.495,0.914,0.885,0.914s0.822-0.408,0.822-0.914
						s-0.435-0.916-0.822-0.916C481.207,279.989,480.712,280.398,480.712,280.904z"/>
					<path fill="#FFFFFF" stroke="#939598" d="M481.597,280.904"/>
				</g>
			</g>
			<path fill="#FFFFFF" stroke="#939598" d="M480.739,264.26c0,0.521,1.883,0.521,1.883,0c0-0.521-0.422-0.939-0.941-0.939
				C481.16,263.318,480.739,263.738,480.739,264.26z"/>
			<polyline fill="#FFFFFF" stroke="#939598" points="481.876,261.461 481.876,263.261 481.351,263.261 481.351,261.458 			"/>
		</g>
		<line fill="none" stroke="#939598" x1="48.393" y1="176.023" x2="486.703" y2="176.023"/>
		<polygon fill="#FFFFFF" stroke="#939598" points="158.373,287.132 132.499,287.132 132.499,302.88 158.654,302.88 		"/>
		<g>
			<path fill="#FFFFFF" stroke="#939598" stroke-miterlimit="10" d="M123.729,291.648c0-3.765-2.287-7.908-5.107-7.908
				c-2.819,0-5.097,4.146-5.097,7.908c0,3.767,2.277,5.727,5.097,5.727C121.442,297.375,123.729,295.415,123.729,291.648"/>
			<path fill="#FFFFFF" stroke="#939598" d="M123.729,291.648c0-3.765-2.287-7.908-5.107-7.908c-2.819,0-5.097,4.146-5.097,7.908
				c0,3.767,2.277,5.727,5.097,5.727C121.442,297.375,123.729,295.415,123.729,291.648z"/>
			<path fill="#FFFFFF" stroke="#939598" stroke-miterlimit="10" d="M115.565,296.141c0-0.211-0.173-0.384-0.384-0.384h-1.777
				c-0.211,0-0.385,0.173-0.385,0.384v0.065c0,0.211,0.174,0.384,0.385,0.384h1.777c0.211,0,0.384-0.173,0.384-0.384V296.141z"/>
			<path fill="#FFFFFF" stroke="#939598" d="M115.565,296.141c0-0.211-0.173-0.384-0.384-0.384h-1.777
				c-0.211,0-0.385,0.173-0.385,0.384v0.065c0,0.211,0.174,0.384,0.385,0.384h1.777c0.211,0,0.384-0.173,0.384-0.384V296.141z"/>
			<path fill="#FFFFFF" stroke="#939598" stroke-miterlimit="10" d="M112.749,296.602c-0.639,0-1.16,1.733-1.16,2.375
				c0,0.647,0.521,2.383,1.16,2.383h11.655c0.642,0,1.16-1.734,1.16-2.383c0-0.642-0.519-2.375-1.16-2.375H112.749z"/>
			<path fill="#FFFFFF" stroke="#939598" d="M112.749,296.602c-0.639,0-1.16,1.733-1.16,2.375c0,0.647,0.521,2.383,1.16,2.383
				h11.655c0.642,0,1.16-1.734,1.16-2.383c0-0.642-0.519-2.375-1.16-2.375H112.749z"/>
			<path fill="#FFFFFF" stroke="#939598" stroke-miterlimit="10" d="M122.376,291.493c0-2.769-1.681-5.816-3.754-5.816
				c-2.072,0-3.752,3.05-3.752,5.816s1.68,4.205,3.752,4.205C120.695,295.698,122.376,294.261,122.376,291.493"/>
			<path fill="#FFFFFF" stroke="#939598" d="M122.376,291.493c0-2.769-1.681-5.816-3.754-5.816c-2.072,0-3.752,3.05-3.752,5.816
				s1.68,4.205,3.752,4.205C120.695,295.698,122.376,294.261,122.376,291.493z"/>
		</g>
		<g>
			<g>
				<g>
					<path fill="none" stroke="#939598" d="M145.426,293.189"/>
				</g>
				<g>
					<path fill="none" stroke="#939598" d="M145.426,294.086"/>
				</g>
				<g>
					<circle fill="none" stroke="#939598" cx="145.426" cy="293.189" r="0.858"/>
					<path fill="none" stroke="#939598" d="M145.426,293.189"/>
				</g>
				<g>
					<g>
						<rect x="141.826" y="298.566" fill="none" stroke="#939598" width="7.217" height="1.793"/>
						<path fill="none" stroke="#939598" d="M145.426,299.465"/>
					</g>
					<g>
						<rect x="145.043" y="295.087" fill="none" stroke="#939598" width="0.765" height="3.401"/>
						<path fill="none" stroke="#939598" d="M145.426,297.079"/>
					</g>
					<g>
						<circle fill="none" stroke="#939598" cx="145.426" cy="299.446" r="0.833"/>
						<path fill="none" stroke="#939598" d="M145.426,299.447"/>
					</g>
				</g>
			</g>
			<g>
				<rect x="138.231" y="288.93" fill="none" stroke="#939598" width="14.407" height="11.705"/>
				<rect x="139.405" y="290.105" fill="none" stroke="#939598" width="12.027" height="8.42"/>
			</g>
		</g>
		<g>
			<polygon fill="none" stroke="#939598" points="126.515,241.271 126.525,239.863 106.43,239.85 106.419,241.277 			"/>
			<path fill="none" stroke="#939598" d="M106.403,240.605c0.376-11.062,9.525-19.729,20.589-19.352"/>
		</g>
		<g>
			<polygon fill="none" stroke="#939598" points="92.468,256.973 93.806,256.979 93.818,276.07 92.479,276.062 			"/>
			<path fill="none" stroke="#939598" d="M93.083,276.078c10.511-0.355,18.742-8.997,18.383-19.508"/>
		</g>
		<g>
			<polygon fill="none" stroke="#939598" points="24.47,257.309 25.808,257.316 25.821,276.407 24.481,276.398 			"/>
			<path fill="none" stroke="#939598" d="M25.085,276.414c10.512-0.355,18.743-8.997,18.384-19.508"/>
		</g>
		<g>
			<polygon fill="none" stroke="#939598" points="422.388,260.045 421.05,260.052 421.036,279.145 422.376,279.136 			"/>
			<path fill="none" stroke="#939598" d="M421.772,279.15c-10.513-0.356-18.742-8.998-18.385-19.51"/>
		</g>
		<g>
			<polygon fill="none" stroke="#939598" points="468.37,260.045 467.032,260.052 467.019,279.145 468.359,279.136 			"/>
			<path fill="none" stroke="#939598" d="M467.755,279.15c-10.511-0.356-18.742-8.998-18.383-19.51"/>
		</g>
		<g>
			<polygon fill="none" stroke="#939598" points="154.652,247.282 153.314,247.289 153.301,266.379 154.641,266.373 			"/>
			<path fill="none" stroke="#939598" d="M154.037,266.389c-10.511-0.355-18.742-8.998-18.383-19.508"/>
		</g>
		<g>
			<polygon fill="none" stroke="#939598" points="205.369,305.627 206.707,305.621 206.721,286.529 205.381,286.536 			"/>
			<path fill="none" stroke="#939598" d="M205.985,286.521c10.511,0.355,18.743,8.996,18.383,19.508"/>
		</g>
		<g>
			<polygon fill="none" stroke="#939598" points="265.904,304.475 267.243,304.467 267.258,285.376 265.918,285.383 			"/>
			<path fill="none" stroke="#939598" d="M266.521,285.369c10.512,0.355,18.742,8.997,18.383,19.508"/>
		</g>
		<g>
			<g>
				<polygon fill="none" stroke="#939598" points="178.514,257.982 178.518,259.588 196.129,259.604 196.123,257.992 				"/>
				<path fill="none" stroke="#939598" d="M196.137,258.551c-0.328,9.695-8.299,17.286-17.993,16.956"/>
			</g>
			<g>
				<polygon fill="none" stroke="#939598" points="178.514,293.12 178.518,291.516 196.129,291.501 196.123,293.109 				"/>
				<path fill="none" stroke="#939598" d="M196.137,292.552c-0.328-9.692-8.299-17.286-17.993-16.954"/>
			</g>
		</g>
		<path fill="none" stroke="#939598" d="M228.597,246.123"/>
		<path fill="none" stroke="#939598" d="M195.782,246.123"/>
		<path fill="none" stroke="#939598" d="M195.782,213.779"/>
		<line fill="none" stroke="#939598" x1="170.309" y1="248.161" x2="170.309" y2="304.059"/>
		<polyline fill="none" stroke="#939598" points="14.929,257.864 14.929,295.409 55.142,295.409 55.142,258.075 		"/>
		<polyline fill="none" stroke="#939598" points="396.848,261.449 396.848,321.823 411.823,321.823 428.908,305.227 		"/>
		
			<line fill="none" stroke="#939598" stroke-dasharray="1.5,1.5,1.5,1.5,1.5,1.5" x1="168.2" y1="303.425" x2="168.2" y2="248.161"/>
		<polyline fill="none" stroke="#939598" stroke-dasharray="1.5,1.5,1.5,1.5,1.5,1.5" points="12.956,258.075 12.956,297.52 
			56.829,297.52 56.829,258.075 		"/>
		<polyline fill="none" stroke="#939598" stroke-dasharray="1.5,1.5,1.5,1.5,1.5,1.5" points="394.527,261.027 394.527,324.096 
			412.878,324.096 428.275,308.698 		"/>
		<g>
			<polygon fill="none" stroke="#939598" points="379.146,252.676 379.136,251.268 399.231,251.253 399.242,252.682 			"/>
			<path fill="none" stroke="#939598" d="M399.258,252.01c-0.375-11.062-9.523-19.729-20.588-19.352"/>
		</g>
		<g>
			<g>
				<g>
					<g>
						<rect x="267.021" y="307.519" fill="#FFFFFF" stroke="#939598" width="17.033" height="15.646"/>
						<path fill="#FFFFFF" stroke="#939598" d="M275.539,314.821"/>
						<polyline fill="#FFFFFF" stroke="#939598" points="270.371,312.186 270.371,309.807 272.43,309.251 278.729,309.251 
							280.812,309.807 280.812,312.186 						"/>
						<line fill="none" stroke="#939598" x1="284.18" y1="312.186" x2="267.021" y2="312.186"/>
						<path fill="#FFFFFF" stroke="#939598" d="M275.593,314.024"/>
					</g>
				</g>
			</g>
			<polygon fill="#FFFFFF" stroke="#939598" points="283.229,311.159 281.852,311.156 281.549,312.116 283.529,312.121 			"/>
		</g>
		<polygon fill="#FFFFFF" stroke="#939598" points="429.911,289.995 445.662,289.995 445.381,261.051 429.476,261.051 		"/>
		<g>
			<path fill="#FFFFFF" stroke="#939598" stroke-miterlimit="10" d="M462.544,289.861c0-3.764-2.287-7.909-5.104-7.909
				c-2.819,0-5.099,4.146-5.099,7.909c0,3.767,2.277,5.726,5.099,5.726C460.258,295.587,462.544,293.628,462.544,289.861"/>
			<path fill="#FFFFFF" stroke="#939598" d="M462.544,289.861c0-3.764-2.287-7.909-5.104-7.909c-2.819,0-5.099,4.146-5.099,7.909
				c0,3.767,2.277,5.726,5.099,5.726C460.258,295.587,462.544,293.628,462.544,289.861z"/>
			<path fill="#FFFFFF" stroke="#939598" stroke-miterlimit="10" d="M454.381,294.354c0-0.211-0.173-0.385-0.384-0.385h-1.778
				c-0.211,0-0.384,0.174-0.384,0.385v0.064c0,0.211,0.173,0.385,0.384,0.385h1.778c0.211,0,0.384-0.174,0.384-0.385V294.354z"/>
			<path fill="#FFFFFF" stroke="#939598" d="M454.381,294.354c0-0.211-0.173-0.385-0.384-0.385h-1.778
				c-0.211,0-0.384,0.174-0.384,0.385v0.064c0,0.211,0.173,0.385,0.384,0.385h1.778c0.211,0,0.384-0.174,0.384-0.385V294.354z"/>
			<path fill="#FFFFFF" stroke="#939598" stroke-miterlimit="10" d="M451.564,294.812c-0.642,0-1.16,1.734-1.16,2.377
				c0,0.646,0.521,2.383,1.16,2.383h11.652c0.645,0,1.16-1.736,1.16-2.383c0-0.643-0.518-2.375-1.16-2.375L451.564,294.812z"/>
			<path fill="#FFFFFF" stroke="#939598" d="M451.564,294.812c-0.642,0-1.16,1.734-1.16,2.377c0,0.646,0.521,2.383,1.16,2.383
				h11.652c0.645,0,1.16-1.736,1.16-2.383c0-0.643-0.518-2.375-1.16-2.375L451.564,294.812z"/>
			<path fill="#FFFFFF" stroke="#939598" stroke-miterlimit="10" d="M461.191,289.705c0-2.768-1.683-5.814-3.754-5.814
				c-2.073,0-3.754,3.049-3.754,5.814s1.681,4.206,3.754,4.206C459.51,293.911,461.191,292.473,461.191,289.705"/>
			<path fill="#FFFFFF" stroke="#939598" d="M461.191,289.705c0-2.768-1.683-5.814-3.754-5.814c-2.073,0-3.754,3.049-3.754,5.814
				s1.681,4.206,3.754,4.206C459.51,293.911,461.191,292.473,461.191,289.705z"/>
		</g>
		<g>
			<g>
				<g>
					<path fill="none" stroke="#939598" d="M439.033,275.16"/>
				</g>
				<g>
					<path fill="none" stroke="#939598" d="M438.137,275.16"/>
				</g>
				<g>
					<circle fill="none" stroke="#939598" cx="439.034" cy="275.161" r="0.858"/>
					<path fill="none" stroke="#939598" d="M439.033,275.16"/>
				</g>
				<g>
					<g>
						<rect x="431.861" y="271.543" fill="none" stroke="#939598" width="1.793" height="7.217"/>
						<path fill="none" stroke="#939598" d="M432.758,275.16"/>
					</g>
					<g>
						<rect x="433.733" y="274.777" fill="none" stroke="#939598" width="3.398" height="0.766"/>
						<path fill="none" stroke="#939598" d="M435.145,275.16"/>
					</g>
					<g>
						<circle fill="none" stroke="#939598" cx="432.776" cy="275.161" r="0.832"/>
						<path fill="none" stroke="#939598" d="M432.776,275.16"/>
					</g>
				</g>
			</g>
			<g>
				<rect x="431.588" y="267.947" fill="none" stroke="#939598" width="11.707" height="14.408"/>
				<rect x="433.697" y="269.152" fill="none" stroke="#939598" width="8.42" height="12.025"/>
			</g>
		</g>
		<rect x="297.568" y="265.035" fill="#FFFFFF" stroke="#939598" width="48.093" height="19.969"/>
		<polygon fill="#FFFFFF" stroke="#939598" points="369.59,313.077 369.659,260.982 387.061,260.982 387.009,331.34 
			312.848,331.286 312.848,313.06 314.146,313.06 		"/>
		<g>
			<g>
				<rect x="290.857" y="310.1" fill="#FFFFFF" stroke="#939598" width="21.013" height="18.535"/>
				<path fill="#FFFFFF" stroke="#939598" d="M300.275,319.368"/>
			</g>
			<line fill="none" stroke="#939598" x1="311.919" y1="311.395" x2="290.857" y2="311.395"/>
			<rect x="292.611" y="309.184" fill="#FFFFFF" stroke="#939598" width="1.703" height="0.903"/>
			<path fill="#FFFFFF" stroke="#939598" d="M293.463,309.685"/>
		</g>
		<g>
			<g>
				<path fill="#FFFFFF" stroke="#939598" d="M326.773,327.783c-0.358,0-0.649-0.29-0.649-0.65v-11.344
					c0-0.359,0.292-0.651,0.649-0.651h19.242c0.359,0,0.649,0.293,0.649,0.651v11.344c0,0.361-0.29,0.65-0.649,0.65H326.773z"/>
				<path fill="#FFFFFF" stroke="#939598" d="M336.327,321.951"/>
			</g>
			<g>
				<circle fill="#FFFFFF" stroke="#939598" cx="336.327" cy="321.182" r="0.735"/>
				<path fill="#FFFFFF" stroke="#939598" d="M336.327,321.184"/>
			</g>
			<g>
				<g>
					<rect x="333.117" y="325.796" fill="#FFFFFF" stroke="#939598" width="6.42" height="1.535"/>
					<path fill="#FFFFFF" stroke="#939598" d="M336.327,326.562"/>
				</g>
				<g>
					<rect x="336" y="322.811" fill="#FFFFFF" stroke="#939598" width="0.654" height="3.025"/>
					<path fill="#FFFFFF" stroke="#939598" d="M336.327,324.518"/>
				</g>
				<g>
					<circle fill="#FFFFFF" stroke="#939598" cx="336.327" cy="326.548" r="0.714"/>
					<path fill="#FFFFFF" stroke="#939598" d="M336.327,326.548"/>
				</g>
			</g>
			<g>
				<path fill="#FFFFFF" stroke="#939598" d="M336.327,321.184"/>
				<path fill="none" stroke="#939598" d="M335.932,325.265h-8.091c-0.377,0-0.685-0.305-0.685-0.684v-7.779
					c0-0.376,0.306-0.684,0.685-0.684h17.109c0.378,0,0.687,0.307,0.687,0.684v7.779c0,0.378-0.309,0.684-0.687,0.684h-8.207"/>
			</g>
		</g>
		<g>
			<polyline fill="none" stroke="#939598" stroke-dasharray="1.5,1,1.5,1,1.5,1" points="363.244,312.124 363.244,327.2 
				348.458,327.2 348.458,312.462 			"/>
			<polyline fill="#FFFFFF" stroke="#939598" points="348.436,312.462 348.436,311.565 363.244,311.565 363.244,312.117 			"/>
		</g>
		<g>
			<g>
				<rect x="369.15" y="281.253" fill="#FFFFFF" stroke="#939598" width="16.664" height="19.616"/>
				<path fill="#FFFFFF" stroke="#939598" d="M377.482,291.061"/>
			</g>
			<g>
				<g>
					<circle fill="#FFFFFF" stroke="#939598" cx="372.843" cy="295.546" r="2.383"/>
					<path fill="#FFFFFF" stroke="#939598" d="M372.843,295.546"/>
				</g>
				<g>
					<circle fill="#FFFFFF" stroke="#939598" stroke-width="0.8" cx="372.844" cy="295.568" r="1.678"/>
					<path fill="#FFFFFF" stroke="#939598" d="M372.843,295.568"/>
				</g>
			</g>
			<g>
				<g>
					<circle fill="#FFFFFF" stroke="#939598" cx="379.803" cy="286.021" r="2.383"/>
					<path fill="#FFFFFF" stroke="#939598" d="M379.803,286.021"/>
				</g>
				<g>
					<circle fill="#FFFFFF" stroke="#939598" stroke-width="0.8" cx="379.805" cy="285.998" r="1.678"/>
					<path fill="#FFFFFF" stroke="#939598" d="M379.803,285.998"/>
				</g>
			</g>
			<g>
				<g>
					<circle fill="#FFFFFF" stroke="#939598" cx="379.781" cy="295.577" r="2.716"/>
					<path fill="#FFFFFF" stroke="#939598" d="M379.781,295.577"/>
				</g>
				<g>
					<circle fill="#FFFFFF" stroke="#939598" stroke-width="0.8" cx="379.781" cy="295.551" r="1.914"/>
					<path fill="#FFFFFF" stroke="#939598" d="M379.781,295.551"/>
				</g>
			</g>
			<g>
				<g>
					<circle fill="#FFFFFF" stroke="#939598" cx="372.66" cy="286.033" r="2.716"/>
					<path fill="#FFFFFF" stroke="#939598" d="M372.66,286.032"/>
				</g>
				<g>
					<circle fill="#FFFFFF" stroke="#939598" stroke-width="0.8" cx="372.66" cy="286.005" r="1.914"/>
					<path fill="#FFFFFF" stroke="#939598" d="M372.66,286.006"/>
				</g>
			</g>
			<line fill="none" stroke="#939598" x1="383.51" y1="300.895" x2="383.51" y2="281.253"/>
			<line fill="none" stroke="#939598" x1="384.432" y1="300.869" x2="384.432" y2="281.253"/>
		</g>
		<line fill="none" stroke="#939598" x1="324.211" y1="329.573" x2="324.211" y2="313.176"/>
		
			<line fill="none" stroke="#939598" stroke-dasharray="1.5,1.5,1.5,1.5,1.5,1.5" x1="304.209" y1="321.143" x2="290.287" y2="321.143"/>
		<polyline fill="none" stroke="#939598" stroke-dasharray="1.5,1.5,1.5,1.5,1.5,1.5" points="348.436,321.143 321.191,321.143 
			312.616,321.143 303.195,321.143 		"/>
		<polyline fill="none" stroke="#939598" stroke-dasharray="1.5,1.5,1.5,1.5,1.5,1.5" points="377.441,261.38 377.441,321.143 
			348.436,321.143 		"/>
	</g>
	<g id="walls">
		<polyline fill="none" stroke="#939598" stroke-width="5" points="224.097,304.968 241.394,304.968 267.977,331.603 
			415.332,331.603 443.807,303.146 493.939,303.146 493.939,169.696 5,169.696 5,304.968 205.324,304.968 		"/>
		<line fill="none" stroke="#939598" stroke-width="3" x1="126.689" y1="221.543" x2="126.689" y2="171.383"/>
		<polyline fill="none" stroke="#939598" stroke-width="3" points="111.137,257.441 115.046,257.441 126.689,246.052 
			126.689,241.201 		"/>
		<line fill="none" stroke="#939598" stroke-width="3" x1="43.113" y1="257.441" x2="92.687" y2="257.441"/>
		<line fill="none" stroke="#939598" stroke-width="3" x1="6.839" y1="257.441" x2="24.436" y2="257.441"/>
		<line fill="none" stroke="#939598" stroke-width="3" x1="65.056" y1="304.059" x2="65.056" y2="256.389"/>
		<line fill="none" stroke="#939598" stroke-width="3" x1="178.444" y1="292.667" x2="178.444" y2="304.27"/>
		<polyline fill="none" stroke="#939598" stroke-width="3" points="154.886,247.294 178.444,247.294 178.444,257.982 		"/>
		<line fill="none" stroke="#939598" stroke-width="3" x1="125.171" y1="247.294" x2="135.832" y2="247.294"/>
		<line fill="none" stroke="#939598" stroke-width="3" x1="159.552" y1="247.318" x2="159.552" y2="304.059"/>
		<polyline fill="none" stroke="#939598" stroke-width="3" points="284.734,304.045 289.062,304.045 289.062,330.424 		"/>
		<line fill="none" stroke="#939598" stroke-width="3" x1="240.127" y1="304.045" x2="266.072" y2="304.045"/>
		<line fill="none" stroke="#939598" stroke-width="3" x1="261.434" y1="304.059" x2="261.434" y2="324.307"/>
		<line fill="none" stroke="#939598" stroke-width="3" x1="467.896" y1="260.186" x2="493.664" y2="260.186"/>
		<line fill="none" stroke="#939598" stroke-width="3" x1="422.17" y1="260.186" x2="449.801" y2="260.186"/>
		<path fill="none" stroke="#939598" stroke-width="3" d="M379.762,252.38c0,4.843,0,7.806,0,7.806h23.624"/>
		<path fill="none" stroke="#939598" stroke-width="3" d="M379.762,170.961c0,0.381,0,35.723,0,61.333"/>
		<line fill="none" stroke="#939598" stroke-width="3" x1="428.486" y1="317.347" x2="428.486" y2="259.975"/>
		<line fill="none" stroke="#939598" stroke-width="3" x1="387.566" y1="259.975" x2="387.566" y2="332.111"/>
		<line fill="none" stroke="#939598" stroke-width="3" x1="445.15" y1="302.286" x2="428.486" y2="302.286"/>
		<polyline fill="none" stroke="#939598" stroke-width="3" points="379.551,175.166 424.058,175.166 424.058,170.539 		"/>
		<polyline fill="none" stroke="#939598" stroke-width="3" points="493.031,175.137 486.703,175.137 486.703,169.907 		"/>
		<polyline fill="none" stroke="#939598" stroke-width="3" points="298.557,169.907 298.557,174.969 315.852,174.969 
			315.852,169.485 		"/>
		<polyline fill="none" stroke="#939598" stroke-width="3" points="190.559,170.328 190.559,174.758 235.697,174.758 
			235.697,170.117 		"/>
		<polyline fill="none" stroke="#939598" stroke-width="3" points="5.573,175.223 47.549,175.223 47.549,170.328 		"/>
		<polyline fill="none" stroke="#939598" stroke-width="3" points="111.099,170.539 111.099,174.928 126.436,174.928 		"/>
		<polyline fill="none" stroke="#939598" stroke-width="3" points="65.056,298.995 85.589,298.995 85.589,304.479 		"/>
	</g>
	<g id="windows">
		<g>
			<g>
				<rect x="49.924" y="168.187" fill="#FFFFFF" stroke="#939598" width="58.69" height="3.101"/>
				<line fill="none" stroke="#939598" x1="49.924" y1="169.752" x2="109.248" y2="169.752"/>
				<line fill="none" stroke="#939598" stroke-width="2" x1="69.054" y1="168.054" x2="69.054" y2="171.001"/>
			</g>
			<line fill="none" stroke="#939598" stroke-width="2" x1="88.788" y1="167.949" x2="88.788" y2="170.987"/>
		</g>
		<g>
			<g>
				<rect x="129.413" y="168.132" fill="#FFFFFF" stroke="#939598" width="58.69" height="3.101"/>
				<line fill="none" stroke="#939598" x1="129.413" y1="169.698" x2="188.737" y2="169.698"/>
				<line fill="none" stroke="#939598" stroke-width="2" x1="148.543" y1="167.999" x2="148.543" y2="170.947"/>
			</g>
			<line fill="none" stroke="#939598" stroke-width="2" x1="168.277" y1="167.894" x2="168.277" y2="170.932"/>
		</g>
		<g>
			<g>
				<rect x="238.108" y="168.139" fill="#FFFFFF" stroke="#939598" width="58.69" height="3.101"/>
				<line fill="none" stroke="#939598" x1="238.108" y1="169.705" x2="297.434" y2="169.705"/>
				<line fill="none" stroke="#939598" stroke-width="2" x1="257.239" y1="168.006" x2="257.239" y2="170.954"/>
			</g>
			<line fill="none" stroke="#939598" stroke-width="2" x1="276.975" y1="167.9" x2="276.975" y2="170.94"/>
		</g>
		<g>
			<g>
				<rect x="317.913" y="168.199" fill="#FFFFFF" stroke="#939598" width="58.688" height="3.1"/>
				<line fill="none" stroke="#939598" x1="317.913" y1="169.764" x2="377.236" y2="169.764"/>
				<line fill="none" stroke="#939598" stroke-width="2" x1="337.043" y1="168.065" x2="337.043" y2="171.014"/>
			</g>
			<line fill="none" stroke="#939598" stroke-width="2" x1="356.777" y1="167.959" x2="356.777" y2="170.998"/>
		</g>
		<g>
			<g>
				<rect x="425.759" y="168.128" fill="#FFFFFF" stroke="#939598" width="58.69" height="3.1"/>
				<line fill="none" stroke="#939598" x1="425.759" y1="169.693" x2="485.082" y2="169.693"/>
				<line fill="none" stroke="#939598" stroke-width="2" x1="444.889" y1="167.994" x2="444.889" y2="170.943"/>
			</g>
			<line fill="none" stroke="#939598" stroke-width="2" x1="464.622" y1="167.889" x2="464.622" y2="170.927"/>
		</g>
	</g>
	<g id="Type">
		<g>
			<path fill="#939598" d="M123.324,272.648c0,0.697-0.425,1.057-0.843,1.237c0.631,0.189,1.139,0.556,1.139,1.291
				c0,0.918-0.767,1.458-1.929,1.458h-2.363v-5.314h2.265C122.642,271.32,123.324,271.837,123.324,272.648z M122.716,272.732
				c0-0.531-0.417-0.875-1.177-0.875h-1.618v1.832h1.572C122.216,273.689,122.716,273.363,122.716,272.732z M123.013,275.143
				c0-0.586-0.485-0.92-1.412-0.92h-1.68v1.875h1.785C122.512,276.098,123.013,275.741,123.013,275.143z"/>
			<path fill="#939598" d="M124.94,273.462l-0.175-0.479c0.433-0.196,0.858-0.326,1.429-0.326c1.07,0,1.67,0.547,1.67,1.58v2.398
				h-0.562v-0.593c-0.273,0.358-0.729,0.677-1.42,0.677c-0.729,0-1.466-0.408-1.466-1.229c0-0.836,0.684-1.277,1.679-1.277
				c0.501,0,0.857,0.068,1.207,0.167v-0.137c0-0.706-0.433-1.071-1.17-1.071C125.669,273.174,125.305,273.295,124.94,273.462z
				 M125.009,275.467c0,0.502,0.456,0.79,0.987,0.79c0.721,0,1.313-0.438,1.313-1.062v-0.381c-0.288-0.082-0.675-0.166-1.154-0.166
				C125.42,274.646,125.009,274.967,125.009,275.467z"/>
			<path fill="#939598" d="M129.862,275.52c0,0.479,0.266,0.653,0.661,0.653c0.197,0,0.364-0.038,0.569-0.137v0.501
				c-0.205,0.105-0.426,0.167-0.707,0.167c-0.63,0-1.108-0.312-1.108-1.108v-2.369h-0.547v-0.517h0.547v-1.185h0.585v1.185h1.246
				v0.517h-1.246V275.52z"/>
			<path fill="#939598" d="M132.725,276.637h-0.585v-5.544h0.585v2.302c0.258-0.426,0.668-0.767,1.345-0.767
				c0.949,0,1.503,0.638,1.503,1.571v2.438h-0.584v-2.294c0-0.729-0.395-1.185-1.087-1.185c-0.676,0-1.178,0.492-1.178,1.229
				L132.725,276.637L132.725,276.637z"/>
		</g>
		<g>
			<path fill="#939598" d="M174.646,287.201c-1.194,0-2.074-0.939-2.074-2.133c0-1.184,0.875-2.146,2.092-2.146
				c0.75,0,1.2,0.266,1.613,0.655l-0.319,0.342c-0.349-0.331-0.738-0.567-1.3-0.567c-0.916,0-1.602,0.739-1.602,1.703
				c0,0.963,0.69,1.713,1.602,1.713c0.566,0,0.939-0.219,1.335-0.597l0.308,0.302C175.869,286.913,175.396,287.201,174.646,287.201z
				"/>
			<path fill="#939598" d="M177.079,287.132v-4.312h0.454v4.312H177.079z"/>
			<path fill="#939598" d="M179.984,287.201c-0.915,0-1.584-0.721-1.584-1.59c0-0.868,0.674-1.603,1.596-1.603
				c0.916,0,1.59,0.722,1.59,1.589C181.587,286.469,180.906,287.201,179.984,287.201z M179.984,284.412
				c-0.662,0-1.117,0.525-1.117,1.188s0.485,1.194,1.129,1.194c0.662,0,1.123-0.526,1.123-1.181
				C181.119,284.943,180.629,284.412,179.984,284.412z"/>
			<path fill="#939598" d="M183.416,287.189c-0.438,0-0.923-0.172-1.265-0.448l0.229-0.326c0.331,0.248,0.697,0.392,1.058,0.392
				c0.367,0,0.633-0.188,0.633-0.483v-0.013c0-0.308-0.36-0.427-0.762-0.537c-0.479-0.137-1.011-0.303-1.011-0.862v-0.013
				c0-0.525,0.438-0.875,1.04-0.875c0.372,0,0.786,0.131,1.1,0.336l-0.208,0.344c-0.283-0.186-0.608-0.295-0.903-0.295
				c-0.36,0-0.591,0.188-0.591,0.441v0.012c0,0.289,0.378,0.402,0.785,0.525c0.474,0.143,0.981,0.325,0.981,0.875v0.012
				C184.503,286.854,184.025,287.189,183.416,287.189z"/>
			<path fill="#939598" d="M186.694,286.807c0.42,0,0.715-0.171,0.964-0.433l0.283,0.254c-0.308,0.343-0.679,0.574-1.259,0.574
				c-0.84,0-1.524-0.646-1.524-1.597c0-0.888,0.62-1.597,1.466-1.597c0.903,0,1.424,0.722,1.424,1.618c0,0.042,0,0.09-0.006,0.145
				h-2.423C185.684,286.434,186.156,286.807,186.694,286.807z M187.587,285.436c-0.048-0.555-0.367-1.039-0.976-1.039
				c-0.532,0-0.934,0.441-0.993,1.039H187.587z"/>
			<path fill="#939598" d="M189.458,286.262c0,0.373,0.206,0.51,0.514,0.51c0.153,0,0.283-0.028,0.442-0.106v0.392
				c-0.159,0.082-0.331,0.131-0.549,0.131c-0.491,0-0.862-0.242-0.862-0.862v-1.845h-0.425v-0.401h0.425v-0.922h0.455v0.922h0.968
				v0.401h-0.968V286.262L189.458,286.262z"/>
		</g>
		<g>
			<path fill="#939598" d="M28.093,288.291c-1.193,0-2.073-0.939-2.073-2.134c0-1.183,0.875-2.146,2.092-2.146
				c0.749,0,1.199,0.267,1.613,0.656l-0.319,0.342c-0.349-0.331-0.738-0.567-1.301-0.567c-0.915,0-1.601,0.738-1.601,1.703
				s0.69,1.715,1.601,1.715c0.567,0,0.94-0.221,1.336-0.6l0.308,0.303C29.316,288.001,28.843,288.291,28.093,288.291z"/>
			<path fill="#939598" d="M30.525,288.221v-4.312h0.455v4.312H30.525z"/>
			<path fill="#939598" d="M33.432,288.291c-0.916,0-1.584-0.723-1.584-1.591s0.674-1.603,1.596-1.603c0.915,0,1.59,0.721,1.59,1.59
				S34.353,288.291,33.432,288.291z M33.432,285.501c-0.662,0-1.117,0.524-1.117,1.188c0,0.662,0.485,1.191,1.129,1.191
				c0.662,0,1.123-0.523,1.123-1.182C34.566,286.032,34.076,285.501,33.432,285.501z"/>
			<path fill="#939598" d="M36.863,288.277c-0.438,0-0.923-0.17-1.266-0.447l0.23-0.326c0.331,0.248,0.697,0.391,1.058,0.391
				c0.367,0,0.633-0.188,0.633-0.482v-0.014c0-0.308-0.36-0.426-0.762-0.537c-0.479-0.137-1.011-0.303-1.011-0.862v-0.013
				c0-0.524,0.438-0.873,1.04-0.873c0.372,0,0.785,0.129,1.1,0.336l-0.208,0.343c-0.283-0.185-0.608-0.296-0.903-0.296
				c-0.36,0-0.591,0.188-0.591,0.443v0.012c0,0.289,0.378,0.4,0.785,0.523c0.474,0.144,0.981,0.325,0.981,0.875v0.014
				C37.95,287.941,37.471,288.277,36.863,288.277z"/>
			<path fill="#939598" d="M40.141,287.895c0.419,0,0.715-0.17,0.964-0.432l0.283,0.254c-0.307,0.344-0.679,0.574-1.259,0.574
				c-0.84,0-1.524-0.646-1.524-1.598c0-0.887,0.62-1.596,1.465-1.596c0.904,0,1.425,0.721,1.425,1.618c0,0.042,0,0.089-0.006,0.144
				h-2.424C39.131,287.521,39.603,287.895,40.141,287.895z M41.033,286.523c-0.047-0.557-0.367-1.041-0.976-1.041
				c-0.531,0-0.933,0.441-0.993,1.041H41.033z"/>
			<path fill="#939598" d="M42.904,287.352c0,0.371,0.207,0.51,0.515,0.51c0.153,0,0.283-0.029,0.442-0.107v0.393
				c-0.159,0.082-0.331,0.129-0.549,0.129c-0.491,0-0.862-0.242-0.862-0.861v-1.846h-0.426v-0.4h0.426v-0.922h0.454v0.922h0.969v0.4
				h-0.969V287.352z"/>
		</g>
		<g>
			<path fill="#939598" d="M404.678,293.12c-1.191,0-2.071-0.938-2.071-2.134c0-1.182,0.874-2.146,2.092-2.146
				c0.751,0,1.199,0.268,1.611,0.656l-0.317,0.343c-0.351-0.332-0.738-0.567-1.301-0.567c-0.915,0-1.602,0.738-1.602,1.703
				c0,0.963,0.691,1.713,1.602,1.713c0.566,0,0.938-0.22,1.336-0.598l0.307,0.301C405.9,292.831,405.429,293.12,404.678,293.12z"/>
			<path fill="#939598" d="M407.11,293.049v-4.312h0.455v4.312H407.11z"/>
			<path fill="#939598" d="M410.017,293.12c-0.916,0-1.584-0.722-1.584-1.591c0-0.868,0.676-1.603,1.598-1.603
				c0.916,0,1.59,0.722,1.59,1.591C411.619,292.389,410.938,293.12,410.017,293.12z M410.017,290.331
				c-0.66,0-1.114,0.524-1.114,1.188c0,0.66,0.482,1.191,1.128,1.191c0.662,0,1.123-0.523,1.123-1.182
				C411.151,290.861,410.66,290.331,410.017,290.331z"/>
			<path fill="#939598" d="M413.448,293.107c-0.438,0-0.923-0.172-1.267-0.448l0.229-0.325c0.332,0.248,0.698,0.391,1.059,0.391
				c0.367,0,0.634-0.188,0.634-0.483v-0.013c0-0.309-0.36-0.426-0.764-0.539c-0.478-0.135-1.01-0.301-1.01-0.86v-0.013
				c0-0.524,0.438-0.873,1.039-0.873c0.372,0,0.786,0.127,1.1,0.334l-0.207,0.344c-0.281-0.184-0.606-0.295-0.901-0.295
				c-0.361,0-0.593,0.188-0.593,0.441v0.012c0,0.291,0.379,0.402,0.786,0.524c0.475,0.144,0.98,0.326,0.98,0.875v0.015
				C414.535,292.771,414.057,293.107,413.448,293.107z"/>
			<path fill="#939598" d="M416.726,292.725c0.422,0,0.718-0.172,0.965-0.432l0.282,0.253c-0.308,0.343-0.68,0.574-1.259,0.574
				c-0.839,0-1.522-0.646-1.522-1.597c0-0.888,0.619-1.598,1.466-1.598c0.9,0,1.423,0.723,1.423,1.619c0,0.043,0,0.089-0.005,0.143
				h-2.423C415.715,292.352,416.188,292.725,416.726,292.725z M417.618,291.354c-0.048-0.557-0.367-1.041-0.978-1.041
				c-0.529,0-0.933,0.442-0.99,1.041H417.618z"/>
			<path fill="#939598" d="M419.489,292.182c0,0.371,0.207,0.51,0.514,0.51c0.153,0,0.284-0.029,0.443-0.106v0.392
				c-0.159,0.082-0.332,0.131-0.549,0.131c-0.49,0-0.863-0.243-0.863-0.863V290.4h-0.426v-0.402h0.426v-0.923h0.455v0.923h0.969
				v0.402h-0.969V292.182L419.489,292.182z"/>
		</g>
		<g>
			<path fill="#939598" d="M271.788,315.22h0.384l1.137,3.457l1.18-3.442h0.492l-1.479,4.166h-0.396l-1.133-3.357l-1.144,3.357
				h-0.39l-1.479-4.166h0.512l1.182,3.442L271.788,315.22z"/>
			<path fill="#939598" d="M277.684,314.652l-2.742,5.472h-0.42l2.742-5.472H277.684L277.684,314.652z"/>
			<path fill="#939598" d="M279.666,319.368h-1.438v-4.136h1.438c1.3,0,2.197,0.892,2.197,2.062S280.966,319.368,279.666,319.368z
				 M279.666,315.662h-0.971v3.271h0.971c1.046,0,1.713-0.708,1.713-1.631C281.379,316.383,280.712,315.662,279.666,315.662z"/>
		</g>
		<g>
			<path fill="#939598" d="M455.527,264.846c0,0.545-0.331,0.822-0.655,0.965c0.491,0.146,0.887,0.433,0.887,1.004
				c0,0.717-0.597,1.136-1.502,1.136h-1.837v-4.136h1.761C454.996,263.812,455.527,264.213,455.527,264.846z M455.056,264.912
				c0-0.414-0.323-0.682-0.916-0.682h-1.259v1.426h1.225C454.665,265.654,455.056,265.402,455.056,264.912z M455.285,266.784
				c0-0.455-0.378-0.716-1.102-0.716h-1.306v1.459h1.39C454.896,267.529,455.285,267.251,455.285,266.784z"/>
			<path fill="#939598" d="M456.784,265.479l-0.136-0.373c0.337-0.151,0.668-0.254,1.108-0.254c0.834,0,1.3,0.426,1.3,1.229v1.867
				h-0.438v-0.461c-0.213,0.277-0.567,0.524-1.105,0.524c-0.564,0-1.14-0.317-1.14-0.958c0-0.648,0.532-0.992,1.306-0.992
				c0.393,0,0.668,0.053,0.939,0.131v-0.106c0-0.549-0.337-0.832-0.91-0.832C457.351,265.254,457.067,265.348,456.784,265.479z
				 M456.838,267.039c0,0.391,0.354,0.613,0.77,0.613c0.562,0,1.021-0.344,1.021-0.826v-0.295c-0.226-0.064-0.524-0.131-0.896-0.131
				C457.156,266.4,456.838,266.648,456.838,267.039z"/>
			<path fill="#939598" d="M460.612,267.08c0,0.372,0.207,0.509,0.514,0.509c0.153,0,0.284-0.028,0.442-0.104v0.39
				c-0.158,0.083-0.331,0.131-0.549,0.131c-0.489,0-0.862-0.243-0.862-0.862v-1.845h-0.426v-0.403h0.426v-0.922h0.455v0.922h0.969
				v0.403h-0.969V267.08L460.612,267.08z"/>
			<path fill="#939598" d="M462.839,267.948h-0.454v-4.313h0.454v1.791c0.2-0.332,0.521-0.598,1.046-0.598
				c0.738,0,1.171,0.496,1.171,1.224v1.896H464.6v-1.784c0-0.566-0.306-0.922-0.844-0.922c-0.524,0-0.916,0.383-0.916,0.957
				L462.839,267.948L462.839,267.948z"/>
		</g>
		<g>
			<path fill="#939598" d="M299.521,319.846l-1.198-1.605h-1.185v1.605h-0.466v-4.136h1.778c0.908,0,1.494,0.49,1.494,1.235
				c0,0.688-0.473,1.092-1.123,1.211l1.271,1.688L299.521,319.846L299.521,319.846z M298.418,316.14h-1.275v1.681h1.271
				c0.621,0,1.065-0.319,1.065-0.857C299.477,316.448,299.086,316.14,298.418,316.14z"/>
			<path fill="#939598" d="M302.154,319.52c0.422,0,0.717-0.171,0.965-0.432l0.283,0.254c-0.307,0.343-0.68,0.573-1.26,0.573
				c-0.838,0-1.522-0.646-1.522-1.595c0-0.889,0.618-1.599,1.465-1.599c0.903,0,1.424,0.723,1.424,1.619
				c0,0.042,0,0.089-0.007,0.144h-2.423C301.146,319.148,301.618,319.52,302.154,319.52z M303.048,318.149
				c-0.047-0.557-0.364-1.04-0.975-1.04c-0.532,0-0.935,0.44-0.993,1.04H303.048z"/>
			<path fill="#939598" d="M305.895,316.802v0.393h-0.963v2.651h-0.455v-2.651h-0.42v-0.396h0.42v-0.266
				c0-0.668,0.336-1.022,0.922-1.022c0.213,0,0.354,0.024,0.504,0.077v0.396c-0.168-0.05-0.291-0.078-0.443-0.078
				c-0.354,0-0.531,0.214-0.531,0.649v0.248L305.895,316.802L305.895,316.802z"/>
		</g>
		<g>
			<path fill="#939598" d="M352.389,319.846h-1.437v-4.136h1.437c1.301,0,2.197,0.894,2.197,2.062S353.688,319.846,352.389,319.846z
				 M352.389,316.14h-0.97v3.273h0.97c1.047,0,1.715-0.708,1.715-1.63C354.102,316.86,353.436,316.14,352.389,316.14z"/>
			<path fill="#939598" d="M357.864,315.696h0.385l1.135,3.459l1.183-3.445h0.488l-1.477,4.166h-0.396l-1.135-3.357l-1.142,3.357
				h-0.392l-1.478-4.166h0.509l1.182,3.445L357.864,315.696z"/>
		</g>
		<g>
			<path fill="#939598" d="M326.896,299.671h-0.754l-2.043-2.573l-1.132,1.146v1.427h-0.602v-5.316h0.602v3.176l3.054-3.176h0.772
				l-2.276,2.324L326.896,299.671z"/>
			<path fill="#939598" d="M327.742,294.886v-0.646h0.669v0.646H327.742z M327.782,299.671v-3.926h0.583v3.926H327.782z"/>
			<path fill="#939598" d="M330.518,298.557c0,0.479,0.266,0.651,0.659,0.651c0.196,0,0.364-0.038,0.57-0.138v0.503
				c-0.206,0.104-0.427,0.166-0.707,0.166c-0.632,0-1.106-0.312-1.106-1.108v-2.369h-0.547v-0.517h0.547v-1.187h0.584v1.187h1.246
				v0.517h-1.246V298.557L330.518,298.557z"/>
			<path fill="#939598" d="M334.451,299.764c-1.146,0-2.016-0.936-2.016-2.045c0-1.115,0.865-2.058,2.016-2.058
				c0.742,0,1.207,0.312,1.57,0.698l-0.389,0.408c-0.312-0.326-0.66-0.593-1.193-0.593c-0.797,0-1.402,0.677-1.402,1.526
				c0,0.857,0.623,1.535,1.441,1.535c0.502,0,0.891-0.252,1.199-0.584l0.373,0.349C335.657,299.441,335.188,299.764,334.451,299.764
				z"/>
			<path fill="#939598" d="M337.602,299.671h-0.584v-5.544h0.584v2.303c0.258-0.427,0.668-0.768,1.346-0.768
				c0.949,0,1.504,0.638,1.504,1.57v2.438h-0.585v-2.294c0-0.729-0.396-1.184-1.085-1.184c-0.678,0-1.18,0.492-1.18,1.229V299.671
				L337.602,299.671z"/>
			<path fill="#939598" d="M343.425,299.254c0.539,0,0.921-0.221,1.239-0.555l0.363,0.326c-0.396,0.439-0.873,0.736-1.618,0.736
				c-1.077,0-1.958-0.826-1.958-2.051c0-1.141,0.797-2.052,1.883-2.052c1.162,0,1.83,0.927,1.83,2.081c0,0.053,0,0.113-0.007,0.183
				h-3.114C342.126,298.773,342.732,299.254,343.425,299.254z M344.572,297.491c-0.062-0.714-0.473-1.337-1.254-1.337
				c-0.686,0-1.199,0.568-1.275,1.337H344.572z"/>
			<path fill="#939598" d="M346.771,299.671h-0.584v-3.926h0.584v0.685c0.26-0.427,0.67-0.768,1.346-0.768
				c0.949,0,1.505,0.638,1.505,1.57v2.438h-0.585v-2.294c0-0.729-0.396-1.184-1.086-1.184c-0.678,0-1.18,0.492-1.18,1.229V299.671
				L346.771,299.671z"/>
		</g>
		<g>
			<path fill="#939598" d="M423.847,217.255c0,0.699-0.426,1.056-0.844,1.238c0.631,0.188,1.142,0.555,1.142,1.291
				c0,0.919-0.768,1.459-1.93,1.459h-2.361v-5.318h2.265C423.163,215.925,423.847,216.441,423.847,217.255z M423.239,217.338
				c0-0.531-0.418-0.873-1.179-0.873h-1.616v1.83h1.569C422.738,218.296,423.239,217.969,423.239,217.338z M423.536,219.747
				c0-0.585-0.485-0.919-1.413-0.919h-1.678v1.876h1.782C423.034,220.704,423.536,220.348,423.536,219.747z"/>
			<path fill="#939598" d="M426.967,220.825c0.539,0,0.919-0.222,1.238-0.556l0.365,0.326c-0.396,0.441-0.874,0.737-1.618,0.737
				c-1.078,0-1.959-0.828-1.959-2.051c0-1.142,0.797-2.052,1.884-2.052c1.161,0,1.83,0.927,1.83,2.08c0,0.055,0,0.114-0.009,0.184
				h-3.112C425.668,220.348,426.275,220.825,426.967,220.825z M428.113,219.062c-0.062-0.713-0.473-1.336-1.253-1.336
				c-0.686,0-1.2,0.569-1.275,1.336H428.113z"/>
			<path fill="#939598" d="M432.883,221.242v-0.789c-0.317,0.47-0.782,0.873-1.503,0.873c-0.94,0-1.877-0.744-1.877-2.043
				c0-1.292,0.935-2.053,1.877-2.053c0.729,0,1.199,0.396,1.503,0.836v-2.371h0.585v5.545L432.883,221.242L432.883,221.242z
				 M431.485,217.756c-0.762,0-1.386,0.562-1.386,1.521c0,0.934,0.64,1.525,1.386,1.525c0.728,0,1.42-0.605,1.42-1.525
				C432.905,218.364,432.214,217.756,431.485,217.756z"/>
			<path fill="#939598" d="M435.356,221.242h-0.585v-3.926h0.585v1.023c0.288-0.652,0.856-1.125,1.603-1.093v0.63h-0.046
				c-0.857,0-1.558,0.615-1.558,1.8L435.356,221.242L435.356,221.242z"/>
			<path fill="#939598" d="M439.473,221.334c-1.178,0-2.033-0.926-2.033-2.043s0.864-2.059,2.051-2.059
				c1.179,0,2.044,0.927,2.044,2.043C441.532,220.393,440.658,221.334,439.473,221.334z M439.473,217.749
				c-0.85,0-1.435,0.675-1.435,1.526s0.623,1.533,1.45,1.533c0.851,0,1.441-0.676,1.441-1.52
				C440.932,218.434,440.301,217.749,439.473,217.749z"/>
			<path fill="#939598" d="M444.379,221.334c-1.178,0-2.036-0.926-2.036-2.043s0.866-2.059,2.054-2.059
				c1.178,0,2.043,0.927,2.043,2.043C446.438,220.393,445.562,221.334,444.379,221.334z M444.379,217.749
				c-0.852,0-1.436,0.675-1.436,1.526s0.622,1.533,1.449,1.533c0.854,0,1.443-0.676,1.443-1.52
				C445.837,218.434,445.207,217.749,444.379,217.749z"/>
			<path fill="#939598" d="M451.988,217.232c0.901,0,1.458,0.606,1.458,1.58v2.433h-0.584v-2.295c0-0.759-0.38-1.185-1.02-1.185
				c-0.593,0-1.086,0.439-1.086,1.215v2.265h-0.578v-2.312c0-0.735-0.388-1.168-1.01-1.168c-0.623,0-1.094,0.517-1.094,1.237v2.241
				h-0.585v-3.928h0.585v0.66c0.259-0.387,0.605-0.744,1.269-0.744c0.64,0,1.049,0.343,1.263,0.783
				C450.887,217.582,451.304,217.232,451.988,217.232z"/>
			<path fill="#939598" d="M425.148,225.169h0.438v5.354h-0.593v-4.732l-1.002,0.312l-0.146-0.485L425.148,225.169z"/>
			<path fill="#939598" d="M427.867,225.169h0.438v5.354h-0.593v-4.732l-1.002,0.312l-0.145-0.485L427.867,225.169z"/>
			<path fill="#939598" d="M429.795,225.206h0.715v0.038l-0.615,2.029h-0.326L429.795,225.206z"/>
			<path fill="#939598" d="M437.275,230.523h-0.678l-1.215-1.604l-1.223,1.604h-0.653l1.542-1.998l-1.479-1.932h0.669l1.162,1.521
				l1.161-1.521h0.652l-1.489,1.914L437.275,230.523z"/>
			<path fill="#939598" d="M441.36,225.169h0.438v5.354h-0.594v-4.732l-1.001,0.312l-0.146-0.485L441.36,225.169z"/>
			<path fill="#939598" d="M446.426,225.169v3.592h0.826v0.501h-0.826v1.264h-0.578v-1.264h-2.804l-0.15-0.433l3.009-3.661
				L446.426,225.169L446.426,225.169z M445.848,226.02l-2.229,2.742h2.229V226.02z"/>
			<path fill="#939598" d="M448.383,225.206h0.716v0.038l-0.613,2.029h-0.327L448.383,225.206z"/>
		</g>
		<g>
			<path fill="#939598" d="M220.101,215.925h0.601v4.765h2.993v0.554h-3.594V215.925L220.101,215.925z"/>
			<path fill="#939598" d="M224.718,216.457v-0.646h0.668v0.646H224.718z M224.755,221.242v-3.926h0.585v3.926H224.755z"/>
			<path fill="#939598" d="M229.608,217.316h0.63l-1.709,3.957h-0.517l-1.701-3.957h0.645l1.322,3.258L229.608,217.316z"/>
			<path fill="#939598" d="M231.171,216.457v-0.646h0.668v0.646H231.171z M231.21,221.242v-3.926h0.585v3.926H231.21z"/>
			<path fill="#939598" d="M233.737,221.242h-0.584v-3.926h0.584v0.683c0.259-0.425,0.669-0.767,1.346-0.767
				c0.949,0,1.504,0.639,1.504,1.572v2.438h-0.585v-2.295c0-0.729-0.396-1.185-1.087-1.185c-0.675,0-1.178,0.493-1.178,1.229
				V221.242L233.737,221.242z"/>
			<path fill="#939598" d="M239.57,222.475c-0.653,0-1.263-0.184-1.785-0.548l0.267-0.456c0.447,0.327,0.948,0.502,1.512,0.502
				c0.865,0,1.428-0.479,1.428-1.397v-0.464c-0.342,0.457-0.82,0.828-1.542,0.828c-0.942,0-1.847-0.698-1.847-1.847
				c0-1.153,0.91-1.86,1.847-1.86c0.735,0,1.215,0.365,1.532,0.791v-0.705h0.586v3.242
				C241.567,221.828,240.778,222.475,239.57,222.475z M239.562,217.749c-0.744,0-1.359,0.509-1.359,1.329
				c0,0.806,0.632,1.345,1.359,1.345c0.744,0,1.443-0.53,1.443-1.336C241.007,218.273,240.308,217.749,239.562,217.749z"/>
			<path fill="#939598" d="M246.124,215.182l-3.523,7.032h-0.539l3.523-7.032H246.124z"/>
			<path fill="#939598" d="M248.675,221.242h-1.846v-5.317h1.846c1.672,0,2.825,1.147,2.825,2.651
				C251.5,220.081,250.347,221.242,248.675,221.242z M248.675,216.48h-1.246v4.209h1.246c1.344,0,2.202-0.912,2.202-2.099
				C250.877,217.407,250.019,216.48,248.675,216.48z"/>
			<path fill="#939598" d="M252.684,216.457v-0.646h0.67v0.646H252.684z M252.723,221.242v-3.926h0.584v3.926H252.723z"/>
			<path fill="#939598" d="M255.25,221.242h-0.585v-3.926h0.585v0.683c0.258-0.425,0.668-0.767,1.346-0.767
				c0.948,0,1.504,0.639,1.504,1.572v2.438h-0.584v-2.295c0-0.729-0.396-1.185-1.086-1.185c-0.679,0-1.18,0.493-1.18,1.229V221.242
				L255.25,221.242z"/>
			<path fill="#939598" d="M259.357,216.457v-0.646h0.668v0.646H259.357z M259.396,221.242v-3.926h0.584v3.926H259.396z"/>
			<path fill="#939598" d="M261.927,221.242h-0.586v-3.926h0.586v0.683c0.257-0.425,0.666-0.767,1.343-0.767
				c0.951,0,1.506,0.639,1.506,1.572v2.438h-0.584v-2.295c0-0.729-0.396-1.185-1.088-1.185c-0.677,0-1.178,0.493-1.178,1.229
				L261.927,221.242L261.927,221.242z"/>
			<path fill="#939598" d="M267.758,222.475c-0.652,0-1.263-0.184-1.785-0.548l0.266-0.456c0.449,0.327,0.949,0.502,1.513,0.502
				c0.865,0,1.429-0.479,1.429-1.397v-0.464c-0.343,0.457-0.822,0.828-1.543,0.828c-0.941,0-1.847-0.698-1.847-1.847
				c0-1.153,0.911-1.86,1.847-1.86c0.737,0,1.215,0.365,1.533,0.791v-0.705h0.585v3.242
				C269.754,221.828,268.964,222.475,267.758,222.475z M267.749,217.749c-0.744,0-1.358,0.509-1.358,1.329
				c0,0.806,0.631,1.345,1.358,1.345c0.744,0,1.442-0.53,1.442-1.336C269.191,218.273,268.493,217.749,267.749,217.749z"/>
			<path fill="#939598" d="M277.098,221.242l-1.541-2.065h-1.521v2.065h-0.601v-5.317h2.285c1.17,0,1.922,0.63,1.922,1.587
				c0,0.891-0.607,1.406-1.443,1.559l1.635,2.173L277.098,221.242L277.098,221.242z M275.677,216.48h-1.641v2.156h1.633
				c0.798,0,1.367-0.408,1.367-1.101C277.036,216.874,276.535,216.48,275.677,216.48z"/>
			<path fill="#939598" d="M280.544,221.334c-1.179,0-2.035-0.926-2.035-2.043s0.864-2.059,2.052-2.059
				c1.178,0,2.043,0.927,2.043,2.043C282.602,220.393,281.729,221.334,280.544,221.334z M280.544,217.749
				c-0.853,0-1.437,0.675-1.437,1.526s0.623,1.533,1.451,1.533c0.852,0,1.441-0.676,1.441-1.52
				C282.002,218.434,281.371,217.749,280.544,217.749z"/>
			<path fill="#939598" d="M285.449,221.334c-1.18,0-2.037-0.926-2.037-2.043s0.865-2.059,2.052-2.059
				c1.181,0,2.045,0.927,2.045,2.043C287.508,220.393,286.634,221.334,285.449,221.334z M285.449,217.749
				c-0.854,0-1.438,0.675-1.438,1.526s0.621,1.533,1.45,1.533c0.853,0,1.442-0.676,1.442-1.52
				C286.907,218.434,286.275,217.749,285.449,217.749z"/>
			<path fill="#939598" d="M293.061,217.232c0.901,0,1.459,0.606,1.459,1.58v2.433h-0.586v-2.295c0-0.759-0.379-1.185-1.019-1.185
				c-0.593,0-1.086,0.439-1.086,1.215v2.265h-0.577v-2.312c0-0.735-0.388-1.168-1.011-1.168s-1.095,0.517-1.095,1.237v2.241h-0.586
				v-3.928h0.586v0.66c0.26-0.387,0.606-0.744,1.27-0.744c0.639,0,1.048,0.343,1.262,0.783
				C291.957,217.582,292.374,217.232,293.061,217.232z"/>
			<path fill="#939598" d="M233.916,226.582l-0.44-0.318c0.479-0.715,0.98-1.133,1.916-1.133c0.963,0,1.646,0.639,1.646,1.512
				c0,0.782-0.41,1.262-1.344,2.074l-1.422,1.262h2.818v0.547h-3.714v-0.465l1.929-1.701c0.812-0.729,1.109-1.139,1.109-1.67
				c0-0.623-0.494-1.021-1.07-1.021C234.737,225.669,234.343,225.99,233.916,226.582z"/>
			<path fill="#939598" d="M240.272,230.615c-1.375,0-2.24-1.246-2.24-2.742s0.881-2.757,2.256-2.757
				c1.368,0,2.232,1.245,2.232,2.741C242.521,229.354,241.64,230.615,240.272,230.615z M240.272,225.662
				c-0.996,0-1.617,1.018-1.617,2.195s0.638,2.211,1.633,2.211s1.609-1.026,1.609-2.196
				C241.897,226.704,241.269,225.662,240.272,225.662z"/>
			<path fill="#939598" d="M243.712,225.206h0.715v0.038l-0.615,2.029h-0.326L243.712,225.206z"/>
			<path fill="#939598" d="M245.367,225.206h3.608v0.448l-2.416,4.869h-0.668l2.399-4.771h-2.925L245.367,225.206L245.367,225.206z"
				/>
			<path fill="#939598" d="M250.099,225.206h0.706v0.038l-0.614,2.029h-0.32L250.099,225.206z M251.587,225.206h0.698v0.038
				l-0.614,2.029h-0.317L251.587,225.206z"/>
			<path fill="#939598" d="M259.061,230.523h-0.679l-1.216-1.604l-1.225,1.604h-0.651l1.543-1.998l-1.479-1.932h0.668l1.162,1.521
				l1.162-1.521h0.651l-1.488,1.914L259.061,230.523z"/>
			<path fill="#939598" d="M262.292,225.747v-0.54h3.396v0.441l-1.672,1.854c0.937,0.076,1.756,0.523,1.756,1.503
				c0,0.958-0.791,1.61-1.776,1.61c-0.89,0-1.55-0.389-1.981-0.949l0.434-0.389c0.41,0.502,0.904,0.791,1.558,0.791
				c0.646,0,1.162-0.409,1.162-1.041c0-0.668-0.606-1.032-1.489-1.032h-0.342l-0.121-0.356l1.68-1.892H262.292L262.292,225.747z"/>
			<path fill="#939598" d="M267.189,226.582l-0.438-0.318c0.479-0.715,0.979-1.133,1.914-1.133c0.965,0,1.647,0.639,1.647,1.512
				c0,0.782-0.41,1.262-1.346,2.074l-1.421,1.262h2.818v0.547h-3.716v-0.465l1.931-1.701c0.812-0.729,1.108-1.139,1.108-1.67
				c0-0.623-0.494-1.021-1.071-1.021C268.014,225.669,267.616,225.99,267.189,226.582z"/>
			<path fill="#939598" d="M271.559,225.206h0.715v0.038l-0.616,2.029h-0.327L271.559,225.206z"/>
			<path fill="#939598" d="M275.407,230.615c-1.375,0-2.241-1.246-2.241-2.742s0.882-2.757,2.256-2.757
				c1.368,0,2.233,1.245,2.233,2.741C277.654,229.354,276.773,230.615,275.407,230.615z M275.407,225.662
				c-0.995,0-1.618,1.018-1.618,2.195s0.641,2.211,1.633,2.211c0.995,0,1.61-1.026,1.61-2.196
				C277.032,226.704,276.4,225.662,275.407,225.662z"/>
			<path fill="#939598" d="M278.848,225.206h0.707v0.038l-0.617,2.029h-0.317L278.848,225.206z M280.335,225.206h0.699v0.038
				l-0.616,2.029h-0.316L280.335,225.206z"/>
		</g>
		<g>
			<path fill="#939598" d="M55.832,217.255c0,0.699-0.425,1.056-0.843,1.238c0.63,0.188,1.139,0.555,1.139,1.291
				c0,0.919-0.767,1.459-1.93,1.459h-2.362v-5.318H54.1C55.148,215.925,55.832,216.441,55.832,217.255z M55.225,217.338
				c0-0.531-0.417-0.873-1.178-0.873H52.43v1.83h1.572C54.724,218.296,55.225,217.969,55.225,217.338z M55.52,219.747
				c0-0.585-0.485-0.919-1.412-0.919h-1.679v1.876h1.785C55.019,220.704,55.52,220.348,55.52,219.747z"/>
			<path fill="#939598" d="M58.952,220.825c0.539,0,0.919-0.222,1.238-0.556l0.364,0.326c-0.396,0.441-0.873,0.737-1.617,0.737
				c-1.079,0-1.961-0.828-1.961-2.051c0-1.142,0.798-2.052,1.885-2.052c1.161,0,1.829,0.927,1.829,2.08c0,0.055,0,0.114-0.007,0.184
				h-3.114C57.654,220.348,58.261,220.825,58.952,220.825z M60.1,219.062c-0.061-0.713-0.471-1.336-1.253-1.336
				c-0.685,0-1.2,0.569-1.276,1.336H60.1z"/>
			<path fill="#939598" d="M64.868,221.242v-0.789c-0.318,0.47-0.782,0.873-1.504,0.873c-0.941,0-1.876-0.744-1.876-2.043
				c0-1.292,0.935-2.053,1.876-2.053c0.729,0,1.2,0.396,1.504,0.836v-2.371h0.585v5.545L64.868,221.242L64.868,221.242z
				 M63.47,217.756c-0.759,0-1.382,0.562-1.382,1.521c0,0.934,0.638,1.525,1.382,1.525c0.729,0,1.421-0.605,1.421-1.525
				C64.891,218.364,64.2,217.756,63.47,217.756z"/>
			<path fill="#939598" d="M67.343,221.242h-0.584v-3.926h0.584v1.023c0.289-0.652,0.858-1.125,1.603-1.093v0.63H68.9
				c-0.859,0-1.558,0.615-1.558,1.8L67.343,221.242L67.343,221.242z"/>
			<path fill="#939598" d="M71.459,221.334c-1.178,0-2.036-0.926-2.036-2.043s0.865-2.059,2.051-2.059
				c1.178,0,2.044,0.927,2.044,2.043C73.518,220.393,72.643,221.334,71.459,221.334z M71.459,217.749
				c-0.851,0-1.436,0.675-1.436,1.526s0.623,1.533,1.45,1.533c0.851,0,1.443-0.676,1.443-1.52
				C72.917,218.434,72.286,217.749,71.459,217.749z"/>
			<path fill="#939598" d="M76.364,221.334c-1.178,0-2.036-0.926-2.036-2.043s0.865-2.059,2.051-2.059
				c1.178,0,2.044,0.927,2.044,2.043C78.423,220.393,77.549,221.334,76.364,221.334z M76.364,217.749
				c-0.851,0-1.436,0.675-1.436,1.526s0.623,1.533,1.45,1.533c0.851,0,1.443-0.676,1.443-1.52
				C77.823,218.434,77.191,217.749,76.364,217.749z"/>
			<path fill="#939598" d="M83.974,217.232c0.903,0,1.459,0.606,1.459,1.58v2.433h-0.585v-2.295c0-0.759-0.38-1.185-1.019-1.185
				c-0.592,0-1.087,0.439-1.087,1.215v2.265h-0.577v-2.312c0-0.735-0.387-1.168-1.01-1.168c-0.623,0-1.094,0.517-1.094,1.237v2.241
				h-0.584v-3.928h0.584v0.66c0.259-0.387,0.608-0.744,1.269-0.744c0.638,0,1.048,0.343,1.262,0.783
				C82.872,217.582,83.29,217.232,83.974,217.232z"/>
			<path fill="#939598" d="M57.357,225.169h0.44v5.354h-0.593v-4.732l-1.003,0.312l-0.144-0.485L57.357,225.169z"/>
			<path fill="#939598" d="M60.076,225.169h0.44v5.354h-0.593v-4.732l-1.002,0.312l-0.145-0.485L60.076,225.169z"/>
			<path fill="#939598" d="M62.005,225.206h0.714v0.038l-0.615,2.029h-0.326L62.005,225.206z"/>
			<path fill="#939598" d="M69.485,230.523h-0.676l-1.215-1.604l-1.223,1.604h-0.653l1.542-1.998l-1.48-1.932h0.668l1.162,1.521
				l1.162-1.521h0.652l-1.488,1.914L69.485,230.523z"/>
			<path fill="#939598" d="M73.569,225.169h0.44v5.354h-0.592v-4.732l-1.003,0.312l-0.144-0.485L73.569,225.169z"/>
			<path fill="#939598" d="M75.68,225.206h3.061v0.555h-2.536l-0.114,1.702c0.312-0.136,0.607-0.234,1.049-0.234
				c1.032,0,1.839,0.614,1.839,1.633c0,1.05-0.791,1.756-1.899,1.756c-0.76,0-1.421-0.364-1.898-0.844l0.395-0.434
				c0.463,0.448,0.972,0.729,1.512,0.729c0.76,0,1.283-0.502,1.283-1.187c0-0.668-0.539-1.124-1.321-1.124
				c-0.448,0-0.806,0.137-1.117,0.305l-0.402-0.267L75.68,225.206z"/>
			<path fill="#939598" d="M80.144,225.206h0.714v0.038l-0.615,2.029h-0.326L80.144,225.206z"/>
		</g>
		<g>
			<path fill="#939598" d="M211.265,302.318h-2.522v1.412H211v0.426h-2.257v1.447h2.552v0.426h-3.02v-4.137h2.99V302.318z"/>
			<path fill="#939598" d="M212.49,306.029h-0.456v-3.057h0.456v0.532c0.2-0.332,0.521-0.597,1.046-0.597
				c0.738,0,1.171,0.497,1.171,1.223v1.896h-0.456v-1.784c0-0.567-0.307-0.923-0.845-0.923c-0.526,0-0.915,0.385-0.915,0.959
				L212.49,306.029L212.49,306.029z"/>
			<path fill="#939598" d="M216.054,305.162c0,0.371,0.205,0.508,0.514,0.508c0.152,0,0.283-0.029,0.441-0.105v0.391
				c-0.158,0.084-0.33,0.131-0.549,0.131c-0.49,0-0.861-0.243-0.861-0.863v-1.844h-0.426v-0.402h0.426v-0.922h0.455v0.922h0.969
				v0.402h-0.969V305.162L216.054,305.162z"/>
			<path fill="#939598" d="M218.16,306.029h-0.455v-3.057h0.455v0.799c0.226-0.508,0.668-0.875,1.247-0.852v0.49h-0.035
				c-0.669,0-1.212,0.479-1.212,1.398V306.029L218.16,306.029z"/>
			<path fill="#939598" d="M221.587,306.13c-0.261,0.632-0.556,0.862-1.018,0.862c-0.254,0-0.442-0.053-0.65-0.153l0.154-0.361
				c0.146,0.077,0.283,0.112,0.479,0.112c0.271,0,0.442-0.142,0.627-0.573l-1.39-3.042h0.502l1.11,2.547l0.981-2.547h0.484
				L221.587,306.13z"/>
		</g>
		<g>
			<path fill="#939598" d="M311.816,272.425v5.317h-0.602v-5.317H311.816z"/>
			<path fill="#939598" d="M314.574,277.816c-0.562,0-1.186-0.221-1.626-0.576l0.297-0.417c0.426,0.317,0.896,0.501,1.358,0.501
				c0.472,0,0.812-0.243,0.812-0.623v-0.016c0-0.396-0.463-0.547-0.979-0.69c-0.614-0.175-1.299-0.388-1.299-1.108v-0.017
				c0-0.677,0.562-1.124,1.338-1.124c0.479,0,1.01,0.168,1.412,0.434l-0.267,0.44c-0.365-0.235-0.782-0.38-1.162-0.38
				c-0.464,0-0.76,0.242-0.76,0.568v0.018c0,0.371,0.485,0.516,1.011,0.675c0.605,0.185,1.262,0.419,1.262,1.125v0.015
				C315.973,277.386,315.354,277.816,314.574,277.816z"/>
			<path fill="#939598" d="M317.107,277.742v-5.545h0.586v5.545H317.107z"/>
			<path fill="#939598" d="M319.281,274.566l-0.176-0.479c0.436-0.197,0.858-0.327,1.429-0.327c1.069,0,1.671,0.548,1.671,1.58v2.4
				h-0.562v-0.593c-0.271,0.355-0.729,0.677-1.422,0.677c-0.729,0-1.466-0.41-1.466-1.23c0-0.836,0.685-1.274,1.679-1.274
				c0.502,0,0.858,0.066,1.209,0.166v-0.137c0-0.707-0.434-1.07-1.17-1.07C320.011,274.277,319.646,274.4,319.281,274.566z
				 M319.352,276.57c0,0.504,0.455,0.791,0.986,0.791c0.723,0,1.312-0.439,1.312-1.062v-0.379c-0.289-0.085-0.676-0.167-1.154-0.167
				C319.761,275.752,319.352,276.07,319.352,276.57z"/>
			<path fill="#939598" d="M324.035,277.742h-0.584v-3.928h0.584v0.685c0.258-0.426,0.668-0.767,1.344-0.767
				c0.951,0,1.505,0.639,1.505,1.57v2.438h-0.585v-2.296c0-0.729-0.396-1.185-1.086-1.185c-0.676,0-1.178,0.493-1.178,1.23V277.742z
				"/>
			<path fill="#939598" d="M331.279,277.742v-0.791c-0.318,0.473-0.781,0.874-1.506,0.874c-0.938,0-1.875-0.744-1.875-2.043
				c0-1.292,0.935-2.052,1.875-2.052c0.729,0,1.203,0.396,1.506,0.836v-2.371h0.584v5.546L331.279,277.742L331.279,277.742z
				 M329.883,274.257c-0.76,0-1.383,0.562-1.383,1.521c0,0.934,0.639,1.524,1.383,1.524c0.729,0,1.422-0.606,1.422-1.524
				C331.305,274.863,330.611,274.257,329.883,274.257z"/>
		</g>
	</g>
</g>
</svg>
