<?xml version="1.0" encoding="utf-8"?>
<!-- Generator: Adobe Illustrator 15.0.2, SVG Export Plug-In . SVG Version: 6.00 Build 0)  -->
<!DOCTYPE svg PUBLIC "-//W3C//DTD SVG 1.1//EN" "http://www.w3.org/Graphics/SVG/1.1/DTD/svg11.dtd">
<svg version="1.1" id="Layer_1" xmlns="http://www.w3.org/2000/svg" xmlns:xlink="http://www.w3.org/1999/xlink" x="0px" y="0px"
	 width="500px" height="500px" viewBox="-81.102 -83.037 500 500" enable-background="new -81.102 -83.037 500 500"
	 xml:space="preserve">
<g id="_x32_0_x25___PMS_2985_fill" display="none">
	<polygon display="inline" fill="#EBEEEF" points="1.512,18.65 1.512,332.441 178.012,332.441 178.012,316.941 233.012,316.941 
		233.012,331.441 336.512,331.441 336.512,18.441 216.512,18.441 216.512,8.941 127.512,8.941 127.512,15.941 101.012,15.941 
		101.012,19.441 	"/>
</g>
<g>
	<g id="_x32_0_x25__grey_fill">
		<rect x="264.661" y="378.973" fill="#B3B3B3" width="32.715" height="31.588"/>
		<rect x="376.773" y="375.072" fill="#B3B3B3" width="36.441" height="34.25"/>
		<rect x="68.911" y="-52.419" fill="#B3B3B3" width="47.984" height="13.431"/>
		<rect x="228.48" y="-52.419" fill="#B3B3B3" width="57.268" height="12.685"/>
		<rect x="395.887" y="-47.811" fill="#B3B3B3" width="18.012" height="8.454"/>
		<rect x="-76.102" y="-47.483" fill="#B3B3B3" width="36.408" height="7.391"/>
	</g>
	<g id="icons">
		<polyline fill="#FFFFFF" stroke="#939598" points="89.186,225.668 89.186,378.826 181.468,378.826 181.468,409.436 57.47,409.436 
			57.47,225.424 87.224,225.424 		"/>
		<g>
			<rect x="123.144" y="-50.09" fill="none" stroke="#939598" width="55.136" height="2.911"/>
			<rect x="165.416" y="-47.202" fill="none" stroke="#939598" width="60.282" height="2.597"/>
		</g>
		<g>
			<rect x="235.255" y="-63.801" fill="none" stroke="#939598" width="4.228" height="4.227"/>
			<rect x="108.073" y="-63.801" fill="none" stroke="#939598" width="4.228" height="4.227"/>
			<line fill="none" stroke="#939598" x1="235.623" y1="-60.676" x2="112.301" y2="-60.676"/>
			<line fill="none" stroke="#939598" x1="235.255" y1="-59.574" x2="235.255" y2="-54.428"/>
			<line fill="none" stroke="#939598" x1="111.481" y1="-59.574" x2="111.481" y2="-52.773"/>
			<line fill="none" stroke="#939598" x1="108.073" y1="-59.574" x2="108.073" y2="-53.141"/>
			<line fill="none" stroke="#939598" x1="112.301" y1="-63.801" x2="235.99" y2="-63.801"/>
			<line fill="none" stroke="#939598" x1="239.482" y1="-59.574" x2="239.482" y2="-54.404"/>
		</g>
		<line fill="none" stroke="#939598" x1="69.967" y1="-38.622" x2="-39.326" y2="-38.622"/>
		<line fill="none" stroke="#939598" x1="394.784" y1="-38.226" x2="285.493" y2="-38.226"/>
		<g>
			<polygon fill="none" stroke="#939598" points="15.466,180.324 13.042,180.398 13.02,215.359 15.478,215.377 			"/>
			<path fill="none" stroke="#939598" d="M14.37,215.404c-19.282-0.654-34.381-16.537-33.723-35.816"/>
		</g>
		<g>
			<polygon fill="none" stroke="#939598" points="308.867,303.223 311.322,303.232 311.347,338.256 308.889,338.242 			"/>
			<path fill="none" stroke="#939598" d="M309.997,338.268c19.28-0.652,34.38-16.504,33.724-35.783"/>
		</g>
		<g>
			<polygon fill="none" stroke="#939598" points="15.4,291.893 12.945,291.912 12.921,256.893 15.442,256.873 			"/>
			<path fill="none" stroke="#939598" d="M14.367,256.846c-19.281,0.652-34.38,16.6-33.723,35.877"/>
		</g>
		<g>
			<polygon fill="none" stroke="#939598" points="321.437,211.729 321.449,209.396 354.718,209.371 354.707,211.705 			"/>
			<path fill="none" stroke="#939598" d="M354.732,210.654c-0.623-18.318-15.68-32.662-33.995-32.035"/>
		</g>
		<g>
			<polygon fill="none" stroke="#939598" points="276.936,246.299 279.391,246.316 279.413,211.295 276.894,211.275 			"/>
			<path fill="none" stroke="#939598" d="M277.969,211.25c19.279,0.654,34.38,16.598,33.723,35.879"/>
		</g>
		<g>
			<polygon fill="none" stroke="#939598" points="264.019,360.732 265.253,358.754 237.127,340.982 235.893,342.961 			"/>
			<path fill="none" stroke="#939598" d="M282.276,333.107"/>
			<path fill="none" stroke="#939598" d="M236.433,342.059c6.384-9.393,16.64-14.539,27.126-14.643"/>
		</g>
		<g>
			<polygon fill="none" stroke="#939598" points="87.415,168.842 87.402,166.511 54.133,166.488 54.145,168.822 			"/>
			<path fill="none" stroke="#939598" d="M54.118,167.77c0.624-18.317,15.68-32.819,33.996-32.194"/>
		</g>
		<g>
			<polygon fill="none" stroke="#939598" points="367.951,258.016 367.938,260.348 334.669,260.371 334.681,258.037 			"/>
			<path fill="none" stroke="#939598" d="M334.655,259.09c0.623,18.316,15.678,32.66,33.993,32.035"/>
		</g>
		<g>
			<polygon fill="none" stroke="#939598" points="87.198,189.33 87.208,191.195 113.822,191.213 113.813,189.344 			"/>
			<path fill="none" stroke="#939598" d="M113.834,190.188c-0.499,14.654-12.543,26.131-27.196,25.629"/>
		</g>
		
			<rect x="120.255" y="296.243" transform="matrix(0.7071 0.7072 -0.7072 0.7071 264.3515 -17.3397)" fill="#FFFFFF" stroke="#939598" width="65.698" height="28.308"/>
		<line fill="none" stroke="#939598" x1="280.467" y1="305.064" x2="280.467" y2="378.949"/>
		<line fill="none" stroke="#939598" x1="35.293" y1="181.926" x2="35.293" y2="289.523"/>
		<polyline fill="none" stroke="#939598" points="-29.769,182.295 -29.769,195.527 -60.278,195.527 -60.278,275.658 
			-28.666,275.658 -28.666,291.465 		"/>
		<line fill="none" stroke="#939598" x1="68.375" y1="182.295" x2="68.375" y2="225.301"/>
		<polyline fill="none" stroke="#939598" points="324.209,162.444 397.725,162.444 397.725,229.344 324.577,229.344 		"/>
		
			<line fill="none" stroke="#939598" stroke-dasharray="1.5,1.5,1.5,1.5,1.5,1.5" x1="38.812" y1="181.926" x2="38.812" y2="291.832"/>
		
			<line fill="none" stroke="#939598" stroke-dasharray="1.5,1.5,1.5,1.5,1.5,1.5" x1="65.221" y1="182.295" x2="65.221" y2="226.035"/>
		
			<line fill="none" stroke="#939598" stroke-dasharray="1.5,1.5,1.5,1.5,1.5,1.5" x1="283.861" y1="303.963" x2="283.861" y2="378.213"/>
		<polyline fill="none" stroke="#939598" stroke-dasharray="1.5,1.5,1.5,1.5,1.5,1.5" points="323.842,158.735 401.375,158.735 
			401.375,232.793 324.209,232.793 		"/>
		<polyline fill="none" stroke="#939598" stroke-dasharray="1.5,1.5,1.5,1.5,1.5,1.5" points="-30.504,191.662 -64.029,191.662 
			-64.029,279.117 -28.666,279.117 		"/>
		<polyline fill="#FFFFFF" stroke="#939598" points="341.118,407.252 341.118,380.805 375.55,380.805 375.55,410.195 		"/>
		<rect x="29.905" y="291.588" fill="#FFFFFF" stroke="#939598" width="28.777" height="117.135"/>
		<g>
			<g>
				<g>
					<g>
						<rect x="377.092" y="259.482" fill="#FFFFFF" stroke="#939598" width="27.267" height="29.682"/>
						<path fill="#FFFFFF" stroke="#939598" d="M389.819,274.324"/>
						<polyline fill="#FFFFFF" stroke="#939598" points="385.228,265.32 381.078,265.32 380.111,268.904 380.111,279.883 
							381.078,283.514 385.228,283.514 						"/>
						<line fill="none" stroke="#939598" x1="385.228" y1="289.381" x2="385.228" y2="259.482"/>
						<path fill="#FFFFFF" stroke="#939598" d="M388.427,274.418"/>
					</g>
				</g>
			</g>
			<polygon fill="#FFFFFF" stroke="#939598" points="383.438,287.723 383.433,285.326 385.106,284.799 385.112,288.25 			"/>
		</g>
		<g>
			<path fill="#FFFFFF" stroke="#939598" stroke-miterlimit="10" d="M330.999,387.352c0-6.561-3.985-13.785-8.899-13.785
				c-4.915,0-8.882,7.225-8.882,13.785c0,6.562,3.967,9.977,8.882,9.977C327.014,397.328,330.999,393.914,330.999,387.352"/>
			<path fill="#FFFFFF" stroke="#939598" d="M330.999,387.352c0-6.561-3.985-13.785-8.899-13.785c-4.915,0-8.882,7.225-8.882,13.785
				c0,6.562,3.967,9.977,8.882,9.977C327.014,397.328,330.999,393.914,330.999,387.352z"/>
			<path fill="#FFFFFF" stroke="#939598" stroke-miterlimit="10" d="M316.772,395.178c0-0.369-0.301-0.668-0.669-0.668h-3.097
				c-0.368,0-0.669,0.299-0.669,0.668v0.113c0,0.367,0.301,0.668,0.669,0.668h3.097c0.368,0,0.669-0.301,0.669-0.668V395.178z"/>
			<path fill="#FFFFFF" stroke="#939598" d="M316.772,395.178c0-0.369-0.301-0.668-0.669-0.668h-3.097
				c-0.368,0-0.669,0.299-0.669,0.668v0.113c0,0.367,0.301,0.668,0.669,0.668h3.097c0.368,0,0.669-0.301,0.669-0.668V395.178z"/>
			<path fill="#FFFFFF" stroke="#939598" stroke-miterlimit="10" d="M311.865,395.977c-1.116,0-2.021,3.023-2.021,4.139
				c0,1.133,0.905,4.154,2.021,4.154h20.311c1.116,0,2.021-3.025,2.021-4.154c0-1.117-0.905-4.137-2.021-4.137L311.865,395.977z"/>
			<path fill="#FFFFFF" stroke="#939598" d="M311.865,395.977c-1.116,0-2.021,3.023-2.021,4.139c0,1.133,0.905,4.154,2.021,4.154
				h20.311c1.116,0,2.021-3.025,2.021-4.154c0-1.117-0.905-4.137-2.021-4.137L311.865,395.977z"/>
			<path fill="#FFFFFF" stroke="#939598" stroke-miterlimit="10" d="M328.641,387.076c0-4.818-2.928-10.133-6.541-10.133
				c-3.612,0-6.539,5.312-6.539,10.133c0,4.824,2.927,7.33,6.539,7.33C325.713,394.406,328.641,391.898,328.641,387.076"/>
			<path fill="#FFFFFF" stroke="#939598" d="M328.641,387.076c0-4.818-2.928-10.133-6.541-10.133c-3.612,0-6.539,5.312-6.539,10.133
				c0,4.824,2.927,7.33,6.539,7.33C325.713,394.406,328.641,391.898,328.641,387.076z"/>
		</g>
		<g>
			<g>
				<g>
					<rect x="374.311" y="306.039" fill="#FFFFFF" stroke="#939598" width="36.017" height="68.736"/>
					<path fill="#FFFFFF" stroke="#939598" d="M392.347,341.326"/>
				</g>
				<g>
					<polyline fill="#FFFFFF" stroke="#939598" points="392.698,372.68 407.094,372.68 407.094,308.621 377.547,308.621 
						377.547,372.68 391.37,372.68 					"/>
					<path fill="#FFFFFF" stroke="#939598" d="M392.347,341.326"/>
				</g>
				<line fill="none" stroke="#939598" x1="377.547" y1="372.68" x2="391.353" y2="342.686"/>
				<line fill="none" stroke="#939598" x1="393.395" y1="340.008" x2="407.094" y2="308.621"/>
				<line fill="none" stroke="#939598" x1="377.547" y1="308.621" x2="391.218" y2="339.854"/>
				<line fill="none" stroke="#939598" x1="393.431" y1="342.734" x2="407.094" y2="372.68"/>
				<g>
					<path fill="#FFFFFF" stroke="#939598" d="M393.889,341.326c0-0.881-0.864-1.594-1.542-1.594c-0.675,0-1.435,0.713-1.435,1.594
						c0,0.883,0.76,1.594,1.435,1.594C393.024,342.92,393.889,342.205,393.889,341.326z"/>
					<path fill="#FFFFFF" stroke="#939598" d="M392.347,341.326"/>
				</g>
			</g>
			<path fill="#FFFFFF" stroke="#939598" d="M393.841,370.33c0-0.906-3.28-0.906-3.28,0c0,0.908,0.734,1.641,1.64,1.641
				C393.108,371.971,393.841,371.238,393.841,370.33z"/>
			<polyline fill="#FFFFFF" stroke="#939598" points="391.861,375.209 391.861,372.07 392.777,372.07 392.777,375.213 			"/>
		</g>
		<g>
			<path fill="#FFFFFF" stroke="#939598" stroke-miterlimit="10" d="M-53.836,323.418c6.561,0,13.786-3.986,13.786-8.9
				s-7.225-8.883-13.786-8.883c-6.562,0-9.977,3.969-9.977,8.883S-60.398,323.418-53.836,323.418"/>
			<path fill="#FFFFFF" stroke="#939598" d="M-53.836,323.418c6.561,0,13.786-3.986,13.786-8.9s-7.225-8.883-13.786-8.883
				c-6.562,0-9.977,3.969-9.977,8.883S-60.398,323.418-53.836,323.418z"/>
			<path fill="#FFFFFF" stroke="#939598" stroke-miterlimit="10" d="M-61.662,309.191c0.368,0,0.669-0.303,0.669-0.67v-3.098
				c0-0.367-0.302-0.668-0.669-0.668h-0.112c-0.368,0-0.669,0.301-0.669,0.668v3.098c0,0.367,0.302,0.67,0.669,0.67H-61.662z"/>
			<path fill="#FFFFFF" stroke="#939598" d="M-61.662,309.191c0.368,0,0.669-0.303,0.669-0.67v-3.098
				c0-0.367-0.302-0.668-0.669-0.668h-0.112c-0.368,0-0.669,0.301-0.669,0.668v3.098c0,0.367,0.302,0.67,0.669,0.67H-61.662z"/>
			<path fill="#FFFFFF" stroke="#939598" stroke-miterlimit="10" d="M-62.461,304.283c0-1.115-3.024-2.021-4.141-2.021
				c-1.131,0-4.153,0.906-4.153,2.021v20.311c0,1.117,3.024,2.021,4.153,2.021c1.118,0,4.138-0.904,4.138-2.021L-62.461,304.283z"/>
			<path fill="#FFFFFF" stroke="#939598" d="M-62.461,304.283c0-1.115-3.024-2.021-4.141-2.021c-1.131,0-4.153,0.906-4.153,2.021
				v20.311c0,1.117,3.024,2.021,4.153,2.021c1.118,0,4.138-0.904,4.138-2.021L-62.461,304.283z"/>
			<path fill="#FFFFFF" stroke="#939598" stroke-miterlimit="10" d="M-53.562,321.059c4.821,0,10.135-2.928,10.135-6.541
				s-5.312-6.539-10.135-6.539c-4.823,0-7.329,2.926-7.329,6.539S-58.385,321.059-53.562,321.059"/>
			<path fill="#FFFFFF" stroke="#939598" d="M-53.562,321.059c4.821,0,10.135-2.928,10.135-6.541s-5.312-6.539-10.135-6.539
				c-4.823,0-7.329,2.926-7.329,6.539S-58.385,321.059-53.562,321.059z"/>
		</g>
		<g>
			<g>
				<rect x="-72.72" y="339.439" fill="#FFFFFF" stroke="#939598" width="34.736" height="67.182"/>
				<path fill="#FFFFFF" stroke="#939598" d="M-55.353,373.029"/>
				<path fill="#FFFFFF" stroke="#939598" d="M-55.353,372.801"/>
				<path fill="#FFFFFF" stroke="#939598" d="M-55.353,350.02"/>
			</g>
			<circle fill="#FFFFFF" stroke="#939598" cx="-55.516" cy="354.752" r="1.424"/>
			<path fill="#FFFFFF" stroke="#939598" d="M-55.458,402.787c9.956,0,13.601-2.297,13.601-5.518c0,0,0-48.285,0-49.074
				c0-0.787-0.213-2.414-2.295-2.414c-2.085,0-11.306,0-11.306,0h-0.023c0,0-9.22,0-11.305,0c-2.082,0-2.295,1.621-2.295,2.414
				c0,0.789,0,49.041,0,49.041l0.003,0.031C-69.08,400.49-65.351,402.787-55.458,402.787z"/>
			<path fill="#FFFFFF" stroke="#939598" d="M-52.529,343.285c-0.003,0.807,0.648,1.453,1.464,1.453c0.79,0,1.444-0.646,1.45-1.453
				c-0.006-0.801-0.66-1.461-1.45-1.461C-51.879,341.824-52.533,342.475-52.529,343.285z"/>
			<path fill="#FFFFFF" stroke="#939598" d="M-61.557,343.285c-0.009,0.807,0.654,1.453,1.455,1.453
				c0.798,0,1.456-0.646,1.456-1.453c0-0.801-0.658-1.461-1.456-1.451C-60.906,341.824-61.557,342.484-61.557,343.285z"/>
			<path fill="#FFFFFF" stroke="#939598" d="M-53.554,342.854c0-1.193-0.807-2.158-2.001-2.162
				c-1.192,0.004-1.844,0.969-1.844,2.162l0.766,8.223c0,0.809,2.179,0.809,2.179,0L-53.554,342.854z"/>
		</g>
		<g>
			<g>
				<path fill="#FFFFFF" stroke="#939598" d="M63.862,303.531c0-0.625,0.506-1.133,1.134-1.133h19.769
					c0.626,0,1.133,0.508,1.133,1.133v33.533c0,0.627-0.509,1.135-1.133,1.135H64.997c-0.629,0-1.134-0.512-1.134-1.135
					L63.862,303.531L63.862,303.531z"/>
				<path fill="#FFFFFF" stroke="#939598" d="M74.025,320.18"/>
			</g>
			<g>
				<circle fill="#FFFFFF" stroke="#939598" cx="75.366" cy="320.179" r="1.28"/>
				<path fill="#FFFFFF" stroke="#939598" d="M75.365,320.18"/>
			</g>
			<g>
				<g>
					<rect x="64.65" y="314.586" fill="#FFFFFF" stroke="#939598" width="2.676" height="11.188"/>
					<path fill="#FFFFFF" stroke="#939598" d="M65.988,320.18"/>
				</g>
				<g>
					<rect x="67.257" y="319.607" fill="#FFFFFF" stroke="#939598" width="5.272" height="1.143"/>
					<path fill="#FFFFFF" stroke="#939598" d="M69.552,320.18"/>
				</g>
				<g>
					<circle fill="#FFFFFF" stroke="#939598" cx="66.015" cy="320.18" r="1.246"/>
					<path fill="#FFFFFF" stroke="#939598" d="M66.015,320.18"/>
				</g>
			</g>
			<g>
				<path fill="#FFFFFF" stroke="#939598" d="M75.365,320.18"/>
				<path fill="none" stroke="#939598" d="M68.253,319.49v-14.1c0-0.658,0.532-1.193,1.19-1.193h13.558
					c0.654,0,1.189,0.531,1.189,1.193v29.816c0,0.658-0.534,1.191-1.189,1.191H69.443c-0.657,0-1.19-0.533-1.19-1.191v-14.301"/>
			</g>
		</g>
		<g>
			<g>
				<rect x="122.332" y="375.629" fill="#FFFFFF" stroke="#939598" width="34.185" height="29.039"/>
				<path fill="#FFFFFF" stroke="#939598" d="M139.425,390.148"/>
			</g>
			<g>
				<g>
					<circle fill="#FFFFFF" stroke="#939598" cx="147.239" cy="382.062" r="4.152"/>
					<path fill="#FFFFFF" stroke="#939598" d="M147.239,382.062"/>
				</g>
				<g>
					<circle fill="#FFFFFF" stroke="#939598" stroke-width="0.8" cx="147.282" cy="382.064" r="2.924"/>
					<path fill="#FFFFFF" stroke="#939598" d="M147.282,382.062"/>
				</g>
			</g>
			<g>
				<g>
					<circle fill="#FFFFFF" stroke="#939598" cx="130.644" cy="394.192" r="4.151"/>
					<path fill="#FFFFFF" stroke="#939598" d="M130.644,394.191"/>
				</g>
				<g>
					<circle fill="#FFFFFF" stroke="#939598" stroke-width="0.8" cx="130.603" cy="394.193" r="2.924"/>
					<path fill="#FFFFFF" stroke="#939598" d="M130.603,394.191"/>
				</g>
			</g>
			<g>
				<g>
					<circle fill="#FFFFFF" stroke="#939598" cx="147.295" cy="394.152" r="4.732"/>
					<path fill="#FFFFFF" stroke="#939598" d="M147.295,394.152"/>
				</g>
				<g>
					<circle fill="#FFFFFF" stroke="#939598" stroke-width="0.8" cx="147.25" cy="394.151" r="3.335"/>
					<path fill="#FFFFFF" stroke="#939598" d="M147.25,394.152"/>
				</g>
			</g>
			<g>
				<g>
					<circle fill="#FFFFFF" stroke="#939598" cx="130.663" cy="381.742" r="4.732"/>
					<path fill="#FFFFFF" stroke="#939598" d="M130.663,381.742"/>
				</g>
				<g>
					<circle fill="#FFFFFF" stroke="#939598" stroke-width="0.8" cx="130.616" cy="381.743" r="3.335"/>
					<path fill="#FFFFFF" stroke="#939598" d="M130.616,381.742"/>
				</g>
			</g>
			<line fill="none" stroke="#939598" x1="156.563" y1="400.65" x2="122.332" y2="400.65"/>
			<line fill="none" stroke="#939598" x1="156.517" y1="402.256" x2="122.332" y2="402.256"/>
		</g>
		<g>
			<g>
				<rect x="62.532" y="229.174" fill="#FFFFFF" stroke="#939598" width="32.301" height="36.611"/>
				<path fill="#FFFFFF" stroke="#939598" d="M78.682,245.586"/>
			</g>
			<line fill="none" stroke="#939598" x1="92.575" y1="265.875" x2="92.575" y2="229.174"/>
			<rect x="94.855" y="232.23" fill="#FFFFFF" stroke="#939598" width="1.572" height="2.967"/>
			<path fill="#FFFFFF" stroke="#939598" d="M95.555,233.713"/>
		</g>
		<g>
			<polygon fill="none" stroke="#939598" points="247.71,389.836 245.254,389.855 245.232,354.836 247.753,354.814 			"/>
			<path fill="none" stroke="#939598" d="M246.676,354.789c-19.28,0.654-34.38,16.598-33.724,35.879"/>
		</g>
		<polyline fill="none" stroke="#939598" stroke-dasharray="1.5,1.5,1.5,1.5,1.5,1.5" points="76.583,357.018 76.583,393.529 
			181.956,393.529 		"/>
		
			<line fill="none" stroke="#939598" stroke-dasharray="1.5,1.5,1.5,1.5,1.5,1.5" x1="76.583" y1="252.475" x2="76.583" y2="348.688"/>
		
			<line fill="none" stroke="#939598" stroke-dasharray="1.5,1.5,1.5,1.5,1.5,1.5" x1="76.583" y1="227.873" x2="76.583" y2="242.088"/>
		<g>
			<polyline fill="none" stroke="#939598" stroke-dasharray="1.5,1,1.5,1,1.5,1" points="89.957,365.824 64.997,365.824 
				64.997,341.346 89.397,341.346 			"/>
			<polyline fill="#FFFFFF" stroke="#939598" points="89.397,341.309 90.879,341.309 90.879,365.824 89.966,365.824 			"/>
		</g>
		<g>
			<g>
				<g>
					<path fill="none" stroke="#939598" d="M358.15,390.955"/>
				</g>
				<g>
					<path fill="none" stroke="#939598" d="M358.15,392.518"/>
				</g>
				<g>
					<circle fill="none" stroke="#939598" cx="358.15" cy="390.954" r="1.495"/>
					<path fill="none" stroke="#939598" d="M358.15,390.955"/>
				</g>
				<g>
					<g>
						<rect x="351.878" y="400.328" fill="none" stroke="#939598" width="12.575" height="3.125"/>
						<path fill="none" stroke="#939598" d="M358.15,401.891"/>
					</g>
					<g>
						<rect x="357.483" y="394.264" fill="none" stroke="#939598" width="1.333" height="5.924"/>
						<path fill="none" stroke="#939598" d="M358.15,397.732"/>
					</g>
					<g>
						<circle fill="none" stroke="#939598" cx="358.15" cy="401.859" r="1.449"/>
						<path fill="none" stroke="#939598" d="M358.15,401.861"/>
					</g>
				</g>
			</g>
			<g>
				<rect x="345.612" y="383.531" fill="none" stroke="#939598" width="25.107" height="20.4"/>
				<rect x="347.659" y="385.58" fill="none" stroke="#939598" width="20.96" height="14.672"/>
			</g>
		</g>
		<g>
			<g>
				<g>
					<path fill="none" stroke="#939598" d="M40.805,328.855"/>
				</g>
				<g>
					<path fill="none" stroke="#939598" d="M42.368,328.855"/>
				</g>
				<g>
					<circle fill="none" stroke="#939598" cx="40.805" cy="328.856" r="1.495"/>
					<path fill="none" stroke="#939598" d="M40.805,328.855"/>
				</g>
				<g>
					<g>
						<rect x="50.178" y="322.553" fill="none" stroke="#939598" width="3.125" height="12.576"/>
						<path fill="none" stroke="#939598" d="M51.741,328.855"/>
					</g>
					<g>
						<rect x="44.113" y="328.189" fill="none" stroke="#939598" width="5.926" height="1.332"/>
						<path fill="none" stroke="#939598" d="M47.583,328.855"/>
					</g>
					<g>
						<circle fill="none" stroke="#939598" cx="51.71" cy="328.856" r="1.448"/>
						<path fill="none" stroke="#939598" d="M51.71,328.855"/>
					</g>
				</g>
			</g>
			<g>
				<rect x="33.379" y="316.287" fill="none" stroke="#939598" width="20.401" height="25.105"/>
				<rect x="35.431" y="318.387" fill="none" stroke="#939598" width="14.674" height="20.959"/>
			</g>
		</g>
		<g>
			<g>
				<g>
					<path fill="none" stroke="#939598" d="M40.807,370.004"/>
				</g>
				<g>
					<path fill="none" stroke="#939598" d="M42.368,370.004"/>
				</g>
				<g>
					<circle fill="none" stroke="#939598" cx="40.805" cy="370.004" r="1.496"/>
					<path fill="none" stroke="#939598" d="M40.807,370.004"/>
				</g>
				<g>
					<g>
						<rect x="50.18" y="363.699" fill="none" stroke="#939598" width="3.125" height="12.578"/>
						<path fill="none" stroke="#939598" d="M51.741,370.004"/>
					</g>
					<g>
						<rect x="44.115" y="369.338" fill="none" stroke="#939598" width="5.926" height="1.332"/>
						<path fill="none" stroke="#939598" d="M47.583,370.004"/>
					</g>
					<g>
						<circle fill="none" stroke="#939598" cx="51.71" cy="370.004" r="1.449"/>
						<path fill="none" stroke="#939598" d="M51.71,370.004"/>
					</g>
				</g>
			</g>
			<g>
				<rect x="33.379" y="357.438" fill="none" stroke="#939598" width="20.401" height="25.105"/>
				<rect x="35.429" y="359.535" fill="none" stroke="#939598" width="14.674" height="20.961"/>
			</g>
		</g>
	</g>
	<g id="walls">
		<path fill="none" stroke="#939598" stroke-width="3" d="M265.029,388.139"/>
		<line fill="none" stroke="#939598" stroke-width="3" x1="180.638" y1="390.59" x2="180.891" y2="374.076"/>
		<line fill="none" stroke="#939598" stroke-width="5" x1="123.157" y1="-47.441" x2="117.998" y2="-47.441"/>
		<line fill="none" stroke="#939598" stroke-width="5" x1="230.129" y1="-47.418" x2="223.553" y2="-47.418"/>
		<line fill="none" stroke="#939598" stroke-width="3" x1="263.559" y1="360.203" x2="263.559" y2="390.59"/>
		<polyline fill="none" stroke="#939598" stroke-width="3" points="308.771,303.83 263.559,303.83 263.559,327.381 		"/>
		<line fill="none" stroke="#939598" stroke-width="3" x1="411.501" y1="303.83" x2="343.234" y2="303.83"/>
		<polyline fill="none" stroke="#939598" stroke-width="5" points="213.814,389.609 182.206,389.609 182.028,409.436 
			-76.102,409.436 -76.102,-47.483 69.859,-47.451 		"/>
		<polyline fill="none" stroke="#939598" stroke-width="5" points="247.71,389.609 263.559,389.516 263.559,409.322 
			413.215,409.322 413.215,-47.377 284.878,-47.406 		"/>
		<line fill="none" stroke="#939598" stroke-width="4" x1="-74.981" y1="337.045" x2="-37.172" y2="337.045"/>
		<line fill="none" stroke="#939598" stroke-width="3" x1="298.111" y1="304.33" x2="298.111" y2="408.355"/>
		<line fill="none" stroke="#939598" stroke-width="3" x1="298.111" y1="378.973" x2="264.661" y2="378.973"/>
		<polyline fill="none" stroke="#939598" stroke-width="3" points="375.951,408.723 375.951,376.619 412.428,376.619 		"/>
		<polyline fill="none" stroke="#939598" stroke-width="3" points="276.582,245.705 263.559,245.705 263.559,-39.357 		"/>
		<line fill="none" stroke="#939598" stroke-width="3" x1="413.531" y1="245.705" x2="311.037" y2="245.705"/>
		<polyline fill="none" stroke="#939598" stroke-width="3" points="322.004,178.969 322.004,146.156 413.163,146.156 		"/>
		<line fill="none" stroke="#939598" stroke-width="3" x1="322.004" y1="244.414" x2="322.004" y2="211.729"/>
		<polyline fill="none" stroke="#939598" stroke-width="5" points="228.449,-47.438 228.449,-52.292 285.748,-52.419 
			285.748,-47.406 		"/>
		<polyline fill="none" stroke="#939598" stroke-width="3" points="284.264,-47.406 284.264,-39.734 229.902,-39.734 
			229.902,-47.564 		"/>
		<polyline fill="none" stroke="#939598" stroke-width="5" points="68.911,-47.075 68.911,-52.419 117.564,-52.419 117.564,-47.441 
					"/>
		<polyline fill="none" stroke="#939598" stroke-width="3" points="116.111,-47.504 116.111,-40.114 70.46,-40.114 70.46,-47.075 		
			"/>
		<polyline fill="none" stroke="#939598" stroke-width="3" points="395.887,-47.811 395.887,-39.744 412.061,-39.744 		"/>
		<polyline fill="none" stroke="#939598" stroke-width="3" points="-41.152,-47.348 -41.152,-40.017 -74.981,-40.017 		"/>
		<line fill="none" stroke="#939598" stroke-width="3" x1="266.499" y1="-38.254" x2="266.499" y2="245.518"/>
		<polyline fill="none" stroke="#939598" stroke-width="3" points="87.224,215.342 87.224,225.668 51.099,225.668 51.099,180.088 		
			"/>
		<line fill="none" stroke="#939598" stroke-width="3" x1="87.224" y1="169.049" x2="87.224" y2="189.455"/>
		<line fill="none" stroke="#939598" stroke-width="3" x1="87.224" y1="-38.989" x2="87.224" y2="135.823"/>
		<line fill="none" stroke="#939598" stroke-width="3" x1="15.739" y1="180.457" x2="86.754" y2="180.457"/>
		<line fill="none" stroke="#939598" stroke-width="3" x1="-74.088" y1="180.457" x2="-18.802" y2="180.457"/>
		<line fill="none" stroke="#939598" stroke-width="4" x1="58.682" y1="227.139" x2="58.682" y2="408.723"/>
		<line fill="none" stroke="#939598" stroke-width="3" x1="15.32" y1="291.465" x2="57.348" y2="291.465"/>
		<line fill="none" stroke="#939598" stroke-width="3" x1="-74.246" y1="291.465" x2="-18.811" y2="291.465"/>
		<line fill="none" stroke="#939598" stroke-width="3" x1="367.951" y1="290.621" x2="367.951" y2="303.227"/>
		<line fill="none" stroke="#939598" stroke-width="3" x1="367.951" y1="245.518" x2="367.951" y2="257.65"/>
	</g>
	<g id="windows">
		<g>
			<g>
				<rect x="-38.182" y="-50.322" fill="#FFFFFF" stroke="#939598" width="102.278" height="5.402"/>
				<line fill="none" stroke="#939598" x1="64.096" y1="-47.649" x2="-39.285" y2="-47.649"/>
				<line fill="none" stroke="#939598" stroke-width="2" x1="30.758" y1="-44.688" x2="30.758" y2="-49.826"/>
			</g>
			<line fill="none" stroke="#939598" stroke-width="2" x1="-3.63" y1="-44.504" x2="-3.63" y2="-49.801"/>
		</g>
		<g>
			<g>
				<rect x="290.432" y="-50.085" fill="#FFFFFF" stroke="#939598" width="102.279" height="5.401"/>
				<line fill="none" stroke="#939598" x1="392.711" y1="-47.413" x2="289.329" y2="-47.413"/>
				<line fill="none" stroke="#939598" stroke-width="2" x1="359.373" y1="-44.451" x2="359.373" y2="-49.59"/>
			</g>
			<line fill="none" stroke="#939598" stroke-width="2" x1="324.984" y1="-44.268" x2="324.984" y2="-49.563"/>
		</g>
	</g>
	<g id="Type">
		<g enable-background="new    ">
			<path fill="#939598" d="M144.978-69.015c-1.081,0-1.771-0.535-2.224-1.278l0.586-0.504c0.442,0.669,0.895,1.029,1.648,1.029
				c0.812,0,1.41-0.586,1.41-1.73v-4.829h0.825v4.819C147.224-69.85,146.266-69.015,144.978-69.015z"/>
			<path fill="#939598" d="M152.791-74.443h0.783v5.324h-0.783v-0.927c-0.36,0.577-0.907,1.04-1.823,1.04
				c-1.287,0-2.04-0.866-2.04-2.131v-3.306h0.792v3.109c0,0.99,0.536,1.607,1.472,1.607c0.908,0,1.597-0.669,1.597-1.669v-3.048
				H152.791z"/>
			<path fill="#939598" d="M155.424-69.119v-7.517h0.792v7.517H155.424z"/>
			<path fill="#939598" d="M158.079-75.606v-0.876h0.907v0.876H158.079z M158.132-69.119v-5.324h0.792v5.324H158.132z"/>
			<path fill="#939598" d="M163.113-69.685c0.731,0,1.247-0.299,1.679-0.753l0.494,0.443c-0.535,0.597-1.183,1-2.193,1
				c-1.463,0-2.657-1.124-2.657-2.78c0-1.546,1.081-2.782,2.554-2.782c1.575,0,2.482,1.256,2.482,2.821c0,0.073,0,0.155-0.01,0.247
				h-4.223C161.353-70.333,162.176-69.685,163.113-69.685z M164.668-72.074c-0.082-0.967-0.638-1.813-1.699-1.813
				c-0.927,0-1.626,0.772-1.731,1.813H164.668z"/>
			<path fill="#939598" d="M167.93-70.632c0,0.648,0.359,0.887,0.895,0.887c0.268,0,0.495-0.052,0.771-0.187v0.681
				c-0.276,0.145-0.576,0.227-0.957,0.227c-0.856,0-1.503-0.424-1.503-1.504v-3.213h-0.741v-0.702h0.741v-1.607h0.793v1.607h1.689
				v0.702h-1.689V-70.632L167.93-70.632z"/>
			<path fill="#939598" d="M179.653-74.525c0,0.949-0.574,1.433-1.142,1.679c0.854,0.257,1.543,0.751,1.543,1.75
				c0,1.247-1.039,1.978-2.613,1.978h-3.204v-7.208h3.069C178.729-76.327,179.653-75.628,179.653-74.525z M178.832-74.41
				c0-0.721-0.569-1.186-1.597-1.186h-2.194v2.482h2.131C178.151-73.115,178.832-73.556,178.832-74.41z M179.232-71.148
				c0-0.792-0.659-1.247-1.917-1.247h-2.274v2.543h2.42C178.553-69.85,179.232-70.333,179.232-71.148z"/>
			<path fill="#939598" d="M181.844-73.424l-0.238-0.648c0.589-0.268,1.166-0.443,1.938-0.443c1.451,0,2.264,0.742,2.264,2.142
				v3.254h-0.761v-0.803c-0.37,0.484-0.987,0.916-1.928,0.916c-0.988,0-1.987-0.556-1.987-1.668c0-1.134,0.927-1.731,2.277-1.731
				c0.679,0,1.162,0.093,1.635,0.227v-0.184c0-0.958-0.586-1.452-1.584-1.452C182.832-73.814,182.338-73.65,181.844-73.424z
				 M181.936-70.704c0,0.679,0.618,1.07,1.339,1.07c0.979,0,1.781-0.597,1.781-1.441v-0.515c-0.392-0.113-0.916-0.226-1.563-0.226
				C182.493-71.816,181.936-71.384,181.936-70.704z"/>
			<path fill="#939598" d="M187.566-69.119v-7.517h0.792v7.517H187.566z"/>
			<path fill="#939598" d="M192.6-68.995c-1.555,0-2.729-1.267-2.729-2.771c0-1.513,1.175-2.791,2.729-2.791
				c1.01,0,1.638,0.422,2.133,0.948l-0.525,0.556c-0.422-0.442-0.896-0.802-1.617-0.802c-1.082,0-1.905,0.916-1.905,2.068
				c0,1.164,0.843,2.08,1.957,2.08c0.68,0,1.203-0.338,1.624-0.792l0.507,0.474C194.235-69.427,193.598-68.995,192.6-68.995z"/>
			<path fill="#939598" d="M198.354-68.995c-1.597,0-2.76-1.255-2.76-2.771c0-1.514,1.175-2.791,2.78-2.791
				c1.597,0,2.771,1.256,2.771,2.77C201.145-70.271,199.96-68.995,198.354-68.995z M198.354-73.854
				c-1.153,0-1.945,0.916-1.945,2.068c0,1.154,0.844,2.08,1.966,2.08c1.154,0,1.958-0.916,1.958-2.058
				C200.332-72.93,199.477-73.854,198.354-73.854z"/>
			<path fill="#939598" d="M203.364-69.119h-0.792v-5.324h0.792v0.928c0.351-0.578,0.908-1.041,1.824-1.041
				c1.286,0,2.039,0.866,2.039,2.132v3.305h-0.793v-3.11c0-0.988-0.535-1.607-1.474-1.607c-0.916,0-1.597,0.668-1.597,1.668V-69.119
				z"/>
			<path fill="#939598" d="M211.354-68.944c-0.452,1.102-0.968,1.503-1.771,1.503c-0.443,0-0.771-0.093-1.133-0.267l0.268-0.63
				c0.258,0.134,0.495,0.195,0.836,0.195c0.474,0,0.772-0.247,1.091-0.998l-2.421-5.304h0.876l1.936,4.439l1.71-4.439h0.843
				L211.354-68.944z"/>
		</g>
		<g enable-background="new    ">
			<path fill="#939598" d="M391.212,280.994v-0.668l6.024-1.977l-6.001-2.059v-0.855l7.259,2.576v0.688l-5.85,1.98l5.85,1.986v0.68
				l-7.259,2.576v-0.889l6.001-2.059L391.212,280.994z"/>
			<path fill="#939598" d="M390.224,270.725l9.534,4.779v0.73l-9.534-4.777V270.725z"/>
			<path fill="#939598" d="M398.441,267.268v2.502h-7.206v-2.502c0-2.266,1.553-3.83,3.592-3.83
				C396.865,263.438,398.441,265.002,398.441,267.268z M391.984,267.268v1.688h5.703v-1.688c0-1.822-1.234-2.986-2.84-2.986
				C393.239,264.281,391.984,265.445,391.984,267.268z"/>
		</g>
		<g enable-background="new    ">
			<path fill="#939598" d="M338.591,351.885c0,1.215-0.741,1.84-1.471,2.158c1.101,0.33,1.987,0.965,1.987,2.25
				c0,1.6-1.338,2.541-3.362,2.541h-4.118v-9.266h3.947C337.398,349.568,338.591,350.467,338.591,351.885z M337.531,352.031
				c0-0.928-0.729-1.523-2.052-1.523h-2.82v3.189h2.739C336.658,353.697,337.531,353.129,337.531,352.031z M338.048,356.225
				c0-1.018-0.847-1.602-2.462-1.602h-2.926v3.27h3.11C337.175,357.893,338.048,357.271,338.048,356.225z"/>
			<path fill="#939598" d="M341.408,353.301l-0.305-0.832c0.755-0.344,1.496-0.572,2.486-0.572c1.867,0,2.911,0.955,2.911,2.754
				v4.184h-0.979v-1.033c-0.476,0.623-1.268,1.178-2.476,1.178c-1.269,0-2.553-0.711-2.553-2.143c0-1.455,1.19-2.225,2.924-2.225
				c0.874,0,1.497,0.119,2.104,0.291v-0.238c0-1.23-0.754-1.867-2.039-1.867C342.677,352.797,342.043,353.01,341.408,353.301z
				 M341.525,356.795c0,0.875,0.796,1.377,1.722,1.377c1.257,0,2.29-0.768,2.29-1.854v-0.66c-0.502-0.146-1.179-0.291-2.013-0.291
				C342.24,355.367,341.525,355.92,341.525,356.795z"/>
			<path fill="#939598" d="M349.982,356.889c0,0.834,0.463,1.139,1.152,1.139c0.344,0,0.636-0.066,0.993-0.238v0.873
				c-0.357,0.186-0.741,0.291-1.231,0.291c-1.098,0-1.934-0.543-1.934-1.934v-4.129h-0.95v-0.898h0.95v-2.064h1.02v2.064h2.172
				v0.898h-2.172V356.889L349.982,356.889z"/>
			<path fill="#939598" d="M354.971,358.834h-1.017v-9.662h1.017v4.012c0.452-0.742,1.166-1.338,2.344-1.338
				c1.654,0,2.622,1.113,2.622,2.74v4.25h-1.019v-3.998c0-1.27-0.69-2.064-1.893-2.064c-1.179,0-2.052,0.861-2.052,2.145v3.916
				H354.971z"/>
		</g>
		<g enable-background="new    ">
			<path fill="#939598" d="M-22.312,239.035c-2.081,0-3.614-1.637-3.614-3.719c0-2.059,1.525-3.736,3.645-3.736
				c1.309,0,2.091,0.461,2.812,1.141l-0.556,0.598c-0.607-0.576-1.287-0.988-2.266-0.988c-1.597,0-2.791,1.287-2.791,2.967
				s1.204,2.986,2.791,2.986c0.988,0,1.636-0.383,2.327-1.041l0.535,0.525C-20.179,238.531-21.003,239.035-22.312,239.035z"/>
			<path fill="#939598" d="M-18.073,238.912v-7.518h0.792v7.518H-18.073z"/>
			<path fill="#939598" d="M-13.007,239.035c-1.597,0-2.76-1.258-2.76-2.77c0-1.516,1.173-2.793,2.78-2.793
				c1.598,0,2.771,1.256,2.771,2.771C-10.217,237.758-11.402,239.035-13.007,239.035z M-13.007,234.174
				c-1.154,0-1.947,0.916-1.947,2.07s0.844,2.08,1.965,2.08c1.155,0,1.958-0.916,1.958-2.059
				C-11.031,235.1-11.886,234.174-13.007,234.174z"/>
			<path fill="#939598" d="M-7.029,239.016c-0.762,0-1.605-0.299-2.204-0.783l0.401-0.566c0.576,0.432,1.216,0.682,1.843,0.682
				c0.638,0,1.103-0.332,1.103-0.846v-0.021c0-0.535-0.627-0.742-1.329-0.938c-0.833-0.236-1.762-0.525-1.762-1.504v-0.02
				c0-0.918,0.763-1.523,1.813-1.523c0.648,0,1.37,0.225,1.916,0.584l-0.36,0.598c-0.494-0.32-1.061-0.516-1.576-0.516
				c-0.628,0-1.029,0.33-1.029,0.773v0.02c0,0.506,0.659,0.701,1.371,0.916c0.823,0.248,1.71,0.568,1.71,1.525v0.02
				C-5.134,238.428-5.967,239.016-7.029,239.016z"/>
			<path fill="#939598" d="M-1.317,238.344c0.731,0,1.247-0.299,1.679-0.752l0.494,0.441c-0.535,0.598-1.183,1.002-2.193,1.002
				c-1.463,0-2.657-1.125-2.657-2.781c0-1.545,1.08-2.781,2.554-2.781c1.575,0,2.481,1.256,2.481,2.82c0,0.074,0,0.156-0.01,0.248
				h-4.223C-3.077,237.697-2.253,238.344-1.317,238.344z M0.239,235.955c-0.082-0.969-0.639-1.812-1.7-1.812
				c-0.927,0-1.626,0.773-1.731,1.812H0.239z"/>
			<path fill="#939598" d="M3.5,237.398c0,0.646,0.36,0.885,0.896,0.885c0.268,0,0.494-0.051,0.771-0.186v0.68
				c-0.278,0.145-0.576,0.227-0.957,0.227c-0.854,0-1.502-0.422-1.502-1.502v-3.213H1.967v-0.701h0.741v-1.607H3.5v1.607h1.689
				v0.701H3.5V237.398z"/>
		</g>
		<g enable-background="new    ">
			<path fill="#939598" d="M221.853,384.748h-4.399v2.461h3.936v0.744h-3.936v2.523h4.451v0.74h-5.264v-7.209h5.212V384.748
				L221.853,384.748z"/>
			<path fill="#939598" d="M224.196,391.215h-0.793v-5.324h0.793v0.928c0.351-0.576,0.904-1.041,1.82-1.041
				c1.29,0,2.04,0.865,2.04,2.133v3.305h-0.794v-3.109c0-0.988-0.534-1.607-1.472-1.607c-0.916,0-1.595,0.67-1.595,1.668V391.215
				L224.196,391.215z"/>
			<path fill="#939598" d="M230.812,389.701c0,0.65,0.362,0.889,0.896,0.889c0.268,0,0.493-0.053,0.771-0.188v0.682
				c-0.277,0.143-0.576,0.225-0.955,0.225c-0.855,0-1.505-0.424-1.505-1.504v-3.213h-0.74v-0.701h0.74v-1.605h0.793v1.605h1.688
				v0.701h-1.688V389.701z"/>
			<path fill="#939598" d="M234.693,391.215h-0.792v-5.324h0.792v1.391c0.393-0.887,1.165-1.523,2.173-1.484v0.855h-0.061
				c-1.163,0-2.112,0.834-2.112,2.441V391.215L234.693,391.215z"/>
			<path fill="#939598" d="M240.662,391.391c-0.452,1.102-0.966,1.502-1.769,1.502c-0.445,0-0.772-0.092-1.135-0.268l0.271-0.629
				c0.257,0.135,0.494,0.195,0.833,0.195c0.474,0,0.772-0.246,1.091-1l-2.421-5.301h0.876l1.936,4.438l1.712-4.438h0.843
				L240.662,391.391z"/>
		</g>
		<g enable-background="new    ">
			<path fill="#939598" d="M359.48,194.926c-2.08,0-3.613-1.637-3.613-3.719c0-2.059,1.523-3.736,3.644-3.736
				c1.312,0,2.091,0.461,2.812,1.141l-0.554,0.598c-0.609-0.578-1.29-0.988-2.266-0.988c-1.597,0-2.79,1.287-2.79,2.967
				c0,1.678,1.204,2.986,2.79,2.986c0.987,0,1.637-0.383,2.325-1.043l0.536,0.527C361.613,194.422,360.789,194.926,359.48,194.926z"
				/>
			<path fill="#939598" d="M363.72,194.801v-7.516h0.792v7.516H363.72z"/>
			<path fill="#939598" d="M368.784,194.926c-1.597,0-2.76-1.258-2.76-2.77c0-1.516,1.174-2.793,2.779-2.793
				c1.597,0,2.771,1.256,2.771,2.771C371.575,193.648,370.391,194.926,368.784,194.926z M368.784,190.064
				c-1.153,0-1.946,0.916-1.946,2.07s0.845,2.08,1.966,2.08c1.154,0,1.959-0.916,1.959-2.059
				C370.763,190.99,369.906,190.064,368.784,190.064z"/>
			<path fill="#939598" d="M374.763,194.906c-0.761,0-1.605-0.299-2.202-0.783l0.401-0.566c0.577,0.432,1.215,0.682,1.844,0.682
				c0.638,0,1.102-0.332,1.102-0.846v-0.021c0-0.535-0.628-0.742-1.328-0.939c-0.834-0.234-1.761-0.523-1.761-1.502v-0.021
				c0-0.916,0.763-1.521,1.812-1.521c0.648,0,1.369,0.225,1.915,0.584l-0.361,0.596c-0.494-0.318-1.06-0.514-1.574-0.514
				c-0.629,0-1.029,0.33-1.029,0.773v0.02c0,0.506,0.659,0.701,1.371,0.916c0.824,0.248,1.709,0.568,1.709,1.525v0.02
				C376.658,194.318,375.825,194.906,374.763,194.906z"/>
			<path fill="#939598" d="M380.475,194.234c0.732,0,1.248-0.299,1.68-0.752l0.494,0.441c-0.534,0.598-1.184,1.002-2.194,1.002
				c-1.461,0-2.656-1.125-2.656-2.781c0-1.545,1.083-2.781,2.554-2.781c1.576,0,2.482,1.256,2.482,2.82c0,0.074,0,0.156-0.012,0.248
				h-4.222C378.714,193.588,379.538,194.234,380.475,194.234z M382.031,191.846c-0.083-0.969-0.638-1.812-1.7-1.812
				c-0.926,0-1.624,0.773-1.729,1.812H382.031z"/>
			<path fill="#939598" d="M385.293,193.289c0,0.646,0.359,0.885,0.895,0.885c0.269,0,0.496-0.051,0.771-0.186v0.68
				c-0.275,0.145-0.576,0.227-0.956,0.227c-0.854,0-1.502-0.422-1.502-1.502v-3.213h-0.744v-0.701h0.744v-1.607h0.792v1.607h1.688
				v0.701h-1.688V193.289z"/>
		</g>
		<g enable-background="new    ">
			<path fill="#939598" d="M276.008,356.379c0,2.08-1.637,3.613-3.718,3.613c-2.059,0-3.737-1.521-3.737-3.645
				c0-1.309,0.462-2.09,1.143-2.811l0.596,0.555c-0.578,0.607-0.989,1.289-0.989,2.266c0,1.596,1.288,2.791,2.967,2.791
				c1.68,0,2.986-1.205,2.986-2.791c0-0.988-0.382-1.637-1.041-2.326l0.525-0.535C275.502,354.246,276.008,355.07,276.008,356.379z"
				/>
			<path fill="#939598" d="M275.884,352.141h-7.517v-0.793h7.517V352.141z"/>
			<path fill="#939598" d="M276.008,347.076c0,1.596-1.257,2.76-2.771,2.76c-1.514,0-2.791-1.176-2.791-2.781
				c0-1.596,1.256-2.77,2.771-2.77C274.729,344.285,276.008,345.469,276.008,347.076z M271.146,347.076
				c0,1.152,0.916,1.945,2.069,1.945s2.08-0.844,2.08-1.967c0-1.154-0.916-1.957-2.059-1.957
				C272.072,345.098,271.146,345.953,271.146,347.076z"/>
			<path fill="#939598" d="M275.986,341.098c0,0.76-0.298,1.604-0.783,2.201l-0.566-0.402c0.432-0.576,0.68-1.215,0.68-1.844
				c0-0.637-0.33-1.1-0.846-1.1h-0.02c-0.534,0-0.741,0.627-0.938,1.328c-0.235,0.834-0.524,1.76-1.504,1.76h-0.02
				c-0.916,0-1.523-0.762-1.523-1.812c0-0.648,0.226-1.369,0.584-1.916l0.598,0.363c-0.319,0.494-0.515,1.059-0.515,1.572
				c0,0.629,0.331,1.031,0.772,1.031h0.021c0.504,0,0.701-0.66,0.916-1.373c0.247-0.824,0.567-1.707,1.525-1.707h0.02
				C275.398,339.201,275.986,340.035,275.986,341.098z"/>
			<path fill="#939598" d="M275.316,335.385c0-0.732-0.297-1.248-0.752-1.68l0.442-0.494c0.598,0.535,1.001,1.184,1.001,2.193
				c0,1.463-1.125,2.656-2.781,2.656c-1.545,0-2.781-1.082-2.781-2.553c0-1.574,1.255-2.482,2.819-2.482
				c0.075,0,0.155,0,0.249,0.012v4.221C274.666,337.145,275.316,336.32,275.316,335.385z M272.928,333.828
				c-0.967,0.084-1.813,0.639-1.813,1.701c0,0.926,0.772,1.625,1.813,1.729V333.828z"/>
			<path fill="#939598" d="M274.368,330.568c0.648,0,0.887-0.361,0.887-0.896c0-0.27-0.052-0.496-0.187-0.771h0.681
				c0.144,0.275,0.227,0.576,0.227,0.957c0,0.854-0.423,1.502-1.505,1.502h-3.212v0.742h-0.702v-0.742h-1.604v-0.791h1.604v-1.691
				h0.702v1.691H274.368z"/>
		</g>
		<g enable-background="new    ">
			<path fill="#939598" d="M80.455,214.736c0,2.082-1.636,3.615-3.716,3.615c-2.059,0-3.738-1.521-3.738-3.645
				c0-1.311,0.461-2.09,1.142-2.811l0.597,0.555c-0.577,0.607-0.989,1.287-0.989,2.264c0,1.598,1.288,2.793,2.967,2.793
				s2.986-1.207,2.986-2.793c0-0.986-0.382-1.637-1.041-2.326l0.525-0.535C79.95,212.605,80.455,213.43,80.455,214.736z"/>
			<path fill="#939598" d="M80.331,210.498h-7.516v-0.793h7.516V210.498z"/>
			<path fill="#939598" d="M80.455,205.434c0,1.598-1.255,2.76-2.771,2.76c-1.514,0-2.791-1.174-2.791-2.779
				c0-1.596,1.256-2.771,2.771-2.771C79.177,202.643,80.455,203.828,80.455,205.434z M75.594,205.434
				c0,1.154,0.916,1.945,2.069,1.945c1.154,0,2.081-0.842,2.081-1.965c0-1.154-0.916-1.959-2.059-1.959
				C76.52,203.455,75.594,204.311,75.594,205.434z"/>
			<path fill="#939598" d="M80.434,199.455c0,0.762-0.298,1.605-0.782,2.203l-0.568-0.402c0.432-0.578,0.68-1.215,0.68-1.844
				c0-0.637-0.33-1.102-0.845-1.102h-0.021c-0.535,0-0.741,0.627-0.938,1.328c-0.235,0.836-0.524,1.762-1.503,1.762h-0.02
				c-0.916,0-1.523-0.764-1.523-1.812c0-0.65,0.225-1.371,0.585-1.916l0.598,0.361c-0.32,0.494-0.515,1.061-0.515,1.574
				c0,0.629,0.33,1.029,0.772,1.029h0.021c0.504,0,0.701-0.658,0.916-1.371c0.247-0.824,0.567-1.707,1.524-1.707h0.021
				C79.846,197.561,80.434,198.393,80.434,199.455z"/>
			<path fill="#939598" d="M79.765,193.744c0-0.732-0.298-1.248-0.752-1.68l0.442-0.494c0.597,0.533,1,1.182,1,2.193
				c0,1.461-1.124,2.656-2.78,2.656c-1.545,0-2.782-1.082-2.782-2.553c0-1.576,1.256-2.482,2.822-2.482c0.074,0,0.155,0,0.248,0.012
				v4.221C79.115,195.504,79.765,194.68,79.765,193.744z M77.375,192.188c-0.967,0.082-1.812,0.637-1.812,1.699
				c0,0.926,0.771,1.625,1.812,1.729V192.188z"/>
			<path fill="#939598" d="M78.816,188.926c0.649,0,0.887-0.359,0.887-0.896c0-0.268-0.051-0.494-0.187-0.77h0.681
				c0.144,0.275,0.226,0.574,0.226,0.955c0,0.855-0.423,1.504-1.504,1.504h-3.213v0.742h-0.701v-0.742h-1.607v-0.793h1.607v-1.689
				h0.701v1.689H78.816L78.816,188.926z"/>
		</g>
		<g enable-background="new    ">
			<path fill="#939598" d="M-15.757,344.047c0,1.217-0.741,1.84-1.469,2.156c1.098,0.332,1.985,0.967,1.985,2.25
				c0,1.602-1.337,2.543-3.363,2.543h-4.117v-9.266h3.944C-16.949,341.73-15.757,342.631-15.757,344.047z M-16.817,344.193
				c0-0.928-0.727-1.523-2.051-1.523h-2.82v3.191h2.741C-17.689,345.861-16.817,345.291-16.817,344.193z M-16.3,348.389
				c0-1.02-0.846-1.604-2.462-1.604h-2.926v3.27h3.112C-17.173,350.055-16.3,349.434-16.3,348.389z"/>
			<path fill="#939598" d="M-12.94,345.463l-0.304-0.834c0.754-0.344,1.496-0.57,2.488-0.57c1.867,0,2.911,0.953,2.911,2.754v4.184
				h-0.979v-1.031c-0.476,0.619-1.27,1.178-2.475,1.178c-1.271,0-2.555-0.715-2.555-2.146c0-1.453,1.191-2.223,2.925-2.223
				c0.873,0,1.496,0.119,2.105,0.291v-0.238c0-1.23-0.754-1.867-2.039-1.867C-11.67,344.959-12.304,345.172-12.94,345.463z
				 M-12.82,348.957c0,0.875,0.794,1.379,1.72,1.379c1.257,0,2.29-0.77,2.29-1.855v-0.66c-0.503-0.146-1.178-0.291-2.012-0.291
				C-12.107,347.527-12.82,348.084-12.82,348.957z"/>
			<path fill="#939598" d="M-4.363,349.049c0,0.834,0.463,1.139,1.151,1.139c0.344,0,0.635-0.066,0.992-0.238v0.873
				c-0.357,0.186-0.741,0.291-1.23,0.291c-1.099,0-1.932-0.543-1.932-1.934v-4.129h-0.953v-0.898h0.953v-2.064h1.019v2.064h2.172
				v0.898h-2.172V349.049z"/>
			<path fill="#939598" d="M0.624,350.996h-1.019v-9.664h1.019v4.014c0.45-0.742,1.165-1.338,2.343-1.338
				c1.654,0,2.621,1.111,2.621,2.74v4.25H4.569V347c0-1.271-0.689-2.064-1.894-2.064c-1.178,0-2.053,0.859-2.053,2.143v3.918H0.624z
				"/>
		</g>
		<g enable-background="new    ">
			<path fill="#939598" d="M146.879,298.332l-5.096,5.096l-0.577-0.576l5.097-5.094L146.879,298.332z"/>
			<path fill="#939598" d="M144.352,306.145c-0.538-0.539-0.924-1.348-1.004-2.113l0.684-0.115c0.104,0.713,0.378,1.338,0.824,1.783
				c0.451,0.451,1.011,0.547,1.377,0.182l0.015-0.014c0.377-0.379,0.079-0.969-0.276-1.604c-0.424-0.756-0.875-1.617-0.182-2.309
				l0.014-0.014c0.647-0.646,1.616-0.537,2.358,0.207c0.458,0.459,0.809,1.127,0.94,1.766l-0.676,0.17
				c-0.124-0.578-0.387-1.115-0.752-1.48c-0.444-0.445-0.96-0.494-1.274-0.18l-0.015,0.014c-0.355,0.355-0.029,0.963,0.321,1.617
				c0.407,0.756,0.808,1.607,0.13,2.285l-0.013,0.016C146.105,307.07,145.101,306.895,144.352,306.145z"/>
			<path fill="#939598" d="M146.854,308.5l5.315-5.314l0.56,0.562l-5.315,5.312L146.854,308.5z"/>
			<path fill="#939598" d="M151.98,307.537l0.291-0.625c0.604,0.227,1.135,0.512,1.682,1.057c1.027,1.025,1.078,2.125,0.087,3.115
				l-2.3,2.301l-0.54-0.539l0.568-0.566c-0.604,0.08-1.347-0.053-2.009-0.715c-0.699-0.699-1.013-1.799-0.226-2.586
				c0.801-0.801,1.879-0.568,2.833,0.389c0.48,0.48,0.757,0.887,0.997,1.318l0.13-0.133c0.679-0.678,0.612-1.441-0.094-2.148
				C152.955,307.961,152.49,307.727,151.98,307.537z M150.121,309.527c-0.48,0.48-0.319,1.193,0.189,1.703
				c0.691,0.693,1.682,0.836,2.279,0.238l0.365-0.363c-0.197-0.354-0.488-0.809-0.947-1.264
				C151.302,309.133,150.604,309.045,150.121,309.527z"/>
			<path fill="#939598" d="M153.491,315.139l-0.56-0.562l3.765-3.764l0.56,0.559l-0.655,0.656c0.655-0.158,1.376-0.094,2.024,0.553
				c0.911,0.91,0.829,2.055-0.066,2.949l-2.337,2.338l-0.56-0.561l2.2-2.199c0.699-0.699,0.758-1.514,0.094-2.176
				c-0.647-0.646-1.601-0.656-2.307,0.051L153.491,315.139z"/>
			<path fill="#939598" d="M160.436,322.084l0.757-0.76c-0.759,0.146-1.588,0.09-2.279-0.604c-0.902-0.904-1.085-2.512,0.161-3.758
				c1.238-1.238,2.862-1.07,3.765-0.166c0.7,0.697,0.772,1.527,0.641,2.24l2.271-2.27l0.56,0.561l-5.315,5.314L160.436,322.084z
				 M162.438,317.398c-0.728-0.727-1.865-0.785-2.781,0.133c-0.896,0.896-0.853,2.074-0.139,2.789
				c0.7,0.699,1.944,0.777,2.824-0.104C163.217,319.344,163.136,318.1,162.438,317.398z"/>
		</g>
		<g enable-background="new    ">
			<path fill="#939598" d="M117.499,356.262h-1.31l-3.562-4.488l-1.971,1.998v2.488h-1.045v-9.266h1.045v5.531l5.321-5.531h1.35
				l-3.972,4.051L117.499,356.262z"/>
			<path fill="#939598" d="M118.979,347.922v-1.125h1.165v1.125H118.979z M119.045,356.262v-6.844h1.019v6.844H119.045z"/>
			<path fill="#939598" d="M123.808,354.314c0,0.836,0.463,1.139,1.152,1.139c0.344,0,0.635-0.064,0.992-0.238v0.875
				c-0.357,0.184-0.741,0.291-1.23,0.291c-1.099,0-1.932-0.543-1.932-1.934v-4.129h-0.953v-0.9h0.953v-2.064h1.019v2.064h2.172v0.9
				h-2.172V354.314z"/>
			<path fill="#939598" d="M130.666,356.42c-1.998,0-3.508-1.629-3.508-3.561c0-1.945,1.508-3.588,3.508-3.588
				c1.296,0,2.104,0.543,2.739,1.219l-0.675,0.713c-0.542-0.57-1.151-1.031-2.079-1.031c-1.39,0-2.449,1.178-2.449,2.662
				c0,1.496,1.084,2.674,2.514,2.674c0.873,0,1.548-0.439,2.09-1.02l0.648,0.607C132.77,355.863,131.95,356.42,130.666,356.42z"/>
			<path fill="#939598" d="M136.156,356.262h-1.019V346.6h1.019v4.012c0.45-0.742,1.165-1.338,2.344-1.338
				c1.654,0,2.62,1.113,2.62,2.74v4.248h-1.019v-3.996c0-1.27-0.688-2.066-1.894-2.066c-1.177,0-2.053,0.863-2.053,2.146v3.916
				H136.156z"/>
			<path fill="#939598" d="M146.306,355.533c0.939,0,1.601-0.383,2.158-0.965l0.636,0.568c-0.688,0.766-1.523,1.285-2.82,1.285
				c-1.879,0-3.415-1.443-3.415-3.574c0-1.986,1.39-3.576,3.283-3.576c2.024,0,3.19,1.615,3.19,3.629c0,0.092,0,0.197-0.014,0.318
				h-5.427C144.043,354.699,145.101,355.533,146.306,355.533z M148.305,352.461c-0.105-1.242-0.82-2.328-2.183-2.328
				c-1.191,0-2.091,0.992-2.223,2.328H148.305z"/>
			<path fill="#939598" d="M152.141,356.262h-1.019v-6.844h1.019v1.193c0.45-0.742,1.165-1.338,2.344-1.338
				c1.654,0,2.62,1.113,2.62,2.74v4.248h-1.019v-3.996c0-1.27-0.688-2.066-1.894-2.066c-1.177,0-2.053,0.863-2.053,2.146v3.916
				H152.141z"/>
		</g>
		<g enable-background="new    ">
			<path fill="#939598" d="M72.413,357.273h-2.502v-7.209h2.502c2.266,0,3.83,1.557,3.83,3.594
				C76.243,355.697,74.678,357.273,72.413,357.273z M72.413,350.818h-1.689v5.703h1.689c1.822,0,2.987-1.236,2.987-2.842
				C75.4,352.072,74.235,350.818,72.413,350.818z"/>
			<path fill="#939598" d="M81.956,350.043h0.669l1.977,6.025l2.061-6.004h0.854l-2.575,7.26h-0.689l-1.978-5.85l-1.988,5.85h-0.679
				l-2.574-7.26h0.887l2.06,6.004L81.956,350.043z"/>
		</g>
		<g enable-background="new    ">
			<path fill="#939598" d="M73.368,250.307l-2.091-2.801h-2.06v2.801h-0.812V243.1h3.1c1.584,0,2.604,0.854,2.604,2.154
				c0,1.203-0.823,1.904-1.957,2.109l2.214,2.945h-0.997V250.307z M71.442,243.852h-2.225v2.924h2.214
				c1.081,0,1.854-0.557,1.854-1.494C73.286,244.387,72.606,243.852,71.442,243.852z"/>
			<path fill="#939598" d="M77.957,249.742c0.73,0,1.247-0.299,1.679-0.754l0.494,0.443c-0.535,0.596-1.183,1-2.193,1
				c-1.463,0-2.657-1.123-2.657-2.781c0-1.545,1.081-2.781,2.554-2.781c1.575,0,2.482,1.254,2.482,2.82c0,0.074,0,0.154-0.01,0.248
				h-4.223C76.195,249.094,77.02,249.742,77.957,249.742z M79.511,247.354c-0.083-0.969-0.638-1.814-1.699-1.814
				c-0.927,0-1.626,0.771-1.731,1.814H79.511z"/>
			<path fill="#939598" d="M84.472,245.004v0.68h-1.679v4.625H82v-4.625h-0.732v-0.689H82v-0.461c0-1.166,0.587-1.783,1.606-1.783
				c0.37,0,0.617,0.041,0.874,0.135v0.689c-0.288-0.084-0.504-0.137-0.771-0.137c-0.618,0-0.926,0.375-0.926,1.135v0.434h1.689
				V245.004z"/>
		</g>
		<g enable-background="new    ">
			<path fill="#939598" d="M-9.642,61.284c0,1.217-0.742,1.841-1.469,2.158c1.098,0.331,1.984,0.966,1.984,2.25
				c0,1.601-1.336,2.542-3.362,2.542h-4.117v-9.266h3.945C-10.833,58.966-9.642,59.867-9.642,61.284z M-10.701,61.429
				c0-0.928-0.728-1.523-2.051-1.523h-2.82v3.19h2.741C-11.574,63.096-10.701,62.527-10.701,61.429z M-10.183,65.625
				c0-1.019-0.847-1.603-2.462-1.603h-2.926v3.27h3.112C-11.058,67.292-10.183,66.671-10.183,65.625z"/>
			<path fill="#939598" d="M-4.205,67.504c0.939,0,1.601-0.384,2.159-0.966l0.635,0.569c-0.688,0.768-1.523,1.285-2.82,1.285
				c-1.878,0-3.414-1.442-3.414-3.575c0-1.986,1.389-3.576,3.282-3.576c2.024,0,3.19,1.616,3.19,3.627c0,0.093,0,0.2-0.013,0.319
				h-5.427C-6.468,66.671-5.407,67.504-4.205,67.504z M-2.205,64.433c-0.106-1.244-0.82-2.33-2.184-2.33
				c-1.191,0-2.09,0.993-2.223,2.33H-2.205z"/>
			<path fill="#939598" d="M6.105,68.232v-1.377c-0.556,0.821-1.363,1.521-2.621,1.521c-1.642,0-3.27-1.296-3.27-3.56
				c0-2.25,1.628-3.576,3.27-3.576c1.271,0,2.091,0.69,2.621,1.457v-4.131h1.019v9.663H6.105V68.232z M3.669,62.157
				c-1.323,0-2.41,0.979-2.41,2.647c0,1.627,1.111,2.661,2.41,2.661c1.271,0,2.476-1.058,2.476-2.661
				C6.145,63.216,4.941,62.157,3.669,62.157z"/>
			<path fill="#939598" d="M10.418,68.232h-1.02v-6.843h1.02v1.786c0.502-1.136,1.496-1.958,2.793-1.905v1.099h-0.08
				c-1.496,0-2.714,1.072-2.714,3.137V68.232z"/>
			<path fill="#939598" d="M17.592,68.393c-2.053,0-3.548-1.616-3.548-3.562c0-1.945,1.508-3.587,3.575-3.587
				c2.053,0,3.56,1.616,3.56,3.562C21.178,66.75,19.656,68.393,17.592,68.393z M17.592,62.144c-1.483,0-2.503,1.179-2.503,2.662
				c0,1.483,1.085,2.674,2.529,2.674c1.482,0,2.514-1.18,2.514-2.648C20.132,63.335,19.034,62.144,17.592,62.144z"/>
			<path fill="#939598" d="M26.14,68.393c-2.053,0-3.548-1.616-3.548-3.562c0-1.945,1.508-3.587,3.575-3.587
				c2.053,0,3.56,1.616,3.56,3.562C29.726,66.75,28.204,68.393,26.14,68.393z M26.14,62.144c-1.483,0-2.503,1.179-2.503,2.662
				c0,1.483,1.085,2.674,2.529,2.674c1.482,0,2.514-1.18,2.514-2.648C28.681,63.335,27.582,62.144,26.14,62.144z"/>
			<path fill="#939598" d="M39.401,61.242c1.574,0,2.542,1.06,2.542,2.754v4.236h-1.02v-3.998c0-1.323-0.661-2.064-1.774-2.064
				c-1.032,0-1.892,0.766-1.892,2.117v3.945H36.25v-4.023c0-1.285-0.675-2.039-1.761-2.039c-1.084,0-1.905,0.899-1.905,2.157v3.905
				h-1.019v-6.843h1.019v1.151c0.45-0.675,1.059-1.298,2.21-1.298c1.112,0,1.828,0.596,2.198,1.365
				C37.48,61.852,38.208,61.242,39.401,61.242z"/>
		</g>
		<g enable-background="new    ">
			<path fill="#939598" d="M-25.032,75.075h0.768v9.332h-1.032v-8.246l-1.747,0.543l-0.252-0.847L-25.032,75.075z"/>
			<path fill="#939598" d="M-21.353,77.535l-0.768-0.556c0.833-1.244,1.707-1.972,3.336-1.972c1.681,0,2.873,1.112,2.873,2.634
				c0,1.364-0.714,2.197-2.344,3.614l-2.474,2.196h4.911v0.954h-6.472v-0.808l3.362-2.965c1.417-1.271,1.933-1.986,1.933-2.912
				c0-1.084-0.861-1.774-1.867-1.774C-19.924,75.947-20.611,76.503-21.353,77.535z"/>
			<path fill="#939598" d="M-13.744,75.14h1.243v0.066l-1.072,3.533h-0.568L-13.744,75.14z"/>
			<path fill="#939598" d="M-7.033,84.566c-2.395,0-3.906-2.171-3.906-4.778s1.535-4.807,3.932-4.807
				c2.383,0,3.892,2.172,3.892,4.779C-3.115,82.366-4.651,84.566-7.033,84.566z M-7.033,75.935c-1.734,0-2.819,1.773-2.819,3.826
				c0,2.052,1.111,3.852,2.847,3.852c1.734,0,2.807-1.788,2.807-3.826C-4.202,77.748-5.3,75.935-7.033,75.935z"/>
			<path fill="#939598" d="M-1.041,75.14H0.19v0.066l-1.072,3.533h-0.557L-1.041,75.14z M1.553,75.14h1.219v0.066L1.7,78.739H1.145
				L1.553,75.14z"/>
			<path fill="#939598" d="M14.576,84.406h-1.178l-2.117-2.792L9.15,84.406H8.012l2.688-3.482l-2.581-3.361h1.166l2.024,2.648
				l2.024-2.648h1.137l-2.596,3.336L14.576,84.406z"/>
			<path fill="#939598" d="M21.694,75.075h0.768v9.332h-1.033v-8.246l-1.747,0.543l-0.251-0.847L21.694,75.075z"/>
			<path fill="#939598" d="M24.696,75.14h6.287v0.78l-4.21,8.486h-1.164l4.183-8.312h-5.096V75.14z"/>
			<path fill="#939598" d="M32.941,75.14h1.244v0.066l-1.072,3.533h-0.569L32.941,75.14z"/>
			<path fill="#939598" d="M39.095,84.538c-1.972,0-3.482-1.072-3.482-2.633c0-1.113,0.794-1.894,1.906-2.291
				c-0.86-0.398-1.59-1.061-1.59-2.145c0-1.441,1.471-2.461,3.165-2.461c1.693,0,3.165,1.021,3.165,2.461
				c0,1.084-0.728,1.747-1.588,2.145c1.098,0.41,1.905,1.165,1.905,2.276C42.576,83.479,41.066,84.538,39.095,84.538z
				 M39.095,80.104c-1.35,0-2.421,0.728-2.421,1.773c0,0.953,0.899,1.747,2.421,1.747c1.521,0,2.422-0.794,2.422-1.747
				C41.518,80.833,40.445,80.104,39.095,80.104z M39.095,75.922c-1.205,0-2.117,0.675-2.117,1.614c0,1.019,0.939,1.708,2.117,1.708
				s2.117-0.69,2.117-1.708C41.213,76.608,40.299,75.922,39.095,75.922z"/>
			<path fill="#939598" d="M44.521,75.14h1.23v0.066l-1.072,3.533h-0.556L44.521,75.14z M47.113,75.14h1.219v0.066l-1.072,3.533
				h-0.556L47.113,75.14z"/>
		</g>
		<g enable-background="new    ">
			<path fill="#939598" d="M114.544,114.836h1.045v8.301h5.215v0.966h-6.261V114.836z"/>
			<path fill="#939598" d="M122.589,115.763v-1.125h1.165v1.125H122.589z M122.656,124.103v-6.843h1.019v6.843H122.656z"/>
			<path fill="#939598" d="M131.113,117.26h1.098l-2.978,6.896h-0.899l-2.966-6.896h1.126l2.303,5.679L131.113,117.26z"/>
			<path fill="#939598" d="M133.836,115.763v-1.125h1.165v1.125H133.836z M133.904,124.103v-6.843h1.019v6.843H133.904z"/>
			<path fill="#939598" d="M138.309,124.103h-1.02v-6.843h1.02v1.192c0.449-0.743,1.165-1.339,2.343-1.339
				c1.654,0,2.621,1.113,2.621,2.741v4.249h-1.02v-3.998c0-1.27-0.688-2.063-1.893-2.063c-1.178,0-2.053,0.86-2.053,2.144v3.917
				H138.309z"/>
			<path fill="#939598" d="M148.473,126.247c-1.138,0-2.198-0.317-3.111-0.952l0.463-0.794c0.781,0.569,1.654,0.874,2.635,0.874
				c1.508,0,2.489-0.833,2.489-2.435v-0.809c-0.595,0.795-1.43,1.441-2.687,1.441c-1.641,0-3.217-1.217-3.217-3.217
				c0-2.011,1.587-3.243,3.217-3.243c1.283,0,2.117,0.637,2.673,1.378v-1.23h1.019v5.651
				C151.953,125.124,150.577,126.247,148.473,126.247z M148.458,118.014c-1.297,0-2.369,0.889-2.369,2.317
				c0,1.402,1.099,2.342,2.369,2.342c1.296,0,2.516-0.926,2.516-2.329C150.974,118.927,149.756,118.014,148.458,118.014z"/>
			<path fill="#939598" d="M159.893,113.541l-6.141,12.258h-0.939l6.142-12.258H159.893z"/>
			<path fill="#939598" d="M164.339,124.103h-3.217v-9.267h3.217c2.911,0,4.924,1.998,4.924,4.62
				C169.262,122.078,167.25,124.103,164.339,124.103z M164.339,115.804h-2.171v7.333h2.171c2.343,0,3.839-1.589,3.839-3.652
				C168.178,117.419,166.682,115.804,164.339,115.804z"/>
			<path fill="#939598" d="M171.325,115.763v-1.125h1.164v1.125H171.325z M171.391,124.103v-6.843h1.02v6.843H171.391z"/>
			<path fill="#939598" d="M175.796,124.103h-1.018v-6.843h1.018v1.192c0.451-0.743,1.166-1.339,2.344-1.339
				c1.654,0,2.622,1.113,2.622,2.741v4.249h-1.02v-3.998c0-1.27-0.689-2.063-1.893-2.063c-1.179,0-2.052,0.86-2.052,2.144v3.917
				H175.796z"/>
			<path fill="#939598" d="M182.955,115.763v-1.125h1.166v1.125H182.955z M183.021,124.103v-6.843h1.02v6.843H183.021z"/>
			<path fill="#939598" d="M187.43,124.103h-1.02v-6.843h1.02v1.192c0.449-0.743,1.163-1.339,2.343-1.339
				c1.654,0,2.619,1.113,2.619,2.741v4.249h-1.018v-3.998c0-1.27-0.688-2.063-1.894-2.063c-1.178,0-2.051,0.86-2.051,2.144V124.103z
				"/>
			<path fill="#939598" d="M197.593,126.247c-1.139,0-2.197-0.317-3.11-0.952l0.463-0.794c0.779,0.569,1.653,0.874,2.632,0.874
				c1.51,0,2.489-0.833,2.489-2.435v-0.809c-0.596,0.795-1.432,1.441-2.688,1.441c-1.64,0-3.218-1.217-3.218-3.217
				c0-2.011,1.588-3.243,3.218-3.243c1.283,0,2.117,0.637,2.672,1.378v-1.23h1.02v5.651
				C201.073,125.124,199.697,126.247,197.593,126.247z M197.578,118.014c-1.297,0-2.369,0.889-2.369,2.317
				c0,1.402,1.1,2.342,2.369,2.342c1.298,0,2.516-0.926,2.516-2.329C200.094,118.927,198.876,118.014,197.578,118.014z"/>
			<path fill="#939598" d="M213.869,124.103l-2.688-3.601h-2.646v3.601h-1.047v-9.267h3.986c2.039,0,3.349,1.099,3.349,2.768
				c0,1.548-1.06,2.448-2.516,2.713l2.846,3.786H213.869z M211.394,115.804h-2.858v3.76h2.848c1.39,0,2.381-0.715,2.381-1.92
				C213.764,116.493,212.891,115.804,211.394,115.804z"/>
			<path fill="#939598" d="M219.877,124.263c-2.052,0-3.547-1.616-3.547-3.562s1.508-3.588,3.573-3.588
				c2.053,0,3.562,1.616,3.562,3.562C223.464,122.621,221.941,124.263,219.877,124.263z M219.877,118.014
				c-1.483,0-2.501,1.179-2.501,2.661c0,1.483,1.084,2.675,2.527,2.675c1.482,0,2.517-1.18,2.517-2.648
				C222.419,119.206,221.318,118.014,219.877,118.014z"/>
			<path fill="#939598" d="M228.425,124.263c-2.052,0-3.548-1.616-3.548-3.562s1.508-3.588,3.575-3.588
				c2.05,0,3.561,1.616,3.561,3.562S230.491,124.263,228.425,124.263z M228.425,118.014c-1.483,0-2.503,1.179-2.503,2.661
				c0,1.483,1.086,2.675,2.53,2.675c1.481,0,2.516-1.18,2.516-2.648C230.968,119.206,229.868,118.014,228.425,118.014z"/>
			<path fill="#939598" d="M241.685,117.113c1.577,0,2.542,1.061,2.542,2.754v4.236h-1.019v-3.998c0-1.323-0.659-2.064-1.773-2.064
				c-1.03,0-1.892,0.767-1.892,2.117v3.945h-1.007v-4.023c0-1.285-0.675-2.039-1.761-2.039c-1.084,0-1.906,0.9-1.906,2.157v3.905
				h-1.019v-6.843h1.019v1.151c0.452-0.675,1.061-1.299,2.211-1.299c1.111,0,1.826,0.596,2.197,1.364
				C239.767,117.723,240.493,117.113,241.685,117.113z"/>
		</g>
		<g enable-background="new    ">
			<path fill="#939598" d="M141.407,130.946h0.768v9.332h-1.032v-8.246l-1.747,0.543l-0.251-0.848L141.407,130.946z"/>
			<path fill="#939598" d="M145.085,133.405l-0.768-0.556c0.833-1.244,1.708-1.971,3.336-1.971c1.681,0,2.873,1.111,2.873,2.633
				c0,1.364-0.714,2.198-2.343,3.614l-2.475,2.196h4.912v0.952h-6.473v-0.807l3.363-2.966c1.416-1.27,1.932-1.986,1.932-2.911
				c0-1.085-0.86-1.774-1.867-1.774C146.515,131.817,145.826,132.374,145.085,133.405z"/>
			<path fill="#939598" d="M152.694,131.01h1.244v0.066l-1.072,3.532h-0.569L152.694,131.01z"/>
			<path fill="#939598" d="M157.312,130.946h0.768v9.332h-1.032v-8.246l-1.747,0.543l-0.251-0.848L157.312,130.946z"/>
			<path fill="#939598" d="M162.05,130.946h0.767v9.332h-1.032v-8.246l-1.747,0.543l-0.251-0.848L162.05,130.946z"/>
			<path fill="#939598" d="M165.411,131.01h1.231v0.066l-1.072,3.532h-0.557L165.411,131.01z M168.004,131.01h1.219v0.066
				l-1.072,3.532h-0.556L168.004,131.01z"/>
			<path fill="#939598" d="M181.025,140.277h-1.177l-2.117-2.793l-2.131,2.793h-1.139l2.688-3.482l-2.583-3.361h1.166l2.025,2.647
				l2.024-2.647h1.139l-2.596,3.336L181.025,140.277z"/>
			<path fill="#939598" d="M187.085,133.405l-0.767-0.556c0.833-1.244,1.706-1.971,3.335-1.971c1.682,0,2.874,1.111,2.874,2.633
				c0,1.364-0.716,2.198-2.344,3.614l-2.476,2.196h4.911v0.952h-6.474v-0.807l3.363-2.966c1.416-1.27,1.931-1.986,1.931-2.911
				c0-1.085-0.859-1.774-1.867-1.774C188.515,131.817,187.826,132.374,187.085,133.405z"/>
			<path fill="#939598" d="M198.161,140.437c-2.395,0-3.904-2.172-3.904-4.779c0-2.606,1.535-4.806,3.932-4.806
				c2.382,0,3.893,2.171,3.893,4.778C202.081,138.237,200.545,140.437,198.161,140.437z M198.161,131.806
				c-1.734,0-2.818,1.772-2.818,3.825s1.112,3.853,2.846,3.853s2.807-1.788,2.807-3.826
				C200.995,133.619,199.896,131.806,198.161,131.806z"/>
			<path fill="#939598" d="M204.154,131.01h1.246v0.066l-1.073,3.532h-0.569L204.154,131.01z"/>
			<path fill="#939598" d="M207.716,133.405l-0.769-0.556c0.834-1.244,1.707-1.971,3.335-1.971c1.684,0,2.872,1.111,2.872,2.633
				c0,1.364-0.714,2.198-2.343,3.614l-2.475,2.196h4.911v0.952h-6.472v-0.807l3.359-2.966c1.419-1.27,1.934-1.986,1.934-2.911
				c0-1.085-0.859-1.774-1.867-1.774C209.145,131.817,208.456,132.374,207.716,133.405z"/>
			<path fill="#939598" d="M215.324,131.01h1.23v0.066l-1.071,3.532h-0.558L215.324,131.01z M217.919,131.01h1.217v0.066
				l-1.07,3.532h-0.558L217.919,131.01z"/>
		</g>
		<g enable-background="new    ">
			<path fill="#939598" d="M317.26,45.601c0,1.217-0.741,1.841-1.468,2.158c1.097,0.331,1.984,0.966,1.984,2.25
				c0,1.601-1.335,2.542-3.362,2.542h-4.115v-9.267h3.945C316.07,43.284,317.26,44.185,317.26,45.601z M316.2,45.747
				c0-0.928-0.727-1.523-2.052-1.523h-2.82v3.19h2.741C315.33,47.414,316.2,46.845,316.2,45.747z M316.719,49.942
				c0-1.019-0.848-1.602-2.463-1.602h-2.927v3.27h3.112C315.844,51.61,316.719,50.989,316.719,49.942z"/>
			<path fill="#939598" d="M322.698,51.822c0.939,0,1.602-0.384,2.157-0.966l0.636,0.569c-0.688,0.767-1.523,1.285-2.819,1.285
				c-1.88,0-3.413-1.442-3.413-3.575c0-1.987,1.388-3.576,3.28-3.576c2.026,0,3.19,1.616,3.19,3.628c0,0.092,0,0.199-0.013,0.318
				h-5.428C320.436,50.989,321.494,51.822,322.698,51.822z M324.697,48.751c-0.106-1.244-0.821-2.329-2.186-2.329
				c-1.19,0-2.09,0.992-2.223,2.329H324.697z"/>
			<path fill="#939598" d="M333.007,52.55v-1.378c-0.556,0.821-1.362,1.521-2.62,1.521c-1.644,0-3.271-1.297-3.271-3.56
				c0-2.251,1.627-3.576,3.271-3.576c1.271,0,2.09,0.69,2.62,1.458v-4.132h1.018v9.664h-1.018V52.55z M330.571,46.474
				c-1.322,0-2.409,0.979-2.409,2.647c0,1.628,1.113,2.661,2.409,2.661c1.271,0,2.477-1.058,2.477-2.661
				C333.045,47.533,331.842,46.474,330.571,46.474z"/>
			<path fill="#939598" d="M337.318,52.55h-1.017v-6.843h1.017v1.786c0.506-1.137,1.496-1.958,2.794-1.906v1.099h-0.08
				c-1.496,0-2.715,1.072-2.715,3.137L337.318,52.55L337.318,52.55z"/>
			<path fill="#939598" d="M344.492,52.71c-2.051,0-3.547-1.616-3.547-3.562c0-1.945,1.51-3.587,3.575-3.587
				c2.054,0,3.56,1.616,3.56,3.562C348.079,51.067,346.557,52.71,344.492,52.71z M344.492,46.461c-1.482,0-2.501,1.179-2.501,2.661
				c0,1.483,1.085,2.674,2.529,2.674c1.483,0,2.515-1.179,2.515-2.648C347.033,47.652,345.937,46.461,344.492,46.461z"/>
			<path fill="#939598" d="M353.041,52.71c-2.053,0-3.547-1.616-3.547-3.562c0-1.945,1.508-3.587,3.573-3.587
				c2.053,0,3.561,1.616,3.561,3.562C356.628,51.067,355.105,52.71,353.041,52.71z M353.041,46.461
				c-1.481,0-2.501,1.179-2.501,2.661c0,1.483,1.085,2.674,2.527,2.674c1.484,0,2.516-1.179,2.516-2.648
				C355.583,47.652,354.485,46.461,353.041,46.461z"/>
			<path fill="#939598" d="M366.303,45.56c1.573,0,2.543,1.061,2.543,2.754v4.237h-1.02v-3.999c0-1.323-0.662-2.064-1.773-2.064
				c-1.033,0-1.893,0.766-1.893,2.117v3.945h-1.008v-4.023c0-1.285-0.675-2.039-1.76-2.039c-1.086,0-1.906,0.9-1.906,2.157v3.906
				h-1.018v-6.843h1.018v1.151c0.45-0.675,1.059-1.299,2.21-1.299c1.114,0,1.828,0.596,2.198,1.365
				C364.382,46.17,365.111,45.56,366.303,45.56z"/>
		</g>
		<g enable-background="new    ">
			<path fill="#939598" d="M301.327,59.393h0.767v9.333h-1.033v-8.246l-1.746,0.542l-0.251-0.847L301.327,59.393z"/>
			<path fill="#939598" d="M308.155,68.884c-2.396,0-3.904-2.172-3.904-4.779c0-2.606,1.536-4.806,3.932-4.806
				c2.383,0,3.891,2.171,3.891,4.778S310.537,68.884,308.155,68.884z M308.155,60.253c-1.733,0-2.819,1.773-2.819,3.826
				s1.111,3.853,2.847,3.853c1.734,0,2.806-1.789,2.806-3.826C310.988,62.065,309.888,60.253,308.155,60.253z"/>
			<path fill="#939598" d="M314.149,59.458h1.243v0.066l-1.07,3.534h-0.572L314.149,59.458z"/>
			<path fill="#939598" d="M322.923,61.166c-0.687-0.583-1.336-0.913-2.183-0.913c-1.682,0-2.727,1.693-2.714,4.09
				c0.503-0.743,1.284-1.417,2.634-1.417c1.734,0,3.204,1.113,3.204,2.858c0,1.801-1.442,3.098-3.322,3.098
				c-1.018,0-1.855-0.357-2.436-0.941c-0.74-0.741-1.166-1.693-1.166-3.6c0-2.833,1.432-5.044,3.852-5.044
				c1.114,0,1.933,0.398,2.741,1.06L322.923,61.166z M320.527,63.826c-1.39,0-2.314,0.992-2.314,2.039
				c0,1.205,0.979,2.091,2.341,2.091c1.365,0,2.237-0.939,2.237-2.13C322.791,64.672,321.864,63.826,320.527,63.826z"/>
			<path fill="#939598" d="M325.952,59.458h1.23v0.066l-1.072,3.534h-0.556L325.952,59.458z M328.546,59.458h1.219v0.066
				l-1.073,3.534h-0.554L328.546,59.458z"/>
			<path fill="#939598" d="M341.568,68.724h-1.18l-2.117-2.793l-2.131,2.793h-1.137l2.686-3.482l-2.581-3.361h1.165l2.024,2.648
				l2.027-2.648h1.138l-2.597,3.336L341.568,68.724z"/>
			<path fill="#939598" d="M348.687,59.393h0.768v9.333h-1.033v-8.246l-1.748,0.542l-0.253-0.847L348.687,59.393z"/>
			<path fill="#939598" d="M351.941,60.397v-0.939h5.916v0.767l-2.912,3.229c1.628,0.132,3.059,0.913,3.059,2.62
				c0,1.669-1.379,2.807-3.099,2.807c-1.548,0-2.7-0.676-3.455-1.656l0.755-0.675c0.716,0.875,1.575,1.378,2.714,1.378
				c1.128,0,2.024-0.715,2.024-1.813c0-1.165-1.06-1.801-2.593-1.801h-0.598l-0.211-0.623l2.925-3.296h-4.525V60.397z"/>
			<path fill="#939598" d="M360.158,59.458h1.245v0.066l-1.072,3.534h-0.57L360.158,59.458z"/>
			<path fill="#939598" d="M366.047,68.884c-1.203,0-2.079-0.49-2.857-1.138l0.609-0.809c0.754,0.662,1.454,0.995,2.274,0.995
				c1.67,0,2.794-1.694,2.754-4.064c-0.503,0.807-1.336,1.482-2.621,1.482c-1.905,0-3.228-1.204-3.228-2.885
				c0-1.774,1.363-3.164,3.336-3.164c1.06,0,1.841,0.357,2.435,0.953c0.729,0.728,1.15,1.735,1.15,3.601
				C369.898,66.805,368.336,68.884,366.047,68.884z M366.272,60.226c-1.39,0-2.224,1.018-2.224,2.183
				c0,1.191,0.927,2.039,2.277,2.039c1.415,0,2.303-1.033,2.303-2.104C368.629,61.152,367.661,60.226,366.272,60.226z"/>
			<path fill="#939598" d="M371.963,59.458h1.229v0.066l-1.071,3.534h-0.559L371.963,59.458z M374.556,59.458h1.218v0.066
				l-1.071,3.534h-0.557L374.556,59.458z"/>
		</g>
	</g>
</g>
</svg>
