<?xml version="1.0" encoding="utf-8"?>
<!-- Generator: Adobe Illustrator 15.0.2, SVG Export Plug-In . SVG Version: 6.00 Build 0)  -->
<!DOCTYPE svg PUBLIC "-//W3C//DTD SVG 1.1//EN" "http://www.w3.org/Graphics/SVG/1.1/DTD/svg11.dtd">
<svg version="1.1" id="Layer_1" xmlns="http://www.w3.org/2000/svg" xmlns:xlink="http://www.w3.org/1999/xlink" x="0px" y="0px"
	 width="500px" height="500px" viewBox="-137.839 -82.696 500 500" enable-background="new -137.839 -82.696 500 500"
	 xml:space="preserve">
<g id="_x32_0_x25___PMS_2985_fill" display="none">
	<polygon display="inline" fill="#EBEEEF" points="3.031,1.617 3.031,318.117 13.031,318.117 13.031,326.117 105.031,326.117 
		105.031,317.117 222.031,317.117 222.031,130.117 172.031,130.117 172.031,78.95 157.531,78.95 157.531,24.617 172.031,24.617 
		172.031,2.617 	"/>
</g>
<g>
	<g id="_x32_0_x25__grey_fill">
		<rect x="260.313" y="378.048" fill="#D1D3D4" width="12.378" height="8.479"/>
		<rect x="88.746" y="378.785" fill="#D1D3D4" width="61.191" height="6.635"/>
		<rect x="-48.382" y="377.679" fill="#D1D3D4" width="27.646" height="8.479"/>
	</g>
	<g id="icons">
		<g>
			<g>
				<rect x="77.693" y="38.466" fill="#FFFFFF" stroke="#939598" width="34.835" height="67.562"/>
				<path fill="#FFFFFF" stroke="#939598" d="M95.112,72.345"/>
				<path fill="#FFFFFF" stroke="#939598" d="M95.112,72.575"/>
				<path fill="#FFFFFF" stroke="#939598" d="M95.112,95.418"/>
			</g>
			<circle fill="#FFFFFF" stroke="#939598" cx="94.947" cy="90.675" r="1.429"/>
			<path fill="#FFFFFF" stroke="#939598" d="M95.004,42.503c9.983,0,13.639,2.304,13.639,5.533c0,0,0,48.419,0,49.211
				c0,0.788-0.215,2.419-2.303,2.419c-2.091,0-11.336,0-11.336,0H94.98c0,0-9.246,0-11.337,0c-2.088,0-2.302-1.629-2.302-2.419
				c0-0.792,0-49.181,0-49.181l0.004-0.031C81.346,44.808,85.083,42.503,95.004,42.503z"/>
			<path fill="#FFFFFF" stroke="#939598" d="M97.943,102.172c-0.003-0.81,0.646-1.457,1.466-1.457c0.791,0,1.447,0.647,1.453,1.457
				c-0.006,0.804-0.662,1.469-1.453,1.469C98.59,103.641,97.94,102.983,97.943,102.172z"/>
			<path fill="#FFFFFF" stroke="#939598" d="M88.887,102.172c-0.008-0.81,0.657-1.457,1.46-1.457c0.8,0,1.46,0.647,1.46,1.457
				c0,0.804-0.66,1.469-1.46,1.456C89.541,103.641,88.887,102.976,88.887,102.172z"/>
			<path fill="#FFFFFF" stroke="#939598" d="M96.91,102.604c0,1.197-0.809,2.166-2.007,2.169c-1.192-0.003-1.846-0.97-1.846-2.169
				l0.769-8.245c0-0.81,2.182-0.81,2.182,0L96.91,102.604z"/>
		</g>
		<g>
			<polygon fill="none" stroke="#939598" points="124.144,195.457 124.156,197.796 157.519,197.817 157.508,195.477 			"/>
			<path fill="none" stroke="#939598" d="M157.535,196.533c-0.625,18.368-15.725,32.753-34.092,32.125"/>
		</g>
		<g>
			<g>
				<g>
					<g>
						<rect x="81.529" y="125.729" fill="#FFFFFF" stroke="#939598" width="27.344" height="29.767"/>
						<path fill="#FFFFFF" stroke="#939598" d="M94.291,140.61"/>
						<polyline fill="#FFFFFF" stroke="#939598" points="89.686,131.579 85.529,131.579 84.559,135.174 84.559,146.188 
							85.529,149.826 89.686,149.826 						"/>
						<line fill="none" stroke="#939598" x1="89.686" y1="155.711" x2="89.686" y2="125.729"/>
						<path fill="#FFFFFF" stroke="#939598" d="M92.899,140.703"/>
					</g>
				</g>
			</g>
			<polygon fill="#FFFFFF" stroke="#939598" points="87.894,154.048 87.888,151.643 89.565,151.113 89.571,154.575 			"/>
		</g>
		<polygon fill="#FFFFFF" stroke="#939598" points="169.467,83.479 169.467,38.261 196.991,38.261 196.991,83.972 		"/>
		<g>
			<path fill="#FFFFFF" stroke="#939598" stroke-miterlimit="10" d="M175.774,114.543c-6.582,0-13.827-3.997-13.827-8.926
				c0-4.928,7.245-8.907,13.827-8.907c6.581,0,10.004,3.979,10.004,8.907C185.778,110.546,182.355,114.543,175.774,114.543"/>
			<path fill="#FFFFFF" stroke="#939598" d="M175.774,114.543c-6.582,0-13.827-3.997-13.827-8.926c0-4.928,7.245-8.907,13.827-8.907
				c6.581,0,10.004,3.979,10.004,8.907C185.778,110.546,182.355,114.543,175.774,114.543z"/>
			<path fill="#FFFFFF" stroke="#939598" stroke-miterlimit="10" d="M183.621,100.275c-0.369,0-0.671-0.303-0.671-0.671v-3.106
				c0-0.369,0.302-0.672,0.671-0.672h0.112c0.368,0,0.671,0.303,0.671,0.672v3.106c0,0.368-0.303,0.671-0.671,0.671H183.621z"/>
			<path fill="#FFFFFF" stroke="#939598" d="M183.621,100.275c-0.369,0-0.671-0.303-0.671-0.671v-3.106
				c0-0.369,0.302-0.672,0.671-0.672h0.112c0.368,0,0.671,0.303,0.671,0.672v3.106c0,0.368-0.303,0.671-0.671,0.671H183.621z"/>
			<path fill="#FFFFFF" stroke="#939598" stroke-miterlimit="10" d="M184.422,95.354c0-1.117,3.034-2.027,4.152-2.027
				c1.135,0,4.167,0.91,4.167,2.027v20.369c0,1.12-3.033,2.027-4.167,2.027c-1.12,0-4.149-0.907-4.149-2.027L184.422,95.354z"/>
			<path fill="#FFFFFF" stroke="#939598" d="M184.422,95.354c0-1.117,3.034-2.027,4.152-2.027c1.135,0,4.167,0.91,4.167,2.027
				v20.369c0,1.12-3.033,2.027-4.167,2.027c-1.12,0-4.149-0.907-4.149-2.027L184.422,95.354z"/>
			<path fill="#FFFFFF" stroke="#939598" stroke-miterlimit="10" d="M175.497,112.178c-4.836,0-10.163-2.938-10.163-6.561
				s5.326-6.557,10.163-6.557s7.353,2.934,7.353,6.557S180.334,112.178,175.497,112.178"/>
			<path fill="#FFFFFF" stroke="#939598" d="M175.497,112.178c-4.836,0-10.163-2.938-10.163-6.561s5.326-6.557,10.163-6.557
				s7.353,2.934,7.353,6.557S180.334,112.178,175.497,112.178z"/>
		</g>
		<g>
			<g>
				<g>
					<path fill="none" stroke="#939598" d="M180.054,60.854"/>
				</g>
				<g>
					<path fill="none" stroke="#939598" d="M181.622,60.854"/>
				</g>
				<g>
					<circle fill="none" stroke="#939598" cx="180.054" cy="60.853" r="1.5"/>
					<path fill="none" stroke="#939598" d="M180.054,60.854"/>
				</g>
				<g>
					<g>
						<rect x="189.454" y="54.563" fill="none" stroke="#939598" width="3.134" height="12.612"/>
						<path fill="none" stroke="#939598" d="M191.022,60.854"/>
					</g>
					<g>
						<rect x="183.372" y="60.184" fill="none" stroke="#939598" width="5.944" height="1.336"/>
						<path fill="none" stroke="#939598" d="M186.85,60.854"/>
					</g>
					<g>
						<circle fill="none" stroke="#939598" cx="190.99" cy="60.853" r="1.454"/>
						<path fill="none" stroke="#939598" d="M190.99,60.854"/>
					</g>
				</g>
			</g>
			<g>
				<rect x="172.608" y="48.278" fill="none" stroke="#939598" width="20.459" height="25.179"/>
				<rect x="174.665" y="50.333" fill="none" stroke="#939598" width="14.716" height="21.02"/>
			</g>
		</g>
		<g>
			<polygon fill="none" stroke="#939598" points="205.844,183.453 208.307,183.473 208.33,148.352 205.834,148.334 			"/>
			<path fill="none" stroke="#939598" d="M207.009,148.306c19.335,0.656,34.478,16.646,33.818,35.98"/>
		</g>
		<g>
			<polygon fill="none" stroke="#939598" points="187.386,183.453 184.923,183.473 184.899,148.352 187.398,148.334 			"/>
			<path fill="none" stroke="#939598" d="M186.222,148.306c-19.335,0.656-34.479,16.646-33.819,35.98"/>
		</g>
		<g>
			<polygon fill="none" stroke="#939598" points="178.551,-30.776 180.289,-29.215 158.16,-4.247 156.418,-5.809 			"/>
			<path fill="none" stroke="#939598" d="M157.189-5.089c6.518,5.401,14.441,7.945,22.238,7.734"/>
		</g>
		<g>
			<g>
				<polygon fill="none" stroke="#939598" points="163.003,-46.647 160.196,-46.638 160.173,-15.862 162.983,-15.873 				"/>
				<path fill="none" stroke="#939598" d="M162.008-15.849c-16.941-0.574-30.209-14.503-29.633-31.445"/>
			</g>
			<g>
				<polygon fill="none" stroke="#939598" points="101.594,-46.647 104.398,-46.638 104.424,-15.862 101.614,-15.873 				"/>
				<path fill="none" stroke="#939598" d="M102.587-15.849c16.942-0.574,30.21-14.503,29.634-31.445"/>
			</g>
		</g>
		<g>
			<polygon fill="none" stroke="#939598" points="122.514,35.256 124.976,35.238 124.998,70.357 122.501,70.377 			"/>
			<path fill="none" stroke="#939598" d="M123.677,70.404c19.334-0.657,34.478-16.646,33.818-35.98"/>
		</g>
		<g>
			<g>
				<polygon fill="none" stroke="#939598" points="73.105,121.447 73.1,123.69 48.478,123.711 48.488,121.461 				"/>
				<path fill="none" stroke="#939598" d="M48.468,122.242c0.459,13.555,11.602,24.167,25.157,23.707"/>
			</g>
			<g>
				<polygon fill="none" stroke="#939598" points="73.105,170.572 73.1,168.327 48.478,168.309 48.488,170.557 				"/>
				<path fill="none" stroke="#939598" d="M48.468,169.779c0.459-13.555,11.602-24.169,25.157-23.706"/>
			</g>
		</g>
		<polyline fill="#FFFFFF" stroke="#939598" points="26.177,-46.33 -19.61,-46.33 -19.61,87.024 27.897,86.803 27.897,129 
			-46.443,129 -46.443,-72.87 44.045,-72.774 44.045,-46.33 41.769,-46.33 		"/>
		<g>
			<g>
				<rect x="-44.549" y="-14.369" fill="#FFFFFF" stroke="#939598" width="29.121" height="34.282"/>
				<path fill="#FFFFFF" stroke="#939598" d="M-29.989,2.772"/>
			</g>
			<g>
				<g>
					<circle fill="#FFFFFF" stroke="#939598" cx="-21.879" cy="10.611" r="4.164"/>
					<path fill="#FFFFFF" stroke="#939598" d="M-21.879,10.611"/>
				</g>
				<g>
					<circle fill="#FFFFFF" stroke="#939598" stroke-width="0.8" cx="-21.88" cy="10.651" r="2.933"/>
					<path fill="#FFFFFF" stroke="#939598" d="M-21.879,10.651"/>
				</g>
			</g>
			<g>
				<g>
					<circle fill="#FFFFFF" stroke="#939598" cx="-34.043" cy="-6.033" r="4.164"/>
					<path fill="#FFFFFF" stroke="#939598" d="M-34.043-6.033"/>
				</g>
				<g>
					<circle fill="#FFFFFF" stroke="#939598" stroke-width="0.8" cx="-34.045" cy="-6.074" r="2.933"/>
					<path fill="#FFFFFF" stroke="#939598" d="M-34.043-6.074"/>
				</g>
			</g>
			<g>
				<g>
					<circle fill="#FFFFFF" stroke="#939598" cx="-34.003" cy="10.666" r="4.747"/>
					<path fill="#FFFFFF" stroke="#939598" d="M-34.003,10.666"/>
				</g>
				<g>
					<circle fill="#FFFFFF" stroke="#939598" stroke-width="0.8" cx="-34.003" cy="10.62" r="3.344"/>
					<path fill="#FFFFFF" stroke="#939598" d="M-34.003,10.62"/>
				</g>
			</g>
			<g>
				<g>
					<circle fill="#FFFFFF" stroke="#939598" cx="-21.558" cy="-6.013" r="4.746"/>
					<path fill="#FFFFFF" stroke="#939598" d="M-21.558-6.014"/>
				</g>
				<g>
					<circle fill="#FFFFFF" stroke="#939598" stroke-width="0.8" cx="-21.558" cy="-6.061" r="3.344"/>
					<path fill="#FFFFFF" stroke="#939598" d="M-21.558-6.061"/>
				</g>
			</g>
			<line fill="none" stroke="#939598" x1="-40.52" y1="19.96" x2="-40.52" y2="-14.369"/>
			<line fill="none" stroke="#939598" x1="-42.13" y1="19.912" x2="-42.13" y2="-14.369"/>
		</g>
		<g>
			<g>
				<rect x="45.677" y="-72.421" fill="#FFFFFF" stroke="#939598" width="36.718" height="32.394"/>
				<path fill="#FFFFFF" stroke="#939598" d="M62.136-56.226"/>
			</g>
			<line fill="none" stroke="#939598" x1="82.482" y1="-42.295" x2="45.677" y2="-42.295"/>
			<rect x="48.741" y="-40.006" fill="#FFFFFF" stroke="#939598" width="2.975" height="1.575"/>
			<path fill="#FFFFFF" stroke="#939598" d="M50.229-39.305"/>
		</g>
		<g>
			<polyline fill="none" stroke="#939598" stroke-dasharray="1.5,1,1.5,1,1.5,1" points="-17.359,70.273 -43.707,70.273 
				-43.707,44.433 -17.95,44.433 			"/>
			<polyline fill="#FFFFFF" stroke="#939598" points="-17.95,44.392 -16.384,44.392 -16.384,70.273 -17.349,70.273 			"/>
		</g>
		<line fill="none" stroke="#939598" x1="23.473" y1="-46.33" x2="23.473" y2="-72.133"/>
		<g>
			<g>
				<g>
					<polygon fill="none" stroke="#939598" stroke-width="0.7" points="34.437,-33.108 32.593,-34.122 40.273,-46.79 
						42.118,-45.779 					"/>
					<path fill="none" stroke="#939598" stroke-width="0.8" d="M38.757-40.976"/>
				</g>
				<path fill="none" stroke="#939598" stroke-width="0.8" d="M33.733-33.718c-4.722-2.859-7.265-7.952-7.093-13.104"/>
			</g>
		</g>
		
			<line fill="none" stroke="#939598" stroke-dasharray="1.5,1.5,1.5,1.5,1.5,1.5" x1="-28.871" y1="63.242" x2="-28.871" y2="114.48"/>
		<polyline fill="none" stroke="#939598" stroke-dasharray="1.5,1.5,1.5,1.5,1.5,1.5" points="22.368,-57.011 -28.871,-57.011 
			-28.871,51.445 		"/>
		
			<line fill="none" stroke="#939598" stroke-dasharray="1.5,1.5,1.5,1.5,1.5,1.5" x1="81.961" y1="-57.011" x2="44.854" y2="-57.011"/>
		<g>
			<g>
				<path fill="#FFFFFF" stroke="#939598" d="M22.54,112.305c0.629,0,1.138-0.508,1.138-1.137V91.343
					c0-0.628-0.51-1.137-1.138-1.137h-33.628c-0.627,0-1.134,0.51-1.134,1.137v19.825c0,0.631,0.507,1.137,1.134,1.137H22.54z"/>
				<path fill="#FFFFFF" stroke="#939598" d="M5.847,102.112"/>
			</g>
			<g>
				<circle fill="#FFFFFF" stroke="#939598" cx="5.847" cy="100.769" r="1.285"/>
				<path fill="#FFFFFF" stroke="#939598" d="M5.847,100.771"/>
			</g>
			<g>
				<g>
					<rect x="0.236" y="108.831" fill="#FFFFFF" stroke="#939598" width="11.22" height="2.683"/>
					<path fill="#FFFFFF" stroke="#939598" d="M5.847,110.174"/>
				</g>
				<g>
					<rect x="5.273" y="103.613" fill="#FFFFFF" stroke="#939598" width="1.146" height="5.288"/>
					<path fill="#FFFFFF" stroke="#939598" d="M5.847,106.598"/>
				</g>
				<g>
					<circle fill="#FFFFFF" stroke="#939598" cx="5.847" cy="110.146" r="1.249"/>
					<path fill="#FFFFFF" stroke="#939598" d="M5.847,110.146"/>
				</g>
			</g>
			<g>
				<path fill="#FFFFFF" stroke="#939598" d="M5.847,100.771"/>
				<path fill="none" stroke="#939598" d="M6.54,107.903h14.137c0.66,0,1.197-0.534,1.197-1.194V93.112
					c0-0.656-0.536-1.193-1.197-1.193H-9.225c-0.658,0-1.195,0.536-1.195,1.193v13.597c0,0.658,0.536,1.194,1.195,1.194H5.118"/>
			</g>
		</g>
		<line fill="none" stroke="#939598" x1="-47.277" y1="116.841" x2="27.923" y2="116.841"/>
		<line fill="none" stroke="#939598" x1="85.797" y1="-59.141" x2="197.49" y2="-59.141"/>
		<polyline fill="none" stroke="#939598" points="199.702,129.226 256.101,129.226 256.101,184.151 		"/>
		
			<line fill="none" stroke="#939598" stroke-dasharray="1.5,1.5,1.5,1.5,1.5,1.5" x1="86.534" y1="-63.565" x2="197.49" y2="-63.565"/>
		<polyline fill="none" stroke="#939598" stroke-dasharray="1.5,1.5,1.5,1.5,1.5,1.5" points="198.596,125.171 259.42,125.171 
			259.42,182.308 		"/>
		<line fill="none" stroke="#939598" x1="150.306" y1="376.562" x2="259.42" y2="376.562"/>
		<g>
			<rect x="-34.424" y="396.11" fill="none" stroke="#939598" width="4.239" height="4.239"/>
			<rect x="96.828" y="396.11" fill="none" stroke="#939598" width="4.239" height="4.239"/>
			<line fill="none" stroke="#939598" x1="-30.553" y1="397.216" x2="96.828" y2="397.216"/>
			<line fill="none" stroke="#939598" x1="-30.184" y1="396.11" x2="-30.184" y2="387.417"/>
			<line fill="none" stroke="#939598" x1="96.856" y1="396.11" x2="96.856" y2="387.786"/>
			<line fill="none" stroke="#939598" x1="101.068" y1="396.11" x2="101.068" y2="387.417"/>
			<line fill="none" stroke="#939598" x1="96.828" y1="400.35" x2="-30.922" y2="400.35"/>
			<line fill="none" stroke="#939598" x1="-34.424" y1="396.11" x2="-34.424" y2="388.154"/>
		</g>
	</g>
	<g id="walls">
		<polyline fill="none" stroke="#939598" stroke-width="5" points="79.162,386.992 273.856,386.992 273.856,110.782 
			198.943,110.782 198.943,34.858 179.059,34.858 179.059,2.645 		"/>
		<polyline fill="none" stroke="#939598" stroke-width="5" points="179.059,-30.39 179.059,-44.345 200.742,-44.345 
			200.742,-77.375 -49.534,-77.23 -49.534,386.992 -14.469,386.992 		"/>
		<line fill="none" stroke="#939598" stroke-width="3" x1="240.202" y1="183.291" x2="273.427" y2="183.291"/>
		<line fill="none" stroke="#939598" stroke-width="3" x1="187.169" y1="183.291" x2="205.969" y2="183.291"/>
		<polyline fill="none" stroke="#939598" stroke-width="3" points="72.404,171.179 72.404,183.291 152.886,183.291 		"/>
		<polyline fill="none" stroke="#939598" stroke-width="3" points="122.294,36.333 72.404,36.333 72.404,120.876 		"/>
		<line fill="none" stroke="#939598" stroke-width="3" x1="179.059" y1="36.333" x2="156.941" y2="36.333"/>
		<polyline fill="none" stroke="#939598" stroke-width="3" points="70.439,108.694 119.08,108.694 119.08,182.308 		"/>
		<line fill="none" stroke="#939598" stroke-width="3" x1="124.994" y1="228.383" x2="124.994" y2="376.451"/>
		<line fill="none" stroke="#939598" stroke-width="3" x1="124.994" y1="183.782" x2="124.994" y2="195.21"/>
		<line fill="none" stroke="#939598" stroke-width="3" x1="197.61" y1="107.108" x2="197.61" y2="184.766"/>
		<line fill="none" stroke="#939598" stroke-width="3" x1="163.577" y1="-45.749" x2="179.059" y2="-45.749"/>
		<polyline fill="none" stroke="#939598" stroke-width="3" points="85.231,-77.696 85.231,-45.749 102.215,-45.749 		"/>
		<polyline fill="none" stroke="#939598" stroke-width="3" points="88.377,383.945 88.664,378.039 150.224,378.039 149.937,385.42 
					"/>
		<polyline fill="none" stroke="#939598" stroke-width="3" points="272.321,378.048 260.313,378.048 260.313,385.789 		"/>
		<polyline fill="none" stroke="#939598" stroke-width="3" points="-47.645,378.785 -21.978,378.785 -21.978,385.052 		"/>
		<line fill="none" stroke="#939598" stroke-width="3" x1="75.844" y1="36.701" x2="75.844" y2="109.688"/>
		<g>
			<rect x="29.56" y="387.315" fill="none" stroke="#939598" width="55.293" height="2.603"/>
			<rect x="-17.992" y="384.26" fill="none" stroke="#939598" width="60.455" height="2.856"/>
		</g>
	</g>
	<g id="Type">
		<g>
			<path fill="#939598" d="M96.473,147.092v-0.671l6.041-1.982l-6.021-2.064v-0.858l7.282,2.582v0.692l-5.868,1.983l5.868,1.994
				v0.681l-7.282,2.582v-0.89l6.021-2.063L96.473,147.092z"/>
			<path fill="#939598" d="M95.482,136.793l9.561,4.792v0.733l-9.561-4.793V136.793z"/>
			<path fill="#939598" d="M103.723,133.325v2.51h-7.23v-2.51c0-2.272,1.56-3.842,3.604-3.842
				C102.14,129.483,103.723,131.053,103.723,133.325z M97.246,133.325v1.692h5.721v-1.692c0-1.828-1.239-2.995-2.85-2.995
				C98.506,130.33,97.246,131.498,97.246,133.325z"/>
		</g>
		<g>
			<path fill="#939598" d="M147.055,127.551c0,1.223-0.745,1.845-1.475,2.165c1.103,0.331,1.991,0.968,1.991,2.255
				c0,1.606-1.339,2.55-3.369,2.55h-4.13v-9.292h3.957C145.861,125.229,147.055,126.131,147.055,127.551z M145.992,127.696
				c0-0.929-0.729-1.526-2.059-1.526h-2.827v3.198h2.748C145.118,129.368,145.992,128.798,145.992,127.696z M146.51,131.905
				c0-1.021-0.85-1.605-2.47-1.605h-2.933v3.278h3.119C145.634,133.577,146.51,132.953,146.51,131.905z"/>
			<path fill="#939598" d="M149.879,128.971l-0.306-0.836c0.758-0.345,1.501-0.57,2.496-0.57c1.872,0,2.919,0.955,2.919,2.761v4.195
				h-0.982v-1.035c-0.479,0.624-1.274,1.182-2.482,1.182c-1.274,0-2.562-0.718-2.562-2.15c0-1.46,1.196-2.23,2.933-2.23
				c0.877,0,1.501,0.119,2.111,0.292v-0.239c0-1.233-0.756-1.872-2.043-1.872C151.153,128.467,150.516,128.681,149.879,128.971z
				 M149.998,132.476c0,0.876,0.797,1.38,1.727,1.38c1.261,0,2.296-0.77,2.296-1.857v-0.664c-0.504-0.146-1.181-0.292-2.017-0.292
				C150.717,131.042,149.998,131.6,149.998,132.476z"/>
			<path fill="#939598" d="M158.479,132.568c0,0.836,0.465,1.142,1.155,1.142c0.344,0,0.638-0.067,0.996-0.239v0.876
				c-0.358,0.186-0.743,0.292-1.235,0.292c-1.102,0-1.937-0.544-1.937-1.938v-4.142h-0.955v-0.903h0.955v-2.069h1.021v2.069h2.178
				v0.903h-2.178V132.568z"/>
			<path fill="#939598" d="M163.483,134.521h-1.021v-9.69h1.021v4.022c0.452-0.743,1.168-1.34,2.35-1.34
				c1.661,0,2.63,1.114,2.63,2.748v4.262h-1.022v-4.009c0-1.274-0.691-2.071-1.897-2.071c-1.183,0-2.06,0.862-2.06,2.15V134.521
				L163.483,134.521z"/>
		</g>
		<g>
			<path fill="#939598" d="M61.49-46.2l-2.097-2.809h-2.063v2.809h-0.818v-7.229h3.109c1.591,0,2.612,0.858,2.612,2.159
				c0,1.208-0.826,1.911-1.961,2.117L62.49-46.2H61.49z M59.56-52.676h-2.23v2.933h2.219c1.084,0,1.859-0.558,1.859-1.499
				C61.407-52.137,60.726-52.676,59.56-52.676z"/>
			<path fill="#939598" d="M66.092-46.768c0.733,0,1.25-0.299,1.685-0.753l0.496,0.443c-0.537,0.599-1.188,1.001-2.201,1.001
				c-1.467,0-2.664-1.125-2.664-2.788c0-1.548,1.083-2.789,2.56-2.789c1.581,0,2.49,1.259,2.49,2.83c0,0.072,0,0.154-0.01,0.248
				h-4.235C64.327-47.419,65.153-46.768,66.092-46.768z M67.652-49.164c-0.083-0.97-0.642-1.816-1.705-1.816
				c-0.929,0-1.633,0.774-1.735,1.816H67.652z"/>
			<path fill="#939598" d="M72.627-51.518v0.683h-1.685v4.637h-0.796v-4.637h-0.733v-0.693h0.733v-0.465
				c0-1.168,0.589-1.786,1.611-1.786c0.373,0,0.621,0.042,0.878,0.134v0.692c-0.29-0.083-0.505-0.134-0.775-0.134
				c-0.619,0-0.929,0.372-0.929,1.137v0.434h1.695V-51.518z"/>
		</g>
		<g>
			<path fill="#939598" d="M-35.874,60.824h-2.51v-7.229h2.51c2.272,0,3.84,1.559,3.84,3.604
				C-32.033,59.241-33.601,60.824-35.874,60.824z M-35.874,54.348h-1.695v5.721h1.695c1.826,0,2.994-1.238,2.994-2.85
				C-32.88,55.607-34.048,54.348-35.874,54.348z"/>
			<path fill="#939598" d="M-26.305,53.575h0.671l1.984,6.041l2.065-6.02h0.858l-2.582,7.281H-24l-1.983-5.867l-1.994,5.867h-0.681
				l-2.582-7.281h0.887l2.066,6.02L-26.305,53.575z"/>
		</g>
		<g>
			<path fill="#939598" d="M32.688-46.744v1.404h2.039v0.652h-5.78v-2.163c0-1.305,0.693-2.163,1.842-2.163
				C32.044-49.015,32.688-47.974,32.688-46.744z M29.549-46.802v1.461h2.544v-1.429c0-0.957-0.511-1.585-1.28-1.585
				C29.978-48.354,29.549-47.733,29.549-46.802z"/>
			<path fill="#939598" d="M31.277-50.096l-0.521,0.189c-0.214-0.47-0.355-0.933-0.355-1.552c0-1.165,0.595-1.817,1.718-1.817h2.611
				v0.612h-0.645c0.389,0.298,0.736,0.793,0.736,1.544c0,0.793-0.445,1.594-1.338,1.594c-0.907,0-1.387-0.744-1.387-1.826
				c0-0.545,0.075-0.933,0.183-1.312h-0.149c-0.768,0-1.165,0.471-1.165,1.271C30.961-50.889,31.095-50.492,31.277-50.096z
				 M33.455-50.17c0.545,0,0.859-0.495,0.859-1.073c0-0.785-0.479-1.429-1.156-1.429h-0.413c-0.091,0.314-0.182,0.736-0.182,1.256
				C32.564-50.616,32.911-50.17,33.455-50.17z"/>
			<path fill="#939598" d="M34.728-55.017v0.635h-4.271v-0.635H31.2c-0.461-0.28-0.834-0.728-0.834-1.462
				c0-1.032,0.694-1.635,1.711-1.635h2.649v0.637h-2.494c-0.793,0-1.289,0.429-1.289,1.181c0,0.734,0.537,1.28,1.337,1.28h2.447
				V-55.017z"/>
			<path fill="#939598" d="M33.513-60.079c0.52,0,0.71-0.289,0.71-0.718c0-0.215-0.042-0.396-0.15-0.619h0.546
				c0.115,0.223,0.181,0.461,0.181,0.768c0,0.685-0.338,1.205-1.205,1.205h-2.576v0.594h-0.562v-0.594h-1.289v-0.635h1.289v-1.354
				h0.562v1.354H33.513z"/>
			<path fill="#939598" d="M34.728-62.944v0.635h-4.271v-0.635h1.115c-0.708-0.313-1.223-0.933-1.189-1.743h0.685v0.05
				c0,0.933,0.67,1.692,1.957,1.692H34.728z"/>
			<path fill="#939598" d="M34.868-67.486c0.883,0.364,1.205,0.777,1.205,1.42c0,0.355-0.075,0.619-0.216,0.909l-0.503-0.215
				c0.108-0.207,0.156-0.396,0.156-0.668c0-0.38-0.199-0.619-0.801-0.876l-4.252,1.941v-0.702l3.56-1.553l-3.56-1.371v-0.675
				L34.868-67.486z"/>
		</g>
		<g>
			<path fill="#939598" d="M19.558,4.365h-1.314l-3.571-4.5l-1.977,2.004v2.495h-1.048v-9.292h1.048V0.62l5.336-5.549h1.354
				l-3.983,4.062L19.558,4.365z"/>
			<path fill="#939598" d="M21.043-3.998v-1.128h1.168v1.128H21.043z M21.109,4.365v-6.862h1.022v6.862H21.109z"/>
			<path fill="#939598" d="M25.887,2.415c0,0.836,0.463,1.142,1.155,1.142c0.344,0,0.636-0.067,0.995-0.239v0.875
				c-0.359,0.186-0.743,0.292-1.234,0.292c-1.102,0-1.938-0.544-1.938-1.938v-4.142H23.91v-0.902h0.955v-2.07h1.022v2.07h2.177
				v0.902h-2.177V2.415z"/>
			<path fill="#939598" d="M32.762,4.524c-2.004,0-3.519-1.632-3.519-3.57c0-1.953,1.513-3.598,3.519-3.598
				c1.3,0,2.111,0.543,2.748,1.221l-0.677,0.716c-0.543-0.571-1.155-1.035-2.083-1.035c-1.394,0-2.457,1.181-2.457,2.669
				c0,1.5,1.087,2.68,2.521,2.68c0.875,0,1.553-0.438,2.097-1.021l0.649,0.612C34.874,3.967,34.052,4.524,32.762,4.524z"/>
			<path fill="#939598" d="M38.269,4.365h-1.021v-9.69h1.021v4.021c0.452-0.743,1.168-1.34,2.35-1.34
				c1.659,0,2.628,1.115,2.628,2.748v4.262h-1.022v-4.01c0-1.273-0.689-2.07-1.898-2.07c-1.181,0-2.059,0.863-2.059,2.15v3.928
				H38.269z"/>
			<path fill="#939598" d="M48.448,3.635c0.941,0,1.605-0.385,2.163-0.968l0.638,0.57c-0.691,0.77-1.526,1.288-2.827,1.288
				c-1.885,0-3.426-1.447-3.426-3.584c0-1.991,1.394-3.585,3.292-3.585c2.032,0,3.2,1.619,3.2,3.637c0,0.093,0,0.2-0.014,0.319
				h-5.442C46.178,2.799,47.24,3.635,48.448,3.635z M50.454,0.555c-0.107-1.248-0.824-2.335-2.19-2.335
				c-1.195,0-2.097,0.995-2.23,2.335H50.454z"/>
			<path fill="#939598" d="M54.299,4.365h-1.021v-6.862h1.021v1.194c0.452-0.743,1.167-1.34,2.351-1.34
				c1.659,0,2.626,1.115,2.626,2.748v4.262h-1.021v-4.01c0-1.273-0.691-2.07-1.899-2.07c-1.181,0-2.059,0.863-2.059,2.15v3.928
				H54.299z"/>
		</g>
		<g>
			<path fill="#939598" d="M121.662-49.177c-2.087,0-3.625-1.643-3.625-3.728c0-2.066,1.529-3.748,3.655-3.748
				c1.312,0,2.097,0.464,2.819,1.146l-0.558,0.598c-0.609-0.577-1.29-0.991-2.272-0.991c-1.6,0-2.798,1.291-2.798,2.975
				c0,1.684,1.209,2.995,2.798,2.995c0.992,0,1.644-0.382,2.335-1.044l0.537,0.526C123.799-49.682,122.972-49.177,121.662-49.177z"
				/>
			<path fill="#939598" d="M125.911-49.299v-7.539h0.795v7.539H125.911z"/>
			<path fill="#939598" d="M130.991-49.177c-1.6,0-2.768-1.259-2.768-2.778c0-1.519,1.178-2.799,2.789-2.799
				c1.6,0,2.777,1.26,2.777,2.778C133.79-50.457,132.6-49.177,130.991-49.177z M130.991-54.05c-1.156,0-1.951,0.918-1.951,2.076
				c0,1.156,0.847,2.086,1.973,2.086c1.156,0,1.961-0.918,1.961-2.064C132.972-53.121,132.116-54.05,130.991-54.05z"/>
			<path fill="#939598" d="M136.987-49.198c-0.765,0-1.611-0.299-2.211-0.784l0.402-0.568c0.579,0.434,1.22,0.682,1.849,0.682
				c0.641,0,1.106-0.33,1.106-0.847v-0.021c0-0.537-0.631-0.743-1.334-0.939c-0.834-0.238-1.766-0.526-1.766-1.507v-0.021
				c0-0.92,0.767-1.529,1.817-1.529c0.651,0,1.374,0.228,1.921,0.588l-0.361,0.599c-0.495-0.321-1.062-0.517-1.578-0.517
				c-0.632,0-1.032,0.331-1.032,0.774v0.021c0,0.505,0.661,0.702,1.374,0.92c0.826,0.248,1.713,0.567,1.713,1.527v0.021
				C138.886-49.786,138.05-49.198,136.987-49.198z"/>
			<path fill="#939598" d="M142.715-49.868c0.733,0,1.252-0.299,1.686-0.754l0.495,0.444c-0.537,0.599-1.188,1.001-2.199,1.001
				c-1.467,0-2.665-1.125-2.665-2.789c0-1.548,1.083-2.789,2.561-2.789c1.579,0,2.489,1.26,2.489,2.831c0,0.072,0,0.155-0.01,0.248
				h-4.233C140.95-50.519,141.775-49.868,142.715-49.868z M144.274-52.264c-0.085-0.97-0.642-1.817-1.705-1.817
				c-0.929,0-1.63,0.774-1.733,1.817H144.274z"/>
			<path fill="#939598" d="M147.545-50.818c0,0.65,0.361,0.889,0.898,0.889c0.268,0,0.495-0.052,0.773-0.186v0.681
				c-0.278,0.144-0.579,0.227-0.959,0.227c-0.857,0-1.508-0.423-1.508-1.507v-3.222h-0.744v-0.705h0.744v-1.61h0.795v1.61h1.693
				v0.704h-1.693V-50.818L147.545-50.818z"/>
		</g>
		<g>
			<path fill="#939598" d="M222.296,142.877c-2.086,0-3.624-1.642-3.624-3.728c0-2.066,1.528-3.748,3.654-3.748
				c1.313,0,2.097,0.464,2.819,1.146l-0.557,0.598c-0.609-0.577-1.29-0.99-2.272-0.99c-1.6,0-2.796,1.29-2.796,2.975
				c0,1.684,1.206,2.996,2.796,2.996c0.992,0,1.644-0.384,2.334-1.044l0.537,0.526C224.433,142.373,223.606,142.877,222.296,142.877
				z"/>
			<path fill="#939598" d="M226.546,142.754v-7.538h0.795v7.538H226.546z"/>
			<path fill="#939598" d="M231.626,142.877c-1.6,0-2.768-1.26-2.768-2.778s1.178-2.799,2.789-2.799c1.6,0,2.777,1.26,2.777,2.778
				C234.424,141.597,233.235,142.877,231.626,142.877z M231.626,138.003c-1.156,0-1.951,0.919-1.951,2.075
				c0,1.157,0.847,2.086,1.973,2.086c1.156,0,1.961-0.918,1.961-2.063C233.607,138.933,232.75,138.003,231.626,138.003z"/>
			<path fill="#939598" d="M237.622,142.857c-0.765,0-1.611-0.299-2.211-0.784l0.402-0.569c0.578,0.434,1.219,0.683,1.849,0.683
				c0.641,0,1.105-0.332,1.105-0.848v-0.021c0-0.536-0.631-0.742-1.333-0.939c-0.834-0.236-1.766-0.525-1.766-1.507v-0.021
				c0-0.92,0.767-1.529,1.817-1.529c0.65,0,1.374,0.227,1.921,0.589l-0.361,0.599c-0.495-0.32-1.062-0.517-1.578-0.517
				c-0.633,0-1.032,0.331-1.032,0.774v0.021c0,0.506,0.66,0.702,1.373,0.919c0.827,0.248,1.714,0.568,1.714,1.528v0.021
				C239.52,142.268,238.684,142.857,237.622,142.857z"/>
			<path fill="#939598" d="M243.349,142.187c0.733,0,1.251-0.299,1.685-0.755l0.496,0.443c-0.537,0.6-1.188,1.003-2.199,1.003
				c-1.468,0-2.665-1.127-2.665-2.788c0-1.55,1.082-2.79,2.56-2.79c1.58,0,2.49,1.259,2.49,2.83c0,0.073,0,0.155-0.011,0.248h-4.233
				C241.584,141.534,242.409,142.187,243.349,142.187z M244.909,139.791c-0.085-0.973-0.643-1.819-1.705-1.819
				c-0.929,0-1.63,0.775-1.733,1.819H244.909z"/>
			<path fill="#939598" d="M248.179,141.235c0,0.65,0.361,0.89,0.898,0.89c0.268,0,0.495-0.052,0.772-0.188v0.683
				c-0.277,0.145-0.578,0.227-0.959,0.227c-0.856,0-1.507-0.423-1.507-1.508v-3.222h-0.745v-0.704h0.745v-1.609h0.795v1.609h1.693
				v0.704h-1.693V141.235L248.179,141.235z"/>
		</g>
		<g>
			<path fill="#939598" d="M1.44,410.726c-1.084,0-1.777-0.537-2.23-1.281l0.587-0.506c0.443,0.671,0.898,1.031,1.653,1.031
				c0.815,0,1.414-0.588,1.414-1.735v-4.843h0.828v4.833C3.692,409.888,2.731,410.726,1.44,410.726z"/>
			<path fill="#939598" d="M9.274,405.281h0.785v5.339H9.274v-0.929c-0.36,0.578-0.907,1.043-1.827,1.043
				c-1.29,0-2.046-0.868-2.046-2.139v-3.314h0.796v3.119c0,0.992,0.537,1.611,1.476,1.611c0.909,0,1.6-0.672,1.6-1.674v-3.057H9.274
				z"/>
			<path fill="#939598" d="M11.914,410.62v-7.538h0.796v7.538H11.914z"/>
			<path fill="#939598" d="M14.577,404.115v-0.879h0.909v0.879H14.577z M14.631,410.62v-5.339h0.794v5.339H14.631z"/>
			<path fill="#939598" d="M19.626,410.055c0.733,0,1.248-0.3,1.683-0.755l0.495,0.443c-0.536,0.598-1.187,1.003-2.199,1.003
				c-1.467,0-2.665-1.126-2.665-2.788c0-1.551,1.084-2.791,2.562-2.791c1.58,0,2.488,1.261,2.488,2.83c0,0.073,0,0.155-0.01,0.247
				h-4.235C17.861,409.402,18.687,410.055,19.626,410.055z M21.185,407.658c-0.082-0.971-0.641-1.818-1.703-1.818
				c-0.93,0-1.632,0.774-1.737,1.818H21.185z"/>
			<path fill="#939598" d="M24.457,409.103c0,0.651,0.36,0.89,0.897,0.89c0.269,0,0.495-0.052,0.774-0.187v0.683
				c-0.279,0.144-0.58,0.226-0.96,0.226c-0.858,0-1.506-0.423-1.506-1.508v-3.221h-0.743v-0.704h0.743v-1.611h0.794v1.611h1.692
				v0.704h-1.692V409.103z"/>
			<path fill="#939598" d="M36.214,405.2c0,0.95-0.578,1.436-1.146,1.684c0.856,0.258,1.548,0.753,1.548,1.755
				c0,1.25-1.044,1.983-2.622,1.983h-3.211v-7.229h3.077C35.285,403.392,36.214,404.095,36.214,405.2z M35.389,405.314
				c0-0.723-0.569-1.189-1.601-1.189h-2.199v2.489h2.137C34.706,406.614,35.389,406.171,35.389,405.314z M35.791,408.587
				c0-0.795-0.661-1.25-1.921-1.25h-2.282v2.551h2.426C35.11,409.888,35.791,409.402,35.791,408.587z"/>
			<path fill="#939598" d="M38.41,406.305l-0.237-0.65c0.587-0.268,1.167-0.443,1.941-0.443c1.456,0,2.272,0.742,2.272,2.148v3.263
				h-0.764v-0.805c-0.372,0.484-0.991,0.918-1.931,0.918c-0.992,0-1.994-0.557-1.994-1.673c0-1.138,0.929-1.736,2.282-1.736
				c0.681,0,1.167,0.094,1.643,0.228v-0.187c0-0.96-0.589-1.455-1.591-1.455C39.401,405.912,38.906,406.076,38.41,406.305z
				 M38.502,409.031c0,0.681,0.619,1.073,1.343,1.073c0.982,0,1.786-0.599,1.786-1.445v-0.516c-0.392-0.113-0.918-0.228-1.568-0.228
				C39.059,407.916,38.502,408.349,38.502,409.031z"/>
			<path fill="#939598" d="M44.148,410.62v-7.538h0.795v7.538H44.148z"/>
			<path fill="#939598" d="M49.197,410.744c-1.56,0-2.736-1.27-2.736-2.777c0-1.518,1.178-2.8,2.736-2.8
				c1.012,0,1.642,0.424,2.138,0.952l-0.527,0.558c-0.422-0.444-0.897-0.806-1.621-0.806c-1.084,0-1.91,0.919-1.91,2.074
				c0,1.168,0.847,2.086,1.963,2.086c0.681,0,1.208-0.338,1.631-0.795l0.505,0.476C50.838,410.312,50.199,410.744,49.197,410.744z"
				/>
			<path fill="#939598" d="M54.968,410.744c-1.6,0-2.768-1.26-2.768-2.777c0-1.52,1.176-2.8,2.789-2.8
				c1.6,0,2.778,1.261,2.778,2.778C57.767,409.464,56.578,410.744,54.968,410.744z M54.968,405.871
				c-1.158,0-1.953,0.919-1.953,2.074c0,1.157,0.847,2.086,1.974,2.086c1.155,0,1.961-0.918,1.961-2.063
				C56.949,406.801,56.094,405.871,54.968,405.871z"/>
			<path fill="#939598" d="M59.993,410.62h-0.795v-5.339h0.795v0.93c0.351-0.578,0.91-1.044,1.829-1.044
				c1.29,0,2.045,0.868,2.045,2.139v3.314h-0.795v-3.118c0-0.991-0.537-1.611-1.476-1.611c-0.92,0-1.601,0.671-1.601,1.673v3.057
				H59.993z"/>
			<path fill="#939598" d="M68.004,410.798c-0.454,1.104-0.969,1.506-1.777,1.506c-0.443,0-0.773-0.092-1.136-0.268l0.268-0.631
				c0.259,0.134,0.495,0.195,0.836,0.195c0.475,0,0.775-0.247,1.094-1l-2.428-5.319h0.88l1.94,4.452l1.715-4.452h0.847
				L68.004,410.798z"/>
		</g>
		<g>
			<path fill="#939598" d="M178.273-11.06h-4.409v2.468h3.946v0.743h-3.946v2.531h4.461v0.743h-5.277v-7.229h5.226V-11.06z"/>
			<path fill="#939598" d="M180.624-4.573h-0.793v-5.339h0.793v0.929c0.352-0.577,0.909-1.044,1.828-1.044
				c1.291,0,2.044,0.868,2.044,2.138v3.315h-0.793v-3.119c0-0.99-0.537-1.61-1.476-1.61c-0.921,0-1.604,0.671-1.604,1.672V-4.573
				L180.624-4.573z"/>
			<path fill="#939598" d="M187.26-6.092c0,0.651,0.362,0.89,0.899,0.89c0.269,0,0.495-0.052,0.774-0.186v0.681
				c-0.279,0.144-0.58,0.227-0.961,0.227c-0.856,0-1.506-0.423-1.506-1.507V-9.21h-0.744v-0.704h0.744v-1.61h0.793v1.61h1.693v0.704
				h-1.693V-6.092L187.26-6.092z"/>
			<path fill="#939598" d="M191.152-4.573h-0.795v-5.339h0.795v1.396c0.393-0.889,1.167-1.529,2.18-1.488v0.858h-0.062
				c-1.168,0-2.118,0.836-2.118,2.448V-4.573z"/>
			<path fill="#939598" d="M197.139-4.397c-0.454,1.106-0.971,1.507-1.776,1.507c-0.444,0-0.772-0.093-1.136-0.269l0.268-0.629
				c0.26,0.134,0.497,0.196,0.837,0.196c0.476,0,0.773-0.248,1.096-1.003L194-9.914h0.879l1.94,4.452l1.715-4.452h0.847
				L197.139-4.397z"/>
		</g>
		<g>
			<path fill="#939598" d="M184.277,268.674c0,1.222-0.744,1.847-1.475,2.164c1.102,0.332,1.992,0.97,1.992,2.257
				c0,1.604-1.34,2.549-3.371,2.549h-4.129v-9.292h3.957C183.082,266.352,184.277,267.254,184.277,268.674z M183.217,268.821
				c0-0.931-0.73-1.528-2.06-1.528h-2.826v3.199h2.747C182.34,270.491,183.217,269.923,183.217,268.821z M183.733,273.028
				c0-1.022-0.85-1.606-2.47-1.606h-2.933v3.277h3.118C182.856,274.699,183.733,274.077,183.733,273.028z"/>
			<path fill="#939598" d="M189.73,274.912c0.943,0,1.607-0.385,2.164-0.968l0.639,0.57c-0.691,0.769-1.528,1.287-2.828,1.287
				c-1.884,0-3.423-1.445-3.423-3.584c0-1.991,1.391-3.584,3.29-3.584c2.03,0,3.198,1.618,3.198,3.636c0,0.094,0,0.2-0.013,0.321
				h-5.442C187.461,274.077,188.521,274.912,189.73,274.912z M191.733,271.833c-0.104-1.247-0.822-2.335-2.188-2.335
				c-1.195,0-2.097,0.994-2.23,2.335H191.733z"/>
			<path fill="#939598" d="M200.068,275.644v-1.383c-0.558,0.825-1.367,1.526-2.628,1.526c-1.646,0-3.279-1.3-3.279-3.569
				c0-2.257,1.632-3.584,3.279-3.584c1.274,0,2.097,0.689,2.628,1.46v-4.145h1.022v9.691h-1.022V275.644z M197.626,269.551
				c-1.326,0-2.416,0.982-2.416,2.654c0,1.633,1.114,2.669,2.416,2.669c1.274,0,2.483-1.062,2.483-2.669
				C200.109,270.61,198.9,269.551,197.626,269.551z"/>
			<path fill="#939598" d="M204.392,275.644h-1.02v-6.863h1.02v1.792c0.507-1.14,1.501-1.965,2.802-1.91v1.101h-0.081
				c-1.5,0-2.723,1.075-2.723,3.147v2.733H204.392z"/>
			<path fill="#939598" d="M211.586,275.802c-2.058,0-3.555-1.62-3.555-3.571c0-1.949,1.512-3.596,3.584-3.596
				c2.058,0,3.57,1.62,3.57,3.57C215.185,274.156,213.657,275.802,211.586,275.802z M211.586,269.535
				c-1.486,0-2.507,1.184-2.507,2.67c0,1.487,1.087,2.681,2.536,2.681c1.485,0,2.521-1.181,2.521-2.655
				C214.135,270.73,213.033,269.535,211.586,269.535z"/>
			<path fill="#939598" d="M220.159,275.802c-2.059,0-3.558-1.62-3.558-3.571c0-1.949,1.514-3.596,3.584-3.596
				c2.059,0,3.572,1.62,3.572,3.57C223.758,274.156,222.231,275.802,220.159,275.802z M220.159,269.535
				c-1.487,0-2.51,1.184-2.51,2.67c0,1.487,1.089,2.681,2.536,2.681c1.489,0,2.522-1.181,2.522-2.655
				C222.708,270.73,221.608,269.535,220.159,269.535z"/>
			<path fill="#939598" d="M233.457,268.635c1.58,0,2.551,1.062,2.551,2.761v4.248h-1.022v-4.009c0-1.328-0.664-2.071-1.778-2.071
				c-1.034,0-1.898,0.77-1.898,2.123v3.957H230.3v-4.035c0-1.287-0.677-2.045-1.766-2.045c-1.087,0-1.912,0.903-1.912,2.163v3.917
				h-1.02v-6.863h1.02v1.155c0.453-0.677,1.062-1.301,2.218-1.301c1.114,0,1.831,0.595,2.203,1.367
				C231.532,269.246,232.261,268.635,233.457,268.635z"/>
			<path fill="#939598" d="M169.685,282.503h0.771v9.36h-1.036v-8.269l-1.751,0.544l-0.253-0.85L169.685,282.503z"/>
			<path fill="#939598" d="M174.437,282.503h0.769v9.36h-1.035v-8.269l-1.751,0.544l-0.252-0.85L174.437,282.503z"/>
			<path fill="#939598" d="M177.807,282.571h1.247v0.065l-1.075,3.544h-0.572L177.807,282.571z"/>
			<path fill="#939598" d="M184.535,292.021c-2.403,0-3.916-2.178-3.916-4.792s1.54-4.82,3.943-4.82
				c2.389,0,3.902,2.179,3.902,4.793C188.465,289.815,186.924,292.021,184.535,292.021z M184.535,283.367
				c-1.739,0-2.828,1.777-2.828,3.836c0,2.06,1.116,3.863,2.855,3.863s2.813-1.793,2.813-3.837
				C187.376,285.185,186.274,283.367,184.535,283.367z"/>
			<path fill="#939598" d="M190.546,282.571h1.233v0.065l-1.074,3.544h-0.56L190.546,282.571z M193.147,282.571h1.222v0.065
				l-1.074,3.544h-0.558L193.147,282.571z"/>
			<path fill="#939598" d="M206.206,291.863h-1.182l-2.124-2.8l-2.137,2.8h-1.141l2.695-3.492l-2.59-3.371h1.167l2.033,2.655
				L204.96,285h1.14l-2.602,3.347L206.206,291.863z"/>
			<path fill="#939598" d="M213.344,282.503h0.77v9.36h-1.035v-8.269l-1.752,0.544l-0.254-0.85L213.344,282.503z"/>
			<path fill="#939598" d="M222.197,282.503v6.28h1.447v0.877h-1.447v2.203h-1.01v-2.203h-4.898l-0.265-0.758l5.255-6.399H222.197z
				 M221.189,283.99l-3.902,4.793h3.902V283.99z"/>
			<path fill="#939598" d="M225.618,282.571h1.249v0.065l-1.074,3.544h-0.572L225.618,282.571z"/>
			<path fill="#939598" d="M234.418,284.283c-0.689-0.585-1.341-0.916-2.19-0.916c-1.685,0-2.732,1.699-2.72,4.101
				c0.504-0.742,1.287-1.419,2.641-1.419c1.739,0,3.213,1.114,3.213,2.865c0,1.806-1.446,3.107-3.332,3.107
				c-1.021,0-1.859-0.358-2.442-0.945c-0.743-0.742-1.168-1.698-1.168-3.608c0-2.842,1.435-5.06,3.862-5.06
				c1.115,0,1.938,0.4,2.748,1.062L234.418,284.283z M232.015,286.95c-1.394,0-2.322,0.994-2.322,2.044
				c0,1.208,0.982,2.097,2.349,2.097c1.369,0,2.243-0.941,2.243-2.137C234.285,287.801,233.356,286.95,232.015,286.95z"/>
			<path fill="#939598" d="M237.457,282.571h1.234v0.065l-1.075,3.544h-0.558L237.457,282.571z M240.057,282.571h1.222v0.065
				l-1.076,3.544h-0.557L240.057,282.571z"/>
		</g>
		<g>
			<path fill="#939598" d="M-28.802,266.288h1.048v8.323h5.23v0.969h-6.278V266.288z"/>
			<path fill="#939598" d="M-20.734,267.217v-1.129h1.168v1.129H-20.734z M-20.668,275.58v-6.863h1.022v6.863H-20.668z"/>
			<path fill="#939598" d="M-12.187,268.716h1.102l-2.988,6.916h-0.901l-2.975-6.916h1.129l2.308,5.695L-12.187,268.716z"/>
			<path fill="#939598" d="M-9.453,267.217v-1.129h1.167v1.129H-9.453z M-9.387,275.58v-6.863h1.021v6.863H-9.387z"/>
			<path fill="#939598" d="M-4.968,275.58H-5.99v-6.863h1.022v1.197c0.451-0.745,1.167-1.341,2.35-1.341
				c1.659,0,2.629,1.114,2.629,2.747v4.261h-1.022v-4.009c0-1.274-0.69-2.07-1.899-2.07c-1.181,0-2.058,0.862-2.058,2.149V275.58z"
				/>
			<path fill="#939598" d="M5.224,277.729c-1.142,0-2.205-0.318-3.121-0.954l0.464-0.795c0.783,0.57,1.659,0.875,2.642,0.875
				c1.514,0,2.496-0.836,2.496-2.441v-0.812c-0.598,0.798-1.433,1.447-2.696,1.447c-1.646,0-3.225-1.221-3.225-3.227
				c0-2.018,1.591-3.251,3.225-3.251c1.288,0,2.124,0.636,2.681,1.381v-1.236h1.021v5.668
				C8.714,276.603,7.335,277.729,5.224,277.729z M5.209,269.472c-1.3,0-2.376,0.892-2.376,2.324c0,1.408,1.103,2.35,2.376,2.35
				c1.3,0,2.521-0.93,2.521-2.335C7.732,270.388,6.51,269.472,5.209,269.472z"/>
			<path fill="#939598" d="M16.677,264.985l-6.159,12.294H9.575l6.16-12.294H16.677z"/>
			<path fill="#939598" d="M21.134,275.58h-3.224v-9.293h3.227c2.919,0,4.938,2.004,4.938,4.633
				C26.073,273.55,24.055,275.58,21.134,275.58z M21.134,267.257h-2.177v7.353h2.177c2.35,0,3.851-1.593,3.851-3.663
				C24.984,268.877,23.485,267.257,21.134,267.257z"/>
			<path fill="#939598" d="M28.14,267.217v-1.129h1.168v1.129H28.14z M28.208,275.58v-6.863h1.021v6.863H28.208z"/>
			<path fill="#939598" d="M32.627,275.58h-1.022v-6.863h1.022v1.197c0.451-0.745,1.168-1.341,2.349-1.341
				c1.659,0,2.629,1.114,2.629,2.747v4.261h-1.022v-4.009c0-1.274-0.69-2.07-1.899-2.07c-1.181,0-2.056,0.862-2.056,2.149V275.58z"
				/>
			<path fill="#939598" d="M39.804,267.217v-1.129h1.168v1.129H39.804z M39.87,275.58v-6.863h1.022v6.863H39.87z"/>
			<path fill="#939598" d="M44.289,275.58h-1.021v-6.863h1.021v1.197c0.452-0.745,1.168-1.341,2.35-1.341
				c1.659,0,2.628,1.114,2.628,2.747v4.261h-1.021v-4.009c0-1.274-0.69-2.07-1.898-2.07c-1.181,0-2.059,0.862-2.059,2.149V275.58z"
				/>
			<path fill="#939598" d="M54.483,277.729c-1.141,0-2.205-0.318-3.119-0.954l0.464-0.795c0.783,0.57,1.659,0.875,2.642,0.875
				c1.514,0,2.496-0.836,2.496-2.441v-0.812c-0.598,0.798-1.434,1.447-2.694,1.447c-1.647,0-3.227-1.221-3.227-3.227
				c0-2.018,1.594-3.251,3.227-3.251c1.287,0,2.122,0.636,2.68,1.381v-1.236h1.022v5.668
				C57.974,276.603,56.594,277.729,54.483,277.729z M54.469,269.472c-1.3,0-2.375,0.892-2.375,2.324c0,1.408,1.102,2.35,2.375,2.35
				c1.3,0,2.521-0.93,2.521-2.335C56.991,270.388,55.77,269.472,54.469,269.472z"/>
			<path fill="#939598" d="M70.806,275.58l-2.696-3.61h-2.654v3.61h-1.048v-9.293h3.996c2.043,0,3.358,1.103,3.358,2.775
				c0,1.553-1.062,2.455-2.523,2.721l2.855,3.797H70.806z M68.325,267.257h-2.867v3.771h2.854c1.394,0,2.389-0.718,2.389-1.927
				C70.699,267.947,69.824,267.257,68.325,267.257z"/>
			<path fill="#939598" d="M76.829,275.738c-2.056,0-3.558-1.62-3.558-3.571c0-1.949,1.513-3.595,3.584-3.595
				c2.059,0,3.572,1.618,3.572,3.569S78.901,275.738,76.829,275.738z M76.829,269.472c-1.486,0-2.508,1.184-2.508,2.67
				c0,1.487,1.089,2.681,2.535,2.681c1.487,0,2.521-1.181,2.521-2.655C79.379,270.667,78.278,269.472,76.829,269.472z"/>
			<path fill="#939598" d="M85.403,275.738c-2.058,0-3.558-1.62-3.558-3.571c0-1.949,1.512-3.595,3.584-3.595
				c2.058,0,3.571,1.618,3.571,3.569S87.473,275.738,85.403,275.738z M85.403,269.472c-1.488,0-2.508,1.184-2.508,2.67
				c0,1.487,1.087,2.681,2.534,2.681c1.486,0,2.521-1.181,2.521-2.655C87.951,270.667,86.849,269.472,85.403,269.472z"/>
			<path fill="#939598" d="M98.7,268.572c1.58,0,2.55,1.061,2.55,2.76v4.248h-1.022v-4.009c0-1.328-0.664-2.07-1.778-2.07
				c-1.036,0-1.899,0.769-1.899,2.122v3.957h-1.008v-4.035c0-1.287-0.677-2.044-1.766-2.044c-1.088,0-1.911,0.901-1.911,2.162v3.917
				h-1.022v-6.863h1.022v1.155c0.451-0.677,1.061-1.3,2.216-1.3c1.115,0,1.832,0.594,2.203,1.366
				C96.777,269.183,97.507,268.572,98.7,268.572z"/>
			<path fill="#939598" d="M12.832,282.439h0.771v9.36h-1.035v-8.269l-1.751,0.543l-0.253-0.848L12.832,282.439z"/>
			<path fill="#939598" d="M16.522,284.909l-0.769-0.557c0.836-1.247,1.713-1.979,3.345-1.979c1.687,0,2.881,1.114,2.881,2.641
				c0,1.369-0.715,2.206-2.35,3.626l-2.482,2.203h4.925v0.954H15.58v-0.809l3.372-2.974c1.42-1.276,1.938-1.993,1.938-2.921
				c0-1.088-0.864-1.779-1.874-1.779C17.956,283.316,17.266,283.874,16.522,284.909z"/>
			<path fill="#939598" d="M24.153,282.508H25.4v0.066l-1.076,3.543h-0.57L24.153,282.508z"/>
			<path fill="#939598" d="M37.225,291.8h-1.181l-2.123-2.8l-2.138,2.8h-1.142l2.694-3.492l-2.587-3.371h1.167l2.03,2.655
				l2.03-2.655h1.142l-2.604,3.347L37.225,291.8z"/>
			<path fill="#939598" d="M42.877,283.448v-0.942h5.934v0.77l-2.92,3.238c1.633,0.132,3.067,0.916,3.067,2.628
				c0,1.673-1.379,2.813-3.104,2.813c-1.552,0-2.708-0.677-3.466-1.659l0.758-0.677c0.715,0.877,1.58,1.381,2.721,1.381
				c1.127,0,2.03-0.715,2.03-1.818c0-1.166-1.061-1.806-2.602-1.806h-0.597l-0.212-0.623l2.932-3.307h-4.54V283.448z"/>
			<path fill="#939598" d="M56.601,282.439v6.28h1.446v0.877h-1.446v2.203H55.59v-2.203h-4.897l-0.266-0.758l5.257-6.399H56.601z
				 M55.59,283.928l-3.901,4.792h3.901V283.928z"/>
			<path fill="#939598" d="M60.022,282.508h1.249v0.066l-1.076,3.543h-0.572L60.022,282.508z"/>
		</g>
	</g>
	<g id="windows">
		<g>
			<g>
				<rect x="154.003" y="384.197" fill="#FFFFFF" stroke="#939598" width="102.569" height="5.417"/>
				<line fill="none" stroke="#939598" x1="256.574" y1="386.879" x2="152.897" y2="386.879"/>
				<line fill="none" stroke="#939598" stroke-width="2" x1="223.14" y1="389.848" x2="223.14" y2="384.694"/>
			</g>
			<line fill="none" stroke="#939598" stroke-width="2" x1="188.653" y1="390.032" x2="188.653" y2="384.721"/>
		</g>
	</g>
</g>
</svg>
