<?xml version="1.0" encoding="utf-8"?>
<!-- Generator: Adobe Illustrator 15.0.2, SVG Export Plug-In . SVG Version: 6.00 Build 0)  -->
<!DOCTYPE svg PUBLIC "-//W3C//DTD SVG 1.1//EN" "http://www.w3.org/Graphics/SVG/1.1/DTD/svg11.dtd">
<svg version="1.1" id="Layer_1" xmlns="http://www.w3.org/2000/svg" xmlns:xlink="http://www.w3.org/1999/xlink" x="0px" y="0px"
	 width="216.689px" height="490.995px" viewBox="141.789 5 216.689 490.995" enable-background="new 141.789 5 216.689 490.995"
	 xml:space="preserve">
<g id="_x32_0_x25___PMS_2985_fill" display="none">
	<polygon display="inline" fill="#EBEEEF" points="2.512,18.025 2.512,479.024 180.846,479.024 180.846,424.026 210.514,424.026 
		210.514,16.692 207.18,16.525 207.014,7.858 114.984,8.025 115.18,19.192 	"/>
</g>
<g>
	<g id="_x32_0_x25__grey_fill">
		<rect x="205.207" y="203.221" fill="#B3B3B3" width="24.221" height="11.599"/>
		<rect x="238.297" y="23.102" fill="#B3B3B3" width="31.044" height="7.164"/>
		<rect x="345.414" y="22.76" fill="#B3B3B3" width="9.211" height="6.481"/>
		<rect x="145.508" y="24.466" fill="#B3B3B3" width="14.669" height="4.776"/>
	</g>
	<g id="icons">
		<polygon fill="#FFFFFF" stroke="#939598" points="164.954,214.478 164.954,183.094 145.85,183.094 145.85,214.82 		"/>
		<polygon fill="#FFFFFF" stroke="#939598" points="354.439,377.229 335.334,377.229 335.334,403.808 354.625,403.808 		"/>
		<polyline fill="#FFFFFF" stroke="#939598" points="325.459,287.311 334.463,287.311 334.463,190.77 289.468,190.922 
			289.468,163.061 353.09,163.061 353.09,305.732 313.057,305.666 313.057,287.311 314.636,287.311 		"/>
		<g>
			<g>
				<rect x="203.393" y="154.565" fill="#FFFFFF" stroke="#939598" width="24.178" height="46.762"/>
				<path fill="#FFFFFF" stroke="#939598" d="M215.479,177.947"/>
				<path fill="#FFFFFF" stroke="#939598" d="M215.479,178.107"/>
				<path fill="#FFFFFF" stroke="#939598" d="M215.479,193.962"/>
			</g>
			<circle fill="#FFFFFF" stroke="#939598" cx="215.596" cy="190.669" r="0.991"/>
			<path fill="#FFFFFF" stroke="#939598" d="M215.555,157.234c-6.93,0-9.467,1.599-9.467,3.84c0,0,0,33.608,0,34.157
				c0,0.547,0.148,1.68,1.598,1.68c1.451,0,7.869,0,7.869,0h0.018c0,0,6.418,0,7.869,0c1.449,0,1.597-1.131,1.597-1.68
				s0-34.135,0-34.135l-0.002-0.021C225.034,158.834,222.439,157.234,215.555,157.234z"/>
			<path fill="#FFFFFF" stroke="#939598" d="M213.516,198.65c0.002-0.562-0.451-1.012-1.02-1.012c-0.549,0-1.005,0.45-1.01,1.012
				c0.005,0.558,0.461,1.018,1.01,1.018C213.062,199.668,213.518,199.214,213.516,198.65z"/>
			<path fill="#FFFFFF" stroke="#939598" d="M219.801,198.65c0.006-0.562-0.455-1.012-1.013-1.012s-1.015,0.45-1.015,1.012
				c0,0.558,0.457,1.018,1.015,1.011C219.348,199.668,219.801,199.208,219.801,198.65z"/>
			<path fill="#FFFFFF" stroke="#939598" d="M214.229,198.95c0,0.831,0.562,1.503,1.394,1.505c0.83-0.002,1.282-0.673,1.282-1.505
				l-0.532-5.724c0-0.562-1.517-0.562-1.517,0L214.229,198.95z"/>
		</g>
		<g>
			<polygon fill="none" stroke="#939598" points="190.844,328.694 189.135,328.682 189.119,353.058 190.851,353.07 			"/>
			<path fill="none" stroke="#939598" d="M190.036,353.09c-13.421-0.455-23.931-11.554-23.473-24.973"/>
		</g>
		<g>
			<path fill="#FFFFFF" stroke="#939598" stroke-miterlimit="10" d="M160.031,175.783c4.566,0,9.595-2.774,9.595-6.194
				s-5.028-6.183-9.595-6.183c-4.568,0-6.944,2.762-6.944,6.183C153.086,173.008,155.462,175.783,160.031,175.783"/>
			<path fill="#FFFFFF" stroke="#939598" d="M160.031,175.783c4.566,0,9.595-2.774,9.595-6.194s-5.028-6.183-9.595-6.183
				c-4.568,0-6.944,2.762-6.944,6.183C153.086,173.008,155.462,175.783,160.031,175.783z"/>
			<path fill="#FFFFFF" stroke="#939598" stroke-miterlimit="10" d="M154.583,165.88c0.256,0,0.466-0.21,0.466-0.466v-2.156
				c0-0.255-0.21-0.465-0.466-0.465h-0.078c-0.256,0-0.466,0.21-0.466,0.465v2.156c0,0.256,0.21,0.466,0.466,0.466H154.583z"/>
			<path fill="#FFFFFF" stroke="#939598" d="M154.583,165.88c0.256,0,0.466-0.21,0.466-0.466v-2.156c0-0.255-0.21-0.465-0.466-0.465
				h-0.078c-0.256,0-0.466,0.21-0.466,0.465v2.156c0,0.256,0.21,0.466,0.466,0.466H154.583z"/>
			<path fill="#FFFFFF" stroke="#939598" stroke-miterlimit="10" d="M154.026,162.464c0-0.776-2.105-1.407-2.882-1.407
				c-0.787,0-2.892,0.631-2.892,1.407v14.137c0,0.777,2.105,1.407,2.892,1.407c0.777,0,2.88-0.63,2.88-1.407L154.026,162.464z"/>
			<path fill="#FFFFFF" stroke="#939598" d="M154.026,162.464c0-0.776-2.105-1.407-2.882-1.407c-0.787,0-2.892,0.631-2.892,1.407
				v14.137c0,0.777,2.105,1.407,2.892,1.407c0.777,0,2.88-0.63,2.88-1.407L154.026,162.464z"/>
			<path fill="#FFFFFF" stroke="#939598" stroke-miterlimit="10" d="M160.223,174.141c3.355,0,7.054-2.039,7.054-4.553
				c0-2.515-3.697-4.551-7.054-4.551s-5.103,2.037-5.103,4.551C155.12,172.103,156.865,174.141,160.223,174.141"/>
			<path fill="#FFFFFF" stroke="#939598" d="M160.223,174.141c3.355,0,7.054-2.039,7.054-4.553c0-2.515-3.697-4.551-7.054-4.551
				s-5.103,2.037-5.103,4.551C155.12,172.103,156.865,174.141,160.223,174.141z"/>
		</g>
		<g>
			<g>
				<g>
					<path fill="none" stroke="#939598" d="M157.604,198.774"/>
				</g>
				<g>
					<path fill="none" stroke="#939598" d="M156.518,198.774"/>
				</g>
				<g>
					<circle fill="none" stroke="#939598" cx="157.604" cy="198.774" r="1.041"/>
					<path fill="none" stroke="#939598" d="M157.604,198.774"/>
				</g>
				<g>
					<g>
						<rect x="148.906" y="194.409" fill="none" stroke="#939598" width="2.175" height="8.753"/>
						<path fill="none" stroke="#939598" d="M149.993,198.774"/>
					</g>
					<g>
						<rect x="151.176" y="198.31" fill="none" stroke="#939598" width="4.126" height="0.927"/>
						<path fill="none" stroke="#939598" d="M152.888,198.774"/>
					</g>
					<g>
						<circle fill="none" stroke="#939598" cx="150.015" cy="198.774" r="1.009"/>
						<path fill="none" stroke="#939598" d="M150.015,198.774"/>
					</g>
				</g>
			</g>
			<g>
				<rect x="148.572" y="190.047" fill="none" stroke="#939598" width="14.2" height="17.476"/>
				<rect x="151.13" y="191.472" fill="none" stroke="#939598" width="10.214" height="14.588"/>
			</g>
		</g>
		<g>
			<polygon fill="none" stroke="#939598" points="195.79,215.374 194.081,215.388 194.064,191.012 195.797,190.999 			"/>
			<path fill="none" stroke="#939598" d="M194.981,190.98c-13.42,0.455-23.931,11.553-23.473,24.973"/>
		</g>
		<g>
			<polygon fill="none" stroke="#939598" points="243.037,381.678 241.328,381.691 241.311,357.314 243.043,357.302 			"/>
			<path fill="none" stroke="#939598" d="M242.229,357.282c-13.42,0.455-23.93,11.553-23.473,24.974"/>
		</g>
		<g>
			<polygon fill="none" stroke="#939598" points="322.727,409.967 322.719,411.589 299.561,411.605 299.568,409.98 			"/>
			<path fill="none" stroke="#939598" d="M299.552,410.713c0.433,12.749,10.913,22.733,23.663,22.297"/>
		</g>
		<g>
			<polygon fill="none" stroke="#939598" points="249.868,389.812 249.859,391.436 226.705,391.451 226.711,389.826 			"/>
			<path fill="none" stroke="#939598" d="M226.693,390.559c0.433,12.75,10.912,22.733,23.662,22.3"/>
		</g>
		<g>
			<g>
				<g>
					<g>
						<rect x="329.261" y="410.537" fill="#FFFFFF" stroke="#939598" width="18.979" height="20.661"/>
						<path fill="#FFFFFF" stroke="#939598" d="M338.121,420.867"/>
						<polyline fill="#FFFFFF" stroke="#939598" points="334.926,414.599 332.037,414.599 331.363,417.093 331.363,424.737 
							332.037,427.264 334.926,427.264 						"/>
						<line fill="none" stroke="#939598" x1="334.926" y1="431.347" x2="334.926" y2="410.537"/>
						<path fill="#FFFFFF" stroke="#939598" d="M337.15,420.931"/>
					</g>
				</g>
			</g>
			<polygon fill="#FFFFFF" stroke="#939598" points="333.68,430.192 333.674,428.523 334.84,428.157 334.846,430.56 			"/>
		</g>
		<g>
			<polygon fill="none" stroke="#939598" points="328.414,485.021 328.408,483.397 305.252,483.382 305.258,485.007 			"/>
			<path fill="none" stroke="#939598" d="M305.24,484.273c0.434-12.75,10.914-22.733,23.662-22.299"/>
		</g>
		<g>
			<polygon fill="none" stroke="#939598" points="287.309,341.011 287.314,342.634 310.473,342.648 310.463,341.023 			"/>
			<path fill="none" stroke="#939598" d="M310.48,341.757c-0.433,12.75-10.912,22.735-23.662,22.298"/>
		</g>
		<g>
			<path fill="#FFFFFF" stroke="#939598" stroke-miterlimit="10" d="M340.066,368.193c-4.566,0-9.596-2.774-9.596-6.194
				s5.028-6.183,9.596-6.183c4.566,0,6.943,2.763,6.943,6.183S344.635,368.193,340.066,368.193"/>
			<path fill="#FFFFFF" stroke="#939598" d="M340.066,368.193c-4.566,0-9.596-2.774-9.596-6.194s5.028-6.183,9.596-6.183
				c4.566,0,6.943,2.763,6.943,6.183S344.635,368.193,340.066,368.193z"/>
			<path fill="#FFFFFF" stroke="#939598" stroke-miterlimit="10" d="M345.514,358.292c-0.256,0-0.467-0.21-0.467-0.466v-2.156
				c0-0.256,0.211-0.466,0.467-0.466h0.079c0.257,0,0.466,0.21,0.466,0.466v2.156c0,0.256-0.209,0.466-0.466,0.466H345.514z"/>
			<path fill="#FFFFFF" stroke="#939598" d="M345.514,358.292c-0.256,0-0.467-0.21-0.467-0.466v-2.156
				c0-0.256,0.211-0.466,0.467-0.466h0.079c0.257,0,0.466,0.21,0.466,0.466v2.156c0,0.256-0.209,0.466-0.466,0.466H345.514z"/>
			<path fill="#FFFFFF" stroke="#939598" stroke-miterlimit="10" d="M346.07,354.875c0-0.775,2.104-1.407,2.883-1.407
				c0.785,0,2.891,0.632,2.891,1.407v14.138c0,0.778-2.104,1.407-2.891,1.407c-0.779,0-2.881-0.629-2.881-1.407L346.07,354.875z"/>
			<path fill="#FFFFFF" stroke="#939598" d="M346.07,354.875c0-0.775,2.104-1.407,2.883-1.407c0.785,0,2.891,0.632,2.891,1.407
				v14.138c0,0.778-2.104,1.407-2.891,1.407c-0.779,0-2.881-0.629-2.881-1.407L346.07,354.875z"/>
			<path fill="#FFFFFF" stroke="#939598" stroke-miterlimit="10" d="M339.877,366.553c-3.355,0-7.055-2.039-7.055-4.554
				s3.697-4.551,7.055-4.551c3.355,0,5.102,2.036,5.102,4.551S343.23,366.553,339.877,366.553"/>
			<path fill="#FFFFFF" stroke="#939598" d="M339.877,366.553c-3.355,0-7.055-2.039-7.055-4.554s3.697-4.551,7.055-4.551
				c3.355,0,5.102,2.036,5.102,4.551S343.23,366.553,339.877,366.553z"/>
		</g>
		<g>
			<g>
				<g>
					<path fill="none" stroke="#939598" d="M343.035,389.082"/>
				</g>
				<g>
					<path fill="none" stroke="#939598" d="M344.121,389.082"/>
				</g>
				<g>
					<circle fill="none" stroke="#939598" cx="343.035" cy="389.082" r="1.041"/>
					<path fill="none" stroke="#939598" d="M343.035,389.082"/>
				</g>
				<g>
					<g>
						<rect x="349.559" y="384.716" fill="none" stroke="#939598" width="2.176" height="8.753"/>
						<path fill="none" stroke="#939598" d="M350.646,389.082"/>
					</g>
					<g>
						<rect x="345.336" y="388.617" fill="none" stroke="#939598" width="4.127" height="0.928"/>
						<path fill="none" stroke="#939598" d="M347.752,389.082"/>
					</g>
					<g>
						<circle fill="none" stroke="#939598" cx="350.623" cy="389.082" r="1.009"/>
						<path fill="none" stroke="#939598" d="M350.623,389.082"/>
					</g>
				</g>
			</g>
			<g>
				<rect x="337.865" y="380.354" fill="none" stroke="#939598" width="14.199" height="17.477"/>
				<rect x="339.293" y="381.78" fill="none" stroke="#939598" width="10.213" height="14.589"/>
			</g>
		</g>
		<line fill="none" stroke="#939598" x1="263.611" y1="495" x2="263.611" y2="441.655"/>
		
			<line fill="none" stroke="#939598" stroke-dasharray="1.5,1.5,1.5,1.5,1.5,1.5" x1="260.975" y1="494.488" x2="260.975" y2="441.526"/>
		<polyline fill="none" stroke="#939598" points="248.532,340.127 209.301,340.127 209.301,379.929 		"/>
		<polyline fill="none" stroke="#939598" points="157.79,329.782 157.79,368.33 196.083,368.33 		"/>
		<line fill="none" stroke="#939598" x1="303.113" y1="333.193" x2="288.104" y2="333.193"/>
		<path fill="none" stroke="#939598" stroke-dasharray="1.5,1.5,1.5,1.5,1.5,1.5" d="M248.873,337.97c-4.094,0-41.96,0-41.96,0
			v41.618"/>
		<polyline fill="none" stroke="#939598" stroke-dasharray="1.5,1.5,1.5,1.5,1.5,1.5" points="155.4,329.782 155.4,370.629 
			196.679,370.629 		"/>
		<g>
			<g>
				<rect x="331.801" y="238.948" fill="#FFFFFF" stroke="#939598" width="20.213" height="23.795"/>
				<path fill="#FFFFFF" stroke="#939598" d="M341.906,250.846"/>
			</g>
			<g>
				<g>
					<circle fill="#FFFFFF" stroke="#939598" cx="336.275" cy="256.286" r="2.89"/>
					<path fill="#FFFFFF" stroke="#939598" d="M336.275,256.286"/>
				</g>
				<g>
					<circle fill="#FFFFFF" stroke="#939598" stroke-width="0.8" cx="336.277" cy="256.313" r="2.036"/>
					<path fill="#FFFFFF" stroke="#939598" d="M336.275,256.312"/>
				</g>
			</g>
			<g>
				<g>
					<circle fill="#FFFFFF" stroke="#939598" cx="344.721" cy="244.734" r="2.89"/>
					<path fill="#FFFFFF" stroke="#939598" d="M344.721,244.733"/>
				</g>
				<g>
					<circle fill="#FFFFFF" stroke="#939598" stroke-width="0.8" cx="344.723" cy="244.705" r="2.036"/>
					<path fill="#FFFFFF" stroke="#939598" d="M344.721,244.705"/>
				</g>
			</g>
			<g>
				<g>
					<circle fill="#FFFFFF" stroke="#939598" cx="344.691" cy="256.323" r="3.295"/>
					<path fill="#FFFFFF" stroke="#939598" d="M344.691,256.322"/>
				</g>
				<g>
					<circle fill="#FFFFFF" stroke="#939598" stroke-width="0.8" cx="344.691" cy="256.292" r="2.321"/>
					<path fill="#FFFFFF" stroke="#939598" d="M344.691,256.292"/>
				</g>
			</g>
			<g>
				<g>
					<circle fill="#FFFFFF" stroke="#939598" cx="336.057" cy="244.747" r="3.294"/>
					<path fill="#FFFFFF" stroke="#939598" d="M336.057,244.747"/>
				</g>
				<g>
					<circle fill="#FFFFFF" stroke="#939598" stroke-width="0.8" cx="336.057" cy="244.714" r="2.321"/>
					<path fill="#FFFFFF" stroke="#939598" d="M336.057,244.714"/>
				</g>
			</g>
			<line fill="none" stroke="#939598" x1="349.217" y1="262.773" x2="349.217" y2="238.948"/>
			<line fill="none" stroke="#939598" x1="350.332" y1="262.743" x2="350.332" y2="238.948"/>
		</g>
		<g>
			<g>
				<rect x="286.436" y="282.434" fill="#FFFFFF" stroke="#939598" width="25.484" height="22.483"/>
				<path fill="#FFFFFF" stroke="#939598" d="M300.498,293.674"/>
			</g>
			<line fill="none" stroke="#939598" x1="286.377" y1="284.005" x2="311.922" y2="284.005"/>
			<rect x="307.729" y="281.322" fill="#FFFFFF" stroke="#939598" width="2.064" height="1.095"/>
			<path fill="#FFFFFF" stroke="#939598" d="M308.764,281.93"/>
		</g>
		<g>
			<polyline fill="none" stroke="#939598" stroke-dasharray="1.5,1,1.5,1,1.5,1" points="332.927,220.96 351.213,220.96 
				351.213,203.025 333.336,203.025 			"/>
			<polyline fill="#FFFFFF" stroke="#939598" points="333.336,202.996 332.248,202.996 332.248,220.96 332.92,220.96 			"/>
		</g>
		<line fill="none" stroke="#939598" x1="327.334" y1="287.311" x2="327.334" y2="305.221"/>
		<g>
			<g>
				<g>
					<polygon fill="none" stroke="#939598" stroke-width="0.7" points="319.725,278.134 321.002,278.838 315.672,287.632 
						314.393,286.93 					"/>
					<path fill="none" stroke="#333333" stroke-width="0.8" d="M316.725,283.596"/>
				</g>
				<path fill="none" stroke="#939598" stroke-width="0.8" d="M320.213,278.559c3.277,1.985,5.041,5.521,4.924,9.096"/>
			</g>
		</g>
		<g>
			<rect x="259.621" y="12.422" fill="none" stroke="#939598" width="2.941" height="2.942"/>
			<rect x="350.718" y="12.422" fill="none" stroke="#939598" width="2.942" height="2.942"/>
			<line fill="none" stroke="#939598" x1="262.309" y1="14.597" x2="350.718" y2="14.597"/>
			<line fill="none" stroke="#939598" x1="262.562" y1="15.364" x2="262.562" y2="21.396"/>
			<line fill="none" stroke="#939598" x1="350.738" y1="15.364" x2="350.738" y2="21.14"/>
			<line fill="none" stroke="#939598" x1="353.66" y1="15.364" x2="353.66" y2="21.396"/>
			<line fill="none" stroke="#939598" x1="350.718" y1="12.422" x2="262.052" y2="12.422"/>
			<line fill="none" stroke="#939598" x1="259.621" y1="15.364" x2="259.621" y2="20.884"/>
		</g>
		<g>
			<polygon fill="none" stroke="#939598" points="249.486,321.788 249.479,320.165 226.324,320.148 226.331,321.773 			"/>
			<path fill="none" stroke="#939598" d="M226.312,321.041c0.434-12.75,10.914-22.734,23.662-22.299"/>
		</g>
		<g>
			<g>
				<polygon fill="none" stroke="#939598" points="273.211,486.642 273.218,485.034 290.871,485.021 290.863,486.632 				"/>
				<path fill="none" stroke="#939598" d="M290.879,486.073c-0.33-9.721-8.32-17.33-18.037-16.997"/>
			</g>
			<g>
				<polygon fill="none" stroke="#939598" points="273.211,451.42 273.218,453.028 290.871,453.042 290.863,451.431 				"/>
				<path fill="none" stroke="#939598" d="M290.879,451.989c-0.33,9.718-8.32,17.329-18.037,16.997"/>
			</g>
		</g>
		<g>
			<g>
				<g>
					<rect x="305.406" y="309.201" fill="#FFFFFF" stroke="#939598" width="47.844" height="25.067"/>
					<path fill="#FFFFFF" stroke="#939598" d="M329.968,321.716"/>
				</g>
				<g>
					<polyline fill="#FFFFFF" stroke="#939598" points="351.791,321.472 351.791,311.449 307.203,311.449 307.203,332.018 
						351.791,332.018 351.791,322.396 					"/>
					<path fill="#FFFFFF" stroke="#939598" d="M329.968,321.716"/>
				</g>
				<line fill="none" stroke="#939598" x1="351.791" y1="332.018" x2="330.914" y2="322.408"/>
				<line fill="none" stroke="#939598" x1="329.051" y1="320.987" x2="307.203" y2="311.449"/>
				<line fill="none" stroke="#939598" x1="307.203" y1="332.018" x2="328.941" y2="322.502"/>
				<line fill="none" stroke="#939598" x1="330.947" y1="320.962" x2="351.791" y2="311.449"/>
				<g>
					<path fill="#FFFFFF" stroke="#939598" d="M329.968,320.644c-0.612,0-1.108,0.603-1.108,1.072s0.496,0.998,1.108,0.998
						s1.11-0.527,1.11-0.998C331.078,321.244,330.58,320.644,329.968,320.644z"/>
					<path fill="#FFFFFF" stroke="#939598" d="M329.968,321.716"/>
				</g>
			</g>
			<path fill="#FFFFFF" stroke="#939598" d="M350.156,320.677c-0.633,0-0.633,2.284,0,2.284c0.631,0,1.141-0.512,1.141-1.143
				S350.787,320.677,350.156,320.677z"/>
			<polyline fill="#FFFFFF" stroke="#939598" points="353.553,322.055 351.367,322.055 351.367,321.418 353.555,321.418 			"/>
		</g>
		<polyline fill="none" stroke="#939598" stroke-dasharray="1.5,1.5,1.5,1.5,1.5,1.5" points="342.939,208.168 342.939,190.514 
			354.965,190.514 		"/>
		<polyline fill="none" stroke="#939598" stroke-dasharray="1.5,1.5,1.5,1.5,1.5,1.5" points="328.102,294.219 342.939,294.219 
			342.939,215.989 		"/>
		
			<line fill="none" stroke="#939598" stroke-dasharray="1.5,1.5,1.5,1.5,1.5,1.5" x1="286.738" y1="294.219" x2="312.494" y2="294.219"/>
		<g>
			<g>
				<path fill="#FFFFFF" stroke="#939598" d="M323.229,173.41c0.438,0,0.789,0.353,0.789,0.789v13.759
					c0,0.436-0.354,0.789-0.789,0.789h-23.342c-0.436,0-0.787-0.354-0.787-0.789v-13.759c0-0.438,0.353-0.789,0.787-0.789H323.229
					L323.229,173.41z"/>
				<path fill="#FFFFFF" stroke="#939598" d="M311.645,180.483"/>
			</g>
			<g>
				<path fill="#FFFFFF" stroke="#939598" d="M311.645,180.524c0.49,0,0.89,0.398,0.89,0.891s-0.397,0.891-0.89,0.891
					c-0.494,0-0.893-0.398-0.893-0.891S311.148,180.524,311.645,180.524z"/>
				<path fill="#FFFFFF" stroke="#939598" d="M311.645,181.414"/>
			</g>
			<g>
				<g>
					<rect x="307.748" y="173.958" fill="#FFFFFF" stroke="#939598" width="7.787" height="1.862"/>
					<path fill="#FFFFFF" stroke="#939598" d="M311.645,174.888"/>
				</g>
				<g>
					<rect x="311.244" y="175.772" fill="#FFFFFF" stroke="#939598" width="0.795" height="3.669"/>
					<path fill="#FFFFFF" stroke="#939598" d="M311.645,177.37"/>
				</g>
				<g>
					<circle fill="#FFFFFF" stroke="#939598" cx="311.645" cy="174.907" r="0.867"/>
					<path fill="#FFFFFF" stroke="#939598" d="M311.645,174.906"/>
				</g>
			</g>
			<g>
				<path fill="#FFFFFF" stroke="#939598" d="M311.645,181.414"/>
				<path fill="none" stroke="#939598" d="M312.123,176.464h9.812c0.457,0,0.83,0.371,0.83,0.829v9.437
					c0,0.456-0.371,0.828-0.83,0.828h-20.754c-0.455,0-0.83-0.372-0.83-0.828v-9.437c0-0.457,0.373-0.829,0.83-0.829h9.957"/>
			</g>
		</g>
	</g>
	<g id="walls">
		<polyline fill="none" stroke="#939598" stroke-width="5" points="274.631,22.907 144.302,23.194 144.302,493.367 327.52,493.493 
			327.52,485.255 		"/>
		<polyline fill="none" stroke="#939598" stroke-width="5" points="327.52,462.456 327.52,437.921 355.979,437.921 355.979,22.729 
			341.664,22.76 		"/>
		<line fill="none" stroke="#939598" stroke-width="3" x1="171.975" y1="215.16" x2="144.144" y2="215.16"/>
		<polyline fill="none" stroke="#939598" stroke-width="3" points="249.214,298.994 249.214,215.16 195.314,215.16 		"/>
		<line fill="none" stroke="#939598" stroke-width="3" x1="249.214" y1="389.482" x2="249.214" y2="321.938"/>
		<line fill="none" stroke="#939598" stroke-width="3" x1="249.214" y1="491.65" x2="249.214" y2="412.508"/>
		<polyline fill="none" stroke="#939598" stroke-width="3" points="142.098,153.074 229.428,153.074 229.428,214.137 		"/>
		<line fill="none" stroke="#939598" stroke-width="3" x1="166.935" y1="328.759" x2="146.19" y2="328.759"/>
		<line fill="none" stroke="#939598" stroke-width="3" x1="250.236" y1="328.759" x2="190.879" y2="328.759"/>
		<line fill="none" stroke="#939598" stroke-width="3" x1="219.193" y1="380.952" x2="146.19" y2="380.952"/>
		<line fill="none" stroke="#939598" stroke-width="3" x1="249.213" y1="380.952" x2="243.073" y2="380.952"/>
		<line fill="none" stroke="#939598" stroke-width="3" x1="273.436" y1="487.045" x2="273.436" y2="493.186"/>
		<polyline fill="none" stroke="#939598" stroke-width="3" points="249.557,441.675 273.436,441.675 273.436,451.482 		"/>
		<polyline fill="none" stroke="#939598" stroke-width="3" points="353.941,403.809 322.898,403.809 287.764,403.809 
			287.764,363.885 		"/>
		<path fill="none" stroke="#939598" stroke-width="3" d="M356.672,307.268c-2.389,0-68.908,0-68.908,0v33.773"/>
		<polyline fill="none" stroke="#939598" stroke-width="3" points="322.932,432.396 322.898,436.966 328.699,436.966 		"/>
		<line fill="none" stroke="#939598" stroke-width="3" x1="322.898" y1="403.809" x2="322.752" y2="410.29"/>
		<line fill="none" stroke="#939598" stroke-width="3" x1="197.361" y1="328.418" x2="197.361" y2="380.952"/>
		<line fill="none" stroke="#939598" stroke-width="3" x1="304.139" y1="307.947" x2="304.139" y2="335.923"/>
		<polyline fill="none" stroke="#939598" stroke-width="3" points="229.428,203.278 204.348,203.278 204.348,213.796 		"/>
		<polyline fill="none" stroke="#939598" stroke-width="3" points="345.414,22.76 345.414,28.56 354.965,28.56 		"/>
		<polyline fill="none" stroke="#939598" stroke-width="3" points="160.179,23.784 160.179,29.243 145.167,29.243 		"/>
		<polyline fill="none" stroke="#939598" stroke-width="3" points="238.297,23.102 238.297,29.583 268.316,29.583 268.316,22.079 		
			"/>
		<g>
			<rect x="304.551" y="22.968" fill="none" stroke="#939598" width="38.379" height="1.807"/>
			<rect x="271.547" y="20.846" fill="none" stroke="#939598" width="41.959" height="1.983"/>
		</g>
	</g>
	<g id="windows">
		<g>
			<g>
				<rect x="354.143" y="50.963" fill="#FFFFFF" stroke="#939598" width="3.76" height="28.426"/>
			</g>
			<line fill="none" stroke="#939598" x1="356.016" y1="50.282" x2="356.016" y2="79.816"/>
		</g>
		<g>
			<g>
				<rect x="142.52" y="157.653" fill="#FFFFFF" stroke="#939598" width="3.76" height="23.651"/>
			</g>
			<line fill="none" stroke="#939598" x1="144.393" y1="156.971" x2="144.393" y2="181.73"/>
		</g>
		<g>
			<g>
				<rect x="142.34" y="388.688" fill="#FFFFFF" stroke="#939598" width="3.761" height="28.428"/>
			</g>
			<line fill="none" stroke="#939598" x1="144.212" y1="388.005" x2="144.212" y2="417.54"/>
		</g>
		<g>
			<rect x="142.289" y="220.789" fill="#FFFFFF" stroke="#939598" width="3.913" height="75.049"/>
			<line fill="none" stroke="#939598" stroke-width="2" x1="146.515" y1="258.648" x2="142.292" y2="258.648"/>
		</g>
		<g>
			<g>
				<rect x="164.107" y="21.244" fill="#FFFFFF" stroke="#939598" width="71.189" height="3.76"/>
				<line fill="none" stroke="#939598" x1="235.297" y1="23.104" x2="163.34" y2="23.104"/>
				<line fill="none" stroke="#939598" stroke-width="2" x1="212.094" y1="25.165" x2="212.094" y2="21.589"/>
			</g>
			<line fill="none" stroke="#939598" stroke-width="2" x1="188.158" y1="25.293" x2="188.158" y2="21.607"/>
		</g>
		<line fill="none" stroke="#939598" x1="144.144" y1="218.401" x2="144.144" y2="302.32"/>
	</g>
	<g id="Type">
		<g>
			<path fill="#939598" d="M178.798,178.159c0,0.849-0.516,1.28-1.022,1.502c0.765,0.23,1.382,0.672,1.382,1.566
				c0,1.114-0.931,1.77-2.341,1.77h-2.866v-6.45h2.746C177.97,176.547,178.798,177.174,178.798,178.159z M178.062,178.26
				c0-0.645-0.507-1.059-1.428-1.059h-1.962v2.22h1.907C177.455,179.422,178.062,179.024,178.062,178.26z M178.421,181.182
				c0-0.71-0.589-1.115-1.714-1.115h-2.036v2.276h2.165C177.813,182.343,178.421,181.909,178.421,181.182z"/>
			<path fill="#939598" d="M180.76,179.146l-0.212-0.58c0.525-0.24,1.042-0.397,1.732-0.397c1.299,0,2.026,0.664,2.026,1.917v2.912
				h-0.683v-0.718c-0.331,0.433-0.884,0.819-1.722,0.819c-0.885,0-1.779-0.498-1.779-1.492c0-1.013,0.83-1.549,2.037-1.549
				c0.607,0,1.04,0.083,1.464,0.203v-0.166c0-0.857-0.524-1.3-1.418-1.3C181.644,178.795,181.202,178.943,180.76,179.146z
				 M180.843,181.577c0,0.608,0.554,0.958,1.197,0.958c0.875,0,1.595-0.534,1.595-1.29v-0.46c-0.351-0.102-0.82-0.203-1.401-0.203
				C181.339,180.583,180.843,180.97,180.843,181.577z"/>
			<path fill="#939598" d="M186.729,181.642c0,0.58,0.322,0.792,0.802,0.792c0.239,0,0.441-0.046,0.69-0.166v0.608
				c-0.249,0.129-0.516,0.202-0.856,0.202c-0.765,0-1.345-0.377-1.345-1.344v-2.875h-0.663v-0.626h0.663v-1.437h0.709v1.437h1.512
				v0.626h-1.512V181.642z"/>
			<path fill="#939598" d="M190.202,182.997h-0.709v-6.727h0.709v2.792c0.312-0.516,0.811-0.931,1.631-0.931
				c1.151,0,1.824,0.774,1.824,1.908v2.958h-0.709v-2.783c0-0.884-0.479-1.437-1.318-1.437c-0.82,0-1.429,0.598-1.429,1.492
				L190.202,182.997L190.202,182.997z"/>
		</g>
		<g>
			<path fill="#939598" d="M339.02,424.61v-0.467l4.193-1.378l-4.18-1.432v-0.596l5.053,1.792v0.479l-4.07,1.376l4.07,1.385v0.475
				l-5.053,1.792v-0.618l4.18-1.432L339.02,424.61z"/>
			<path fill="#939598" d="M338.33,417.461l6.637,3.326v0.509l-6.637-3.326V417.461z"/>
			<path fill="#939598" d="M344.049,415.055v1.742h-5.016v-1.742c0-1.576,1.082-2.665,2.502-2.665
				C342.953,412.39,344.049,413.479,344.049,415.055z M339.557,415.055v1.177h3.971v-1.177c0-1.268-0.858-2.077-1.979-2.077
				C340.432,412.978,339.557,413.786,339.557,415.055z"/>
		</g>
		<g>
			<path fill="#939598" d="M310.139,375.335c0,0.848-0.518,1.281-1.022,1.503c0.766,0.23,1.383,0.673,1.383,1.565
				c0,1.113-0.933,1.77-2.34,1.77h-2.865v-6.449h2.746C309.309,373.724,310.139,374.35,310.139,375.335z M309.398,375.438
				c0-0.646-0.506-1.061-1.43-1.061h-1.962v2.222h1.906C308.793,376.599,309.398,376.202,309.398,375.438z M309.761,378.357
				c0-0.709-0.591-1.114-1.716-1.114h-2.034v2.274h2.163C309.15,379.519,309.761,379.085,309.761,378.357z"/>
			<path fill="#939598" d="M312.098,376.322l-0.212-0.581c0.526-0.239,1.044-0.396,1.731-0.396c1.299,0,2.025,0.663,2.025,1.917
				v2.911h-0.683v-0.719c-0.332,0.434-0.885,0.82-1.726,0.82c-0.883,0-1.776-0.496-1.776-1.492c0-1.015,0.83-1.549,2.037-1.549
				c0.606,0,1.041,0.083,1.465,0.201v-0.166c0-0.854-0.524-1.3-1.418-1.3C312.98,375.971,312.539,376.119,312.098,376.322z
				 M312.182,378.753c0,0.609,0.553,0.96,1.197,0.96c0.875,0,1.594-0.534,1.594-1.291v-0.461c-0.352-0.101-0.82-0.2-1.399-0.2
				C312.68,377.759,312.182,378.146,312.182,378.753z"/>
			<path fill="#939598" d="M318.066,378.818c0,0.579,0.322,0.792,0.803,0.792c0.238,0,0.441-0.048,0.689-0.166v0.605
				c-0.248,0.129-0.517,0.203-0.855,0.203c-0.766,0-1.346-0.378-1.346-1.345v-2.875h-0.662v-0.626h0.662v-1.438h0.709v1.438h1.512
				v0.626h-1.512V378.818L318.066,378.818z"/>
			<path fill="#939598" d="M321.541,380.173h-0.709v-6.726h0.709v2.793c0.312-0.519,0.811-0.933,1.629-0.933
				c1.152,0,1.824,0.773,1.824,1.907v2.957h-0.707v-2.782c0-0.885-0.48-1.438-1.316-1.438c-0.822,0-1.43,0.599-1.43,1.492V380.173
				L321.541,380.173z"/>
		</g>
		<g>
			<path fill="#939598" d="M271.184,475.516c0,1.448-1.141,2.517-2.588,2.517c-1.434,0-2.604-1.062-2.604-2.536
				c0-0.911,0.322-1.455,0.797-1.957l0.414,0.387c-0.401,0.423-0.688,0.896-0.688,1.577c0,1.11,0.896,1.941,2.063,1.941
				s2.078-0.839,2.078-1.941c0-0.688-0.267-1.14-0.726-1.62l0.365-0.372C270.83,474.032,271.184,474.604,271.184,475.516z"/>
			<path fill="#939598" d="M271.098,472.566h-5.231v-0.555h5.231V472.566z"/>
			<path fill="#939598" d="M271.184,469.04c0,1.11-0.875,1.921-1.93,1.921s-1.943-0.817-1.943-1.938
				c0-1.108,0.875-1.928,1.931-1.928C270.293,467.098,271.184,467.922,271.184,469.04z M267.799,469.04
				c0,0.803,0.637,1.354,1.439,1.354c0.801,0,1.447-0.588,1.447-1.369c0-0.803-0.64-1.359-1.435-1.359
				C268.441,467.664,267.799,468.259,267.799,469.04z"/>
			<path fill="#939598" d="M271.168,464.878c0,0.53-0.209,1.118-0.545,1.534l-0.396-0.279c0.301-0.401,0.475-0.847,0.475-1.283
				c0-0.442-0.229-0.768-0.588-0.768h-0.016c-0.371,0-0.517,0.438-0.652,0.926c-0.162,0.578-0.363,1.226-1.047,1.226h-0.015
				c-0.637,0-1.062-0.53-1.062-1.262c0-0.452,0.158-0.954,0.406-1.334l0.416,0.25c-0.223,0.346-0.356,0.739-0.356,1.099
				c0,0.438,0.229,0.717,0.536,0.717h0.015c0.353,0,0.488-0.459,0.64-0.953c0.172-0.574,0.395-1.19,1.062-1.19h0.015
				C270.758,463.56,271.168,464.14,271.168,464.878z"/>
			<path fill="#939598" d="M270.701,460.901c0-0.511-0.207-0.868-0.521-1.17l0.307-0.345c0.416,0.373,0.697,0.824,0.697,1.526
				c0,1.018-0.783,1.85-1.938,1.85c-1.074,0-1.938-0.752-1.938-1.775c0-1.098,0.875-1.729,1.965-1.729c0.051,0,0.106,0,0.172,0.007
				v2.938C270.248,462.128,270.701,461.555,270.701,460.901z M269.039,459.819c-0.674,0.06-1.264,0.444-1.264,1.184
				c0,0.646,0.537,1.131,1.264,1.203V459.819z"/>
			<path fill="#939598" d="M270.041,457.55c0.451,0,0.617-0.251,0.617-0.624c0-0.186-0.035-0.344-0.131-0.536h0.475
				c0.102,0.192,0.158,0.401,0.158,0.665c0,0.597-0.293,1.047-1.047,1.047h-2.236v0.519h-0.488v-0.519h-1.117v-0.552h1.117v-1.175
				h0.488v1.175H270.041z"/>
		</g>
		<g>
			<path fill="#939598" d="M296.814,292.096l-1.455-1.951h-1.435v1.951h-0.565v-5.018h2.156c1.104,0,1.813,0.595,1.813,1.498
				c0,0.839-0.574,1.324-1.361,1.469l1.541,2.051H296.814L296.814,292.096z M295.477,287.602h-1.55v2.035h1.541
				c0.753,0,1.292-0.388,1.292-1.039C296.76,287.975,296.285,287.602,295.477,287.602z"/>
			<path fill="#939598" d="M300.01,291.699c0.51,0,0.867-0.207,1.168-0.522l0.346,0.308c-0.371,0.416-0.825,0.697-1.526,0.697
				c-1.019,0-1.851-0.783-1.851-1.937c0-1.075,0.752-1.937,1.777-1.937c1.098,0,1.727,0.875,1.727,1.965c0,0.051,0,0.105-0.008,0.17
				h-2.938C298.783,291.249,299.357,291.699,300.01,291.699z M301.092,290.037c-0.057-0.674-0.443-1.262-1.182-1.262
				c-0.646,0-1.133,0.537-1.205,1.262H301.092z"/>
			<path fill="#939598" d="M304.545,288.402v0.476h-1.17v3.218h-0.551v-3.218h-0.512v-0.481h0.512v-0.32
				c0-0.811,0.406-1.239,1.115-1.239c0.262,0,0.434,0.027,0.61,0.093v0.481c-0.2-0.06-0.352-0.095-0.536-0.095
				c-0.431,0-0.646,0.259-0.646,0.787v0.301L304.545,288.402L304.545,288.402z"/>
		</g>
		<g>
			<path fill="#939598" d="M339.766,214.913h-1.742v-5.019h1.742c1.577,0,2.666,1.083,2.666,2.502S341.343,214.913,339.766,214.913z
				 M339.766,210.418h-1.176v3.971h1.176c1.271,0,2.078-0.859,2.078-1.979C341.844,211.292,341.033,210.418,339.766,210.418z"/>
			<path fill="#939598" d="M346.406,209.881h0.467l1.377,4.192l1.434-4.179h0.596l-1.793,5.054h-0.479l-1.375-4.072l-1.385,4.072
				h-0.476l-1.791-5.054h0.617l1.433,4.179L346.406,209.881z"/>
		</g>
		<g>
			<path fill="#939598" d="M322.693,471.039h-3.062v1.713h2.738v0.518h-2.738v1.758h3.097v0.516h-3.664v-5.017h3.629V471.039
				L322.693,471.039z"/>
			<path fill="#939598" d="M324.326,475.54h-0.553v-3.706h0.553v0.646c0.242-0.4,0.631-0.725,1.27-0.725
				c0.896,0,1.418,0.604,1.418,1.483v2.301h-0.551v-2.165c0-0.688-0.373-1.118-1.023-1.118c-0.641,0-1.11,0.466-1.11,1.161v2.122
				H324.326z"/>
			<path fill="#939598" d="M328.934,474.486c0,0.45,0.25,0.616,0.623,0.616c0.188,0,0.344-0.034,0.537-0.131v0.477
				c-0.193,0.1-0.402,0.155-0.667,0.155c-0.595,0-1.046-0.295-1.046-1.047v-2.234h-0.516v-0.488h0.516v-1.118h0.553v1.118h1.176
				v0.488h-1.176V474.486L328.934,474.486z"/>
			<path fill="#939598" d="M331.633,475.54h-0.551v-3.706h0.551v0.968c0.273-0.616,0.812-1.061,1.514-1.032v0.597h-0.041
				c-0.812,0-1.473,0.58-1.473,1.698V475.54L331.633,475.54z"/>
			<path fill="#939598" d="M335.789,475.662c-0.316,0.767-0.674,1.046-1.232,1.046c-0.309,0-0.537-0.064-0.789-0.188l0.188-0.438
				c0.18,0.094,0.344,0.137,0.58,0.137c0.327,0,0.536-0.172,0.76-0.693l-1.685-3.691h0.609l1.348,3.09l1.188-3.09h0.588
				L335.789,475.662z"/>
		</g>
		<g>
			<path fill="#939598" d="M320.318,302.463v0.975h1.416v0.451h-4.012v-1.5c0-0.906,0.479-1.503,1.276-1.503
				C319.871,300.887,320.318,301.609,320.318,302.463z M318.141,302.423v1.015h1.769v-0.989c0-0.666-0.354-1.103-0.89-1.103
				C318.438,301.346,318.141,301.775,318.141,302.423z"/>
			<path fill="#939598" d="M319.338,300.139l-0.359,0.131c-0.147-0.326-0.248-0.646-0.248-1.078c0-0.808,0.414-1.26,1.193-1.26
				h1.812v0.424h-0.448c0.271,0.205,0.51,0.549,0.51,1.07c0,0.553-0.31,1.107-0.928,1.107c-0.629,0-0.961-0.516-0.961-1.268
				c0-0.38,0.051-0.646,0.125-0.912h-0.103c-0.535,0-0.811,0.326-0.811,0.885C319.121,299.588,319.213,299.861,319.338,300.139z
				 M320.854,300.085c0.377,0,0.597-0.345,0.597-0.745c0-0.545-0.332-0.99-0.806-0.99h-0.285c-0.062,0.217-0.125,0.508-0.125,0.871
				C320.232,299.775,320.475,300.085,320.854,300.085z"/>
			<path fill="#939598" d="M321.734,296.721v0.442h-2.965v-0.442h0.516c-0.318-0.193-0.576-0.503-0.576-1.013
				c0-0.718,0.48-1.136,1.188-1.136h1.84v0.439h-1.731c-0.549,0-0.894,0.301-0.894,0.82c0,0.51,0.371,0.891,0.929,0.891h1.696
				L321.734,296.721L321.734,296.721z"/>
			<path fill="#939598" d="M320.893,293.207c0.359,0,0.494-0.2,0.494-0.497c0-0.149-0.029-0.276-0.104-0.433h0.379
				c0.08,0.156,0.127,0.322,0.127,0.533c0,0.478-0.233,0.838-0.838,0.838h-1.789v0.412h-0.39v-0.412h-0.895v-0.442h0.895v-0.938
				h0.39v0.938L320.893,293.207L320.893,293.207z"/>
			<path fill="#939598" d="M321.734,291.221v0.439h-2.965v-0.439h0.772c-0.491-0.219-0.847-0.647-0.823-1.21h0.477v0.032
				c0,0.648,0.465,1.176,1.357,1.176L321.734,291.221L321.734,291.221z"/>
			<path fill="#939598" d="M321.832,288.068c0.613,0.25,0.838,0.537,0.838,0.983c0,0.246-0.055,0.431-0.148,0.632l-0.352-0.149
				c0.074-0.146,0.107-0.276,0.107-0.466c0-0.264-0.139-0.43-0.557-0.606l-2.951,1.347v-0.485l2.471-1.077l-2.471-0.952v-0.471
				L321.832,288.068z"/>
		</g>
		<g>
			<path fill="#939598" d="M281.576,10.304c-0.752,0-1.233-0.372-1.549-0.888l0.408-0.351c0.309,0.466,0.623,0.716,1.146,0.716
				c0.566,0,0.982-0.408,0.982-1.203V5.215h0.572V8.57C283.139,9.724,282.473,10.304,281.576,10.304z"/>
			<path fill="#939598" d="M287.016,6.527h0.543v3.706h-0.543V9.588c-0.252,0.401-0.633,0.725-1.27,0.725
				c-0.896,0-1.42-0.602-1.42-1.484V6.527h0.553v2.165c0,0.688,0.371,1.119,1.023,1.119c0.631,0,1.111-0.466,1.111-1.162
				L287.016,6.527L287.016,6.527z"/>
			<path fill="#939598" d="M288.846,10.233V5h0.553v5.233H288.846z"/>
			<path fill="#939598" d="M290.693,5.716V5.107h0.633v0.609H290.693z M290.73,10.233V6.527h0.553v3.706H290.73z"/>
			<path fill="#939598" d="M294.199,9.838c0.508,0,0.865-0.208,1.168-0.523l0.344,0.309c-0.371,0.415-0.824,0.695-1.523,0.695
				c-1.02,0-1.852-0.781-1.852-1.936c0-1.075,0.752-1.935,1.777-1.935c1.096,0,1.727,0.874,1.727,1.964c0,0.05,0,0.107-0.006,0.172
				h-2.938C292.975,9.387,293.547,9.838,294.199,9.838z M295.279,8.175c-0.059-0.673-0.443-1.261-1.182-1.261
				c-0.646,0-1.134,0.537-1.205,1.261H295.279z"/>
			<path fill="#939598" d="M297.551,9.179c0,0.451,0.25,0.617,0.623,0.617c0.188,0,0.346-0.036,0.537-0.129v0.473
				c-0.191,0.101-0.402,0.158-0.666,0.158c-0.594,0-1.047-0.294-1.047-1.046V7.015h-0.518V6.528h0.518V5.409h0.553v1.118h1.176
				v0.488h-1.176V9.179z"/>
			<path fill="#939598" d="M305.711,6.47c0,0.659-0.4,0.996-0.795,1.168c0.598,0.179,1.076,0.523,1.076,1.218
				c0,0.868-0.725,1.376-1.82,1.376h-2.229V5.214h2.138C305.064,5.215,305.711,5.702,305.711,6.47z M305.139,6.548
				c0-0.501-0.395-0.824-1.111-0.824h-1.524v1.728h1.481C304.664,7.451,305.139,7.143,305.139,6.548z M305.418,8.82
				c0-0.551-0.457-0.866-1.332-0.866H302.5v1.77h1.686C304.943,9.724,305.418,9.387,305.418,8.82z"/>
			<path fill="#939598" d="M307.234,7.236l-0.164-0.452c0.408-0.187,0.811-0.308,1.348-0.308c1.011,0,1.578,0.516,1.578,1.491v2.265
				h-0.533v-0.56c-0.258,0.336-0.688,0.639-1.34,0.639c-0.688,0-1.385-0.387-1.385-1.161c0-0.79,0.646-1.205,1.586-1.205
				c0.473,0,0.811,0.064,1.139,0.158V7.975c0-0.667-0.408-1.011-1.104-1.011C307.924,6.964,307.58,7.079,307.234,7.236z
				 M307.302,9.129c0,0.473,0.431,0.746,0.933,0.746c0.683,0,1.238-0.416,1.238-1.003V8.513c-0.271-0.079-0.639-0.157-1.089-0.157
				C307.688,8.355,307.302,8.656,307.302,9.129z"/>
			<path fill="#939598" d="M311.219,10.233V5h0.553v5.233H311.219z"/>
			<path fill="#939598" d="M314.725,10.319c-1.084,0-1.899-0.881-1.899-1.928c0-1.054,0.815-1.942,1.899-1.942
				c0.701,0,1.14,0.293,1.48,0.659l-0.363,0.387c-0.295-0.308-0.624-0.559-1.127-0.559c-0.752,0-1.324,0.638-1.324,1.44
				c0,0.811,0.586,1.448,1.359,1.448c0.475,0,0.84-0.236,1.133-0.551l0.352,0.329C315.861,10.018,315.418,10.319,314.725,10.319z"/>
			<path fill="#939598" d="M318.729,10.319c-1.11,0-1.922-0.874-1.922-1.928c0-1.054,0.816-1.942,1.938-1.942
				c1.108,0,1.928,0.874,1.928,1.928C320.67,9.429,319.848,10.319,318.729,10.319z M318.729,6.936c-0.805,0-1.354,0.638-1.354,1.44
				s0.588,1.448,1.371,1.448c0.801,0,1.358-0.638,1.358-1.433C320.104,7.58,319.51,6.936,318.729,6.936z"/>
			<path fill="#939598" d="M322.217,10.233h-0.553V6.527h0.553v0.645c0.242-0.401,0.631-0.724,1.27-0.724
				c0.896,0,1.421,0.602,1.421,1.484v2.3h-0.554V8.066c0-0.688-0.373-1.118-1.024-1.118c-0.638,0-1.11,0.466-1.11,1.161
				L322.217,10.233L322.217,10.233z"/>
			<path fill="#939598" d="M327.773,10.355c-0.312,0.768-0.672,1.046-1.23,1.046c-0.311,0-0.537-0.064-0.789-0.186l0.188-0.437
				c0.181,0.093,0.347,0.136,0.582,0.136c0.328,0,0.537-0.172,0.761-0.696l-1.687-3.691h0.609l1.347,3.089l1.19-3.089h0.588
				L327.773,10.355z"/>
		</g>
		<g>
			<path fill="#939598" d="M293.453,330.415v-0.565h4.494v-2.822h0.523v3.39L293.453,330.415L293.453,330.415z"/>
			<path fill="#939598" d="M293.955,326.061h-0.609v-0.63h0.609V326.061z M298.473,326.023h-3.705v-0.552h3.705V326.023z"/>
			<path fill="#939598" d="M298.473,323.638v0.553h-3.705v-0.553h0.646c-0.401-0.243-0.726-0.63-0.726-1.268
				c0-0.896,0.604-1.42,1.484-1.42h2.301v0.552h-2.164c-0.688,0-1.119,0.373-1.119,1.025c0,0.638,0.465,1.108,1.16,1.108
				L298.473,323.638L298.473,323.638z"/>
			<path fill="#939598" d="M298.078,318.144c0-0.508-0.207-0.866-0.523-1.169l0.31-0.345c0.413,0.373,0.694,0.825,0.694,1.527
				c0,1.017-0.781,1.849-1.936,1.849c-1.076,0-1.938-0.752-1.938-1.775c0-1.097,0.873-1.729,1.963-1.729
				c0.053,0,0.106,0,0.174,0.008v2.938C297.625,319.369,298.078,318.795,298.078,318.144z M296.414,317.062
				c-0.672,0.059-1.264,0.443-1.264,1.184c0,0.646,0.539,1.132,1.264,1.204V317.062z"/>
			<path fill="#939598" d="M298.473,314.984v0.552h-3.705v-0.552h0.646c-0.401-0.244-0.726-0.632-0.726-1.271
				c0-0.896,0.604-1.42,1.484-1.42h2.301v0.552h-2.164c-0.688,0-1.119,0.373-1.119,1.025c0,0.638,0.465,1.11,1.16,1.11h2.123
				V314.984L298.473,314.984z"/>
		</g>
		<g>
			<path fill="#939598" d="M166.732,361.943c-1.448,0-2.516-1.142-2.516-2.59c0-1.432,1.062-2.601,2.537-2.601
				c0.909,0,1.455,0.321,1.956,0.795l-0.386,0.416c-0.423-0.402-0.896-0.688-1.577-0.688c-1.11,0-1.942,0.896-1.942,2.063
				s0.838,2.079,1.942,2.079c0.688,0,1.14-0.267,1.619-0.725l0.373,0.362C168.216,361.593,167.643,361.943,166.732,361.943z"/>
			<path fill="#939598" d="M169.684,361.857v-5.231h0.552v5.231H169.684z"/>
			<path fill="#939598" d="M173.208,361.943c-1.11,0-1.921-0.875-1.921-1.93s0.816-1.941,1.936-1.941
				c1.11,0,1.928,0.875,1.928,1.928C175.15,361.055,174.327,361.943,173.208,361.943z M173.208,358.562
				c-0.803,0-1.355,0.638-1.355,1.438c0,0.804,0.589,1.448,1.37,1.448c0.803,0,1.362-0.639,1.362-1.434
				C174.584,359.205,173.99,358.562,173.208,358.562z"/>
			<path fill="#939598" d="M177.37,361.93c-0.53,0-1.118-0.207-1.534-0.544l0.279-0.396c0.401,0.302,0.846,0.475,1.282,0.475
				c0.445,0,0.768-0.229,0.768-0.589v-0.015c0-0.372-0.437-0.518-0.924-0.653c-0.58-0.164-1.226-0.363-1.226-1.045v-0.018
				c0-0.638,0.531-1.06,1.262-1.06c0.451,0,0.953,0.156,1.333,0.407l-0.252,0.416c-0.344-0.225-0.737-0.358-1.096-0.358
				c-0.437,0-0.716,0.229-0.716,0.537v0.015c0,0.352,0.458,0.488,0.952,0.639c0.574,0.172,1.19,0.396,1.19,1.062v0.017
				C178.688,361.521,178.107,361.93,177.37,361.93z"/>
			<path fill="#939598" d="M181.346,361.464c0.509,0,0.867-0.208,1.169-0.524l0.344,0.311c-0.372,0.414-0.823,0.695-1.526,0.695
				c-1.019,0-1.85-0.782-1.85-1.938c0-1.075,0.752-1.936,1.777-1.936c1.097,0,1.728,0.875,1.728,1.964c0,0.052,0,0.106-0.007,0.172
				h-2.939C180.121,361.012,180.693,361.464,181.346,361.464z M182.429,359.801c-0.057-0.674-0.445-1.263-1.183-1.263
				c-0.645,0-1.132,0.538-1.205,1.263H182.429z"/>
			<path fill="#939598" d="M184.699,360.804c0,0.452,0.25,0.618,0.623,0.618c0.187,0,0.344-0.036,0.537-0.13v0.474
				c-0.193,0.102-0.402,0.157-0.666,0.157c-0.596,0-1.046-0.295-1.046-1.047v-2.236h-0.515v-0.486h0.516v-1.118h0.552v1.118h1.175
				v0.486H184.7L184.699,360.804L184.699,360.804z"/>
		</g>
		<g>
			<path fill="#939598" d="M218.67,352.221c-1.447,0-2.516-1.14-2.516-2.587c0-1.433,1.062-2.602,2.537-2.602
				c0.91,0,1.455,0.319,1.957,0.795l-0.387,0.416c-0.424-0.402-0.896-0.689-1.578-0.689c-1.109,0-1.941,0.896-1.941,2.066
				c0,1.168,0.838,2.078,1.941,2.078c0.688,0,1.141-0.269,1.621-0.727l0.371,0.364C220.154,351.87,219.581,352.221,218.67,352.221z"
				/>
			<path fill="#939598" d="M221.621,352.135v-5.229h0.552v5.229H221.621z"/>
			<path fill="#939598" d="M225.146,352.221c-1.11,0-1.922-0.874-1.922-1.928c0-1.055,0.816-1.942,1.936-1.942
				c1.109,0,1.929,0.874,1.929,1.93C227.089,351.332,226.266,352.221,225.146,352.221z M225.146,348.839
				c-0.804,0-1.355,0.637-1.355,1.439c0,0.802,0.589,1.446,1.369,1.446c0.804,0,1.361-0.638,1.361-1.433
				C226.521,349.482,225.928,348.839,225.146,348.839z"/>
			<path fill="#939598" d="M229.309,352.207c-0.529,0-1.119-0.207-1.533-0.544l0.279-0.396c0.4,0.304,0.846,0.477,1.281,0.477
				c0.445,0,0.768-0.231,0.768-0.589v-0.017c0-0.372-0.438-0.516-0.924-0.651c-0.58-0.163-1.227-0.363-1.227-1.046v-0.016
				c0-0.638,0.531-1.061,1.262-1.061c0.451,0,0.953,0.155,1.334,0.405l-0.252,0.416c-0.344-0.223-0.736-0.356-1.097-0.356
				c-0.437,0-0.716,0.229-0.716,0.537v0.015c0,0.352,0.457,0.488,0.951,0.638c0.574,0.173,1.191,0.396,1.191,1.062v0.014
				C230.627,351.798,230.045,352.207,229.309,352.207z"/>
			<path fill="#939598" d="M233.284,351.741c0.509,0,0.866-0.208,1.169-0.524l0.343,0.311c-0.372,0.415-0.823,0.693-1.526,0.693
				c-1.018,0-1.85-0.781-1.85-1.936c0-1.075,0.753-1.938,1.778-1.938c1.096,0,1.728,0.874,1.728,1.963c0,0.054,0,0.108-0.008,0.175
				h-2.938C232.059,351.29,232.631,351.741,233.284,351.741z M234.367,350.078c-0.059-0.674-0.445-1.264-1.184-1.264
				c-0.646,0-1.133,0.537-1.205,1.264H234.367z"/>
			<path fill="#939598" d="M236.637,351.081c0,0.452,0.252,0.618,0.623,0.618c0.188,0,0.344-0.036,0.537-0.13v0.474
				c-0.193,0.1-0.402,0.157-0.666,0.157c-0.596,0-1.046-0.294-1.046-1.047v-2.236h-0.517v-0.488h0.517v-1.118h0.552v1.118h1.176
				v0.488h-1.176V351.081z"/>
		</g>
		<g>
			<path fill="#939598" d="M183.583,263.975c0,0.849-0.516,1.281-1.022,1.504c0.765,0.229,1.382,0.672,1.382,1.563
				c0,1.114-0.93,1.771-2.34,1.771h-2.866v-6.449h2.746C182.755,262.361,183.583,262.988,183.583,263.975z M182.848,264.076
				c0-0.646-0.507-1.061-1.429-1.061h-1.962v2.221h1.907C182.239,265.236,182.848,264.84,182.848,264.076z M183.207,266.996
				c0-0.709-0.59-1.115-1.714-1.115h-2.036v2.275h2.165C182.599,268.156,183.207,267.725,183.207,266.996z"/>
			<path fill="#939598" d="M187.37,268.305c0.654,0,1.114-0.267,1.501-0.673l0.442,0.396c-0.479,0.535-1.06,0.896-1.962,0.896
				c-1.308,0-2.377-1.004-2.377-2.488c0-1.383,0.967-2.488,2.285-2.488c1.409,0,2.22,1.125,2.22,2.525c0,0.063,0,0.139-0.01,0.221
				h-3.777C185.793,267.725,186.531,268.305,187.37,268.305z M188.761,266.167c-0.073-0.865-0.571-1.621-1.52-1.621
				c-0.83,0-1.455,0.69-1.549,1.621H188.761z"/>
			<path fill="#939598" d="M194.544,268.812v-0.961c-0.387,0.571-0.948,1.061-1.823,1.061c-1.144,0-2.276-0.902-2.276-2.479
				c0-1.566,1.133-2.486,2.276-2.486c0.884,0,1.455,0.479,1.823,1.014v-2.877h0.71v6.727h-0.71V268.812z M192.851,264.582
				c-0.921,0-1.678,0.682-1.678,1.843c0,1.134,0.774,1.853,1.678,1.853c0.884,0,1.724-0.735,1.724-1.853
				C194.573,265.318,193.733,264.582,192.851,264.582z"/>
			<path fill="#939598" d="M197.546,268.812h-0.709v-4.766h0.709v1.244c0.35-0.792,1.041-1.364,1.943-1.327v0.767h-0.055
				c-1.042,0-1.89,0.746-1.89,2.184L197.546,268.812L197.546,268.812z"/>
			<path fill="#939598" d="M202.539,268.923c-1.428,0-2.47-1.125-2.47-2.479c0-1.354,1.05-2.493,2.488-2.493
				c1.43,0,2.479,1.123,2.479,2.478C205.036,267.783,203.977,268.923,202.539,268.923z M202.539,264.574
				c-1.031,0-1.741,0.818-1.741,1.852c0,1.034,0.757,1.862,1.761,1.862c1.03,0,1.75-0.822,1.75-1.845
				C204.309,265.402,203.543,264.574,202.539,264.574z"/>
			<path fill="#939598" d="M208.488,268.923c-1.428,0-2.469-1.125-2.469-2.479c0-1.354,1.049-2.493,2.486-2.493
				c1.43,0,2.479,1.123,2.479,2.478C210.984,267.783,209.927,268.923,208.488,268.923z M208.488,264.574
				c-1.031,0-1.74,0.818-1.74,1.852c0,1.034,0.755,1.862,1.759,1.862c1.032,0,1.75-0.822,1.75-1.845
				C210.258,265.402,209.494,264.574,208.488,264.574z"/>
			<path fill="#939598" d="M217.719,263.945c1.098,0,1.77,0.738,1.77,1.918v2.947h-0.709v-2.781c0-0.922-0.459-1.438-1.234-1.438
				c-0.718,0-1.318,0.534-1.318,1.474v2.746h-0.699v-2.801c0-0.895-0.469-1.419-1.226-1.419c-0.755,0-1.325,0.626-1.325,1.501v2.719
				h-0.709v-4.764h0.709v0.803c0.312-0.471,0.735-0.904,1.537-0.904c0.773,0,1.271,0.414,1.53,0.949
				C216.383,264.37,216.891,263.945,217.719,263.945z"/>
			<path fill="#939598" d="M187.807,280.182c-0.838,0-1.446-0.343-1.989-0.793l0.424-0.562c0.525,0.459,1.014,0.69,1.584,0.69
				c1.161,0,1.943-1.181,1.917-2.828c-0.35,0.562-0.93,1.031-1.824,1.031c-1.327,0-2.248-0.84-2.248-2.01
				c0-1.234,0.949-2.202,2.322-2.202c0.737,0,1.28,0.249,1.695,0.663c0.506,0.508,0.801,1.208,0.801,2.505
				C190.487,278.732,189.4,280.182,187.807,280.182z M187.963,274.154c-0.968,0-1.548,0.707-1.548,1.52
				c0,0.829,0.645,1.419,1.585,1.419c0.985,0,1.603-0.719,1.603-1.465C189.604,274.799,188.931,274.154,187.963,274.154z"/>
			<path fill="#939598" d="M191.924,273.618h0.865v0.047l-0.746,2.46h-0.396L191.924,273.618z"/>
			<path fill="#939598" d="M200.997,280.068h-0.82l-1.474-1.943l-1.482,1.943h-0.792l1.87-2.424l-1.796-2.34h0.811l1.409,1.844
				l1.409-1.844h0.792l-1.806,2.321L200.997,280.068z"/>
			<path fill="#939598" d="M205.952,273.574h0.534v6.496h-0.719v-5.74l-1.217,0.378l-0.176-0.591L205.952,273.574z"/>
			<path fill="#939598" d="M209.248,273.574h0.534v6.496h-0.72v-5.74l-1.215,0.378l-0.175-0.59L209.248,273.574z"/>
			<path fill="#939598" d="M211.587,273.618h0.865v0.047l-0.746,2.46h-0.396L211.587,273.618z"/>
		</g>
		<g>
			<path fill="#939598" d="M203.02,76.68h0.729v5.777h3.631v0.672h-4.357L203.02,76.68L203.02,76.68z"/>
			<path fill="#939598" d="M208.62,77.325v-0.783h0.812v0.783H208.62z M208.666,83.13v-4.763h0.709v4.763H208.666z"/>
			<path fill="#939598" d="M214.553,78.366h0.766l-2.073,4.8h-0.627l-2.063-4.8h0.782l1.603,3.953L214.553,78.366z"/>
			<path fill="#939598" d="M216.448,77.325v-0.783h0.811v0.783H216.448z M216.495,83.13v-4.763h0.709v4.763H216.495z"/>
			<path fill="#939598" d="M219.561,83.13h-0.709v-4.763h0.709v0.829c0.313-0.516,0.812-0.93,1.631-0.93
				c1.151,0,1.826,0.774,1.826,1.908v2.958h-0.709v-2.783c0-0.884-0.479-1.437-1.318-1.437c-0.82,0-1.43,0.599-1.43,1.492V83.13z"/>
			<path fill="#939598" d="M226.637,84.622c-0.793,0-1.529-0.221-2.166-0.663l0.322-0.553c0.544,0.396,1.15,0.608,1.834,0.608
				c1.051,0,1.73-0.58,1.73-1.695v-0.562c-0.414,0.553-0.994,1.004-1.869,1.004c-1.143,0-2.239-0.847-2.239-2.239
				c0-1.399,1.104-2.258,2.239-2.258c0.894,0,1.473,0.442,1.859,0.958v-0.856h0.709V82.3
				C229.059,83.839,228.102,84.622,226.637,84.622z M226.626,78.892c-0.901,0-1.649,0.617-1.649,1.612
				c0,0.977,0.767,1.631,1.649,1.631c0.901,0,1.75-0.645,1.75-1.621C228.376,79.527,227.527,78.892,226.626,78.892z"/>
			<path fill="#939598" d="M234.584,75.778l-4.273,8.531h-0.654l4.273-8.531H234.584z"/>
			<path fill="#939598" d="M237.68,83.13h-2.238v-6.45h2.238c2.026,0,3.428,1.391,3.428,3.216
				C241.105,81.719,239.706,83.13,237.68,83.13z M237.68,77.353h-1.512v5.104h1.512c1.631,0,2.672-1.105,2.672-2.543
				S239.311,77.353,237.68,77.353z"/>
			<path fill="#939598" d="M242.542,77.325v-0.783h0.812v0.783H242.542z M242.587,83.13v-4.763h0.709v4.763H242.587z"/>
			<path fill="#939598" d="M245.654,83.13h-0.709v-4.763h0.709v0.829c0.312-0.516,0.812-0.93,1.631-0.93
				c1.15,0,1.824,0.774,1.824,1.908v2.958H248.4v-2.783c0-0.884-0.479-1.437-1.317-1.437c-0.819,0-1.429,0.599-1.429,1.492V83.13z"
				/>
			<path fill="#939598" d="M250.639,77.325v-0.783h0.812v0.783H250.639z M250.686,83.13v-4.763h0.709v4.763H250.686z"/>
			<path fill="#939598" d="M253.75,83.13h-0.709v-4.763h0.709v0.829c0.312-0.516,0.812-0.93,1.631-0.93
				c1.152,0,1.826,0.774,1.826,1.908v2.958h-0.711v-2.783c0-0.884-0.479-1.437-1.316-1.437c-0.82,0-1.43,0.599-1.43,1.492V83.13z"/>
			<path fill="#939598" d="M260.824,84.622c-0.791,0-1.529-0.221-2.164-0.663l0.32-0.553c0.543,0.396,1.149,0.608,1.834,0.608
				c1.051,0,1.731-0.58,1.731-1.695v-0.562c-0.414,0.553-0.995,1.004-1.871,1.004c-1.143,0-2.237-0.847-2.237-2.239
				c0-1.399,1.104-2.258,2.237-2.258c0.896,0,1.474,0.442,1.861,0.958v-0.856h0.709V82.3
				C263.248,83.839,262.291,84.622,260.824,84.622z M260.814,78.892c-0.902,0-1.648,0.617-1.648,1.612
				c0,0.977,0.768,1.631,1.648,1.631c0.903,0,1.752-0.645,1.752-1.621C262.566,79.527,261.718,78.892,260.814,78.892z"/>
			<path fill="#939598" d="M272.156,83.13l-1.871-2.506h-1.844v2.506h-0.729v-6.45h2.772c1.418,0,2.33,0.765,2.33,1.925
				c0,1.078-0.737,1.705-1.75,1.89l1.979,2.635H272.156z M270.432,77.353h-1.988v2.616h1.979c0.969,0,1.66-0.497,1.66-1.336
				C272.08,77.832,271.475,77.353,270.432,77.353z"/>
			<path fill="#939598" d="M276.336,83.241c-1.43,0-2.469-1.124-2.469-2.478c0-1.355,1.049-2.498,2.486-2.498
				c1.43,0,2.479,1.124,2.479,2.479C278.832,82.097,277.771,83.241,276.336,83.241z M276.336,78.892c-1.031,0-1.74,0.819-1.74,1.853
				c0,1.032,0.756,1.86,1.76,1.86c1.031,0,1.75-0.82,1.75-1.842C278.104,79.721,277.34,78.892,276.336,78.892z"/>
			<path fill="#939598" d="M282.285,83.241c-1.43,0-2.471-1.124-2.471-2.478c0-1.355,1.053-2.498,2.487-2.498
				c1.431,0,2.479,1.124,2.479,2.479C284.781,82.097,283.725,83.241,282.285,83.241z M282.285,78.892
				c-1.033,0-1.742,0.819-1.742,1.853c0,1.032,0.756,1.86,1.762,1.86c1.033,0,1.75-0.82,1.75-1.842
				C284.055,79.721,283.291,78.892,282.285,78.892z"/>
			<path fill="#939598" d="M291.518,78.264c1.096,0,1.769,0.737,1.769,1.917v2.949h-0.709v-2.783c0-0.921-0.459-1.437-1.231-1.437
				c-0.722,0-1.318,0.534-1.318,1.474v2.746h-0.699v-2.801c0-0.894-0.471-1.418-1.227-1.418s-1.328,0.626-1.328,1.501v2.718h-0.707
				v-4.763h0.707v0.802c0.313-0.47,0.738-0.903,1.539-0.903c0.772,0,1.271,0.415,1.528,0.949
				C290.18,78.688,290.686,78.264,291.518,78.264z"/>
			<path fill="#939598" d="M220.077,89.605l-0.534-0.387c0.58-0.866,1.189-1.373,2.322-1.373c1.17,0,2,0.774,2,1.834
				c0,0.95-0.498,1.53-1.633,2.516l-1.724,1.529h3.419v0.663h-4.506v-0.562l2.342-2.064c0.984-0.884,1.344-1.381,1.344-2.026
				c0-0.755-0.599-1.235-1.299-1.235C221.073,88.5,220.593,88.887,220.077,89.605z"/>
			<path fill="#939598" d="M225.596,89.605l-0.535-0.387c0.58-0.866,1.189-1.373,2.321-1.373c1.171,0,2,0.774,2,1.834
				c0,0.95-0.497,1.53-1.63,2.516l-1.725,1.529h3.418v0.663h-4.504v-0.562l2.341-2.065c0.985-0.884,1.345-1.381,1.345-2.026
				c0-0.755-0.6-1.235-1.299-1.235C226.589,88.5,226.109,88.887,225.596,89.605z"/>
			<path fill="#939598" d="M230.891,87.938h0.865v0.045l-0.744,2.461h-0.396L230.891,87.938z"/>
			<path fill="#939598" d="M234.99,94.498c-0.838,0-1.447-0.341-1.991-0.792l0.426-0.562c0.524,0.461,1.013,0.691,1.584,0.691
				c1.16,0,1.943-1.18,1.917-2.829c-0.351,0.562-0.931,1.031-1.824,1.031c-1.326,0-2.248-0.838-2.248-2.007
				c0-1.235,0.949-2.203,2.32-2.203c0.737,0,1.28,0.249,1.695,0.663c0.506,0.507,0.801,1.207,0.801,2.507
				C237.669,93.052,236.583,94.498,234.99,94.498z M235.146,88.472c-0.967,0-1.547,0.709-1.547,1.521
				c0,0.83,0.645,1.419,1.584,1.419c0.984,0,1.603-0.719,1.603-1.466C236.786,89.117,236.111,88.472,235.146,88.472z"/>
			<path fill="#939598" d="M239.105,87.938h0.855v0.045l-0.746,2.461h-0.387L239.105,87.938z M240.911,87.938h0.849v0.045
				l-0.746,2.461h-0.387L240.911,87.938z"/>
			<path fill="#939598" d="M249.977,94.388h-0.819l-1.474-1.943l-1.484,1.943h-0.792l1.87-2.424l-1.795-2.34h0.811l1.409,1.842
				l1.409-1.842h0.791l-1.807,2.322L249.977,94.388z"/>
			<path fill="#939598" d="M253.896,88.592v-0.654h4.119v0.534l-2.027,2.249c1.135,0.092,2.129,0.635,2.129,1.823
				c0,1.162-0.959,1.954-2.154,1.954c-1.08,0-1.881-0.47-2.404-1.151l0.523-0.47c0.498,0.607,1.098,0.959,1.891,0.959
				c0.783,0,1.408-0.498,1.408-1.262c0-0.811-0.736-1.254-1.805-1.254h-0.414l-0.148-0.434l2.035-2.294H253.896L253.896,88.592z"/>
			<path fill="#939598" d="M259.838,89.605l-0.531-0.387c0.579-0.866,1.188-1.373,2.32-1.373c1.17,0,2,0.774,2,1.834
				c0,0.95-0.498,1.53-1.631,2.516l-1.725,1.529h3.42v0.663h-4.506v-0.562l2.34-2.064c0.985-0.884,1.346-1.381,1.346-2.026
				c0-0.755-0.602-1.235-1.301-1.235C260.834,88.5,260.354,88.887,259.838,89.605z"/>
			<path fill="#939598" d="M265.133,87.938h0.869v0.045l-0.746,2.461h-0.396L265.133,87.938z"/>
			<path fill="#939598" d="M269.807,94.498c-1.668,0-2.719-1.511-2.719-3.326c0-1.814,1.068-3.345,2.736-3.345
				c1.656,0,2.707,1.512,2.707,3.326S271.463,94.498,269.807,94.498z M269.807,88.49c-1.207,0-1.963,1.235-1.963,2.663
				c0,1.429,0.773,2.682,1.98,2.682s1.953-1.244,1.953-2.663C271.777,89.752,271.014,88.49,269.807,88.49z"/>
			<path fill="#939598" d="M273.979,87.938h0.855v0.045l-0.746,2.461h-0.387L273.979,87.938z M275.783,87.938h0.848v0.045
				l-0.745,2.461h-0.388L275.783,87.938z"/>
		</g>
		<g>
			<path fill="#939598" d="M183.583,430.789c0,0.848-0.516,1.281-1.022,1.503c0.765,0.229,1.382,0.672,1.382,1.564
				c0,1.113-0.93,1.771-2.34,1.771h-2.866v-6.449h2.746C182.755,429.177,183.583,429.804,183.583,430.789z M182.848,430.891
				c0-0.646-0.507-1.06-1.429-1.06h-1.962v2.221h1.907C182.239,432.052,182.848,431.655,182.848,430.891z M183.207,433.812
				c0-0.71-0.59-1.114-1.714-1.114h-2.036v2.273h2.165C182.599,434.972,183.207,434.539,183.207,433.812z"/>
			<path fill="#939598" d="M187.37,435.12c0.654,0,1.114-0.27,1.501-0.673l0.442,0.396c-0.479,0.534-1.06,0.896-1.962,0.896
				c-1.308,0-2.377-1.003-2.377-2.487c0-1.382,0.967-2.487,2.285-2.487c1.409,0,2.22,1.123,2.22,2.523c0,0.062,0,0.139-0.01,0.222
				h-3.777C185.793,434.539,186.531,435.12,187.37,435.12z M188.761,432.982c-0.073-0.866-0.571-1.621-1.52-1.621
				c-0.83,0-1.455,0.689-1.549,1.621H188.761z"/>
			<path fill="#939598" d="M194.544,435.626v-0.959c-0.387,0.572-0.948,1.06-1.823,1.06c-1.144,0-2.276-0.9-2.276-2.478
				c0-1.567,1.133-2.488,2.276-2.488c0.884,0,1.455,0.479,1.823,1.014v-2.875h0.71v6.727H194.544L194.544,435.626z M192.851,431.397
				c-0.921,0-1.678,0.683-1.678,1.844c0,1.132,0.774,1.852,1.678,1.852c0.884,0,1.724-0.735,1.724-1.852
				C194.573,432.135,193.733,431.397,192.851,431.397z"/>
			<path fill="#939598" d="M197.546,435.626h-0.709v-4.763h0.709v1.242c0.35-0.789,1.041-1.362,1.943-1.325v0.765h-0.055
				c-1.042,0-1.89,0.746-1.89,2.184L197.546,435.626L197.546,435.626z"/>
			<path fill="#939598" d="M202.539,435.737c-1.428,0-2.47-1.124-2.47-2.479c0-1.354,1.05-2.495,2.488-2.495
				c1.43,0,2.479,1.123,2.479,2.479C205.036,434.596,203.977,435.737,202.539,435.737z M202.539,431.388
				c-1.031,0-1.741,0.821-1.741,1.854s0.757,1.859,1.761,1.859c1.03,0,1.75-0.818,1.75-1.843
				C204.309,432.218,203.543,431.388,202.539,431.388z"/>
			<path fill="#939598" d="M208.488,435.737c-1.428,0-2.469-1.124-2.469-2.479c0-1.354,1.049-2.495,2.486-2.495
				c1.43,0,2.479,1.123,2.479,2.479C210.984,434.595,209.927,435.737,208.488,435.737z M208.488,431.388
				c-1.031,0-1.74,0.821-1.74,1.854s0.755,1.859,1.759,1.859c1.032,0,1.75-0.818,1.75-1.843
				C210.258,432.218,209.494,431.388,208.488,431.388z"/>
			<path fill="#939598" d="M217.719,430.763c1.098,0,1.77,0.736,1.77,1.915v2.948h-0.709v-2.782c0-0.921-0.459-1.437-1.234-1.437
				c-0.718,0-1.318,0.532-1.318,1.473v2.746h-0.699v-2.801c0-0.896-0.469-1.418-1.226-1.418c-0.755,0-1.325,0.626-1.325,1.501v2.718
				h-0.709v-4.763h0.709v0.802c0.312-0.47,0.735-0.902,1.537-0.902c0.773,0,1.271,0.412,1.53,0.948
				C216.383,431.188,216.891,430.763,217.719,430.763z"/>
			<path fill="#939598" d="M185.435,440.389h0.534v6.496h-0.719v-5.738l-1.216,0.378l-0.176-0.591L185.435,440.389z"/>
			<path fill="#939598" d="M188.732,440.389h0.534v6.496h-0.719v-5.738l-1.216,0.378l-0.175-0.591L188.732,440.389z"/>
			<path fill="#939598" d="M191.072,440.434h0.865v0.048l-0.746,2.459h-0.396L191.072,440.434z"/>
			<path fill="#939598" d="M200.145,446.884h-0.82l-1.474-1.941l-1.482,1.941h-0.792l1.87-2.424l-1.796-2.339h0.811l1.409,1.843
				l1.409-1.843h0.792l-1.806,2.322L200.145,446.884z"/>
			<path fill="#939598" d="M205.1,440.389h0.534v6.496h-0.719v-5.738l-1.216,0.378l-0.176-0.591L205.1,440.389z"/>
			<path fill="#939598" d="M207.66,440.434h3.713v0.675h-3.078l-0.138,2.062c0.378-0.166,0.737-0.286,1.272-0.286
				c1.252,0,2.229,0.747,2.229,1.981c0,1.271-0.959,2.129-2.305,2.129c-0.92,0-1.724-0.443-2.303-1.023l0.479-0.523
				c0.562,0.544,1.18,0.885,1.835,0.885c0.921,0,1.557-0.608,1.557-1.438c0-0.812-0.653-1.361-1.604-1.361
				c-0.543,0-0.977,0.166-1.354,0.367l-0.488-0.321L207.66,440.434z"/>
			<path fill="#939598" d="M213.076,440.434h0.865v0.048l-0.746,2.459h-0.396L213.076,440.434z"/>
		</g>
		<g>
			<path fill="#939598" d="M297.479,239.198h-0.914l-2.479-3.124l-1.373,1.391v1.731h-0.729v-6.449h0.729v3.851l3.703-3.851h0.939
				l-2.765,2.819L297.479,239.198z"/>
			<path fill="#939598" d="M298.508,233.393v-0.783h0.812v0.783H298.508z M298.555,239.198v-4.763h0.709v4.763H298.555z"/>
			<path fill="#939598" d="M301.869,237.843c0,0.581,0.322,0.792,0.803,0.792c0.238,0,0.441-0.046,0.689-0.166v0.608
				c-0.248,0.129-0.516,0.202-0.855,0.202c-0.766,0-1.346-0.377-1.346-1.344v-2.875h-0.662v-0.626h0.662v-1.437h0.709v1.437h1.512
				v0.626h-1.512V237.843z"/>
			<path fill="#939598" d="M306.643,239.309c-1.391,0-2.44-1.133-2.44-2.478c0-1.355,1.051-2.498,2.44-2.498
				c0.902,0,1.465,0.378,1.906,0.848l-0.469,0.498c-0.379-0.396-0.803-0.719-1.447-0.719c-0.969,0-1.703,0.82-1.703,1.853
				c0,1.041,0.756,1.86,1.75,1.86c0.607,0,1.076-0.303,1.455-0.709l0.451,0.425C308.105,238.922,307.535,239.309,306.643,239.309z"
				/>
			<path fill="#939598" d="M310.463,239.198h-0.709v-6.726h0.709v2.792c0.312-0.516,0.812-0.931,1.633-0.931
				c1.15,0,1.824,0.774,1.824,1.908v2.958h-0.711v-2.783c0-0.884-0.479-1.437-1.316-1.437c-0.819,0-1.43,0.599-1.43,1.492V239.198z"
				/>
			<path fill="#939598" d="M317.527,238.691c0.654,0,1.115-0.268,1.504-0.672l0.441,0.396c-0.479,0.534-1.06,0.894-1.963,0.894
				c-1.308,0-2.377-1.004-2.377-2.488c0-1.382,0.969-2.488,2.284-2.488c1.41,0,2.222,1.124,2.222,2.525c0,0.065,0,0.138-0.011,0.221
				h-3.776C315.953,238.11,316.689,238.691,317.527,238.691z M318.92,236.554c-0.072-0.866-0.57-1.622-1.52-1.622
				c-0.83,0-1.457,0.691-1.549,1.622H318.92z"/>
			<path fill="#939598" d="M321.59,239.198h-0.709v-4.763h0.709v0.829c0.312-0.516,0.811-0.931,1.633-0.931
				c1.15,0,1.822,0.774,1.822,1.908v2.958h-0.709v-2.783c0-0.884-0.479-1.437-1.316-1.437c-0.819,0-1.43,0.599-1.43,1.492V239.198
				L321.59,239.198z"/>
		</g>
	</g>
</g>
</svg>
