<?xml version="1.0" encoding="utf-8"?>
<!-- Generator: Adobe Illustrator 15.0.2, SVG Export Plug-In . SVG Version: 6.00 Build 0)  -->
<!DOCTYPE svg PUBLIC "-//W3C//DTD SVG 1.1//EN" "http://www.w3.org/Graphics/SVG/1.1/DTD/svg11.dtd">
<svg version="1.1" id="Layer_1" xmlns="http://www.w3.org/2000/svg" xmlns:xlink="http://www.w3.org/1999/xlink" x="0px" y="0px"
	 width="500px" height="500px" viewBox="-106.833 -39.081 500 500" enable-background="new -106.833 -39.081 500 500"
	 xml:space="preserve">
<g id="_x32_0_x25___PMS_2985_fill" display="none">
	<path display="inline" fill="none" d="M2.168,251.757v165.398l229.5,0.191v-29.307c0,0,27.5,2,27.5,0s0-268,0-268l24.576-25.5
		v-95.5H89.668v253L2.168,251.757z"/>
</g>
<g>
	<g id="_x32_0_x25__grey_fill">
		<rect x="-20.521" y="263.485" fill="#D1D3D4" width="23.384" height="5.912"/>
		<rect x="270.613" y="173.074" fill="#D1D3D4" width="7.015" height="190.379"/>
		<rect x="80.907" y="63.548" fill="#D1D3D4" width="7.016" height="60.507"/>
		<polygon fill="#D1D3D4" points="271.782,93.948 271.782,136.625 278.505,136.625 278.505,107.102 290.781,94.533 		"/>
		<polyline fill="#D1D3D4" points="63.369,261.731 63.369,268.747 88.508,268.747 88.508,213.793 81.2,213.793 81.2,262.608 
			64.246,262.608 		"/>
	</g>
	<g id="icons">
		<polygon fill="#FFFFFF" stroke="#939598" points="247.042,271.465 247.067,339.829 173.089,339.924 173.089,362.869 
			269.646,362.799 269.57,257.296 247.042,257.296 247.042,259.1 		"/>
		<g>
			<g>
				<rect x="247.933" y="365.126" fill="#FFFFFF" stroke="#939598" width="27.623" height="53.426"/>
				<path fill="#FFFFFF" stroke="#939598" d="M261.743,391.84"/>
				<path fill="#FFFFFF" stroke="#939598" d="M261.743,392.023"/>
				<path fill="#FFFFFF" stroke="#939598" d="M261.743,410.137"/>
			</g>
			<circle fill="#FFFFFF" stroke="#939598" cx="261.872" cy="406.376" r="1.132"/>
			<path fill="#FFFFFF" stroke="#939598" d="M261.826,368.178c-7.916,0-10.815,1.824-10.815,4.386c0,0,0,38.396,0,39.023
				c0,0.625,0.17,1.918,1.826,1.918c1.658,0,8.989,0,8.989,0h0.02c0,0,7.331,0,8.989,0c1.656,0,1.826-1.293,1.826-1.918
				c0-0.628,0-38.998,0-38.998l-0.002-0.025C272.659,370.004,269.694,368.178,261.826,368.178z"/>
			<path fill="#FFFFFF" stroke="#939598" d="M259.498,415.492c0.002-0.642-0.515-1.155-1.163-1.155
				c-0.628,0-1.148,0.514-1.153,1.155c0.005,0.638,0.525,1.165,1.153,1.165C258.983,416.657,259.5,416.136,259.498,415.492z"/>
			<path fill="#FFFFFF" stroke="#939598" d="M266.679,415.492c0.007-0.642-0.521-1.155-1.157-1.155
				c-0.635,0-1.158,0.514-1.158,1.155c0,0.638,0.523,1.165,1.158,1.156C266.158,416.657,266.679,416.129,266.679,415.492z"/>
			<path fill="#FFFFFF" stroke="#939598" d="M260.314,415.834c0,0.95,0.642,1.717,1.592,1.72c0.945-0.003,1.464-0.77,1.464-1.72
				l-0.608-6.538c0-0.642-1.732-0.642-1.732,0L260.314,415.834z"/>
		</g>
		<g>
			<polygon fill="none" stroke="#A7A9AC" points="172.845,371.996 172.856,373.948 200.704,373.966 200.693,372.014 			"/>
			<path fill="none" stroke="#A7A9AC" d="M200.717,372.893c-0.521,15.335-13.126,27.34-28.457,26.816"/>
		</g>
		<polyline fill="#FFFFFF" stroke="#A7A9AC" points="211.343,454.359 211.343,430.829 248.125,430.829 248.125,452.167 		"/>
		<g>
			<path fill="#FFFFFF" stroke="#939598" stroke-miterlimit="10" d="M199.171,436.812c0-5.218-3.17-10.964-7.077-10.964
				s-7.063,5.746-7.063,10.964s3.156,7.934,7.063,7.934S199.171,442.03,199.171,436.812"/>
			<path fill="#FFFFFF" stroke="#939598" d="M199.171,436.812c0-5.218-3.17-10.964-7.077-10.964s-7.063,5.746-7.063,10.964
				s3.156,7.934,7.063,7.934S199.171,442.03,199.171,436.812z"/>
			<path fill="#FFFFFF" stroke="#939598" stroke-miterlimit="10" d="M187.86,443.035c0-0.292-0.24-0.532-0.533-0.532h-2.463
				c-0.293,0-0.532,0.24-0.532,0.532v0.089c0,0.292,0.239,0.532,0.532,0.532h2.463c0.293,0,0.533-0.24,0.533-0.532V443.035z"/>
			<path fill="#FFFFFF" stroke="#939598" d="M187.86,443.035c0-0.292-0.24-0.532-0.533-0.532h-2.463
				c-0.293,0-0.532,0.24-0.532,0.532v0.089c0,0.292,0.239,0.532,0.532,0.532h2.463c0.293,0,0.533-0.24,0.533-0.532V443.035z"/>
			<path fill="#FFFFFF" stroke="#939598" stroke-miterlimit="10" d="M183.957,443.669c-0.888,0-1.607,2.404-1.607,3.293
				c0,0.899,0.72,3.303,1.607,3.303h16.151c0.888,0,1.607-2.405,1.607-3.303c0-0.889-0.72-3.291-1.607-3.291L183.957,443.669z"/>
			<path fill="#FFFFFF" stroke="#939598" d="M183.957,443.669c-0.888,0-1.607,2.404-1.607,3.293c0,0.899,0.72,3.303,1.607,3.303
				h16.151c0.888,0,1.607-2.405,1.607-3.303c0-0.889-0.72-3.291-1.607-3.291L183.957,443.669z"/>
			<path fill="#FFFFFF" stroke="#939598" stroke-miterlimit="10" d="M197.297,436.592c0-3.834-2.328-8.059-5.201-8.059
				s-5.199,4.225-5.199,8.059s2.326,5.828,5.199,5.828S197.297,440.426,197.297,436.592"/>
			<path fill="#FFFFFF" stroke="#939598" d="M197.297,436.592c0-3.834-2.328-8.059-5.201-8.059s-5.199,4.225-5.199,8.059
				s2.326,5.828,5.199,5.828S197.297,440.426,197.297,436.592z"/>
		</g>
		<g>
			<g>
				<g>
					<path fill="none" stroke="#A7A9AC" d="M228.188,439.696"/>
				</g>
				<g>
					<path fill="none" stroke="#A7A9AC" d="M228.188,440.939"/>
				</g>
				<g>
					<circle fill="none" stroke="#A7A9AC" cx="228.188" cy="439.695" r="1.188"/>
					<path fill="none" stroke="#A7A9AC" d="M228.188,439.696"/>
				</g>
				<g>
					<g>
						<rect x="223.2" y="447.15" fill="none" stroke="#A7A9AC" width="10" height="2.484"/>
						<path fill="none" stroke="#A7A9AC" d="M228.188,448.392"/>
					</g>
					<g>
						<rect x="227.658" y="442.327" fill="none" stroke="#A7A9AC" width="1.059" height="4.713"/>
						<path fill="none" stroke="#A7A9AC" d="M228.188,445.085"/>
					</g>
					<g>
						<circle fill="none" stroke="#A7A9AC" cx="228.188" cy="448.367" r="1.153"/>
						<path fill="none" stroke="#A7A9AC" d="M228.188,448.367"/>
					</g>
				</g>
			</g>
			<g>
				<rect x="218.216" y="433.792" fill="none" stroke="#A7A9AC" width="19.966" height="16.223"/>
				<rect x="219.846" y="435.421" fill="none" stroke="#A7A9AC" width="16.667" height="11.669"/>
			</g>
		</g>
		<g>
			<g>
				<rect x="144.407" y="427.331" fill="#FFFFFF" stroke="#939598" width="23.604" height="21.681"/>
				<path fill="none" stroke="#939598" d="M156.206,437.452"/>
				<line fill="none" stroke="#939598" x1="144.368" y1="445.563" x2="168.045" y2="445.563"/>
				<line fill="none" stroke="#939598" x1="144.407" y1="446.585" x2="168.009" y2="446.585"/>
				<polygon fill="none" stroke="#939598" points="163.368,442.957 163.368,432.325 160.52,429.73 151.786,429.73 148.898,432.325 
					148.898,442.957 				"/>
				<path fill="none" stroke="#939598" d="M156.135,436.343"/>
			</g>
		</g>
		<g>
			<g>
				<rect x="116.83" y="427.331" fill="#FFFFFF" stroke="#939598" width="23.604" height="21.681"/>
				<path fill="none" stroke="#939598" d="M128.63,437.452"/>
				<line fill="none" stroke="#939598" x1="116.792" y1="445.563" x2="140.469" y2="445.563"/>
				<line fill="none" stroke="#939598" x1="116.83" y1="446.585" x2="140.433" y2="446.585"/>
				<g>
					<rect x="137.691" y="426.234" fill="none" stroke="#939598" width="1.023" height="1.023"/>
					<path fill="none" stroke="#939598" d="M138.204,426.746"/>
				</g>
			</g>
		</g>
		
			<line fill="none" stroke="#A7A9AC" stroke-dasharray="1.5,1.5,1.5,1.5,1.5,1.5" x1="160.999" y1="437.406" x2="174.736" y2="437.406"/>
		
			<line fill="none" stroke="#A7A9AC" stroke-dasharray="1.5,1.5,1.5,1.5,1.5,1.5" x1="132.646" y1="437.406" x2="151.06" y2="437.406"/>
		
			<line fill="none" stroke="#A7A9AC" stroke-dasharray="1.5,1.5,1.5,1.5,1.5,1.5" x1="110.138" y1="437.406" x2="125.338" y2="437.406"/>
		<g>
			<path fill="#939598" d="M156.313,434.355h0.532l1.572,4.791l1.637-4.773h0.681l-2.047,5.773h-0.55l-1.572-4.652l-1.581,4.652
				h-0.539l-2.049-5.773h0.705l1.638,4.773L156.313,434.355z"/>
		</g>
		<g>
			<path fill="#939598" d="M128.14,440.103h-1.99v-5.73h1.99c1.802,0,3.045,1.235,3.045,2.857
				C131.185,438.851,129.941,440.103,128.14,440.103z M128.14,434.969h-1.344v4.535h1.344c1.448,0,2.375-0.982,2.375-2.259
				C130.515,435.966,129.589,434.969,128.14,434.969z"/>
		</g>
		<g>
			<polygon fill="none" stroke="#A7A9AC" points="0.255,427.503 2.207,427.517 2.226,399.668 0.222,399.653 			"/>
			<path fill="none" stroke="#A7A9AC" d="M1.077,399.632c15.333,0.521,27.34,13.199,26.817,28.531"/>
		</g>
		<g>
			<polygon fill="none" stroke="#A7A9AC" points="118.186,363.708 120.139,363.724 120.155,335.875 118.152,335.862 			"/>
			<path fill="none" stroke="#A7A9AC" d="M119.008,335.839c15.333,0.521,27.34,13.199,26.817,28.531"/>
		</g>
		<g>
			<polygon fill="none" stroke="#A7A9AC" points="86.723,427.503 84.77,427.517 84.751,399.668 86.755,399.653 			"/>
			<path fill="none" stroke="#A7A9AC" d="M85.9,399.632c-15.333,0.521-27.34,13.199-26.817,28.531"/>
		</g>
		<g>
			<polygon fill="none" stroke="#A7A9AC" points="227.979,89.661 227.99,87.806 254.446,87.788 254.437,89.644 			"/>
			<path fill="none" stroke="#A7A9AC" d="M254.457,88.807c-0.496-14.566-12.469-25.973-27.033-25.475"/>
		</g>
		<g>
			<polygon fill="none" stroke="#A7A9AC" points="278.78,141.579 278.771,143.433 252.315,143.451 252.324,141.594 			"/>
			<path fill="none" stroke="#A7A9AC" d="M252.304,142.431c0.495,14.565,12.469,25.973,27.033,25.475"/>
		</g>
		<g>
			<polygon fill="none" stroke="#A7A9AC" points="244.747,196.972 244.738,198.715 220.928,198.658 220.936,196.985 			"/>
			<path fill="none" stroke="#A7A9AC" d="M220.917,197.74c0.446,13.108,11.223,23.375,24.33,22.927"/>
		</g>
		<g>
			<polygon fill="none" stroke="#A7A9AC" points="227.979,20.309 227.99,18.455 254.446,18.436 254.437,20.292 			"/>
			<path fill="none" stroke="#A7A9AC" d="M254.457,19.457C253.961,4.89,241.988-6.642,227.424-6.145"/>
		</g>
		<polyline fill="none" stroke="#A7A9AC" points="228.229,-18.588 293.711,-18.588 293.711,29.057 		"/>
		<path fill="none" stroke="#A7A9AC" stroke-dasharray="1.5,1.5,1.5,1.5,1.5,1.5" d="M228.521-20.927c0.877,0,67.522,0,67.522,0
			v48.23"/>
		<line fill="none" stroke="#A7A9AC" x1="-19.938" y1="439.16" x2="108.092" y2="439.16"/>
		
			<line fill="none" stroke="#A7A9AC" stroke-dasharray="1.5,1.5,1.5,1.5,1.5,1.5" x1="-19.353" y1="441.206" x2="107.508" y2="441.206"/>
		<line fill="none" stroke="#A7A9AC" x1="255.705" y1="194.5" x2="255.705" y2="226.07"/>
		
			<line fill="none" stroke="#A7A9AC" stroke-dasharray="1.5,1.5,1.5,1.5,1.5,1.5" x1="258.469" y1="194.5" x2="258.469" y2="225.485"/>
		<polyline fill="#FFFFFF" stroke="#A7A9AC" points="227.712,27.731 227.712,51.26 269.171,51.26 269.171,29.924 		"/>
		<g>
			<path fill="#FFFFFF" stroke="#939598" stroke-miterlimit="10" d="M295.923,45.019c0,5.217-3.169,10.962-7.076,10.962
				s-7.063-5.745-7.063-10.962c0-5.219,3.156-7.933,7.063-7.933S295.923,39.8,295.923,45.019"/>
			<path fill="#FFFFFF" stroke="#939598" d="M295.923,45.019c0,5.217-3.169,10.962-7.076,10.962s-7.063-5.745-7.063-10.962
				c0-5.219,3.156-7.933,7.063-7.933S295.923,39.8,295.923,45.019z"/>
			<path fill="#FFFFFF" stroke="#939598" stroke-miterlimit="10" d="M284.612,38.796c0,0.292-0.239,0.532-0.532,0.532h-2.464
				c-0.293,0-0.532-0.24-0.532-0.532v-0.09c0-0.293,0.239-0.532,0.532-0.532h2.464c0.293,0,0.532,0.239,0.532,0.532V38.796z"/>
			<path fill="#FFFFFF" stroke="#939598" d="M284.612,38.796c0,0.292-0.239,0.532-0.532,0.532h-2.464
				c-0.293,0-0.532-0.24-0.532-0.532v-0.09c0-0.293,0.239-0.532,0.532-0.532h2.464c0.293,0,0.532,0.239,0.532,0.532V38.796z"/>
			<path fill="#FFFFFF" stroke="#939598" stroke-miterlimit="10" d="M280.709,38.161c-0.887,0-1.607-2.405-1.607-3.293
				c0-0.898,0.721-3.303,1.607-3.303h16.151c0.889,0,1.607,2.405,1.607,3.303c0,0.889-0.719,3.291-1.607,3.291L280.709,38.161z"/>
			<path fill="#FFFFFF" stroke="#939598" d="M280.709,38.161c-0.887,0-1.607-2.405-1.607-3.293c0-0.898,0.721-3.303,1.607-3.303
				h16.151c0.889,0,1.607,2.405,1.607,3.303c0,0.889-0.719,3.291-1.607,3.291L280.709,38.161z"/>
			<path fill="#FFFFFF" stroke="#939598" stroke-miterlimit="10" d="M294.05,45.236c0,3.835-2.329,8.06-5.201,8.06
				c-2.873,0-5.199-4.224-5.199-8.06c0-3.834,2.326-5.828,5.199-5.828C291.721,39.408,294.05,41.403,294.05,45.236"/>
			<path fill="#FFFFFF" stroke="#939598" d="M294.05,45.236c0,3.835-2.329,8.06-5.201,8.06c-2.873,0-5.199-4.224-5.199-8.06
				c0-3.834,2.326-5.828,5.199-5.828C291.721,39.408,294.05,41.403,294.05,45.236z"/>
		</g>
		<g>
			<g>
				<g>
					<path fill="none" stroke="#A7A9AC" d="M250.259,42.661"/>
				</g>
				<g>
					<path fill="none" stroke="#A7A9AC" d="M250.259,41.419"/>
				</g>
				<g>
					<circle fill="none" stroke="#A7A9AC" cx="250.259" cy="42.661" r="1.189"/>
					<path fill="none" stroke="#A7A9AC" d="M250.259,42.661"/>
				</g>
				<g>
					<g>
						<rect x="245.271" y="32.722" fill="none" stroke="#A7A9AC" width="10" height="2.484"/>
						<path fill="none" stroke="#A7A9AC" d="M250.259,33.965"/>
					</g>
					<g>
						<rect x="249.73" y="35.317" fill="none" stroke="#A7A9AC" width="1.058" height="4.713"/>
						<path fill="none" stroke="#A7A9AC" d="M250.259,37.272"/>
					</g>
					<g>
						<circle fill="none" stroke="#A7A9AC" cx="250.259" cy="33.988" r="1.153"/>
						<path fill="none" stroke="#A7A9AC" d="M250.259,33.988"/>
					</g>
				</g>
			</g>
			<g>
				<rect x="240.287" y="32.342" fill="none" stroke="#A7A9AC" width="19.966" height="16.223"/>
				<rect x="241.917" y="35.265" fill="none" stroke="#A7A9AC" width="16.667" height="11.669"/>
			</g>
		</g>
		<g>
			<polygon fill="none" stroke="#939598" points="219.816,98.764 217.864,98.778 217.845,70.93 219.823,70.915 			"/>
			<path fill="none" stroke="#939598" d="M218.895,70.894c-15.332,0.52-27.341,13.198-26.818,28.531"/>
		</g>
		<g>
			<g>
				<g>
					<rect x="230.209" y="96.126" fill="#FFFFFF" stroke="#A7A9AC" width="38.826" height="32.45"/>
					<path fill="#FFFFFF" stroke="#A7A9AC" d="M249.258,112.325"/>
				</g>
				<g>
					<polyline fill="#FFFFFF" stroke="#A7A9AC" points="266.771,112.009 266.771,99.039 232.536,99.039 232.536,125.661 
						266.771,125.661 266.771,113.207 					"/>
					<path fill="#FFFFFF" stroke="#A7A9AC" d="M249.258,112.325"/>
				</g>
				<line fill="none" stroke="#A7A9AC" x1="266.771" y1="125.661" x2="250.482" y2="113.221"/>
				<line fill="none" stroke="#A7A9AC" x1="248.072" y1="111.382" x2="232.536" y2="99.039"/>
				<line fill="none" stroke="#A7A9AC" x1="232.536" y1="125.661" x2="247.933" y2="113.342"/>
				<line fill="none" stroke="#A7A9AC" x1="250.524" y1="111.348" x2="266.771" y2="99.039"/>
				<g>
					<path fill="#FFFFFF" stroke="#A7A9AC" d="M249.258,110.937c-0.793,0-1.438,0.777-1.438,1.389c0,0.609,0.645,1.292,1.438,1.292
						c0.792,0,1.437-0.683,1.437-1.292C250.694,111.714,250.05,110.937,249.258,110.937z"/>
					<path fill="#FFFFFF" stroke="#A7A9AC" d="M249.258,112.325"/>
				</g>
			</g>
			<path fill="#FFFFFF" stroke="#A7A9AC" d="M264.653,110.98c-0.817,0-0.817,2.956,0,2.956c0.818,0,1.478-0.662,1.478-1.479
				S265.472,110.98,264.653,110.98z"/>
			<polyline fill="#FFFFFF" stroke="#A7A9AC" points="269.05,112.763 266.222,112.763 266.222,111.939 269.052,111.939 			"/>
		</g>
		<g>
			<polygon fill="none" stroke="#939598" points="109.027,407.522 109.861,405.864 86.294,393.843 85.461,395.501 			"/>
			<path fill="none" stroke="#939598" d="M85.822,394.743c4.629-8.371,13.05-13.285,21.896-13.679"/>
		</g>
		<g>
			<g>
				<path fill="#FFFFFF" stroke="#939598" d="M267.088,275.209c0-0.499-0.402-0.902-0.902-0.902h-15.721
					c-0.497,0-0.9,0.405-0.9,0.902v26.665c0,0.499,0.405,0.901,0.9,0.901h15.721c0.5,0,0.902-0.402,0.902-0.901V275.209
					L267.088,275.209z"/>
				<path fill="#FFFFFF" stroke="#939598" d="M259.006,288.447"/>
			</g>
			<g>
				<circle fill="#FFFFFF" stroke="#939598" cx="257.94" cy="288.447" r="1.019"/>
				<path fill="#FFFFFF" stroke="#939598" d="M257.942,288.447"/>
			</g>
			<g>
				<g>
					<rect x="264.333" y="283.999" fill="#FFFFFF" stroke="#939598" width="2.128" height="8.896"/>
					<path fill="#FFFFFF" stroke="#939598" d="M265.397,288.447"/>
				</g>
				<g>
					<rect x="260.196" y="287.993" fill="#FFFFFF" stroke="#939598" width="4.192" height="0.907"/>
					<path fill="#FFFFFF" stroke="#939598" d="M262.563,288.447"/>
				</g>
				<g>
					<circle fill="#FFFFFF" stroke="#939598" cx="265.375" cy="288.446" r="0.991"/>
					<path fill="#FFFFFF" stroke="#939598" d="M265.375,288.447"/>
				</g>
			</g>
			<g>
				<path fill="#FFFFFF" stroke="#939598" d="M257.942,288.447"/>
				<path fill="none" stroke="#939598" d="M263.598,287.897v-11.211c0-0.522-0.424-0.948-0.946-0.948H251.87
					c-0.521,0-0.946,0.423-0.946,0.948v23.71c0,0.523,0.423,0.949,0.946,0.949h10.781c0.522,0,0.946-0.425,0.946-0.949v-11.373"/>
			</g>
		</g>
		<g>
			<polyline fill="none" stroke="#939598" stroke-dasharray="1.5,1,1.5,1,1.5,1" points="245.777,326.647 266.67,326.647 
				266.67,306.157 246.247,306.157 			"/>
			<polyline fill="#FFFFFF" stroke="#939598" points="246.247,306.125 245.005,306.125 245.005,326.647 245.77,326.647 			"/>
		</g>
		<g>
			<g>
				<rect x="242.262" y="226.979" fill="#FFFFFF" stroke="#939598" width="25.687" height="29.116"/>
				<path fill="#FFFFFF" stroke="#939598" d="M255.104,240.03"/>
			</g>
			<line fill="none" stroke="#939598" x1="244.057" y1="256.164" x2="244.057" y2="226.979"/>
			<rect x="240.991" y="229.408" fill="#FFFFFF" stroke="#939598" width="1.251" height="2.36"/>
			<path fill="#FFFFFF" stroke="#939598" d="M241.688,230.589"/>
		</g>
		<line fill="none" stroke="#939598" x1="247.042" y1="272.635" x2="269.542" y2="272.635"/>
		<g>
			<g>
				<rect x="200.709" y="337.557" fill="#FFFFFF" stroke="#939598" width="27.183" height="23.092"/>
				<path fill="#FFFFFF" stroke="#939598" d="M214.3,349.103"/>
			</g>
			<g>
				<g>
					<circle fill="#FFFFFF" stroke="#939598" cx="208.084" cy="342.671" r="3.302"/>
					<path fill="#FFFFFF" stroke="#939598" d="M208.084,342.671"/>
				</g>
				<g>
					<circle fill="#FFFFFF" stroke="#939598" stroke-width="0.8" cx="208.053" cy="342.673" r="2.326"/>
					<path fill="#FFFFFF" stroke="#939598" d="M208.053,342.671"/>
				</g>
			</g>
			<g>
				<g>
					<circle fill="#FFFFFF" stroke="#939598" cx="221.283" cy="352.317" r="3.302"/>
					<path fill="#FFFFFF" stroke="#939598" d="M221.283,352.318"/>
				</g>
				<g>
					<circle fill="#FFFFFF" stroke="#939598" stroke-width="0.8" cx="221.315" cy="352.319" r="2.326"/>
					<path fill="#FFFFFF" stroke="#939598" d="M221.315,352.318"/>
				</g>
			</g>
			<g>
				<g>
					<circle fill="#FFFFFF" stroke="#939598" cx="208.04" cy="352.286" r="3.764"/>
					<path fill="#FFFFFF" stroke="#939598" d="M208.04,352.286"/>
				</g>
				<g>
					<circle fill="#FFFFFF" stroke="#939598" stroke-width="0.8" cx="208.079" cy="352.286" r="2.651"/>
					<path fill="#FFFFFF" stroke="#939598" d="M208.079,352.286"/>
				</g>
			</g>
			<g>
				<g>
					<circle fill="#FFFFFF" stroke="#939598" cx="221.267" cy="342.418" r="3.763"/>
					<path fill="#FFFFFF" stroke="#939598" d="M221.267,342.418"/>
				</g>
				<g>
					<circle fill="#FFFFFF" stroke="#939598" stroke-width="0.8" cx="221.305" cy="342.418" r="2.651"/>
					<path fill="#FFFFFF" stroke="#939598" d="M221.305,342.418"/>
				</g>
			</g>
			<line fill="none" stroke="#939598" x1="200.673" y1="357.454" x2="227.892" y2="357.454"/>
			<line fill="none" stroke="#939598" x1="200.709" y1="358.73" x2="227.892" y2="358.73"/>
		</g>
		<polyline fill="none" stroke="#A7A9AC" stroke-dasharray="1.5,1.5,1.5,1.5,1.5,1.5" points="258.044,319.808 258.044,349.129 
			172.983,349.129 		"/>
		
			<line fill="none" stroke="#A7A9AC" stroke-dasharray="1.5,1.5,1.5,1.5,1.5,1.5" x1="258.044" y1="246.239" x2="258.044" y2="312.299"/>
		
			<line fill="none" stroke="#A7A9AC" stroke-dasharray="1.5,1.5,1.5,1.5,1.5,1.5" x1="258.044" y1="225.583" x2="258.044" y2="239.417"/>
		<rect x="165.091" y="238.347" fill="#FFFFFF" stroke="#939598" width="27.77" height="67.229"/>
	</g>
	<g id="Type">
		<g>
			<path fill="#939598" d="M205.758,401.758c0,0.968-0.591,1.464-1.17,1.715c0.874,0.265,1.579,0.77,1.579,1.79
				c0,1.272-1.062,2.021-2.671,2.021h-3.275v-7.369h3.139C204.812,399.916,205.758,400.632,205.758,401.758z M204.916,401.875
				c0-0.738-0.58-1.211-1.633-1.211h-2.241v2.538h2.178C204.221,403.202,204.916,402.75,204.916,401.875z M205.326,405.211
				c0-0.812-0.674-1.274-1.958-1.274h-2.326v2.599h2.473C204.631,406.536,205.326,406.042,205.326,405.211z"/>
			<path fill="#939598" d="M207.996,402.884l-0.241-0.662c0.601-0.274,1.189-0.453,1.978-0.453c1.485,0,2.315,0.756,2.315,2.188
				v3.328h-0.778v-0.82c-0.379,0.494-1.011,0.937-1.969,0.937c-1.011,0-2.031-0.568-2.031-1.706c0-1.157,0.948-1.768,2.326-1.768
				c0.694,0,1.189,0.094,1.674,0.231v-0.189c0-0.978-0.601-1.484-1.622-1.484C209.009,402.485,208.503,402.654,207.996,402.884z
				 M208.09,405.664c0,0.696,0.633,1.096,1.37,1.096c0.998,0,1.821-0.612,1.821-1.476v-0.525c-0.4-0.115-0.938-0.23-1.6-0.23
				C208.661,404.526,208.09,404.969,208.09,405.664z"/>
			<path fill="#939598" d="M214.815,405.739c0,0.662,0.37,0.904,0.916,0.904c0.274,0,0.507-0.053,0.791-0.189v0.694
				c-0.284,0.147-0.59,0.232-0.98,0.232c-0.872,0-1.534-0.432-1.534-1.537v-3.283h-0.759v-0.718h0.759v-1.642h0.808v1.642h1.728
				v0.718h-1.728V405.739z"/>
			<path fill="#939598" d="M218.784,407.285h-0.811V399.6h0.811v3.192c0.359-0.591,0.926-1.063,1.863-1.063
				c1.316,0,2.084,0.884,2.084,2.178v3.38h-0.81v-3.179c0-1.012-0.548-1.642-1.504-1.642c-0.939,0-1.634,0.683-1.634,1.703V407.285
				L218.784,407.285z"/>
		</g>
		<g>
			<path fill="#939598" d="M126.098,415.328h0.646v5.134h3.228v0.598h-3.874V415.328L126.098,415.328z"/>
			<path fill="#939598" d="M131.304,417.636l-0.188-0.516c0.466-0.213,0.926-0.353,1.539-0.353c1.154,0,1.802,0.59,1.802,1.704
				v2.587h-0.604v-0.64c-0.296,0.387-0.786,0.729-1.532,0.729c-0.786,0-1.581-0.441-1.581-1.327c0-0.9,0.736-1.375,1.81-1.375
				c0.541,0,0.927,0.073,1.304,0.181v-0.148c0-0.761-0.468-1.153-1.262-1.153C132.089,417.326,131.696,417.456,131.304,417.636z
				 M131.377,419.799c0,0.54,0.491,0.852,1.065,0.852c0.777,0,1.416-0.475,1.416-1.146v-0.409c-0.312-0.091-0.729-0.18-1.244-0.18
				C131.818,418.913,131.377,419.257,131.377,419.799z"/>
			<path fill="#939598" d="M138.803,416.826h0.621v4.233h-0.621v-0.737c-0.287,0.459-0.722,0.827-1.45,0.827
				c-1.022,0-1.621-0.688-1.621-1.695v-2.628h0.631v2.473c0,0.786,0.426,1.279,1.171,1.279c0.72,0,1.27-0.532,1.27-1.329V416.826z"
				/>
			<path fill="#939598" d="M141.469,421.059h-0.631v-4.233h0.631v0.737c0.278-0.459,0.72-0.826,1.449-0.826
				c1.023,0,1.622,0.687,1.622,1.694v2.628h-0.632v-2.473c0-0.786-0.424-1.276-1.17-1.276c-0.729,0-1.27,0.529-1.27,1.326V421.059z"
				/>
			<path fill="#939598" d="M149.278,421.059v-0.852c-0.343,0.507-0.845,0.941-1.622,0.941c-1.016,0-2.023-0.802-2.023-2.201
				c0-1.394,1.008-2.214,2.023-2.214c0.786,0,1.293,0.425,1.622,0.902v-2.556h0.63v5.977h-0.63V421.059z M147.771,417.3
				c-0.82,0-1.49,0.607-1.49,1.638c0,1.007,0.687,1.646,1.49,1.646c0.785,0,1.53-0.658,1.53-1.646
				C149.302,417.957,148.557,417.3,147.771,417.3z"/>
			<path fill="#939598" d="M151.943,421.059h-0.63v-4.233h0.63v1.105c0.312-0.703,0.927-1.213,1.729-1.179v0.679h-0.048
				c-0.925,0-1.681,0.664-1.681,1.941V421.059L151.943,421.059z"/>
			<path fill="#939598" d="M156.69,421.199c-0.359,0.874-0.768,1.194-1.406,1.194c-0.354,0-0.614-0.073-0.902-0.213l0.213-0.5
				c0.206,0.105,0.395,0.155,0.663,0.155c0.377,0,0.614-0.196,0.868-0.794l-1.925-4.216h0.696l1.54,3.527l1.358-3.527h0.672
				L156.69,421.199z"/>
		</g>
		<g>
			<path fill="#939598" d="M32.471,437.415c-1.654,0-2.874-1.302-2.874-2.955c0-1.637,1.212-2.971,2.898-2.971
				c1.039,0,1.663,0.365,2.235,0.906l-0.441,0.476c-0.483-0.459-1.023-0.785-1.802-0.785c-1.269,0-2.22,1.022-2.22,2.358
				s0.958,2.375,2.22,2.375c0.785,0,1.303-0.304,1.851-0.829l0.426,0.418C34.165,437.015,33.51,437.415,32.471,437.415z"/>
			<path fill="#939598" d="M35.842,437.317v-5.977h0.63v5.977H35.842z"/>
			<path fill="#939598" d="M39.868,437.415c-1.269,0-2.194-0.997-2.194-2.201c0-1.206,0.933-2.22,2.211-2.22
				c1.269,0,2.202,0.998,2.202,2.204C42.087,436.401,41.146,437.415,39.868,437.415z M39.868,433.551
				c-0.916,0-1.548,0.728-1.548,1.646c0,0.918,0.672,1.653,1.564,1.653c0.918,0,1.557-0.729,1.557-1.638
				C41.441,434.287,40.762,433.551,39.868,433.551z"/>
			<path fill="#939598" d="M44.623,437.401c-0.604,0-1.277-0.237-1.752-0.623l0.319-0.45c0.458,0.343,0.965,0.541,1.465,0.541
				c0.509,0,0.877-0.262,0.877-0.673v-0.017c0-0.425-0.5-0.589-1.057-0.744c-0.663-0.188-1.4-0.418-1.4-1.197v-0.016
				c0-0.729,0.607-1.21,1.441-1.21c0.516,0,1.089,0.178,1.524,0.463l-0.288,0.476c-0.393-0.254-0.843-0.409-1.253-0.409
				c-0.499,0-0.817,0.263-0.817,0.614v0.016c0,0.402,0.523,0.558,1.089,0.729c0.655,0.195,1.359,0.451,1.359,1.212v0.017
				C46.129,436.933,45.466,437.401,44.623,437.401z"/>
			<path fill="#939598" d="M49.166,436.869c0.581,0,0.99-0.237,1.335-0.598l0.394,0.352c-0.427,0.475-0.941,0.794-1.745,0.794
				c-1.163,0-2.112-0.893-2.112-2.21c0-1.229,0.859-2.213,2.03-2.213c1.252,0,1.974,0.998,1.974,2.244c0,0.058,0,0.122-0.008,0.197
				h-3.358C47.765,436.351,48.42,436.869,49.166,436.869z M50.403,434.969c-0.065-0.771-0.509-1.443-1.352-1.443
				c-0.737,0-1.294,0.614-1.377,1.443H50.403z"/>
			<path fill="#939598" d="M52.995,436.113c0,0.517,0.286,0.706,0.712,0.706c0.213,0,0.394-0.041,0.614-0.148v0.541
				c-0.221,0.114-0.46,0.181-0.762,0.181c-0.681,0-1.195-0.336-1.195-1.196v-2.554h-0.589v-0.56h0.589v-1.276h0.631v1.276h1.342
				v0.56h-1.342V436.113z"/>
		</g>
		<g>
			<path fill="#939598" d="M258.128,2.759c-1.654,0-2.874-1.302-2.874-2.955c0-1.638,1.21-2.972,2.897-2.972
				c1.042,0,1.663,0.367,2.236,0.908l-0.441,0.475c-0.483-0.459-1.023-0.786-1.803-0.786c-1.269,0-2.218,1.023-2.218,2.358
				c0,1.336,0.957,2.375,2.218,2.375c0.787,0,1.303-0.303,1.851-0.828l0.427,0.418C259.821,2.359,259.168,2.759,258.128,2.759z"/>
			<path fill="#939598" d="M261.498,2.662v-5.979h0.631v5.979H261.498z"/>
			<path fill="#939598" d="M265.525,2.759c-1.269,0-2.194-0.997-2.194-2.202c0-1.204,0.934-2.219,2.212-2.219
				c1.269,0,2.202,0.998,2.202,2.202C267.745,1.746,266.804,2.759,265.525,2.759z M265.525-1.104c-0.916,0-1.547,0.729-1.547,1.646
				s0.671,1.654,1.564,1.654c0.917,0,1.556-0.728,1.556-1.636C267.099-0.368,266.419-1.104,265.525-1.104z"/>
			<path fill="#939598" d="M270.281,2.744c-0.605,0-1.277-0.237-1.753-0.622l0.319-0.45c0.459,0.344,0.967,0.54,1.466,0.54
				c0.508,0,0.877-0.262,0.877-0.671V1.524c0-0.426-0.502-0.589-1.058-0.745c-0.661-0.188-1.398-0.417-1.398-1.194v-0.018
				c0-0.729,0.606-1.212,1.44-1.212c0.514,0,1.09,0.18,1.523,0.466l-0.287,0.475c-0.394-0.254-0.843-0.409-1.252-0.409
				c-0.5,0-0.818,0.262-0.818,0.614v0.016c0,0.401,0.524,0.557,1.091,0.729c0.652,0.196,1.357,0.451,1.357,1.212v0.017
				C271.788,2.277,271.123,2.744,270.281,2.744z"/>
			<path fill="#939598" d="M274.825,2.211c0.579,0,0.991-0.237,1.334-0.598l0.394,0.353c-0.427,0.475-0.942,0.793-1.744,0.793
				c-1.162,0-2.113-0.892-2.113-2.21c0-1.229,0.859-2.211,2.031-2.211c1.252,0,1.974,0.998,1.974,2.243c0,0.058,0,0.123-0.009,0.196
				h-3.356C273.423,1.696,274.078,2.211,274.825,2.211z M276.06,0.312c-0.065-0.77-0.509-1.44-1.352-1.44
				c-0.736,0-1.293,0.613-1.375,1.44H276.06z"/>
			<path fill="#939598" d="M278.653,1.458c0,0.516,0.287,0.705,0.711,0.705c0.214,0,0.395-0.041,0.615-0.147v0.54
				c-0.221,0.115-0.459,0.181-0.761,0.181c-0.68,0-1.196-0.336-1.196-1.195v-2.555h-0.59v-0.558h0.59v-1.277h0.631v1.277h1.342
				v0.558h-1.342V1.458z"/>
		</g>
		<g>
			<path fill="#939598" d="M253.618,219c0,1.656-1.301,2.876-2.956,2.876c-1.637,0-2.972-1.213-2.972-2.899
				c0-1.04,0.367-1.664,0.908-2.236l0.475,0.442c-0.46,0.482-0.786,1.023-0.786,1.802c0,1.269,1.023,2.217,2.358,2.217
				c1.336,0,2.375-0.956,2.375-2.217c0-0.787-0.304-1.302-0.828-1.852l0.417-0.425C253.218,217.305,253.618,217.959,253.618,219z"/>
			<path fill="#939598" d="M253.52,215.629h-5.978v-0.631h5.978V215.629z"/>
			<path fill="#939598" d="M253.618,211.601c0,1.27-0.999,2.194-2.203,2.194s-2.22-0.934-2.22-2.212
				c0-1.269,0.999-2.202,2.204-2.202C252.603,209.382,253.618,210.325,253.618,211.601z M249.753,211.601
				c0,0.918,0.729,1.548,1.644,1.548c0.919,0,1.656-0.671,1.656-1.565c0-0.916-0.729-1.555-1.638-1.555
				C250.489,210.03,249.753,210.709,249.753,211.601z"/>
			<path fill="#939598" d="M253.603,206.846c0,0.606-0.238,1.277-0.623,1.753l-0.451-0.318c0.344-0.459,0.541-0.967,0.541-1.466
				c0-0.509-0.263-0.877-0.672-0.877h-0.016c-0.427,0-0.59,0.5-0.747,1.057c-0.188,0.662-0.416,1.399-1.194,1.399h-0.016
				c-0.729,0-1.212-0.606-1.212-1.44c0-0.516,0.179-1.09,0.464-1.522l0.476,0.285c-0.254,0.394-0.409,0.843-0.409,1.253
				c0,0.5,0.262,0.818,0.614,0.818h0.017c0.4,0,0.558-0.524,0.729-1.09c0.196-0.655,0.451-1.358,1.213-1.358h0.016
				C253.135,205.34,253.603,206.003,253.603,206.846z"/>
			<path fill="#939598" d="M253.069,202.303c0-0.58-0.237-0.991-0.599-1.334l0.353-0.394c0.474,0.426,0.795,0.942,0.795,1.743
				c0,1.163-0.894,2.114-2.211,2.114c-1.229,0-2.212-0.859-2.212-2.031c0-1.252,0.998-1.974,2.243-1.974c0.06,0,0.123,0,0.196,0.008
				v3.357C252.555,203.706,253.069,203.049,253.069,202.303z M251.17,201.069c-0.77,0.065-1.442,0.508-1.442,1.351
				c0,0.736,0.614,1.293,1.442,1.376V201.069z"/>
			<path fill="#939598" d="M252.317,198.474c0.515,0,0.704-0.286,0.704-0.712c0-0.212-0.041-0.393-0.148-0.613h0.542
				c0.115,0.221,0.18,0.459,0.18,0.761c0,0.68-0.337,1.195-1.196,1.195h-2.554v0.59h-0.558v-0.59h-1.279v-0.631h1.279v-1.342h0.558
				v1.342H252.317L252.317,198.474z"/>
		</g>
		<g>
			<path fill="#939598" d="M262.173,64.148c0,0.969-0.591,1.462-1.17,1.716c0.874,0.264,1.579,0.769,1.579,1.788
				c0,1.274-1.062,2.022-2.671,2.022h-3.275v-7.368h3.138C261.226,62.306,262.173,63.021,262.173,64.148z M261.331,64.263
				c0-0.737-0.581-1.21-1.633-1.21h-2.241v2.536h2.177C260.636,65.59,261.331,65.136,261.331,64.263z M261.741,67.6
				c0-0.811-0.674-1.273-1.958-1.273h-2.326v2.601h2.473C261.046,68.927,261.741,68.431,261.741,67.6z"/>
			<path fill="#939598" d="M264.411,65.275l-0.242-0.663c0.601-0.274,1.19-0.453,1.979-0.453c1.485,0,2.315,0.758,2.315,2.19v3.326
				h-0.779v-0.82c-0.379,0.494-1.01,0.936-1.969,0.936c-1.01,0-2.03-0.567-2.03-1.704c0-1.157,0.948-1.769,2.325-1.769
				c0.695,0,1.19,0.095,1.674,0.231v-0.19c0-0.979-0.601-1.484-1.621-1.484C265.423,64.874,264.917,65.042,264.411,65.275z
				 M264.505,68.054c0,0.694,0.633,1.094,1.37,1.094c0.998,0,1.82-0.61,1.82-1.474v-0.525c-0.399-0.116-0.937-0.232-1.599-0.232
				C265.076,66.916,264.505,67.358,264.505,68.054z"/>
			<path fill="#939598" d="M271.231,68.127c0,0.663,0.369,0.904,0.915,0.904c0.273,0,0.507-0.052,0.791-0.189v0.695
				c-0.284,0.147-0.591,0.231-0.98,0.231c-0.873,0-1.535-0.432-1.535-1.537v-3.283h-0.759v-0.716h0.759v-1.642h0.81v1.642h1.727
				v0.716h-1.727V68.127z"/>
			<path fill="#939598" d="M275.199,69.674h-0.811V61.99h0.811v3.19c0.358-0.59,0.927-1.063,1.863-1.063
				c1.315,0,2.084,0.885,2.084,2.18v3.379h-0.81v-3.179c0-1.011-0.548-1.642-1.505-1.642c-0.938,0-1.633,0.684-1.633,1.705V69.674z"
				/>
		</g>
		<g>
			<path fill="#939598" d="M251.979,319.03h-1.991v-5.731h1.991c1.802,0,3.045,1.236,3.045,2.858
				C255.024,317.777,253.781,319.03,251.979,319.03z M251.979,313.896h-1.343v4.538h1.343c1.45,0,2.375-0.982,2.375-2.262
				S253.43,313.896,251.979,313.896z"/>
			<path fill="#939598" d="M259.567,313.282h0.535l1.571,4.791l1.637-4.774h0.68l-2.047,5.774h-0.549l-1.573-4.653l-1.58,4.653
				H257.7l-2.048-5.774h0.704l1.638,4.774L259.567,313.282z"/>
		</g>
		<g>
			<path fill="#939598" d="M254.749,244.3l-1.662-2.228h-1.64v2.228h-0.646v-5.732h2.464c1.262,0,2.071,0.68,2.071,1.712
				c0,0.958-0.655,1.515-1.555,1.68l1.761,2.341H254.749L254.749,244.3z M253.216,239.167h-1.769v2.324h1.761
				c0.859,0,1.474-0.441,1.474-1.187C254.682,239.591,254.143,239.167,253.216,239.167z"/>
			<path fill="#939598" d="M258.396,243.85c0.582,0,0.991-0.237,1.336-0.599l0.394,0.352c-0.426,0.476-0.941,0.796-1.745,0.796
				c-1.162,0-2.112-0.894-2.112-2.211c0-1.229,0.859-2.212,2.029-2.212c1.254,0,1.975,0.999,1.975,2.243
				c0,0.059,0,0.123-0.011,0.197h-3.356C256.997,243.333,257.652,243.85,258.396,243.85z M259.632,241.95
				c-0.064-0.77-0.507-1.44-1.35-1.44c-0.737,0-1.293,0.614-1.377,1.44H259.632z"/>
			<path fill="#939598" d="M263.578,240.083v0.541h-1.336v3.677h-0.63v-3.677h-0.583v-0.549h0.583v-0.367
				c0-0.927,0.465-1.418,1.276-1.418c0.297,0,0.492,0.033,0.697,0.107v0.549c-0.229-0.067-0.4-0.107-0.614-0.107
				c-0.491,0-0.736,0.296-0.736,0.901v0.344L263.578,240.083L263.578,240.083z"/>
		</g>
		<g>
			<path fill="#939598" d="M222.952,287.821v1.044l-3.569,2.829l1.59,1.57h1.978v0.831h-7.367v-0.831h4.399l-4.399-4.231v-1.073
				l3.22,3.157L222.952,287.821z"/>
			<path fill="#939598" d="M216.32,286.646h-0.895v-0.928h0.895V286.646z M222.952,286.592h-5.442v-0.811h5.442V286.592z"/>
			<path fill="#939598" d="M221.405,282.804c0.663,0,0.905-0.367,0.905-0.915c0-0.274-0.053-0.507-0.189-0.791h0.694
				c0.147,0.284,0.23,0.589,0.23,0.979c0,0.875-0.431,1.536-1.536,1.536h-3.284v0.758h-0.716v-0.758h-1.642v-0.809h1.642v-1.727
				h0.716v1.727H221.405L221.405,282.804z"/>
			<path fill="#939598" d="M223.08,277.351c0,1.59-1.295,2.791-2.833,2.791c-1.547,0-2.851-1.201-2.851-2.791
				c0-1.031,0.429-1.673,0.968-2.179l0.566,0.537c-0.452,0.432-0.82,0.915-0.82,1.652c0,1.105,0.938,1.948,2.116,1.948
				c1.19,0,2.128-0.863,2.128-2c0-0.695-0.35-1.232-0.812-1.664l0.484-0.515C222.636,275.678,223.08,276.331,223.08,277.351z"/>
			<path fill="#939598" d="M222.952,272.985v0.81h-7.684v-0.81h3.189c-0.589-0.358-1.062-0.927-1.062-1.864
				c0-1.314,0.884-2.084,2.178-2.084h3.379v0.811h-3.18c-1.009,0-1.642,0.548-1.642,1.505c0,0.938,0.685,1.633,1.706,1.633H222.952
				L222.952,272.985z"/>
			<path fill="#939598" d="M222.373,264.914c0-0.748-0.305-1.273-0.769-1.717l0.453-0.505c0.61,0.547,1.022,1.21,1.022,2.243
				c0,1.493-1.147,2.714-2.844,2.714c-1.579,0-2.842-1.104-2.842-2.609c0-1.611,1.284-2.537,2.884-2.537c0.073,0,0.158,0,0.254,0.01
				v4.316C221.71,266.713,222.373,265.872,222.373,264.914z M219.932,263.324c-0.989,0.084-1.853,0.654-1.853,1.736
				c0,0.948,0.789,1.664,1.853,1.769V263.324z"/>
			<path fill="#939598" d="M222.952,260.272v0.811h-5.442v-0.811h0.948c-0.589-0.356-1.062-0.925-1.062-1.861
				c0-1.317,0.884-2.085,2.178-2.085h3.379v0.81h-3.18c-1.009,0-1.642,0.547-1.642,1.505c0,0.938,0.685,1.632,1.706,1.632H222.952z"
				/>
		</g>
		<g>
			<path fill="#939598" d="M269.404,151.953h-3.494v1.958h3.128v0.589h-3.128v2.006h3.536v0.59h-4.186v-5.732h4.144V151.953z"/>
			<path fill="#939598" d="M271.27,157.095h-0.631v-4.233h0.631v0.736c0.276-0.458,0.719-0.828,1.448-0.828
				c1.023,0,1.621,0.688,1.621,1.695v2.628h-0.631v-2.472c0-0.786-0.425-1.277-1.169-1.277c-0.731,0-1.27,0.532-1.27,1.326V157.095z
				"/>
			<path fill="#939598" d="M276.53,155.892c0,0.516,0.288,0.705,0.713,0.705c0.215,0,0.393-0.041,0.614-0.147v0.54
				c-0.222,0.115-0.459,0.181-0.762,0.181c-0.679,0-1.195-0.336-1.195-1.195v-2.555h-0.589v-0.558h0.589v-1.277h0.63v1.277h1.343
				v0.558h-1.343V155.892z"/>
			<path fill="#939598" d="M279.617,157.095h-0.631v-4.233h0.631v1.106c0.312-0.706,0.926-1.213,1.729-1.181v0.681h-0.05
				c-0.925,0-1.68,0.663-1.68,1.941V157.095z"/>
			<path fill="#939598" d="M284.365,157.235c-0.36,0.876-0.77,1.194-1.408,1.194c-0.354,0-0.613-0.073-0.901-0.213l0.214-0.499
				c0.205,0.105,0.393,0.155,0.662,0.155c0.377,0,0.614-0.196,0.867-0.795l-1.923-4.217h0.697l1.538,3.53l1.359-3.53h0.671
				L284.365,157.235z"/>
		</g>
		<g>
			<path fill="#939598" d="M25.123,331.238c0,0.968-0.589,1.464-1.168,1.717c0.874,0.263,1.579,0.768,1.579,1.788
				c0,1.274-1.063,2.021-2.675,2.021h-3.273v-7.367h3.137C24.175,329.397,25.123,330.112,25.123,331.238z M24.28,331.354
				c0-0.737-0.579-1.213-1.633-1.213h-2.241v2.537h2.18C23.586,332.678,24.28,332.226,24.28,331.354z M24.69,334.691
				c0-0.812-0.673-1.274-1.957-1.274h-2.327v2.601h2.475C23.996,336.017,24.69,335.522,24.69,334.691z"/>
			<path fill="#939598" d="M29.446,336.184c0.748,0,1.274-0.304,1.716-0.768l0.505,0.452c-0.547,0.609-1.21,1.023-2.241,1.023
				c-1.494,0-2.716-1.148-2.716-2.844c0-1.579,1.104-2.843,2.61-2.843c1.61,0,2.536,1.283,2.536,2.885c0,0.072,0,0.159-0.01,0.253
				h-4.315C27.646,335.522,28.488,336.184,29.446,336.184z M31.036,333.743c-0.085-0.988-0.652-1.853-1.736-1.853
				c-0.948,0-1.663,0.788-1.769,1.853H31.036z"/>
			<path fill="#939598" d="M37.645,336.764v-1.097c-0.442,0.653-1.084,1.211-2.084,1.211c-1.306,0-2.6-1.033-2.6-2.832
				c0-1.788,1.294-2.843,2.6-2.843c1.011,0,1.663,0.548,2.084,1.159v-3.285h0.811v7.684h-0.811V336.764z M35.708,331.932
				c-1.053,0-1.916,0.778-1.916,2.105c0,1.295,0.884,2.117,1.916,2.117c1.011,0,1.969-0.844,1.969-2.117
				C37.676,332.774,36.719,331.932,35.708,331.932z"/>
			<path fill="#939598" d="M41.074,336.764h-0.812v-5.442h0.812v1.421c0.399-0.904,1.188-1.558,2.22-1.515v0.873H43.23
				c-1.19,0-2.158,0.852-2.158,2.496v2.167H41.074z"/>
			<path fill="#939598" d="M46.778,336.892c-1.631,0-2.821-1.286-2.821-2.832c0-1.548,1.199-2.854,2.843-2.854
				c1.632,0,2.831,1.285,2.831,2.832C49.63,335.585,48.42,336.892,46.778,336.892z M46.778,331.922
				c-1.179,0-1.989,0.937-1.989,2.115c0,1.181,0.863,2.128,2.011,2.128c1.178,0,1.999-0.938,1.999-2.105
				C48.799,332.868,47.926,331.922,46.778,331.922z"/>
			<path fill="#939598" d="M53.576,336.892c-1.631,0-2.821-1.286-2.821-2.832c0-1.548,1.199-2.854,2.843-2.854
				c1.632,0,2.831,1.285,2.831,2.832C56.428,335.585,55.218,336.892,53.576,336.892z M53.576,331.922
				c-1.179,0-1.989,0.937-1.989,2.115c0,1.181,0.863,2.128,2.011,2.128c1.178,0,1.999-0.938,1.999-2.105
				C55.597,332.868,54.723,331.922,53.576,331.922z"/>
			<path fill="#939598" d="M64.121,331.206c1.252,0,2.021,0.843,2.021,2.19v3.368h-0.81v-3.179c0-1.053-0.526-1.643-1.411-1.643
				c-0.821,0-1.507,0.609-1.507,1.684v3.138h-0.8v-3.199c0-1.021-0.536-1.622-1.398-1.622c-0.864,0-1.517,0.716-1.517,1.715v3.106
				h-0.81v-5.442h0.81v0.916c0.358-0.537,0.843-1.032,1.758-1.032c0.885,0,1.452,0.473,1.748,1.085
				C62.594,331.69,63.173,331.206,64.121,331.206z"/>
			<path fill="#939598" d="M11.758,342.206h0.61v7.42h-0.82v-6.557l-1.389,0.432l-0.201-0.674L11.758,342.206z"/>
			<path fill="#939598" d="M15.525,342.206h0.61v7.42h-0.821v-6.557l-1.389,0.432l-0.2-0.674L15.525,342.206z"/>
			<path fill="#939598" d="M18.198,342.258h0.989v0.053l-0.853,2.809h-0.452L18.198,342.258z"/>
			<path fill="#939598" d="M21.87,342.206h0.61v7.42h-0.82v-6.557l-1.389,0.432l-0.2-0.674L21.87,342.206z"/>
			<path fill="#939598" d="M27.3,349.753c-1.905,0-3.104-1.729-3.104-3.8c0-2.074,1.221-3.823,3.126-3.823
				c1.896,0,3.095,1.727,3.095,3.8S29.194,349.753,27.3,349.753z M27.3,342.888c-1.379,0-2.242,1.412-2.242,3.042
				c0,1.633,0.885,3.064,2.264,3.064c1.38,0,2.232-1.422,2.232-3.041C29.554,344.33,28.68,342.888,27.3,342.888z"/>
			<path fill="#939598" d="M32.067,342.258h0.979v0.053l-0.853,2.809h-0.442L32.067,342.258z M34.13,342.258h0.969v0.053
				l-0.853,2.809h-0.441L34.13,342.258z"/>
			<path fill="#939598" d="M44.484,349.625h-0.937l-1.684-2.22l-1.695,2.22h-0.905l2.138-2.771l-2.052-2.672h0.926l1.609,2.105
				l1.61-2.105H44.4l-2.063,2.654L44.484,349.625z"/>
			<path fill="#939598" d="M50.145,342.206h0.61v7.42h-0.821v-6.557l-1.389,0.432l-0.2-0.674L50.145,342.206z"/>
			<path fill="#939598" d="M57.164,342.206v4.979h1.147v0.694h-1.147v1.747h-0.8v-1.747H52.48l-0.211-0.601l4.169-5.072H57.164z
				 M56.364,343.382l-3.095,3.8h3.095V343.382z"/>
			<path fill="#939598" d="M59.878,342.258h0.989v0.053l-0.853,2.809h-0.452L59.878,342.258z"/>
			<path fill="#939598" d="M64.771,349.731c-1.568,0-2.769-0.853-2.769-2.095c0-0.886,0.631-1.507,1.515-1.822
				c-0.684-0.317-1.263-0.843-1.263-1.706c0-1.146,1.168-1.957,2.516-1.957c1.347,0,2.516,0.811,2.516,1.957
				c0,0.863-0.579,1.389-1.264,1.706c0.874,0.327,1.516,0.928,1.516,1.811C67.54,348.887,66.34,349.731,64.771,349.731z
				 M64.771,346.205c-1.073,0-1.926,0.58-1.926,1.411c0,0.756,0.716,1.389,1.926,1.389c1.211,0,1.926-0.633,1.926-1.389
				C66.698,346.785,65.846,346.205,64.771,346.205z M64.771,342.879c-0.958,0-1.684,0.537-1.684,1.283
				c0,0.812,0.747,1.359,1.684,1.359s1.684-0.548,1.684-1.359C66.456,343.425,65.73,342.879,64.771,342.879z"/>
			<path fill="#939598" d="M69.086,342.258h0.979v0.053l-0.853,2.809h-0.441L69.086,342.258z M71.148,342.258h0.968v0.053
				l-0.853,2.809h-0.441L71.148,342.258z"/>
		</g>
		<g>
			<path fill="#939598" d="M140.876,24.32c0,0.969-0.591,1.462-1.17,1.716c0.874,0.263,1.58,0.769,1.58,1.789
				c0,1.273-1.063,2.021-2.673,2.021h-3.273v-7.367h3.136C139.928,22.478,140.876,23.193,140.876,24.32z M140.032,24.435
				c0-0.736-0.578-1.21-1.632-1.21h-2.241v2.536h2.18C139.339,25.761,140.032,25.308,140.032,24.435z M140.444,27.772
				c0-0.811-0.673-1.273-1.959-1.273h-2.326v2.601h2.474C139.749,29.098,140.444,28.603,140.444,27.772z"/>
			<path fill="#939598" d="M145.197,29.266c0.749,0,1.275-0.305,1.717-0.769l0.508,0.453c-0.55,0.61-1.213,1.021-2.243,1.021
				c-1.495,0-2.716-1.147-2.716-2.842c0-1.579,1.104-2.843,2.609-2.843c1.61,0,2.536,1.284,2.536,2.885c0,0.073,0,0.157-0.01,0.252
				h-4.314C143.399,28.603,144.24,29.266,145.197,29.266z M146.789,26.824c-0.085-0.989-0.653-1.853-1.738-1.853
				c-0.945,0-1.661,0.79-1.767,1.853H146.789z"/>
			<path fill="#939598" d="M153.396,29.844V28.75c-0.441,0.653-1.084,1.211-2.084,1.211c-1.304,0-2.6-1.031-2.6-2.831
				c0-1.789,1.294-2.843,2.6-2.843c1.011,0,1.662,0.547,2.084,1.157v-3.284h0.81v7.684H153.396z M151.46,25.014
				c-1.052,0-1.916,0.779-1.916,2.105c0,1.294,0.884,2.115,1.916,2.115c1.01,0,1.97-0.841,1.97-2.115
				C153.428,25.856,152.47,25.014,151.46,25.014z"/>
			<path fill="#939598" d="M156.825,29.844h-0.809v-5.44h0.809v1.42c0.402-0.905,1.191-1.559,2.223-1.515v0.873h-0.064
				c-1.189,0-2.158,0.853-2.158,2.495V29.844L156.825,29.844z"/>
			<path fill="#939598" d="M162.53,29.971c-1.632,0-2.82-1.284-2.82-2.831c0-1.548,1.199-2.853,2.843-2.853
				c1.633,0,2.832,1.284,2.832,2.832C165.383,28.667,164.172,29.971,162.53,29.971z M162.53,25.003
				c-1.179,0-1.989,0.937-1.989,2.116s0.862,2.126,2.012,2.126c1.179,0,1.999-0.938,1.999-2.105
				C164.551,25.95,163.677,25.003,162.53,25.003z"/>
			<path fill="#939598" d="M169.328,29.971c-1.633,0-2.821-1.284-2.821-2.831c0-1.548,1.2-2.853,2.842-2.853
				c1.633,0,2.832,1.284,2.832,2.832C172.181,28.667,170.97,29.971,169.328,29.971z M169.328,25.003c-1.18,0-1.99,0.937-1.99,2.116
				s0.863,2.126,2.011,2.126c1.181,0,2.001-0.938,2.001-2.105C171.35,25.95,170.475,25.003,169.328,25.003z"/>
			<path fill="#939598" d="M179.874,24.288c1.251,0,2.021,0.842,2.021,2.189v3.368h-0.811v-3.178c0-1.053-0.525-1.643-1.409-1.643
				c-0.821,0-1.504,0.611-1.504,1.685v3.136h-0.802v-3.199c0-1.021-0.537-1.621-1.4-1.621s-1.516,0.716-1.516,1.716v3.104h-0.809
				v-5.44h0.809v0.915c0.358-0.536,0.842-1.031,1.758-1.031c0.884,0,1.452,0.474,1.747,1.084
				C178.347,24.772,178.925,24.288,179.874,24.288z"/>
			<path fill="#939598" d="M127.889,35.287h0.61v7.42h-0.82v-6.558l-1.39,0.432l-0.199-0.674L127.889,35.287z"/>
			<path fill="#939598" d="M130.814,37.244l-0.61-0.442c0.663-0.99,1.357-1.568,2.653-1.568c1.337,0,2.284,0.884,2.284,2.095
				c0,1.085-0.568,1.748-1.862,2.874l-1.969,1.747h3.905v0.757h-5.147v-0.642l2.674-2.358c1.126-1.01,1.536-1.578,1.536-2.314
				c0-0.863-0.684-1.411-1.483-1.411C131.951,35.98,131.403,36.422,130.814,37.244z"/>
			<path fill="#939598" d="M136.865,35.339h0.989v0.052l-0.853,2.812h-0.453L136.865,35.339z"/>
			<path fill="#939598" d="M141.759,42.812c-1.568,0-2.768-0.853-2.768-2.096c0-0.885,0.631-1.505,1.515-1.82
				c-0.684-0.317-1.263-0.842-1.263-1.705c0-1.146,1.168-1.958,2.516-1.958c1.347,0,2.516,0.811,2.516,1.958
				c0,0.863-0.579,1.39-1.264,1.705c0.873,0.325,1.516,0.926,1.516,1.81C144.526,41.969,143.327,42.812,141.759,42.812z
				 M141.759,39.287c-1.074,0-1.926,0.578-1.926,1.41c0,0.757,0.715,1.389,1.926,1.389c1.21,0,1.925-0.632,1.925-1.389
				C143.684,39.865,142.833,39.287,141.759,39.287z M141.759,35.959c-0.958,0-1.685,0.537-1.685,1.284
				c0,0.811,0.749,1.357,1.685,1.357c0.938,0,1.684-0.547,1.684-1.357C143.442,36.507,142.716,35.959,141.759,35.959z"/>
			<path fill="#939598" d="M146.072,35.339h0.977v0.052l-0.852,2.812h-0.442L146.072,35.339z M148.135,35.339h0.969v0.052
				l-0.854,2.812h-0.44L148.135,35.339z"/>
			<path fill="#939598" d="M158.49,42.706h-0.937l-1.685-2.22l-1.695,2.22h-0.903l2.136-2.768l-2.053-2.675h0.927l1.61,2.104
				l1.609-2.104h0.905l-2.063,2.653L158.49,42.706z"/>
			<path fill="#939598" d="M164.149,35.287h0.61v7.42h-0.821v-6.558l-1.389,0.432l-0.199-0.674L164.149,35.287z"/>
			<path fill="#939598" d="M167.917,35.287h0.609v7.42h-0.819v-6.558l-1.39,0.432l-0.2-0.674L167.917,35.287z"/>
			<path fill="#939598" d="M170.59,35.339h0.989v0.052l-0.854,2.812h-0.452L170.59,35.339z"/>
			<path fill="#939598" d="M174.264,35.287h0.609v7.42h-0.821v-6.558l-1.39,0.432l-0.198-0.674L174.264,35.287z"/>
			<path fill="#939598" d="M179.692,42.833c-1.906,0-3.104-1.726-3.104-3.8c0-2.073,1.221-3.821,3.126-3.821
				c1.895,0,3.095,1.728,3.095,3.8C182.809,41.085,181.587,42.833,179.692,42.833z M179.692,35.97c-1.38,0-2.241,1.411-2.241,3.043
				s0.884,3.062,2.263,3.062s2.231-1.42,2.231-3.042S181.071,35.97,179.692,35.97z"/>
			<path fill="#939598" d="M184.457,35.339h0.979v0.052l-0.852,2.812h-0.442L184.457,35.339z M186.521,35.339h0.968v0.052
				l-0.852,2.812h-0.443L186.521,35.339z"/>
		</g>
		<g>
			<path fill="#939598" d="M119.137,154.209h0.831v6.601h4.147v0.768h-4.979V154.209z"/>
			<path fill="#939598" d="M125.534,154.945v-0.895h0.926v0.895H125.534z M125.587,161.577v-5.441h0.811v5.441H125.587z"/>
			<path fill="#939598" d="M132.312,156.135h0.874l-2.368,5.483h-0.716l-2.358-5.483h0.895l1.831,4.516L132.312,156.135z"/>
			<path fill="#939598" d="M134.478,154.945v-0.895h0.926v0.895H134.478z M134.531,161.577v-5.441h0.811v5.441H134.531z"/>
			<path fill="#939598" d="M138.034,161.577h-0.81v-5.441h0.81v0.947c0.357-0.59,0.926-1.062,1.864-1.062
				c1.315,0,2.083,0.884,2.083,2.179v3.379h-0.811v-3.179c0-1.011-0.547-1.642-1.505-1.642c-0.936,0-1.632,0.685-1.632,1.704
				V161.577z"/>
			<path fill="#939598" d="M146.118,163.282c-0.906,0-1.75-0.251-2.475-0.757l0.368-0.631c0.62,0.452,1.315,0.694,2.094,0.694
				c1.199,0,1.979-0.663,1.979-1.937v-0.642c-0.473,0.631-1.138,1.146-2.137,1.146c-1.306,0-2.558-0.968-2.558-2.558
				c0-1.6,1.262-2.579,2.558-2.579c1.021,0,1.685,0.505,2.125,1.094v-0.979h0.811v4.494
				C148.885,162.388,147.79,163.282,146.118,163.282z M146.105,156.736c-1.03,0-1.884,0.704-1.884,1.841
				c0,1.116,0.875,1.863,1.884,1.863c1.033,0,2.001-0.736,2.001-1.852C148.106,157.46,147.139,156.736,146.105,156.736z"/>
			<path fill="#939598" d="M155.198,153.177l-4.884,9.747h-0.749l4.885-9.747H155.198z"/>
			<path fill="#939598" d="M158.732,161.577h-2.559v-7.368h2.559c2.316,0,3.918,1.589,3.918,3.674S161.051,161.577,158.732,161.577z
				 M158.732,154.978h-1.726v5.831h1.726c1.864,0,3.053-1.263,3.053-2.906C161.786,156.261,160.597,154.978,158.732,154.978z"/>
			<path fill="#939598" d="M164.288,154.945v-0.895h0.927v0.895H164.288z M164.341,161.577v-5.441h0.811v5.441H164.341z"/>
			<path fill="#939598" d="M167.846,161.577h-0.81v-5.441h0.81v0.947c0.357-0.59,0.926-1.062,1.864-1.062
				c1.314,0,2.082,0.884,2.082,2.179v3.379h-0.809v-3.179c0-1.011-0.548-1.642-1.506-1.642c-0.938,0-1.632,0.685-1.632,1.704
				V161.577z"/>
			<path fill="#939598" d="M173.539,154.945v-0.895h0.928v0.895H173.539z M173.592,161.577v-5.441h0.809v5.441H173.592z"/>
			<path fill="#939598" d="M177.097,161.577h-0.811v-5.441h0.811v0.947c0.358-0.59,0.925-1.062,1.861-1.062
				c1.317,0,2.085,0.884,2.085,2.179v3.379h-0.81v-3.179c0-1.011-0.549-1.642-1.506-1.642c-0.937,0-1.631,0.685-1.631,1.704V161.577
				L177.097,161.577z"/>
			<path fill="#939598" d="M185.179,163.282c-0.905,0-1.749-0.251-2.476-0.757l0.369-0.631c0.621,0.452,1.315,0.694,2.096,0.694
				c1.199,0,1.979-0.663,1.979-1.937v-0.642c-0.475,0.631-1.139,1.146-2.138,1.146c-1.305,0-2.559-0.968-2.559-2.558
				c0-1.6,1.263-2.579,2.559-2.579c1.022,0,1.685,0.505,2.125,1.094v-0.979h0.811v4.494
				C187.945,162.388,186.851,163.282,185.179,163.282z M185.168,156.736c-1.033,0-1.885,0.704-1.885,1.841
				c0,1.116,0.875,1.863,1.885,1.863c1.031,0,1.998-0.736,1.998-1.852C187.166,157.46,186.199,156.736,185.168,156.736z"/>
			<path fill="#939598" d="M198.121,161.577l-2.136-2.863h-2.105v2.863h-0.832v-7.368h3.167c1.622,0,2.663,0.874,2.663,2.199
				c0,1.231-0.842,1.948-2,2.158l2.264,3.011H198.121z M196.151,154.978h-2.271v2.989h2.263c1.105,0,1.896-0.568,1.896-1.526
				C198.038,155.525,197.343,154.978,196.151,154.978z"/>
			<path fill="#939598" d="M202.897,161.704c-1.633,0-2.82-1.284-2.82-2.831c0-1.548,1.199-2.853,2.844-2.853
				c1.631,0,2.829,1.283,2.829,2.831C205.75,160.398,204.54,161.704,202.897,161.704z M202.897,156.736
				c-1.179,0-1.989,0.936-1.989,2.115s0.863,2.126,2.013,2.126c1.178,0,1.998-0.937,1.998-2.104
				C204.919,157.681,204.044,156.736,202.897,156.736z"/>
			<path fill="#939598" d="M209.696,161.704c-1.634,0-2.822-1.284-2.822-2.831c0-1.548,1.2-2.853,2.842-2.853
				c1.633,0,2.832,1.283,2.832,2.831C212.548,160.398,211.338,161.704,209.696,161.704z M209.696,156.736
				c-1.182,0-1.991,0.936-1.991,2.115s0.862,2.126,2.011,2.126c1.181,0,2.001-0.937,2.001-2.104
				C211.717,157.681,210.843,156.736,209.696,156.736z"/>
			<path fill="#939598" d="M220.24,156.02c1.253,0,2.022,0.842,2.022,2.189v3.368h-0.811v-3.179c0-1.053-0.526-1.642-1.41-1.642
				c-0.821,0-1.505,0.61-1.505,1.685v3.136h-0.801v-3.2c0-1.021-0.537-1.62-1.399-1.62c-0.863,0-1.517,0.716-1.517,1.716v3.104
				h-0.81v-5.441h0.81v0.916c0.358-0.537,0.843-1.032,1.759-1.032c0.883,0,1.451,0.475,1.747,1.085
				C218.714,156.503,219.291,156.02,220.24,156.02z"/>
			<path fill="#939598" d="M140.745,167.018h0.61v7.421h-0.821v-6.558l-1.389,0.432l-0.2-0.674L140.745,167.018z"/>
			<path fill="#939598" d="M143.333,167.818v-0.747h4.705v0.61l-2.315,2.568c1.293,0.105,2.432,0.727,2.432,2.084
				c0,1.327-1.096,2.232-2.463,2.232c-1.231,0-2.147-0.537-2.747-1.315l0.6-0.536c0.568,0.693,1.252,1.095,2.158,1.095
				c0.895,0,1.609-0.568,1.609-1.442c0-0.925-0.841-1.432-2.062-1.432h-0.475l-0.169-0.495l2.326-2.62h-3.6V167.818z"/>
			<path fill="#939598" d="M149.867,167.071h0.989v0.053l-0.853,2.812h-0.454L149.867,167.071z"/>
			<path fill="#939598" d="M152.696,168.976l-0.609-0.442c0.662-0.99,1.358-1.569,2.653-1.569c1.337,0,2.283,0.885,2.283,2.096
				c0,1.085-0.566,1.747-1.862,2.874l-1.969,1.746h3.905v0.758h-5.147v-0.642l2.674-2.358c1.126-1.01,1.537-1.578,1.537-2.315
				c0-0.862-0.686-1.411-1.485-1.411C153.835,167.711,153.286,168.155,152.696,168.976z"/>
			<path fill="#939598" d="M158.748,167.071h0.979v0.053l-0.853,2.812h-0.44L158.748,167.071z M160.812,167.071h0.969v0.053
				l-0.854,2.812h-0.44L160.812,167.071z"/>
			<path fill="#939598" d="M171.167,174.438h-0.937l-1.685-2.221l-1.695,2.221h-0.904l2.137-2.769l-2.053-2.674h0.926l1.611,2.104
				l1.61-2.104h0.904l-2.064,2.653L171.167,174.438z"/>
			<path fill="#939598" d="M175.985,168.976l-0.611-0.442c0.663-0.99,1.357-1.569,2.652-1.569c1.338,0,2.284,0.885,2.284,2.096
				c0,1.085-0.566,1.747-1.862,2.874l-1.969,1.746h3.905v0.758h-5.146v-0.642l2.673-2.358c1.127-1.01,1.536-1.578,1.536-2.315
				c0-0.862-0.686-1.411-1.484-1.411C177.121,167.711,176.574,168.155,175.985,168.976z"/>
			<path fill="#939598" d="M186.11,167.018v4.979h1.146v0.695h-1.146v1.747h-0.801v-1.747h-3.883l-0.211-0.601l4.166-5.073H186.11z
				 M185.31,168.197l-3.093,3.8h3.093V168.197z"/>
			<path fill="#939598" d="M188.823,167.071h0.991v0.053l-0.854,2.812h-0.452L188.823,167.071z"/>
			<path fill="#939598" d="M194.158,174.565c-1.904,0-3.104-1.726-3.104-3.8s1.221-3.821,3.126-3.821c1.895,0,3.095,1.728,3.095,3.8
				C197.275,172.818,196.054,174.565,194.158,174.565z M194.158,167.703c-1.378,0-2.24,1.411-2.24,3.042
				c0,1.632,0.884,3.062,2.263,3.062c1.38,0,2.231-1.42,2.231-3.041C196.412,169.144,195.539,167.703,194.158,167.703z"/>
			<path fill="#939598" d="M198.924,167.071h0.979v0.053l-0.852,2.812h-0.441L198.924,167.071z M200.988,167.071h0.969v0.053
				l-0.854,2.812h-0.442L200.988,167.071z"/>
		</g>
		<g>
			<path fill="#939598" d="M177.049,281.067h5.732v0.648h-5.732V281.067z"/>
			<path fill="#939598" d="M182.864,278.095c0,0.607-0.237,1.278-0.622,1.754l-0.451-0.319c0.344-0.459,0.541-0.966,0.541-1.466
				c0-0.51-0.264-0.876-0.673-0.876h-0.016c-0.426,0-0.589,0.499-0.746,1.056c-0.188,0.662-0.416,1.399-1.194,1.399h-0.017
				c-0.729,0-1.211-0.606-1.211-1.44c0-0.516,0.179-1.089,0.465-1.523l0.475,0.285c-0.254,0.394-0.408,0.846-0.408,1.253
				c0,0.5,0.261,0.819,0.612,0.819h0.018c0.4,0,0.557-0.523,0.729-1.09c0.196-0.655,0.45-1.358,1.212-1.358h0.017
				C182.397,276.588,182.864,277.251,182.864,278.095z"/>
			<path fill="#939598" d="M182.782,275.362h-5.978v-0.63h5.978V275.362z"/>
			<path fill="#939598" d="M179.359,273.021l-0.516,0.188c-0.213-0.465-0.353-0.925-0.353-1.538c0-1.154,0.59-1.801,1.704-1.801
				h2.587v0.605h-0.639c0.386,0.295,0.729,0.786,0.729,1.531c0,0.788-0.441,1.581-1.326,1.581c-0.902,0-1.377-0.736-1.377-1.81
				c0-0.541,0.074-0.925,0.18-1.302h-0.147c-0.762,0-1.154,0.466-1.154,1.261C179.047,272.236,179.179,272.628,179.359,273.021z
				 M181.522,272.948c0.539,0,0.851-0.491,0.851-1.063c0-0.779-0.475-1.418-1.146-1.418h-0.408
				c-0.091,0.312-0.181,0.729-0.181,1.244C180.637,272.505,180.98,272.948,181.522,272.948z"/>
			<path fill="#939598" d="M182.782,267.898v0.63h-4.232v-0.63h0.737c-0.46-0.277-0.829-0.721-0.829-1.449
				c0-1.022,0.69-1.621,1.695-1.621h2.629v0.631h-2.472c-0.786,0-1.279,0.424-1.279,1.17c0,0.729,0.532,1.27,1.327,1.27H182.782z"/>
			<path fill="#939598" d="M182.782,260.089h-0.854c0.51,0.343,0.943,0.842,0.943,1.621c0,1.016-0.804,2.021-2.202,2.021
				c-1.394,0-2.212-1.005-2.212-2.021c0-0.787,0.425-1.295,0.901-1.621h-2.555v-0.632h5.977L182.782,260.089L182.782,260.089z
				 M179.023,261.594c0,0.819,0.606,1.491,1.637,1.491c1.009,0,1.646-0.688,1.646-1.491c0-0.786-0.655-1.53-1.646-1.53
				C179.68,260.064,179.023,260.808,179.023,261.594z"/>
		</g>
	</g>
	<g id="walls">
		<polyline fill="none" stroke="#939598" stroke-width="5" points="278.419,141.301 278.419,108.272 307.637,78.149 
			307.637,-32.083 80.987,-32.083 80.987,263.163 -21.303,263.163 -21.303,454.11 248.199,455.28 248.199,421.61 278.419,421.622 
			278.419,167.609 		"/>
		<polyline fill="none" stroke="#939598" stroke-width="3" points="108.481,381.904 108.481,269.397 63.369,269.397 63.369,263.777 
					"/>
		<line fill="none" stroke="#939598" stroke-width="3" x1="108.481" y1="455.919" x2="108.481" y2="407.591"/>
		<line fill="none" stroke="#939598" x1="3.837" y1="270.522" x2="63.467" y2="270.522"/>
		<polyline fill="none" stroke="#939598" stroke-width="3" points="-19.353,269.397 2.862,269.397 2.862,263.485 		"/>
		<line fill="none" stroke="#939598" stroke-width="3" x1="145.406" y1="363.55" x2="270.224" y2="363.55"/>
		<line fill="none" stroke="#939598" stroke-width="3" x1="110.041" y1="363.55" x2="117.836" y2="363.55"/>
		<line fill="none" stroke="#939598" stroke-width="3" x1="0.719" y1="427.077" x2="-19.548" y2="427.077"/>
		<line fill="none" stroke="#939598" stroke-width="3" x1="59.16" y1="427.077" x2="27.708" y2="427.077"/>
		<line fill="none" stroke="#939598" stroke-width="3" x1="107.701" y1="427.077" x2="86.723" y2="427.077"/>
		<line fill="none" stroke="#939598" stroke-width="3" x1="173.567" y1="399.699" x2="173.567" y2="452.799"/>
		<line fill="none" stroke="#939598" stroke-width="3" x1="173.567" y1="364.72" x2="173.567" y2="371.733"/>
		<polyline fill="none" stroke="#939598" stroke-width="3" points="88.604,268.455 88.604,213.793 82.661,213.793 		"/>
		<line fill="none" stroke="#939598" x1="89.623" y1="125.031" x2="89.623" y2="212.526"/>
		<polyline fill="none" stroke="#939598" stroke-width="3" points="81.492,124.055 88.604,124.055 88.604,63.841 83.831,63.841 		
			"/>
		<polyline fill="none" stroke="#939598" stroke-width="3" points="291.074,94.825 270.972,94.825 270.972,136.767 277.92,136.767 
					"/>
		<polyline fill="none" stroke="#939598" stroke-width="3" points="276.751,173.074 270.613,173.074 270.613,365.374 		"/>
		<line fill="none" stroke="#939598" stroke-width="3" x1="220.23" y1="98.333" x2="228.521" y2="98.333"/>
		<line fill="none" stroke="#939598" stroke-width="3" x1="89.093" y1="98.333" x2="192.275" y2="98.333"/>
		<polyline fill="none" stroke="#939598" stroke-width="3" points="228.011,89.76 228.011,129.902 271.197,129.902 		"/>
		<line fill="none" stroke="#939598" stroke-width="3" x1="228.011" y1="19.996" x2="228.011" y2="64.038"/>
		<line fill="none" stroke="#939598" stroke-width="3" x1="228.011" y1="-31.743" x2="228.011" y2="-5.852"/>
		<line fill="none" stroke="#939598" stroke-width="3" x1="228.229" y1="28.18" x2="306.565" y2="28.18"/>
		<polyline fill="none" stroke="#939598" stroke-width="3" points="244.013,220.516 244.013,224.316 269.735,224.316 		"/>
		<polyline fill="none" stroke="#939598" stroke-width="3" points="270.028,193.624 244.013,193.624 244.013,197.385 		"/>
		<line fill="none" stroke="#939598" stroke-width="3" x1="269.639" y1="363.355" x2="276.654" y2="363.355"/>
		<line fill="none" stroke="#939598" x1="89.662" y1="62.964" x2="89.662" y2="-34.081"/>
	</g>
	<g id="windows">
		<g>
			<g>
				<rect x="78.786" y="128.642" fill="#FFFFFF" stroke="#939598" width="4.295" height="81.333"/>
				<line fill="none" stroke="#939598" x1="80.911" y1="128.642" x2="80.911" y2="210.853"/>
				<line fill="none" stroke="#939598" stroke-width="2" x1="83.266" y1="155.153" x2="79.18" y2="155.153"/>
			</g>
			<line fill="none" stroke="#939598" stroke-width="2" x1="83.412" y1="182.5" x2="79.201" y2="182.5"/>
		</g>
		<g>
			<g>
				<rect x="78.794" y="-22.479" fill="#FFFFFF" stroke="#939598" width="4.296" height="81.333"/>
				<line fill="none" stroke="#939598" x1="80.921" y1="-22.479" x2="80.921" y2="59.732"/>
				<line fill="none" stroke="#939598" stroke-width="2" x1="83.274" y1="4.032" x2="79.189" y2="4.032"/>
			</g>
			<line fill="none" stroke="#939598" stroke-width="2" x1="83.42" y1="31.378" x2="79.21" y2="31.378"/>
		</g>
		<g>
			<rect x="5.234" y="260.907" fill="#FFFFFF" stroke="#939598" width="55.306" height="4.472"/>
			<line fill="none" stroke="#939598" x1="5.234" y1="263.051" x2="61.417" y2="263.051"/>
			<line fill="none" stroke="#939598" stroke-width="2" x1="31.837" y1="260.55" x2="31.837" y2="265.374"/>
		</g>
	</g>
</g>
</svg>
