<?xml version="1.0" encoding="utf-8"?>
<!-- Generator: Adobe Illustrator 15.0.2, SVG Export Plug-In . SVG Version: 6.00 Build 0)  -->
<!DOCTYPE svg PUBLIC "-//W3C//DTD SVG 1.1//EN" "http://www.w3.org/Graphics/SVG/1.1/DTD/svg11.dtd">
<svg version="1.1" xmlns="http://www.w3.org/2000/svg" xmlns:xlink="http://www.w3.org/1999/xlink" x="0px" y="0px"
	 width="211.836px" height="480.66px" viewBox="0 0 211.836 480.66" enable-background="new 0 0 211.836 480.66"
	 xml:space="preserve">
<g id="_x32_0_x25___PMS_2985_fill" display="none">
	<polygon display="inline" fill="#EBEEEF" points="2.512,18.025 2.512,479.024 180.845,479.024 180.845,424.026 210.513,424.026 
		210.513,16.692 207.18,16.525 207.013,7.858 114.984,8.025 115.179,19.192 	"/>
</g>
<g id="_x32_0_x25__grey_fill">
	<rect x="62.012" y="194.525" fill="#B3B3B3" width="23.667" height="11.333"/>
	<rect x="94.346" y="18.525" fill="#B3B3B3" width="30.333" height="7"/>
	<rect x="199.013" y="18.191" fill="#B3B3B3" width="9" height="6.333"/>
	<rect x="3.679" y="19.858" fill="#B3B3B3" width="14.333" height="4.667"/>
</g>
<g id="icons">
	<polygon fill="#FFFFFF" stroke="#939598" points="22.679,205.524 22.679,174.858 4.012,174.858 4.012,205.858 	"/>
	<polygon fill="#FFFFFF" stroke="#939598" points="207.832,364.553 189.164,364.553 189.164,390.524 208.013,390.524 	"/>
	<polyline fill="#FFFFFF" stroke="#939598" points="179.513,276.691 188.313,276.691 188.313,182.358 144.346,182.507 
		144.346,155.283 206.513,155.283 206.513,294.691 167.394,294.627 167.394,276.691 168.937,276.691 	"/>
	<g>
		<g>
			<rect x="60.238" y="146.981" fill="#FFFFFF" stroke="#939598" width="23.625" height="45.693"/>
			<path fill="#FFFFFF" stroke="#939598" d="M72.05,169.829"/>
			<path fill="#FFFFFF" stroke="#939598" d="M72.05,169.985"/>
			<path fill="#FFFFFF" stroke="#939598" d="M72.05,185.478"/>
		</g>
		<circle fill="#FFFFFF" stroke="#939598" cx="72.162" cy="182.26" r="0.969"/>
		<path fill="#FFFFFF" stroke="#939598" d="M72.123,149.59c-6.771,0-9.25,1.562-9.25,3.752c0,0,0,32.839,0,33.376
			c0,0.535,0.145,1.641,1.561,1.641c1.418,0,7.689,0,7.689,0h0.016c0,0,6.271,0,7.689,0c1.416,0,1.561-1.105,1.561-1.641
			c0-0.537,0-33.354,0-33.354l-0.002-0.021C81.386,151.153,78.851,149.59,72.123,149.59z"/>
		<path fill="#FFFFFF" stroke="#939598" d="M70.13,190.058c0.002-0.549-0.44-0.988-0.995-0.988c-0.537,0-0.982,0.439-0.986,0.988
			c0.004,0.545,0.449,0.995,0.986,0.995C69.69,191.053,70.132,190.609,70.13,190.058z"/>
		<path fill="#FFFFFF" stroke="#939598" d="M76.272,190.058c0.006-0.549-0.445-0.988-0.99-0.988c-0.543,0-0.99,0.439-0.99,0.988
			c0,0.545,0.447,0.995,0.99,0.988C75.829,191.053,76.272,190.603,76.272,190.058z"/>
		<path fill="#FFFFFF" stroke="#939598" d="M70.829,190.351c0,0.812,0.549,1.469,1.361,1.471c0.811-0.002,1.254-0.658,1.254-1.471
			l-0.521-5.592c0-0.549-1.482-0.549-1.482,0L70.829,190.351z"/>
	</g>
	<g>
		<polygon fill="none" stroke="#939598" points="47.977,317.129 46.307,317.116 46.292,340.935 47.984,340.947 		"/>
		<path fill="none" stroke="#939598" d="M47.188,340.966c-13.114-0.445-23.383-11.289-22.936-24.402"/>
	</g>
	<g>
		<path fill="#FFFFFF" stroke="#939598" stroke-miterlimit="10" d="M17.869,167.714c4.462,0,9.376-2.711,9.376-6.053
			s-4.914-6.041-9.376-6.041c-4.463,0-6.785,2.699-6.785,6.041S13.406,167.714,17.869,167.714"/>
		<path fill="#FFFFFF" stroke="#939598" d="M17.869,167.714c4.462,0,9.376-2.711,9.376-6.053s-4.914-6.041-9.376-6.041
			c-4.463,0-6.785,2.699-6.785,6.041S13.406,167.714,17.869,167.714z"/>
		<path fill="#FFFFFF" stroke="#939598" stroke-miterlimit="10" d="M12.547,158.038c0.25,0,0.455-0.205,0.455-0.455v-2.107
			c0-0.25-0.205-0.455-0.455-0.455H12.47c-0.25,0-0.455,0.205-0.455,0.455v2.107c0,0.25,0.205,0.455,0.455,0.455H12.547z"/>
		<path fill="#FFFFFF" stroke="#939598" d="M12.547,158.038c0.25,0,0.455-0.205,0.455-0.455v-2.107c0-0.25-0.205-0.455-0.455-0.455
			H12.47c-0.25,0-0.455,0.205-0.455,0.455v2.107c0,0.25,0.205,0.455,0.455,0.455H12.547z"/>
		<path fill="#FFFFFF" stroke="#939598" stroke-miterlimit="10" d="M12.003,154.7c0-0.758-2.057-1.375-2.816-1.375
			c-0.769,0-2.825,0.617-2.825,1.375v13.814c0,0.76,2.057,1.375,2.825,1.375c0.76,0,2.814-0.615,2.814-1.375L12.003,154.7z"/>
		<path fill="#FFFFFF" stroke="#939598" d="M12.003,154.7c0-0.758-2.057-1.375-2.816-1.375c-0.769,0-2.825,0.617-2.825,1.375v13.814
			c0,0.76,2.057,1.375,2.825,1.375c0.76,0,2.814-0.615,2.814-1.375L12.003,154.7z"/>
		<path fill="#FFFFFF" stroke="#939598" stroke-miterlimit="10" d="M18.056,166.11c3.279,0,6.893-1.992,6.893-4.449
			s-3.613-4.447-6.893-4.447s-4.985,1.99-4.985,4.447S14.776,166.11,18.056,166.11"/>
		<path fill="#FFFFFF" stroke="#939598" d="M18.056,166.11c3.279,0,6.893-1.992,6.893-4.449s-3.613-4.447-6.893-4.447
			s-4.985,1.99-4.985,4.447S14.776,166.11,18.056,166.11z"/>
	</g>
	<g>
		<g>
			<g>
				<path fill="none" stroke="#939598" d="M15.499,190.179"/>
			</g>
			<g>
				<path fill="none" stroke="#939598" d="M14.436,190.179"/>
			</g>
			<g>
				<circle fill="none" stroke="#939598" cx="15.499" cy="190.179" r="1.017"/>
				<path fill="none" stroke="#939598" d="M15.499,190.179"/>
			</g>
			<g>
				<g>
					<rect x="6.999" y="185.914" fill="none" stroke="#939598" width="2.125" height="8.553"/>
					<path fill="none" stroke="#939598" d="M8.061,190.179"/>
				</g>
				<g>
					<rect x="9.217" y="189.726" fill="none" stroke="#939598" width="4.031" height="0.906"/>
					<path fill="none" stroke="#939598" d="M10.889,190.179"/>
				</g>
				<g>
					<circle fill="none" stroke="#939598" cx="8.082" cy="190.179" r="0.986"/>
					<path fill="none" stroke="#939598" d="M8.082,190.179"/>
				</g>
			</g>
		</g>
		<g>
			<rect x="6.673" y="181.652" fill="none" stroke="#939598" width="13.875" height="17.076"/>
			<rect x="9.173" y="183.044" fill="none" stroke="#939598" width="9.98" height="14.255"/>
		</g>
	</g>
	<g>
		<polygon fill="none" stroke="#939598" points="52.81,206.4 51.14,206.413 51.125,182.595 52.818,182.582 		"/>
		<path fill="none" stroke="#939598" d="M52.021,182.563c-13.113,0.445-23.383,11.289-22.936,24.402"/>
	</g>
	<g>
		<polygon fill="none" stroke="#939598" points="98.977,368.9 97.307,368.913 97.291,345.095 98.984,345.082 		"/>
		<path fill="none" stroke="#939598" d="M98.188,345.063c-13.113,0.445-23.383,11.289-22.936,24.402"/>
	</g>
	<g>
		<polygon fill="none" stroke="#939598" points="176.844,396.542 176.836,398.128 154.209,398.144 154.217,396.556 		"/>
		<path fill="none" stroke="#939598" d="M154.199,397.271c0.423,12.458,10.664,22.214,23.121,21.788"/>
	</g>
	<g>
		<polygon fill="none" stroke="#939598" points="105.652,376.849 105.645,378.435 83.018,378.45 83.025,376.862 		"/>
		<path fill="none" stroke="#939598" d="M83.008,377.578c0.423,12.458,10.664,22.214,23.121,21.788"/>
	</g>
	<g>
		<g>
			<g>
				<g>
					<rect x="183.229" y="397.1" fill="#FFFFFF" stroke="#939598" width="18.545" height="20.188"/>
					<path fill="#FFFFFF" stroke="#939598" d="M191.886,407.193"/>
					<polyline fill="#FFFFFF" stroke="#939598" points="188.763,401.068 185.941,401.068 185.283,403.506 185.283,410.975 
						185.941,413.443 188.763,413.443 					"/>
					<line fill="#FFFFFF" stroke="#939598" x1="188.763" y1="417.434" x2="188.763" y2="397.1"/>
					<path fill="#FFFFFF" stroke="#939598" d="M190.939,407.256"/>
				</g>
			</g>
		</g>
		<polygon fill="#FFFFFF" stroke="#939598" points="187.546,416.306 187.542,414.675 188.68,414.316 188.685,416.664 		"/>
	</g>
	<g>
		<polygon fill="none" stroke="#939598" points="182.403,469.88 182.396,468.294 159.769,468.278 159.776,469.866 		"/>
		<path fill="none" stroke="#939598" d="M159.759,469.15c0.423-12.458,10.664-22.214,23.121-21.788"/>
	</g>
	<g>
		<polygon fill="none" stroke="#939598" points="142.235,329.163 142.243,330.749 164.87,330.765 164.862,329.177 		"/>
		<path fill="none" stroke="#939598" d="M164.88,329.893c-0.423,12.458-10.664,22.214-23.121,21.788"/>
	</g>
	<g>
		<path fill="#FFFFFF" stroke="#939598" stroke-miterlimit="10" d="M193.788,355.725c-4.462,0-9.376-2.711-9.376-6.053
			s4.914-6.041,9.376-6.041c4.463,0,6.785,2.699,6.785,6.041S198.251,355.725,193.788,355.725"/>
		<path fill="#FFFFFF" stroke="#939598" d="M193.788,355.725c-4.462,0-9.376-2.711-9.376-6.053s4.914-6.041,9.376-6.041
			c4.463,0,6.785,2.699,6.785,6.041S198.251,355.725,193.788,355.725z"/>
		<path fill="#FFFFFF" stroke="#939598" stroke-miterlimit="10" d="M199.11,346.049c-0.25,0-0.455-0.205-0.455-0.455v-2.107
			c0-0.25,0.205-0.455,0.455-0.455h0.077c0.25,0,0.455,0.205,0.455,0.455v2.107c0,0.25-0.205,0.455-0.455,0.455H199.11z"/>
		<path fill="#FFFFFF" stroke="#939598" d="M199.11,346.049c-0.25,0-0.455-0.205-0.455-0.455v-2.107c0-0.25,0.205-0.455,0.455-0.455
			h0.077c0.25,0,0.455,0.205,0.455,0.455v2.107c0,0.25-0.205,0.455-0.455,0.455H199.11z"/>
		<path fill="#FFFFFF" stroke="#939598" stroke-miterlimit="10" d="M199.654,342.711c0-0.758,2.057-1.375,2.816-1.375
			c0.769,0,2.825,0.617,2.825,1.375v13.814c0,0.76-2.057,1.375-2.825,1.375c-0.76,0-2.814-0.615-2.814-1.375L199.654,342.711z"/>
		<path fill="#FFFFFF" stroke="#939598" d="M199.654,342.711c0-0.758,2.057-1.375,2.816-1.375c0.769,0,2.825,0.617,2.825,1.375
			v13.814c0,0.76-2.057,1.375-2.825,1.375c-0.76,0-2.814-0.615-2.814-1.375L199.654,342.711z"/>
		<path fill="#FFFFFF" stroke="#939598" stroke-miterlimit="10" d="M193.602,354.121c-3.279,0-6.893-1.992-6.893-4.449
			s3.613-4.447,6.893-4.447s4.985,1.99,4.985,4.447S196.881,354.121,193.602,354.121"/>
		<path fill="#FFFFFF" stroke="#939598" d="M193.602,354.121c-3.279,0-6.893-1.992-6.893-4.449s3.613-4.447,6.893-4.447
			s4.985,1.99,4.985,4.447S196.881,354.121,193.602,354.121z"/>
	</g>
	<g>
		<g>
			<g>
				<path fill="none" stroke="#939598" d="M196.688,376.135"/>
			</g>
			<g>
				<path fill="none" stroke="#939598" d="M197.75,376.135"/>
			</g>
			<g>
				<circle fill="none" stroke="#939598" cx="196.687" cy="376.135" r="1.017"/>
				<path fill="none" stroke="#939598" d="M196.688,376.135"/>
			</g>
			<g>
				<g>
					<rect x="203.062" y="371.869" fill="none" stroke="#939598" width="2.125" height="8.553"/>
					<path fill="none" stroke="#939598" d="M204.125,376.135"/>
				</g>
				<g>
					<rect x="198.938" y="375.682" fill="none" stroke="#939598" width="4.031" height="0.906"/>
					<path fill="none" stroke="#939598" d="M201.297,376.135"/>
				</g>
				<g>
					<circle fill="none" stroke="#939598" cx="204.104" cy="376.135" r="0.986"/>
					<path fill="none" stroke="#939598" d="M204.104,376.135"/>
				</g>
			</g>
		</g>
		<g>
			<rect x="191.637" y="367.607" fill="none" stroke="#939598" width="13.875" height="17.076"/>
			<rect x="193.031" y="369" fill="none" stroke="#939598" width="9.98" height="14.256"/>
		</g>
	</g>
	<line fill="none" stroke="#939598" x1="119.082" y1="479.631" x2="119.082" y2="427.506"/>
	
		<line fill="none" stroke="#939598" stroke-dasharray="1.5,1.5,1.5,1.5,1.5,1.5" x1="116.503" y1="479.131" x2="116.503" y2="427.381"/>
	<polyline fill="none" stroke="#939598" points="104.346,328.3 66.012,328.3 66.012,367.191 	"/>
	<polyline fill="none" stroke="#939598" points="15.679,318.191 15.679,355.858 53.096,355.858 	"/>
	<line fill="none" stroke="#939598" x1="157.679" y1="321.524" x2="143.012" y2="321.524"/>
	<path fill="none" stroke="#939598" stroke-dasharray="1.5,1.5,1.5,1.5,1.5,1.5" d="M104.679,326.191c-4,0-41,0-41,0v40.667"/>
	<polyline fill="none" stroke="#939598" stroke-dasharray="1.5,1.5,1.5,1.5,1.5,1.5" points="13.345,318.191 13.345,358.104 
		53.679,358.104 	"/>
	<g>
		<g>
			<rect x="185.71" y="229.435" fill="#FFFFFF" stroke="#939598" width="19.75" height="23.25"/>
			<path fill="#FFFFFF" stroke="#939598" d="M195.585,241.06"/>
		</g>
		<g>
			<g>
				<circle fill="#FFFFFF" stroke="#939598" cx="190.085" cy="246.376" r="2.824"/>
				<path fill="#FFFFFF" stroke="#939598" d="M190.085,246.376"/>
			</g>
			<g>
				<circle fill="#FFFFFF" stroke="#939598" stroke-width="0.8" cx="190.086" cy="246.403" r="1.989"/>
				<path fill="#FFFFFF" stroke="#939598" d="M190.085,246.403"/>
			</g>
		</g>
		<g>
			<g>
				<circle fill="#FFFFFF" stroke="#939598" cx="198.335" cy="235.088" r="2.824"/>
				<path fill="#FFFFFF" stroke="#939598" d="M198.335,235.088"/>
			</g>
			<g>
				<circle fill="#FFFFFF" stroke="#939598" stroke-width="0.8" cx="198.336" cy="235.06" r="1.989"/>
				<path fill="#FFFFFF" stroke="#939598" d="M198.335,235.06"/>
			</g>
		</g>
		<g>
			<g>
				<circle fill="#FFFFFF" stroke="#939598" cx="198.308" cy="246.413" r="3.219"/>
				<path fill="#FFFFFF" stroke="#939598" d="M198.308,246.413"/>
			</g>
			<g>
				<circle fill="#FFFFFF" stroke="#939598" stroke-width="0.8" cx="198.308" cy="246.382" r="2.268"/>
				<path fill="#FFFFFF" stroke="#939598" d="M198.308,246.382"/>
			</g>
		</g>
		<g>
			<g>
				<circle fill="#FFFFFF" stroke="#939598" cx="189.868" cy="235.101" r="3.219"/>
				<path fill="#FFFFFF" stroke="#939598" d="M189.868,235.101"/>
			</g>
			<g>
				<circle fill="#FFFFFF" stroke="#939598" stroke-width="0.8" cx="189.868" cy="235.069" r="2.268"/>
				<path fill="#FFFFFF" stroke="#939598" d="M189.868,235.069"/>
			</g>
		</g>
		<line fill="#FFFFFF" stroke="#939598" x1="202.728" y1="252.716" x2="202.728" y2="229.435"/>
		<line fill="#FFFFFF" stroke="#939598" x1="203.819" y1="252.685" x2="203.819" y2="229.435"/>
	</g>
	<g>
		<g>
			<rect x="141.384" y="271.925" fill="#FFFFFF" stroke="#939598" width="24.902" height="21.969"/>
			<path fill="#FFFFFF" stroke="#939598" d="M155.124,282.909"/>
		</g>
		<line fill="#FFFFFF" stroke="#939598" x1="141.325" y1="273.461" x2="166.286" y2="273.461"/>
		<rect x="162.19" y="270.84" fill="#FFFFFF" stroke="#939598" width="2.018" height="1.069"/>
		<path fill="#FFFFFF" stroke="#939598" d="M163.199,271.434"/>
	</g>
	<g>
		<polyline fill="none" stroke="#939598" stroke-dasharray="1.5,1,1.5,1,1.5,1" points="186.811,211.858 204.68,211.858 
			204.68,194.333 187.212,194.333 		"/>
		<polyline fill="#FFFFFF" stroke="#939598" points="187.212,194.305 186.149,194.305 186.149,211.858 186.804,211.858 		"/>
	</g>
	<line fill="none" stroke="#939598" x1="181.346" y1="276.691" x2="181.346" y2="294.191"/>
	<g>
		<g>
			<g>
				<polygon fill="none" stroke="#939598" stroke-width="0.7" points="173.909,267.725 175.16,268.412 169.951,277.005 
					168.7,276.318 				"/>
				<path fill="none" stroke="#333333" stroke-width="0.8" d="M170.979,273.061"/>
			</g>
			<path fill="none" stroke="#939598" stroke-width="0.8" d="M174.388,268.139c3.202,1.94,4.926,5.394,4.81,8.888"/>
		</g>
	</g>
	<g>
		<rect x="115.182" y="8.089" fill="none" stroke="#939598" width="2.875" height="2.875"/>
		<rect x="204.195" y="8.089" fill="none" stroke="#939598" width="2.875" height="2.875"/>
		<line fill="none" stroke="#939598" x1="117.807" y1="10.214" x2="204.195" y2="10.214"/>
		<line fill="none" stroke="#939598" x1="118.057" y1="10.964" x2="118.057" y2="16.858"/>
		<line fill="none" stroke="#939598" x1="204.215" y1="10.964" x2="204.215" y2="16.608"/>
		<line fill="none" stroke="#939598" x1="207.07" y1="10.964" x2="207.07" y2="16.858"/>
		<line fill="none" stroke="#939598" x1="204.195" y1="8.089" x2="117.557" y2="8.089"/>
		<line fill="none" stroke="#939598" x1="115.182" y1="10.964" x2="115.182" y2="16.358"/>
	</g>
	<g>
		<polygon fill="none" stroke="#939598" points="105.28,310.38 105.272,308.794 82.646,308.778 82.653,310.366 		"/>
		<path fill="none" stroke="#939598" d="M82.636,309.65c0.423-12.458,10.664-22.214,23.121-21.788"/>
	</g>
	<g>
		<g>
			<polygon fill="none" stroke="#939598" points="128.462,471.464 128.467,469.893 145.717,469.88 145.71,471.454 			"/>
			<path fill="none" stroke="#939598" d="M145.724,470.908c-0.321-9.496-8.13-16.933-17.625-16.608"/>
		</g>
		<g>
			<polygon fill="none" stroke="#939598" points="128.462,437.048 128.467,438.619 145.717,438.633 145.71,437.059 			"/>
			<path fill="none" stroke="#939598" d="M145.724,437.604c-0.321,9.496-8.13,16.933-17.625,16.608"/>
		</g>
	</g>
	<g>
		<g>
			<g>
				<rect x="159.92" y="298.081" fill="#FFFFFF" stroke="#939598" width="46.75" height="24.496"/>
				<path fill="#FFFFFF" stroke="#939598" d="M183.92,310.31"/>
			</g>
			<g>
				<polyline fill="#FFFFFF" stroke="#939598" points="205.244,310.071 205.244,300.28 161.676,300.28 161.676,320.376 
					205.244,320.376 205.244,310.975 				"/>
				<path fill="#FFFFFF" stroke="#939598" d="M183.92,310.31"/>
			</g>
			<line fill="#FFFFFF" stroke="#939598" x1="205.244" y1="320.376" x2="184.844" y2="310.986"/>
			<line fill="#FFFFFF" stroke="#939598" x1="183.023" y1="309.598" x2="161.676" y2="300.28"/>
			<line fill="#FFFFFF" stroke="#939598" x1="161.676" y1="320.376" x2="182.918" y2="311.078"/>
			<line fill="#FFFFFF" stroke="#939598" x1="184.877" y1="309.573" x2="205.244" y2="300.28"/>
			<g>
				<path fill="#FFFFFF" stroke="#939598" d="M183.92,309.262c-0.6,0-1.084,0.587-1.084,1.048c0,0.46,0.484,0.975,1.084,0.975
					c0.598,0,1.084-0.515,1.084-0.975C185.004,309.849,184.518,309.262,183.92,309.262z"/>
				<path fill="#FFFFFF" stroke="#939598" d="M183.92,310.31"/>
			</g>
		</g>
		<path fill="#FFFFFF" stroke="#939598" d="M203.646,309.294c-0.617,0-0.617,2.232,0,2.232s1.115-0.5,1.115-1.116
			C204.762,309.792,204.264,309.294,203.646,309.294z"/>
		<polyline fill="#FFFFFF" stroke="#939598" points="206.965,310.641 204.83,310.641 204.83,310.019 206.967,310.019 		"/>
	</g>
	<polyline fill="none" stroke="#939598" stroke-dasharray="1.5,1.5,1.5,1.5,1.5,1.5" points="196.596,199.358 196.596,182.108 
		208.346,182.108 	"/>
	<polyline fill="none" stroke="#939598" stroke-dasharray="1.5,1.5,1.5,1.5,1.5,1.5" points="182.096,283.441 196.596,283.441 
		196.596,207.001 	"/>
	
		<line fill="none" stroke="#939598" stroke-dasharray="1.5,1.5,1.5,1.5,1.5,1.5" x1="141.68" y1="283.441" x2="166.846" y2="283.441"/>
	<g>
		<g>
			<path fill="#FFFFFF" stroke="#939598" d="M177.335,165.395c0.426,0,0.771,0.344,0.771,0.771v13.445
				c0,0.426-0.346,0.771-0.771,0.771h-22.807c-0.426,0-0.77-0.346-0.77-0.771v-13.445c0-0.428,0.344-0.771,0.77-0.771H177.335z"/>
			<path fill="#FFFFFF" stroke="#939598" d="M166.013,172.307"/>
		</g>
		<g>
			<circle fill="#FFFFFF" stroke="#939598" cx="166.013" cy="173.218" r="0.871"/>
			<path fill="#FFFFFF" stroke="#939598" d="M166.013,173.217"/>
		</g>
		<g>
			<g>
				<rect x="162.208" y="165.931" fill="#FFFFFF" stroke="#939598" width="7.609" height="1.82"/>
				<path fill="#FFFFFF" stroke="#939598" d="M166.013,166.84"/>
			</g>
			<g>
				<rect x="165.624" y="167.703" fill="#FFFFFF" stroke="#939598" width="0.777" height="3.586"/>
				<path fill="#FFFFFF" stroke="#939598" d="M166.013,169.265"/>
			</g>
			<g>
				<circle fill="#FFFFFF" stroke="#939598" cx="166.013" cy="166.858" r="0.847"/>
				<path fill="#FFFFFF" stroke="#939598" d="M166.013,166.858"/>
			</g>
		</g>
		<g>
			<path fill="#FFFFFF" stroke="#939598" d="M166.013,173.217"/>
			<path fill="none" stroke="#939598" d="M166.483,168.38h9.588c0.447,0,0.811,0.362,0.811,0.81v9.221
				c0,0.445-0.363,0.809-0.811,0.809h-20.279c-0.447,0-0.811-0.363-0.811-0.809v-9.221c0-0.447,0.363-0.81,0.811-0.81h9.727"/>
		</g>
	</g>
</g>
<g id="walls">
	<polyline fill="none" stroke="#939598" stroke-width="5" points="129.848,18.334 2.5,18.615 2.5,478.035 181.528,478.158 
		181.528,470.108 	"/>
	<polyline fill="none" stroke="#939598" stroke-width="5" points="181.528,447.831 181.528,423.857 209.336,423.857 209.336,18.16 
		195.35,18.191 	"/>
	<line fill="none" stroke="#939598" stroke-width="3" x1="29.54" y1="206.191" x2="2.346" y2="206.191"/>
	<polyline fill="none" stroke="#939598" stroke-width="3" points="105.013,288.108 105.013,206.191 52.346,206.191 	"/>
	<line fill="none" stroke="#939598" stroke-width="3" x1="105.013" y1="376.525" x2="105.013" y2="310.525"/>
	<line fill="none" stroke="#939598" stroke-width="3" x1="105.013" y1="476.358" x2="105.013" y2="399.025"/>
	<polyline fill="none" stroke="#939598" stroke-width="3" points="0.346,145.525 85.679,145.525 85.679,205.191 	"/>
	<line fill="none" stroke="#939598" stroke-width="3" x1="24.615" y1="317.191" x2="4.346" y2="317.191"/>
	<line fill="none" stroke="#939598" stroke-width="3" x1="106.012" y1="317.191" x2="48.012" y2="317.191"/>
	<line fill="none" stroke="#939598" stroke-width="3" x1="75.68" y1="368.191" x2="4.346" y2="368.191"/>
	<line fill="none" stroke="#939598" stroke-width="3" x1="105.012" y1="368.191" x2="99.012" y2="368.191"/>
	<line fill="none" stroke="#939598" stroke-width="3" x1="128.679" y1="471.857" x2="128.679" y2="477.858"/>
	<polyline fill="none" stroke="#939598" stroke-width="3" points="105.346,427.525 128.679,427.525 128.679,437.108 	"/>
	<polyline fill="none" stroke="#939598" stroke-width="3" points="207.346,390.525 177.013,390.525 142.679,390.525 
		142.679,351.515 	"/>
	<path fill="none" stroke="#939598" stroke-width="3" d="M210.013,296.191c-2.334,0-67.334,0-67.334,0v33.001"/>
	<polyline fill="none" stroke="#939598" stroke-width="3" points="177.044,418.459 177.013,422.924 182.679,422.924 	"/>
	<line fill="none" stroke="#939598" stroke-width="3" x1="177.013" y1="390.525" x2="176.869" y2="396.858"/>
	<line fill="none" stroke="#939598" stroke-width="3" x1="54.346" y1="316.858" x2="54.346" y2="368.191"/>
	<line fill="none" stroke="#939598" stroke-width="3" x1="158.679" y1="296.858" x2="158.679" y2="324.191"/>
	<polyline fill="none" stroke="#939598" stroke-width="3" points="85.679,194.58 61.172,194.58 61.172,204.858 	"/>
	<polyline fill="none" stroke="#939598" stroke-width="3" points="199.013,18.191 199.013,23.858 208.346,23.858 	"/>
	<polyline fill="none" stroke="#939598" stroke-width="3" points="18.013,19.191 18.013,24.525 3.346,24.525 	"/>
	<polyline fill="none" stroke="#939598" stroke-width="3" points="94.346,18.525 94.346,24.858 123.68,24.858 123.68,17.525 	"/>
	<g>
		<rect x="159.084" y="18.394" fill="none" stroke="#939598" width="37.5" height="1.766"/>
		<rect x="126.834" y="16.321" fill="none" stroke="#939598" width="41" height="1.938"/>
	</g>
</g>
<g id="windows">
	<g>
		<g>
			<rect x="207.541" y="45.749" fill="#FFFFFF" stroke="#939598" width="3.674" height="27.776"/>
		</g>
		<line fill="none" stroke="#939598" x1="209.37" y1="45.083" x2="209.37" y2="73.942"/>
	</g>
	<g>
		<g>
			<rect x="0.759" y="149.999" fill="#FFFFFF" stroke="#939598" width="3.674" height="23.11"/>
		</g>
		<line fill="none" stroke="#939598" x1="2.588" y1="149.332" x2="2.588" y2="173.525"/>
	</g>
	<g>
		<g>
			<rect x="0.584" y="375.749" fill="#FFFFFF" stroke="#939598" width="3.674" height="27.776"/>
		</g>
		<line fill="none" stroke="#939598" x1="2.413" y1="375.083" x2="2.413" y2="403.942"/>
	</g>
	<g>
		<rect x="0.533" y="211.691" fill="#FFFFFF" stroke="#939598" width="3.824" height="73.333"/>
		<line fill="none" stroke="#939598" stroke-width="2" x1="4.662" y1="248.683" x2="0.537" y2="248.683"/>
	</g>
	<g>
		<g>
			<rect x="21.853" y="16.709" fill="#FFFFFF" stroke="#939598" width="69.562" height="3.674"/>
			<line fill="none" stroke="#939598" x1="91.415" y1="18.527" x2="21.103" y2="18.527"/>
			<line fill="none" stroke="#939598" stroke-width="2" x1="68.741" y1="20.541" x2="68.741" y2="17.047"/>
		</g>
		<line fill="none" stroke="#939598" stroke-width="2" x1="45.353" y1="20.666" x2="45.353" y2="17.064"/>
	</g>
	<line fill="none" stroke="#939598" x1="2.346" y1="209.358" x2="2.346" y2="291.358"/>
</g>
<g id="Type">
	<g>
		<path fill="#939598" d="M36.208,170.036c0,0.829-0.504,1.251-0.999,1.468c0.747,0.225,1.35,0.657,1.35,1.53
			c0,1.089-0.909,1.729-2.287,1.729h-2.8v-6.302h2.683C35.398,168.461,36.208,169.073,36.208,170.036z M35.488,170.135
			c0-0.63-0.495-1.035-1.395-1.035h-1.918v2.169h1.864C34.895,171.27,35.488,170.882,35.488,170.135z M35.84,172.989
			c0-0.693-0.576-1.089-1.675-1.089h-1.99v2.224h2.116C35.246,174.124,35.84,173.7,35.84,172.989z"/>
		<path fill="#939598" d="M38.124,171l-0.207-0.567c0.513-0.234,1.018-0.387,1.693-0.387c1.269,0,1.98,0.648,1.98,1.873v2.845
			h-0.667v-0.702c-0.324,0.423-0.864,0.801-1.683,0.801c-0.864,0-1.738-0.486-1.738-1.458c0-0.99,0.811-1.513,1.99-1.513
			c0.594,0,1.017,0.081,1.431,0.198v-0.162c0-0.837-0.513-1.27-1.386-1.27C38.988,170.657,38.556,170.802,38.124,171z
			 M38.205,173.376c0,0.594,0.541,0.936,1.17,0.936c0.855,0,1.558-0.522,1.558-1.26v-0.45c-0.342-0.099-0.801-0.198-1.369-0.198
			C38.691,172.404,38.205,172.782,38.205,173.376z"/>
		<path fill="#939598" d="M43.958,173.439c0,0.567,0.315,0.774,0.783,0.774c0.234,0,0.432-0.045,0.675-0.162v0.594
			c-0.243,0.126-0.504,0.198-0.837,0.198c-0.747,0-1.314-0.369-1.314-1.314v-2.809h-0.648v-0.612h0.648v-1.404h0.693v1.404h1.477
			v0.612h-1.477V173.439z"/>
		<path fill="#939598" d="M47.35,174.763h-0.693v-6.572h0.693v2.728c0.306-0.504,0.792-0.909,1.594-0.909
			c1.125,0,1.782,0.756,1.782,1.864v2.89h-0.693v-2.719c0-0.864-0.468-1.404-1.288-1.404c-0.801,0-1.396,0.585-1.396,1.458V174.763z
			"/>
	</g>
	<g>
		<path fill="#939598" d="M192.763,410.851v-0.455l4.098-1.345l-4.083-1.4v-0.582l4.938,1.751v0.47l-3.979,1.345l3.979,1.352v0.462
			l-4.938,1.751v-0.603l4.083-1.4L192.763,410.851z"/>
		<path fill="#939598" d="M192.091,403.865l6.485,3.25v0.497l-6.485-3.25V403.865z"/>
		<path fill="#939598" d="M197.68,401.514v1.702h-4.902v-1.702c0-1.54,1.058-2.604,2.444-2.604S197.68,399.974,197.68,401.514z
			 M193.288,401.514v1.149h3.88v-1.149c0-1.239-0.84-2.03-1.933-2.03S193.288,400.274,193.288,401.514z"/>
	</g>
	<g>
		<path fill="#939598" d="M164.543,362.703c0,0.828-0.505,1.252-1,1.468c0.748,0.225,1.351,0.657,1.351,1.53
			c0,1.089-0.909,1.729-2.286,1.729h-2.8v-6.302h2.683C163.732,361.128,164.543,361.74,164.543,362.703z M163.822,362.803
			c0-0.631-0.495-1.036-1.396-1.036h-1.917v2.17h1.863C163.229,363.937,163.822,363.55,163.822,362.803z M164.174,365.656
			c0-0.693-0.576-1.09-1.675-1.09h-1.989v2.224h2.115C163.579,366.79,164.174,366.367,164.174,365.656z"/>
		<path fill="#939598" d="M166.458,363.667l-0.207-0.567c0.514-0.234,1.018-0.388,1.692-0.388c1.27,0,1.98,0.648,1.98,1.873v2.845
			h-0.666v-0.702c-0.324,0.423-0.864,0.801-1.684,0.801c-0.864,0-1.737-0.485-1.737-1.458c0-0.99,0.811-1.513,1.989-1.513
			c0.595,0,1.018,0.081,1.432,0.198v-0.162c0-0.837-0.513-1.27-1.386-1.27C167.322,363.324,166.891,363.469,166.458,363.667z
			 M166.539,366.043c0,0.595,0.54,0.937,1.171,0.937c0.854,0,1.557-0.522,1.557-1.261v-0.45c-0.342-0.099-0.801-0.197-1.368-0.197
			C167.025,365.071,166.539,365.449,166.539,366.043z"/>
		<path fill="#939598" d="M172.291,366.106c0,0.567,0.315,0.774,0.783,0.774c0.234,0,0.433-0.045,0.676-0.162v0.594
			c-0.243,0.126-0.504,0.198-0.838,0.198c-0.747,0-1.313-0.369-1.313-1.314v-2.809h-0.648v-0.612h0.648v-1.404h0.692v1.404h1.477
			v0.612h-1.477V366.106z"/>
		<path fill="#939598" d="M175.685,367.43h-0.693v-6.572h0.693v2.729c0.306-0.505,0.792-0.909,1.593-0.909
			c1.126,0,1.783,0.756,1.783,1.863v2.89h-0.693v-2.719c0-0.864-0.469-1.404-1.287-1.404c-0.802,0-1.396,0.585-1.396,1.458V367.43z"
			/>
	</g>
	<g>
		<path fill="#939598" d="M126.478,460.592c0,1.415-1.113,2.458-2.528,2.458c-1.4,0-2.542-1.036-2.542-2.479
			c0-0.89,0.314-1.422,0.777-1.912l0.406,0.378c-0.393,0.413-0.673,0.875-0.673,1.541c0,1.085,0.876,1.897,2.018,1.897
			s2.031-0.819,2.031-1.897c0-0.673-0.26-1.114-0.708-1.583l0.357-0.364C126.135,459.143,126.478,459.702,126.478,460.592z"/>
		<path fill="#939598" d="M126.394,457.709h-5.112v-0.539h5.112V457.709z"/>
		<path fill="#939598" d="M126.478,454.265c0,1.085-0.854,1.877-1.884,1.877s-1.898-0.799-1.898-1.892
			c0-1.085,0.854-1.884,1.884-1.884C125.609,452.366,126.478,453.172,126.478,454.265z M123.172,454.265
			c0,0.784,0.623,1.323,1.407,1.323c0.785,0,1.415-0.574,1.415-1.338c0-0.784-0.623-1.33-1.4-1.33
			C123.802,452.92,123.172,453.501,123.172,454.265z"/>
		<path fill="#939598" d="M126.464,450.197c0,0.519-0.203,1.093-0.532,1.499l-0.386-0.272c0.294-0.393,0.463-0.827,0.463-1.254
			c0-0.435-0.225-0.75-0.575-0.75h-0.014c-0.364,0-0.504,0.428-0.638,0.904c-0.16,0.566-0.356,1.197-1.022,1.197h-0.014
			c-0.623,0-1.036-0.519-1.036-1.232c0-0.441,0.153-0.932,0.398-1.303l0.406,0.245c-0.217,0.336-0.35,0.721-0.35,1.071
			c0,0.428,0.224,0.7,0.525,0.7h0.014c0.343,0,0.477-0.448,0.623-0.932c0.168-0.56,0.386-1.162,1.037-1.162h0.014
			C126.064,448.909,126.464,449.477,126.464,450.197z"/>
		<path fill="#939598" d="M126.009,446.312c0-0.497-0.203-0.848-0.512-1.142l0.301-0.336c0.406,0.364,0.68,0.806,0.68,1.491
			c0,0.995-0.764,1.808-1.891,1.808c-1.051,0-1.892-0.735-1.892-1.737c0-1.071,0.854-1.688,1.919-1.688c0.05,0,0.105,0,0.168,0.007
			v2.871C125.567,447.511,126.009,446.95,126.009,446.312z M124.384,445.255c-0.658,0.057-1.233,0.435-1.233,1.156
			c0,0.63,0.525,1.106,1.233,1.176V445.255z"/>
		<path fill="#939598" d="M125.364,443.037c0.441,0,0.603-0.245,0.603-0.609c0-0.182-0.035-0.336-0.127-0.525h0.463
			c0.098,0.189,0.154,0.393,0.154,0.651c0,0.581-0.287,1.022-1.023,1.022h-2.185v0.505h-0.477v-0.505h-1.093v-0.539h1.093v-1.148
			h0.477v1.148H125.364z"/>
	</g>
	<g>
		<path fill="#939598" d="M151.526,281.366l-1.422-1.905h-1.401v1.905h-0.553v-4.902h2.107c1.079,0,1.772,0.581,1.772,1.464
			c0,0.819-0.561,1.295-1.331,1.436l1.506,2.003H151.526z M150.216,276.975h-1.513v1.989h1.506c0.735,0,1.261-0.378,1.261-1.016
			C151.47,277.339,151.008,276.975,150.216,276.975z"/>
		<path fill="#939598" d="M154.646,280.981c0.498,0,0.848-0.203,1.142-0.512l0.337,0.301c-0.364,0.406-0.806,0.68-1.492,0.68
			c-0.994,0-1.807-0.764-1.807-1.891c0-1.051,0.735-1.892,1.736-1.892c1.072,0,1.688,0.854,1.688,1.919c0,0.05,0,0.105-0.008,0.168
			h-2.871C153.449,280.54,154.01,280.981,154.646,280.981z M155.704,279.356c-0.056-0.658-0.434-1.233-1.155-1.233
			c-0.631,0-1.106,0.525-1.177,1.233H155.704z"/>
		<path fill="#939598" d="M159.078,277.759v0.463h-1.142v3.145h-0.539v-3.145h-0.498v-0.47h0.498v-0.314
			c0-0.792,0.398-1.212,1.092-1.212c0.253,0,0.421,0.028,0.596,0.091v0.47c-0.196-0.057-0.343-0.092-0.525-0.092
			c-0.42,0-0.63,0.253-0.63,0.771v0.294H159.078z"/>
	</g>
	<g>
		<path fill="#939598" d="M193.493,205.949h-1.702v-4.903h1.702c1.541,0,2.605,1.058,2.605,2.444S195.034,205.949,193.493,205.949z
			 M193.493,201.557h-1.148v3.88h1.148c1.24,0,2.031-0.84,2.031-1.933S194.733,201.557,193.493,201.557z"/>
		<path fill="#939598" d="M199.983,201.032h0.456l1.345,4.097l1.4-4.083h0.581l-1.751,4.938h-0.469l-1.345-3.979l-1.352,3.979
			h-0.463l-1.751-4.938h0.603l1.4,4.083L199.983,201.032z"/>
	</g>
	<g>
		<path fill="#939598" d="M176.812,456.218h-2.99v1.674h2.676v0.505h-2.676v1.716h3.025v0.504h-3.579v-4.902h3.544V456.218z"/>
		<path fill="#939598" d="M178.407,460.616h-0.539v-3.621h0.539v0.631c0.238-0.393,0.616-0.708,1.239-0.708
			c0.876,0,1.387,0.589,1.387,1.45v2.248h-0.539v-2.115c0-0.672-0.364-1.093-1.001-1.093c-0.624,0-1.086,0.455-1.086,1.135V460.616z
			"/>
		<path fill="#939598" d="M182.908,459.587c0,0.441,0.245,0.603,0.609,0.603c0.183,0,0.336-0.035,0.525-0.127v0.463
			c-0.189,0.098-0.393,0.154-0.651,0.154c-0.581,0-1.022-0.288-1.022-1.023v-2.185h-0.504v-0.477h0.504v-1.093h0.539v1.093h1.148
			v0.477h-1.148V459.587z"/>
		<path fill="#939598" d="M185.547,460.616h-0.539v-3.621h0.539v0.945c0.267-0.602,0.792-1.036,1.479-1.008v0.581h-0.042
			c-0.792,0-1.437,0.567-1.437,1.66V460.616z"/>
		<path fill="#939598" d="M189.607,460.735c-0.308,0.749-0.658,1.022-1.204,1.022c-0.302,0-0.525-0.063-0.771-0.182l0.182-0.428
			c0.176,0.091,0.337,0.133,0.567,0.133c0.322,0,0.525-0.168,0.743-0.679l-1.646-3.607h0.596l1.316,3.019l1.163-3.019h0.574
			L189.607,460.735z"/>
	</g>
	<g>
		<path fill="#939598" d="M174.492,291.497v0.952h1.383v0.442h-3.92v-1.467c0-0.885,0.471-1.468,1.249-1.468
			C174.055,289.957,174.492,290.663,174.492,291.497z M172.364,291.458v0.991h1.725v-0.969c0-0.649-0.348-1.075-0.868-1.075
			C172.655,290.405,172.364,290.825,172.364,291.458z"/>
		<path fill="#939598" d="M173.534,289.224l-0.353,0.129c-0.146-0.319-0.241-0.633-0.241-1.053c0-0.789,0.403-1.231,1.165-1.231
			h1.77v0.414h-0.437c0.263,0.201,0.498,0.537,0.498,1.047c0,0.538-0.303,1.081-0.907,1.081c-0.616,0-0.94-0.504-0.94-1.237
			c0-0.37,0.05-0.633,0.123-0.891h-0.101c-0.521,0-0.79,0.319-0.79,0.862C173.321,288.687,173.411,288.955,173.534,289.224z
			 M175.013,289.174c0.369,0,0.582-0.336,0.582-0.729c0-0.532-0.324-0.969-0.784-0.969h-0.279c-0.062,0.213-0.123,0.499-0.123,0.852
			C174.408,288.871,174.643,289.174,175.013,289.174z"/>
		<path fill="#939598" d="M175.875,285.887v0.431h-2.896v-0.431h0.504c-0.313-0.19-0.565-0.493-0.565-0.991
			c0-0.7,0.471-1.109,1.159-1.109h1.798v0.432h-1.691c-0.537,0-0.873,0.291-0.873,0.801c0,0.498,0.363,0.868,0.907,0.868H175.875z"
			/>
		<path fill="#939598" d="M175.052,282.453c0.353,0,0.481-0.195,0.481-0.486c0-0.146-0.027-0.27-0.101-0.421h0.369
			c0.079,0.151,0.124,0.314,0.124,0.521c0,0.465-0.23,0.817-0.818,0.817h-1.747v0.403h-0.381v-0.403h-0.873v-0.432h0.873v-0.918
			h0.381v0.918H175.052z"/>
		<path fill="#939598" d="M175.875,280.511v0.431h-2.896v-0.431h0.756c-0.481-0.213-0.828-0.633-0.806-1.182h0.465v0.033
			c0,0.633,0.453,1.148,1.327,1.148H175.875z"/>
		<path fill="#939598" d="M175.97,277.431c0.6,0.246,0.818,0.526,0.818,0.963c0,0.241-0.051,0.42-0.146,0.616l-0.342-0.146
			c0.072-0.141,0.106-0.27,0.106-0.454c0-0.258-0.135-0.42-0.543-0.594l-2.885,1.316v-0.476l2.414-1.053l-2.414-0.93v-0.46
			L175.97,277.431z"/>
	</g>
	<g>
		<path fill="#939598" d="M136.635,6.02c-0.735,0-1.205-0.364-1.513-0.868l0.399-0.343c0.301,0.455,0.609,0.7,1.12,0.7
			c0.554,0,0.96-0.399,0.96-1.176V1.047h0.56v3.278C138.161,5.453,137.51,6.02,136.635,6.02z"/>
		<path fill="#939598" d="M141.948,2.329h0.532V5.95h-0.532v-0.63c-0.245,0.392-0.616,0.708-1.239,0.708
			c-0.876,0-1.387-0.588-1.387-1.45V2.329h0.539v2.115c0,0.672,0.364,1.093,1.002,1.093c0.616,0,1.085-0.456,1.085-1.135V2.329z"/>
		<path fill="#939598" d="M143.739,5.95V0.837h0.539V5.95H143.739z"/>
		<path fill="#939598" d="M145.545,1.537V0.942h0.616v0.595H145.545z M145.58,5.95V2.329h0.539V5.95H145.58z"/>
		<path fill="#939598" d="M148.969,5.564c0.497,0,0.848-0.203,1.142-0.511l0.336,0.301c-0.364,0.406-0.806,0.679-1.491,0.679
			c-0.995,0-1.808-0.763-1.808-1.891c0-1.05,0.735-1.891,1.737-1.891c1.071,0,1.688,0.854,1.688,1.919c0,0.049,0,0.105-0.007,0.168
			h-2.871C147.771,5.123,148.331,5.564,148.969,5.564z M150.026,3.939c-0.057-0.658-0.435-1.232-1.156-1.232
			c-0.63,0-1.106,0.525-1.176,1.232H150.026z"/>
		<path fill="#939598" d="M152.244,4.92c0,0.441,0.245,0.603,0.609,0.603c0.182,0,0.336-0.035,0.525-0.126v0.462
			c-0.189,0.098-0.393,0.154-0.651,0.154c-0.581,0-1.022-0.287-1.022-1.022V2.805H151.2V2.329h0.505V1.236h0.539v1.092h1.148v0.477
			h-1.148V4.92z"/>
		<path fill="#939598" d="M160.219,2.273c0,0.644-0.393,0.973-0.777,1.142c0.581,0.175,1.051,0.511,1.051,1.19
			c0,0.848-0.708,1.345-1.779,1.345h-2.179V1.047h2.088C159.588,1.047,160.219,1.523,160.219,2.273z M159.658,2.35
			c0-0.49-0.385-0.805-1.086-0.805h-1.491v1.688h1.449C159.196,3.232,159.658,2.931,159.658,2.35z M159.932,4.57
			c0-0.539-0.448-0.847-1.303-0.847h-1.548v1.73h1.646C159.469,5.453,159.932,5.123,159.932,4.57z"/>
		<path fill="#939598" d="M161.708,3.022l-0.161-0.441c0.398-0.182,0.791-0.301,1.316-0.301c0.987,0,1.541,0.504,1.541,1.457V5.95
			h-0.519V5.403c-0.252,0.329-0.672,0.624-1.31,0.624c-0.673,0-1.352-0.378-1.352-1.135c0-0.771,0.63-1.177,1.548-1.177
			c0.462,0,0.791,0.063,1.113,0.154V3.744c0-0.651-0.399-0.988-1.078-0.988C162.38,2.756,162.044,2.868,161.708,3.022z
			 M161.771,4.871c0,0.462,0.42,0.729,0.91,0.729c0.666,0,1.212-0.406,1.212-0.98V4.269c-0.266-0.077-0.623-0.154-1.064-0.154
			C162.148,4.115,161.771,4.409,161.771,4.871z"/>
		<path fill="#939598" d="M165.6,5.95V0.837h0.539V5.95H165.6z"/>
		<path fill="#939598" d="M169.023,6.034c-1.058,0-1.856-0.861-1.856-1.884c0-1.03,0.799-1.898,1.856-1.898
			c0.687,0,1.113,0.287,1.449,0.644l-0.356,0.378c-0.287-0.301-0.609-0.546-1.1-0.546c-0.735,0-1.296,0.623-1.296,1.408
			c0,0.792,0.574,1.415,1.33,1.415c0.463,0,0.82-0.231,1.107-0.539l0.343,0.322C170.137,5.74,169.702,6.034,169.023,6.034z"/>
		<path fill="#939598" d="M172.937,6.034c-1.085,0-1.877-0.854-1.877-1.884c0-1.03,0.799-1.898,1.892-1.898
			c1.085,0,1.884,0.854,1.884,1.884C174.835,5.165,174.029,6.034,172.937,6.034z M172.937,2.728c-0.784,0-1.323,0.623-1.323,1.408
			c0,0.784,0.574,1.415,1.338,1.415c0.784,0,1.33-0.623,1.33-1.4C174.281,3.358,173.7,2.728,172.937,2.728z"/>
		<path fill="#939598" d="M176.346,5.95h-0.54V2.329h0.54v0.63c0.237-0.392,0.616-0.707,1.239-0.707c0.876,0,1.387,0.588,1.387,1.45
			V5.95h-0.539V3.834c0-0.672-0.364-1.092-1.002-1.092c-0.623,0-1.085,0.455-1.085,1.134V5.95z"/>
		<path fill="#939598" d="M181.778,6.069c-0.308,0.75-0.658,1.022-1.204,1.022c-0.302,0-0.525-0.063-0.771-0.182l0.182-0.427
			c0.176,0.091,0.337,0.133,0.567,0.133c0.322,0,0.525-0.168,0.743-0.68l-1.646-3.607h0.596l1.316,3.019l1.163-3.019h0.574
			L181.778,6.069z"/>
	</g>
	<g>
		<path fill="#939598" d="M148.241,318.811v-0.553h4.391v-2.76h0.512v3.312H148.241z"/>
		<path fill="#939598" d="M148.731,314.555h-0.596v-0.616h0.596V314.555z M153.144,314.52h-3.621v-0.539h3.621V314.52z"/>
		<path fill="#939598" d="M153.144,312.188v0.539h-3.621v-0.539h0.631c-0.393-0.238-0.708-0.616-0.708-1.239
			c0-0.876,0.589-1.387,1.45-1.387h2.248v0.539h-2.115c-0.672,0-1.093,0.364-1.093,1.002c0,0.623,0.455,1.085,1.135,1.085H153.144z"
			/>
		<path fill="#939598" d="M152.759,306.819c0-0.497-0.203-0.848-0.512-1.142l0.301-0.337c0.406,0.364,0.68,0.806,0.68,1.492
			c0,0.994-0.764,1.807-1.891,1.807c-1.051,0-1.892-0.735-1.892-1.736c0-1.071,0.854-1.688,1.919-1.688c0.05,0,0.105,0,0.168,0.008
			v2.871C152.317,308.017,152.759,307.456,152.759,306.819z M151.134,305.762c-0.658,0.056-1.233,0.434-1.233,1.155
			c0,0.631,0.525,1.106,1.233,1.177V305.762z"/>
		<path fill="#939598" d="M153.144,303.732v0.54h-3.621v-0.54h0.631c-0.393-0.238-0.708-0.616-0.708-1.239
			c0-0.876,0.589-1.387,1.45-1.387h2.248v0.539h-2.115c-0.672,0-1.093,0.364-1.093,1.002c0,0.623,0.455,1.085,1.135,1.085H153.144z"
			/>
	</g>
	<g>
		<path fill="#939598" d="M24.418,349.617c-1.415,0-2.458-1.113-2.458-2.528c0-1.4,1.037-2.542,2.479-2.542
			c0.889,0,1.422,0.314,1.912,0.777l-0.378,0.406c-0.413-0.393-0.875-0.673-1.541-0.673c-1.085,0-1.898,0.876-1.898,2.018
			s0.819,2.031,1.898,2.031c0.672,0,1.114-0.26,1.583-0.708l0.364,0.357C25.868,349.274,25.307,349.617,24.418,349.617z"/>
		<path fill="#939598" d="M27.301,349.533v-5.112h0.539v5.112H27.301z"/>
		<path fill="#939598" d="M30.745,349.617c-1.085,0-1.877-0.854-1.877-1.884s0.798-1.898,1.891-1.898
			c1.085,0,1.884,0.854,1.884,1.884C32.644,348.749,31.838,349.617,30.745,349.617z M30.745,346.312
			c-0.784,0-1.324,0.623-1.324,1.407c0,0.785,0.575,1.415,1.338,1.415c0.785,0,1.331-0.623,1.331-1.4
			C32.09,346.941,31.509,346.312,30.745,346.312z"/>
		<path fill="#939598" d="M34.812,349.604c-0.518,0-1.093-0.203-1.499-0.532l0.273-0.386c0.392,0.294,0.826,0.463,1.253,0.463
			c0.435,0,0.75-0.225,0.75-0.575v-0.014c0-0.364-0.427-0.504-0.903-0.638c-0.567-0.16-1.198-0.356-1.198-1.022v-0.014
			c0-0.623,0.519-1.036,1.233-1.036c0.441,0,0.931,0.153,1.303,0.398l-0.246,0.406c-0.336-0.217-0.721-0.35-1.071-0.35
			c-0.427,0-0.7,0.224-0.7,0.525v0.014c0,0.343,0.448,0.477,0.931,0.623c0.561,0.168,1.163,0.386,1.163,1.037v0.014
			C36.101,349.204,35.533,349.604,34.812,349.604z"/>
		<path fill="#939598" d="M38.697,349.148c0.497,0,0.847-0.203,1.142-0.512l0.336,0.301c-0.364,0.406-0.805,0.68-1.492,0.68
			c-0.995,0-1.807-0.764-1.807-1.891c0-1.051,0.735-1.892,1.737-1.892c1.071,0,1.688,0.854,1.688,1.919c0,0.05,0,0.105-0.007,0.168
			h-2.872C37.5,348.707,38.06,349.148,38.697,349.148z M39.755,347.523c-0.056-0.658-0.435-1.233-1.156-1.233
			c-0.63,0-1.106,0.525-1.177,1.233H39.755z"/>
		<path fill="#939598" d="M41.973,348.504c0,0.441,0.245,0.603,0.609,0.603c0.182,0,0.336-0.035,0.525-0.127v0.463
			c-0.189,0.098-0.393,0.154-0.651,0.154c-0.582,0-1.022-0.287-1.022-1.023v-2.185h-0.504v-0.477h0.504v-1.093h0.539v1.093h1.148
			v0.477h-1.148V348.504z"/>
	</g>
	<g>
		<path fill="#939598" d="M75.168,340.117c-1.415,0-2.458-1.113-2.458-2.528c0-1.4,1.037-2.542,2.479-2.542
			c0.889,0,1.422,0.314,1.912,0.777l-0.378,0.406c-0.413-0.393-0.875-0.673-1.541-0.673c-1.085,0-1.898,0.876-1.898,2.018
			s0.819,2.031,1.898,2.031c0.672,0,1.114-0.26,1.583-0.708l0.364,0.357C76.618,339.774,76.057,340.117,75.168,340.117z"/>
		<path fill="#939598" d="M78.051,340.033v-5.112h0.539v5.112H78.051z"/>
		<path fill="#939598" d="M81.495,340.117c-1.085,0-1.877-0.854-1.877-1.884s0.798-1.898,1.891-1.898
			c1.085,0,1.884,0.854,1.884,1.884C83.394,339.249,82.588,340.117,81.495,340.117z M81.495,336.812
			c-0.784,0-1.324,0.623-1.324,1.407c0,0.785,0.575,1.415,1.338,1.415c0.785,0,1.331-0.623,1.331-1.4
			C82.84,337.441,82.259,336.812,81.495,336.812z"/>
		<path fill="#939598" d="M85.562,340.104c-0.518,0-1.093-0.203-1.499-0.532l0.273-0.386c0.392,0.294,0.826,0.463,1.253,0.463
			c0.435,0,0.75-0.225,0.75-0.575v-0.014c0-0.364-0.427-0.504-0.903-0.638c-0.567-0.16-1.198-0.356-1.198-1.022v-0.014
			c0-0.623,0.519-1.036,1.233-1.036c0.441,0,0.931,0.153,1.303,0.398l-0.246,0.406c-0.336-0.217-0.721-0.35-1.071-0.35
			c-0.427,0-0.7,0.224-0.7,0.525v0.014c0,0.343,0.448,0.477,0.931,0.623c0.561,0.168,1.163,0.386,1.163,1.037v0.014
			C86.851,339.704,86.283,340.104,85.562,340.104z"/>
		<path fill="#939598" d="M89.447,339.648c0.497,0,0.847-0.203,1.142-0.512l0.336,0.301c-0.364,0.406-0.805,0.68-1.492,0.68
			c-0.995,0-1.807-0.764-1.807-1.891c0-1.051,0.735-1.892,1.737-1.892c1.071,0,1.688,0.854,1.688,1.919c0,0.05,0,0.105-0.007,0.168
			h-2.872C88.25,339.207,88.81,339.648,89.447,339.648z M90.505,338.023c-0.056-0.658-0.435-1.233-1.156-1.233
			c-0.63,0-1.106,0.525-1.177,1.233H90.505z"/>
		<path fill="#939598" d="M92.723,339.004c0,0.441,0.245,0.603,0.609,0.603c0.182,0,0.336-0.035,0.525-0.127v0.463
			c-0.189,0.098-0.393,0.154-0.651,0.154c-0.582,0-1.022-0.287-1.022-1.023v-2.185h-0.504v-0.477h0.504v-1.093h0.539v1.093h1.148
			v0.477h-1.148V339.004z"/>
	</g>
	<g>
		<path fill="#939598" d="M40.884,253.889c0,0.828-0.504,1.252-0.999,1.468c0.747,0.225,1.35,0.657,1.35,1.53
			c0,1.089-0.909,1.729-2.287,1.729h-2.8v-6.302h2.683C40.074,252.313,40.884,252.926,40.884,253.889z M40.164,253.988
			c0-0.631-0.495-1.036-1.396-1.036h-1.917v2.17h1.864C39.57,255.122,40.164,254.735,40.164,253.988z M40.515,256.842
			c0-0.693-0.576-1.09-1.674-1.09h-1.99v2.224h2.116C39.921,257.976,40.515,257.553,40.515,256.842z"/>
		<path fill="#939598" d="M44.583,258.12c0.639,0,1.089-0.261,1.467-0.657l0.432,0.387c-0.468,0.522-1.035,0.874-1.917,0.874
			c-1.278,0-2.323-0.981-2.323-2.431c0-1.351,0.945-2.431,2.233-2.431c1.377,0,2.169,1.098,2.169,2.466c0,0.063,0,0.136-0.009,0.217
			h-3.691C43.043,257.553,43.763,258.12,44.583,258.12z M45.942,256.031c-0.072-0.846-0.558-1.584-1.485-1.584
			c-0.811,0-1.422,0.675-1.513,1.584H45.942z"/>
		<path fill="#939598" d="M51.594,258.615v-0.937c-0.378,0.559-0.927,1.035-1.782,1.035c-1.117,0-2.224-0.882-2.224-2.421
			c0-1.531,1.107-2.431,2.224-2.431c0.864,0,1.422,0.468,1.782,0.99v-2.81h0.693v6.572H51.594z M49.938,254.483
			c-0.9,0-1.639,0.666-1.639,1.8c0,1.107,0.756,1.81,1.639,1.81c0.864,0,1.684-0.72,1.684-1.81
			C51.621,255.203,50.802,254.483,49.938,254.483z"/>
		<path fill="#939598" d="M54.527,258.615h-0.693v-4.654h0.693v1.215c0.342-0.773,1.017-1.332,1.899-1.296v0.747h-0.054
			c-1.018,0-1.846,0.729-1.846,2.134V258.615z"/>
		<path fill="#939598" d="M59.405,258.724c-1.395,0-2.413-1.099-2.413-2.422s1.026-2.439,2.431-2.439
			c1.396,0,2.422,1.098,2.422,2.421S60.81,258.724,59.405,258.724z M59.405,254.474c-1.008,0-1.701,0.802-1.701,1.81
			c0,1.009,0.738,1.819,1.719,1.819c1.008,0,1.71-0.802,1.71-1.801C61.134,255.284,60.387,254.474,59.405,254.474z"/>
		<path fill="#939598" d="M65.219,258.724c-1.395,0-2.413-1.099-2.413-2.422s1.026-2.439,2.431-2.439
			c1.396,0,2.422,1.098,2.422,2.421S66.624,258.724,65.219,258.724z M65.219,254.474c-1.008,0-1.701,0.802-1.701,1.81
			c0,1.009,0.738,1.819,1.719,1.819c1.008,0,1.71-0.802,1.71-1.801C66.948,255.284,66.201,254.474,65.219,254.474z"/>
		<path fill="#939598" d="M74.238,253.862c1.071,0,1.729,0.72,1.729,1.872v2.881h-0.693v-2.719c0-0.9-0.45-1.404-1.207-1.404
			c-0.702,0-1.288,0.522-1.288,1.44v2.683h-0.684v-2.737c0-0.873-0.459-1.386-1.197-1.386s-1.296,0.612-1.296,1.467v2.656h-0.693
			v-4.654h0.693v0.783c0.306-0.459,0.72-0.882,1.503-0.882c0.756,0,1.242,0.404,1.495,0.927
			C72.933,254.276,73.428,253.862,74.238,253.862z"/>
		<path fill="#939598" d="M45.01,269.724c-0.819,0-1.414-0.333-1.944-0.774l0.414-0.55c0.513,0.45,0.99,0.676,1.548,0.676
			c1.134,0,1.899-1.152,1.873-2.764c-0.342,0.549-0.909,1.008-1.783,1.008c-1.296,0-2.196-0.819-2.196-1.962
			c0-1.207,0.927-2.152,2.269-2.152c0.72,0,1.251,0.243,1.656,0.648c0.495,0.495,0.783,1.18,0.783,2.448
			C47.63,268.31,46.568,269.724,45.01,269.724z M45.163,263.836c-0.945,0-1.512,0.692-1.512,1.485c0,0.81,0.63,1.386,1.548,1.386
			c0.963,0,1.566-0.702,1.566-1.431C46.766,264.466,46.108,263.836,45.163,263.836z"/>
		<path fill="#939598" d="M49.033,263.313h0.846v0.045l-0.729,2.403h-0.387L49.033,263.313z"/>
		<path fill="#939598" d="M57.898,269.615h-0.801l-1.44-1.899l-1.449,1.899h-0.774l1.828-2.368l-1.755-2.286h0.792l1.377,1.801
			l1.377-1.801h0.774l-1.765,2.269L57.898,269.615z"/>
		<path fill="#939598" d="M62.74,263.269h0.522v6.347H62.56v-5.608l-1.188,0.369L61.2,263.8L62.74,263.269z"/>
		<path fill="#939598" d="M65.961,263.269h0.522v6.347h-0.702v-5.608l-1.188,0.369l-0.171-0.576L65.961,263.269z"/>
		<path fill="#939598" d="M68.247,263.313h0.846v0.045l-0.729,2.403h-0.387L68.247,263.313z"/>
	</g>
	<g>
		<path fill="#939598" d="M59.875,70.878h0.711v5.645h3.547v0.657h-4.258V70.878z"/>
		<path fill="#939598" d="M65.347,71.508v-0.765h0.792v0.765H65.347z M65.392,77.18v-4.654h0.693v4.654H65.392z"/>
		<path fill="#939598" d="M71.144,72.525h0.747l-2.026,4.69h-0.612l-2.017-4.69h0.765l1.566,3.862L71.144,72.525z"/>
		<path fill="#939598" d="M72.996,71.508v-0.765h0.792v0.765H72.996z M73.042,77.18v-4.654h0.693v4.654H73.042z"/>
		<path fill="#939598" d="M76.038,77.18h-0.693v-4.654h0.693v0.81c0.306-0.504,0.792-0.909,1.594-0.909
			c1.125,0,1.783,0.756,1.783,1.864v2.89h-0.693v-2.719c0-0.864-0.468-1.404-1.288-1.404c-0.801,0-1.396,0.585-1.396,1.458V77.18z"
			/>
		<path fill="#939598" d="M82.951,78.638c-0.774,0-1.495-0.216-2.116-0.648l0.315-0.54c0.531,0.387,1.125,0.594,1.792,0.594
			c1.026,0,1.692-0.567,1.692-1.656v-0.549c-0.405,0.54-0.972,0.981-1.828,0.981c-1.116,0-2.188-0.828-2.188-2.188
			c0-1.368,1.08-2.206,2.188-2.206c0.873,0,1.44,0.432,1.818,0.936v-0.837h0.693v3.844C85.318,77.873,84.382,78.638,82.951,78.638z
			 M82.942,73.039c-0.882,0-1.612,0.603-1.612,1.575c0,0.955,0.748,1.594,1.612,1.594c0.882,0,1.71-0.63,1.71-1.584
			C84.652,73.66,83.824,73.039,82.942,73.039z"/>
		<path fill="#939598" d="M90.718,69.996l-4.177,8.336h-0.639l4.177-8.336H90.718z"/>
		<path fill="#939598" d="M93.742,77.18h-2.188v-6.302h2.188c1.98,0,3.349,1.359,3.349,3.142
			C97.091,75.802,95.722,77.18,93.742,77.18z M93.742,71.535h-1.477v4.987h1.477c1.593,0,2.611-1.08,2.611-2.485
			C96.353,72.633,95.335,71.535,93.742,71.535z"/>
		<path fill="#939598" d="M98.493,71.508v-0.765h0.792v0.765H98.493z M98.538,77.18v-4.654h0.693v4.654H98.538z"/>
		<path fill="#939598" d="M101.535,77.18h-0.693v-4.654h0.693v0.81c0.306-0.504,0.792-0.909,1.593-0.909
			c1.125,0,1.783,0.756,1.783,1.864v2.89h-0.693v-2.719c0-0.864-0.468-1.404-1.288-1.404c-0.801,0-1.395,0.585-1.395,1.458V77.18z"
			/>
		<path fill="#939598" d="M106.404,71.508v-0.765h0.792v0.765H106.404z M106.449,77.18v-4.654h0.693v4.654H106.449z"/>
		<path fill="#939598" d="M109.446,77.18h-0.693v-4.654h0.693v0.81c0.306-0.504,0.792-0.909,1.593-0.909
			c1.126,0,1.783,0.756,1.783,1.864v2.89h-0.693v-2.719c0-0.864-0.469-1.404-1.288-1.404c-0.801,0-1.395,0.585-1.395,1.458V77.18z"
			/>
		<path fill="#939598" d="M116.358,78.638c-0.774,0-1.495-0.216-2.116-0.648l0.315-0.54c0.531,0.387,1.125,0.594,1.792,0.594
			c1.026,0,1.692-0.567,1.692-1.656v-0.549c-0.405,0.54-0.973,0.981-1.828,0.981c-1.116,0-2.188-0.828-2.188-2.188
			c0-1.368,1.08-2.206,2.188-2.206c0.874,0,1.44,0.432,1.818,0.936v-0.837h0.693v3.844C118.726,77.873,117.79,78.638,116.358,78.638
			z M116.35,73.039c-0.883,0-1.612,0.603-1.612,1.575c0,0.955,0.748,1.594,1.612,1.594c0.882,0,1.71-0.63,1.71-1.584
			C118.06,73.66,117.231,73.039,116.35,73.039z"/>
		<path fill="#939598" d="M127.429,77.18l-1.827-2.449h-1.801v2.449h-0.711v-6.302h2.709c1.387,0,2.278,0.747,2.278,1.881
			c0,1.053-0.721,1.666-1.711,1.846l1.936,2.575H127.429z M125.745,71.535h-1.944v2.557h1.936c0.945,0,1.62-0.486,1.62-1.306
			C127.356,72.003,126.763,71.535,125.745,71.535z"/>
		<path fill="#939598" d="M131.514,77.288c-1.396,0-2.412-1.098-2.412-2.421c0-1.324,1.025-2.44,2.431-2.44
			c1.396,0,2.421,1.098,2.421,2.422C133.953,76.171,132.918,77.288,131.514,77.288z M131.514,73.039
			c-1.008,0-1.701,0.801-1.701,1.81s0.738,1.818,1.72,1.818c1.008,0,1.71-0.801,1.71-1.8
			C133.242,73.849,132.495,73.039,131.514,73.039z"/>
		<path fill="#939598" d="M137.328,77.288c-1.396,0-2.413-1.098-2.413-2.421c0-1.324,1.026-2.44,2.431-2.44
			c1.396,0,2.422,1.098,2.422,2.422C139.768,76.171,138.732,77.288,137.328,77.288z M137.328,73.039
			c-1.009,0-1.702,0.801-1.702,1.81s0.738,1.818,1.72,1.818c1.009,0,1.711-0.801,1.711-1.8
			C139.057,73.849,138.31,73.039,137.328,73.039z"/>
		<path fill="#939598" d="M146.347,72.426c1.071,0,1.729,0.72,1.729,1.873v2.881h-0.693v-2.719c0-0.9-0.45-1.404-1.206-1.404
			c-0.702,0-1.287,0.522-1.287,1.44v2.683h-0.685v-2.737c0-0.873-0.459-1.386-1.197-1.386s-1.297,0.612-1.297,1.467v2.656h-0.692
			v-4.654h0.692v0.783c0.307-0.459,0.721-0.882,1.504-0.882c0.756,0,1.242,0.405,1.494,0.927
			C145.041,72.84,145.536,72.426,146.347,72.426z"/>
		<path fill="#939598" d="M76.542,83.507l-0.522-0.378c0.567-0.847,1.162-1.342,2.269-1.342c1.143,0,1.954,0.756,1.954,1.792
			c0,0.928-0.486,1.495-1.594,2.458l-1.684,1.494h3.34v0.648h-4.402V87.63l2.287-2.017c0.963-0.864,1.314-1.35,1.314-1.98
			c0-0.738-0.585-1.207-1.27-1.207C77.515,82.427,77.046,82.805,76.542,83.507z"/>
		<path fill="#939598" d="M81.933,83.507l-0.522-0.378c0.567-0.847,1.162-1.342,2.269-1.342c1.144,0,1.954,0.756,1.954,1.792
			c0,0.928-0.486,1.495-1.593,2.458l-1.684,1.494h3.34v0.648h-4.402V87.63l2.287-2.017c0.963-0.864,1.314-1.35,1.314-1.98
			c0-0.738-0.585-1.207-1.269-1.207C82.906,82.427,82.438,82.805,81.933,83.507z"/>
		<path fill="#939598" d="M87.108,81.878h0.846v0.045l-0.729,2.404h-0.387L87.108,81.878z"/>
		<path fill="#939598" d="M91.114,88.288c-0.819,0-1.414-0.333-1.945-0.774l0.415-0.549c0.513,0.45,0.99,0.675,1.548,0.675
			c1.134,0,1.899-1.152,1.873-2.764c-0.342,0.549-0.909,1.008-1.783,1.008c-1.296,0-2.197-0.819-2.197-1.962
			c0-1.207,0.928-2.152,2.269-2.152c0.72,0,1.251,0.243,1.656,0.648c0.495,0.495,0.783,1.179,0.783,2.449
			C93.733,86.875,92.671,88.288,91.114,88.288z M91.267,82.4c-0.945,0-1.512,0.693-1.512,1.485c0,0.811,0.63,1.387,1.548,1.387
			c0.963,0,1.566-0.702,1.566-1.432C92.869,83.03,92.212,82.4,91.267,82.4z"/>
		<path fill="#939598" d="M95.136,81.878h0.837v0.045l-0.729,2.404h-0.378L95.136,81.878z M96.9,81.878h0.829v0.045L97,84.327
			h-0.378L96.9,81.878z"/>
		<path fill="#939598" d="M105.757,88.18h-0.801l-1.44-1.899l-1.45,1.899h-0.774l1.828-2.368l-1.755-2.287h0.792l1.377,1.8
			l1.377-1.8h0.774l-1.765,2.269L105.757,88.18z"/>
		<path fill="#939598" d="M109.59,82.517v-0.639h4.024V82.4l-1.981,2.197c1.107,0.09,2.08,0.621,2.08,1.782
			c0,1.135-0.937,1.909-2.106,1.909c-1.054,0-1.837-0.459-2.35-1.125l0.513-0.459c0.486,0.594,1.071,0.937,1.846,0.937
			c0.766,0,1.377-0.486,1.377-1.233c0-0.792-0.72-1.225-1.764-1.225h-0.405l-0.145-0.423l1.99-2.242H109.59z"/>
		<path fill="#939598" d="M115.395,83.507l-0.522-0.378c0.567-0.847,1.162-1.342,2.27-1.342c1.143,0,1.953,0.756,1.953,1.792
			c0,0.928-0.486,1.495-1.594,2.458l-1.684,1.494h3.341v0.648h-4.402V87.63l2.286-2.017c0.964-0.864,1.314-1.35,1.314-1.98
			c0-0.738-0.585-1.207-1.27-1.207C116.367,82.427,115.898,82.805,115.395,83.507z"/>
		<path fill="#939598" d="M120.569,81.878h0.847v0.045l-0.729,2.404H120.3L120.569,81.878z"/>
		<path fill="#939598" d="M125.133,88.288c-1.629,0-2.655-1.476-2.655-3.25c0-1.773,1.044-3.268,2.674-3.268
			c1.62,0,2.646,1.477,2.646,3.25C127.798,86.793,126.754,88.288,125.133,88.288z M125.133,82.418c-1.179,0-1.917,1.207-1.917,2.602
			c0,1.396,0.756,2.62,1.936,2.62s1.908-1.215,1.908-2.602C127.06,83.651,126.312,82.418,125.133,82.418z"/>
		<path fill="#939598" d="M129.21,81.878h0.837v0.045l-0.729,2.404h-0.378L129.21,81.878z M130.974,81.878h0.829v0.045l-0.729,2.404
			h-0.378L130.974,81.878z"/>
	</g>
	<g>
		<path fill="#939598" d="M40.884,416.889c0,0.828-0.504,1.252-0.999,1.468c0.747,0.225,1.35,0.657,1.35,1.53
			c0,1.089-0.909,1.729-2.287,1.729h-2.8v-6.302h2.683C40.074,415.313,40.884,415.926,40.884,416.889z M40.164,416.988
			c0-0.631-0.495-1.036-1.396-1.036h-1.917v2.17h1.864C39.57,418.122,40.164,417.735,40.164,416.988z M40.515,419.842
			c0-0.693-0.576-1.09-1.674-1.09h-1.99v2.224h2.116C39.921,420.976,40.515,420.553,40.515,419.842z"/>
		<path fill="#939598" d="M44.583,421.12c0.639,0,1.089-0.261,1.467-0.657l0.432,0.387c-0.468,0.522-1.035,0.874-1.917,0.874
			c-1.278,0-2.323-0.981-2.323-2.431c0-1.351,0.945-2.431,2.233-2.431c1.377,0,2.169,1.098,2.169,2.466c0,0.063,0,0.136-0.009,0.217
			h-3.691C43.043,420.553,43.763,421.12,44.583,421.12z M45.942,419.031c-0.072-0.846-0.558-1.584-1.485-1.584
			c-0.811,0-1.422,0.675-1.513,1.584H45.942z"/>
		<path fill="#939598" d="M51.594,421.615v-0.937c-0.378,0.559-0.927,1.035-1.782,1.035c-1.117,0-2.224-0.882-2.224-2.421
			c0-1.531,1.107-2.431,2.224-2.431c0.864,0,1.422,0.468,1.782,0.99v-2.81h0.693v6.572H51.594z M49.938,417.483
			c-0.9,0-1.639,0.666-1.639,1.8c0,1.107,0.756,1.81,1.639,1.81c0.864,0,1.684-0.72,1.684-1.81
			C51.621,418.203,50.802,417.483,49.938,417.483z"/>
		<path fill="#939598" d="M54.527,421.615h-0.693v-4.654h0.693v1.215c0.342-0.773,1.017-1.332,1.899-1.296v0.747h-0.054
			c-1.018,0-1.846,0.729-1.846,2.134V421.615z"/>
		<path fill="#939598" d="M59.405,421.724c-1.395,0-2.413-1.099-2.413-2.422s1.026-2.439,2.431-2.439
			c1.396,0,2.422,1.098,2.422,2.421S60.81,421.724,59.405,421.724z M59.405,417.474c-1.008,0-1.701,0.802-1.701,1.81
			c0,1.009,0.738,1.819,1.719,1.819c1.008,0,1.71-0.802,1.71-1.801C61.134,418.284,60.387,417.474,59.405,417.474z"/>
		<path fill="#939598" d="M65.219,421.724c-1.395,0-2.413-1.099-2.413-2.422s1.026-2.439,2.431-2.439
			c1.396,0,2.422,1.098,2.422,2.421S66.624,421.724,65.219,421.724z M65.219,417.474c-1.008,0-1.701,0.802-1.701,1.81
			c0,1.009,0.738,1.819,1.719,1.819c1.008,0,1.71-0.802,1.71-1.801C66.948,418.284,66.201,417.474,65.219,417.474z"/>
		<path fill="#939598" d="M74.238,416.862c1.071,0,1.729,0.72,1.729,1.872v2.881h-0.693v-2.719c0-0.9-0.45-1.404-1.207-1.404
			c-0.702,0-1.288,0.522-1.288,1.44v2.683h-0.684v-2.737c0-0.873-0.459-1.386-1.197-1.386s-1.296,0.612-1.296,1.467v2.656h-0.693
			v-4.654h0.693v0.783c0.306-0.459,0.72-0.882,1.503-0.882c0.756,0,1.242,0.404,1.495,0.927
			C72.933,417.276,73.428,416.862,74.238,416.862z"/>
		<path fill="#939598" d="M42.692,426.269h0.522v6.347h-0.703v-5.608l-1.188,0.369l-0.171-0.576L42.692,426.269z"/>
		<path fill="#939598" d="M45.915,426.269h0.522v6.347h-0.702v-5.608l-1.188,0.369l-0.171-0.576L45.915,426.269z"/>
		<path fill="#939598" d="M48.2,426.313h0.846v0.045l-0.729,2.403H47.93L48.2,426.313z"/>
		<path fill="#939598" d="M57.066,432.615h-0.801l-1.44-1.899l-1.449,1.899h-0.774l1.828-2.368l-1.755-2.286h0.792l1.377,1.801
			l1.377-1.801h0.774l-1.765,2.269L57.066,432.615z"/>
		<path fill="#939598" d="M61.907,426.269h0.522v6.347h-0.702v-5.608l-1.188,0.369l-0.171-0.576L61.907,426.269z"/>
		<path fill="#939598" d="M64.409,426.313h3.628v0.657H65.03l-0.135,2.017c0.369-0.162,0.72-0.279,1.243-0.279
			c1.224,0,2.179,0.729,2.179,1.936c0,1.242-0.937,2.08-2.251,2.08c-0.9,0-1.684-0.433-2.25-1l0.468-0.513
			c0.549,0.531,1.152,0.864,1.792,0.864c0.9,0,1.521-0.595,1.521-1.404c0-0.793-0.639-1.333-1.567-1.333
			c-0.531,0-0.954,0.162-1.323,0.36l-0.477-0.315L64.409,426.313z"/>
		<path fill="#939598" d="M69.701,426.313h0.846v0.045l-0.729,2.403H69.43L69.701,426.313z"/>
	</g>
	<g>
		<path fill="#939598" d="M152.173,229.679h-0.892l-2.421-3.052l-1.342,1.359v1.692h-0.711v-6.302h0.711v3.763l3.619-3.763h0.918
			l-2.7,2.755L152.173,229.679z"/>
		<path fill="#939598" d="M153.18,224.007v-0.765h0.792v0.765H153.18z M153.225,229.679v-4.654h0.692v4.654H153.225z"/>
		<path fill="#939598" d="M156.464,228.355c0,0.567,0.315,0.774,0.784,0.774c0.233,0,0.432-0.045,0.675-0.162v0.594
			c-0.243,0.126-0.504,0.198-0.837,0.198c-0.748,0-1.314-0.369-1.314-1.314v-2.809h-0.648v-0.612h0.648v-1.404h0.692v1.404h1.477
			v0.612h-1.477V228.355z"/>
		<path fill="#939598" d="M161.128,229.787c-1.359,0-2.386-1.107-2.386-2.421c0-1.324,1.026-2.44,2.386-2.44
			c0.882,0,1.431,0.369,1.863,0.828l-0.459,0.486c-0.369-0.387-0.783-0.702-1.414-0.702c-0.945,0-1.665,0.801-1.665,1.81
			c0,1.017,0.738,1.818,1.711,1.818c0.594,0,1.053-0.297,1.422-0.693l0.441,0.415C162.559,229.409,162.001,229.787,161.128,229.787z
			"/>
		<path fill="#939598" d="M164.862,229.679h-0.693v-6.572h0.693v2.728c0.306-0.504,0.792-0.909,1.594-0.909
			c1.125,0,1.782,0.756,1.782,1.864v2.89h-0.693v-2.719c0-0.864-0.468-1.404-1.287-1.404c-0.802,0-1.396,0.585-1.396,1.458V229.679z
			"/>
		<path fill="#939598" d="M171.766,229.184c0.639,0,1.089-0.261,1.468-0.657l0.432,0.387c-0.468,0.522-1.035,0.873-1.918,0.873
			c-1.278,0-2.322-0.981-2.322-2.431c0-1.35,0.945-2.431,2.232-2.431c1.378,0,2.17,1.098,2.17,2.467c0,0.063,0,0.135-0.009,0.216
			h-3.691C170.227,228.616,170.946,229.184,171.766,229.184z M173.125,227.095c-0.072-0.846-0.559-1.584-1.485-1.584
			c-0.811,0-1.423,0.675-1.513,1.584H173.125z"/>
		<path fill="#939598" d="M175.734,229.679h-0.693v-4.654h0.693v0.81c0.306-0.504,0.792-0.909,1.593-0.909
			c1.126,0,1.783,0.756,1.783,1.864v2.89h-0.693v-2.719c0-0.864-0.468-1.404-1.287-1.404c-0.802,0-1.396,0.585-1.396,1.458V229.679z
			"/>
	</g>
</g>
</svg>
