<?xml version="1.0" encoding="utf-8"?>
<!-- Generator: Adobe Illustrator 15.0.2, SVG Export Plug-In . SVG Version: 6.00 Build 0)  -->
<!DOCTYPE svg PUBLIC "-//W3C//DTD SVG 1.1//EN" "http://www.w3.org/Graphics/SVG/1.1/DTD/svg11.dtd">
<svg version="1.1" xmlns="http://www.w3.org/2000/svg" xmlns:xlink="http://www.w3.org/1999/xlink" x="0px" y="0px"
	 width="286.334px" height="421.839px" viewBox="0 0 286.334 421.839" enable-background="new 0 0 286.334 421.839"
	 xml:space="preserve">
<g id="_x32_0_x25___PMS_2985_fill" display="none">
	<path display="inline" fill="none" d="M2.168,251.757v165.398l229.5,0.193v-29.307c0,0,27.5,2,27.5,0s0-268,0-268l24.576-25.5
		v-95.5H89.668v253L2.168,251.757z"/>
</g>
<g id="_x32_0_x25__grey_fill">
	<rect x="3.168" y="255.292" fill="#D1D3D4" width="20" height="5.057"/>
	<rect x="252.168" y="177.966" fill="#D1D3D4" width="6" height="162.826"/>
	<rect x="89.918" y="84.292" fill="#D1D3D4" width="6" height="51.75"/>
	<polygon fill="#D1D3D4" points="253.168,110.292 253.168,146.792 258.918,146.792 258.918,121.542 269.418,110.792 	"/>
	<polyline fill="#D1D3D4" points="74.918,253.792 74.918,259.792 96.418,259.792 96.418,212.792 90.168,212.792 90.168,254.542 
		75.668,254.542 	"/>
</g>
<g id="icons">
	<polygon fill="#FFFFFF" stroke="#939598" points="232.009,262.119 232.03,320.587 168.759,320.669 168.759,340.292 
		251.342,340.233 251.277,250 232.009,250 232.009,251.542 	"/>
	<g>
		<g>
			<rect x="232.77" y="342.224" fill="#FFFFFF" stroke="#939598" width="23.625" height="45.693"/>
			<path fill="#FFFFFF" stroke="#939598" d="M244.582,365.072"/>
			<path fill="#FFFFFF" stroke="#939598" d="M244.582,365.228"/>
			<path fill="#FFFFFF" stroke="#939598" d="M244.582,380.72"/>
		</g>
		<circle fill="#FFFFFF" stroke="#939598" cx="244.693" cy="377.503" r="0.969"/>
		<path fill="#FFFFFF" stroke="#939598" d="M244.654,344.833c-6.771,0-9.25,1.562-9.25,3.752c0,0,0,32.838,0,33.375
			c0,0.535,0.145,1.641,1.561,1.641c1.418,0,7.689,0,7.689,0h0.016c0,0,6.271,0,7.689,0c1.416,0,1.561-1.105,1.561-1.641
			c0-0.537,0-33.354,0-33.354l-0.002-0.021C253.918,346.396,251.383,344.833,244.654,344.833z"/>
		<path fill="#FFFFFF" stroke="#939598" d="M242.662,385.3c0.002-0.549-0.44-0.988-0.995-0.988c-0.537,0-0.982,0.439-0.986,0.988
			c0.004,0.545,0.449,0.996,0.986,0.996C242.222,386.296,242.664,385.851,242.662,385.3z"/>
		<path fill="#FFFFFF" stroke="#939598" d="M248.803,385.3c0.006-0.549-0.445-0.988-0.99-0.988c-0.543,0-0.99,0.439-0.99,0.988
			c0,0.545,0.447,0.996,0.99,0.988C248.359,386.296,248.803,385.845,248.803,385.3z"/>
		<path fill="#FFFFFF" stroke="#939598" d="M243.36,385.593c0,0.812,0.549,1.469,1.361,1.471c0.81-0.002,1.253-0.658,1.253-1.471
			l-0.521-5.592c0-0.549-1.481-0.549-1.481,0L243.36,385.593z"/>
	</g>
	<g>
		<polygon fill="none" stroke="#A7A9AC" points="168.55,348.099 168.559,349.769 192.377,349.785 192.368,348.114 		"/>
		<path fill="none" stroke="#A7A9AC" d="M192.387,348.867c-0.445,13.114-11.225,23.383-24.338,22.936"/>
	</g>
	<polyline fill="#FFFFFF" stroke="#A7A9AC" points="201.475,418.542 201.475,398.418 232.934,398.418 232.934,416.667 	"/>
	<g>
		<path fill="#FFFFFF" stroke="#939598" stroke-miterlimit="10" d="M191.066,403.534c0-4.462-2.711-9.376-6.053-9.376
			s-6.041,4.914-6.041,9.376c0,4.463,2.699,6.785,6.041,6.785S191.066,407.997,191.066,403.534"/>
		<path fill="#FFFFFF" stroke="#939598" d="M191.066,403.534c0-4.462-2.711-9.376-6.053-9.376s-6.041,4.914-6.041,9.376
			c0,4.463,2.699,6.785,6.041,6.785S191.066,407.997,191.066,403.534z"/>
		<path fill="#FFFFFF" stroke="#939598" stroke-miterlimit="10" d="M181.391,408.856c0-0.25-0.205-0.455-0.455-0.455h-2.107
			c-0.25,0-0.455,0.205-0.455,0.455v0.077c0,0.25,0.205,0.455,0.455,0.455h2.107c0.25,0,0.455-0.205,0.455-0.455V408.856z"/>
		<path fill="#FFFFFF" stroke="#939598" d="M181.391,408.856c0-0.25-0.205-0.455-0.455-0.455h-2.107
			c-0.25,0-0.455,0.205-0.455,0.455v0.077c0,0.25,0.205,0.455,0.455,0.455h2.107c0.25,0,0.455-0.205,0.455-0.455V408.856z"/>
		<path fill="#FFFFFF" stroke="#939598" stroke-miterlimit="10" d="M178.053,409.4c-0.758,0-1.375,2.057-1.375,2.816
			c0,0.769,0.617,2.825,1.375,2.825h13.814c0.76,0,1.375-2.057,1.375-2.825c0-0.76-0.615-2.814-1.375-2.814L178.053,409.4z"/>
		<path fill="#FFFFFF" stroke="#939598" d="M178.053,409.4c-0.758,0-1.375,2.057-1.375,2.816c0,0.769,0.617,2.825,1.375,2.825
			h13.814c0.76,0,1.375-2.057,1.375-2.825c0-0.76-0.615-2.814-1.375-2.814L178.053,409.4z"/>
		<path fill="#FFFFFF" stroke="#939598" stroke-miterlimit="10" d="M189.463,403.347c0-3.279-1.992-6.893-4.449-6.893
			s-4.447,3.613-4.447,6.893s1.99,4.985,4.447,4.985S189.463,406.626,189.463,403.347"/>
		<path fill="#FFFFFF" stroke="#939598" d="M189.463,403.347c0-3.279-1.992-6.893-4.449-6.893s-4.447,3.613-4.447,6.893
			s1.99,4.985,4.447,4.985S189.463,406.626,189.463,403.347z"/>
	</g>
	<g>
		<g>
			<g>
				<path fill="none" stroke="#A7A9AC" d="M215.883,406.001"/>
			</g>
			<g>
				<path fill="none" stroke="#A7A9AC" d="M215.883,407.064"/>
			</g>
			<g>
				<circle fill="none" stroke="#A7A9AC" cx="215.883" cy="406.001" r="1.017"/>
				<path fill="none" stroke="#A7A9AC" d="M215.883,406.001"/>
			</g>
			<g>
				<g>
					<rect x="211.617" y="412.376" fill="none" stroke="#A7A9AC" width="8.553" height="2.125"/>
					<path fill="none" stroke="#A7A9AC" d="M215.883,413.439"/>
				</g>
				<g>
					<rect x="215.43" y="408.251" fill="none" stroke="#A7A9AC" width="0.906" height="4.031"/>
					<path fill="none" stroke="#A7A9AC" d="M215.883,410.611"/>
				</g>
				<g>
					<circle fill="none" stroke="#A7A9AC" cx="215.883" cy="413.418" r="0.986"/>
					<path fill="none" stroke="#A7A9AC" d="M215.883,413.418"/>
				</g>
			</g>
		</g>
		<g>
			<rect x="207.355" y="400.952" fill="none" stroke="#A7A9AC" width="17.076" height="13.875"/>
			<rect x="208.748" y="402.346" fill="none" stroke="#A7A9AC" width="14.255" height="9.98"/>
		</g>
	</g>
	<g>
		<g>
			<rect x="144.227" y="395.425" fill="#FFFFFF" stroke="#939598" width="20.188" height="18.543"/>
			<path fill="none" stroke="#939598" d="M154.32,404.082"/>
			<line fill="none" stroke="#939598" x1="144.195" y1="411.019" x2="164.445" y2="411.019"/>
			<line fill="none" stroke="#939598" x1="144.227" y1="411.894" x2="164.414" y2="411.894"/>
			<polygon fill="none" stroke="#939598" points="160.445,408.791 160.445,399.697 158.008,397.478 150.539,397.478 148.07,399.697 
				148.07,408.791 			"/>
			<path fill="none" stroke="#939598" d="M154.258,403.134"/>
		</g>
	</g>
	<g>
		<g>
			<rect x="120.641" y="395.425" fill="#FFFFFF" stroke="#939598" width="20.188" height="18.543"/>
			<path fill="none" stroke="#939598" d="M130.734,404.082"/>
			<line fill="none" stroke="#939598" x1="120.609" y1="411.019" x2="140.859" y2="411.019"/>
			<line fill="none" stroke="#939598" x1="120.641" y1="411.894" x2="140.828" y2="411.894"/>
			<g>
				<rect x="138.484" y="394.488" fill="none" stroke="#939598" width="0.875" height="0.875"/>
				<path fill="none" stroke="#939598" d="M138.922,394.925"/>
			</g>
		</g>
	</g>
	
		<line fill="none" stroke="#A7A9AC" stroke-dasharray="1.5,1.5,1.5,1.5,1.5,1.5" x1="158.418" y1="404.042" x2="170.168" y2="404.042"/>
	
		<line fill="none" stroke="#A7A9AC" stroke-dasharray="1.5,1.5,1.5,1.5,1.5,1.5" x1="134.168" y1="404.042" x2="149.918" y2="404.042"/>
	
		<line fill="none" stroke="#A7A9AC" stroke-dasharray="1.5,1.5,1.5,1.5,1.5,1.5" x1="114.918" y1="404.042" x2="127.918" y2="404.042"/>
	<g>
		<path fill="#939598" d="M154.411,401.433h0.455l1.345,4.098l1.4-4.083h0.582l-1.751,4.938h-0.47l-1.345-3.979l-1.352,3.979h-0.462
			l-1.751-4.938h0.603l1.4,4.083L154.411,401.433z"/>
	</g>
	<g>
		<path fill="#939598" d="M130.314,406.35h-1.702v-4.902h1.702c1.541,0,2.605,1.058,2.605,2.444S131.855,406.35,130.314,406.35z
			 M130.314,401.958h-1.149v3.88h1.149c1.239,0,2.031-0.84,2.031-1.933S131.554,401.958,130.314,401.958z"/>
	</g>
	<g>
		<polygon fill="none" stroke="#A7A9AC" points="20.938,395.573 22.607,395.585 22.623,371.767 20.909,371.754 		"/>
		<path fill="none" stroke="#A7A9AC" d="M21.641,371.736c13.114,0.445,23.383,11.289,22.936,24.402"/>
	</g>
	<g>
		<polygon fill="none" stroke="#A7A9AC" points="121.801,341.012 123.471,341.025 123.486,317.207 121.772,317.194 		"/>
		<path fill="none" stroke="#A7A9AC" d="M122.504,317.175c13.114,0.445,23.383,11.289,22.936,24.402"/>
	</g>
	<g>
		<polygon fill="none" stroke="#A7A9AC" points="94.891,395.573 93.221,395.585 93.205,371.767 94.919,371.754 		"/>
		<path fill="none" stroke="#A7A9AC" d="M94.188,371.736c-13.114,0.445-23.383,11.289-22.936,24.402"/>
	</g>
	<g>
		<polygon fill="none" stroke="#A7A9AC" points="215.705,106.625 215.714,105.039 238.341,105.023 238.333,106.611 		"/>
		<path fill="none" stroke="#A7A9AC" d="M238.351,105.895c-0.424-12.458-10.664-22.214-23.121-21.788"/>
	</g>
	<g>
		<polygon fill="none" stroke="#A7A9AC" points="259.154,151.029 259.146,152.615 236.519,152.63 236.526,151.042 		"/>
		<path fill="none" stroke="#A7A9AC" d="M236.509,151.758c0.424,12.458,10.664,22.214,23.121,21.788"/>
	</g>
	<g>
		<polygon fill="none" stroke="#A7A9AC" points="230.046,198.406 230.038,199.897 209.674,199.847 209.681,198.417 		"/>
		<path fill="none" stroke="#A7A9AC" d="M209.665,199.062c0.382,11.212,9.598,19.992,20.809,19.609"/>
	</g>
	<g>
		<polygon fill="none" stroke="#A7A9AC" points="215.705,47.31 215.714,45.724 238.341,45.708 238.333,47.296 		"/>
		<path fill="none" stroke="#A7A9AC" d="M238.351,46.581c-0.424-12.458-10.664-22.321-23.121-21.896"/>
	</g>
	<polyline fill="none" stroke="#A7A9AC" points="215.918,14.042 271.924,14.042 271.924,54.792 	"/>
	<path fill="none" stroke="#A7A9AC" stroke-dasharray="1.5,1.5,1.5,1.5,1.5,1.5" d="M216.168,12.042c0.75,0,57.75,0,57.75,0v41.25"
		/>
	<line fill="none" stroke="#A7A9AC" x1="3.668" y1="405.542" x2="113.168" y2="405.542"/>
	
		<line fill="none" stroke="#A7A9AC" stroke-dasharray="1.5,1.5,1.5,1.5,1.5,1.5" x1="4.168" y1="407.292" x2="112.668" y2="407.292"/>
	<line fill="none" stroke="#A7A9AC" x1="239.418" y1="196.292" x2="239.418" y2="223.292"/>
	
		<line fill="none" stroke="#A7A9AC" stroke-dasharray="1.5,1.5,1.5,1.5,1.5,1.5" x1="241.781" y1="196.292" x2="241.781" y2="222.792"/>
	<polyline fill="#FFFFFF" stroke="#A7A9AC" points="215.475,53.658 215.475,73.782 250.934,73.782 250.934,55.534 	"/>
	<g>
		<path fill="#FFFFFF" stroke="#939598" stroke-miterlimit="10" d="M273.816,68.444c0,4.462-2.711,9.376-6.053,9.376
			s-6.041-4.914-6.041-9.376c0-4.463,2.699-6.785,6.041-6.785S273.816,63.981,273.816,68.444"/>
		<path fill="#FFFFFF" stroke="#939598" d="M273.816,68.444c0,4.462-2.711,9.376-6.053,9.376s-6.041-4.914-6.041-9.376
			c0-4.463,2.699-6.785,6.041-6.785S273.816,63.981,273.816,68.444z"/>
		<path fill="#FFFFFF" stroke="#939598" stroke-miterlimit="10" d="M264.141,63.122c0,0.25-0.205,0.455-0.455,0.455h-2.107
			c-0.25,0-0.455-0.205-0.455-0.455v-0.077c0-0.25,0.205-0.455,0.455-0.455h2.107c0.25,0,0.455,0.205,0.455,0.455V63.122z"/>
		<path fill="#FFFFFF" stroke="#939598" d="M264.141,63.122c0,0.25-0.205,0.455-0.455,0.455h-2.107c-0.25,0-0.455-0.205-0.455-0.455
			v-0.077c0-0.25,0.205-0.455,0.455-0.455h2.107c0.25,0,0.455,0.205,0.455,0.455V63.122z"/>
		<path fill="#FFFFFF" stroke="#939598" stroke-miterlimit="10" d="M260.803,62.578c-0.758,0-1.375-2.057-1.375-2.816
			c0-0.769,0.617-2.825,1.375-2.825h13.814c0.76,0,1.375,2.057,1.375,2.825c0,0.76-0.615,2.814-1.375,2.814L260.803,62.578z"/>
		<path fill="#FFFFFF" stroke="#939598" d="M260.803,62.578c-0.758,0-1.375-2.057-1.375-2.816c0-0.769,0.617-2.825,1.375-2.825
			h13.814c0.76,0,1.375,2.057,1.375,2.825c0,0.76-0.615,2.814-1.375,2.814L260.803,62.578z"/>
		<path fill="#FFFFFF" stroke="#939598" stroke-miterlimit="10" d="M272.213,68.63c0,3.279-1.992,6.893-4.449,6.893
			s-4.447-3.613-4.447-6.893s1.99-4.985,4.447-4.985S272.213,65.351,272.213,68.63"/>
		<path fill="#FFFFFF" stroke="#939598" d="M272.213,68.63c0,3.279-1.992,6.893-4.449,6.893s-4.447-3.613-4.447-6.893
			s1.99-4.985,4.447-4.985S272.213,65.351,272.213,68.63z"/>
	</g>
	<g>
		<g>
			<g>
				<path fill="none" stroke="#A7A9AC" d="M234.76,66.427"/>
			</g>
			<g>
				<path fill="none" stroke="#A7A9AC" d="M234.76,65.365"/>
			</g>
			<g>
				<circle fill="none" stroke="#A7A9AC" cx="234.76" cy="66.427" r="1.017"/>
				<path fill="none" stroke="#A7A9AC" d="M234.76,66.427"/>
			</g>
			<g>
				<g>
					<rect x="230.494" y="57.927" fill="none" stroke="#A7A9AC" width="8.553" height="2.125"/>
					<path fill="none" stroke="#A7A9AC" d="M234.76,58.99"/>
				</g>
				<g>
					<rect x="234.307" y="60.146" fill="none" stroke="#A7A9AC" width="0.906" height="4.031"/>
					<path fill="none" stroke="#A7A9AC" d="M234.76,61.818"/>
				</g>
				<g>
					<circle fill="none" stroke="#A7A9AC" cx="234.76" cy="59.01" r="0.986"/>
					<path fill="none" stroke="#A7A9AC" d="M234.76,59.01"/>
				</g>
			</g>
		</g>
		<g>
			<rect x="226.232" y="57.602" fill="none" stroke="#A7A9AC" width="17.076" height="13.875"/>
			<rect x="227.625" y="60.102" fill="none" stroke="#A7A9AC" width="14.255" height="9.98"/>
		</g>
	</g>
	<g>
		<polygon fill="none" stroke="#939598" points="208.723,114.411 207.053,114.423 207.037,90.605 208.73,90.592 		"/>
		<path fill="none" stroke="#939598" d="M207.934,90.574c-13.113,0.445-23.383,11.289-22.936,24.402"/>
	</g>
	<g>
		<g>
			<g>
				<rect x="217.613" y="112.155" fill="#FFFFFF" stroke="#A7A9AC" width="33.206" height="27.754"/>
				<path fill="#FFFFFF" stroke="#A7A9AC" d="M233.904,126.009"/>
			</g>
			<g>
				<polyline fill="#FFFFFF" stroke="#A7A9AC" points="248.882,125.739 248.882,114.646 219.602,114.646 219.602,137.415 
					248.882,137.415 248.882,126.763 				"/>
				<path fill="#FFFFFF" stroke="#A7A9AC" d="M233.904,126.009"/>
			</g>
			<line fill="#FFFFFF" stroke="#A7A9AC" x1="248.882" y1="137.415" x2="234.951" y2="126.776"/>
			<line fill="#FFFFFF" stroke="#A7A9AC" x1="232.889" y1="125.203" x2="219.602" y2="114.646"/>
			<line fill="#FFFFFF" stroke="#A7A9AC" x1="219.602" y1="137.415" x2="232.77" y2="126.879"/>
			<line fill="#FFFFFF" stroke="#A7A9AC" x1="234.988" y1="125.174" x2="248.882" y2="114.646"/>
			<g>
				<path fill="#FFFFFF" stroke="#A7A9AC" d="M233.904,124.822c-0.679,0-1.229,0.665-1.229,1.188c0,0.521,0.55,1.104,1.229,1.104
					c0.677,0,1.229-0.583,1.229-1.104C235.133,125.487,234.581,124.822,233.904,124.822z"/>
				<path fill="#FFFFFF" stroke="#A7A9AC" d="M233.904,126.009"/>
			</g>
		</g>
		<path fill="#FFFFFF" stroke="#A7A9AC" d="M247.071,124.859c-0.699,0-0.699,2.528,0,2.528s1.264-0.566,1.264-1.265
			C248.335,125.423,247.771,124.859,247.071,124.859z"/>
		<polyline fill="#FFFFFF" stroke="#A7A9AC" points="250.831,126.384 248.412,126.384 248.412,125.679 250.833,125.679 		"/>
	</g>
	<g>
		<polygon fill="none" stroke="#939598" points="113.968,378.483 114.681,377.066 94.525,366.784 93.812,368.202 		"/>
		<path fill="none" stroke="#939598" d="M94.121,367.555c3.959-7.161,11.161-11.364,18.727-11.7"/>
	</g>
	<g>
		<g>
			<path fill="#FFFFFF" stroke="#939598" d="M249.153,265.32c0-0.426-0.344-0.771-0.771-0.771h-13.445
				c-0.426,0-0.771,0.346-0.771,0.771v22.807c0,0.426,0.346,0.77,0.771,0.77h13.445c0.428,0,0.771-0.344,0.771-0.77V265.32z"/>
			<path fill="#FFFFFF" stroke="#939598" d="M242.241,276.642"/>
		</g>
		<g>
			<circle fill="#FFFFFF" stroke="#939598" cx="241.33" cy="276.642" r="0.871"/>
			<path fill="#FFFFFF" stroke="#939598" d="M241.331,276.642"/>
		</g>
		<g>
			<g>
				<rect x="246.797" y="272.837" fill="#FFFFFF" stroke="#939598" width="1.82" height="7.609"/>
				<path fill="#FFFFFF" stroke="#939598" d="M247.708,276.642"/>
			</g>
			<g>
				<rect x="243.259" y="276.253" fill="#FFFFFF" stroke="#939598" width="3.586" height="0.777"/>
				<path fill="#FFFFFF" stroke="#939598" d="M245.283,276.642"/>
			</g>
			<g>
				<circle fill="#FFFFFF" stroke="#939598" cx="247.689" cy="276.642" r="0.847"/>
				<path fill="#FFFFFF" stroke="#939598" d="M247.689,276.642"/>
			</g>
		</g>
		<g>
			<path fill="#FFFFFF" stroke="#939598" d="M241.331,276.642"/>
			<path fill="none" stroke="#939598" d="M246.168,276.171v-9.588c0-0.447-0.362-0.811-0.81-0.811h-9.221
				c-0.445,0-0.809,0.363-0.809,0.811v20.279c0,0.447,0.363,0.811,0.809,0.811h9.221c0.447,0,0.81-0.363,0.81-0.811v-9.727"/>
		</g>
	</g>
	<g>
		<polyline fill="none" stroke="#939598" stroke-dasharray="1.5,1,1.5,1,1.5,1" points="230.927,309.314 248.796,309.314 
			248.796,291.789 231.328,291.789 		"/>
		<polyline fill="#FFFFFF" stroke="#939598" points="231.328,291.761 230.266,291.761 230.266,309.314 230.92,309.314 		"/>
	</g>
	<g>
		<g>
			<rect x="227.92" y="224.07" fill="#FFFFFF" stroke="#939598" width="21.969" height="24.902"/>
			<path fill="#FFFFFF" stroke="#939598" d="M238.904,235.232"/>
		</g>
		<line fill="#FFFFFF" stroke="#939598" x1="229.455" y1="249.031" x2="229.455" y2="224.07"/>
		<rect x="226.834" y="226.148" fill="#FFFFFF" stroke="#939598" width="1.07" height="2.018"/>
		<path fill="#FFFFFF" stroke="#939598" d="M227.428,227.157"/>
	</g>
	<line fill="none" stroke="#939598" x1="232.009" y1="263.119" x2="251.252" y2="263.119"/>
	<g>
		<g>
			<rect x="192.381" y="318.644" fill="#FFFFFF" stroke="#939598" width="23.249" height="19.75"/>
			<path fill="#FFFFFF" stroke="#939598" d="M204.005,328.519"/>
		</g>
		<g>
			<g>
				<circle fill="#FFFFFF" stroke="#939598" cx="198.689" cy="323.019" r="2.824"/>
				<path fill="#FFFFFF" stroke="#939598" d="M198.689,323.019"/>
			</g>
			<g>
				<circle fill="#FFFFFF" stroke="#939598" stroke-width="0.8" cx="198.662" cy="323.02" r="1.989"/>
				<path fill="#FFFFFF" stroke="#939598" d="M198.662,323.019"/>
			</g>
		</g>
		<g>
			<g>
				<circle fill="#FFFFFF" stroke="#939598" cx="209.977" cy="331.269" r="2.824"/>
				<path fill="#FFFFFF" stroke="#939598" d="M209.977,331.269"/>
			</g>
			<g>
				<circle fill="#FFFFFF" stroke="#939598" stroke-width="0.8" cx="210.005" cy="331.27" r="1.989"/>
				<path fill="#FFFFFF" stroke="#939598" d="M210.005,331.269"/>
			</g>
		</g>
		<g>
			<g>
				<circle fill="#FFFFFF" stroke="#939598" cx="198.652" cy="331.242" r="3.219"/>
				<path fill="#FFFFFF" stroke="#939598" d="M198.652,331.242"/>
			</g>
			<g>
				<circle fill="#FFFFFF" stroke="#939598" stroke-width="0.8" cx="198.684" cy="331.242" r="2.268"/>
				<path fill="#FFFFFF" stroke="#939598" d="M198.684,331.242"/>
			</g>
		</g>
		<g>
			<g>
				<circle fill="#FFFFFF" stroke="#939598" cx="209.964" cy="322.802" r="3.219"/>
				<path fill="#FFFFFF" stroke="#939598" d="M209.964,322.802"/>
			</g>
			<g>
				<circle fill="#FFFFFF" stroke="#939598" stroke-width="0.8" cx="209.996" cy="322.802" r="2.268"/>
				<path fill="#FFFFFF" stroke="#939598" d="M209.996,322.802"/>
			</g>
		</g>
		<line fill="#FFFFFF" stroke="#939598" x1="192.35" y1="335.662" x2="215.63" y2="335.662"/>
		<line fill="#FFFFFF" stroke="#939598" x1="192.381" y1="336.753" x2="215.63" y2="336.753"/>
	</g>
	<polyline fill="none" stroke="#A7A9AC" stroke-dasharray="1.5,1.5,1.5,1.5,1.5,1.5" points="241.418,303.464 241.418,328.542 
		168.668,328.542 	"/>
	
		<line fill="none" stroke="#A7A9AC" stroke-dasharray="1.5,1.5,1.5,1.5,1.5,1.5" x1="241.418" y1="240.542" x2="241.418" y2="297.042"/>
	
		<line fill="none" stroke="#A7A9AC" stroke-dasharray="1.5,1.5,1.5,1.5,1.5,1.5" x1="241.418" y1="222.876" x2="241.418" y2="234.708"/>
	<rect x="161.918" y="233.792" fill="#FFFFFF" stroke="#939598" width="23.75" height="57.5"/>
</g>
<g id="Type">
	<g display="none">
	</g>
	<g>
		<path fill="#939598" d="M196.699,373.554c0,0.828-0.505,1.252-1,1.468c0.748,0.225,1.351,0.657,1.351,1.53
			c0,1.089-0.909,1.729-2.286,1.729h-2.8v-6.302h2.683C195.889,371.979,196.699,372.591,196.699,373.554z M195.979,373.654
			c0-0.631-0.495-1.036-1.396-1.036h-1.917v2.17h1.863C195.385,374.788,195.979,374.401,195.979,373.654z M196.33,376.507
			c0-0.693-0.576-1.09-1.675-1.09h-1.989v2.224h2.115C195.735,377.641,196.33,377.218,196.33,376.507z"/>
		<path fill="#939598" d="M198.614,374.518l-0.207-0.567c0.514-0.234,1.018-0.388,1.692-0.388c1.27,0,1.98,0.648,1.98,1.873v2.845
			h-0.666v-0.702c-0.324,0.423-0.864,0.801-1.684,0.801c-0.864,0-1.737-0.485-1.737-1.458c0-0.99,0.811-1.513,1.989-1.513
			c0.595,0,1.018,0.081,1.432,0.198v-0.162c0-0.837-0.513-1.27-1.386-1.27C199.479,374.175,199.047,374.32,198.614,374.518z
			 M198.695,376.894c0,0.595,0.54,0.937,1.171,0.937c0.854,0,1.557-0.522,1.557-1.261v-0.449c-0.342-0.1-0.801-0.198-1.368-0.198
			C199.182,375.922,198.695,376.3,198.695,376.894z"/>
		<path fill="#939598" d="M204.447,376.958c0,0.567,0.315,0.774,0.783,0.774c0.234,0,0.433-0.045,0.676-0.162v0.594
			c-0.243,0.126-0.504,0.198-0.838,0.198c-0.747,0-1.313-0.369-1.313-1.314v-2.809h-0.648v-0.612h0.648v-1.404h0.692v1.404h1.477
			v0.612h-1.477V376.958z"/>
		<path fill="#939598" d="M207.841,378.281h-0.693v-6.572h0.693v2.729c0.306-0.505,0.792-0.91,1.593-0.91
			c1.126,0,1.783,0.757,1.783,1.864v2.89h-0.693v-2.719c0-0.864-0.469-1.404-1.287-1.404c-0.802,0-1.396,0.585-1.396,1.458V378.281z
			"/>
	</g>
	<g>
		<path fill="#939598" d="M128.568,385.16h0.553v4.391h2.76v0.512h-3.313V385.16z"/>
		<path fill="#939598" d="M133.02,387.134l-0.161-0.441c0.399-0.182,0.792-0.301,1.317-0.301c0.987,0,1.541,0.504,1.541,1.457v2.213
			h-0.518v-0.546c-0.252,0.329-0.672,0.623-1.31,0.623c-0.672,0-1.352-0.378-1.352-1.135c0-0.771,0.63-1.177,1.548-1.177
			c0.462,0,0.792,0.063,1.114,0.154v-0.126c0-0.651-0.399-0.987-1.079-0.987C133.692,386.869,133.356,386.98,133.02,387.134z
			 M133.083,388.984c0,0.462,0.42,0.728,0.911,0.728c0.665,0,1.211-0.406,1.211-0.98v-0.35c-0.266-0.077-0.623-0.154-1.064-0.154
			C133.461,388.227,133.083,388.521,133.083,388.984z"/>
		<path fill="#939598" d="M139.434,386.441h0.532v3.621h-0.532v-0.63c-0.245,0.392-0.617,0.707-1.24,0.707
			c-0.875,0-1.387-0.589-1.387-1.45v-2.248h0.54v2.115c0,0.673,0.364,1.093,1.001,1.093c0.616,0,1.086-0.455,1.086-1.135V386.441z"
			/>
		<path fill="#939598" d="M141.714,390.062h-0.539v-3.621h0.539v0.631c0.238-0.393,0.616-0.708,1.24-0.708
			c0.875,0,1.387,0.589,1.387,1.45v2.248h-0.54v-2.115c0-0.672-0.363-1.093-1.001-1.093c-0.623,0-1.086,0.455-1.086,1.135V390.062z"
			/>
		<path fill="#939598" d="M148.394,390.062v-0.729c-0.294,0.435-0.722,0.806-1.387,0.806c-0.869,0-1.73-0.687-1.73-1.884
			c0-1.191,0.861-1.892,1.73-1.892c0.672,0,1.106,0.364,1.387,0.771v-2.185h0.539v5.112H148.394z M147.104,386.847
			c-0.7,0-1.274,0.519-1.274,1.4c0,0.862,0.588,1.408,1.274,1.408c0.673,0,1.31-0.561,1.31-1.408
			C148.414,387.408,147.777,386.847,147.104,386.847z"/>
		<path fill="#939598" d="M150.674,390.062h-0.539v-3.621h0.539v0.945c0.267-0.602,0.792-1.036,1.478-1.008v0.581h-0.042
			c-0.791,0-1.436,0.567-1.436,1.66V390.062z"/>
		<path fill="#939598" d="M154.734,390.181c-0.308,0.749-0.658,1.022-1.204,1.022c-0.302,0-0.525-0.063-0.771-0.182l0.182-0.428
			c0.176,0.091,0.337,0.133,0.567,0.133c0.322,0,0.525-0.168,0.742-0.679l-1.646-3.607h0.596l1.316,3.019l1.162-3.019h0.575
			L154.734,390.181z"/>
	</g>
	<g>
		<path fill="#939598" d="M48.491,404.051c-1.415,0-2.458-1.113-2.458-2.528c0-1.4,1.037-2.542,2.479-2.542
			c0.889,0,1.422,0.314,1.912,0.777l-0.378,0.406c-0.413-0.393-0.875-0.673-1.541-0.673c-1.085,0-1.898,0.876-1.898,2.018
			s0.819,2.031,1.898,2.031c0.672,0,1.114-0.26,1.583-0.708l0.364,0.357C49.94,403.708,49.38,404.051,48.491,404.051z"/>
		<path fill="#939598" d="M51.374,403.967v-5.112h0.539v5.112H51.374z"/>
		<path fill="#939598" d="M54.818,404.051c-1.085,0-1.877-0.854-1.877-1.884s0.798-1.898,1.891-1.898
			c1.085,0,1.884,0.854,1.884,1.884C56.716,403.183,55.911,404.051,54.818,404.051z M54.818,400.746
			c-0.784,0-1.324,0.623-1.324,1.407c0,0.785,0.575,1.415,1.338,1.415c0.785,0,1.331-0.623,1.331-1.4
			C56.163,401.375,55.582,400.746,54.818,400.746z"/>
		<path fill="#939598" d="M58.885,404.038c-0.518,0-1.093-0.203-1.499-0.532l0.273-0.386c0.392,0.294,0.826,0.463,1.253,0.463
			c0.435,0,0.75-0.225,0.75-0.575v-0.014c0-0.364-0.427-0.504-0.903-0.638c-0.567-0.16-1.198-0.356-1.198-1.022v-0.014
			c0-0.623,0.519-1.036,1.233-1.036c0.441,0,0.931,0.153,1.303,0.398l-0.246,0.406c-0.336-0.217-0.721-0.35-1.071-0.35
			c-0.427,0-0.7,0.224-0.7,0.525v0.014c0,0.343,0.448,0.477,0.931,0.623c0.561,0.168,1.163,0.386,1.163,1.037v0.014
			C60.173,403.638,59.606,404.038,58.885,404.038z"/>
		<path fill="#939598" d="M62.77,403.583c0.497,0,0.847-0.203,1.142-0.512l0.336,0.301c-0.364,0.406-0.805,0.68-1.492,0.68
			c-0.995,0-1.807-0.764-1.807-1.891c0-1.051,0.735-1.892,1.737-1.892c1.071,0,1.688,0.854,1.688,1.919c0,0.05,0,0.105-0.007,0.168
			h-2.872C61.572,403.141,62.132,403.583,62.77,403.583z M63.828,401.958c-0.056-0.658-0.435-1.233-1.156-1.233
			c-0.63,0-1.106,0.525-1.177,1.233H63.828z"/>
		<path fill="#939598" d="M66.045,402.938c0,0.441,0.245,0.603,0.609,0.603c0.182,0,0.336-0.035,0.525-0.127v0.463
			c-0.189,0.098-0.393,0.154-0.651,0.154c-0.582,0-1.022-0.287-1.022-1.023v-2.185h-0.504v-0.477h0.504v-1.093h0.539v1.093h1.148
			v0.477h-1.148V402.938z"/>
	</g>
	<g>
		<path fill="#939598" d="M241.49,32.301c-1.415,0-2.458-1.114-2.458-2.528c0-1.401,1.036-2.542,2.479-2.542
			c0.89,0,1.422,0.315,1.912,0.777l-0.378,0.406c-0.413-0.392-0.875-0.672-1.541-0.672c-1.085,0-1.897,0.875-1.897,2.017
			s0.819,2.031,1.897,2.031c0.673,0,1.114-0.259,1.583-0.708l0.364,0.357C242.939,31.958,242.38,32.301,241.49,32.301z"/>
		<path fill="#939598" d="M244.373,32.217v-5.113h0.539v5.113H244.373z"/>
		<path fill="#939598" d="M247.817,32.301c-1.085,0-1.877-0.854-1.877-1.884c0-1.03,0.799-1.898,1.892-1.898
			c1.085,0,1.884,0.854,1.884,1.884S248.91,32.301,247.817,32.301z M247.817,28.996c-0.784,0-1.323,0.623-1.323,1.408
			c0,0.784,0.574,1.415,1.338,1.415c0.784,0,1.33-0.623,1.33-1.4C249.162,29.626,248.581,28.996,247.817,28.996z"/>
		<path fill="#939598" d="M251.885,32.287c-0.519,0-1.093-0.203-1.499-0.532l0.272-0.385c0.393,0.294,0.827,0.462,1.254,0.462
			c0.435,0,0.75-0.224,0.75-0.574v-0.014c0-0.364-0.428-0.504-0.904-0.637c-0.566-0.161-1.197-0.357-1.197-1.022V29.57
			c0-0.624,0.519-1.037,1.232-1.037c0.441,0,0.932,0.154,1.303,0.399l-0.245,0.406c-0.336-0.217-0.721-0.35-1.071-0.35
			c-0.428,0-0.7,0.224-0.7,0.525v0.014c0,0.343,0.448,0.476,0.932,0.624c0.56,0.168,1.162,0.385,1.162,1.036v0.014
			C253.173,31.888,252.605,32.287,251.885,32.287z"/>
		<path fill="#939598" d="M255.77,31.832c0.497,0,0.848-0.203,1.142-0.511l0.336,0.301c-0.364,0.406-0.806,0.679-1.491,0.679
			c-0.995,0-1.808-0.763-1.808-1.891c0-1.05,0.735-1.891,1.737-1.891c1.071,0,1.688,0.854,1.688,1.919c0,0.049,0,0.105-0.007,0.168
			h-2.871C254.571,31.391,255.132,31.832,255.77,31.832z M256.827,30.207c-0.057-0.658-0.435-1.232-1.156-1.232
			c-0.63,0-1.106,0.525-1.176,1.232H256.827z"/>
		<path fill="#939598" d="M259.045,31.188c0,0.441,0.245,0.603,0.609,0.603c0.182,0,0.336-0.035,0.525-0.126v0.462
			c-0.189,0.098-0.393,0.154-0.651,0.154c-0.581,0-1.022-0.287-1.022-1.022v-2.185h-0.505v-0.477h0.505v-1.092h0.539v1.092h1.148
			v0.477h-1.148V31.188z"/>
	</g>
	<g>
		<path fill="#939598" d="M237.633,217.246c0,1.415-1.113,2.458-2.528,2.458c-1.4,0-2.542-1.036-2.542-2.479
			c0-0.89,0.314-1.422,0.777-1.912l0.406,0.378c-0.393,0.413-0.673,0.875-0.673,1.541c0,1.085,0.876,1.897,2.018,1.897
			s2.031-0.819,2.031-1.897c0-0.673-0.26-1.114-0.708-1.583l0.357-0.364C237.29,215.796,237.633,216.356,237.633,217.246z"/>
		<path fill="#939598" d="M237.549,214.363h-5.112v-0.539h5.112V214.363z"/>
		<path fill="#939598" d="M237.633,210.918c0,1.085-0.854,1.877-1.884,1.877s-1.898-0.799-1.898-1.892
			c0-1.085,0.854-1.884,1.884-1.884C236.765,209.02,237.633,209.826,237.633,210.918z M234.327,210.918
			c0,0.784,0.623,1.323,1.407,1.323c0.785,0,1.415-0.574,1.415-1.338c0-0.784-0.623-1.33-1.4-1.33
			C234.957,209.574,234.327,210.155,234.327,210.918z"/>
		<path fill="#939598" d="M237.619,206.851c0,0.519-0.203,1.093-0.532,1.499l-0.386-0.272c0.294-0.393,0.463-0.827,0.463-1.254
			c0-0.435-0.225-0.75-0.575-0.75h-0.014c-0.364,0-0.504,0.428-0.638,0.904c-0.16,0.566-0.356,1.197-1.022,1.197h-0.014
			c-0.623,0-1.036-0.519-1.036-1.232c0-0.441,0.153-0.932,0.398-1.303l0.406,0.245c-0.217,0.336-0.35,0.721-0.35,1.071
			c0,0.428,0.224,0.7,0.525,0.7h0.014c0.343,0,0.477-0.448,0.623-0.932c0.168-0.56,0.386-1.162,1.037-1.162h0.014
			C237.22,205.563,237.619,206.13,237.619,206.851z"/>
		<path fill="#939598" d="M237.164,202.966c0-0.497-0.203-0.848-0.512-1.142l0.301-0.336c0.406,0.364,0.68,0.806,0.68,1.491
			c0,0.995-0.764,1.808-1.891,1.808c-1.051,0-1.892-0.735-1.892-1.737c0-1.071,0.854-1.688,1.919-1.688c0.05,0,0.105,0,0.168,0.007
			v2.871C236.723,204.165,237.164,203.604,237.164,202.966z M235.539,201.909c-0.658,0.057-1.233,0.435-1.233,1.156
			c0,0.63,0.525,1.106,1.233,1.176V201.909z"/>
		<path fill="#939598" d="M236.52,199.691c0.441,0,0.603-0.245,0.603-0.609c0-0.182-0.035-0.336-0.127-0.525h0.463
			c0.098,0.189,0.154,0.393,0.154,0.651c0,0.581-0.288,1.022-1.023,1.022h-2.185v0.505h-0.477v-0.505h-1.093v-0.539h1.093v-1.148
			h0.477v1.148H236.52z"/>
	</g>
	<g>
		<path fill="#939598" d="M244.949,84.804c0,0.829-0.505,1.251-1,1.468c0.748,0.225,1.351,0.657,1.351,1.53
			c0,1.089-0.909,1.729-2.286,1.729h-2.8v-6.302h2.683C244.139,83.229,244.949,83.841,244.949,84.804z M244.229,84.903
			c0-0.63-0.495-1.035-1.396-1.035h-1.917v2.169h1.863C243.635,86.038,244.229,85.65,244.229,84.903z M244.58,87.757
			c0-0.693-0.576-1.089-1.675-1.089h-1.989v2.224h2.115C243.985,88.892,244.58,88.468,244.58,87.757z"/>
		<path fill="#939598" d="M246.864,85.768l-0.207-0.567c0.514-0.234,1.018-0.387,1.692-0.387c1.27,0,1.98,0.648,1.98,1.873v2.845
			h-0.666v-0.702c-0.324,0.423-0.864,0.801-1.684,0.801c-0.864,0-1.737-0.486-1.737-1.458c0-0.99,0.811-1.513,1.989-1.513
			c0.595,0,1.018,0.081,1.432,0.198v-0.162c0-0.837-0.513-1.27-1.386-1.27C247.729,85.425,247.297,85.57,246.864,85.768z
			 M246.945,88.145c0,0.594,0.54,0.936,1.171,0.936c0.854,0,1.557-0.522,1.557-1.26v-0.45c-0.342-0.099-0.801-0.198-1.368-0.198
			C247.432,87.172,246.945,87.55,246.945,88.145z"/>
		<path fill="#939598" d="M252.697,88.208c0,0.567,0.315,0.774,0.783,0.774c0.234,0,0.433-0.045,0.676-0.162v0.594
			c-0.243,0.126-0.504,0.198-0.838,0.198c-0.747,0-1.313-0.369-1.313-1.314v-2.809h-0.648v-0.612h0.648v-1.404h0.692v1.404h1.477
			v0.612h-1.477V88.208z"/>
		<path fill="#939598" d="M256.091,89.531h-0.693v-6.572h0.693v2.728c0.306-0.504,0.792-0.909,1.593-0.909
			c1.126,0,1.783,0.756,1.783,1.864v2.89h-0.693v-2.719c0-0.864-0.469-1.404-1.287-1.404c-0.802,0-1.396,0.585-1.396,1.458V89.531z"
			/>
	</g>
	<g>
		<path fill="#939598" d="M236.231,302.799h-1.702v-4.902h1.702c1.541,0,2.605,1.058,2.605,2.444S237.772,302.799,236.231,302.799z
			 M236.231,298.408h-1.148v3.88h1.148c1.24,0,2.031-0.84,2.031-1.933S237.472,298.408,236.231,298.408z"/>
		<path fill="#939598" d="M242.722,297.882h0.456l1.345,4.098l1.4-4.083h0.581l-1.751,4.938h-0.469l-1.345-3.979l-1.352,3.979
			h-0.463l-1.751-4.938h0.603l1.4,4.083L242.722,297.882z"/>
	</g>
	<g>
		<path fill="#939598" d="M238.6,238.884l-1.422-1.905h-1.401v1.905h-0.553v-4.902h2.107c1.079,0,1.772,0.581,1.772,1.464
			c0,0.819-0.561,1.295-1.331,1.436l1.506,2.003H238.6z M237.289,234.493h-1.513v1.989h1.506c0.735,0,1.261-0.378,1.261-1.016
			C238.543,234.857,238.081,234.493,237.289,234.493z"/>
		<path fill="#939598" d="M241.72,238.5c0.498,0,0.848-0.203,1.142-0.512l0.337,0.301c-0.364,0.406-0.806,0.68-1.492,0.68
			c-0.994,0-1.807-0.764-1.807-1.891c0-1.051,0.735-1.892,1.736-1.892c1.072,0,1.688,0.854,1.688,1.919c0,0.05,0,0.105-0.008,0.168
			h-2.871C240.522,238.058,241.083,238.5,241.72,238.5z M242.777,236.875c-0.056-0.658-0.434-1.233-1.155-1.233
			c-0.631,0-1.106,0.525-1.177,1.233H242.777z"/>
		<path fill="#939598" d="M246.151,235.277v0.463h-1.142v3.145h-0.539v-3.145h-0.498v-0.47h0.498v-0.314
			c0-0.792,0.398-1.212,1.092-1.212c0.253,0,0.421,0.028,0.596,0.091v0.47c-0.196-0.057-0.343-0.092-0.525-0.092
			c-0.42,0-0.63,0.253-0.63,0.771v0.294H246.151z"/>
	</g>
	<g>
		<path fill="#939598" d="M211.405,276.107v0.892l-3.052,2.421l1.359,1.342h1.692v0.711h-6.302v-0.711h3.763l-3.763-3.619v-0.918
			l2.755,2.7L211.405,276.107z"/>
		<path fill="#939598" d="M205.733,275.101h-0.765v-0.793h0.765V275.101z M211.405,275.055h-4.654v-0.692h4.654V275.055z"/>
		<path fill="#939598" d="M210.082,271.816c0.567,0,0.774-0.315,0.774-0.784c0-0.233-0.045-0.432-0.162-0.675h0.594
			c0.126,0.243,0.198,0.504,0.198,0.837c0,0.748-0.369,1.314-1.314,1.314h-2.809v0.648h-0.612v-0.648h-1.404v-0.692h1.404v-1.477
			h0.612v1.477H210.082z"/>
		<path fill="#939598" d="M211.514,267.152c0,1.359-1.107,2.386-2.422,2.386c-1.323,0-2.439-1.026-2.439-2.386
			c0-0.882,0.368-1.431,0.828-1.863l0.485,0.459c-0.387,0.369-0.702,0.783-0.702,1.414c0,0.945,0.802,1.665,1.81,1.665
			c1.018,0,1.819-0.738,1.819-1.711c0-0.594-0.298-1.053-0.693-1.422l0.414-0.441C211.135,265.721,211.514,266.279,211.514,267.152z
			"/>
		<path fill="#939598" d="M211.405,263.417v0.693h-6.572v-0.693h2.729c-0.505-0.306-0.909-0.792-0.909-1.594
			c0-1.125,0.756-1.782,1.863-1.782h2.89v0.693h-2.719c-0.864,0-1.404,0.468-1.404,1.287c0,0.802,0.585,1.396,1.458,1.396H211.405z"
			/>
		<path fill="#939598" d="M210.91,256.514c0-0.639-0.261-1.089-0.657-1.468l0.387-0.432c0.522,0.468,0.874,1.035,0.874,1.918
			c0,1.278-0.981,2.322-2.431,2.322c-1.351,0-2.431-0.945-2.431-2.232c0-1.378,1.098-2.17,2.466-2.17c0.063,0,0.136,0,0.217,0.009
			v3.691C210.343,258.054,210.91,257.333,210.91,256.514z M208.821,255.155c-0.846,0.072-1.584,0.559-1.584,1.485
			c0,0.811,0.675,1.423,1.584,1.513V255.155z"/>
		<path fill="#939598" d="M211.405,252.545v0.693h-4.654v-0.693h0.811c-0.505-0.306-0.909-0.792-0.909-1.593
			c0-1.126,0.756-1.783,1.863-1.783h2.89v0.693h-2.719c-0.864,0-1.404,0.468-1.404,1.287c0,0.802,0.585,1.396,1.458,1.396H211.405z"
			/>
	</g>
	<g>
		<path fill="#939598" d="M251.135,159.902h-2.99v1.674h2.676v0.504h-2.676v1.716h3.025v0.504h-3.579v-4.903h3.544V159.902z"/>
		<path fill="#939598" d="M252.729,164.3h-0.539v-3.621h0.539v0.63c0.238-0.392,0.616-0.708,1.239-0.708
			c0.876,0,1.387,0.588,1.387,1.45v2.248h-0.539v-2.115c0-0.672-0.364-1.092-1.001-1.092c-0.624,0-1.086,0.455-1.086,1.134V164.3z"
			/>
		<path fill="#939598" d="M257.23,163.271c0,0.441,0.245,0.603,0.609,0.603c0.183,0,0.336-0.035,0.525-0.126v0.462
			c-0.189,0.098-0.393,0.154-0.651,0.154c-0.581,0-1.022-0.287-1.022-1.022v-2.185h-0.504v-0.477h0.504v-1.092h0.539v1.092h1.148
			v0.477h-1.148V163.271z"/>
		<path fill="#939598" d="M259.869,164.3h-0.539v-3.621h0.539v0.946c0.267-0.603,0.792-1.037,1.479-1.009v0.582h-0.042
			c-0.792,0-1.437,0.567-1.437,1.66V164.3z"/>
		<path fill="#939598" d="M263.93,164.419c-0.308,0.75-0.658,1.022-1.204,1.022c-0.302,0-0.525-0.063-0.771-0.182l0.182-0.427
			c0.176,0.091,0.337,0.133,0.567,0.133c0.322,0,0.525-0.168,0.743-0.68l-1.646-3.607h0.596l1.316,3.019l1.163-3.019h0.574
			L263.93,164.419z"/>
	</g>
	<g>
		<path fill="#939598" d="M42.207,313.24c0,0.828-0.504,1.252-0.999,1.468c0.747,0.225,1.35,0.657,1.35,1.53
			c0,1.089-0.909,1.729-2.287,1.729h-2.8v-6.302h2.683C41.396,311.665,42.207,312.277,42.207,313.24z M41.486,313.339
			c0-0.631-0.495-1.036-1.396-1.036h-1.917v2.17h1.864C40.892,314.473,41.486,314.086,41.486,313.339z M41.837,316.193
			c0-0.693-0.576-1.09-1.674-1.09h-1.99v2.224h2.116C41.243,317.327,41.837,316.904,41.837,316.193z"/>
		<path fill="#939598" d="M45.905,317.471c0.639,0,1.089-0.261,1.467-0.657l0.432,0.387c-0.468,0.522-1.035,0.874-1.917,0.874
			c-1.278,0-2.323-0.981-2.323-2.431c0-1.351,0.945-2.432,2.233-2.432c1.377,0,2.169,1.099,2.169,2.467c0,0.063,0,0.136-0.009,0.217
			h-3.691C44.365,316.904,45.085,317.471,45.905,317.471z M47.264,315.382c-0.072-0.846-0.558-1.584-1.485-1.584
			c-0.811,0-1.422,0.675-1.513,1.584H47.264z"/>
		<path fill="#939598" d="M52.916,317.966v-0.937c-0.378,0.559-0.927,1.035-1.782,1.035c-1.117,0-2.224-0.882-2.224-2.421
			c0-1.531,1.107-2.432,2.224-2.432c0.864,0,1.422,0.469,1.782,0.991v-2.81h0.693v6.572H52.916z M51.26,313.834
			c-0.9,0-1.639,0.666-1.639,1.8c0,1.107,0.756,1.81,1.639,1.81c0.864,0,1.684-0.72,1.684-1.81
			C52.943,314.554,52.124,313.834,51.26,313.834z"/>
		<path fill="#939598" d="M55.849,317.966h-0.693v-4.654h0.693v1.215c0.342-0.773,1.017-1.332,1.899-1.296v0.747h-0.054
			c-1.018,0-1.846,0.729-1.846,2.134V317.966z"/>
		<path fill="#939598" d="M60.728,318.075c-1.395,0-2.413-1.099-2.413-2.422s1.026-2.44,2.431-2.44c1.396,0,2.422,1.099,2.422,2.422
			C63.167,316.958,62.132,318.075,60.728,318.075z M60.728,313.825c-1.008,0-1.701,0.802-1.701,1.81
			c0,1.009,0.738,1.819,1.719,1.819c1.008,0,1.71-0.802,1.71-1.801C62.456,314.635,61.709,313.825,60.728,313.825z"/>
		<path fill="#939598" d="M66.542,318.075c-1.395,0-2.413-1.099-2.413-2.422s1.026-2.44,2.431-2.44c1.396,0,2.422,1.099,2.422,2.422
			C68.981,316.958,67.946,318.075,66.542,318.075z M66.542,313.825c-1.008,0-1.701,0.802-1.701,1.81
			c0,1.009,0.738,1.819,1.719,1.819c1.008,0,1.71-0.802,1.71-1.801C68.27,314.635,67.523,313.825,66.542,313.825z"/>
		<path fill="#939598" d="M75.561,313.212c1.071,0,1.729,0.721,1.729,1.873v2.881h-0.693v-2.719c0-0.9-0.45-1.404-1.207-1.404
			c-0.702,0-1.288,0.521-1.288,1.44v2.683h-0.684v-2.736c0-0.874-0.459-1.387-1.197-1.387s-1.296,0.612-1.296,1.467v2.656h-0.693
			v-4.654h0.693v0.783c0.306-0.459,0.72-0.883,1.503-0.883c0.756,0,1.242,0.405,1.495,0.928
			C74.255,313.627,74.75,313.212,75.561,313.212z"/>
		<path fill="#939598" d="M30.776,322.62h0.522v6.347h-0.702v-5.608l-1.188,0.369l-0.171-0.576L30.776,322.62z"/>
		<path fill="#939598" d="M33.998,322.62h0.522v6.347h-0.702v-5.608l-1.188,0.369l-0.171-0.576L33.998,322.62z"/>
		<path fill="#939598" d="M36.284,322.665h0.846v0.045l-0.729,2.403h-0.387L36.284,322.665z"/>
		<path fill="#939598" d="M39.425,322.62h0.522v6.347h-0.702v-5.608l-1.188,0.369l-0.171-0.576L39.425,322.62z"/>
		<path fill="#939598" d="M44.069,329.075c-1.63,0-2.656-1.477-2.656-3.25s1.044-3.269,2.674-3.269c1.621,0,2.647,1.477,2.647,3.25
			S45.689,329.075,44.069,329.075z M44.069,323.205c-1.18,0-1.918,1.206-1.918,2.602s0.756,2.62,1.936,2.62
			c1.18,0,1.909-1.216,1.909-2.602C45.996,324.438,45.249,323.205,44.069,323.205z"/>
		<path fill="#939598" d="M48.146,322.665h0.837v0.045l-0.729,2.403h-0.378L48.146,322.665z M49.91,322.665h0.829v0.045
			l-0.729,2.403h-0.378L49.91,322.665z"/>
		<path fill="#939598" d="M58.766,328.966h-0.801l-1.44-1.899l-1.45,1.899h-0.774l1.828-2.368l-1.755-2.286h0.792l1.377,1.801
			l1.377-1.801h0.774l-1.765,2.269L58.766,328.966z"/>
		<path fill="#939598" d="M63.607,322.62h0.522v6.347h-0.702v-5.608l-1.188,0.369l-0.171-0.576L63.607,322.62z"/>
		<path fill="#939598" d="M69.611,322.62v4.258h0.981v0.595h-0.981v1.494h-0.684v-1.494h-3.322l-0.18-0.514l3.565-4.339H69.611z
			 M68.927,323.627l-2.647,3.25h2.647V323.627z"/>
		<path fill="#939598" d="M71.932,322.665h0.846v0.045l-0.729,2.403h-0.387L71.932,322.665z"/>
		<path fill="#939598" d="M76.117,329.056c-1.341,0-2.368-0.729-2.368-1.791c0-0.757,0.54-1.288,1.296-1.558
			c-0.585-0.271-1.08-0.721-1.08-1.459c0-0.98,0.999-1.674,2.151-1.674s2.152,0.693,2.152,1.674c0,0.738-0.495,1.188-1.081,1.459
			c0.748,0.279,1.296,0.792,1.296,1.548C78.485,328.336,77.458,329.056,76.117,329.056z M76.117,326.041
			c-0.918,0-1.647,0.495-1.647,1.206c0,0.648,0.612,1.188,1.647,1.188c1.036,0,1.647-0.54,1.647-1.188
			C77.765,326.536,77.036,326.041,76.117,326.041z M76.117,323.196c-0.819,0-1.44,0.459-1.44,1.098c0,0.693,0.639,1.162,1.44,1.162
			s1.44-0.469,1.44-1.162C77.558,323.664,76.937,323.196,76.117,323.196z"/>
		<path fill="#939598" d="M79.807,322.665h0.837v0.045l-0.729,2.403h-0.378L79.807,322.665z M81.571,322.665h0.828v0.045
			l-0.729,2.403h-0.378L81.571,322.665z"/>
	</g>
	<g>
		<path fill="#939598" d="M141.207,50.74c0,0.829-0.505,1.251-1,1.468c0.747,0.225,1.351,0.657,1.351,1.53
			c0,1.089-0.909,1.729-2.286,1.729h-2.8v-6.302h2.683C140.396,49.165,141.207,49.777,141.207,50.74z M140.486,50.839
			c0-0.63-0.495-1.035-1.396-1.035h-1.917v2.169h1.864C139.893,51.973,140.486,51.586,140.486,50.839z M140.838,53.693
			c0-0.693-0.576-1.089-1.675-1.089h-1.99v2.224h2.116C140.243,54.827,140.838,54.404,140.838,53.693z"/>
		<path fill="#939598" d="M144.904,54.971c0.64,0,1.09-0.261,1.468-0.657l0.433,0.387c-0.469,0.522-1.036,0.873-1.918,0.873
			c-1.278,0-2.322-0.981-2.322-2.431c0-1.35,0.944-2.431,2.232-2.431c1.377,0,2.169,1.098,2.169,2.467c0,0.063,0,0.135-0.009,0.216
			h-3.69C143.365,54.404,144.085,54.971,144.904,54.971z M146.264,52.882c-0.071-0.846-0.558-1.584-1.485-1.584
			c-0.81,0-1.422,0.675-1.512,1.584H146.264z"/>
		<path fill="#939598" d="M151.916,55.466V54.53c-0.378,0.559-0.927,1.036-1.782,1.036c-1.116,0-2.224-0.882-2.224-2.422
			c0-1.53,1.107-2.431,2.224-2.431c0.864,0,1.422,0.468,1.782,0.99v-2.809h0.693v6.572H151.916z M150.26,51.334
			c-0.9,0-1.639,0.667-1.639,1.801c0,1.107,0.756,1.81,1.639,1.81c0.864,0,1.684-0.72,1.684-1.81
			C151.943,52.054,151.124,51.334,150.26,51.334z"/>
		<path fill="#939598" d="M154.849,55.466h-0.692v-4.654h0.692v1.215c0.343-0.774,1.018-1.333,1.9-1.296v0.747h-0.055
			c-1.017,0-1.846,0.729-1.846,2.134V55.466z"/>
		<path fill="#939598" d="M159.728,55.574c-1.396,0-2.412-1.098-2.412-2.421c0-1.324,1.026-2.44,2.431-2.44
			c1.396,0,2.422,1.098,2.422,2.422C162.168,54.458,161.132,55.574,159.728,55.574z M159.728,51.325
			c-1.008,0-1.701,0.801-1.701,1.81s0.738,1.818,1.72,1.818c1.008,0,1.71-0.801,1.71-1.8
			C161.456,52.135,160.709,51.325,159.728,51.325z"/>
		<path fill="#939598" d="M165.542,55.574c-1.396,0-2.413-1.098-2.413-2.421c0-1.324,1.026-2.44,2.431-2.44
			c1.396,0,2.422,1.098,2.422,2.422C167.981,54.458,166.946,55.574,165.542,55.574z M165.542,51.325
			c-1.009,0-1.702,0.801-1.702,1.81s0.738,1.818,1.72,1.818c1.009,0,1.711-0.801,1.711-1.8
			C167.271,52.135,166.523,51.325,165.542,51.325z"/>
		<path fill="#939598" d="M174.561,50.713c1.071,0,1.729,0.72,1.729,1.873v2.881h-0.693v-2.719c0-0.9-0.45-1.404-1.206-1.404
			c-0.702,0-1.287,0.522-1.287,1.44v2.683h-0.685v-2.737c0-0.873-0.459-1.386-1.197-1.386s-1.297,0.612-1.297,1.467v2.656h-0.692
			v-4.654h0.692v0.783c0.307-0.459,0.721-0.882,1.504-0.882c0.756,0,1.242,0.405,1.494,0.927
			C173.255,51.127,173.75,50.713,174.561,50.713z"/>
		<path fill="#939598" d="M130.1,60.12h0.522v6.347h-0.702v-5.609l-1.188,0.369l-0.171-0.576L130.1,60.12z"/>
		<path fill="#939598" d="M132.602,61.794l-0.522-0.378c0.567-0.847,1.161-1.342,2.269-1.342c1.144,0,1.954,0.756,1.954,1.792
			c0,0.928-0.486,1.495-1.593,2.458l-1.684,1.494h3.34v0.648h-4.402v-0.549l2.287-2.017c0.963-0.864,1.314-1.35,1.314-1.98
			c0-0.738-0.585-1.207-1.269-1.207C133.574,60.713,133.106,61.092,132.602,61.794z"/>
		<path fill="#939598" d="M137.777,60.165h0.846v0.045l-0.729,2.404h-0.387L137.777,60.165z"/>
		<path fill="#939598" d="M141.962,66.556c-1.341,0-2.367-0.729-2.367-1.792c0-0.756,0.54-1.287,1.296-1.557
			c-0.585-0.271-1.08-0.72-1.08-1.458c0-0.981,0.999-1.675,2.151-1.675s2.152,0.693,2.152,1.675c0,0.738-0.495,1.188-1.081,1.458
			c0.747,0.279,1.297,0.792,1.297,1.548C144.33,65.836,143.304,66.556,141.962,66.556z M141.962,63.541
			c-0.918,0-1.647,0.495-1.647,1.206c0,0.648,0.612,1.188,1.647,1.188s1.647-0.54,1.647-1.188
			C143.609,64.036,142.881,63.541,141.962,63.541z M141.962,60.696c-0.819,0-1.44,0.459-1.44,1.098c0,0.693,0.64,1.161,1.44,1.161
			c0.802,0,1.44-0.468,1.44-1.161C143.402,61.164,142.781,60.696,141.962,60.696z"/>
		<path fill="#939598" d="M145.651,60.165h0.837v0.045l-0.729,2.404h-0.378L145.651,60.165z M147.416,60.165h0.828v0.045
			l-0.729,2.404h-0.378L147.416,60.165z"/>
		<path fill="#939598" d="M156.272,66.466h-0.801l-1.44-1.899l-1.45,1.899h-0.773l1.827-2.368l-1.756-2.287h0.793l1.377,1.8
			l1.377-1.8h0.774l-1.765,2.269L156.272,66.466z"/>
		<path fill="#939598" d="M161.113,60.12h0.522v6.347h-0.702v-5.609l-1.188,0.369l-0.171-0.576L161.113,60.12z"/>
		<path fill="#939598" d="M164.335,60.12h0.522v6.347h-0.702v-5.609l-1.188,0.369l-0.171-0.576L164.335,60.12z"/>
		<path fill="#939598" d="M166.621,60.165h0.846v0.045l-0.729,2.404h-0.388L166.621,60.165z"/>
		<path fill="#939598" d="M169.762,60.12h0.522v6.347h-0.702v-5.609l-1.188,0.369l-0.171-0.576L169.762,60.12z"/>
		<path fill="#939598" d="M174.406,66.574c-1.629,0-2.655-1.476-2.655-3.25c0-1.773,1.044-3.268,2.674-3.268
			c1.62,0,2.646,1.477,2.646,3.25C177.071,65.08,176.027,66.574,174.406,66.574z M174.406,60.705c-1.18,0-1.917,1.207-1.917,2.602
			c0,1.396,0.756,2.62,1.936,2.62c1.179,0,1.908-1.215,1.908-2.602C176.333,61.938,175.586,60.705,174.406,60.705z"/>
		<path fill="#939598" d="M178.482,60.165h0.838v0.045l-0.729,2.404h-0.378L178.482,60.165z M180.247,60.165h0.828v0.045
			l-0.729,2.404h-0.379L180.247,60.165z"/>
	</g>
	<g>
		<path fill="#939598" d="M122.614,161.832h0.711v5.645h3.547v0.657h-4.258V161.832z"/>
		<path fill="#939598" d="M128.086,162.461v-0.765h0.792v0.765H128.086z M128.131,168.133v-4.654h0.693v4.654H128.131z"/>
		<path fill="#939598" d="M133.883,163.479h0.747l-2.026,4.69h-0.612l-2.017-4.69h0.765l1.566,3.862L133.883,163.479z"/>
		<path fill="#939598" d="M135.735,162.461v-0.765h0.792v0.765H135.735z M135.781,168.133v-4.654h0.693v4.654H135.781z"/>
		<path fill="#939598" d="M138.777,168.133h-0.693v-4.654h0.693v0.81c0.306-0.504,0.792-0.909,1.594-0.909
			c1.125,0,1.782,0.756,1.782,1.864v2.89h-0.693v-2.719c0-0.864-0.468-1.404-1.287-1.404c-0.801,0-1.396,0.585-1.396,1.458V168.133z
			"/>
		<path fill="#939598" d="M145.69,169.592c-0.774,0-1.495-0.216-2.116-0.648l0.315-0.54c0.531,0.387,1.125,0.594,1.791,0.594
			c1.026,0,1.692-0.567,1.692-1.656v-0.549c-0.404,0.54-0.972,0.981-1.827,0.981c-1.116,0-2.188-0.828-2.188-2.188
			c0-1.368,1.08-2.206,2.188-2.206c0.873,0,1.44,0.432,1.818,0.936v-0.837h0.693v3.844
			C148.058,168.827,147.121,169.592,145.69,169.592z M145.681,163.992c-0.882,0-1.611,0.603-1.611,1.575
			c0,0.955,0.747,1.594,1.611,1.594c0.883,0,1.711-0.63,1.711-1.584C147.392,164.613,146.563,163.992,145.681,163.992z"/>
		<path fill="#939598" d="M153.457,160.949l-4.177,8.336h-0.64l4.178-8.336H153.457z"/>
		<path fill="#939598" d="M156.48,168.133h-2.188v-6.302h2.188c1.981,0,3.35,1.359,3.35,3.142
			C159.83,166.756,158.462,168.133,156.48,168.133z M156.48,162.489h-1.476v4.987h1.476c1.594,0,2.611-1.08,2.611-2.485
			C159.092,163.587,158.074,162.489,156.48,162.489z"/>
		<path fill="#939598" d="M161.232,162.461v-0.765h0.792v0.765H161.232z M161.277,168.133v-4.654h0.693v4.654H161.277z"/>
		<path fill="#939598" d="M164.274,168.133h-0.693v-4.654h0.693v0.81c0.306-0.504,0.792-0.909,1.594-0.909
			c1.125,0,1.782,0.756,1.782,1.864v2.89h-0.693v-2.719c0-0.864-0.468-1.404-1.287-1.404c-0.802,0-1.396,0.585-1.396,1.458V168.133z
			"/>
		<path fill="#939598" d="M169.143,162.461v-0.765h0.793v0.765H169.143z M169.188,168.133v-4.654h0.692v4.654H169.188z"/>
		<path fill="#939598" d="M172.186,168.133h-0.693v-4.654h0.693v0.81c0.306-0.504,0.792-0.909,1.593-0.909
			c1.126,0,1.783,0.756,1.783,1.864v2.89h-0.693v-2.719c0-0.864-0.469-1.404-1.288-1.404c-0.801,0-1.395,0.585-1.395,1.458V168.133z
			"/>
		<path fill="#939598" d="M179.098,169.592c-0.774,0-1.495-0.216-2.116-0.648l0.315-0.54c0.531,0.387,1.125,0.594,1.792,0.594
			c1.026,0,1.692-0.567,1.692-1.656v-0.549c-0.405,0.54-0.973,0.981-1.828,0.981c-1.116,0-2.188-0.828-2.188-2.188
			c0-1.368,1.08-2.206,2.188-2.206c0.874,0,1.44,0.432,1.818,0.936v-0.837h0.693v3.844
			C181.465,168.827,180.529,169.592,179.098,169.592z M179.089,163.992c-0.883,0-1.612,0.603-1.612,1.575
			c0,0.955,0.748,1.594,1.612,1.594c0.882,0,1.71-0.63,1.71-1.584C180.799,164.613,179.971,163.992,179.089,163.992z"/>
		<path fill="#939598" d="M190.168,168.133l-1.827-2.449h-1.801v2.449h-0.711v-6.302h2.709c1.387,0,2.278,0.747,2.278,1.881
			c0,1.053-0.721,1.666-1.711,1.846l1.936,2.575H190.168z M188.484,162.489h-1.944v2.557h1.936c0.945,0,1.62-0.486,1.62-1.306
			C190.096,162.957,189.502,162.489,188.484,162.489z"/>
		<path fill="#939598" d="M194.253,168.241c-1.396,0-2.412-1.098-2.412-2.421c0-1.324,1.025-2.44,2.431-2.44
			c1.396,0,2.421,1.098,2.421,2.422C196.692,167.125,195.657,168.241,194.253,168.241z M194.253,163.992
			c-1.008,0-1.701,0.801-1.701,1.81s0.738,1.818,1.72,1.818c1.008,0,1.71-0.801,1.71-1.8
			C195.981,164.802,195.234,163.992,194.253,163.992z"/>
		<path fill="#939598" d="M200.067,168.241c-1.396,0-2.413-1.098-2.413-2.421c0-1.324,1.026-2.44,2.431-2.44
			c1.396,0,2.422,1.098,2.422,2.422C202.507,167.125,201.472,168.241,200.067,168.241z M200.067,163.992
			c-1.009,0-1.702,0.801-1.702,1.81s0.738,1.818,1.72,1.818c1.009,0,1.711-0.801,1.711-1.8
			C201.796,164.802,201.049,163.992,200.067,163.992z"/>
		<path fill="#939598" d="M209.086,163.38c1.071,0,1.729,0.72,1.729,1.873v2.881h-0.693v-2.719c0-0.9-0.45-1.404-1.206-1.404
			c-0.702,0-1.287,0.522-1.287,1.44v2.683h-0.685v-2.737c0-0.873-0.459-1.386-1.197-1.386s-1.297,0.612-1.297,1.467v2.656h-0.692
			v-4.654h0.692v0.783c0.307-0.459,0.721-0.882,1.504-0.882c0.756,0,1.242,0.405,1.494,0.927
			C207.78,163.794,208.275,163.38,209.086,163.38z"/>
		<path fill="#939598" d="M141.095,172.787h0.522v6.347h-0.702v-5.609l-1.188,0.369l-0.171-0.576L141.095,172.787z"/>
		<path fill="#939598" d="M143.309,173.471v-0.639h4.024v0.522l-1.981,2.197c1.107,0.09,2.08,0.621,2.08,1.782
			c0,1.135-0.937,1.909-2.106,1.909c-1.054,0-1.837-0.459-2.35-1.125l0.513-0.459c0.486,0.594,1.071,0.937,1.846,0.937
			c0.766,0,1.377-0.486,1.377-1.233c0-0.792-0.72-1.225-1.764-1.225h-0.405l-0.145-0.423l1.99-2.242H143.309z"/>
		<path fill="#939598" d="M148.897,172.832h0.846v0.045l-0.729,2.404h-0.388L148.897,172.832z"/>
		<path fill="#939598" d="M151.318,174.461l-0.522-0.378c0.567-0.847,1.162-1.342,2.269-1.342c1.144,0,1.954,0.756,1.954,1.792
			c0,0.928-0.486,1.495-1.594,2.458l-1.684,1.494h3.34v0.648h-4.402v-0.549l2.287-2.017c0.963-0.864,1.314-1.35,1.314-1.98
			c0-0.738-0.585-1.207-1.27-1.207C152.291,173.38,151.822,173.759,151.318,174.461z"/>
		<path fill="#939598" d="M156.493,172.832h0.837v0.045l-0.729,2.404h-0.378L156.493,172.832z M158.258,172.832h0.828v0.045
			l-0.729,2.404h-0.378L158.258,172.832z"/>
		<path fill="#939598" d="M167.114,179.133h-0.801l-1.44-1.899l-1.45,1.899h-0.774l1.828-2.368l-1.756-2.287h0.792l1.378,1.8
			l1.377-1.8h0.774l-1.765,2.269L167.114,179.133z"/>
		<path fill="#939598" d="M171.235,174.461l-0.522-0.378c0.567-0.847,1.161-1.342,2.269-1.342c1.144,0,1.953,0.756,1.953,1.792
			c0,0.928-0.485,1.495-1.593,2.458l-1.684,1.494h3.34v0.648h-4.402v-0.549l2.287-2.017c0.963-0.864,1.314-1.35,1.314-1.98
			c0-0.738-0.586-1.207-1.27-1.207C172.207,173.38,171.739,173.759,171.235,174.461z"/>
		<path fill="#939598" d="M179.896,172.787v4.258h0.98v0.594h-0.98v1.495h-0.685v-1.495h-3.322l-0.18-0.513l3.564-4.339H179.896z
			 M179.211,173.795l-2.646,3.25h2.646V173.795z"/>
		<path fill="#939598" d="M182.216,172.832h0.847v0.045l-0.729,2.404h-0.388L182.216,172.832z"/>
		<path fill="#939598" d="M186.779,179.241c-1.629,0-2.655-1.476-2.655-3.25c0-1.773,1.044-3.268,2.674-3.268
			c1.62,0,2.646,1.477,2.646,3.25C189.444,177.747,188.4,179.241,186.779,179.241z M186.779,173.372
			c-1.179,0-1.917,1.207-1.917,2.602c0,1.396,0.756,2.62,1.936,2.62c1.179,0,1.908-1.215,1.908-2.602
			C188.706,174.605,187.959,173.372,186.779,173.372z"/>
		<path fill="#939598" d="M190.855,172.832h0.838v0.045l-0.729,2.404h-0.378L190.855,172.832z M192.62,172.832h0.828v0.045
			l-0.729,2.404h-0.379L192.62,172.832z"/>
	</g>
	<g>
		<path fill="#939598" d="M172.146,270.33h4.902v0.554h-4.902V270.33z"/>
		<path fill="#939598" d="M177.119,267.789c0,0.519-0.203,1.093-0.532,1.499l-0.386-0.273c0.294-0.393,0.463-0.826,0.463-1.254
			c0-0.435-0.225-0.749-0.575-0.749h-0.014c-0.364,0-0.504,0.427-0.638,0.903c-0.16,0.567-0.356,1.197-1.022,1.197h-0.014
			c-0.623,0-1.036-0.518-1.036-1.232c0-0.441,0.153-0.932,0.398-1.303l0.406,0.245c-0.217,0.336-0.35,0.722-0.35,1.071
			c0,0.428,0.224,0.701,0.525,0.701h0.014c0.343,0,0.477-0.448,0.623-0.932c0.168-0.561,0.386-1.163,1.037-1.163h0.014
			C176.72,266.5,177.119,267.067,177.119,267.789z"/>
		<path fill="#939598" d="M177.049,265.451h-5.112v-0.539h5.112V265.451z"/>
		<path fill="#939598" d="M174.121,263.449l-0.441,0.161c-0.182-0.398-0.301-0.791-0.301-1.316c0-0.987,0.504-1.541,1.457-1.541
			h2.213v0.519h-0.546c0.329,0.252,0.623,0.672,0.623,1.31c0,0.673-0.378,1.352-1.135,1.352c-0.771,0-1.177-0.63-1.177-1.548
			c0-0.462,0.063-0.791,0.154-1.113h-0.126c-0.651,0-0.987,0.399-0.987,1.078C173.855,262.777,173.967,263.113,174.121,263.449z
			 M175.971,263.386c0.462,0,0.728-0.42,0.728-0.91c0-0.666-0.406-1.212-0.98-1.212h-0.35c-0.077,0.266-0.154,0.623-0.154,1.064
			C175.214,263.008,175.508,263.386,175.971,263.386z"/>
		<path fill="#939598" d="M177.049,259.067v0.539h-3.621v-0.539h0.631c-0.393-0.238-0.708-0.616-0.708-1.239
			c0-0.876,0.589-1.387,1.45-1.387h2.248v0.539h-2.115c-0.672,0-1.093,0.364-1.093,1.001c0,0.624,0.455,1.086,1.135,1.086H177.049z"
			/>
		<path fill="#939598" d="M177.049,252.388h-0.729c0.435,0.294,0.806,0.721,0.806,1.387c0,0.868-0.687,1.729-1.884,1.729
			c-1.191,0-1.892-0.861-1.892-1.729c0-0.673,0.364-1.107,0.771-1.387h-2.185v-0.54h5.112V252.388z M173.834,253.676
			c0,0.7,0.519,1.274,1.4,1.274c0.862,0,1.408-0.588,1.408-1.274c0-0.672-0.561-1.31-1.408-1.31
			C174.395,252.367,173.834,253.004,173.834,253.676z"/>
	</g>
</g>
<g id="walls">
	<polyline fill="none" stroke="#939598" stroke-width="5" points="258.845,150.792 258.845,122.543 283.834,96.779 283.834,2.5 
		89.986,2.5 89.986,255.017 2.5,255.017 2.5,418.329 232.998,419.329 232.998,390.533 258.845,390.542 258.845,173.292 	"/>
	<polyline fill="none" stroke="#939598" stroke-width="3" points="113.501,356.573 113.501,260.349 74.918,260.349 74.918,255.542 	
		"/>
	<line fill="none" stroke="#939598" stroke-width="3" x1="113.501" y1="419.876" x2="113.501" y2="378.542"/>
	<line fill="none" stroke="#939598" x1="24.001" y1="261.311" x2="75.001" y2="261.311"/>
	<polyline fill="none" stroke="#939598" stroke-width="3" points="4.168,260.349 23.168,260.349 23.168,255.292 	"/>
	<line fill="none" stroke="#939598" stroke-width="3" x1="145.082" y1="340.876" x2="251.835" y2="340.876"/>
	<line fill="none" stroke="#939598" stroke-width="3" x1="114.835" y1="340.876" x2="121.502" y2="340.876"/>
	<line fill="none" stroke="#939598" stroke-width="3" x1="21.335" y1="395.209" x2="4.001" y2="395.209"/>
	<line fill="none" stroke="#939598" stroke-width="3" x1="71.318" y1="395.209" x2="44.418" y2="395.209"/>
	<line fill="none" stroke="#939598" stroke-width="3" x1="112.834" y1="395.209" x2="94.891" y2="395.209"/>
	<line fill="none" stroke="#939598" stroke-width="3" x1="169.168" y1="371.792" x2="169.168" y2="417.209"/>
	<line fill="none" stroke="#939598" stroke-width="3" x1="169.168" y1="341.876" x2="169.168" y2="347.875"/>
	<polyline fill="none" stroke="#939598" stroke-width="3" points="96.501,259.542 96.501,212.792 91.418,212.792 	"/>
	<line fill="none" stroke="#939598" x1="97.372" y1="136.876" x2="97.372" y2="211.708"/>
	<polyline fill="none" stroke="#939598" stroke-width="3" points="90.418,136.042 96.501,136.042 96.501,84.542 92.418,84.542 	"/>
	<polyline fill="none" stroke="#939598" stroke-width="3" points="269.668,111.042 252.475,111.042 252.475,146.914 
		258.418,146.914 	"/>
	<polyline fill="none" stroke="#939598" stroke-width="3" points="257.418,177.966 252.168,177.966 252.168,342.435 	"/>
	<line fill="none" stroke="#939598" stroke-width="3" x1="209.077" y1="114.042" x2="216.168" y2="114.042"/>
	<line fill="none" stroke="#939598" stroke-width="3" x1="96.918" y1="114.042" x2="185.168" y2="114.042"/>
	<polyline fill="none" stroke="#939598" stroke-width="3" points="215.732,106.71 215.732,141.042 252.668,141.042 	"/>
	<line fill="none" stroke="#939598" stroke-width="3" x1="215.732" y1="47.042" x2="215.732" y2="84.71"/>
	<line fill="none" stroke="#939598" stroke-width="3" x1="215.732" y1="2.792" x2="215.732" y2="24.935"/>
	<line fill="none" stroke="#939598" stroke-width="3" x1="215.918" y1="54.042" x2="282.918" y2="54.042"/>
	<polyline fill="none" stroke="#939598" stroke-width="3" points="229.418,218.542 229.418,221.792 251.418,221.792 	"/>
	<polyline fill="none" stroke="#939598" stroke-width="3" points="251.668,195.542 229.418,195.542 229.418,198.759 	"/>
	<line fill="none" stroke="#939598" stroke-width="3" x1="251.335" y1="340.709" x2="257.335" y2="340.709"/>
	<line fill="none" stroke="#939598" x1="97.406" y1="83.792" x2="97.406" y2="0.792"/>
</g>
<g id="windows">
	<g>
		<g>
			<rect x="88.103" y="139.965" fill="#FFFFFF" stroke="#939598" width="3.674" height="69.562"/>
			<line fill="none" stroke="#939598" x1="89.921" y1="139.965" x2="89.921" y2="210.278"/>
			<line fill="none" stroke="#939598" stroke-width="2" x1="91.935" y1="162.639" x2="88.44" y2="162.639"/>
		</g>
		<line fill="none" stroke="#939598" stroke-width="2" x1="92.06" y1="186.028" x2="88.458" y2="186.028"/>
	</g>
	<g>
		<g>
			<rect x="88.11" y="10.715" fill="#FFFFFF" stroke="#939598" width="3.674" height="69.562"/>
			<line fill="none" stroke="#939598" x1="89.929" y1="10.715" x2="89.929" y2="81.028"/>
			<line fill="none" stroke="#939598" stroke-width="2" x1="91.942" y1="33.389" x2="88.448" y2="33.389"/>
		</g>
		<line fill="none" stroke="#939598" stroke-width="2" x1="92.067" y1="56.778" x2="88.466" y2="56.778"/>
	</g>
	<g>
		<rect x="25.197" y="253.087" fill="#FFFFFF" stroke="#939598" width="47.301" height="3.824"/>
		<line fill="none" stroke="#939598" x1="25.197" y1="254.921" x2="73.248" y2="254.921"/>
		<line fill="none" stroke="#939598" stroke-width="2" x1="47.949" y1="252.783" x2="47.949" y2="256.908"/>
	</g>
</g>
</svg>
