<?xml version="1.0" encoding="utf-8"?>
<!-- Generator: Adobe Illustrator 15.0.2, SVG Export Plug-In . SVG Version: 6.00 Build 0)  -->
<!DOCTYPE svg PUBLIC "-//W3C//DTD SVG 1.1//EN" "http://www.w3.org/Graphics/SVG/1.1/DTD/svg11.dtd">
<svg version="1.1" id="Layer_1" xmlns="http://www.w3.org/2000/svg" xmlns:xlink="http://www.w3.org/1999/xlink" x="0px" y="0px"
	 width="500px" height="500px" viewBox="-130.352 -75.928 500 500" enable-background="new -130.352 -75.928 500 500"
	 xml:space="preserve">
<g id="_x32_0_x25___PMS_2985_fill" display="none">
	<polygon display="inline" fill="#EBEEEF" points="0.829,308.691 46.162,308.691 46.162,327.358 230.162,327.358 230.162,160.025 
		236.829,160.025 236.829,19.358 113.829,19.358 113.829,8.358 24.829,8.358 24.829,16.025 0.496,16.025 	"/>
</g>
<g>
	<g id="_x32_0_x25__grey_fill">
		<rect x="102.148" y="-48.175" fill="#D1D3D4" width="49.852" height="13.167"/>
		<rect x="-47.4" y="-49.586" fill="#D1D3D4" width="42.795" height="14.109"/>
		<rect x="242.19" y="359.091" fill="#D1D3D4" width="31.948" height="31.979"/>
		<polygon fill="#D1D3D4" points="284.149,75.509 284.149,-44.414 258.283,-44.414 258.283,-35.949 275.685,-35.949 275.685,75.509 
					"/>
	</g>
	<g id="icons">
		<polyline fill="#FFFFFF" stroke="#939598" points="75.247,363.528 136.147,363.528 136.147,289.588 163.425,289.588 
			163.425,388.923 57.845,387.983 57.845,363.528 60.325,363.528 		"/>
		<g>
			<g>
				<rect x="21.24" y="355.848" fill="#FFFFFF" stroke="#939598" width="35.133" height="30.994"/>
				<path fill="#FFFFFF" stroke="#939598" d="M40.626,371.345"/>
			</g>
			<line fill="none" stroke="#939598" x1="21.158" y1="358.015" x2="56.375" y2="358.015"/>
			<rect x="50.595" y="354.316" fill="#FFFFFF" stroke="#939598" width="2.849" height="1.508"/>
			<path fill="#FFFFFF" stroke="#939598" d="M52.019,355.154"/>
		</g>
		<g>
			<polygon fill="none" stroke="#939598" points="-36.869,365.332 -34.542,365.259 -34.521,331.716 -36.878,331.697 			"/>
			<path fill="none" stroke="#939598" d="M-35.816,331.672c18.502,0.628,32.99,15.866,32.359,34.364"/>
		</g>
		<g>
			<polygon fill="none" stroke="#939598" points="229.395,234.092 227.039,234.08 227.016,200.476 229.374,200.488 			"/>
			<path fill="none" stroke="#939598" d="M228.311,200.462c-18.501,0.628-32.989,15.836-32.36,34.337"/>
		</g>
		<g>
			<polygon fill="none" stroke="#939598" points="179.038,290.898 181.392,290.881 181.415,324.484 179.026,324.503 			"/>
			<path fill="none" stroke="#939598" d="M180.151,324.528c18.501-0.628,32.989-15.927,32.36-34.428"/>
		</g>
		<g>
			<polygon fill="none" stroke="#939598" points="-36.189,275.439 -33.833,275.422 -33.812,309.026 -36.231,309.044 			"/>
			<path fill="none" stroke="#939598" d="M-35.198,309.07c18.502-0.629,32.99-15.928,32.359-34.429"/>
		</g>
		<g>
			<rect x="166.999" y="160.468" fill="none" stroke="#939598" stroke-width="0.8" width="1.553" height="40.914"/>
			<rect x="165.655" y="189.037" fill="none" stroke="#939598" stroke-width="0.8" width="1.52" height="40.915"/>
		</g>
		<g>
			<rect x="244.574" y="161.526" fill="none" stroke="#939598" stroke-width="0.8" width="1.613" height="40.914"/>
			<rect x="246.161" y="190.096" fill="none" stroke="#939598" stroke-width="0.8" width="1.641" height="40.914"/>
		</g>
		<g>
			<rect x="-14.305" y="-59.638" fill="none" stroke="#939598" width="4.057" height="4.056"/>
			<rect x="107.734" y="-59.638" fill="none" stroke="#939598" width="4.056" height="4.056"/>
			<line fill="none" stroke="#939598" x1="-10.601" y1="-56.64" x2="107.734" y2="-56.64"/>
			<line fill="none" stroke="#939598" x1="-10.248" y1="-55.582" x2="-10.248" y2="-50.644"/>
			<line fill="none" stroke="#939598" x1="108.521" y1="-55.582" x2="108.521" y2="-49.057"/>
			<line fill="none" stroke="#939598" x1="111.791" y1="-55.582" x2="111.791" y2="-49.409"/>
			<line fill="none" stroke="#939598" x1="107.734" y1="-59.638" x2="-10.954" y2="-59.638"/>
			<line fill="none" stroke="#939598" x1="-14.305" y1="-55.582" x2="-14.305" y2="-51.35"/>
		</g>
		<g>
			<polygon fill="none" stroke="#939598" points="239.691,246.885 239.68,249.122 207.757,249.143 207.769,246.901 			"/>
			<path fill="none" stroke="#939598" d="M207.743,247.913c0.597,17.576,15.045,31.34,32.62,30.739"/>
		</g>
		<line fill="none" stroke="#939598" x1="7.917" y1="261.154" x2="-45.52" y2="261.154"/>
		<line fill="none" stroke="#939598" x1="152.706" y1="233.644" x2="152.706" y2="160.103"/>
		<line fill="none" stroke="#939598" x1="260.107" y1="159.926" x2="260.107" y2="234.348"/>
		
			<line fill="none" stroke="#939598" stroke-dasharray="1.5,1.5,1.5,1.5,1.5,1.5" x1="150.008" y1="232.938" x2="150.008" y2="159.926"/>
		
			<line fill="none" stroke="#939598" stroke-dasharray="1.5,1.5,1.5,1.5,1.5,1.5" x1="262.752" y1="232.761" x2="262.752" y2="159.75"/>
		
			<line fill="none" stroke="#939598" stroke-dasharray="1.5,1.5,1.5,1.5,1.5,1.5" x1="7.917" y1="258.492" x2="-45.873" y2="258.492"/>
		<line fill="none" stroke="#939598" x1="151.55" y1="-35.477" x2="257.93" y2="-35.477"/>
		<line fill="none" stroke="#939598" x1="274.532" y1="153.577" x2="274.532" y2="70.336"/>
		
			<rect x="44.233" y="282.321" transform="matrix(0.7071 -0.7072 0.7072 0.7071 -187.057 140.2502)" fill="#FFFFFF" stroke="#939598" width="63.04" height="27.162"/>
		<polyline fill="#FFFFFF" stroke="#939598" points="203.378,390.289 203.73,363.835 239.002,363.835 238.649,390.099 		"/>
		
			<line fill="none" stroke="#939598" stroke-dasharray="1.5,1.5,1.5,1.5,1.5,1.5" x1="17.616" y1="376.257" x2="57.611" y2="376.257"/>
		<g>
			<g>
				<rect x="96.549" y="359.072" fill="#FFFFFF" stroke="#939598" width="32.803" height="27.864"/>
				<path fill="#FFFFFF" stroke="#939598" d="M112.951,373.005"/>
			</g>
			<g>
				<g>
					<circle fill="#FFFFFF" stroke="#939598" cx="120.449" cy="365.245" r="3.984"/>
					<path fill="#FFFFFF" stroke="#939598" d="M120.449,365.245"/>
				</g>
				<g>
					<circle fill="#FFFFFF" stroke="#939598" stroke-width="0.8" cx="120.488" cy="365.246" r="2.807"/>
					<path fill="#FFFFFF" stroke="#939598" d="M120.488,365.245"/>
				</g>
			</g>
			<g>
				<g>
					<circle fill="#FFFFFF" stroke="#939598" cx="104.524" cy="376.884" r="3.985"/>
					<path fill="#FFFFFF" stroke="#939598" d="M104.524,376.885"/>
				</g>
				<g>
					<circle fill="#FFFFFF" stroke="#939598" stroke-width="0.8" cx="104.485" cy="376.886" r="2.807"/>
					<path fill="#FFFFFF" stroke="#939598" d="M104.485,376.885"/>
				</g>
			</g>
			<g>
				<g>
					<circle fill="#FFFFFF" stroke="#939598" cx="120.503" cy="376.846" r="4.542"/>
					<path fill="#FFFFFF" stroke="#939598" d="M120.503,376.846"/>
				</g>
				<g>
					<circle fill="#FFFFFF" stroke="#939598" stroke-width="0.8" cx="120.459" cy="376.846" r="3.2"/>
					<path fill="#FFFFFF" stroke="#939598" d="M120.459,376.846"/>
				</g>
			</g>
			<g>
				<g>
					<circle fill="#FFFFFF" stroke="#939598" cx="104.543" cy="364.938" r="4.542"/>
					<path fill="#FFFFFF" stroke="#939598" d="M104.543,364.938"/>
				</g>
				<g>
					<circle fill="#FFFFFF" stroke="#939598" stroke-width="0.8" cx="104.498" cy="364.938" r="3.2"/>
					<path fill="#FFFFFF" stroke="#939598" d="M104.498,364.938"/>
				</g>
			</g>
			<line fill="none" stroke="#939598" x1="129.395" y1="383.082" x2="96.549" y2="383.082"/>
			<line fill="none" stroke="#939598" x1="129.353" y1="384.622" x2="96.549" y2="384.622"/>
		</g>
		<g>
			<polyline fill="none" stroke="#939598" stroke-dasharray="1.5,1,1.5,1,1.5,1" points="135.379,355.826 160.589,355.826 
				160.589,331.102 135.946,331.102 			"/>
			<polyline fill="#FFFFFF" stroke="#939598" points="135.946,331.064 134.446,331.064 134.446,355.826 135.368,355.826 			"/>
		</g>
		<polyline fill="none" stroke="#939598" stroke-dasharray="1.5,1.5,1.5,1.5,1.5,1.5" points="78.068,376.257 148.826,376.257 
			148.826,349.183 		"/>
		<line fill="none" stroke="#939598" x1="77.833" y1="363.528" x2="77.833" y2="388.218"/>
		<g>
			<path fill="#FFFFFF" stroke="#939598" stroke-miterlimit="10" d="M194.067,369.22c0-6.295-3.825-13.228-8.54-13.228
				s-8.522,6.933-8.522,13.228c0,6.299,3.808,9.573,8.522,9.573S194.067,375.517,194.067,369.22"/>
			<path fill="#FFFFFF" stroke="#939598" d="M194.067,369.22c0-6.295-3.825-13.228-8.54-13.228s-8.522,6.933-8.522,13.228
				c0,6.299,3.808,9.573,8.522,9.573S194.067,375.517,194.067,369.22z"/>
			<path fill="#FFFFFF" stroke="#939598" stroke-miterlimit="10" d="M180.416,376.729c0-0.354-0.29-0.643-0.643-0.643h-2.973
				c-0.354,0-0.643,0.289-0.643,0.643v0.108c0,0.353,0.289,0.642,0.643,0.642h2.973c0.353,0,0.643-0.289,0.643-0.642V376.729z"/>
			<path fill="#FFFFFF" stroke="#939598" d="M180.416,376.729c0-0.354-0.29-0.643-0.643-0.643h-2.973
				c-0.354,0-0.643,0.289-0.643,0.643v0.108c0,0.353,0.289,0.642,0.643,0.642h2.973c0.353,0,0.643-0.289,0.643-0.642V376.729z"/>
			<path fill="#FFFFFF" stroke="#939598" stroke-miterlimit="10" d="M175.707,377.497c-1.069,0-1.94,2.903-1.94,3.973
				c0,1.084,0.871,3.986,1.94,3.986h19.49c1.071,0,1.939-2.904,1.939-3.986c0-1.072-0.868-3.971-1.939-3.971L175.707,377.497z"/>
			<path fill="#FFFFFF" stroke="#939598" d="M175.707,377.497c-1.069,0-1.94,2.903-1.94,3.973c0,1.084,0.871,3.986,1.94,3.986h19.49
				c1.071,0,1.939-2.904,1.939-3.986c0-1.072-0.868-3.971-1.939-3.971L175.707,377.497z"/>
			<path fill="#FFFFFF" stroke="#939598" stroke-miterlimit="10" d="M191.805,368.957c0-4.627-2.811-9.725-6.277-9.725
				s-6.274,5.095-6.274,9.725c0,4.629,2.808,7.033,6.274,7.033S191.805,373.583,191.805,368.957"/>
			<path fill="#FFFFFF" stroke="#939598" d="M191.805,368.957c0-4.627-2.811-9.725-6.277-9.725s-6.274,5.095-6.274,9.725
				c0,4.629,2.808,7.033,6.274,7.033S191.805,373.583,191.805,368.957z"/>
		</g>
		<g>
			<g>
				<rect x="239.91" y="293.648" fill="#FFFFFF" stroke="#939598" width="33.331" height="64.465"/>
				<path fill="#FFFFFF" stroke="#939598" d="M256.577,325.883"/>
				<path fill="#FFFFFF" stroke="#939598" d="M256.577,326.104"/>
				<path fill="#FFFFFF" stroke="#939598" d="M256.577,347.962"/>
			</g>
			<circle fill="#FFFFFF" stroke="#939598" cx="256.733" cy="343.421" r="1.368"/>
			<path fill="#FFFFFF" stroke="#939598" d="M256.678,297.328c-9.553,0-13.051,2.205-13.051,5.294c0,0,0,46.332,0,47.09
				c0,0.755,0.206,2.316,2.203,2.316c2.002,0,10.848,0,10.848,0h0.023c0,0,8.849,0,10.848,0c1.997,0,2.203-1.559,2.203-2.316
				c0-0.757,0-47.058,0-47.058l-0.003-0.029C269.746,299.534,266.17,297.328,256.678,297.328z"/>
			<path fill="#FFFFFF" stroke="#939598" d="M253.868,354.424c0.003-0.774-0.62-1.395-1.405-1.395c-0.758,0-1.383,0.62-1.389,1.395
				c0.006,0.769,0.631,1.402,1.389,1.402C253.246,355.826,253.871,355.201,253.868,354.424z"/>
			<path fill="#FFFFFF" stroke="#939598" d="M262.532,354.424c0.008-0.774-0.629-1.395-1.397-1.395c-0.766,0-1.397,0.62-1.397,1.395
				c0,0.769,0.632,1.402,1.397,1.395C261.907,355.826,262.532,355.192,262.532,354.424z"/>
			<path fill="#FFFFFF" stroke="#939598" d="M254.853,354.837c0,1.145,0.773,2.072,1.921,2.075c1.144-0.003,1.769-0.929,1.769-2.075
				l-0.736-7.889c0-0.774-2.088-0.774-2.088,0L254.853,354.837z"/>
		</g>
		<g>
			<g>
				<g>
					<g>
						<rect x="245.089" y="249.246" fill="#FFFFFF" stroke="#939598" width="26.164" height="28.482"/>
						<path fill="#FFFFFF" stroke="#939598" d="M257.302,263.489"/>
						<polyline fill="#FFFFFF" stroke="#939598" points="252.896,254.848 248.915,254.848 247.988,258.287 247.988,268.822 
							248.915,272.307 252.896,272.307 						"/>
						<line fill="none" stroke="#939598" x1="252.896" y1="277.935" x2="252.896" y2="249.246"/>
						<path fill="#FFFFFF" stroke="#939598" d="M255.967,263.578"/>
					</g>
				</g>
			</g>
			<polygon fill="#FFFFFF" stroke="#939598" points="251.179,276.345 251.174,274.044 252.778,273.538 252.786,276.851 			"/>
		</g>
		<g>
			<g>
				<g>
					<polygon fill="none" stroke="#939598" stroke-width="0.7" points="67.342,350.878 69.107,351.847 61.757,363.971 
						59.991,363.002 					"/>
					<path fill="none" stroke="#939598" stroke-width="0.8" d="M63.208,358.405"/>
				</g>
				<path fill="none" stroke="#939598" stroke-width="0.8" d="M68.018,351.462c4.518,2.737,6.948,7.612,6.785,12.541"/>
			</g>
		</g>
		<g>
			<g>
				<g>
					<path fill="none" stroke="#939598" d="M221.377,373.124"/>
				</g>
				<g>
					<path fill="none" stroke="#939598" d="M221.377,374.623"/>
				</g>
				<g>
					<circle fill="none" stroke="#939598" cx="221.377" cy="373.124" r="1.435"/>
					<path fill="none" stroke="#939598" d="M221.377,373.124"/>
				</g>
				<g>
					<g>
						<rect x="215.359" y="382.119" fill="none" stroke="#939598" width="12.066" height="2.997"/>
						<path fill="none" stroke="#939598" d="M221.377,383.618"/>
					</g>
					<g>
						<rect x="220.738" y="376.299" fill="none" stroke="#939598" width="1.278" height="5.688"/>
						<path fill="none" stroke="#939598" d="M221.377,379.629"/>
					</g>
					<g>
						<circle fill="none" stroke="#939598" cx="221.377" cy="383.589" r="1.392"/>
						<path fill="none" stroke="#939598" d="M221.377,383.589"/>
					</g>
				</g>
			</g>
			<g>
				<rect x="209.347" y="366" fill="none" stroke="#939598" width="24.092" height="19.575"/>
				<rect x="211.312" y="367.968" fill="none" stroke="#939598" width="20.113" height="14.081"/>
			</g>
		</g>
		<g>
			<g>
				<path fill="#FFFFFF" stroke="#939598" d="M160.041,325.201c0,0.57-0.46,1.033-1.03,1.033h-18.021
					c-0.567,0-1.03-0.463-1.03-1.033v-30.568c0-0.568,0.463-1.031,1.03-1.031h18.021c0.57,0,1.03,0.463,1.03,1.031V325.201z"/>
				<path fill="#FFFFFF" stroke="#939598" d="M150.776,310.026"/>
			</g>
			<g>
				<circle fill="#FFFFFF" stroke="#939598" cx="149.556" cy="310.026" r="1.168"/>
				<path fill="#FFFFFF" stroke="#939598" d="M149.558,310.026"/>
			</g>
			<g>
				<g>
					<rect x="156.884" y="304.929" fill="#FFFFFF" stroke="#939598" width="2.438" height="10.197"/>
					<path fill="#FFFFFF" stroke="#939598" d="M158.104,310.026"/>
				</g>
				<g>
					<rect x="152.142" y="309.505" fill="#FFFFFF" stroke="#939598" width="4.805" height="1.042"/>
					<path fill="#FFFFFF" stroke="#939598" d="M154.854,310.026"/>
				</g>
				<g>
					<circle fill="#FFFFFF" stroke="#939598" cx="158.081" cy="310.027" r="1.135"/>
					<path fill="#FFFFFF" stroke="#939598" d="M158.079,310.026"/>
				</g>
			</g>
			<g>
				<path fill="#FFFFFF" stroke="#939598" d="M149.558,310.026"/>
				<path fill="none" stroke="#939598" d="M156.04,310.657v12.852c0,0.6-0.485,1.089-1.084,1.089h-12.36
					c-0.595,0-1.086-0.49-1.086-1.089v-27.181c0-0.602,0.491-1.089,1.086-1.089h12.36c0.599,0,1.084,0.487,1.084,1.089v13.032"/>
			</g>
		</g>
		<polyline fill="none" stroke="#939598" stroke-dasharray="1.5,1.5,1.5,1.5,1.5,1.5" points="148.826,338.954 148.826,289.445 
			163.287,289.445 		"/>
	</g>
	<g id="walls">
		<polyline fill="none" stroke="#939598" stroke-width="3" points="-47.636,-36.064 -3.967,-36.064 -3.967,-41.27 		"/>
		<polyline fill="none" stroke="#939598" stroke-width="3" points="150,-43.034 150,-36.822 102.278,-36.822 102.218,-40.514 		"/>
		<polyline fill="none" stroke="#939598" stroke-width="3" points="258.167,-42.531 258.167,-36.811 276.067,-36.811 
			276.067,75.274 283.915,75.274 		"/>
		<path fill="none" stroke="#939598" stroke-width="4" d="M135.07,234.701"/>
		<path fill="none" stroke="#939598" stroke-width="4" d="M135.07-33.361"/>
		<polyline fill="none" stroke="#939598" stroke-width="3" points="-3.194,276.321 9.503,276.321 9.503,245.636 -47.283,245.636 		
			"/>
		<line fill="none" stroke="#939598" stroke-width="3" x1="-45.167" y1="276.321" x2="-36.349" y2="276.321"/>
		<polyline fill="none" stroke="#939598" stroke-width="3" points="196.175,234.701 133.66,234.701 133.66,-35.477 		"/>
		<line fill="none" stroke="#939598" stroke-width="3" x1="274.392" y1="234.701" x2="229.442" y2="234.701"/>
		<line fill="none" stroke="#939598" stroke-width="3" x1="246.175" y1="223.414" x2="246.175" y2="233.996"/>
		<polyline fill="none" stroke="#939598" stroke-width="3" points="276.155,159.287 246.175,159.287 246.175,165.569 		"/>
		<polyline fill="none" stroke="#939598" stroke-width="3" points="167.167,165.569 167.167,159.36 133.325,159.071 		"/>
		<line fill="none" stroke="#939598" stroke-width="3" x1="167.167" y1="235.406" x2="167.167" y2="224.473"/>
		<polyline fill="none" stroke="#939598" stroke-width="3" points="241.218,389.895 241.218,359.915 275.45,359.915 		"/>
		<line fill="none" stroke="#939598" stroke-width="3" x1="212.139" y1="291.136" x2="274.392" y2="291.136"/>
		<polyline fill="none" stroke="#939598" stroke-width="3" points="164.698,389.895 164.698,291.136 178.982,291.136 		"/>
		<line fill="none" stroke="#939598" stroke-width="3" x1="240.148" y1="247.358" x2="240.179" y2="234.348"/>
		<line fill="none" stroke="#939598" stroke-width="3" x1="240.179" y1="291.136" x2="240.179" y2="278.166"/>
		<polyline fill="none" stroke="#939598" stroke-width="5" points="93.352,-43.832 100.914,-43.84 100.914,-47.822 151.061,-47.822 
			151.295,-43.84 283.772,-43.84 283.772,154.701 276.155,154.701 276.155,391.306 16.782,391.383 16.782,362.735 -0.992,362.735 
			-0.992,364.853 16.205,364.853 		"/>
		<polyline fill="none" stroke="#939598" stroke-width="5" points="-46.931,363.089 -39.683,363.089 -39.683,365.555 
			-46.787,365.412 -46.787,276.674 -46.787,-49.383 -2.822,-49.383 -2.541,-43.739 3.527,-43.745 		"/>
		<line fill="none" stroke="#939598" stroke-width="3" x1="168.578" y1="291.488" x2="168.578" y2="389.895"/>
		<g>
			<rect x="45.363" y="-43.457" fill="none" stroke="#939598" width="52.907" height="2.492"/>
			<rect x="-0.137" y="-46.382" fill="none" stroke="#939598" width="57.845" height="2.734"/>
		</g>
	</g>
	<g id="windows">
		<g>
			<rect x="281.107" y="78.701" fill="#FFFFFF" stroke="#939598" width="5.396" height="71.6"/>
			<line fill="none" stroke="#939598" x1="283.915" y1="78.701" x2="283.915" y2="151.359"/>
			<line fill="none" stroke="#939598" stroke-width="2" x1="286.933" y1="113.091" x2="281.113" y2="113.091"/>
		</g>
		<g>
			<g>
				<rect x="156.145" y="-46.324" fill="#FFFFFF" stroke="#939598" width="98.143" height="5.184"/>
				<line fill="none" stroke="#939598" x1="254.287" y1="-43.758" x2="155.086" y2="-43.758"/>
				<line fill="none" stroke="#939598" stroke-width="2" x1="222.298" y1="-40.917" x2="222.298" y2="-45.846"/>
			</g>
			<line fill="none" stroke="#939598" stroke-width="2" x1="189.3" y1="-40.741" x2="189.3" y2="-45.822"/>
		</g>
	</g>
	<g id="Type">
		<g enable-background="new    ">
			<path fill="#939598" d="M143.669,348.371h-2.401v-6.917h2.401c2.173,0,3.675,1.493,3.675,3.449
				C147.344,346.858,145.842,348.371,143.669,348.371z M143.669,342.176h-1.622v5.475h1.622c1.748,0,2.864-1.185,2.864-2.728
				C146.533,343.381,145.417,342.176,143.669,342.176z"/>
			<path fill="#939598" d="M152.824,341.434h0.643l1.898,5.782l1.976-5.762h0.82l-2.471,6.969h-0.663l-1.897-5.615l-1.906,5.615
				h-0.653l-2.472-6.969h0.852l1.976,5.762L152.824,341.434z"/>
		</g>
		<g enable-background="new    ">
			<path fill="#939598" d="M36.654,370.946l-2.006-2.688h-1.977v2.688h-0.78v-6.916h2.974c1.521,0,2.499,0.819,2.499,2.064
				c0,1.156-0.79,1.827-1.878,2.027l2.125,2.825L36.654,370.946L36.654,370.946z M34.806,364.75h-2.135v2.807h2.125
				c1.037,0,1.779-0.532,1.779-1.433C36.574,365.265,35.922,364.75,34.806,364.75z"/>
			<path fill="#939598" d="M41.056,370.403c0.701,0,1.196-0.286,1.611-0.724l0.475,0.426c-0.514,0.572-1.136,0.959-2.105,0.959
				c-1.404,0-2.549-1.079-2.549-2.668c0-1.483,1.037-2.669,2.451-2.669c1.51,0,2.381,1.205,2.381,2.707c0,0.07,0,0.149-0.01,0.237
				h-4.052C39.366,369.78,40.157,370.403,41.056,370.403z M42.548,368.11c-0.079-0.929-0.612-1.74-1.63-1.74
				c-0.889,0-1.561,0.742-1.661,1.74H42.548z"/>
			<path fill="#939598" d="M47.308,365.856v0.653h-1.611v4.438h-0.76v-4.438h-0.703v-0.663h0.703v-0.441
				c0-1.118,0.563-1.712,1.541-1.712c0.355,0,0.592,0.04,0.84,0.13v0.662c-0.277-0.079-0.484-0.129-0.742-0.129
				c-0.592,0-0.888,0.356-0.888,1.087v0.415h1.621V365.856z"/>
		</g>
		<g enable-background="new    ">
			<path fill="#939598" d="M201.794,332.505c0,1.168-0.711,1.767-1.408,2.07c1.053,0.316,1.904,0.928,1.904,2.159
				c0,1.536-1.283,2.44-3.227,2.44h-3.949v-8.893h3.786C200.651,330.282,201.794,331.146,201.794,332.505z M200.779,332.645
				c0-0.889-0.699-1.461-1.97-1.461h-2.706v3.061h2.629C199.94,334.244,200.779,333.699,200.779,332.645z M201.274,336.671
				c0-0.979-0.813-1.539-2.363-1.539h-2.808v3.139h2.984C200.436,338.271,201.274,337.674,201.274,336.671z"/>
			<path fill="#939598" d="M204.497,333.864l-0.292-0.799c0.725-0.33,1.436-0.549,2.388-0.549c1.792,0,2.792,0.915,2.792,2.643
				v4.016h-0.938v-0.992c-0.458,0.598-1.222,1.13-2.377,1.13c-1.221,0-2.452-0.684-2.452-2.056c0-1.397,1.145-2.136,2.808-2.136
				c0.838,0,1.437,0.115,2.021,0.279v-0.229c0-1.181-0.727-1.791-1.958-1.791C205.718,333.381,205.106,333.585,204.497,333.864z
				 M204.613,337.217c0,0.839,0.76,1.321,1.649,1.321c1.206,0,2.197-0.735,2.197-1.777v-0.634c-0.482-0.142-1.131-0.28-1.93-0.28
				C205.298,335.846,204.613,336.379,204.613,337.217z"/>
			<path fill="#939598" d="M212.728,337.307c0,0.799,0.442,1.091,1.105,1.091c0.329,0,0.609-0.063,0.95-0.229v0.837
				c-0.341,0.18-0.711,0.28-1.18,0.28c-1.055,0-1.854-0.52-1.854-1.853v-3.963h-0.914v-0.866h0.914v-1.979h0.979v1.979h2.083v0.866
				h-2.083V337.307z"/>
			<path fill="#939598" d="M217.514,339.175h-0.978v-9.273h0.978v3.851c0.433-0.713,1.118-1.284,2.249-1.284
				c1.587,0,2.514,1.068,2.514,2.63v4.077h-0.976v-3.836c0-1.219-0.662-1.981-1.819-1.981c-1.129,0-1.968,0.826-1.968,2.059V339.175
				z"/>
		</g>
		<g enable-background="new    ">
			<path fill="#939598" d="M-27.088,363.095h-4.219v2.361h3.773v0.714h-3.773v2.42h4.269v0.711h-5.05v-6.916h5V363.095z"/>
			<path fill="#939598" d="M-24.837,369.3h-0.761v-5.109h0.761v0.891c0.335-0.555,0.868-0.999,1.749-0.999
				c1.235,0,1.957,0.831,1.957,2.047v3.171h-0.762v-2.984c0-0.947-0.514-1.542-1.412-1.542c-0.879,0-1.531,0.643-1.531,1.601
				L-24.837,369.3L-24.837,369.3z"/>
			<path fill="#939598" d="M-18.487,367.848c0,0.622,0.346,0.852,0.859,0.852c0.257,0,0.474-0.05,0.741-0.181v0.654
				c-0.267,0.139-0.554,0.216-0.918,0.216c-0.821,0-1.442-0.405-1.442-1.442v-3.083h-0.711v-0.673h0.711v-1.541h0.761v1.541h1.621
				v0.673h-1.621V367.848z"/>
			<path fill="#939598" d="M-14.765,369.3h-0.76v-5.109h0.76v1.334c0.375-0.85,1.117-1.462,2.085-1.423v0.82h-0.06
				c-1.116,0-2.026,0.8-2.026,2.342V369.3z"/>
			<path fill="#939598" d="M-9.037,369.468c-0.434,1.057-0.928,1.441-1.7,1.441c-0.424,0-0.741-0.089-1.088-0.257l0.257-0.604
				c0.247,0.129,0.474,0.188,0.8,0.188c0.454,0,0.741-0.236,1.047-0.959l-2.322-5.088h0.84l1.858,4.259l1.641-4.259h0.81
				L-9.037,369.468z"/>
		</g>
		<g enable-background="new    ">
			<path fill="#939598" d="M191.557,54.83c0,1.167-0.711,1.767-1.408,2.071c1.053,0.317,1.905,0.927,1.905,2.159
				c0,1.536-1.282,2.439-3.227,2.439h-3.948v-8.892h3.784C190.414,52.606,191.557,53.471,191.557,54.83z M190.542,54.97
				c0-0.891-0.699-1.461-1.97-1.461h-2.706v3.061h2.629C189.703,56.57,190.542,56.024,190.542,54.97z M191.036,58.996
				c0-0.978-0.812-1.538-2.361-1.538h-2.809v3.138h2.984C190.198,60.597,191.036,60,191.036,58.996z"/>
			<path fill="#939598" d="M196.776,60.8c0.9,0,1.537-0.369,2.068-0.927l0.612,0.546c-0.661,0.737-1.462,1.234-2.706,1.234
				c-1.804,0-3.276-1.384-3.276-3.43c0-1.906,1.334-3.432,3.149-3.432c1.943,0,3.062,1.551,3.062,3.481c0,0.089,0,0.191-0.014,0.306
				h-5.207C194.604,60,195.618,60.8,196.776,60.8z M198.693,57.853c-0.102-1.194-0.788-2.235-2.097-2.235
				c-1.143,0-2.007,0.952-2.133,2.235H198.693z"/>
			<path fill="#939598" d="M206.669,61.498v-1.321c-0.535,0.787-1.31,1.459-2.517,1.459c-1.574,0-3.136-1.244-3.136-3.416
				c0-2.159,1.56-3.431,3.136-3.431c1.221,0,2.008,0.662,2.517,1.399v-3.965h0.977v9.272h-0.977V61.498z M204.329,55.668
				c-1.27,0-2.312,0.939-2.312,2.54c0,1.562,1.069,2.553,2.312,2.553c1.221,0,2.376-1.016,2.376-2.553
				C206.705,56.685,205.55,55.668,204.329,55.668z"/>
			<path fill="#939598" d="M210.805,61.498h-0.976v-6.566h0.976v1.714c0.483-1.091,1.436-1.88,2.681-1.829v1.054h-0.078
				c-1.435,0-2.604,1.029-2.604,3.011L210.805,61.498L210.805,61.498z"/>
			<path fill="#939598" d="M217.688,61.652c-1.968,0-3.403-1.551-3.403-3.418s1.447-3.443,3.431-3.443
				c1.97,0,3.414,1.551,3.414,3.418C221.129,60.076,219.669,61.652,217.688,61.652z M217.688,55.656c-1.422,0-2.4,1.131-2.4,2.554
				s1.042,2.566,2.428,2.566c1.423,0,2.411-1.132,2.411-2.541C220.126,56.798,219.074,55.656,217.688,55.656z"/>
			<path fill="#939598" d="M225.892,61.652c-1.971,0-3.403-1.551-3.403-3.418s1.444-3.443,3.428-3.443
				c1.971,0,3.417,1.551,3.417,3.418C229.333,60.076,227.872,61.652,225.892,61.652z M225.892,55.656c-1.423,0-2.4,1.131-2.4,2.554
				s1.041,2.566,2.425,2.566c1.423,0,2.414-1.132,2.414-2.541C228.33,56.798,227.275,55.656,225.892,55.656z"/>
			<path fill="#939598" d="M238.616,54.79c1.51,0,2.438,1.018,2.438,2.644v4.064h-0.977v-3.836c0-1.271-0.636-1.981-1.703-1.981
				c-0.99,0-1.815,0.735-1.815,2.032v3.785h-0.967v-3.861c0-1.233-0.647-1.956-1.688-1.956c-1.042,0-1.83,0.863-1.83,2.07v3.747
				h-0.977v-6.566h0.977v1.105c0.433-0.647,1.018-1.247,2.122-1.247c1.068,0,1.753,0.572,2.108,1.31
				C236.772,55.376,237.473,54.79,238.616,54.79z"/>
		</g>
		<g enable-background="new    ">
			<path fill="#939598" d="M176.167,68.064h0.734v8.955h-0.99v-7.913l-1.676,0.521l-0.243-0.813L176.167,68.064z"/>
			<path fill="#939598" d="M182.718,77.171c-2.3,0-3.746-2.083-3.746-4.585s1.475-4.612,3.772-4.612
				c2.287,0,3.734,2.083,3.734,4.584C186.479,75.061,185.004,77.171,182.718,77.171z M182.718,68.89
				c-1.663,0-2.704,1.702-2.704,3.67c0,1.97,1.066,3.697,2.73,3.697s2.692-1.716,2.692-3.671
				C185.437,70.628,184.384,68.89,182.718,68.89z"/>
			<path fill="#939598" d="M188.471,68.126h1.192v0.063l-1.027,3.391h-0.549L188.471,68.126z"/>
			<path fill="#939598" d="M191.237,68.126h6.034v0.75l-4.039,8.142h-1.119l4.015-7.976h-4.891V68.126L191.237,68.126z"/>
			<path fill="#939598" d="M199.148,68.126h1.179v0.063L199.3,71.58h-0.533L199.148,68.126z M201.637,68.126h1.17v0.063
				l-1.029,3.391h-0.533L201.637,68.126z"/>
			<path fill="#939598" d="M214.133,77.018h-1.13l-2.033-2.68l-2.043,2.68h-1.09l2.576-3.341l-2.476-3.225h1.115l1.944,2.541
				l1.944-2.541h1.091l-2.489,3.201L214.133,77.018z"/>
			<path fill="#939598" d="M220.961,68.064h0.737v8.955h-0.99v-7.913l-1.677,0.521l-0.244-0.813L220.961,68.064z"/>
			<path fill="#939598" d="M224.491,68.126h5.12v0.928h-4.244l-0.189,2.845c0.519-0.228,1.017-0.394,1.751-0.394
				c1.729,0,3.077,1.028,3.077,2.731c0,1.752-1.324,2.935-3.178,2.935c-1.269,0-2.376-0.611-3.175-1.411l0.662-0.724
				c0.773,0.75,1.625,1.219,2.526,1.219c1.269,0,2.145-0.839,2.145-1.981c0-1.118-0.9-1.881-2.208-1.881
				c-0.75,0-1.348,0.229-1.867,0.509l-0.674-0.445L224.491,68.126z"/>
			<path fill="#939598" d="M231.959,68.126h1.193v0.063l-1.027,3.391h-0.549L231.959,68.126z"/>
			<path fill="#939598" d="M238.396,77.171c-2.298,0-3.744-2.083-3.744-4.585s1.472-4.612,3.772-4.612
				c2.284,0,3.733,2.083,3.733,4.584C242.157,75.061,240.683,77.171,238.396,77.171z M238.396,68.89
				c-1.663,0-2.704,1.702-2.704,3.67c0,1.97,1.067,3.697,2.732,3.697c1.663,0,2.691-1.716,2.691-3.671
				C241.115,70.628,240.06,68.89,238.396,68.89z"/>
			<path fill="#939598" d="M244.148,68.126h1.181v0.063l-1.028,3.391h-0.534L244.148,68.126z M246.638,68.126h1.168v0.063
				l-1.027,3.391h-0.533L246.638,68.126z"/>
		</g>
		<g enable-background="new    ">
			<path fill="#939598" d="M-16.364,100.575h1.003v7.965h5.004v0.927h-6.007V100.575z"/>
			<path fill="#939598" d="M-8.644,101.464v-1.079h1.118v1.079H-8.644z M-8.581,109.467V102.9h0.978v6.566H-8.581z"/>
			<path fill="#939598" d="M-0.465,102.9h1.054l-2.857,6.617h-0.864l-2.846-6.617h1.081l2.209,5.45L-0.465,102.9z"/>
			<path fill="#939598" d="M2.149,101.464v-1.079h1.117v1.079H2.149z M2.212,109.467V102.9H3.19v6.566H2.212z"/>
			<path fill="#939598" d="M6.441,109.467H5.463V102.9h0.978v1.145c0.432-0.712,1.117-1.284,2.249-1.284
				c1.587,0,2.514,1.068,2.514,2.629v4.078h-0.978v-3.837c0-1.219-0.661-1.979-1.817-1.979c-1.13,0-1.969,0.824-1.969,2.056v3.759
				H6.441z"/>
			<path fill="#939598" d="M16.192,111.524c-1.092,0-2.109-0.305-2.985-0.914l0.444-0.761c0.75,0.546,1.587,0.838,2.528,0.838
				c1.447,0,2.389-0.8,2.389-2.336v-0.777c-0.572,0.764-1.373,1.385-2.579,1.385c-1.575,0-3.087-1.168-3.087-3.087
				c0-1.93,1.523-3.112,3.087-3.112c1.231,0,2.031,0.61,2.564,1.321V102.9h0.978v5.424
				C19.533,110.446,18.211,111.524,16.192,111.524z M16.18,103.625c-1.244,0-2.273,0.852-2.273,2.223
				c0,1.347,1.054,2.248,2.273,2.248c1.245,0,2.414-0.889,2.414-2.234C18.593,104.501,17.424,103.625,16.18,103.625z"/>
			<path fill="#939598" d="M27.152,99.332l-5.894,11.762h-0.903l5.893-11.762H27.152z"/>
			<path fill="#939598" d="M31.417,109.467H28.33v-8.892h3.087c2.793,0,4.725,1.918,4.725,4.434S34.212,109.467,31.417,109.467z
				 M31.417,101.504h-2.083v7.036h2.083c2.248,0,3.684-1.524,3.684-3.505S33.665,101.504,31.417,101.504z"/>
			<path fill="#939598" d="M38.122,101.464v-1.079h1.117v1.079H38.122z M38.185,109.467V102.9h0.978v6.566H38.185z"/>
			<path fill="#939598" d="M42.412,109.467h-0.979V102.9h0.979v1.145c0.431-0.712,1.117-1.284,2.249-1.284
				c1.587,0,2.514,1.068,2.514,2.629v4.078h-0.978v-3.837c0-1.219-0.66-1.979-1.816-1.979c-1.131,0-1.97,0.824-1.97,2.056v3.759
				H42.412z"/>
			<path fill="#939598" d="M49.281,101.464v-1.079h1.117v1.079H49.281z M49.345,109.467V102.9h0.978v6.566H49.345z"/>
			<path fill="#939598" d="M53.573,109.467h-0.978V102.9h0.978v1.145c0.432-0.712,1.117-1.284,2.249-1.284
				c1.587,0,2.514,1.068,2.514,2.629v4.078h-0.978v-3.837c0-1.219-0.66-1.979-1.817-1.979c-1.13,0-1.969,0.824-1.969,2.056
				L53.573,109.467L53.573,109.467z"/>
			<path fill="#939598" d="M63.326,111.524c-1.092,0-2.109-0.305-2.985-0.914l0.444-0.761c0.749,0.546,1.587,0.838,2.528,0.838
				c1.447,0,2.389-0.8,2.389-2.336v-0.777c-0.571,0.764-1.373,1.385-2.579,1.385c-1.574,0-3.087-1.168-3.087-3.087
				c0-1.93,1.525-3.112,3.087-3.112c1.231,0,2.031,0.61,2.565,1.321V102.9h0.978v5.424
				C66.667,110.446,65.345,111.524,63.326,111.524z M63.313,103.625c-1.245,0-2.273,0.852-2.273,2.223
				c0,1.347,1.054,2.248,2.273,2.248c1.245,0,2.413-0.889,2.413-2.234C65.726,104.501,64.558,103.625,63.313,103.625z"/>
			<path fill="#939598" d="M78.944,109.467l-2.579-3.455h-2.54v3.455h-1.003v-8.892h3.824c1.956,0,3.214,1.054,3.214,2.655
				c0,1.486-1.016,2.349-2.412,2.604l2.731,3.633H78.944z M76.57,101.504h-2.743v3.607h2.731c1.333,0,2.287-0.686,2.287-1.842
				C78.843,102.163,78.005,101.504,76.57,101.504z"/>
			<path fill="#939598" d="M84.709,109.621c-1.97,0-3.405-1.551-3.405-3.418c0-1.866,1.448-3.442,3.43-3.442
				c1.969,0,3.416,1.55,3.416,3.417C88.15,108.045,86.69,109.621,84.709,109.621z M84.709,103.625c-1.423,0-2.402,1.131-2.402,2.554
				s1.041,2.566,2.427,2.566c1.422,0,2.413-1.133,2.413-2.542C87.147,104.768,86.093,103.625,84.709,103.625z"/>
			<path fill="#939598" d="M92.912,109.621c-1.97,0-3.405-1.551-3.405-3.418c0-1.866,1.447-3.442,3.43-3.442
				c1.97,0,3.416,1.55,3.416,3.417C96.353,108.045,94.893,109.621,92.912,109.621z M92.912,103.625
				c-1.422,0-2.402,1.131-2.402,2.554s1.042,2.566,2.427,2.566c1.422,0,2.413-1.133,2.413-2.542
				C95.35,104.768,94.296,103.625,92.912,103.625z"/>
			<path fill="#939598" d="M105.637,102.76c1.511,0,2.439,1.018,2.439,2.643v4.064h-0.979v-3.836c0-1.27-0.634-1.981-1.702-1.981
				c-0.991,0-1.816,0.736-1.816,2.032v3.785h-0.967v-3.86c0-1.233-0.647-1.957-1.689-1.957c-1.041,0-1.828,0.864-1.828,2.07v3.747
				h-0.978V102.9h0.978v1.105c0.432-0.648,1.016-1.246,2.12-1.246c1.067,0,1.754,0.571,2.109,1.31
				C103.794,103.345,104.492,102.76,105.637,102.76z"/>
		</g>
		<g enable-background="new    ">
			<path fill="#939598" d="M9.019,116.033h0.736v8.955H8.764v-7.913l-1.676,0.521l-0.241-0.813L9.019,116.033z"/>
			<path fill="#939598" d="M12.142,116.997v-0.902h5.677v0.737l-2.795,3.099c1.562,0.126,2.935,0.875,2.935,2.514
				c0,1.602-1.321,2.693-2.971,2.693c-1.486,0-2.59-0.649-3.316-1.589l0.725-0.647c0.685,0.839,1.51,1.321,2.602,1.321
				c1.081,0,1.943-0.686,1.943-1.739c0-1.117-1.015-1.728-2.489-1.728h-0.571l-0.203-0.598l2.808-3.162L12.142,116.997
				L12.142,116.997z"/>
			<path fill="#939598" d="M20.027,116.095h1.194v0.063l-1.028,3.392h-0.546L20.027,116.095z"/>
			<path fill="#939598" d="M24.459,116.033h0.736v8.955h-0.991v-7.913l-1.676,0.521l-0.241-0.813L24.459,116.033z"/>
			<path fill="#939598" d="M31.011,125.141c-2.298,0-3.748-2.085-3.748-4.586s1.473-4.612,3.773-4.612
				c2.287,0,3.734,2.084,3.734,4.586C34.771,123.029,33.298,125.141,31.011,125.141z M31.011,116.858
				c-1.664,0-2.705,1.701-2.705,3.671s1.066,3.697,2.731,3.697c1.665,0,2.693-1.717,2.693-3.672
				C33.729,118.598,32.674,116.858,31.011,116.858z"/>
			<path fill="#939598" d="M36.763,116.095h1.181v0.063l-1.028,3.392h-0.534L36.763,116.095z M39.251,116.095h1.17v0.063
				l-1.028,3.392h-0.533L39.251,116.095z"/>
			<path fill="#939598" d="M51.746,124.986h-1.13l-2.032-2.68l-2.044,2.68h-1.092l2.579-3.341l-2.476-3.226h1.117l1.943,2.541
				l1.943-2.541h1.092l-2.491,3.201L51.746,124.986z"/>
			<path fill="#939598" d="M57.56,118.394l-0.737-0.533c0.8-1.194,1.639-1.893,3.202-1.893c1.613,0,2.757,1.066,2.757,2.527
				c0,1.31-0.686,2.108-2.249,3.468l-2.375,2.107h4.712v0.915H56.66v-0.775l3.227-2.846c1.359-1.219,1.854-1.905,1.854-2.794
				c0-1.04-0.825-1.702-1.792-1.702C58.932,116.87,58.271,117.403,57.56,118.394z"/>
			<path fill="#939598" d="M66.182,116.033h0.736v8.955h-0.99v-7.913l-1.676,0.521l-0.241-0.813L66.182,116.033z"/>
			<path fill="#939598" d="M69.407,116.095h1.194v0.063l-1.028,3.392h-0.546L69.407,116.095z"/>
			<path fill="#939598" d="M75.057,125.141c-1.155,0-1.994-0.47-2.743-1.093l0.584-0.775c0.724,0.635,1.396,0.954,2.184,0.954
				c1.6,0,2.679-1.626,2.643-3.9c-0.482,0.774-1.282,1.422-2.516,1.422c-1.829,0-3.098-1.155-3.098-2.768
				c0-1.703,1.308-3.036,3.201-3.036c1.016,0,1.765,0.344,2.337,0.914c0.698,0.699,1.104,1.665,1.104,3.455
				C78.754,123.146,77.255,125.141,75.057,125.141z M75.275,116.833c-1.333,0-2.135,0.977-2.135,2.095
				c0,1.144,0.889,1.956,2.184,1.956c1.359,0,2.21-0.991,2.21-2.02C77.535,117.722,76.606,116.833,75.275,116.833z"/>
			<path fill="#939598" d="M80.733,116.095h1.182v0.063l-1.029,3.392h-0.533L80.733,116.095z M83.222,116.095h1.17v0.063
				l-1.029,3.392H82.83L83.222,116.095z"/>
		</g>
		<g enable-background="new    ">
			<path fill="#939598" d="M162.904,205.371c0,1.996-1.571,3.468-3.565,3.468c-1.977,0-3.589-1.461-3.589-3.497
				c0-1.257,0.444-2.006,1.098-2.697l0.573,0.533c-0.555,0.583-0.951,1.235-0.951,2.172c0,1.533,1.237,2.679,2.848,2.679
				c1.611,0,2.866-1.157,2.866-2.679c0-0.947-0.368-1.57-0.999-2.231l0.504-0.514C162.42,203.325,162.904,204.116,162.904,205.371z"
				/>
			<path fill="#939598" d="M162.786,201.304h-7.212v-0.761h7.212V201.304z"/>
			<path fill="#939598" d="M162.904,196.444c0,1.531-1.204,2.647-2.657,2.647c-1.454,0-2.678-1.126-2.678-2.667
				c0-1.532,1.204-2.659,2.656-2.659C161.68,193.766,162.904,194.902,162.904,196.444z M158.239,196.444
				c0,1.106,0.879,1.866,1.986,1.866s1.995-0.808,1.995-1.886c0-1.108-0.879-1.88-1.974-1.88
				C159.129,194.545,158.239,195.367,158.239,196.444z"/>
			<path fill="#939598" d="M162.885,190.707c0,0.73-0.286,1.541-0.75,2.113l-0.545-0.386c0.414-0.553,0.653-1.165,0.653-1.77
				c0-0.611-0.316-1.056-0.812-1.056h-0.021c-0.513,0-0.711,0.602-0.898,1.274c-0.227,0.802-0.504,1.688-1.443,1.688h-0.021
				c-0.879,0-1.46-0.731-1.46-1.738c0-0.623,0.215-1.314,0.561-1.838l0.573,0.347c-0.307,0.475-0.494,1.018-0.494,1.511
				c0,0.604,0.316,0.987,0.74,0.987h0.02c0.485,0,0.674-0.632,0.88-1.315c0.236-0.791,0.545-1.639,1.463-1.639h0.02
				C162.321,188.889,162.885,189.688,162.885,190.707z"/>
			<path fill="#939598" d="M162.243,185.227c0-0.703-0.287-1.198-0.723-1.612l0.425-0.475c0.573,0.513,0.959,1.136,0.959,2.106
				c0,1.401-1.077,2.548-2.668,2.548c-1.482,0-2.67-1.039-2.67-2.449c0-1.512,1.206-2.382,2.709-2.382c0.069,0,0.147,0,0.237,0.011
				v4.051C161.62,186.915,162.243,186.124,162.243,185.227z M159.95,183.732c-0.929,0.08-1.74,0.611-1.74,1.631
				c0,0.89,0.741,1.56,1.74,1.659V183.732z"/>
			<path fill="#939598" d="M161.333,180.604c0.623,0,0.852-0.346,0.852-0.859c0-0.258-0.049-0.476-0.179-0.74h0.653
				c0.138,0.265,0.217,0.553,0.217,0.918c0,0.819-0.407,1.442-1.443,1.442h-3.083v0.712h-0.673v-0.712h-1.542v-0.761h1.542v-1.622
				h0.673v1.622H161.333z"/>
		</g>
		<g enable-background="new    ">
			<path fill="#939598" d="M-2.125,322.007h-1.257l-3.417-4.306l-1.892,1.917v2.389h-1.005v-8.892h1.003v5.31l5.106-5.31h1.295
				l-3.811,3.887L-2.125,322.007z"/>
			<path fill="#939598" d="M-0.705,314.005v-1.078h1.118v1.078H-0.705z M-0.642,322.007v-6.565h0.978v6.565H-0.642z"/>
			<path fill="#939598" d="M3.929,320.14c0,0.8,0.445,1.092,1.104,1.092c0.33,0,0.61-0.063,0.952-0.229v0.84
				c-0.342,0.176-0.71,0.277-1.181,0.277c-1.054,0-1.854-0.521-1.854-1.854v-3.962H2.037v-0.862h0.915v-1.982h0.978v1.982h2.084
				v0.862H3.929V320.14z"/>
			<path fill="#939598" d="M10.509,322.16c-1.917,0-3.366-1.561-3.366-3.417c0-1.866,1.448-3.442,3.366-3.442
				c1.245,0,2.02,0.521,2.629,1.169l-0.647,0.685c-0.521-0.545-1.105-0.99-1.995-0.99c-1.333,0-2.351,1.132-2.351,2.553
				c0,1.438,1.041,2.567,2.413,2.567c0.838,0,1.486-0.42,2.006-0.977l0.622,0.584C12.529,321.626,11.741,322.16,10.509,322.16z"/>
			<path fill="#939598" d="M15.778,322.007H14.8v-9.272h0.978v3.852c0.432-0.713,1.118-1.284,2.249-1.284
				c1.587,0,2.514,1.067,2.514,2.63v4.079h-0.978v-3.838c0-1.22-0.66-1.979-1.817-1.979c-1.13,0-1.97,0.823-1.97,2.056v3.758H15.778
				z"/>
			<path fill="#939598" d="M25.517,321.311c0.901,0,1.536-0.37,2.071-0.929l0.609,0.547c-0.66,0.737-1.462,1.233-2.706,1.233
				c-1.803,0-3.275-1.384-3.275-3.431c0-1.906,1.333-3.431,3.149-3.431c1.942,0,3.062,1.551,3.062,3.479c0,0.09,0,0.192-0.013,0.307
				h-5.208C23.346,320.508,24.361,321.311,25.517,321.311z M27.434,318.361c-0.102-1.192-0.788-2.234-2.095-2.234
				c-1.143,0-2.006,0.953-2.133,2.234H27.434z"/>
			<path fill="#939598" d="M31.116,322.007h-0.978v-6.565h0.978v1.145c0.432-0.713,1.117-1.284,2.249-1.284
				c1.587,0,2.514,1.067,2.514,2.63v4.079h-0.978v-3.838c0-1.22-0.66-1.979-1.817-1.979c-1.13,0-1.97,0.823-1.97,2.056v3.758H31.116
				z"/>
		</g>
		<g enable-background="new    ">
			<path fill="#939598" d="M-29.526,271.717c-1.997,0-3.468-1.57-3.468-3.567c0-1.976,1.463-3.586,3.497-3.586
				c1.256,0,2.006,0.442,2.698,1.097l-0.533,0.572c-0.583-0.555-1.235-0.948-2.174-0.948c-1.532,0-2.678,1.233-2.678,2.846
				c0,1.611,1.155,2.866,2.678,2.866c0.948,0,1.57-0.366,2.233-1l0.513,0.504C-27.48,271.233-28.271,271.717-29.526,271.717z"/>
			<path fill="#939598" d="M-25.458,271.599v-7.213h0.76v7.213H-25.458z"/>
			<path fill="#939598" d="M-20.598,271.717c-1.532,0-2.648-1.205-2.648-2.657c0-1.454,1.125-2.679,2.668-2.679
				c1.532,0,2.657,1.204,2.657,2.657C-17.921,270.492-19.058,271.717-20.598,271.717z M-20.598,267.053
				c-1.108,0-1.868,0.879-1.868,1.985c0,1.108,0.81,1.997,1.886,1.997c1.107,0,1.877-0.879,1.877-1.976
				C-18.701,267.94-19.521,267.053-20.598,267.053z"/>
			<path fill="#939598" d="M-14.862,271.699c-0.731,0-1.541-0.287-2.115-0.752l0.385-0.544c0.553,0.413,1.167,0.653,1.769,0.653
				c0.612,0,1.058-0.317,1.058-0.812v-0.021c0-0.513-0.602-0.711-1.275-0.899c-0.8-0.226-1.69-0.503-1.69-1.443v-0.019
				c0-0.879,0.732-1.461,1.739-1.461c0.622,0,1.315,0.215,1.838,0.562l-0.345,0.571c-0.475-0.306-1.019-0.493-1.513-0.493
				c-0.602,0-0.987,0.316-0.987,0.741v0.02c0,0.485,0.632,0.672,1.315,0.879c0.79,0.237,1.641,0.546,1.641,1.463v0.02
				C-13.043,271.134-13.843,271.699-14.862,271.699z"/>
			<path fill="#939598" d="M-9.379,271.055c0.701,0,1.196-0.287,1.61-0.723l0.475,0.424c-0.514,0.573-1.136,0.961-2.105,0.961
				c-1.404,0-2.55-1.079-2.55-2.669c0-1.482,1.038-2.669,2.451-2.669c1.511,0,2.381,1.206,2.381,2.708c0,0.069,0,0.148-0.01,0.236
				h-4.052C-11.069,270.433-10.279,271.055-9.379,271.055z M-7.888,268.761c-0.079-0.927-0.612-1.738-1.63-1.738
				c-0.889,0-1.561,0.741-1.661,1.738H-7.888z"/>
			<path fill="#939598" d="M-4.759,270.146c0,0.621,0.346,0.85,0.859,0.85c0.257,0,0.474-0.049,0.74-0.18v0.654
				c-0.267,0.139-0.552,0.217-0.918,0.217c-0.82,0-1.442-0.404-1.442-1.442v-3.082H-6.23v-0.674h0.711v-1.541h0.76v1.541h1.621
				v0.674h-1.621V270.146z"/>
		</g>
		<g enable-background="new    ">
			<path fill="#939598" d="M62.608,302.503l4.891,4.889l-0.553,0.554l-4.89-4.891L62.608,302.503z"/>
			<path fill="#939598" d="M70.105,304.929c-0.517,0.516-1.292,0.887-2.027,0.964l-0.111-0.656c0.684-0.099,1.285-0.363,1.712-0.79
				c0.433-0.434,0.523-0.972,0.173-1.323l-0.014-0.014c-0.364-0.363-0.929-0.076-1.538,0.265c-0.726,0.405-1.551,0.84-2.215,0.174
				l-0.014-0.014c-0.619-0.62-0.515-1.552,0.199-2.263c0.44-0.44,1.082-0.778,1.696-0.904l0.161,0.649
				c-0.553,0.12-1.07,0.373-1.419,0.724c-0.426,0.425-0.474,0.919-0.174,1.221l0.015,0.014c0.341,0.342,0.922,0.03,1.552-0.308
				c0.725-0.39,1.543-0.777,2.193-0.126l0.014,0.015C70.993,303.245,70.825,304.209,70.105,304.929z"/>
			<path fill="#939598" d="M72.366,302.525l-5.099-5.099l0.539-0.539l5.099,5.101L72.366,302.525z"/>
			<path fill="#939598" d="M71.442,297.607l-0.6-0.279c0.216-0.578,0.491-1.087,1.014-1.613c0.985-0.985,2.039-1.034,2.99-0.084
				l2.207,2.206l-0.516,0.518l-0.545-0.544c0.078,0.579-0.049,1.289-0.684,1.927c-0.671,0.672-1.727,0.973-2.482,0.217
				c-0.769-0.769-0.544-1.802,0.373-2.72c0.46-0.46,0.852-0.727,1.264-0.956l-0.125-0.127c-0.651-0.65-1.383-0.587-2.061,0.092
				C71.849,296.672,71.625,297.119,71.442,297.607z M73.35,299.39c0.461,0.463,1.146,0.309,1.635-0.183
				c0.663-0.663,0.801-1.614,0.229-2.186l-0.349-0.35c-0.342,0.188-0.776,0.469-1.214,0.908
				C72.974,298.26,72.89,298.93,73.35,299.39z"/>
			<path fill="#939598" d="M78.736,296.157l-0.54,0.537l-3.613-3.613l0.54-0.537l0.628,0.629c-0.153-0.629-0.09-1.323,0.531-1.942
				c0.874-0.873,1.97-0.797,2.83,0.063l2.243,2.241l-0.538,0.539l-2.11-2.109c-0.67-0.671-1.452-0.728-2.088-0.09
				c-0.621,0.62-0.627,1.536,0.049,2.213L78.736,296.157z"/>
			<path fill="#939598" d="M85.397,289.494l-0.727-0.728c0.142,0.728,0.085,1.523-0.579,2.188c-0.867,0.866-2.41,1.042-3.606-0.153
				c-1.188-1.188-1.027-2.745-0.16-3.613c0.67-0.669,1.465-0.737,2.15-0.613l-2.178-2.181l0.537-0.537l5.1,5.099L85.397,289.494z
				 M80.905,287.574c-0.696,0.696-0.753,1.788,0.127,2.667c0.859,0.859,1.99,0.818,2.675,0.133c0.671-0.67,0.746-1.863-0.1-2.709
				C82.771,286.826,81.577,286.901,80.905,287.574z"/>
		</g>
		<g enable-background="new    ">
			<path fill="#939598" d="M15.075-63.615c-1.037,0-1.7-0.513-2.135-1.226l0.562-0.484c0.425,0.642,0.859,0.987,1.582,0.987
				c0.781,0,1.353-0.562,1.353-1.66v-4.634h0.792v4.624C17.229-64.416,16.31-63.615,15.075-63.615z"/>
			<path fill="#939598" d="M22.572-68.824h0.75v5.109h-0.75v-0.889c-0.346,0.553-0.871,0.997-1.75,0.997
				c-1.234,0-1.957-0.831-1.957-2.045v-3.172h0.761v2.984c0,0.95,0.513,1.542,1.412,1.542c0.87,0,1.532-0.642,1.532-1.602
				L22.572-68.824L22.572-68.824z"/>
			<path fill="#939598" d="M25.098-63.715v-7.213h0.76v7.213H25.098z"/>
			<path fill="#939598" d="M27.646-69.94v-0.841h0.871v0.841H27.646z M27.695-63.715v-5.109h0.76v5.109H27.695z"/>
			<path fill="#939598" d="M32.477-64.258c0.702,0,1.196-0.287,1.611-0.723l0.474,0.425c-0.514,0.572-1.136,0.96-2.105,0.96
				c-1.404,0-2.55-1.079-2.55-2.668c0-1.483,1.038-2.669,2.451-2.669c1.511,0,2.381,1.205,2.381,2.707c0,0.07,0,0.148-0.01,0.237
				h-4.052C30.786-64.881,31.577-64.258,32.477-64.258z M33.968-66.551c-0.079-0.928-0.612-1.739-1.631-1.739
				c-0.889,0-1.56,0.74-1.661,1.739H33.968z"/>
			<path fill="#939598" d="M37.097-65.167c0,0.622,0.346,0.851,0.859,0.851c0.256,0,0.474-0.05,0.74-0.179v0.653
				c-0.267,0.138-0.552,0.218-0.918,0.218c-0.821,0-1.442-0.407-1.442-1.443v-3.083h-0.711v-0.673h0.711v-1.542h0.76v1.542h1.621
				v0.673h-1.621V-65.167z"/>
			<path fill="#939598" d="M48.349-68.903c0,0.91-0.553,1.374-1.097,1.611c0.82,0.247,1.482,0.72,1.482,1.678
				c0,1.197-0.998,1.898-2.51,1.898h-3.072v-6.917h2.944C47.458-70.632,48.349-69.961,48.349-68.903z M47.558-68.793
				c0-0.691-0.544-1.137-1.531-1.137h-2.105v2.381h2.046C46.906-67.55,47.558-67.973,47.558-68.793z M47.944-65.663
				c0-0.76-0.632-1.196-1.839-1.196h-2.184v2.44h2.322C47.291-64.416,47.944-64.881,47.944-65.663z"/>
			<path fill="#939598" d="M50.448-67.846l-0.227-0.622c0.563-0.257,1.117-0.425,1.858-0.425c1.393,0,2.174,0.711,2.174,2.056v3.123
				h-0.731v-0.771c-0.355,0.464-0.948,0.879-1.848,0.879c-0.948,0-1.908-0.533-1.908-1.601c0-1.087,0.889-1.661,2.184-1.661
				c0.651,0,1.117,0.089,1.572,0.218v-0.176c0-0.919-0.562-1.393-1.522-1.393C51.397-68.22,50.922-68.063,50.448-67.846z
				 M50.537-65.236c0,0.651,0.592,1.027,1.286,1.027c0.938,0,1.708-0.573,1.708-1.382v-0.494c-0.375-0.109-0.879-0.217-1.501-0.217
				C51.071-66.304,50.537-65.889,50.537-65.236z"/>
			<path fill="#939598" d="M55.94-63.715v-7.213h0.761v7.213H55.94z"/>
			<path fill="#939598" d="M60.77-63.596c-1.493,0-2.619-1.215-2.619-2.659c0-1.452,1.126-2.678,2.619-2.678
				c0.968,0,1.571,0.405,2.046,0.91l-0.503,0.533c-0.405-0.425-0.86-0.771-1.552-0.771c-1.037,0-1.827,0.879-1.827,1.985
				c0,1.117,0.809,1.997,1.878,1.997c0.652,0,1.155-0.325,1.56-0.761l0.484,0.455C62.342-64.011,61.729-63.596,60.77-63.596z"/>
			<path fill="#939598" d="M66.292-63.596c-1.532,0-2.648-1.205-2.648-2.659c0-1.453,1.126-2.678,2.668-2.678
				c1.532,0,2.657,1.205,2.657,2.658C68.969-64.821,67.833-63.596,66.292-63.596z M66.292-68.26c-1.108,0-1.868,0.879-1.868,1.985
				c0,1.107,0.81,1.997,1.886,1.997c1.107,0,1.878-0.879,1.878-1.975C68.189-67.373,67.369-68.26,66.292-68.26z"/>
			<path fill="#939598" d="M71.1-63.715h-0.76v-5.109h0.76v0.89c0.336-0.554,0.869-0.999,1.75-0.999
				c1.234,0,1.957,0.831,1.957,2.046v3.172h-0.762v-2.984c0-0.948-0.514-1.542-1.413-1.542c-0.879,0-1.531,0.641-1.531,1.601v2.925
				H71.1z"/>
			<path fill="#939598" d="M78.767-63.548c-0.435,1.057-0.929,1.442-1.7,1.442c-0.425,0-0.741-0.089-1.088-0.256l0.256-0.604
				c0.247,0.128,0.475,0.188,0.801,0.188c0.454,0,0.74-0.237,1.046-0.958l-2.322-5.089h0.84l1.858,4.259l1.641-4.259h0.809
				L78.767-63.548z"/>
		</g>
		<g enable-background="new    ">
			<path fill="#939598" d="M256.962,205.371c0,1.996-1.569,3.468-3.567,3.468c-1.975,0-3.585-1.461-3.585-3.497
				c0-1.257,0.442-2.006,1.095-2.697l0.574,0.533c-0.556,0.583-0.95,1.235-0.95,2.172c0,1.533,1.234,2.679,2.847,2.679
				s2.866-1.157,2.866-2.679c0-0.947-0.367-1.57-0.999-2.231l0.503-0.514C256.478,203.325,256.962,204.116,256.962,205.371z"/>
			<path fill="#939598" d="M256.843,201.304h-7.212v-0.761h7.212V201.304z"/>
			<path fill="#939598" d="M256.962,196.444c0,1.531-1.206,2.647-2.658,2.647c-1.453,0-2.678-1.126-2.678-2.667
				c0-1.532,1.205-2.659,2.659-2.659C255.737,193.766,256.962,194.902,256.962,196.444z M252.298,196.444
				c0,1.106,0.879,1.866,1.984,1.866c1.107,0,1.997-0.808,1.997-1.886c0-1.108-0.878-1.88-1.976-1.88
				C253.187,194.545,252.298,195.367,252.298,196.444z"/>
			<path fill="#939598" d="M256.941,190.707c0,0.73-0.285,1.541-0.75,2.113l-0.546-0.386c0.416-0.553,0.655-1.165,0.655-1.77
				c0-0.611-0.318-1.056-0.812-1.056h-0.02c-0.515,0-0.711,0.602-0.901,1.274c-0.226,0.802-0.502,1.688-1.441,1.688h-0.02
				c-0.879,0-1.463-0.731-1.463-1.738c0-0.623,0.218-1.314,0.562-1.838l0.572,0.347c-0.305,0.475-0.492,1.018-0.492,1.511
				c0,0.604,0.315,0.987,0.739,0.987h0.021c0.482,0,0.673-0.632,0.88-1.315c0.236-0.791,0.543-1.639,1.463-1.639h0.02
				C256.379,188.889,256.941,189.688,256.941,190.707z"/>
			<path fill="#939598" d="M256.301,185.227c0-0.703-0.287-1.198-0.724-1.612l0.424-0.475c0.573,0.513,0.961,1.136,0.961,2.106
				c0,1.401-1.079,2.548-2.669,2.548c-1.482,0-2.669-1.039-2.669-2.449c0-1.512,1.206-2.382,2.707-2.382
				c0.072,0,0.149,0,0.237,0.011v4.051C255.678,186.915,256.301,186.124,256.301,185.227z M254.007,183.732
				c-0.928,0.08-1.739,0.611-1.739,1.631c0,0.89,0.741,1.56,1.739,1.659V183.732z"/>
			<path fill="#939598" d="M255.393,180.604c0.621,0,0.85-0.346,0.85-0.859c0-0.258-0.049-0.476-0.179-0.74h0.653
				c0.137,0.265,0.216,0.553,0.216,0.918c0,0.819-0.405,1.442-1.442,1.442h-3.082v0.712h-0.674v-0.712h-1.542v-0.761h1.542v-1.622
				h0.674v1.622H255.393z"/>
		</g>
		<g enable-background="new    ">
			<path fill="#939598" d="M258.539,269.473v-0.643l5.781-1.896l-5.76-1.977v-0.82l6.967,2.472v0.661l-5.613,1.898l5.613,1.907
				v0.651l-6.967,2.472v-0.853l5.76-1.975L258.539,269.473z"/>
			<path fill="#939598" d="M257.591,259.618l9.148,4.586v0.701l-9.148-4.584V259.618z"/>
			<path fill="#939598" d="M265.477,256.301v2.399h-6.916v-2.399c0-2.175,1.491-3.676,3.447-3.676S265.477,254.126,265.477,256.301z
				 M259.28,256.301v1.619h5.476v-1.619c0-1.748-1.185-2.866-2.729-2.866C260.485,253.435,259.28,254.553,259.28,256.301z"/>
		</g>
		<g enable-background="new    ">
			<path fill="#939598" d="M69.105,384.184v1.343h1.951v0.624h-5.53v-2.071c0-1.248,0.665-2.07,1.762-2.07
				C68.487,382.01,69.105,383.006,69.105,384.184z M66.103,384.129v1.397h2.434v-1.367c0-0.916-0.492-1.517-1.225-1.517
				C66.514,382.643,66.103,383.236,66.103,384.129z"/>
			<path fill="#939598" d="M67.753,380.817l-0.498,0.182c-0.206-0.449-0.34-0.894-0.34-1.485c0-1.113,0.568-1.737,1.644-1.737h2.497
				v0.585h-0.617c0.372,0.284,0.703,0.758,0.703,1.478c0,0.758-0.427,1.523-1.279,1.523c-0.869,0-1.326-0.711-1.326-1.745
				c0-0.522,0.07-0.894,0.172-1.256h-0.142c-0.735,0-1.115,0.449-1.115,1.216C67.453,380.06,67.58,380.439,67.753,380.817z
				 M69.839,380.745c0.521,0,0.821-0.474,0.821-1.026c0-0.751-0.458-1.366-1.106-1.366h-0.393c-0.088,0.3-0.174,0.702-0.174,1.201
				C68.987,380.32,69.317,380.745,69.839,380.745z"/>
			<path fill="#939598" d="M71.055,375.872v0.607H66.97v-0.607h0.711c-0.441-0.269-0.797-0.696-0.797-1.398
				c0-0.988,0.665-1.565,1.635-1.565h2.537v0.61h-2.385c-0.758,0-1.232,0.409-1.232,1.13c0,0.702,0.512,1.225,1.28,1.225
				L71.055,375.872L71.055,375.872z"/>
			<path fill="#939598" d="M69.894,370.792c0.498,0,0.679-0.275,0.679-0.687c0-0.206-0.038-0.38-0.143-0.594h0.521
				c0.111,0.214,0.175,0.442,0.175,0.736c0,0.655-0.325,1.154-1.155,1.154h-2.465v0.566H66.97v-0.566h-1.232v-0.61h1.232v-1.295
				h0.538v1.295H69.894L69.894,370.792z"/>
			<path fill="#939598" d="M71.055,367.813v0.608H66.97v-0.608h1.067c-0.68-0.302-1.168-0.895-1.138-1.669h0.656v0.047
				c0,0.894,0.64,1.619,1.873,1.619h1.626V367.813z"/>
			<path fill="#939598" d="M71.189,363.23c0.847,0.347,1.154,0.741,1.154,1.359c0,0.337-0.071,0.592-0.206,0.867l-0.482-0.205
				c0.102-0.198,0.149-0.382,0.149-0.639c0-0.364-0.19-0.595-0.766-0.839l-4.07,1.855v-0.672l3.406-1.484l-3.406-1.313v-0.647
				L71.189,363.23z"/>
		</g>
		<g>
			<g>
				<g>
					<g>
						<path fill="none" stroke="#939598" stroke-width="0.8" d="M50.51,419.072"/>
					</g>
				</g>
			</g>
		</g>
	</g>
</g>
</svg>
