<?xml version="1.0" encoding="utf-8"?>
<!-- Generator: Adobe Illustrator 15.0.2, SVG Export Plug-In . SVG Version: 6.00 Build 0)  -->
<!DOCTYPE svg PUBLIC "-//W3C//DTD SVG 1.1//EN" "http://www.w3.org/Graphics/SVG/1.1/DTD/svg11.dtd">
<svg version="1.1" id="Layer_1" xmlns="http://www.w3.org/2000/svg" xmlns:xlink="http://www.w3.org/1999/xlink" x="0px" y="0px"
	 width="493.055px" height="312.179px" viewBox="3.84 94.368 493.055 312.179" enable-background="new 3.84 94.368 493.055 312.179"
	 xml:space="preserve">
<g id="_x32_0_x25___PMS_2985_fill" display="none">
	<polygon display="inline" fill="#EBEEEF" points="2.619,17.275 2.619,203.941 323.619,203.941 323.619,16.941 244.285,16.941 
		244.285,8.608 108.619,8.608 108.619,17.608 	"/>
</g>
<g>
	<g id="_x32_0_x25__grey_fill">
		<rect x="6.013" y="120.904" fill="#D1D3D4" width="39.059" height="7.608"/>
		<rect x="156.885" y="120.904" fill="#D1D3D4" width="28.439" height="8.115"/>
		<rect x="485.36" y="121.918" fill="#D1D3D4" width="8.876" height="6.087"/>
		<rect x="296.411" y="107.715" fill="#D1D3D4" width="76.849" height="21.304"/>
	</g>
	<g id="icons">
		<g>
			<polygon fill="none" stroke="#939598" points="82.647,287.811 80.107,287.823 80.084,324.07 82.626,324.059 			"/>
			<path fill="none" stroke="#939598" d="M81.48,324.084c-19.954-0.678-35.583-17.081-34.903-37.036"/>
		</g>
		<g>
			<polygon fill="none" stroke="#939598" points="241.09,404.773 243.632,404.794 243.655,368.547 241.08,368.529 			"/>
			<path fill="none" stroke="#939598" d="M242.292,368.5c19.955,0.676,35.582,17.18,34.903,37.132"/>
		</g>
		<g>
			<polygon fill="none" stroke="#939598" points="177.61,275.917 177.598,273.504 143.166,273.48 143.178,275.895 			"/>
			<path fill="none" stroke="#939598" d="M143.149,274.809c0.645-18.959,16.229-33.804,35.185-33.158"/>
		</g>
		<g>
			<polygon fill="none" stroke="#939598" points="220.937,288.559 218.396,288.572 218.373,324.818 220.916,324.803 			"/>
			<path fill="none" stroke="#939598" d="M219.77,324.833c-19.955-0.678-35.583-17.081-34.903-37.036"/>
		</g>
		<g>
			<polygon fill="none" stroke="#939598" points="303.154,331.841 303.141,329.428 268.71,329.404 268.721,331.819 			"/>
			<path fill="none" stroke="#939598" d="M268.693,330.73c0.645-18.957,16.228-33.804,35.185-33.155"/>
		</g>
		<g>
			<g>
				<polygon fill="none" stroke="#939598" points="304.005,395.38 303.999,393.403 282.307,393.387 282.312,395.366 				"/>
				<path fill="none" stroke="#939598" d="M282.298,394.682c0.405-11.943,10.228-21.295,22.166-20.89"/>
			</g>
			<g>
				<polygon fill="none" stroke="#939598" points="304.005,352.098 303.999,354.073 282.307,354.088 282.312,352.107 				"/>
				<path fill="none" stroke="#939598" d="M282.298,352.795c0.405,11.943,10.228,21.295,22.166,20.889"/>
			</g>
		</g>
		<line fill="none" stroke="#939598" x1="320.823" y1="344.41" x2="320.823" y2="402.617"/>
		<polyline fill="#FFFFFF" stroke="#939598" points="177.779,397.543 177.779,371.105 227.68,371.105 227.68,398.875 		"/>
		<rect x="389.555" y="281.829" fill="#FFFFFF" stroke="#939598" width="73.044" height="42.038"/>
		<polyline fill="none" stroke="#939598" points="30.17,290.389 30.17,386.829 128.323,386.829 		"/>
		<line fill="none" stroke="#939598" x1="45.071" y1="130.82" x2="495" y2="130.82"/>
		<g>
			<rect x="187.417" y="121.433" fill="none" stroke="#939598" width="57.064" height="2.654"/>
			<rect x="231.167" y="118.932" fill="none" stroke="#939598" width="62.392" height="2.523"/>
		</g>
		<g>
			<rect x="167.826" y="106.008" fill="none" stroke="#939598" width="4.375" height="4.375"/>
			<line fill="none" stroke="#939598" x1="299.836" y1="109.242" x2="172.201" y2="109.242"/>
			<line fill="none" stroke="#939598" x1="171.352" y1="110.383" x2="171.352" y2="120.397"/>
			<line fill="none" stroke="#939598" x1="167.826" y1="110.383" x2="167.826" y2="120.017"/>
			<line fill="none" stroke="#939598" x1="172.201" y1="106.008" x2="300.217" y2="106.008"/>
		</g>
		<polyline fill="none" stroke="#939598" stroke-dasharray="1.5,1.5,1.5,1.5,1.5,1.5" points="27.047,289.818 27.081,389.826 
			127.531,389.826 		"/>
		
			<line fill="none" stroke="#939598" stroke-dasharray="1.5,1.5,1.5,1.5,1.5,1.5" x1="324.096" y1="344.854" x2="324.096" y2="404.962"/>
		<g>
			<path fill="#FFFFFF" stroke="#939598" stroke-miterlimit="10" d="M163.562,378.279c0-6.79-4.125-14.269-9.21-14.269
				c-5.087,0-9.192,7.479-9.192,14.269c0,6.792,4.105,10.323,9.192,10.323C159.437,388.604,163.562,385.071,163.562,378.279"/>
			<path fill="#FFFFFF" stroke="#939598" d="M163.562,378.279c0-6.79-4.125-14.269-9.21-14.269c-5.087,0-9.192,7.479-9.192,14.269
				c0,6.792,4.105,10.323,9.192,10.323C159.437,388.604,163.562,385.071,163.562,378.279z"/>
			<path fill="#FFFFFF" stroke="#939598" stroke-miterlimit="10" d="M148.838,386.377c0-0.38-0.312-0.691-0.692-0.691h-3.206
				c-0.38,0-0.691,0.312-0.691,0.691v0.119c0,0.381,0.312,0.691,0.691,0.691h3.206c0.381,0,0.692-0.312,0.692-0.691V386.377z"/>
			<path fill="#FFFFFF" stroke="#939598" d="M148.838,386.377c0-0.38-0.312-0.691-0.692-0.691h-3.206
				c-0.38,0-0.691,0.312-0.691,0.691v0.119c0,0.381,0.312,0.691,0.691,0.691h3.206c0.381,0,0.692-0.312,0.692-0.691V386.377z"/>
			<path fill="#FFFFFF" stroke="#939598" stroke-miterlimit="10" d="M143.759,387.206c-1.155,0-2.092,3.13-2.092,4.283
				c0,1.171,0.938,4.299,2.092,4.299h21.021c1.155,0,2.092-3.131,2.092-4.299c0-1.156-0.937-4.28-2.092-4.28L143.759,387.206z"/>
			<path fill="#FFFFFF" stroke="#939598" d="M143.759,387.206c-1.155,0-2.092,3.13-2.092,4.283c0,1.171,0.938,4.299,2.092,4.299
				h21.021c1.155,0,2.092-3.131,2.092-4.299c0-1.156-0.937-4.28-2.092-4.28L143.759,387.206z"/>
			<path fill="#FFFFFF" stroke="#939598" stroke-miterlimit="10" d="M161.122,377.996c0-4.99-3.03-10.49-6.77-10.49
				c-3.738,0-6.768,5.497-6.768,10.49c0,4.99,3.028,7.584,6.768,7.584C158.092,385.58,161.122,382.986,161.122,377.996"/>
			<path fill="#FFFFFF" stroke="#939598" d="M161.122,377.996c0-4.99-3.03-10.49-6.77-10.49c-3.738,0-6.768,5.497-6.768,10.49
				c0,4.99,3.028,7.584,6.768,7.584C158.092,385.58,161.122,382.986,161.122,377.996z"/>
		</g>
		<g>
			<g>
				<rect x="93.881" y="291.301" fill="#FFFFFF" stroke="#939598" width="35.951" height="69.534"/>
				<path fill="#FFFFFF" stroke="#939598" d="M111.857,326.069"/>
				<path fill="#FFFFFF" stroke="#939598" d="M111.857,326.307"/>
				<path fill="#FFFFFF" stroke="#939598" d="M111.857,349.885"/>
			</g>
			<circle fill="#FFFFFF" stroke="#939598" cx="112.028" cy="344.987" r="1.474"/>
			<path fill="#FFFFFF" stroke="#939598" d="M111.969,295.271c-10.305,0-14.076,2.377-14.076,5.709c0,0,0,49.973,0,50.788
				c0,0.813,0.222,2.498,2.376,2.498c2.158,0,11.7,0,11.7,0h0.025c0,0,9.544,0,11.7,0c2.154,0,2.376-1.682,2.376-2.498
				c0-0.815,0-50.757,0-50.757l-0.004-0.031C126.063,297.648,122.206,295.271,111.969,295.271z"/>
			<path fill="#FFFFFF" stroke="#939598" d="M108.936,356.854c0.003-0.838-0.669-1.504-1.514-1.504c-0.816,0-1.494,0.666-1.5,1.504
				c0.006,0.828,0.684,1.515,1.5,1.515C108.265,358.367,108.938,357.689,108.936,356.854z"/>
			<path fill="#FFFFFF" stroke="#939598" d="M118.281,356.854c0.009-0.838-0.677-1.504-1.507-1.504
				c-0.826,0-1.506,0.666-1.506,1.504c0,0.828,0.68,1.515,1.506,1.503C117.608,358.367,118.281,357.684,118.281,356.854z"/>
			<path fill="#FFFFFF" stroke="#939598" d="M110,357.299c0,1.235,0.835,2.235,2.07,2.238c1.234-0.003,1.907-1,1.907-2.238
				l-0.792-8.511c0-0.835-2.254-0.835-2.254,0L110,357.299z"/>
		</g>
		<g>
			<g>
				<g>
					<g>
						<rect x="311.199" y="297.68" fill="#FFFFFF" stroke="#939598" width="28.221" height="30.722"/>
						<path fill="#FFFFFF" stroke="#939598" d="M324.372,313.039"/>
						<polyline fill="#FFFFFF" stroke="#939598" points="319.619,303.719 315.326,303.719 314.324,307.428 314.324,318.794 
							315.326,322.551 319.619,322.551 						"/>
						<line fill="none" stroke="#939598" x1="319.619" y1="328.622" x2="319.619" y2="297.68"/>
						<path fill="#FFFFFF" stroke="#939598" d="M322.932,313.135"/>
					</g>
				</g>
			</g>
			<polygon fill="#FFFFFF" stroke="#939598" points="317.766,326.904 317.76,324.423 319.493,323.879 319.501,327.45 			"/>
		</g>
		<g>
			<g>
				<path fill="#FFFFFF" stroke="#939598" d="M422.995,298.473c-0.647,0-1.172,0.523-1.172,1.172v20.462
					c0,0.646,0.523,1.174,1.172,1.174h34.707c0.647,0,1.174-0.526,1.174-1.174v-20.462c0-0.649-0.524-1.172-1.174-1.172H422.995z"/>
				<path fill="#FFFFFF" stroke="#939598" d="M440.224,308.991"/>
			</g>
			<g>
				<circle fill="#FFFFFF" stroke="#939598" cx="440.224" cy="310.378" r="1.325"/>
				<path fill="#FFFFFF" stroke="#939598" d="M440.224,310.376"/>
			</g>
			<g>
				<g>
					<rect x="434.433" y="299.289" fill="#FFFFFF" stroke="#939598" width="11.579" height="2.77"/>
					<path fill="#FFFFFF" stroke="#939598" d="M440.224,300.672"/>
				</g>
				<g>
					<rect x="439.631" y="301.986" fill="#FFFFFF" stroke="#939598" width="1.184" height="5.455"/>
					<path fill="#FFFFFF" stroke="#939598" d="M440.224,304.361"/>
				</g>
				<g>
					<circle fill="#FFFFFF" stroke="#939598" cx="440.224" cy="300.7" r="1.29"/>
					<path fill="#FFFFFF" stroke="#939598" d="M440.224,300.699"/>
				</g>
			</g>
			<g>
				<path fill="#FFFFFF" stroke="#939598" d="M440.224,310.376"/>
				<path fill="none" stroke="#939598" d="M439.508,303.016h-14.593c-0.68,0-1.234,0.553-1.234,1.232v14.031
					c0,0.678,0.554,1.231,1.234,1.231h30.858c0.681,0,1.235-0.553,1.235-1.231v-14.031c0-0.682-0.554-1.232-1.235-1.232h-14.801"/>
			</g>
		</g>
		<g>
			<polyline fill="none" stroke="#939598" stroke-dasharray="1.5,1,1.5,1,1.5,1" points="418.729,324.622 418.729,298.788 
				393.395,298.788 393.395,324.042 			"/>
			<polyline fill="#FFFFFF" stroke="#939598" points="393.355,324.042 393.355,325.576 418.729,325.576 418.729,324.631 			"/>
		</g>
		<rect x="372.753" y="370.723" fill="#FFFFFF" stroke="#939598" width="120.979" height="31.705"/>
		<g>
			<g>
				<rect x="401.586" y="368.682" fill="#FFFFFF" stroke="#939598" width="35.381" height="30.056"/>
				<path fill="#FFFFFF" stroke="#939598" d="M419.276,383.708"/>
			</g>
			<g>
				<g>
					<circle fill="#FFFFFF" stroke="#939598" cx="427.366" cy="375.339" r="4.298"/>
					<path fill="#FFFFFF" stroke="#939598" d="M427.366,375.339"/>
				</g>
				<g>
					<circle fill="#FFFFFF" stroke="#939598" stroke-width="0.8" cx="427.409" cy="375.34" r="3.027"/>
					<path fill="#FFFFFF" stroke="#939598" d="M427.409,375.339"/>
				</g>
			</g>
			<g>
				<g>
					<circle fill="#FFFFFF" stroke="#939598" cx="410.19" cy="387.893" r="4.297"/>
					<path fill="#FFFFFF" stroke="#939598" d="M410.19,387.893"/>
				</g>
				<g>
					<circle fill="#FFFFFF" stroke="#939598" stroke-width="0.8" cx="410.146" cy="387.894" r="3.027"/>
					<path fill="#FFFFFF" stroke="#939598" d="M410.146,387.893"/>
				</g>
			</g>
			<g>
				<g>
					<circle fill="#FFFFFF" stroke="#939598" cx="427.425" cy="387.852" r="4.899"/>
					<path fill="#FFFFFF" stroke="#939598" d="M427.425,387.852"/>
				</g>
				<g>
					<circle fill="#FFFFFF" stroke="#939598" stroke-width="0.8" cx="427.378" cy="387.853" r="3.452"/>
					<path fill="#FFFFFF" stroke="#939598" d="M427.378,387.852"/>
				</g>
			</g>
			<g>
				<g>
					<circle fill="#FFFFFF" stroke="#939598" cx="410.208" cy="375.009" r="4.898"/>
					<path fill="#FFFFFF" stroke="#939598" d="M410.208,375.01"/>
				</g>
				<g>
					<circle fill="#FFFFFF" stroke="#939598" stroke-width="0.8" cx="410.161" cy="375.008" r="3.451"/>
					<path fill="#FFFFFF" stroke="#939598" d="M410.161,375.01"/>
				</g>
			</g>
			<line fill="none" stroke="#939598" x1="437.016" y1="394.579" x2="401.586" y2="394.579"/>
			<line fill="none" stroke="#939598" x1="436.967" y1="396.238" x2="401.586" y2="396.238"/>
		</g>
		<g>
			<g>
				<rect x="451.6" y="365.991" fill="#FFFFFF" stroke="#939598" width="37.893" height="33.431"/>
				<path fill="#FFFFFF" stroke="#939598" d="M472.507,382.707"/>
			</g>
			<line fill="none" stroke="#939598" x1="451.509" y1="368.329" x2="489.494" y2="368.329"/>
			<rect x="483.259" y="364.34" fill="#FFFFFF" stroke="#939598" width="3.072" height="1.629"/>
			<path fill="#FFFFFF" stroke="#939598" d="M484.796,365.242"/>
		</g>
		
			<line fill="none" stroke="#939598" stroke-dasharray="1.5,1.5,1.5,1.5,1.5,1.5" x1="374.527" y1="387.462" x2="493.984" y2="387.462"/>
		<g>
			<polyline fill="#FFFFFF" stroke="#939598" points="368.555,362.878 371.346,362.878 371.346,402.695 347.503,402.695 
				347.503,362.878 352.575,362.878 			"/>
			<g>
				<g>
					<g>
						<polygon fill="none" stroke="#939598" stroke-width="0.7" points="360.43,349.355 362.331,350.402 354.404,363.479 
							352.503,362.434 						"/>
						<path fill="none" stroke="#939598" stroke-width="0.8" d="M355.971,357.477"/>
					</g>
					<path fill="none" stroke="#939598" stroke-width="0.8" d="M361.157,349.986c4.872,2.95,7.495,8.209,7.319,13.524"/>
				</g>
			</g>
		</g>
		<g>
			<g>
				<g>
					<path fill="none" stroke="#939598" d="M202.573,381.887"/>
				</g>
				<g>
					<path fill="none" stroke="#939598" d="M202.573,383.502"/>
				</g>
				<g>
					<circle fill="none" stroke="#939598" cx="202.573" cy="381.886" r="1.548"/>
					<path fill="none" stroke="#939598" d="M202.573,381.887"/>
				</g>
				<g>
					<g>
						<rect x="196.082" y="391.587" fill="none" stroke="#939598" width="13.016" height="3.234"/>
						<path fill="none" stroke="#939598" d="M202.573,393.203"/>
					</g>
					<g>
						<rect x="201.883" y="385.311" fill="none" stroke="#939598" width="1.379" height="6.135"/>
						<path fill="none" stroke="#939598" d="M202.573,388.898"/>
					</g>
					<g>
						<circle fill="none" stroke="#939598" cx="202.573" cy="393.172" r="1.5"/>
						<path fill="none" stroke="#939598" d="M202.573,393.172"/>
					</g>
				</g>
			</g>
			<g>
				<rect x="189.597" y="374.2" fill="none" stroke="#939598" width="25.985" height="21.114"/>
				<rect x="191.714" y="376.324" fill="none" stroke="#939598" width="21.693" height="15.186"/>
			</g>
		</g>
	</g>
	<g id="walls">
		<polyline fill="none" stroke="#939598" stroke-width="5" points="371.736,121.003 494.395,121.003 494.395,404.047 
			277.264,404.047 		"/>
		<line fill="none" stroke="#939598" stroke-width="3" x1="290.198" y1="121.003" x2="298.948" y2="121.003"/>
		<polyline fill="none" stroke="#939598" stroke-width="5" points="241.502,404.047 6.34,404.047 6.34,121.003 193.187,121.003 		
			"/>
		<polyline fill="none" stroke="#939598" stroke-width="3" points="220.959,288.805 229.202,288.805 229.202,402.428 		"/>
		<line fill="none" stroke="#939598" stroke-width="3" x1="82.901" y1="288.805" x2="185.427" y2="288.805"/>
		<line fill="none" stroke="#939598" stroke-width="3" x1="5" y1="288.805" x2="46.72" y2="288.805"/>
		<line fill="none" stroke="#939598" stroke-width="3" x1="177.463" y1="275.934" x2="177.463" y2="289.818"/>
		<line fill="none" stroke="#939598" stroke-width="3" x1="177.463" y1="130.795" x2="177.463" y2="242.141"/>
		<polyline fill="none" stroke="#939598" stroke-width="3" points="303.26,297.953 303.26,288.805 347.391,288.805 347.391,403.439 
					"/>
		<line fill="none" stroke="#939598" stroke-width="3" x1="303.26" y1="351.829" x2="303.26" y2="331.666"/>
		<line fill="none" stroke="#939598" stroke-width="3" x1="303.26" y1="402.934" x2="303.26" y2="395.389"/>
		<line fill="none" stroke="#939598" stroke-width="3" x1="372.753" y1="361.848" x2="372.753" y2="402.934"/>
		<polyline fill="none" stroke="#939598" stroke-width="3" points="227.173,399.889 129.274,399.889 129.274,362.861 
			92.246,363.023 92.246,290.488 		"/>
		<polyline fill="none" stroke="#939598" stroke-width="5" points="373.438,121.413 373.438,107.882 297.173,107.882 
			297.173,120.903 		"/>
		<polyline fill="none" stroke="#939598" stroke-width="3" points="298.611,120.903 298.611,128.777 371.87,128.777 371.87,121.413 
					"/>
		<polyline fill="none" stroke="#939598" stroke-width="3" points="44.057,120.904 44.057,129.413 6.521,129.413 		"/>
		<polyline fill="none" stroke="#939598" stroke-width="3" points="157.074,121.411 157.074,128.922 185.578,128.922 
			185.578,119.382 		"/>
		<line fill="none" stroke="#939598" stroke-width="5" x1="304.654" y1="341.559" x2="345.359" y2="341.559"/>
		<polyline fill="none" stroke="#939598" stroke-width="3" points="485.965,123.187 485.965,128.816 493.224,128.816 		"/>
	</g>
	<g id="windows">
		<g>
			<g>
				<rect x="48.559" y="118.116" fill="#FFFFFF" stroke="#939598" width="105.854" height="5.591"/>
				<line fill="none" stroke="#939598" x1="154.416" y1="120.883" x2="47.418" y2="120.883"/>
				<line fill="none" stroke="#939598" stroke-width="2" x1="119.912" y1="123.948" x2="119.912" y2="118.631"/>
			</g>
			<line fill="none" stroke="#939598" stroke-width="2" x1="84.32" y1="124.138" x2="84.32" y2="118.657"/>
		</g>
		<g>
			<g>
				<rect x="377.301" y="118.156" fill="#FFFFFF" stroke="#939598" width="105.854" height="5.591"/>
				<line fill="none" stroke="#939598" x1="483.159" y1="120.924" x2="376.159" y2="120.924"/>
				<line fill="none" stroke="#939598" stroke-width="2" x1="448.655" y1="123.987" x2="448.655" y2="118.671"/>
			</g>
			<line fill="none" stroke="#939598" stroke-width="2" x1="413.062" y1="124.177" x2="413.062" y2="118.698"/>
		</g>
	</g>
	<g id="Type">
		<g enable-background="new    ">
			<path fill="#939598" d="M202.09,102.255c-1.119,0-1.833-0.553-2.302-1.322l0.605-0.522c0.459,0.693,0.928,1.065,1.706,1.065
				c0.842,0,1.459-0.607,1.459-1.791v-4.998h0.854v4.987C204.414,101.392,203.421,102.255,202.09,102.255z"/>
			<path fill="#939598" d="M210.177,96.637h0.81v5.511h-0.81v-0.959c-0.373,0.597-0.938,1.076-1.887,1.076
				c-1.332,0-2.11-0.896-2.11-2.206v-3.421h0.819v3.218c0,1.025,0.554,1.664,1.522,1.664c0.939,0,1.654-0.692,1.654-1.728
				L210.177,96.637L210.177,96.637L210.177,96.637z"/>
			<path fill="#939598" d="M212.901,102.148v-7.78h0.818v7.78H212.901z"/>
			<path fill="#939598" d="M215.649,95.434v-0.907h0.938v0.907H215.649z M215.703,102.148v-5.511h0.819v5.511H215.703z"/>
			<path fill="#939598" d="M220.859,101.561c0.757,0,1.289-0.309,1.736-0.779l0.514,0.458c-0.555,0.617-1.227,1.035-2.271,1.035
				c-1.514,0-2.751-1.163-2.751-2.877c0-1.6,1.119-2.879,2.644-2.879c1.631,0,2.569,1.299,2.569,2.92c0,0.076,0,0.16-0.012,0.256
				h-4.371C219.036,100.891,219.89,101.561,220.859,101.561z M222.469,99.089c-0.085-1.001-0.66-1.876-1.758-1.876
				c-0.958,0-1.684,0.799-1.792,1.876H222.469z"/>
			<path fill="#939598" d="M225.843,100.581c0,0.671,0.373,0.917,0.926,0.917c0.278,0,0.512-0.053,0.801-0.193v0.705
				c-0.289,0.149-0.599,0.235-0.991,0.235c-0.886,0-1.556-0.438-1.556-1.557v-3.325h-0.767v-0.726h0.767v-1.664h0.82v1.664h1.748
				v0.726h-1.748V100.581L225.843,100.581z"/>
			<path fill="#939598" d="M237.979,96.552c0,0.982-0.596,1.482-1.183,1.738c0.884,0.266,1.599,0.777,1.599,1.811
				c0,1.291-1.075,2.047-2.708,2.047h-3.313v-7.46h3.176C237.02,94.687,237.979,95.411,237.979,96.552z M237.126,96.671
				c0-0.746-0.587-1.227-1.651-1.227h-2.271v2.568h2.207C236.424,98.011,237.126,97.555,237.126,96.671z M237.542,100.047
				c0-0.82-0.682-1.29-1.982-1.29h-2.354v2.632h2.504C236.837,101.392,237.542,100.891,237.542,100.047z"/>
			<path fill="#939598" d="M240.245,97.692l-0.246-0.671c0.605-0.277,1.206-0.458,2.005-0.458c1.501,0,2.345,0.768,2.345,2.217
				v3.368h-0.789v-0.832c-0.384,0.5-1.021,0.948-1.992,0.948c-1.022,0-2.059-0.575-2.059-1.727c0-1.173,0.958-1.792,2.355-1.792
				c0.703,0,1.205,0.096,1.695,0.235v-0.19c0-0.991-0.607-1.502-1.642-1.502C241.268,97.288,240.756,97.457,240.245,97.692z
				 M240.34,100.507c0,0.703,0.639,1.108,1.387,1.108c1.013,0,1.844-0.619,1.844-1.492V99.59c-0.404-0.117-0.948-0.234-1.618-0.234
				C240.915,99.355,240.34,99.803,240.34,100.507z"/>
			<path fill="#939598" d="M246.167,102.148v-7.78h0.82v7.78H246.167z"/>
			<path fill="#939598" d="M251.378,102.275c-1.61,0-2.824-1.311-2.824-2.867c0-1.565,1.214-2.888,2.824-2.888
				c1.044,0,1.692,0.437,2.205,0.981l-0.542,0.575c-0.438-0.458-0.928-0.831-1.676-0.831c-1.117,0-1.971,0.948-1.971,2.141
				c0,1.205,0.874,2.153,2.026,2.153c0.704,0,1.247-0.35,1.684-0.82l0.521,0.49C253.07,101.828,252.412,102.275,251.378,102.275z"/>
			<path fill="#939598" d="M257.332,102.275c-1.652,0-2.855-1.299-2.855-2.867c0-1.567,1.215-2.888,2.879-2.888
				c1.651,0,2.867,1.299,2.867,2.867C260.221,100.955,258.997,102.275,257.332,102.275z M257.332,97.246
				c-1.193,0-2.012,0.948-2.012,2.141c0,1.195,0.871,2.153,2.033,2.153c1.191,0,2.024-0.948,2.024-2.13
				C259.379,98.203,258.494,97.246,257.332,97.246z"/>
			<path fill="#939598" d="M262.518,102.148h-0.818v-5.511h0.818v0.96c0.362-0.599,0.938-1.078,1.887-1.078
				c1.334,0,2.109,0.896,2.109,2.207v3.421h-0.818v-3.219c0-1.021-0.555-1.663-1.524-1.663c-0.948,0-1.651,0.692-1.651,1.727
				L262.518,102.148L262.518,102.148z"/>
			<path fill="#939598" d="M270.787,102.328c-0.469,1.14-1,1.555-1.831,1.555c-0.46,0-0.799-0.096-1.174-0.276l0.276-0.651
				c0.27,0.138,0.516,0.202,0.863,0.202c0.49,0,0.801-0.256,1.129-1.033l-2.505-5.489h0.906l2.003,4.594l1.771-4.594h0.873
				L270.787,102.328z"/>
		</g>
		<g enable-background="new    ">
			<path fill="#939598" d="M169.136,334.979c0,1.263-0.767,1.906-1.52,2.233c1.137,0.345,2.055,1.001,2.055,2.329
				c0,1.657-1.384,2.631-3.479,2.631h-4.262v-9.59h4.083C167.904,332.583,169.136,333.516,169.136,334.979z M168.041,335.132
				c0-0.961-0.753-1.575-2.122-1.575h-2.918v3.304h2.835C167.138,336.857,168.041,336.268,168.041,335.132z M168.576,339.475
				c0-1.056-0.875-1.657-2.549-1.657H163v3.384h3.219C167.671,341.199,168.576,340.557,168.576,339.475z"/>
			<path fill="#939598" d="M172.052,336.446l-0.314-0.863c0.781-0.354,1.549-0.59,2.575-0.59c1.933,0,3.013,0.984,3.013,2.851v4.329
				h-1.015v-1.066c-0.491,0.643-1.312,1.22-2.562,1.22c-1.315,0-2.645-0.739-2.645-2.222c0-1.505,1.233-2.3,3.027-2.3
				c0.904,0,1.55,0.12,2.179,0.3v-0.246c0-1.273-0.779-1.934-2.109-1.934C173.367,335.926,172.711,336.145,172.052,336.446z
				 M172.175,340.062c0,0.905,0.822,1.427,1.78,1.427c1.302,0,2.371-0.796,2.371-1.921v-0.685c-0.522-0.151-1.221-0.301-2.082-0.301
				C172.916,338.582,172.175,339.158,172.175,340.062z"/>
			<path fill="#939598" d="M180.928,340.157c0,0.861,0.48,1.179,1.192,1.179c0.356,0,0.657-0.068,1.026-0.247v0.905
				c-0.369,0.188-0.767,0.3-1.272,0.3c-1.137,0-1.999-0.562-1.999-2v-4.272h-0.987v-0.932h0.986v-2.137h1.054v2.137h2.249v0.932
				h-2.249V340.157z"/>
			<path fill="#939598" d="M186.092,342.173h-1.055v-10.002h1.055v4.153c0.465-0.769,1.206-1.385,2.425-1.385
				c1.712,0,2.712,1.15,2.712,2.836v4.399h-1.055v-4.14c0-1.315-0.712-2.136-1.96-2.136c-1.218,0-2.124,0.889-2.124,2.217v4.055
				L186.092,342.173L186.092,342.173z"/>
		</g>
		<g enable-background="new    ">
			<path fill="#939598" d="M411.917,285.794v7.46h-0.842v-7.46H411.917z"/>
			<path fill="#939598" d="M415.784,293.359c-0.787,0-1.662-0.31-2.279-0.808l0.415-0.59c0.596,0.449,1.259,0.704,1.907,0.704
				c0.662,0,1.141-0.342,1.141-0.873v-0.021c0-0.557-0.647-0.768-1.375-0.973c-0.86-0.244-1.82-0.541-1.82-1.555v-0.021
				c0-0.945,0.79-1.576,1.875-1.576c0.673,0,1.418,0.232,1.981,0.605l-0.371,0.618c-0.513-0.33-1.101-0.532-1.632-0.532
				c-0.649,0-1.063,0.34-1.063,0.799v0.021c0,0.521,0.682,0.729,1.418,0.945c0.854,0.258,1.77,0.588,1.77,1.578v0.022
				C417.745,292.753,416.884,293.359,415.784,293.359z"/>
			<path fill="#939598" d="M419.342,293.254v-7.779h0.819v7.779H419.342z"/>
			<path fill="#939598" d="M422.388,288.799l-0.245-0.672c0.608-0.275,1.205-0.458,2.005-0.458c1.503,0,2.343,0.767,2.343,2.218
				v3.367h-0.787v-0.832c-0.383,0.502-1.021,0.948-1.994,0.948c-1.023,0-2.059-0.574-2.059-1.728c0-1.172,0.961-1.791,2.356-1.791
				c0.701,0,1.203,0.098,1.693,0.233v-0.19c0-0.99-0.607-1.502-1.643-1.502C423.413,288.395,422.901,288.562,422.388,288.799z
				 M422.485,291.613c0,0.703,0.639,1.107,1.385,1.107c1.014,0,1.845-0.617,1.845-1.492v-0.53c-0.405-0.119-0.948-0.235-1.62-0.235
				C423.06,290.462,422.485,290.909,422.485,291.613z"/>
			<path fill="#939598" d="M429.056,293.254h-0.819v-5.511h0.819v0.96c0.361-0.598,0.938-1.077,1.888-1.077
				c1.331,0,2.11,0.896,2.11,2.207v3.421h-0.819v-3.219c0-1.021-0.556-1.663-1.523-1.663c-0.948,0-1.653,0.69-1.653,1.728
				L429.056,293.254L429.056,293.254z"/>
			<path fill="#939598" d="M439.221,293.254v-1.107c-0.445,0.66-1.097,1.226-2.109,1.226c-1.32,0-2.633-1.045-2.633-2.865
				c0-1.812,1.312-2.88,2.633-2.88c1.021,0,1.684,0.555,2.109,1.174v-3.324h0.819v7.777H439.221L439.221,293.254z M437.259,288.361
				c-1.062,0-1.938,0.789-1.938,2.13c0,1.312,0.897,2.144,1.938,2.144c1.023,0,1.995-0.854,1.995-2.144
				C439.253,289.215,438.282,288.361,437.259,288.361z"/>
		</g>
		<g enable-background="new    ">
			<path fill="#939598" d="M252.486,395.617h-4.551v2.548h4.07v0.771h-4.07v2.608h4.605v0.77h-5.448v-7.46h5.395V395.617
				L252.486,395.617z"/>
			<path fill="#939598" d="M254.911,402.311h-0.82v-5.51h0.82v0.959c0.362-0.598,0.938-1.078,1.888-1.078
				c1.331,0,2.11,0.896,2.11,2.207v3.422h-0.822v-3.219c0-1.021-0.554-1.664-1.522-1.664c-0.946,0-1.651,0.691-1.651,1.729
				L254.911,402.311L254.911,402.311z"/>
			<path fill="#939598" d="M261.76,400.744c0,0.672,0.373,0.919,0.928,0.919c0.277,0,0.515-0.054,0.799-0.192v0.703
				c-0.284,0.148-0.596,0.235-0.989,0.235c-0.886,0-1.558-0.44-1.558-1.559v-3.325h-0.769V396.8h0.769v-1.666h0.82v1.666h1.749
				v0.726h-1.749V400.744L261.76,400.744z"/>
			<path fill="#939598" d="M265.777,402.311h-0.818v-5.51h0.818v1.438c0.404-0.917,1.203-1.578,2.25-1.534v0.883h-0.063
				c-1.204,0-2.187,0.863-2.187,2.526V402.311L265.777,402.311z"/>
			<path fill="#939598" d="M271.958,402.492c-0.47,1.139-1.001,1.555-1.834,1.555c-0.457,0-0.799-0.096-1.172-0.274l0.276-0.651
				c0.268,0.137,0.513,0.202,0.859,0.202c0.491,0,0.801-0.256,1.13-1.034l-2.503-5.487h0.905l2.005,4.595l1.77-4.595h0.871
				L271.958,402.492z"/>
		</g>
		<g enable-background="new    ">
			<path fill="#939598" d="M401.401,347.118h-1.357l-3.686-4.646l-2.042,2.067v2.577h-1.082v-9.592h1.082v5.728l5.509-5.728h1.396
				l-4.106,4.19L401.401,347.118z"/>
			<path fill="#939598" d="M402.933,338.487v-1.164h1.205v1.164H402.933z M403.003,347.118v-7.083h1.053v7.083H403.003z"/>
			<path fill="#939598" d="M407.932,345.102c0,0.864,0.479,1.181,1.19,1.181c0.355,0,0.658-0.068,1.027-0.246v0.904
				c-0.369,0.188-0.768,0.301-1.272,0.301c-1.14,0-1.999-0.562-1.999-2.001v-4.273h-0.986v-0.931h0.986v-2.137h1.054v2.137h2.248
				v0.931h-2.248V345.102L407.932,345.102z"/>
			<path fill="#939598" d="M415.028,347.283c-2.067,0-3.631-1.685-3.631-3.687c0-2.015,1.562-3.715,3.631-3.715
				c1.344,0,2.178,0.562,2.836,1.262l-0.699,0.738c-0.562-0.588-1.191-1.067-2.15-1.067c-1.438,0-2.534,1.222-2.534,2.755
				c0,1.55,1.123,2.769,2.604,2.769c0.904,0,1.604-0.453,2.164-1.054l0.673,0.63C417.206,346.706,416.356,347.283,415.028,347.283z"
				/>
			<path fill="#939598" d="M420.711,347.118h-1.054v-10.001h1.054v4.151c0.467-0.769,1.206-1.385,2.426-1.385
				c1.712,0,2.713,1.151,2.713,2.838v4.397h-1.055v-4.141c0-1.313-0.714-2.135-1.957-2.135c-1.222,0-2.125,0.89-2.125,2.217v4.056
				L420.711,347.118L420.711,347.118z"/>
			<path fill="#939598" d="M431.217,346.366c0.973,0,1.657-0.397,2.231-1.002l0.658,0.59c-0.713,0.795-1.576,1.33-2.92,1.33
				c-1.941,0-3.531-1.492-3.531-3.7c0-2.055,1.438-3.699,3.396-3.699c2.098,0,3.302,1.674,3.302,3.754c0,0.097,0,0.207-0.013,0.33
				h-5.617C428.876,345.501,429.969,346.366,431.217,346.366z M433.284,343.186c-0.107-1.286-0.852-2.409-2.26-2.409
				c-1.234,0-2.164,1.026-2.304,2.409H433.284z"/>
			<path fill="#939598" d="M437.256,347.118H436.2v-7.083h1.056v1.233c0.466-0.769,1.205-1.385,2.426-1.385
				c1.712,0,2.71,1.151,2.71,2.838v4.397h-1.053v-4.141c0-1.313-0.713-2.135-1.961-2.135c-1.219,0-2.122,0.89-2.122,2.217V347.118
				L437.256,347.118z"/>
		</g>
		<g enable-background="new    ">
			<path fill="#939598" d="M325.812,319.939v-0.689l6.235-2.047l-6.213-2.131v-0.888l7.515,2.666v0.716l-6.056,2.048l6.056,2.057
				v0.702l-7.515,2.666v-0.92l6.213-2.129L325.812,319.939z"/>
			<path fill="#939598" d="M324.79,309.312l9.868,4.943v0.757l-9.868-4.942V309.312z"/>
			<path fill="#939598" d="M333.294,305.732v2.59h-7.459v-2.59c0-2.344,1.608-3.965,3.718-3.965
				C331.664,301.768,333.294,303.389,333.294,305.732z M326.613,305.732v1.748h5.902v-1.748c0-1.885-1.277-3.09-2.939-3.09
				C327.912,302.643,326.613,303.848,326.613,305.732z"/>
		</g>
		<g enable-background="new    ">
			<path fill="#939598" d="M315.38,386.295c0,2.154-1.692,3.741-3.847,3.741c-2.131,0-3.868-1.575-3.868-3.772
				c0-1.354,0.479-2.162,1.183-2.907l0.616,0.573c-0.597,0.629-1.022,1.334-1.022,2.345c0,1.651,1.334,2.89,3.07,2.89
				c1.737,0,3.092-1.248,3.092-2.89c0-1.021-0.396-1.693-1.076-2.407l0.543-0.554C314.859,384.089,315.38,384.941,315.38,386.295z"
				/>
			<path fill="#939598" d="M315.253,381.908h-7.78v-0.82h7.78V381.908z"/>
			<path fill="#939598" d="M315.38,376.667c0,1.652-1.3,2.856-2.866,2.856c-1.565,0-2.889-1.218-2.889-2.878
				c0-1.651,1.3-2.867,2.866-2.867C314.061,373.778,315.38,375.004,315.38,376.667z M310.35,376.667
				c0,1.192,0.947,2.015,2.143,2.015c1.193,0,2.152-0.873,2.152-2.034c0-1.194-0.947-2.026-2.131-2.026
				C311.309,374.619,310.35,375.505,310.35,376.667z"/>
			<path fill="#939598" d="M315.359,370.479c0,0.787-0.31,1.662-0.811,2.279l-0.589-0.416c0.447-0.596,0.706-1.258,0.706-1.908
				c0-0.659-0.344-1.14-0.875-1.14h-0.021c-0.554,0-0.768,0.649-0.972,1.374c-0.243,0.865-0.541,1.822-1.555,1.822h-0.021
				c-0.947,0-1.578-0.789-1.578-1.875c0-0.672,0.233-1.418,0.606-1.982l0.618,0.374c-0.331,0.513-0.533,1.097-0.533,1.63
				c0,0.649,0.342,1.064,0.799,1.064h0.021c0.521,0,0.727-0.683,0.947-1.419c0.256-0.854,0.588-1.77,1.578-1.77h0.021
				C314.753,368.518,315.359,369.38,315.359,370.479z"/>
			<path fill="#939598" d="M314.668,364.566c0-0.759-0.309-1.291-0.779-1.737l0.457-0.513c0.618,0.554,1.035,1.226,1.035,2.271
				c0,1.514-1.163,2.75-2.878,2.75c-1.601,0-2.879-1.121-2.879-2.643c0-1.632,1.299-2.569,2.92-2.569c0.076,0,0.161,0,0.256,0.013
				v4.368C313.996,366.391,314.668,365.536,314.668,364.566z M312.195,362.957c-1.002,0.086-1.877,0.659-1.877,1.759
				c0,0.96,0.8,1.684,1.877,1.789V362.957z"/>
			<path fill="#939598" d="M313.686,359.582c0.672,0,0.918-0.373,0.918-0.928c0-0.277-0.054-0.515-0.193-0.799h0.706
				c0.147,0.284,0.231,0.597,0.231,0.989c0,0.886-0.438,1.558-1.556,1.558h-3.326v0.768h-0.726v-0.768h-1.662v-0.82h1.662v-1.749
				h0.726v1.749H313.686L313.686,359.582z"/>
		</g>
		<g enable-background="new    ">
			<path fill="#939598" d="M48.984,352.854c-2.153,0-3.741-1.692-3.741-3.848c0-2.13,1.579-3.867,3.772-3.867
				c1.354,0,2.164,0.479,2.91,1.184l-0.575,0.618c-0.628-0.601-1.332-1.025-2.345-1.025c-1.653,0-2.889,1.335-2.889,3.072
				c0,1.735,1.247,3.089,2.889,3.089c1.022,0,1.692-0.396,2.409-1.075l0.553,0.542C51.191,352.331,50.34,352.854,48.984,352.854z"/>
			<path fill="#939598" d="M53.373,352.727v-7.778h0.819v7.778H53.373z"/>
			<path fill="#939598" d="M58.614,352.854c-1.653,0-2.856-1.299-2.856-2.866c0-1.566,1.214-2.89,2.878-2.89
				c1.653,0,2.867,1.302,2.867,2.867C61.503,351.533,60.275,352.854,58.614,352.854z M58.614,347.825
				c-1.195,0-2.016,0.948-2.016,2.141c0,1.194,0.874,2.153,2.036,2.153c1.193,0,2.024-0.948,2.024-2.13
				C60.661,348.782,59.776,347.825,58.614,347.825z"/>
			<path fill="#939598" d="M64.802,352.833c-0.789,0-1.662-0.31-2.281-0.808l0.415-0.591c0.599,0.449,1.26,0.705,1.908,0.705
				c0.661,0,1.142-0.343,1.142-0.873v-0.021c0-0.557-0.649-0.769-1.375-0.973c-0.863-0.243-1.823-0.541-1.823-1.556v-0.021
				c0-0.947,0.789-1.576,1.877-1.576c0.67,0,1.417,0.232,1.981,0.604l-0.373,0.619c-0.511-0.33-1.098-0.532-1.632-0.532
				c-0.648,0-1.064,0.34-1.064,0.799v0.021c0,0.521,0.682,0.729,1.419,0.947c0.852,0.256,1.77,0.587,1.77,1.578v0.021
				C66.764,352.227,65.9,352.833,64.802,352.833z"/>
			<path fill="#939598" d="M70.714,352.141c0.756,0,1.29-0.309,1.737-0.778l0.511,0.46c-0.553,0.615-1.224,1.034-2.269,1.034
				c-1.515,0-2.75-1.162-2.75-2.878c0-1.602,1.118-2.881,2.644-2.881c1.63,0,2.569,1.299,2.569,2.92c0,0.076,0,0.16-0.013,0.257
				h-4.371C68.892,351.471,69.745,352.141,70.714,352.141z M72.323,349.668c-0.085-1.001-0.66-1.877-1.759-1.877
				c-0.957,0-1.684,0.798-1.792,1.877H72.323z"/>
			<path fill="#939598" d="M75.7,351.16c0,0.672,0.373,0.918,0.926,0.918c0.278,0,0.511-0.053,0.799-0.191v0.703
				c-0.288,0.148-0.597,0.234-0.991,0.234c-0.884,0-1.554-0.439-1.554-1.558v-3.325h-0.767v-0.728h0.767v-1.664h0.82v1.664h1.748
				v0.728H75.7V351.16z"/>
		</g>
		<g enable-background="new    ">
			<path fill="#939598" d="M398.872,314.303h-2.592v-7.459h2.592c2.345,0,3.963,1.609,3.963,3.719
				C402.835,312.671,401.216,314.303,398.872,314.303z M398.872,307.621h-1.748v5.902h1.748c1.884,0,3.089-1.277,3.089-2.94
				S400.755,307.621,398.872,307.621z"/>
			<path fill="#939598" d="M408.747,306.82h0.691l2.047,6.233l2.133-6.213h0.883l-2.663,7.515h-0.716l-2.047-6.056l-2.059,6.056
				h-0.704l-2.661-7.515h0.914l2.133,6.213L408.747,306.82z"/>
		</g>
		<g enable-background="new    ">
			<path fill="#939598" d="M468.843,382.275l-2.164-2.899h-2.131v2.899h-0.844v-7.461h3.209c1.642,0,2.695,0.885,2.695,2.229
				c0,1.245-0.854,1.97-2.025,2.185l2.293,3.05h-1.033V382.275L468.843,382.275z M466.85,375.594h-2.302v3.026h2.293
				c1.115,0,1.917-0.575,1.917-1.546C468.758,376.146,468.055,375.594,466.85,375.594z"/>
			<path fill="#939598" d="M473.592,381.689c0.755,0,1.29-0.311,1.735-0.779l0.512,0.459c-0.551,0.615-1.225,1.034-2.268,1.034
				c-1.517,0-2.752-1.162-2.752-2.878c0-1.601,1.118-2.879,2.645-2.879c1.629,0,2.568,1.299,2.568,2.92c0,0.075,0,0.157-0.014,0.256
				h-4.367C471.769,381.018,472.624,381.689,473.592,381.689z M475.2,379.217c-0.084-1.001-0.66-1.877-1.756-1.877
				c-0.959,0-1.686,0.799-1.793,1.877H475.2z"/>
			<path fill="#939598" d="M480.336,376.786v0.704h-1.737v4.787h-0.819v-4.787h-0.76v-0.715h0.76v-0.479
				c0-1.207,0.604-1.846,1.661-1.846c0.386,0,0.642,0.043,0.907,0.14v0.715c-0.298-0.088-0.521-0.142-0.8-0.142
				c-0.639,0-0.959,0.388-0.959,1.174v0.447L480.336,376.786L480.336,376.786z"/>
		</g>
		<g enable-background="new    ">
			<path fill="#939598" d="M69.833,195.516c0,1.259-0.767,1.905-1.521,2.233c1.138,0.343,2.057,1,2.057,2.328
				c0,1.657-1.384,2.632-3.48,2.632h-4.262v-9.59h4.083C68.601,193.117,69.833,194.049,69.833,195.516z M68.737,195.665
				c0-0.96-0.753-1.576-2.124-1.576h-2.919v3.302h2.837C67.834,197.392,68.737,196.802,68.737,195.665z M69.271,200.009
				c0-1.055-0.876-1.658-2.548-1.658h-3.028v3.383h3.221C68.367,201.734,69.271,201.091,69.271,200.009z"/>
			<path fill="#939598" d="M75.462,201.954c0.972,0,1.657-0.397,2.233-1l0.657,0.589c-0.713,0.794-1.576,1.33-2.92,1.33
				c-1.943,0-3.532-1.493-3.532-3.699c0-2.056,1.437-3.701,3.396-3.701c2.095,0,3.302,1.672,3.302,3.754c0,0.097,0,0.207-0.013,0.33
				h-5.616C73.12,201.091,74.215,201.954,75.462,201.954z M77.53,198.775c-0.11-1.288-0.851-2.411-2.261-2.411
				c-1.232,0-2.164,1.027-2.3,2.411H77.53z"/>
			<path fill="#939598" d="M86.13,202.707v-1.428c-0.575,0.853-1.411,1.576-2.712,1.576c-1.698,0-3.384-1.342-3.384-3.685
				c0-2.33,1.686-3.701,3.384-3.701c1.315,0,2.166,0.714,2.712,1.509v-4.276h1.055v10.001H86.13V202.707z M83.61,196.419
				c-1.369,0-2.494,1.014-2.494,2.739c0,1.685,1.149,2.754,2.494,2.754c1.314,0,2.562-1.096,2.562-2.754
				C86.172,197.515,84.925,196.419,83.61,196.419z"/>
			<path fill="#939598" d="M90.594,202.707h-1.055v-7.082h1.055v1.849c0.521-1.176,1.549-2.027,2.892-1.972v1.137h-0.082
				c-1.549,0-2.81,1.11-2.81,3.248V202.707z"/>
			<path fill="#939598" d="M98.019,202.873c-2.125,0-3.672-1.673-3.672-3.687c0-2.013,1.562-3.712,3.699-3.712
				c2.125,0,3.684,1.672,3.684,3.686C101.729,201.173,100.154,202.873,98.019,202.873z M98.019,196.406
				c-1.534,0-2.59,1.22-2.59,2.754c0,1.535,1.124,2.768,2.617,2.768c1.534,0,2.602-1.221,2.602-2.741
				C100.647,197.639,99.511,196.406,98.019,196.406z"/>
			<path fill="#939598" d="M106.865,202.873c-2.124,0-3.672-1.673-3.672-3.687c0-2.013,1.562-3.712,3.699-3.712
				c2.124,0,3.685,1.672,3.685,3.686C110.578,201.173,109.003,202.873,106.865,202.873z M106.865,196.406
				c-1.534,0-2.59,1.22-2.59,2.754c0,1.535,1.122,2.768,2.617,2.768c1.534,0,2.603-1.221,2.603-2.741
				C109.496,197.639,108.359,196.406,106.865,196.406z"/>
			<path fill="#939598" d="M120.591,195.473c1.629,0,2.63,1.097,2.63,2.85v4.385h-1.053v-4.138c0-1.369-0.685-2.136-1.837-2.136
				c-1.068,0-1.958,0.793-1.958,2.191v4.083h-1.043v-4.164c0-1.33-0.698-2.11-1.822-2.11c-1.122,0-1.972,0.931-1.972,2.232v4.042
				h-1.053v-7.082h1.053v1.191c0.467-0.698,1.097-1.344,2.287-1.344c1.151,0,1.892,0.617,2.274,1.412
				C118.603,196.104,119.355,195.473,120.591,195.473z"/>
		</g>
		<g enable-background="new    ">
			<path fill="#939598" d="M57.705,209.789h0.793v9.659h-1.067v-8.535l-1.809,0.562l-0.26-0.877L57.705,209.789z"/>
			<path fill="#939598" d="M61.512,212.335l-0.795-0.575c0.863-1.287,1.768-2.039,3.454-2.039c1.739,0,2.974,1.148,2.974,2.725
				c0,1.412-0.739,2.275-2.427,3.74l-2.561,2.272h5.083v0.987h-6.698v-0.836l3.479-3.069c1.468-1.313,2-2.056,2-3.015
				c0-1.121-0.89-1.836-1.932-1.836C62.991,210.691,62.279,211.268,61.512,212.335z"/>
			<path fill="#939598" d="M69.387,209.855h1.287v0.068l-1.107,3.656h-0.591L69.387,209.855z"/>
			<path fill="#939598" d="M76.331,219.611c-2.479,0-4.042-2.247-4.042-4.944c0-2.698,1.588-4.976,4.069-4.976
				c2.467,0,4.028,2.248,4.028,4.945C80.387,217.335,78.798,219.611,76.331,219.611z M76.331,210.68
				c-1.795,0-2.917,1.836-2.917,3.959c0,2.125,1.149,3.987,2.945,3.987c1.795,0,2.904-1.851,2.904-3.959
				C79.263,212.557,78.127,210.68,76.331,210.68z"/>
			<path fill="#939598" d="M82.534,209.855h1.274v0.068l-1.109,3.656h-0.575L82.534,209.855z M85.219,209.855h1.262v0.068
				l-1.109,3.656h-0.575L85.219,209.855z"/>
			<path fill="#939598" d="M98.696,219.445h-1.221l-2.189-2.891l-2.206,2.891h-1.178l2.781-3.604l-2.67-3.479h1.205l2.095,2.74
				l2.097-2.74h1.178l-2.687,3.451L98.696,219.445z"/>
			<path fill="#939598" d="M106.062,209.789h0.793v9.659h-1.067v-8.535l-1.808,0.562l-0.26-0.877L106.062,209.789z"/>
			<path fill="#939598" d="M110.965,209.789h0.794v9.659h-1.066v-8.535l-1.81,0.562l-0.26-0.877L110.965,209.789z"/>
			<path fill="#939598" d="M114.444,209.855h1.286v0.068l-1.108,3.656h-0.59L114.444,209.855z"/>
			<path fill="#939598" d="M117.689,210.829v-0.974h6.123v0.795l-3.014,3.342c1.686,0.137,3.166,0.945,3.166,2.712
				c0,1.728-1.425,2.905-3.206,2.905c-1.602,0-2.794-0.701-3.576-1.715l0.78-0.699c0.74,0.906,1.63,1.428,2.81,1.428
				c1.164,0,2.097-0.74,2.097-1.877c0-1.205-1.098-1.863-2.687-1.863h-0.614l-0.221-0.645l3.028-3.411h-4.688L117.689,210.829
				L117.689,210.829z"/>
			<path fill="#939598" d="M126.195,209.855h1.272v0.068l-1.107,3.656h-0.575L126.195,209.855z M128.878,209.855h1.262v0.068
				l-1.107,3.656h-0.575L128.878,209.855z"/>
		</g>
		<g enable-background="new    ">
			<path fill="#939598" d="M269.629,194.133h1.081v8.59h5.396v1h-6.479L269.629,194.133L269.629,194.133z"/>
			<path fill="#939598" d="M277.957,195.092v-1.164h1.206v1.164H277.957z M278.025,203.725v-7.083h1.053v7.083H278.025z"/>
			<path fill="#939598" d="M286.779,196.641h1.137l-3.082,7.136H283.9l-3.067-7.136h1.165l2.384,5.876L286.779,196.641z"/>
			<path fill="#939598" d="M289.596,195.092v-1.164h1.206v1.164H289.596z M289.665,203.725v-7.083h1.056v7.083H289.665z"/>
			<path fill="#939598" d="M294.225,203.725h-1.052v-7.083h1.052v1.234c0.465-0.768,1.205-1.385,2.426-1.385
				c1.714,0,2.714,1.152,2.714,2.837v4.397h-1.056v-4.14c0-1.314-0.713-2.136-1.959-2.136c-1.22,0-2.125,0.89-2.125,2.218V203.725z"
				/>
			<path fill="#939598" d="M304.745,205.941c-1.181,0-2.274-0.328-3.22-0.984l0.479-0.821c0.809,0.589,1.712,0.904,2.727,0.904
				c1.562,0,2.574-0.863,2.574-2.521v-0.838c-0.615,0.823-1.479,1.493-2.779,1.493c-1.697,0-3.329-1.261-3.329-3.33
				c0-2.081,1.644-3.357,3.329-3.357c1.328,0,2.189,0.659,2.767,1.426v-1.274h1.056v5.85
				C308.35,204.779,306.922,205.941,304.745,205.941z M304.73,197.422c-1.342,0-2.451,0.918-2.451,2.398
				c0,1.452,1.138,2.424,2.451,2.424c1.345,0,2.604-0.958,2.604-2.41C307.336,198.367,306.075,197.422,304.73,197.422z"/>
			<path fill="#939598" d="M316.564,192.791l-6.356,12.688h-0.972l6.354-12.688H316.564z"/>
			<path fill="#939598" d="M321.167,203.725h-3.329v-9.591h3.329c3.015,0,5.094,2.068,5.094,4.782S324.182,203.725,321.167,203.725z
				 M321.167,195.135h-2.247v7.588h2.247c2.424,0,3.972-1.644,3.972-3.779C325.139,196.807,323.59,195.135,321.167,195.135z"/>
			<path fill="#939598" d="M328.396,195.092v-1.164h1.205v1.164H328.396z M328.464,203.725v-7.083h1.054v7.083H328.464z"/>
			<path fill="#939598" d="M333.025,203.725h-1.057v-7.083h1.057v1.234c0.465-0.768,1.203-1.385,2.426-1.385
				c1.712,0,2.71,1.152,2.71,2.837v4.397h-1.056v-4.14c0-1.314-0.711-2.136-1.957-2.136c-1.222,0-2.123,0.89-2.123,2.218V203.725
				L333.025,203.725z"/>
			<path fill="#939598" d="M340.434,195.092v-1.164h1.207v1.164H340.434z M340.504,203.725v-7.083h1.055v7.083H340.504z"/>
			<path fill="#939598" d="M345.062,203.725h-1.054v-7.083h1.054v1.234c0.467-0.768,1.207-1.385,2.426-1.385
				c1.712,0,2.714,1.152,2.714,2.837v4.397h-1.056v-4.14c0-1.314-0.713-2.136-1.959-2.136c-1.221,0-2.123,0.89-2.123,2.218
				L345.062,203.725L345.062,203.725z"/>
			<path fill="#939598" d="M355.583,205.941c-1.179,0-2.274-0.328-3.222-0.984l0.48-0.821c0.807,0.589,1.715,0.904,2.727,0.904
				c1.562,0,2.574-0.863,2.574-2.521v-0.838c-0.615,0.823-1.479,1.493-2.778,1.493c-1.699,0-3.33-1.261-3.33-3.33
				c0-2.081,1.646-3.357,3.33-3.357c1.327,0,2.188,0.659,2.767,1.426v-1.274h1.057v5.85
				C359.188,204.779,357.759,205.941,355.583,205.941z M355.568,197.422c-1.344,0-2.45,0.918-2.45,2.398
				c0,1.452,1.136,2.424,2.45,2.424c1.343,0,2.604-0.958,2.604-2.41C358.172,198.367,356.911,197.422,355.568,197.422z"/>
			<path fill="#939598" d="M372.43,203.725l-2.781-3.728h-2.74v3.728h-1.082v-9.591h4.123c2.111,0,3.467,1.137,3.467,2.864
				c0,1.603-1.096,2.534-2.604,2.808l2.945,3.918H372.43L372.43,203.725z M369.866,195.135h-2.959v3.89h2.946
				c1.438,0,2.467-0.739,2.467-1.987C372.32,195.845,371.417,195.135,369.866,195.135z"/>
			<path fill="#939598" d="M378.646,203.891c-2.125,0-3.672-1.674-3.672-3.688c0-2.013,1.562-3.713,3.699-3.713
				c2.125,0,3.686,1.673,3.686,3.687C382.355,202.189,380.782,203.891,378.646,203.891z M378.646,197.422
				c-1.535,0-2.59,1.22-2.59,2.754c0,1.535,1.123,2.768,2.617,2.768c1.534,0,2.604-1.221,2.604-2.74
				C381.273,198.655,380.139,197.422,378.646,197.422z"/>
			<path fill="#939598" d="M387.493,203.891c-2.125,0-3.673-1.674-3.673-3.688c0-2.013,1.562-3.713,3.699-3.713
				c2.123,0,3.687,1.673,3.687,3.687C391.206,202.189,389.631,203.891,387.493,203.891z M387.493,197.422
				c-1.535,0-2.591,1.22-2.591,2.754c0,1.535,1.123,2.768,2.617,2.768c1.535,0,2.604-1.221,2.604-2.74
				C390.124,198.655,388.986,197.422,387.493,197.422z"/>
			<path fill="#939598" d="M401.219,196.489c1.627,0,2.631,1.097,2.631,2.85v4.386h-1.056v-4.139c0-1.369-0.686-2.136-1.838-2.136
				c-1.065,0-1.957,0.792-1.957,2.191v4.083h-1.043v-4.165c0-1.33-0.697-2.11-1.821-2.11c-1.121,0-1.972,0.931-1.972,2.232v4.042
				h-1.056v-7.083h1.056v1.192c0.467-0.698,1.097-1.344,2.287-1.344c1.151,0,1.892,0.617,2.273,1.413
				C399.229,197.121,399.985,196.489,401.219,196.489z"/>
		</g>
		<g enable-background="new    ">
			<path fill="#939598" d="M299.271,213.352l-0.795-0.576c0.863-1.287,1.771-2.039,3.455-2.039c1.739,0,2.975,1.148,2.975,2.725
				c0,1.412-0.74,2.273-2.428,3.741l-2.562,2.272H305v0.986h-6.699v-0.835l3.48-3.069c1.465-1.313,2-2.056,2-3.013
				c0-1.123-0.893-1.837-1.936-1.837C300.751,211.708,300.042,212.283,299.271,213.352z"/>
			<path fill="#939598" d="M307.477,213.352l-0.793-0.576c0.86-1.287,1.767-2.039,3.451-2.039c1.74,0,2.973,1.148,2.973,2.725
				c0,1.412-0.739,2.273-2.426,3.741l-2.562,2.272h5.083v0.986h-6.698v-0.835l3.479-3.069c1.466-1.313,1.998-2.056,1.998-3.013
				c0-1.123-0.891-1.837-1.934-1.837C308.955,211.708,308.244,212.283,307.477,213.352z"/>
			<path fill="#939598" d="M315.352,210.873h1.289v0.068l-1.109,3.656h-0.59L315.352,210.873z"/>
			<path fill="#939598" d="M321.721,220.6c-2.041,0-3.603-1.108-3.603-2.726c0-1.151,0.819-1.96,1.973-2.371
				c-0.892-0.412-1.646-1.099-1.646-2.22c0-1.491,1.521-2.547,3.272-2.547s3.274,1.054,3.274,2.547c0,1.121-0.756,1.808-1.645,2.22
				c1.135,0.425,1.973,1.205,1.973,2.354C325.324,219.504,323.762,220.6,321.721,220.6z M321.721,216.01
				c-1.396,0-2.506,0.754-2.506,1.836c0,0.985,0.93,1.809,2.506,1.809c1.574,0,2.506-0.822,2.506-1.809
				C324.227,216.766,323.118,216.01,321.721,216.01z M321.721,211.684c-1.246,0-2.189,0.697-2.189,1.67
				c0,1.055,0.974,1.769,2.189,1.769c1.221,0,2.191-0.714,2.191-1.769C323.913,212.393,322.967,211.684,321.721,211.684z"/>
			<path fill="#939598" d="M327.334,210.873h1.273v0.068l-1.107,3.656h-0.575L327.334,210.873z M330.02,210.873h1.264v0.068
				l-1.111,3.656h-0.574L330.02,210.873z"/>
			<path fill="#939598" d="M343.495,220.463h-1.22l-2.192-2.891l-2.202,2.891h-1.178l2.779-3.604l-2.67-3.479h1.203l2.099,2.741
				l2.097-2.741h1.176l-2.685,3.453L343.495,220.463z"/>
			<path fill="#939598" d="M350.864,210.807h0.793v9.658h-1.067v-8.535l-1.808,0.562l-0.263-0.876L350.864,210.807z"/>
			<path fill="#939598" d="M355.766,210.807h0.795v9.658h-1.068v-8.535l-1.809,0.562l-0.262-0.876L355.766,210.807z"/>
			<path fill="#939598" d="M359.245,210.873h1.289v0.068l-1.111,3.656h-0.59L359.245,210.873z"/>
			<path fill="#939598" d="M362.491,211.846v-0.973h6.122v0.794l-3.014,3.342c1.685,0.138,3.164,0.944,3.164,2.712
				c0,1.729-1.427,2.905-3.205,2.905c-1.604,0-2.793-0.7-3.576-1.714l0.783-0.698c0.737,0.905,1.627,1.427,2.808,1.427
				c1.166,0,2.097-0.74,2.097-1.877c0-1.205-1.097-1.863-2.686-1.863h-0.616l-0.222-0.646l3.028-3.411h-4.687v0.002H362.491
				L362.491,211.846z"/>
			<path fill="#939598" d="M370.995,210.873h1.274v0.068l-1.108,3.656h-0.575L370.995,210.873z M373.68,210.873h1.262v0.068
				l-1.109,3.656h-0.573L373.68,210.873z"/>
		</g>
		<g enable-background="new    ">
			<path fill="#939598" d="M361.262,394.711v1.812h2.633v0.842h-7.461v-2.794c0-1.684,0.896-2.791,2.377-2.791
				C360.43,391.78,361.262,393.124,361.262,394.711z M357.212,394.637v1.89h3.281v-1.847c0-1.237-0.66-2.048-1.651-2.048
				C357.766,392.635,357.212,393.434,357.212,394.637z"/>
			<path fill="#939598" d="M359.439,390.176l-0.672,0.243c-0.276-0.605-0.459-1.203-0.459-2.003c0-1.501,0.769-2.345,2.219-2.345
				h3.367v0.79h-0.832c0.502,0.385,0.948,1.024,0.948,1.994c0,1.022-0.575,2.057-1.728,2.057c-1.174,0-1.791-0.958-1.791-2.354
				c0-0.704,0.097-1.204,0.232-1.694h-0.189c-0.991,0-1.502,0.606-1.502,1.642C359.034,389.15,359.206,389.664,359.439,390.176z
				 M362.253,390.079c0.701,0,1.104-0.642,1.104-1.388c0-1.011-0.614-1.843-1.489-1.843h-0.531
				c-0.116,0.403-0.233,0.947-0.233,1.619C361.104,389.504,361.55,390.079,362.253,390.079z"/>
			<path fill="#939598" d="M363.895,383.506v0.82h-5.51v-0.82h0.96c-0.598-0.361-1.077-0.936-1.077-1.884
				c0-1.335,0.896-2.112,2.207-2.112h3.42v0.822h-3.219c-1.021,0-1.662,0.553-1.662,1.523c0,0.946,0.69,1.648,1.727,1.648
				L363.895,383.506L363.895,383.506z"/>
			<path fill="#939598" d="M362.327,376.658c0.672,0,0.918-0.374,0.918-0.928c0-0.277-0.054-0.513-0.192-0.8h0.705
				c0.146,0.287,0.233,0.598,0.233,0.988c0,0.887-0.438,1.559-1.558,1.559h-3.326v0.768h-0.726v-0.768h-1.663v-0.819h1.663v-1.748
				h0.726v1.748H362.327L362.327,376.658z"/>
			<path fill="#939598" d="M363.895,372.643v0.819h-5.51v-0.819h1.438c-0.918-0.405-1.577-1.204-1.534-2.25h0.884v0.062
				c0,1.204,0.862,2.188,2.525,2.188H363.895L363.895,372.643z"/>
			<path fill="#939598" d="M364.077,366.464c1.14,0.468,1.555,1,1.555,1.831c0,0.46-0.096,0.799-0.276,1.174l-0.65-0.278
				c0.139-0.268,0.203-0.513,0.203-0.861c0-0.49-0.256-0.8-1.033-1.129l-5.489,2.505v-0.906l4.595-2.003l-4.595-1.771v-0.871
				L364.077,366.464z"/>
		</g>
	</g>
</g>
</svg>
