<?xml version="1.0" encoding="utf-8"?>
<!-- Generator: Adobe Illustrator 15.0.2, SVG Export Plug-In . SVG Version: 6.00 Build 0)  -->
<!DOCTYPE svg PUBLIC "-//W3C//DTD SVG 1.1//EN" "http://www.w3.org/Graphics/SVG/1.1/DTD/svg11.dtd">
<svg version="1.1" id="Layer_1" xmlns="http://www.w3.org/2000/svg" xmlns:xlink="http://www.w3.org/1999/xlink" x="0px" y="0px"
	 width="500px" height="500px" viewBox="11.011 -146.344 500 500" enable-background="new 11.011 -146.344 500 500"
	 xml:space="preserve">
<g id="_x32_0_x25___PMS_2985_fill" display="none">
	<polygon display="inline" fill="#EBEEEF" points="3.022,18.941 3.022,175.441 106.022,175.441 106.022,205.441 287.522,205.441 
		314.522,179.941 520.021,179.941 520.021,20.941 306.522,20.941 306.522,9.941 170.522,9.941 170.522,19.941 	"/>
</g>
<g>
	<g id="_x32_0_x25__grey_fill">
		<rect x="381.858" y="24.157" fill="#D1D3D4" width="46.755" height="4.423"/>
		<rect x="294.35" y="23.841" fill="#D1D3D4" width="17.374" height="4.707"/>
		<rect x="176.356" y="16.259" fill="#D1D3D4" width="46.913" height="11.847"/>
		<rect x="88.928" y="23.13" fill="#D1D3D4" width="18.007" height="5.923"/>
		<rect x="499.06" y="22.577" fill="#D1D3D4" width="6.635" height="6.013"/>
		<polygon fill="#D1D3D4" points="297.667,190.879 297.667,169.318 337.709,169.318 337.709,175.478 312.12,175.478 		"/>
		<polygon fill="#D1D3D4" points="367.089,175.953 367.089,169.793 435.799,169.793 435.799,158.656 461.15,158.656 461.15,170.029 
			505.931,170.029 505.931,175.717 		"/>
	</g>
	<g id="icons">
		<polygon fill="#FFFFFF" stroke="#939598" points="181.728,123.037 181.728,181.008 229.818,181.008 229.818,198.857 
			162.773,198.857 162.773,122.406 		"/>
		<g>
			<polygon fill="none" stroke="#939598" points="107.957,122.006 109.519,122.054 109.534,144.588 107.95,144.599 			"/>
			<path fill="none" stroke="#939598" d="M108.664,144.617c12.428-0.42,22.161-10.658,21.737-23.086"/>
		</g>
		<g>
			<polygon fill="none" stroke="#939598" points="364.062,176.31 362.479,176.322 362.465,153.75 364.086,153.736 			"/>
			<path fill="none" stroke="#939598" d="M363.395,153.719c-12.43,0.42-22.16,10.699-21.737,23.125"/>
		</g>
		<g>
			<polygon fill="none" stroke="#939598" points="382.03,104.947 382.039,103.444 403.483,103.427 403.476,104.932 			"/>
			<path fill="none" stroke="#939598" d="M403.492,104.254c-0.401-11.806-10.106-21.052-21.911-20.649"/>
		</g>
		<g>
			<polygon fill="none" stroke="#939598" points="177.055,112.709 177.046,111.205 155.602,111.189 155.609,112.695 			"/>
			<path fill="none" stroke="#939598" d="M155.592,112.017c0.402-11.808,10.106-21.054,21.913-20.65"/>
		</g>
		<g>
			<polygon fill="none" stroke="#939598" points="382.33,119.248 382.323,120.752 360.879,120.765 360.886,119.261 			"/>
			<path fill="none" stroke="#939598" d="M360.869,119.939c0.401,11.807,10.106,21.055,21.913,20.648"/>
		</g>
		<g>
			<polygon fill="none" stroke="#939598" points="293.931,169.773 292.665,169.785 292.652,151.724 293.952,151.715 			"/>
			<path fill="none" stroke="#939598" d="M293.398,151.701c-9.943,0.338-17.729,8.559-17.391,18.5"/>
		</g>
		<g>
			<polygon fill="none" stroke="#939598" points="35.14,122.312 36.702,122.363 36.717,144.894 35.132,144.906 			"/>
			<path fill="none" stroke="#939598" d="M35.847,144.924c12.427-0.422,22.161-10.658,21.737-23.086"/>
		</g>
		<g>
			<polygon fill="none" stroke="#939598" points="389.684,111.422 391.246,111.47 391.261,134.004 389.676,134.015 			"/>
			<path fill="none" stroke="#939598" d="M390.391,134.033c12.426-0.42,22.161-10.658,21.737-23.084"/>
		</g>
		<g>
			<polygon fill="none" stroke="#939598" points="466.597,111.344 468.159,111.392 468.174,133.926 466.589,133.937 			"/>
			<path fill="none" stroke="#939598" d="M467.304,133.955c12.428-0.42,22.16-10.658,21.738-23.086"/>
		</g>
		<polyline fill="#FFFFFF" stroke="#939598" points="411.711,169.32 411.711,151.728 383.28,151.728 383.28,169.793 		"/>
		<line fill="none" stroke="#939598" x1="310.462" y1="135.99" x2="310.462" y2="169.16"/>
		<rect x="207.158" y="125.881" fill="#FFFFFF" stroke="#939598" width="51.494" height="21.166"/>
		<polyline fill="none" stroke="#939598" points="25.903,123.828 25.903,160.314 68.788,160.314 68.788,123.828 		"/>
		<polyline fill="#FFFFFF" stroke="#939598" points="162.457,154.392 144.915,154.392 144.915,123.353 161.983,123.353 		"/>
		<line fill="none" stroke="#939598" x1="19.269" y1="29.915" x2="176.83" y2="29.915"/>
		<line fill="none" stroke="#939598" x1="498.35" y1="29.764" x2="311.172" y2="29.764"/>
		<g>
			<polygon fill="none" stroke="#939598" points="319.035,164.597 319.044,163.094 340.488,163.08 340.479,164.584 			"/>
			<path fill="none" stroke="#939598" d="M340.497,163.906c-0.401-11.807-10.106-21.053-21.912-20.648"/>
		</g>
		<polyline fill="none" stroke="#939598" stroke-dasharray="1.5,1.5,1.5,1.5,1.5,1.5" points="24.162,123.353 24.162,162.084 
			70.32,162.084 70.32,123.353 		"/>
		
			<line fill="none" stroke="#939598" stroke-dasharray="1.5,1.5,1.5,1.5,1.5,1.5" x1="308.566" y1="135.674" x2="308.566" y2="169.556"/>
		<polyline fill="none" stroke="#939598" points="495.743,112.9 495.743,157.472 462.335,157.472 		"/>
		<polyline fill="none" stroke="#939598" stroke-dasharray="1.5,1.5,1.5,1.5,1.5,1.5" points="462.099,159.463 497.536,159.463 
			497.536,113.402 		"/>
		<g>
			<rect x="257.924" y="21.698" fill="none" stroke="#939598" width="35.54" height="1.429"/>
			<rect x="227.359" y="23.112" fill="none" stroke="#939598" width="38.857" height="1.431"/>
		</g>
		<g>
			<rect x="301.695" y="14.536" fill="none" stroke="#939598" width="2.725" height="2.725"/>
			<line fill="none" stroke="#939598" x1="301.932" y1="16.55" x2="222.44" y2="16.55"/>
			<line fill="none" stroke="#939598" x1="301.695" y1="17.26" x2="301.695" y2="23.589"/>
			<line fill="none" stroke="#939598" x1="222.44" y1="14.536" x2="302.169" y2="14.536"/>
			<line fill="none" stroke="#939598" x1="304.42" y1="17.26" x2="304.42" y2="23.604"/>
		</g>
		<g>
			<path fill="#FFFFFF" stroke="#939598" stroke-miterlimit="10" d="M101.378,156.816c0-4.229-2.57-8.885-5.737-8.885
				c-3.167,0-5.726,4.656-5.726,8.885c0,4.23,2.558,6.432,5.726,6.432C98.809,163.248,101.378,161.047,101.378,156.816"/>
			<path fill="#FFFFFF" stroke="#939598" d="M101.378,156.816c0-4.229-2.57-8.885-5.737-8.885c-3.167,0-5.726,4.656-5.726,8.885
				c0,4.23,2.558,6.432,5.726,6.432C98.809,163.248,101.378,161.047,101.378,156.816z"/>
			<path fill="#FFFFFF" stroke="#939598" stroke-miterlimit="10" d="M92.208,161.861c0-0.238-0.194-0.432-0.431-0.432H89.78
				c-0.237,0-0.432,0.193-0.432,0.432v0.072c0,0.238,0.194,0.432,0.432,0.432h1.997c0.237,0,0.431-0.193,0.431-0.432V161.861z"/>
			<path fill="#FFFFFF" stroke="#939598" d="M92.208,161.861c0-0.238-0.194-0.432-0.431-0.432H89.78
				c-0.237,0-0.432,0.193-0.432,0.432v0.072c0,0.238,0.194,0.432,0.432,0.432h1.997c0.237,0,0.431-0.193,0.431-0.432V161.861z"/>
			<path fill="#FFFFFF" stroke="#939598" stroke-miterlimit="10" d="M89.045,162.377c-0.718,0-1.303,1.949-1.303,2.668
				c0,0.729,0.585,2.676,1.303,2.676h13.092c0.721,0,1.303-1.949,1.303-2.676c0-0.721-0.583-2.666-1.303-2.666L89.045,162.377z"/>
			<path fill="#FFFFFF" stroke="#939598" d="M89.045,162.377c-0.718,0-1.303,1.949-1.303,2.668c0,0.729,0.585,2.676,1.303,2.676
				h13.092c0.721,0,1.303-1.949,1.303-2.676c0-0.721-0.583-2.666-1.303-2.666L89.045,162.377z"/>
			<path fill="#FFFFFF" stroke="#939598" stroke-miterlimit="10" d="M99.859,156.64c0-3.109-1.888-6.535-4.216-6.535
				c-2.329,0-4.215,3.424-4.215,6.535c0,3.105,1.886,4.723,4.215,4.723C97.971,161.363,99.859,159.748,99.859,156.64"/>
			<path fill="#FFFFFF" stroke="#939598" d="M99.859,156.64c0-3.109-1.888-6.535-4.216-6.535c-2.329,0-4.215,3.424-4.215,6.535
				c0,3.105,1.886,4.723,4.215,4.723C97.971,161.363,99.859,159.748,99.859,156.64z"/>
		</g>
		<g>
			<g>
				<rect x="118.149" y="175.713" fill="#FFFFFF" stroke="#939598" width="43.305" height="22.391"/>
				<path fill="#FFFFFF" stroke="#939598" d="M139.802,186.908"/>
				<path fill="#FFFFFF" stroke="#939598" d="M139.95,186.908"/>
				<path fill="#FFFFFF" stroke="#939598" d="M154.634,186.908"/>
			</g>
			<circle fill="#FFFFFF" stroke="#939598" cx="151.584" cy="186.802" r="0.919"/>
			<path fill="#FFFFFF" stroke="#939598" d="M120.622,186.84c0,6.416,1.48,8.766,3.556,8.766c0,0,31.123,0,31.631,0
				c0.507,0,1.556-0.139,1.556-1.48c0-1.344,0-7.285,0-7.285v-0.018c0,0,0-5.941,0-7.285c0-1.342-1.047-1.48-1.556-1.48
				s-31.611,0-31.611,0l-0.02,0.002C122.102,178.058,120.622,180.463,120.622,186.84z"/>
			<path fill="#FFFFFF" stroke="#939598" d="M158.975,188.726c-0.521-0.002-0.937,0.418-0.937,0.945c0,0.508,0.416,0.93,0.937,0.934
				c0.516-0.004,0.942-0.426,0.942-0.934C159.917,189.144,159.496,188.724,158.975,188.726z"/>
			<path fill="#FFFFFF" stroke="#939598" d="M158.975,182.908c-0.521-0.006-0.937,0.422-0.937,0.938s0.416,0.938,0.937,0.938
				c0.516,0,0.942-0.422,0.936-0.938C159.917,183.328,159.491,182.908,158.975,182.908z"/>
			<path fill="#FFFFFF" stroke="#939598" d="M159.252,188.066c0.77,0,1.392-0.521,1.394-1.289c-0.002-0.77-0.624-1.189-1.394-1.189
				l-5.3,0.494c-0.52,0-0.52,1.404,0,1.404L159.252,188.066z"/>
		</g>
		<g>
			<path fill="#FFFFFF" stroke="#939598" stroke-miterlimit="10" d="M429.118,156.965c0-4.229-2.569-8.887-5.736-8.887
				s-5.726,4.658-5.726,8.887c0,4.23,2.559,6.43,5.726,6.43S429.118,161.195,429.118,156.965"/>
			<path fill="#FFFFFF" stroke="#939598" d="M429.118,156.965c0-4.229-2.569-8.887-5.736-8.887s-5.726,4.658-5.726,8.887
				c0,4.23,2.559,6.43,5.726,6.43S429.118,161.195,429.118,156.965z"/>
			<path fill="#FFFFFF" stroke="#939598" stroke-miterlimit="10" d="M419.948,162.01c0-0.236-0.194-0.432-0.432-0.432h-1.995
				c-0.237,0-0.432,0.195-0.432,0.432v0.074c0,0.236,0.194,0.428,0.432,0.428h1.995c0.237,0,0.432-0.191,0.432-0.428V162.01z"/>
			<path fill="#FFFFFF" stroke="#939598" d="M419.948,162.01c0-0.236-0.194-0.432-0.432-0.432h-1.995
				c-0.237,0-0.432,0.195-0.432,0.432v0.074c0,0.236,0.194,0.428,0.432,0.428h1.995c0.237,0,0.432-0.191,0.432-0.428V162.01z"/>
			<path fill="#FFFFFF" stroke="#939598" stroke-miterlimit="10" d="M416.785,162.525c-0.719,0-1.304,1.949-1.304,2.666
				c0,0.73,0.585,2.678,1.304,2.678h13.092c0.721,0,1.304-1.949,1.304-2.678c0-0.719-0.583-2.666-1.304-2.666H416.785z"/>
			<path fill="#FFFFFF" stroke="#939598" d="M416.785,162.525c-0.719,0-1.304,1.949-1.304,2.666c0,0.73,0.585,2.678,1.304,2.678
				h13.092c0.721,0,1.304-1.949,1.304-2.678c0-0.719-0.583-2.666-1.304-2.666H416.785z"/>
			<path fill="#FFFFFF" stroke="#939598" stroke-miterlimit="10" d="M427.599,156.789c0-3.107-1.889-6.535-4.217-6.535
				s-4.215,3.426-4.215,6.535c0,3.107,1.887,4.723,4.215,4.723S427.599,159.896,427.599,156.789"/>
			<path fill="#FFFFFF" stroke="#939598" d="M427.599,156.789c0-3.107-1.889-6.535-4.217-6.535s-4.215,3.426-4.215,6.535
				c0,3.107,1.887,4.723,4.215,4.723S427.599,159.896,427.599,156.789z"/>
		</g>
		<g>
			<g>
				<g>
					<rect x="436.391" y="112.818" fill="#FFFFFF" stroke="#939598" width="23.214" height="44.307"/>
					<path fill="#FFFFFF" stroke="#939598" d="M448.017,135.564"/>
				</g>
				<g>
					<polyline fill="#FFFFFF" stroke="#939598" points="448.242,155.773 457.521,155.773 457.521,114.482 438.477,114.482 
						438.477,155.773 447.386,155.773 					"/>
					<path fill="#FFFFFF" stroke="#939598" d="M448.017,135.564"/>
				</g>
				<line fill="none" stroke="#939598" x1="438.477" y1="155.773" x2="447.375" y2="136.439"/>
				<line fill="none" stroke="#939598" x1="448.691" y1="134.715" x2="457.521" y2="114.482"/>
				<line fill="none" stroke="#939598" x1="438.477" y1="114.482" x2="447.288" y2="134.615"/>
				<line fill="none" stroke="#939598" x1="448.714" y1="136.47" x2="457.521" y2="155.773"/>
				<g>
					<path fill="#FFFFFF" stroke="#939598" d="M449.01,135.564c0-0.568-0.557-1.027-0.993-1.027c-0.436,0-0.926,0.459-0.926,1.027
						c0,0.566,0.49,1.027,0.926,1.027C448.453,136.592,449.01,136.131,449.01,135.564z"/>
					<path fill="#FFFFFF" stroke="#939598" d="M448.017,135.564"/>
				</g>
			</g>
			<path fill="#FFFFFF" stroke="#939598" d="M448.979,154.26c0-0.584-2.114-0.584-2.114,0s0.474,1.057,1.056,1.057
				C448.507,155.316,448.979,154.844,448.979,154.26z"/>
			<polyline fill="#FFFFFF" stroke="#939598" points="447.703,157.404 447.703,155.381 448.292,155.381 448.292,157.406 			"/>
		</g>
		<g>
			<g>
				<g>
					<g>
						<rect x="274.261" y="172.849" fill="#FFFFFF" stroke="#939598" width="19.132" height="17.576"/>
						<path fill="#FFFFFF" stroke="#939598" d="M283.827,181.054"/>
						<polyline fill="#FFFFFF" stroke="#939598" points="289.632,178.094 289.632,175.42 287.321,174.799 280.243,174.799 
							277.903,175.42 277.903,178.094 						"/>
						<line fill="none" stroke="#939598" x1="274.122" y1="178.094" x2="293.393" y2="178.094"/>
						<path fill="#FFFFFF" stroke="#939598" d="M283.768,180.158"/>
					</g>
				</g>
			</g>
			<polygon fill="#FFFFFF" stroke="#939598" points="275.191,176.941 276.737,176.937 277.076,178.015 274.851,178.021 			"/>
		</g>
		<g>
			<g>
				<path fill="#FFFFFF" stroke="#939598" d="M203.067,196.802c-0.404,0-0.73-0.326-0.73-0.73v-12.74
					c0-0.406,0.328-0.732,0.73-0.732h21.615c0.403,0,0.73,0.328,0.73,0.732v12.74c0,0.406-0.327,0.73-0.73,0.73H203.067z"/>
				<path fill="#FFFFFF" stroke="#939598" d="M213.797,190.252"/>
			</g>
			<g>
				<circle fill="#FFFFFF" stroke="#939598" cx="213.797" cy="189.388" r="0.826"/>
				<path fill="#FFFFFF" stroke="#939598" d="M213.797,189.39"/>
			</g>
			<g>
				<g>
					<rect x="210.192" y="194.57" fill="#FFFFFF" stroke="#939598" width="7.211" height="1.725"/>
					<path fill="#FFFFFF" stroke="#939598" d="M213.797,195.433"/>
				</g>
				<g>
					<rect x="213.43" y="191.217" fill="#FFFFFF" stroke="#939598" width="0.736" height="3.398"/>
					<path fill="#FFFFFF" stroke="#939598" d="M213.797,193.135"/>
				</g>
				<g>
					<circle fill="#FFFFFF" stroke="#939598" cx="213.797" cy="195.416" r="0.803"/>
					<path fill="#FFFFFF" stroke="#939598" d="M213.797,195.416"/>
				</g>
			</g>
			<g>
				<path fill="#FFFFFF" stroke="#939598" d="M213.797,189.39"/>
				<path fill="none" stroke="#939598" d="M213.353,193.974h-9.087c-0.424,0-0.769-0.344-0.769-0.768v-8.74
					c0-0.422,0.344-0.768,0.769-0.768h19.219c0.423,0,0.769,0.344,0.769,0.768v8.74c0,0.422-0.344,0.768-0.769,0.768h-9.218"/>
			</g>
		</g>
		<g>
			<polyline fill="none" stroke="#939598" stroke-dasharray="1.5,1,1.5,1,1.5,1" points="199.463,180.359 199.463,196.449 
				183.685,196.449 183.685,180.722 			"/>
			<polyline fill="#FFFFFF" stroke="#939598" points="183.662,180.722 183.662,179.765 199.463,179.765 199.463,180.353 			"/>
		</g>
		<g>
			<g>
				<rect x="164.712" y="144.576" fill="#FFFFFF" stroke="#939598" width="18.718" height="22.035"/>
				<path fill="#FFFFFF" stroke="#939598" d="M174.071,155.594"/>
			</g>
			<g>
				<g>
					<circle fill="#FFFFFF" stroke="#939598" cx="179.284" cy="160.632" r="2.677"/>
					<path fill="#FFFFFF" stroke="#939598" d="M179.284,160.631"/>
				</g>
				<g>
					<circle fill="#FFFFFF" stroke="#939598" stroke-width="0.8" cx="179.283" cy="160.658" r="1.885"/>
					<path fill="#FFFFFF" stroke="#939598" d="M179.284,160.66"/>
				</g>
			</g>
			<g>
				<g>
					<circle fill="#FFFFFF" stroke="#939598" cx="171.465" cy="149.934" r="2.677"/>
					<path fill="#FFFFFF" stroke="#939598" d="M171.465,149.935"/>
				</g>
				<g>
					<circle fill="#FFFFFF" stroke="#939598" stroke-width="0.8" cx="171.464" cy="149.908" r="1.885"/>
					<path fill="#FFFFFF" stroke="#939598" d="M171.465,149.908"/>
				</g>
			</g>
			<g>
				<g>
					<circle fill="#FFFFFF" stroke="#939598" cx="171.492" cy="160.668" r="3.051"/>
					<path fill="#FFFFFF" stroke="#939598" d="M171.492,160.668"/>
				</g>
				<g>
					<circle fill="#FFFFFF" stroke="#939598" stroke-width="0.8" cx="171.492" cy="160.637" r="2.149"/>
					<path fill="#FFFFFF" stroke="#939598" d="M171.492,160.638"/>
				</g>
			</g>
			<g>
				<g>
					<circle fill="#FFFFFF" stroke="#939598" cx="179.49" cy="149.947" r="3.051"/>
					<path fill="#FFFFFF" stroke="#939598" d="M179.49,149.947"/>
				</g>
				<g>
					<circle fill="#FFFFFF" stroke="#939598" stroke-width="0.8" cx="179.49" cy="149.917" r="2.149"/>
					<path fill="#FFFFFF" stroke="#939598" d="M179.49,149.916"/>
				</g>
			</g>
			<line fill="none" stroke="#939598" x1="167.302" y1="166.64" x2="167.302" y2="144.576"/>
			<line fill="none" stroke="#939598" x1="166.268" y1="166.611" x2="166.268" y2="144.576"/>
		</g>
		<g>
			<g>
				<rect x="231.021" y="176.521" fill="#FFFFFF" stroke="#939598" width="23.6" height="20.82"/>
				<path fill="#FFFFFF" stroke="#939598" d="M244.042,186.931"/>
			</g>
			<line fill="none" stroke="#939598" x1="230.965" y1="177.978" x2="254.622" y2="177.978"/>
			<rect x="250.739" y="175.494" fill="#FFFFFF" stroke="#939598" width="1.913" height="1.014"/>
			<path fill="#FFFFFF" stroke="#939598" d="M251.696,176.056"/>
		</g>
		<g>
			<polyline fill="#FFFFFF" stroke="#939598" points="267.478,176.912 269.215,176.912 269.215,197.603 255.79,197.603 
				255.79,176.912 257.526,176.912 			"/>
			<g>
				<g>
					<g>
						<polygon fill="none" stroke="#939598" stroke-width="0.7" points="262.417,168.492 263.604,169.142 258.667,177.287 
							257.48,176.636 						"/>
						<path fill="none" stroke="#939598" stroke-width="0.8" d="M259.64,173.549"/>
					</g>
					<path fill="none" stroke="#939598" stroke-width="0.8" d="M262.871,168.883c3.035,1.838,4.668,5.113,4.56,8.424"/>
				</g>
			</g>
		</g>
		<polyline fill="none" stroke="#939598" stroke-dasharray="1.5,1.5,1.5,1.5,1.5,1.5" points="173.83,123.037 173.83,180.533 
			182.123,188.826 256.44,188.826 		"/>
		<g>
			<g>
				<g>
					<path fill="none" stroke="#939598" d="M397.826,158.685"/>
				</g>
				<g>
					<path fill="none" stroke="#939598" d="M397.826,159.693"/>
				</g>
				<g>
					<circle fill="none" stroke="#939598" cx="397.826" cy="158.686" r="0.964"/>
					<path fill="none" stroke="#939598" d="M397.826,158.685"/>
				</g>
				<g>
					<g>
						<rect x="393.783" y="164.728" fill="none" stroke="#939598" width="8.106" height="2.014"/>
						<path fill="none" stroke="#939598" d="M397.826,165.734"/>
					</g>
					<g>
						<rect x="397.396" y="160.818" fill="none" stroke="#939598" width="0.859" height="3.818"/>
						<path fill="none" stroke="#939598" d="M397.826,163.054"/>
					</g>
					<g>
						<circle fill="none" stroke="#939598" cx="397.826" cy="165.716" r="0.935"/>
						<path fill="none" stroke="#939598" d="M397.826,165.715"/>
					</g>
				</g>
			</g>
			<g>
				<rect x="389.745" y="153.9" fill="none" stroke="#939598" width="16.184" height="13.148"/>
				<rect x="391.064" y="155.22" fill="none" stroke="#939598" width="13.51" height="9.457"/>
			</g>
		</g>
		<g>
			<g>
				<g>
					<path fill="none" stroke="#939598" d="M151.797,138.738"/>
				</g>
				<g>
					<path fill="none" stroke="#939598" d="M152.803,138.738"/>
				</g>
				<g>
					<circle fill="none" stroke="#939598" cx="151.797" cy="138.739" r="0.964"/>
					<path fill="none" stroke="#939598" d="M151.797,138.738"/>
				</g>
				<g>
					<g>
						<rect x="157.838" y="134.676" fill="none" stroke="#939598" width="2.014" height="8.105"/>
						<path fill="none" stroke="#939598" d="M158.845,138.738"/>
					</g>
					<g>
						<rect x="153.929" y="138.31" fill="none" stroke="#939598" width="3.82" height="0.857"/>
						<path fill="none" stroke="#939598" d="M156.165,138.738"/>
					</g>
					<g>
						<circle fill="none" stroke="#939598" cx="158.826" cy="138.739" r="0.935"/>
						<path fill="none" stroke="#939598" d="M158.826,138.738"/>
					</g>
				</g>
			</g>
			<g>
				<rect x="147.011" y="130.636" fill="none" stroke="#939598" width="13.15" height="16.184"/>
				<rect x="148.333" y="131.992" fill="none" stroke="#939598" width="9.458" height="13.51"/>
			</g>
		</g>
	</g>
	<g id="walls">
		<polyline fill="none" stroke="#939598" stroke-width="5" points="176.83,23.58 16.011,23.624 16.011,171.056 115.921,171.056 
			115.921,200.314 288.032,200.314 312.515,175.951 341.857,175.951 		"/>
		<line fill="none" stroke="#939598" stroke-width="3" x1="229.284" y1="23.571" x2="223.269" y2="23.572"/>
		<polyline fill="none" stroke="#939598" stroke-width="5" points="364.105,175.951 506.011,175.951 506.011,23.525 289.617,23.561 
					"/>
		<line fill="none" stroke="#939598" stroke-width="3" x1="381.858" y1="140.527" x2="381.858" y2="169.476"/>
		<line fill="none" stroke="#939598" stroke-width="3" x1="381.858" y1="104.857" x2="381.858" y2="119.248"/>
		<line fill="none" stroke="#939598" stroke-width="3" x1="381.858" y1="24.157" x2="381.858" y2="83.946"/>
		<path fill="none" stroke="#939598" stroke-width="3" d="M499.06,22.577c0,0.948,0,6.278,0,6.278h6.635"/>
		<polyline fill="none" stroke="#939598" stroke-width="3" points="428.613,23.21 428.613,28.58 382.173,28.58 		"/>
		<line fill="none" stroke="#939598" stroke-width="3" x1="319.308" y1="164.738" x2="319.308" y2="169.793"/>
		<polyline fill="none" stroke="#939598" stroke-width="3" points="297.824,190.328 297.824,135.674 319.308,135.674 
			319.228,143.492 		"/>
		<line fill="none" stroke="#939598" stroke-width="3" x1="389.754" y1="111.715" x2="381.542" y2="111.715"/>
		<line fill="none" stroke="#939598" stroke-width="3" x1="466.521" y1="111.715" x2="412.045" y2="111.744"/>
		<line fill="none" stroke="#939598" stroke-width="3" x1="505.694" y1="111.715" x2="488.647" y2="111.715"/>
		<polyline fill="none" stroke="#939598" stroke-width="3" points="460.906,111.347 460.906,170.424 505.378,170.424 		"/>
		<polyline fill="none" stroke="#939598" stroke-width="3" points="459.806,158.49 437.334,158.49 437.232,170.058 367.325,170.037 
			367.325,175.164 		"/>
		<polyline fill="none" stroke="#939598" stroke-width="3" points="294.033,169.506 336.998,169.476 336.998,175.795 		"/>
		<polyline fill="none" stroke="#939598" stroke-width="3" points="271.288,199.804 271.288,169.672 276.321,169.638 		"/>
		<line fill="none" stroke="#939598" stroke-width="3" x1="130.391" y1="122.547" x2="185.991" y2="122.547"/>
		<line fill="none" stroke="#939598" stroke-width="3" x1="57.416" y1="122.547" x2="108.248" y2="122.547"/>
		<line fill="none" stroke="#939598" stroke-width="3" x1="16.031" y1="122.547" x2="34.985" y2="122.547"/>
		<line fill="none" stroke="#939598" stroke-width="3" x1="176.83" y1="91.367" x2="176.83" y2="23.841"/>
		<line fill="none" stroke="#939598" stroke-width="3" x1="176.83" y1="122.406" x2="176.83" y2="112.691"/>
		<line fill="none" stroke="#939598" stroke-width="3" x1="162.909" y1="121.773" x2="162.909" y2="199.172"/>
		<line fill="none" stroke="#939598" stroke-width="3" x1="78.897" y1="122.09" x2="78.897" y2="171.056"/>
		<polyline fill="none" stroke="#939598" stroke-width="3" points="177.845,23.526 177.857,28.264 223.281,28.264 223.281,23.999 		
			"/>
		<polyline fill="none" stroke="#939598" stroke-width="5" points="224.217,24.893 224.217,16.442 176.841,16.442 176.929,24.423 		
			"/>
		<polyline fill="none" stroke="#939598" stroke-width="3" points="294.35,23.841 294.35,28.833 311.724,28.833 311.724,24.473 		
			"/>
		<polyline fill="none" stroke="#939598" stroke-width="3" points="89.639,24.157 89.639,28.264 106.381,28.264 106.381,24.789 		
			"/>
		<line fill="none" stroke="#939598" stroke-width="4" x1="18.558" y1="30.301" x2="18.558" y2="24.789"/>
	</g>
	<g id="windows">
		<g>
			<g>
				<rect x="21.204" y="21.789" fill="#FFFFFF" stroke="#939598" width="65.927" height="3.481"/>
				<line fill="none" stroke="#939598" x1="87.132" y1="23.51" x2="20.494" y2="23.51"/>
				<line fill="none" stroke="#939598" stroke-width="2" x1="65.643" y1="25.421" x2="65.643" y2="22.109"/>
			</g>
			<line fill="none" stroke="#939598" stroke-width="2" x1="43.476" y1="25.539" x2="43.476" y2="22.125"/>
		</g>
		<g>
			<g>
				<rect x="108.397" y="21.692" fill="#FFFFFF" stroke="#939598" width="65.926" height="3.483"/>
				<line fill="none" stroke="#939598" x1="174.323" y1="23.416" x2="107.686" y2="23.416"/>
				<line fill="none" stroke="#939598" stroke-width="2" x1="152.835" y1="25.323" x2="152.835" y2="22.013"/>
			</g>
			<line fill="none" stroke="#939598" stroke-width="2" x1="130.669" y1="25.442" x2="130.669" y2="22.03"/>
		</g>
		<g>
			<g>
				<rect x="313.897" y="21.789" fill="#FFFFFF" stroke="#939598" width="65.926" height="3.481"/>
				<line fill="none" stroke="#939598" x1="379.825" y1="23.513" x2="313.187" y2="23.513"/>
				<line fill="none" stroke="#939598" stroke-width="2" x1="358.336" y1="25.421" x2="358.336" y2="22.109"/>
			</g>
			<line fill="none" stroke="#939598" stroke-width="2" x1="336.169" y1="25.539" x2="336.169" y2="22.126"/>
		</g>
		<g>
			<g>
				<rect x="430.994" y="21.738" fill="#FFFFFF" stroke="#939598" width="65.926" height="3.482"/>
				<line fill="none" stroke="#939598" x1="496.921" y1="23.461" x2="430.283" y2="23.461"/>
				<line fill="none" stroke="#939598" stroke-width="2" x1="475.433" y1="25.37" x2="475.433" y2="22.058"/>
			</g>
			<line fill="none" stroke="#939598" stroke-width="2" x1="453.266" y1="25.489" x2="453.266" y2="22.074"/>
		</g>
	</g>
	<g id="Type">
		<g enable-background="new    ">
			<path fill="#939598" d="M241.925,11.91c-0.697,0-1.142-0.345-1.434-0.824l0.378-0.325c0.286,0.431,0.578,0.663,1.062,0.663
				c0.524,0,0.909-0.377,0.909-1.115V7.198h0.532v3.106C243.372,11.372,242.755,11.91,241.925,11.91z"/>
			<path fill="#939598" d="M246.961,8.411h0.504v3.432h-0.504v-0.597c-0.232,0.371-0.585,0.67-1.175,0.67
				c-0.83,0-1.314-0.558-1.314-1.375V8.411h0.511v2.005c0,0.638,0.345,1.036,0.949,1.036c0.584,0,1.029-0.431,1.029-1.076
				L246.961,8.411L246.961,8.411z"/>
			<path fill="#939598" d="M248.658,11.844V6.998h0.511v4.845H248.658z"/>
			<path fill="#939598" d="M250.369,7.662V7.097h0.584v0.564H250.369z M250.402,11.844V8.411h0.511v3.432H250.402z"/>
			<path fill="#939598" d="M253.614,11.479c0.471,0,0.804-0.192,1.083-0.486l0.318,0.286c-0.345,0.384-0.763,0.644-1.414,0.644
				c-0.943,0-1.713-0.724-1.713-1.792c0-0.997,0.697-1.793,1.646-1.793c1.015,0,1.6,0.81,1.6,1.818c0,0.047,0,0.1-0.007,0.159
				h-2.721C252.479,11.06,253.01,11.479,253.614,11.479z M254.617,9.939c-0.053-0.624-0.411-1.169-1.096-1.169
				c-0.597,0-1.048,0.498-1.115,1.169H254.617z"/>
			<path fill="#939598" d="M256.718,10.868c0,0.418,0.232,0.572,0.577,0.572c0.172,0,0.318-0.033,0.498-0.12v0.438
				c-0.179,0.093-0.372,0.146-0.617,0.146c-0.552,0-0.968-0.273-0.968-0.97V8.863h-0.478V8.411h0.478V7.376h0.511v1.036h1.089v0.453
				h-1.089V10.868z"/>
			<path fill="#939598" d="M264.276,8.359c0,0.611-0.372,0.923-0.737,1.082c0.551,0.166,0.996,0.484,0.996,1.128
				c0,0.803-0.67,1.274-1.686,1.274h-2.064V7.198h1.977C263.678,7.198,264.276,7.648,264.276,8.359z M263.745,8.432
				c0-0.464-0.365-0.765-1.029-0.765h-1.413v1.601h1.374C263.308,9.268,263.745,8.983,263.745,8.432z M264.004,10.535
				c0-0.511-0.424-0.803-1.234-0.803h-1.468v1.639h1.56C263.565,11.372,264.004,11.06,264.004,10.535z"/>
			<path fill="#939598" d="M265.687,9.069l-0.151-0.418c0.377-0.172,0.749-0.285,1.247-0.285c0.935,0,1.461,0.478,1.461,1.381v2.097
				h-0.493v-0.518c-0.239,0.312-0.638,0.591-1.241,0.591c-0.637,0-1.281-0.358-1.281-1.076c0-0.731,0.597-1.116,1.466-1.116
				c0.438,0,0.751,0.06,1.056,0.146V9.753c0-0.617-0.378-0.936-1.022-0.936C266.324,8.817,266.005,8.923,265.687,9.069z
				 M265.747,10.822c0,0.438,0.398,0.69,0.863,0.69c0.629,0,1.147-0.385,1.147-0.929v-0.331c-0.252-0.073-0.591-0.146-1.009-0.146
				C266.104,10.104,265.747,10.383,265.747,10.822z"/>
			<path fill="#939598" d="M269.376,11.844V6.998h0.511v4.845H269.376z"/>
			<path fill="#939598" d="M272.62,11.923c-1.002,0-1.758-0.816-1.758-1.786c0-0.975,0.757-1.799,1.758-1.799
				c0.65,0,1.056,0.272,1.374,0.612l-0.339,0.358c-0.272-0.285-0.576-0.517-1.042-0.517c-0.696,0-1.228,0.59-1.228,1.333
				c0,0.75,0.544,1.341,1.261,1.341c0.438,0,0.777-0.218,1.05-0.511l0.323,0.306C273.676,11.644,273.265,11.923,272.62,11.923z"/>
			<path fill="#939598" d="M276.33,11.923c-1.029,0-1.779-0.809-1.779-1.786c0-0.976,0.758-1.799,1.792-1.799
				c1.029,0,1.786,0.81,1.786,1.785C278.127,11.1,277.364,11.923,276.33,11.923z M276.33,8.79c-0.744,0-1.255,0.59-1.255,1.333
				c0,0.744,0.544,1.341,1.268,1.341c0.744,0,1.261-0.591,1.261-1.327C277.604,9.387,277.054,8.79,276.33,8.79z"/>
			<path fill="#939598" d="M279.561,11.844h-0.512V8.411h0.512V9.01c0.226-0.372,0.583-0.671,1.174-0.671
				c0.83,0,1.314,0.558,1.314,1.374v2.131h-0.512V9.839c0-0.637-0.345-1.036-0.949-1.036c-0.59,0-1.027,0.431-1.027,1.076V11.844z"
				/>
			<path fill="#939598" d="M284.71,11.956c-0.293,0.71-0.624,0.968-1.143,0.968c-0.285,0-0.497-0.06-0.73-0.172l0.174-0.405
				c0.166,0.086,0.318,0.126,0.536,0.126c0.306,0,0.498-0.159,0.704-0.644l-1.559-3.419h0.562l1.248,2.862l1.102-2.862h0.544
				L284.71,11.956z"/>
		</g>
		<g enable-background="new    ">
			<path fill="#939598" d="M115.414,153.533c0,0.785-0.478,1.188-0.947,1.393c0.708,0.213,1.279,0.623,1.279,1.449
				c0,1.033-0.861,1.639-2.167,1.639h-2.654v-5.973h2.543C114.646,152.041,115.414,152.621,115.414,153.533z M114.732,153.627
				c0-0.598-0.469-0.98-1.322-0.98h-1.818v2.057h1.767C114.168,154.703,114.732,154.336,114.732,153.627z M115.064,156.332
				c0-0.656-0.546-1.031-1.588-1.031h-1.886v2.107h2.005C114.501,157.408,115.064,157.006,115.064,156.332z"/>
			<path fill="#939598" d="M117.229,154.447l-0.195-0.537c0.486-0.221,0.963-0.367,1.603-0.367c1.204,0,1.877,0.613,1.877,1.775
				v2.695h-0.631v-0.664c-0.307,0.4-0.819,0.758-1.596,0.758c-0.818,0-1.646-0.459-1.646-1.381c0-0.939,0.767-1.434,1.885-1.434
				c0.563,0,0.965,0.076,1.357,0.186v-0.152c0-0.793-0.486-1.203-1.315-1.203C118.049,154.123,117.639,154.26,117.229,154.447z
				 M117.307,156.699c0,0.564,0.512,0.889,1.109,0.889c0.811,0,1.476-0.496,1.476-1.195v-0.426
				c-0.324-0.096-0.759-0.188-1.296-0.188C117.768,155.779,117.307,156.136,117.307,156.699z"/>
			<path fill="#939598" d="M122.758,156.76c0,0.537,0.299,0.732,0.742,0.732c0.222,0,0.41-0.043,0.64-0.154v0.564
				c-0.23,0.119-0.478,0.188-0.793,0.188c-0.708,0-1.246-0.35-1.246-1.246v-2.66h-0.614v-0.582h0.614v-1.33h0.657v1.33h1.4v0.582
				h-1.4V156.76z"/>
			<path fill="#939598" d="M125.973,158.013h-0.657v-6.229h0.657v2.586c0.29-0.479,0.75-0.863,1.511-0.863
				c1.066,0,1.689,0.719,1.689,1.768v2.738h-0.657v-2.576c0-0.818-0.443-1.33-1.221-1.33c-0.759,0-1.323,0.555-1.323,1.381
				L125.973,158.013L125.973,158.013z"/>
		</g>
		<g enable-background="new    ">
			<path fill="#939598" d="M38.53,153.926c-1.341,0-2.33-1.055-2.33-2.396c0-1.326,0.982-2.408,2.349-2.408
				c0.843,0,1.348,0.299,1.812,0.736l-0.358,0.385c-0.392-0.373-0.829-0.637-1.46-0.637c-1.029,0-1.799,0.83-1.799,1.912
				s0.776,1.924,1.799,1.924c0.637,0,1.055-0.246,1.5-0.67l0.345,0.338C39.904,153.601,39.373,153.926,38.53,153.926z"/>
			<path fill="#939598" d="M41.262,153.847v-4.846h0.511v4.846H41.262z"/>
			<path fill="#939598" d="M44.527,153.926c-1.029,0-1.779-0.809-1.779-1.785s0.756-1.799,1.792-1.799
				c1.029,0,1.785,0.811,1.785,1.785C46.326,153.103,45.562,153.926,44.527,153.926z M44.527,150.793
				c-0.744,0-1.254,0.592-1.254,1.334c0,0.744,0.544,1.34,1.267,1.34c0.744,0,1.262-0.59,1.262-1.326
				C45.802,151.39,45.25,150.793,44.527,150.793z"/>
			<path fill="#939598" d="M48.38,153.914c-0.49,0-1.035-0.193-1.42-0.506l0.259-0.365c0.371,0.279,0.784,0.439,1.188,0.439
				c0.412,0,0.711-0.215,0.711-0.545v-0.014c0-0.346-0.405-0.477-0.857-0.605c-0.538-0.152-1.135-0.336-1.135-0.967v-0.016
				c0-0.59,0.492-0.98,1.168-0.98c0.418,0,0.883,0.145,1.235,0.377l-0.232,0.385c-0.318-0.205-0.685-0.332-1.017-0.332
				c-0.404,0-0.663,0.213-0.663,0.498v0.014c0,0.324,0.424,0.451,0.884,0.59c0.53,0.158,1.102,0.367,1.102,0.982v0.014
				C49.602,153.535,49.065,153.914,48.38,153.914z"/>
			<path fill="#939598" d="M52.063,153.482c0.471,0,0.804-0.193,1.083-0.486l0.318,0.285c-0.345,0.385-0.763,0.645-1.414,0.645
				c-0.943,0-1.712-0.723-1.712-1.791c0-0.996,0.696-1.793,1.646-1.793c1.015,0,1.6,0.809,1.6,1.818c0,0.047,0,0.1-0.007,0.158
				h-2.722C50.928,153.064,51.459,153.482,52.063,153.482z M53.065,151.941c-0.053-0.623-0.411-1.168-1.096-1.168
				c-0.597,0-1.048,0.498-1.115,1.168H53.065z"/>
			<path fill="#939598" d="M55.167,152.871c0,0.418,0.232,0.572,0.577,0.572c0.172,0,0.319-0.033,0.498-0.121v0.439
				c-0.179,0.092-0.372,0.146-0.617,0.146c-0.551,0-0.969-0.273-0.969-0.971v-2.07h-0.478v-0.453h0.478v-1.035h0.511v1.035h1.089
				v0.453h-1.089V152.871z"/>
		</g>
		<g enable-background="new    ">
			<path fill="#939598" d="M408.582,138.211c0,0.785-0.478,1.188-0.948,1.391c0.709,0.215,1.281,0.623,1.281,1.451
				c0,1.031-0.861,1.639-2.167,1.639h-2.654v-5.973h2.544C407.813,136.719,408.582,137.299,408.582,138.211z M407.898,138.304
				c0-0.598-0.469-0.98-1.322-0.98h-1.817v2.057h1.766C407.336,139.381,407.898,139.013,407.898,138.304z M408.231,141.01
				c0-0.656-0.545-1.033-1.587-1.033h-1.884v2.107h2.003C407.669,142.084,408.231,141.683,408.231,141.01z"/>
			<path fill="#939598" d="M410.397,139.125l-0.196-0.537c0.487-0.223,0.965-0.369,1.604-0.369c1.203,0,1.876,0.615,1.876,1.775
				v2.697h-0.631v-0.666c-0.307,0.4-0.817,0.76-1.596,0.76c-0.818,0-1.646-0.461-1.646-1.383c0-0.938,0.769-1.434,1.885-1.434
				c0.563,0,0.966,0.078,1.357,0.188v-0.154c0-0.793-0.486-1.203-1.314-1.203C411.216,138.799,410.807,138.937,410.397,139.125z
				 M410.474,141.377c0,0.564,0.513,0.889,1.109,0.889c0.811,0,1.478-0.496,1.478-1.197v-0.424
				c-0.325-0.096-0.761-0.188-1.298-0.188C410.935,140.455,410.474,140.814,410.474,141.377z"/>
			<path fill="#939598" d="M415.925,141.435c0,0.537,0.299,0.734,0.742,0.734c0.223,0,0.41-0.043,0.641-0.154v0.564
				c-0.23,0.119-0.478,0.186-0.794,0.186c-0.707,0-1.245-0.348-1.245-1.244v-2.662h-0.613v-0.58h0.613v-1.33h0.656v1.33h1.4v0.58
				h-1.4V141.435L415.925,141.435z"/>
			<path fill="#939598" d="M419.14,142.689h-0.655v-6.229h0.655v2.586c0.291-0.479,0.752-0.861,1.511-0.861
				c1.066,0,1.69,0.717,1.69,1.766v2.74h-0.657v-2.578c0-0.818-0.444-1.33-1.22-1.33c-0.76,0-1.322,0.555-1.322,1.383v2.523H419.14z
				"/>
		</g>
		<g enable-background="new    ">
			<path fill="#939598" d="M470.382,145.08c-1.341,0-2.33-1.055-2.33-2.396c0-1.326,0.982-2.408,2.351-2.408
				c0.844,0,1.348,0.297,1.812,0.736l-0.357,0.385c-0.392-0.373-0.83-0.637-1.46-0.637c-1.029,0-1.799,0.83-1.799,1.912
				s0.776,1.924,1.799,1.924c0.637,0,1.055-0.246,1.499-0.67l0.345,0.338C471.756,144.756,471.225,145.08,470.382,145.08z"/>
			<path fill="#939598" d="M473.114,145v-4.844h0.511V145H473.114z"/>
			<path fill="#939598" d="M476.378,145.08c-1.029,0-1.778-0.809-1.778-1.785s0.757-1.799,1.792-1.799
				c1.029,0,1.787,0.809,1.787,1.785C478.178,144.258,477.414,145.08,476.378,145.08z M476.378,141.947
				c-0.743,0-1.254,0.59-1.254,1.332c0,0.744,0.544,1.342,1.268,1.342c0.744,0,1.262-0.59,1.262-1.326
				C477.653,142.545,477.102,141.947,476.378,141.947z"/>
			<path fill="#939598" d="M480.232,145.066c-0.492,0-1.036-0.191-1.42-0.504l0.258-0.365c0.372,0.279,0.783,0.439,1.188,0.439
				c0.412,0,0.71-0.215,0.71-0.545v-0.014c0-0.346-0.404-0.479-0.855-0.605c-0.538-0.152-1.136-0.338-1.136-0.969v-0.014
				c0-0.59,0.492-0.98,1.17-0.98c0.417,0,0.883,0.145,1.234,0.377l-0.233,0.385c-0.318-0.205-0.683-0.332-1.016-0.332
				c-0.404,0-0.663,0.213-0.663,0.498v0.012c0,0.326,0.425,0.453,0.884,0.592c0.531,0.158,1.102,0.365,1.102,0.982v0.014
				C481.454,144.689,480.917,145.066,480.232,145.066z"/>
			<path fill="#939598" d="M483.915,144.636c0.471,0,0.803-0.193,1.082-0.486l0.318,0.285c-0.344,0.385-0.763,0.645-1.414,0.645
				c-0.941,0-1.713-0.723-1.713-1.791c0-0.998,0.698-1.795,1.646-1.795c1.016,0,1.6,0.811,1.6,1.818c0,0.049,0,0.102-0.008,0.16
				h-2.721C482.779,144.217,483.311,144.636,483.915,144.636z M484.917,143.095c-0.054-0.623-0.411-1.168-1.095-1.168
				c-0.598,0-1.048,0.498-1.115,1.168H484.917z"/>
			<path fill="#939598" d="M487.019,144.025c0,0.418,0.231,0.572,0.577,0.572c0.174,0,0.319-0.033,0.498-0.121v0.439
				c-0.179,0.092-0.372,0.146-0.617,0.146c-0.551,0-0.969-0.273-0.969-0.971v-2.07h-0.479v-0.453h0.479v-1.035h0.511v1.035h1.089
				v0.453h-1.089V144.025z"/>
		</g>
		<g enable-background="new    ">
			<path fill="#939598" d="M279.526,181.953h0.432l1.275,3.883l1.327-3.869h0.55l-1.658,4.68h-0.446l-1.273-3.771l-1.282,3.771
				h-0.438l-1.658-4.68h0.569l1.328,3.869L279.526,181.953z"/>
			<path fill="#939598" d="M286.147,181.314l-3.08,6.146h-0.472l3.08-6.146H286.147z"/>
			<path fill="#939598" d="M288.376,186.611h-1.613v-4.645h1.613c1.459,0,2.468,1.002,2.468,2.316
				C290.844,185.595,289.835,186.611,288.376,186.611z M288.376,182.449h-1.09v3.678h1.09c1.174,0,1.924-0.795,1.924-1.832
				C290.3,183.26,289.55,182.449,288.376,182.449z"/>
		</g>
		<g enable-background="new    ">
			<path fill="#939598" d="M347.075,171.398h-2.834v1.586h2.536v0.479h-2.536v1.627h2.867v0.477h-3.391v-4.646h3.357V171.398z"/>
			<path fill="#939598" d="M348.588,175.566h-0.512v-3.432h0.512v0.598c0.226-0.373,0.583-0.672,1.174-0.672
				c0.83,0,1.314,0.559,1.314,1.375v2.131h-0.512v-2.006c0-0.637-0.345-1.035-0.948-1.035c-0.591,0-1.028,0.432-1.028,1.076V175.566
				z"/>
			<path fill="#939598" d="M352.853,174.59c0,0.42,0.233,0.572,0.577,0.572c0.173,0,0.318-0.033,0.497-0.119v0.438
				c-0.179,0.094-0.371,0.146-0.615,0.146c-0.552,0-0.97-0.273-0.97-0.971v-2.07h-0.478v-0.451h0.478v-1.037h0.511v1.037h1.088
				v0.451h-1.088V174.59z"/>
			<path fill="#939598" d="M355.354,175.566h-0.511v-3.432h0.511v0.895c0.253-0.57,0.75-0.98,1.4-0.955v0.551h-0.039
				c-0.75,0-1.361,0.537-1.361,1.572V175.566z"/>
			<path fill="#939598" d="M359.202,175.679c-0.291,0.709-0.624,0.967-1.141,0.967c-0.287,0-0.498-0.059-0.731-0.172l0.174-0.404
				c0.166,0.086,0.319,0.125,0.537,0.125c0.306,0,0.498-0.158,0.703-0.643l-1.561-3.42h0.564l1.248,2.861l1.104-2.861h0.544
				L359.202,175.679z"/>
		</g>
		<g enable-background="new    ">
			<path fill="#939598" d="M306.638,160.062c0,1.34-1.055,2.328-2.396,2.328c-1.327,0-2.409-0.98-2.409-2.348
				c0-0.846,0.297-1.348,0.735-1.812l0.386,0.357c-0.373,0.393-0.639,0.83-0.639,1.459c0,1.029,0.831,1.801,1.914,1.801
				c1.081,0,1.925-0.777,1.925-1.801c0-0.637-0.247-1.055-0.672-1.498l0.339-0.346C306.313,158.687,306.638,159.219,306.638,160.062
				z"/>
			<path fill="#939598" d="M306.558,157.33h-4.844v-0.512h4.844V157.33z"/>
			<path fill="#939598" d="M306.638,154.064c0,1.029-0.81,1.779-1.785,1.779c-0.977,0-1.799-0.758-1.799-1.793
				c0-1.029,0.809-1.785,1.785-1.785S306.638,153.029,306.638,154.064z M303.505,154.064c0,0.742,0.591,1.254,1.334,1.254
				c0.744,0,1.341-0.543,1.341-1.268c0-0.744-0.59-1.262-1.327-1.262C304.104,152.789,303.505,153.342,303.505,154.064z"/>
			<path fill="#939598" d="M306.626,150.211c0,0.49-0.192,1.035-0.505,1.42l-0.365-0.26c0.278-0.371,0.438-0.781,0.438-1.188
				c0-0.41-0.213-0.709-0.546-0.709h-0.013c-0.344,0-0.478,0.404-0.604,0.855c-0.151,0.539-0.338,1.135-0.969,1.135h-0.013
				c-0.591,0-0.982-0.492-0.982-1.168c0-0.418,0.146-0.883,0.378-1.234l0.384,0.232c-0.205,0.318-0.331,0.684-0.331,1.014
				c0,0.406,0.213,0.664,0.498,0.664h0.013c0.326,0,0.451-0.424,0.591-0.883c0.159-0.531,0.366-1.102,0.982-1.102h0.013
				C306.247,148.99,306.626,149.527,306.626,150.211z"/>
			<path fill="#939598" d="M306.194,146.529c0-0.473-0.192-0.805-0.485-1.084l0.286-0.318c0.384,0.346,0.644,0.764,0.644,1.414
				c0,0.943-0.724,1.713-1.791,1.713c-0.997,0-1.794-0.697-1.794-1.646c0-1.014,0.809-1.6,1.818-1.6c0.047,0,0.1,0,0.159,0.008
				v2.721C305.775,147.664,306.194,147.133,306.194,146.529z M304.654,145.525c-0.623,0.055-1.169,0.412-1.169,1.098
				c0,0.596,0.497,1.047,1.169,1.113V145.525z"/>
			<path fill="#939598" d="M305.583,143.424c0.417,0,0.571-0.232,0.571-0.576c0-0.174-0.033-0.32-0.12-0.498h0.438
				c0.093,0.178,0.146,0.371,0.146,0.617c0,0.551-0.272,0.969-0.971,0.969h-2.07v0.479h-0.451v-0.479h-1.036v-0.512h1.036v-1.088
				h0.451v1.088H305.583z"/>
		</g>
		<g enable-background="new    ">
			<path fill="#939598" d="M224.477,134.226v4.646h-0.525v-4.646H224.477z"/>
			<path fill="#939598" d="M226.885,138.937c-0.491,0-1.035-0.191-1.42-0.502l0.258-0.367c0.372,0.279,0.784,0.439,1.189,0.439
				c0.411,0,0.709-0.213,0.709-0.545v-0.014c0-0.344-0.404-0.479-0.855-0.605c-0.538-0.15-1.135-0.336-1.135-0.967v-0.014
				c0-0.592,0.492-0.982,1.168-0.982c0.418,0,0.883,0.145,1.234,0.377l-0.231,0.385c-0.319-0.205-0.685-0.332-1.017-0.332
				c-0.404,0-0.663,0.213-0.663,0.498v0.014c0,0.324,0.424,0.453,0.883,0.59c0.531,0.16,1.102,0.365,1.102,0.982v0.014
				C228.106,138.56,227.569,138.937,226.885,138.937z"/>
			<path fill="#939598" d="M229.1,138.873v-4.846h0.511v4.846H229.1z"/>
			<path fill="#939598" d="M230.997,136.097l-0.152-0.418c0.378-0.172,0.75-0.285,1.248-0.285c0.935,0,1.46,0.479,1.46,1.381v2.098
				h-0.491v-0.518c-0.239,0.312-0.637,0.59-1.241,0.59c-0.638,0-1.282-0.357-1.282-1.076c0-0.73,0.597-1.115,1.468-1.115
				c0.438,0,0.75,0.061,1.055,0.146v-0.119c0-0.617-0.378-0.936-1.022-0.936C231.635,135.845,231.316,135.951,230.997,136.097z
				 M231.057,137.851c0,0.438,0.398,0.689,0.863,0.689c0.63,0,1.148-0.385,1.148-0.93v-0.332c-0.252-0.072-0.59-0.145-1.008-0.145
				C231.416,137.133,231.057,137.412,231.057,137.851z"/>
			<path fill="#939598" d="M235.15,138.873h-0.511v-3.432h0.511v0.598c0.225-0.373,0.583-0.672,1.175-0.672
				c0.829,0,1.314,0.559,1.314,1.375v2.131h-0.512v-2.006c0-0.637-0.345-1.035-0.949-1.035c-0.59,0-1.028,0.432-1.028,1.076
				L235.15,138.873L235.15,138.873z"/>
			<path fill="#939598" d="M241.48,138.873v-0.691c-0.279,0.412-0.683,0.764-1.314,0.764c-0.823,0-1.64-0.65-1.64-1.785
				c0-1.129,0.817-1.793,1.64-1.793c0.637,0,1.048,0.346,1.314,0.73v-2.07h0.512v4.844h-0.512V138.873z M240.26,135.826
				c-0.664,0-1.209,0.49-1.209,1.326c0,0.816,0.558,1.334,1.209,1.334c0.637,0,1.241-0.531,1.241-1.334
				C241.5,136.357,240.896,135.826,240.26,135.826z"/>
		</g>
		<g enable-background="new    ">
			<path fill="#939598" d="M222.159,161.566h-0.845l-2.295-2.893l-1.271,1.287v1.604h-0.674v-5.973h0.674v3.568l3.43-3.568h0.87
				l-2.559,2.611L222.159,161.566z"/>
			<path fill="#939598" d="M223.111,156.191v-0.725h0.751v0.725H223.111z M223.154,161.566v-4.41h0.657v4.41H223.154z"/>
			<path fill="#939598" d="M226.226,160.312c0,0.537,0.298,0.732,0.742,0.732c0.222,0,0.41-0.041,0.64-0.152v0.562
				c-0.23,0.119-0.478,0.188-0.793,0.188c-0.708,0-1.245-0.35-1.245-1.244v-2.664h-0.615v-0.578h0.615v-1.332h0.657v1.332h1.399
				v0.578h-1.399V160.312z"/>
			<path fill="#939598" d="M230.646,161.67c-1.288,0-2.261-1.049-2.261-2.297c0-1.254,0.972-2.312,2.261-2.312
				c0.836,0,1.356,0.35,1.766,0.787l-0.435,0.459c-0.35-0.367-0.742-0.666-1.34-0.666c-0.895,0-1.579,0.76-1.579,1.717
				c0,0.965,0.7,1.723,1.621,1.723c0.563,0,0.998-0.281,1.348-0.656l0.418,0.393C232.001,161.31,231.473,161.67,230.646,161.67z"/>
			<path fill="#939598" d="M234.185,161.566h-0.657v-6.229h0.657v2.586c0.29-0.479,0.75-0.863,1.51-0.863
				c1.066,0,1.689,0.719,1.689,1.768v2.74h-0.656v-2.578c0-0.818-0.444-1.33-1.221-1.33c-0.759,0-1.323,0.555-1.323,1.381
				L234.185,161.566L234.185,161.566z"/>
			<path fill="#939598" d="M240.727,161.097c0.605,0,1.032-0.248,1.392-0.623l0.409,0.367c-0.443,0.494-0.982,0.828-1.818,0.828
				c-1.211,0-2.201-0.93-2.201-2.305c0-1.281,0.896-2.305,2.115-2.305c1.305,0,2.057,1.041,2.057,2.338c0,0.061,0,0.129-0.008,0.205
				h-3.498C239.268,160.56,239.951,161.097,240.727,161.097z M242.014,159.117c-0.068-0.803-0.528-1.502-1.407-1.502
				c-0.768,0-1.347,0.641-1.433,1.502H242.014z"/>
			<path fill="#939598" d="M244.488,161.566h-0.657v-4.41h0.657v0.768c0.29-0.479,0.75-0.863,1.51-0.863
				c1.066,0,1.689,0.719,1.689,1.768v2.74h-0.657v-2.578c0-0.818-0.443-1.33-1.22-1.33c-0.76,0-1.323,0.555-1.323,1.381
				L244.488,161.566L244.488,161.566z"/>
		</g>
		<g enable-background="new    ">
			<path fill="#939598" d="M188.201,187.57h-1.613v-4.646h1.613c1.46,0,2.469,1.004,2.469,2.316
				C190.67,186.554,189.661,187.57,188.201,187.57z M188.201,183.408h-1.089v3.678h1.089c1.174,0,1.925-0.797,1.925-1.834
				C190.126,184.217,189.375,183.408,188.201,183.408z"/>
			<path fill="#939598" d="M194.352,182.91h0.432l1.275,3.883l1.328-3.869h0.551l-1.66,4.68h-0.445l-1.274-3.771l-1.281,3.771
				h-0.438l-1.659-4.68h0.571l1.328,3.869L194.352,182.91z"/>
		</g>
		<g enable-background="new    ">
			<path fill="#939598" d="M240.432,185.359l-1.348-1.807h-1.328v1.807h-0.524v-4.646h1.998c1.022,0,1.678,0.551,1.678,1.389
				c0,0.775-0.53,1.227-1.261,1.359l1.427,1.898H240.432L240.432,185.359z M239.19,181.197h-1.434v1.885h1.427
				c0.696,0,1.195-0.359,1.195-0.963C240.379,181.543,239.94,181.197,239.19,181.197z"/>
			<path fill="#939598" d="M243.389,184.994c0.471,0,0.804-0.191,1.083-0.486l0.318,0.287c-0.345,0.383-0.763,0.645-1.414,0.645
				c-0.943,0-1.712-0.725-1.712-1.793c0-0.996,0.696-1.793,1.646-1.793c1.015,0,1.6,0.809,1.6,1.818c0,0.047,0,0.1-0.007,0.158
				h-2.722C242.254,184.576,242.785,184.994,243.389,184.994z M244.392,183.455c-0.053-0.625-0.412-1.17-1.096-1.17
				c-0.597,0-1.048,0.498-1.115,1.17H244.392z"/>
			<path fill="#939598" d="M247.589,181.939v0.439h-1.083v2.98h-0.511v-2.98h-0.472v-0.445h0.472v-0.297
				c0-0.75,0.378-1.148,1.035-1.148c0.239,0,0.398,0.025,0.564,0.086v0.445c-0.186-0.055-0.325-0.088-0.498-0.088
				c-0.398,0-0.597,0.24-0.597,0.73v0.279h1.089V181.939z"/>
		</g>
		<g enable-background="new    ">
			<path fill="#939598" d="M77.972,68.413c0,0.784-0.478,1.187-0.947,1.391c0.708,0.213,1.28,0.623,1.28,1.449
				c0,1.033-0.862,1.639-2.168,1.639h-2.653V66.92h2.543C77.204,66.92,77.972,67.501,77.972,68.413z M77.29,68.508
				c0-0.598-0.469-0.982-1.322-0.982H74.15v2.057h1.766C76.727,69.582,77.29,69.216,77.29,68.508z M77.622,71.212
				c0-0.656-0.546-1.033-1.587-1.033h-1.886v2.108h2.005C77.059,72.286,77.622,71.885,77.622,71.212z"/>
			<path fill="#939598" d="M81.477,72.424c0.605,0,1.032-0.247,1.391-0.623l0.41,0.368c-0.444,0.494-0.982,0.828-1.818,0.828
				c-1.211,0-2.201-0.93-2.201-2.304c0-1.28,0.896-2.305,2.115-2.305c1.306,0,2.057,1.041,2.057,2.338c0,0.06,0,0.128-0.009,0.206
				h-3.498C80.018,71.885,80.7,72.424,81.477,72.424z M82.766,70.444c-0.068-0.802-0.529-1.501-1.407-1.501
				c-0.768,0-1.348,0.64-1.433,1.501H82.766z"/>
			<path fill="#939598" d="M88.121,72.893v-0.889c-0.358,0.53-0.878,0.981-1.688,0.981c-1.059,0-2.108-0.836-2.108-2.294
				c0-1.451,1.049-2.305,2.108-2.305c0.818,0,1.347,0.444,1.688,0.939v-2.664h0.657v6.229h-0.657V72.893z M86.552,68.977
				c-0.853,0-1.553,0.631-1.553,1.706c0,1.049,0.716,1.715,1.553,1.715c0.819,0,1.596-0.682,1.596-1.715
				C88.148,69.659,87.371,68.977,86.552,68.977z"/>
			<path fill="#939598" d="M90.902,72.893h-0.657v-4.411h0.657v1.151c0.324-0.732,0.965-1.262,1.801-1.228v0.708h-0.051
				c-0.964,0-1.75,0.691-1.75,2.022V72.893z"/>
			<path fill="#939598" d="M95.525,72.995c-1.323,0-2.287-1.042-2.287-2.296c0-1.253,0.973-2.312,2.304-2.312
				c1.323,0,2.294,1.041,2.294,2.295C97.837,71.938,96.856,72.995,95.525,72.995z M95.525,68.968c-0.955,0-1.613,0.76-1.613,1.715
				c0,0.956,0.7,1.724,1.63,1.724c0.955,0,1.621-0.761,1.621-1.708C97.164,69.736,96.456,68.968,95.525,68.968z"/>
			<path fill="#939598" d="M101.035,72.995c-1.323,0-2.287-1.042-2.287-2.296c0-1.253,0.973-2.312,2.304-2.312
				c1.323,0,2.294,1.041,2.294,2.295C103.347,71.938,102.367,72.995,101.035,72.995z M101.035,68.968
				c-0.955,0-1.612,0.76-1.612,1.715c0,0.956,0.699,1.724,1.63,1.724c0.955,0,1.621-0.761,1.621-1.708
				C102.673,69.736,101.965,68.968,101.035,68.968z"/>
			<path fill="#939598" d="M109.583,68.387c1.015,0,1.639,0.683,1.639,1.775v2.73h-0.657v-2.577c0-0.854-0.427-1.331-1.144-1.331
				c-0.665,0-1.22,0.494-1.22,1.365v2.542h-0.649V70.3c0-0.829-0.435-1.314-1.134-1.314c-0.7,0-1.229,0.581-1.229,1.39v2.518h-0.657
				v-4.411h0.657v0.742c0.29-0.435,0.682-0.836,1.424-0.836c0.717,0,1.178,0.384,1.417,0.879
				C108.346,68.781,108.815,68.387,109.583,68.387z"/>
		</g>
		<g enable-background="new    ">
			<path fill="#939598" d="M68.879,77.303h0.495v6.015h-0.666v-5.315l-1.125,0.35l-0.162-0.546L68.879,77.303z"/>
			<path fill="#939598" d="M72.922,83.403c-1.271,0-2.244-0.69-2.244-1.697c0-0.717,0.512-1.221,1.228-1.477
				c-0.554-0.257-1.024-0.684-1.024-1.382c0-0.93,0.948-1.586,2.04-1.586s2.039,0.656,2.039,1.586c0,0.699-0.469,1.125-1.023,1.382
				c0.708,0.264,1.228,0.751,1.228,1.467C75.167,82.721,74.194,83.403,72.922,83.403z M72.922,80.545
				c-0.87,0-1.561,0.469-1.561,1.143c0,0.613,0.58,1.125,1.561,1.125c0.981,0,1.561-0.512,1.561-1.125
				C74.484,81.014,73.792,80.545,72.922,80.545z M72.922,77.848c-0.776,0-1.364,0.435-1.364,1.042c0,0.656,0.605,1.101,1.364,1.101
				c0.76,0,1.365-0.445,1.365-1.101C74.288,78.292,73.7,77.848,72.922,77.848z"/>
			<path fill="#939598" d="M76.419,77.345h0.802v0.042l-0.691,2.277h-0.367L76.419,77.345z"/>
			<path fill="#939598" d="M82.033,77.303v4.035h0.93v0.563h-0.93v1.417h-0.648v-1.417h-3.148l-0.17-0.487l3.378-4.112H82.033z
				 M81.385,78.258l-2.509,3.08h2.509V78.258z"/>
			<path fill="#939598" d="M84.232,77.345h0.793v0.042l-0.691,2.277h-0.358L84.232,77.345z M85.904,77.345h0.786v0.042L86,79.665
				h-0.358L85.904,77.345z"/>
			<path fill="#939598" d="M94.297,83.318h-0.759l-1.365-1.8l-1.373,1.8h-0.733l1.732-2.245l-1.664-2.167h0.751l1.305,1.707
				l1.305-1.707h0.734l-1.673,2.151L94.297,83.318z"/>
			<path fill="#939598" d="M98.885,77.303h0.495v6.015h-0.665v-5.315l-1.125,0.35l-0.163-0.546L98.885,77.303z"/>
			<path fill="#939598" d="M103.288,83.421c-1.544,0-2.517-1.4-2.517-3.08c0-1.681,0.99-3.099,2.534-3.099
				c1.537,0,2.509,1.4,2.509,3.08C105.813,82.003,104.823,83.421,103.288,83.421z M103.288,77.857c-1.117,0-1.817,1.143-1.817,2.466
				c0,1.323,0.717,2.483,1.835,2.483c1.119,0,1.81-1.152,1.81-2.465C105.114,79.026,104.405,77.857,103.288,77.857z"/>
			<path fill="#939598" d="M107.151,77.345h0.802v0.042l-0.691,2.277h-0.367L107.151,77.345z"/>
			<path fill="#939598" d="M111.118,83.403c-1.271,0-2.245-0.69-2.245-1.697c0-0.717,0.512-1.221,1.228-1.477
				c-0.554-0.257-1.024-0.684-1.024-1.382c0-0.93,0.948-1.586,2.04-1.586s2.039,0.656,2.039,1.586c0,0.699-0.469,1.125-1.024,1.382
				c0.708,0.264,1.228,0.751,1.228,1.467C113.361,82.721,112.389,83.403,111.118,83.403z M111.118,80.545
				c-0.87,0-1.561,0.469-1.561,1.143c0,0.613,0.58,1.125,1.561,1.125c0.981,0,1.561-0.512,1.561-1.125
				C112.679,81.014,111.988,80.545,111.118,80.545z M111.118,77.848c-0.776,0-1.365,0.435-1.365,1.042
				c0,0.656,0.605,1.101,1.365,1.101c0.759,0,1.365-0.445,1.365-1.101C112.483,78.292,111.894,77.848,111.118,77.848z"/>
			<path fill="#939598" d="M114.614,77.345h0.793v0.042l-0.691,2.277h-0.358L114.614,77.345z M116.286,77.345h0.785v0.042
				l-0.691,2.277h-0.358L116.286,77.345z"/>
		</g>
		<g enable-background="new    ">
			<path fill="#939598" d="M236.048,76.398h0.674v5.35h3.362v0.623h-4.036V76.398z"/>
			<path fill="#939598" d="M241.235,76.995v-0.726h0.751v0.726H241.235z M241.277,82.37v-4.411h0.657v4.411H241.277z"/>
			<path fill="#939598" d="M246.729,77.959h0.708l-1.919,4.445h-0.581l-1.911-4.445h0.726l1.485,3.66L246.729,77.959z"/>
			<path fill="#939598" d="M248.485,76.995v-0.726h0.75v0.726H248.485z M248.527,82.37v-4.411h0.657v4.411H248.527z"/>
			<path fill="#939598" d="M251.368,82.37h-0.657v-4.411h0.657v0.769c0.29-0.479,0.75-0.863,1.511-0.863
				c1.066,0,1.689,0.717,1.689,1.767v2.739h-0.657v-2.577c0-0.819-0.444-1.331-1.221-1.331c-0.759,0-1.323,0.554-1.323,1.382
				L251.368,82.37L251.368,82.37z"/>
			<path fill="#939598" d="M257.919,83.752c-0.733,0-1.417-0.205-2.005-0.614l0.299-0.512c0.503,0.367,1.066,0.563,1.698,0.563
				c0.972,0,1.604-0.538,1.604-1.57v-0.521c-0.384,0.513-0.922,0.929-1.732,0.929c-1.058,0-2.074-0.785-2.074-2.073
				c0-1.296,1.023-2.091,2.074-2.091c0.827,0,1.364,0.41,1.723,0.888v-0.793h0.657v3.644
				C260.163,83.027,259.276,83.752,257.919,83.752z M257.91,78.445c-0.836,0-1.527,0.572-1.527,1.493
				c0,0.904,0.708,1.511,1.527,1.511c0.836,0,1.622-0.597,1.622-1.501C259.532,79.033,258.747,78.445,257.91,78.445z"/>
			<path fill="#939598" d="M265.281,75.561l-3.959,7.901h-0.605l3.958-7.901H265.281z"/>
			<path fill="#939598" d="M268.146,82.37h-2.073v-5.973h2.073c1.877,0,3.173,1.288,3.173,2.978S270.023,82.37,268.146,82.37z
				 M268.146,77.02h-1.399v4.727h1.399c1.51,0,2.473-1.023,2.473-2.354C270.619,78.062,269.656,77.02,268.146,77.02z"/>
			<path fill="#939598" d="M272.649,76.995v-0.726h0.75v0.726H272.649z M272.691,82.37v-4.411h0.656v4.411H272.691z"/>
			<path fill="#939598" d="M275.532,82.37h-0.657v-4.411h0.657v0.769c0.291-0.479,0.751-0.863,1.511-0.863
				c1.065,0,1.688,0.717,1.688,1.767v2.739h-0.655v-2.577c0-0.819-0.444-1.331-1.222-1.331c-0.759,0-1.321,0.554-1.321,1.382V82.37
				L275.532,82.37z"/>
			<path fill="#939598" d="M280.146,76.995v-0.726h0.751v0.726H280.146z M280.189,82.37v-4.411h0.655v4.411H280.189z"/>
			<path fill="#939598" d="M283.029,82.37h-0.656v-4.411h0.656v0.769c0.29-0.479,0.751-0.863,1.51-0.863
				c1.066,0,1.69,0.717,1.69,1.767v2.739h-0.657v-2.577c0-0.819-0.444-1.331-1.22-1.331c-0.76,0-1.322,0.554-1.322,1.382
				L283.029,82.37L283.029,82.37z"/>
			<path fill="#939598" d="M289.581,83.752c-0.734,0-1.417-0.205-2.006-0.614l0.298-0.512c0.504,0.367,1.068,0.563,1.699,0.563
				c0.971,0,1.604-0.538,1.604-1.57v-0.521c-0.384,0.513-0.922,0.929-1.731,0.929c-1.059,0-2.074-0.785-2.074-2.073
				c0-1.296,1.025-2.091,2.074-2.091c0.827,0,1.363,0.41,1.723,0.888v-0.793h0.656v3.644
				C291.825,83.027,290.937,83.752,289.581,83.752z M289.572,78.445c-0.837,0-1.527,0.572-1.527,1.493
				c0,0.904,0.707,1.511,1.527,1.511c0.835,0,1.62-0.597,1.62-1.501C291.192,79.033,290.407,78.445,289.572,78.445z"/>
			<path fill="#939598" d="M300.073,82.37l-1.732-2.321h-1.707v2.321h-0.674v-5.973h2.567c1.314,0,2.159,0.708,2.159,1.784
				c0,0.998-0.682,1.578-1.62,1.748l1.834,2.441H300.073z M298.477,77.02h-1.843v2.424h1.836c0.895,0,1.536-0.461,1.536-1.237
				C300.005,77.464,299.442,77.02,298.477,77.02z"/>
			<path fill="#939598" d="M303.944,82.473c-1.322,0-2.286-1.042-2.286-2.296c0-1.253,0.973-2.312,2.305-2.312
				c1.323,0,2.294,1.042,2.294,2.295C306.256,81.415,305.274,82.473,303.944,82.473z M303.944,78.445
				c-0.955,0-1.612,0.76-1.612,1.715c0,0.956,0.699,1.724,1.631,1.724c0.956,0,1.62-0.761,1.62-1.708
				C305.582,79.213,304.875,78.445,303.944,78.445z"/>
			<path fill="#939598" d="M309.454,82.473c-1.323,0-2.285-1.042-2.285-2.296c0-1.253,0.972-2.312,2.303-2.312
				c1.323,0,2.295,1.042,2.295,2.295C311.767,81.415,310.785,82.473,309.454,82.473z M309.454,78.445
				c-0.955,0-1.612,0.76-1.612,1.715c0,0.956,0.7,1.724,1.63,1.724c0.956,0,1.621-0.761,1.621-1.708
				C311.093,79.213,310.384,78.445,309.454,78.445z"/>
			<path fill="#939598" d="M318.003,77.865c1.014,0,1.639,0.683,1.639,1.775v2.73h-0.656v-2.577c0-0.854-0.428-1.331-1.144-1.331
				c-0.667,0-1.22,0.494-1.22,1.365v2.542h-0.65v-2.594c0-0.828-0.435-1.314-1.135-1.314c-0.699,0-1.227,0.58-1.227,1.39v2.518
				h-0.657v-4.411h0.657v0.742c0.288-0.435,0.681-0.837,1.423-0.837c0.719,0,1.179,0.384,1.417,0.879
				C316.765,78.258,317.234,77.865,318.003,77.865z"/>
		</g>
		<g enable-background="new    ">
			<path fill="#939598" d="M252.929,88.366l-0.495-0.358c0.537-0.803,1.1-1.271,2.15-1.271c1.083,0,1.852,0.716,1.852,1.698
				c0,0.879-0.46,1.416-1.511,2.33l-1.595,1.415h3.166v0.614h-4.172v-0.52l2.167-1.912c0.913-0.818,1.246-1.28,1.246-1.876
				c0-0.7-0.555-1.144-1.204-1.144C253.851,87.343,253.407,87.701,252.929,88.366z"/>
			<path fill="#939598" d="M257.765,87.428v-0.605h3.814v0.494l-1.877,2.082c1.049,0.085,1.972,0.588,1.972,1.689
				c0,1.076-0.889,1.81-1.997,1.81c-0.999,0-1.74-0.436-2.228-1.067l0.486-0.435c0.46,0.564,1.015,0.888,1.75,0.888
				c0.725,0,1.305-0.461,1.305-1.169c0-0.75-0.682-1.161-1.671-1.161h-0.384l-0.137-0.401l1.886-2.125L257.765,87.428
				L257.765,87.428z"/>
			<path fill="#939598" d="M263.062,86.823h0.804v0.042l-0.691,2.277h-0.367L263.062,86.823z"/>
			<path fill="#939598" d="M268.719,87.923c-0.444-0.375-0.863-0.588-1.408-0.588c-1.084,0-1.758,1.091-1.748,2.636
				c0.324-0.479,0.827-0.914,1.697-0.914c1.118,0,2.065,0.717,2.065,1.843c0,1.161-0.929,1.998-2.143,1.998
				c-0.656,0-1.194-0.23-1.569-0.607c-0.479-0.478-0.751-1.091-0.751-2.32c0-1.826,0.921-3.251,2.482-3.251
				c0.718,0,1.246,0.257,1.767,0.683L268.719,87.923z M267.175,89.638c-0.896,0-1.494,0.64-1.494,1.314
				c0,0.777,0.632,1.348,1.512,1.348c0.878,0,1.441-0.605,1.441-1.373C268.634,90.184,268.035,89.638,267.175,89.638z"/>
			<path fill="#939598" d="M270.671,86.823h0.793v0.042l-0.69,2.277h-0.359L270.671,86.823z M272.343,86.823h0.785v0.042
				l-0.69,2.277h-0.359L272.343,86.823z"/>
			<path fill="#939598" d="M280.736,92.795h-0.76l-1.364-1.8l-1.373,1.8h-0.735l1.732-2.244l-1.664-2.167h0.752l1.305,1.707
				l1.305-1.707h0.735l-1.674,2.151L280.736,92.795z"/>
			<path fill="#939598" d="M285.324,86.781h0.494v6.015h-0.664V87.48l-1.127,0.35l-0.162-0.546L285.324,86.781z"/>
			<path fill="#939598" d="M289.726,92.898c-1.543,0-2.517-1.4-2.517-3.081c0-1.681,0.991-3.099,2.534-3.099
				c1.537,0,2.508,1.4,2.508,3.081C292.251,91.48,291.263,92.898,289.726,92.898z M289.726,87.335c-1.117,0-1.817,1.143-1.817,2.465
				c0,1.324,0.717,2.483,1.835,2.483s1.808-1.152,1.808-2.466C291.551,88.504,290.842,87.335,289.726,87.335z"/>
			<path fill="#939598" d="M293.589,86.823h0.802v0.042l-0.69,2.277h-0.367L293.589,86.823z"/>
			<path fill="#939598" d="M295.449,86.823h4.052v0.502l-2.713,5.47h-0.751l2.696-5.358h-3.284V86.823z"/>
			<path fill="#939598" d="M300.762,86.823h0.794v0.042l-0.69,2.277h-0.358L300.762,86.823z M302.435,86.823h0.785v0.042
				l-0.691,2.277h-0.357L302.435,86.823z"/>
		</g>
		<g enable-background="new    ">
			<path fill="#939598" d="M432.425,60.831c0,0.784-0.478,1.187-0.945,1.391c0.707,0.213,1.279,0.623,1.279,1.449
				c0,1.033-0.861,1.639-2.167,1.639h-2.653v-5.972h2.543C431.658,59.339,432.425,59.919,432.425,60.831z M431.743,60.926
				c0-0.598-0.47-0.982-1.323-0.982h-1.818V62h1.767C431.181,62,431.743,61.634,431.743,60.926z M432.076,63.63
				c0-0.656-0.546-1.033-1.587-1.033h-1.887v2.108h2.006C431.513,64.705,432.076,64.303,432.076,63.63z"/>
			<path fill="#939598" d="M435.931,64.842c0.605,0,1.032-0.247,1.391-0.623l0.41,0.367c-0.443,0.494-0.981,0.829-1.818,0.829
				c-1.21,0-2.199-0.93-2.199-2.305c0-1.28,0.895-2.305,2.114-2.305c1.306,0,2.057,1.042,2.057,2.338c0,0.06,0,0.129-0.009,0.206
				h-3.497C434.473,64.303,435.154,64.842,435.931,64.842z M437.221,62.862c-0.069-0.802-0.53-1.501-1.409-1.501
				c-0.768,0-1.348,0.64-1.433,1.501H437.221z"/>
			<path fill="#939598" d="M442.575,65.311v-0.888c-0.358,0.53-0.878,0.981-1.688,0.981c-1.059,0-2.107-0.836-2.107-2.294
				c0-1.451,1.047-2.305,2.107-2.305c0.818,0,1.347,0.444,1.688,0.939V59.08h0.657v6.229h-0.657V65.311z M441.006,61.395
				c-0.853,0-1.554,0.631-1.554,1.706c0,1.049,0.718,1.715,1.554,1.715c0.819,0,1.597-0.682,1.597-1.715
				C442.602,62.077,441.825,61.395,441.006,61.395z"/>
			<path fill="#939598" d="M445.355,65.311h-0.656V60.9h0.656v1.151c0.325-0.732,0.965-1.262,1.8-1.228v0.708h-0.052
				c-0.964,0-1.75,0.691-1.75,2.022v1.757H445.355z"/>
			<path fill="#939598" d="M449.979,65.414c-1.322,0-2.286-1.042-2.286-2.296c0-1.253,0.972-2.312,2.304-2.312
				c1.323,0,2.295,1.042,2.295,2.295C452.291,64.356,451.31,65.414,449.979,65.414z M449.979,61.386
				c-0.956,0-1.612,0.76-1.612,1.715c0,0.956,0.699,1.724,1.63,1.724c0.956,0,1.621-0.761,1.621-1.708
				C451.617,62.154,450.909,61.386,449.979,61.386z"/>
			<path fill="#939598" d="M455.489,65.414c-1.322,0-2.286-1.042-2.286-2.296c0-1.253,0.972-2.312,2.304-2.312
				c1.322,0,2.295,1.042,2.295,2.295C457.801,64.356,456.82,65.414,455.489,65.414z M455.489,61.386
				c-0.955,0-1.612,0.76-1.612,1.715c0,0.956,0.699,1.724,1.63,1.724c0.956,0,1.621-0.761,1.621-1.708
				C457.127,62.154,456.419,61.386,455.489,61.386z"/>
			<path fill="#939598" d="M464.037,60.805c1.014,0,1.639,0.683,1.639,1.775v2.73h-0.657v-2.577c0-0.853-0.427-1.331-1.144-1.331
				c-0.665,0-1.22,0.494-1.22,1.365v2.542h-0.649v-2.593c0-0.828-0.435-1.314-1.135-1.314c-0.698,0-1.229,0.58-1.229,1.39v2.517
				h-0.656V60.9h0.656v0.743c0.291-0.435,0.684-0.837,1.425-0.837c0.718,0,1.178,0.384,1.417,0.879
				C462.799,61.199,463.27,60.805,464.037,60.805z"/>
		</g>
		<g enable-background="new    ">
			<path fill="#939598" d="M425.357,69.721h0.495v6.015h-0.666v-5.315l-1.126,0.35l-0.162-0.546L425.357,69.721z"/>
			<path fill="#939598" d="M431.047,69.721v4.035h0.931v0.564h-0.931v1.416h-0.648V74.32h-3.147l-0.172-0.487l3.378-4.112H431.047z
				 M430.398,70.676l-2.509,3.08h2.509V70.676z"/>
			<path fill="#939598" d="M433.247,69.763h0.802v0.043l-0.69,2.276h-0.369L433.247,69.763z"/>
			<path fill="#939598" d="M435.541,71.307l-0.495-0.358c0.538-0.802,1.102-1.271,2.152-1.271c1.083,0,1.851,0.716,1.851,1.697
				c0,0.879-0.461,1.416-1.51,2.33l-1.597,1.415h3.165v0.615h-4.171v-0.52l2.167-1.912c0.913-0.818,1.245-1.28,1.245-1.876
				c0-0.7-0.555-1.144-1.203-1.144C436.462,70.284,436.02,70.642,435.541,71.307z"/>
			<path fill="#939598" d="M440.445,69.763h0.795v0.043l-0.69,2.276h-0.358L440.445,69.763z M442.118,69.763h0.785v0.043
				l-0.691,2.276h-0.357L442.118,69.763z"/>
			<path fill="#939598" d="M450.512,75.736h-0.759l-1.366-1.8l-1.372,1.8h-0.733l1.731-2.245l-1.663-2.167h0.75l1.306,1.707
				l1.306-1.707h0.732l-1.672,2.151L450.512,75.736z"/>
			<path fill="#939598" d="M455.919,75.839c-0.777,0-1.341-0.315-1.843-0.734l0.393-0.521c0.486,0.427,0.938,0.641,1.467,0.641
				c1.076,0,1.801-1.092,1.774-2.62c-0.323,0.521-0.86,0.956-1.688,0.956c-1.229,0-2.081-0.777-2.081-1.859
				c0-1.144,0.879-2.04,2.149-2.04c0.684,0,1.187,0.23,1.569,0.615c0.471,0.469,0.742,1.118,0.742,2.32
				C458.401,74.499,457.395,75.839,455.919,75.839z M456.063,70.259c-0.896,0-1.434,0.656-1.434,1.408
				c0,0.768,0.599,1.313,1.469,1.313c0.912,0,1.483-0.666,1.483-1.356C457.583,70.856,456.959,70.259,456.063,70.259z"/>
			<path fill="#939598" d="M459.73,69.763h0.803v0.043l-0.692,2.276h-0.366L459.73,69.763z"/>
			<path fill="#939598" d="M462.025,69.763h3.438v0.622h-2.85l-0.129,1.912c0.35-0.153,0.684-0.265,1.177-0.265
				c1.161,0,2.065,0.691,2.065,1.835c0,1.176-0.888,1.971-2.134,1.971c-0.853,0-1.596-0.411-2.132-0.948l0.444-0.487
				c0.521,0.503,1.091,0.819,1.698,0.819c0.853,0,1.44-0.564,1.44-1.331c0-0.75-0.605-1.263-1.484-1.263
				c-0.503,0-0.904,0.153-1.254,0.341l-0.452-0.299L462.025,69.763z"/>
			<path fill="#939598" d="M467.041,69.763h0.793v0.043l-0.691,2.276h-0.359L467.041,69.763z M468.713,69.763h0.785v0.043
				l-0.691,2.276h-0.358L468.713,69.763z"/>
		</g>
		<g enable-background="new    ">
			<path fill="#939598" d="M263.084,192.621v1.047h1.521v0.486h-4.313v-1.613c0-0.973,0.518-1.613,1.374-1.613
				C262.603,190.927,263.084,191.703,263.084,192.621z M260.744,192.578v1.09h1.898v-1.066c0-0.715-0.383-1.184-0.955-1.184
				C261.063,191.418,260.744,191.883,260.744,192.578z"/>
			<path fill="#939598" d="M262.03,189.996l-0.389,0.141c-0.16-0.35-0.264-0.695-0.264-1.156c0-0.869,0.443-1.357,1.282-1.357h1.947
				v0.457h-0.481c0.291,0.221,0.548,0.59,0.548,1.15c0,0.592-0.333,1.189-0.998,1.189c-0.677,0-1.034-0.553-1.034-1.361
				c0-0.408,0.056-0.695,0.135-0.979h-0.11c-0.572,0-0.868,0.35-0.868,0.947C261.797,189.404,261.894,189.701,262.03,189.996z
				 M263.658,189.941c0.405,0,0.64-0.369,0.64-0.801c0-0.584-0.356-1.066-0.862-1.066h-0.309c-0.067,0.236-0.136,0.549-0.136,0.938
				C262.991,189.609,263.251,189.941,263.658,189.941z"/>
			<path fill="#939598" d="M264.605,186.14v0.475h-3.184v-0.475h0.554c-0.345-0.211-0.622-0.541-0.622-1.09
				c0-0.77,0.517-1.221,1.275-1.221h1.979v0.475h-1.861c-0.592,0-0.962,0.32-0.962,0.883c0,0.547,0.401,0.953,0.999,0.953H264.605
				L264.605,186.14z"/>
			<path fill="#939598" d="M263.7,182.179c0.388,0,0.53-0.217,0.53-0.535c0-0.162-0.03-0.297-0.111-0.463h0.407
				c0.087,0.166,0.137,0.346,0.137,0.574c0,0.51-0.254,0.898-0.899,0.898h-1.923v0.443h-0.418v-0.443h-0.961v-0.475h0.961v-1.01
				h0.418v1.01H263.7z"/>
			<path fill="#939598" d="M264.605,179.857v0.475h-3.184v-0.475h0.832c-0.529-0.234-0.912-0.695-0.888-1.301h0.511v0.037
				c0,0.695,0.499,1.264,1.461,1.264H264.605z"/>
			<path fill="#939598" d="M264.71,176.285c0.658,0.27,0.898,0.578,0.898,1.059c0,0.266-0.056,0.463-0.159,0.678l-0.375-0.16
				c0.079-0.154,0.116-0.295,0.116-0.498c0-0.283-0.146-0.461-0.597-0.652l-3.173,1.447v-0.525l2.656-1.156l-2.656-1.023v-0.506
				L264.71,176.285z"/>
		</g>
	</g>
</g>
</svg>
