<?xml version="1.0" encoding="utf-8"?>
<!-- Generator: Adobe Illustrator 15.0.2, SVG Export Plug-In . SVG Version: 6.00 Build 0)  -->
<!DOCTYPE svg PUBLIC "-//W3C//DTD SVG 1.1//EN" "http://www.w3.org/Graphics/SVG/1.1/DTD/svg11.dtd">
<svg version="1.1" id="Layer_1" xmlns="http://www.w3.org/2000/svg" xmlns:xlink="http://www.w3.org/1999/xlink" x="0px" y="0px"
	 width="386.34px" height="260.592px" viewBox="0 0 386.34 260.592" enable-background="new 0 0 386.34 260.592"
	 xml:space="preserve">
<g id="_x32_0_x25___PMS_2985_fill" display="none">
	<polygon display="inline" fill="#EBEEEF" points="2.791,100.5 2.791,257.5 384.211,257.5 384.211,2.963 229.689,2.963 
		229.689,100.5 	"/>
</g>
<g id="icons">
	<g>
		<g>
			<rect x="357.363" y="209.67" fill="#FFFFFF" stroke="#939598" width="23.625" height="45.692"/>
			<path fill="#FFFFFF" stroke="#939598" d="M369.176,232.519"/>
			<path fill="#FFFFFF" stroke="#939598" d="M369.176,232.674"/>
			<path fill="#FFFFFF" stroke="#939598" d="M369.176,248.167"/>
		</g>
		<circle fill="#FFFFFF" stroke="#939598" cx="369.288" cy="244.949" r="0.97"/>
		<path fill="#FFFFFF" stroke="#939598" d="M369.248,212.278c-6.771,0-9.25,1.562-9.25,3.753c0,0,0,32.839,0,33.376
			c0,0.535,0.145,1.641,1.561,1.641c1.418,0,7.689,0,7.689,0h0.016c0,0,6.271,0,7.689,0c1.416,0,1.561-1.105,1.561-1.641
			c0-0.537,0-33.354,0-33.354l-0.002-0.021C378.512,213.842,375.977,212.278,369.248,212.278z"/>
		<path fill="#FFFFFF" stroke="#939598" d="M367.256,252.747c0.002-0.549-0.439-0.988-0.994-0.988c-0.537,0-0.981,0.439-0.986,0.988
			c0.005,0.545,0.449,0.995,0.986,0.995C366.816,253.742,367.258,253.298,367.256,252.747z"/>
		<path fill="#FFFFFF" stroke="#939598" d="M373.398,252.747c0.006-0.549-0.445-0.988-0.99-0.988c-0.543,0-0.99,0.439-0.99,0.988
			c0,0.545,0.447,0.995,0.99,0.988C372.955,253.742,373.398,253.292,373.398,252.747z"/>
		<path fill="#FFFFFF" stroke="#939598" d="M367.955,253.04c0,0.812,0.549,1.469,1.361,1.471c0.811-0.002,1.254-0.658,1.254-1.471
			l-0.521-5.592c0-0.549-1.482-0.549-1.482,0L367.955,253.04z"/>
	</g>
	<g>
		<polygon fill="none" stroke="#939598" points="278.502,258.793 276.832,258.806 276.816,234.987 278.509,234.976 		"/>
		<path fill="none" stroke="#939598" d="M277.713,234.956c-13.113,0.445-23.383,11.289-22.936,24.402"/>
	</g>
	<g>
		<polygon fill="none" stroke="#939598" points="377.855,129.302 376.186,129.311 376.17,153.129 377.841,153.12 		"/>
		<path fill="none" stroke="#939598" d="M377.088,153.14c-13.113-0.445-23.383-11.226-22.936-24.339"/>
	</g>
	<g>
		<polygon fill="none" stroke="#939598" points="231.551,225.834 231.559,227.42 254.186,227.437 254.178,225.849 		"/>
		<path fill="none" stroke="#939598" d="M254.195,226.563c-0.424,12.457-10.664,22.213-23.121,21.787"/>
	</g>
	<line fill="none" stroke="#939598" x1="222.068" y1="218.375" x2="222.068" y2="256.625"/>
	
		<line fill="none" stroke="#939598" stroke-dasharray="1.5,1.5,1.5,1.5,1.5,1.5" x1="219.917" y1="218.667" x2="219.917" y2="258.167"/>
	<g>
		<polygon fill="none" stroke="#939598" points="293.061,190.673 294.73,190.683 294.746,214.5 293.075,214.491 		"/>
		<path fill="none" stroke="#939598" d="M293.828,214.51c13.113-0.444,23.383-11.225,22.936-24.338"/>
	</g>
	<g>
		<polygon fill="none" stroke="#939598" points="293.371,130.009 295.041,130 295.057,106.182 293.386,106.19 		"/>
		<path fill="none" stroke="#939598" d="M294.139,106.172c13.114,0.445,23.383,11.225,22.937,24.338"/>
	</g>
	<line fill="none" stroke="#939598" x1="357.291" y1="197.25" x2="381.791" y2="197.25"/>
	<line fill="none" stroke="#939598" x1="334.041" y1="130.75" x2="334.041" y2="191.5"/>
	
		<line fill="none" stroke="#939598" stroke-dasharray="1.5,1.5,1.5,1.5,1.5,1.5" x1="356.541" y1="199.178" x2="381.041" y2="199.178"/>
	<line fill="none" stroke="#939598" stroke-dasharray="1.5,1.5,1.5,1.5,1.5,1.5" x1="332.041" y1="131" x2="332.041" y2="190.75"/>
	<rect x="314.791" y="239.24" fill="#FFFFFF" stroke="#939598" width="31.5" height="17.01"/>
	<g>
		<path fill="#FFFFFF" stroke="#939598" stroke-miterlimit="10" d="M306.824,243.132c0-4.462-2.711-9.376-6.053-9.376
			s-6.041,4.914-6.041,9.376c0,4.463,2.699,6.785,6.041,6.785S306.824,247.595,306.824,243.132"/>
		<path fill="#FFFFFF" stroke="#939598" d="M306.824,243.132c0-4.462-2.711-9.376-6.053-9.376s-6.041,4.914-6.041,9.376
			c0,4.463,2.699,6.785,6.041,6.785S306.824,247.595,306.824,243.132z"/>
		<path fill="#FFFFFF" stroke="#939598" stroke-miterlimit="10" d="M297.148,248.454c0-0.25-0.205-0.455-0.455-0.455h-2.107
			c-0.25,0-0.455,0.205-0.455,0.455v0.077c0,0.25,0.205,0.454,0.455,0.454h2.107c0.25,0,0.455-0.204,0.455-0.454V248.454z"/>
		<path fill="#FFFFFF" stroke="#939598" d="M297.148,248.454c0-0.25-0.205-0.455-0.455-0.455h-2.107
			c-0.25,0-0.455,0.205-0.455,0.455v0.077c0,0.25,0.205,0.454,0.455,0.454h2.107c0.25,0,0.455-0.204,0.455-0.454V248.454z"/>
		<path fill="#FFFFFF" stroke="#939598" stroke-miterlimit="10" d="M293.811,248.998c-0.758,0-1.375,2.058-1.375,2.815
			c0,0.77,0.617,2.826,1.375,2.826h13.814c0.76,0,1.375-2.058,1.375-2.826c0-0.76-0.615-2.813-1.375-2.813L293.811,248.998z"/>
		<path fill="#FFFFFF" stroke="#939598" d="M293.811,248.998c-0.758,0-1.375,2.058-1.375,2.815c0,0.77,0.617,2.826,1.375,2.826
			h13.814c0.76,0,1.375-2.058,1.375-2.826c0-0.76-0.615-2.813-1.375-2.813L293.811,248.998z"/>
		<path fill="#FFFFFF" stroke="#939598" stroke-miterlimit="10" d="M305.221,242.944c0-3.278-1.992-6.893-4.449-6.893
			s-4.446,3.613-4.446,6.893c0,3.281,1.989,4.986,4.446,4.986S305.221,246.226,305.221,242.944"/>
		<path fill="#FFFFFF" stroke="#939598" d="M305.221,242.944c0-3.278-1.992-6.893-4.449-6.893s-4.446,3.613-4.446,6.893
			c0,3.281,1.989,4.986,4.446,4.986S305.221,246.226,305.221,242.944z"/>
	</g>
	<g>
		<g>
			<g>
				<path fill="none" stroke="#939598" d="M330.533,245.881"/>
			</g>
			<g>
				<path fill="none" stroke="#939598" d="M330.533,246.942"/>
			</g>
			<g>
				<circle fill="none" stroke="#939598" cx="330.533" cy="245.881" r="1.017"/>
				<path fill="none" stroke="#939598" d="M330.533,245.881"/>
			</g>
			<g>
				<g>
					<rect x="326.268" y="252.256" fill="none" stroke="#939598" width="8.553" height="2.125"/>
					<path fill="none" stroke="#939598" d="M330.533,253.317"/>
				</g>
				<g>
					<rect x="330.08" y="248.131" fill="none" stroke="#939598" width="0.906" height="4.031"/>
					<path fill="none" stroke="#939598" d="M330.533,250.49"/>
				</g>
				<g>
					<circle fill="none" stroke="#939598" cx="330.533" cy="253.298" r="0.986"/>
					<path fill="none" stroke="#939598" d="M330.533,253.298"/>
				</g>
			</g>
		</g>
		<g>
			<rect x="322.006" y="240.831" fill="none" stroke="#939598" width="17.076" height="13.875"/>
			<rect x="323.398" y="242.226" fill="none" stroke="#939598" width="14.254" height="9.98"/>
		</g>
	</g>
	<rect x="34.333" y="181" fill="#FFFFFF" stroke="#939598" width="48" height="27.625"/>
	<g>
		<g>
			<path fill="#FFFFFF" stroke="#939598" d="M60.358,191.938c0.426,0,0.771,0.344,0.771,0.771v13.444
				c0,0.427-0.346,0.771-0.771,0.771H37.552c-0.426,0-0.771-0.346-0.771-0.771v-13.444c0-0.428,0.345-0.771,0.771-0.771H60.358z"/>
			<path fill="#FFFFFF" stroke="#939598" d="M49.036,198.851"/>
		</g>
		<g>
			<circle fill="#FFFFFF" stroke="#939598" cx="49.036" cy="199.761" r="0.871"/>
			<path fill="#FFFFFF" stroke="#939598" d="M49.036,199.76"/>
		</g>
		<g>
			<g>
				<rect x="45.231" y="192.474" fill="#FFFFFF" stroke="#939598" width="7.609" height="1.82"/>
				<path fill="#FFFFFF" stroke="#939598" d="M49.036,193.383"/>
			</g>
			<g>
				<rect x="48.647" y="194.246" fill="#FFFFFF" stroke="#939598" width="0.777" height="3.586"/>
				<path fill="#FFFFFF" stroke="#939598" d="M49.036,195.808"/>
			</g>
			<g>
				<circle fill="#FFFFFF" stroke="#939598" cx="49.036" cy="193.401" r="0.847"/>
				<path fill="#FFFFFF" stroke="#939598" d="M49.036,193.401"/>
			</g>
		</g>
		<g>
			<path fill="#FFFFFF" stroke="#939598" d="M49.036,199.76"/>
			<path fill="none" stroke="#939598" d="M49.506,194.923h9.589c0.447,0,0.811,0.362,0.811,0.811v9.221
				c0,0.445-0.363,0.809-0.811,0.809h-20.28c-0.447,0-0.811-0.363-0.811-0.809v-9.221c0-0.447,0.363-0.811,0.811-0.811h9.726"/>
		</g>
	</g>
	<g>
		<polyline fill="none" stroke="#939598" stroke-dasharray="1.5,1,1.5,1,1.5,1" points="63.161,209.122 63.161,192.146 
			79.81,192.146 79.81,208.74 		"/>
		<polyline fill="#FFFFFF" stroke="#939598" points="79.835,208.74 79.835,209.749 63.161,209.749 63.161,209.128 		"/>
	</g>
	<rect x="4.541" y="235.167" fill="#FFFFFF" stroke="#939598" width="66.75" height="20.833"/>
	<g>
		<g>
			<rect x="23.49" y="234.575" fill="#FFFFFF" stroke="#939598" width="23.25" height="19.75"/>
			<path fill="#FFFFFF" stroke="#939598" d="M35.115,244.45"/>
		</g>
		<g>
			<g>
				<circle fill="#FFFFFF" stroke="#939598" cx="40.431" cy="238.95" r="2.824"/>
				<path fill="#FFFFFF" stroke="#939598" d="M40.431,238.95"/>
			</g>
			<g>
				<circle fill="#FFFFFF" stroke="#939598" stroke-width="0.8" cx="40.459" cy="238.951" r="1.989"/>
				<path fill="#FFFFFF" stroke="#939598" d="M40.459,238.95"/>
			</g>
		</g>
		<g>
			<g>
				<circle fill="#FFFFFF" stroke="#939598" cx="29.144" cy="247.2" r="2.824"/>
				<path fill="#FFFFFF" stroke="#939598" d="M29.144,247.2"/>
			</g>
			<g>
				<circle fill="#FFFFFF" stroke="#939598" stroke-width="0.8" cx="29.115" cy="247.201" r="1.989"/>
				<path fill="#FFFFFF" stroke="#939598" d="M29.115,247.2"/>
			</g>
		</g>
		<g>
			<g>
				<circle fill="#FFFFFF" stroke="#939598" cx="40.469" cy="247.173" r="3.219"/>
				<path fill="#FFFFFF" stroke="#939598" d="M40.469,247.173"/>
			</g>
			<g>
				<circle fill="#FFFFFF" stroke="#939598" stroke-width="0.8" cx="40.438" cy="247.173" r="2.268"/>
				<path fill="#FFFFFF" stroke="#939598" d="M40.438,247.173"/>
			</g>
		</g>
		<g>
			<g>
				<circle fill="#FFFFFF" stroke="#939598" cx="29.156" cy="238.733" r="3.219"/>
				<path fill="#FFFFFF" stroke="#939598" d="M29.156,238.733"/>
			</g>
			<g>
				<circle fill="#FFFFFF" stroke="#939598" stroke-width="0.8" cx="29.124" cy="238.733" r="2.268"/>
				<path fill="#FFFFFF" stroke="#939598" d="M29.124,238.733"/>
			</g>
		</g>
		<line fill="none" stroke="#939598" x1="46.771" y1="251.593" x2="23.49" y2="251.593"/>
		<line fill="none" stroke="#939598" x1="46.74" y1="252.685" x2="23.49" y2="252.685"/>
	</g>
	<g>
		<g>
			<rect x="89.391" y="232.629" fill="#FFFFFF" stroke="#939598" width="24.901" height="21.97"/>
			<path fill="#FFFFFF" stroke="#939598" d="M103.13,243.612"/>
		</g>
		<line fill="none" stroke="#939598" x1="89.331" y1="234.165" x2="114.292" y2="234.165"/>
		<rect x="110.196" y="231.544" fill="#FFFFFF" stroke="#939598" width="2.018" height="1.068"/>
		<path fill="#FFFFFF" stroke="#939598" d="M111.205,232.138"/>
	</g>
	<g>
		<polyline fill="#FFFFFF" stroke="#939598" points="86.42,228.825 88.254,228.825 88.254,254.991 72.587,254.991 72.587,228.825 
			75.92,228.825 		"/>
		<g>
			<g>
				<g>
					<polygon fill="none" stroke="#939598" stroke-width="0.7" points="81.08,219.94 82.331,220.628 77.122,229.222 75.871,228.534 
											"/>
					<path fill="none" stroke="#939598" stroke-width="0.8" d="M78.15,225.276"/>
				</g>
				<path fill="none" stroke="#939598" stroke-width="0.8" d="M81.559,220.354c3.202,1.939,4.926,5.394,4.81,8.888"/>
			</g>
		</g>
	</g>
	
		<line fill="none" stroke="#939598" stroke-dasharray="1.5,1.5,1.5,1.5,1.5,1.5" x1="1.041" y1="245.167" x2="71.541" y2="245.167"/>
	<g>
		<g>
			<rect x="236.014" y="133.317" fill="#FFFFFF" stroke="#939598" width="20.188" height="18.543"/>
			<path fill="none" stroke="#939598" d="M246.107,143.205"/>
			<line fill="none" stroke="#939598" x1="256.232" y1="136.269" x2="235.982" y2="136.269"/>
			<line fill="none" stroke="#939598" x1="256.201" y1="135.394" x2="236.014" y2="135.394"/>
			<polygon fill="none" stroke="#939598" points="239.982,138.496 239.982,147.59 242.42,149.81 249.889,149.81 252.357,147.59 
				252.357,138.496 			"/>
			<path fill="none" stroke="#939598" d="M246.17,144.151"/>
		</g>
	</g>
	<g>
		<g>
			<rect x="259.6" y="133.317" fill="#FFFFFF" stroke="#939598" width="20.188" height="18.543"/>
			<path fill="none" stroke="#939598" d="M269.693,143.205"/>
			<line fill="none" stroke="#939598" x1="279.818" y1="136.269" x2="259.568" y2="136.269"/>
			<line fill="none" stroke="#939598" x1="279.787" y1="135.394" x2="259.6" y2="135.394"/>
			<g>
				<rect x="261.068" y="151.924" fill="none" stroke="#939598" width="0.875" height="0.875"/>
				<path fill="none" stroke="#939598" d="M261.506,152.36"/>
			</g>
		</g>
	</g>
	<g>
		<g>
			<polygon fill="none" stroke="#939598" points="279.504,159.537 278,159.524 277.986,180.963 279.529,180.976 			"/>
			<path fill="none" stroke="#939598" d="M278.871,180.99c-11.803-0.4-21.045-10.16-20.643-21.962"/>
		</g>
		<g>
			<polygon fill="none" stroke="#939598" points="237.025,159.537 238.529,159.524 238.543,180.963 237,180.976 			"/>
			<path fill="none" stroke="#939598" d="M237.658,180.99c11.803-0.4,21.045-10.16,20.643-21.962"/>
		</g>
	</g>
	
		<line fill="none" stroke="#939598" stroke-dasharray="1.5,1.5,1.5,1.5,1.5,1.5" x1="242.791" y1="143.244" x2="229.041" y2="143.244"/>
	
		<line fill="none" stroke="#939598" stroke-dasharray="1.5,1.5,1.5,1.5,1.5,1.5" x1="265.791" y1="143.244" x2="249.791" y2="143.244"/>
	
		<line fill="none" stroke="#939598" stroke-dasharray="1.5,1.5,1.5,1.5,1.5,1.5" x1="284.541" y1="143.244" x2="274.541" y2="143.244"/>
	<g enable-background="new    ">
		<path fill="#939598" d="M270.284,140.641h0.455l1.345,4.098l1.4-4.083h0.582l-1.752,4.938h-0.469l-1.345-3.979l-1.352,3.979
			h-0.462l-1.752-4.938h0.604l1.4,4.083L270.284,140.641z"/>
	</g>
	<g enable-background="new    ">
		<path fill="#939598" d="M246.188,145.558h-1.702v-4.902h1.702c1.541,0,2.605,1.058,2.605,2.444S247.729,145.558,246.188,145.558z
			 M246.188,141.166h-1.148v3.88h1.148c1.239,0,2.031-0.84,2.031-1.933S247.427,141.166,246.188,141.166z"/>
	</g>
	<g>
		<polyline fill="#FFFFFF" stroke="#939598" points="129.592,228.825 131.426,228.825 131.426,254.991 115.759,254.991 
			115.759,228.825 119.092,228.825 		"/>
		<g>
			<g>
				<g>
					<polygon fill="none" stroke="#939598" stroke-width="0.7" points="124.252,219.94 125.503,220.628 120.294,229.222 
						119.043,228.534 					"/>
					<path fill="none" stroke="#939598" stroke-width="0.8" d="M121.322,225.276"/>
				</g>
				<path fill="none" stroke="#939598" stroke-width="0.8" d="M124.73,220.354c3.202,1.939,4.926,5.394,4.81,8.888"/>
			</g>
		</g>
	</g>
	<line fill="none" stroke="#939598" stroke-dasharray="1.5,1.5,1.5,1.5,1.5,1.5" x1="88.764" y1="244.5" x2="113.264" y2="244.5"/>
</g>
<g id="Type">
	<g enable-background="new    ">
		<path fill="#939598" d="M261.009,253.776h-2.991v1.674h2.676v0.505h-2.676v1.716h3.026v0.504h-3.579v-4.902h3.544V253.776z"/>
		<path fill="#939598" d="M262.604,258.175h-0.539v-3.621h0.539v0.631c0.238-0.393,0.615-0.708,1.239-0.708
			c0.876,0,1.387,0.589,1.387,1.45v2.248h-0.54v-2.115c0-0.672-0.363-1.093-1.001-1.093c-0.623,0-1.085,0.455-1.085,1.135V258.175z"
			/>
		<path fill="#939598" d="M267.104,257.146c0,0.441,0.246,0.603,0.609,0.603c0.183,0,0.337-0.035,0.525-0.127v0.463
			c-0.188,0.098-0.392,0.154-0.65,0.154c-0.582,0-1.023-0.288-1.023-1.023v-2.185h-0.504v-0.477h0.504v-1.093h0.539v1.093h1.149
			v0.477h-1.149V257.146z"/>
		<path fill="#939598" d="M269.743,258.175h-0.539v-3.621h0.539v0.945c0.267-0.602,0.792-1.036,1.478-1.008v0.581h-0.042
			c-0.791,0-1.436,0.567-1.436,1.66V258.175z"/>
		<path fill="#939598" d="M273.804,258.294c-0.308,0.749-0.658,1.022-1.204,1.022c-0.302,0-0.525-0.063-0.771-0.182l0.183-0.428
			c0.175,0.091,0.337,0.133,0.567,0.133c0.322,0,0.525-0.168,0.742-0.679l-1.646-3.607h0.595l1.317,3.019l1.163-3.019h0.574
			L273.804,258.294z"/>
	</g>
	<g enable-background="new    ">
		<path fill="#939598" d="M228.84,245.399c0,1.414-1.113,2.459-2.528,2.459c-1.4,0-2.542-1.037-2.542-2.48
			c0-0.889,0.314-1.422,0.777-1.912l0.406,0.379c-0.393,0.413-0.673,0.875-0.673,1.541c0,1.086,0.876,1.897,2.018,1.897
			s2.031-0.819,2.031-1.897c0-0.673-0.26-1.113-0.708-1.583l0.357-0.364C228.497,243.95,228.84,244.51,228.84,245.399z"/>
		<path fill="#939598" d="M228.756,242.517h-5.112v-0.539h5.112V242.517z"/>
		<path fill="#939598" d="M228.84,239.071c0,1.086-0.854,1.877-1.884,1.877s-1.898-0.798-1.898-1.891
			c0-1.086,0.854-1.884,1.884-1.884C227.972,237.174,228.84,237.979,228.84,239.071z M225.534,239.071
			c0,0.785,0.623,1.324,1.407,1.324c0.785,0,1.415-0.574,1.415-1.338c0-0.784-0.623-1.33-1.4-1.33
			C226.164,237.728,225.534,238.309,225.534,239.071z"/>
		<path fill="#939598" d="M228.826,235.005c0,0.519-0.203,1.093-0.532,1.499l-0.386-0.272c0.294-0.393,0.463-0.827,0.463-1.254
			c0-0.435-0.225-0.75-0.575-0.75h-0.014c-0.364,0-0.504,0.428-0.638,0.904c-0.16,0.566-0.356,1.197-1.022,1.197h-0.014
			c-0.623,0-1.036-0.519-1.036-1.232c0-0.441,0.153-0.932,0.398-1.303l0.406,0.244c-0.217,0.337-0.35,0.723-0.35,1.072
			c0,0.428,0.224,0.7,0.525,0.7h0.014c0.343,0,0.477-0.448,0.623-0.932c0.168-0.56,0.386-1.163,1.037-1.163h0.014
			C228.427,233.716,228.826,234.284,228.826,235.005z"/>
		<path fill="#939598" d="M228.371,231.12c0-0.497-0.203-0.848-0.512-1.142l0.301-0.336c0.406,0.364,0.68,0.806,0.68,1.491
			c0,0.995-0.764,1.807-1.891,1.807c-1.051,0-1.892-0.734-1.892-1.736c0-1.071,0.854-1.688,1.919-1.688c0.05,0,0.105,0,0.168,0.007
			v2.872C227.93,232.317,228.371,231.757,228.371,231.12z M226.746,230.062c-0.658,0.056-1.233,0.435-1.233,1.155
			c0,0.631,0.525,1.107,1.233,1.178V230.062z"/>
		<path fill="#939598" d="M227.727,227.845c0.441,0,0.603-0.245,0.603-0.609c0-0.182-0.035-0.336-0.127-0.525h0.463
			c0.098,0.189,0.154,0.393,0.154,0.651c0,0.581-0.288,1.022-1.023,1.022h-2.185v0.504h-0.477v-0.504h-1.093v-0.539h1.093v-1.148
			h0.477v1.148H227.727z"/>
	</g>
	<g enable-background="new    ">
		<path fill="#939598" d="M319.238,217.678c0,0.828-0.504,1.252-1,1.468c0.748,0.225,1.351,0.657,1.351,1.53
			c0,1.089-0.909,1.729-2.286,1.729h-2.801v-6.302h2.684C318.428,216.103,319.238,216.715,319.238,217.678z M318.518,217.777
			c0-0.631-0.495-1.036-1.395-1.036h-1.918v2.17h1.863C317.924,218.911,318.518,218.524,318.518,217.777z M318.869,220.631
			c0-0.693-0.576-1.09-1.675-1.09h-1.989v2.224h2.115C318.275,221.765,318.869,221.342,318.869,220.631z"/>
		<path fill="#939598" d="M321.154,218.642l-0.207-0.567c0.513-0.234,1.017-0.388,1.691-0.388c1.27,0,1.98,0.648,1.98,1.873v2.845
			h-0.666v-0.702c-0.324,0.423-0.863,0.801-1.684,0.801c-0.863,0-1.736-0.485-1.736-1.458c0-0.99,0.81-1.513,1.988-1.513
			c0.595,0,1.018,0.081,1.432,0.198v-0.162c0-0.837-0.513-1.27-1.387-1.27C322.018,218.299,321.586,218.443,321.154,218.642z
			 M321.234,221.018c0,0.595,0.541,0.937,1.171,0.937c0.854,0,1.558-0.522,1.558-1.261v-0.449c-0.342-0.1-0.802-0.198-1.369-0.198
			C321.721,220.046,321.234,220.424,321.234,221.018z"/>
		<path fill="#939598" d="M326.986,221.081c0,0.567,0.315,0.774,0.783,0.774c0.234,0,0.433-0.045,0.676-0.162v0.594
			c-0.243,0.126-0.504,0.198-0.838,0.198c-0.746,0-1.314-0.369-1.314-1.314v-2.809h-0.647v-0.612h0.647v-1.404h0.693v1.404h1.477
			v0.612h-1.477V221.081z"/>
		<path fill="#939598" d="M330.379,222.404h-0.692v-6.572h0.692v2.729c0.307-0.505,0.793-0.91,1.594-0.91
			c1.125,0,1.783,0.757,1.783,1.864v2.89h-0.693v-2.719c0-0.864-0.469-1.404-1.287-1.404c-0.802,0-1.396,0.585-1.396,1.458V222.404z
			"/>
	</g>
	<g enable-background="new    ">
		<path fill="#939598" d="M346.28,166.175c-1.415,0-2.458-1.113-2.458-2.528c0-1.4,1.036-2.542,2.479-2.542
			c0.891,0,1.422,0.314,1.912,0.777l-0.378,0.406c-0.413-0.393-0.876-0.673-1.54-0.673c-1.086,0-1.898,0.876-1.898,2.018
			s0.819,2.031,1.898,2.031c0.672,0,1.113-0.26,1.582-0.708l0.364,0.357C347.73,165.832,347.17,166.175,346.28,166.175z"/>
		<path fill="#939598" d="M349.163,166.091v-5.112h0.539v5.112H349.163z"/>
		<path fill="#939598" d="M352.607,166.175c-1.086,0-1.877-0.854-1.877-1.884s0.799-1.898,1.891-1.898
			c1.086,0,1.885,0.854,1.885,1.884C354.506,165.307,353.7,166.175,352.607,166.175z M352.607,162.869
			c-0.784,0-1.323,0.623-1.323,1.407c0,0.785,0.574,1.415,1.337,1.415c0.785,0,1.332-0.623,1.332-1.4
			C353.953,163.499,353.371,162.869,352.607,162.869z"/>
		<path fill="#939598" d="M356.674,166.161c-0.518,0-1.092-0.203-1.498-0.532l0.273-0.386c0.392,0.294,0.826,0.463,1.254,0.463
			c0.434,0,0.749-0.225,0.749-0.575v-0.014c0-0.364-0.427-0.504-0.903-0.638c-0.568-0.16-1.198-0.356-1.198-1.022v-0.014
			c0-0.623,0.519-1.036,1.233-1.036c0.441,0,0.932,0.153,1.303,0.398l-0.246,0.406c-0.336-0.217-0.721-0.35-1.071-0.35
			c-0.427,0-0.7,0.224-0.7,0.525v0.014c0,0.343,0.448,0.477,0.932,0.623c0.561,0.168,1.162,0.386,1.162,1.037v0.014
			C357.963,165.762,357.396,166.161,356.674,166.161z"/>
		<path fill="#939598" d="M360.56,165.706c0.497,0,0.848-0.203,1.142-0.512l0.336,0.301c-0.363,0.406-0.805,0.68-1.492,0.68
			c-0.994,0-1.807-0.764-1.807-1.891c0-1.051,0.736-1.892,1.737-1.892c1.071,0,1.688,0.854,1.688,1.919c0,0.05,0,0.105-0.008,0.168
			h-2.871C359.361,165.265,359.922,165.706,360.56,165.706z M361.617,164.081c-0.057-0.658-0.434-1.233-1.156-1.233
			c-0.63,0-1.105,0.525-1.176,1.233H361.617z"/>
		<path fill="#939598" d="M363.835,165.062c0,0.441,0.245,0.603,0.609,0.603c0.183,0,0.337-0.035,0.525-0.127V166
			c-0.188,0.098-0.392,0.154-0.651,0.154c-0.581,0-1.022-0.288-1.022-1.023v-2.185h-0.505v-0.477h0.505v-1.093h0.539v1.093h1.149
			v0.477h-1.149V165.062z"/>
	</g>
	<g enable-background="new    ">
		<path fill="#939598" d="M49.779,183.939v4.902h-0.554v-4.902H49.779z"/>
		<path fill="#939598" d="M52.32,188.912c-0.518,0-1.092-0.203-1.499-0.532l0.273-0.386c0.392,0.294,0.827,0.463,1.254,0.463
			c0.434,0,0.749-0.225,0.749-0.575v-0.014c0-0.364-0.427-0.504-0.903-0.638c-0.567-0.16-1.198-0.356-1.198-1.022v-0.014
			c0-0.623,0.519-1.036,1.233-1.036c0.441,0,0.932,0.153,1.303,0.398l-0.245,0.406c-0.336-0.217-0.722-0.35-1.072-0.35
			c-0.427,0-0.7,0.224-0.7,0.525v0.014c0,0.343,0.448,0.477,0.932,0.623c0.56,0.168,1.163,0.386,1.163,1.037v0.014
			C53.609,188.513,53.042,188.912,52.32,188.912z"/>
		<path fill="#939598" d="M54.658,188.842v-5.112h0.539v5.112H54.658z"/>
		<path fill="#939598" d="M56.66,185.914l-0.161-0.441c0.399-0.182,0.792-0.301,1.317-0.301c0.987,0,1.541,0.504,1.541,1.457v2.213
			h-0.518v-0.546c-0.252,0.329-0.672,0.623-1.31,0.623c-0.673,0-1.352-0.378-1.352-1.135c0-0.771,0.63-1.177,1.548-1.177
			c0.462,0,0.792,0.063,1.114,0.154v-0.126c0-0.651-0.399-0.987-1.079-0.987C57.332,185.648,56.996,185.76,56.66,185.914z
			 M56.723,187.764c0,0.462,0.42,0.728,0.911,0.728c0.665,0,1.211-0.406,1.211-0.98v-0.35c-0.266-0.077-0.623-0.154-1.064-0.154
			C57.101,187.007,56.723,187.301,56.723,187.764z"/>
		<path fill="#939598" d="M61.042,188.842h-0.539v-3.621h0.539v0.631c0.238-0.393,0.616-0.708,1.24-0.708
			c0.875,0,1.387,0.589,1.387,1.45v2.248h-0.54v-2.115c0-0.672-0.364-1.093-1.001-1.093c-0.623,0-1.085,0.455-1.085,1.135V188.842z"
			/>
		<path fill="#939598" d="M67.721,188.842v-0.729c-0.294,0.435-0.721,0.806-1.387,0.806c-0.868,0-1.73-0.687-1.73-1.884
			c0-1.191,0.862-1.892,1.73-1.892c0.672,0,1.106,0.364,1.387,0.771v-2.185h0.54v5.112H67.721z M66.432,185.627
			c-0.7,0-1.275,0.519-1.275,1.4c0,0.862,0.588,1.408,1.275,1.408c0.672,0,1.31-0.561,1.31-1.408
			C67.742,186.188,67.104,185.627,66.432,185.627z"/>
	</g>
	<g enable-background="new    ">
		<path fill="#939598" d="M42.618,223.904h-0.891l-2.422-3.052l-1.341,1.359v1.692h-0.711v-6.302h0.711v3.763l3.619-3.763h0.918
			l-2.701,2.755L42.618,223.904z"/>
		<path fill="#939598" d="M43.624,218.232v-0.765h0.792v0.765H43.624z M43.669,223.904v-4.654h0.693v4.654H43.669z"/>
		<path fill="#939598" d="M46.91,222.581c0,0.567,0.315,0.774,0.783,0.774c0.234,0,0.432-0.045,0.675-0.162v0.594
			c-0.243,0.126-0.504,0.198-0.837,0.198c-0.747,0-1.314-0.369-1.314-1.314v-2.809h-0.648v-0.612h0.648v-1.404h0.693v1.404h1.477
			v0.612H46.91V222.581z"/>
		<path fill="#939598" d="M51.573,224.013c-1.359,0-2.386-1.107-2.386-2.422c0-1.323,1.026-2.44,2.386-2.44
			c0.882,0,1.431,0.369,1.863,0.829l-0.459,0.485c-0.369-0.387-0.783-0.702-1.414-0.702c-0.945,0-1.666,0.802-1.666,1.81
			c0,1.018,0.738,1.819,1.71,1.819c0.594,0,1.053-0.298,1.422-0.693l0.441,0.414C53.004,223.634,52.446,224.013,51.573,224.013z"/>
		<path fill="#939598" d="M55.307,223.904h-0.693v-6.572h0.693v2.729c0.306-0.505,0.792-0.91,1.594-0.91
			c1.125,0,1.782,0.757,1.782,1.864v2.89H57.99v-2.719c0-0.864-0.468-1.404-1.288-1.404c-0.801,0-1.396,0.585-1.396,1.458V223.904z"
			/>
		<path fill="#939598" d="M62.21,223.409c0.639,0,1.089-0.261,1.468-0.657l0.432,0.387c-0.468,0.522-1.036,0.874-1.918,0.874
			c-1.278,0-2.322-0.981-2.322-2.431c0-1.351,0.945-2.432,2.232-2.432c1.377,0,2.17,1.099,2.17,2.467c0,0.063,0,0.136-0.009,0.217
			h-3.691C60.671,222.842,61.392,223.409,62.21,223.409z M63.57,221.32c-0.072-0.846-0.558-1.584-1.485-1.584
			c-0.81,0-1.422,0.675-1.512,1.584H63.57z"/>
		<path fill="#939598" d="M66.179,223.904h-0.693v-4.654h0.693v0.811c0.306-0.505,0.792-0.91,1.594-0.91
			c1.125,0,1.782,0.757,1.782,1.864v2.89h-0.693v-2.719c0-0.864-0.468-1.404-1.288-1.404c-0.801,0-1.396,0.585-1.396,1.458V223.904z
			"/>
	</g>
	<g enable-background="new    ">
		<path fill="#939598" d="M67.205,203.341h-1.702v-4.902h1.702c1.541,0,2.605,1.058,2.605,2.444S68.746,203.341,67.205,203.341z
			 M67.205,198.949h-1.149v3.88h1.149c1.239,0,2.031-0.84,2.031-1.933S68.444,198.949,67.205,198.949z"/>
		<path fill="#939598" d="M73.695,198.424h0.455l1.345,4.098l1.401-4.083h0.581l-1.751,4.938h-0.469l-1.345-3.979l-1.352,3.979
			h-0.462l-1.751-4.938h0.603l1.401,4.083L73.695,198.424z"/>
	</g>
	<g enable-background="new    ">
		<path fill="#939598" d="M99.91,242.204l-1.422-1.905h-1.401v1.905h-0.553v-4.902h2.108c1.078,0,1.771,0.581,1.771,1.464
			c0,0.819-0.56,1.295-1.331,1.436l1.506,2.003H99.91z M98.6,237.812h-1.513v1.989h1.506c0.735,0,1.261-0.378,1.261-1.016
			C99.854,238.177,99.392,237.812,98.6,237.812z"/>
		<path fill="#939598" d="M103.031,241.819c0.497,0,0.848-0.203,1.142-0.512l0.336,0.301c-0.364,0.406-0.805,0.68-1.492,0.68
			c-0.995,0-1.807-0.764-1.807-1.891c0-1.051,0.735-1.892,1.737-1.892c1.071,0,1.688,0.854,1.688,1.919c0,0.05,0,0.105-0.007,0.168
			h-2.872C101.833,241.378,102.394,241.819,103.031,241.819z M104.088,240.194c-0.056-0.658-0.434-1.233-1.156-1.233
			c-0.63,0-1.106,0.525-1.177,1.233H104.088z"/>
		<path fill="#939598" d="M107.462,238.597v0.463h-1.142v3.145h-0.539v-3.145h-0.498v-0.47h0.498v-0.314
			c0-0.792,0.399-1.212,1.092-1.212c0.252,0,0.42,0.028,0.595,0.091v0.47c-0.196-0.057-0.343-0.092-0.525-0.092
			c-0.42,0-0.63,0.253-0.63,0.771v0.294H107.462z"/>
	</g>
	<g enable-background="new    ">
		<path fill="#939598" d="M81.628,249.744v1.19h1.729v0.554h-4.902v-1.835c0-1.106,0.588-1.835,1.562-1.835
			C81.081,247.818,81.628,248.7,81.628,249.744z M78.966,249.695v1.239h2.157v-1.211c0-0.812-0.434-1.346-1.085-1.346
			C79.33,248.378,78.966,248.903,78.966,249.695z"/>
		<path fill="#939598" d="M80.43,246.763l-0.441,0.162c-0.182-0.4-0.301-0.792-0.301-1.317c0-0.987,0.504-1.54,1.457-1.54h2.213
			v0.518h-0.546c0.329,0.252,0.623,0.672,0.623,1.31c0,0.673-0.378,1.353-1.135,1.353c-0.771,0-1.177-0.631-1.177-1.549
			c0-0.462,0.063-0.791,0.154-1.113h-0.126c-0.651,0-0.987,0.399-0.987,1.078C80.164,246.091,80.275,246.427,80.43,246.763z
			 M82.279,246.7c0.462,0,0.728-0.42,0.728-0.91c0-0.666-0.406-1.212-0.98-1.212h-0.35c-0.077,0.267-0.154,0.623-0.154,1.064
			C81.522,246.321,81.816,246.7,82.279,246.7z"/>
		<path fill="#939598" d="M83.357,242.382v0.539h-3.621v-0.539h0.631c-0.393-0.238-0.708-0.617-0.708-1.24
			c0-0.875,0.589-1.387,1.45-1.387h2.248v0.539h-2.115c-0.672,0-1.093,0.364-1.093,1.002c0,0.623,0.455,1.086,1.135,1.086H83.357z"
			/>
		<path fill="#939598" d="M82.328,237.88c0.441,0,0.603-0.244,0.603-0.609c0-0.182-0.035-0.336-0.127-0.525h0.463
			c0.098,0.189,0.154,0.393,0.154,0.652c0,0.581-0.288,1.021-1.023,1.021h-2.185v0.505h-0.477v-0.505h-1.093v-0.539h1.093v-1.148
			h0.477v1.148H82.328z"/>
		<path fill="#939598" d="M83.357,235.241v0.539h-3.621v-0.539h0.945c-0.602-0.266-1.036-0.791-1.008-1.479h0.581v0.043
			c0,0.791,0.567,1.436,1.66,1.436H83.357z"/>
		<path fill="#939598" d="M83.477,231.181c0.749,0.309,1.022,0.658,1.022,1.205c0,0.301-0.063,0.525-0.182,0.77l-0.428-0.182
			c0.091-0.176,0.133-0.336,0.133-0.567c0-0.322-0.168-0.525-0.679-0.742l-3.607,1.646v-0.596l3.019-1.316l-3.019-1.162v-0.574
			L83.477,231.181z"/>
	</g>
	<g enable-background="new    ">
		<path fill="#939598" d="M243.941,153.168h0.553v4.391h2.76v0.512h-3.312V153.168z"/>
		<path fill="#939598" d="M248.394,155.143l-0.161-0.441c0.399-0.182,0.791-0.301,1.316-0.301c0.988,0,1.541,0.504,1.541,1.457
			v2.213h-0.518v-0.546c-0.253,0.329-0.673,0.623-1.311,0.623c-0.672,0-1.352-0.378-1.352-1.135c0-0.771,0.631-1.177,1.548-1.177
			c0.462,0,0.792,0.063,1.114,0.154v-0.126c0-0.651-0.4-0.987-1.079-0.987C249.066,154.877,248.729,154.988,248.394,155.143z
			 M248.457,156.992c0,0.462,0.42,0.728,0.91,0.728c0.665,0,1.211-0.406,1.211-0.98v-0.35c-0.266-0.077-0.623-0.154-1.064-0.154
			C248.835,156.235,248.457,156.529,248.457,156.992z"/>
		<path fill="#939598" d="M254.807,154.449h0.532v3.621h-0.532v-0.63c-0.245,0.392-0.617,0.707-1.24,0.707
			c-0.875,0-1.387-0.589-1.387-1.45v-2.248h0.539v2.115c0,0.673,0.365,1.093,1.002,1.093c0.617,0,1.086-0.455,1.086-1.135V154.449z"
			/>
		<path fill="#939598" d="M257.088,158.07h-0.539v-3.621h0.539v0.631c0.238-0.393,0.615-0.708,1.239-0.708
			c0.876,0,1.387,0.589,1.387,1.45v2.248h-0.54v-2.115c0-0.672-0.363-1.093-1.001-1.093c-0.623,0-1.085,0.455-1.085,1.135V158.07z"
			/>
		<path fill="#939598" d="M263.767,158.07v-0.729c-0.294,0.435-0.722,0.806-1.387,0.806c-0.868,0-1.729-0.687-1.729-1.884
			c0-1.191,0.861-1.892,1.729-1.892c0.673,0,1.106,0.364,1.387,0.771v-2.185h0.54v5.112H263.767z M262.479,154.855
			c-0.701,0-1.275,0.519-1.275,1.4c0,0.862,0.588,1.408,1.275,1.408c0.672,0,1.309-0.561,1.309-1.408
			C263.787,155.416,263.15,154.855,262.479,154.855z"/>
		<path fill="#939598" d="M266.047,158.07h-0.539v-3.621h0.539v0.945c0.267-0.602,0.792-1.036,1.479-1.008v0.581h-0.042
			c-0.792,0-1.437,0.567-1.437,1.66V158.07z"/>
		<path fill="#939598" d="M270.107,158.189c-0.308,0.749-0.658,1.022-1.204,1.022c-0.302,0-0.525-0.063-0.771-0.182l0.182-0.428
			c0.176,0.091,0.337,0.133,0.568,0.133c0.322,0,0.525-0.168,0.742-0.679l-1.646-3.607h0.596l1.316,3.019l1.163-3.019h0.574
			L270.107,158.189z"/>
	</g>
	<g enable-background="new    ">
		<path fill="#939598" d="M290.73,53.53c0,0.828-0.504,1.252-0.998,1.468c0.746,0.225,1.35,0.657,1.35,1.53
			c0,1.089-0.909,1.729-2.287,1.729h-2.799v-6.302h2.683C289.921,51.955,290.73,52.567,290.73,53.53z M290.011,53.63
			c0-0.631-0.495-1.036-1.396-1.036h-1.918v2.17h1.864C289.417,54.764,290.011,54.377,290.011,53.63z M290.362,56.483
			c0-0.693-0.576-1.09-1.675-1.09h-1.99v2.224h2.116C289.768,57.617,290.362,57.194,290.362,56.483z"/>
		<path fill="#939598" d="M294.43,57.762c0.639,0,1.089-0.261,1.467-0.657l0.433,0.387c-0.468,0.522-1.036,0.874-1.918,0.874
			c-1.278,0-2.322-0.981-2.322-2.431c0-1.351,0.945-2.432,2.232-2.432c1.378,0,2.17,1.099,2.17,2.467c0,0.063,0,0.136-0.009,0.217
			h-3.691C292.891,57.194,293.61,57.762,294.43,57.762z M295.789,55.673c-0.072-0.846-0.559-1.584-1.486-1.584
			c-0.81,0-1.422,0.675-1.512,1.584H295.789z"/>
		<path fill="#939598" d="M301.44,58.257V57.32c-0.378,0.559-0.927,1.035-1.782,1.035c-1.117,0-2.224-0.882-2.224-2.421
			c0-1.531,1.106-2.432,2.224-2.432c0.864,0,1.422,0.469,1.782,0.991v-2.81h0.693v6.572H301.44z M299.784,54.125
			c-0.9,0-1.639,0.666-1.639,1.8c0,1.107,0.757,1.81,1.639,1.81c0.864,0,1.684-0.72,1.684-1.81
			C301.468,54.845,300.648,54.125,299.784,54.125z"/>
		<path fill="#939598" d="M304.373,58.257h-0.692v-4.654h0.692v1.215c0.343-0.773,1.018-1.332,1.9-1.296v0.747h-0.055
			c-1.017,0-1.846,0.729-1.846,2.134V58.257z"/>
		<path fill="#939598" d="M309.252,58.365c-1.395,0-2.412-1.099-2.412-2.422s1.026-2.44,2.431-2.44c1.396,0,2.421,1.099,2.421,2.422
			C311.691,57.249,310.656,58.365,309.252,58.365z M309.252,54.115c-1.008,0-1.701,0.802-1.701,1.81c0,1.009,0.738,1.819,1.72,1.819
			c1.009,0,1.71-0.802,1.71-1.801C310.98,54.926,310.234,54.115,309.252,54.115z"/>
		<path fill="#939598" d="M315.066,58.365c-1.396,0-2.412-1.099-2.412-2.422s1.025-2.44,2.43-2.44c1.396,0,2.422,1.099,2.422,2.422
			C317.506,57.249,316.471,58.365,315.066,58.365z M315.066,54.115c-1.008,0-1.701,0.802-1.701,1.81
			c0,1.009,0.738,1.819,1.719,1.819c1.009,0,1.711-0.802,1.711-1.801C316.795,54.926,316.048,54.115,315.066,54.115z"/>
		<path fill="#939598" d="M324.086,53.503c1.07,0,1.729,0.721,1.729,1.873v2.881h-0.693v-2.719c0-0.9-0.451-1.404-1.207-1.404
			c-0.702,0-1.287,0.521-1.287,1.44v2.683h-0.685v-2.736c0-0.874-0.459-1.387-1.197-1.387s-1.296,0.612-1.296,1.467v2.656h-0.693
			v-4.654h0.693v0.783c0.306-0.459,0.72-0.883,1.503-0.883c0.757,0,1.243,0.405,1.495,0.928
			C322.779,53.918,323.275,53.503,324.086,53.503z"/>
	</g>
	<g enable-background="new    ">
		<path fill="#939598" d="M281.865,62.91h0.521v6.347h-0.702v-5.608l-1.188,0.369l-0.171-0.576L281.865,62.91z"/>
		<path fill="#939598" d="M287.913,64.116c-0.468-0.396-0.909-0.621-1.485-0.621c-1.143,0-1.854,1.152-1.846,2.782
			c0.342-0.505,0.873-0.964,1.792-0.964c1.179,0,2.179,0.757,2.179,1.944c0,1.225-0.981,2.107-2.26,2.107
			c-0.693,0-1.261-0.243-1.656-0.64c-0.504-0.504-0.793-1.152-0.793-2.448c0-1.927,0.973-3.431,2.62-3.431
			c0.757,0,1.314,0.271,1.864,0.721L287.913,64.116z M286.283,65.926c-0.945,0-1.574,0.675-1.574,1.387
			c0,0.819,0.666,1.422,1.593,1.422s1.521-0.639,1.521-1.449C287.823,66.502,287.193,65.926,286.283,65.926z"/>
		<path fill="#939598" d="M289.974,62.955h0.847V63l-0.73,2.403h-0.387L289.974,62.955z"/>
		<path fill="#939598" d="M292.395,62.955h3.627v0.657h-3.006l-0.135,2.017c0.369-0.162,0.72-0.279,1.242-0.279
			c1.225,0,2.178,0.729,2.178,1.936c0,1.242-0.936,2.08-2.25,2.08c-0.9,0-1.684-0.433-2.251-1l0.468-0.513
			c0.55,0.531,1.152,0.864,1.792,0.864c0.9,0,1.521-0.595,1.521-1.404c0-0.792-0.64-1.333-1.566-1.333
			c-0.531,0-0.954,0.162-1.323,0.36l-0.478-0.315L292.395,62.955z"/>
		<path fill="#939598" d="M297.687,62.955h0.837V63l-0.729,2.403h-0.379L297.687,62.955z M299.451,62.955h0.828V63l-0.729,2.403
			h-0.378L299.451,62.955z"/>
		<path fill="#939598" d="M308.307,69.257h-0.801l-1.44-1.899l-1.449,1.899h-0.774l1.828-2.368l-1.756-2.286h0.792l1.378,1.801
			l1.377-1.801h0.774l-1.765,2.269L308.307,69.257z"/>
		<path fill="#939598" d="M313.148,62.91h0.521v6.347h-0.702v-5.608l-1.188,0.369l-0.171-0.576L313.148,62.91z"/>
		<path fill="#939598" d="M315.361,63.594v-0.639h4.025v0.522l-1.981,2.196c1.107,0.09,2.079,0.621,2.079,1.782
			c0,1.135-0.936,1.909-2.105,1.909c-1.054,0-1.837-0.46-2.35-1.126l0.513-0.459c0.485,0.595,1.071,0.937,1.846,0.937
			c0.765,0,1.377-0.486,1.377-1.233c0-0.792-0.72-1.225-1.765-1.225h-0.404l-0.145-0.423l1.99-2.242H315.361z"/>
		<path fill="#939598" d="M320.951,62.955h0.846V63l-0.729,2.403h-0.388L320.951,62.955z"/>
		<path fill="#939598" d="M323.371,62.955H327v0.657h-3.008l-0.135,2.017c0.369-0.162,0.721-0.279,1.242-0.279
			c1.225,0,2.18,0.729,2.18,1.936c0,1.242-0.938,2.08-2.251,2.08c-0.9,0-1.684-0.433-2.251-1l0.469-0.513
			c0.549,0.531,1.152,0.864,1.791,0.864c0.9,0,1.521-0.595,1.521-1.404c0-0.792-0.639-1.333-1.566-1.333
			c-0.531,0-0.955,0.162-1.323,0.36l-0.478-0.315L323.371,62.955z"/>
		<path fill="#939598" d="M328.664,62.955h0.836V63l-0.729,2.403h-0.379L328.664,62.955z M330.428,62.955h0.828V63l-0.729,2.403
			h-0.379L330.428,62.955z"/>
	</g>
	<g enable-background="new    ">
		<path fill="#939598" d="M70.858,140.622h0.711v5.645h3.547v0.657h-4.258V140.622z"/>
		<path fill="#939598" d="M76.331,141.252v-0.765h0.792v0.765H76.331z M76.375,146.924v-4.654h0.693v4.654H76.375z"/>
		<path fill="#939598" d="M82.127,142.27h0.747l-2.025,4.69h-0.612l-2.017-4.69h0.766l1.566,3.862L82.127,142.27z"/>
		<path fill="#939598" d="M83.98,141.252v-0.765h0.792v0.765H83.98z M84.025,146.924v-4.654h0.693v4.654H84.025z"/>
		<path fill="#939598" d="M87.022,146.924h-0.693v-4.654h0.693v0.811c0.306-0.505,0.792-0.91,1.594-0.91
			c1.125,0,1.782,0.757,1.782,1.864v2.89h-0.693v-2.719c0-0.864-0.468-1.404-1.288-1.404c-0.801,0-1.396,0.585-1.396,1.458V146.924z
			"/>
		<path fill="#939598" d="M93.935,148.382c-0.774,0-1.495-0.216-2.116-0.647l0.315-0.54c0.531,0.387,1.125,0.594,1.792,0.594
			c1.026,0,1.693-0.567,1.693-1.656v-0.55c-0.405,0.541-0.973,0.981-1.828,0.981c-1.116,0-2.188-0.828-2.188-2.188
			c0-1.368,1.08-2.206,2.188-2.206c0.873,0,1.44,0.433,1.818,0.937v-0.837h0.693v3.844
			C96.302,147.617,95.366,148.382,93.935,148.382z M93.925,142.782c-0.882,0-1.611,0.604-1.611,1.576
			c0,0.954,0.747,1.593,1.611,1.593c0.882,0,1.711-0.63,1.711-1.584C95.636,143.403,94.808,142.782,93.925,142.782z"/>
		<path fill="#939598" d="M101.702,139.739l-4.177,8.337h-0.639l4.177-8.337H101.702z"/>
		<path fill="#939598" d="M104.726,146.924h-2.188v-6.302h2.188c1.98,0,3.349,1.359,3.349,3.142
			C108.074,145.547,106.706,146.924,104.726,146.924z M104.726,141.279h-1.477v4.987h1.477c1.593,0,2.611-1.08,2.611-2.484
			S106.319,141.279,104.726,141.279z"/>
		<path fill="#939598" d="M109.477,141.252v-0.765h0.792v0.765H109.477z M109.522,146.924v-4.654h0.693v4.654H109.522z"/>
		<path fill="#939598" d="M112.519,146.924h-0.693v-4.654h0.693v0.811c0.306-0.505,0.792-0.91,1.594-0.91
			c1.125,0,1.782,0.757,1.782,1.864v2.89h-0.693v-2.719c0-0.864-0.468-1.404-1.288-1.404c-0.801,0-1.396,0.585-1.396,1.458V146.924z
			"/>
		<path fill="#939598" d="M117.387,141.252v-0.765h0.792v0.765H117.387z M117.433,146.924v-4.654h0.693v4.654H117.433z"/>
		<path fill="#939598" d="M120.43,146.924h-0.693v-4.654h0.693v0.811c0.306-0.505,0.792-0.91,1.594-0.91
			c1.125,0,1.782,0.757,1.782,1.864v2.89h-0.693v-2.719c0-0.864-0.468-1.404-1.288-1.404c-0.801,0-1.396,0.585-1.396,1.458V146.924z
			"/>
		<path fill="#939598" d="M127.342,148.382c-0.774,0-1.495-0.216-2.116-0.647l0.315-0.54c0.531,0.387,1.125,0.594,1.792,0.594
			c1.026,0,1.693-0.567,1.693-1.656v-0.55c-0.405,0.541-0.973,0.981-1.828,0.981c-1.116,0-2.188-0.828-2.188-2.188
			c0-1.368,1.081-2.206,2.188-2.206c0.873,0,1.44,0.433,1.818,0.937v-0.837h0.693v3.844
			C129.71,147.617,128.773,148.382,127.342,148.382z M127.333,142.782c-0.882,0-1.611,0.604-1.611,1.576
			c0,0.954,0.747,1.593,1.611,1.593c0.882,0,1.71-0.63,1.71-1.584C129.043,143.403,128.215,142.782,127.333,142.782z"/>
		<path fill="#939598" d="M138.413,146.924l-1.828-2.449h-1.8v2.449h-0.711v-6.302h2.71c1.386,0,2.278,0.747,2.278,1.882
			c0,1.053-0.72,1.665-1.71,1.845l1.936,2.575H138.413z M136.729,141.279h-1.944v2.557h1.936c0.945,0,1.621-0.486,1.621-1.306
			C138.341,141.747,137.747,141.279,136.729,141.279z"/>
		<path fill="#939598" d="M142.498,147.032c-1.396,0-2.413-1.099-2.413-2.422s1.026-2.44,2.431-2.44
			c1.396,0,2.421,1.099,2.421,2.422C144.938,145.916,143.902,147.032,142.498,147.032z M142.498,142.782
			c-1.008,0-1.702,0.802-1.702,1.81c0,1.009,0.738,1.819,1.72,1.819c1.008,0,1.71-0.802,1.71-1.801
			C144.227,143.593,143.479,142.782,142.498,142.782z"/>
		<path fill="#939598" d="M148.312,147.032c-1.396,0-2.413-1.099-2.413-2.422s1.026-2.44,2.431-2.44
			c1.396,0,2.421,1.099,2.421,2.422C150.751,145.916,149.716,147.032,148.312,147.032z M148.312,142.782
			c-1.008,0-1.702,0.802-1.702,1.81c0,1.009,0.738,1.819,1.72,1.819c1.008,0,1.71-0.802,1.71-1.801
			C150.041,143.593,149.293,142.782,148.312,142.782z"/>
		<path fill="#939598" d="M157.331,142.17c1.071,0,1.729,0.721,1.729,1.873v2.881h-0.693v-2.719c0-0.9-0.45-1.404-1.207-1.404
			c-0.702,0-1.287,0.521-1.287,1.44v2.683h-0.685v-2.736c0-0.874-0.459-1.387-1.197-1.387s-1.296,0.612-1.296,1.467v2.656h-0.693
			v-4.654h0.693v0.783c0.306-0.459,0.72-0.883,1.503-0.883c0.756,0,1.243,0.405,1.495,0.928
			C156.025,142.585,156.521,142.17,157.331,142.17z"/>
	</g>
	<g enable-background="new    ">
		<path fill="#939598" d="M88.714,153.251l-0.522-0.378c0.567-0.846,1.161-1.341,2.269-1.341c1.143,0,1.954,0.756,1.954,1.791
			c0,0.928-0.486,1.495-1.594,2.458l-1.683,1.494h3.34v0.648h-4.402v-0.549l2.287-2.017c0.963-0.864,1.314-1.351,1.314-1.98
			c0-0.738-0.585-1.207-1.27-1.207C89.687,152.171,89.219,152.549,88.714,153.251z"/>
		<path fill="#939598" d="M97.375,151.577v4.258h0.981v0.595h-0.981v1.494H96.69v-1.494h-3.322l-0.18-0.514l3.565-4.339H97.375z
			 M96.69,152.585l-2.647,3.25h2.647V152.585z"/>
		<path fill="#939598" d="M99.695,151.622h0.846v0.045l-0.729,2.403h-0.387L99.695,151.622z"/>
		<path fill="#939598" d="M105.663,152.783c-0.468-0.396-0.909-0.621-1.485-0.621c-1.143,0-1.854,1.152-1.845,2.782
			c0.342-0.505,0.873-0.964,1.792-0.964c1.179,0,2.178,0.757,2.178,1.944c0,1.225-0.981,2.107-2.259,2.107
			c-0.693,0-1.261-0.243-1.657-0.64c-0.504-0.504-0.792-1.152-0.792-2.448c0-1.927,0.972-3.431,2.62-3.431
			c0.756,0,1.314,0.271,1.864,0.721L105.663,152.783z M104.034,154.593c-0.945,0-1.575,0.675-1.575,1.387
			c0,0.819,0.666,1.422,1.593,1.422s1.521-0.639,1.521-1.449C105.573,155.169,104.943,154.593,104.034,154.593z"/>
		<path fill="#939598" d="M107.723,151.622h0.837v0.045l-0.729,2.403h-0.378L107.723,151.622z M109.487,151.622h0.829v0.045
			l-0.729,2.403h-0.378L109.487,151.622z"/>
		<path fill="#939598" d="M118.344,157.924h-0.801l-1.44-1.899l-1.449,1.899h-0.774l1.828-2.368l-1.755-2.286h0.792l1.377,1.801
			l1.377-1.801h0.774l-1.765,2.269L118.344,157.924z"/>
		<path fill="#939598" d="M123.185,151.577h0.522v6.347h-0.702v-5.608l-1.188,0.369l-0.171-0.576L123.185,151.577z"/>
		<path fill="#939598" d="M129.233,152.783c-0.468-0.396-0.909-0.621-1.485-0.621c-1.143,0-1.854,1.152-1.845,2.782
			c0.342-0.505,0.873-0.964,1.792-0.964c1.179,0,2.178,0.757,2.178,1.944c0,1.225-0.981,2.107-2.259,2.107
			c-0.693,0-1.261-0.243-1.657-0.64c-0.504-0.504-0.792-1.152-0.792-2.448c0-1.927,0.972-3.431,2.62-3.431
			c0.756,0,1.314,0.271,1.864,0.721L129.233,152.783z M127.604,154.593c-0.945,0-1.575,0.675-1.575,1.387
			c0,0.819,0.666,1.422,1.593,1.422s1.521-0.639,1.521-1.449C129.144,155.169,128.513,154.593,127.604,154.593z"/>
		<path fill="#939598" d="M131.294,151.622h0.846v0.045l-0.729,2.403h-0.387L131.294,151.622z"/>
		<path fill="#939598" d="M133.255,151.622h4.276v0.531l-2.863,5.771h-0.792l2.845-5.653h-3.466V151.622z"/>
		<path fill="#939598" d="M138.863,151.622h0.837v0.045l-0.729,2.403h-0.378L138.863,151.622z M140.627,151.622h0.829v0.045
			l-0.729,2.403h-0.378L140.627,151.622z"/>
	</g>
	<g enable-background="new    ">
		<path fill="#939598" d="M124.8,249.744v1.19h1.729v0.554h-4.902v-1.835c0-1.106,0.588-1.835,1.562-1.835
			C124.253,247.818,124.8,248.7,124.8,249.744z M122.138,249.695v1.239h2.157v-1.211c0-0.812-0.434-1.346-1.085-1.346
			C122.502,248.378,122.138,248.903,122.138,249.695z"/>
		<path fill="#939598" d="M123.602,246.763l-0.441,0.162c-0.182-0.4-0.301-0.792-0.301-1.317c0-0.987,0.504-1.54,1.457-1.54h2.213
			v0.518h-0.546c0.329,0.252,0.623,0.672,0.623,1.31c0,0.673-0.378,1.353-1.135,1.353c-0.771,0-1.177-0.631-1.177-1.549
			c0-0.462,0.063-0.791,0.154-1.113h-0.126c-0.651,0-0.987,0.399-0.987,1.078C123.336,246.091,123.447,246.427,123.602,246.763z
			 M125.451,246.7c0.462,0,0.728-0.42,0.728-0.91c0-0.666-0.406-1.212-0.98-1.212h-0.35c-0.077,0.267-0.154,0.623-0.154,1.064
			C124.694,246.321,124.988,246.7,125.451,246.7z"/>
		<path fill="#939598" d="M126.529,242.382v0.539h-3.621v-0.539h0.631c-0.393-0.238-0.708-0.617-0.708-1.24
			c0-0.875,0.589-1.387,1.45-1.387h2.248v0.539h-2.115c-0.672,0-1.093,0.364-1.093,1.002c0,0.623,0.455,1.086,1.135,1.086H126.529z"
			/>
		<path fill="#939598" d="M125.5,237.88c0.441,0,0.603-0.244,0.603-0.609c0-0.182-0.035-0.336-0.127-0.525h0.463
			c0.098,0.189,0.154,0.393,0.154,0.652c0,0.581-0.288,1.021-1.023,1.021h-2.185v0.505h-0.477v-0.505h-1.093v-0.539h1.093v-1.148
			h0.477v1.148H125.5z"/>
		<path fill="#939598" d="M126.529,235.241v0.539h-3.621v-0.539h0.945c-0.602-0.266-1.036-0.791-1.008-1.479h0.581v0.043
			c0,0.791,0.567,1.436,1.66,1.436H126.529z"/>
		<path fill="#939598" d="M126.648,231.181c0.749,0.309,1.022,0.658,1.022,1.205c0,0.301-0.063,0.525-0.182,0.77l-0.428-0.182
			c0.091-0.176,0.133-0.336,0.133-0.567c0-0.322-0.168-0.525-0.679-0.742l-3.607,1.646v-0.596l3.019-1.316l-3.019-1.162v-0.574
			L126.648,231.181z"/>
	</g>
</g>
<g id="walls">
	<polyline fill="none" stroke="#939598" stroke-width="5" points="279.041,258.092 383.84,258.092 383.84,2.5 229.291,2.5 
		229.291,101.383 2.5,101.271 2.5,258.092 254.76,258.092 	"/>
	<polyline fill="none" stroke="#939598" stroke-width="3" points="279.91,159.631 284.832,159.631 284.832,130.5 	"/>
	<polyline fill="none" stroke="#939598" stroke-width="3" points="229.65,102.75 229.65,159.631 236.693,159.631 	"/>
	<line fill="none" stroke="#939598" stroke-width="3" x1="232.291" y1="248.5" x2="232.291" y2="256.5"/>
	<polyline fill="none" stroke="#939598" stroke-width="3" points="210.039,257.5 210.039,217 232.291,217 232.291,225.75 	"/>
	<polyline fill="none" stroke="#939598" stroke-width="3" points="316.541,191.459 356.291,191.459 356.291,207.987 
		382.791,207.987 	"/>
	<polyline fill="none" stroke="#939598" stroke-width="3" points="285.543,257.5 285.543,191.459 293.041,191.459 	"/>
	<line fill="none" stroke="#939598" stroke-width="3" x1="322.291" y1="131.5" x2="322.291" y2="190.25"/>
	<line fill="none" stroke="#939598" stroke-width="3" x1="377.791" y1="130" x2="384.791" y2="130"/>
	<line fill="none" stroke="#939598" stroke-width="3" x1="316.875" y1="130" x2="354.008" y2="130"/>
	<line fill="none" stroke="#939598" stroke-width="3" x1="230.041" y1="130" x2="293.291" y2="130"/>
</g>
<g id="windows">
	<g>
		<g>
			<rect x="15" y="99.418" fill="#FFFFFF" stroke="#939598" width="69.562" height="3.674"/>
			<line fill="none" stroke="#939598" x1="84.562" y1="101.236" x2="14.25" y2="101.236"/>
			<line fill="none" stroke="#939598" stroke-width="2" x1="61.889" y1="103.25" x2="61.889" y2="99.756"/>
		</g>
		<line fill="none" stroke="#939598" stroke-width="2" x1="38.5" y1="103.375" x2="38.5" y2="99.773"/>
	</g>
	<g>
		<g>
			<rect x="144" y="99.441" fill="#FFFFFF" stroke="#939598" width="69.562" height="3.674"/>
			<line fill="none" stroke="#939598" x1="213.562" y1="101.26" x2="143.25" y2="101.26"/>
			<line fill="none" stroke="#939598" stroke-width="2" x1="190.889" y1="103.273" x2="190.889" y2="99.779"/>
		</g>
		<line fill="none" stroke="#939598" stroke-width="2" x1="167.5" y1="103.398" x2="167.5" y2="99.797"/>
	</g>
	<g>
		<rect x="227.734" y="25" fill="#FFFFFF" stroke="#939598" width="3.674" height="36.25"/>
		<line fill="none" stroke="#939598" x1="229.553" y1="25" x2="229.553" y2="62"/>
	</g>
</g>
</svg>
