<?xml version="1.0" encoding="utf-8"?>
<!-- Generator: Adobe Illustrator 15.0.2, SVG Export Plug-In . SVG Version: 6.00 Build 0)  -->
<!DOCTYPE svg PUBLIC "-//W3C//DTD SVG 1.1//EN" "http://www.w3.org/Graphics/SVG/1.1/DTD/svg11.dtd">
<svg version="1.1" id="Layer_1" xmlns="http://www.w3.org/2000/svg" xmlns:xlink="http://www.w3.org/1999/xlink" x="0px" y="0px"
	 width="494.335px" height="191.05px" viewBox="2.523 155.018 494.335 191.05"
	 enable-background="new 2.523 155.018 494.335 191.05" xml:space="preserve">
<g id="_x32_0_x25___PMS_2985_fill" display="none">
	<path display="inline" fill="#EBEEEF" d="M30.48,2.287c-1.333,0.333-28.333,28-28.333,28V140.62l27.667,24.333h400.334V2.287H30.48
		z"/>
</g>
<g>
	<g id="_x32_0_x25__grey_fill">
		<polygon fill="#D1D3D4" points="36.724,157.757 31.374,163.682 105.522,163.682 105.522,157.949 		"/>
		<rect x="482.771" y="157.757" fill="#D1D3D4" width="11.848" height="6.498"/>
		<rect x="342.307" y="157.757" fill="#D1D3D4" width="58.667" height="5.542"/>
		<polygon fill="#D1D3D4" points="236.814,343.514 236.814,336.441 282.68,336.441 282.68,332.62 386.645,332.62 386.645,336.061 
			495,336.061 495,342.939 		"/>
	</g>
	<g id="icons">
		<polygon fill="#FFFFFF" stroke="#A7A9AC" points="47.761,315.852 32.663,315.852 29.94,313.127 29.94,167.503 5,191.201 
			6.147,317.332 34.432,342.559 48.191,342.559 		"/>
		<g>
			<g>
				<rect x="127.473" y="317.866" fill="#FFFFFF" stroke="#939598" width="23.148" height="21.262"/>
				<path fill="none" stroke="#939598" d="M139.045,327.792"/>
				<line fill="none" stroke="#939598" x1="127.436" y1="335.748" x2="150.655" y2="335.748"/>
				<line fill="none" stroke="#939598" x1="127.473" y1="336.751" x2="150.62" y2="336.751"/>
				<polygon fill="none" stroke="#939598" points="146.068,333.191 146.068,322.764 143.274,320.221 134.71,320.221 
					131.879,322.764 131.879,333.191 				"/>
				<path fill="none" stroke="#939598" d="M138.974,326.706"/>
			</g>
		</g>
		<g>
			<g>
				<rect x="100.428" y="317.866" fill="#FFFFFF" stroke="#939598" width="23.148" height="21.262"/>
				<path fill="none" stroke="#939598" d="M112,327.792"/>
				<line fill="none" stroke="#939598" x1="100.391" y1="335.748" x2="123.61" y2="335.748"/>
				<line fill="none" stroke="#939598" x1="100.428" y1="336.751" x2="123.575" y2="336.751"/>
				<g>
					<rect x="120.887" y="316.79" fill="none" stroke="#939598" width="1.003" height="1.004"/>
					<path fill="none" stroke="#939598" d="M121.389,317.293"/>
				</g>
			</g>
		</g>
		<g>
			<polygon fill="none" stroke="#A7A9AC" points="292.882,262.384 294.796,262.395 294.814,289.705 292.898,289.695 			"/>
			<path fill="none" stroke="#A7A9AC" d="M293.764,289.717c15.036-0.511,26.812-12.871,26.301-27.906"/>
		</g>
		<g>
			<polygon fill="none" stroke="#A7A9AC" points="342.244,248.364 342.255,246.545 368.2,246.525 368.189,248.348 			"/>
			<path fill="none" stroke="#A7A9AC" d="M368.211,247.525c-0.484-14.284-12.229-25.473-26.512-24.982"/>
		</g>
		<g>
			<polygon fill="none" stroke="#A7A9AC" points="204.056,343.835 205.971,343.85 205.988,316.538 204.022,316.523 			"/>
			<path fill="none" stroke="#A7A9AC" d="M204.862,316.501c15.037,0.511,26.812,12.944,26.299,27.981"/>
		</g>
		<g>
			<polygon fill="none" stroke="#A7A9AC" points="420.446,262.671 422.36,262.682 422.38,289.992 420.464,289.982 			"/>
			<path fill="none" stroke="#A7A9AC" d="M421.328,290.003c15.037-0.511,26.812-12.87,26.3-27.907"/>
		</g>
		<g>
			<polygon fill="none" stroke="#A7A9AC" points="163.923,308.861 165.838,308.877 165.855,281.566 163.89,281.551 			"/>
			<path fill="none" stroke="#A7A9AC" d="M164.729,281.527c15.037,0.512,26.812,12.945,26.299,27.98"/>
		</g>
		<g>
			<g>
				<polygon fill="none" stroke="#A7A9AC" points="101.664,309.141 103.387,309.15 103.403,284.57 101.635,284.559 				"/>
				<path fill="none" stroke="#A7A9AC" d="M102.39,284.538c13.534,0.46,24.13,11.649,23.669,25.183"/>
			</g>
			<g>
				<polygon fill="none" stroke="#A7A9AC" points="150.371,309.141 148.647,309.15 148.632,284.57 150.4,284.559 				"/>
				<path fill="none" stroke="#A7A9AC" d="M149.645,284.538c-13.534,0.46-24.13,11.649-23.669,25.183"/>
			</g>
		</g>
		<line fill="none" stroke="#A7A9AC" x1="159.797" y1="326.312" x2="195.343" y2="326.312"/>
		<polyline fill="#FFFFFF" stroke="#A7A9AC" points="315.741,332.907 315.741,311.168 343.547,311.168 343.547,332.334 		"/>
		<polyline fill="none" stroke="#A7A9AC" points="481.431,264.107 481.431,324.309 417.792,324.309 417.792,334.627 		"/>
		<rect x="64.053" y="206.203" fill="#FFFFFF" stroke="#A7A9AC" width="25.799" height="62.062"/>
		<line fill="none" stroke="#A7A9AC" x1="401.166" y1="164.791" x2="484.678" y2="164.791"/>
		<polyline fill="none" stroke="#A7A9AC" points="341.396,164.78 258.281,164.78 258.281,159.477 		"/>
		
			<line fill="none" stroke="#A7A9AC" stroke-dasharray="1.5,1.5,1.5,1.5,1.5,1.5" x1="158.078" y1="328.912" x2="195.468" y2="328.912"/>
		
			<line fill="none" stroke="#A7A9AC" stroke-dasharray="1.5,1.5,1.5,1.5,1.5,1.5" x1="143.743" y1="327.747" x2="157.217" y2="327.747"/>
		
			<line fill="none" stroke="#A7A9AC" stroke-dasharray="1.5,1.5,1.5,1.5,1.5,1.5" x1="115.937" y1="327.747" x2="133.998" y2="327.747"/>
		
			<line fill="none" stroke="#A7A9AC" stroke-dasharray="1.5,1.5,1.5,1.5,1.5,1.5" x1="93.865" y1="327.747" x2="108.77" y2="327.747"/>
		<polyline fill="none" stroke="#A7A9AC" stroke-dasharray="1.5,1.5,1.5,1.5,1.5,1.5" points="418.079,326.791 483.874,326.791 
			483.874,263.535 		"/>
		<g>
			<g>
				<path fill="#FFFFFF" stroke="#939598" d="M9.88,264.4c0,0.488,0.395,0.885,0.884,0.885h15.417c0.488,0,0.884-0.398,0.884-0.885
					v-26.151c0-0.488-0.397-0.884-0.884-0.884H10.764c-0.491,0-0.884,0.396-0.884,0.884V264.4z"/>
				<path fill="#FFFFFF" stroke="#939598" d="M17.806,251.418"/>
			</g>
			<g>
				<circle fill="#FFFFFF" stroke="#939598" cx="18.851" cy="251.418" r="0.999"/>
				<path fill="#FFFFFF" stroke="#939598" d="M18.85,251.418"/>
			</g>
			<g>
				<g>
					<rect x="10.495" y="247.057" fill="#FFFFFF" stroke="#939598" width="2.087" height="8.726"/>
					<path fill="#FFFFFF" stroke="#939598" d="M11.538,251.418"/>
				</g>
				<g>
					<rect x="12.527" y="250.973" fill="#FFFFFF" stroke="#939598" width="4.112" height="0.893"/>
					<path fill="#FFFFFF" stroke="#939598" d="M14.318,251.418"/>
				</g>
				<g>
					<circle fill="#FFFFFF" stroke="#939598" cx="11.56" cy="251.418" r="0.971"/>
					<path fill="#FFFFFF" stroke="#939598" d="M11.56,251.418"/>
				</g>
			</g>
			<g>
				<path fill="#FFFFFF" stroke="#939598" d="M18.85,251.418"/>
				<path fill="none" stroke="#939598" d="M13.304,251.955v10.997c0,0.513,0.415,0.929,0.928,0.929h10.573
					c0.51,0,0.928-0.416,0.928-0.929v-23.254c0-0.515-0.416-0.931-0.928-0.931H14.232c-0.512,0-0.928,0.416-0.928,0.931v11.151"/>
			</g>
		</g>
		<g>
			<polyline fill="none" stroke="#939598" stroke-dasharray="1.5,1,1.5,1,1.5,1" points="30.624,268.92 11.157,268.92 
				11.157,288.01 30.185,288.01 			"/>
			<polyline fill="#FFFFFF" stroke="#939598" points="30.185,288.039 31.342,288.039 31.342,268.92 30.63,268.92 			"/>
		</g>
		<g>
			<g>
				<rect x="42.439" y="314.859" fill="#FFFFFF" stroke="#939598" width="28.553" height="25.188"/>
				<path fill="#FFFFFF" stroke="#939598" d="M58.195,327.455"/>
			</g>
			<line fill="none" stroke="#939598" x1="42.372" y1="316.621" x2="70.994" y2="316.621"/>
			<rect x="66.297" y="313.615" fill="#FFFFFF" stroke="#939598" width="2.314" height="1.227"/>
			<path fill="#FFFFFF" stroke="#939598" d="M67.454,314.298"/>
		</g>
		<g>
			<polyline fill="#FFFFFF" stroke="#939598" points="88.654,316.089 90.757,316.089 90.757,340.645 72.792,340.645 72.792,316.089 
				76.614,316.089 			"/>
			<g>
				<g>
					<g>
						<polygon fill="none" stroke="#939598" stroke-width="0.7" points="82.531,305.9 83.965,306.689 77.993,316.544 
							76.558,315.756 						"/>
						<path fill="none" stroke="#939598" stroke-width="0.8" d="M79.172,312.02"/>
					</g>
					<path fill="none" stroke="#939598" stroke-width="0.8" d="M83.081,306.376c3.671,2.224,5.648,6.185,5.515,10.19"/>
				</g>
			</g>
		</g>
		<g>
			<g>
				<rect x="9.089" y="196.194" fill="#FFFFFF" stroke="#939598" width="22.646" height="26.66"/>
				<path fill="#FFFFFF" stroke="#939598" d="M20.413,209.523"/>
			</g>
			<g>
				<g>
					<circle fill="#FFFFFF" stroke="#939598" cx="26.719" cy="215.619" r="3.239"/>
					<path fill="#FFFFFF" stroke="#939598" d="M26.719,215.619"/>
				</g>
				<g>
					<circle fill="#FFFFFF" stroke="#939598" stroke-width="0.8" cx="26.718" cy="215.651" r="2.281"/>
					<path fill="#FFFFFF" stroke="#939598" d="M26.719,215.65"/>
				</g>
			</g>
			<g>
				<g>
					<circle fill="#FFFFFF" stroke="#939598" cx="17.259" cy="202.677" r="3.238"/>
					<path fill="#FFFFFF" stroke="#939598" d="M17.259,202.677"/>
				</g>
				<g>
					<circle fill="#FFFFFF" stroke="#939598" stroke-width="0.8" cx="17.258" cy="202.645" r="2.281"/>
					<path fill="#FFFFFF" stroke="#939598" d="M17.259,202.645"/>
				</g>
			</g>
			<g>
				<g>
					<circle fill="#FFFFFF" stroke="#939598" cx="17.291" cy="215.662" r="3.691"/>
					<path fill="#FFFFFF" stroke="#939598" d="M17.291,215.663"/>
				</g>
				<g>
					<circle fill="#FFFFFF" stroke="#939598" stroke-width="0.8" cx="17.291" cy="215.626" r="2.601"/>
					<path fill="#FFFFFF" stroke="#939598" d="M17.291,215.627"/>
				</g>
			</g>
			<g>
				<g>
					<circle fill="#FFFFFF" stroke="#939598" cx="26.968" cy="202.691" r="3.691"/>
					<path fill="#FFFFFF" stroke="#939598" d="M26.968,202.691"/>
				</g>
				<g>
					<circle fill="#FFFFFF" stroke="#939598" stroke-width="0.8" cx="26.968" cy="202.654" r="2.601"/>
					<path fill="#FFFFFF" stroke="#939598" d="M26.968,202.654"/>
				</g>
			</g>
			<line fill="none" stroke="#939598" x1="12.223" y1="222.891" x2="12.223" y2="196.194"/>
			<line fill="none" stroke="#939598" x1="10.971" y1="222.854" x2="10.971" y2="196.194"/>
		</g>
		<g enable-background="new    ">
			<path fill="#939598" d="M139.15,324.755h0.522l1.542,4.7l1.606-4.684h0.667l-2.008,5.661h-0.538l-1.542-4.562l-1.55,4.562h-0.529
				l-2.008-5.661h0.691l1.606,4.684L139.15,324.755z"/>
		</g>
		<g enable-background="new    ">
			<path fill="#939598" d="M111.519,330.395h-1.952v-5.622h1.952c1.767,0,2.987,1.215,2.987,2.806
				C114.506,329.164,113.286,330.395,111.519,330.395z M111.519,325.357h-1.317v4.448h1.317c1.421,0,2.329-0.964,2.329-2.219
				C113.848,326.337,112.941,325.357,111.519,325.357z"/>
		</g>
		<g>
			<path fill="#FFFFFF" stroke="#939598" stroke-miterlimit="10" d="M307.578,316.734c0-5.115-3.107-10.75-6.939-10.75
				c-3.83,0-6.928,5.635-6.928,10.75c0,5.116,3.098,7.778,6.928,7.778C304.471,324.516,307.578,321.852,307.578,316.734"/>
			<path fill="#FFFFFF" stroke="#939598" d="M307.578,316.734c0-5.115-3.107-10.75-6.939-10.75c-3.83,0-6.928,5.635-6.928,10.75
				c0,5.116,3.098,7.778,6.928,7.778C304.471,324.516,307.578,321.852,307.578,316.734z"/>
			<path fill="#FFFFFF" stroke="#939598" stroke-miterlimit="10" d="M296.482,322.837c0-0.287-0.233-0.521-0.521-0.521h-2.416
				c-0.287,0-0.521,0.232-0.521,0.521v0.089c0,0.286,0.233,0.521,0.521,0.521h2.416c0.287,0,0.521-0.235,0.521-0.521V322.837z"/>
			<path fill="#FFFFFF" stroke="#939598" d="M296.482,322.837c0-0.287-0.233-0.521-0.521-0.521h-2.416
				c-0.287,0-0.521,0.232-0.521,0.521v0.089c0,0.286,0.233,0.521,0.521,0.521h2.416c0.287,0,0.521-0.235,0.521-0.521V322.837z"/>
			<path fill="#FFFFFF" stroke="#939598" stroke-miterlimit="10" d="M292.656,323.461c-0.869,0-1.576,2.359-1.576,3.229
				c0,0.882,0.707,3.239,1.576,3.239h15.841c0.871,0,1.576-2.36,1.576-3.239c0-0.873-0.705-3.229-1.576-3.229L292.656,323.461z"/>
			<path fill="#FFFFFF" stroke="#939598" d="M292.656,323.461c-0.869,0-1.576,2.359-1.576,3.229c0,0.882,0.707,3.239,1.576,3.239
				h15.841c0.871,0,1.576-2.36,1.576-3.239c0-0.873-0.705-3.229-1.576-3.229L292.656,323.461z"/>
			<path fill="#FFFFFF" stroke="#939598" stroke-miterlimit="10" d="M305.74,316.52c0-3.761-2.285-7.902-5.104-7.902
				s-5.1,4.142-5.1,7.902c0,3.762,2.281,5.718,5.1,5.718C303.455,322.236,305.74,320.279,305.74,316.52"/>
			<path fill="#FFFFFF" stroke="#939598" d="M305.74,316.52c0-3.761-2.285-7.902-5.104-7.902s-5.1,4.142-5.1,7.902
				c0,3.762,2.281,5.718,5.1,5.718C303.455,322.236,305.74,320.279,305.74,316.52z"/>
		</g>
		<g>
			<g>
				<rect x="385.646" y="264.305" fill="#FFFFFF" stroke="#939598" width="27.091" height="52.394"/>
				<path fill="#FFFFFF" stroke="#939598" d="M399.192,290.503"/>
				<path fill="#FFFFFF" stroke="#939598" d="M399.192,290.682"/>
				<path fill="#FFFFFF" stroke="#939598" d="M399.192,308.445"/>
			</g>
			<circle fill="#FFFFFF" stroke="#939598" cx="399.323" cy="304.756" r="1.112"/>
			<path fill="#FFFFFF" stroke="#939598" d="M399.276,267.294c-7.765,0-10.606,1.791-10.606,4.304c0,0,0,37.654,0,38.271
				c0,0.612,0.168,1.881,1.792,1.881c1.626,0,8.814,0,8.814,0h0.021c0,0,7.19,0,8.813,0c1.625,0,1.793-1.269,1.793-1.881
				c0-0.616,0-38.246,0-38.246l-0.004-0.021C409.897,269.087,406.991,267.294,399.276,267.294z"/>
			<path fill="#FFFFFF" stroke="#939598" d="M396.992,313.697c0.002-0.629-0.504-1.133-1.141-1.133
				c-0.617,0-1.127,0.504-1.133,1.133c0.006,0.625,0.516,1.14,1.133,1.14C396.488,314.837,396.994,314.329,396.992,313.697z"/>
			<path fill="#FFFFFF" stroke="#939598" d="M404.035,313.697c0.007-0.629-0.511-1.133-1.136-1.133
				c-0.623,0-1.136,0.504-1.136,1.133c0,0.625,0.513,1.14,1.136,1.134C403.526,314.837,404.035,314.322,404.035,313.697z"/>
			<path fill="#FFFFFF" stroke="#939598" d="M397.793,314.033c0,0.932,0.629,1.685,1.562,1.688c0.93-0.003,1.438-0.756,1.438-1.688
				l-0.6-6.412c0-0.629-1.696-0.629-1.696,0L397.793,314.033z"/>
		</g>
		<polyline fill="none" stroke="#A7A9AC" stroke-dasharray="1.5,1.5,1.5,1.5,1.5,1.5" points="17.9,275.575 17.9,197.89 
			29.94,185.275 		"/>
		<polyline fill="none" stroke="#A7A9AC" stroke-dasharray="1.5,1.5,1.5,1.5,1.5,1.5" points="73.513,329.182 37.393,329.182 
			16.753,309.975 16.753,282.455 		"/>
		<g>
			<g>
				<g>
					<path fill="none" stroke="#A7A9AC" d="M329.326,319.296"/>
				</g>
				<g>
					<path fill="none" stroke="#A7A9AC" d="M329.326,320.516"/>
				</g>
				<g>
					<circle fill="none" stroke="#A7A9AC" cx="329.326" cy="319.296" r="1.167"/>
					<path fill="none" stroke="#A7A9AC" d="M329.326,319.296"/>
				</g>
				<g>
					<g>
						<rect x="324.436" y="326.605" fill="none" stroke="#A7A9AC" width="9.808" height="2.438"/>
						<path fill="none" stroke="#A7A9AC" d="M329.326,327.824"/>
					</g>
					<g>
						<rect x="328.807" y="321.876" fill="none" stroke="#A7A9AC" width="1.039" height="4.623"/>
						<path fill="none" stroke="#A7A9AC" d="M329.326,324.581"/>
					</g>
					<g>
						<circle fill="none" stroke="#A7A9AC" cx="329.326" cy="327.801" r="1.13"/>
						<path fill="none" stroke="#A7A9AC" d="M329.326,327.801"/>
					</g>
				</g>
			</g>
			<g>
				<rect x="319.546" y="313.506" fill="none" stroke="#A7A9AC" width="19.58" height="15.91"/>
				<rect x="321.145" y="315.104" fill="none" stroke="#A7A9AC" width="16.344" height="11.444"/>
			</g>
		</g>
	</g>
	<g id="walls">
		<polyline fill="none" stroke="#939598" stroke-width="5" points="231.033,343.568 494.358,343.568 494.358,157.838 
			36.908,157.838 5.023,190.708 5.023,315.777 33.258,343.568 204.056,343.568 		"/>
		<line fill="none" stroke="#939598" stroke-width="3" x1="447.605" y1="262.871" x2="493.471" y2="262.871"/>
		<line fill="none" stroke="#939598" stroke-width="3" x1="319.609" y1="262.871" x2="420.283" y2="262.871"/>
		<polyline fill="none" stroke="#939598" stroke-width="3" points="237.004,342.939 237.004,336.061 282.871,336.061 
			282.871,262.871 293.096,262.871 		"/>
		<line fill="none" stroke="#939598" stroke-width="3" x1="342.496" y1="248.342" x2="342.496" y2="261.146"/>
		<line fill="none" stroke="#939598" stroke-width="3" x1="342.496" y1="159.477" x2="342.496" y2="222.829"/>
		<line fill="none" stroke="#939598" stroke-width="3" x1="284.018" y1="332.62" x2="386.833" y2="332.62"/>
		<polyline fill="none" stroke="#939598" stroke-width="3" points="414.733,262.675 414.733,318.859 386.451,318.859 
			386.451,336.061 492.718,336.061 		"/>
		<polyline fill="none" stroke="#939598" stroke-width="3" points="31.374,164.062 105.905,164.062 106.035,160.624 		"/>
		<polyline fill="none" stroke="#939598" stroke-width="3" points="341.35,163.606 399.569,163.606 399.569,159.095 		"/>
		<polyline fill="none" stroke="#939598" stroke-width="3" points="483.939,159.095 483.939,163.473 493.471,163.473 		"/>
		<polyline fill="none" stroke="#939598" stroke-width="3" points="190.79,308.923 196.107,308.923 196.107,344.469 		"/>
		<line fill="none" stroke="#939598" stroke-width="3" x1="150.371" y1="308.923" x2="163.923" y2="308.923"/>
		<polyline fill="none" stroke="#939598" stroke-width="3" points="93.292,342.176 93.292,308.923 101.604,308.923 		"/>
		<line fill="none" stroke="#939598" stroke-width="4" x1="158.268" y1="309.307" x2="158.268" y2="344.087"/>
	</g>
	<g id="windows">
		<g>
			<g>
				<rect x="259.223" y="155.632" fill="#FFFFFF" stroke="#A7A9AC" width="79.764" height="4.212"/>
				<line fill="none" stroke="#A7A9AC" x1="338.984" y1="157.717" x2="258.361" y2="157.717"/>
				<line fill="none" stroke="#A7A9AC" stroke-width="2" x1="312.986" y1="160.025" x2="312.986" y2="156.02"/>
			</g>
			<line fill="none" stroke="#A7A9AC" stroke-width="2" x1="286.167" y1="160.169" x2="286.167" y2="156.04"/>
		</g>
		<g>
			<g>
				<rect x="402.575" y="155.518" fill="#FFFFFF" stroke="#A7A9AC" width="79.761" height="4.212"/>
				<line fill="none" stroke="#A7A9AC" x1="482.338" y1="157.602" x2="401.714" y2="157.602"/>
				<line fill="none" stroke="#A7A9AC" stroke-width="2" x1="456.339" y1="159.912" x2="456.339" y2="155.905"/>
			</g>
			<line fill="none" stroke="#A7A9AC" stroke-width="2" x1="429.521" y1="160.055" x2="429.521" y2="155.925"/>
		</g>
	</g>
	<g id="Type">
		<g enable-background="new    ">
			<path fill="#939598" d="M16.082,282.182H14.13v-5.621h1.952c1.767,0,2.987,1.213,2.987,2.804
				C19.069,280.951,17.849,282.182,16.082,282.182z M16.082,277.145h-1.317v4.449h1.317c1.42,0,2.329-0.963,2.329-2.218
				C18.41,278.123,17.502,277.145,16.082,277.145z"/>
			<path fill="#939598" d="M23.523,276.542h0.522l1.542,4.7l1.606-4.684h0.666l-2.008,5.662h-0.537l-1.542-4.562l-1.55,4.562h-0.53
				l-2.008-5.662h0.691l1.606,4.684L23.523,276.542z"/>
		</g>
		<g enable-background="new    ">
			<path fill="#939598" d="M54.868,326.323l-1.631-2.188h-1.606v2.188h-0.634v-5.621h2.417c1.235,0,2.03,0.666,2.03,1.678
				c0,0.938-0.642,1.485-1.526,1.647l1.727,2.297L54.868,326.323L54.868,326.323z M53.366,321.287h-1.735v2.279h1.727
				c0.843,0,1.446-0.434,1.446-1.164C54.804,321.706,54.274,321.287,53.366,321.287z"/>
			<path fill="#939598" d="M58.447,325.882c0.57,0,0.972-0.232,1.31-0.588l0.385,0.347c-0.417,0.465-0.922,0.778-1.71,0.778
				c-1.141,0-2.072-0.876-2.072-2.169c0-1.205,0.842-2.168,1.991-2.168c1.229,0,1.936,0.979,1.936,2.199c0,0.059,0,0.121-0.008,0.19
				h-3.293C57.073,325.375,57.716,325.882,58.447,325.882z M59.659,324.02c-0.064-0.756-0.498-1.413-1.325-1.413
				c-0.723,0-1.268,0.602-1.35,1.413H59.659z"/>
			<path fill="#939598" d="M63.527,322.188v0.529h-1.31v3.606h-0.618v-3.606h-0.571v-0.539h0.571v-0.358
				c0-0.907,0.458-1.39,1.252-1.39c0.289,0,0.482,0.03,0.682,0.104v0.539c-0.225-0.065-0.393-0.105-0.602-0.105
				c-0.481,0-0.722,0.29-0.722,0.885v0.337h1.318V322.188z"/>
		</g>
		<g enable-background="new    ">
			<path fill="#939598" d="M73.487,246.031h5.621v0.636h-5.621V246.031z"/>
			<path fill="#939598" d="M79.19,243.116c0,0.595-0.233,1.253-0.61,1.719l-0.442-0.312c0.337-0.448,0.531-0.947,0.531-1.438
				c0-0.498-0.258-0.858-0.66-0.858h-0.016c-0.417,0-0.578,0.488-0.732,1.034c-0.184,0.65-0.408,1.374-1.172,1.374h-0.016
				c-0.714,0-1.188-0.595-1.188-1.414c0-0.506,0.176-1.068,0.457-1.494l0.465,0.281c-0.249,0.387-0.402,0.828-0.402,1.229
				c0,0.49,0.257,0.805,0.602,0.805h0.016c0.394,0,0.547-0.516,0.714-1.068c0.193-0.643,0.443-1.334,1.189-1.334h0.016
				C78.73,241.639,79.19,242.29,79.19,243.116z"/>
			<path fill="#939598" d="M79.108,240.438h-5.861v-0.619h5.861V240.438z"/>
			<path fill="#939598" d="M75.752,238.143l-0.505,0.185c-0.209-0.458-0.346-0.908-0.346-1.511c0-1.131,0.578-1.768,1.671-1.768
				h2.537v0.594h-0.626c0.377,0.289,0.715,0.771,0.715,1.502c0,0.771-0.434,1.551-1.301,1.551c-0.884,0-1.35-0.723-1.35-1.774
				c0-0.53,0.072-0.907,0.176-1.278h-0.144c-0.747,0-1.132,0.459-1.132,1.237C75.447,237.371,75.574,237.756,75.752,238.143z
				 M77.873,238.068c0.529,0,0.834-0.48,0.834-1.045c0-0.764-0.465-1.39-1.124-1.39h-0.401c-0.088,0.306-0.177,0.716-0.177,1.22
				C77.004,237.636,77.341,238.068,77.873,238.068z"/>
			<path fill="#939598" d="M79.108,233.117v0.617h-4.152v-0.617h0.724c-0.451-0.273-0.812-0.706-0.812-1.424
				c0-1.002,0.675-1.59,1.662-1.59h2.578v0.619h-2.425c-0.771,0-1.253,0.418-1.253,1.147c0,0.715,0.521,1.244,1.302,1.244h2.376
				V233.117z"/>
			<path fill="#939598" d="M79.108,225.458h-0.836c0.499,0.337,0.924,0.826,0.924,1.59c0,0.996-0.788,1.984-2.16,1.984
				c-1.366,0-2.17-0.988-2.17-1.984c0-0.771,0.417-1.269,0.884-1.59h-2.505v-0.619h5.861L79.108,225.458L79.108,225.458z
				 M75.423,226.938c0,0.803,0.595,1.461,1.605,1.461c0.989,0,1.615-0.674,1.615-1.461c0-0.771-0.643-1.502-1.615-1.502
				C76.065,225.434,75.423,226.165,75.423,226.938z"/>
		</g>
		<g enable-background="new    ">
			<path fill="#939598" d="M212.22,337.811h-3.43v1.921h3.067v0.577h-3.067v1.97h3.47v0.575h-4.104v-5.62h4.064V337.811
				L212.22,337.811z"/>
			<path fill="#939598" d="M214.047,342.854h-0.618v-4.15h0.618v0.723c0.273-0.45,0.707-0.811,1.422-0.811
				c1.003,0,1.59,0.674,1.59,1.661v2.577h-0.619v-2.426c0-0.771-0.417-1.253-1.148-1.253c-0.714,0-1.244,0.521-1.244,1.302
				L214.047,342.854L214.047,342.854z"/>
			<path fill="#939598" d="M219.208,341.674c0,0.506,0.281,0.692,0.698,0.692c0.209,0,0.385-0.041,0.602-0.146v0.53
				c-0.217,0.112-0.449,0.177-0.747,0.177c-0.667,0-1.172-0.33-1.172-1.174v-2.506h-0.578v-0.546h0.578v-1.253h0.618v1.253h1.317
				v0.546h-1.317L219.208,341.674L219.208,341.674z"/>
			<path fill="#939598" d="M222.236,342.854h-0.618v-4.15h0.618v1.084c0.305-0.69,0.908-1.188,1.695-1.156v0.665h-0.048
				c-0.907,0-1.646,0.65-1.646,1.904L222.236,342.854L222.236,342.854z"/>
			<path fill="#939598" d="M226.891,342.99c-0.353,0.858-0.754,1.172-1.382,1.172c-0.345,0-0.602-0.072-0.884-0.209l0.209-0.49
				c0.2,0.104,0.385,0.152,0.65,0.152c0.369,0,0.602-0.192,0.85-0.779l-1.887-4.136h0.683l1.51,3.462l1.334-3.462h0.658
				L226.891,342.99z"/>
		</g>
		<g enable-background="new    ">
			<path fill="#939598" d="M52.961,290.084h-1.022l-2.777-3.498l-1.538,1.559v1.939h-0.815v-7.229h0.815v4.314l4.15-4.314h1.053
				l-3.098,3.16L52.961,290.084z"/>
			<path fill="#939598" d="M54.115,283.582v-0.878h0.908v0.878H54.115z M54.166,290.084v-5.336h0.795v5.336H54.166z"/>
			<path fill="#939598" d="M57.883,288.566c0,0.648,0.361,0.888,0.897,0.888c0.269,0,0.496-0.052,0.774-0.187v0.683
				c-0.279,0.146-0.578,0.228-0.96,0.228c-0.856,0-1.507-0.423-1.507-1.507v-3.221h-0.743v-0.702h0.743v-1.609h0.795v1.609h1.693
				v0.702h-1.693L57.883,288.566L57.883,288.566z"/>
			<path fill="#939598" d="M63.229,290.209c-1.559,0-2.736-1.27-2.736-2.777c0-1.516,1.176-2.797,2.736-2.797
				c1.011,0,1.641,0.424,2.136,0.949l-0.526,0.557c-0.423-0.441-0.898-0.805-1.622-0.805c-1.083,0-1.91,0.92-1.91,2.076
				c0,1.167,0.847,2.085,1.96,2.085c0.682,0,1.208-0.343,1.63-0.795l0.506,0.475C64.87,289.773,64.23,290.209,63.229,290.209z"/>
			<path fill="#939598" d="M67.511,290.084h-0.794v-7.535h0.794v3.131c0.351-0.58,0.908-1.045,1.827-1.045
				c1.29,0,2.044,0.867,2.044,2.137v3.314h-0.795v-3.117c0-0.992-0.537-1.609-1.477-1.609c-0.919,0-1.601,0.67-1.601,1.672v3.055
				L67.511,290.084L67.511,290.084z"/>
			<path fill="#939598" d="M75.426,289.518c0.733,0,1.249-0.301,1.684-0.754l0.495,0.443c-0.536,0.6-1.188,1.002-2.199,1.002
				c-1.465,0-2.662-1.124-2.662-2.787c0-1.549,1.083-2.789,2.559-2.789c1.579,0,2.488,1.262,2.488,2.828c0,0.073,0,0.157-0.01,0.25
				h-4.232C73.662,288.866,74.488,289.518,75.426,289.518z M76.985,287.121c-0.082-0.971-0.639-1.816-1.703-1.816
				c-0.929,0-1.63,0.774-1.733,1.816H76.985z"/>
			<path fill="#939598" d="M79.978,290.084h-0.795v-5.336h0.795v0.932c0.351-0.58,0.908-1.045,1.828-1.045
				c1.29,0,2.043,0.867,2.043,2.137v3.314h-0.795v-3.117c0-0.992-0.537-1.609-1.477-1.609c-0.919,0-1.601,0.67-1.601,1.672
				L79.978,290.084L79.978,290.084z"/>
		</g>
		<g enable-background="new    ">
			<path fill="#939598" d="M168.384,322.214c-1.622,0-2.818-1.276-2.818-2.896c0-1.604,1.189-2.916,2.843-2.916
				c1.02,0,1.63,0.36,2.192,0.893l-0.434,0.466c-0.474-0.45-1.003-0.771-1.767-0.771c-1.246,0-2.176,1.006-2.176,2.313
				c0,1.309,0.938,2.329,2.176,2.329c0.77,0,1.276-0.299,1.815-0.812l0.417,0.409C170.047,321.821,169.405,322.214,168.384,322.214z
				"/>
			<path fill="#939598" d="M171.69,322.118v-5.861h0.618v5.861H171.69L171.69,322.118z"/>
			<path fill="#939598" d="M175.641,322.214c-1.245,0-2.152-0.979-2.152-2.159c0-1.182,0.915-2.176,2.168-2.176
				c1.245,0,2.16,0.979,2.16,2.158C177.817,321.219,176.893,322.214,175.641,322.214z M175.641,318.424
				c-0.9,0-1.518,0.715-1.518,1.613c0,0.9,0.658,1.622,1.533,1.622c0.9,0,1.526-0.716,1.526-1.604
				C177.183,319.146,176.516,318.424,175.641,318.424z"/>
			<path fill="#939598" d="M180.303,322.198c-0.594,0-1.252-0.232-1.718-0.609l0.313-0.441c0.449,0.338,0.948,0.53,1.438,0.53
				c0.498,0,0.86-0.259,0.86-0.66v-0.017c0-0.417-0.49-0.578-1.037-0.729c-0.65-0.186-1.374-0.409-1.374-1.175v-0.017
				c0-0.714,0.595-1.188,1.414-1.188c0.505,0,1.069,0.175,1.494,0.455l-0.281,0.466c-0.385-0.248-0.828-0.4-1.229-0.4
				c-0.489,0-0.802,0.257-0.802,0.604v0.017c0,0.395,0.514,0.547,1.069,0.714c0.642,0.191,1.333,0.441,1.333,1.188v0.018
				C181.781,321.74,181.131,322.198,180.303,322.198z"/>
			<path fill="#939598" d="M184.759,321.677c0.57,0,0.973-0.23,1.31-0.587l0.385,0.346c-0.417,0.466-0.923,0.778-1.711,0.778
				c-1.141,0-2.072-0.875-2.072-2.167c0-1.205,0.843-2.171,1.992-2.171c1.228,0,1.936,0.979,1.936,2.202
				c0,0.056,0,0.119-0.008,0.191h-3.293C183.385,321.171,184.027,321.677,184.759,321.677z M185.971,319.812
				c-0.064-0.755-0.498-1.414-1.326-1.414c-0.722,0-1.268,0.604-1.349,1.414H185.971z"/>
			<path fill="#939598" d="M188.514,320.938c0,0.507,0.281,0.691,0.698,0.691c0.209,0,0.385-0.04,0.603-0.146v0.53
				c-0.217,0.111-0.45,0.179-0.747,0.179c-0.667,0-1.172-0.332-1.172-1.175v-2.506h-0.578v-0.548h0.578v-1.253h0.618v1.253h1.317
				v0.548h-1.317V320.938L188.514,320.938z"/>
		</g>
		<g enable-background="new    ">
			<path fill="#939598" d="M110.09,309.82h0.634v5.035h3.165v0.588h-3.799V309.82z"/>
			<path fill="#939598" d="M115.195,312.086l-0.185-0.505c0.458-0.209,0.908-0.345,1.51-0.345c1.132,0,1.767,0.575,1.767,1.669
				v2.538h-0.593v-0.627c-0.29,0.377-0.771,0.715-1.502,0.715c-0.771,0-1.55-0.435-1.55-1.301c0-0.886,0.722-1.353,1.775-1.353
				c0.53,0,0.908,0.073,1.278,0.178v-0.145c0-0.746-0.458-1.133-1.238-1.133C115.966,311.78,115.581,311.91,115.195,312.086z
				 M115.268,314.208c0,0.528,0.481,0.834,1.045,0.834c0.762,0,1.388-0.466,1.388-1.123v-0.401c-0.305-0.088-0.714-0.177-1.22-0.177
				C115.701,313.339,115.268,313.677,115.268,314.208z"/>
			<path fill="#939598" d="M122.549,311.292h0.61v4.151h-0.61v-0.724c-0.281,0.449-0.708,0.812-1.422,0.812
				c-1.003,0-1.59-0.676-1.59-1.661v-2.578h0.618v2.425c0,0.771,0.417,1.254,1.148,1.254c0.707,0,1.245-0.521,1.245-1.303
				L122.549,311.292L122.549,311.292z"/>
			<path fill="#939598" d="M125.164,315.443h-0.618v-4.151h0.618v0.724c0.273-0.45,0.707-0.812,1.422-0.812
				c1.003,0,1.59,0.677,1.59,1.664v2.578h-0.619v-2.427c0-0.771-0.417-1.254-1.148-1.254c-0.714,0-1.244,0.521-1.244,1.302
				L125.164,315.443L125.164,315.443z"/>
			<path fill="#939598" d="M132.823,315.443v-0.836c-0.337,0.498-0.827,0.924-1.591,0.924c-0.995,0-1.983-0.788-1.983-2.16
				c0-1.364,0.989-2.169,1.983-2.169c0.771,0,1.269,0.417,1.591,0.884v-2.505h0.619v5.86h-0.619V315.443z M131.346,311.757
				c-0.803,0-1.462,0.595-1.462,1.604c0,0.989,0.674,1.614,1.462,1.614c0.771,0,1.502-0.645,1.502-1.614
				C132.847,312.398,132.116,311.757,131.346,311.757z"/>
			<path fill="#939598" d="M135.438,315.443h-0.618v-4.151h0.618v1.083c0.305-0.691,0.908-1.188,1.695-1.154v0.666h-0.048
				c-0.908,0-1.646,0.648-1.646,1.902L135.438,315.443L135.438,315.443z"/>
			<path fill="#939598" d="M140.093,315.58c-0.353,0.856-0.754,1.172-1.382,1.172c-0.345,0-0.602-0.072-0.884-0.208l0.209-0.492
				c0.2,0.104,0.385,0.154,0.65,0.154c0.37,0,0.602-0.194,0.851-0.779l-1.888-4.137h0.682l1.511,3.462l1.333-3.462h0.658
				L140.093,315.58z"/>
		</g>
		<g enable-background="new    ">
			<path fill="#939598" d="M330.874,288.393c0,0.948-0.578,1.437-1.146,1.685c0.856,0.258,1.549,0.753,1.549,1.754
				c0,1.249-1.043,1.981-2.621,1.981h-3.211v-7.227h3.076C329.943,286.586,330.874,287.288,330.874,288.393z M330.047,288.505
				c0-0.724-0.564-1.188-1.6-1.188h-2.199v2.488h2.137C329.367,289.807,330.047,289.361,330.047,288.505z M330.451,291.777
				c0-0.793-0.661-1.25-1.924-1.25h-2.278v2.551h2.426C329.77,293.078,330.451,292.593,330.451,291.777z"/>
			<path fill="#939598" d="M333.07,289.497l-0.236-0.649c0.588-0.269,1.165-0.445,1.938-0.445c1.455,0,2.271,0.744,2.271,2.147
				v3.263h-0.766v-0.805c-0.37,0.484-0.988,0.918-1.932,0.918c-0.988,0-1.99-0.557-1.99-1.672c0-1.136,0.931-1.734,2.279-1.734
				c0.684,0,1.168,0.095,1.643,0.229v-0.188c0-0.961-0.588-1.457-1.59-1.457C334.061,289.104,333.564,289.27,333.07,289.497z
				 M333.163,292.223c0,0.682,0.62,1.073,1.341,1.073c0.98,0,1.788-0.599,1.788-1.444v-0.516c-0.394-0.113-0.92-0.229-1.569-0.229
				C333.721,291.107,333.163,291.54,333.163,292.223z"/>
			<path fill="#939598" d="M339.758,292.294c0,0.649,0.36,0.888,0.896,0.888c0.269,0,0.496-0.052,0.775-0.187v0.683
				c-0.279,0.146-0.578,0.229-0.961,0.229c-0.855,0-1.509-0.424-1.509-1.508v-3.221h-0.741v-0.703h0.741v-1.608h0.796v1.608h1.691
				v0.703h-1.691L339.758,292.294L339.758,292.294z"/>
			<path fill="#939598" d="M343.646,293.811h-0.793v-7.535h0.793v3.132c0.354-0.58,0.91-1.046,1.828-1.046
				c1.289,0,2.045,0.867,2.045,2.139v3.312h-0.795v-3.117c0-0.99-0.537-1.608-1.477-1.608c-0.919,0-1.602,0.67-1.602,1.671V293.811
				L343.646,293.811z"/>
		</g>
		<g enable-background="new    ">
			<path fill="#939598" d="M440.138,303.581c-1.621,0-2.815-1.276-2.815-2.897c0-1.604,1.188-2.916,2.843-2.916
				c1.021,0,1.63,0.36,2.192,0.894l-0.436,0.466c-0.474-0.45-1.005-0.771-1.766-0.771c-1.245,0-2.178,1.006-2.178,2.313
				s0.938,2.329,2.178,2.329c0.771,0,1.274-0.3,1.812-0.812l0.418,0.41C441.802,303.188,441.16,303.581,440.138,303.581z"/>
			<path fill="#939598" d="M443.445,303.484v-5.86h0.618v5.86H443.445z"/>
			<path fill="#939598" d="M447.396,303.581c-1.245,0-2.152-0.979-2.152-2.16s0.916-2.176,2.168-2.176
				c1.245,0,2.161,0.979,2.161,2.159C449.572,302.586,448.648,303.581,447.396,303.581z M447.396,299.79
				c-0.899,0-1.52,0.714-1.52,1.614s0.657,1.621,1.533,1.621c0.898,0,1.525-0.715,1.525-1.604
				C448.938,300.514,448.271,299.79,447.396,299.79z"/>
			<path fill="#939598" d="M452.057,303.564c-0.593,0-1.252-0.231-1.718-0.609l0.313-0.441c0.449,0.338,0.945,0.53,1.438,0.53
				c0.497,0,0.858-0.258,0.858-0.659v-0.018c0-0.416-0.489-0.577-1.036-0.729c-0.651-0.186-1.372-0.41-1.372-1.175v-0.017
				c0-0.717,0.595-1.188,1.413-1.188c0.506,0,1.066,0.174,1.493,0.454l-0.282,0.466c-0.385-0.248-0.826-0.4-1.229-0.4
				c-0.489,0-0.803,0.258-0.803,0.604v0.018c0,0.394,0.516,0.547,1.069,0.713c0.643,0.193,1.331,0.443,1.331,1.188v0.017
				C453.536,303.107,452.886,303.564,452.057,303.564z"/>
			<path fill="#939598" d="M456.514,303.044c0.568,0,0.974-0.233,1.31-0.587l0.386,0.345c-0.415,0.466-0.923,0.779-1.709,0.779
				c-1.14,0-2.074-0.875-2.074-2.168c0-1.204,0.846-2.17,1.993-2.17c1.229,0,1.938,0.979,1.938,2.2c0,0.058,0,0.121-0.012,0.192
				h-3.292C455.139,302.538,455.782,303.044,456.514,303.044z M457.726,301.182c-0.063-0.756-0.497-1.414-1.324-1.414
				c-0.725,0-1.27,0.604-1.351,1.414H457.726z"/>
			<path fill="#939598" d="M460.271,302.305c0,0.506,0.277,0.692,0.694,0.692c0.21,0,0.39-0.041,0.604-0.146v0.528
				c-0.215,0.112-0.45,0.179-0.746,0.179c-0.667,0-1.171-0.332-1.171-1.175v-2.506h-0.58v-0.547h0.58v-1.253h0.618v1.253h1.314
				v0.547h-1.314V302.305L460.271,302.305z"/>
		</g>
		<g enable-background="new    ">
			<path fill="#939598" d="M400.81,201.648c0,0.951-0.577,1.438-1.145,1.686c0.854,0.257,1.548,0.753,1.548,1.754
				c0,1.249-1.043,1.982-2.623,1.982h-3.209v-7.227h3.077C399.881,199.845,400.81,200.547,400.81,201.648z M399.985,201.766
				c0-0.724-0.568-1.188-1.603-1.188h-2.199v2.487h2.139C399.304,203.064,399.985,202.622,399.985,201.766z M400.386,205.038
				c0-0.794-0.658-1.25-1.919-1.25h-2.282v2.55h2.427C399.706,206.336,400.386,205.852,400.386,205.038z"/>
			<path fill="#939598" d="M405.051,206.503c0.732,0,1.25-0.299,1.684-0.753l0.498,0.441c-0.539,0.601-1.188,1.002-2.199,1.002
				c-1.465,0-2.663-1.125-2.663-2.785c0-1.551,1.084-2.789,2.56-2.789c1.58,0,2.488,1.26,2.488,2.829c0,0.071,0,0.155-0.011,0.249
				h-4.232C403.287,205.852,404.11,206.503,405.051,206.503z M406.61,204.107c-0.082-0.971-0.642-1.815-1.704-1.815
				c-0.93,0-1.63,0.772-1.733,1.815H406.61z"/>
			<path fill="#939598" d="M413.089,207.07v-1.074c-0.433,0.641-1.062,1.188-2.042,1.188c-1.28,0-2.552-1.013-2.552-2.775
				c0-1.758,1.27-2.789,2.552-2.789c0.989,0,1.63,0.537,2.042,1.136v-3.222h0.795v7.535h-0.795V207.07z M411.19,202.333
				c-1.03,0-1.88,0.765-1.88,2.062c0,1.271,0.869,2.076,1.88,2.076c0.991,0,1.933-0.826,1.933-2.076
				C413.123,203.158,412.183,202.333,411.19,202.333z"/>
			<path fill="#939598" d="M416.453,207.07h-0.792v-5.336h0.792v1.394c0.394-0.886,1.167-1.526,2.18-1.485v0.855h-0.062
				c-1.168,0-2.118,0.836-2.118,2.445V207.07L416.453,207.07z"/>
			<path fill="#939598" d="M422.047,207.193c-1.599,0-2.766-1.26-2.766-2.776c0-1.519,1.177-2.798,2.788-2.798
				c1.601,0,2.772,1.26,2.772,2.775C424.845,205.915,423.658,207.193,422.047,207.193z M422.047,202.32
				c-1.155,0-1.95,0.921-1.95,2.074c0,1.157,0.849,2.086,1.974,2.086c1.157,0,1.961-0.92,1.961-2.063
				C424.03,203.251,423.174,202.32,422.047,202.32z"/>
			<path fill="#939598" d="M428.714,207.193c-1.602,0-2.766-1.26-2.766-2.776c0-1.519,1.176-2.798,2.785-2.798
				c1.603,0,2.776,1.26,2.776,2.775C431.512,205.915,430.325,207.193,428.714,207.193z M428.714,202.32
				c-1.154,0-1.949,0.921-1.949,2.074c0,1.157,0.847,2.086,1.972,2.086c1.157,0,1.962-0.92,1.962-2.063
				C430.697,203.251,429.84,202.32,428.714,202.32z"/>
			<path fill="#939598" d="M439.057,201.62c1.229,0,1.981,0.825,1.981,2.147v3.303h-0.794v-3.117c0-1.032-0.519-1.61-1.384-1.61
				c-0.807,0-1.478,0.599-1.478,1.651v3.076h-0.785v-3.137c0-1.002-0.524-1.592-1.373-1.592c-0.847,0-1.483,0.702-1.483,1.684v3.045
				h-0.794v-5.336h0.794v0.896c0.35-0.525,0.825-1.012,1.723-1.012c0.868,0,1.426,0.464,1.715,1.062
				C437.558,202.096,438.127,201.62,439.057,201.62z"/>
		</g>
		<g enable-background="new    ">
			<path fill="#939598" d="M392.255,212.406h0.599v7.277h-0.808v-6.431l-1.36,0.423l-0.197-0.66L392.255,212.406z"/>
			<path fill="#939598" d="M399.138,212.406v4.883h1.125v0.682h-1.125v1.713h-0.785v-1.713h-3.81l-0.207-0.589l4.089-4.976H399.138z
				 M398.353,213.562l-3.032,3.728h3.032V213.562z"/>
			<path fill="#939598" d="M401.8,212.458h0.972v0.051l-0.837,2.755h-0.443L401.8,212.458z"/>
			<path fill="#939598" d="M404.577,214.326l-0.601-0.436c0.65-0.97,1.332-1.537,2.604-1.537c1.31,0,2.237,0.867,2.237,2.054
				c0,1.063-0.558,1.714-1.826,2.817l-1.933,1.713h3.828v0.744h-5.047v-0.63l2.623-2.312c1.104-0.991,1.506-1.551,1.506-2.271
				c0-0.847-0.67-1.384-1.455-1.384C405.69,213.087,405.155,213.52,404.577,214.326z"/>
			<path fill="#939598" d="M410.509,212.458h0.961v0.051l-0.837,2.755H410.2L410.509,212.458z M412.533,212.458h0.95v0.051
				l-0.839,2.755h-0.433L412.533,212.458z"/>
			<path fill="#939598" d="M422.688,219.684h-0.918l-1.652-2.177l-1.66,2.177h-0.886l2.094-2.715l-2.012-2.621h0.905l1.58,2.064
				l1.579-2.064h0.886l-2.021,2.604L422.688,219.684z"/>
			<path fill="#939598" d="M429.229,219.809c-0.938,0-1.62-0.383-2.229-0.889l0.475-0.63c0.589,0.517,1.138,0.774,1.775,0.774
				c1.301,0,2.178-1.32,2.147-3.17c-0.396,0.629-1.044,1.156-2.047,1.156c-1.484,0-2.517-0.938-2.517-2.25
				c0-1.384,1.062-2.468,2.601-2.468c0.826,0,1.438,0.278,1.899,0.744c0.568,0.565,0.897,1.353,0.897,2.808
				C432.233,218.186,431.016,219.809,429.229,219.809z M429.406,213.059c-1.083,0-1.734,0.793-1.734,1.702
				c0,0.929,0.725,1.589,1.775,1.589c1.104,0,1.796-0.805,1.796-1.641C431.243,213.779,430.489,213.059,429.406,213.059z"/>
			<path fill="#939598" d="M433.842,212.458h0.973v0.051l-0.84,2.755h-0.441L433.842,212.458z"/>
			<path fill="#939598" d="M436.288,213.189v-0.731h4.614v0.599l-2.271,2.519c1.271,0.103,2.384,0.712,2.384,2.043
				c0,1.301-1.071,2.188-2.415,2.188c-1.207,0-2.104-0.527-2.692-1.291l0.589-0.525c0.557,0.683,1.228,1.074,2.116,1.074
				c0.878,0,1.58-0.558,1.58-1.414c0-0.907-0.827-1.404-2.023-1.404h-0.466l-0.165-0.485l2.281-2.571H436.288L436.288,213.189
				L436.288,213.189z"/>
			<path fill="#939598" d="M442.696,212.458h0.961v0.051l-0.835,2.755h-0.436L442.696,212.458z M444.718,212.458h0.952v0.051
				l-0.838,2.755h-0.433L444.718,212.458z"/>
		</g>
		<g enable-background="new    ">
			<path fill="#939598" d="M149.554,217.234h0.815v6.474h4.067v0.754h-4.883L149.554,217.234L149.554,217.234z"/>
			<path fill="#939598" d="M155.83,217.958v-0.877h0.908v0.877H155.83z M155.88,224.462v-5.336h0.794v5.336H155.88z"/>
			<path fill="#939598" d="M162.476,219.125h0.856l-2.322,5.378h-0.702l-2.312-5.378h0.878l1.796,4.428L162.476,219.125z"/>
			<path fill="#939598" d="M164.601,217.958v-0.877h0.908v0.877H164.601z M164.652,224.462v-5.336h0.795v5.336H164.652z"/>
			<path fill="#939598" d="M168.089,224.462h-0.794v-5.336h0.794v0.931c0.351-0.58,0.908-1.045,1.828-1.045
				c1.29,0,2.043,0.868,2.043,2.137v3.314h-0.794v-3.117c0-0.99-0.537-1.609-1.477-1.609c-0.918,0-1.601,0.671-1.601,1.673
				L168.089,224.462L168.089,224.462z"/>
			<path fill="#939598" d="M176.016,226.134c-0.887,0-1.714-0.248-2.427-0.741l0.362-0.619c0.609,0.443,1.29,0.683,2.055,0.683
				c1.177,0,1.941-0.651,1.941-1.899v-0.63c-0.465,0.621-1.116,1.125-2.096,1.125c-1.28,0-2.509-0.95-2.509-2.509
				c0-1.568,1.238-2.529,2.509-2.529c1.001,0,1.651,0.496,2.084,1.073v-0.959h0.795v4.407
				C178.73,225.256,177.657,226.134,176.016,226.134z M176.004,219.712c-1.011,0-1.847,0.692-1.847,1.808
				c0,1.095,0.857,1.826,1.847,1.826c1.012,0,1.962-0.723,1.962-1.815C177.966,220.424,177.017,219.712,176.004,219.712z"/>
			<path fill="#939598" d="M184.922,216.223l-4.79,9.562H179.4l4.79-9.562H184.922z"/>
			<path fill="#939598" d="M188.389,224.462h-2.509v-7.228h2.509c2.271,0,3.84,1.56,3.84,3.604
				C192.228,222.883,190.66,224.462,188.389,224.462z M188.389,217.989h-1.694v5.718h1.694c1.826,0,2.994-1.238,2.994-2.85
				C191.383,219.249,190.215,217.989,188.389,217.989z"/>
			<path fill="#939598" d="M193.837,217.958v-0.877h0.908v0.877H193.837z M193.888,224.462v-5.336h0.794v5.336H193.888z"/>
			<path fill="#939598" d="M197.325,224.462h-0.794v-5.336h0.794v0.931c0.351-0.58,0.908-1.045,1.828-1.045
				c1.29,0,2.043,0.868,2.043,2.137v3.314h-0.794v-3.117c0-0.99-0.537-1.609-1.477-1.609c-0.918,0-1.601,0.671-1.601,1.673
				L197.325,224.462L197.325,224.462z"/>
			<path fill="#939598" d="M202.907,217.958v-0.877h0.908v0.877H202.907z M202.959,224.462v-5.336h0.794v5.336H202.959z"/>
			<path fill="#939598" d="M206.396,224.462h-0.795v-5.336h0.795v0.931c0.351-0.58,0.908-1.045,1.828-1.045
				c1.29,0,2.043,0.868,2.043,2.137v3.314h-0.795v-3.117c0-0.99-0.537-1.609-1.477-1.609c-0.918,0-1.601,0.671-1.601,1.673
				L206.396,224.462L206.396,224.462z"/>
			<path fill="#939598" d="M214.322,226.134c-0.888,0-1.714-0.248-2.426-0.741l0.361-0.619c0.609,0.443,1.29,0.683,2.055,0.683
				c1.176,0,1.941-0.651,1.941-1.899v-0.63c-0.464,0.621-1.115,1.125-2.096,1.125c-1.28,0-2.509-0.95-2.509-2.509
				c0-1.568,1.239-2.529,2.509-2.529c1,0,1.651,0.496,2.084,1.073v-0.959h0.794v4.407
				C217.037,225.256,215.962,226.134,214.322,226.134z M214.311,219.712c-1.011,0-1.847,0.692-1.847,1.808
				c0,1.095,0.856,1.826,1.847,1.826c1.011,0,1.961-0.723,1.961-1.815C216.272,220.424,215.322,219.712,214.311,219.712z"/>
			<path fill="#939598" d="M227.016,224.462l-2.096-2.81h-2.064v2.81h-0.815v-7.228h3.107c1.589,0,2.612,0.857,2.612,2.158
				c0,1.207-0.825,1.909-1.961,2.115l2.22,2.953L227.016,224.462L227.016,224.462z M225.085,217.989h-2.229v2.932h2.22
				c1.083,0,1.859-0.558,1.859-1.498C226.933,218.525,226.252,217.989,225.085,217.989z"/>
			<path fill="#939598" d="M231.7,224.585c-1.601,0-2.767-1.26-2.767-2.776c0-1.518,1.176-2.799,2.788-2.799
				c1.601,0,2.776,1.26,2.776,2.777C234.497,223.307,233.31,224.585,231.7,224.585z M231.7,219.712c-1.156,0-1.952,0.92-1.952,2.075
				c0,1.156,0.846,2.086,1.972,2.086c1.156,0,1.961-0.92,1.961-2.064C233.683,220.643,232.825,219.712,231.7,219.712z"/>
			<path fill="#939598" d="M238.367,224.585c-1.601,0-2.767-1.26-2.767-2.776c0-1.518,1.177-2.799,2.788-2.799
				c1.601,0,2.776,1.26,2.776,2.777C241.163,223.307,239.976,224.585,238.367,224.585z M238.367,219.712
				c-1.156,0-1.952,0.92-1.952,2.075c0,1.156,0.846,2.086,1.972,2.086c1.156,0,1.961-0.92,1.961-2.064
				C240.348,220.643,239.492,219.712,238.367,219.712z"/>
			<path fill="#939598" d="M248.708,219.011c1.228,0,1.981,0.826,1.981,2.148v3.303h-0.793v-3.118c0-1.031-0.516-1.609-1.384-1.609
				c-0.805,0-1.476,0.598-1.476,1.65v3.077h-0.786v-3.137c0-1.002-0.526-1.591-1.373-1.591s-1.486,0.701-1.486,1.683v3.045h-0.794
				v-5.336h0.794v0.896c0.351-0.524,0.826-1.012,1.724-1.012c0.867,0,1.425,0.465,1.714,1.064
				C247.21,219.486,247.778,219.011,248.708,219.011z"/>
		</g>
		<g enable-background="new    ">
			<path fill="#939598" d="M170.029,231.717l-0.599-0.434c0.651-0.971,1.332-1.538,2.602-1.538c1.311,0,2.241,0.866,2.241,2.054
				c0,1.064-0.557,1.715-1.828,2.818l-1.93,1.713h3.83v0.743h-5.047v-0.63l2.622-2.312c1.104-0.99,1.507-1.549,1.507-2.271
				c0-0.846-0.671-1.383-1.456-1.383C171.144,230.479,170.608,230.912,170.029,231.717z"/>
			<path fill="#939598" d="M179.959,229.797v4.883h1.125v0.682h-1.125v1.714h-0.785v-1.714h-3.809l-0.207-0.59l4.087-4.975H179.959z
				 M179.174,230.953l-3.035,3.727h3.035V230.953z"/>
			<path fill="#939598" d="M182.62,229.85h0.97v0.051l-0.836,2.756h-0.444L182.62,229.85z"/>
			<path fill="#939598" d="M185.066,230.582v-0.732h4.614v0.6l-2.271,2.518c1.27,0.104,2.385,0.713,2.385,2.043
				c0,1.301-1.073,2.188-2.415,2.188c-1.208,0-2.105-0.527-2.694-1.291l0.587-0.526c0.558,0.684,1.229,1.075,2.117,1.075
				c0.877,0,1.579-0.558,1.579-1.414c0-0.908-0.826-1.405-2.023-1.405h-0.464l-0.165-0.484l2.282-2.57H185.066L185.066,230.582
				L185.066,230.582z"/>
			<path fill="#939598" d="M191.475,229.85h0.959v0.051l-0.836,2.756h-0.433L191.475,229.85z M193.499,229.85h0.951v0.051
				l-0.836,2.756h-0.434L193.499,229.85z"/>
			<path fill="#939598" d="M203.653,237.075h-0.919l-1.651-2.179l-1.661,2.179h-0.888l2.096-2.716l-2.012-2.62h0.908l1.579,2.063
				l1.579-2.063h0.888l-2.024,2.602L203.653,237.075z"/>
			<path fill="#939598" d="M209.204,229.797h0.598v7.277h-0.804v-6.432l-1.362,0.424l-0.197-0.66L209.204,229.797z"/>
			<path fill="#939598" d="M216.14,231.18c-0.537-0.453-1.042-0.711-1.703-0.711c-1.311,0-2.125,1.321-2.115,3.189
				c0.392-0.579,1.001-1.105,2.055-1.105c1.352,0,2.498,0.868,2.498,2.229c0,1.403-1.125,2.416-2.59,2.416
				c-0.794,0-1.446-0.278-1.9-0.734c-0.578-0.578-0.908-1.321-0.908-2.807c0-2.21,1.115-3.935,3.004-3.935
				c0.866,0,1.506,0.312,2.137,0.826L216.14,231.18z M214.271,233.255c-1.083,0-1.806,0.774-1.806,1.591
				c0,0.938,0.764,1.631,1.826,1.631c1.063,0,1.744-0.732,1.744-1.662C216.037,233.916,215.313,233.255,214.271,233.255z"/>
			<path fill="#939598" d="M218.502,229.85h0.97v0.051l-0.836,2.756h-0.443L218.502,229.85z"/>
			<path fill="#939598" d="M223.301,237.178c-1.538,0-2.715-0.835-2.715-2.054c0-0.868,0.619-1.478,1.486-1.786
				c-0.671-0.312-1.24-0.827-1.24-1.673c0-1.124,1.147-1.919,2.468-1.919c1.321,0,2.467,0.794,2.467,1.919
				c0,0.846-0.568,1.36-1.239,1.673c0.857,0.319,1.486,0.908,1.486,1.775C226.016,236.354,224.84,237.178,223.301,237.178z
				 M223.301,233.721c-1.053,0-1.889,0.566-1.889,1.383c0,0.742,0.702,1.361,1.889,1.361s1.888-0.619,1.888-1.361
				C225.19,234.287,224.353,233.721,223.301,233.721z M223.301,230.457c-0.939,0-1.651,0.525-1.651,1.259
				c0,0.794,0.733,1.333,1.651,1.333s1.651-0.538,1.651-1.333C224.954,230.995,224.241,230.457,223.301,230.457z"/>
			<path fill="#939598" d="M227.532,229.85h0.96v0.051l-0.836,2.756h-0.434L227.532,229.85z M229.555,229.85h0.951v0.051
				l-0.836,2.756h-0.434L229.555,229.85z"/>
		</g>
		<g enable-background="new    ">
			<path fill="#939598" d="M82.414,335.658v1.267h1.84v0.591h-5.217v-1.953c0-1.178,0.625-1.952,1.662-1.952
				C81.832,333.605,82.414,334.548,82.414,335.658z M79.582,335.605v1.317h2.295v-1.289c0-0.862-0.462-1.431-1.155-1.431
				C79.969,334.205,79.582,334.764,79.582,335.605z"/>
			<path fill="#939598" d="M81.14,332.482l-0.47,0.173c-0.193-0.428-0.32-0.843-0.32-1.403c0-1.05,0.537-1.641,1.552-1.641h2.355
				v0.551h-0.582c0.351,0.27,0.663,0.717,0.663,1.396c0,0.716-0.403,1.438-1.207,1.438c-0.82,0-1.252-0.674-1.252-1.649
				c0-0.489,0.067-0.843,0.164-1.186h-0.135c-0.692,0-1.049,0.426-1.049,1.147C80.856,331.77,80.975,332.124,81.14,332.482z
				 M83.108,332.415c0.492,0,0.775-0.447,0.775-0.97c0-0.707-0.432-1.287-1.044-1.287h-0.372c-0.082,0.281-0.164,0.66-0.164,1.132
				C82.303,332.014,82.616,332.415,83.108,332.415z"/>
			<path fill="#939598" d="M84.255,327.816v0.573h-3.853v-0.573h0.671c-0.417-0.254-0.752-0.655-0.752-1.316
				c0-0.932,0.626-1.477,1.542-1.477h2.393v0.571h-2.251c-0.715,0-1.164,0.39-1.164,1.066c0,0.663,0.485,1.156,1.208,1.156
				L84.255,327.816L84.255,327.816L84.255,327.816z"/>
			<path fill="#939598" d="M83.161,323.025c0.469,0,0.641-0.265,0.641-0.649c0-0.192-0.037-0.356-0.134-0.558h0.492
				c0.105,0.2,0.165,0.416,0.165,0.692c0,0.617-0.306,1.088-1.088,1.088H80.91v0.537h-0.506V323.6H79.24v-0.573h1.164v-1.222h0.506
				v1.222L83.161,323.025L83.161,323.025z"/>
			<path fill="#939598" d="M84.255,320.215v0.574h-3.853v-0.574h1.006c-0.641-0.281-1.104-0.843-1.073-1.572h0.618v0.046
				c0,0.843,0.603,1.526,1.767,1.526H84.255L84.255,320.215z"/>
			<path fill="#939598" d="M84.381,315.893c0.797,0.326,1.088,0.7,1.088,1.28c0,0.322-0.067,0.561-0.194,0.82l-0.454-0.193
				c0.096-0.186,0.141-0.355,0.141-0.604c0-0.343-0.178-0.561-0.723-0.789l-3.839,1.751v-0.635l3.213-1.4l-3.213-1.236v-0.61
				L84.381,315.893z"/>
		</g>
	</g>
</g>
</svg>
