<?xml version="1.0" encoding="utf-8"?>
<!-- Generator: Adobe Illustrator 15.0.2, SVG Export Plug-In . SVG Version: 6.00 Build 0)  -->
<!DOCTYPE svg PUBLIC "-//W3C//DTD SVG 1.1//EN" "http://www.w3.org/Graphics/SVG/1.1/DTD/svg11.dtd">
<svg version="1.1" xmlns="http://www.w3.org/2000/svg" xmlns:xlink="http://www.w3.org/1999/xlink" x="0px" y="0px"
	 width="584.506px" height="196.898px" viewBox="0 0 584.506 196.898" enable-background="new 0 0 584.506 196.898"
	 xml:space="preserve">
<g id="_x32_0_x25___PMS_2985_fill" display="none">
	<polygon display="inline" fill="#EBEEEF" points="237.925,-179.511 237.925,99.822 205.925,133.323 205.925,306.488 
		238.592,340.488 238.842,400.238 398.175,400.238 397.925,-180.178 	"/>
</g>
<g id="_x32_0_x25__grey_fill">
	<rect x="74.263" y="155.75" fill="#D1D3D4" width="23.753" height="7.75"/>
	<rect x="128.929" y="2.5" fill="#D1D3D4" width="18.333" height="6.333"/>
	<rect x="3.18" y="2.167" fill="#D1D3D4" width="50.416" height="6.884"/>
	<rect x="222.43" y="3" fill="#D1D3D4" width="53.5" height="5.5"/>
	<rect x="447.263" y="3.167" fill="#D1D3D4" width="52.667" height="5.666"/>
	<rect x="350.43" y="3.167" fill="#D1D3D4" width="21.167" height="5.583"/>
	<rect x="572.597" y="1.167" fill="#D1D3D4" width="10.666" height="8"/>
	<polygon fill="#D1D3D4" points="504.93,178.5 504.93,159.167 521.93,159.167 	"/>
	<polyline fill="#D1D3D4" points="280.929,162.167 306.596,162.167 306.596,185.833 279.597,162.167 	"/>
</g>
<g id="icons">
	<g>
		<g>
			<rect x="75.365" y="108.215" fill="#FFFFFF" stroke="#939598" width="23.625" height="45.692"/>
			<path fill="#FFFFFF" stroke="#939598" d="M87.177,131.06"/>
			<path fill="#FFFFFF" stroke="#939598" d="M87.177,130.903"/>
			<path fill="#FFFFFF" stroke="#939598" d="M87.177,115.411"/>
		</g>
		<circle fill="#FFFFFF" stroke="#939598" cx="87.066" cy="118.628" r="0.969"/>
		<path fill="#FFFFFF" stroke="#939598" d="M87.105,151.298c6.771,0,9.25-1.562,9.25-3.752c0,0,0-32.838,0-33.375
			c0-0.535-0.145-1.641-1.561-1.641c-1.418,0-7.689,0-7.689,0h-0.016c0,0-6.271,0-7.689,0c-1.416,0-1.561,1.105-1.561,1.641
			c0,0.537,0,33.354,0,33.354l0.002,0.021C77.841,149.735,80.376,151.298,87.105,151.298z"/>
		<path fill="#FFFFFF" stroke="#939598" d="M89.097,110.831c-0.002,0.549,0.44,0.988,0.995,0.988c0.537,0,0.982-0.439,0.986-0.988
			c-0.004-0.545-0.449-0.996-0.986-0.996C89.538,109.835,89.095,110.28,89.097,110.831z"/>
		<path fill="#FFFFFF" stroke="#939598" d="M82.957,110.831c-0.006,0.549,0.445,0.988,0.99,0.988c0.543,0,0.99-0.439,0.99-0.988
			c0-0.545-0.447-0.996-0.99-0.988C83.4,109.835,82.957,110.286,82.957,110.831z"/>
		<path fill="#FFFFFF" stroke="#939598" d="M88.399,110.538c0-0.812-0.549-1.469-1.361-1.471c-0.81,0.002-1.253,0.658-1.253,1.471
			l0.521,5.592c0,0.549,1.481,0.549,1.481,0L88.399,110.538z"/>
	</g>
	<g>
		<g>
			<g>
				<rect x="555.148" y="111.557" fill="#FFFFFF" stroke="#939598" width="24.496" height="46.75"/>
				<path fill="#FFFFFF" stroke="#939598" d="M567.377,134.307"/>
			</g>
			<g>
				<polyline fill="#FFFFFF" stroke="#939598" points="567.139,112.982 557.348,112.982 557.348,156.551 577.443,156.551 
					577.443,112.982 568.042,112.982 				"/>
				<path fill="#FFFFFF" stroke="#939598" d="M567.377,134.307"/>
			</g>
			<line fill="#FFFFFF" stroke="#939598" x1="577.443" y1="112.982" x2="568.054" y2="133.383"/>
			<line fill="#FFFFFF" stroke="#939598" x1="566.665" y1="135.203" x2="557.348" y2="156.551"/>
			<line fill="#FFFFFF" stroke="#939598" x1="577.443" y1="156.551" x2="568.146" y2="135.309"/>
			<line fill="#FFFFFF" stroke="#939598" x1="566.641" y1="133.35" x2="557.348" y2="112.982"/>
			<g>
				<path fill="#FFFFFF" stroke="#939598" d="M566.329,134.307c0,0.6,0.587,1.084,1.048,1.084c0.46,0,0.975-0.484,0.975-1.084
					c0-0.598-0.515-1.084-0.975-1.084C566.916,133.223,566.329,133.709,566.329,134.307z"/>
				<path fill="#FFFFFF" stroke="#939598" d="M567.377,134.307"/>
			</g>
		</g>
		<path fill="#FFFFFF" stroke="#939598" d="M566.361,114.58c0,0.617,2.232,0.617,2.232,0s-0.5-1.115-1.116-1.115
			C566.859,113.465,566.361,113.963,566.361,114.58z"/>
		<polyline fill="#FFFFFF" stroke="#939598" points="567.708,111.262 567.708,113.396 567.086,113.396 567.086,111.26 		"/>
	</g>
	<line fill="none" stroke="#939598" x1="53.93" y1="10" x2="573.43" y2="10"/>
	<polygon fill="#FFFFFF" stroke="#939598" points="184.282,141.688 153.616,141.688 153.616,160.354 184.616,160.354 	"/>
	<g>
		<path fill="#FFFFFF" stroke="#939598" stroke-miterlimit="10" d="M143.222,147.044c0-4.461-2.711-9.375-6.053-9.375
			s-6.041,4.914-6.041,9.375c0,4.463,2.699,6.785,6.041,6.785S143.222,151.507,143.222,147.044"/>
		<path fill="#FFFFFF" stroke="#939598" d="M143.222,147.044c0-4.461-2.711-9.375-6.053-9.375s-6.041,4.914-6.041,9.375
			c0,4.463,2.699,6.785,6.041,6.785S143.222,151.507,143.222,147.044z"/>
		<path fill="#FFFFFF" stroke="#939598" stroke-miterlimit="10" d="M133.546,152.366c0-0.25-0.205-0.455-0.455-0.455h-2.107
			c-0.25,0-0.455,0.205-0.455,0.455v0.078c0,0.25,0.205,0.455,0.455,0.455h2.107c0.25,0,0.455-0.205,0.455-0.455V152.366z"/>
		<path fill="#FFFFFF" stroke="#939598" d="M133.546,152.366c0-0.25-0.205-0.455-0.455-0.455h-2.107
			c-0.25,0-0.455,0.205-0.455,0.455v0.078c0,0.25,0.205,0.455,0.455,0.455h2.107c0.25,0,0.455-0.205,0.455-0.455V152.366z"/>
		<path fill="#FFFFFF" stroke="#939598" stroke-miterlimit="10" d="M130.208,152.911c-0.758,0-1.375,2.057-1.375,2.816
			c0,0.768,0.617,2.824,1.375,2.824h13.814c0.76,0,1.375-2.057,1.375-2.824c0-0.76-0.615-2.814-1.375-2.814L130.208,152.911z"/>
		<path fill="#FFFFFF" stroke="#939598" d="M130.208,152.911c-0.758,0-1.375,2.057-1.375,2.816c0,0.768,0.617,2.824,1.375,2.824
			h13.814c0.76,0,1.375-2.057,1.375-2.824c0-0.76-0.615-2.814-1.375-2.814L130.208,152.911z"/>
		<path fill="#FFFFFF" stroke="#939598" stroke-miterlimit="10" d="M141.618,146.858c0-3.279-1.992-6.893-4.449-6.893
			s-4.447,3.613-4.447,6.893s1.99,4.984,4.447,4.984S141.618,150.138,141.618,146.858"/>
		<path fill="#FFFFFF" stroke="#939598" d="M141.618,146.858c0-3.279-1.992-6.893-4.449-6.893s-4.447,3.613-4.447,6.893
			s1.99,4.984,4.447,4.984S141.618,150.138,141.618,146.858z"/>
	</g>
	<g>
		<g>
			<g>
				<path fill="none" stroke="#939598" d="M168.937,148.868"/>
			</g>
			<g>
				<path fill="none" stroke="#939598" d="M168.937,149.931"/>
			</g>
			<g>
				<circle fill="none" stroke="#939598" cx="168.937" cy="148.868" r="1.017"/>
				<path fill="none" stroke="#939598" d="M168.937,148.868"/>
			</g>
			<g>
				<g>
					<rect x="164.671" y="155.243" fill="none" stroke="#939598" width="8.553" height="2.125"/>
					<path fill="none" stroke="#939598" d="M168.937,156.306"/>
				</g>
				<g>
					<rect x="168.484" y="151.118" fill="none" stroke="#939598" width="0.906" height="4.031"/>
					<path fill="none" stroke="#939598" d="M168.937,153.478"/>
				</g>
				<g>
					<circle fill="none" stroke="#939598" cx="168.937" cy="156.285" r="0.986"/>
					<path fill="none" stroke="#939598" d="M168.937,156.285"/>
				</g>
			</g>
		</g>
		<g>
			<rect x="160.41" y="143.818" fill="none" stroke="#939598" width="17.076" height="13.875"/>
			<rect x="161.802" y="145.213" fill="none" stroke="#939598" width="14.255" height="9.98"/>
		</g>
	</g>
	<g>
		<polygon fill="none" stroke="#939598" points="146.523,87.334 146.536,85.664 122.718,85.648 122.705,87.342 		"/>
		<path fill="none" stroke="#939598" d="M122.687,86.545c0.445-13.113,11.289-23.383,24.402-22.936"/>
	</g>
	<g>
		<polygon fill="none" stroke="#939598" points="106.17,105.943 107.756,105.951 107.771,128.578 106.184,128.57 		"/>
		<path fill="none" stroke="#939598" d="M106.899,128.588c12.458-0.423,22.214-10.664,21.788-23.121"/>
	</g>
	<g>
		<polygon fill="none" stroke="#939598" points="25.576,106.342 27.162,106.35 27.178,128.977 25.59,128.969 		"/>
		<path fill="none" stroke="#939598" d="M26.306,128.986c12.458-0.423,22.214-10.664,21.788-23.121"/>
	</g>
	<g>
		<polygon fill="none" stroke="#939598" points="497.201,109.585 495.615,109.593 495.6,132.22 497.188,132.212 		"/>
		<path fill="none" stroke="#939598" d="M496.472,132.229c-12.458-0.423-22.214-10.664-21.788-23.121"/>
	</g>
	<g>
		<polygon fill="none" stroke="#939598" points="551.701,109.585 550.115,109.593 550.1,132.22 551.688,132.212 		"/>
		<path fill="none" stroke="#939598" d="M550.972,132.229c-12.458-0.423-22.214-10.664-21.788-23.121"/>
	</g>
	<g>
		<polygon fill="none" stroke="#939598" points="179.873,94.458 178.287,94.466 178.271,117.093 179.859,117.085 		"/>
		<path fill="none" stroke="#939598" d="M179.144,117.103c-12.458-0.423-22.214-10.664-21.788-23.121"/>
	</g>
	<g>
		<polygon fill="none" stroke="#939598" points="239.984,163.61 241.57,163.603 241.586,140.976 239.998,140.983 		"/>
		<path fill="none" stroke="#939598" d="M240.714,140.966c12.458,0.423,22.214,10.664,21.788,23.121"/>
	</g>
	<g>
		<polygon fill="none" stroke="#939598" points="311.734,162.243 313.32,162.235 313.336,139.608 311.748,139.616 		"/>
		<path fill="none" stroke="#939598" d="M312.464,139.599c12.458,0.423,22.214,10.664,21.788,23.121"/>
	</g>
	<g>
		<g>
			<polygon fill="none" stroke="#939598" points="208.154,107.141 208.16,109.043 229.032,109.06 229.025,107.152 			"/>
			<path fill="none" stroke="#939598" d="M229.041,107.814c-0.389,11.49-9.836,20.488-21.326,20.097"/>
		</g>
		<g>
			<polygon fill="none" stroke="#939598" points="208.154,148.786 208.16,146.885 229.032,146.867 229.025,148.773 			"/>
			<path fill="none" stroke="#939598" d="M229.041,148.113c-0.389-11.49-9.836-20.488-21.326-20.097"/>
		</g>
	</g>
	<path fill="none" stroke="#939598" d="M267.513,93.084"/>
	<path fill="none" stroke="#939598" d="M228.621,93.084"/>
	<path fill="none" stroke="#939598" d="M228.621,54.75"/>
	<line fill="none" stroke="#939598" x1="198.43" y1="95.5" x2="198.43" y2="161.75"/>
	<polyline fill="none" stroke="#939598" points="14.268,107 14.268,151.5 61.93,151.5 61.93,107.25 	"/>
	<polyline fill="none" stroke="#939598" points="466.93,111.25 466.93,182.805 484.68,182.805 504.93,163.135 	"/>
	<line fill="none" stroke="#939598" stroke-dasharray="1.5,1.5,1.5,1.5,1.5,1.5" x1="195.93" y1="161" x2="195.93" y2="95.5"/>
	<polyline fill="none" stroke="#939598" stroke-dasharray="1.5,1.5,1.5,1.5,1.5,1.5" points="11.93,107.25 11.93,154 63.93,154 
		63.93,107.25 	"/>
	<polyline fill="none" stroke="#939598" stroke-dasharray="1.5,1.5,1.5,1.5,1.5,1.5" points="464.18,110.75 464.18,185.5 
		485.93,185.5 504.18,167.25 	"/>
	<g>
		<polygon fill="none" stroke="#939598" points="445.95,100.85 445.938,99.18 469.756,99.164 469.769,100.857 		"/>
		<path fill="none" stroke="#939598" d="M469.787,100.061c-0.445-13.113-11.289-23.383-24.402-22.936"/>
	</g>
	<g>
		<g>
			<g>
				<g>
					<rect x="313.058" y="165.851" fill="#FFFFFF" stroke="#939598" width="20.188" height="18.545"/>
					<path fill="#FFFFFF" stroke="#939598" d="M323.151,174.507"/>
					<polyline fill="#FFFFFF" stroke="#939598" points="317.026,171.384 317.026,168.563 319.464,167.905 326.933,167.905 
						329.401,168.563 329.401,171.384 					"/>
					<line fill="#FFFFFF" stroke="#939598" x1="333.392" y1="171.384" x2="313.058" y2="171.384"/>
					<path fill="#FFFFFF" stroke="#939598" d="M323.214,173.562"/>
				</g>
			</g>
		</g>
		<polygon fill="#FFFFFF" stroke="#939598" points="332.264,170.167 330.633,170.163 330.274,171.302 332.622,171.306 		"/>
	</g>
	<polygon fill="#FFFFFF" stroke="#939598" points="506.118,145.082 524.786,145.082 524.453,110.777 505.604,110.777 	"/>
	<g>
		<path fill="#FFFFFF" stroke="#939598" stroke-miterlimit="10" d="M544.796,144.925c0-4.461-2.711-9.375-6.053-9.375
			s-6.041,4.914-6.041,9.375c0,4.463,2.699,6.785,6.041,6.785S544.796,149.388,544.796,144.925"/>
		<path fill="#FFFFFF" stroke="#939598" d="M544.796,144.925c0-4.461-2.711-9.375-6.053-9.375s-6.041,4.914-6.041,9.375
			c0,4.463,2.699,6.785,6.041,6.785S544.796,149.388,544.796,144.925z"/>
		<path fill="#FFFFFF" stroke="#939598" stroke-miterlimit="10" d="M535.12,150.247c0-0.25-0.205-0.455-0.455-0.455h-2.107
			c-0.25,0-0.455,0.205-0.455,0.455v0.078c0,0.25,0.205,0.455,0.455,0.455h2.107c0.25,0,0.455-0.205,0.455-0.455V150.247z"/>
		<path fill="#FFFFFF" stroke="#939598" d="M535.12,150.247c0-0.25-0.205-0.455-0.455-0.455h-2.107c-0.25,0-0.455,0.205-0.455,0.455
			v0.078c0,0.25,0.205,0.455,0.455,0.455h2.107c0.25,0,0.455-0.205,0.455-0.455V150.247z"/>
		<path fill="#FFFFFF" stroke="#939598" stroke-miterlimit="10" d="M531.782,150.792c-0.758,0-1.375,2.057-1.375,2.816
			c0,0.768,0.617,2.824,1.375,2.824h13.814c0.76,0,1.375-2.057,1.375-2.824c0-0.76-0.615-2.814-1.375-2.814L531.782,150.792z"/>
		<path fill="#FFFFFF" stroke="#939598" d="M531.782,150.792c-0.758,0-1.375,2.057-1.375,2.816c0,0.768,0.617,2.824,1.375,2.824
			h13.814c0.76,0,1.375-2.057,1.375-2.824c0-0.76-0.615-2.814-1.375-2.814L531.782,150.792z"/>
		<path fill="#FFFFFF" stroke="#939598" stroke-miterlimit="10" d="M543.192,144.739c0-3.279-1.992-6.893-4.449-6.893
			s-4.447,3.613-4.447,6.893s1.99,4.984,4.447,4.984S543.192,148.019,543.192,144.739"/>
		<path fill="#FFFFFF" stroke="#939598" d="M543.192,144.739c0-3.279-1.992-6.893-4.449-6.893s-4.447,3.613-4.447,6.893
			s1.99,4.984,4.447,4.984S543.192,148.019,543.192,144.739z"/>
	</g>
	<g>
		<g>
			<g>
				<path fill="none" stroke="#939598" d="M516.93,127.5"/>
			</g>
			<g>
				<path fill="none" stroke="#939598" d="M515.867,127.5"/>
			</g>
			<g>
				<circle fill="none" stroke="#939598" cx="516.931" cy="127.5" r="1.017"/>
				<path fill="none" stroke="#939598" d="M516.93,127.5"/>
			</g>
			<g>
				<g>
					<rect x="508.43" y="123.213" fill="none" stroke="#939598" width="2.125" height="8.553"/>
					<path fill="none" stroke="#939598" d="M509.492,127.5"/>
				</g>
				<g>
					<rect x="510.648" y="127.047" fill="none" stroke="#939598" width="4.031" height="0.906"/>
					<path fill="none" stroke="#939598" d="M512.32,127.5"/>
				</g>
				<g>
					<circle fill="none" stroke="#939598" cx="509.514" cy="127.5" r="0.986"/>
					<path fill="none" stroke="#939598" d="M509.514,127.5"/>
				</g>
			</g>
		</g>
		<g>
			<rect x="508.105" y="118.951" fill="none" stroke="#939598" width="13.875" height="17.076"/>
			<rect x="510.605" y="120.379" fill="none" stroke="#939598" width="9.98" height="14.256"/>
		</g>
	</g>
	<rect x="349.263" y="115.5" fill="#FFFFFF" stroke="#939598" width="57" height="23.667"/>
	<polygon fill="#FFFFFF" stroke="#939598" points="434.623,172.44 434.705,110.696 455.328,110.696 455.269,194.086 
		367.368,194.021 367.368,172.419 368.911,172.419 	"/>
	<g>
		<g>
			<rect x="341.31" y="168.911" fill="#FFFFFF" stroke="#939598" width="24.902" height="21.969"/>
			<path fill="#FFFFFF" stroke="#939598" d="M352.472,179.896"/>
		</g>
		<line fill="#FFFFFF" stroke="#939598" x1="366.271" y1="170.446" x2="341.31" y2="170.446"/>
		<rect x="343.388" y="167.825" fill="#FFFFFF" stroke="#939598" width="2.018" height="1.07"/>
		<path fill="#FFFFFF" stroke="#939598" d="M344.396,168.419"/>
	</g>
	<g>
		<g>
			<path fill="#FFFFFF" stroke="#939598" d="M383.877,189.87c-0.426,0-0.771-0.344-0.771-0.771v-13.445
				c0-0.426,0.346-0.771,0.771-0.771h22.807c0.426,0,0.77,0.346,0.77,0.771v13.445c0,0.428-0.344,0.771-0.77,0.771H383.877z"/>
			<path fill="#FFFFFF" stroke="#939598" d="M395.199,182.958"/>
		</g>
		<g>
			<circle fill="#FFFFFF" stroke="#939598" cx="395.199" cy="182.047" r="0.871"/>
			<path fill="#FFFFFF" stroke="#939598" d="M395.199,182.048"/>
		</g>
		<g>
			<g>
				<rect x="391.395" y="187.514" fill="#FFFFFF" stroke="#939598" width="7.609" height="1.82"/>
				<path fill="#FFFFFF" stroke="#939598" d="M395.199,188.425"/>
			</g>
			<g>
				<rect x="394.811" y="183.976" fill="#FFFFFF" stroke="#939598" width="0.777" height="3.586"/>
				<path fill="#FFFFFF" stroke="#939598" d="M395.199,186"/>
			</g>
			<g>
				<circle fill="#FFFFFF" stroke="#939598" cx="395.199" cy="188.406" r="0.847"/>
				<path fill="#FFFFFF" stroke="#939598" d="M395.199,188.406"/>
			</g>
		</g>
		<g>
			<path fill="#FFFFFF" stroke="#939598" d="M395.199,182.048"/>
			<path fill="none" stroke="#939598" d="M394.729,186.885h-9.588c-0.447,0-0.811-0.362-0.811-0.81v-9.221
				c0-0.445,0.363-0.809,0.811-0.809h20.279c0.447,0,0.811,0.363,0.811,0.809v9.221c0,0.447-0.363,0.81-0.811,0.81h-9.727"/>
		</g>
	</g>
	<g>
		<polyline fill="none" stroke="#939598" stroke-dasharray="1.5,1,1.5,1,1.5,1" points="427.103,171.31 427.103,189.179 
			409.577,189.179 409.577,171.711 		"/>
		<polyline fill="#FFFFFF" stroke="#939598" points="409.55,171.711 409.55,170.648 427.103,170.648 427.103,171.303 		"/>
	</g>
	<g>
		<g>
			<rect x="434.104" y="134.72" fill="#FFFFFF" stroke="#939598" width="19.75" height="23.25"/>
			<path fill="#FFFFFF" stroke="#939598" d="M443.979,146.345"/>
		</g>
		<g>
			<g>
				<circle fill="#FFFFFF" stroke="#939598" cx="438.479" cy="151.661" r="2.824"/>
				<path fill="#FFFFFF" stroke="#939598" d="M438.479,151.661"/>
			</g>
			<g>
				<circle fill="#FFFFFF" stroke="#939598" stroke-width="0.8" cx="438.48" cy="151.688" r="1.989"/>
				<path fill="#FFFFFF" stroke="#939598" d="M438.479,151.688"/>
			</g>
		</g>
		<g>
			<g>
				<circle fill="#FFFFFF" stroke="#939598" cx="446.729" cy="140.374" r="2.824"/>
				<path fill="#FFFFFF" stroke="#939598" d="M446.729,140.374"/>
			</g>
			<g>
				<circle fill="#FFFFFF" stroke="#939598" stroke-width="0.8" cx="446.73" cy="140.345" r="1.989"/>
				<path fill="#FFFFFF" stroke="#939598" d="M446.729,140.345"/>
			</g>
		</g>
		<g>
			<g>
				<circle fill="#FFFFFF" stroke="#939598" cx="446.702" cy="151.698" r="3.219"/>
				<path fill="#FFFFFF" stroke="#939598" d="M446.702,151.698"/>
			</g>
			<g>
				<circle fill="#FFFFFF" stroke="#939598" stroke-width="0.8" cx="446.702" cy="151.667" r="2.268"/>
				<path fill="#FFFFFF" stroke="#939598" d="M446.702,151.667"/>
			</g>
		</g>
		<g>
			<g>
				<circle fill="#FFFFFF" stroke="#939598" cx="438.263" cy="140.386" r="3.219"/>
				<path fill="#FFFFFF" stroke="#939598" d="M438.263,140.386"/>
			</g>
			<g>
				<circle fill="#FFFFFF" stroke="#939598" stroke-width="0.8" cx="438.263" cy="140.354" r="2.268"/>
				<path fill="#FFFFFF" stroke="#939598" d="M438.263,140.354"/>
			</g>
		</g>
		<line fill="#FFFFFF" stroke="#939598" x1="451.122" y1="158.001" x2="451.122" y2="134.72"/>
		<line fill="#FFFFFF" stroke="#939598" x1="452.214" y1="157.97" x2="452.214" y2="134.72"/>
	</g>
	<line fill="none" stroke="#939598" x1="380.839" y1="191.992" x2="380.839" y2="172.556"/>
	<line fill="none" stroke="#939598" stroke-dasharray="1.5,1.5,1.5,1.5,1.5,1.5" x1="357.132" y1="182" x2="340.632" y2="182"/>
	<polyline fill="none" stroke="#939598" stroke-dasharray="1.5,1.5,1.5,1.5,1.5,1.5" points="409.55,182 377.263,182 367.096,182 
		355.93,182 	"/>
	<polyline fill="none" stroke="#939598" stroke-dasharray="1.5,1.5,1.5,1.5,1.5,1.5" points="443.93,111.167 443.93,182 409.55,182 
			"/>
</g>
<g id="walls">
	<polyline fill="none" stroke="#939598" stroke-width="5" points="262.18,162.828 282.68,162.828 314.188,194.398 488.838,194.398 
		522.588,160.67 582.006,160.67 582.006,2.5 2.5,2.5 2.5,162.828 239.93,162.828 	"/>
	<line fill="none" stroke="#939598" stroke-width="3" x1="146.73" y1="63.951" x2="146.73" y2="4.5"/>
	<polyline fill="none" stroke="#939598" stroke-width="3" points="128.297,106.5 132.93,106.5 146.73,93 146.73,87.25 	"/>
	<line fill="none" stroke="#939598" stroke-width="3" x1="47.674" y1="106.5" x2="106.43" y2="106.5"/>
	<line fill="none" stroke="#939598" stroke-width="3" x1="4.68" y1="106.5" x2="25.537" y2="106.5"/>
	<line fill="none" stroke="#939598" stroke-width="3" x1="73.68" y1="161.75" x2="73.68" y2="105.25"/>
	<line fill="none" stroke="#939598" stroke-width="3" x1="208.072" y1="148.25" x2="208.072" y2="162"/>
	<polyline fill="none" stroke="#939598" stroke-width="3" points="180.15,94.471 208.072,94.471 208.072,107.141 	"/>
	<line fill="none" stroke="#939598" stroke-width="3" x1="144.93" y1="94.471" x2="157.566" y2="94.471"/>
	<line fill="none" stroke="#939598" stroke-width="3" x1="185.68" y1="94.5" x2="185.68" y2="161.75"/>
	<polyline fill="none" stroke="#939598" stroke-width="3" points="334.051,161.734 339.18,161.734 339.18,193 	"/>
	<line fill="none" stroke="#939598" stroke-width="3" x1="281.18" y1="161.734" x2="311.93" y2="161.734"/>
	<line fill="none" stroke="#939598" stroke-width="3" x1="306.43" y1="161.75" x2="306.43" y2="185.75"/>
	<line fill="none" stroke="#939598" stroke-width="3" x1="551.138" y1="109.75" x2="581.68" y2="109.75"/>
	<line fill="none" stroke="#939598" stroke-width="3" x1="496.943" y1="109.75" x2="529.692" y2="109.75"/>
	<path fill="none" stroke="#939598" stroke-width="3" d="M446.68,100.5c0,5.74,0,9.25,0,9.25h28"/>
	<path fill="none" stroke="#939598" stroke-width="3" d="M446.68,4c0,0.451,0,42.34,0,72.693"/>
	<line fill="none" stroke="#939598" stroke-width="3" x1="504.43" y1="177.5" x2="504.43" y2="109.5"/>
	<line fill="none" stroke="#939598" stroke-width="3" x1="455.93" y1="109.5" x2="455.93" y2="195"/>
	<line fill="none" stroke="#939598" stroke-width="3" x1="524.18" y1="159.65" x2="504.43" y2="159.65"/>
	<polyline fill="none" stroke="#939598" stroke-width="3" points="446.43,8.984 499.18,8.984 499.18,3.5 	"/>
	<polyline fill="none" stroke="#939598" stroke-width="3" points="580.93,8.949 573.43,8.949 573.43,2.75 	"/>
	<polyline fill="none" stroke="#939598" stroke-width="3" points="350.43,2.75 350.43,8.75 370.93,8.75 370.93,2.25 	"/>
	<polyline fill="none" stroke="#939598" stroke-width="3" points="222.43,3.25 222.43,8.5 275.93,8.5 275.93,3 	"/>
	<polyline fill="none" stroke="#939598" stroke-width="3" points="3.18,9.051 52.93,9.051 52.93,3.25 	"/>
	<polyline fill="none" stroke="#939598" stroke-width="3" points="128.252,3.5 128.252,8.701 146.43,8.701 	"/>
	<polyline fill="none" stroke="#939598" stroke-width="3" points="73.68,155.75 98.016,155.75 98.016,162.25 	"/>
</g>
<g id="windows">
	<g>
		<g>
			<rect x="55.745" y="0.712" fill="#FFFFFF" stroke="#939598" width="69.562" height="3.674"/>
			<line fill="none" stroke="#939598" x1="55.745" y1="2.567" x2="126.058" y2="2.567"/>
			<line fill="none" stroke="#939598" stroke-width="2" x1="78.419" y1="0.554" x2="78.419" y2="4.048"/>
		</g>
		<line fill="none" stroke="#939598" stroke-width="2" x1="101.808" y1="0.429" x2="101.808" y2="4.03"/>
	</g>
	<g>
		<g>
			<rect x="149.958" y="0.647" fill="#FFFFFF" stroke="#939598" width="69.562" height="3.674"/>
			<line fill="none" stroke="#939598" x1="149.958" y1="2.503" x2="220.271" y2="2.503"/>
			<line fill="none" stroke="#939598" stroke-width="2" x1="172.632" y1="0.489" x2="172.632" y2="3.983"/>
		</g>
		<line fill="none" stroke="#939598" stroke-width="2" x1="196.021" y1="0.364" x2="196.021" y2="3.966"/>
	</g>
	<g>
		<g>
			<rect x="278.788" y="0.655" fill="#FFFFFF" stroke="#939598" width="69.562" height="3.674"/>
			<line fill="none" stroke="#939598" x1="278.788" y1="2.511" x2="349.101" y2="2.511"/>
			<line fill="none" stroke="#939598" stroke-width="2" x1="301.462" y1="0.497" x2="301.462" y2="3.991"/>
		</g>
		<line fill="none" stroke="#939598" stroke-width="2" x1="324.851" y1="0.372" x2="324.851" y2="3.974"/>
	</g>
	<g>
		<g>
			<rect x="373.374" y="0.726" fill="#FFFFFF" stroke="#939598" width="69.562" height="3.674"/>
			<line fill="none" stroke="#939598" x1="373.374" y1="2.581" x2="443.687" y2="2.581"/>
			<line fill="none" stroke="#939598" stroke-width="2" x1="396.048" y1="0.567" x2="396.048" y2="4.062"/>
		</g>
		<line fill="none" stroke="#939598" stroke-width="2" x1="419.437" y1="0.442" x2="419.437" y2="4.044"/>
	</g>
	<g>
		<g>
			<rect x="501.196" y="0.642" fill="#FFFFFF" stroke="#939598" width="69.562" height="3.674"/>
			<line fill="none" stroke="#939598" x1="501.196" y1="2.497" x2="571.509" y2="2.497"/>
			<line fill="none" stroke="#939598" stroke-width="2" x1="523.87" y1="0.483" x2="523.87" y2="3.978"/>
		</g>
		<line fill="none" stroke="#939598" stroke-width="2" x1="547.259" y1="0.358" x2="547.259" y2="3.96"/>
	</g>
</g>
<g id="Type">
	<g>
		<path fill="#939598" d="M142.742,124.523c0,0.828-0.504,1.252-0.999,1.468c0.747,0.225,1.35,0.657,1.35,1.53
			c0,1.089-0.909,1.729-2.287,1.729h-2.8v-6.302h2.683C141.932,122.948,142.742,123.561,142.742,124.523z M142.021,124.623
			c0-0.631-0.495-1.036-1.395-1.036h-1.918v2.17h1.864C141.428,125.757,142.021,125.37,142.021,124.623z M142.373,127.477
			c0-0.693-0.576-1.09-1.675-1.09h-1.99v2.224h2.116C141.779,128.61,142.373,128.188,142.373,127.477z"/>
		<path fill="#939598" d="M144.657,125.487l-0.207-0.567c0.513-0.234,1.018-0.388,1.693-0.388c1.269,0,1.98,0.648,1.98,1.873v2.845
			h-0.667v-0.702c-0.324,0.423-0.864,0.801-1.683,0.801c-0.864,0-1.738-0.485-1.738-1.458c0-0.99,0.811-1.513,1.99-1.513
			c0.594,0,1.017,0.081,1.431,0.198v-0.162c0-0.837-0.513-1.27-1.386-1.27C145.521,125.145,145.089,125.289,144.657,125.487z
			 M144.738,127.863c0,0.595,0.541,0.937,1.17,0.937c0.855,0,1.558-0.522,1.558-1.261v-0.45c-0.342-0.099-0.801-0.197-1.369-0.197
			C145.225,126.892,144.738,127.27,144.738,127.863z"/>
		<path fill="#939598" d="M150.491,127.927c0,0.567,0.315,0.774,0.783,0.774c0.234,0,0.432-0.045,0.675-0.162v0.594
			c-0.243,0.126-0.504,0.198-0.837,0.198c-0.747,0-1.314-0.369-1.314-1.314v-2.809h-0.648v-0.612h0.648v-1.404h0.693v1.404h1.477
			v0.612h-1.477V127.927z"/>
		<path fill="#939598" d="M153.883,129.25h-0.693v-6.572h0.693v2.729c0.306-0.505,0.792-0.909,1.594-0.909
			c1.125,0,1.782,0.756,1.782,1.863v2.89h-0.693v-2.719c0-0.864-0.468-1.404-1.288-1.404c-0.801,0-1.396,0.585-1.396,1.458V129.25z"
			/>
	</g>
	<g>
		<path fill="#939598" d="M203.57,141.771c-1.415,0-2.458-1.113-2.458-2.528c0-1.4,1.037-2.542,2.479-2.542
			c0.889,0,1.422,0.314,1.912,0.777l-0.378,0.406c-0.413-0.393-0.875-0.673-1.541-0.673c-1.085,0-1.898,0.876-1.898,2.018
			s0.819,2.031,1.898,2.031c0.672,0,1.114-0.26,1.583-0.708l0.364,0.357C205.02,141.429,204.459,141.771,203.57,141.771z"/>
		<path fill="#939598" d="M206.453,141.688v-5.112h0.539v5.112H206.453z"/>
		<path fill="#939598" d="M209.897,141.771c-1.085,0-1.877-0.854-1.877-1.884s0.798-1.898,1.891-1.898
			c1.085,0,1.884,0.854,1.884,1.884C211.796,140.903,210.99,141.771,209.897,141.771z M209.897,138.466
			c-0.784,0-1.324,0.623-1.324,1.407c0,0.785,0.575,1.415,1.338,1.415c0.785,0,1.331-0.623,1.331-1.4
			C211.242,139.096,210.661,138.466,209.897,138.466z"/>
		<path fill="#939598" d="M213.964,141.758c-0.518,0-1.093-0.203-1.499-0.532l0.273-0.386c0.392,0.294,0.826,0.463,1.253,0.463
			c0.435,0,0.75-0.225,0.75-0.575v-0.014c0-0.364-0.427-0.504-0.903-0.638c-0.567-0.16-1.198-0.356-1.198-1.022v-0.014
			c0-0.623,0.519-1.036,1.233-1.036c0.441,0,0.931,0.153,1.303,0.398l-0.246,0.406c-0.336-0.217-0.721-0.35-1.071-0.35
			c-0.427,0-0.7,0.224-0.7,0.525v0.014c0,0.343,0.448,0.477,0.931,0.623c0.561,0.168,1.163,0.386,1.163,1.037v0.014
			C215.253,141.358,214.686,141.758,213.964,141.758z"/>
		<path fill="#939598" d="M217.85,141.303c0.497,0,0.847-0.203,1.142-0.512l0.336,0.301c-0.364,0.406-0.805,0.68-1.492,0.68
			c-0.995,0-1.807-0.764-1.807-1.891c0-1.051,0.735-1.892,1.737-1.892c1.071,0,1.688,0.854,1.688,1.919c0,0.05,0,0.105-0.007,0.168
			h-2.872C216.652,140.861,217.212,141.303,217.85,141.303z M218.907,139.678c-0.056-0.658-0.435-1.233-1.156-1.233
			c-0.63,0-1.106,0.525-1.177,1.233H218.907z"/>
		<path fill="#939598" d="M221.125,140.658c0,0.441,0.245,0.603,0.609,0.603c0.182,0,0.336-0.035,0.525-0.127v0.463
			c-0.189,0.098-0.393,0.154-0.651,0.154c-0.582,0-1.022-0.287-1.022-1.023v-2.185h-0.504v-0.477h0.504v-1.093h0.539v1.093h1.148
			v0.477h-1.148V140.658z"/>
	</g>
	<g>
		<path fill="#939598" d="M29.871,143.062c-1.415,0-2.458-1.113-2.458-2.528c0-1.4,1.037-2.542,2.479-2.542
			c0.889,0,1.422,0.314,1.912,0.777l-0.378,0.406c-0.413-0.393-0.875-0.673-1.541-0.673c-1.085,0-1.898,0.876-1.898,2.018
			s0.819,2.031,1.898,2.031c0.672,0,1.114-0.26,1.583-0.708l0.364,0.357C31.321,142.719,30.76,143.062,29.871,143.062z"/>
		<path fill="#939598" d="M32.754,142.978v-5.112h0.539v5.112H32.754z"/>
		<path fill="#939598" d="M36.198,143.062c-1.085,0-1.877-0.854-1.877-1.884s0.798-1.898,1.891-1.898
			c1.085,0,1.884,0.854,1.884,1.884C38.097,142.193,37.291,143.062,36.198,143.062z M36.198,139.756
			c-0.784,0-1.324,0.623-1.324,1.407c0,0.785,0.575,1.415,1.338,1.415c0.785,0,1.331-0.623,1.331-1.4
			C37.543,140.386,36.962,139.756,36.198,139.756z"/>
		<path fill="#939598" d="M40.265,143.048c-0.518,0-1.093-0.203-1.499-0.532l0.273-0.386c0.392,0.294,0.826,0.463,1.253,0.463
			c0.435,0,0.75-0.225,0.75-0.575v-0.014c0-0.364-0.427-0.504-0.903-0.638c-0.567-0.16-1.198-0.356-1.198-1.022v-0.014
			c0-0.623,0.519-1.036,1.233-1.036c0.441,0,0.931,0.153,1.303,0.398l-0.246,0.406c-0.336-0.217-0.721-0.35-1.071-0.35
			c-0.427,0-0.7,0.224-0.7,0.525v0.014c0,0.343,0.448,0.477,0.931,0.623c0.561,0.168,1.163,0.386,1.163,1.037v0.014
			C41.554,142.648,40.986,143.048,40.265,143.048z"/>
		<path fill="#939598" d="M44.15,142.593c0.497,0,0.847-0.203,1.142-0.512l0.336,0.301c-0.364,0.406-0.805,0.68-1.492,0.68
			c-0.995,0-1.807-0.764-1.807-1.891c0-1.051,0.735-1.892,1.737-1.892c1.071,0,1.688,0.854,1.688,1.919c0,0.05,0,0.105-0.007,0.168
			h-2.872C42.953,142.151,43.513,142.593,44.15,142.593z M45.208,140.968c-0.056-0.658-0.435-1.233-1.156-1.233
			c-0.63,0-1.106,0.525-1.177,1.233H45.208z"/>
		<path fill="#939598" d="M47.426,141.948c0,0.441,0.245,0.603,0.609,0.603c0.182,0,0.336-0.035,0.525-0.127v0.463
			c-0.189,0.098-0.393,0.154-0.651,0.154c-0.582,0-1.022-0.288-1.022-1.023v-2.185h-0.504v-0.477h0.504v-1.093h0.539v1.093h1.148
			v0.477h-1.148V141.948z"/>
	</g>
	<g>
		<path fill="#939598" d="M476.211,148.786c-1.415,0-2.458-1.113-2.458-2.528c0-1.4,1.036-2.542,2.479-2.542
			c0.89,0,1.422,0.314,1.912,0.777l-0.378,0.406c-0.413-0.393-0.875-0.673-1.541-0.673c-1.085,0-1.897,0.876-1.897,2.018
			s0.819,2.031,1.897,2.031c0.673,0,1.114-0.26,1.583-0.708l0.364,0.357C477.66,148.443,477.101,148.786,476.211,148.786z"/>
		<path fill="#939598" d="M479.094,148.702v-5.112h0.539v5.112H479.094z"/>
		<path fill="#939598" d="M482.538,148.786c-1.085,0-1.877-0.854-1.877-1.884s0.799-1.898,1.892-1.898
			c1.085,0,1.884,0.854,1.884,1.884C484.437,147.918,483.631,148.786,482.538,148.786z M482.538,145.48
			c-0.784,0-1.323,0.623-1.323,1.407c0,0.785,0.574,1.415,1.338,1.415c0.784,0,1.33-0.623,1.33-1.4
			C483.883,146.11,483.302,145.48,482.538,145.48z"/>
		<path fill="#939598" d="M486.605,148.772c-0.519,0-1.093-0.203-1.499-0.532l0.272-0.386c0.393,0.294,0.827,0.463,1.254,0.463
			c0.435,0,0.75-0.225,0.75-0.575v-0.014c0-0.364-0.428-0.504-0.904-0.638c-0.566-0.16-1.197-0.356-1.197-1.022v-0.014
			c0-0.623,0.519-1.036,1.232-1.036c0.441,0,0.932,0.153,1.303,0.398l-0.245,0.406c-0.336-0.217-0.721-0.35-1.071-0.35
			c-0.428,0-0.7,0.224-0.7,0.525v0.014c0,0.343,0.448,0.477,0.932,0.623c0.56,0.168,1.162,0.386,1.162,1.037v0.014
			C487.894,148.373,487.326,148.772,486.605,148.772z"/>
		<path fill="#939598" d="M490.49,148.317c0.497,0,0.848-0.203,1.142-0.512l0.336,0.301c-0.364,0.406-0.806,0.68-1.491,0.68
			c-0.995,0-1.808-0.764-1.808-1.891c0-1.051,0.735-1.892,1.737-1.892c1.071,0,1.688,0.854,1.688,1.919c0,0.05,0,0.105-0.007,0.168
			h-2.871C489.292,147.876,489.853,148.317,490.49,148.317z M491.548,146.692c-0.057-0.658-0.435-1.233-1.156-1.233
			c-0.63,0-1.106,0.525-1.176,1.233H491.548z"/>
		<path fill="#939598" d="M493.766,147.673c0,0.441,0.245,0.603,0.609,0.603c0.182,0,0.336-0.035,0.525-0.127v0.463
			c-0.189,0.098-0.393,0.154-0.651,0.154c-0.581,0-1.022-0.288-1.022-1.023v-2.185h-0.505v-0.477h0.505v-1.093h0.539v1.093h1.148
			v0.477h-1.148V147.673z"/>
	</g>
	<g>
		<path fill="#939598" d="M318.706,174.979h0.455l1.345,4.098l1.4-4.083h0.582l-1.751,4.938h-0.47l-1.345-3.979l-1.352,3.979h-0.462
			l-1.751-4.938h0.603l1.4,4.083L318.706,174.979z"/>
		<path fill="#939598" d="M325.691,174.307l-3.25,6.485h-0.497l3.25-6.485H325.691z"/>
		<path fill="#939598" d="M328.043,179.896h-1.702v-4.902h1.702c1.54,0,2.604,1.058,2.604,2.444S329.583,179.896,328.043,179.896z
			 M328.043,175.504h-1.149v3.88h1.149c1.239,0,2.03-0.84,2.03-1.933S329.282,175.504,328.043,175.504z"/>
	</g>
	<g>
		<path fill="#939598" d="M536.479,115.275c0,0.645-0.392,0.974-0.777,1.142c0.582,0.175,1.051,0.511,1.051,1.19
			c0,0.848-0.707,1.345-1.779,1.345h-2.178v-4.902h2.087C535.85,114.05,536.479,114.525,536.479,115.275z M535.92,115.353
			c0-0.49-0.386-0.806-1.086-0.806h-1.492v1.688h1.45C535.457,116.234,535.92,115.934,535.92,115.353z M536.192,117.572
			c0-0.539-0.448-0.848-1.303-0.848h-1.548v1.73h1.646C535.73,118.455,536.192,118.126,536.192,117.572z"/>
		<path fill="#939598" d="M537.969,116.024l-0.161-0.441c0.399-0.182,0.792-0.301,1.316-0.301c0.988,0,1.541,0.504,1.541,1.457
			v2.213h-0.518v-0.546c-0.253,0.329-0.673,0.623-1.311,0.623c-0.672,0-1.352-0.378-1.352-1.135c0-0.771,0.631-1.177,1.548-1.177
			c0.463,0,0.792,0.063,1.114,0.154v-0.126c0-0.651-0.399-0.987-1.079-0.987C538.642,115.759,538.305,115.87,537.969,116.024z
			 M538.032,117.874c0,0.462,0.42,0.728,0.91,0.728c0.665,0,1.212-0.406,1.212-0.98v-0.35c-0.267-0.077-0.624-0.154-1.064-0.154
			C538.41,117.117,538.032,117.411,538.032,117.874z"/>
		<path fill="#939598" d="M542.506,117.923c0,0.441,0.245,0.603,0.609,0.603c0.182,0,0.336-0.035,0.525-0.127v0.463
			c-0.189,0.098-0.393,0.154-0.651,0.154c-0.581,0-1.022-0.288-1.022-1.023v-2.185h-0.505v-0.477h0.505v-1.093h0.539v1.093h1.148
			v0.477h-1.148V117.923z"/>
		<path fill="#939598" d="M545.145,118.952h-0.539v-5.112h0.539v2.122c0.238-0.393,0.616-0.708,1.24-0.708
			c0.875,0,1.387,0.589,1.387,1.45v2.248h-0.54v-2.115c0-0.672-0.363-1.093-1.001-1.093c-0.623,0-1.086,0.455-1.086,1.135V118.952z"
			/>
	</g>
	<g>
		<path fill="#939598" d="M351.578,180.462l-1.422-1.905h-1.401v1.905h-0.553v-4.902h2.107c1.079,0,1.772,0.581,1.772,1.464
			c0,0.819-0.561,1.295-1.331,1.436l1.506,2.003H351.578z M350.268,176.07h-1.513v1.989h1.506c0.735,0,1.261-0.378,1.261-1.016
			C351.521,176.435,351.06,176.07,350.268,176.07z"/>
		<path fill="#939598" d="M354.698,180.077c0.498,0,0.848-0.203,1.142-0.512l0.337,0.301c-0.364,0.406-0.806,0.68-1.492,0.68
			c-0.994,0-1.807-0.764-1.807-1.891c0-1.051,0.735-1.892,1.736-1.892c1.072,0,1.688,0.854,1.688,1.919c0,0.05,0,0.105-0.008,0.168
			h-2.871C353.501,179.636,354.062,180.077,354.698,180.077z M355.756,178.452c-0.056-0.658-0.434-1.233-1.155-1.233
			c-0.631,0-1.106,0.525-1.177,1.233H355.756z"/>
		<path fill="#939598" d="M359.13,176.854v0.463h-1.142v3.145h-0.539v-3.145h-0.498v-0.47h0.498v-0.314
			c0-0.792,0.398-1.212,1.092-1.212c0.253,0,0.421,0.028,0.596,0.091v0.47c-0.196-0.057-0.343-0.092-0.525-0.092
			c-0.42,0-0.63,0.253-0.63,0.771v0.294H359.13z"/>
	</g>
	<g>
		<path fill="#939598" d="M414.235,180.462h-1.702v-4.902h1.702c1.541,0,2.605,1.058,2.605,2.444S415.776,180.462,414.235,180.462z
			 M414.235,176.07h-1.148v3.88h1.148c1.24,0,2.031-0.84,2.031-1.933S415.476,176.07,414.235,176.07z"/>
		<path fill="#939598" d="M420.726,175.545h0.456l1.345,4.098l1.4-4.083h0.581l-1.751,4.938h-0.469l-1.345-3.979l-1.352,3.979
			h-0.463l-1.751-4.938h0.603l1.4,4.083L420.726,175.545z"/>
	</g>
	<g>
		<path fill="#939598" d="M384.02,156.551h-0.892l-2.421-3.052l-1.342,1.359v1.692h-0.711v-6.302h0.711v3.763l3.619-3.763h0.918
			l-2.7,2.755L384.02,156.551z"/>
		<path fill="#939598" d="M385.025,150.879v-0.765h0.793v0.765H385.025z M385.071,156.551v-4.654h0.692v4.654H385.071z"/>
		<path fill="#939598" d="M388.311,155.228c0,0.567,0.315,0.774,0.784,0.774c0.233,0,0.432-0.045,0.675-0.162v0.594
			c-0.243,0.126-0.504,0.198-0.837,0.198c-0.748,0-1.314-0.369-1.314-1.314v-2.809h-0.648v-0.612h0.648v-1.404h0.692v1.404h1.477
			v0.612h-1.477V155.228z"/>
		<path fill="#939598" d="M392.975,156.659c-1.359,0-2.386-1.107-2.386-2.422c0-1.323,1.026-2.439,2.386-2.439
			c0.882,0,1.431,0.368,1.863,0.828l-0.459,0.485c-0.369-0.387-0.783-0.702-1.414-0.702c-0.945,0-1.665,0.802-1.665,1.81
			c0,1.018,0.738,1.819,1.711,1.819c0.594,0,1.053-0.298,1.422-0.693l0.441,0.414C394.405,156.28,393.848,156.659,392.975,156.659z"
			/>
		<path fill="#939598" d="M396.709,156.551h-0.693v-6.572h0.693v2.729c0.306-0.505,0.792-0.909,1.594-0.909
			c1.125,0,1.782,0.756,1.782,1.863v2.89h-0.693v-2.719c0-0.864-0.468-1.404-1.287-1.404c-0.802,0-1.396,0.585-1.396,1.458V156.551z
			"/>
		<path fill="#939598" d="M403.612,156.056c0.639,0,1.089-0.261,1.468-0.657l0.432,0.387c-0.468,0.522-1.035,0.874-1.918,0.874
			c-1.278,0-2.322-0.981-2.322-2.431c0-1.351,0.945-2.431,2.232-2.431c1.378,0,2.17,1.098,2.17,2.466c0,0.063,0,0.136-0.009,0.217
			h-3.691C402.072,155.488,402.793,156.056,403.612,156.056z M404.972,153.967c-0.072-0.846-0.559-1.584-1.485-1.584
			c-0.811,0-1.423,0.675-1.513,1.584H404.972z"/>
		<path fill="#939598" d="M407.581,156.551h-0.693v-4.654h0.693v0.811c0.306-0.505,0.792-0.909,1.593-0.909
			c1.126,0,1.783,0.756,1.783,1.863v2.89h-0.693v-2.719c0-0.864-0.468-1.404-1.287-1.404c-0.802,0-1.396,0.585-1.396,1.458V156.551z
			"/>
	</g>
	<g>
		<path fill="#939598" d="M498.931,58.869c0,0.829-0.505,1.251-1,1.468c0.747,0.225,1.351,0.657,1.351,1.53
			c0,1.089-0.909,1.729-2.286,1.729h-2.8v-6.302h2.683C498.12,57.293,498.931,57.905,498.931,58.869z M498.21,58.968
			c0-0.63-0.495-1.035-1.396-1.035h-1.917v2.169h1.863C497.616,60.102,498.21,59.715,498.21,58.968z M498.562,61.822
			c0-0.693-0.576-1.089-1.675-1.089h-1.989v2.224h2.115C497.967,62.956,498.562,62.533,498.562,61.822z"/>
		<path fill="#939598" d="M502.628,63.1c0.64,0,1.09-0.261,1.468-0.657l0.433,0.387c-0.469,0.522-1.036,0.873-1.918,0.873
			c-1.278,0-2.322-0.981-2.322-2.431c0-1.351,0.944-2.431,2.232-2.431c1.377,0,2.169,1.098,2.169,2.467c0,0.063,0,0.135-0.009,0.216
			h-3.69C501.089,62.533,501.809,63.1,502.628,63.1z M503.987,61.011c-0.071-0.846-0.558-1.584-1.485-1.584
			c-0.81,0-1.422,0.675-1.512,1.584H503.987z"/>
		<path fill="#939598" d="M509.64,63.595v-0.936c-0.378,0.558-0.927,1.035-1.782,1.035c-1.116,0-2.224-0.882-2.224-2.422
			c0-1.53,1.107-2.431,2.224-2.431c0.864,0,1.422,0.468,1.782,0.99v-2.809h0.693v6.572H509.64z M507.983,59.463
			c-0.9,0-1.639,0.667-1.639,1.801c0,1.107,0.756,1.81,1.639,1.81c0.864,0,1.684-0.72,1.684-1.81
			C509.667,60.183,508.848,59.463,507.983,59.463z"/>
		<path fill="#939598" d="M512.572,63.595h-0.692v-4.654h0.692v1.215c0.343-0.774,1.018-1.333,1.9-1.296v0.747h-0.055
			c-1.017,0-1.846,0.729-1.846,2.134V63.595z"/>
		<path fill="#939598" d="M517.451,63.703c-1.396,0-2.412-1.098-2.412-2.421c0-1.324,1.026-2.44,2.431-2.44
			c1.396,0,2.422,1.098,2.422,2.422C519.892,62.587,518.855,63.703,517.451,63.703z M517.451,59.454
			c-1.008,0-1.701,0.801-1.701,1.81s0.738,1.818,1.72,1.818c1.008,0,1.71-0.801,1.71-1.8
			C519.18,60.264,518.433,59.454,517.451,59.454z"/>
		<path fill="#939598" d="M523.266,63.703c-1.396,0-2.413-1.098-2.413-2.421c0-1.324,1.026-2.44,2.431-2.44
			c1.396,0,2.422,1.098,2.422,2.422C525.705,62.587,524.67,63.703,523.266,63.703z M523.266,59.454c-1.009,0-1.702,0.801-1.702,1.81
			s0.738,1.818,1.72,1.818c1.009,0,1.711-0.801,1.711-1.8C524.994,60.264,524.247,59.454,523.266,59.454z"/>
		<path fill="#939598" d="M532.284,58.842c1.071,0,1.729,0.72,1.729,1.873v2.881h-0.693v-2.719c0-0.9-0.45-1.404-1.206-1.404
			c-0.702,0-1.287,0.522-1.287,1.44v2.683h-0.685v-2.737c0-0.873-0.459-1.386-1.197-1.386s-1.297,0.612-1.297,1.467v2.656h-0.692
			v-4.654h0.692v0.783c0.307-0.459,0.721-0.882,1.504-0.882c0.756,0,1.242,0.405,1.494,0.927
			C530.979,59.256,531.474,58.842,532.284,58.842z"/>
		<path fill="#939598" d="M500.473,68.249h0.522v6.347h-0.702v-5.609l-1.188,0.369l-0.171-0.576L500.473,68.249z"/>
		<path fill="#939598" d="M503.695,68.249h0.521v6.347h-0.702v-5.609l-1.188,0.369l-0.171-0.576L503.695,68.249z"/>
		<path fill="#939598" d="M505.98,68.293h0.847v0.045l-0.729,2.404h-0.388L505.98,68.293z"/>
		<path fill="#939598" d="M514.847,74.595h-0.802l-1.44-1.899l-1.449,1.899h-0.774l1.828-2.368l-1.756-2.287h0.792l1.378,1.8
			l1.377-1.8h0.774l-1.765,2.269L514.847,74.595z"/>
		<path fill="#939598" d="M519.688,68.249h0.522v6.347h-0.703v-5.609l-1.188,0.369l-0.172-0.576L519.688,68.249z"/>
		<path fill="#939598" d="M525.691,68.249v4.258h0.98v0.594h-0.98v1.495h-0.685v-1.495h-3.322l-0.18-0.513l3.565-4.339H525.691z
			 M525.007,69.257l-2.646,3.25h2.646V69.257z"/>
		<path fill="#939598" d="M528.012,68.293h0.847v0.045l-0.729,2.404h-0.387L528.012,68.293z"/>
	</g>
	<g>
		<path fill="#939598" d="M257.444,57.293h0.711v5.645h3.547v0.657h-4.258V57.293z"/>
		<path fill="#939598" d="M262.916,57.923v-0.765h0.792v0.765H262.916z M262.961,63.595v-4.654h0.693v4.654H262.961z"/>
		<path fill="#939598" d="M268.713,58.941h0.747l-2.026,4.69h-0.612l-2.017-4.69h0.765l1.566,3.862L268.713,58.941z"/>
		<path fill="#939598" d="M270.565,57.923v-0.765h0.792v0.765H270.565z M270.611,63.595v-4.654h0.693v4.654H270.611z"/>
		<path fill="#939598" d="M273.607,63.595h-0.693v-4.654h0.693v0.81c0.306-0.504,0.792-0.909,1.594-0.909
			c1.125,0,1.783,0.756,1.783,1.864v2.89h-0.693v-2.719c0-0.864-0.468-1.404-1.288-1.404c-0.801,0-1.396,0.585-1.396,1.458V63.595z"
			/>
		<path fill="#939598" d="M280.52,65.054c-0.774,0-1.495-0.216-2.116-0.648l0.315-0.54c0.531,0.387,1.125,0.594,1.792,0.594
			c1.026,0,1.692-0.567,1.692-1.657v-0.549c-0.405,0.54-0.972,0.981-1.828,0.981c-1.116,0-2.188-0.829-2.188-2.188
			c0-1.368,1.08-2.206,2.188-2.206c0.873,0,1.44,0.432,1.818,0.937v-0.837h0.693v3.844C282.888,64.289,281.952,65.054,280.52,65.054
			z M280.511,59.454c-0.882,0-1.612,0.603-1.612,1.575c0,0.955,0.748,1.594,1.612,1.594c0.882,0,1.71-0.63,1.71-1.584
			C282.222,60.075,281.393,59.454,280.511,59.454z"/>
		<path fill="#939598" d="M288.288,56.411l-4.177,8.336h-0.639l4.177-8.336H288.288z"/>
		<path fill="#939598" d="M291.311,63.595h-2.188v-6.302h2.188c1.981,0,3.349,1.359,3.349,3.142
			C294.66,62.218,293.292,63.595,291.311,63.595z M291.311,57.951h-1.477v4.987h1.477c1.593,0,2.611-1.08,2.611-2.485
			C293.922,59.049,292.904,57.951,291.311,57.951z"/>
		<path fill="#939598" d="M296.062,57.923v-0.765h0.792v0.765H296.062z M296.107,63.595v-4.654h0.693v4.654H296.107z"/>
		<path fill="#939598" d="M299.104,63.595h-0.693v-4.654h0.693v0.81c0.306-0.504,0.792-0.909,1.594-0.909
			c1.125,0,1.782,0.756,1.782,1.864v2.89h-0.693v-2.719c0-0.864-0.468-1.404-1.287-1.404c-0.802,0-1.396,0.585-1.396,1.458V63.595z"
			/>
		<path fill="#939598" d="M303.973,57.923v-0.765h0.793v0.765H303.973z M304.019,63.595v-4.654h0.692v4.654H304.019z"/>
		<path fill="#939598" d="M307.016,63.595h-0.693v-4.654h0.693v0.81c0.306-0.504,0.792-0.909,1.593-0.909
			c1.126,0,1.783,0.756,1.783,1.864v2.89h-0.693v-2.719c0-0.864-0.469-1.404-1.288-1.404c-0.801,0-1.395,0.585-1.395,1.458V63.595z"
			/>
		<path fill="#939598" d="M313.928,65.054c-0.774,0-1.495-0.216-2.116-0.648l0.315-0.54c0.531,0.387,1.125,0.594,1.792,0.594
			c1.026,0,1.692-0.567,1.692-1.657v-0.549c-0.405,0.54-0.973,0.981-1.828,0.981c-1.116,0-2.188-0.829-2.188-2.188
			c0-1.368,1.08-2.206,2.188-2.206c0.874,0,1.44,0.432,1.818,0.937v-0.837h0.693v3.844
			C316.295,64.289,315.359,65.054,313.928,65.054z M313.919,59.454c-0.883,0-1.612,0.603-1.612,1.575
			c0,0.955,0.748,1.594,1.612,1.594c0.882,0,1.71-0.63,1.71-1.584C315.629,60.075,314.801,59.454,313.919,59.454z"/>
		<path fill="#939598" d="M324.998,63.595l-1.827-2.449h-1.801v2.449h-0.711v-6.302h2.709c1.387,0,2.278,0.747,2.278,1.881
			c0,1.053-0.721,1.666-1.711,1.846l1.936,2.575H324.998z M323.314,57.951h-1.944v2.557h1.936c0.945,0,1.62-0.486,1.62-1.305
			C324.926,58.418,324.332,57.951,323.314,57.951z"/>
		<path fill="#939598" d="M329.083,63.703c-1.396,0-2.412-1.098-2.412-2.421c0-1.324,1.025-2.44,2.431-2.44
			c1.396,0,2.421,1.098,2.421,2.422C331.522,62.587,330.487,63.703,329.083,63.703z M329.083,59.454
			c-1.008,0-1.701,0.801-1.701,1.81s0.738,1.818,1.72,1.818c1.008,0,1.71-0.801,1.71-1.8
			C330.812,60.264,330.064,59.454,329.083,59.454z"/>
		<path fill="#939598" d="M334.897,63.703c-1.396,0-2.413-1.098-2.413-2.421c0-1.324,1.026-2.44,2.431-2.44
			c1.396,0,2.422,1.098,2.422,2.422C337.337,62.587,336.302,63.703,334.897,63.703z M334.897,59.454
			c-1.009,0-1.702,0.801-1.702,1.81s0.738,1.818,1.72,1.818c1.009,0,1.711-0.801,1.711-1.8
			C336.626,60.264,335.879,59.454,334.897,59.454z"/>
		<path fill="#939598" d="M343.916,58.842c1.071,0,1.729,0.72,1.729,1.873v2.881h-0.693v-2.719c0-0.9-0.45-1.404-1.206-1.404
			c-0.702,0-1.287,0.522-1.287,1.44v2.683h-0.685v-2.737c0-0.873-0.459-1.386-1.197-1.386s-1.297,0.612-1.297,1.467v2.656h-0.692
			v-4.654h0.692v0.783c0.307-0.459,0.721-0.882,1.504-0.882c0.756,0,1.242,0.405,1.494,0.927
			C342.61,59.256,343.105,58.842,343.916,58.842z"/>
		<path fill="#939598" d="M273.819,69.923l-0.522-0.378c0.567-0.847,1.162-1.342,2.269-1.342c1.143,0,1.953,0.756,1.953,1.792
			c0,0.927-0.486,1.495-1.593,2.458l-1.684,1.495h3.34v0.648h-4.402v-0.549l2.287-2.017c0.963-0.864,1.314-1.35,1.314-1.98
			c0-0.738-0.585-1.207-1.27-1.207C274.792,68.842,274.323,69.221,273.819,69.923z"/>
		<path fill="#939598" d="M281.353,74.703c-1.63,0-2.656-1.477-2.656-3.25s1.044-3.268,2.674-3.268c1.621,0,2.647,1.476,2.647,3.25
			C284.018,73.209,282.973,74.703,281.353,74.703z M281.353,68.833c-1.18,0-1.918,1.207-1.918,2.602c0,1.396,0.756,2.62,1.936,2.62
			c1.18,0,1.909-1.215,1.909-2.602C283.279,70.067,282.532,68.833,281.353,68.833z"/>
		<path fill="#939598" d="M285.429,68.293h0.846v0.045l-0.729,2.404h-0.387L285.429,68.293z"/>
		<path fill="#939598" d="M287.391,68.293h4.276v0.531l-2.863,5.771h-0.792l2.845-5.654h-3.466V68.293z"/>
		<path fill="#939598" d="M292.998,68.293h0.837v0.045l-0.729,2.404h-0.379L292.998,68.293z M294.763,68.293h0.828v0.045
			l-0.729,2.404h-0.378L294.763,68.293z"/>
		<path fill="#939598" d="M303.619,74.595h-0.802l-1.44-1.899l-1.449,1.899h-0.774l1.828-2.368l-1.756-2.287h0.792l1.378,1.8
			l1.377-1.8h0.774l-1.765,2.269L303.619,74.595z"/>
		<path fill="#939598" d="M307.451,68.933v-0.639h4.024v0.522l-1.98,2.197c1.107,0.09,2.08,0.621,2.08,1.783
			c0,1.134-0.937,1.908-2.107,1.908c-1.053,0-1.836-0.459-2.35-1.125l0.514-0.459c0.486,0.594,1.071,0.937,1.846,0.937
			c0.765,0,1.377-0.486,1.377-1.233c0-0.792-0.72-1.225-1.765-1.225h-0.405l-0.144-0.423l1.989-2.242H307.451z"/>
		<path fill="#939598" d="M313.257,69.923l-0.522-0.378c0.567-0.847,1.161-1.342,2.269-1.342c1.144,0,1.954,0.756,1.954,1.792
			c0,0.927-0.486,1.495-1.594,2.458l-1.684,1.495h3.34v0.648h-4.402v-0.549l2.287-2.017c0.963-0.864,1.314-1.35,1.314-1.98
			c0-0.738-0.586-1.207-1.27-1.207C314.229,68.842,313.761,69.221,313.257,69.923z"/>
		<path fill="#939598" d="M318.432,68.293h0.846v0.045l-0.729,2.404h-0.388L318.432,68.293z"/>
		<path fill="#939598" d="M322.995,74.703c-1.63,0-2.656-1.477-2.656-3.25s1.045-3.268,2.674-3.268c1.621,0,2.647,1.476,2.647,3.25
			C325.66,73.209,324.615,74.703,322.995,74.703z M322.995,68.833c-1.18,0-1.918,1.207-1.918,2.602c0,1.396,0.757,2.62,1.936,2.62
			c1.18,0,1.909-1.215,1.909-2.602C324.922,70.067,324.175,68.833,322.995,68.833z"/>
		<path fill="#939598" d="M327.071,68.293h0.837v0.045l-0.729,2.404h-0.378L327.071,68.293z M328.836,68.293h0.828v0.045
			l-0.729,2.404h-0.378L328.836,68.293z"/>
	</g>
	<g>
		<path fill="#939598" d="M62.748,58.869c0,0.829-0.504,1.251-0.999,1.468c0.747,0.225,1.35,0.657,1.35,1.53
			c0,1.089-0.909,1.729-2.287,1.729h-2.8v-6.302h2.683C61.938,57.293,62.748,57.905,62.748,58.869z M62.028,58.968
			c0-0.63-0.495-1.035-1.396-1.035h-1.917v2.169h1.864C61.434,60.102,62.028,59.715,62.028,58.968z M62.379,61.822
			c0-0.693-0.576-1.089-1.674-1.089h-1.99v2.224h2.116C61.785,62.956,62.379,62.533,62.379,61.822z"/>
		<path fill="#939598" d="M66.446,63.1c0.639,0,1.089-0.261,1.467-0.657l0.432,0.387c-0.468,0.522-1.035,0.873-1.917,0.873
			c-1.278,0-2.323-0.981-2.323-2.431c0-1.351,0.945-2.431,2.233-2.431c1.377,0,2.169,1.098,2.169,2.467c0,0.063,0,0.135-0.009,0.216
			h-3.691C64.907,62.533,65.627,63.1,66.446,63.1z M67.806,61.011c-0.072-0.846-0.558-1.584-1.485-1.584
			c-0.811,0-1.422,0.675-1.513,1.584H67.806z"/>
		<path fill="#939598" d="M73.458,63.595v-0.936c-0.378,0.558-0.927,1.035-1.782,1.035c-1.117,0-2.224-0.882-2.224-2.422
			c0-1.53,1.107-2.431,2.224-2.431c0.864,0,1.422,0.468,1.782,0.99v-2.809h0.693v6.572H73.458z M71.801,59.463
			c-0.9,0-1.639,0.667-1.639,1.801c0,1.107,0.756,1.81,1.639,1.81c0.864,0,1.684-0.72,1.684-1.81
			C73.485,60.183,72.666,59.463,71.801,59.463z"/>
		<path fill="#939598" d="M76.391,63.595h-0.693v-4.654h0.693v1.215c0.342-0.774,1.017-1.333,1.899-1.296v0.747h-0.054
			c-1.018,0-1.846,0.729-1.846,2.134V63.595z"/>
		<path fill="#939598" d="M81.269,63.703c-1.395,0-2.413-1.098-2.413-2.421c0-1.324,1.026-2.44,2.431-2.44
			c1.396,0,2.422,1.098,2.422,2.422C83.709,62.587,82.674,63.703,81.269,63.703z M81.269,59.454c-1.008,0-1.701,0.801-1.701,1.81
			s0.738,1.818,1.719,1.818c1.008,0,1.71-0.801,1.71-1.8C82.998,60.264,82.25,59.454,81.269,59.454z"/>
		<path fill="#939598" d="M87.083,63.703c-1.395,0-2.413-1.098-2.413-2.421c0-1.324,1.026-2.44,2.431-2.44
			c1.396,0,2.422,1.098,2.422,2.422C89.523,62.587,88.488,63.703,87.083,63.703z M87.083,59.454c-1.008,0-1.701,0.801-1.701,1.81
			s0.738,1.818,1.719,1.818c1.008,0,1.71-0.801,1.71-1.8C88.812,60.264,88.064,59.454,87.083,59.454z"/>
		<path fill="#939598" d="M96.102,58.842c1.071,0,1.729,0.72,1.729,1.873v2.881h-0.693v-2.719c0-0.9-0.45-1.404-1.207-1.404
			c-0.702,0-1.288,0.522-1.288,1.44v2.683h-0.684v-2.737c0-0.873-0.459-1.386-1.197-1.386s-1.296,0.612-1.296,1.467v2.656h-0.693
			v-4.654h0.693v0.783c0.306-0.459,0.72-0.882,1.503-0.882c0.756,0,1.242,0.405,1.495,0.927
			C94.797,59.256,95.292,58.842,96.102,58.842z"/>
		<path fill="#939598" d="M64.556,68.249h0.522v6.347h-0.703v-5.609l-1.188,0.369l-0.171-0.576L64.556,68.249z"/>
		<path fill="#939598" d="M67.778,68.249H68.3v6.347h-0.702v-5.609l-1.188,0.369l-0.171-0.576L67.778,68.249z"/>
		<path fill="#939598" d="M70.064,68.293h0.846v0.045l-0.729,2.404h-0.387L70.064,68.293z"/>
		<path fill="#939598" d="M78.93,74.595h-0.801l-1.44-1.899l-1.449,1.899h-0.774l1.828-2.368l-1.755-2.287h0.792l1.377,1.8
			l1.377-1.8h0.774l-1.765,2.269L78.93,74.595z"/>
		<path fill="#939598" d="M83.771,68.249h0.522v6.347h-0.702v-5.609l-1.188,0.369l-0.171-0.576L83.771,68.249z"/>
		<path fill="#939598" d="M86.272,68.293H89.9v0.657h-3.007l-0.135,2.017c0.369-0.162,0.72-0.279,1.243-0.279
			c1.224,0,2.179,0.729,2.179,1.936c0,1.243-0.937,2.08-2.251,2.08c-0.9,0-1.684-0.432-2.25-0.999l0.468-0.513
			c0.549,0.531,1.152,0.864,1.792,0.864c0.9,0,1.521-0.594,1.521-1.405c0-0.792-0.639-1.332-1.567-1.332
			c-0.531,0-0.954,0.162-1.323,0.36l-0.477-0.315L86.272,68.293z"/>
		<path fill="#939598" d="M91.564,68.293h0.846v0.045l-0.729,2.404h-0.387L91.564,68.293z"/>
	</g>
	<g>
		<path fill="#939598" d="M246.97,159.688h-2.99v1.674h2.675v0.505h-2.675v1.716h3.025v0.504h-3.579v-4.902h3.544V159.688z"/>
		<path fill="#939598" d="M248.424,164.087h-0.54v-3.621h0.54v0.631c0.238-0.393,0.616-0.708,1.24-0.708
			c0.875,0,1.387,0.589,1.387,1.45v2.248h-0.54v-2.115c0-0.672-0.364-1.093-1.001-1.093c-0.624,0-1.085,0.455-1.085,1.135V164.087z"
			/>
		<path fill="#939598" d="M252.646,163.058c0,0.441,0.245,0.603,0.609,0.603c0.182,0,0.336-0.035,0.525-0.127v0.463
			c-0.189,0.098-0.392,0.154-0.651,0.154c-0.581,0-1.022-0.288-1.022-1.023v-2.185h-0.504v-0.477h0.504v-1.093h0.54v1.093h1.148
			v0.477h-1.148V163.058z"/>
		<path fill="#939598" d="M255.144,164.087h-0.539v-3.621h0.539v0.945c0.266-0.602,0.792-1.036,1.478-1.008v0.581h-0.042
			c-0.792,0-1.436,0.567-1.436,1.66V164.087z"/>
		<path fill="#939598" d="M259.205,164.206c-0.308,0.749-0.658,1.022-1.205,1.022c-0.301,0-0.525-0.063-0.771-0.182l0.182-0.428
			c0.175,0.091,0.336,0.133,0.567,0.133c0.322,0,0.525-0.168,0.743-0.679l-1.646-3.607h0.595l1.317,3.019l1.163-3.019h0.574
			L259.205,164.206z"/>
	</g>
	<g>
		<path fill="#939598" d="M366.149,124.258v6.302h-0.711v-6.302H366.149z"/>
		<path fill="#939598" d="M369.417,130.649c-0.666,0-1.404-0.261-1.927-0.684l0.352-0.495c0.504,0.378,1.062,0.594,1.611,0.594
			c0.558,0,0.963-0.288,0.963-0.738v-0.018c0-0.469-0.549-0.648-1.161-0.819c-0.729-0.207-1.539-0.459-1.539-1.314v-0.019
			c0-0.801,0.666-1.332,1.584-1.332c0.567,0,1.197,0.198,1.675,0.513l-0.315,0.522c-0.432-0.279-0.927-0.45-1.377-0.45
			c-0.55,0-0.9,0.288-0.9,0.676v0.018c0,0.441,0.576,0.612,1.197,0.801c0.72,0.217,1.494,0.496,1.494,1.333v0.018
			C371.073,130.137,370.344,130.649,369.417,130.649z"/>
		<path fill="#939598" d="M372.422,130.56v-6.572h0.693v6.572H372.422z"/>
		<path fill="#939598" d="M374.996,126.797l-0.207-0.567c0.514-0.234,1.018-0.388,1.692-0.388c1.27,0,1.98,0.648,1.98,1.873v2.845
			h-0.666v-0.702c-0.324,0.423-0.864,0.801-1.684,0.801c-0.864,0-1.737-0.485-1.737-1.458c0-0.99,0.811-1.513,1.989-1.513
			c0.595,0,1.018,0.081,1.432,0.198v-0.162c0-0.837-0.513-1.27-1.386-1.27C375.86,126.454,375.429,126.599,374.996,126.797z
			 M375.077,129.173c0,0.595,0.54,0.937,1.171,0.937c0.854,0,1.557-0.522,1.557-1.261v-0.449c-0.342-0.1-0.801-0.198-1.368-0.198
			C375.563,128.201,375.077,128.579,375.077,129.173z"/>
		<path fill="#939598" d="M380.631,130.56h-0.693v-4.654h0.693v0.811c0.306-0.505,0.792-0.91,1.593-0.91
			c1.126,0,1.783,0.757,1.783,1.864v2.89h-0.693v-2.719c0-0.864-0.469-1.404-1.288-1.404c-0.801,0-1.395,0.585-1.395,1.458V130.56z"
			/>
		<path fill="#939598" d="M389.217,130.56v-0.937c-0.378,0.559-0.927,1.035-1.782,1.035c-1.116,0-2.224-0.882-2.224-2.421
			c0-1.531,1.107-2.432,2.224-2.432c0.864,0,1.423,0.469,1.782,0.991v-2.81h0.693v6.572H389.217z M387.561,126.428
			c-0.9,0-1.639,0.666-1.639,1.8c0,1.107,0.757,1.81,1.639,1.81c0.864,0,1.684-0.72,1.684-1.81
			C389.244,127.147,388.425,126.428,387.561,126.428z"/>
	</g>
</g>
</svg>
