<?xml version="1.0" encoding="utf-8"?>
<!-- Generator: Adobe Illustrator 15.0.2, SVG Export Plug-In . SVG Version: 6.00 Build 0)  -->
<!DOCTYPE svg PUBLIC "-//W3C//DTD SVG 1.1//EN" "http://www.w3.org/Graphics/SVG/1.1/DTD/svg11.dtd">
<svg version="1.1" id="Layer_1" xmlns="http://www.w3.org/2000/svg" xmlns:xlink="http://www.w3.org/1999/xlink" x="0px" y="0px"
	 width="328.39px" height="492.181px" viewBox="85.805 2.819 328.39 492.181" enable-background="new 85.805 2.819 328.39 492.181"
	 xml:space="preserve">
<g id="_x32_0_x25___PMS_2985_fill" display="none">
	<polygon display="inline" fill="#EBEEEF" points="3.031,1.617 3.031,318.117 13.031,318.117 13.031,326.117 105.031,326.117 
		105.031,317.117 222.031,317.117 222.031,130.117 172.031,130.117 172.031,78.95 157.531,78.95 157.531,24.617 172.031,24.617 
		172.031,2.617 	"/>
</g>
<g>
	<g id="_x32_0_x25__grey_fill">
		<rect x="398.152" y="460.744" fill="#D1D3D4" width="12.379" height="8.479"/>
		<rect x="226.585" y="461.48" fill="#D1D3D4" width="61.19" height="6.635"/>
		<rect x="89.457" y="460.375" fill="#D1D3D4" width="27.646" height="8.479"/>
	</g>
	<g id="icons">
		<g>
			<g>
				<rect x="215.532" y="121.162" fill="#FFFFFF" stroke="#939598" width="34.835" height="67.562"/>
				<path fill="#FFFFFF" stroke="#939598" d="M232.951,155.041"/>
				<path fill="#FFFFFF" stroke="#939598" d="M232.951,155.271"/>
				<path fill="#FFFFFF" stroke="#939598" d="M232.951,178.114"/>
			</g>
			<circle fill="#FFFFFF" stroke="#939598" cx="232.786" cy="173.371" r="1.429"/>
			<path fill="#FFFFFF" stroke="#939598" d="M232.843,125.199c9.983,0,13.64,2.304,13.64,5.533c0,0,0,48.419,0,49.211
				c0,0.788-0.215,2.419-2.303,2.419c-2.092,0-11.337,0-11.337,0h-0.022c0,0-9.246,0-11.338,0c-2.088,0-2.303-1.629-2.303-2.419
				c0-0.792,0-49.181,0-49.181l0.006-0.031C219.186,127.504,222.922,125.199,232.843,125.199z"/>
			<path fill="#FFFFFF" stroke="#939598" d="M235.782,184.868c-0.003-0.81,0.646-1.457,1.466-1.457c0.791,0,1.447,0.647,1.453,1.457
				c-0.006,0.804-0.662,1.469-1.453,1.469C236.43,186.337,235.779,185.679,235.782,184.868z"/>
			<path fill="#FFFFFF" stroke="#939598" d="M226.727,184.868c-0.009-0.81,0.656-1.457,1.461-1.457c0.799,0,1.459,0.647,1.459,1.457
				c0,0.804-0.66,1.469-1.459,1.456C227.38,186.337,226.727,185.672,226.727,184.868z"/>
			<path fill="#FFFFFF" stroke="#939598" d="M234.749,185.3c0,1.197-0.81,2.166-2.007,2.169c-1.192-0.003-1.846-0.97-1.846-2.169
				l0.769-8.245c0-0.81,2.183-0.81,2.183,0L234.749,185.3z"/>
		</g>
		<g>
			<polygon fill="none" stroke="#939598" points="261.982,278.152 261.996,280.492 295.357,280.514 295.348,278.173 			"/>
			<path fill="none" stroke="#939598" d="M295.375,279.229c-0.625,18.369-15.727,32.755-34.093,32.125"/>
		</g>
		<g>
			<g>
				<g>
					<g>
						<rect x="219.368" y="208.425" fill="#FFFFFF" stroke="#939598" width="27.344" height="29.767"/>
						<path fill="#FFFFFF" stroke="#939598" d="M232.13,223.306"/>
						<polyline fill="#FFFFFF" stroke="#939598" points="227.525,214.275 223.368,214.275 222.398,217.87 222.398,228.884 
							223.368,232.522 227.525,232.522 						"/>
						<line fill="none" stroke="#939598" x1="227.525" y1="238.407" x2="227.525" y2="208.425"/>
						<path fill="#FFFFFF" stroke="#939598" d="M230.738,223.399"/>
					</g>
				</g>
			</g>
			<polygon fill="#FFFFFF" stroke="#939598" points="225.732,236.744 225.729,234.339 227.404,233.809 227.41,237.271 			"/>
		</g>
		<polygon fill="#FFFFFF" stroke="#939598" points="307.307,166.175 307.307,120.957 334.83,120.957 334.83,166.668 		"/>
		<g>
			<path fill="#FFFFFF" stroke="#939598" stroke-miterlimit="10" d="M313.613,197.239c-6.582,0-13.827-3.997-13.827-8.926
				c0-4.928,7.245-8.907,13.827-8.907c6.58,0,10.004,3.979,10.004,8.907C323.617,193.242,320.193,197.239,313.613,197.239"/>
			<path fill="#FFFFFF" stroke="#939598" d="M313.613,197.239c-6.582,0-13.827-3.997-13.827-8.926c0-4.928,7.245-8.907,13.827-8.907
				c6.58,0,10.004,3.979,10.004,8.907C323.617,193.242,320.193,197.239,313.613,197.239z"/>
			<path fill="#FFFFFF" stroke="#939598" stroke-miterlimit="10" d="M321.461,182.971c-0.369,0-0.672-0.303-0.672-0.671v-3.106
				c0-0.369,0.303-0.672,0.672-0.672h0.111c0.367,0,0.671,0.303,0.671,0.672v3.106c0,0.368-0.304,0.671-0.671,0.671H321.461z"/>
			<path fill="#FFFFFF" stroke="#939598" d="M321.461,182.971c-0.369,0-0.672-0.303-0.672-0.671v-3.106
				c0-0.369,0.303-0.672,0.672-0.672h0.111c0.367,0,0.671,0.303,0.671,0.672v3.106c0,0.368-0.304,0.671-0.671,0.671H321.461z"/>
			<path fill="#FFFFFF" stroke="#939598" stroke-miterlimit="10" d="M322.262,178.05c0-1.117,3.033-2.027,4.152-2.027
				c1.135,0,4.166,0.91,4.166,2.027v20.369c0,1.12-3.033,2.027-4.166,2.027c-1.121,0-4.15-0.907-4.15-2.027L322.262,178.05z"/>
			<path fill="#FFFFFF" stroke="#939598" d="M322.262,178.05c0-1.117,3.033-2.027,4.152-2.027c1.135,0,4.166,0.91,4.166,2.027
				v20.369c0,1.12-3.033,2.027-4.166,2.027c-1.121,0-4.15-0.907-4.15-2.027L322.262,178.05z"/>
			<path fill="#FFFFFF" stroke="#939598" stroke-miterlimit="10" d="M313.336,194.874c-4.836,0-10.162-2.938-10.162-6.561
				s5.326-6.557,10.162-6.557c4.838,0,7.354,2.934,7.354,6.557S318.174,194.874,313.336,194.874"/>
			<path fill="#FFFFFF" stroke="#939598" d="M313.336,194.874c-4.836,0-10.162-2.938-10.162-6.561s5.326-6.557,10.162-6.557
				c4.838,0,7.354,2.934,7.354,6.557S318.174,194.874,313.336,194.874z"/>
		</g>
		<g>
			<g>
				<g>
					<path fill="none" stroke="#939598" d="M317.895,143.55"/>
				</g>
				<g>
					<path fill="none" stroke="#939598" d="M319.461,143.55"/>
				</g>
				<g>
					<circle fill="none" stroke="#939598" cx="317.895" cy="143.549" r="1.5"/>
					<path fill="none" stroke="#939598" d="M317.895,143.55"/>
				</g>
				<g>
					<g>
						<rect x="327.293" y="137.259" fill="none" stroke="#939598" width="3.135" height="12.612"/>
						<path fill="none" stroke="#939598" d="M328.861,143.55"/>
					</g>
					<g>
						<rect x="321.211" y="142.88" fill="none" stroke="#939598" width="5.943" height="1.336"/>
						<path fill="none" stroke="#939598" d="M324.689,143.55"/>
					</g>
					<g>
						<circle fill="none" stroke="#939598" cx="328.83" cy="143.549" r="1.454"/>
						<path fill="none" stroke="#939598" d="M328.83,143.55"/>
					</g>
				</g>
			</g>
			<g>
				<rect x="310.447" y="130.974" fill="none" stroke="#939598" width="20.459" height="25.179"/>
				<rect x="312.504" y="133.029" fill="none" stroke="#939598" width="14.717" height="21.02"/>
			</g>
		</g>
		<g>
			<polygon fill="none" stroke="#939598" points="343.684,266.148 346.146,266.169 346.17,231.048 343.674,231.03 			"/>
			<path fill="none" stroke="#939598" d="M344.848,231.002c19.336,0.656,34.479,16.646,33.818,35.98"/>
		</g>
		<g>
			<polygon fill="none" stroke="#939598" points="325.227,266.148 322.762,266.169 322.738,231.048 325.236,231.03 			"/>
			<path fill="none" stroke="#939598" d="M324.062,231.002c-19.336,0.656-34.479,16.646-33.819,35.98"/>
		</g>
		<g>
			<polygon fill="none" stroke="#939598" points="316.391,51.92 318.129,53.481 296,78.449 294.258,76.887 			"/>
			<path fill="none" stroke="#939598" d="M295.027,77.607c6.52,5.401,14.44,7.945,22.238,7.734"/>
		</g>
		<g>
			<g>
				<polygon fill="none" stroke="#939598" points="300.842,36.049 298.035,36.058 298.012,66.834 300.822,66.823 				"/>
				<path fill="none" stroke="#939598" d="M299.848,66.847c-16.94-0.574-30.209-14.503-29.633-31.445"/>
			</g>
			<g>
				<polygon fill="none" stroke="#939598" points="239.434,36.049 242.236,36.058 242.264,66.834 239.453,66.823 				"/>
				<path fill="none" stroke="#939598" d="M240.426,66.847c16.942-0.574,30.211-14.503,29.635-31.445"/>
			</g>
		</g>
		<g>
			<polygon fill="none" stroke="#939598" points="260.354,117.952 262.814,117.934 262.838,153.053 260.34,153.073 			"/>
			<path fill="none" stroke="#939598" d="M261.516,153.1c19.336-0.657,34.479-16.646,33.818-35.98"/>
		</g>
		<g>
			<g>
				<polygon fill="none" stroke="#939598" points="210.943,204.143 210.939,206.386 186.317,206.407 186.327,204.157 				"/>
				<path fill="none" stroke="#939598" d="M186.307,204.938c0.459,13.555,11.603,24.167,25.157,23.707"/>
			</g>
			<g>
				<polygon fill="none" stroke="#939598" points="210.943,253.268 210.939,251.023 186.317,251.005 186.327,253.253 				"/>
				<path fill="none" stroke="#939598" d="M186.307,252.475c0.459-13.555,11.603-24.168,25.157-23.706"/>
			</g>
		</g>
		<polyline fill="#FFFFFF" stroke="#939598" points="164.016,36.366 118.229,36.366 118.229,169.72 165.736,169.499 
			165.736,211.696 91.396,211.696 91.396,9.826 181.884,9.922 181.884,36.366 179.608,36.366 		"/>
		<g>
			<g>
				<rect x="93.29" y="68.327" fill="#FFFFFF" stroke="#939598" width="29.121" height="34.282"/>
				<path fill="#FFFFFF" stroke="#939598" d="M107.851,85.468"/>
			</g>
			<g>
				<g>
					<circle fill="#FFFFFF" stroke="#939598" cx="115.96" cy="93.307" r="4.164"/>
					<path fill="#FFFFFF" stroke="#939598" d="M115.96,93.307"/>
				</g>
				<g>
					<circle fill="#FFFFFF" stroke="#939598" stroke-width="0.8" cx="115.959" cy="93.347" r="2.933"/>
					<path fill="#FFFFFF" stroke="#939598" d="M115.96,93.347"/>
				</g>
			</g>
			<g>
				<g>
					<circle fill="#FFFFFF" stroke="#939598" cx="103.796" cy="76.663" r="4.164"/>
					<path fill="#FFFFFF" stroke="#939598" d="M103.796,76.663"/>
				</g>
				<g>
					<circle fill="#FFFFFF" stroke="#939598" stroke-width="0.8" cx="103.794" cy="76.622" r="2.933"/>
					<path fill="#FFFFFF" stroke="#939598" d="M103.796,76.622"/>
				</g>
			</g>
			<g>
				<g>
					<circle fill="#FFFFFF" stroke="#939598" cx="103.836" cy="93.362" r="4.747"/>
					<path fill="#FFFFFF" stroke="#939598" d="M103.836,93.362"/>
				</g>
				<g>
					<circle fill="#FFFFFF" stroke="#939598" stroke-width="0.8" cx="103.836" cy="93.316" r="3.344"/>
					<path fill="#FFFFFF" stroke="#939598" d="M103.836,93.316"/>
				</g>
			</g>
			<g>
				<g>
					<circle fill="#FFFFFF" stroke="#939598" cx="116.281" cy="76.683" r="4.746"/>
					<path fill="#FFFFFF" stroke="#939598" d="M116.281,76.682"/>
				</g>
				<g>
					<circle fill="#FFFFFF" stroke="#939598" stroke-width="0.8" cx="116.281" cy="76.635" r="3.344"/>
					<path fill="#FFFFFF" stroke="#939598" d="M116.281,76.635"/>
				</g>
			</g>
			<line fill="none" stroke="#939598" x1="97.319" y1="102.656" x2="97.319" y2="68.327"/>
			<line fill="none" stroke="#939598" x1="95.709" y1="102.608" x2="95.709" y2="68.327"/>
		</g>
		<g>
			<g>
				<rect x="183.516" y="10.275" fill="#FFFFFF" stroke="#939598" width="36.718" height="32.394"/>
				<path fill="#FFFFFF" stroke="#939598" d="M199.976,26.47"/>
			</g>
			<line fill="none" stroke="#939598" x1="220.32" y1="40.401" x2="183.516" y2="40.401"/>
			<rect x="186.58" y="42.69" fill="#FFFFFF" stroke="#939598" width="2.975" height="1.575"/>
			<path fill="#FFFFFF" stroke="#939598" d="M188.068,43.391"/>
		</g>
		<g>
			<polyline fill="none" stroke="#939598" stroke-dasharray="1.5,1,1.5,1,1.5,1" points="120.48,152.969 94.132,152.969 
				94.132,127.129 119.889,127.129 			"/>
			<polyline fill="#FFFFFF" stroke="#939598" points="119.889,127.088 121.455,127.088 121.455,152.969 120.49,152.969 			"/>
		</g>
		<line fill="none" stroke="#939598" x1="161.312" y1="36.366" x2="161.312" y2="10.563"/>
		<g>
			<g>
				<g>
					<polygon fill="none" stroke="#939598" stroke-width="0.7" points="172.276,49.588 170.432,48.574 178.112,35.906 
						179.957,36.917 					"/>
					<path fill="none" stroke="#939598" stroke-width="0.8" d="M176.596,41.72"/>
				</g>
				<path fill="none" stroke="#939598" stroke-width="0.8" d="M171.572,48.978c-4.722-2.859-7.266-7.952-7.093-13.104"/>
			</g>
		</g>
		
			<line fill="none" stroke="#939598" stroke-dasharray="1.5,1.5,1.5,1.5,1.5,1.5" x1="108.968" y1="145.938" x2="108.968" y2="197.176"/>
		<polyline fill="none" stroke="#939598" stroke-dasharray="1.5,1.5,1.5,1.5,1.5,1.5" points="160.207,25.685 108.968,25.685 
			108.968,134.141 		"/>
		
			<line fill="none" stroke="#939598" stroke-dasharray="1.5,1.5,1.5,1.5,1.5,1.5" x1="219.8" y1="25.685" x2="182.693" y2="25.685"/>
		<g>
			<g>
				<path fill="#FFFFFF" stroke="#939598" d="M160.379,195.001c0.629,0,1.139-0.508,1.139-1.137v-19.825
					c0-0.628-0.511-1.137-1.139-1.137h-33.628c-0.627,0-1.134,0.51-1.134,1.137v19.825c0,0.631,0.507,1.137,1.134,1.137H160.379z"/>
				<path fill="#FFFFFF" stroke="#939598" d="M143.687,184.808"/>
			</g>
			<g>
				<circle fill="#FFFFFF" stroke="#939598" cx="143.687" cy="183.465" r="1.285"/>
				<path fill="#FFFFFF" stroke="#939598" d="M143.687,183.467"/>
			</g>
			<g>
				<g>
					<rect x="138.075" y="191.527" fill="#FFFFFF" stroke="#939598" width="11.22" height="2.683"/>
					<path fill="#FFFFFF" stroke="#939598" d="M143.687,192.87"/>
				</g>
				<g>
					<rect x="143.112" y="186.309" fill="#FFFFFF" stroke="#939598" width="1.146" height="5.288"/>
					<path fill="#FFFFFF" stroke="#939598" d="M143.687,189.294"/>
				</g>
				<g>
					<circle fill="#FFFFFF" stroke="#939598" cx="143.687" cy="192.842" r="1.249"/>
					<path fill="#FFFFFF" stroke="#939598" d="M143.687,192.842"/>
				</g>
			</g>
			<g>
				<path fill="#FFFFFF" stroke="#939598" d="M143.687,183.467"/>
				<path fill="none" stroke="#939598" d="M144.379,190.599h14.137c0.66,0,1.197-0.534,1.197-1.194v-13.597
					c0-0.656-0.536-1.193-1.197-1.193h-29.901c-0.658,0-1.195,0.536-1.195,1.193v13.597c0,0.658,0.536,1.194,1.195,1.194h14.343"/>
			</g>
		</g>
		<line fill="none" stroke="#939598" x1="90.562" y1="199.537" x2="165.762" y2="199.537"/>
		<line fill="none" stroke="#939598" x1="223.637" y1="23.555" x2="335.33" y2="23.555"/>
		<polyline fill="none" stroke="#939598" points="337.541,211.922 393.941,211.922 393.941,266.848 		"/>
		
			<line fill="none" stroke="#939598" stroke-dasharray="1.5,1.5,1.5,1.5,1.5,1.5" x1="224.373" y1="19.131" x2="335.33" y2="19.131"/>
		<polyline fill="none" stroke="#939598" stroke-dasharray="1.5,1.5,1.5,1.5,1.5,1.5" points="336.436,207.867 397.26,207.867 
			397.26,265.004 		"/>
		<line fill="none" stroke="#939598" x1="288.146" y1="459.258" x2="397.26" y2="459.258"/>
		<g>
			<rect x="103.415" y="478.807" fill="none" stroke="#939598" width="4.239" height="4.238"/>
			<rect x="234.667" y="478.807" fill="none" stroke="#939598" width="4.239" height="4.238"/>
			<line fill="none" stroke="#939598" x1="107.286" y1="479.912" x2="234.667" y2="479.912"/>
			<line fill="none" stroke="#939598" x1="107.655" y1="478.807" x2="107.655" y2="470.113"/>
			<line fill="none" stroke="#939598" x1="234.695" y1="478.807" x2="234.695" y2="470.482"/>
			<line fill="none" stroke="#939598" x1="238.907" y1="478.807" x2="238.907" y2="470.113"/>
			<line fill="none" stroke="#939598" x1="234.667" y1="483.045" x2="106.917" y2="483.045"/>
			<line fill="none" stroke="#939598" x1="103.415" y1="478.807" x2="103.415" y2="470.85"/>
		</g>
	</g>
	<g id="walls">
		<polyline fill="none" stroke="#939598" stroke-width="5" points="217.001,469.688 411.695,469.688 411.695,193.478 
			336.782,193.478 336.782,117.554 316.898,117.554 316.898,85.341 		"/>
		<polyline fill="none" stroke="#939598" stroke-width="5" points="316.898,52.306 316.898,38.351 338.582,38.351 338.582,5.321 
			88.305,5.466 88.305,469.688 123.37,469.688 		"/>
		<line fill="none" stroke="#939598" stroke-width="3" x1="378.041" y1="265.986" x2="411.266" y2="265.986"/>
		<line fill="none" stroke="#939598" stroke-width="3" x1="325.008" y1="265.986" x2="343.809" y2="265.986"/>
		<polyline fill="none" stroke="#939598" stroke-width="3" points="210.243,253.875 210.243,265.986 290.727,265.986 		"/>
		<polyline fill="none" stroke="#939598" stroke-width="3" points="260.133,119.029 210.243,119.029 210.243,203.572 		"/>
		<line fill="none" stroke="#939598" stroke-width="3" x1="316.898" y1="119.029" x2="294.779" y2="119.029"/>
		<polyline fill="none" stroke="#939598" stroke-width="3" points="208.277,191.39 256.92,191.39 256.92,265.004 		"/>
		<line fill="none" stroke="#939598" stroke-width="3" x1="262.834" y1="311.078" x2="262.834" y2="459.146"/>
		<line fill="none" stroke="#939598" stroke-width="3" x1="262.834" y1="266.479" x2="262.834" y2="277.906"/>
		<line fill="none" stroke="#939598" stroke-width="3" x1="335.449" y1="189.804" x2="335.449" y2="267.462"/>
		<line fill="none" stroke="#939598" stroke-width="3" x1="301.416" y1="36.947" x2="316.898" y2="36.947"/>
		<polyline fill="none" stroke="#939598" stroke-width="3" points="223.07,5 223.07,36.947 240.055,36.947 		"/>
		<polyline fill="none" stroke="#939598" stroke-width="3" points="226.216,466.641 226.503,460.734 288.062,460.734 
			287.775,468.115 		"/>
		<polyline fill="none" stroke="#939598" stroke-width="3" points="410.16,460.744 398.152,460.744 398.152,468.484 		"/>
		<polyline fill="none" stroke="#939598" stroke-width="3" points="90.194,461.48 115.861,461.48 115.861,467.748 		"/>
		<line fill="none" stroke="#939598" stroke-width="3" x1="213.684" y1="119.397" x2="213.684" y2="192.384"/>
		<g>
			<rect x="167.399" y="470.012" fill="none" stroke="#939598" width="55.292" height="2.603"/>
			<rect x="119.847" y="466.955" fill="none" stroke="#939598" width="60.455" height="2.856"/>
		</g>
	</g>
	<g id="Type">
		<g>
			<path fill="#939598" d="M234.312,229.788v-0.671l6.041-1.982l-6.021-2.064v-0.858l7.281,2.582v0.692l-5.867,1.983l5.867,1.994
				v0.681l-7.281,2.582v-0.89l6.021-2.063L234.312,229.788z"/>
			<path fill="#939598" d="M233.32,219.489l9.562,4.792v0.733l-9.562-4.793V219.489z"/>
			<path fill="#939598" d="M241.562,216.021v2.51h-7.23v-2.51c0-2.272,1.561-3.842,3.604-3.842S241.562,213.749,241.562,216.021z
				 M235.085,216.021v1.692h5.722v-1.692c0-1.828-1.238-2.995-2.851-2.995S235.085,214.194,235.085,216.021z"/>
		</g>
		<g>
			<path fill="#939598" d="M284.895,210.247c0,1.223-0.744,1.845-1.475,2.165c1.104,0.331,1.99,0.968,1.99,2.255
				c0,1.606-1.34,2.55-3.369,2.55h-4.13v-9.292h3.957C283.7,207.925,284.895,208.827,284.895,210.247z M283.832,210.392
				c0-0.929-0.729-1.526-2.061-1.526h-2.826v3.198h2.748C282.957,212.064,283.832,211.494,283.832,210.392z M284.35,214.601
				c0-1.021-0.85-1.605-2.471-1.605h-2.934v3.278h3.119C283.473,216.273,284.35,215.649,284.35,214.601z"/>
			<path fill="#939598" d="M287.719,211.667l-0.307-0.836c0.758-0.345,1.502-0.57,2.496-0.57c1.871,0,2.919,0.955,2.919,2.761v4.195
				h-0.981v-1.035c-0.479,0.624-1.273,1.182-2.481,1.182c-1.273,0-2.562-0.718-2.562-2.15c0-1.46,1.197-2.23,2.935-2.23
				c0.877,0,1.5,0.119,2.111,0.292v-0.239c0-1.233-0.757-1.872-2.043-1.872C288.992,211.163,288.355,211.377,287.719,211.667z
				 M287.838,215.172c0,0.876,0.797,1.38,1.727,1.38c1.262,0,2.297-0.77,2.297-1.857v-0.664c-0.504-0.146-1.182-0.292-2.018-0.292
				C288.557,213.738,287.838,214.296,287.838,215.172z"/>
			<path fill="#939598" d="M296.318,215.264c0,0.836,0.465,1.142,1.154,1.142c0.344,0,0.639-0.067,0.995-0.239v0.876
				c-0.356,0.186-0.741,0.292-1.233,0.292c-1.103,0-1.938-0.544-1.938-1.938v-4.142h-0.955v-0.903h0.955v-2.069h1.021v2.069h2.179
				v0.903h-2.179v4.009H296.318z"/>
			<path fill="#939598" d="M301.322,217.217h-1.021v-9.69h1.021v4.022c0.451-0.743,1.168-1.34,2.35-1.34
				c1.662,0,2.631,1.114,2.631,2.748v4.262h-1.021v-4.009c0-1.274-0.69-2.071-1.897-2.071c-1.183,0-2.06,0.862-2.06,2.15
				L301.322,217.217L301.322,217.217z"/>
		</g>
		<g>
			<path fill="#939598" d="M199.329,36.496l-2.097-2.809h-2.063v2.809h-0.817v-7.229h3.108c1.591,0,2.612,0.858,2.612,2.159
				c0,1.208-0.826,1.911-1.961,2.117l2.218,2.953H199.329z M197.399,30.02h-2.23v2.933h2.219c1.084,0,1.859-0.558,1.859-1.499
				C199.246,30.559,198.565,30.02,197.399,30.02z"/>
			<path fill="#939598" d="M203.932,35.928c0.732,0,1.25-0.299,1.686-0.753l0.496,0.443c-0.537,0.599-1.188,1.001-2.201,1.001
				c-1.467,0-2.664-1.125-2.664-2.788c0-1.548,1.083-2.789,2.561-2.789c1.58,0,2.489,1.259,2.489,2.83c0,0.072,0,0.154-0.01,0.248
				h-4.235C202.166,35.277,202.992,35.928,203.932,35.928z M205.491,33.532c-0.083-0.97-0.644-1.816-1.705-1.816
				c-0.929,0-1.634,0.774-1.735,1.816H205.491z"/>
			<path fill="#939598" d="M210.466,31.178v0.683h-1.685v4.637h-0.797v-4.637h-0.732v-0.693h0.732v-0.465
				c0-1.168,0.59-1.786,1.611-1.786c0.372,0,0.62,0.042,0.877,0.134v0.692c-0.289-0.083-0.505-0.134-0.773-0.134
				c-0.619,0-0.93,0.372-0.93,1.137v0.434h1.694L210.466,31.178L210.466,31.178z"/>
		</g>
		<g>
			<path fill="#939598" d="M101.965,143.52h-2.51v-7.229h2.51c2.272,0,3.84,1.559,3.84,3.604
				C105.806,141.937,104.238,143.52,101.965,143.52z M101.965,137.044h-1.694v5.721h1.694c1.826,0,2.994-1.238,2.994-2.85
				C104.959,138.303,103.791,137.044,101.965,137.044z"/>
			<path fill="#939598" d="M111.534,136.271h0.671l1.984,6.041l2.064-6.02h0.858l-2.582,7.281h-0.691l-1.982-5.867l-1.994,5.867
				h-0.682l-2.582-7.281h0.888l2.065,6.02L111.534,136.271z"/>
		</g>
		<g>
			<path fill="#939598" d="M170.527,35.952v1.404h2.039v0.652h-5.78v-2.163c0-1.305,0.693-2.163,1.842-2.163
				C169.883,33.681,170.527,34.722,170.527,35.952z M167.388,35.894v1.461h2.544v-1.429c0-0.957-0.511-1.585-1.279-1.585
				C167.817,34.342,167.388,34.963,167.388,35.894z"/>
			<path fill="#939598" d="M169.116,32.6l-0.521,0.189c-0.214-0.47-0.354-0.933-0.354-1.552c0-1.165,0.595-1.817,1.718-1.817h2.611
				v0.612h-0.646c0.39,0.298,0.736,0.793,0.736,1.544c0,0.793-0.445,1.594-1.338,1.594c-0.907,0-1.387-0.744-1.387-1.826
				c0-0.545,0.074-0.933,0.183-1.312h-0.149c-0.768,0-1.165,0.471-1.165,1.271C168.8,31.807,168.935,32.204,169.116,32.6z
				 M171.294,32.526c0.545,0,0.859-0.495,0.859-1.073c0-0.785-0.479-1.429-1.156-1.429h-0.413c-0.091,0.314-0.182,0.736-0.182,1.256
				C170.403,32.08,170.75,32.526,171.294,32.526z"/>
			<path fill="#939598" d="M172.567,27.679v0.635h-4.271v-0.635h0.743c-0.461-0.28-0.834-0.728-0.834-1.462
				c0-1.032,0.694-1.635,1.711-1.635h2.649v0.637h-2.494c-0.793,0-1.289,0.429-1.289,1.181c0,0.734,0.537,1.28,1.337,1.28
				L172.567,27.679L172.567,27.679L172.567,27.679z"/>
			<path fill="#939598" d="M171.353,22.617c0.52,0,0.71-0.289,0.71-0.718c0-0.215-0.042-0.396-0.15-0.619h0.546
				c0.115,0.223,0.181,0.461,0.181,0.768c0,0.685-0.338,1.205-1.204,1.205h-2.576v0.594h-0.562v-0.594h-1.289v-0.635h1.289v-1.354
				h0.562v1.354L171.353,22.617L171.353,22.617z"/>
			<path fill="#939598" d="M172.567,19.752v0.635h-4.271v-0.635h1.115c-0.708-0.313-1.223-0.933-1.189-1.743h0.686v0.05
				c0,0.933,0.67,1.692,1.957,1.692L172.567,19.752L172.567,19.752z"/>
			<path fill="#939598" d="M172.707,15.21c0.883,0.364,1.205,0.777,1.205,1.42c0,0.355-0.075,0.619-0.216,0.909l-0.503-0.215
				c0.107-0.207,0.155-0.396,0.155-0.668c0-0.38-0.198-0.619-0.801-0.876l-4.252,1.941v-0.702l3.561-1.553l-3.561-1.371V13.42
				L172.707,15.21z"/>
		</g>
		<g>
			<path fill="#939598" d="M157.397,87.061h-1.314l-3.571-4.5l-1.977,2.004v2.495h-1.048v-9.292h1.048v5.548l5.336-5.549h1.354
				l-3.983,4.062L157.397,87.061z"/>
			<path fill="#939598" d="M158.882,78.698V77.57h1.168v1.128H158.882z M158.948,87.061v-6.862h1.021v6.862H158.948z"/>
			<path fill="#939598" d="M163.727,85.111c0,0.836,0.463,1.142,1.154,1.142c0.345,0,0.637-0.067,0.995-0.239v0.875
				c-0.358,0.186-0.743,0.292-1.233,0.292c-1.103,0-1.938-0.544-1.938-1.938v-4.142h-0.955v-0.902h0.955v-2.07h1.022v2.07h2.177
				v0.902h-2.177V85.111z"/>
			<path fill="#939598" d="M170.602,87.22c-2.005,0-3.52-1.632-3.52-3.57c0-1.953,1.513-3.598,3.52-3.598
				c1.3,0,2.11,0.543,2.747,1.221l-0.677,0.716c-0.543-0.571-1.154-1.035-2.083-1.035c-1.394,0-2.457,1.181-2.457,2.669
				c0,1.5,1.087,2.68,2.521,2.68c0.875,0,1.553-0.438,2.097-1.021l0.649,0.612C172.713,86.663,171.891,87.22,170.602,87.22z"/>
			<path fill="#939598" d="M176.108,87.061h-1.021v-9.69h1.021v4.021c0.452-0.743,1.168-1.34,2.35-1.34
				c1.659,0,2.628,1.115,2.628,2.748v4.262h-1.021v-4.01c0-1.273-0.689-2.07-1.898-2.07c-1.181,0-2.059,0.863-2.059,2.15V87.061
				L176.108,87.061L176.108,87.061z"/>
			<path fill="#939598" d="M186.287,86.331c0.941,0,1.605-0.385,2.163-0.968l0.638,0.57c-0.69,0.77-1.525,1.288-2.827,1.288
				c-1.885,0-3.426-1.447-3.426-3.584c0-1.991,1.395-3.585,3.292-3.585c2.032,0,3.2,1.619,3.2,3.637c0,0.093,0,0.2-0.014,0.319
				h-5.442C184.018,85.495,185.079,86.331,186.287,86.331z M188.293,83.251c-0.106-1.248-0.824-2.335-2.189-2.335
				c-1.195,0-2.098,0.995-2.23,2.335H188.293z"/>
			<path fill="#939598" d="M192.138,87.061h-1.021v-6.862h1.021v1.194c0.452-0.743,1.167-1.34,2.352-1.34
				c1.659,0,2.626,1.115,2.626,2.748v4.262h-1.021v-4.01c0-1.272-0.69-2.07-1.898-2.07c-1.182,0-2.06,0.863-2.06,2.15
				L192.138,87.061L192.138,87.061L192.138,87.061z"/>
		</g>
		<g>
			<path fill="#939598" d="M259.502,33.519c-2.088,0-3.625-1.643-3.625-3.729c0-2.066,1.528-3.748,3.654-3.748
				c1.312,0,2.098,0.464,2.818,1.146l-0.558,0.598c-0.608-0.577-1.291-0.991-2.272-0.991c-1.601,0-2.797,1.291-2.797,2.975
				s1.209,2.995,2.797,2.995c0.991,0,1.645-0.382,2.336-1.044l0.537,0.526C261.639,33.014,260.812,33.519,259.502,33.519z"/>
			<path fill="#939598" d="M263.75,33.397v-7.539h0.795v7.539H263.75z"/>
			<path fill="#939598" d="M268.83,33.519c-1.6,0-2.768-1.259-2.768-2.778c0-1.519,1.178-2.799,2.789-2.799
				c1.6,0,2.776,1.26,2.776,2.778C271.629,32.239,270.439,33.519,268.83,33.519z M268.83,28.646c-1.156,0-1.951,0.918-1.951,2.076
				c0,1.156,0.848,2.086,1.975,2.086c1.154,0,1.961-0.918,1.961-2.064C270.812,29.575,269.955,28.646,268.83,28.646z"/>
			<path fill="#939598" d="M274.826,33.498c-0.766,0-1.611-0.299-2.211-0.784l0.402-0.568c0.578,0.434,1.219,0.682,1.849,0.682
				c0.642,0,1.106-0.33,1.106-0.847V31.96c0-0.537-0.632-0.743-1.334-0.939c-0.835-0.238-1.767-0.526-1.767-1.507v-0.021
				c0-0.92,0.767-1.529,1.815-1.529c0.65,0,1.375,0.228,1.922,0.588l-0.36,0.599c-0.496-0.321-1.062-0.517-1.578-0.517
				c-0.633,0-1.032,0.331-1.032,0.774v0.021c0,0.505,0.661,0.702,1.375,0.92c0.825,0.248,1.713,0.567,1.713,1.527v0.021
				C276.727,32.91,275.889,33.498,274.826,33.498z"/>
			<path fill="#939598" d="M280.555,32.828c0.732,0,1.252-0.299,1.687-0.754l0.495,0.444c-0.537,0.599-1.188,1.001-2.199,1.001
				c-1.467,0-2.665-1.125-2.665-2.789c0-1.548,1.084-2.789,2.562-2.789c1.58,0,2.489,1.26,2.489,2.831c0,0.072,0,0.155-0.011,0.248
				h-4.232C278.789,32.177,279.614,32.828,280.555,32.828z M282.113,30.432c-0.086-0.97-0.643-1.817-1.705-1.817
				c-0.93,0-1.631,0.774-1.732,1.817H282.113z"/>
			<path fill="#939598" d="M285.385,31.878c0,0.65,0.36,0.889,0.897,0.889c0.269,0,0.495-0.052,0.772-0.186v0.681
				c-0.277,0.144-0.578,0.227-0.959,0.227c-0.856,0-1.509-0.423-1.509-1.507V28.76h-0.744v-0.705h0.744v-1.61h0.795v1.61h1.693
				v0.704h-1.693v3.119H285.385z"/>
		</g>
		<g>
			<path fill="#939598" d="M360.135,225.573c-2.086,0-3.623-1.642-3.623-3.728c0-2.066,1.527-3.748,3.654-3.748
				c1.312,0,2.096,0.464,2.818,1.146l-0.558,0.598c-0.608-0.577-1.29-0.99-2.272-0.99c-1.6,0-2.795,1.29-2.795,2.975
				c0,1.684,1.205,2.996,2.795,2.996c0.992,0,1.645-0.384,2.335-1.044l0.536,0.526C362.271,225.069,361.445,225.573,360.135,225.573
				z"/>
			<path fill="#939598" d="M364.385,225.45v-7.538h0.795v7.538H364.385z"/>
			<path fill="#939598" d="M369.465,225.573c-1.6,0-2.768-1.26-2.768-2.778s1.178-2.799,2.789-2.799c1.6,0,2.777,1.26,2.777,2.778
				C372.264,224.293,371.074,225.573,369.465,225.573z M369.465,220.699c-1.154,0-1.951,0.919-1.951,2.075
				c0,1.157,0.848,2.086,1.975,2.086c1.156,0,1.961-0.918,1.961-2.063C371.445,221.629,370.59,220.699,369.465,220.699z"/>
			<path fill="#939598" d="M375.461,225.553c-0.766,0-1.609-0.299-2.211-0.784l0.402-0.569c0.578,0.434,1.219,0.683,1.85,0.683
				c0.641,0,1.104-0.332,1.104-0.848v-0.021c0-0.536-0.631-0.742-1.332-0.939c-0.834-0.236-1.767-0.525-1.767-1.507v-0.021
				c0-0.92,0.767-1.529,1.816-1.529c0.649,0,1.374,0.227,1.921,0.589l-0.36,0.599c-0.495-0.32-1.062-0.517-1.577-0.517
				c-0.634,0-1.033,0.331-1.033,0.774v0.021c0,0.506,0.66,0.702,1.373,0.919c0.828,0.248,1.715,0.568,1.715,1.528v0.021
				C377.359,224.964,376.523,225.553,375.461,225.553z"/>
			<path fill="#939598" d="M381.188,224.883c0.733,0,1.252-0.299,1.686-0.755l0.496,0.443c-0.537,0.6-1.188,1.003-2.199,1.003
				c-1.468,0-2.664-1.127-2.664-2.788c0-1.55,1.082-2.79,2.561-2.79c1.58,0,2.488,1.259,2.488,2.83c0,0.073,0,0.155-0.01,0.248
				h-4.232C379.424,224.23,380.248,224.883,381.188,224.883z M382.748,222.487c-0.084-0.973-0.643-1.819-1.705-1.819
				c-0.929,0-1.629,0.775-1.732,1.819H382.748z"/>
			<path fill="#939598" d="M386.02,223.931c0,0.65,0.359,0.89,0.896,0.89c0.27,0,0.495-0.052,0.771-0.188v0.683
				c-0.276,0.145-0.578,0.227-0.959,0.227c-0.855,0-1.506-0.423-1.506-1.508v-3.222h-0.746v-0.704h0.746V218.5h0.795v1.609h1.692
				v0.704h-1.692L386.02,223.931L386.02,223.931z"/>
		</g>
		<g>
			<path fill="#939598" d="M139.279,493.422c-1.084,0-1.777-0.537-2.23-1.281l0.587-0.506c0.443,0.672,0.898,1.031,1.653,1.031
				c0.815,0,1.414-0.588,1.414-1.734v-4.844h0.828v4.832C141.531,492.584,140.57,493.422,139.279,493.422z"/>
			<path fill="#939598" d="M147.113,487.977h0.785v5.341h-0.785v-0.931c-0.36,0.578-0.907,1.043-1.827,1.043
				c-1.29,0-2.046-0.867-2.046-2.139v-3.314h0.796v3.119c0,0.992,0.537,1.611,1.476,1.611c0.909,0,1.601-0.672,1.601-1.674V487.977
				L147.113,487.977L147.113,487.977z"/>
			<path fill="#939598" d="M149.753,493.316v-7.539h0.796v7.539H149.753z"/>
			<path fill="#939598" d="M152.416,486.811v-0.879h0.909v0.879H152.416z M152.47,493.316v-5.341h0.794v5.341H152.47z"/>
			<path fill="#939598" d="M157.465,492.75c0.733,0,1.248-0.299,1.684-0.754l0.495,0.443c-0.536,0.598-1.188,1.002-2.199,1.002
				c-1.467,0-2.665-1.125-2.665-2.787c0-1.551,1.084-2.791,2.562-2.791c1.58,0,2.488,1.26,2.488,2.83c0,0.071,0,0.153-0.01,0.246
				h-4.235C155.7,492.098,156.526,492.75,157.465,492.75z M159.024,490.354c-0.082-0.971-0.642-1.817-1.703-1.817
				c-0.931,0-1.632,0.774-1.737,1.817H159.024z"/>
			<path fill="#939598" d="M162.296,491.799c0,0.65,0.36,0.892,0.897,0.892c0.269,0,0.495-0.054,0.773-0.188v0.684
				c-0.278,0.144-0.58,0.226-0.96,0.226c-0.857,0-1.506-0.422-1.506-1.508v-3.222h-0.743v-0.703h0.743v-1.61h0.794v1.61h1.692v0.703
				h-1.692L162.296,491.799L162.296,491.799z"/>
			<path fill="#939598" d="M174.053,487.896c0,0.948-0.577,1.436-1.146,1.684c0.855,0.258,1.548,0.752,1.548,1.754
				c0,1.25-1.044,1.984-2.622,1.984h-3.211v-7.23h3.077C173.124,486.088,174.053,486.791,174.053,487.896z M173.229,488.01
				c0-0.723-0.569-1.188-1.602-1.188h-2.199v2.489h2.138C172.545,489.311,173.229,488.867,173.229,488.01z M173.63,491.283
				c0-0.795-0.661-1.25-1.921-1.25h-2.282v2.551h2.427C172.949,492.584,173.63,492.098,173.63,491.283z"/>
			<path fill="#939598" d="M176.249,489l-0.237-0.648c0.587-0.27,1.167-0.442,1.941-0.442c1.456,0,2.272,0.742,2.272,2.147v3.263
				h-0.765v-0.806c-0.372,0.484-0.991,0.918-1.931,0.918c-0.992,0-1.994-0.557-1.994-1.672c0-1.139,0.929-1.735,2.282-1.735
				c0.681,0,1.167,0.094,1.643,0.227v-0.186c0-0.962-0.589-1.455-1.591-1.455C177.24,488.607,176.745,488.771,176.249,489z
				 M176.341,491.727c0,0.683,0.619,1.072,1.344,1.072c0.981,0,1.785-0.598,1.785-1.442v-0.519
				c-0.392-0.111-0.918-0.227-1.567-0.227C176.898,490.611,176.341,491.045,176.341,491.727z"/>
			<path fill="#939598" d="M181.987,493.316v-7.539h0.795v7.539H181.987z"/>
			<path fill="#939598" d="M187.036,493.439c-1.56,0-2.736-1.271-2.736-2.777c0-1.519,1.179-2.799,2.736-2.799
				c1.012,0,1.642,0.424,2.138,0.951l-0.526,0.559c-0.422-0.443-0.897-0.807-1.621-0.807c-1.084,0-1.91,0.92-1.91,2.073
				c0,1.168,0.847,2.086,1.963,2.086c0.681,0,1.208-0.338,1.631-0.795l0.505,0.478C188.677,493.008,188.038,493.439,187.036,493.439
				z"/>
			<path fill="#939598" d="M192.807,493.439c-1.6,0-2.768-1.261-2.768-2.777c0-1.521,1.176-2.799,2.789-2.799
				c1.6,0,2.778,1.26,2.778,2.776C195.606,492.16,194.417,493.439,192.807,493.439z M192.807,488.566
				c-1.157,0-1.952,0.92-1.952,2.073c0,1.156,0.847,2.086,1.974,2.086c1.155,0,1.961-0.918,1.961-2.062
				C194.788,489.496,193.934,488.566,192.807,488.566z"/>
			<path fill="#939598" d="M197.832,493.316h-0.795v-5.341h0.795v0.931c0.352-0.578,0.91-1.043,1.829-1.043
				c1.29,0,2.045,0.867,2.045,2.139v3.314h-0.795v-3.119c0-0.99-0.537-1.611-1.476-1.611c-0.921,0-1.602,0.672-1.602,1.674
				L197.832,493.316L197.832,493.316L197.832,493.316z"/>
			<path fill="#939598" d="M205.843,493.494c-0.454,1.104-0.969,1.506-1.776,1.506c-0.442,0-0.772-0.092-1.137-0.268l0.27-0.632
				c0.259,0.134,0.494,0.193,0.836,0.193c0.475,0,0.775-0.246,1.094-1l-2.428-5.318h0.88l1.94,4.453l1.715-4.453h0.847
				L205.843,493.494z"/>
		</g>
		<g>
			<path fill="#939598" d="M316.111,71.636h-4.408v2.468h3.945v0.743h-3.945v2.531h4.461v0.743h-5.277v-7.229h5.227L316.111,71.636
				L316.111,71.636z"/>
			<path fill="#939598" d="M318.463,78.123h-0.793v-5.339h0.793v0.929c0.354-0.577,0.91-1.044,1.828-1.044
				c1.291,0,2.045,0.868,2.045,2.138v3.315h-0.793v-3.119c0-0.99-0.537-1.61-1.477-1.61c-0.922,0-1.604,0.671-1.604,1.672
				L318.463,78.123L318.463,78.123z"/>
			<path fill="#939598" d="M325.1,76.604c0,0.651,0.361,0.89,0.898,0.89c0.27,0,0.495-0.052,0.773-0.186v0.681
				c-0.278,0.144-0.58,0.227-0.961,0.227c-0.855,0-1.506-0.423-1.506-1.507v-3.223h-0.744v-0.704h0.744v-1.61h0.793v1.61h1.692
				v0.704h-1.692v3.118H325.1z"/>
			<path fill="#939598" d="M328.991,78.123h-0.796v-5.339h0.796v1.396c0.394-0.889,1.167-1.529,2.181-1.488v0.858h-0.062
				c-1.168,0-2.117,0.836-2.117,2.448L328.991,78.123L328.991,78.123z"/>
			<path fill="#939598" d="M334.979,78.299c-0.453,1.106-0.971,1.507-1.775,1.507c-0.444,0-0.771-0.093-1.137-0.269l0.269-0.629
				c0.261,0.134,0.498,0.196,0.838,0.196c0.476,0,0.772-0.248,1.097-1.003l-2.429-5.319h0.88l1.938,4.452l1.715-4.452h0.849
				L334.979,78.299z"/>
		</g>
		<g>
			<path fill="#939598" d="M322.116,351.369c0,1.223-0.743,1.848-1.476,2.164c1.103,0.332,1.991,0.971,1.991,2.258
				c0,1.604-1.34,2.549-3.371,2.549h-4.129v-9.293h3.957C320.922,349.047,322.116,349.949,322.116,351.369z M321.057,351.516
				c0-0.93-0.729-1.526-2.061-1.526h-2.826v3.198h2.748C320.18,353.188,321.057,352.619,321.057,351.516z M321.572,355.723
				c0-1.021-0.85-1.604-2.471-1.604h-2.933v3.276h3.117C320.695,357.395,321.572,356.773,321.572,355.723z"/>
			<path fill="#939598" d="M327.568,357.607c0.942,0,1.606-0.386,2.164-0.97l0.641,0.57c-0.691,0.77-1.529,1.287-2.828,1.287
				c-1.885,0-3.424-1.445-3.424-3.584c0-1.99,1.391-3.584,3.29-3.584c2.03,0,3.198,1.619,3.198,3.637c0,0.094,0,0.199-0.014,0.32
				h-5.441C325.301,356.773,326.359,357.607,327.568,357.607z M329.572,354.529c-0.104-1.248-0.822-2.336-2.188-2.336
				c-1.194,0-2.098,0.993-2.229,2.336H329.572z"/>
			<path fill="#939598" d="M337.907,358.34v-1.383c-0.558,0.824-1.366,1.525-2.628,1.525c-1.646,0-3.279-1.302-3.279-3.568
				c0-2.258,1.633-3.584,3.279-3.584c1.273,0,2.098,0.688,2.628,1.459v-4.146h1.022v9.691h-1.022V358.34z M335.465,352.246
				c-1.326,0-2.416,0.981-2.416,2.654c0,1.633,1.115,2.67,2.416,2.67c1.273,0,2.483-1.062,2.483-2.67
				C337.948,353.305,336.739,352.246,335.465,352.246z"/>
			<path fill="#939598" d="M342.23,358.34h-1.021v-6.863h1.021v1.793c0.508-1.141,1.502-1.967,2.803-1.909v1.1h-0.081
				c-1.5,0-2.724,1.076-2.724,3.148v2.731H342.23z"/>
			<path fill="#939598" d="M349.426,358.498c-2.059,0-3.555-1.621-3.555-3.572c0-1.947,1.512-3.596,3.584-3.596
				c2.057,0,3.568,1.621,3.568,3.57C353.023,356.852,351.496,358.498,349.426,358.498z M349.426,352.23
				c-1.486,0-2.508,1.184-2.508,2.67c0,1.485,1.088,2.682,2.537,2.682c1.484,0,2.52-1.182,2.52-2.656
				C351.975,353.426,350.873,352.23,349.426,352.23z"/>
			<path fill="#939598" d="M357.998,358.498c-2.059,0-3.559-1.621-3.559-3.572c0-1.947,1.516-3.596,3.584-3.596
				c2.061,0,3.572,1.621,3.572,3.57C361.598,356.852,360.07,358.498,357.998,358.498z M357.998,352.23
				c-1.486,0-2.51,1.184-2.51,2.67c0,1.485,1.089,2.682,2.535,2.682c1.49,0,2.522-1.182,2.522-2.656
				C360.547,353.426,359.447,352.23,357.998,352.23z"/>
			<path fill="#939598" d="M371.297,351.33c1.58,0,2.551,1.062,2.551,2.762v4.248h-1.021v-4.01c0-1.328-0.664-2.07-1.778-2.07
				c-1.032,0-1.897,0.771-1.897,2.123v3.957h-1.01v-4.035c0-1.287-0.677-2.045-1.767-2.045c-1.087,0-1.912,0.902-1.912,2.162v3.918
				h-1.021v-6.863h1.021v1.154c0.453-0.676,1.062-1.301,2.22-1.301c1.112,0,1.829,0.596,2.202,1.367
				C369.371,351.941,370.102,351.33,371.297,351.33z"/>
			<path fill="#939598" d="M307.523,365.199h0.771v9.358h-1.035v-8.27l-1.752,0.545l-0.252-0.85L307.523,365.199z"/>
			<path fill="#939598" d="M312.275,365.199h0.77v9.358h-1.035v-8.27l-1.75,0.545l-0.252-0.85L312.275,365.199z"/>
			<path fill="#939598" d="M315.646,365.266h1.246v0.066l-1.074,3.543h-0.572L315.646,365.266z"/>
			<path fill="#939598" d="M322.375,374.717c-2.404,0-3.916-2.178-3.916-4.793c0-2.613,1.539-4.817,3.941-4.817
				c2.391,0,3.901,2.178,3.901,4.793C326.305,372.51,324.764,374.717,322.375,374.717z M322.375,366.062
				c-1.74,0-2.828,1.776-2.828,3.836c0,2.061,1.115,3.862,2.854,3.862c1.74,0,2.813-1.793,2.813-3.838
				C325.215,367.881,324.113,366.062,322.375,366.062z"/>
			<path fill="#939598" d="M328.385,365.266h1.233v0.066l-1.073,3.543h-0.561L328.385,365.266z M330.986,365.266h1.223v0.066
				l-1.074,3.543h-0.559L330.986,365.266z"/>
			<path fill="#939598" d="M344.045,374.559h-1.182l-2.124-2.801l-2.138,2.801h-1.142l2.695-3.491l-2.591-3.371h1.168l2.033,2.653
				l2.031-2.653h1.141l-2.602,3.348L344.045,374.559z"/>
			<path fill="#939598" d="M351.184,365.199h0.771v9.358h-1.035v-8.27l-1.752,0.545l-0.254-0.85L351.184,365.199z"/>
			<path fill="#939598" d="M360.036,365.199v6.278h1.446v0.878h-1.446v2.202h-1.011v-2.202h-4.896l-0.266-0.759l5.255-6.397H360.036
				L360.036,365.199z M359.027,366.686l-3.9,4.793h3.9V366.686z"/>
			<path fill="#939598" d="M363.457,365.266h1.25v0.066l-1.074,3.543h-0.572L363.457,365.266z"/>
			<path fill="#939598" d="M372.258,366.979c-0.689-0.584-1.342-0.915-2.189-0.915c-1.686,0-2.731,1.698-2.721,4.102
				c0.504-0.742,1.287-1.42,2.641-1.42c1.74,0,3.214,1.115,3.214,2.865c0,1.807-1.445,3.106-3.332,3.106
				c-1.021,0-1.859-0.356-2.44-0.945c-0.744-0.741-1.169-1.696-1.169-3.606c0-2.842,1.435-5.062,3.861-5.062
				c1.114,0,1.938,0.4,2.748,1.062L372.258,366.979z M369.854,369.646c-1.394,0-2.321,0.991-2.321,2.043
				c0,1.209,0.981,2.098,2.349,2.098c1.369,0,2.244-0.941,2.244-2.137C372.125,370.496,371.195,369.646,369.854,369.646z"/>
			<path fill="#939598" d="M375.297,365.266h1.232v0.066l-1.074,3.543h-0.559L375.297,365.266z M377.896,365.266h1.222v0.066
				l-1.075,3.543h-0.559L377.896,365.266z"/>
		</g>
		<g>
			<path fill="#939598" d="M109.037,348.984h1.048v8.321h5.23v0.97h-6.278V348.984z"/>
			<path fill="#939598" d="M117.105,349.912v-1.129h1.168v1.129H117.105z M117.171,358.275v-6.863h1.022v6.863H117.171z"/>
			<path fill="#939598" d="M125.652,351.412h1.102l-2.988,6.916h-0.9l-2.976-6.916h1.13l2.308,5.695L125.652,351.412z"/>
			<path fill="#939598" d="M128.386,349.912v-1.129h1.167v1.129H128.386z M128.452,358.275v-6.863h1.021v6.863H128.452z"/>
			<path fill="#939598" d="M132.871,358.275h-1.022v-6.863h1.022v1.197c0.451-0.744,1.167-1.343,2.35-1.343
				c1.659,0,2.63,1.115,2.63,2.748v4.263h-1.022v-4.011c0-1.272-0.69-2.069-1.899-2.069c-1.181,0-2.058,0.86-2.058,2.147
				L132.871,358.275L132.871,358.275z"/>
			<path fill="#939598" d="M143.063,360.424c-1.143,0-2.205-0.315-3.121-0.953l0.464-0.795c0.783,0.57,1.659,0.875,2.642,0.875
				c1.515,0,2.496-0.836,2.496-2.44v-0.812c-0.598,0.799-1.433,1.447-2.696,1.447c-1.646,0-3.225-1.221-3.225-3.228
				c0-2.018,1.591-3.252,3.225-3.252c1.288,0,2.124,0.638,2.682,1.384v-1.236h1.021v5.668
				C146.553,359.299,145.174,360.424,143.063,360.424z M143.048,352.168c-1.3,0-2.376,0.891-2.376,2.324
				c0,1.408,1.104,2.35,2.376,2.35c1.3,0,2.521-0.93,2.521-2.336C145.571,353.084,144.349,352.168,143.048,352.168z"/>
			<path fill="#939598" d="M154.516,347.68l-6.158,12.295h-0.943l6.16-12.295H154.516z"/>
			<path fill="#939598" d="M158.973,358.275h-3.224v-9.293h3.228c2.919,0,4.938,2.004,4.938,4.633
				C163.912,356.246,161.895,358.275,158.973,358.275z M158.973,349.953h-2.177v7.352h2.177c2.351,0,3.852-1.592,3.852-3.662
				C162.823,351.572,161.324,349.953,158.973,349.953z"/>
			<path fill="#939598" d="M165.979,349.912v-1.129h1.168v1.129H165.979z M166.047,358.275v-6.863h1.021v6.863H166.047z"/>
			<path fill="#939598" d="M170.466,358.275h-1.021v-6.863h1.021v1.197c0.451-0.744,1.168-1.343,2.35-1.343
				c1.658,0,2.629,1.115,2.629,2.748v4.263h-1.022v-4.011c0-1.272-0.689-2.069-1.898-2.069c-1.182,0-2.057,0.86-2.057,2.147
				L170.466,358.275L170.466,358.275z"/>
			<path fill="#939598" d="M177.644,349.912v-1.129h1.168v1.129H177.644z M177.709,358.275v-6.863h1.022v6.863H177.709z"/>
			<path fill="#939598" d="M182.128,358.275h-1.021v-6.863h1.021v1.197c0.452-0.744,1.168-1.343,2.351-1.343
				c1.658,0,2.628,1.115,2.628,2.748v4.263h-1.021v-4.011c0-1.272-0.689-2.069-1.897-2.069c-1.182,0-2.06,0.86-2.06,2.147
				L182.128,358.275L182.128,358.275z"/>
			<path fill="#939598" d="M192.322,360.424c-1.142,0-2.205-0.315-3.119-0.953l0.464-0.795c0.783,0.57,1.659,0.875,2.643,0.875
				c1.514,0,2.495-0.836,2.495-2.44v-0.812c-0.598,0.799-1.434,1.447-2.693,1.447c-1.647,0-3.228-1.221-3.228-3.228
				c0-2.018,1.595-3.252,3.228-3.252c1.287,0,2.122,0.638,2.68,1.384v-1.236h1.022v5.668
				C195.813,359.299,194.434,360.424,192.322,360.424z M192.309,352.168c-1.301,0-2.375,0.891-2.375,2.324
				c0,1.408,1.102,2.35,2.375,2.35c1.3,0,2.521-0.93,2.521-2.336C194.83,353.084,193.609,352.168,192.309,352.168z"/>
			<path fill="#939598" d="M208.646,358.275l-2.696-3.609h-2.654v3.609h-1.048v-9.293h3.996c2.043,0,3.357,1.104,3.357,2.774
				c0,1.553-1.062,2.455-2.522,2.721l2.854,3.798H208.646z M206.164,349.953h-2.867v3.77h2.854c1.395,0,2.39-0.717,2.39-1.926
				C208.538,350.643,207.663,349.953,206.164,349.953z"/>
			<path fill="#939598" d="M214.668,358.434c-2.057,0-3.559-1.618-3.559-3.569c0-1.949,1.514-3.597,3.584-3.597
				c2.06,0,3.572,1.617,3.572,3.568S216.74,358.434,214.668,358.434z M214.668,352.168c-1.486,0-2.508,1.184-2.508,2.67
				s1.089,2.682,2.535,2.682c1.486,0,2.521-1.182,2.521-2.655C217.218,353.363,216.117,352.168,214.668,352.168z"/>
			<path fill="#939598" d="M223.242,358.434c-2.059,0-3.559-1.618-3.559-3.569c0-1.949,1.512-3.597,3.584-3.597
				c2.059,0,3.57,1.617,3.57,3.568S225.312,358.434,223.242,358.434z M223.242,352.168c-1.488,0-2.508,1.184-2.508,2.67
				s1.086,2.682,2.533,2.682c1.485,0,2.521-1.182,2.521-2.655C225.79,353.363,224.688,352.168,223.242,352.168z"/>
			<path fill="#939598" d="M236.539,351.268c1.58,0,2.55,1.062,2.55,2.761v4.248h-1.021v-4.011c0-1.325-0.664-2.067-1.778-2.067
				c-1.036,0-1.899,0.768-1.899,2.121v3.957h-1.008v-4.035c0-1.287-0.677-2.043-1.766-2.043c-1.088,0-1.911,0.899-1.911,2.162v3.916
				h-1.022v-6.863h1.022v1.156c0.451-0.679,1.062-1.302,2.216-1.302c1.115,0,1.832,0.595,2.203,1.365
				C234.616,351.879,235.346,351.268,236.539,351.268z"/>
			<path fill="#939598" d="M150.671,365.135h0.771v9.359h-1.035v-8.271l-1.751,0.543l-0.253-0.848L150.671,365.135z"/>
			<path fill="#939598" d="M154.361,367.605l-0.77-0.56c0.836-1.246,1.713-1.979,3.346-1.979c1.687,0,2.881,1.112,2.881,2.641
				c0,1.369-0.715,2.207-2.351,3.627l-2.481,2.203h4.925v0.953h-6.492v-0.81l3.372-2.975c1.42-1.275,1.938-1.992,1.938-2.92
				c0-1.088-0.864-1.779-1.874-1.779C155.795,366.012,155.105,366.57,154.361,367.605z"/>
			<path fill="#939598" d="M161.992,365.203h1.247v0.065l-1.076,3.544h-0.57L161.992,365.203z"/>
			<path fill="#939598" d="M175.064,374.496h-1.182l-2.123-2.801l-2.138,2.801h-1.142l2.693-3.492l-2.587-3.371h1.167l2.03,2.654
				l2.03-2.654h1.142l-2.604,3.349L175.064,374.496z"/>
			<path fill="#939598" d="M180.716,366.145v-0.942h5.935v0.77l-2.92,3.238c1.633,0.133,3.066,0.916,3.066,2.629
				c0,1.672-1.379,2.812-3.104,2.812c-1.553,0-2.708-0.679-3.466-1.658l0.758-0.678c0.715,0.877,1.58,1.381,2.721,1.381
				c1.127,0,2.03-0.715,2.03-1.818c0-1.166-1.062-1.805-2.603-1.805h-0.597l-0.212-0.623l2.932-3.31h-4.54V366.145L180.716,366.145z
				"/>
			<path fill="#939598" d="M194.44,365.135v6.279h1.445v0.877h-1.445v2.203h-1.012v-2.203h-4.896l-0.267-0.758l5.258-6.398H194.44
				L194.44,365.135z M193.429,366.623l-3.9,4.793h3.9V366.623z"/>
			<path fill="#939598" d="M197.861,365.203h1.249v0.065l-1.076,3.544h-0.572L197.861,365.203z"/>
		</g>
	</g>
	<g id="windows">
		<g>
			<g>
				<rect x="291.842" y="466.893" fill="#FFFFFF" stroke="#939598" width="102.57" height="5.418"/>
				<line fill="none" stroke="#939598" x1="394.414" y1="469.574" x2="290.736" y2="469.574"/>
				<line fill="none" stroke="#939598" stroke-width="2" x1="360.979" y1="472.543" x2="360.979" y2="467.391"/>
			</g>
			<line fill="none" stroke="#939598" stroke-width="2" x1="326.492" y1="472.729" x2="326.492" y2="467.416"/>
		</g>
	</g>
</g>
</svg>
