<?xml version="1.0" encoding="utf-8"?>
<!-- Generator: Adobe Illustrator 15.0.2, SVG Export Plug-In . SVG Version: 6.00 Build 0)  -->
<!DOCTYPE svg PUBLIC "-//W3C//DTD SVG 1.1//EN" "http://www.w3.org/Graphics/SVG/1.1/DTD/svg11.dtd">
<svg version="1.1" xmlns="http://www.w3.org/2000/svg" xmlns:xlink="http://www.w3.org/1999/xlink" x="0px" y="0px"
	 width="460.816px" height="211.702px" viewBox="0 0 460.816 211.702" enable-background="new 0 0 460.816 211.702"
	 xml:space="preserve">
<g id="_x32_0_x25___PMS_2985_fill" display="none">
	<polygon display="inline" fill="#EBEEEF" points="2.713,19.591 2.713,210.258 448.175,210.258 448.175,180.258 458.713,180.258 
		458.713,16.924 236.198,16.924 236.198,8.258 98.584,8.258 98.584,18.258 	"/>
</g>
<g id="_x32_0_x25__grey_fill">
	<rect x="54.573" y="194.192" fill="#D1D3D4" width="24.474" height="15"/>
	<rect x="98.38" y="6.859" fill="#D1D3D4" width="49.688" height="15.27"/>
</g>
<g id="icons">
	<g>
		<g>
			<rect x="53.739" y="146.782" fill="#FFFFFF" stroke="#939598" width="23.625" height="45.693"/>
			<path fill="#FFFFFF" stroke="#939598" d="M65.551,169.63"/>
			<path fill="#FFFFFF" stroke="#939598" d="M65.551,169.786"/>
			<path fill="#FFFFFF" stroke="#939598" d="M65.551,185.278"/>
		</g>
		<circle fill="#FFFFFF" stroke="#939598" cx="65.663" cy="182.062" r="0.969"/>
		<path fill="#FFFFFF" stroke="#939598" d="M65.624,149.392c-6.771,0-9.25,1.562-9.25,3.752c0,0,0,32.838,0,33.375
			c0,0.535,0.145,1.641,1.561,1.641c1.418,0,7.689,0,7.689,0h0.016c0,0,6.272,0,7.69,0c1.416,0,1.561-1.105,1.561-1.641
			c0-0.537,0-33.354,0-33.354l-0.002-0.021C74.888,150.954,72.353,149.392,65.624,149.392z"/>
		<path fill="#FFFFFF" stroke="#939598" d="M63.631,189.858c0.002-0.549-0.44-0.988-0.995-0.988c-0.537,0-0.982,0.439-0.986,0.988
			c0.004,0.545,0.449,0.996,0.986,0.996C63.191,190.854,63.633,190.409,63.631,189.858z"/>
		<path fill="#FFFFFF" stroke="#939598" d="M69.772,189.858c0.006-0.549-0.445-0.988-0.99-0.988c-0.543,0-0.99,0.439-0.99,0.988
			c0,0.545,0.447,0.996,0.99,0.988C69.329,190.854,69.772,190.403,69.772,189.858z"/>
		<path fill="#FFFFFF" stroke="#939598" d="M64.33,190.151c0,0.812,0.549,1.469,1.361,1.471c0.811-0.002,1.253-0.658,1.253-1.471
			l-0.521-5.592c0-0.549-1.482-0.549-1.482,0L64.33,190.151z"/>
	</g>
	<g>
		<polygon fill="none" stroke="#939598" points="326.094,209.9 324.424,209.913 324.409,186.095 326.102,186.082 		"/>
		<path fill="none" stroke="#939598" d="M325.305,186.063c-13.113,0.445-23.383,11.289-22.936,24.402"/>
	</g>
	<g>
		<polygon fill="none" stroke="#939598" points="128.354,112.917 128.346,111.331 105.719,111.315 105.727,112.903 		"/>
		<path fill="none" stroke="#939598" d="M105.709,112.188c0.423-12.458,10.664-22.063,23.121-21.638"/>
	</g>
	<g>
		<polygon fill="none" stroke="#939598" points="49.002,144.795 47.333,144.782 47.317,168.601 49.009,168.613 		"/>
		<path fill="none" stroke="#939598" d="M48.213,168.632c-13.114-0.445-23.383-11.289-22.936-24.402"/>
	</g>
	<g>
		<g>
			<polygon fill="none" stroke="#939598" points="277.186,200.234 277.191,198.979 290.991,198.968 290.985,200.227 			"/>
			<path fill="none" stroke="#939598" d="M290.996,199.791c-0.256-7.598-6.503-13.547-14.1-13.287"/>
		</g>
		<g>
			<polygon fill="none" stroke="#939598" points="277.186,172.702 277.191,173.959 290.991,173.971 290.985,172.711 			"/>
			<path fill="none" stroke="#939598" d="M290.996,173.146c-0.256,7.598-6.503,13.547-14.1,13.287"/>
		</g>
	</g>
	<g>
		<polygon fill="none" stroke="#939598" points="87.355,144.795 89.025,144.782 89.041,168.601 87.348,168.613 		"/>
		<path fill="none" stroke="#939598" d="M88.144,168.632c13.114-0.445,23.383-11.289,22.936-24.402"/>
	</g>
	<g>
		<polygon fill="none" stroke="#939598" points="277.616,157.256 277.624,155.67 300.25,155.654 300.243,157.242 		"/>
		<path fill="none" stroke="#939598" d="M300.26,156.526c-0.423-12.458-10.664-22.214-23.121-21.788"/>
	</g>
	<g>
		<polygon fill="none" stroke="#939598" points="409.281,117.988 410.951,117.976 410.966,141.794 409.273,141.807 		"/>
		<path fill="none" stroke="#939598" d="M410.07,141.825c13.113-0.445,23.383-11.289,22.936-24.402"/>
	</g>
	<g>
		<polygon fill="none" stroke="#939598" points="335.528,148.261 336.7,147.071 353.553,163.902 352.366,165.108 		"/>
		<path fill="none" stroke="#939598" d="M352.942,164.559c8.957-9.587,8.551-24.517-1.037-33.474"/>
	</g>
	<g>
		<polygon fill="none" stroke="#939598" points="362.749,111.939 361.559,110.768 378.39,93.914 379.596,95.102 		"/>
		<path fill="none" stroke="#939598" d="M379.046,94.525c-9.587-8.957-24.517-8.551-33.474,1.037"/>
	</g>
	<g>
		<g>
			<g>
				<g>
					<rect x="254.834" y="135.858" fill="#FFFFFF" stroke="#939598" width="18.545" height="20.188"/>
					<path fill="#FFFFFF" stroke="#939598" d="M264.723,145.952"/>
					<polyline fill="#FFFFFF" stroke="#939598" points="267.846,139.827 270.667,139.827 271.326,142.265 271.326,149.733 
						270.667,152.202 267.846,152.202 					"/>
					<line fill="#FFFFFF" stroke="#939598" x1="267.846" y1="156.192" x2="267.846" y2="135.858"/>
					<path fill="#FFFFFF" stroke="#939598" d="M265.669,146.015"/>
				</g>
			</g>
		</g>
		<polygon fill="#FFFFFF" stroke="#939598" points="269.063,155.064 269.067,153.434 267.929,153.075 267.924,155.423 		"/>
	</g>
	<line fill="none" stroke="#939598" x1="265.45" y1="208.192" x2="265.45" y2="164.173"/>
	
		<line fill="none" stroke="#939598" stroke-dasharray="1.5,1.5,1.5,1.5,1.5,1.5" x1="263.085" y1="208.192" x2="263.085" y2="164.048"/>
	<polygon fill="#FFFFFF" stroke="#939598" points="21.672,175.524 21.672,144.858 4.13,144.858 4.13,175.858 	"/>
	<g>
		<path fill="#FFFFFF" stroke="#939598" stroke-miterlimit="10" d="M34.815,193.917c0-4.463,2.711-9.377,6.053-9.377
			s6.041,4.914,6.041,9.377s-2.699,6.785-6.041,6.785S34.815,198.38,34.815,193.917"/>
		<path fill="#FFFFFF" stroke="#939598" d="M34.815,193.917c0-4.463,2.711-9.377,6.053-9.377s6.041,4.914,6.041,9.377
			s-2.699,6.785-6.041,6.785S34.815,198.38,34.815,193.917z"/>
		<path fill="#FFFFFF" stroke="#939598" stroke-miterlimit="10" d="M44.491,199.239c0-0.25,0.205-0.455,0.455-0.455h2.107
			c0.25,0,0.455,0.205,0.455,0.455v0.076c0,0.25-0.205,0.455-0.455,0.455h-2.107c-0.25,0-0.455-0.205-0.455-0.455V199.239z"/>
		<path fill="#FFFFFF" stroke="#939598" d="M44.491,199.239c0-0.25,0.205-0.455,0.455-0.455h2.107c0.25,0,0.455,0.205,0.455,0.455
			v0.076c0,0.25-0.205,0.455-0.455,0.455h-2.107c-0.25,0-0.455-0.205-0.455-0.455V199.239z"/>
		<path fill="#FFFFFF" stroke="#939598" stroke-miterlimit="10" d="M47.829,199.782c0.758,0,1.375,2.057,1.375,2.816
			c0,0.77-0.617,2.826-1.375,2.826H34.014c-0.76,0-1.375-2.057-1.375-2.826c0-0.76,0.615-2.814,1.375-2.814L47.829,199.782z"/>
		<path fill="#FFFFFF" stroke="#939598" d="M47.829,199.782c0.758,0,1.375,2.057,1.375,2.816c0,0.77-0.617,2.826-1.375,2.826H34.014
			c-0.76,0-1.375-2.057-1.375-2.826c0-0.76,0.615-2.814,1.375-2.814L47.829,199.782z"/>
		<path fill="#FFFFFF" stroke="#939598" stroke-miterlimit="10" d="M36.418,193.729c0-3.279,1.992-6.893,4.449-6.893
			s4.447,3.613,4.447,6.893s-1.99,4.986-4.447,4.986S36.418,197.009,36.418,193.729"/>
		<path fill="#FFFFFF" stroke="#939598" d="M36.418,193.729c0-3.279,1.992-6.893,4.449-6.893s4.447,3.613,4.447,6.893
			s-1.99,4.986-4.447,4.986S36.418,197.009,36.418,193.729z"/>
	</g>
	<g>
		<g>
			<g>
				<path fill="none" stroke="#939598" d="M15.036,160.179"/>
			</g>
			<g>
				<path fill="none" stroke="#939598" d="M13.974,160.179"/>
			</g>
			<g>
				<circle fill="none" stroke="#939598" cx="15.036" cy="160.179" r="1.017"/>
				<path fill="none" stroke="#939598" d="M15.036,160.179"/>
			</g>
			<g>
				<g>
					<rect x="6.536" y="155.913" fill="none" stroke="#939598" width="2.125" height="8.553"/>
					<path fill="none" stroke="#939598" d="M7.599,160.179"/>
				</g>
				<g>
					<rect x="8.755" y="159.726" fill="none" stroke="#939598" width="4.031" height="0.906"/>
					<path fill="none" stroke="#939598" d="M10.427,160.179"/>
				</g>
				<g>
					<circle fill="none" stroke="#939598" cx="7.619" cy="160.179" r="0.986"/>
					<path fill="none" stroke="#939598" d="M7.619,160.179"/>
				</g>
			</g>
		</g>
		<g>
			<rect x="6.211" y="151.651" fill="none" stroke="#939598" width="13.875" height="17.076"/>
			<rect x="8.711" y="153.044" fill="none" stroke="#939598" width="9.98" height="14.256"/>
		</g>
	</g>
	<g>
		<g>
			<polygon fill="none" stroke="#939598" points="20.964,201.479 20.967,200.321 30.627,200.313 30.623,201.474 			"/>
			<path fill="none" stroke="#939598" d="M30.631,201.169c-0.179-5.318-4.552-9.482-9.87-9.301"/>
		</g>
		<g>
			<polygon fill="none" stroke="#939598" points="20.964,182.207 20.967,183.452 30.627,183.46 30.623,182.213 			"/>
			<path fill="none" stroke="#939598" d="M30.631,182.519c-0.179,5.318-4.552,9.482-9.87,9.301"/>
		</g>
	</g>
	<polyline fill="none" stroke="#939598" points="79.547,197.524 116.713,197.524 116.713,146.024 	"/>
	<polyline fill="none" stroke="#939598" stroke-dasharray="1.5,1.5,1.5,1.5,1.5,1.5" points="119.197,145.691 119.197,199.858 
		80.38,199.858 	"/>
	
		<line fill="none" stroke="#939598" stroke-dasharray="1.5,1.5,1.5,1.5,1.5,1.5" x1="446.713" y1="197.568" x2="406.546" y2="197.568"/>
	
		<line fill="none" stroke="#939598" stroke-dasharray="1.5,1.5,1.5,1.5,1.5,1.5" x1="448.88" y1="119.691" x2="448.88" y2="178.857"/>
	<line fill="none" stroke="#939598" x1="446.879" y1="195.525" x2="406.713" y2="195.525"/>
	<line fill="none" stroke="#939598" x1="446.826" y1="119.524" x2="446.826" y2="179.691"/>
	<g>
		<rect x="232.61" y="8.421" fill="none" stroke="#939598" width="2.875" height="2.875"/>
		<line fill="none" stroke="#939598" x1="146.222" y1="10.546" x2="232.61" y2="10.546"/>
		<line fill="none" stroke="#939598" x1="232.629" y1="11.296" x2="232.629" y2="16.94"/>
		<line fill="none" stroke="#939598" x1="235.485" y1="11.296" x2="235.485" y2="17.19"/>
		<line fill="none" stroke="#939598" x1="232.61" y1="8.421" x2="145.972" y2="8.421"/>
	</g>
	<polygon fill="#FFFFFF" stroke="#939598" points="367.962,207.92 367.962,189.252 331.326,189.252 331.326,208.101 	"/>
	<g>
		<path fill="#FFFFFF" stroke="#939598" stroke-miterlimit="10" d="M381.038,132.925c0,4.462,2.711,9.376,6.053,9.376
			s6.041-4.914,6.041-9.376c0-4.463-2.699-6.785-6.041-6.785S381.038,128.462,381.038,132.925"/>
		<path fill="#FFFFFF" stroke="#939598" d="M381.038,132.925c0,4.462,2.711,9.376,6.053,9.376s6.041-4.914,6.041-9.376
			c0-4.463-2.699-6.785-6.041-6.785S381.038,128.462,381.038,132.925z"/>
		<path fill="#FFFFFF" stroke="#939598" stroke-miterlimit="10" d="M390.713,127.603c0,0.25,0.205,0.455,0.455,0.455h2.107
			c0.25,0,0.455-0.205,0.455-0.455v-0.077c0-0.25-0.205-0.455-0.455-0.455h-2.107c-0.25,0-0.455,0.205-0.455,0.455V127.603z"/>
		<path fill="#FFFFFF" stroke="#939598" d="M390.713,127.603c0,0.25,0.205,0.455,0.455,0.455h2.107c0.25,0,0.455-0.205,0.455-0.455
			v-0.077c0-0.25-0.205-0.455-0.455-0.455h-2.107c-0.25,0-0.455,0.205-0.455,0.455V127.603z"/>
		<path fill="#FFFFFF" stroke="#939598" stroke-miterlimit="10" d="M394.051,127.059c0.758,0,1.375-2.057,1.375-2.816
			c0-0.769-0.617-2.825-1.375-2.825h-13.814c-0.76,0-1.375,2.057-1.375,2.825c0,0.76,0.615,2.814,1.375,2.814L394.051,127.059z"/>
		<path fill="#FFFFFF" stroke="#939598" d="M394.051,127.059c0.758,0,1.375-2.057,1.375-2.816c0-0.769-0.617-2.825-1.375-2.825
			h-13.814c-0.76,0-1.375,2.057-1.375,2.825c0,0.76,0.615,2.814,1.375,2.814L394.051,127.059z"/>
		<path fill="#FFFFFF" stroke="#939598" stroke-miterlimit="10" d="M382.641,133.111c0,3.279,1.992,6.893,4.449,6.893
			s4.447-3.613,4.447-6.893s-1.99-4.985-4.447-4.985S382.641,129.832,382.641,133.111"/>
		<path fill="#FFFFFF" stroke="#939598" d="M382.641,133.111c0,3.279,1.992,6.893,4.449,6.893s4.447-3.613,4.447-6.893
			s-1.99-4.985-4.447-4.985S382.641,129.832,382.641,133.111z"/>
	</g>
	<g>
		<g>
			<g>
				<path fill="none" stroke="#939598" d="M353.047,196.775"/>
			</g>
			<g>
				<path fill="none" stroke="#939598" d="M353.047,197.838"/>
			</g>
			<g>
				<circle fill="none" stroke="#939598" cx="353.047" cy="196.774" r="1.017"/>
				<path fill="none" stroke="#939598" d="M353.047,196.775"/>
			</g>
			<g>
				<g>
					<rect x="348.76" y="203.15" fill="none" stroke="#939598" width="8.553" height="2.125"/>
					<path fill="none" stroke="#939598" d="M353.047,204.213"/>
				</g>
				<g>
					<rect x="352.594" y="199.025" fill="none" stroke="#939598" width="0.906" height="4.031"/>
					<path fill="none" stroke="#939598" d="M353.047,201.385"/>
				</g>
				<g>
					<circle fill="none" stroke="#939598" cx="353.047" cy="204.191" r="0.986"/>
					<path fill="none" stroke="#939598" d="M353.047,204.191"/>
				</g>
			</g>
		</g>
		<g>
			<rect x="344.499" y="191.725" fill="none" stroke="#939598" width="17.076" height="13.875"/>
			<rect x="345.926" y="193.119" fill="none" stroke="#939598" width="14.256" height="9.98"/>
		</g>
	</g>
	<rect x="175.713" y="127.191" fill="#FFFFFF" stroke="#939598" width="47" height="23.334"/>
	<polyline fill="#FFFFFF" stroke="#939598" points="211.201,187.565 148.787,187.565 148.787,126.219 130.202,126.275 
		130.202,207.898 249.152,207.501 249.152,187.565 247.609,187.565 	"/>
	<g>
		<g>
			<rect x="131.255" y="148.382" fill="#FFFFFF" stroke="#939598" width="19.75" height="23.25"/>
			<path fill="#FFFFFF" stroke="#939598" d="M141.129,160.007"/>
		</g>
		<g>
			<g>
				<circle fill="#FFFFFF" stroke="#939598" cx="146.63" cy="165.323" r="2.824"/>
				<path fill="#FFFFFF" stroke="#939598" d="M146.63,165.323"/>
			</g>
			<g>
				<circle fill="#FFFFFF" stroke="#939598" stroke-width="0.8" cx="146.629" cy="165.351" r="1.989"/>
				<path fill="#FFFFFF" stroke="#939598" d="M146.63,165.351"/>
			</g>
		</g>
		<g>
			<g>
				<circle fill="#FFFFFF" stroke="#939598" cx="138.38" cy="154.036" r="2.824"/>
				<path fill="#FFFFFF" stroke="#939598" d="M138.38,154.036"/>
			</g>
			<g>
				<circle fill="#FFFFFF" stroke="#939598" stroke-width="0.8" cx="138.379" cy="154.007" r="1.989"/>
				<path fill="#FFFFFF" stroke="#939598" d="M138.38,154.007"/>
			</g>
		</g>
		<g>
			<g>
				<circle fill="#FFFFFF" stroke="#939598" cx="138.407" cy="165.36" r="3.219"/>
				<path fill="#FFFFFF" stroke="#939598" d="M138.407,165.36"/>
			</g>
			<g>
				<circle fill="#FFFFFF" stroke="#939598" stroke-width="0.8" cx="138.407" cy="165.329" r="2.267"/>
				<path fill="#FFFFFF" stroke="#939598" d="M138.407,165.329"/>
			</g>
		</g>
		<g>
			<g>
				<circle fill="#FFFFFF" stroke="#939598" cx="146.847" cy="154.048" r="3.219"/>
				<path fill="#FFFFFF" stroke="#939598" d="M146.847,154.048"/>
			</g>
			<g>
				<circle fill="#FFFFFF" stroke="#939598" stroke-width="0.8" cx="146.847" cy="154.017" r="2.268"/>
				<path fill="#FFFFFF" stroke="#939598" d="M146.847,154.017"/>
			</g>
		</g>
		<line fill="#FFFFFF" stroke="#939598" x1="133.987" y1="171.663" x2="133.987" y2="148.382"/>
		<line fill="#FFFFFF" stroke="#939598" x1="132.896" y1="171.632" x2="132.896" y2="148.382"/>
	</g>
	<g>
		<polyline fill="none" stroke="#939598" stroke-dasharray="1.5,1,1.5,1,1.5,1" points="160.089,186.396 160.089,204.265 
			177.615,204.265 177.615,186.796 		"/>
		<polyline fill="#FFFFFF" stroke="#939598" points="177.642,186.796 177.642,185.733 160.089,185.733 160.089,186.388 		"/>
	</g>
	<line fill="none" stroke="#939598" x1="236.371" y1="186.721" x2="236.371" y2="206.764"/>
	<g>
		<g>
			<g>
				<polygon fill="none" stroke="#939598" stroke-width="0.7" points="242.336,178.599 241.086,179.286 246.295,187.879 
					247.545,187.192 				"/>
				<path fill="none" stroke="#939598" stroke-width="0.8" d="M245.266,183.935"/>
			</g>
			<path fill="none" stroke="#939598" stroke-width="0.8" d="M241.858,179.013c-3.201,1.94-4.926,5.394-4.809,8.888"/>
		</g>
	</g>
	<g>
		<g>
			<path fill="#FFFFFF" stroke="#939598" d="M205.227,204.094c0.426,0,0.771-0.344,0.771-0.771v-13.445
				c0-0.426-0.346-0.771-0.771-0.771H182.42c-0.426,0-0.77,0.346-0.77,0.771v13.445c0,0.428,0.344,0.771,0.77,0.771H205.227z"/>
			<path fill="#FFFFFF" stroke="#939598" d="M193.905,197.182"/>
		</g>
		<g>
			<circle fill="#FFFFFF" stroke="#939598" cx="193.905" cy="196.271" r="0.871"/>
			<path fill="#FFFFFF" stroke="#939598" d="M193.905,196.271"/>
		</g>
		<g>
			<g>
				<rect x="190.1" y="201.737" fill="#FFFFFF" stroke="#939598" width="7.609" height="1.82"/>
				<path fill="#FFFFFF" stroke="#939598" d="M193.905,202.648"/>
			</g>
			<g>
				<rect x="193.516" y="198.199" fill="#FFFFFF" stroke="#939598" width="0.777" height="3.586"/>
				<path fill="#FFFFFF" stroke="#939598" d="M193.905,200.224"/>
			</g>
			<g>
				<circle fill="#FFFFFF" stroke="#939598" cx="193.905" cy="202.63" r="0.847"/>
				<path fill="#FFFFFF" stroke="#939598" d="M193.905,202.63"/>
			</g>
		</g>
		<g>
			<path fill="#FFFFFF" stroke="#939598" d="M193.905,196.271"/>
			<path fill="none" stroke="#939598" d="M194.375,201.108h9.588c0.447,0,0.811-0.362,0.811-0.81v-9.221
				c0-0.445-0.363-0.809-0.811-0.809h-20.279c-0.447,0-0.811,0.363-0.811,0.809v9.221c0,0.447,0.363,0.81,0.811,0.81h9.727"/>
		</g>
	</g>
	<g>
		<g>
			<g>
				<rect x="209.966" y="184.021" fill="#FFFFFF" stroke="#939598" width="24.903" height="21.969"/>
				<path fill="#FFFFFF" stroke="#939598" d="M223.707,195.005"/>
			</g>
			<line fill="#FFFFFF" stroke="#939598" x1="209.907" y1="185.557" x2="234.869" y2="185.557"/>
			<rect x="230.773" y="182.936" fill="#FFFFFF" stroke="#939598" width="2.018" height="1.069"/>
			<path fill="#FFFFFF" stroke="#939598" d="M231.781,183.529"/>
		</g>
	</g>
	<polyline fill="none" stroke="#939598" stroke-dasharray="1.5,1.5,1.5,1.5,1.5,1.5" points="138.713,125.858 138.713,197.858 
		236.213,197.858 	"/>
	<line fill="#FFFFFF" stroke="#939598" x1="18.713" y1="176.859" x2="18.713" y2="208.525"/>
	<g>
		<g>
			<g>
				<rect x="371.171" y="179.137" fill="#FFFFFF" stroke="#939598" width="33.206" height="27.754"/>
				<path fill="#FFFFFF" stroke="#939598" d="M388.086,192.991"/>
			</g>
			<g>
				<polyline fill="#FFFFFF" stroke="#939598" points="373.109,192.721 373.109,181.628 402.389,181.628 402.389,204.396 
					373.109,204.396 373.109,193.745 				"/>
				<path fill="#FFFFFF" stroke="#939598" d="M388.086,192.991"/>
			</g>
			<line fill="#FFFFFF" stroke="#939598" x1="373.109" y1="204.396" x2="387.04" y2="193.758"/>
			<line fill="#FFFFFF" stroke="#939598" x1="389.102" y1="192.185" x2="402.389" y2="181.628"/>
			<line fill="#FFFFFF" stroke="#939598" x1="402.389" y1="204.396" x2="389.221" y2="193.861"/>
			<line fill="#FFFFFF" stroke="#939598" x1="387.002" y1="192.156" x2="373.109" y2="181.628"/>
			<g>
				<path fill="#FFFFFF" stroke="#939598" d="M388.086,191.804c0.679,0,1.229,0.665,1.229,1.188c0,0.521-0.55,1.104-1.229,1.104
					c-0.677,0-1.229-0.583-1.229-1.104C386.858,192.469,387.41,191.804,388.086,191.804z"/>
				<path fill="#FFFFFF" stroke="#939598" d="M388.086,192.991"/>
			</g>
		</g>
		<path fill="#FFFFFF" stroke="#939598" d="M374.919,191.841c0.699,0,0.699,2.528,0,2.528s-1.264-0.566-1.264-1.265
			C373.656,192.405,374.22,191.841,374.919,191.841z"/>
		<polyline fill="#FFFFFF" stroke="#939598" points="371.16,193.366 373.579,193.366 373.579,192.661 371.158,192.661 		"/>
	</g>
	<line fill="none" stroke="#939598" x1="245.713" y1="22.944" x2="449.713" y2="22.944"/>
	<line fill="none" stroke="#939598" x1="96.014" y1="23.289" x2="20.681" y2="23.289"/>
</g>
<g id="walls">
	<polyline fill="none" stroke="#939598" stroke-width="5" points="151.821,18.452 148.175,18.452 148.068,21.333 97.131,21.333 
		97.131,6.192 148.135,6.192 148.188,18.452 	"/>
	<polyline fill="none" stroke="#939598" stroke-width="5" points="326.046,209.202 448.821,209.202 448.821,180.192 
		458.316,180.192 458.316,18.452 220.713,18.452 	"/>
	<polyline fill="none" stroke="#939598" stroke-width="5" points="96.052,18.452 2.5,18.452 2.5,209.202 302.635,209.202 	"/>
	<line fill="none" stroke="#939598" stroke-width="3" x1="128.047" y1="112.358" x2="128.047" y2="209.858"/>
	<line fill="none" stroke="#939598" stroke-width="3" x1="128.047" y1="21.858" x2="128.047" y2="90.407"/>
	<line fill="none" stroke="#939598" stroke-width="3" x1="22.713" y1="22.192" x2="4.38" y2="22.192"/>
	<line fill="none" stroke="#939598" stroke-width="3" x1="222.38" y1="22.02" x2="245.713" y2="22.02"/>
	<line fill="none" stroke="#939598" stroke-width="3" x1="445.713" y1="21.923" x2="457.713" y2="21.923"/>
	<line fill="none" stroke="#939598" stroke-width="3" x1="317.713" y1="22.031" x2="373.38" y2="22.117"/>
	<polyline fill="none" stroke="#939598" stroke-width="3" points="345.849,95.682 341.713,91.525 333.047,91.525 333.047,22.525 	
		"/>
	<polyline fill="none" stroke="#939598" stroke-width="3" points="408.853,118.192 368.38,118.192 363.044,111.939 	"/>
	<line fill="none" stroke="#939598" stroke-width="3" x1="457.713" y1="118.192" x2="432.713" y2="118.192"/>
	<line fill="none" stroke="#939598" stroke-width="3" x1="351.947" y1="131.578" x2="366.38" y2="116.525"/>
	<polyline fill="none" stroke="#939598" stroke-width="3" points="331.713,207.525 331.713,152.858 335.788,148.588 	"/>
	<line fill="none" stroke="#939598" stroke-width="3" x1="369.38" y1="178.345" x2="369.38" y2="209.192"/>
	<polyline fill="none" stroke="#939598" stroke-width="3" points="401.047,117.858 401.047,146.192 406.047,150.858 
		406.047,207.858 	"/>
	<line fill="none" stroke="#939598" stroke-width="3" x1="277.713" y1="200.192" x2="277.713" y2="208.858"/>
	<line fill="none" stroke="#939598" stroke-width="3" x1="277.713" y1="157.665" x2="277.713" y2="173.108"/>
	<polyline fill="none" stroke="#939598" stroke-width="3" points="251.38,162.858 251.38,128.525 277.713,128.525 277.713,135.192 	
		"/>
	<line fill="none" stroke="#939598" stroke-width="3" x1="251.38" y1="208.192" x2="251.38" y2="162.858"/>
	<line fill="none" stroke="#939598" stroke-width="3" x1="110.749" y1="144.858" x2="128.713" y2="144.858"/>
	<line fill="none" stroke="#939598" stroke-width="3" x1="48.963" y1="144.858" x2="87.713" y2="144.858"/>
	<line fill="none" stroke="#939598" stroke-width="3" x1="4.13" y1="144.858" x2="25.755" y2="144.858"/>
	<line fill="none" stroke="#939598" stroke-width="3" x1="79.047" y1="144.858" x2="79.047" y2="209.192"/>
	<polyline fill="none" stroke="#939598" stroke-width="3" points="54.573,207.192 54.573,194.192 78.713,194.192 	"/>
	<line fill="none" stroke="#939598" stroke-width="3" x1="278.38" y1="163.858" x2="250.713" y2="163.858"/>
	<polyline fill="none" stroke="#939598" stroke-width="2" points="21.038,182.358 21.038,175.733 4.13,175.858 	"/>
	<line fill="none" stroke="#939598" stroke-width="2" x1="21.038" y1="208.233" x2="21.038" y2="201.608"/>
	<g>
		<rect x="184.297" y="16.583" fill="none" stroke="#939598" width="37.5" height="1.766"/>
		<rect x="152.047" y="18.484" fill="none" stroke="#939598" width="41" height="1.938"/>
	</g>
</g>
<g id="Type">
	<g>
		<path fill="#939598" d="M259.13,150.519v-0.455l4.098-1.345l-4.083-1.4v-0.582l4.938,1.751v0.47l-3.979,1.345l3.979,1.352v0.462
			l-4.938,1.751v-0.603l4.083-1.4L259.13,150.519z"/>
		<path fill="#939598" d="M258.458,143.533l6.485,3.25v0.497l-6.485-3.25V143.533z"/>
		<path fill="#939598" d="M264.047,141.182v1.702h-4.902v-1.702c0-1.54,1.058-2.604,2.444-2.604S264.047,139.642,264.047,141.182z
			 M259.656,141.182v1.149h3.88v-1.149c0-1.239-0.84-2.03-1.933-2.03S259.656,139.942,259.656,141.182z"/>
	</g>
	<g>
		<path fill="#939598" d="M274.845,194.592c0,1.415-1.113,2.458-2.528,2.458c-1.4,0-2.542-1.036-2.542-2.479
			c0-0.89,0.314-1.422,0.777-1.912l0.406,0.378c-0.393,0.413-0.673,0.875-0.673,1.541c0,1.085,0.876,1.897,2.018,1.897
			s2.031-0.819,2.031-1.897c0-0.673-0.26-1.114-0.708-1.583l0.357-0.364C274.502,193.143,274.845,193.702,274.845,194.592z"/>
		<path fill="#939598" d="M274.761,191.709h-5.112v-0.539h5.112V191.709z"/>
		<path fill="#939598" d="M274.845,188.265c0,1.085-0.854,1.877-1.884,1.877s-1.898-0.799-1.898-1.892
			c0-1.085,0.854-1.884,1.884-1.884C273.977,186.366,274.845,187.172,274.845,188.265z M271.54,188.265
			c0,0.784,0.623,1.323,1.407,1.323c0.785,0,1.415-0.574,1.415-1.338c0-0.784-0.623-1.33-1.4-1.33
			C272.169,186.92,271.54,187.501,271.54,188.265z"/>
		<path fill="#939598" d="M274.832,184.197c0,0.519-0.203,1.093-0.532,1.499l-0.386-0.272c0.294-0.393,0.463-0.827,0.463-1.254
			c0-0.435-0.225-0.75-0.575-0.75h-0.014c-0.364,0-0.504,0.428-0.638,0.904c-0.16,0.566-0.356,1.197-1.022,1.197h-0.014
			c-0.623,0-1.036-0.519-1.036-1.232c0-0.441,0.153-0.932,0.398-1.303l0.406,0.245c-0.217,0.336-0.35,0.721-0.35,1.071
			c0,0.428,0.224,0.7,0.525,0.7h0.014c0.343,0,0.477-0.448,0.623-0.932c0.168-0.56,0.386-1.162,1.037-1.162h0.014
			C274.432,182.909,274.832,183.477,274.832,184.197z"/>
		<path fill="#939598" d="M274.376,180.312c0-0.497-0.203-0.848-0.512-1.142l0.301-0.336c0.406,0.364,0.68,0.806,0.68,1.491
			c0,0.995-0.764,1.808-1.891,1.808c-1.051,0-1.892-0.735-1.892-1.737c0-1.071,0.854-1.688,1.919-1.688c0.05,0,0.105,0,0.168,0.007
			v2.871C273.935,181.511,274.376,180.95,274.376,180.312z M272.751,179.255c-0.658,0.057-1.233,0.435-1.233,1.156
			c0,0.63,0.525,1.106,1.233,1.176V179.255z"/>
		<path fill="#939598" d="M273.732,177.037c0.441,0,0.603-0.245,0.603-0.609c0-0.182-0.035-0.336-0.127-0.525h0.463
			c0.098,0.189,0.154,0.393,0.154,0.651c0,0.581-0.287,1.022-1.023,1.022h-2.185v0.505h-0.477v-0.505h-1.093v-0.539h1.093v-1.148
			h0.477v1.148H273.732z"/>
	</g>
	<g>
		<path fill="#939598" d="M32.91,172.786c0,0.828-0.504,1.252-0.999,1.468c0.747,0.225,1.351,0.657,1.351,1.53
			c0,1.089-0.91,1.729-2.287,1.729h-2.8v-6.302h2.683C32.1,171.211,32.91,171.823,32.91,172.786z M32.189,172.886
			c0-0.631-0.495-1.036-1.395-1.036h-1.918v2.17h1.864C31.596,174.02,32.189,173.633,32.189,172.886z M32.541,175.739
			c0-0.693-0.576-1.09-1.674-1.09h-1.99v2.224h2.116C31.947,176.873,32.541,176.45,32.541,175.739z"/>
		<path fill="#939598" d="M34.825,173.75l-0.207-0.567c0.513-0.234,1.018-0.388,1.693-0.388c1.269,0,1.98,0.648,1.98,1.873v2.845
			h-0.667v-0.702c-0.324,0.423-0.864,0.801-1.683,0.801c-0.864,0-1.738-0.485-1.738-1.458c0-0.99,0.811-1.513,1.99-1.513
			c0.594,0,1.017,0.081,1.431,0.198v-0.162c0-0.837-0.513-1.27-1.386-1.27C35.689,173.407,35.257,173.552,34.825,173.75z
			 M34.906,176.126c0,0.595,0.541,0.937,1.17,0.937c0.855,0,1.558-0.522,1.558-1.261v-0.449c-0.342-0.1-0.801-0.198-1.369-0.198
			C35.393,175.154,34.906,175.532,34.906,176.126z"/>
		<path fill="#939598" d="M40.659,176.189c0,0.567,0.315,0.774,0.783,0.774c0.234,0,0.432-0.045,0.675-0.162v0.594
			c-0.243,0.126-0.504,0.198-0.837,0.198c-0.747,0-1.314-0.369-1.314-1.314v-2.809h-0.648v-0.612h0.648v-1.404h0.693v1.404h1.477
			v0.612h-1.477V176.189z"/>
		<path fill="#939598" d="M44.051,177.513h-0.693v-6.572h0.693v2.729c0.306-0.505,0.792-0.91,1.594-0.91
			c1.125,0,1.782,0.757,1.782,1.864v2.89h-0.693v-2.719c0-0.864-0.468-1.404-1.288-1.404c-0.801,0-1.396,0.585-1.396,1.458V177.513z
			"/>
	</g>
	<g>
		<path fill="#939598" d="M90.536,182.783c-1.415,0-2.458-1.113-2.458-2.528c0-1.4,1.037-2.542,2.479-2.542
			c0.889,0,1.422,0.314,1.912,0.777l-0.378,0.406c-0.413-0.393-0.875-0.673-1.541-0.673c-1.085,0-1.898,0.876-1.898,2.018
			s0.819,2.031,1.898,2.031c0.672,0,1.114-0.26,1.583-0.708l0.364,0.357C91.985,182.44,91.425,182.783,90.536,182.783z"/>
		<path fill="#939598" d="M93.418,182.699v-5.112h0.539v5.112H93.418z"/>
		<path fill="#939598" d="M96.863,182.783c-1.085,0-1.877-0.854-1.877-1.884s0.798-1.898,1.891-1.898
			c1.085,0,1.884,0.854,1.884,1.884C98.761,181.915,97.956,182.783,96.863,182.783z M96.863,179.478
			c-0.784,0-1.324,0.623-1.324,1.407c0,0.785,0.575,1.415,1.338,1.415c0.785,0,1.331-0.623,1.331-1.4
			C98.208,180.107,97.626,179.478,96.863,179.478z"/>
		<path fill="#939598" d="M100.93,182.77c-0.518,0-1.093-0.203-1.499-0.532l0.273-0.386c0.392,0.294,0.826,0.463,1.253,0.463
			c0.435,0,0.75-0.225,0.75-0.575v-0.014c0-0.364-0.427-0.504-0.903-0.638c-0.567-0.16-1.198-0.356-1.198-1.022v-0.014
			c0-0.623,0.519-1.036,1.233-1.036c0.441,0,0.931,0.153,1.303,0.398l-0.246,0.406c-0.336-0.217-0.721-0.35-1.071-0.35
			c-0.427,0-0.7,0.224-0.7,0.525v0.014c0,0.343,0.448,0.477,0.931,0.623c0.561,0.168,1.163,0.386,1.163,1.037v0.014
			C102.218,182.37,101.651,182.77,100.93,182.77z"/>
		<path fill="#939598" d="M104.815,182.314c0.497,0,0.847-0.203,1.142-0.512l0.336,0.301c-0.364,0.406-0.805,0.68-1.492,0.68
			c-0.995,0-1.807-0.764-1.807-1.891c0-1.051,0.735-1.892,1.737-1.892c1.071,0,1.688,0.854,1.688,1.919c0,0.05,0,0.105-0.007,0.168
			h-2.872C103.617,181.873,104.177,182.314,104.815,182.314z M105.873,180.689c-0.056-0.658-0.435-1.233-1.156-1.233
			c-0.63,0-1.106,0.525-1.177,1.233H105.873z"/>
		<path fill="#939598" d="M108.09,181.67c0,0.441,0.245,0.603,0.609,0.603c0.182,0,0.336-0.035,0.525-0.127v0.463
			c-0.189,0.098-0.393,0.154-0.651,0.154c-0.582,0-1.022-0.287-1.022-1.023v-2.185h-0.504v-0.477h0.504v-1.093h0.539v1.093h1.148
			v0.477h-1.148V181.67z"/>
	</g>
	<g>
		<path fill="#939598" d="M168.502,6.02c-0.735,0-1.205-0.364-1.513-0.868l0.399-0.343c0.301,0.455,0.609,0.7,1.121,0.7
			c0.553,0,0.959-0.399,0.959-1.176V1.047h0.561v3.278C170.029,5.453,169.378,6.02,168.502,6.02z"/>
		<path fill="#939598" d="M173.816,2.329h0.532V5.95h-0.532v-0.63c-0.245,0.392-0.616,0.708-1.24,0.708
			c-0.875,0-1.387-0.588-1.387-1.45V2.329h0.54v2.115c0,0.672,0.364,1.093,1.001,1.093c0.616,0,1.085-0.456,1.085-1.135V2.329z"/>
		<path fill="#939598" d="M175.606,5.95V0.837h0.54V5.95H175.606z"/>
		<path fill="#939598" d="M177.413,1.537V0.942h0.616v0.595H177.413z M177.448,5.95V2.329h0.539V5.95H177.448z"/>
		<path fill="#939598" d="M180.836,5.564c0.497,0,0.847-0.203,1.142-0.511l0.336,0.301c-0.364,0.406-0.805,0.679-1.492,0.679
			c-0.995,0-1.807-0.763-1.807-1.891c0-1.05,0.735-1.891,1.737-1.891c1.071,0,1.688,0.854,1.688,1.919c0,0.049,0,0.105-0.007,0.168
			h-2.872C179.639,5.123,180.199,5.564,180.836,5.564z M181.894,3.939c-0.056-0.658-0.435-1.232-1.156-1.232
			c-0.63,0-1.106,0.525-1.177,1.232H181.894z"/>
		<path fill="#939598" d="M184.112,4.92c0,0.441,0.245,0.603,0.609,0.603c0.182,0,0.336-0.035,0.525-0.126v0.462
			c-0.189,0.098-0.393,0.154-0.651,0.154c-0.582,0-1.022-0.287-1.022-1.022V2.805h-0.504V2.329h0.504V1.236h0.539v1.092h1.148v0.477
			h-1.148V4.92z"/>
		<path fill="#939598" d="M192.086,2.273c0,0.644-0.392,0.973-0.777,1.142c0.581,0.175,1.05,0.511,1.05,1.19
			c0,0.848-0.708,1.345-1.779,1.345h-2.178V1.047h2.087C191.456,1.047,192.086,1.523,192.086,2.273z M191.526,2.35
			c0-0.49-0.385-0.805-1.085-0.805h-1.492v1.688h1.45C191.064,3.232,191.526,2.931,191.526,2.35z M191.799,4.57
			c0-0.539-0.448-0.847-1.303-0.847h-1.548v1.73h1.646C191.337,5.453,191.799,5.123,191.799,4.57z"/>
		<path fill="#939598" d="M193.575,3.022l-0.161-0.441c0.399-0.182,0.792-0.301,1.317-0.301c0.987,0,1.541,0.504,1.541,1.457V5.95
			h-0.519V5.403c-0.252,0.329-0.672,0.624-1.31,0.624c-0.672,0-1.352-0.378-1.352-1.135c0-0.771,0.63-1.177,1.548-1.177
			c0.462,0,0.792,0.063,1.114,0.154V3.744c0-0.651-0.399-0.988-1.079-0.988C194.248,2.756,193.912,2.868,193.575,3.022z
			 M193.638,4.871c0,0.462,0.42,0.729,0.911,0.729c0.666,0,1.211-0.406,1.211-0.98V4.269c-0.266-0.077-0.623-0.154-1.064-0.154
			C194.017,4.115,193.638,4.409,193.638,4.871z"/>
		<path fill="#939598" d="M197.467,5.95V0.837h0.539V5.95H197.467z"/>
		<path fill="#939598" d="M200.891,6.034c-1.058,0-1.856-0.861-1.856-1.884c0-1.03,0.799-1.898,1.856-1.898
			c0.686,0,1.113,0.287,1.45,0.644l-0.357,0.378c-0.287-0.301-0.609-0.546-1.1-0.546c-0.735,0-1.295,0.623-1.295,1.408
			c0,0.792,0.574,1.415,1.331,1.415c0.462,0,0.819-0.231,1.106-0.539l0.343,0.322C202.004,5.74,201.57,6.034,200.891,6.034z"/>
		<path fill="#939598" d="M204.805,6.034c-1.085,0-1.877-0.854-1.877-1.884c0-1.03,0.798-1.898,1.891-1.898
			c1.085,0,1.884,0.854,1.884,1.884C206.703,5.165,205.897,6.034,204.805,6.034z M204.805,2.728c-0.785,0-1.324,0.623-1.324,1.408
			c0,0.784,0.574,1.415,1.338,1.415c0.784,0,1.331-0.623,1.331-1.4C206.149,3.358,205.568,2.728,204.805,2.728z"/>
		<path fill="#939598" d="M208.213,5.95h-0.539V2.329h0.539v0.63c0.238-0.392,0.617-0.707,1.24-0.707
			c0.875,0,1.387,0.588,1.387,1.45V5.95H210.3V3.834c0-0.672-0.364-1.092-1.001-1.092c-0.624,0-1.086,0.455-1.086,1.134V5.95z"/>
		<path fill="#939598" d="M213.646,6.069c-0.308,0.75-0.658,1.022-1.205,1.022c-0.301,0-0.525-0.063-0.771-0.182l0.182-0.427
			c0.175,0.091,0.336,0.133,0.567,0.133c0.322,0,0.525-0.168,0.742-0.68l-1.646-3.607h0.596l1.316,3.019l1.163-3.019h0.574
			L213.646,6.069z"/>
	</g>
	<g>
		<path fill="#939598" d="M369.268,158.969c0,0.828-0.505,1.252-1,1.468c0.748,0.225,1.351,0.657,1.351,1.53
			c0,1.089-0.909,1.729-2.286,1.729h-2.8v-6.302h2.683C368.458,157.394,369.268,158.006,369.268,158.969z M368.547,159.068
			c0-0.631-0.495-1.036-1.396-1.036h-1.917v2.17h1.863C367.954,160.202,368.547,159.815,368.547,159.068z M368.899,161.922
			c0-0.693-0.576-1.09-1.675-1.09h-1.989v2.224h2.115C368.304,163.056,368.899,162.633,368.899,161.922z"/>
		<path fill="#939598" d="M371.183,159.933l-0.207-0.567c0.514-0.234,1.018-0.388,1.692-0.388c1.27,0,1.98,0.648,1.98,1.873v2.845
			h-0.666v-0.702c-0.324,0.423-0.864,0.801-1.684,0.801c-0.864,0-1.737-0.485-1.737-1.458c0-0.99,0.811-1.513,1.989-1.513
			c0.595,0,1.018,0.081,1.432,0.198v-0.162c0-0.837-0.513-1.27-1.386-1.27C372.047,159.59,371.616,159.734,371.183,159.933z
			 M371.264,162.309c0,0.595,0.54,0.937,1.171,0.937c0.854,0,1.557-0.522,1.557-1.261v-0.45c-0.342-0.099-0.801-0.197-1.368-0.197
			C371.75,161.337,371.264,161.715,371.264,162.309z"/>
		<path fill="#939598" d="M377.016,162.372c0,0.567,0.315,0.774,0.783,0.774c0.234,0,0.433-0.045,0.676-0.162v0.594
			c-0.243,0.126-0.504,0.198-0.838,0.198c-0.747,0-1.313-0.369-1.313-1.314v-2.809h-0.648v-0.612h0.648v-1.404h0.692v1.404h1.477
			v0.612h-1.477V162.372z"/>
		<path fill="#939598" d="M380.41,163.695h-0.693v-6.572h0.693v2.729c0.306-0.505,0.792-0.909,1.593-0.909
			c1.126,0,1.783,0.756,1.783,1.863v2.89h-0.693v-2.719c0-0.864-0.469-1.404-1.287-1.404c-0.802,0-1.396,0.585-1.396,1.458V163.695z
			"/>
	</g>
	<g>
		<path fill="#939598" d="M221.227,193.032l-1.422-1.905h-1.4v1.905h-0.554v-4.902h2.108c1.079,0,1.772,0.581,1.772,1.464
			c0,0.819-0.561,1.295-1.331,1.436l1.505,2.003H221.227z M219.917,188.641h-1.513v1.989h1.505c0.736,0,1.261-0.378,1.261-1.016
			C221.17,189.005,220.708,188.641,219.917,188.641z"/>
		<path fill="#939598" d="M224.348,192.647c0.497,0,0.847-0.203,1.142-0.512l0.336,0.301c-0.364,0.406-0.805,0.68-1.492,0.68
			c-0.995,0-1.807-0.764-1.807-1.891c0-1.051,0.735-1.892,1.737-1.892c1.072,0,1.688,0.854,1.688,1.919c0,0.05,0,0.105-0.007,0.168
			h-2.872C223.15,192.206,223.71,192.647,224.348,192.647z M225.405,191.022c-0.056-0.658-0.435-1.233-1.156-1.233
			c-0.63,0-1.107,0.525-1.177,1.233H225.405z"/>
		<path fill="#939598" d="M228.779,189.425v0.463h-1.142v3.145h-0.539v-3.145h-0.498v-0.47h0.498v-0.314
			c0-0.792,0.398-1.212,1.092-1.212c0.253,0,0.421,0.028,0.596,0.091v0.47c-0.196-0.057-0.343-0.092-0.525-0.092
			c-0.42,0-0.63,0.253-0.63,0.771v0.294H228.779z"/>
	</g>
	<g>
		<path fill="#939598" d="M164.445,195.115h-1.702v-4.902h1.702c1.541,0,2.605,1.058,2.605,2.444S165.986,195.115,164.445,195.115z
			 M164.445,190.724h-1.149v3.88h1.149c1.239,0,2.031-0.84,2.031-1.933S165.685,190.724,164.445,190.724z"/>
		<path fill="#939598" d="M170.936,190.198h0.455l1.345,4.098l1.401-4.083h0.582l-1.751,4.938h-0.469l-1.345-3.979l-1.352,3.979
			h-0.462l-1.751-4.938h0.602l1.401,4.083L170.936,190.198z"/>
	</g>
	<g>
		<path fill="#939598" d="M243.958,202.83v0.952h1.383v0.442h-3.92v-1.467c0-0.885,0.471-1.468,1.249-1.468
			C243.52,201.29,243.958,201.996,243.958,202.83z M241.83,202.791v0.991h1.725v-0.969c0-0.649-0.348-1.075-0.868-1.075
			C242.121,201.738,241.83,202.158,241.83,202.791z"/>
		<path fill="#939598" d="M243,200.557l-0.353,0.129c-0.146-0.319-0.241-0.633-0.241-1.053c0-0.789,0.403-1.231,1.165-1.231h1.77
			v0.414h-0.437c0.263,0.201,0.498,0.537,0.498,1.047c0,0.538-0.303,1.081-0.907,1.081c-0.616,0-0.94-0.504-0.94-1.237
			c0-0.37,0.05-0.633,0.123-0.891h-0.101c-0.521,0-0.79,0.319-0.79,0.862C242.787,200.02,242.876,200.288,243,200.557z
			 M244.478,200.507c0.369,0,0.582-0.336,0.582-0.729c0-0.532-0.324-0.969-0.784-0.969h-0.279c-0.062,0.213-0.123,0.499-0.123,0.852
			C243.874,200.204,244.108,200.507,244.478,200.507z"/>
		<path fill="#939598" d="M245.34,197.22v0.431h-2.896v-0.431h0.504c-0.313-0.19-0.565-0.493-0.565-0.991
			c0-0.7,0.471-1.109,1.159-1.109h1.798v0.432h-1.691c-0.537,0-0.873,0.291-0.873,0.801c0,0.498,0.363,0.868,0.907,0.868H245.34z"/>
		<path fill="#939598" d="M244.517,193.786c0.353,0,0.481-0.195,0.481-0.486c0-0.146-0.027-0.27-0.101-0.421h0.369
			c0.079,0.151,0.124,0.314,0.124,0.521c0,0.465-0.23,0.817-0.818,0.817h-1.747v0.403h-0.381v-0.403h-0.873v-0.432h0.873v-0.918
			h0.381v0.918H244.517z"/>
		<path fill="#939598" d="M245.34,191.844v0.431h-2.896v-0.431h0.756c-0.481-0.213-0.828-0.633-0.806-1.182h0.465v0.033
			c0,0.633,0.453,1.148,1.327,1.148H245.34z"/>
		<path fill="#939598" d="M245.435,188.764c0.6,0.246,0.818,0.526,0.818,0.963c0,0.241-0.051,0.42-0.146,0.616l-0.342-0.146
			c0.072-0.141,0.106-0.27,0.106-0.454c0-0.258-0.135-0.42-0.543-0.594l-2.885,1.316v-0.476l2.414-1.053l-2.414-0.93v-0.46
			L245.435,188.764z"/>
	</g>
	<g>
		<path fill="#939598" d="M8.858,199.978v-0.553h4.392v-2.76h0.511v3.312H8.858z"/>
		<path fill="#939598" d="M9.349,195.722H8.753v-0.616h0.595V195.722z M13.761,195.687H10.14v-0.539h3.621V195.687z"/>
		<path fill="#939598" d="M13.761,193.355v0.539H10.14v-0.539h0.63c-0.392-0.238-0.708-0.616-0.708-1.239
			c0-0.876,0.588-1.387,1.45-1.387h2.248v0.539h-2.115c-0.672,0-1.092,0.364-1.092,1.002c0,0.623,0.455,1.085,1.134,1.085H13.761z"
			/>
		<path fill="#939598" d="M13.376,187.986c0-0.497-0.203-0.848-0.511-1.142l0.301-0.337c0.406,0.364,0.679,0.806,0.679,1.492
			c0,0.994-0.763,1.807-1.891,1.807c-1.05,0-1.891-0.735-1.891-1.736c0-1.071,0.854-1.688,1.919-1.688c0.049,0,0.105,0,0.168,0.008
			v2.871C12.935,189.184,13.376,188.623,13.376,187.986z M11.751,186.929c-0.658,0.056-1.232,0.434-1.232,1.155
			c0,0.631,0.525,1.106,1.232,1.177V186.929z"/>
		<path fill="#939598" d="M13.761,184.899v0.54H10.14v-0.54h0.63c-0.392-0.238-0.708-0.616-0.708-1.239
			c0-0.876,0.588-1.387,1.45-1.387h2.248v0.539h-2.115c-0.672,0-1.092,0.364-1.092,1.002c0,0.623,0.455,1.085,1.134,1.085H13.761z"
			/>
	</g>
	<g>
		<path fill="#939598" d="M190.207,165.346h-0.891l-2.422-3.052l-1.341,1.359v1.692h-0.711v-6.302h0.711v3.763l3.619-3.763h0.918
			l-2.701,2.755L190.207,165.346z"/>
		<path fill="#939598" d="M191.213,159.674v-0.765h0.792v0.765H191.213z M191.258,165.346v-4.654h0.693v4.654H191.258z"/>
		<path fill="#939598" d="M194.499,164.022c0,0.567,0.315,0.774,0.783,0.774c0.234,0,0.432-0.045,0.675-0.162v0.594
			c-0.243,0.126-0.504,0.198-0.837,0.198c-0.747,0-1.314-0.369-1.314-1.314v-2.809h-0.648v-0.612h0.648v-1.404h0.693v1.404h1.477
			v0.612h-1.477V164.022z"/>
		<path fill="#939598" d="M199.162,165.454c-1.359,0-2.386-1.107-2.386-2.422c0-1.323,1.026-2.439,2.386-2.439
			c0.882,0,1.432,0.368,1.864,0.828l-0.459,0.485c-0.369-0.387-0.784-0.702-1.414-0.702c-0.945,0-1.666,0.802-1.666,1.81
			c0,1.018,0.738,1.819,1.71,1.819c0.594,0,1.053-0.298,1.422-0.693l0.441,0.414C200.593,165.075,200.035,165.454,199.162,165.454z"
			/>
		<path fill="#939598" d="M202.896,165.346h-0.693v-6.572h0.693v2.729c0.306-0.505,0.792-0.909,1.593-0.909
			c1.125,0,1.783,0.756,1.783,1.863v2.89h-0.693v-2.719c0-0.864-0.468-1.404-1.288-1.404c-0.801,0-1.395,0.585-1.395,1.458V165.346z
			"/>
		<path fill="#939598" d="M209.8,164.851c0.639,0,1.089-0.261,1.467-0.657l0.432,0.387c-0.468,0.522-1.035,0.874-1.917,0.874
			c-1.278,0-2.323-0.981-2.323-2.431c0-1.351,0.945-2.431,2.233-2.431c1.377,0,2.169,1.098,2.169,2.466c0,0.063,0,0.136-0.009,0.217
			h-3.691C208.26,164.283,208.98,164.851,209.8,164.851z M211.159,162.762c-0.072-0.846-0.558-1.584-1.485-1.584
			c-0.811,0-1.422,0.675-1.513,1.584H211.159z"/>
		<path fill="#939598" d="M213.768,165.346h-0.693v-4.654h0.693v0.811c0.306-0.505,0.792-0.909,1.594-0.909
			c1.125,0,1.782,0.756,1.782,1.863v2.89h-0.693v-2.719c0-0.864-0.468-1.404-1.288-1.404c-0.801,0-1.396,0.585-1.396,1.458V165.346z
			"/>
	</g>
	<g>
		<path fill="#939598" d="M420.203,161.117c-1.415,0-2.458-1.113-2.458-2.528c0-1.4,1.036-2.542,2.479-2.542
			c0.89,0,1.422,0.314,1.912,0.777l-0.378,0.406c-0.413-0.393-0.875-0.673-1.541-0.673c-1.085,0-1.897,0.876-1.897,2.018
			s0.819,2.031,1.897,2.031c0.673,0,1.114-0.26,1.583-0.708l0.364,0.357C421.652,160.774,421.092,161.117,420.203,161.117z"/>
		<path fill="#939598" d="M423.085,161.033v-5.112h0.539v5.112H423.085z"/>
		<path fill="#939598" d="M426.53,161.117c-1.085,0-1.877-0.854-1.877-1.884s0.799-1.898,1.892-1.898
			c1.085,0,1.884,0.854,1.884,1.884C428.428,160.249,427.623,161.117,426.53,161.117z M426.53,157.812
			c-0.784,0-1.323,0.623-1.323,1.407c0,0.785,0.574,1.415,1.338,1.415c0.784,0,1.33-0.623,1.33-1.4
			C427.875,158.441,427.293,157.812,426.53,157.812z"/>
		<path fill="#939598" d="M430.597,161.104c-0.519,0-1.093-0.203-1.499-0.532l0.272-0.386c0.393,0.294,0.827,0.463,1.254,0.463
			c0.435,0,0.75-0.225,0.75-0.575v-0.014c0-0.364-0.428-0.504-0.904-0.638c-0.566-0.16-1.197-0.356-1.197-1.022v-0.014
			c0-0.623,0.519-1.036,1.232-1.036c0.441,0,0.932,0.153,1.303,0.398l-0.245,0.406c-0.336-0.217-0.721-0.35-1.071-0.35
			c-0.428,0-0.7,0.224-0.7,0.525v0.014c0,0.343,0.448,0.477,0.932,0.623c0.56,0.168,1.162,0.386,1.162,1.037v0.014
			C431.885,160.704,431.318,161.104,430.597,161.104z"/>
		<path fill="#939598" d="M434.482,160.648c0.497,0,0.848-0.203,1.142-0.512l0.336,0.301c-0.364,0.406-0.806,0.68-1.491,0.68
			c-0.995,0-1.808-0.764-1.808-1.891c0-1.051,0.735-1.892,1.737-1.892c1.071,0,1.688,0.854,1.688,1.919c0,0.05,0,0.105-0.007,0.168
			h-2.871C433.284,160.207,433.844,160.648,434.482,160.648z M435.54,159.023c-0.057-0.658-0.435-1.233-1.156-1.233
			c-0.63,0-1.106,0.525-1.176,1.233H435.54z"/>
		<path fill="#939598" d="M437.757,160.004c0,0.441,0.245,0.603,0.609,0.603c0.182,0,0.336-0.035,0.525-0.127v0.463
			c-0.189,0.098-0.393,0.154-0.651,0.154c-0.581,0-1.022-0.287-1.022-1.023v-2.185h-0.505v-0.477h0.505v-1.093h0.539v1.093h1.148
			v0.477h-1.148V160.004z"/>
	</g>
	<g>
		<path fill="#939598" d="M308.18,205.218h-2.99v1.674h2.676v0.505h-2.676v1.716h3.025v0.504h-3.579v-4.902h3.544V205.218z"/>
		<path fill="#939598" d="M309.775,209.616h-0.539v-3.621h0.539v0.631c0.238-0.393,0.616-0.708,1.239-0.708
			c0.876,0,1.387,0.589,1.387,1.45v2.248h-0.539v-2.115c0-0.672-0.364-1.093-1.001-1.093c-0.624,0-1.086,0.455-1.086,1.135V209.616z
			"/>
		<path fill="#939598" d="M314.276,208.587c0,0.441,0.245,0.603,0.609,0.603c0.183,0,0.336-0.035,0.525-0.127v0.463
			c-0.189,0.098-0.393,0.154-0.651,0.154c-0.581,0-1.022-0.288-1.022-1.023v-2.185h-0.504v-0.477h0.504v-1.093h0.539v1.093h1.148
			v0.477h-1.148V208.587z"/>
		<path fill="#939598" d="M316.915,209.616h-0.539v-3.621h0.539v0.945c0.267-0.602,0.792-1.036,1.479-1.008v0.581h-0.042
			c-0.792,0-1.437,0.567-1.437,1.66V209.616z"/>
		<path fill="#939598" d="M320.975,209.735c-0.308,0.749-0.658,1.022-1.204,1.022c-0.302,0-0.525-0.063-0.771-0.182l0.182-0.428
			c0.176,0.091,0.337,0.133,0.567,0.133c0.322,0,0.525-0.168,0.743-0.679l-1.646-3.607h0.596l1.316,3.019l1.163-3.019h0.574
			L320.975,209.735z"/>
	</g>
	<g>
		<path fill="#939598" d="M51.752,73.389c0,0.829-0.504,1.251-0.999,1.468c0.747,0.225,1.35,0.657,1.35,1.53
			c0,1.089-0.909,1.729-2.287,1.729h-2.8v-6.302h2.683C50.942,71.814,51.752,72.426,51.752,73.389z M51.032,73.488
			c0-0.63-0.495-1.035-1.396-1.035h-1.917v2.169h1.864C50.438,74.623,51.032,74.235,51.032,73.488z M51.383,76.342
			c0-0.693-0.576-1.089-1.674-1.089h-1.99v2.224h2.116C50.789,77.477,51.383,77.053,51.383,76.342z"/>
		<path fill="#939598" d="M55.45,77.621c0.639,0,1.089-0.261,1.467-0.657l0.432,0.387c-0.468,0.522-1.035,0.873-1.917,0.873
			c-1.278,0-2.323-0.981-2.323-2.431c0-1.351,0.945-2.431,2.233-2.431c1.377,0,2.169,1.098,2.169,2.467c0,0.063,0,0.135-0.009,0.216
			h-3.691C53.911,77.053,54.631,77.621,55.45,77.621z M56.81,75.532c-0.072-0.846-0.558-1.584-1.485-1.584
			c-0.811,0-1.422,0.675-1.513,1.584H56.81z"/>
		<path fill="#939598" d="M62.461,78.116V77.18c-0.378,0.558-0.927,1.035-1.782,1.035c-1.117,0-2.224-0.882-2.224-2.422
			c0-1.53,1.107-2.431,2.224-2.431c0.864,0,1.422,0.468,1.782,0.99v-2.809h0.693v6.572H62.461z M60.805,73.983
			c-0.9,0-1.639,0.667-1.639,1.801c0,1.107,0.756,1.81,1.639,1.81c0.864,0,1.684-0.72,1.684-1.81
			C62.489,74.704,61.669,73.983,60.805,73.983z"/>
		<path fill="#939598" d="M65.395,78.116h-0.693v-4.654h0.693v1.215c0.342-0.774,1.017-1.333,1.899-1.296v0.747H67.24
			c-1.018,0-1.846,0.729-1.846,2.134V78.116z"/>
		<path fill="#939598" d="M70.273,78.224c-1.395,0-2.413-1.098-2.413-2.421c0-1.324,1.026-2.44,2.431-2.44
			c1.396,0,2.422,1.098,2.422,2.422C72.713,77.107,71.678,78.224,70.273,78.224z M70.273,73.975c-1.008,0-1.701,0.801-1.701,1.81
			s0.738,1.818,1.719,1.818c1.008,0,1.71-0.801,1.71-1.8C72.001,74.785,71.254,73.975,70.273,73.975z"/>
		<path fill="#939598" d="M76.087,78.224c-1.395,0-2.413-1.098-2.413-2.421c0-1.324,1.026-2.44,2.431-2.44
			c1.396,0,2.422,1.098,2.422,2.422C78.527,77.107,77.492,78.224,76.087,78.224z M76.087,73.975c-1.008,0-1.701,0.801-1.701,1.81
			s0.738,1.818,1.719,1.818c1.008,0,1.71-0.801,1.71-1.8C77.815,74.785,77.068,73.975,76.087,73.975z"/>
		<path fill="#939598" d="M85.106,73.362c1.071,0,1.729,0.72,1.729,1.873v2.881h-0.693v-2.719c0-0.9-0.45-1.404-1.207-1.404
			c-0.702,0-1.288,0.522-1.288,1.44v2.683h-0.684v-2.737c0-0.873-0.459-1.386-1.197-1.386s-1.296,0.612-1.296,1.467v2.656h-0.693
			v-4.654h0.693v0.783c0.306-0.459,0.72-0.882,1.503-0.882c0.756,0,1.242,0.405,1.495,0.927
			C83.801,73.776,84.296,73.362,85.106,73.362z"/>
		<path fill="#939598" d="M52.408,82.769h0.522v6.348h-0.702v-5.609l-1.188,0.369L50.869,83.3L52.408,82.769z"/>
		<path fill="#939598" d="M54.622,83.453v-0.64h4.024v0.522l-1.98,2.196c1.107,0.091,2.08,0.622,2.08,1.783
			c0,1.134-0.937,1.908-2.107,1.908c-1.053,0-1.836-0.459-2.35-1.125l0.513-0.459c0.486,0.594,1.071,0.936,1.846,0.936
			c0.765,0,1.377-0.485,1.377-1.233c0-0.792-0.72-1.224-1.765-1.224h-0.405l-0.144-0.424l1.99-2.241H54.622z"/>
		<path fill="#939598" d="M60.211,82.813h0.846v0.045l-0.729,2.404H59.94L60.211,82.813z"/>
		<path fill="#939598" d="M69.077,89.116h-0.801l-1.44-1.9l-1.449,1.9h-0.774l1.828-2.368l-1.755-2.287h0.792l1.377,1.801
			l1.377-1.801h0.774l-1.765,2.27L69.077,89.116z"/>
		<path fill="#939598" d="M73.917,82.769h0.522v6.348h-0.702v-5.609l-1.188,0.369L72.378,83.3L73.917,82.769z"/>
		<path fill="#939598" d="M76.131,83.453v-0.64h4.024v0.522l-1.98,2.196c1.107,0.091,2.08,0.622,2.08,1.783
			c0,1.134-0.936,1.908-2.106,1.908c-1.053,0-1.837-0.459-2.35-1.125l0.513-0.459c0.486,0.594,1.072,0.936,1.846,0.936
			c0.765,0,1.377-0.485,1.377-1.233c0-0.792-0.72-1.224-1.765-1.224h-0.405l-0.144-0.424l1.989-2.241H76.131z"/>
		<path fill="#939598" d="M81.72,82.813h0.846v0.045l-0.729,2.404H81.45L81.72,82.813z"/>
	</g>
	<g>
		<path fill="#939598" d="M186.159,77.314h0.711v5.645h3.547v0.657h-4.258V77.314z"/>
		<path fill="#939598" d="M191.631,77.944v-0.765h0.792v0.765H191.631z M191.676,83.616v-4.654h0.693v4.654H191.676z"/>
		<path fill="#939598" d="M197.428,78.962h0.747l-2.026,4.69h-0.612l-2.017-4.69h0.765l1.566,3.862L197.428,78.962z"/>
		<path fill="#939598" d="M199.281,77.944v-0.765h0.792v0.765H199.281z M199.326,83.616v-4.654h0.693v4.654H199.326z"/>
		<path fill="#939598" d="M202.323,83.616h-0.693v-4.654h0.693v0.81c0.306-0.504,0.792-0.909,1.594-0.909
			c1.125,0,1.783,0.756,1.783,1.864v2.89h-0.693v-2.719c0-0.864-0.468-1.404-1.288-1.404c-0.801,0-1.396,0.585-1.396,1.458V83.616z"
			/>
		<path fill="#939598" d="M209.235,85.074c-0.774,0-1.495-0.216-2.116-0.647l0.315-0.54c0.531,0.387,1.125,0.594,1.792,0.594
			c1.026,0,1.692-0.567,1.692-1.656v-0.55c-0.405,0.541-0.972,0.981-1.828,0.981c-1.116,0-2.188-0.828-2.188-2.188
			c0-1.368,1.08-2.206,2.188-2.206c0.873,0,1.44,0.432,1.818,0.936v-0.837h0.693v3.844C211.603,84.31,210.667,85.074,209.235,85.074
			z M209.227,79.475c-0.882,0-1.612,0.603-1.612,1.576c0,0.954,0.748,1.593,1.612,1.593c0.882,0,1.71-0.63,1.71-1.584
			C210.937,80.096,210.108,79.475,209.227,79.475z"/>
		<path fill="#939598" d="M217.003,76.432l-4.177,8.336h-0.639l4.177-8.336H217.003z"/>
		<path fill="#939598" d="M220.026,83.616h-2.188v-6.302h2.188c1.98,0,3.349,1.359,3.349,3.142
			C223.375,82.239,222.007,83.616,220.026,83.616z M220.026,77.972h-1.477v4.987h1.477c1.593,0,2.611-1.08,2.611-2.485
			C222.637,79.07,221.62,77.972,220.026,77.972z"/>
		<path fill="#939598" d="M224.777,77.944v-0.765h0.792v0.765H224.777z M224.823,83.616v-4.654h0.693v4.654H224.823z"/>
		<path fill="#939598" d="M227.82,83.616h-0.693v-4.654h0.693v0.81c0.306-0.504,0.792-0.909,1.594-0.909
			c1.125,0,1.782,0.756,1.782,1.864v2.89h-0.693v-2.719c0-0.864-0.468-1.404-1.287-1.404c-0.802,0-1.396,0.585-1.396,1.458V83.616z"
			/>
		<path fill="#939598" d="M232.688,77.944v-0.765h0.793v0.765H232.688z M232.734,83.616v-4.654h0.692v4.654H232.734z"/>
		<path fill="#939598" d="M235.731,83.616h-0.693v-4.654h0.693v0.81c0.306-0.504,0.792-0.909,1.593-0.909
			c1.126,0,1.783,0.756,1.783,1.864v2.89h-0.693v-2.719c0-0.864-0.469-1.404-1.288-1.404c-0.801,0-1.395,0.585-1.395,1.458V83.616z"
			/>
		<path fill="#939598" d="M242.643,85.074c-0.774,0-1.495-0.216-2.116-0.647l0.315-0.54c0.531,0.387,1.125,0.594,1.792,0.594
			c1.026,0,1.692-0.567,1.692-1.656v-0.55c-0.405,0.541-0.973,0.981-1.828,0.981c-1.116,0-2.188-0.828-2.188-2.188
			c0-1.368,1.08-2.206,2.188-2.206c0.874,0,1.44,0.432,1.818,0.936v-0.837h0.693v3.844C245.01,84.31,244.075,85.074,242.643,85.074z
			 M242.634,79.475c-0.883,0-1.612,0.603-1.612,1.576c0,0.954,0.748,1.593,1.612,1.593c0.882,0,1.71-0.63,1.71-1.584
			C244.344,80.096,243.516,79.475,242.634,79.475z"/>
		<path fill="#939598" d="M253.713,83.616l-1.827-2.449h-1.801v2.449h-0.711v-6.302h2.709c1.387,0,2.278,0.747,2.278,1.881
			c0,1.053-0.721,1.666-1.711,1.845l1.936,2.575H253.713z M252.03,77.972h-1.944v2.557h1.936c0.945,0,1.62-0.486,1.62-1.306
			C253.641,78.439,253.047,77.972,252.03,77.972z"/>
		<path fill="#939598" d="M257.798,83.725c-1.396,0-2.412-1.099-2.412-2.422c0-1.324,1.025-2.44,2.431-2.44
			c1.396,0,2.421,1.098,2.421,2.421C260.238,82.608,259.203,83.725,257.798,83.725z M257.798,79.475
			c-1.008,0-1.701,0.801-1.701,1.809c0,1.009,0.738,1.819,1.72,1.819c1.008,0,1.71-0.802,1.71-1.801
			C259.527,80.285,258.78,79.475,257.798,79.475z"/>
		<path fill="#939598" d="M263.613,83.725c-1.396,0-2.413-1.099-2.413-2.422c0-1.324,1.026-2.44,2.431-2.44
			c1.396,0,2.422,1.098,2.422,2.421C266.052,82.608,265.017,83.725,263.613,83.725z M263.613,79.475
			c-1.009,0-1.702,0.801-1.702,1.809c0,1.009,0.738,1.819,1.72,1.819c1.009,0,1.711-0.802,1.711-1.801
			C265.341,80.285,264.594,79.475,263.613,79.475z"/>
		<path fill="#939598" d="M272.631,78.863c1.071,0,1.729,0.72,1.729,1.873v2.881h-0.693v-2.719c0-0.9-0.45-1.404-1.206-1.404
			c-0.702,0-1.287,0.522-1.287,1.44v2.683h-0.685V80.88c0-0.874-0.459-1.387-1.197-1.387s-1.297,0.612-1.297,1.467v2.656h-0.692
			v-4.654h0.692v0.783c0.307-0.459,0.721-0.882,1.504-0.882c0.756,0,1.242,0.405,1.494,0.927
			C271.326,79.277,271.821,78.863,272.631,78.863z"/>
		<path fill="#939598" d="M203.988,89.943l-0.522-0.378c0.567-0.846,1.162-1.341,2.269-1.341c1.144,0,1.954,0.756,1.954,1.791
			c0,0.928-0.486,1.495-1.593,2.458l-1.684,1.494h3.34v0.648h-4.402v-0.549l2.287-2.017c0.963-0.864,1.314-1.351,1.314-1.98
			c0-0.738-0.585-1.207-1.269-1.207C204.96,88.863,204.492,89.241,203.988,89.943z"/>
		<path fill="#939598" d="M210.099,88.27h0.522v6.347h-0.702v-5.608l-1.188,0.369l-0.171-0.576L210.099,88.27z"/>
		<path fill="#939598" d="M212.385,88.314h0.846v0.045l-0.729,2.403h-0.387L212.385,88.314z"/>
		<path fill="#939598" d="M218.353,89.476c-0.468-0.396-0.909-0.621-1.485-0.621c-1.144,0-1.854,1.152-1.846,2.782
			c0.342-0.505,0.873-0.964,1.792-0.964c1.179,0,2.179,0.757,2.179,1.944c0,1.225-0.981,2.107-2.26,2.107
			c-0.693,0-1.26-0.243-1.656-0.64c-0.504-0.504-0.792-1.152-0.792-2.448c0-1.927,0.972-3.431,2.62-3.431
			c0.756,0,1.314,0.271,1.864,0.721L218.353,89.476z M216.724,91.285c-0.945,0-1.576,0.675-1.576,1.387
			c0,0.819,0.666,1.422,1.594,1.422c0.927,0,1.521-0.639,1.521-1.449C218.263,91.861,217.633,91.285,216.724,91.285z"/>
		<path fill="#939598" d="M220.413,88.314h0.837v0.045l-0.729,2.403h-0.378L220.413,88.314z M222.177,88.314h0.828v0.045
			l-0.729,2.403h-0.378L222.177,88.314z"/>
		<path fill="#939598" d="M231.034,94.616h-0.801l-1.44-1.899l-1.45,1.899h-0.774l1.828-2.368l-1.756-2.286h0.792l1.378,1.801
			l1.377-1.801h0.774l-1.765,2.269L231.034,94.616z"/>
		<path fill="#939598" d="M235.155,89.943l-0.522-0.378c0.567-0.846,1.161-1.341,2.269-1.341c1.144,0,1.953,0.756,1.953,1.791
			c0,0.928-0.485,1.495-1.593,2.458l-1.684,1.494h3.34v0.648h-4.402v-0.549l2.287-2.017c0.963-0.864,1.314-1.351,1.314-1.98
			c0-0.738-0.586-1.207-1.27-1.207C236.126,88.863,235.659,89.241,235.155,89.943z"/>
		<path fill="#939598" d="M242.688,94.725c-1.63,0-2.656-1.477-2.656-3.25s1.045-3.269,2.674-3.269c1.621,0,2.647,1.477,2.647,3.25
			S244.308,94.725,242.688,94.725z M242.688,88.854c-1.18,0-1.918,1.206-1.918,2.602s0.757,2.62,1.936,2.62
			c1.18,0,1.909-1.216,1.909-2.602C244.615,90.088,243.868,88.854,242.688,88.854z"/>
		<path fill="#939598" d="M246.764,88.314h0.847v0.045l-0.729,2.403h-0.387L246.764,88.314z"/>
		<path fill="#939598" d="M248.726,88.314h4.276v0.531l-2.863,5.771h-0.792l2.845-5.653h-3.466V88.314z"/>
		<path fill="#939598" d="M254.333,88.314h0.837v0.045l-0.729,2.403h-0.378L254.333,88.314z M256.098,88.314h0.828v0.045
			l-0.729,2.403h-0.378L256.098,88.314z"/>
	</g>
	<g>
		<path fill="#939598" d="M386.752,57.056c0,0.829-0.505,1.251-1,1.468c0.747,0.225,1.351,0.657,1.351,1.53
			c0,1.089-0.909,1.729-2.286,1.729h-2.8V55.48h2.683C385.942,55.48,386.752,56.093,386.752,57.056z M386.032,57.155
			c0-0.63-0.495-1.035-1.396-1.035h-1.917v2.169h1.863C385.438,58.289,386.032,57.902,386.032,57.155z M386.383,60.009
			c0-0.693-0.576-1.089-1.675-1.089h-1.989v2.224h2.115C385.789,61.143,386.383,60.72,386.383,60.009z"/>
		<path fill="#939598" d="M390.45,61.287c0.64,0,1.09-0.261,1.468-0.657l0.433,0.387c-0.469,0.522-1.036,0.873-1.918,0.873
			c-1.278,0-2.322-0.981-2.322-2.431c0-1.35,0.944-2.431,2.232-2.431c1.377,0,2.169,1.098,2.169,2.467c0,0.063,0,0.135-0.009,0.216
			h-3.69C388.911,60.72,389.63,61.287,390.45,61.287z M391.809,59.198c-0.071-0.846-0.558-1.584-1.485-1.584
			c-0.81,0-1.422,0.675-1.512,1.584H391.809z"/>
		<path fill="#939598" d="M397.461,61.782v-0.937c-0.378,0.559-0.927,1.036-1.782,1.036c-1.116,0-2.224-0.882-2.224-2.422
			c0-1.53,1.107-2.431,2.224-2.431c0.864,0,1.422,0.468,1.782,0.99V55.21h0.693v6.572H397.461z M395.805,57.65
			c-0.9,0-1.639,0.667-1.639,1.801c0,1.107,0.756,1.81,1.639,1.81c0.864,0,1.684-0.72,1.684-1.81
			C397.489,58.37,396.669,57.65,395.805,57.65z"/>
		<path fill="#939598" d="M400.394,61.782h-0.692v-4.654h0.692v1.215c0.343-0.774,1.018-1.333,1.9-1.296v0.747h-0.055
			c-1.017,0-1.846,0.729-1.846,2.134V61.782z"/>
		<path fill="#939598" d="M405.273,61.89c-1.396,0-2.412-1.098-2.412-2.421c0-1.324,1.026-2.44,2.431-2.44
			c1.396,0,2.422,1.098,2.422,2.422C407.713,60.774,406.677,61.89,405.273,61.89z M405.273,57.641c-1.008,0-1.701,0.801-1.701,1.81
			s0.738,1.818,1.72,1.818c1.008,0,1.71-0.801,1.71-1.8C407.001,58.451,406.254,57.641,405.273,57.641z"/>
		<path fill="#939598" d="M411.087,61.89c-1.396,0-2.413-1.098-2.413-2.421c0-1.324,1.026-2.44,2.431-2.44
			c1.396,0,2.422,1.098,2.422,2.422C413.527,60.774,412.492,61.89,411.087,61.89z M411.087,57.641c-1.009,0-1.702,0.801-1.702,1.81
			s0.738,1.818,1.72,1.818c1.009,0,1.711-0.801,1.711-1.8C412.816,58.451,412.069,57.641,411.087,57.641z"/>
		<path fill="#939598" d="M420.106,57.029c1.071,0,1.729,0.72,1.729,1.873v2.881h-0.693v-2.719c0-0.9-0.45-1.404-1.206-1.404
			c-0.702,0-1.287,0.522-1.287,1.44v2.683h-0.685v-2.737c0-0.873-0.459-1.386-1.197-1.386s-1.297,0.612-1.297,1.467v2.656h-0.692
			v-4.654h0.692v0.783c0.307-0.459,0.721-0.882,1.504-0.882c0.756,0,1.242,0.405,1.494,0.927
			C418.8,57.443,419.295,57.029,420.106,57.029z"/>
		<path fill="#939598" d="M386.949,66.436h0.522v6.347h-0.702v-5.609l-1.188,0.369l-0.171-0.576L386.949,66.436z"/>
		<path fill="#939598" d="M389.163,67.12V66.48h4.024v0.522l-1.98,2.197c1.107,0.09,2.079,0.621,2.079,1.782
			c0,1.135-0.936,1.909-2.106,1.909c-1.053,0-1.836-0.459-2.35-1.125l0.514-0.459c0.485,0.594,1.071,0.937,1.845,0.937
			c0.766,0,1.378-0.486,1.378-1.233c0-0.792-0.721-1.225-1.765-1.225h-0.405l-0.144-0.423l1.989-2.242H389.163z"/>
		<path fill="#939598" d="M394.751,66.48h0.847v0.045l-0.729,2.404h-0.387L394.751,66.48z"/>
		<path fill="#939598" d="M403.618,72.782h-0.801l-1.44-1.899l-1.45,1.899h-0.773l1.827-2.368l-1.756-2.287h0.793l1.377,1.8
			l1.377-1.8h0.774l-1.765,2.269L403.618,72.782z"/>
		<path fill="#939598" d="M408.458,66.436h0.522v6.347h-0.702v-5.609l-1.188,0.369l-0.171-0.576L408.458,66.436z"/>
		<path fill="#939598" d="M413.103,72.89c-1.63,0-2.656-1.476-2.656-3.25c0-1.773,1.045-3.268,2.674-3.268
			c1.621,0,2.647,1.477,2.647,3.25C415.768,71.396,414.723,72.89,413.103,72.89z M413.103,67.021c-1.18,0-1.918,1.207-1.918,2.602
			c0,1.396,0.757,2.62,1.936,2.62c1.18,0,1.909-1.215,1.909-2.602C415.03,68.254,414.283,67.021,413.103,67.021z"/>
		<path fill="#939598" d="M417.179,66.48h0.847v0.045l-0.729,2.404h-0.388L417.179,66.48z"/>
	</g>
	<g>
		<path fill="#939598" d="M190.31,135.992v4.902h-0.553v-4.902H190.31z"/>
		<path fill="#939598" d="M192.851,140.965c-0.518,0-1.092-0.203-1.499-0.532l0.273-0.386c0.392,0.294,0.827,0.463,1.254,0.463
			c0.434,0,0.749-0.225,0.749-0.575v-0.014c0-0.364-0.427-0.504-0.903-0.638c-0.567-0.16-1.198-0.356-1.198-1.022v-0.014
			c0-0.623,0.519-1.036,1.233-1.036c0.441,0,0.932,0.153,1.303,0.398l-0.245,0.406c-0.336-0.217-0.722-0.35-1.072-0.35
			c-0.427,0-0.7,0.224-0.7,0.525v0.014c0,0.343,0.448,0.477,0.932,0.623c0.56,0.168,1.163,0.386,1.163,1.037v0.014
			C194.14,140.565,193.573,140.965,192.851,140.965z"/>
		<path fill="#939598" d="M195.188,140.895v-5.112h0.54v5.112H195.188z"/>
		<path fill="#939598" d="M197.19,137.967l-0.161-0.441c0.399-0.182,0.792-0.301,1.317-0.301c0.987,0,1.541,0.504,1.541,1.457v2.213
			h-0.518v-0.546c-0.252,0.329-0.672,0.623-1.31,0.623c-0.672,0-1.352-0.378-1.352-1.135c0-0.771,0.63-1.177,1.548-1.177
			c0.462,0,0.792,0.063,1.114,0.154v-0.126c0-0.651-0.399-0.987-1.079-0.987C197.863,137.701,197.527,137.812,197.19,137.967z
			 M197.253,139.816c0,0.462,0.42,0.728,0.911,0.728c0.666,0,1.211-0.406,1.211-0.98v-0.35c-0.266-0.077-0.623-0.154-1.064-0.154
			C197.632,139.06,197.253,139.354,197.253,139.816z"/>
		<path fill="#939598" d="M201.573,140.895h-0.54v-3.621h0.54v0.631c0.238-0.393,0.616-0.708,1.24-0.708
			c0.875,0,1.387,0.589,1.387,1.45v2.248h-0.54v-2.115c0-0.672-0.364-1.093-1.001-1.093c-0.624,0-1.085,0.455-1.085,1.135V140.895z"
			/>
		<path fill="#939598" d="M208.252,140.895v-0.729c-0.294,0.435-0.722,0.806-1.387,0.806c-0.869,0-1.73-0.687-1.73-1.884
			c0-1.191,0.861-1.892,1.73-1.892c0.672,0,1.106,0.364,1.387,0.771v-2.185h0.539v5.112H208.252z M206.963,137.68
			c-0.701,0-1.275,0.519-1.275,1.4c0,0.862,0.588,1.408,1.275,1.408c0.672,0,1.31-0.561,1.31-1.408
			C208.273,138.24,207.636,137.68,206.963,137.68z"/>
	</g>
</g>
<g id="windows">
	<g>
		<g>
			<rect x="246.294" y="16.667" fill="#FFFFFF" stroke="#939598" width="69.562" height="3.674"/>
			<line fill="none" stroke="#939598" x1="315.857" y1="18.485" x2="245.544" y2="18.485"/>
			<line fill="none" stroke="#939598" stroke-width="2" x1="293.183" y1="20.499" x2="293.183" y2="17.004"/>
		</g>
		<line fill="none" stroke="#939598" stroke-width="2" x1="269.794" y1="20.624" x2="269.794" y2="17.022"/>
	</g>
	<g>
		<g>
			<rect x="24.124" y="16.731" fill="#FFFFFF" stroke="#939598" width="69.562" height="3.674"/>
			<line fill="none" stroke="#939598" x1="93.687" y1="18.549" x2="23.374" y2="18.549"/>
			<line fill="none" stroke="#939598" stroke-width="2" x1="71.013" y1="20.563" x2="71.013" y2="17.069"/>
		</g>
		<line fill="none" stroke="#939598" stroke-width="2" x1="47.624" y1="20.688" x2="47.624" y2="17.086"/>
	</g>
	<g>
		<g>
			<rect x="373.22" y="16.731" fill="#FFFFFF" stroke="#939598" width="69.562" height="3.674"/>
			<line fill="none" stroke="#939598" x1="442.783" y1="18.549" x2="372.47" y2="18.549"/>
			<line fill="none" stroke="#939598" stroke-width="2" x1="420.109" y1="20.563" x2="420.109" y2="17.069"/>
		</g>
		<line fill="none" stroke="#939598" stroke-width="2" x1="396.72" y1="20.688" x2="396.72" y2="17.086"/>
	</g>
</g>
</svg>
