<?xml version="1.0" encoding="utf-8"?>
<!-- Generator: Adobe Illustrator 15.0.2, SVG Export Plug-In . SVG Version: 6.00 Build 0)  -->
<!DOCTYPE svg PUBLIC "-//W3C//DTD SVG 1.1//EN" "http://www.w3.org/Graphics/SVG/1.1/DTD/svg11.dtd">
<svg version="1.1" id="Layer_1" xmlns="http://www.w3.org/2000/svg" xmlns:xlink="http://www.w3.org/1999/xlink" x="0px" y="0px"
	 width="500px" height="500px" viewBox="-119.667 -150.986 500 500" enable-background="new -119.667 -150.986 500 500"
	 xml:space="preserve">
<g id="_x32_0_x25___PMS_2985_fill" display="none">
	<path display="inline" fill="#EBEEEF" d="M2.5,32.421v162.75c0,0,255.5,2,255.5,0s0-192.5,0-192.5H30v29.75H2.5z"/>
</g>
<g>
	<g id="_x32_0_x25__grey_fill">
		<rect x="324.864" y="-85.062" fill="#D1D3D4" width="47.913" height="37.373"/>
		<rect x="295.475" y="-44.495" fill="#B3B3B3" width="10.541" height="15.971"/>
		<rect x="200.606" y="-84.424" fill="#D1D3D4" width="51.268" height="37.373"/>
	</g>
	<g id="icons">
		<rect x="41.439" y="-31.109" fill="#FFFFFF" stroke="#939598" width="53.664" height="91.994"/>
		<g>
			<g>
				<rect x="325.934" y="-43.918" fill="#FFFFFF" stroke="#939598" width="45.278" height="87.571"/>
				<path fill="#FFFFFF" stroke="#939598" d="M348.573-0.13"/>
				<path fill="#FFFFFF" stroke="#939598" d="M348.573,0.17"/>
				<path fill="#FFFFFF" stroke="#939598" d="M348.573,29.861"/>
			</g>
			<circle fill="#FFFFFF" stroke="#939598" cx="348.787" cy="23.695" r="1.857"/>
			<path fill="#FFFFFF" stroke="#939598" d="M348.709-38.917c-12.976,0-17.728,2.995-17.728,7.191c0,0,0,62.937,0,63.966
				c0,1.026,0.278,3.146,2.992,3.146c2.718,0,14.735,0,14.735,0h0.032c0,0,12.018,0,14.735,0c2.714,0,2.992-2.118,2.992-3.146
				c0-1.029,0-63.923,0-63.923l-0.003-0.041C366.466-35.923,361.607-38.917,348.709-38.917z"/>
			<path fill="#FFFFFF" stroke="#939598" d="M344.893,38.639c0.004-1.052-0.846-1.893-1.908-1.893c-1.03,0-1.882,0.841-1.889,1.893
				c0.007,1.045,0.858,1.907,1.889,1.907C344.047,40.547,344.897,39.697,344.893,38.639z"/>
			<path fill="#FFFFFF" stroke="#939598" d="M356.663,38.639c0.013-1.052-0.852-1.893-1.896-1.893c-1.04,0-1.897,0.841-1.897,1.893
				c0,1.045,0.857,1.907,1.897,1.895C355.813,40.547,356.663,39.684,356.663,38.639z"/>
			<path fill="#FFFFFF" stroke="#939598" d="M346.23,39.201c0,1.558,1.052,2.816,2.609,2.82c1.553-0.004,2.402-1.261,2.402-2.82
				l-0.999-10.717c0-1.052-2.841-1.052-2.841,0L346.23,39.201z"/>
		</g>
		<g>
			<polygon fill="none" stroke="#939598" points="-61.576,42.278 -61.562,45.317 -18.197,45.345 -18.21,42.302 			"/>
			<path fill="none" stroke="#939598" d="M-18.177,43.675C-18.988,67.551-38.615,86.25-62.49,85.432"/>
		</g>
		<g>
			<g>
				<g>
					<g>
						<rect x="-104.246" y="44.621" fill="#FFFFFF" stroke="#939598" width="35.542" height="38.692"/>
						<path fill="#FFFFFF" stroke="#939598" d="M-85.295,63.969"/>
						<polyline fill="#FFFFFF" stroke="#939598" points="-79.309,52.229 -73.901,52.229 -72.64,56.901 -72.64,71.214 
							-73.901,75.947 -79.309,75.947 						"/>
						<line fill="none" stroke="#939598" x1="-79.309" y1="83.593" x2="-79.309" y2="44.621"/>
						<path fill="#FFFFFF" stroke="#939598" d="M-83.482,64.088"/>
					</g>
				</g>
			</g>
			<polygon fill="#FFFFFF" stroke="#939598" points="-76.977,81.43 -76.97,78.306 -79.151,77.618 -79.161,82.119 			"/>
		</g>
		<g>
			<polygon fill="none" stroke="#939598" points="-61.576,-18.094 -61.562,-15.054 -18.195,-15.026 -18.21,-18.069 			"/>
			<path fill="none" stroke="#939598" d="M-18.175-16.697C-18.988,7.179-38.613,25.509-62.49,24.692"/>
		</g>
		<g>
			<polygon fill="none" stroke="#939598" points="312.406,92.539 309.206,92.565 309.175,46.914 312.42,46.891 			"/>
			<path fill="none" stroke="#939598" d="M310.893,46.854c-25.13,0.854-44.814,21.636-43.959,46.769"/>
		</g>
		<g>
			<polygon fill="none" stroke="#939598" points="-44.562,-88.546 -41.362,-88.572 -41.333,-42.921 -44.578,-42.898 			"/>
			<path fill="none" stroke="#939598" d="M-43.05-42.861c25.131-0.854,44.814-21.636,43.956-46.769"/>
		</g>
		<g>
			<polygon fill="none" stroke="#939598" points="364.868,91.43 362.436,91.412 362.412,126.106 364.878,126.125 			"/>
			<path fill="none" stroke="#939598" d="M363.718,126.149c-19.102-0.647-34.06-16.443-33.408-35.544"/>
		</g>
		<g>
			<polygon fill="none" stroke="#939598" points="290.354,-47.388 287.923,-47.407 287.899,-12.716 290.366,-12.696 			"/>
			<path fill="none" stroke="#939598" d="M289.205-12.67c-19.1-0.647-34.056-16.444-33.408-35.544"/>
		</g>
		<g>
			<g>
				<path fill="#FFFFFF" stroke="#939598" d="M63.113-26.363c0-0.816,0.66-1.477,1.479-1.477h25.768
					c0.816,0,1.478,0.663,1.478,1.477v43.712c0,0.816-0.663,1.476-1.478,1.476H64.59c-0.82,0-1.478-0.659-1.478-1.476V-26.363z"/>
				<path fill="#FFFFFF" stroke="#939598" d="M76.36-4.663"/>
			</g>
			<g>
				<circle fill="#FFFFFF" stroke="#939598" cx="78.106" cy="-4.663" r="1.67"/>
				<path fill="#FFFFFF" stroke="#939598" d="M78.104-4.663"/>
			</g>
			<g>
				<g>
					<rect x="64.14" y="-11.954" fill="#FFFFFF" stroke="#939598" width="3.489" height="14.582"/>
					<path fill="#FFFFFF" stroke="#939598" d="M65.883-4.663"/>
				</g>
				<g>
					<rect x="67.536" y="-5.407" fill="#FFFFFF" stroke="#939598" width="6.873" height="1.488"/>
					<path fill="#FFFFFF" stroke="#939598" d="M70.53-4.663"/>
				</g>
				<g>
					<circle fill="#FFFFFF" stroke="#939598" cx="65.919" cy="-4.663" r="1.623"/>
					<path fill="#FFFFFF" stroke="#939598" d="M65.919-4.663"/>
				</g>
			</g>
			<g>
				<path fill="#FFFFFF" stroke="#939598" d="M78.104-4.663"/>
				<path fill="none" stroke="#939598" d="M68.834-5.565v-18.376c0-0.857,0.693-1.555,1.552-1.555h17.672
					c0.854,0,1.551,0.696,1.551,1.555v38.864c0,0.857-0.695,1.556-1.551,1.556H70.387c-0.857,0-1.552-0.696-1.552-1.556V-3.718"/>
			</g>
		</g>
		<g>
			<polyline fill="none" stroke="#939598" stroke-dasharray="1.5,1,1.5,1,1.5,1" points="97.051,57.444 62.805,57.444 
				62.805,23.853 96.281,23.853 			"/>
			<polyline fill="#FFFFFF" stroke="#939598" points="96.281,23.803 98.318,23.803 98.318,57.444 97.065,57.444 			"/>
		</g>
		<polyline fill="#FFFFFF" stroke="#939598" points="161.493,-7.614 161.493,90.94 198.543,90.828 198.419,-30.843 161.493,-30.843 
			161.493,-27.886 		"/>
		<g>
			<g>
				<rect x="153.654" y="-80.537" fill="#FFFFFF" stroke="#939598" width="42.106" height="47.727"/>
				<path fill="#FFFFFF" stroke="#939598" d="M174.706-59.144"/>
			</g>
			<line fill="none" stroke="#939598" x1="156.596" y1="-32.698" x2="156.596" y2="-80.537"/>
			<rect x="151.573" y="-76.554" fill="#FFFFFF" stroke="#939598" width="2.051" height="3.867"/>
			<path fill="#FFFFFF" stroke="#939598" d="M152.71-74.62"/>
		</g>
		<line fill="none" stroke="#939598" x1="161.493" y1="-5.699" x2="198.371" y2="-5.699"/>
		<g>
			<g>
				<g>
					<polygon fill="none" stroke="#939598" stroke-width="0.7" points="143.667,-17.547 144.986,-19.945 161.453,-9.961 
						160.137,-7.564 					"/>
					<path fill="none" stroke="#939598" stroke-width="0.8" d="M153.893-11.932"/>
				</g>
				<path fill="none" stroke="#939598" stroke-width="0.8" d="M144.46-18.466c3.719-6.137,10.339-9.44,17.035-9.218"/>
			</g>
		</g>
		<g>
			<g>
				<rect x="157.861" y="15.705" fill="#FFFFFF" stroke="#939598" width="37.853" height="44.56"/>
				<path fill="#FFFFFF" stroke="#939598" d="M176.788,37.984"/>
			</g>
			<g>
				<g>
					<circle fill="#FFFFFF" stroke="#939598" cx="166.247" cy="48.172" r="5.413"/>
					<path fill="#FFFFFF" stroke="#939598" d="M166.247,48.172"/>
				</g>
				<g>
					<path fill="#FFFFFF" stroke="#939598" stroke-width="0.8" d="M166.25,44.414c2.104,0,3.811,1.707,3.811,3.811
						c0,2.105-1.706,3.812-3.811,3.812c-2.107,0-3.814-1.707-3.814-3.812C162.435,46.121,164.142,44.414,166.25,44.414z"/>
					<path fill="#FFFFFF" stroke="#939598" d="M166.247,48.224"/>
				</g>
			</g>
			<g>
				<g>
					<circle fill="#FFFFFF" stroke="#939598" cx="182.058" cy="26.539" r="5.413"/>
					<path fill="#FFFFFF" stroke="#939598" d="M182.058,26.54"/>
				</g>
				<g>
					<circle fill="#FFFFFF" stroke="#939598" stroke-width="0.8" cx="182.061" cy="26.485" r="3.812"/>
					<path fill="#FFFFFF" stroke="#939598" d="M182.058,26.485"/>
				</g>
			</g>
			<g>
				<g>
					<circle fill="#FFFFFF" stroke="#939598" cx="182.005" cy="48.244" r="6.17"/>
					<path fill="#FFFFFF" stroke="#939598" d="M182.005,48.245"/>
				</g>
				<g>
					<circle fill="#FFFFFF" stroke="#939598" stroke-width="0.8" cx="182.005" cy="48.182" r="4.347"/>
					<path fill="#FFFFFF" stroke="#939598" d="M182.005,48.183"/>
				</g>
			</g>
			<g>
				<g>
					<circle fill="#FFFFFF" stroke="#939598" cx="165.831" cy="26.564" r="6.168"/>
					<path fill="#FFFFFF" stroke="#939598" d="M165.831,26.563"/>
				</g>
				<g>
					<circle fill="#FFFFFF" stroke="#939598" stroke-width="0.8" cx="165.831" cy="26.501" r="4.347"/>
					<path fill="#FFFFFF" stroke="#939598" d="M165.831,26.5"/>
				</g>
			</g>
			<line fill="none" stroke="#939598" x1="190.476" y1="60.322" x2="190.476" y2="15.705"/>
			<line fill="none" stroke="#939598" x1="192.571" y1="60.262" x2="192.571" y2="15.705"/>
		</g>
		
			<line fill="none" stroke="#939598" stroke-dasharray="1.5,1.5,1.5,1.5,1.5,1.5" x1="179.524" y1="-6.804" x2="179.524" y2="91.26"/>
		
			<line fill="none" stroke="#A7A9AC" stroke-dasharray="1.5,1.5,1.5,1.5,1.5,1.5" x1="179.524" y1="-49.136" x2="179.524" y2="-32.198"/>
		
			<line fill="none" stroke="#A7A9AC" stroke-dasharray="1.5,1.5,1.5,1.5,1.5,1.5" x1="179.524" y1="-82.826" x2="179.524" y2="-60.147"/>
		<line fill="none" stroke="#939598" x1="-87.062" y1="35.885" x2="-87.062" y2="-30.76"/>
		
			<line fill="none" stroke="#939598" stroke-dasharray="1.5,1.5,1.5,1.5,1.5,1.5" x1="-92.004" y1="34.927" x2="-92.004" y2="-28.844"/>
		
			<line fill="none" stroke="#939598" stroke-dasharray="1.5,1.5,1.5,1.5,1.5,1.5" x1="326.78" y1="64.428" x2="374.053" y2="64.428"/>
		<line fill="none" stroke="#939598" x1="326.14" y1="68.261" x2="373.417" y2="68.261"/>
		<polygon fill="#FFFFFF" stroke="#939598" points="201.399,15.929 237.177,15.929 237.177,92.535 201.053,92.535 		"/>
		<g>
			<path fill="#FFFFFF" stroke="#939598" stroke-miterlimit="10" d="M227.037-4.183c8.554,0,17.972-5.196,17.972-11.601
				s-9.418-11.578-17.972-11.578c-8.553,0-13.004,5.173-13.004,11.578S218.484-4.183,227.037-4.183"/>
			<path fill="#FFFFFF" stroke="#939598" d="M227.037-4.183c8.554,0,17.972-5.196,17.972-11.601s-9.418-11.578-17.972-11.578
				c-8.553,0-13.004,5.173-13.004,11.578S218.484-4.183,227.037-4.183z"/>
			<path fill="#FFFFFF" stroke="#939598" stroke-miterlimit="10" d="M216.836-22.73c0.479,0,0.872-0.393,0.872-0.872v-4.039
				c0-0.479-0.393-0.872-0.872-0.872h-0.145c-0.479,0-0.872,0.393-0.872,0.872v4.039c0,0.479,0.394,0.872,0.872,0.872H216.836z"/>
			<path fill="#FFFFFF" stroke="#939598" d="M216.836-22.73c0.479,0,0.872-0.393,0.872-0.872v-4.039
				c0-0.479-0.393-0.872-0.872-0.872h-0.145c-0.479,0-0.872,0.393-0.872,0.872v4.039c0,0.479,0.394,0.872,0.872,0.872H216.836z"/>
			<path fill="#FFFFFF" stroke="#939598" stroke-miterlimit="10" d="M215.795-29.127c0-1.453-3.941-2.635-5.396-2.635
				c-1.477,0-5.415,1.183-5.415,2.635v26.476c0,1.458,3.942,2.635,5.415,2.635c1.458,0,5.393-1.177,5.393-2.635L215.795-29.127z"/>
			<path fill="#FFFFFF" stroke="#939598" d="M215.795-29.127c0-1.453-3.941-2.635-5.396-2.635c-1.477,0-5.415,1.183-5.415,2.635
				v26.476c0,1.458,3.942,2.635,5.415,2.635c1.458,0,5.393-1.177,5.393-2.635L215.795-29.127z"/>
			<path fill="#FFFFFF" stroke="#939598" stroke-miterlimit="10" d="M227.398-7.257c6.283,0,13.212-3.82,13.212-8.529
				s-6.925-8.523-13.212-8.523s-9.555,3.814-9.555,8.523S221.111-7.257,227.398-7.257"/>
			<path fill="#FFFFFF" stroke="#939598" d="M227.398-7.257c6.283,0,13.212-3.82,13.212-8.529s-6.925-8.523-13.212-8.523
				s-9.555,3.814-9.555,8.523S221.111-7.257,227.398-7.257z"/>
		</g>
		<g>
			<g>
				<g>
					<path fill="none" stroke="#A7A9AC" d="M222.76,38.127"/>
				</g>
				<g>
					<path fill="none" stroke="#A7A9AC" d="M220.722,38.127"/>
				</g>
				<g>
					<circle fill="none" stroke="#939598" cx="222.762" cy="38.127" r="1.948"/>
					<path fill="none" stroke="#A7A9AC" d="M222.76,38.127"/>
				</g>
				<g>
					<g>
						<rect x="206.469" y="29.953" fill="none" stroke="#939598" width="4.073" height="16.392"/>
						<path fill="none" stroke="#A7A9AC" d="M208.503,38.127"/>
					</g>
					<g>
						<rect x="210.72" y="37.259" fill="none" stroke="#939598" width="7.726" height="1.736"/>
						<path fill="none" stroke="#A7A9AC" d="M213.924,38.127"/>
					</g>
					<g>
						<circle fill="none" stroke="#939598" cx="208.547" cy="38.127" r="1.891"/>
						<path fill="none" stroke="#A7A9AC" d="M208.547,38.127"/>
					</g>
				</g>
			</g>
			<g>
				<rect x="205.846" y="21.784" fill="none" stroke="#939598" width="26.592" height="32.727"/>
				<rect x="210.637" y="24.453" fill="none" stroke="#939598" width="19.129" height="27.321"/>
			</g>
		</g>
		<line fill="none" stroke="#939598" x1="254.587" y1="-59.189" x2="321.67" y2="-59.189"/>
	</g>
	<g id="walls">
		<polyline fill="none" stroke="#939598" stroke-width="5" points="-43.756,-86.659 -63.36,-86.666 -63.36,-29.46 -114.667,-29.46 
			-114.667,283.202 375.333,283.202 375.333,-86.504 0.327,-86.638 		"/>
		<polyline fill="none" stroke="#939598" stroke-width="3" points="-61.482,84.693 -61.482,90.94 -111.312,90.94 		"/>
		<line fill="none" stroke="#939598" stroke-width="3" x1="-61.482" y1="23.955" x2="-61.482" y2="42.278"/>
		<line fill="none" stroke="#939598" stroke-width="3" x1="-61.482" y1="-26.927" x2="-61.482" y2="-18.094"/>
		<line fill="none" stroke="#939598" stroke-width="3" x1="-61.482" y1="34.882" x2="-114.667" y2="34.882"/>
		<line fill="none" stroke="#939598" stroke-width="3" x1="364.868" y1="91.42" x2="375.012" y2="91.42"/>
		<line fill="none" stroke="#939598" stroke-width="3" x1="312.087" y1="91.42" x2="331.571" y2="91.42"/>
		<line fill="none" stroke="#939598" stroke-width="3" x1="160.358" y1="91.42" x2="267.303" y2="91.42"/>
		<line fill="none" stroke="#939598" stroke-width="3" x1="200.126" y1="91.898" x2="200.126" y2="-85.383"/>
		<line fill="none" stroke="#939598" stroke-width="3" x1="256.388" y1="-46.572" x2="198.689" y2="-46.572"/>
		<line fill="none" stroke="#939598" stroke-width="3" x1="371.658" y1="-46.572" x2="290.242" y2="-46.572"/>
		<line fill="none" stroke="#939598" stroke-width="3" x1="251.874" y1="-47.052" x2="251.874" y2="-84.424"/>
		<line fill="none" stroke="#939598" stroke-width="3" x1="324.703" y1="-83.466" x2="324.703" y2="-48.489"/>
		<polyline fill="none" stroke="#939598" stroke-width="3" points="323.744,89.982 323.744,46.503 374.053,46.503 		"/>
		<polyline fill="none" stroke="#939598" stroke-width="3" points="295.475,-48.489 295.475,-26.927 306.495,-26.927 
			306.495,-47.531 		"/>
	</g>
	<g id="windows">
		<g>
			<g>
				<rect x="-28.729" y="280.075" fill="#FFFFFF" stroke="#939598" width="133.319" height="7.041"/>
				<line fill="none" stroke="#939598" x1="104.593" y1="283.557" x2="-30.166" y2="283.557"/>
				<line fill="none" stroke="#939598" stroke-width="2" x1="61.137" y1="287.419" x2="61.137" y2="280.722"/>
			</g>
			<line fill="none" stroke="#939598" stroke-width="2" x1="16.311" y1="287.658" x2="16.311" y2="280.754"/>
		</g>
		<g>
			<g>
				<rect x="215.313" y="280.075" fill="#FFFFFF" stroke="#939598" width="133.318" height="7.041"/>
				<line fill="none" stroke="#939598" x1="348.631" y1="283.557" x2="213.875" y2="283.557"/>
				<line fill="none" stroke="#939598" stroke-width="2" x1="305.177" y1="287.419" x2="305.177" y2="280.722"/>
			</g>
			<line fill="none" stroke="#939598" stroke-width="2" x1="260.352" y1="287.658" x2="260.352" y2="280.754"/>
		</g>
	</g>
	<g id="Type">
		<g>
			<path fill="#939598" d="M-92.944,73.532V72.66l7.852-2.577l-7.825-2.686v-1.112l9.464,3.356v0.898l-7.626,2.577l7.626,2.592
				v0.886l-9.464,3.355v-1.156l7.825-2.685L-92.944,73.532z"/>
			<path fill="#939598" d="M-94.232,60.146l12.429,6.229v0.953l-12.429-6.229V60.146z"/>
			<path fill="#939598" d="M-83.522,55.637V58.9h-9.396v-3.263c0-2.953,2.027-4.991,4.684-4.991
				C-85.579,50.646-83.522,52.684-83.522,55.637z M-91.938,55.637v2.203h7.436v-2.201c0-2.375-1.61-3.891-3.704-3.891
				C-90.301,51.749-91.938,53.264-91.938,55.637z"/>
		</g>
		<g>
			<path fill="#939598" d="M70.883,44.477h-3.262v-9.396h3.262c2.953,0,4.993,2.026,4.993,4.683
				C75.875,42.422,73.836,44.477,70.883,44.477z M70.883,36.062h-2.202v7.436h2.202c2.375,0,3.893-1.609,3.893-3.703
				C74.776,37.7,73.26,36.062,70.883,36.062z"/>
			<path fill="#939598" d="M83.323,35.057h0.872l2.578,7.852l2.685-7.825h1.116l-3.356,9.463h-0.898l-2.578-7.625l-2.591,7.625
				h-0.885l-3.355-9.463h1.154l2.685,7.825L83.323,35.057z"/>
		</g>
		<g>
			<path fill="#939598" d="M174.124-52.144l-2.727-3.651h-2.684v3.651h-1.06v-9.397h4.039c2.066,0,3.395,1.116,3.395,2.806
				c0,1.57-1.074,2.484-2.551,2.751l2.886,3.84H174.124z M171.61-60.563h-2.898v3.812h2.886c1.409,0,2.416-0.724,2.416-1.948
				C174.013-59.865,173.13-60.563,171.61-60.563z"/>
			<path fill="#939598" d="M180.104-52.885c0.954,0,1.624-0.39,2.188-0.979l0.646,0.576c-0.696,0.779-1.544,1.303-2.859,1.303
				c-1.905,0-3.463-1.463-3.463-3.625c0-2.012,1.408-3.623,3.328-3.623c2.055,0,3.234,1.636,3.234,3.678c0,0.093,0,0.2-0.016,0.322
				h-5.502C177.807-53.729,178.883-52.885,180.104-52.885z M182.128-56c-0.106-1.261-0.831-2.36-2.212-2.36
				c-1.209,0-2.12,1.005-2.257,2.36H182.128z"/>
			<path fill="#939598" d="M188.595-59.058v0.885h-2.188v6.028h-1.033v-6.028h-0.955v-0.898h0.955v-0.604
				c0-1.518,0.764-2.321,2.092-2.321c0.485,0,0.807,0.054,1.143,0.174v0.9c-0.375-0.108-0.657-0.176-1.008-0.176
				c-0.805,0-1.205,0.483-1.205,1.479v0.563h2.199V-59.058z"/>
		</g>
		<g>
			<path fill="#939598" d="M165.43-18.23h-1.825v2.65h-0.848v-7.513h2.812c1.697,0,2.814,0.902,2.814,2.394
				C168.381-19.065,167.027-18.23,165.43-18.23z M165.505-22.306h-1.9v3.307h1.858c1.243,0,2.06-0.667,2.06-1.664
				C167.521-21.749,166.716-22.306,165.505-22.306z"/>
			<path fill="#939598" d="M169.788-20.064l-0.247-0.676c0.609-0.281,1.213-0.462,2.018-0.462c1.512,0,2.358,0.773,2.358,2.233
				v3.392h-0.794v-0.837c-0.386,0.503-1.029,0.957-2.007,0.957c-1.029,0-2.069-0.578-2.069-1.739c0-1.181,0.966-1.802,2.369-1.802
				c0.709,0,1.213,0.097,1.707,0.238v-0.195c0-0.998-0.61-1.514-1.65-1.514C170.817-20.472,170.302-20.3,169.788-20.064z
				 M169.881-17.231c0,0.709,0.646,1.117,1.399,1.117c1.019,0,1.856-0.623,1.856-1.503v-0.537c-0.407-0.118-0.958-0.236-1.634-0.236
				C170.461-18.391,169.881-17.938,169.881-17.231z"/>
			<path fill="#939598" d="M176.181-15.578h-0.824v-5.548h0.824v0.966c0.364-0.599,0.946-1.082,1.901-1.082
				c1.34,0,2.124,0.9,2.124,2.22v3.444h-0.829v-3.24c0-1.031-0.558-1.675-1.534-1.675c-0.955,0-1.662,0.698-1.662,1.739V-15.578
				L176.181-15.578z"/>
			<path fill="#939598" d="M182.761-17.154c0,0.676,0.375,0.921,0.933,0.921c0.278,0,0.517-0.052,0.807-0.193v0.709
				c-0.29,0.15-0.602,0.236-0.998,0.236c-0.893,0-1.568-0.44-1.568-1.566v-3.349h-0.771v-0.73h0.771v-1.675h0.829v1.675h1.76v0.73
				h-1.76v3.242H182.761z"/>
			<path fill="#939598" d="M186.486-15.578h-0.827v-5.548h0.827v1.449c0.408-0.921,1.213-1.589,2.265-1.546v0.891h-0.063
				c-1.213,0-2.201,0.87-2.201,2.543V-15.578L186.486-15.578z"/>
			<path fill="#939598" d="M192.389-15.395c-0.472,1.147-1.009,1.565-1.846,1.565c-0.464,0-0.805-0.096-1.183-0.279l0.28-0.653
				c0.27,0.139,0.517,0.202,0.871,0.202c0.496,0,0.805-0.258,1.14-1.041l-2.523-5.527h0.912l2.02,4.626l1.781-4.626h0.882
				L192.389-15.395z"/>
		</g>
		<g>
			<path fill="#939598" d="M89.435-48.352h-1.708l-4.642-5.849l-2.571,2.604v3.243h-1.363V-60.43h1.363v7.211l6.936-7.211h1.759
				l-5.177,5.28L89.435-48.352z"/>
			<path fill="#939598" d="M91.363-59.222v-1.466h1.518v1.466H91.363z M91.449-48.352v-8.92h1.328v8.92H91.449z"/>
			<path fill="#939598" d="M97.661-50.89c0,1.087,0.604,1.484,1.5,1.484c0.449,0,0.828-0.086,1.294-0.311v1.138
				c-0.466,0.241-0.966,0.38-1.604,0.38c-1.432,0-2.52-0.708-2.52-2.52v-5.381H95.09v-1.173h1.242v-2.689h1.329v2.689h2.831v1.173
				h-2.831V-50.89z"/>
			<path fill="#939598" d="M106.598-48.144c-2.605,0-4.573-2.123-4.573-4.64c0-2.538,1.966-4.677,4.573-4.677
				c1.69,0,2.744,0.707,3.572,1.587l-0.88,0.93c-0.708-0.741-1.503-1.344-2.71-1.344c-1.811,0-3.193,1.535-3.193,3.468
				c0,1.948,1.415,3.485,3.277,3.485c1.139,0,2.019-0.569,2.725-1.329l0.846,0.795C109.34-48.869,108.271-48.144,106.598-48.144z"/>
			<path fill="#939598" d="M113.756-48.352h-1.328v-12.596h1.328v5.229c0.586-0.966,1.518-1.742,3.053-1.742
				c2.156,0,3.417,1.448,3.417,3.573v5.538h-1.328v-5.21c0-1.657-0.897-2.691-2.467-2.691c-1.536,0-2.675,1.121-2.675,2.794V-48.352
				z"/>
			<path fill="#939598" d="M126.986-49.301c1.225,0,2.087-0.5,2.812-1.26l0.828,0.743c-0.897,1-1.983,1.673-3.674,1.673
				c-2.449,0-4.452-1.881-4.452-4.661c0-2.586,1.811-4.658,4.279-4.658c2.639,0,4.157,2.104,4.157,4.728
				c0,0.122,0,0.258-0.017,0.414h-7.074C124.034-50.388,125.417-49.301,126.986-49.301z M129.59-53.304
				c-0.138-1.621-1.069-3.036-2.846-3.036c-1.555,0-2.725,1.293-2.899,3.036H129.59z"/>
			<path fill="#939598" d="M134.593-48.352h-1.329v-8.92h1.329v1.553c0.586-0.966,1.518-1.742,3.053-1.742
				c2.158,0,3.417,1.448,3.417,3.573v5.538h-1.326v-5.21c0-1.657-0.898-2.691-2.468-2.691c-1.538,0-2.676,1.121-2.676,2.794V-48.352
				L134.593-48.352z"/>
		</g>
		<g>
			<path fill="#939598" d="M-70.333,18.56c0,2.712-2.134,4.711-4.845,4.711c-2.685,0-4.872-1.987-4.872-4.752
				c0-1.703,0.604-2.725,1.489-3.663l0.778,0.725c-0.751,0.792-1.288,1.677-1.288,2.953c0,2.08,1.677,3.637,3.865,3.637
				c2.188,0,3.893-1.57,3.893-3.637c0-1.289-0.497-2.135-1.356-3.033l0.684-0.698C-70.99,15.781-70.333,16.857-70.333,18.56z"/>
			<path fill="#939598" d="M-70.494,13.036h-9.799v-1.033h9.799V13.036z"/>
			<path fill="#939598" d="M-70.333,6.434c0,2.079-1.637,3.598-3.61,3.598c-1.975,0-3.637-1.529-3.637-3.624
				c0-2.079,1.637-3.61,3.61-3.61C-71.996,2.796-70.333,4.34-70.333,6.434z M-76.667,6.434c0,1.503,1.194,2.538,2.698,2.538
				c1.503,0,2.712-1.103,2.712-2.564c0-1.505-1.194-2.551-2.683-2.551C-75.459,3.857-76.667,4.97-76.667,6.434z"/>
			<path fill="#939598" d="M-70.359-1.361c0,0.994-0.39,2.096-1.021,2.873l-0.737-0.522c0.563-0.75,0.885-1.583,0.885-2.401
				c0-0.835-0.429-1.438-1.101-1.438h-0.026c-0.698,0-0.967,0.818-1.221,1.731c-0.309,1.085-0.684,2.295-1.959,2.295h-0.027
				c-1.196,0-1.987-0.994-1.987-2.362c0-0.846,0.295-1.785,0.765-2.499l0.777,0.472c-0.416,0.644-0.671,1.383-0.671,2.053
				c0,0.818,0.43,1.342,1.007,1.342h0.026c0.658,0,0.913-0.859,1.196-1.785c0.322-1.075,0.739-2.228,1.986-2.228h0.027
				C-71.124-3.83-70.359-2.742-70.359-1.361z"/>
			<path fill="#939598" d="M-71.231-8.808c0-0.953-0.389-1.623-0.979-2.188l0.577-0.644c0.778,0.696,1.301,1.542,1.301,2.86
				c0,1.905-1.461,3.462-3.624,3.462c-2.013,0-3.624-1.409-3.624-3.33c0-2.051,1.637-3.234,3.678-3.234c0.093,0,0.201,0,0.322,0.013
				v5.504C-72.076-6.512-71.231-7.584-71.231-8.808z M-74.346-10.833c-1.261,0.106-2.361,0.833-2.361,2.216
				c0,1.207,1.006,2.119,2.361,2.255V-10.833z"/>
			<path fill="#939598" d="M-72.466-15.084c0.845,0,1.156-0.47,1.156-1.168c0-0.348-0.067-0.644-0.241-1.007h0.885
				c0.188,0.363,0.295,0.754,0.295,1.248c0,1.116-0.549,1.96-1.959,1.96h-4.188v0.965h-0.914v-0.965h-2.093v-1.033h2.093v-2.201
				h0.914v2.201H-72.466z"/>
		</g>
		<g>
			<path fill="#939598" d="M333.858,82.814c-2.712,0-4.711-2.136-4.711-4.846c0-2.687,1.986-4.872,4.753-4.872
				c1.705,0,2.725,0.603,3.664,1.489l-0.726,0.777c-0.79-0.751-1.678-1.288-2.954-1.288c-2.077,0-3.635,1.677-3.635,3.867
				c0,2.188,1.568,3.891,3.635,3.891c1.292,0,2.136-0.496,3.036-1.356l0.696,0.685C336.638,82.155,335.565,82.814,333.858,82.814z"
				/>
			<path fill="#939598" d="M339.383,82.653v-9.8h1.033v9.8H339.383z"/>
			<path fill="#939598" d="M345.985,82.814c-2.079,0-3.598-1.638-3.598-3.612c0-1.973,1.531-3.637,3.626-3.637
				c2.081,0,3.611,1.636,3.611,3.61S348.079,82.814,345.985,82.814z M345.985,76.478c-1.503,0-2.536,1.194-2.536,2.699
				c0,1.503,1.101,2.712,2.564,2.712c1.503,0,2.549-1.194,2.549-2.685C348.562,77.685,347.45,76.478,345.985,76.478z"/>
			<path fill="#939598" d="M353.78,82.786c-0.993,0-2.092-0.39-2.871-1.021l0.521-0.737c0.753,0.563,1.585,0.886,2.403,0.886
				c0.835,0,1.438-0.429,1.438-1.099v-0.028c0-0.698-0.82-0.966-1.733-1.221c-1.084-0.309-2.293-0.685-2.293-1.959v-0.026
				c0-1.196,0.994-1.988,2.36-1.988c0.846,0,1.787,0.296,2.497,0.766l-0.468,0.777c-0.645-0.416-1.382-0.67-2.054-0.67
				c-0.819,0-1.342,0.428-1.342,1.007v0.026c0,0.656,0.859,0.911,1.785,1.195c1.074,0.322,2.228,0.737,2.228,1.986v0.025
				C356.25,82.022,355.164,82.786,353.78,82.786z"/>
			<path fill="#939598" d="M361.227,81.914c0.953,0,1.625-0.39,2.188-0.979l0.644,0.577c-0.696,0.778-1.544,1.303-2.856,1.303
				c-1.909,0-3.466-1.464-3.466-3.626c0-2.012,1.409-3.623,3.329-3.623c2.054,0,3.236,1.636,3.236,3.678c0,0.094,0,0.2-0.015,0.321
				h-5.503C358.929,81.069,360.005,81.914,361.227,81.914z M363.252,78.8c-0.108-1.262-0.833-2.36-2.214-2.36
				c-1.209,0-2.121,1.005-2.254,2.36H363.252z"/>
			<path fill="#939598" d="M367.502,80.678c0,0.844,0.472,1.154,1.168,1.154c0.349,0,0.645-0.067,1.007-0.241v0.886
				c-0.362,0.188-0.752,0.295-1.248,0.295c-1.113,0-1.96-0.55-1.96-1.959v-4.188h-0.965v-0.913h0.965v-2.095h1.033v2.095h2.201
				v0.913h-2.201V80.678L367.502,80.678z"/>
		</g>
		<g>
			<path fill="#939598" d="M271.576,12.386c0,1.589-0.967,2.397-1.916,2.812c1.434,0.431,2.588,1.26,2.588,2.933
				c0,2.087-1.74,3.313-4.379,3.313H262.5V9.367h5.144C270.025,9.365,271.576,10.537,271.576,12.386z M270.197,12.575
				c0-1.207-0.949-1.983-2.677-1.983h-3.672v4.156h3.569C269.059,14.748,270.197,14.007,270.197,12.575z M270.871,18.044
				c0-1.326-1.104-2.087-3.212-2.087h-3.811v4.264h4.052C269.729,20.219,270.871,19.409,270.871,18.044z"/>
			<path fill="#939598" d="M275.247,14.231l-0.397-1.087c0.985-0.449,1.95-0.741,3.244-0.741c2.435,0,3.794,1.24,3.794,3.59v5.452
				h-1.276v-1.346c-0.622,0.811-1.655,1.534-3.228,1.534c-1.656,0-3.327-0.93-3.327-2.794c0-1.896,1.554-2.899,3.811-2.899
				c1.142,0,1.95,0.155,2.744,0.38V16.01c0-1.604-0.983-2.432-2.656-2.432C276.905,13.577,276.078,13.851,275.247,14.231z
				 M275.402,18.787c0,1.138,1.035,1.793,2.244,1.793c1.636,0,2.983-0.999,2.983-2.414v-0.863c-0.655-0.188-1.535-0.38-2.62-0.38
				C276.335,16.921,275.402,17.649,275.402,18.787z"/>
			<path fill="#939598" d="M286.425,18.907c0,1.087,0.604,1.484,1.501,1.484c0.447,0,0.829-0.086,1.296-0.311v1.138
				c-0.467,0.241-0.966,0.38-1.606,0.38c-1.432,0-2.518-0.708-2.518-2.52v-5.383h-1.24v-1.174h1.24V9.833h1.327v2.689h2.832v1.174
				h-2.832V18.907z"/>
			<path fill="#939598" d="M292.929,21.443h-1.327V8.847h1.327v5.229c0.588-0.966,1.521-1.742,3.055-1.742
				c2.158,0,3.418,1.448,3.418,3.573v5.538h-1.329v-5.213c0-1.656-0.898-2.691-2.467-2.691c-1.537,0-2.677,1.121-2.677,2.794V21.443
				L292.929,21.443z"/>
		</g>
		<g>
			<path fill="#939598" d="M111.015,172.262c2.691,0.588,3.935,1.568,3.935,3.435c0,2.087-1.725,3.433-4.125,3.433
				c-1.915,0-3.484-0.638-4.935-1.934l0.845-0.999c1.259,1.138,2.467,1.709,4.142,1.709c1.621,0,2.69-0.845,2.69-2.072
				c0-1.138-0.604-1.776-3.141-2.312c-2.777-0.603-4.053-1.499-4.053-3.5c0-1.935,1.673-3.314,3.967-3.314
				c1.759,0,3.021,0.5,4.246,1.484l-0.794,1.052c-1.121-0.917-2.242-1.313-3.487-1.313c-1.569,0-2.569,0.862-2.569,1.967
				C107.738,171.055,108.359,171.694,111.015,172.262z"/>
			<path fill="#939598" d="M119.21,176.422c0,1.086,0.605,1.482,1.501,1.482c0.448,0,0.828-0.086,1.293-0.311v1.14
				c-0.465,0.241-0.966,0.378-1.604,0.378c-1.432,0-2.518-0.706-2.518-2.518v-5.385h-1.242v-1.171h1.242v-2.691h1.328v2.691h2.829
				v1.171h-2.829V176.422z"/>
			<path fill="#939598" d="M130.718,170.038h1.311v8.92h-1.311v-1.556c-0.604,0.968-1.518,1.743-3.053,1.743
				c-2.156,0-3.417-1.449-3.417-3.571v-5.538h1.328v5.21c0,1.657,0.896,2.691,2.467,2.691c1.518,0,2.675-1.121,2.675-2.794V170.038z
				"/>
			<path fill="#939598" d="M142.169,178.958v-1.797c-0.723,1.07-1.774,1.984-3.414,1.984c-2.139,0-4.264-1.69-4.264-4.641
				c0-2.935,2.123-4.662,4.264-4.662c1.654,0,2.726,0.9,3.414,1.9v-5.385h1.329v12.594h-1.329V178.958z M138.998,171.037
				c-1.725,0-3.143,1.276-3.143,3.451c0,2.121,1.45,3.468,3.143,3.468c1.656,0,3.229-1.379,3.229-3.468
				C142.222,172.418,140.654,171.037,138.998,171.037z"/>
			<path fill="#939598" d="M146.499,168.086v-1.466h1.518v1.466H146.499z M146.583,178.958v-8.92h1.329v8.92H146.583z"/>
			<path fill="#939598" d="M155.073,179.166c-2.677,0-4.627-2.106-4.627-4.642c0-2.536,1.967-4.678,4.66-4.678
				c2.675,0,4.642,2.107,4.642,4.644C159.748,177.024,157.764,179.166,155.073,179.166z M155.073,171.02
				c-1.936,0-3.261,1.536-3.261,3.47s1.411,3.485,3.294,3.485c1.934,0,3.279-1.537,3.279-3.451
				C158.385,172.573,156.954,171.02,155.073,171.02z"/>
			<path fill="#939598" d="M80.467,191.082l-1-0.724c1.086-1.621,2.226-2.57,4.349-2.57c2.192,0,3.745,1.449,3.745,3.433
				c0,1.778-0.932,2.865-3.056,4.711l-3.226,2.863h6.402v1.241h-8.438v-1.052l4.383-3.865c1.846-1.656,2.519-2.59,2.519-3.795
				c0-1.413-1.121-2.313-2.434-2.313C82.333,189.012,81.435,189.738,80.467,191.082z"/>
			<path fill="#939598" d="M89.715,187.96h8.195v1.019l-5.487,11.062h-1.518l5.452-10.835h-6.642V187.96z"/>
			<path fill="#939598" d="M100.461,187.96h1.621v0.087l-1.397,4.605h-0.741L100.461,187.96z"/>
			<path fill="#939598" d="M111.812,187.876v8.16h1.88v1.143h-1.88v2.863H110.5v-2.863h-6.366l-0.345-0.986l6.832-8.316H111.812
				L111.812,187.876z M110.5,189.805l-5.071,6.229h5.071V189.805z"/>
			<path fill="#939598" d="M116.261,187.96h1.604v0.087l-1.397,4.605h-0.725L116.261,187.96z M119.642,187.96h1.589v0.087
				l-1.397,4.605h-0.725L119.642,187.96z"/>
			<path fill="#939598" d="M136.615,200.04h-1.535l-2.763-3.641l-2.776,3.641h-1.483l3.504-4.539l-3.364-4.381h1.519l2.639,3.451
				l2.641-3.451h1.48l-3.38,4.348L136.615,200.04z"/>
			<path fill="#939598" d="M144.513,191.082l-1-0.724c1.086-1.621,2.224-2.57,4.348-2.57c2.192,0,3.745,1.449,3.745,3.433
				c0,1.778-0.932,2.865-3.055,4.711l-3.229,2.863h6.403v1.241h-8.438v-1.052l4.384-3.865c1.845-1.656,2.517-2.59,2.517-3.795
				c0-1.413-1.121-2.313-2.435-2.313C146.376,189.012,145.478,189.738,144.513,191.082z"/>
			<path fill="#939598" d="M158.953,200.248c-3.122,0-5.089-2.83-5.089-6.229c0-3.396,2-6.264,5.124-6.264
				c3.105,0,5.072,2.83,5.072,6.229C164.06,197.38,162.059,200.248,158.953,200.248z M158.953,188.995
				c-2.26,0-3.674,2.312-3.674,4.988c0,2.675,1.448,5.021,3.709,5.021s3.657-2.332,3.657-4.988
				C162.643,191.361,161.211,188.995,158.953,188.995z"/>
			<path fill="#939598" d="M166.763,187.96h1.624v0.087l-1.396,4.605h-0.741L166.763,187.96z"/>
			<path fill="#939598" d="M170.525,187.96h8.193v1.019l-5.483,11.062h-1.52l5.452-10.835h-6.643V187.96z"/>
			<path fill="#939598" d="M181.272,187.96h1.602v0.087l-1.396,4.605h-0.724L181.272,187.96z M184.652,187.96h1.587v0.087
				l-1.396,4.605h-0.724L184.652,187.96z"/>
		</g>
		<g>
			<path fill="#939598" d="M269.801-74.957h1.062v8.417h5.289v0.981h-6.349v-9.397H269.801z"/>
			<path fill="#939598" d="M277.957-74.016v-1.144h1.181v1.142h-1.181V-74.016z M278.026-65.56v-6.94h1.033v6.94H278.026z"/>
			<path fill="#939598" d="M282.494-65.56h-1.033v-6.94h1.033v1.207c0.456-0.752,1.179-1.357,2.373-1.357
				c1.681,0,2.659,1.126,2.659,2.779v4.309h-1.033v-4.054c0-1.288-0.698-2.092-1.92-2.092c-1.194,0-2.079,0.87-2.079,2.173V-65.56
				L282.494-65.56z"/>
			<path fill="#939598" d="M292.784-66.299c0.95,0,1.624-0.39,2.188-0.979l0.646,0.577c-0.695,0.778-1.544,1.302-2.859,1.302
				c-1.905,0-3.463-1.463-3.463-3.625c0-2.012,1.408-3.624,3.328-3.624c2.052,0,3.234,1.636,3.234,3.678c0,0.093,0,0.2-0.016,0.322
				h-5.502C290.487-67.143,291.563-66.299,292.784-66.299z M294.809-69.414c-0.107-1.261-0.831-2.36-2.213-2.36
				c-1.209,0-2.12,1.005-2.257,2.36H294.809z"/>
			<path fill="#939598" d="M298.7-65.56h-1.035v-6.94h1.035v1.207c0.455-0.752,1.181-1.357,2.375-1.357
				c1.677,0,2.658,1.126,2.658,2.779v4.309H302.7v-4.054c0-1.288-0.698-2.092-1.921-2.092c-1.193,0-2.079,0.87-2.079,2.173V-65.56
				L298.7-65.56z"/>
		</g>
		<g>
			<path fill="#939598" d="M-30.402-80.859h-5.731v3.208h5.126v0.966h-5.126v3.288h5.799v0.968h-6.859v-9.397h6.792V-80.859z"/>
			<path fill="#939598" d="M-27.344-72.429h-1.033v-6.94h1.033v1.207c0.456-0.752,1.181-1.357,2.376-1.357
				c1.677,0,2.659,1.127,2.659,2.78v4.307h-1.035v-4.05c0-1.288-0.697-2.093-1.918-2.093c-1.194,0-2.079,0.871-2.079,2.173v3.973
				H-27.344z"/>
			<path fill="#939598" d="M-18.72-74.404c0,0.844,0.47,1.155,1.167,1.155c0.349,0,0.644-0.067,1.006-0.241v0.885
				c-0.362,0.189-0.75,0.296-1.248,0.296c-1.115,0-1.958-0.55-1.958-1.96v-4.187h-0.966v-0.914h0.966v-2.094h1.033v2.094h2.202
				v0.914h-2.202V-74.404z"/>
			<path fill="#939598" d="M-13.66-72.429h-1.035v-6.94h1.035v1.812c0.509-1.155,1.516-1.988,2.833-1.934v1.115h-0.081
				c-1.518,0-2.752,1.088-2.752,3.182V-72.429z"/>
			<path fill="#939598" d="M-5.878-72.202c-0.591,1.438-1.262,1.959-2.31,1.959c-0.578,0-1.006-0.122-1.478-0.348l0.348-0.82
				c0.336,0.174,0.645,0.255,1.087,0.255c0.617,0,1.006-0.322,1.422-1.303l-3.155-6.912h1.143l2.522,5.785l2.229-5.785h1.1
				L-5.878-72.202z"/>
		</g>
	</g>
</g>
</svg>
