<?xml version="1.0" encoding="utf-8"?>
<!-- Generator: Adobe Illustrator 15.0.2, SVG Export Plug-In . SVG Version: 6.00 Build 0)  -->
<!DOCTYPE svg PUBLIC "-//W3C//DTD SVG 1.1//EN" "http://www.w3.org/Graphics/SVG/1.1/DTD/svg11.dtd">
<svg version="1.1" id="Layer_1" xmlns="http://www.w3.org/2000/svg" xmlns:xlink="http://www.w3.org/1999/xlink" x="0px" y="0px"
	 width="336.292px" height="490px" viewBox="81.064 16.722 336.292 490" enable-background="new 81.064 16.722 336.292 490"
	 xml:space="preserve">
<g id="_x32_0_x25___PMS_2985_fill" display="none">
	<polygon display="inline" fill="#EBEEEF" points="0.829,308.691 46.162,308.691 46.162,327.358 230.162,327.358 230.162,160.025 
		236.829,160.025 236.829,19.358 113.829,19.358 113.829,8.358 24.829,8.358 24.829,16.025 0.496,16.025 	"/>
</g>
<g>
	<g id="_x32_0_x25__grey_fill">
		<rect x="232.499" y="39.475" fill="#D1D3D4" width="49.853" height="13.167"/>
		<rect x="82.951" y="38.063" fill="#D1D3D4" width="42.795" height="14.109"/>
		<rect x="372.541" y="446.74" fill="#D1D3D4" width="31.949" height="31.979"/>
		<polygon fill="#D1D3D4" points="414.5,163.158 414.5,43.235 388.635,43.235 388.635,51.7 406.037,51.7 406.037,163.158 		"/>
	</g>
	<g id="icons">
		<polyline fill="#FFFFFF" stroke="#939598" points="205.6,451.178 266.498,451.178 266.498,377.237 293.775,377.237 
			293.775,476.572 188.196,475.633 188.196,451.178 190.677,451.178 		"/>
		<g>
			<g>
				<rect x="151.592" y="443.497" fill="#FFFFFF" stroke="#939598" width="35.133" height="30.994"/>
				<path fill="#FFFFFF" stroke="#939598" d="M170.978,458.994"/>
			</g>
			<line fill="none" stroke="#939598" x1="151.51" y1="445.664" x2="186.727" y2="445.664"/>
			<rect x="180.946" y="441.966" fill="#FFFFFF" stroke="#939598" width="2.849" height="1.508"/>
			<path fill="#FFFFFF" stroke="#939598" d="M182.37,442.804"/>
		</g>
		<g>
			<polygon fill="none" stroke="#939598" points="93.482,452.981 95.81,452.908 95.83,419.365 93.474,419.347 			"/>
			<path fill="none" stroke="#939598" d="M94.535,419.321c18.502,0.628,32.99,15.866,32.359,34.363"/>
		</g>
		<g>
			<polygon fill="none" stroke="#939598" points="359.746,321.741 357.391,321.729 357.367,288.126 359.727,288.139 			"/>
			<path fill="none" stroke="#939598" d="M358.662,288.111c-18.501,0.627-32.989,15.836-32.359,34.337"/>
		</g>
		<g>
			<polygon fill="none" stroke="#939598" points="309.391,378.548 311.743,378.53 311.768,412.134 309.377,412.152 			"/>
			<path fill="none" stroke="#939598" d="M310.502,412.178c18.501-0.628,32.989-15.928,32.359-34.429"/>
		</g>
		<g>
			<polygon fill="none" stroke="#939598" points="94.162,363.089 96.519,363.071 96.539,396.676 94.12,396.693 			"/>
			<path fill="none" stroke="#939598" d="M95.153,396.72c18.502-0.629,32.99-15.928,32.359-34.43"/>
		</g>
		<g>
			<rect x="297.352" y="248.117" fill="none" stroke="#939598" stroke-width="0.8" width="1.553" height="40.914"/>
			<rect x="296.006" y="276.688" fill="none" stroke="#939598" stroke-width="0.8" width="1.521" height="40.914"/>
		</g>
		<g>
			<rect x="374.926" y="249.176" fill="none" stroke="#939598" stroke-width="0.8" width="1.612" height="40.913"/>
			<rect x="376.514" y="277.745" fill="none" stroke="#939598" stroke-width="0.8" width="1.641" height="40.914"/>
		</g>
		<g>
			<rect x="116.046" y="28.011" fill="none" stroke="#939598" width="4.058" height="4.056"/>
			<rect x="238.085" y="28.011" fill="none" stroke="#939598" width="4.058" height="4.056"/>
			<line fill="none" stroke="#939598" x1="119.75" y1="31.009" x2="238.085" y2="31.009"/>
			<line fill="none" stroke="#939598" x1="120.104" y1="32.067" x2="120.104" y2="37.005"/>
			<line fill="none" stroke="#939598" x1="238.872" y1="32.067" x2="238.872" y2="38.592"/>
			<line fill="none" stroke="#939598" x1="242.143" y1="32.067" x2="242.143" y2="38.24"/>
			<line fill="none" stroke="#939598" x1="238.085" y1="28.011" x2="119.397" y2="28.011"/>
			<line fill="none" stroke="#939598" x1="116.046" y1="32.067" x2="116.046" y2="36.299"/>
		</g>
		<g>
			<polygon fill="none" stroke="#939598" points="370.042,334.534 370.031,336.771 338.107,336.792 338.12,334.55 			"/>
			<path fill="none" stroke="#939598" d="M338.096,335.562c0.596,17.574,15.045,31.34,32.618,30.738"/>
		</g>
		<line fill="none" stroke="#939598" x1="138.269" y1="348.804" x2="84.831" y2="348.804"/>
		<line fill="none" stroke="#939598" x1="283.059" y1="321.294" x2="283.059" y2="247.752"/>
		<line fill="none" stroke="#939598" x1="390.459" y1="247.575" x2="390.459" y2="321.997"/>
		
			<line fill="none" stroke="#939598" stroke-dasharray="1.5,1.5,1.5,1.5,1.5,1.5" x1="280.359" y1="320.587" x2="280.359" y2="247.575"/>
		
			<line fill="none" stroke="#939598" stroke-dasharray="1.5,1.5,1.5,1.5,1.5,1.5" x1="393.104" y1="320.41" x2="393.104" y2="247.399"/>
		
			<line fill="none" stroke="#939598" stroke-dasharray="1.5,1.5,1.5,1.5,1.5,1.5" x1="138.269" y1="346.142" x2="84.479" y2="346.142"/>
		<line fill="none" stroke="#939598" x1="281.9" y1="52.172" x2="388.281" y2="52.172"/>
		<line fill="none" stroke="#939598" x1="404.884" y1="241.227" x2="404.884" y2="157.985"/>
		
			<rect x="174.572" y="369.972" transform="matrix(0.7071 -0.7071 0.7071 0.7071 -210.8577 258.0974)" fill="#FFFFFF" stroke="#939598" width="63.047" height="27.165"/>
		<polyline fill="#FFFFFF" stroke="#939598" points="333.729,477.938 334.081,451.484 369.354,451.484 369,477.748 		"/>
		
			<line fill="none" stroke="#939598" stroke-dasharray="1.5,1.5,1.5,1.5,1.5,1.5" x1="147.968" y1="463.906" x2="187.962" y2="463.906"/>
		<g>
			<g>
				<rect x="226.9" y="446.722" fill="#FFFFFF" stroke="#939598" width="32.803" height="27.863"/>
				<path fill="#FFFFFF" stroke="#939598" d="M243.303,460.654"/>
			</g>
			<g>
				<g>
					<circle fill="#FFFFFF" stroke="#939598" cx="250.801" cy="452.894" r="3.984"/>
					<path fill="#FFFFFF" stroke="#939598" d="M250.801,452.895"/>
				</g>
				<g>
					<circle fill="#FFFFFF" stroke="#939598" stroke-width="0.8" cx="250.839" cy="452.896" r="2.807"/>
					<path fill="#FFFFFF" stroke="#939598" d="M250.839,452.895"/>
				</g>
			</g>
			<g>
				<g>
					<circle fill="#FFFFFF" stroke="#939598" cx="234.875" cy="464.534" r="3.985"/>
					<path fill="#FFFFFF" stroke="#939598" d="M234.875,464.534"/>
				</g>
				<g>
					<circle fill="#FFFFFF" stroke="#939598" stroke-width="0.8" cx="234.836" cy="464.536" r="2.807"/>
					<path fill="#FFFFFF" stroke="#939598" d="M234.836,464.534"/>
				</g>
			</g>
			<g>
				<g>
					<circle fill="#FFFFFF" stroke="#939598" cx="250.854" cy="464.495" r="4.542"/>
					<path fill="#FFFFFF" stroke="#939598" d="M250.854,464.495"/>
				</g>
				<g>
					<circle fill="#FFFFFF" stroke="#939598" stroke-width="0.8" cx="250.811" cy="464.496" r="3.2"/>
					<path fill="#FFFFFF" stroke="#939598" d="M250.811,464.495"/>
				</g>
			</g>
			<g>
				<g>
					<circle fill="#FFFFFF" stroke="#939598" cx="234.895" cy="452.588" r="4.542"/>
					<path fill="#FFFFFF" stroke="#939598" d="M234.895,452.587"/>
				</g>
				<g>
					<circle fill="#FFFFFF" stroke="#939598" stroke-width="0.8" cx="234.85" cy="452.587" r="3.2"/>
					<path fill="#FFFFFF" stroke="#939598" d="M234.85,452.587"/>
				</g>
			</g>
			<line fill="none" stroke="#939598" x1="259.746" y1="470.731" x2="226.9" y2="470.731"/>
			<line fill="none" stroke="#939598" x1="259.704" y1="472.271" x2="226.9" y2="472.271"/>
		</g>
		<g>
			<polyline fill="none" stroke="#939598" stroke-dasharray="1.5,1,1.5,1,1.5,1" points="265.73,443.476 290.939,443.476 
				290.939,418.751 266.297,418.751 			"/>
			<polyline fill="#FFFFFF" stroke="#939598" points="266.297,418.714 264.797,418.714 264.797,443.476 265.721,443.476 			"/>
		</g>
		<polyline fill="none" stroke="#939598" stroke-dasharray="1.5,1.5,1.5,1.5,1.5,1.5" points="208.419,463.906 279.178,463.906 
			279.178,436.832 		"/>
		<line fill="none" stroke="#939598" x1="208.186" y1="451.178" x2="208.186" y2="475.867"/>
		<g>
			<path fill="#FFFFFF" stroke="#939598" stroke-miterlimit="10" d="M324.418,456.869c0-6.295-3.824-13.229-8.54-13.229
				c-4.715,0-8.521,6.934-8.521,13.229c0,6.299,3.808,9.573,8.521,9.573C320.593,466.442,324.418,463.166,324.418,456.869"/>
			<path fill="#FFFFFF" stroke="#939598" d="M324.418,456.869c0-6.295-3.824-13.229-8.54-13.229c-4.715,0-8.521,6.934-8.521,13.229
				c0,6.299,3.808,9.573,8.521,9.573C320.593,466.442,324.418,463.166,324.418,456.869z"/>
			<path fill="#FFFFFF" stroke="#939598" stroke-miterlimit="10" d="M310.768,464.378c0-0.354-0.289-0.643-0.644-0.643h-2.974
				c-0.354,0-0.643,0.289-0.643,0.643v0.108c0,0.354,0.288,0.642,0.643,0.642h2.974c0.354,0,0.644-0.288,0.644-0.642V464.378z"/>
			<path fill="#FFFFFF" stroke="#939598" d="M310.768,464.378c0-0.354-0.289-0.643-0.644-0.643h-2.974
				c-0.354,0-0.643,0.289-0.643,0.643v0.108c0,0.354,0.288,0.642,0.643,0.642h2.974c0.354,0,0.644-0.288,0.644-0.642V464.378z"/>
			<path fill="#FFFFFF" stroke="#939598" stroke-miterlimit="10" d="M306.059,465.146c-1.068,0-1.939,2.902-1.939,3.973
				c0,1.084,0.871,3.986,1.939,3.986h19.489c1.071,0,1.938-2.904,1.938-3.986c0-1.071-0.867-3.971-1.938-3.971L306.059,465.146z"/>
			<path fill="#FFFFFF" stroke="#939598" d="M306.059,465.146c-1.068,0-1.939,2.902-1.939,3.973c0,1.084,0.871,3.986,1.939,3.986
				h19.489c1.071,0,1.938-2.904,1.938-3.986c0-1.071-0.867-3.971-1.938-3.971L306.059,465.146z"/>
			<path fill="#FFFFFF" stroke="#939598" stroke-miterlimit="10" d="M322.156,456.606c0-4.628-2.811-9.726-6.277-9.726
				c-3.466,0-6.273,5.095-6.273,9.726c0,4.629,2.809,7.032,6.273,7.032C319.346,463.64,322.156,461.232,322.156,456.606"/>
			<path fill="#FFFFFF" stroke="#939598" d="M322.156,456.606c0-4.628-2.811-9.726-6.277-9.726c-3.466,0-6.273,5.095-6.273,9.726
				c0,4.629,2.809,7.032,6.273,7.032C319.346,463.64,322.156,461.232,322.156,456.606z"/>
		</g>
		<g>
			<g>
				<rect x="370.262" y="381.298" fill="#FFFFFF" stroke="#939598" width="33.331" height="64.465"/>
				<path fill="#FFFFFF" stroke="#939598" d="M386.93,413.532"/>
				<path fill="#FFFFFF" stroke="#939598" d="M386.93,413.753"/>
				<path fill="#FFFFFF" stroke="#939598" d="M386.93,435.611"/>
			</g>
			<circle fill="#FFFFFF" stroke="#939598" cx="387.084" cy="431.07" r="1.368"/>
			<path fill="#FFFFFF" stroke="#939598" d="M387.029,384.978c-9.553,0-13.051,2.205-13.051,5.295c0,0,0,46.331,0,47.09
				c0,0.755,0.205,2.315,2.203,2.315c2.002,0,10.848,0,10.848,0h0.022c0,0,8.849,0,10.849,0c1.997,0,2.202-1.56,2.202-2.315
				s0-47.059,0-47.059l-0.003-0.028C400.098,387.184,396.521,384.978,387.029,384.978z"/>
			<path fill="#FFFFFF" stroke="#939598" d="M384.221,442.073c0.002-0.773-0.621-1.396-1.406-1.396c-0.758,0-1.383,0.62-1.389,1.396
				c0.006,0.77,0.631,1.401,1.389,1.401C383.598,443.476,384.223,442.851,384.221,442.073z"/>
			<path fill="#FFFFFF" stroke="#939598" d="M392.884,442.073c0.009-0.773-0.63-1.396-1.397-1.396c-0.766,0-1.396,0.62-1.396,1.396
				c0,0.77,0.632,1.401,1.396,1.396C392.259,443.476,392.884,442.842,392.884,442.073z"/>
			<path fill="#FFFFFF" stroke="#939598" d="M385.205,442.486c0,1.146,0.771,2.071,1.92,2.074c1.145-0.003,1.77-0.929,1.77-2.074
				l-0.735-7.89c0-0.773-2.089-0.773-2.089,0L385.205,442.486z"/>
		</g>
		<g>
			<g>
				<g>
					<g>
						<rect x="375.439" y="336.896" fill="#FFFFFF" stroke="#939598" width="26.164" height="28.481"/>
						<path fill="#FFFFFF" stroke="#939598" d="M387.652,351.139"/>
						<polyline fill="#FFFFFF" stroke="#939598" points="383.248,342.497 379.268,342.497 378.339,345.938 378.339,356.472 
							379.268,359.956 383.248,359.956 						"/>
						<line fill="none" stroke="#939598" x1="383.248" y1="365.585" x2="383.248" y2="336.896"/>
						<path fill="#FFFFFF" stroke="#939598" d="M386.318,351.228"/>
					</g>
				</g>
			</g>
			<polygon fill="#FFFFFF" stroke="#939598" points="381.531,363.995 381.525,361.693 383.129,361.188 383.139,364.501 			"/>
		</g>
		<g>
			<g>
				<g>
					<polygon fill="none" stroke="#939598" stroke-width="0.7" points="197.693,438.527 199.458,439.496 192.108,451.62 
						190.343,450.651 					"/>
					<path fill="none" stroke="#939598" stroke-width="0.8" d="M193.56,446.055"/>
				</g>
				<path fill="none" stroke="#939598" stroke-width="0.8" d="M198.369,439.111c4.52,2.736,6.947,7.611,6.785,12.541"/>
			</g>
		</g>
		<g>
			<g>
				<g>
					<path fill="none" stroke="#939598" d="M351.729,460.773"/>
				</g>
				<g>
					<path fill="none" stroke="#939598" d="M351.729,462.272"/>
				</g>
				<g>
					<circle fill="none" stroke="#939598" cx="351.729" cy="460.773" r="1.435"/>
					<path fill="none" stroke="#939598" d="M351.729,460.773"/>
				</g>
				<g>
					<g>
						<rect x="345.71" y="469.769" fill="none" stroke="#939598" width="12.065" height="2.997"/>
						<path fill="none" stroke="#939598" d="M351.729,471.268"/>
					</g>
					<g>
						<rect x="351.089" y="463.948" fill="none" stroke="#939598" width="1.278" height="5.688"/>
						<path fill="none" stroke="#939598" d="M351.729,467.278"/>
					</g>
					<g>
						<circle fill="none" stroke="#939598" cx="351.729" cy="471.239" r="1.392"/>
						<path fill="none" stroke="#939598" d="M351.729,471.238"/>
					</g>
				</g>
			</g>
			<g>
				<rect x="339.698" y="453.649" fill="none" stroke="#939598" width="24.092" height="19.574"/>
				<rect x="341.663" y="455.617" fill="none" stroke="#939598" width="20.112" height="14.081"/>
			</g>
		</g>
		<g>
			<g>
				<path fill="#FFFFFF" stroke="#939598" d="M290.393,412.851c0,0.57-0.459,1.033-1.029,1.033h-18.021
					c-0.566,0-1.029-0.464-1.029-1.033v-30.567c0-0.568,0.463-1.031,1.029-1.031h18.021c0.57,0,1.029,0.463,1.029,1.031V412.851z"/>
				<path fill="#FFFFFF" stroke="#939598" d="M281.127,397.676"/>
			</g>
			<g>
				<circle fill="#FFFFFF" stroke="#939598" cx="279.907" cy="397.676" r="1.168"/>
				<path fill="#FFFFFF" stroke="#939598" d="M279.909,397.676"/>
			</g>
			<g>
				<g>
					<rect x="287.234" y="392.579" fill="#FFFFFF" stroke="#939598" width="2.438" height="10.196"/>
					<path fill="#FFFFFF" stroke="#939598" d="M288.455,397.676"/>
				</g>
				<g>
					<rect x="282.493" y="397.154" fill="#FFFFFF" stroke="#939598" width="4.805" height="1.042"/>
					<path fill="#FFFFFF" stroke="#939598" d="M285.205,397.676"/>
				</g>
				<g>
					<circle fill="#FFFFFF" stroke="#939598" cx="288.434" cy="397.676" r="1.135"/>
					<path fill="#FFFFFF" stroke="#939598" d="M288.432,397.676"/>
				</g>
			</g>
			<g>
				<path fill="#FFFFFF" stroke="#939598" d="M279.909,397.676"/>
				<path fill="none" stroke="#939598" d="M286.393,398.307v12.853c0,0.601-0.485,1.089-1.084,1.089h-12.36
					c-0.595,0-1.087-0.489-1.087-1.089v-27.182c0-0.602,0.492-1.089,1.087-1.089h12.36c0.599,0,1.084,0.487,1.084,1.089v13.032"/>
			</g>
		</g>
		<polyline fill="none" stroke="#939598" stroke-dasharray="1.5,1.5,1.5,1.5,1.5,1.5" points="279.178,426.604 279.178,377.095 
			293.639,377.095 		"/>
	</g>
	<g id="walls">
		<polyline fill="none" stroke="#939598" stroke-width="3" points="82.715,51.585 126.385,51.585 126.385,46.379 		"/>
		<polyline fill="none" stroke="#939598" stroke-width="3" points="280.352,44.615 280.352,50.827 232.629,50.827 232.568,47.135 		
			"/>
		<polyline fill="none" stroke="#939598" stroke-width="3" points="388.52,45.118 388.52,50.838 406.418,50.838 406.418,162.923 
			414.267,162.923 		"/>
		<path fill="none" stroke="#939598" stroke-width="4" d="M265.421,322.351"/>
		<path fill="none" stroke="#939598" stroke-width="4" d="M265.421,54.289"/>
		<polyline fill="none" stroke="#939598" stroke-width="3" points="127.157,363.97 139.854,363.97 139.854,333.285 83.068,333.285 
					"/>
		<line fill="none" stroke="#939598" stroke-width="3" x1="85.185" y1="363.97" x2="94.002" y2="363.97"/>
		<polyline fill="none" stroke="#939598" stroke-width="3" points="326.525,322.351 264.012,322.351 264.012,52.172 		"/>
		<line fill="none" stroke="#939598" stroke-width="3" x1="404.744" y1="322.351" x2="359.793" y2="322.351"/>
		<line fill="none" stroke="#939598" stroke-width="3" x1="376.525" y1="311.062" x2="376.525" y2="321.646"/>
		<polyline fill="none" stroke="#939598" stroke-width="3" points="406.506,246.937 376.525,246.937 376.525,253.219 		"/>
		<polyline fill="none" stroke="#939598" stroke-width="3" points="297.52,253.219 297.52,247.009 263.677,246.72 		"/>
		<line fill="none" stroke="#939598" stroke-width="3" x1="297.52" y1="323.056" x2="297.52" y2="312.122"/>
		<polyline fill="none" stroke="#939598" stroke-width="3" points="371.568,477.544 371.568,447.564 405.802,447.564 		"/>
		<line fill="none" stroke="#939598" stroke-width="3" x1="342.49" y1="378.785" x2="404.744" y2="378.785"/>
		<polyline fill="none" stroke="#939598" stroke-width="3" points="295.05,477.544 295.05,378.785 309.333,378.785 		"/>
		<line fill="none" stroke="#939598" stroke-width="3" x1="370.499" y1="335.007" x2="370.529" y2="321.997"/>
		<line fill="none" stroke="#939598" stroke-width="3" x1="370.529" y1="378.785" x2="370.529" y2="365.815"/>
		<polyline fill="none" stroke="#939598" stroke-width="5" points="223.703,43.817 231.266,43.81 231.266,39.827 281.412,39.827 
			281.646,43.81 414.123,43.81 414.123,242.351 406.506,242.351 406.506,478.955 147.134,479.032 147.134,450.385 129.359,450.385 
			129.359,452.502 146.557,452.502 		"/>
		<polyline fill="none" stroke="#939598" stroke-width="5" points="83.42,450.738 90.668,450.738 90.668,453.204 83.564,453.062 
			83.564,364.323 83.564,38.267 127.529,38.267 127.811,43.91 133.878,43.904 		"/>
		<line fill="none" stroke="#939598" stroke-width="3" x1="298.93" y1="379.138" x2="298.93" y2="477.544"/>
		<g>
			<rect x="175.714" y="44.192" fill="none" stroke="#939598" width="52.907" height="2.492"/>
			<rect x="130.214" y="41.268" fill="none" stroke="#939598" width="57.846" height="2.734"/>
		</g>
	</g>
	<g id="windows">
		<g>
			<rect x="411.459" y="166.351" fill="#FFFFFF" stroke="#939598" width="5.396" height="71.6"/>
			<line fill="none" stroke="#939598" x1="414.267" y1="166.351" x2="414.267" y2="239.008"/>
			<line fill="none" stroke="#939598" stroke-width="2" x1="417.285" y1="200.74" x2="411.465" y2="200.74"/>
		</g>
		<g>
			<g>
				<rect x="286.496" y="41.325" fill="#FFFFFF" stroke="#939598" width="98.145" height="5.184"/>
				<line fill="none" stroke="#939598" x1="384.639" y1="43.892" x2="285.438" y2="43.892"/>
				<line fill="none" stroke="#939598" stroke-width="2" x1="352.648" y1="46.732" x2="352.648" y2="41.803"/>
			</g>
			<line fill="none" stroke="#939598" stroke-width="2" x1="319.65" y1="46.908" x2="319.65" y2="41.827"/>
		</g>
	</g>
	<g id="Type">
		<g enable-background="new    ">
			<path fill="#939598" d="M274.021,436.021h-2.401v-6.918h2.401c2.172,0,3.674,1.493,3.674,3.449
				C277.695,434.508,276.193,436.021,274.021,436.021z M274.021,429.825h-1.623v5.476h1.623c1.748,0,2.863-1.186,2.863-2.729
				C276.885,431.03,275.77,429.825,274.021,429.825z"/>
			<path fill="#939598" d="M283.176,429.083h0.643l1.898,5.782l1.977-5.762h0.82l-2.473,6.969h-0.663l-1.896-5.615l-1.906,5.615
				h-0.653l-2.472-6.969h0.854l1.976,5.762L283.176,429.083z"/>
		</g>
		<g enable-background="new    ">
			<path fill="#939598" d="M167.005,458.596l-2.006-2.688h-1.977v2.688h-0.78v-6.916h2.975c1.521,0,2.498,0.818,2.498,2.063
				c0,1.156-0.789,1.827-1.878,2.026l2.125,2.825L167.005,458.596L167.005,458.596z M165.157,452.399h-2.135v2.807h2.125
				c1.037,0,1.779-0.531,1.779-1.433C166.926,452.914,166.273,452.399,165.157,452.399z"/>
			<path fill="#939598" d="M171.407,458.053c0.701,0,1.196-0.286,1.611-0.725l0.475,0.427c-0.514,0.571-1.136,0.959-2.104,0.959
				c-1.404,0-2.55-1.079-2.55-2.668c0-1.482,1.037-2.67,2.451-2.67c1.511,0,2.381,1.205,2.381,2.707c0,0.07,0,0.149-0.01,0.237
				h-4.052C169.718,457.43,170.509,458.053,171.407,458.053z M172.899,455.76c-0.079-0.93-0.612-1.74-1.63-1.74
				c-0.89,0-1.562,0.742-1.661,1.74H172.899z"/>
			<path fill="#939598" d="M177.659,453.506v0.652h-1.611v4.438h-0.76v-4.438h-0.703v-0.663h0.703v-0.44
				c0-1.117,0.563-1.712,1.541-1.712c0.355,0,0.592,0.04,0.84,0.13v0.662c-0.276-0.079-0.483-0.129-0.741-0.129
				c-0.593,0-0.889,0.355-0.889,1.087v0.415h1.621L177.659,453.506L177.659,453.506z"/>
		</g>
		<g enable-background="new    ">
			<path fill="#939598" d="M332.146,420.154c0,1.168-0.711,1.768-1.408,2.069c1.053,0.315,1.904,0.929,1.904,2.159
				c0,1.535-1.283,2.439-3.229,2.439h-3.949v-8.894h3.786C331.002,417.932,332.146,418.796,332.146,420.154z M331.13,420.294
				c0-0.889-0.698-1.461-1.97-1.461h-2.706v3.062h2.629C330.291,421.894,331.13,421.349,331.13,420.294z M331.625,424.32
				c0-0.979-0.812-1.539-2.361-1.539h-2.81v3.14h2.983C330.787,425.921,331.625,425.323,331.625,424.32z"/>
			<path fill="#939598" d="M334.85,421.514l-0.293-0.799c0.726-0.33,1.437-0.55,2.389-0.55c1.791,0,2.791,0.915,2.791,2.644v4.017
				h-0.938v-0.992c-0.458,0.599-1.222,1.13-2.377,1.13c-1.221,0-2.451-0.684-2.451-2.056c0-1.396,1.146-2.136,2.809-2.136
				c0.838,0,1.437,0.114,2.021,0.278v-0.229c0-1.182-0.727-1.791-1.958-1.791C336.068,421.03,335.457,421.234,334.85,421.514z
				 M334.964,424.866c0,0.839,0.761,1.321,1.649,1.321c1.205,0,2.197-0.735,2.197-1.777v-0.634c-0.482-0.143-1.132-0.28-1.932-0.28
				C335.648,423.495,334.964,424.028,334.964,424.866z"/>
			<path fill="#939598" d="M343.079,424.956c0,0.8,0.442,1.092,1.104,1.092c0.33,0,0.608-0.062,0.95-0.229v0.837
				c-0.342,0.18-0.712,0.279-1.181,0.279c-1.055,0-1.854-0.521-1.854-1.854v-3.963h-0.914v-0.866h0.914v-1.979h0.979v1.979h2.083
				v0.866h-2.083L343.079,424.956L343.079,424.956z"/>
			<path fill="#939598" d="M347.865,426.824h-0.979v-9.272h0.979v3.852c0.433-0.713,1.117-1.284,2.248-1.284
				c1.588,0,2.515,1.068,2.515,2.63v4.077h-0.976v-3.836c0-1.219-0.662-1.98-1.819-1.98c-1.129,0-1.968,0.825-1.968,2.06V426.824z"
				/>
		</g>
		<g enable-background="new    ">
			<path fill="#939598" d="M103.264,450.744h-4.22v2.361h3.773v0.714h-3.773v2.42h4.27v0.711h-5.05v-6.916h5V450.744z"/>
			<path fill="#939598" d="M105.515,456.949h-0.762v-5.108h0.762v0.892c0.335-0.556,0.867-0.999,1.749-0.999
				c1.234,0,1.957,0.831,1.957,2.047v3.171h-0.763v-2.983c0-0.946-0.514-1.542-1.412-1.542c-0.879,0-1.53,0.644-1.53,1.602
				L105.515,456.949L105.515,456.949z"/>
			<path fill="#939598" d="M111.864,455.497c0,0.622,0.346,0.853,0.859,0.853c0.257,0,0.474-0.05,0.74-0.182v0.654
				c-0.267,0.139-0.554,0.216-0.918,0.216c-0.82,0-1.441-0.404-1.441-1.441v-3.083h-0.711v-0.673h0.711V450.3h0.761v1.541h1.621
				v0.673h-1.621L111.864,455.497L111.864,455.497z"/>
			<path fill="#939598" d="M115.586,456.949h-0.76v-5.108h0.76v1.334c0.375-0.851,1.117-1.463,2.085-1.424v0.82h-0.06
				c-1.116,0-2.026,0.8-2.026,2.342L115.586,456.949L115.586,456.949z"/>
			<path fill="#939598" d="M121.314,457.117c-0.435,1.058-0.928,1.44-1.7,1.44c-0.424,0-0.741-0.089-1.088-0.257l0.257-0.604
				c0.247,0.129,0.474,0.188,0.8,0.188c0.454,0,0.741-0.235,1.047-0.959l-2.321-5.088h0.84l1.857,4.259l1.642-4.259h0.81
				L121.314,457.117z"/>
		</g>
		<g enable-background="new    ">
			<path fill="#939598" d="M321.908,142.479c0,1.167-0.711,1.767-1.408,2.071c1.055,0.317,1.904,0.927,1.904,2.159
				c0,1.536-1.281,2.439-3.227,2.439h-3.947v-8.892h3.783C320.766,140.255,321.908,141.121,321.908,142.479z M320.895,142.619
				c0-0.891-0.699-1.461-1.972-1.461h-2.705v3.061h2.63C320.055,144.219,320.895,143.673,320.895,142.619z M321.389,146.646
				c0-0.978-0.812-1.538-2.361-1.538h-2.81v3.138h2.983C320.55,148.247,321.389,147.649,321.389,146.646z"/>
			<path fill="#939598" d="M327.127,148.449c0.9,0,1.537-0.369,2.068-0.927l0.611,0.546c-0.66,0.737-1.461,1.234-2.705,1.234
				c-1.806,0-3.276-1.384-3.276-3.43c0-1.906,1.334-3.432,3.149-3.432c1.941,0,3.062,1.551,3.062,3.481c0,0.089,0,0.191-0.015,0.306
				h-5.207C324.955,147.649,325.971,148.449,327.127,148.449z M329.044,145.502c-0.103-1.194-0.788-2.235-2.097-2.235
				c-1.143,0-2.008,0.952-2.133,2.235H329.044z"/>
			<path fill="#939598" d="M337.021,149.147v-1.321c-0.535,0.787-1.312,1.459-2.519,1.459c-1.573,0-3.136-1.244-3.136-3.416
				c0-2.159,1.561-3.431,3.136-3.431c1.222,0,2.009,0.662,2.519,1.399v-3.965h0.977v9.272h-0.977V149.147z M334.682,143.317
				c-1.271,0-2.312,0.939-2.312,2.54c0,1.562,1.068,2.553,2.312,2.553c1.221,0,2.375-1.016,2.375-2.553
				C337.057,144.334,335.9,143.317,334.682,143.317z"/>
			<path fill="#939598" d="M341.156,149.147h-0.977v-6.566h0.977v1.714c0.482-1.091,1.437-1.88,2.681-1.829v1.054h-0.077
				c-1.436,0-2.604,1.029-2.604,3.011V149.147L341.156,149.147z"/>
			<path fill="#939598" d="M348.039,149.301c-1.969,0-3.402-1.551-3.402-3.418c0-1.867,1.446-3.443,3.432-3.443
				c1.97,0,3.414,1.551,3.414,3.418C351.48,147.726,350.021,149.301,348.039,149.301z M348.039,143.306
				c-1.422,0-2.398,1.131-2.398,2.554c0,1.423,1.041,2.566,2.428,2.566c1.423,0,2.41-1.132,2.41-2.541
				C350.479,144.447,349.426,143.306,348.039,143.306z"/>
			<path fill="#939598" d="M356.243,149.301c-1.972,0-3.403-1.551-3.403-3.418c0-1.867,1.444-3.443,3.43-3.443
				c1.971,0,3.416,1.551,3.416,3.418C359.686,147.726,358.225,149.301,356.243,149.301z M356.243,143.306
				c-1.423,0-2.399,1.131-2.399,2.554c0,1.423,1.041,2.566,2.426,2.566c1.422,0,2.414-1.132,2.414-2.541
				C358.682,144.447,357.626,143.306,356.243,143.306z"/>
			<path fill="#939598" d="M368.968,142.439c1.511,0,2.438,1.018,2.438,2.644v4.064h-0.977v-3.836c0-1.271-0.638-1.981-1.703-1.981
				c-0.99,0-1.815,0.735-1.815,2.032v3.785h-0.968v-3.861c0-1.233-0.646-1.956-1.688-1.956c-1.042,0-1.829,0.863-1.829,2.07v3.747
				h-0.978v-6.566h0.978v1.105c0.433-0.647,1.019-1.247,2.121-1.247c1.068,0,1.754,0.572,2.108,1.31
				C367.123,143.025,367.824,142.439,368.968,142.439z"/>
		</g>
		<g enable-background="new    ">
			<path fill="#939598" d="M306.52,155.713h0.732v8.955h-0.988v-7.913l-1.678,0.521l-0.242-0.813L306.52,155.713z"/>
			<path fill="#939598" d="M313.068,164.82c-2.299,0-3.745-2.083-3.745-4.585s1.475-4.612,3.772-4.612
				c2.286,0,3.732,2.083,3.732,4.584C316.83,162.71,315.355,164.82,313.068,164.82z M313.068,156.54
				c-1.662,0-2.703,1.702-2.703,3.67c0,1.97,1.066,3.697,2.73,3.697c1.663,0,2.69-1.716,2.69-3.671
				C315.788,158.277,314.734,156.54,313.068,156.54z"/>
			<path fill="#939598" d="M318.822,155.775h1.191v0.063l-1.027,3.391h-0.549L318.822,155.775z"/>
			<path fill="#939598" d="M321.588,155.775h6.034v0.75l-4.039,8.142h-1.119l4.017-7.976h-4.893V155.775L321.588,155.775z"/>
			<path fill="#939598" d="M329.499,155.775h1.181v0.063l-1.027,3.391h-0.533L329.499,155.775z M331.988,155.775h1.17v0.063
				l-1.029,3.391h-0.531L331.988,155.775z"/>
			<path fill="#939598" d="M344.484,164.667h-1.131l-2.033-2.68l-2.043,2.68h-1.09l2.576-3.341l-2.477-3.225h1.115l1.943,2.541
				l1.943-2.541h1.092l-2.488,3.201L344.484,164.667z"/>
			<path fill="#939598" d="M351.312,155.713h0.736v8.955h-0.99v-7.913l-1.678,0.521l-0.242-0.813L351.312,155.713z"/>
			<path fill="#939598" d="M354.843,155.775h5.119v0.928h-4.243l-0.189,2.845c0.52-0.228,1.018-0.394,1.752-0.394
				c1.729,0,3.076,1.028,3.076,2.731c0,1.752-1.323,2.935-3.178,2.935c-1.27,0-2.376-0.611-3.176-1.411l0.662-0.724
				c0.773,0.75,1.625,1.219,2.525,1.219c1.27,0,2.146-0.839,2.146-1.981c0-1.118-0.899-1.881-2.208-1.881
				c-0.75,0-1.348,0.229-1.866,0.509l-0.675-0.445L354.843,155.775z"/>
			<path fill="#939598" d="M362.311,155.775h1.192v0.063l-1.026,3.391h-0.549L362.311,155.775z"/>
			<path fill="#939598" d="M368.747,164.82c-2.298,0-3.744-2.083-3.744-4.585s1.474-4.612,3.772-4.612
				c2.283,0,3.732,2.083,3.732,4.584C372.509,162.71,371.034,164.82,368.747,164.82z M368.747,156.54
				c-1.663,0-2.704,1.702-2.704,3.67c0,1.97,1.066,3.697,2.732,3.697c1.662,0,2.69-1.716,2.69-3.671
				C371.467,158.277,370.411,156.54,368.747,156.54z"/>
			<path fill="#939598" d="M374.499,155.775h1.183v0.063l-1.029,3.391h-0.533L374.499,155.775z M376.989,155.775h1.168v0.063
				l-1.027,3.391h-0.532L376.989,155.775z"/>
		</g>
		<g enable-background="new    ">
			<path fill="#939598" d="M113.987,188.225h1.003v7.965h5.004v0.927h-6.007V188.225z"/>
			<path fill="#939598" d="M121.707,189.113v-1.079h1.118v1.079H121.707z M121.771,197.116v-6.567h0.978v6.566L121.771,197.116
				L121.771,197.116z"/>
			<path fill="#939598" d="M129.887,190.549h1.054l-2.857,6.617h-0.863l-2.847-6.617h1.081l2.209,5.45L129.887,190.549z"/>
			<path fill="#939598" d="M132.5,189.113v-1.079h1.117v1.079H132.5z M132.563,197.116v-6.567h0.978v6.566L132.563,197.116
				L132.563,197.116z"/>
			<path fill="#939598" d="M136.792,197.116h-0.978v-6.567h0.978v1.145c0.433-0.712,1.117-1.284,2.249-1.284
				c1.587,0,2.515,1.068,2.515,2.629v4.078h-0.979v-3.837c0-1.219-0.661-1.979-1.816-1.979c-1.131,0-1.97,0.824-1.97,2.056
				L136.792,197.116L136.792,197.116z"/>
			<path fill="#939598" d="M146.543,199.173c-1.092,0-2.108-0.305-2.984-0.914l0.443-0.761c0.75,0.546,1.587,0.838,2.528,0.838
				c1.447,0,2.389-0.8,2.389-2.336v-0.777c-0.571,0.764-1.373,1.385-2.579,1.385c-1.574,0-3.087-1.168-3.087-3.087
				c0-1.93,1.523-3.112,3.087-3.112c1.231,0,2.031,0.61,2.564,1.321v-1.181h0.978v5.424
				C149.885,198.095,148.562,199.173,146.543,199.173z M146.531,191.274c-1.244,0-2.272,0.852-2.272,2.223
				c0,1.347,1.054,2.248,2.272,2.248c1.245,0,2.414-0.889,2.414-2.234C148.944,192.15,147.775,191.274,146.531,191.274z"/>
			<path fill="#939598" d="M157.503,186.981l-5.894,11.762h-0.903l5.894-11.762H157.503z"/>
			<path fill="#939598" d="M161.769,197.116h-3.087v-8.892h3.087c2.793,0,4.725,1.918,4.725,4.434
				C166.493,195.174,164.563,197.116,161.769,197.116z M161.769,189.153h-2.083v7.036h2.083c2.248,0,3.684-1.524,3.684-3.505
				S164.017,189.153,161.769,189.153z"/>
			<path fill="#939598" d="M168.474,189.113v-1.079h1.116v1.079H168.474z M168.536,197.116v-6.567h0.979v6.566L168.536,197.116
				L168.536,197.116z"/>
			<path fill="#939598" d="M172.764,197.116h-0.979v-6.567h0.979v1.145c0.431-0.712,1.116-1.284,2.249-1.284
				c1.587,0,2.514,1.068,2.514,2.629v4.078h-0.979v-3.837c0-1.219-0.659-1.979-1.815-1.979c-1.131,0-1.97,0.824-1.97,2.056
				L172.764,197.116L172.764,197.116z"/>
			<path fill="#939598" d="M179.632,189.113v-1.079h1.117v1.079H179.632z M179.696,197.116v-6.567h0.979v6.566L179.696,197.116
				L179.696,197.116z"/>
			<path fill="#939598" d="M183.925,197.116h-0.979v-6.567h0.979v1.145c0.432-0.712,1.116-1.284,2.248-1.284
				c1.588,0,2.515,1.068,2.515,2.629v4.078h-0.979v-3.837c0-1.219-0.659-1.979-1.816-1.979c-1.13,0-1.97,0.824-1.97,2.056
				L183.925,197.116L183.925,197.116z"/>
			<path fill="#939598" d="M193.678,199.173c-1.093,0-2.109-0.305-2.985-0.914l0.444-0.761c0.749,0.546,1.587,0.838,2.527,0.838
				c1.447,0,2.39-0.8,2.39-2.336v-0.777c-0.571,0.764-1.373,1.385-2.579,1.385c-1.574,0-3.087-1.168-3.087-3.087
				c0-1.93,1.524-3.112,3.087-3.112c1.23,0,2.03,0.61,2.564,1.321v-1.181h0.979v5.424
				C197.019,198.095,195.696,199.173,193.678,199.173z M193.664,191.274c-1.245,0-2.272,0.852-2.272,2.223
				c0,1.347,1.054,2.248,2.272,2.248c1.245,0,2.413-0.889,2.413-2.234C196.077,192.15,194.909,191.274,193.664,191.274z"/>
			<path fill="#939598" d="M209.295,197.116l-2.578-3.455h-2.54v3.455h-1.004v-8.892h3.824c1.956,0,3.214,1.054,3.214,2.655
				c0,1.486-1.016,2.349-2.412,2.604l2.73,3.633H209.295z M206.921,189.153h-2.741v3.607h2.729c1.333,0,2.286-0.686,2.286-1.842
				C209.193,189.812,208.355,189.153,206.921,189.153z"/>
			<path fill="#939598" d="M215.061,197.271c-1.971,0-3.404-1.551-3.404-3.418c0-1.866,1.447-3.442,3.43-3.442
				c1.971,0,3.416,1.55,3.416,3.417C218.501,195.694,217.041,197.271,215.061,197.271z M215.061,191.274
				c-1.422,0-2.401,1.131-2.401,2.554c0,1.423,1.041,2.566,2.427,2.566c1.422,0,2.413-1.133,2.413-2.542
				C217.498,192.417,216.443,191.274,215.061,191.274z"/>
			<path fill="#939598" d="M223.264,197.271c-1.971,0-3.404-1.551-3.404-3.418c0-1.866,1.447-3.442,3.43-3.442
				c1.971,0,3.416,1.55,3.416,3.417C226.704,195.694,225.244,197.271,223.264,197.271z M223.264,191.274
				c-1.422,0-2.402,1.131-2.402,2.554c0,1.423,1.043,2.566,2.428,2.566c1.422,0,2.413-1.133,2.413-2.542
				C225.701,192.417,224.646,191.274,223.264,191.274z"/>
			<path fill="#939598" d="M235.988,190.409c1.511,0,2.438,1.018,2.438,2.643v4.064h-0.979v-3.836c0-1.27-0.634-1.981-1.702-1.981
				c-0.991,0-1.814,0.736-1.814,2.032v3.785h-0.969v-3.86c0-1.233-0.646-1.957-1.688-1.957s-1.828,0.864-1.828,2.07v3.747h-0.979
				v-6.567h0.979v1.105c0.432-0.648,1.016-1.246,2.119-1.246c1.067,0,1.754,0.571,2.109,1.31
				C234.146,190.995,234.844,190.409,235.988,190.409z"/>
		</g>
		<g enable-background="new    ">
			<path fill="#939598" d="M139.37,203.683h0.736v8.955h-0.991v-7.913l-1.676,0.521l-0.241-0.813L139.37,203.683z"/>
			<path fill="#939598" d="M142.493,204.646v-0.902h5.677v0.737l-2.795,3.099c1.562,0.126,2.936,0.875,2.936,2.514
				c0,1.602-1.321,2.693-2.972,2.693c-1.485,0-2.59-0.649-3.315-1.589l0.725-0.647c0.686,0.839,1.511,1.321,2.603,1.321
				c1.081,0,1.942-0.686,1.942-1.739c0-1.117-1.015-1.728-2.488-1.728h-0.571l-0.203-0.598l2.808-3.162L142.493,204.646
				L142.493,204.646z"/>
			<path fill="#939598" d="M150.378,203.745h1.194v0.063l-1.028,3.392h-0.546L150.378,203.745z"/>
			<path fill="#939598" d="M154.811,203.683h0.735v8.955h-0.99v-7.913l-1.677,0.521l-0.24-0.813L154.811,203.683z"/>
			<path fill="#939598" d="M161.362,212.791c-2.298,0-3.748-2.085-3.748-4.586s1.473-4.612,3.773-4.612
				c2.287,0,3.733,2.084,3.733,4.586C165.122,210.678,163.649,212.791,161.362,212.791z M161.362,204.507
				c-1.664,0-2.705,1.701-2.705,3.671c0,1.97,1.066,3.697,2.731,3.697s2.692-1.717,2.692-3.672S163.025,204.507,161.362,204.507z"/>
			<path fill="#939598" d="M167.114,203.745h1.181v0.063l-1.027,3.392h-0.534L167.114,203.745z M169.603,203.745h1.17v0.063
				l-1.028,3.392h-0.533L169.603,203.745z"/>
			<path fill="#939598" d="M182.098,212.635h-1.13l-2.032-2.68l-2.044,2.68H175.8l2.578-3.341l-2.476-3.226h1.117l1.942,2.541
				l1.943-2.541h1.092l-2.491,3.201L182.098,212.635z"/>
			<path fill="#939598" d="M187.911,206.043l-0.736-0.533c0.8-1.194,1.639-1.893,3.201-1.893c1.613,0,2.758,1.066,2.758,2.527
				c0,1.31-0.687,2.108-2.249,3.468l-2.375,2.107h4.712v0.915h-6.21v-0.775l3.227-2.846c1.359-1.219,1.854-1.905,1.854-2.794
				c0-1.04-0.825-1.702-1.792-1.702C189.283,204.52,188.622,205.052,187.911,206.043z"/>
			<path fill="#939598" d="M196.533,203.683h0.736v8.955h-0.99v-7.913l-1.676,0.521l-0.241-0.813L196.533,203.683z"/>
			<path fill="#939598" d="M199.759,203.745h1.193v0.063l-1.027,3.392h-0.547L199.759,203.745z"/>
			<path fill="#939598" d="M205.408,212.791c-1.155,0-1.994-0.47-2.743-1.093l0.584-0.775c0.726,0.635,1.396,0.954,2.185,0.954
				c1.601,0,2.68-1.626,2.644-3.9c-0.481,0.774-1.282,1.422-2.517,1.422c-1.828,0-3.099-1.155-3.099-2.768
				c0-1.703,1.31-3.036,3.201-3.036c1.017,0,1.767,0.344,2.337,0.914c0.698,0.699,1.104,1.665,1.104,3.455
				C209.105,210.795,207.605,212.791,205.408,212.791z M205.626,204.482c-1.333,0-2.135,0.977-2.135,2.095
				c0,1.144,0.889,1.956,2.185,1.956c1.358,0,2.211-0.991,2.211-2.02C207.887,205.372,206.957,204.482,205.626,204.482z"/>
			<path fill="#939598" d="M211.084,203.745h1.184v0.063l-1.029,3.392h-0.533L211.084,203.745z M213.573,203.745h1.17v0.063
				l-1.029,3.392h-0.532L213.573,203.745z"/>
		</g>
		<g enable-background="new    ">
			<path fill="#939598" d="M293.255,293.021c0,1.996-1.569,3.467-3.563,3.467c-1.979,0-3.59-1.461-3.59-3.496
				c0-1.258,0.443-2.006,1.099-2.697l0.573,0.533c-0.556,0.583-0.951,1.234-0.951,2.172c0,1.533,1.236,2.68,2.848,2.68
				s2.866-1.156,2.866-2.68c0-0.947-0.368-1.57-0.999-2.23l0.504-0.514C292.771,290.975,293.255,291.766,293.255,293.021z"/>
			<path fill="#939598" d="M293.139,288.954h-7.213v-0.763h7.213V288.954z"/>
			<path fill="#939598" d="M293.255,284.093c0,1.531-1.203,2.647-2.655,2.647c-1.455,0-2.68-1.127-2.68-2.667
				c0-1.531,1.204-2.658,2.656-2.658C292.031,281.415,293.255,282.552,293.255,284.093z M288.59,284.093
				c0,1.106,0.881,1.867,1.986,1.867c1.107,0,1.994-0.81,1.994-1.887c0-1.107-0.879-1.88-1.973-1.88
				C289.48,282.193,288.59,283.018,288.59,284.093z"/>
			<path fill="#939598" d="M293.236,278.355c0,0.73-0.286,1.541-0.75,2.113l-0.545-0.387c0.414-0.553,0.652-1.164,0.652-1.77
				c0-0.611-0.316-1.058-0.812-1.058h-0.021c-0.514,0-0.711,0.603-0.897,1.274c-0.228,0.802-0.504,1.688-1.443,1.688h-0.021
				c-0.879,0-1.459-0.73-1.459-1.738c0-0.623,0.215-1.313,0.561-1.838l0.573,0.348c-0.308,0.476-0.494,1.019-0.494,1.511
				c0,0.604,0.315,0.987,0.739,0.987h0.021c0.485,0,0.675-0.633,0.882-1.315c0.234-0.791,0.545-1.64,1.463-1.64h0.02
				C292.672,276.538,293.236,277.337,293.236,278.355z"/>
			<path fill="#939598" d="M292.596,272.876c0-0.703-0.287-1.196-0.725-1.61l0.425-0.476c0.573,0.512,0.959,1.135,0.959,2.104
				c0,1.4-1.075,2.549-2.668,2.549c-1.481,0-2.67-1.039-2.67-2.448c0-1.513,1.206-2.384,2.709-2.384c0.069,0,0.147,0,0.237,0.013
				v4.051C291.973,274.564,292.596,273.773,292.596,272.876z M290.302,271.382c-0.93,0.08-1.739,0.61-1.739,1.632
				c0,0.889,0.74,1.56,1.739,1.657V271.382z"/>
			<path fill="#939598" d="M291.686,268.253c0.623,0,0.852-0.346,0.852-0.858c0-0.259-0.049-0.476-0.18-0.74h0.654
				c0.137,0.266,0.217,0.555,0.217,0.919c0,0.819-0.408,1.442-1.443,1.442h-3.083v0.711h-0.673v-0.711h-1.543v-0.763h1.543v-1.621
				h0.673v1.621H291.686z"/>
		</g>
		<g enable-background="new    ">
			<path fill="#939598" d="M128.227,409.656h-1.257l-3.417-4.307l-1.893,1.917v2.39h-1.005v-8.893h1.003v5.311l5.106-5.311h1.295
				l-3.812,3.888L128.227,409.656z"/>
			<path fill="#939598" d="M129.646,401.654v-1.078h1.118v1.078H129.646z M129.709,409.656v-6.564h0.979v6.564H129.709z"/>
			<path fill="#939598" d="M134.28,407.789c0,0.801,0.445,1.093,1.104,1.093c0.329,0,0.609-0.062,0.951-0.229v0.84
				c-0.342,0.176-0.71,0.276-1.181,0.276c-1.054,0-1.854-0.521-1.854-1.854v-3.962h-0.913v-0.861h0.915v-1.981h0.978v1.981h2.084
				v0.861h-2.085L134.28,407.789L134.28,407.789z"/>
			<path fill="#939598" d="M140.86,409.81c-1.917,0-3.366-1.562-3.366-3.417c0-1.865,1.448-3.441,3.366-3.441
				c1.245,0,2.02,0.521,2.629,1.169l-0.646,0.686c-0.521-0.545-1.105-0.989-1.995-0.989c-1.333,0-2.352,1.132-2.352,2.553
				c0,1.438,1.041,2.566,2.413,2.566c0.838,0,1.486-0.42,2.006-0.978l0.622,0.584C142.88,409.275,142.093,409.81,140.86,409.81z"/>
			<path fill="#939598" d="M146.129,409.656h-0.978v-9.271h0.978v3.853c0.433-0.713,1.118-1.284,2.249-1.284
				c1.587,0,2.515,1.066,2.515,2.63v4.079h-0.979v-3.838c0-1.221-0.66-1.979-1.816-1.979c-1.13,0-1.971,0.822-1.971,2.057v3.758
				h0.002V409.656z"/>
			<path fill="#939598" d="M155.868,408.96c0.901,0,1.536-0.369,2.071-0.929l0.608,0.547c-0.659,0.737-1.462,1.232-2.705,1.232
				c-1.804,0-3.275-1.384-3.275-3.431c0-1.906,1.333-3.432,3.149-3.432c1.941,0,3.062,1.551,3.062,3.479c0,0.09,0,0.191-0.013,0.308
				h-5.208C153.697,408.157,154.712,408.96,155.868,408.96z M157.785,406.011c-0.102-1.191-0.788-2.233-2.095-2.233
				c-1.144,0-2.006,0.953-2.133,2.233H157.785z"/>
			<path fill="#939598" d="M161.468,409.656h-0.979v-6.564h0.979v1.146c0.432-0.713,1.116-1.284,2.249-1.284
				c1.587,0,2.514,1.066,2.514,2.63v4.079h-0.979v-3.838c0-1.221-0.659-1.979-1.816-1.979c-1.13,0-1.971,0.822-1.971,2.057v3.758
				h0.003V409.656z"/>
		</g>
		<g enable-background="new    ">
			<path fill="#939598" d="M100.825,359.366c-1.997,0-3.468-1.57-3.468-3.566c0-1.977,1.463-3.586,3.497-3.586
				c1.256,0,2.006,0.441,2.698,1.097l-0.533,0.571c-0.583-0.555-1.235-0.947-2.174-0.947c-1.532,0-2.679,1.232-2.679,2.847
				c0,1.61,1.155,2.866,2.679,2.866c0.947,0,1.569-0.366,2.232-1l0.514,0.504C102.871,358.882,102.08,359.366,100.825,359.366z"/>
			<path fill="#939598" d="M104.894,359.249v-7.214h0.76v7.214H104.894z"/>
			<path fill="#939598" d="M109.753,359.366c-1.531,0-2.647-1.205-2.647-2.656c0-1.455,1.125-2.68,2.668-2.68
				c1.532,0,2.657,1.204,2.657,2.657C112.431,358.142,111.293,359.366,109.753,359.366z M109.753,354.702
				c-1.107,0-1.867,0.879-1.867,1.984c0,1.108,0.81,1.997,1.886,1.997c1.106,0,1.877-0.879,1.877-1.977
				C111.65,355.589,110.83,354.702,109.753,354.702z"/>
			<path fill="#939598" d="M115.489,359.349c-0.73,0-1.541-0.286-2.115-0.752l0.386-0.545c0.553,0.414,1.167,0.654,1.769,0.654
				c0.612,0,1.058-0.317,1.058-0.812v-0.021c0-0.513-0.602-0.711-1.274-0.898c-0.8-0.227-1.69-0.504-1.69-1.442v-0.021
				c0-0.879,0.732-1.461,1.739-1.461c0.622,0,1.315,0.216,1.838,0.562l-0.345,0.57c-0.476-0.306-1.02-0.492-1.514-0.492
				c-0.602,0-0.986,0.315-0.986,0.74v0.021c0,0.484,0.632,0.673,1.314,0.88c0.79,0.236,1.642,0.545,1.642,1.463v0.021
				C117.309,358.783,116.509,359.349,115.489,359.349z"/>
			<path fill="#939598" d="M120.973,358.704c0.7,0,1.195-0.287,1.609-0.723l0.476,0.424c-0.515,0.573-1.137,0.961-2.105,0.961
				c-1.404,0-2.55-1.078-2.55-2.669c0-1.481,1.038-2.669,2.451-2.669c1.511,0,2.381,1.206,2.381,2.708c0,0.068,0,0.146-0.01,0.235
				h-4.053C119.282,358.083,120.072,358.704,120.973,358.704z M122.463,356.41c-0.078-0.927-0.611-1.737-1.63-1.737
				c-0.889,0-1.561,0.74-1.661,1.737H122.463z"/>
			<path fill="#939598" d="M125.593,357.796c0,0.621,0.346,0.851,0.858,0.851c0.257,0,0.475-0.05,0.74-0.181v0.654
				c-0.267,0.139-0.552,0.217-0.918,0.217c-0.82,0-1.442-0.404-1.442-1.442v-3.081h-0.71v-0.675h0.711v-1.541h0.761v1.541h1.62
				v0.675h-1.62V357.796z"/>
		</g>
		<g enable-background="new    ">
			<path fill="#939598" d="M192.959,390.152l4.892,4.889l-0.554,0.555l-4.89-4.892L192.959,390.152z"/>
			<path fill="#939598" d="M200.456,392.579c-0.517,0.516-1.292,0.887-2.026,0.963l-0.111-0.656
				c0.684-0.098,1.285-0.361,1.712-0.789c0.433-0.434,0.523-0.973,0.173-1.322l-0.014-0.016c-0.364-0.361-0.929-0.075-1.538,0.267
				c-0.726,0.403-1.551,0.84-2.215,0.174l-0.015-0.015c-0.618-0.619-0.515-1.553,0.199-2.264c0.44-0.438,1.082-0.777,1.696-0.903
				l0.161,0.649c-0.553,0.119-1.07,0.373-1.419,0.724c-0.426,0.426-0.475,0.919-0.174,1.222l0.015,0.015
				c0.341,0.342,0.922,0.029,1.552-0.309c0.726-0.392,1.543-0.777,2.192-0.126l0.015,0.015
				C201.346,390.895,201.177,391.858,200.456,392.579z"/>
			<path fill="#939598" d="M202.718,390.175l-5.1-5.1l0.539-0.539l5.099,5.102L202.718,390.175z"/>
			<path fill="#939598" d="M201.793,385.257l-0.6-0.279c0.216-0.577,0.49-1.087,1.014-1.612c0.984-0.984,2.039-1.033,2.99-0.084
				l2.207,2.206l-0.516,0.519l-0.546-0.545c0.077,0.58-0.05,1.289-0.685,1.928c-0.672,0.672-1.727,0.974-2.481,0.218
				c-0.77-0.771-0.544-1.804,0.373-2.722c0.46-0.459,0.853-0.727,1.265-0.955l-0.125-0.127c-0.651-0.649-1.383-0.588-2.062,0.092
				C202.2,384.321,201.977,384.769,201.793,385.257z M203.701,387.04c0.461,0.463,1.146,0.309,1.635-0.184
				c0.663-0.663,0.803-1.614,0.229-2.187l-0.349-0.351c-0.343,0.188-0.776,0.47-1.215,0.907
				C203.325,385.909,203.241,386.579,203.701,387.04z"/>
			<path fill="#939598" d="M209.087,383.807l-0.54,0.536l-3.611-3.611l0.539-0.537l0.629,0.629c-0.153-0.629-0.09-1.323,0.53-1.942
				c0.873-0.873,1.97-0.797,2.829,0.063l2.243,2.24l-0.538,0.539l-2.109-2.108c-0.67-0.671-1.451-0.729-2.088-0.09
				c-0.621,0.619-0.627,1.535,0.049,2.213L209.087,383.807z"/>
			<path fill="#939598" d="M215.748,377.144l-0.727-0.729c0.142,0.729,0.084,1.523-0.58,2.188c-0.866,0.866-2.409,1.042-3.605-0.152
				c-1.188-1.188-1.025-2.744-0.159-3.613c0.671-0.668,1.466-0.736,2.149-0.612l-2.178-2.181l0.537-0.537l5.1,5.1L215.748,377.144z
				 M211.256,375.224c-0.695,0.695-0.753,1.787,0.128,2.667c0.858,0.858,1.989,0.817,2.675,0.134
				c0.672-0.671,0.746-1.863-0.101-2.709C213.122,374.476,211.93,374.55,211.256,375.224z"/>
		</g>
		<g enable-background="new    ">
			<path fill="#939598" d="M145.427,24.034c-1.037,0-1.7-0.513-2.136-1.226l0.562-0.484c0.425,0.642,0.858,0.987,1.582,0.987
				c0.781,0,1.353-0.562,1.353-1.66v-4.634h0.792v4.624C147.58,23.233,146.661,24.034,145.427,24.034z"/>
			<path fill="#939598" d="M152.923,18.825h0.75v5.109h-0.75v-0.889c-0.346,0.553-0.87,0.997-1.75,0.997
				c-1.233,0-1.956-0.831-1.956-2.045v-3.172h0.761v2.984c0,0.95,0.513,1.542,1.412,1.542c0.87,0,1.531-0.642,1.531-1.602
				L152.923,18.825L152.923,18.825z"/>
			<path fill="#939598" d="M155.449,23.935v-7.213h0.76v7.213H155.449z"/>
			<path fill="#939598" d="M157.997,17.709v-0.841h0.871v0.841H157.997z M158.046,23.935v-5.109h0.761v5.109H158.046L158.046,23.935
				z"/>
			<path fill="#939598" d="M162.828,23.392c0.702,0,1.196-0.287,1.611-0.723l0.474,0.425c-0.514,0.572-1.136,0.96-2.104,0.96
				c-1.404,0-2.55-1.079-2.55-2.668c0-1.483,1.037-2.669,2.45-2.669c1.512,0,2.381,1.205,2.381,2.707c0,0.07,0,0.148-0.01,0.237
				h-4.052C161.138,22.769,161.929,23.392,162.828,23.392z M164.319,21.099c-0.079-0.928-0.612-1.739-1.631-1.739
				c-0.889,0-1.561,0.74-1.661,1.739H164.319z"/>
			<path fill="#939598" d="M167.448,22.482c0,0.622,0.346,0.851,0.859,0.851c0.256,0,0.474-0.05,0.739-0.179v0.653
				c-0.267,0.138-0.552,0.218-0.918,0.218c-0.82,0-1.441-0.407-1.441-1.443V19.5h-0.711v-0.673h0.711v-1.542h0.76v1.542h1.621V19.5
				h-1.621L167.448,22.482L167.448,22.482z"/>
			<path fill="#939598" d="M178.7,18.747c0,0.91-0.553,1.374-1.097,1.611c0.819,0.247,1.481,0.72,1.481,1.678
				c0,1.197-0.998,1.898-2.51,1.898h-3.072v-6.917h2.944C177.81,17.018,178.7,17.688,178.7,18.747z M177.909,18.856
				c0-0.691-0.544-1.137-1.531-1.137h-2.104V20.1h2.046C177.257,20.1,177.909,19.676,177.909,18.856z M178.295,21.986
				c0-0.76-0.632-1.196-1.839-1.196h-2.184v2.44h2.322C177.643,23.233,178.295,22.769,178.295,21.986z"/>
			<path fill="#939598" d="M180.8,19.803l-0.228-0.622c0.563-0.257,1.117-0.425,1.858-0.425c1.393,0,2.174,0.711,2.174,2.056v3.123
				h-0.731v-0.771c-0.354,0.464-0.947,0.879-1.848,0.879c-0.948,0-1.908-0.533-1.908-1.601c0-1.087,0.889-1.661,2.185-1.661
				c0.65,0,1.116,0.089,1.571,0.218v-0.176c0-0.919-0.562-1.393-1.521-1.393C181.748,19.43,181.273,19.586,180.8,19.803z
				 M180.889,22.414c0,0.651,0.592,1.027,1.286,1.027c0.938,0,1.707-0.573,1.707-1.382v-0.494c-0.375-0.109-0.879-0.217-1.501-0.217
				C181.422,21.345,180.889,21.76,180.889,22.414z"/>
			<path fill="#939598" d="M186.291,23.935v-7.213h0.762v7.213H186.291z"/>
			<path fill="#939598" d="M191.121,24.053c-1.493,0-2.619-1.215-2.619-2.659c0-1.452,1.126-2.678,2.619-2.678
				c0.968,0,1.571,0.405,2.046,0.91l-0.503,0.533c-0.404-0.425-0.859-0.771-1.552-0.771c-1.037,0-1.827,0.879-1.827,1.985
				c0,1.117,0.81,1.997,1.878,1.997c0.652,0,1.155-0.325,1.561-0.761l0.483,0.455C192.693,23.639,192.08,24.053,191.121,24.053z"/>
			<path fill="#939598" d="M196.644,24.053c-1.532,0-2.648-1.205-2.648-2.659c0-1.453,1.126-2.678,2.668-2.678
				c1.532,0,2.657,1.205,2.657,2.658C199.32,22.829,198.185,24.053,196.644,24.053z M196.644,19.39
				c-1.108,0-1.868,0.879-1.868,1.985c0,1.107,0.81,1.997,1.886,1.997c1.107,0,1.878-0.879,1.878-1.975
				C198.54,20.276,197.721,19.39,196.644,19.39z"/>
			<path fill="#939598" d="M201.451,23.935h-0.76v-5.109h0.76v0.89c0.336-0.554,0.869-0.999,1.75-0.999
				c1.234,0,1.957,0.831,1.957,2.046v3.172h-0.762V20.95c0-0.948-0.516-1.542-1.414-1.542c-0.879,0-1.53,0.641-1.53,1.601
				L201.451,23.935L201.451,23.935z"/>
			<path fill="#939598" d="M209.118,24.102c-0.435,1.057-0.929,1.442-1.7,1.442c-0.425,0-0.74-0.089-1.088-0.256l0.256-0.604
				c0.247,0.128,0.477,0.188,0.803,0.188c0.453,0,0.738-0.237,1.045-0.958l-2.322-5.089h0.841l1.858,4.259l1.641-4.259h0.811
				L209.118,24.102z"/>
		</g>
		<g enable-background="new    ">
			<path fill="#939598" d="M387.312,293.021c0,1.996-1.568,3.467-3.566,3.467c-1.975,0-3.585-1.461-3.585-3.496
				c0-1.258,0.442-2.006,1.095-2.697l0.574,0.533c-0.557,0.583-0.949,1.234-0.949,2.172c0,1.533,1.234,2.68,2.848,2.68
				c1.612,0,2.865-1.156,2.865-2.68c0-0.947-0.367-1.57-0.998-2.23l0.502-0.514C386.83,290.975,387.312,291.766,387.312,293.021z"/>
			<path fill="#939598" d="M387.193,288.954h-7.211v-0.763h7.211V288.954z"/>
			<path fill="#939598" d="M387.312,284.093c0,1.531-1.205,2.647-2.656,2.647c-1.453,0-2.68-1.127-2.68-2.667
				c0-1.531,1.205-2.658,2.659-2.658C386.088,281.415,387.312,282.552,387.312,284.093z M382.648,284.093
				c0,1.106,0.879,1.867,1.984,1.867s1.997-0.81,1.997-1.887c0-1.107-0.879-1.88-1.978-1.88
				C383.539,282.193,382.648,283.018,382.648,284.093z"/>
			<path fill="#939598" d="M387.293,278.355c0,0.73-0.285,1.541-0.75,2.113l-0.547-0.387c0.416-0.553,0.654-1.164,0.654-1.77
				c0-0.611-0.316-1.058-0.812-1.058h-0.021c-0.516,0-0.711,0.603-0.901,1.274c-0.226,0.802-0.502,1.688-1.44,1.688h-0.021
				c-0.879,0-1.463-0.73-1.463-1.738c0-0.623,0.219-1.313,0.562-1.838l0.572,0.348c-0.305,0.476-0.492,1.019-0.492,1.511
				c0,0.604,0.314,0.987,0.738,0.987h0.021c0.481,0,0.672-0.633,0.879-1.315c0.236-0.791,0.543-1.64,1.465-1.64h0.02
				C386.73,276.538,387.293,277.337,387.293,278.355z"/>
			<path fill="#939598" d="M386.652,272.876c0-0.703-0.287-1.196-0.725-1.61l0.424-0.476c0.573,0.512,0.961,1.135,0.961,2.104
				c0,1.4-1.078,2.549-2.668,2.549c-1.482,0-2.67-1.039-2.67-2.448c0-1.513,1.207-2.384,2.707-2.384c0.071,0,0.149,0,0.237,0.013
				v4.051C386.029,274.564,386.652,273.773,386.652,272.876z M384.357,271.382c-0.928,0.08-1.738,0.61-1.738,1.632
				c0,0.889,0.74,1.56,1.738,1.657V271.382z"/>
			<path fill="#939598" d="M385.744,268.253c0.621,0,0.852-0.346,0.852-0.858c0-0.259-0.051-0.476-0.18-0.74h0.652
				c0.137,0.266,0.217,0.555,0.217,0.919c0,0.819-0.406,1.442-1.441,1.442h-3.082v0.711h-0.676v-0.711h-1.542v-0.763h1.542v-1.621
				h0.676v1.621H385.744z"/>
		</g>
		<g enable-background="new    ">
			<path fill="#939598" d="M388.891,357.122v-0.644l5.781-1.896l-5.76-1.977v-0.82l6.967,2.473v0.66l-5.613,1.898l5.613,1.906v0.651
				l-6.967,2.472v-0.853l5.76-1.977L388.891,357.122z"/>
			<path fill="#939598" d="M387.941,347.268l9.148,4.586v0.7l-9.148-4.584V347.268z"/>
			<path fill="#939598" d="M395.828,343.95v2.398h-6.916v-2.398c0-2.175,1.49-3.676,3.447-3.676
				C394.314,340.274,395.828,341.775,395.828,343.95z M389.631,343.95v1.619h5.477v-1.619c0-1.748-1.186-2.865-2.729-2.865
				S389.631,342.202,389.631,343.95z"/>
		</g>
		<g enable-background="new    ">
			<path fill="#939598" d="M199.456,471.833v1.344h1.951v0.624h-5.53v-2.07c0-1.248,0.665-2.07,1.763-2.07
				C198.838,469.659,199.456,470.655,199.456,471.833z M196.454,471.778v1.396h2.435v-1.367c0-0.916-0.492-1.518-1.226-1.518
				C196.865,470.292,196.454,470.886,196.454,471.778z"/>
			<path fill="#939598" d="M198.104,468.467l-0.498,0.183c-0.206-0.449-0.34-0.895-0.34-1.485c0-1.112,0.567-1.736,1.644-1.736
				h2.497v0.585h-0.617c0.372,0.284,0.703,0.759,0.703,1.479c0,0.758-0.427,1.522-1.279,1.522c-0.868,0-1.325-0.711-1.325-1.744
				c0-0.522,0.069-0.896,0.172-1.257h-0.143c-0.734,0-1.114,0.448-1.114,1.217C197.805,467.709,197.932,468.089,198.104,468.467z
				 M200.19,468.395c0.521,0,0.822-0.474,0.822-1.025c0-0.751-0.459-1.366-1.107-1.366h-0.393c-0.088,0.301-0.175,0.702-0.175,1.201
				C199.338,467.97,199.668,468.395,200.19,468.395z"/>
			<path fill="#939598" d="M201.406,463.521v0.605h-4.085v-0.605h0.711c-0.44-0.271-0.797-0.696-0.797-1.398
				c0-0.987,0.665-1.564,1.635-1.564h2.537v0.609h-2.385c-0.758,0-1.232,0.409-1.232,1.131c0,0.701,0.513,1.226,1.28,1.226
				L201.406,463.521L201.406,463.521z"/>
			<path fill="#939598" d="M200.245,458.441c0.498,0,0.68-0.275,0.68-0.688c0-0.206-0.038-0.381-0.144-0.595h0.521
				c0.11,0.214,0.175,0.441,0.175,0.735c0,0.655-0.324,1.154-1.155,1.154h-2.465v0.565h-0.536v-0.565h-1.232v-0.609h1.232v-1.296
				h0.538v1.296L200.245,458.441L200.245,458.441z"/>
			<path fill="#939598" d="M201.406,455.462v0.608h-4.085v-0.608h1.067c-0.681-0.302-1.168-0.895-1.139-1.669h0.656v0.048
				c0,0.895,0.64,1.618,1.873,1.618h1.626L201.406,455.462L201.406,455.462z"/>
			<path fill="#939598" d="M201.54,450.88c0.849,0.347,1.153,0.74,1.153,1.358c0,0.337-0.07,0.592-0.205,0.867l-0.482-0.205
				c0.104-0.198,0.148-0.383,0.148-0.64c0-0.363-0.189-0.596-0.766-0.839l-4.07,1.854v-0.672l3.406-1.484l-3.406-1.312v-0.646
				L201.54,450.88z"/>
		</g>
		<g>
			<g>
				<g>
					<g>
						<path fill="none" stroke="#939598" stroke-width="0.8" d="M180.861,506.722"/>
					</g>
				</g>
			</g>
		</g>
	</g>
</g>
</svg>
