<?xml version="1.0" encoding="utf-8"?>
<!-- Generator: Adobe Illustrator 15.0.2, SVG Export Plug-In . SVG Version: 6.00 Build 0)  -->
<!DOCTYPE svg PUBLIC "-//W3C//DTD SVG 1.1//EN" "http://www.w3.org/Graphics/SVG/1.1/DTD/svg11.dtd">
<svg version="1.1" xmlns="http://www.w3.org/2000/svg" xmlns:xlink="http://www.w3.org/1999/xlink" x="0px" y="0px"
	 width="260.667px" height="198.029px" viewBox="0 0 260.667 198.029" enable-background="new 0 0 260.667 198.029"
	 xml:space="preserve">
<g id="_x32_0_x25___PMS_2985_fill" display="none">
	<path display="inline" fill="#EBEEEF" d="M2.5,32.421v162.75c0,0,255.5,2,255.5,0s0-192.5,0-192.5H30v29.75H2.5z"/>
</g>
<g id="_x32_0_x25__grey_fill">
	<rect x="231.834" y="3.338" fill="#D1D3D4" width="25" height="19.5"/>
	<rect x="216.5" y="24.505" fill="#B3B3B3" width="5.5" height="8.333"/>
	<rect x="167" y="3.671" fill="#D1D3D4" width="26.75" height="19.5"/>
</g>
<g id="icons">
	<rect x="83.951" y="31.489" fill="#FFFFFF" stroke="#939598" width="28" height="48"/>
	<g>
		<g>
			<rect x="232.392" y="24.805" fill="#FFFFFF" stroke="#939598" width="23.625" height="45.693"/>
			<path fill="#FFFFFF" stroke="#939598" d="M244.204,47.653"/>
			<path fill="#FFFFFF" stroke="#939598" d="M244.204,47.809"/>
			<path fill="#FFFFFF" stroke="#939598" d="M244.204,63.302"/>
		</g>
		<circle fill="#FFFFFF" stroke="#939598" cx="244.316" cy="60.084" r="0.969"/>
		<path fill="#FFFFFF" stroke="#939598" d="M244.276,27.415c-6.771,0-9.25,1.562-9.25,3.752c0,0,0,32.839,0,33.376
			c0,0.535,0.145,1.641,1.561,1.641c1.418,0,7.689,0,7.689,0h0.016c0,0,6.271,0,7.689,0c1.416,0,1.561-1.105,1.561-1.641
			c0-0.537,0-33.354,0-33.354l-0.002-0.021C253.54,28.977,251.005,27.415,244.276,27.415z"/>
		<path fill="#FFFFFF" stroke="#939598" d="M242.284,67.882c0.002-0.549-0.44-0.988-0.995-0.988c-0.537,0-0.982,0.439-0.986,0.988
			c0.004,0.545,0.449,0.995,0.986,0.995C241.844,68.877,242.286,68.433,242.284,67.882z"/>
		<path fill="#FFFFFF" stroke="#939598" d="M248.426,67.882c0.006-0.549-0.445-0.988-0.99-0.988c-0.543,0-0.99,0.439-0.99,0.988
			c0,0.545,0.447,0.995,0.99,0.988C247.982,68.877,248.426,68.427,248.426,67.882z"/>
		<path fill="#FFFFFF" stroke="#939598" d="M242.982,68.175c0,0.812,0.549,1.469,1.361,1.471c0.811-0.002,1.254-0.658,1.254-1.471
			l-0.521-5.592c0-0.549-1.482-0.549-1.482,0L242.982,68.175z"/>
	</g>
	<g>
		<polygon fill="none" stroke="#939598" points="30.201,69.78 30.208,71.366 52.835,71.381 52.828,69.793 		"/>
		<path fill="none" stroke="#939598" d="M52.845,70.509c-0.423,12.458-10.664,22.214-23.121,21.788"/>
	</g>
	<g>
		<g>
			<g>
				<g>
					<rect x="7.937" y="71.003" fill="#FFFFFF" stroke="#939598" width="18.545" height="20.188"/>
					<path fill="#FFFFFF" stroke="#939598" d="M17.825,81.097"/>
					<polyline fill="#FFFFFF" stroke="#939598" points="20.948,74.972 23.77,74.972 24.428,77.41 24.428,84.878 23.77,87.347 
						20.948,87.347 					"/>
					<line fill="#FFFFFF" stroke="#939598" x1="20.948" y1="91.337" x2="20.948" y2="71.003"/>
					<path fill="#FFFFFF" stroke="#939598" d="M18.771,81.16"/>
				</g>
			</g>
		</g>
		<polygon fill="#FFFFFF" stroke="#939598" points="22.165,90.209 22.169,88.579 21.031,88.22 21.026,90.568 		"/>
	</g>
	<g>
		<polygon fill="none" stroke="#939598" points="30.201,38.28 30.208,39.866 52.836,39.881 52.828,38.293 		"/>
		<path fill="none" stroke="#939598" d="M52.846,39.009C52.422,51.467,42.182,61.03,29.724,60.604"/>
	</g>
	<g>
		<polygon fill="none" stroke="#939598" points="225.334,96.005 223.664,96.018 223.648,72.199 225.342,72.187 		"/>
		<path fill="none" stroke="#939598" d="M224.545,72.168c-13.113,0.445-23.384,11.289-22.937,24.402"/>
	</g>
	<g>
		<polygon fill="none" stroke="#939598" points="39.078,1.52 40.748,1.507 40.763,25.326 39.07,25.338 		"/>
		<path fill="none" stroke="#939598" d="M39.867,25.357C52.98,24.912,63.25,14.068,62.802,0.955"/>
	</g>
	<g>
		<polygon fill="none" stroke="#939598" points="252.707,95.427 251.438,95.417 251.426,113.519 252.713,113.529 		"/>
		<path fill="none" stroke="#939598" d="M252.107,113.542c-9.967-0.338-17.771-8.58-17.431-18.546"/>
	</g>
	<g>
		<polygon fill="none" stroke="#939598" points="213.828,22.995 212.559,22.985 212.547,41.086 213.834,41.096 		"/>
		<path fill="none" stroke="#939598" d="M213.228,41.11c-9.966-0.338-17.77-8.58-17.431-18.546"/>
	</g>
	<g>
		<g>
			<path fill="#FFFFFF" stroke="#939598" d="M95.26,33.966c0-0.426,0.344-0.771,0.771-0.771h13.445c0.426,0,0.771,0.346,0.771,0.771
				v22.807c0,0.426-0.346,0.77-0.771,0.77H96.031c-0.428,0-0.771-0.344-0.771-0.77V33.966z"/>
			<path fill="#FFFFFF" stroke="#939598" d="M102.172,45.288"/>
		</g>
		<g>
			<circle fill="#FFFFFF" stroke="#939598" cx="103.083" cy="45.288" r="0.871"/>
			<path fill="#FFFFFF" stroke="#939598" d="M103.082,45.288"/>
		</g>
		<g>
			<g>
				<rect x="95.796" y="41.483" fill="#FFFFFF" stroke="#939598" width="1.82" height="7.609"/>
				<path fill="#FFFFFF" stroke="#939598" d="M96.705,45.288"/>
			</g>
			<g>
				<rect x="97.568" y="44.899" fill="#FFFFFF" stroke="#939598" width="3.586" height="0.777"/>
				<path fill="#FFFFFF" stroke="#939598" d="M99.13,45.288"/>
			</g>
			<g>
				<circle fill="#FFFFFF" stroke="#939598" cx="96.724" cy="45.288" r="0.847"/>
				<path fill="#FFFFFF" stroke="#939598" d="M96.724,45.288"/>
			</g>
		</g>
		<g>
			<path fill="#FFFFFF" stroke="#939598" d="M103.082,45.288"/>
			<path fill="none" stroke="#939598" d="M98.245,44.817v-9.588c0-0.447,0.362-0.811,0.81-0.811h9.221
				c0.445,0,0.809,0.363,0.809,0.811v20.279c0,0.447-0.363,0.811-0.809,0.811h-9.221c-0.447,0-0.81-0.363-0.81-0.811v-9.727"/>
		</g>
	</g>
	<g>
		<polyline fill="none" stroke="#939598" stroke-dasharray="1.5,1,1.5,1,1.5,1" points="112.968,77.693 95.099,77.693 
			95.099,60.167 112.566,60.167 		"/>
		<polyline fill="#FFFFFF" stroke="#939598" points="112.566,60.14 113.629,60.14 113.629,77.693 112.975,77.693 		"/>
	</g>
	<polyline fill="#FFFFFF" stroke="#939598" points="146.591,43.748 146.591,95.171 165.924,95.112 165.859,31.628 146.591,31.628 
		146.591,33.171 	"/>
	<g>
		<g>
			<rect x="142.502" y="5.699" fill="#FFFFFF" stroke="#939598" width="21.969" height="24.902"/>
			<path fill="#FFFFFF" stroke="#939598" d="M153.486,16.861"/>
		</g>
		<line fill="#FFFFFF" stroke="#939598" x1="144.037" y1="30.66" x2="144.037" y2="5.699"/>
		<rect x="141.416" y="7.777" fill="#FFFFFF" stroke="#939598" width="1.07" height="2.018"/>
		<path fill="#FFFFFF" stroke="#939598" d="M142.01,8.786"/>
	</g>
	<line fill="none" stroke="#939598" x1="146.591" y1="44.747" x2="165.834" y2="44.747"/>
	<g>
		<g>
			<g>
				<polygon fill="none" stroke="#939598" stroke-width="0.7" points="137.291,38.565 137.979,37.314 146.571,42.523 
					145.885,43.774 				"/>
				<path fill="none" stroke="#939598" stroke-width="0.8" d="M142.627,41.495"/>
			</g>
			<path fill="none" stroke="#939598" stroke-width="0.8" d="M137.705,38.086c1.94-3.202,5.394-4.926,8.888-4.81"/>
		</g>
	</g>
	<g>
		<g>
			<rect x="144.697" y="55.915" fill="#FFFFFF" stroke="#939598" width="19.75" height="23.25"/>
			<path fill="#FFFFFF" stroke="#939598" d="M154.572,67.54"/>
		</g>
		<g>
			<g>
				<circle fill="#FFFFFF" stroke="#939598" cx="149.072" cy="72.855" r="2.824"/>
				<path fill="#FFFFFF" stroke="#939598" d="M149.072,72.855"/>
			</g>
			<g>
				<circle fill="#FFFFFF" stroke="#939598" stroke-width="0.8" cx="149.073" cy="72.883" r="1.989"/>
				<path fill="#FFFFFF" stroke="#939598" d="M149.072,72.883"/>
			</g>
		</g>
		<g>
			<g>
				<circle fill="#FFFFFF" stroke="#939598" cx="157.322" cy="61.568" r="2.824"/>
				<path fill="#FFFFFF" stroke="#939598" d="M157.322,61.568"/>
			</g>
			<g>
				<circle fill="#FFFFFF" stroke="#939598" stroke-width="0.8" cx="157.323" cy="61.54" r="1.989"/>
				<path fill="#FFFFFF" stroke="#939598" d="M157.322,61.54"/>
			</g>
		</g>
		<g>
			<g>
				<circle fill="#FFFFFF" stroke="#939598" cx="157.295" cy="72.893" r="3.219"/>
				<path fill="#FFFFFF" stroke="#939598" d="M157.295,72.893"/>
			</g>
			<g>
				<circle fill="#FFFFFF" stroke="#939598" stroke-width="0.8" cx="157.295" cy="72.861" r="2.268"/>
				<path fill="#FFFFFF" stroke="#939598" d="M157.295,72.861"/>
			</g>
		</g>
		<g>
			<g>
				<circle fill="#FFFFFF" stroke="#939598" cx="148.855" cy="61.581" r="3.219"/>
				<path fill="#FFFFFF" stroke="#939598" d="M148.855,61.581"/>
			</g>
			<g>
				<circle fill="#FFFFFF" stroke="#939598" stroke-width="0.8" cx="148.855" cy="61.548" r="2.268"/>
				<path fill="#FFFFFF" stroke="#939598" d="M148.855,61.548"/>
			</g>
		</g>
		<line fill="#FFFFFF" stroke="#939598" x1="161.715" y1="79.195" x2="161.715" y2="55.915"/>
		<line fill="#FFFFFF" stroke="#939598" x1="162.807" y1="79.164" x2="162.807" y2="55.915"/>
	</g>
	<line fill="none" stroke="#939598" stroke-dasharray="1.5,1.5,1.5,1.5,1.5,1.5" x1="156" y1="44.171" x2="156" y2="95.338"/>
	<line fill="none" stroke="#A7A9AC" stroke-dasharray="1.5,1.5,1.5,1.5,1.5,1.5" x1="156" y1="22.083" x2="156" y2="30.921"/>
	<line fill="none" stroke="#A7A9AC" stroke-dasharray="1.5,1.5,1.5,1.5,1.5,1.5" x1="156" y1="4.505" x2="156" y2="16.338"/>
	<line fill="none" stroke="#939598" x1="16.903" y1="66.444" x2="16.903" y2="31.671"/>
	<line fill="none" stroke="#939598" stroke-dasharray="1.5,1.5,1.5,1.5,1.5,1.5" x1="14.324" y1="65.944" x2="14.324" y2="32.671"/>
	<line fill="none" stroke="#939598" stroke-dasharray="1.5,1.5,1.5,1.5,1.5,1.5" x1="232.834" y1="81.338" x2="257.5" y2="81.338"/>
	<line fill="none" stroke="#939598" x1="232.5" y1="83.338" x2="257.167" y2="83.338"/>
	<polygon fill="#FFFFFF" stroke="#939598" points="167.414,56.032 186.082,56.032 186.082,96.003 167.233,96.003 	"/>
	<g>
		<path fill="#FFFFFF" stroke="#939598" stroke-miterlimit="10" d="M180.791,45.538c4.463,0,9.377-2.711,9.377-6.053
			s-4.914-6.041-9.377-6.041s-6.785,2.699-6.785,6.041S176.328,45.538,180.791,45.538"/>
		<path fill="#FFFFFF" stroke="#939598" d="M180.791,45.538c4.463,0,9.377-2.711,9.377-6.053s-4.914-6.041-9.377-6.041
			s-6.785,2.699-6.785,6.041S176.328,45.538,180.791,45.538z"/>
		<path fill="#FFFFFF" stroke="#939598" stroke-miterlimit="10" d="M175.469,35.861c0.25,0,0.455-0.205,0.455-0.455v-2.107
			c0-0.25-0.205-0.455-0.455-0.455h-0.076c-0.25,0-0.455,0.205-0.455,0.455v2.107c0,0.25,0.205,0.455,0.455,0.455H175.469z"/>
		<path fill="#FFFFFF" stroke="#939598" d="M175.469,35.861c0.25,0,0.455-0.205,0.455-0.455v-2.107c0-0.25-0.205-0.455-0.455-0.455
			h-0.076c-0.25,0-0.455,0.205-0.455,0.455v2.107c0,0.25,0.205,0.455,0.455,0.455H175.469z"/>
		<path fill="#FFFFFF" stroke="#939598" stroke-miterlimit="10" d="M174.926,32.523c0-0.758-2.057-1.375-2.816-1.375
			c-0.77,0-2.826,0.617-2.826,1.375v13.815c0,0.76,2.057,1.375,2.826,1.375c0.76,0,2.814-0.615,2.814-1.375L174.926,32.523z"/>
		<path fill="#FFFFFF" stroke="#939598" d="M174.926,32.523c0-0.758-2.057-1.375-2.816-1.375c-0.77,0-2.826,0.617-2.826,1.375
			v13.815c0,0.76,2.057,1.375,2.826,1.375c0.76,0,2.814-0.615,2.814-1.375L174.926,32.523z"/>
		<path fill="#FFFFFF" stroke="#939598" stroke-miterlimit="10" d="M180.979,43.934c3.279,0,6.893-1.993,6.893-4.45
			s-3.613-4.447-6.893-4.447s-4.986,1.99-4.986,4.447S177.699,43.934,180.979,43.934"/>
		<path fill="#FFFFFF" stroke="#939598" d="M180.979,43.934c3.279,0,6.893-1.993,6.893-4.45s-3.613-4.447-6.893-4.447
			s-4.986,1.99-4.986,4.447S177.699,43.934,180.979,43.934z"/>
	</g>
	<g>
		<g>
			<g>
				<path fill="none" stroke="#A7A9AC" d="M178.559,67.614"/>
			</g>
			<g>
				<path fill="none" stroke="#A7A9AC" d="M177.496,67.614"/>
			</g>
			<g>
				<circle fill="none" stroke="#939598" cx="178.56" cy="67.614" r="1.017"/>
				<path fill="none" stroke="#A7A9AC" d="M178.559,67.614"/>
			</g>
			<g>
				<g>
					<rect x="170.059" y="63.349" fill="none" stroke="#939598" width="2.125" height="8.553"/>
					<path fill="none" stroke="#A7A9AC" d="M171.121,67.614"/>
				</g>
				<g>
					<rect x="172.277" y="67.161" fill="none" stroke="#939598" width="4.031" height="0.906"/>
					<path fill="none" stroke="#A7A9AC" d="M173.949,67.614"/>
				</g>
				<g>
					<circle fill="none" stroke="#939598" cx="171.143" cy="67.614" r="0.986"/>
					<path fill="none" stroke="#A7A9AC" d="M171.143,67.614"/>
				</g>
			</g>
		</g>
		<g>
			<rect x="169.734" y="59.087" fill="none" stroke="#939598" width="13.875" height="17.076"/>
			<rect x="172.234" y="60.479" fill="none" stroke="#939598" width="9.98" height="14.256"/>
		</g>
	</g>
	<line fill="none" stroke="#939598" x1="195.166" y1="16.838" x2="230.167" y2="16.838"/>
</g>
<g id="walls">
	<polyline fill="none" stroke="#939598" stroke-width="5" points="39.499,2.505 29.27,2.501 29.27,32.349 2.5,32.349 2.5,195.487 
		258.167,195.487 258.167,2.586 62.5,2.515 	"/>
	<polyline fill="none" stroke="#939598" stroke-width="3" points="30.25,91.911 30.25,95.171 4.25,95.171 	"/>
	<line fill="none" stroke="#939598" stroke-width="3" x1="30.25" y1="60.22" x2="30.25" y2="69.78"/>
	<line fill="none" stroke="#939598" stroke-width="3" x1="30.25" y1="33.671" x2="30.25" y2="38.28"/>
	<line fill="none" stroke="#939598" stroke-width="3" x1="30.25" y1="65.921" x2="2.5" y2="65.921"/>
	<line fill="none" stroke="#939598" stroke-width="3" x1="252.707" y1="95.421" x2="258" y2="95.421"/>
	<line fill="none" stroke="#939598" stroke-width="3" x1="225.167" y1="95.421" x2="235.334" y2="95.421"/>
	<line fill="none" stroke="#939598" stroke-width="3" x1="146" y1="95.421" x2="201.801" y2="95.421"/>
	<line fill="none" stroke="#939598" stroke-width="3" x1="166.75" y1="95.671" x2="166.75" y2="3.171"/>
	<line fill="none" stroke="#939598" stroke-width="3" x1="196.105" y1="23.421" x2="166" y2="23.421"/>
	<line fill="none" stroke="#939598" stroke-width="3" x1="256.25" y1="23.421" x2="213.769" y2="23.421"/>
	<line fill="none" stroke="#939598" stroke-width="3" x1="193.75" y1="23.171" x2="193.75" y2="3.671"/>
	<line fill="none" stroke="#939598" stroke-width="3" x1="231.75" y1="4.171" x2="231.75" y2="22.421"/>
	<polyline fill="none" stroke="#939598" stroke-width="3" points="231.25,94.671 231.25,71.984 257.5,71.984 	"/>
	<polyline fill="none" stroke="#939598" stroke-width="3" points="216.5,22.421 216.5,33.671 222.25,33.671 222.25,22.921 	"/>
</g>
<g id="windows">
	<g>
		<g>
			<rect x="47.34" y="193.855" fill="#FFFFFF" stroke="#939598" width="69.562" height="3.674"/>
			<line fill="none" stroke="#939598" x1="116.903" y1="195.673" x2="46.59" y2="195.673"/>
			<line fill="none" stroke="#939598" stroke-width="2" x1="94.229" y1="197.687" x2="94.229" y2="194.193"/>
		</g>
		<line fill="none" stroke="#939598" stroke-width="2" x1="70.84" y1="197.812" x2="70.84" y2="194.21"/>
	</g>
	<g>
		<g>
			<rect x="174.673" y="193.855" fill="#FFFFFF" stroke="#939598" width="69.562" height="3.674"/>
			<line fill="none" stroke="#939598" x1="244.235" y1="195.673" x2="173.923" y2="195.673"/>
			<line fill="none" stroke="#939598" stroke-width="2" x1="221.562" y1="197.687" x2="221.562" y2="194.193"/>
		</g>
		<line fill="none" stroke="#939598" stroke-width="2" x1="198.173" y1="197.812" x2="198.173" y2="194.21"/>
	</g>
</g>
<g id="Type">
	<g>
		<path fill="#939598" d="M13.834,86.088v-0.455l4.097-1.345l-4.083-1.401v-0.581l4.938,1.751v0.469l-3.979,1.345l3.979,1.352v0.462
			l-4.938,1.751v-0.603l4.083-1.401L13.834,86.088z"/>
		<path fill="#939598" d="M13.162,79.103l6.485,3.25v0.497l-6.485-3.25V79.103z"/>
		<path fill="#939598" d="M18.75,76.751v1.702h-4.903v-1.702c0-1.541,1.058-2.605,2.444-2.605S18.75,75.21,18.75,76.751z
			 M14.359,76.751V77.9h3.88v-1.148c0-1.24-0.84-2.031-1.933-2.031S14.359,75.512,14.359,76.751z"/>
	</g>
	<g>
		<path fill="#939598" d="M99.314,70.928h-1.702v-4.903h1.702c1.541,0,2.605,1.058,2.605,2.444S100.855,70.928,99.314,70.928z
			 M99.314,66.537h-1.149v3.88h1.149c1.239,0,2.031-0.84,2.031-1.933S100.554,66.537,99.314,66.537z"/>
		<path fill="#939598" d="M105.805,66.012h0.455l1.345,4.097l1.401-4.083h0.582l-1.751,4.938h-0.469l-1.345-3.979l-1.352,3.979
			h-0.462l-1.751-4.938h0.602l1.401,4.083L105.805,66.012z"/>
	</g>
	<g>
		<path fill="#939598" d="M153.182,20.513l-1.422-1.905h-1.401v1.905h-0.553V15.61h2.107c1.079,0,1.772,0.582,1.772,1.464
			c0,0.819-0.561,1.296-1.331,1.436l1.506,2.003H153.182z M151.871,16.121h-1.513v1.989h1.506c0.735,0,1.261-0.378,1.261-1.016
			C153.125,16.485,152.663,16.121,151.871,16.121z"/>
		<path fill="#939598" d="M156.302,20.127c0.498,0,0.848-0.203,1.142-0.511l0.337,0.301c-0.364,0.406-0.806,0.679-1.492,0.679
			c-0.994,0-1.807-0.763-1.807-1.891c0-1.05,0.735-1.891,1.736-1.891c1.072,0,1.688,0.854,1.688,1.919c0,0.049,0,0.105-0.008,0.168
			h-2.871C155.104,19.686,155.665,20.127,156.302,20.127z M157.359,18.502c-0.056-0.658-0.434-1.232-1.155-1.232
			c-0.631,0-1.106,0.525-1.177,1.232H157.359z"/>
		<path fill="#939598" d="M160.733,16.906v0.462h-1.142v3.145h-0.539v-3.145h-0.498v-0.469h0.498v-0.315
			c0-0.792,0.398-1.211,1.092-1.211c0.253,0,0.421,0.028,0.596,0.091v0.469c-0.196-0.056-0.343-0.091-0.525-0.091
			c-0.42,0-0.63,0.252-0.63,0.771v0.294H160.733z"/>
	</g>
	<g>
		<path fill="#939598" d="M148.646,38.209h-0.952v1.383h-0.442v-3.92h1.467c0.885,0,1.468,0.47,1.468,1.249
			C150.186,37.773,149.479,38.209,148.646,38.209z M148.685,36.082h-0.991v1.725h0.969c0.649,0,1.075-0.347,1.075-0.868
			C149.737,36.373,149.317,36.082,148.685,36.082z"/>
		<path fill="#939598" d="M150.919,37.252l-0.129-0.353c0.319-0.146,0.633-0.241,1.053-0.241c0.789,0,1.231,0.403,1.231,1.165v1.77
			h-0.414v-0.437c-0.201,0.263-0.537,0.499-1.047,0.499c-0.538,0-1.081-0.302-1.081-0.907c0-0.616,0.504-0.941,1.237-0.941
			c0.37,0,0.633,0.051,0.891,0.124v-0.101c0-0.521-0.319-0.79-0.862-0.79C151.456,37.039,151.188,37.129,150.919,37.252z
			 M150.969,38.73c0,0.37,0.336,0.583,0.729,0.583c0.532,0,0.969-0.325,0.969-0.784v-0.28c-0.213-0.062-0.499-0.123-0.852-0.123
			C151.271,38.125,150.969,38.361,150.969,38.73z"/>
		<path fill="#939598" d="M154.256,39.593h-0.431v-2.895h0.431v0.504c0.19-0.313,0.493-0.565,0.991-0.565
			c0.7,0,1.109,0.47,1.109,1.159v1.797h-0.432v-1.691c0-0.538-0.291-0.874-0.801-0.874c-0.498,0-0.868,0.364-0.868,0.907V39.593z"/>
		<path fill="#939598" d="M157.689,38.77c0,0.353,0.195,0.481,0.486,0.481c0.146,0,0.27-0.028,0.421-0.101v0.37
			c-0.151,0.078-0.314,0.123-0.521,0.123c-0.465,0-0.817-0.229-0.817-0.817v-1.747h-0.403v-0.381h0.403v-0.874h0.432v0.874h0.918
			v0.381h-0.918V38.77z"/>
		<path fill="#939598" d="M159.632,39.593h-0.431v-2.895h0.431v0.756c0.213-0.481,0.633-0.829,1.182-0.807v0.465h-0.033
			c-0.633,0-1.148,0.454-1.148,1.327V39.593z"/>
		<path fill="#939598" d="M162.712,39.688c-0.246,0.599-0.526,0.817-0.963,0.817c-0.241,0-0.42-0.05-0.616-0.146l0.146-0.341
			c0.141,0.073,0.27,0.106,0.454,0.106c0.258,0,0.42-0.135,0.594-0.543l-1.316-2.884h0.476l1.053,2.414l0.93-2.414h0.46
			L162.712,39.688z"/>
	</g>
	<g>
		<path fill="#939598" d="M108.994,22.492h-0.891l-2.422-3.052l-1.341,1.359v1.692h-0.711V16.19h0.711v3.763l3.619-3.763h0.918
			l-2.701,2.755L108.994,22.492z"/>
		<path fill="#939598" d="M110,16.82v-0.765h0.792v0.765H110z M110.045,22.492v-4.654h0.693v4.654H110.045z"/>
		<path fill="#939598" d="M113.286,21.168c0,0.567,0.315,0.774,0.783,0.774c0.234,0,0.432-0.045,0.675-0.162v0.594
			c-0.243,0.126-0.504,0.198-0.837,0.198c-0.747,0-1.314-0.369-1.314-1.314V18.45h-0.648v-0.612h0.648v-1.404h0.693v1.404h1.477
			v0.612h-1.477V21.168z"/>
		<path fill="#939598" d="M117.949,22.6c-1.359,0-2.386-1.107-2.386-2.421c0-1.324,1.026-2.44,2.386-2.44
			c0.882,0,1.432,0.369,1.864,0.828l-0.459,0.486c-0.369-0.387-0.784-0.702-1.414-0.702c-0.945,0-1.666,0.801-1.666,1.81
			c0,1.017,0.738,1.818,1.71,1.818c0.594,0,1.053-0.297,1.422-0.693l0.441,0.415C119.38,22.222,118.822,22.6,117.949,22.6z"/>
		<path fill="#939598" d="M121.684,22.492h-0.693V15.92h0.693v2.728c0.306-0.504,0.792-0.909,1.593-0.909
			c1.125,0,1.783,0.756,1.783,1.864v2.89h-0.693v-2.719c0-0.864-0.468-1.404-1.287-1.404c-0.801,0-1.396,0.585-1.396,1.458V22.492z"
			/>
		<path fill="#939598" d="M128.587,21.997c0.639,0,1.089-0.261,1.467-0.657l0.432,0.387c-0.468,0.522-1.035,0.873-1.917,0.873
			c-1.278,0-2.323-0.981-2.323-2.431c0-1.35,0.945-2.431,2.233-2.431c1.377,0,2.169,1.098,2.169,2.467c0,0.063,0,0.135-0.009,0.216
			h-3.691C127.047,21.429,127.768,21.997,128.587,21.997z M129.946,19.908c-0.072-0.846-0.558-1.584-1.485-1.584
			c-0.811,0-1.422,0.675-1.513,1.584H129.946z"/>
		<path fill="#939598" d="M132.556,22.492h-0.693v-4.654h0.693v0.81c0.306-0.504,0.792-0.909,1.593-0.909
			c1.126,0,1.783,0.756,1.783,1.864v2.89h-0.693v-2.719c0-0.864-0.468-1.404-1.287-1.404c-0.802,0-1.396,0.585-1.396,1.458V22.492z"
			/>
	</g>
	<g>
		<path fill="#939598" d="M25.632,57.405c0,1.415-1.114,2.458-2.528,2.458c-1.401,0-2.542-1.037-2.542-2.479
			c0-0.889,0.315-1.422,0.777-1.912l0.406,0.378c-0.392,0.413-0.672,0.875-0.672,1.541c0,1.085,0.875,1.898,2.017,1.898
			s2.031-0.819,2.031-1.898c0-0.672-0.259-1.114-0.708-1.583l0.357-0.364C25.289,55.955,25.632,56.516,25.632,57.405z"/>
		<path fill="#939598" d="M25.548,54.522h-5.113v-0.539h5.113V54.522z"/>
		<path fill="#939598" d="M25.632,51.078c0,1.085-0.854,1.877-1.884,1.877c-1.03,0-1.898-0.798-1.898-1.891
			c0-1.085,0.854-1.884,1.884-1.884C24.764,49.179,25.632,49.985,25.632,51.078z M22.327,51.078c0,0.784,0.623,1.324,1.408,1.324
			c0.784,0,1.415-0.575,1.415-1.338c0-0.785-0.623-1.331-1.4-1.331C22.957,49.733,22.327,50.314,22.327,51.078z"/>
		<path fill="#939598" d="M25.618,47.011c0,0.518-0.203,1.093-0.532,1.499l-0.385-0.273c0.294-0.392,0.462-0.826,0.462-1.253
			c0-0.435-0.224-0.75-0.574-0.75h-0.014c-0.364,0-0.504,0.427-0.637,0.903c-0.161,0.567-0.357,1.198-1.022,1.198h-0.014
			c-0.624,0-1.037-0.519-1.037-1.233c0-0.441,0.154-0.931,0.399-1.303l0.406,0.246c-0.217,0.336-0.35,0.721-0.35,1.071
			c0,0.427,0.224,0.7,0.525,0.7h0.014c0.343,0,0.476-0.448,0.624-0.931c0.168-0.561,0.385-1.163,1.036-1.163h0.014
			C25.219,45.722,25.618,46.29,25.618,47.011z"/>
		<path fill="#939598" d="M25.163,43.125c0-0.497-0.203-0.847-0.511-1.142l0.301-0.336c0.406,0.364,0.679,0.805,0.679,1.492
			c0,0.995-0.763,1.807-1.891,1.807c-1.05,0-1.891-0.735-1.891-1.737c0-1.071,0.854-1.688,1.919-1.688c0.049,0,0.105,0,0.168,0.007
			V44.4C24.722,44.323,25.163,43.763,25.163,43.125z M23.538,42.068c-0.658,0.056-1.232,0.435-1.232,1.156
			c0,0.63,0.525,1.106,1.232,1.177V42.068z"/>
		<path fill="#939598" d="M24.519,39.85c0.441,0,0.603-0.245,0.603-0.609c0-0.182-0.035-0.336-0.126-0.525h0.462
			c0.098,0.189,0.154,0.393,0.154,0.651c0,0.582-0.287,1.022-1.022,1.022h-2.185v0.504h-0.477v-0.504h-1.092V39.85h1.092v-1.148
			h0.477v1.148H24.519z"/>
	</g>
	<g>
		<path fill="#939598" d="M236.527,90.93c-1.415,0-2.458-1.114-2.458-2.528c0-1.401,1.036-2.542,2.479-2.542
			c0.89,0,1.422,0.315,1.912,0.777l-0.378,0.406c-0.413-0.392-0.875-0.672-1.541-0.672c-1.085,0-1.897,0.875-1.897,2.017
			s0.819,2.031,1.897,2.031c0.673,0,1.114-0.259,1.583-0.708l0.364,0.357C237.977,90.587,237.417,90.93,236.527,90.93z"/>
		<path fill="#939598" d="M239.41,90.846v-5.113h0.539v5.113H239.41z"/>
		<path fill="#939598" d="M242.854,90.93c-1.085,0-1.877-0.854-1.877-1.884c0-1.03,0.799-1.898,1.892-1.898
			c1.085,0,1.884,0.854,1.884,1.884S243.947,90.93,242.854,90.93z M242.854,87.625c-0.784,0-1.323,0.623-1.323,1.408
			c0,0.784,0.574,1.415,1.338,1.415c0.784,0,1.33-0.623,1.33-1.4C244.199,88.255,243.618,87.625,242.854,87.625z"/>
		<path fill="#939598" d="M246.922,90.916c-0.519,0-1.093-0.203-1.499-0.532l0.272-0.385c0.393,0.294,0.827,0.462,1.254,0.462
			c0.435,0,0.75-0.224,0.75-0.574v-0.014c0-0.364-0.428-0.504-0.904-0.637c-0.566-0.161-1.197-0.357-1.197-1.022v-0.014
			c0-0.624,0.519-1.037,1.232-1.037c0.441,0,0.932,0.154,1.303,0.399l-0.245,0.406c-0.336-0.217-0.721-0.35-1.071-0.35
			c-0.428,0-0.7,0.224-0.7,0.525v0.014c0,0.343,0.448,0.476,0.932,0.624c0.56,0.168,1.162,0.385,1.162,1.036v0.014
			C248.21,90.517,247.643,90.916,246.922,90.916z"/>
		<path fill="#939598" d="M250.807,90.461c0.497,0,0.848-0.203,1.142-0.511l0.336,0.301c-0.364,0.406-0.806,0.679-1.491,0.679
			c-0.995,0-1.808-0.763-1.808-1.891c0-1.05,0.735-1.891,1.737-1.891c1.071,0,1.688,0.854,1.688,1.919c0,0.049,0,0.105-0.007,0.168
			h-2.871C249.608,90.02,250.169,90.461,250.807,90.461z M251.864,88.836c-0.057-0.658-0.435-1.232-1.156-1.232
			c-0.63,0-1.106,0.525-1.176,1.232H251.864z"/>
		<path fill="#939598" d="M254.082,89.816c0,0.441,0.245,0.603,0.609,0.603c0.182,0,0.336-0.035,0.525-0.126v0.462
			c-0.189,0.098-0.393,0.154-0.651,0.154c-0.581,0-1.022-0.287-1.022-1.022v-2.185h-0.505v-0.477h0.505v-1.092h0.539v1.092h1.148
			v0.477h-1.148V89.816z"/>
	</g>
	<g>
		<path fill="#939598" d="M204.03,54.183c0,0.829-0.505,1.251-1,1.468c0.748,0.225,1.351,0.657,1.351,1.53
			c0,1.089-0.909,1.729-2.286,1.729h-2.8v-6.302h2.683C203.22,52.607,204.03,53.219,204.03,54.183z M203.31,54.282
			c0-0.63-0.495-1.035-1.396-1.035h-1.917v2.169h1.863C202.716,55.416,203.31,55.029,203.31,54.282z M203.661,57.136
			c0-0.693-0.576-1.089-1.675-1.089h-1.989v2.224h2.115C203.066,58.27,203.661,57.847,203.661,57.136z"/>
		<path fill="#939598" d="M205.945,55.146l-0.207-0.567c0.514-0.234,1.018-0.387,1.692-0.387c1.27,0,1.98,0.648,1.98,1.873v2.845
			h-0.666v-0.702c-0.324,0.423-0.864,0.801-1.684,0.801c-0.864,0-1.737-0.486-1.737-1.458c0-0.99,0.811-1.513,1.989-1.513
			c0.595,0,1.018,0.081,1.432,0.198v-0.162c0-0.837-0.513-1.269-1.386-1.269C206.81,54.804,206.378,54.948,205.945,55.146z
			 M206.026,57.523c0,0.594,0.54,0.936,1.171,0.936c0.854,0,1.557-0.522,1.557-1.26v-0.45c-0.342-0.099-0.801-0.198-1.368-0.198
			C206.513,56.55,206.026,56.929,206.026,57.523z"/>
		<path fill="#939598" d="M211.778,57.586c0,0.567,0.315,0.774,0.783,0.774c0.234,0,0.433-0.045,0.676-0.162v0.594
			c-0.243,0.126-0.504,0.198-0.838,0.198c-0.747,0-1.313-0.369-1.313-1.314v-2.809h-0.648v-0.612h0.648v-1.404h0.692v1.404h1.477
			v0.612h-1.477V57.586z"/>
		<path fill="#939598" d="M215.172,58.909h-0.693v-6.572h0.693v2.728c0.306-0.504,0.792-0.909,1.593-0.909
			c1.126,0,1.783,0.756,1.783,1.864v2.89h-0.693V56.19c0-0.864-0.469-1.404-1.287-1.404c-0.802,0-1.396,0.585-1.396,1.458V58.909z"
			/>
	</g>
	<g>
		<path fill="#939598" d="M120.254,137.602c1.404,0.307,2.053,0.819,2.053,1.792c0,1.089-0.9,1.791-2.152,1.791
			c-0.999,0-1.818-0.333-2.575-1.008l0.441-0.522c0.657,0.594,1.287,0.892,2.161,0.892c0.846,0,1.404-0.441,1.404-1.081
			c0-0.594-0.315-0.927-1.639-1.206c-1.449-0.315-2.115-0.783-2.115-1.827c0-1.009,0.873-1.729,2.07-1.729
			c0.918,0,1.576,0.261,2.215,0.774l-0.414,0.549c-0.585-0.478-1.17-0.685-1.819-0.685c-0.819,0-1.341,0.45-1.341,1.026
			C118.544,136.972,118.868,137.305,120.254,137.602z"/>
		<path fill="#939598" d="M124.53,139.772c0,0.567,0.315,0.774,0.783,0.774c0.234,0,0.432-0.045,0.675-0.162v0.594
			c-0.243,0.126-0.504,0.198-0.837,0.198c-0.747,0-1.314-0.369-1.314-1.314v-2.809h-0.648v-0.612h0.648v-1.404h0.693v1.404h1.476
			v0.612h-1.476V139.772z"/>
		<path fill="#939598" d="M130.534,136.441h0.684v4.654h-0.684v-0.811c-0.315,0.505-0.792,0.909-1.593,0.909
			c-1.125,0-1.783-0.756-1.783-1.863v-2.89h0.693v2.719c0,0.864,0.468,1.404,1.287,1.404c0.792,0,1.396-0.585,1.396-1.458V136.441z"
			/>
		<path fill="#939598" d="M136.51,141.095v-0.937c-0.378,0.559-0.927,1.035-1.782,1.035c-1.116,0-2.224-0.882-2.224-2.421
			c0-1.531,1.107-2.432,2.224-2.432c0.864,0,1.422,0.469,1.782,0.991v-2.81h0.693v6.572H136.51z M134.854,136.963
			c-0.9,0-1.639,0.666-1.639,1.8c0,1.107,0.756,1.81,1.639,1.81c0.864,0,1.684-0.72,1.684-1.81
			C136.537,137.683,135.718,136.963,134.854,136.963z"/>
		<path fill="#939598" d="M138.768,135.423v-0.765h0.792v0.765H138.768z M138.812,141.095v-4.654h0.693v4.654H138.812z"/>
		<path fill="#939598" d="M143.241,141.204c-1.396,0-2.413-1.099-2.413-2.422s1.026-2.44,2.431-2.44
			c1.396,0,2.422,1.099,2.422,2.422C145.681,140.087,144.646,141.204,143.241,141.204z M143.241,136.954
			c-1.009,0-1.701,0.802-1.701,1.81c0,1.009,0.737,1.819,1.719,1.819c1.009,0,1.711-0.802,1.711-1.801
			C144.97,137.764,144.223,136.954,143.241,136.954z"/>
		<path fill="#939598" d="M104.315,147.422l-0.522-0.378c0.567-0.846,1.161-1.341,2.269-1.341c1.144,0,1.954,0.756,1.954,1.791
			c0,0.928-0.486,1.495-1.594,2.458l-1.683,1.494h3.34v0.648h-4.402v-0.549l2.287-2.017c0.963-0.864,1.314-1.351,1.314-1.98
			c0-0.738-0.585-1.207-1.27-1.207C105.288,146.342,104.82,146.72,104.315,147.422z"/>
		<path fill="#939598" d="M109.14,145.793h4.276v0.531l-2.863,5.771h-0.792l2.845-5.653h-3.466V145.793z"/>
		<path fill="#939598" d="M114.747,145.793h0.846v0.045l-0.729,2.403h-0.387L114.747,145.793z"/>
		<path fill="#939598" d="M120.67,145.749v4.258h0.981v0.595h-0.981v1.494h-0.685v-1.494h-3.322l-0.18-0.514l3.565-4.339H120.67z
			 M119.985,146.756l-2.646,3.25h2.646V146.756z"/>
		<path fill="#939598" d="M122.991,145.793h0.837v0.045l-0.729,2.403h-0.378L122.991,145.793z M124.755,145.793h0.829v0.045
			l-0.729,2.403h-0.378L124.755,145.793z"/>
		<path fill="#939598" d="M133.611,152.095h-0.801l-1.441-1.899l-1.449,1.899h-0.774l1.828-2.368l-1.755-2.286h0.792l1.377,1.801
			l1.378-1.801h0.773l-1.764,2.269L133.611,152.095z"/>
		<path fill="#939598" d="M137.732,147.422l-0.522-0.378c0.567-0.846,1.161-1.341,2.269-1.341c1.144,0,1.954,0.756,1.954,1.791
			c0,0.928-0.486,1.495-1.594,2.458l-1.684,1.494h3.34v0.648h-4.402v-0.549l2.287-2.017c0.963-0.864,1.314-1.351,1.314-1.98
			c0-0.738-0.585-1.207-1.27-1.207C138.704,146.342,138.236,146.72,137.732,147.422z"/>
		<path fill="#939598" d="M145.266,152.204c-1.629,0-2.655-1.477-2.655-3.25s1.044-3.269,2.674-3.269c1.62,0,2.646,1.477,2.646,3.25
			S146.887,152.204,145.266,152.204z M145.266,146.333c-1.179,0-1.917,1.206-1.917,2.602s0.756,2.62,1.936,2.62
			c1.179,0,1.908-1.216,1.908-2.602C147.192,147.567,146.445,146.333,145.266,146.333z"/>
		<path fill="#939598" d="M149.342,145.793h0.847v0.045l-0.729,2.403h-0.387L149.342,145.793z"/>
		<path fill="#939598" d="M151.304,145.793h4.276v0.531l-2.862,5.771h-0.793l2.845-5.653h-3.466V145.793z"/>
		<path fill="#939598" d="M156.911,145.793h0.837v0.045l-0.729,2.403h-0.378L156.911,145.793z M158.676,145.793h0.828v0.045
			l-0.729,2.403h-0.378L158.676,145.793z"/>
	</g>
	<g>
		<path fill="#939598" d="M203.104,8.61h0.553v4.392h2.76v0.511h-3.312V8.61z"/>
		<path fill="#939598" d="M207.359,9.101V8.505h0.616v0.595H207.359z M207.395,13.513V9.892h0.539v3.621H207.395z"/>
		<path fill="#939598" d="M209.726,13.513h-0.539V9.892h0.539v0.63c0.238-0.392,0.616-0.708,1.239-0.708
			c0.876,0,1.387,0.588,1.387,1.45v2.248h-0.539v-2.115c0-0.672-0.364-1.092-1.002-1.092c-0.623,0-1.085,0.455-1.085,1.134V13.513z"
			/>
		<path fill="#939598" d="M215.095,13.128c0.497,0,0.848-0.203,1.142-0.511l0.337,0.301c-0.364,0.406-0.806,0.679-1.492,0.679
			c-0.994,0-1.807-0.763-1.807-1.891c0-1.05,0.735-1.891,1.736-1.891c1.071,0,1.688,0.854,1.688,1.919c0,0.049,0,0.105-0.008,0.168
			h-2.871C213.897,12.687,214.458,13.128,215.095,13.128z M216.152,11.503c-0.056-0.658-0.434-1.232-1.155-1.232
			c-0.631,0-1.106,0.525-1.177,1.232H216.152z"/>
		<path fill="#939598" d="M218.182,13.513h-0.54V9.892h0.54v0.63c0.238-0.392,0.616-0.708,1.239-0.708
			c0.876,0,1.387,0.588,1.387,1.45v2.248h-0.539v-2.115c0-0.672-0.364-1.092-1.002-1.092c-0.623,0-1.085,0.455-1.085,1.134V13.513z"
			/>
	</g>
	<g>
		<path fill="#939598" d="M46.467,5.531h-2.991v1.674h2.675v0.504h-2.675v1.716h3.026v0.504h-3.579V5.026h3.544V5.531z"/>
		<path fill="#939598" d="M48.062,9.929h-0.539V6.308h0.539v0.63c0.238-0.392,0.616-0.708,1.24-0.708
			c0.875,0,1.387,0.588,1.387,1.45v2.248h-0.54V7.814c0-0.672-0.364-1.092-1.001-1.092c-0.623,0-1.085,0.455-1.085,1.134V9.929z"/>
		<path fill="#939598" d="M52.562,8.899c0,0.441,0.245,0.603,0.609,0.603c0.182,0,0.336-0.035,0.525-0.126v0.462
			c-0.189,0.098-0.392,0.154-0.651,0.154c-0.582,0-1.022-0.287-1.022-1.022V6.785h-0.504V6.308h0.504V5.216h0.539v1.092h1.149v0.477
			h-1.149V8.899z"/>
		<path fill="#939598" d="M55.202,9.929h-0.54V6.308h0.54v0.946c0.266-0.603,0.791-1.037,1.478-1.009v0.582h-0.042
			c-0.792,0-1.436,0.567-1.436,1.66V9.929z"/>
		<path fill="#939598" d="M59.262,10.048c-0.308,0.75-0.658,1.022-1.205,1.022c-0.301,0-0.525-0.063-0.771-0.182l0.182-0.427
			c0.175,0.091,0.336,0.133,0.567,0.133c0.322,0,0.525-0.168,0.742-0.68l-1.646-3.607h0.596l1.316,3.019l1.163-3.019h0.574
			L59.262,10.048z"/>
	</g>
</g>
</svg>
