<?xml version="1.0" encoding="utf-8"?>
<!-- Generator: Adobe Illustrator 15.0.2, SVG Export Plug-In . SVG Version: 6.00 Build 0)  -->
<!DOCTYPE svg PUBLIC "-//W3C//DTD SVG 1.1//EN" "http://www.w3.org/Graphics/SVG/1.1/DTD/svg11.dtd">
<svg version="1.1" xmlns="http://www.w3.org/2000/svg" xmlns:xlink="http://www.w3.org/1999/xlink" x="0px" y="0px"
	 width="224.322px" height="334.607px" viewBox="0 0 224.322 334.607" enable-background="new 0 0 224.322 334.607"
	 xml:space="preserve">
<g id="_x32_0_x25___PMS_2985_fill" display="none">
	<polygon display="inline" fill="#EBEEEF" points="3.031,1.617 3.031,318.117 13.031,318.117 13.031,326.117 105.031,326.117 
		105.031,317.117 222.031,317.117 222.031,130.117 172.031,130.117 172.031,78.95 157.531,78.95 157.531,24.617 172.031,24.617 
		172.031,2.617 	"/>
</g>
<g id="_x32_0_x25__grey_fill">
	<rect x="212.637" y="311.367" fill="#D1D3D4" width="8.395" height="5.75"/>
	<rect x="96.281" y="311.867" fill="#D1D3D4" width="41.5" height="4.5"/>
	<rect x="3.281" y="311.117" fill="#D1D3D4" width="18.75" height="5.75"/>
</g>
<g id="icons">
	<g>
		<g>
			<rect x="88.785" y="81.064" fill="#FFFFFF" stroke="#939598" width="23.625" height="45.821"/>
			<path fill="#FFFFFF" stroke="#939598" d="M100.598,104.041"/>
			<path fill="#FFFFFF" stroke="#939598" d="M100.598,104.197"/>
			<path fill="#FFFFFF" stroke="#939598" d="M100.598,119.689"/>
		</g>
		<circle fill="#FFFFFF" stroke="#939598" cx="100.486" cy="116.472" r="0.969"/>
		<path fill="#FFFFFF" stroke="#939598" d="M100.525,83.802c6.771,0,9.25,1.562,9.25,3.752c0,0,0,32.838,0,33.375
			c0,0.535-0.145,1.641-1.561,1.641c-1.418,0-7.689,0-7.689,0h-0.016c0,0-6.271,0-7.689,0c-1.416,0-1.561-1.105-1.561-1.641
			c0-0.537,0-33.354,0-33.354l0.002-0.021C91.262,85.365,93.797,83.802,100.525,83.802z"/>
		<path fill="#FFFFFF" stroke="#939598" d="M102.518,124.269c-0.002-0.549,0.439-0.988,0.994-0.988c0.537,0,0.982,0.439,0.986,0.988
			c-0.004,0.545-0.449,0.996-0.986,0.996C102.957,125.265,102.516,124.82,102.518,124.269z"/>
		<path fill="#FFFFFF" stroke="#939598" d="M96.377,124.269c-0.006-0.549,0.445-0.988,0.99-0.988c0.543,0,0.99,0.439,0.99,0.988
			c0,0.545-0.447,0.996-0.99,0.988C96.82,125.265,96.377,124.814,96.377,124.269z"/>
		<path fill="#FFFFFF" stroke="#939598" d="M101.818,124.562c0,0.812-0.549,1.469-1.361,1.471c-0.809-0.002-1.252-0.658-1.252-1.471
			l0.521-5.592c0-0.549,1.48-0.549,1.48,0L101.818,124.562z"/>
	</g>
	<g>
		<polygon fill="none" stroke="#939598" points="120.288,187.535 120.296,189.121 142.923,189.136 142.915,187.548 		"/>
		<path fill="none" stroke="#939598" d="M142.933,188.264c-0.423,12.458-10.664,22.214-23.121,21.788"/>
	</g>
	<g>
		<g>
			<g>
				<g>
					<rect x="91.386" y="140.245" fill="#FFFFFF" stroke="#939598" width="18.545" height="20.188"/>
					<path fill="#FFFFFF" stroke="#939598" d="M100.042,150.338"/>
					<polyline fill="#FFFFFF" stroke="#939598" points="96.919,144.213 94.099,144.213 93.441,146.651 93.441,154.12 
						94.099,156.588 96.919,156.588 					"/>
					<line fill="#FFFFFF" stroke="#939598" x1="96.919" y1="160.579" x2="96.919" y2="140.245"/>
					<path fill="#FFFFFF" stroke="#939598" d="M99.097,150.401"/>
				</g>
			</g>
		</g>
		<polygon fill="#FFFFFF" stroke="#939598" points="95.703,159.451 95.699,157.82 96.837,157.461 96.841,159.809 		"/>
	</g>
	<polygon fill="#FFFFFF" stroke="#939598" points="151.025,111.592 151.025,80.925 169.692,80.925 169.692,111.926 	"/>
	<g>
		<path fill="#FFFFFF" stroke="#939598" stroke-miterlimit="10" d="M155.303,132.659c-4.463,0-9.377-2.711-9.377-6.053
			s4.914-6.041,9.377-6.041s6.785,2.699,6.785,6.041S159.766,132.659,155.303,132.659"/>
		<path fill="#FFFFFF" stroke="#939598" d="M155.303,132.659c-4.463,0-9.377-2.711-9.377-6.053s4.914-6.041,9.377-6.041
			s6.785,2.699,6.785,6.041S159.766,132.659,155.303,132.659z"/>
		<path fill="#FFFFFF" stroke="#939598" stroke-miterlimit="10" d="M160.625,122.983c-0.25,0-0.455-0.205-0.455-0.455v-2.107
			c0-0.25,0.205-0.455,0.455-0.455h0.076c0.25,0,0.455,0.205,0.455,0.455v2.107c0,0.25-0.205,0.455-0.455,0.455H160.625z"/>
		<path fill="#FFFFFF" stroke="#939598" d="M160.625,122.983c-0.25,0-0.455-0.205-0.455-0.455v-2.107
			c0-0.25,0.205-0.455,0.455-0.455h0.076c0.25,0,0.455,0.205,0.455,0.455v2.107c0,0.25-0.205,0.455-0.455,0.455H160.625z"/>
		<path fill="#FFFFFF" stroke="#939598" stroke-miterlimit="10" d="M161.168,119.645c0-0.758,2.057-1.375,2.816-1.375
			c0.77,0,2.826,0.617,2.826,1.375v13.814c0,0.76-2.057,1.375-2.826,1.375c-0.76,0-2.814-0.615-2.814-1.375L161.168,119.645z"/>
		<path fill="#FFFFFF" stroke="#939598" d="M161.168,119.645c0-0.758,2.057-1.375,2.816-1.375c0.77,0,2.826,0.617,2.826,1.375
			v13.814c0,0.76-2.057,1.375-2.826,1.375c-0.76,0-2.814-0.615-2.814-1.375L161.168,119.645z"/>
		<path fill="#FFFFFF" stroke="#939598" stroke-miterlimit="10" d="M155.115,131.055c-3.279,0-6.893-1.992-6.893-4.449
			s3.613-4.447,6.893-4.447s4.986,1.99,4.986,4.447S158.395,131.055,155.115,131.055"/>
		<path fill="#FFFFFF" stroke="#939598" d="M155.115,131.055c-3.279,0-6.893-1.992-6.893-4.449s3.613-4.447,6.893-4.447
			s4.986,1.99,4.986,4.447S158.395,131.055,155.115,131.055z"/>
	</g>
	<g>
		<g>
			<g>
				<path fill="none" stroke="#939598" d="M158.206,96.247"/>
			</g>
			<g>
				<path fill="none" stroke="#939598" d="M159.269,96.247"/>
			</g>
			<g>
				<circle fill="none" stroke="#939598" cx="158.206" cy="96.247" r="1.017"/>
				<path fill="none" stroke="#939598" d="M158.206,96.247"/>
			</g>
			<g>
				<g>
					<rect x="164.581" y="91.981" fill="none" stroke="#939598" width="2.125" height="8.553"/>
					<path fill="none" stroke="#939598" d="M165.644,96.247"/>
				</g>
				<g>
					<rect x="160.456" y="95.793" fill="none" stroke="#939598" width="4.031" height="0.906"/>
					<path fill="none" stroke="#939598" d="M162.815,96.247"/>
				</g>
				<g>
					<circle fill="none" stroke="#939598" cx="165.623" cy="96.247" r="0.986"/>
					<path fill="none" stroke="#939598" d="M165.623,96.247"/>
				</g>
			</g>
		</g>
		<g>
			<rect x="153.156" y="87.719" fill="none" stroke="#939598" width="13.875" height="17.076"/>
			<rect x="154.551" y="89.112" fill="none" stroke="#939598" width="9.98" height="14.255"/>
		</g>
	</g>
	<g>
		<polygon fill="none" stroke="#939598" points="175.697,179.394 177.367,179.407 177.383,155.588 175.689,155.576 		"/>
		<path fill="none" stroke="#939598" d="M176.486,155.557c13.113,0.445,23.383,11.289,22.936,24.402"/>
	</g>
	<g>
		<polygon fill="none" stroke="#939598" points="163.178,179.394 161.508,179.407 161.492,155.588 163.186,155.576 		"/>
		<path fill="none" stroke="#939598" d="M162.389,155.557c-13.113,0.445-23.383,11.289-22.936,24.402"/>
	</g>
	<g>
		<polygon fill="none" stroke="#939598" points="157.186,34.104 158.365,35.163 143.357,52.096 142.176,51.037 		"/>
		<path fill="none" stroke="#939598" d="M142.699,51.525c4.42,3.663,9.794,5.388,15.082,5.245"/>
	</g>
	<g>
		<g>
			<polygon fill="none" stroke="#939598" points="146.641,23.341 144.738,23.347 144.722,44.219 146.629,44.212 			"/>
			<path fill="none" stroke="#939598" d="M145.967,44.228c-11.49-0.389-20.488-9.836-20.097-21.326"/>
		</g>
		<g>
			<polygon fill="none" stroke="#939598" points="104.995,23.341 106.896,23.347 106.914,44.219 105.008,44.212 			"/>
			<path fill="none" stroke="#939598" d="M105.668,44.228c11.49-0.389,20.488-9.836,20.097-21.326"/>
		</g>
	</g>
	<g>
		<polygon fill="none" stroke="#939598" points="119.182,78.887 120.852,78.875 120.867,102.693 119.174,102.706 		"/>
		<path fill="none" stroke="#939598" d="M119.971,102.724c13.113-0.445,23.383-11.289,22.936-24.402"/>
	</g>
	<g>
		<g>
			<polygon fill="none" stroke="#939598" points="85.674,137.342 85.67,138.863 68.971,138.877 68.978,137.351 			"/>
			<path fill="none" stroke="#939598" d="M68.965,137.881c0.311,9.192,7.868,16.39,17.061,16.078"/>
		</g>
		<g>
			<polygon fill="none" stroke="#939598" points="85.674,170.658 85.67,169.136 68.971,169.123 68.978,170.648 			"/>
			<path fill="none" stroke="#939598" d="M68.965,170.12c0.311-9.192,7.868-16.391,17.061-16.077"/>
		</g>
	</g>
	<polyline fill="#FFFFFF" stroke="#939598" points="53.846,23.556 22.795,23.556 22.795,113.996 55.013,113.846 55.013,142.464 
		4.596,142.464 4.596,5.556 65.965,5.621 65.965,23.556 64.422,23.556 	"/>
	<g>
		<g>
			<rect x="5.881" y="45.232" fill="#FFFFFF" stroke="#939598" width="19.75" height="23.25"/>
			<path fill="#FFFFFF" stroke="#939598" d="M15.756,56.857"/>
		</g>
		<g>
			<g>
				<circle fill="#FFFFFF" stroke="#939598" cx="21.256" cy="62.173" r="2.824"/>
				<path fill="#FFFFFF" stroke="#939598" d="M21.256,62.173"/>
			</g>
			<g>
				<circle fill="#FFFFFF" stroke="#939598" stroke-width="0.8" cx="21.255" cy="62.2" r="1.989"/>
				<path fill="#FFFFFF" stroke="#939598" d="M21.256,62.2"/>
			</g>
		</g>
		<g>
			<g>
				<circle fill="#FFFFFF" stroke="#939598" cx="13.006" cy="50.885" r="2.824"/>
				<path fill="#FFFFFF" stroke="#939598" d="M13.006,50.885"/>
			</g>
			<g>
				<circle fill="#FFFFFF" stroke="#939598" stroke-width="0.8" cx="13.005" cy="50.857" r="1.989"/>
				<path fill="#FFFFFF" stroke="#939598" d="M13.006,50.857"/>
			</g>
		</g>
		<g>
			<g>
				<circle fill="#FFFFFF" stroke="#939598" cx="13.033" cy="62.21" r="3.219"/>
				<path fill="#FFFFFF" stroke="#939598" d="M13.033,62.21"/>
			</g>
			<g>
				<circle fill="#FFFFFF" stroke="#939598" stroke-width="0.8" cx="13.033" cy="62.179" r="2.268"/>
				<path fill="#FFFFFF" stroke="#939598" d="M13.033,62.179"/>
			</g>
		</g>
		<g>
			<g>
				<circle fill="#FFFFFF" stroke="#939598" cx="21.473" cy="50.898" r="3.219"/>
				<path fill="#FFFFFF" stroke="#939598" d="M21.473,50.898"/>
			</g>
			<g>
				<circle fill="#FFFFFF" stroke="#939598" stroke-width="0.8" cx="21.473" cy="50.866" r="2.268"/>
				<path fill="#FFFFFF" stroke="#939598" d="M21.473,50.866"/>
			</g>
		</g>
		<line fill="#FFFFFF" stroke="#939598" x1="8.613" y1="68.513" x2="8.613" y2="45.232"/>
		<line fill="#FFFFFF" stroke="#939598" x1="7.521" y1="68.481" x2="7.521" y2="45.232"/>
	</g>
	<g>
		<g>
			<rect x="67.072" y="5.861" fill="#FFFFFF" stroke="#939598" width="24.902" height="21.969"/>
			<path fill="#FFFFFF" stroke="#939598" d="M78.234,16.845"/>
		</g>
		<line fill="#FFFFFF" stroke="#939598" x1="92.033" y1="26.292" x2="67.072" y2="26.292"/>
		<rect x="69.15" y="27.845" fill="#FFFFFF" stroke="#939598" width="2.018" height="1.068"/>
		<path fill="#FFFFFF" stroke="#939598" d="M70.159,28.32"/>
	</g>
	<g>
		<polyline fill="none" stroke="#939598" stroke-dasharray="1.5,1,1.5,1,1.5,1" points="24.321,102.636 6.452,102.636 6.452,85.111 
			23.92,85.111 		"/>
		<polyline fill="#FFFFFF" stroke="#939598" points="23.92,85.083 24.982,85.083 24.982,102.636 24.328,102.636 		"/>
	</g>
	<line fill="none" stroke="#939598" x1="52.013" y1="23.556" x2="52.013" y2="6.056"/>
	<g>
		<g>
			<g>
				<polygon fill="none" stroke="#939598" stroke-width="0.7" points="59.449,32.523 58.198,31.835 63.407,23.244 64.658,23.929 
									"/>
				<path fill="none" stroke="#939598" stroke-width="0.8" d="M62.379,27.187"/>
			</g>
			<path fill="none" stroke="#939598" stroke-width="0.8" d="M58.971,32.109c-3.202-1.939-4.926-5.393-4.81-8.887"/>
		</g>
	</g>
	
		<line fill="none" stroke="#939598" stroke-dasharray="1.5,1.5,1.5,1.5,1.5,1.5" x1="16.513" y1="97.867" x2="16.513" y2="132.617"/>
	<polyline fill="none" stroke="#939598" stroke-dasharray="1.5,1.5,1.5,1.5,1.5,1.5" points="51.263,16.312 16.513,16.312 
		16.513,89.866 	"/>
	<line fill="none" stroke="#939598" stroke-dasharray="1.5,1.5,1.5,1.5,1.5,1.5" x1="91.679" y1="16.312" x2="66.513" y2="16.312"/>
	<g>
		<g>
			<path fill="#FFFFFF" stroke="#939598" d="M51.381,131.141c0.426,0,0.771-0.344,0.771-0.771v-13.445
				c0-0.426-0.346-0.771-0.771-0.771H28.574c-0.426,0-0.77,0.346-0.77,0.771v13.445c0,0.428,0.344,0.771,0.77,0.771H51.381z"/>
			<path fill="#FFFFFF" stroke="#939598" d="M40.059,124.229"/>
		</g>
		<g>
			<circle fill="#FFFFFF" stroke="#939598" cx="40.059" cy="123.318" r="0.871"/>
			<path fill="#FFFFFF" stroke="#939598" d="M40.059,123.319"/>
		</g>
		<g>
			<g>
				<rect x="36.254" y="128.785" fill="#FFFFFF" stroke="#939598" width="7.609" height="1.82"/>
				<path fill="#FFFFFF" stroke="#939598" d="M40.059,129.696"/>
			</g>
			<g>
				<rect x="39.67" y="125.247" fill="#FFFFFF" stroke="#939598" width="0.777" height="3.586"/>
				<path fill="#FFFFFF" stroke="#939598" d="M40.059,127.271"/>
			</g>
			<g>
				<circle fill="#FFFFFF" stroke="#939598" cx="40.059" cy="129.677" r="0.847"/>
				<path fill="#FFFFFF" stroke="#939598" d="M40.059,129.677"/>
			</g>
		</g>
		<g>
			<path fill="#FFFFFF" stroke="#939598" d="M40.059,123.319"/>
			<path fill="none" stroke="#939598" d="M40.529,128.156h9.588c0.447,0,0.811-0.362,0.811-0.81v-9.221
				c0-0.445-0.363-0.809-0.811-0.809H29.838c-0.447,0-0.811,0.363-0.811,0.809v9.221c0,0.447,0.363,0.81,0.811,0.81h9.727"/>
		</g>
	</g>
	<line fill="none" stroke="#939598" x1="4.031" y1="134.218" x2="55.031" y2="134.218"/>
	<line fill="none" stroke="#939598" x1="94.281" y1="14.867" x2="170.031" y2="14.867"/>
	<polyline fill="none" stroke="#939598" points="171.531,142.617 209.781,142.617 209.781,179.867 	"/>
	
		<line fill="none" stroke="#939598" stroke-dasharray="1.5,1.5,1.5,1.5,1.5,1.5" x1="94.781" y1="11.867" x2="170.031" y2="11.867"/>
	<polyline fill="none" stroke="#939598" stroke-dasharray="1.5,1.5,1.5,1.5,1.5,1.5" points="170.781,139.867 212.031,139.867 
		212.031,178.617 	"/>
	<line fill="none" stroke="#939598" x1="138.031" y1="310.359" x2="212.031" y2="310.359"/>
	<g>
		<rect x="12.748" y="323.617" fill="none" stroke="#939598" width="2.875" height="2.875"/>
		<rect x="101.762" y="323.617" fill="none" stroke="#939598" width="2.875" height="2.875"/>
		<line fill="none" stroke="#939598" x1="15.373" y1="324.367" x2="101.762" y2="324.367"/>
		<line fill="none" stroke="#939598" x1="15.623" y1="323.617" x2="15.623" y2="317.722"/>
		<line fill="none" stroke="#939598" x1="101.781" y1="323.617" x2="101.781" y2="317.972"/>
		<line fill="none" stroke="#939598" x1="104.637" y1="323.617" x2="104.637" y2="317.722"/>
		<line fill="none" stroke="#939598" x1="101.762" y1="326.492" x2="15.123" y2="326.492"/>
		<line fill="none" stroke="#939598" x1="12.748" y1="323.617" x2="12.748" y2="318.222"/>
	</g>
</g>
<g id="walls">
	<polyline fill="none" stroke="#939598" stroke-width="5" points="89.781,317.434 221.822,317.434 221.822,130.109 171.016,130.109 
		171.016,78.617 157.531,78.617 157.531,56.77 	"/>
	<polyline fill="none" stroke="#939598" stroke-width="5" points="157.531,34.366 157.531,24.902 172.236,24.902 172.236,2.501 
		2.5,2.599 2.5,317.434 26.281,317.434 	"/>
	<line fill="none" stroke="#939598" stroke-width="3" x1="198.998" y1="179.284" x2="221.531" y2="179.284"/>
	<line fill="none" stroke="#939598" stroke-width="3" x1="163.031" y1="179.284" x2="175.781" y2="179.284"/>
	<polyline fill="none" stroke="#939598" stroke-width="3" points="85.198,171.07 85.198,179.284 139.781,179.284 	"/>
	<polyline fill="none" stroke="#939598" stroke-width="3" points="119.033,79.617 85.198,79.617 85.198,136.954 	"/>
	<line fill="none" stroke="#939598" stroke-width="3" x1="157.531" y1="79.617" x2="142.531" y2="79.617"/>
	<polyline fill="none" stroke="#939598" stroke-width="3" points="83.865,128.693 116.853,128.693 116.853,178.617 	"/>
	<line fill="none" stroke="#939598" stroke-width="3" x1="120.864" y1="209.865" x2="120.864" y2="310.284"/>
	<line fill="none" stroke="#939598" stroke-width="3" x1="120.864" y1="179.617" x2="120.864" y2="187.367"/>
	<line fill="none" stroke="#939598" stroke-width="3" x1="170.112" y1="127.617" x2="170.112" y2="180.284"/>
	<line fill="none" stroke="#939598" stroke-width="3" x1="147.031" y1="23.95" x2="157.531" y2="23.95"/>
	<polyline fill="none" stroke="#939598" stroke-width="3" points="93.897,2.283 93.897,23.95 105.416,23.95 	"/>
	<polyline fill="none" stroke="#939598" stroke-width="3" points="96.031,315.367 96.225,311.361 137.975,311.361 137.781,316.367 	
		"/>
	<polyline fill="none" stroke="#939598" stroke-width="3" points="220.781,311.367 212.637,311.367 212.637,316.617 	"/>
	<polyline fill="none" stroke="#939598" stroke-width="3" points="3.781,311.867 21.188,311.867 21.188,316.117 	"/>
	<line fill="none" stroke="#939598" stroke-width="3" x1="87.531" y1="79.867" x2="87.531" y2="129.367"/>
	<g>
		<rect x="56.141" y="317.652" fill="none" stroke="#939598" width="37.5" height="1.766"/>
		<rect x="23.891" y="315.58" fill="none" stroke="#939598" width="41" height="1.938"/>
	</g>
</g>
<g id="Type">
	<g>
		<path fill="#939598" d="M101.521,154.734v-0.455l4.097-1.345l-4.083-1.4v-0.582l4.938,1.751v0.47l-3.979,1.345l3.979,1.352v0.462
			l-4.938,1.751v-0.603l4.083-1.4L101.521,154.734z"/>
		<path fill="#939598" d="M100.849,147.749l6.485,3.25v0.497l-6.485-3.25V147.749z"/>
		<path fill="#939598" d="M106.438,145.397v1.702h-4.903v-1.702c0-1.541,1.058-2.605,2.444-2.605S106.438,143.856,106.438,145.397z
			 M102.046,145.397v1.148h3.88v-1.148c0-1.24-0.84-2.031-1.933-2.031S102.046,144.158,102.046,145.397z"/>
	</g>
	<g>
		<path fill="#939598" d="M135.826,141.481c0,0.829-0.505,1.251-1,1.468c0.748,0.225,1.351,0.657,1.351,1.53
			c0,1.089-0.909,1.729-2.286,1.729h-2.8v-6.302h2.683C135.016,139.906,135.826,140.518,135.826,141.481z M135.105,141.58
			c0-0.63-0.495-1.035-1.396-1.035h-1.917v2.169h1.863C134.512,142.714,135.105,142.327,135.105,141.58z M135.457,144.434
			c0-0.693-0.576-1.089-1.675-1.089h-1.989v2.224h2.115C134.862,145.568,135.457,145.145,135.457,144.434z"/>
		<path fill="#939598" d="M137.741,142.444l-0.207-0.567c0.514-0.234,1.018-0.387,1.692-0.387c1.27,0,1.98,0.648,1.98,1.873v2.845
			h-0.666v-0.702c-0.324,0.423-0.864,0.801-1.684,0.801c-0.864,0-1.737-0.486-1.737-1.458c0-0.99,0.811-1.513,1.989-1.513
			c0.595,0,1.018,0.081,1.432,0.198v-0.162c0-0.837-0.513-1.27-1.386-1.27C138.605,142.102,138.174,142.247,137.741,142.444z
			 M137.822,144.821c0,0.594,0.54,0.936,1.171,0.936c0.854,0,1.557-0.522,1.557-1.26v-0.45c-0.342-0.099-0.801-0.198-1.368-0.198
			C138.309,143.849,137.822,144.227,137.822,144.821z"/>
		<path fill="#939598" d="M143.574,144.884c0,0.567,0.315,0.774,0.783,0.774c0.234,0,0.433-0.045,0.676-0.162v0.594
			c-0.243,0.126-0.504,0.198-0.838,0.198c-0.747,0-1.313-0.369-1.313-1.314v-2.809h-0.648v-0.612h0.648v-1.404h0.692v1.404h1.477
			v0.612h-1.477V144.884z"/>
		<path fill="#939598" d="M146.968,146.208h-0.693v-6.572h0.693v2.728c0.306-0.504,0.792-0.909,1.593-0.909
			c1.126,0,1.783,0.756,1.783,1.864v2.89h-0.693v-2.719c0-0.864-0.469-1.404-1.287-1.404c-0.802,0-1.396,0.585-1.396,1.458V146.208z
			"/>
	</g>
	<g>
		<path fill="#939598" d="M77.796,23.644l-1.422-1.905h-1.4v1.905H74.42v-4.903h2.108c1.079,0,1.772,0.582,1.772,1.464
			c0,0.819-0.561,1.296-1.331,1.436l1.505,2.003H77.796z M76.487,19.252h-1.513v1.989h1.505c0.736,0,1.261-0.378,1.261-1.016
			C77.74,19.617,77.278,19.252,76.487,19.252z"/>
		<path fill="#939598" d="M80.917,23.259c0.497,0,0.847-0.203,1.142-0.511l0.336,0.301c-0.364,0.406-0.805,0.679-1.492,0.679
			c-0.995,0-1.807-0.763-1.807-1.891c0-1.05,0.735-1.891,1.737-1.891c1.072,0,1.688,0.854,1.688,1.919c0,0.049,0,0.105-0.007,0.168
			h-2.872C79.72,22.817,80.28,23.259,80.917,23.259z M81.975,21.634c-0.056-0.658-0.435-1.232-1.156-1.232
			c-0.63,0-1.107,0.525-1.177,1.232H81.975z"/>
		<path fill="#939598" d="M85.349,20.037V20.5h-1.142v3.145h-0.54V20.5H83.17V20.03h0.497v-0.315c0-0.792,0.399-1.211,1.093-1.211
			c0.252,0,0.42,0.028,0.595,0.091v0.469c-0.196-0.056-0.343-0.091-0.525-0.091c-0.42,0-0.63,0.252-0.63,0.771v0.294H85.349z"/>
	</g>
	<g>
		<path fill="#939598" d="M11.764,96.227h-1.702v-4.903h1.702c1.541,0,2.605,1.058,2.605,2.444S13.305,96.227,11.764,96.227z
			 M11.764,91.835h-1.149v3.88h1.149c1.239,0,2.031-0.84,2.031-1.933S13.003,91.835,11.764,91.835z"/>
		<path fill="#939598" d="M18.254,91.311h0.455l1.345,4.097l1.401-4.083h0.582l-1.751,4.938h-0.469l-1.345-3.979l-1.352,3.979
			h-0.462l-1.751-4.938h0.602l1.401,4.083L18.254,91.311z"/>
	</g>
	<g>
		<path fill="#939598" d="M58.262,23.275v0.952h1.383v0.442h-3.92v-1.467c0-0.885,0.47-1.467,1.249-1.467
			C57.826,21.735,58.262,22.441,58.262,23.275z M56.134,23.236v0.991h1.725v-0.969c0-0.649-0.347-1.075-0.868-1.075
			C56.425,22.183,56.134,22.604,56.134,23.236z"/>
		<path fill="#939598" d="M57.305,21.002l-0.353,0.128c-0.146-0.319-0.241-0.633-0.241-1.053c0-0.79,0.403-1.232,1.165-1.232h1.77
			v0.415h-0.437c0.263,0.202,0.499,0.538,0.499,1.047c0,0.538-0.302,1.081-0.907,1.081c-0.616,0-0.941-0.504-0.941-1.238
			c0-0.37,0.051-0.633,0.124-0.89h-0.101c-0.521,0-0.79,0.319-0.79,0.862C57.092,20.464,57.182,20.733,57.305,21.002z
			 M58.783,20.951c0.37,0,0.583-0.336,0.583-0.728c0-0.532-0.325-0.969-0.784-0.969h-0.28c-0.062,0.213-0.124,0.499-0.124,0.852
			C58.178,20.649,58.414,20.951,58.783,20.951z"/>
		<path fill="#939598" d="M59.646,17.664v0.431H56.75v-0.431h0.504c-0.313-0.19-0.566-0.493-0.566-0.991
			c0-0.7,0.471-1.109,1.16-1.109h1.797v0.432h-1.691c-0.538,0-0.874,0.291-0.874,0.801c0,0.498,0.364,0.868,0.907,0.868H59.646z"/>
		<path fill="#939598" d="M58.822,14.231c0.353,0,0.481-0.196,0.481-0.487c0-0.146-0.028-0.269-0.101-0.42h0.37
			c0.078,0.151,0.123,0.313,0.123,0.521c0,0.464-0.229,0.817-0.817,0.817h-1.747v0.403H56.75v-0.403h-0.874v-0.431h0.874v-0.918
			h0.381v0.918H58.822z"/>
		<path fill="#939598" d="M59.646,12.288v0.431H56.75v-0.431h0.756c-0.481-0.213-0.829-0.633-0.807-1.182h0.465v0.034
			c0,0.633,0.454,1.148,1.327,1.148H59.646z"/>
		<path fill="#939598" d="M59.741,9.208c0.599,0.247,0.817,0.527,0.817,0.963c0,0.241-0.05,0.42-0.146,0.616l-0.341-0.146
			c0.073-0.14,0.106-0.269,0.106-0.453c0-0.258-0.135-0.42-0.543-0.594l-2.884,1.316v-0.476l2.414-1.053l-2.414-0.93V7.993
			L59.741,9.208z"/>
	</g>
	<g>
		<path fill="#939598" d="M49.358,57.937h-0.891l-2.422-3.052l-1.341,1.359v1.692h-0.711v-6.302h0.711v3.763l3.619-3.763h0.918
			l-2.701,2.755L49.358,57.937z"/>
		<path fill="#939598" d="M50.365,52.265V51.5h0.792v0.765H50.365z M50.41,57.937v-4.654h0.693v4.654H50.41z"/>
		<path fill="#939598" d="M53.65,56.614c0,0.567,0.315,0.774,0.783,0.774c0.234,0,0.432-0.045,0.675-0.162v0.594
			c-0.243,0.126-0.504,0.198-0.837,0.198c-0.747,0-1.314-0.369-1.314-1.314v-2.809h-0.648v-0.612h0.648v-1.404h0.693v1.404h1.477
			v0.612H53.65V56.614z"/>
		<path fill="#939598" d="M58.313,58.045c-1.359,0-2.386-1.107-2.386-2.421c0-1.324,1.026-2.44,2.386-2.44
			c0.882,0,1.432,0.369,1.864,0.828l-0.459,0.486c-0.369-0.387-0.784-0.702-1.414-0.702c-0.945,0-1.666,0.801-1.666,1.81
			c0,1.017,0.738,1.818,1.71,1.818c0.594,0,1.053-0.297,1.422-0.693l0.441,0.415C59.745,57.667,59.187,58.045,58.313,58.045z"/>
		<path fill="#939598" d="M62.048,57.937h-0.693v-6.572h0.693v2.728c0.306-0.504,0.792-0.909,1.593-0.909
			c1.125,0,1.783,0.756,1.783,1.864v2.89H64.73v-2.719c0-0.864-0.468-1.404-1.287-1.404c-0.801,0-1.396,0.585-1.396,1.458V57.937z"
			/>
		<path fill="#939598" d="M68.951,57.442c0.639,0,1.089-0.261,1.467-0.657l0.432,0.387c-0.468,0.522-1.035,0.873-1.917,0.873
			c-1.278,0-2.323-0.981-2.323-2.431c0-1.35,0.945-2.431,2.233-2.431c1.377,0,2.169,1.098,2.169,2.467c0,0.063,0,0.135-0.009,0.216
			h-3.691C67.412,56.875,68.132,57.442,68.951,57.442z M70.311,55.353c-0.072-0.846-0.558-1.584-1.485-1.584
			c-0.811,0-1.422,0.675-1.513,1.584H70.311z"/>
		<path fill="#939598" d="M72.919,57.937h-0.693v-4.654h0.693v0.81c0.306-0.504,0.792-0.909,1.594-0.909
			c1.125,0,1.782,0.756,1.782,1.864v2.89h-0.693v-2.719c0-0.864-0.468-1.404-1.288-1.404c-0.801,0-1.396,0.585-1.396,1.458V57.937z"
			/>
	</g>
	<g>
		<path fill="#939598" d="M118.604,21.625c-1.415,0-2.458-1.114-2.458-2.528c0-1.401,1.037-2.542,2.479-2.542
			c0.89,0,1.422,0.315,1.912,0.777l-0.378,0.406c-0.413-0.392-0.875-0.672-1.541-0.672c-1.085,0-1.898,0.875-1.898,2.017
			s0.82,2.031,1.898,2.031c0.673,0,1.114-0.259,1.583-0.708l0.364,0.357C120.053,21.282,119.493,21.625,118.604,21.625z"/>
		<path fill="#939598" d="M121.486,21.542v-5.113h0.539v5.113H121.486z"/>
		<path fill="#939598" d="M124.931,21.625c-1.085,0-1.877-0.854-1.877-1.884c0-1.03,0.799-1.898,1.892-1.898
			c1.085,0,1.884,0.854,1.884,1.884S126.023,21.625,124.931,21.625z M124.931,18.32c-0.784,0-1.323,0.623-1.323,1.408
			c0,0.784,0.574,1.415,1.338,1.415c0.784,0,1.33-0.623,1.33-1.4C126.275,18.95,125.694,18.32,124.931,18.32z"/>
		<path fill="#939598" d="M128.998,21.611c-0.519,0-1.093-0.203-1.499-0.532l0.272-0.385c0.393,0.294,0.827,0.462,1.254,0.462
			c0.435,0,0.75-0.224,0.75-0.574v-0.014c0-0.364-0.428-0.504-0.904-0.637c-0.566-0.161-1.197-0.357-1.197-1.022v-0.014
			c0-0.624,0.519-1.037,1.232-1.037c0.441,0,0.932,0.154,1.303,0.399l-0.245,0.406c-0.336-0.217-0.721-0.35-1.071-0.35
			c-0.428,0-0.7,0.224-0.7,0.525v0.014c0,0.343,0.448,0.476,0.932,0.624c0.56,0.168,1.162,0.385,1.162,1.036v0.014
			C130.286,21.212,129.719,21.611,128.998,21.611z"/>
		<path fill="#939598" d="M132.883,21.156c0.497,0,0.848-0.203,1.142-0.511l0.336,0.301c-0.364,0.406-0.806,0.679-1.491,0.679
			c-0.995,0-1.808-0.763-1.808-1.891c0-1.05,0.735-1.891,1.737-1.891c1.071,0,1.688,0.854,1.688,1.919c0,0.049,0,0.105-0.007,0.168
			h-2.871C131.685,20.715,132.245,21.156,132.883,21.156z M133.94,19.531c-0.057-0.658-0.435-1.232-1.156-1.232
			c-0.63,0-1.106,0.525-1.176,1.232H133.94z"/>
		<path fill="#939598" d="M136.158,20.512c0,0.441,0.245,0.603,0.609,0.603c0.182,0,0.336-0.035,0.525-0.126v0.462
			c-0.189,0.098-0.393,0.154-0.651,0.154c-0.581,0-1.022-0.287-1.022-1.022v-2.185h-0.505V17.92h0.505v-1.092h0.539v1.092h1.148
			v0.477h-1.148V20.512z"/>
	</g>
	<g>
		<path fill="#939598" d="M186.854,151.875c-1.415,0-2.458-1.113-2.458-2.528c0-1.401,1.036-2.542,2.479-2.542
			c0.89,0,1.422,0.315,1.912,0.777l-0.378,0.406c-0.413-0.392-0.875-0.672-1.541-0.672c-1.085,0-1.897,0.875-1.897,2.017
			c0,1.142,0.819,2.032,1.897,2.032c0.673,0,1.114-0.26,1.583-0.708l0.364,0.357C188.303,151.533,187.743,151.875,186.854,151.875z"
			/>
		<path fill="#939598" d="M189.736,151.792v-5.113h0.539v5.113H189.736z"/>
		<path fill="#939598" d="M193.181,151.875c-1.085,0-1.877-0.854-1.877-1.884c0-1.03,0.799-1.898,1.892-1.898
			c1.085,0,1.884,0.854,1.884,1.884C195.079,151.007,194.273,151.875,193.181,151.875z M193.181,148.57
			c-0.784,0-1.323,0.623-1.323,1.407c0,0.785,0.574,1.415,1.338,1.415c0.784,0,1.33-0.623,1.33-1.4
			C194.525,149.2,193.944,148.57,193.181,148.57z"/>
		<path fill="#939598" d="M197.248,151.862c-0.519,0-1.093-0.203-1.499-0.532l0.272-0.386c0.393,0.294,0.827,0.463,1.254,0.463
			c0.435,0,0.75-0.225,0.75-0.575v-0.014c0-0.364-0.428-0.504-0.904-0.638c-0.566-0.16-1.197-0.356-1.197-1.022v-0.014
			c0-0.624,0.519-1.037,1.232-1.037c0.441,0,0.932,0.154,1.303,0.399l-0.245,0.406c-0.336-0.217-0.721-0.35-1.071-0.35
			c-0.428,0-0.7,0.224-0.7,0.525v0.014c0,0.343,0.448,0.476,0.932,0.623c0.56,0.168,1.162,0.386,1.162,1.037v0.014
			C198.536,151.462,197.969,151.862,197.248,151.862z"/>
		<path fill="#939598" d="M201.133,151.407c0.497,0,0.848-0.203,1.142-0.512l0.336,0.301c-0.364,0.406-0.806,0.68-1.491,0.68
			c-0.995,0-1.808-0.764-1.808-1.891c0-1.051,0.735-1.892,1.737-1.892c1.071,0,1.688,0.854,1.688,1.919c0,0.05,0,0.105-0.007,0.168
			h-2.871C199.935,150.965,200.495,151.407,201.133,151.407z M202.19,149.782c-0.057-0.659-0.435-1.233-1.156-1.233
			c-0.63,0-1.106,0.525-1.176,1.233H202.19z"/>
		<path fill="#939598" d="M204.408,150.762c0,0.441,0.245,0.603,0.609,0.603c0.182,0,0.336-0.035,0.525-0.127v0.463
			c-0.189,0.098-0.393,0.154-0.651,0.154c-0.581,0-1.022-0.287-1.022-1.023v-2.185h-0.505v-0.477h0.505v-1.092h0.539v1.092h1.148
			v0.477h-1.148V150.762z"/>
	</g>
	<g>
		<path fill="#939598" d="M37.07,333.529c-0.735,0-1.205-0.364-1.513-0.869l0.399-0.343c0.301,0.455,0.609,0.7,1.121,0.7
			c0.553,0,0.959-0.399,0.959-1.177v-3.284h0.561v3.277C38.597,332.961,37.946,333.529,37.07,333.529z"/>
		<path fill="#939598" d="M42.384,329.837h0.532v3.621h-0.532v-0.63c-0.245,0.392-0.616,0.707-1.24,0.707
			c-0.875,0-1.387-0.589-1.387-1.45v-2.248h0.54v2.115c0,0.673,0.364,1.093,1.001,1.093c0.616,0,1.085-0.455,1.085-1.135V329.837z"
			/>
		<path fill="#939598" d="M44.174,333.458v-5.112h0.54v5.112H44.174z"/>
		<path fill="#939598" d="M45.98,329.046v-0.596h0.616v0.596H45.98z M46.016,333.458v-3.621h0.539v3.621H46.016z"/>
		<path fill="#939598" d="M49.404,333.074c0.497,0,0.847-0.203,1.142-0.512l0.336,0.301c-0.364,0.406-0.805,0.68-1.492,0.68
			c-0.995,0-1.807-0.764-1.807-1.891c0-1.051,0.735-1.892,1.737-1.892c1.071,0,1.688,0.854,1.688,1.919c0,0.05,0,0.105-0.007,0.168
			h-2.872C48.207,332.632,48.767,333.074,49.404,333.074z M50.462,331.449c-0.056-0.658-0.435-1.233-1.156-1.233
			c-0.63,0-1.106,0.525-1.177,1.233H50.462z"/>
		<path fill="#939598" d="M52.68,332.429c0,0.441,0.245,0.603,0.609,0.603c0.182,0,0.336-0.035,0.525-0.127v0.463
			c-0.189,0.098-0.393,0.154-0.651,0.154c-0.582,0-1.022-0.288-1.022-1.023v-2.185h-0.504v-0.477h0.504v-1.093h0.539v1.093h1.148
			v0.477H52.68V332.429z"/>
		<path fill="#939598" d="M60.654,329.782c0,0.645-0.392,0.974-0.777,1.142c0.581,0.175,1.05,0.511,1.05,1.19
			c0,0.848-0.708,1.345-1.779,1.345H56.97v-4.902h2.087C60.024,328.556,60.654,329.032,60.654,329.782z M60.094,329.859
			c0-0.49-0.385-0.806-1.085-0.806h-1.492v1.688h1.45C59.632,330.741,60.094,330.44,60.094,329.859z M60.367,332.079
			c0-0.539-0.448-0.848-1.303-0.848h-1.548v1.73h1.646C59.905,332.961,60.367,332.632,60.367,332.079z"/>
		<path fill="#939598" d="M62.143,330.531l-0.161-0.441c0.399-0.182,0.792-0.301,1.317-0.301c0.987,0,1.541,0.504,1.541,1.457v2.213
			h-0.519v-0.546c-0.252,0.329-0.672,0.623-1.31,0.623c-0.672,0-1.352-0.378-1.352-1.135c0-0.771,0.63-1.177,1.548-1.177
			c0.462,0,0.792,0.063,1.114,0.154v-0.126c0-0.651-0.399-0.987-1.079-0.987C62.815,330.265,62.479,330.376,62.143,330.531z
			 M62.206,332.38c0,0.462,0.42,0.728,0.911,0.728c0.666,0,1.211-0.406,1.211-0.98v-0.35c-0.266-0.077-0.623-0.154-1.064-0.154
			C62.584,331.624,62.206,331.917,62.206,332.38z"/>
		<path fill="#939598" d="M66.035,333.458v-5.112h0.539v5.112H66.035z"/>
		<path fill="#939598" d="M69.459,333.542c-1.058,0-1.856-0.861-1.856-1.884c0-1.029,0.799-1.898,1.856-1.898
			c0.686,0,1.113,0.287,1.45,0.645l-0.357,0.378c-0.287-0.301-0.609-0.546-1.1-0.546c-0.735,0-1.295,0.623-1.295,1.407
			c0,0.792,0.574,1.415,1.331,1.415c0.462,0,0.819-0.23,1.106-0.539l0.343,0.322C70.572,333.249,70.138,333.542,69.459,333.542z"/>
		<path fill="#939598" d="M73.373,333.542c-1.085,0-1.877-0.854-1.877-1.884s0.798-1.898,1.891-1.898
			c1.085,0,1.884,0.854,1.884,1.884C75.271,332.674,74.465,333.542,73.373,333.542z M73.373,330.237
			c-0.785,0-1.324,0.623-1.324,1.407c0,0.785,0.574,1.415,1.338,1.415c0.784,0,1.331-0.623,1.331-1.4
			C74.717,330.867,74.136,330.237,73.373,330.237z"/>
		<path fill="#939598" d="M76.781,333.458h-0.539v-3.621h0.539v0.631c0.238-0.393,0.617-0.708,1.24-0.708
			c0.875,0,1.387,0.589,1.387,1.45v2.248h-0.539v-2.115c0-0.672-0.364-1.093-1.001-1.093c-0.624,0-1.086,0.455-1.086,1.135V333.458z
			"/>
		<path fill="#939598" d="M82.214,333.578c-0.308,0.749-0.658,1.022-1.205,1.022c-0.301,0-0.525-0.063-0.771-0.182l0.182-0.428
			c0.175,0.091,0.336,0.133,0.567,0.133c0.322,0,0.525-0.168,0.742-0.679l-1.646-3.607h0.596l1.316,3.019l1.163-3.019h0.574
			L82.214,333.578z"/>
	</g>
	<g>
		<path fill="#939598" d="M156.998,47.476h-2.99v1.674h2.676v0.504h-2.676v1.716h3.025v0.504h-3.579v-4.903h3.544V47.476z"/>
		<path fill="#939598" d="M158.593,51.875h-0.539v-3.621h0.539v0.63c0.238-0.392,0.616-0.708,1.239-0.708
			c0.876,0,1.387,0.588,1.387,1.45v2.248h-0.539v-2.115c0-0.672-0.364-1.092-1.001-1.092c-0.624,0-1.086,0.455-1.086,1.134V51.875z"
			/>
		<path fill="#939598" d="M163.094,50.845c0,0.441,0.245,0.603,0.609,0.603c0.183,0,0.336-0.035,0.525-0.126v0.462
			c-0.189,0.098-0.393,0.154-0.651,0.154c-0.581,0-1.022-0.287-1.022-1.022V48.73h-0.504v-0.477h0.504v-1.092h0.539v1.092h1.148
			v0.477h-1.148V50.845z"/>
		<path fill="#939598" d="M165.732,51.875h-0.539v-3.621h0.539v0.946c0.267-0.603,0.792-1.037,1.479-1.009v0.582h-0.042
			c-0.792,0-1.437,0.567-1.437,1.66V51.875z"/>
		<path fill="#939598" d="M169.793,51.994c-0.308,0.75-0.658,1.022-1.204,1.022c-0.302,0-0.525-0.063-0.771-0.182L168,52.407
			c0.176,0.091,0.337,0.133,0.567,0.133c0.322,0,0.525-0.168,0.743-0.68l-1.646-3.607h0.596l1.316,3.019l1.163-3.019h0.574
			L169.793,51.994z"/>
	</g>
	<g>
		<path fill="#939598" d="M161.07,237.19c0,0.828-0.505,1.252-1,1.468c0.747,0.225,1.351,0.657,1.351,1.53
			c0,1.089-0.909,1.729-2.286,1.729h-2.8v-6.302h2.683C160.26,235.615,161.07,236.227,161.07,237.19z M160.35,237.29
			c0-0.631-0.495-1.036-1.396-1.036h-1.917v2.17h1.863C159.756,238.423,160.35,238.037,160.35,237.29z M160.701,240.143
			c0-0.693-0.576-1.09-1.675-1.09h-1.989v2.224h2.115C160.106,241.277,160.701,240.854,160.701,240.143z"/>
		<path fill="#939598" d="M164.768,241.421c0.64,0,1.09-0.261,1.468-0.657l0.433,0.387c-0.469,0.522-1.036,0.874-1.918,0.874
			c-1.278,0-2.322-0.981-2.322-2.431c0-1.351,0.944-2.431,2.232-2.431c1.377,0,2.169,1.098,2.169,2.466c0,0.063,0,0.136-0.009,0.217
			h-3.69C163.229,240.854,163.948,241.421,164.768,241.421z M166.127,239.333c-0.071-0.846-0.558-1.584-1.485-1.584
			c-0.81,0-1.422,0.675-1.512,1.584H166.127z"/>
		<path fill="#939598" d="M171.779,241.917v-0.937c-0.378,0.559-0.927,1.035-1.782,1.035c-1.116,0-2.224-0.882-2.224-2.421
			c0-1.531,1.107-2.431,2.224-2.431c0.864,0,1.422,0.468,1.782,0.99v-2.81h0.693v6.572H171.779z M170.123,237.785
			c-0.9,0-1.639,0.666-1.639,1.8c0,1.107,0.756,1.81,1.639,1.81c0.864,0,1.684-0.72,1.684-1.81
			C171.807,238.504,170.987,237.785,170.123,237.785z"/>
		<path fill="#939598" d="M174.712,241.917h-0.692v-4.654h0.692v1.215c0.343-0.773,1.018-1.332,1.9-1.296v0.747h-0.055
			c-1.017,0-1.846,0.729-1.846,2.134V241.917z"/>
		<path fill="#939598" d="M179.591,242.025c-1.396,0-2.412-1.099-2.412-2.422s1.026-2.439,2.431-2.439
			c1.396,0,2.422,1.098,2.422,2.421S180.995,242.025,179.591,242.025z M179.591,237.775c-1.008,0-1.701,0.802-1.701,1.81
			c0,1.009,0.738,1.819,1.72,1.819c1.008,0,1.71-0.802,1.71-1.801C181.319,238.585,180.572,237.775,179.591,237.775z"/>
		<path fill="#939598" d="M185.405,242.025c-1.396,0-2.413-1.099-2.413-2.422s1.026-2.439,2.431-2.439
			c1.396,0,2.422,1.098,2.422,2.421S186.81,242.025,185.405,242.025z M185.405,237.775c-1.009,0-1.702,0.802-1.702,1.81
			c0,1.009,0.738,1.819,1.72,1.819c1.009,0,1.711-0.802,1.711-1.801C187.134,238.585,186.387,237.775,185.405,237.775z"/>
		<path fill="#939598" d="M194.424,237.164c1.071,0,1.729,0.72,1.729,1.872v2.881h-0.693v-2.719c0-0.9-0.45-1.404-1.206-1.404
			c-0.702,0-1.287,0.522-1.287,1.44v2.683h-0.685v-2.737c0-0.873-0.459-1.386-1.197-1.386s-1.297,0.612-1.297,1.467v2.656h-0.692
			v-4.654h0.692v0.783c0.307-0.459,0.721-0.882,1.504-0.882c0.756,0,1.242,0.404,1.494,0.927
			C193.118,237.578,193.613,237.164,194.424,237.164z"/>
		<path fill="#939598" d="M151.174,246.57h0.522v6.347h-0.702v-5.608l-1.188,0.369l-0.171-0.576L151.174,246.57z"/>
		<path fill="#939598" d="M154.396,246.57h0.522v6.347h-0.702v-5.608l-1.188,0.369l-0.171-0.576L154.396,246.57z"/>
		<path fill="#939598" d="M156.682,246.615h0.846v0.045l-0.729,2.403h-0.388L156.682,246.615z"/>
		<path fill="#939598" d="M161.245,253.025c-1.63,0-2.656-1.477-2.656-3.25s1.045-3.269,2.674-3.269c1.621,0,2.647,1.477,2.647,3.25
			S162.865,253.025,161.245,253.025z M161.245,247.155c-1.18,0-1.918,1.206-1.918,2.602s0.757,2.62,1.936,2.62
			c1.18,0,1.909-1.216,1.909-2.602C163.172,248.388,162.425,247.155,161.245,247.155z"/>
		<path fill="#939598" d="M165.321,246.615h0.837v0.045l-0.729,2.403h-0.379L165.321,246.615z M167.086,246.615h0.828v0.045
			l-0.729,2.403h-0.378L167.086,246.615z"/>
		<path fill="#939598" d="M175.942,252.917h-0.802l-1.44-1.899l-1.449,1.899h-0.774l1.828-2.368l-1.756-2.286h0.792l1.378,1.801
			l1.377-1.801h0.774l-1.765,2.269L175.942,252.917z"/>
		<path fill="#939598" d="M180.783,246.57h0.522v6.347h-0.702v-5.608l-1.188,0.369l-0.172-0.576L180.783,246.57z"/>
		<path fill="#939598" d="M186.787,246.57v4.258h0.981v0.595h-0.981v1.494h-0.685v-1.494h-3.322l-0.18-0.514l3.565-4.339H186.787z
			 M186.103,247.578l-2.646,3.25h2.646V247.578z"/>
		<path fill="#939598" d="M189.107,246.615h0.847v0.045l-0.729,2.403h-0.387L189.107,246.615z"/>
		<path fill="#939598" d="M195.075,247.776c-0.468-0.396-0.909-0.621-1.485-0.621c-1.143,0-1.854,1.152-1.845,2.782
			c0.342-0.505,0.873-0.964,1.791-0.964c1.18,0,2.179,0.757,2.179,1.944c0,1.225-0.981,2.107-2.26,2.107
			c-0.693,0-1.261-0.243-1.656-0.64c-0.504-0.504-0.792-1.152-0.792-2.448c0-1.927,0.972-3.431,2.619-3.431
			c0.757,0,1.314,0.271,1.864,0.721L195.075,247.776z M193.446,249.585c-0.945,0-1.575,0.675-1.575,1.387
			c0,0.819,0.666,1.422,1.593,1.422c0.928,0,1.521-0.639,1.521-1.449C194.985,250.162,194.355,249.585,193.446,249.585z"/>
		<path fill="#939598" d="M197.136,246.615h0.837v0.045l-0.729,2.403h-0.378L197.136,246.615z M198.9,246.615h0.828v0.045
			l-0.729,2.403h-0.378L198.9,246.615z"/>
	</g>
	<g>
		<path fill="#939598" d="M16.56,235.572h0.711v5.645h3.547v0.657H16.56V235.572z"/>
		<path fill="#939598" d="M22.032,236.202v-0.765h0.792v0.765H22.032z M22.077,241.874v-4.654h0.693v4.654H22.077z"/>
		<path fill="#939598" d="M27.829,237.219h0.747l-2.026,4.69h-0.612l-2.017-4.69h0.765l1.566,3.862L27.829,237.219z"/>
		<path fill="#939598" d="M29.682,236.202v-0.765h0.792v0.765H29.682z M29.727,241.874v-4.654h0.693v4.654H29.727z"/>
		<path fill="#939598" d="M32.724,241.874h-0.693v-4.654h0.693v0.811c0.306-0.505,0.792-0.909,1.594-0.909
			c1.125,0,1.783,0.756,1.783,1.863v2.89h-0.693v-2.719c0-0.864-0.468-1.404-1.288-1.404c-0.801,0-1.396,0.585-1.396,1.458V241.874z
			"/>
		<path fill="#939598" d="M39.636,243.332c-0.774,0-1.495-0.216-2.116-0.647l0.315-0.54c0.531,0.387,1.125,0.594,1.792,0.594
			c1.026,0,1.692-0.567,1.692-1.656v-0.55c-0.405,0.541-0.972,0.981-1.828,0.981c-1.116,0-2.188-0.828-2.188-2.188
			c0-1.368,1.08-2.205,2.188-2.205c0.873,0,1.44,0.432,1.818,0.936v-0.837h0.693v3.844
			C42.004,242.567,41.068,243.332,39.636,243.332z M39.627,237.732c-0.882,0-1.612,0.604-1.612,1.576
			c0,0.954,0.748,1.593,1.612,1.593c0.882,0,1.71-0.63,1.71-1.584C41.338,238.353,40.509,237.732,39.627,237.732z"/>
		<path fill="#939598" d="M47.404,234.689l-4.177,8.337h-0.639l4.177-8.337H47.404z"/>
		<path fill="#939598" d="M50.427,241.874H48.24v-6.302h2.188c1.98,0,3.349,1.359,3.349,3.142
			C53.776,240.497,52.408,241.874,50.427,241.874z M50.427,236.229h-1.477v4.987h1.477c1.593,0,2.611-1.08,2.611-2.484
			S52.021,236.229,50.427,236.229z"/>
		<path fill="#939598" d="M55.178,236.202v-0.765h0.792v0.765H55.178z M55.224,241.874v-4.654h0.693v4.654H55.224z"/>
		<path fill="#939598" d="M58.221,241.874h-0.693v-4.654h0.693v0.811c0.306-0.505,0.792-0.909,1.593-0.909
			c1.125,0,1.783,0.756,1.783,1.863v2.89h-0.693v-2.719c0-0.864-0.468-1.404-1.288-1.404c-0.801,0-1.395,0.585-1.395,1.458V241.874z
			"/>
		<path fill="#939598" d="M63.089,236.202v-0.765h0.792v0.765H63.089z M63.134,241.874v-4.654h0.693v4.654H63.134z"/>
		<path fill="#939598" d="M66.131,241.874h-0.693v-4.654h0.693v0.811c0.306-0.505,0.792-0.909,1.593-0.909
			c1.125,0,1.783,0.756,1.783,1.863v2.89h-0.693v-2.719c0-0.864-0.468-1.404-1.287-1.404c-0.801,0-1.396,0.585-1.396,1.458V241.874z
			"/>
		<path fill="#939598" d="M73.044,243.332c-0.774,0-1.495-0.216-2.116-0.647l0.315-0.54c0.531,0.387,1.125,0.594,1.792,0.594
			c1.026,0,1.692-0.567,1.692-1.656v-0.55c-0.405,0.541-0.972,0.981-1.827,0.981c-1.117,0-2.188-0.828-2.188-2.188
			c0-1.368,1.081-2.205,2.188-2.205c0.873,0,1.44,0.432,1.818,0.936v-0.837h0.693v3.844
			C75.412,242.567,74.475,243.332,73.044,243.332z M73.035,237.732c-0.882,0-1.611,0.604-1.611,1.576
			c0,0.954,0.747,1.593,1.611,1.593c0.882,0,1.71-0.63,1.71-1.584C74.745,238.353,73.917,237.732,73.035,237.732z"/>
		<path fill="#939598" d="M84.114,241.874l-1.828-2.448h-1.8v2.448h-0.711v-6.302h2.71c1.386,0,2.277,0.747,2.277,1.882
			c0,1.053-0.72,1.665-1.71,1.845l1.936,2.575H84.114z M82.431,236.229h-1.944v2.557h1.936c0.945,0,1.62-0.486,1.62-1.306
			C84.042,236.697,83.448,236.229,82.431,236.229z"/>
		<path fill="#939598" d="M88.199,241.982c-1.395,0-2.413-1.099-2.413-2.422s1.026-2.439,2.431-2.439
			c1.396,0,2.422,1.098,2.422,2.421S89.604,241.982,88.199,241.982z M88.199,237.732c-1.008,0-1.701,0.802-1.701,1.81
			c0,1.009,0.738,1.819,1.719,1.819c1.008,0,1.71-0.802,1.71-1.801C89.928,238.542,89.181,237.732,88.199,237.732z"/>
		<path fill="#939598" d="M94.013,241.982c-1.395,0-2.413-1.099-2.413-2.422s1.026-2.439,2.431-2.439
			c1.396,0,2.422,1.098,2.422,2.421S95.418,241.982,94.013,241.982z M94.013,237.732c-1.008,0-1.701,0.802-1.701,1.81
			c0,1.009,0.738,1.819,1.719,1.819c1.008,0,1.71-0.802,1.71-1.801C95.742,238.542,94.995,237.732,94.013,237.732z"/>
		<path fill="#939598" d="M103.032,237.121c1.071,0,1.729,0.72,1.729,1.872v2.881h-0.693v-2.719c0-0.9-0.45-1.404-1.206-1.404
			c-0.702,0-1.288,0.522-1.288,1.44v2.683h-0.684v-2.737c0-0.873-0.459-1.386-1.197-1.386s-1.296,0.612-1.296,1.467v2.656h-0.693
			v-4.654h0.693v0.783c0.306-0.459,0.72-0.882,1.503-0.882c0.756,0,1.242,0.404,1.494,0.927
			C101.727,237.535,102.222,237.121,103.032,237.121z"/>
		<path fill="#939598" d="M44.797,246.527h0.522v6.347h-0.702v-5.608l-1.188,0.369l-0.171-0.576L44.797,246.527z"/>
		<path fill="#939598" d="M47.299,248.201l-0.522-0.378c0.567-0.846,1.162-1.341,2.269-1.341c1.143,0,1.954,0.756,1.954,1.791
			c0,0.928-0.486,1.495-1.594,2.458l-1.684,1.494h3.34v0.648H46.66v-0.549l2.287-2.017c0.963-0.864,1.314-1.351,1.314-1.98
			c0-0.738-0.585-1.207-1.27-1.207C48.271,247.121,47.803,247.499,47.299,248.201z"/>
		<path fill="#939598" d="M52.474,246.572h0.846v0.045l-0.729,2.403h-0.387L52.474,246.572z"/>
		<path fill="#939598" d="M61.34,252.874h-0.801l-1.44-1.899l-1.45,1.899h-0.774l1.827-2.368l-1.755-2.286h0.792l1.377,1.801
			l1.377-1.801h0.774l-1.765,2.269L61.34,252.874z"/>
		<path fill="#939598" d="M65.173,247.21v-0.639h4.024v0.522l-1.98,2.196c1.107,0.09,2.08,0.621,2.08,1.782
			c0,1.135-0.936,1.909-2.106,1.909c-1.053,0-1.837-0.46-2.35-1.126l0.513-0.459c0.486,0.595,1.072,0.937,1.846,0.937
			c0.765,0,1.377-0.486,1.377-1.233c0-0.792-0.72-1.225-1.765-1.225h-0.405l-0.144-0.423l1.989-2.242H65.173z"/>
		<path fill="#939598" d="M74.48,246.527v4.258h0.981v0.595H74.48v1.494h-0.685v-1.494h-3.322l-0.18-0.514l3.565-4.339H74.48z
			 M73.795,247.535l-2.646,3.25h2.646V247.535z"/>
		<path fill="#939598" d="M76.801,246.572h0.846v0.045l-0.729,2.403H76.53L76.801,246.572z"/>
	</g>
</g>
<g id="windows">
	<g>
		<g>
			<rect x="140.538" y="315.538" fill="#FFFFFF" stroke="#939598" width="69.562" height="3.674"/>
			<line fill="none" stroke="#939598" x1="210.101" y1="317.356" x2="139.788" y2="317.356"/>
			<line fill="none" stroke="#939598" stroke-width="2" x1="187.427" y1="319.37" x2="187.427" y2="315.875"/>
		</g>
		<line fill="none" stroke="#939598" stroke-width="2" x1="164.038" y1="319.495" x2="164.038" y2="315.893"/>
	</g>
</g>
</svg>
