<?xml version="1.0" encoding="utf-8"?>
<!-- Generator: Adobe Illustrator 15.0.2, SVG Export Plug-In . SVG Version: 6.00 Build 0)  -->
<!DOCTYPE svg PUBLIC "-//W3C//DTD SVG 1.1//EN" "http://www.w3.org/Graphics/SVG/1.1/DTD/svg11.dtd">
<svg version="1.1" id="Layer_1" xmlns="http://www.w3.org/2000/svg" xmlns:xlink="http://www.w3.org/1999/xlink" x="0px" y="0px"
	 width="395.005px" height="332.675px" viewBox="52.495 83.671 395.005 332.675"
	 enable-background="new 52.495 83.671 395.005 332.675" xml:space="preserve">
<g id="_x32_0_x25___PMS_2985_fill" display="none">
	<path display="inline" fill="#EBEEEF" d="M2.415,18.68c0,0-3,189.012,0,189.012s244.333,0,244.333,0v-84.334l-11.5-0.25V19.357
		l-4.707,0.792l-3.418-11.336L141.332,8.82l-1.75,10.24L2.415,18.68z"/>
</g>
<g>
	<g id="_x32_0_x25__grey_fill">
		<rect x="142.57" y="370.296" fill="#D1D3D4" width="17.292" height="40.146"/>
		<rect x="238.564" y="371.887" fill="#D1D3D4" width="4.97" height="43.129"/>
		<rect x="194.643" y="95.232" fill="#D1D3D4" width="83.074" height="24.645"/>
		<rect x="59.693" y="116.299" fill="#D1D3D4" width="17.093" height="3.777"/>
		<rect x="394.58" y="116.696" fill="#D1D3D4" width="29.945" height="3.777"/>
	</g>
	<g id="icons">
		<polyline fill="#FFFFFF" stroke="#939598" points="95.029,239.267 95.029,242.199 60.683,242.199 60.581,125.229 91.567,125.229 
			91.567,221.503 		"/>
		<g>
			<g>
				<rect x="162.164" y="371.774" fill="#FFFFFF" stroke="#939598" width="72.65" height="37.562"/>
				<path fill="#FFFFFF" stroke="#939598" d="M198.49,390.557"/>
				<path fill="#FFFFFF" stroke="#939598" d="M198.739,390.557"/>
				<path fill="#FFFFFF" stroke="#939598" d="M223.373,390.557"/>
			</g>
			<circle fill="#FFFFFF" stroke="#939598" cx="218.256" cy="390.378" r="1.542"/>
			<path fill="#FFFFFF" stroke="#939598" d="M166.312,390.442c0,10.765,2.484,14.706,5.965,14.706c0,0,52.214,0,53.067,0
				c0.852,0,2.609-0.229,2.609-2.481c0-2.254,0-12.224,0-12.224v-0.025c0,0,0-9.971,0-12.224c0-2.251-1.758-2.482-2.609-2.482
				c-0.853,0-53.032,0-53.032,0l-0.034,0.003C168.798,375.713,166.312,379.741,166.312,390.442z"/>
			<path fill="#FFFFFF" stroke="#939598" d="M230.654,393.609c-0.871-0.003-1.569,0.695-1.569,1.581c0,0.852,0.698,1.56,1.569,1.564
				c0.867-0.006,1.584-0.714,1.584-1.564C232.236,394.306,231.531,393.606,230.654,393.609z"/>
			<path fill="#FFFFFF" stroke="#939598" d="M230.654,383.842c-0.871-0.01-1.569,0.708-1.569,1.574c0,0.864,0.698,1.573,1.569,1.573
				c0.867,0,1.584-0.709,1.572-1.573C232.236,384.548,231.521,383.842,230.654,383.842z"/>
			<path fill="#FFFFFF" stroke="#939598" d="M231.12,392.498c1.291,0,2.336-0.873,2.339-2.163c-0.003-1.29-1.046-1.993-2.339-1.993
				l-8.892,0.829c-0.873,0-0.873,2.354,0,2.354L231.12,392.498z"/>
		</g>
		<g>
			<polygon fill="none" stroke="#A7A9AC" points="69.205,415.532 71.86,415.516 71.885,377.647 69.229,377.662 			"/>
			<path fill="none" stroke="#A7A9AC" d="M70.426,377.632c20.851,0.707,37.178,17.847,36.467,38.697"/>
		</g>
		<g>
			<polygon fill="none" stroke="#A7A9AC" points="90.812,298.98 90.827,301.501 126.803,301.527 126.791,299.003 			"/>
			<path fill="none" stroke="#A7A9AC" d="M126.818,300.143c-0.674,19.808-16.955,35.32-36.761,34.643"/>
		</g>
		<g>
			<polygon fill="none" stroke="#A7A9AC" points="143.547,300.305 143.562,302.826 179.537,302.854 179.525,300.328 			"/>
			<path fill="none" stroke="#A7A9AC" d="M179.551,301.466c-0.674,19.809-16.956,35.321-36.761,34.644"/>
		</g>
		<rect x="131.441" y="165.777" fill="#FFFFFF" stroke="#A7A9AC" width="46.506" height="74.729"/>
		<g>
			<rect x="398.553" y="299.371" fill="none" stroke="#939598" stroke-width="0.7" width="1.613" height="53.032"/>
			<rect x="396.452" y="338.494" fill="none" stroke="#939598" stroke-width="0.7" width="1.886" height="47.517"/>
		</g>
		<g>
			<g>
				<g>
					<g>
						<rect x="407.231" y="306.084" fill="#FFFFFF" stroke="#939598" width="29.485" height="32.098"/>
						<path fill="#FFFFFF" stroke="#939598" d="M420.993,322.133"/>
						<polyline fill="#FFFFFF" stroke="#939598" points="416.027,312.396 411.542,312.396 410.495,316.27 410.495,328.146 
							411.542,332.071 416.027,332.071 						"/>
						<line fill="none" stroke="#939598" x1="416.027" y1="338.415" x2="416.027" y2="306.084"/>
						<path fill="#FFFFFF" stroke="#939598" d="M419.492,322.231"/>
					</g>
				</g>
			</g>
			<polygon fill="#FFFFFF" stroke="#939598" points="414.093,336.621 414.087,334.027 415.897,333.459 415.904,337.191 			"/>
		</g>
		<line fill="none" stroke="#939598" x1="78.033" y1="288.611" x2="78.033" y2="350.224"/>
		
			<line fill="none" stroke="#939598" stroke-dasharray="1.5,1.5,1.5,1.5,1.5,1.5" x1="74.636" y1="291.096" x2="74.636" y2="348.435"/>
		<polygon fill="#FFFFFF" stroke="#A7A9AC" points="213.707,371.246 213.707,334.522 243.387,333.907 243.387,371.162 		"/>
		<g>
			<path fill="#FFFFFF" stroke="#939598" stroke-miterlimit="10" d="M222.434,321.804c-7.095,0-14.908-4.31-14.908-9.623
				c0-5.314,7.813-9.604,14.908-9.604c7.096,0,10.789,4.291,10.789,9.604C233.221,317.494,229.527,321.804,222.434,321.804"/>
			<path fill="#FFFFFF" stroke="#939598" d="M222.434,321.804c-7.095,0-14.908-4.31-14.908-9.623c0-5.314,7.813-9.604,14.908-9.604
				c7.096,0,10.789,4.291,10.789,9.604C233.221,317.494,229.527,321.804,222.434,321.804z"/>
			<path fill="#FFFFFF" stroke="#939598" stroke-miterlimit="10" d="M230.895,306.42c-0.397,0-0.723-0.325-0.723-0.723v-3.35
				c0-0.397,0.326-0.725,0.723-0.725h0.123c0.397,0,0.724,0.326,0.724,0.725v3.35c0,0.396-0.327,0.723-0.724,0.723H230.895
				L230.895,306.42z"/>
			<path fill="#FFFFFF" stroke="#939598" d="M230.895,306.42c-0.397,0-0.723-0.325-0.723-0.723v-3.35
				c0-0.397,0.326-0.725,0.723-0.725h0.123c0.397,0,0.724,0.326,0.724,0.725v3.35c0,0.396-0.327,0.723-0.724,0.723H230.895
				L230.895,306.42z"/>
			<path fill="#FFFFFF" stroke="#939598" stroke-miterlimit="10" d="M231.76,301.113c0-1.207,3.27-2.188,4.479-2.188
				c1.223,0,4.49,0.979,4.49,2.188v21.963c0,1.208-3.27,2.187-4.49,2.187c-1.209,0-4.475-0.979-4.475-2.187L231.76,301.113z"/>
			<path fill="#FFFFFF" stroke="#939598" d="M231.76,301.113c0-1.207,3.27-2.188,4.479-2.188c1.223,0,4.49,0.979,4.49,2.188v21.963
				c0,1.208-3.27,2.187-4.49,2.187c-1.209,0-4.475-0.979-4.475-2.187L231.76,301.113z"/>
			<path fill="#FFFFFF" stroke="#939598" stroke-miterlimit="10" d="M222.139,319.253c-5.215,0-10.961-3.166-10.961-7.072
				c0-3.905,5.745-7.071,10.961-7.071c5.215,0,7.926,3.166,7.926,7.071C230.064,316.087,227.352,319.253,222.139,319.253"/>
			<path fill="#FFFFFF" stroke="#939598" d="M222.139,319.253c-5.215,0-10.961-3.166-10.961-7.072c0-3.905,5.745-7.071,10.961-7.071
				c5.215,0,7.926,3.166,7.926,7.071C230.064,316.087,227.352,319.253,222.139,319.253z"/>
		</g>
		<g>
			<g>
				<g>
					<path fill="none" stroke="#A7A9AC" d="M225.173,352.386"/>
				</g>
				<g>
					<path fill="none" stroke="#A7A9AC" d="M226.861,352.386"/>
				</g>
				<g>
					<circle fill="none" stroke="#A7A9AC" cx="225.173" cy="352.388" r="1.618"/>
					<path fill="none" stroke="#A7A9AC" d="M225.173,352.386"/>
				</g>
				<g>
					<g>
						<rect x="235.309" y="345.605" fill="none" stroke="#A7A9AC" width="3.379" height="13.6"/>
						<path fill="none" stroke="#A7A9AC" d="M236.998,352.386"/>
					</g>
					<g>
						<rect x="228.75" y="351.668" fill="none" stroke="#A7A9AC" width="6.408" height="1.439"/>
						<path fill="none" stroke="#A7A9AC" d="M232.5,352.386"/>
					</g>
					<g>
						<circle fill="none" stroke="#A7A9AC" cx="236.964" cy="352.388" r="1.567"/>
						<path fill="none" stroke="#A7A9AC" d="M236.966,352.386"/>
					</g>
				</g>
			</g>
			<g>
				<rect x="217.145" y="338.83" fill="none" stroke="#A7A9AC" width="22.059" height="27.15"/>
				<rect x="219.359" y="341.042" fill="none" stroke="#A7A9AC" width="15.867" height="22.664"/>
			</g>
		</g>
		<g>
			<g>
				<rect x="62.131" y="169.217" fill="#FFFFFF" stroke="#939598" width="31.402" height="36.965"/>
				<path fill="#FFFFFF" stroke="#939598" d="M77.832,187.701"/>
			</g>
			<g>
				<g>
					<circle fill="#FFFFFF" stroke="#939598" cx="86.577" cy="196.151" r="4.491"/>
					<path fill="#FFFFFF" stroke="#939598" d="M86.577,196.151"/>
				</g>
				<g>
					<circle fill="#FFFFFF" stroke="#939598" stroke-width="0.8" cx="86.575" cy="196.195" r="3.163"/>
					<path fill="#FFFFFF" stroke="#939598" d="M86.577,196.195"/>
				</g>
			</g>
			<g>
				<g>
					<circle fill="#FFFFFF" stroke="#939598" cx="73.459" cy="178.204" r="4.491"/>
					<path fill="#FFFFFF" stroke="#939598" d="M73.459,178.204"/>
				</g>
				<g>
					<circle fill="#FFFFFF" stroke="#939598" stroke-width="0.8" cx="73.457" cy="178.16" r="3.162"/>
					<path fill="#FFFFFF" stroke="#939598" d="M73.459,178.161"/>
				</g>
			</g>
			<g>
				<g>
					<circle fill="#FFFFFF" stroke="#939598" cx="73.503" cy="196.21" r="5.118"/>
					<path fill="#FFFFFF" stroke="#939598" d="M73.503,196.21"/>
				</g>
				<g>
					<circle fill="#FFFFFF" stroke="#939598" stroke-width="0.8" cx="73.503" cy="196.16" r="3.606"/>
					<path fill="#FFFFFF" stroke="#939598" d="M73.503,196.16"/>
				</g>
			</g>
			<g>
				<g>
					<circle fill="#FFFFFF" stroke="#939598" cx="86.921" cy="178.225" r="5.119"/>
					<path fill="#FFFFFF" stroke="#939598" d="M86.921,178.226"/>
				</g>
				<g>
					<circle fill="#FFFFFF" stroke="#939598" stroke-width="0.8" cx="86.921" cy="178.174" r="3.606"/>
					<path fill="#FFFFFF" stroke="#939598" d="M86.921,178.174"/>
				</g>
			</g>
			<line fill="none" stroke="#939598" x1="66.475" y1="206.23" x2="66.475" y2="169.217"/>
			<line fill="none" stroke="#939598" x1="64.738" y1="206.183" x2="64.738" y2="169.217"/>
		</g>
		<g>
			<g>
				<rect x="60.633" y="244.739" fill="#FFFFFF" stroke="#939598" width="34.93" height="39.593"/>
				<path fill="#FFFFFF" stroke="#939598" d="M78.098,266.584"/>
			</g>
			<line fill="none" stroke="#939598" x1="93.121" y1="244.646" x2="93.121" y2="284.334"/>
			<rect x="95.588" y="277.82" fill="#FFFFFF" stroke="#939598" width="1.701" height="3.211"/>
			<path fill="#FFFFFF" stroke="#939598" d="M96.345,279.424"/>
		</g>
		<g>
			<g>
				<g>
					<polygon fill="none" stroke="#939598" stroke-width="0.7" points="109.816,230.726 108.724,232.715 95.06,224.432 
						96.154,222.443 					"/>
					<path fill="none" stroke="#939598" stroke-width="0.8" d="M101.333,226.067"/>
				</g>
				<path fill="none" stroke="#939598" stroke-width="0.8" d="M109.157,231.487c-3.085,5.09-8.578,7.832-14.132,7.647"/>
			</g>
		</g>
		<g>
			<g>
				<path fill="#FFFFFF" stroke="#939598" d="M158.932,205.283c0.01,0.677-0.53,1.233-1.209,1.242l-21.375,0.302
					c-0.678,0.01-1.234-0.532-1.244-1.21l-0.512-36.257c-0.01-0.677,0.531-1.23,1.208-1.24l21.375-0.303
					c0.68-0.009,1.234,0.529,1.243,1.207L158.932,205.283z"/>
				<path fill="#FFFFFF" stroke="#939598" d="M147.689,187.439"/>
			</g>
			<g>
				<circle fill="#FFFFFF" stroke="#939598" cx="146.241" cy="187.459" r="1.385"/>
				<path fill="#FFFFFF" stroke="#939598" d="M146.242,187.461"/>
			</g>
			<g>
				<g>
					
						<rect x="154.929" y="181.266" transform="matrix(0.9999 -0.0145 0.0145 0.9999 -2.6994 2.2869)" fill="#FFFFFF" stroke="#939598" width="2.896" height="12.099"/>
					<path fill="#FFFFFF" stroke="#939598" d="M156.38,187.315"/>
				</g>
				<g>
					
						<rect x="149.309" y="186.752" transform="matrix(0.9999 -0.0145 0.0145 0.9999 -2.6956 2.2216)" fill="#FFFFFF" stroke="#939598" width="5.702" height="1.236"/>
					<path fill="#FFFFFF" stroke="#939598" d="M152.523,187.371"/>
				</g>
				<g>
					<circle fill="#FFFFFF" stroke="#939598" cx="156.351" cy="187.316" r="1.347"/>
					<path fill="#FFFFFF" stroke="#939598" d="M156.351,187.317"/>
				</g>
			</g>
			<g>
				<path fill="#FFFFFF" stroke="#939598" d="M146.242,187.461"/>
				<path fill="none" stroke="#939598" d="M153.942,188.101l0.215,15.241c0.009,0.71-0.558,1.297-1.27,1.306l-14.659,0.21
					c-0.708,0.01-1.294-0.562-1.304-1.273l-0.456-32.239c-0.01-0.71,0.561-1.295,1.268-1.306l14.661-0.208
					c0.71-0.01,1.295,0.561,1.305,1.272l0.218,15.464"/>
			</g>
		</g>
		<g>
			<polyline fill="none" stroke="#939598" stroke-dasharray="1.5,1,1.5,1,1.5,1" points="130.159,210.325 158.569,209.923 
				158.964,237.786 131.19,238.179 			"/>
			<polyline fill="#FFFFFF" stroke="#939598" points="131.192,238.223 129.501,238.246 129.108,210.339 130.15,210.325 			"/>
		</g>
		<line fill="none" stroke="#939598" x1="58.984" y1="221.809" x2="96.085" y2="221.809"/>
		<line fill="none" stroke="#939598" stroke-dasharray="1.5,1,1.5,1,1.5,1" x1="74.731" y1="243.231" x2="74.731" y2="259.396"/>
		<line fill="none" stroke="#939598" stroke-dasharray="1.5,1,1.5,1,1.5,1" x1="74.731" y1="120.54" x2="74.731" y2="220.972"/>
		<path fill="none" stroke="#939598" stroke-dasharray="1.5,1,1.5,1,1.5,1" d="M74.731,268.936c0.529,1.062,0,20.672,0,20.672"/>
		
			<line fill="none" stroke="#939598" stroke-dasharray="1.5,1.5,1.5,1.5,1.5,1.5" x1="427.242" y1="280.861" x2="427.242" y2="405.41"/>
		<line fill="none" stroke="#A7A9AC" x1="76.056" y1="123.344" x2="394.977" y2="123.344"/>
		<g>
			<rect x="326.212" y="111.692" fill="none" stroke="#939598" stroke-width="0.7" width="61.611" height="1.613"/>
			<rect x="288.236" y="113.52" fill="none" stroke="#939598" stroke-width="0.7" width="51.887" height="1.887"/>
		</g>
		<g>
			<rect x="410.449" y="96.06" fill="none" stroke="#939598" width="4.569" height="4.571"/>
			<line fill="none" stroke="#939598" x1="278.909" y1="99.438" x2="410.449" y2="99.438"/>
			<line fill="none" stroke="#939598" x1="410.48" y1="100.631" x2="410.48" y2="109.607"/>
			<line fill="none" stroke="#939598" x1="415.02" y1="100.631" x2="415.02" y2="110.004"/>
			<line fill="none" stroke="#939598" x1="410.449" y1="96.06" x2="280.896" y2="96.06"/>
		</g>
	</g>
	<g id="walls">
		<polyline fill="none" stroke="#939598" stroke-width="5" points="194.841,113.517 55,113.517 55.653,413.624 69.432,413.624 		"/>
		<polyline fill="none" stroke="#939598" stroke-width="5" points="106.663,413.624 445,413.624 445,277.682 427.44,277.682 
			427.501,113.517 387.624,113.517 		"/>
		<polyline fill="none" stroke="#939598" stroke-width="3" points="57.507,349.627 91.294,349.627 91.294,335.318 		"/>
		<polyline fill="none" stroke="#939598" stroke-width="3" points="57.507,288.215 91.294,288.215 91.294,299.045 		"/>
		<line fill="none" stroke="#939598" stroke-width="3" x1="398.532" y1="385.934" x2="398.532" y2="409.782"/>
		<polyline fill="none" stroke="#939598" stroke-width="3" points="244.727,409.648 244.727,288.257 142.968,288.257 
			142.968,300.305 		"/>
		<path fill="none" stroke="#939598" stroke-width="3" d="M142.968,409.648c0-0.708,0-39.156,0-73.735"/>
		<polyline fill="none" stroke="#939598" stroke-width="3" points="144.16,370.975 160.061,370.975 160.061,409.648 		"/>
		<polyline fill="none" stroke="#939598" stroke-width="3" points="244.727,371.354 237.568,371.488 237.568,409.648 		"/>
		<polyline fill="none" stroke="#939598" stroke-width="3" points="424.525,121.796 394.391,121.796 394.391,114.312 		"/>
		<polygon fill="none" stroke="#939598" stroke-width="3" points="194.833,94.238 194.833,121.796 278.45,121.796 278.45,94.36 		
			"/>
		<polyline fill="none" stroke="#939598" stroke-width="3" points="57.905,121.796 78.914,121.796 78.914,112.324 		"/>
		<polyline fill="none" stroke="#939598" stroke-width="3" points="399.664,300.936 399.664,279.271 424.192,279.271 		"/>
		<line fill="none" stroke="#939598" stroke-width="5" x1="289.443" y1="114.51" x2="279.902" y2="114.51"/>
	</g>
	<g id="Type">
		<g enable-background="new    ">
			<path fill="#939598" d="M418.613,329.582v-0.724l6.516-2.139l-6.49-2.229v-0.919l7.853,2.78v0.746l-6.327,2.141l6.327,2.148
				v0.737l-7.853,2.782v-0.959l6.49-2.228L418.613,329.582z"/>
			<path fill="#939598" d="M417.544,318.477l10.314,5.168v0.79l-10.314-5.167V318.477z"/>
			<path fill="#939598" d="M426.433,314.736v2.706h-7.794v-2.706c0-2.448,1.681-4.141,3.886-4.141
				C424.727,310.597,426.433,312.288,426.433,314.736z M419.447,314.736v1.826h6.171v-1.826c0-1.972-1.335-3.229-3.073-3.229
				C420.808,311.509,419.447,312.767,419.447,314.736z"/>
		</g>
		<g enable-background="new    ">
			<path fill="#939598" d="M88.124,331.116c0,2.248-1.77,3.909-4.02,3.909c-2.226,0-4.041-1.646-4.041-3.942
				c0-1.412,0.499-2.26,1.235-3.04l0.646,0.604c-0.625,0.655-1.07,1.392-1.07,2.449c0,1.728,1.393,3.019,3.209,3.019
				c1.815,0,3.229-1.303,3.229-3.019c0-1.068-0.413-1.771-1.126-2.517l0.567-0.58C87.578,328.812,88.124,329.7,88.124,331.116z"/>
			<path fill="#939598" d="M87.99,326.532h-8.129v-0.856h8.129V326.532z"/>
			<path fill="#939598" d="M88.124,321.056c0,1.729-1.358,2.985-2.996,2.985c-1.638,0-3.018-1.271-3.018-3.008
				c0-1.728,1.358-2.995,2.996-2.995S88.124,319.318,88.124,321.056z M82.867,321.056c0,1.247,0.99,2.105,2.238,2.105
				s2.25-0.912,2.25-2.128c0-1.247-0.991-2.115-2.226-2.115C83.868,318.918,82.867,319.841,82.867,321.056z"/>
			<path fill="#939598" d="M88.102,314.591c0,0.824-0.323,1.737-0.846,2.384l-0.613-0.434c0.468-0.624,0.737-1.312,0.737-1.994
				c0-0.689-0.358-1.191-0.914-1.191h-0.022c-0.579,0-0.801,0.681-1.014,1.438c-0.254,0.9-0.566,1.904-1.625,1.904h-0.021
				c-0.991,0-1.648-0.827-1.648-1.961c0-0.7,0.243-1.481,0.633-2.071l0.646,0.388c-0.345,0.537-0.557,1.149-0.557,1.706
				c0,0.679,0.356,1.111,0.834,1.111h0.023c0.545,0,0.758-0.712,0.99-1.48c0.267-0.892,0.614-1.851,1.649-1.851h0.021
				C87.467,312.539,88.102,313.445,88.102,314.591z"/>
			<path fill="#939598" d="M87.378,308.414c0-0.79-0.323-1.349-0.814-1.816l0.479-0.533c0.645,0.578,1.081,1.28,1.081,2.37
				c0,1.581-1.214,2.871-3.007,2.871c-1.67,0-3.007-1.166-3.007-2.759c0-1.704,1.358-2.686,3.051-2.686c0.08,0,0.167,0,0.268,0.012
				v4.567C86.677,310.316,87.378,309.425,87.378,308.414z M84.795,306.73c-1.046,0.091-1.96,0.692-1.96,1.838
				c0,1.003,0.835,1.762,1.96,1.873V306.73z"/>
			<path fill="#939598" d="M86.354,303.204c0.701,0,0.959-0.39,0.959-0.97c0-0.289-0.056-0.532-0.202-0.834h0.736
				c0.156,0.302,0.246,0.625,0.246,1.037c0,0.922-0.458,1.623-1.627,1.623h-3.474v0.801h-0.759v-0.801h-1.737v-0.856h1.737v-1.824
				h0.759v1.824H86.354z"/>
		</g>
		<g enable-background="new    ">
			<path fill="#939598" d="M173.446,337.816c0,1.314-0.801,1.991-1.589,2.335c1.188,0.355,2.147,1.044,2.147,2.432
				c0,1.732-1.445,2.75-3.636,2.75h-4.452v-10.02h4.266C172.159,335.312,173.446,336.285,173.446,337.816z M172.301,337.977
				c0-1.004-0.787-1.646-2.217-1.646h-3.051v3.449h2.963C171.356,339.777,172.301,339.164,172.301,337.977z M172.86,342.512
				c0-1.101-0.916-1.732-2.664-1.732h-3.164v3.536h3.365C171.915,344.314,172.86,343.642,172.86,342.512z"/>
			<path fill="#939598" d="M176.493,339.35l-0.329-0.9c0.816-0.373,1.618-0.616,2.689-0.616c2.02,0,3.149,1.029,3.149,2.978v4.523
				h-1.06v-1.116c-0.514,0.672-1.374,1.273-2.676,1.273c-1.375,0-2.762-0.771-2.762-2.318c0-1.573,1.288-2.403,3.164-2.403
				c0.943,0,1.618,0.129,2.276,0.314v-0.258c0-1.33-0.815-2.021-2.205-2.021C177.866,338.804,177.18,339.035,176.493,339.35z
				 M176.622,343.127c0,0.946,0.859,1.489,1.86,1.489c1.359,0,2.477-0.828,2.477-2.005v-0.714c-0.545-0.158-1.275-0.314-2.176-0.314
				C177.394,341.581,176.622,342.183,176.622,343.127z"/>
			<path fill="#939598" d="M185.767,343.227c0,0.903,0.5,1.231,1.245,1.231c0.372,0,0.686-0.071,1.073-0.257v0.942
				c-0.387,0.201-0.801,0.315-1.331,0.315c-1.188,0-2.089-0.586-2.089-2.09v-4.465h-1.03v-0.976h1.03v-2.23h1.102v2.23h2.349v0.976
				h-2.349V343.227z"/>
			<path fill="#939598" d="M191.162,345.331h-1.103v-10.449h1.103v4.339c0.486-0.803,1.259-1.445,2.534-1.445
				c1.789,0,2.833,1.203,2.833,2.965v4.594h-1.101v-4.323c0-1.375-0.744-2.232-2.048-2.232c-1.274,0-2.219,0.931-2.219,2.317
				L191.162,345.331L191.162,345.331L191.162,345.331z"/>
		</g>
		<g enable-background="new    ">
			<path fill="#939598" d="M81.039,405.846h-4.755v2.663h4.252v0.804h-4.252v2.729h4.811v0.802h-5.691v-7.794h5.635V405.846z"/>
			<path fill="#939598" d="M83.573,412.84h-0.857v-5.757h0.857v1.002c0.378-0.623,0.979-1.125,1.972-1.125
				c1.391,0,2.205,0.937,2.205,2.306v3.574h-0.859v-3.364c0-1.066-0.578-1.736-1.592-1.736c-0.99,0-1.725,0.724-1.725,1.805
				L83.573,412.84L83.573,412.84L83.573,412.84z"/>
			<path fill="#939598" d="M90.73,411.203c0,0.702,0.39,0.96,0.968,0.96c0.29,0,0.534-0.056,0.834-0.202v0.736
				c-0.3,0.154-0.622,0.246-1.035,0.246c-0.926,0-1.625-0.459-1.625-1.628v-3.475h-0.801v-0.759h0.801v-1.738h0.857v1.738h1.826
				v0.759h-1.826L90.73,411.203L90.73,411.203z"/>
			<path fill="#939598" d="M94.926,412.84h-0.857v-5.757h0.857v1.502c0.422-0.957,1.259-1.646,2.351-1.602v0.923H97.21
				c-1.257,0-2.283,0.9-2.283,2.638L94.926,412.84L94.926,412.84z"/>
			<path fill="#939598" d="M101.382,413.03c-0.488,1.189-1.045,1.624-1.915,1.624c-0.479,0-0.835-0.101-1.226-0.288l0.288-0.681
				c0.279,0.145,0.535,0.211,0.902,0.211c0.512,0,0.835-0.267,1.179-1.077l-2.617-5.736h0.947l2.093,4.801l1.85-4.801h0.912
				L101.382,413.03z"/>
		</g>
		<g enable-background="new    ">
			<path fill="#939598" d="M71.962,233.015H70.45v2.199h-0.704v-6.232h2.333c1.407,0,2.332,0.748,2.332,1.986
				C74.412,232.318,73.29,233.015,71.962,233.015z M72.025,229.632H70.45v2.741h1.54c1.031,0,1.71-0.553,1.71-1.379
				C73.702,230.093,73.032,229.632,72.025,229.632z"/>
			<path fill="#939598" d="M75.758,231.492l-0.204-0.562c0.506-0.231,1.005-0.383,1.673-0.383c1.257,0,1.958,0.642,1.958,1.852
				v2.815h-0.66v-0.696c-0.321,0.419-0.855,0.792-1.664,0.792c-0.854,0-1.719-0.481-1.719-1.442c0-0.978,0.801-1.494,1.97-1.494
				c0.587,0,1.006,0.079,1.414,0.195v-0.161c0-0.827-0.507-1.256-1.37-1.256C76.61,231.151,76.185,231.295,75.758,231.492z
				 M75.836,233.841c0,0.586,0.534,0.926,1.158,0.926c0.846,0,1.541-0.515,1.541-1.247v-0.443c-0.338-0.1-0.794-0.195-1.354-0.195
				C76.319,232.881,75.836,233.251,75.836,233.841z"/>
			<path fill="#939598" d="M81.33,235.213h-0.686v-4.605h0.686v0.802c0.302-0.497,0.784-0.898,1.576-0.898
				c1.113,0,1.763,0.748,1.763,1.842v2.859h-0.685v-2.689c0-0.854-0.463-1.388-1.274-1.388c-0.793,0-1.38,0.578-1.38,1.442V235.213z
				"/>
			<path fill="#939598" d="M87.055,233.903c0,0.561,0.312,0.766,0.774,0.766c0.232,0,0.429-0.044,0.668-0.162v0.587
				c-0.24,0.125-0.498,0.197-0.829,0.197c-0.738,0-1.299-0.367-1.299-1.302v-2.777h-0.641v-0.606h0.641v-1.388h0.685v1.388h1.459
				v0.606h-1.459L87.055,233.903L87.055,233.903z"/>
			<path fill="#939598" d="M90.411,235.213h-0.685v-4.605h0.685v1.202c0.34-0.764,1.008-1.315,1.88-1.281v0.739h-0.052
				c-1.007,0-1.825,0.72-1.825,2.11v1.836L90.411,235.213L90.411,235.213z"/>
			<path fill="#939598" d="M95.576,235.362c-0.392,0.953-0.836,1.301-1.531,1.301c-0.383,0-0.667-0.083-0.979-0.233l0.232-0.543
				c0.222,0.115,0.426,0.168,0.721,0.168c0.411,0,0.667-0.215,0.945-0.864l-2.092-4.587h0.756l1.674,3.838l1.479-3.838h0.73
				L95.576,235.362z"/>
		</g>
		<g enable-background="new    ">
			<path fill="#939598" d="M139.616,228.49h-2.706v-7.793h2.706c2.45,0,4.142,1.681,4.142,3.885
				C143.758,226.787,142.067,228.49,139.616,228.49z M139.616,221.509h-1.827v6.168h1.827c1.97,0,3.229-1.334,3.229-3.072
				C142.846,222.866,141.586,221.509,139.616,221.509z"/>
			<path fill="#939598" d="M149.935,220.672h0.724l2.139,6.517l2.227-6.492h0.924l-2.784,7.851h-0.746l-2.138-6.325l-2.15,6.325
				h-0.734l-2.784-7.851h0.959l2.227,6.492L149.935,220.672z"/>
		</g>
		<g enable-background="new    ">
			<path fill="#939598" d="M71.524,267.98l-2.261-3.027h-2.227v3.027h-0.88v-7.793h3.352c1.714,0,2.816,0.924,2.816,2.328
				c0,1.303-0.891,2.06-2.116,2.28l2.396,3.187h-1.078L71.524,267.98L71.524,267.98z M69.441,260.999h-2.405v3.163h2.394
				c1.168,0,2.004-0.602,2.004-1.615C71.435,261.58,70.699,260.999,69.441,260.999z"/>
			<path fill="#939598" d="M76.487,267.37c0.791,0,1.348-0.323,1.815-0.813l0.535,0.479c-0.58,0.646-1.281,1.08-2.373,1.08
				c-1.583,0-2.873-1.214-2.873-3.007c0-1.67,1.169-3.006,2.763-3.006c1.702,0,2.684,1.355,2.684,3.051c0,0.078,0,0.166-0.012,0.268
				H74.46C74.582,266.67,75.472,267.37,76.487,267.37z M78.167,264.785c-0.088-1.045-0.689-1.959-1.838-1.959
				c-1.001,0-1.758,0.834-1.872,1.959H78.167z"/>
			<path fill="#939598" d="M83.532,262.246v0.736h-1.815v5H80.86v-5h-0.792v-0.746h0.792v-0.5c0-1.26,0.634-1.928,1.736-1.928
				c0.4,0,0.667,0.047,0.946,0.146v0.748c-0.312-0.092-0.545-0.148-0.834-0.148c-0.667,0-1.002,0.401-1.002,1.227v0.468h1.828
				L83.532,262.246L83.532,262.246z"/>
		</g>
		<g enable-background="new    ">
			<path fill="#939598" d="M416.317,383.123c0,2.247-1.771,3.909-4.02,3.909c-2.226,0-4.043-1.647-4.043-3.942
				c0-1.413,0.5-2.262,1.236-3.04l0.646,0.604c-0.624,0.655-1.068,1.391-1.068,2.449c0,1.728,1.392,3.018,3.21,3.018
				c1.812,0,3.229-1.304,3.229-3.018c0-1.07-0.415-1.771-1.127-2.517l0.567-0.58C415.774,380.819,416.317,381.708,416.317,383.123z"
				/>
			<path fill="#939598" d="M416.184,378.539h-8.125v-0.857h8.125V378.539z"/>
			<path fill="#939598" d="M416.317,373.062c0,1.727-1.358,2.983-2.992,2.983c-1.639,0-3.021-1.271-3.021-3.007
				c0-1.729,1.356-2.995,2.994-2.995C414.938,370.045,416.317,371.325,416.317,373.062z M411.062,373.062
				c0,1.245,0.99,2.104,2.236,2.104c1.248,0,2.251-0.912,2.251-2.127c0-1.247-0.99-2.115-2.226-2.115
				C412.062,370.925,411.062,371.848,411.062,373.062z"/>
			<path fill="#939598" d="M416.297,366.598c0,0.823-0.323,1.737-0.846,2.384l-0.614-0.434c0.47-0.624,0.735-1.312,0.735-1.994
				c0-0.689-0.355-1.191-0.912-1.191h-0.021c-0.58,0-0.802,0.682-1.016,1.438c-0.255,0.901-0.565,1.904-1.624,1.904h-0.021
				c-0.989,0-1.648-0.825-1.648-1.961c0-0.699,0.247-1.479,0.634-2.07l0.646,0.388c-0.348,0.536-0.558,1.148-0.558,1.705
				c0,0.68,0.358,1.111,0.834,1.111h0.023c0.546,0,0.758-0.711,0.99-1.48c0.267-0.891,0.612-1.849,1.647-1.849h0.021
				C415.663,364.545,416.297,365.45,416.297,366.598z"/>
			<path fill="#939598" d="M415.572,360.42c0-0.79-0.323-1.349-0.814-1.816l0.48-0.532c0.646,0.579,1.079,1.28,1.079,2.371
				c0,1.582-1.214,2.872-3.005,2.872c-1.672,0-3.008-1.167-3.008-2.761c0-1.704,1.357-2.685,3.052-2.685
				c0.079,0,0.167,0,0.267,0.012v4.565C414.871,362.322,415.572,361.432,415.572,360.42z M412.988,358.737
				c-1.045,0.09-1.958,0.691-1.958,1.838c0,1.003,0.835,1.76,1.958,1.872V358.737z"/>
			<path fill="#939598" d="M414.548,355.211c0.701,0,0.959-0.39,0.959-0.969c0-0.289-0.056-0.535-0.201-0.834h0.735
				c0.156,0.299,0.245,0.624,0.245,1.036c0,0.922-0.458,1.624-1.626,1.624h-3.476v0.801h-0.758v-0.801h-1.736v-0.857h1.736v-1.824
				h0.758v1.824H414.548z"/>
		</g>
		<g enable-background="new    ">
			<path fill="#939598" d="M133.989,266.223h-1.417l-3.851-4.852l-2.134,2.16v2.689h-1.13v-10.019h1.13v5.981l5.755-5.981h1.459
				l-4.294,4.38L133.989,266.223z"/>
			<path fill="#939598" d="M135.587,257.205v-1.217h1.259v1.217H135.587z M135.659,266.223v-7.398h1.102v7.398H135.659z"/>
			<path fill="#939598" d="M140.812,264.118c0,0.901,0.5,1.231,1.244,1.231c0.373,0,0.688-0.07,1.074-0.258v0.944
				c-0.386,0.198-0.801,0.313-1.331,0.313c-1.188,0-2.089-0.586-2.089-2.088v-4.467h-1.031v-0.975h1.031v-2.232h1.101v2.232h2.349
				v0.975h-2.349L140.812,264.118L140.812,264.118z"/>
			<path fill="#939598" d="M148.227,266.395c-2.162,0-3.794-1.759-3.794-3.852c0-2.102,1.631-3.878,3.794-3.878
				c1.402,0,2.274,0.587,2.961,1.317l-0.73,0.771c-0.586-0.614-1.244-1.117-2.249-1.117c-1.502,0-2.648,1.277-2.648,2.88
				c0,1.617,1.173,2.894,2.719,2.894c0.944,0,1.674-0.478,2.261-1.103l0.701,0.656C150.501,265.793,149.615,266.395,148.227,266.395
				z"/>
			<path fill="#939598" d="M154.164,266.223h-1.102v-10.449h1.102v4.34c0.486-0.803,1.259-1.446,2.534-1.446
				c1.789,0,2.834,1.205,2.834,2.965v4.595h-1.101v-4.322c0-1.375-0.746-2.233-2.048-2.233c-1.274,0-2.22,0.931-2.22,2.319
				L154.164,266.223L154.164,266.223L154.164,266.223z"/>
			<path fill="#939598" d="M165.138,265.436c1.016,0,1.732-0.416,2.334-1.045l0.686,0.614c-0.745,0.831-1.647,1.39-3.05,1.39
				c-2.032,0-3.691-1.56-3.691-3.863c0-2.147,1.502-3.865,3.548-3.865c2.189,0,3.45,1.745,3.45,3.922c0,0.1,0,0.217-0.015,0.346
				h-5.869C162.691,264.533,163.839,265.436,165.138,265.436z M167.301,262.115c-0.114-1.344-0.888-2.52-2.361-2.52
				c-1.288,0-2.26,1.073-2.404,2.52H167.301z"/>
			<path fill="#939598" d="M171.45,266.223h-1.102v-7.398h1.102v1.29c0.486-0.804,1.259-1.447,2.535-1.447
				c1.789,0,2.834,1.205,2.834,2.965v4.595h-1.102v-4.322c0-1.375-0.745-2.233-2.048-2.233c-1.274,0-2.22,0.931-2.22,2.319
				L171.45,266.223L171.45,266.223L171.45,266.223z"/>
		</g>
		<g enable-background="new    ">
			<path fill="#939598" d="M300.609,198.139c2.232,0.488,3.265,1.303,3.265,2.849c0,1.731-1.433,2.848-3.419,2.848
				c-1.59,0-2.893-0.53-4.096-1.603l0.701-0.831c1.047,0.945,2.047,1.419,3.438,1.419c1.345,0,2.232-0.702,2.232-1.718
				c0-0.945-0.502-1.474-2.607-1.917c-2.303-0.502-3.363-1.246-3.363-2.905c0-1.604,1.391-2.748,3.292-2.748
				c1.462,0,2.507,0.415,3.521,1.229l-0.656,0.873c-0.93-0.759-1.861-1.088-2.893-1.088c-1.301,0-2.133,0.715-2.133,1.632
				C297.893,197.138,298.404,197.667,300.609,198.139z"/>
			<path fill="#939598" d="M307.409,201.589c0,0.903,0.499,1.231,1.243,1.231c0.371,0,0.688-0.071,1.076-0.257v0.944
				c-0.388,0.201-0.803,0.315-1.334,0.315c-1.186,0-2.09-0.588-2.09-2.09v-4.466h-1.027v-0.973h1.027v-2.232h1.104v2.232h2.347
				v0.973h-2.347V201.589z"/>
			<path fill="#939598" d="M316.954,196.293h1.088v7.4h-1.088v-1.289c-0.5,0.803-1.259,1.443-2.534,1.443
				c-1.789,0-2.833-1.202-2.833-2.961v-4.595h1.104v4.324c0,1.373,0.74,2.232,2.045,2.232c1.259,0,2.218-0.931,2.218-2.318V196.293
				L316.954,196.293z"/>
			<path fill="#939598" d="M326.457,203.694v-1.489c-0.602,0.888-1.477,1.644-2.832,1.644c-1.775,0-3.537-1.401-3.537-3.849
				c0-2.433,1.762-3.866,3.537-3.866c1.372,0,2.261,0.746,2.832,1.576v-4.468h1.104v10.449h-1.104V203.694z M323.824,197.126
				c-1.432,0-2.605,1.059-2.605,2.861c0,1.762,1.202,2.877,2.605,2.877c1.374,0,2.678-1.146,2.678-2.877
				C326.501,198.268,325.197,197.126,323.824,197.126z"/>
			<path fill="#939598" d="M330.046,194.677v-1.215h1.261v1.215H330.046z M330.118,203.694v-7.4h1.103v7.4H330.118z"/>
			<path fill="#939598" d="M337.158,203.867c-2.219,0-3.836-1.748-3.836-3.853c0-2.103,1.631-3.878,3.867-3.878
				c2.217,0,3.851,1.748,3.851,3.851C341.04,202.092,339.395,203.867,337.158,203.867z M337.158,197.11
				c-1.604,0-2.705,1.275-2.705,2.876c0,1.604,1.175,2.893,2.736,2.893c1.603,0,2.719-1.276,2.719-2.865
				C339.907,198.396,338.721,197.11,337.158,197.11z"/>
		</g>
		<g enable-background="new    ">
			<path fill="#939598" d="M274.83,213.755l-0.83-0.602c0.902-1.346,1.848-2.131,3.609-2.131c1.817,0,3.104,1.202,3.104,2.847
				c0,1.476-0.772,2.376-2.534,3.908l-2.677,2.375h5.312v1.031h-7v-0.873l3.636-3.208c1.532-1.372,2.09-2.146,2.09-3.146
				c0-1.174-0.931-1.919-2.019-1.919C276.376,212.037,275.634,212.637,274.83,213.755z"/>
			<path fill="#939598" d="M283.402,211.164h5.768v1.045h-4.779l-0.213,3.206c0.586-0.258,1.146-0.444,1.975-0.444
				c1.947,0,3.462,1.16,3.462,3.079c0,1.975-1.487,3.307-3.577,3.307c-1.432,0-2.676-0.689-3.579-1.59l0.744-0.815
				c0.876,0.844,1.832,1.375,2.853,1.375c1.43,0,2.416-0.945,2.416-2.233c0-1.259-1.017-2.12-2.49-2.12
				c-0.844,0-1.518,0.258-2.104,0.573l-0.76-0.501L283.402,211.164z"/>
			<path fill="#939598" d="M291.816,211.164h1.347v0.072l-1.16,3.822h-0.612L291.816,211.164z"/>
			<path fill="#939598" d="M301.307,213.012c-0.746-0.63-1.447-0.988-2.363-0.988c-1.816,0-2.946,1.831-2.936,4.422
				c0.547-0.802,1.389-1.532,2.852-1.532c1.873,0,3.461,1.205,3.461,3.091c0,1.947-1.557,3.351-3.592,3.351
				c-1.104,0-2.002-0.386-2.633-1.018c-0.803-0.802-1.26-1.832-1.26-3.894c0-3.063,1.543-5.455,4.164-5.455
				c1.203,0,2.09,0.432,2.964,1.146L301.307,213.012z M298.717,215.886c-1.504,0-2.507,1.074-2.507,2.206
				c0,1.303,1.06,2.261,2.537,2.261c1.474,0,2.417-1.016,2.417-2.303C301.163,216.804,300.16,215.886,298.717,215.886z"/>
			<path fill="#939598" d="M304.581,211.164h1.331v0.072l-1.158,3.822h-0.604L304.581,211.164z M307.387,211.164h1.317v0.072
				l-1.159,3.822h-0.604L307.387,211.164z"/>
			<path fill="#939598" d="M321.467,221.183h-1.273l-2.291-3.02l-2.303,3.02h-1.231l2.905-3.765l-2.791-3.635h1.261l2.188,2.865
				l2.188-2.865h1.231l-2.806,3.608L321.467,221.183z"/>
			<path fill="#939598" d="M328.018,213.755l-0.828-0.602c0.9-1.346,1.847-2.131,3.607-2.131c1.818,0,3.105,1.202,3.105,2.847
				c0,1.476-0.771,2.376-2.534,3.908l-2.677,2.375h5.311v1.031h-6.999v-0.873l3.636-3.208c1.53-1.372,2.09-2.146,2.09-3.146
				c0-1.174-0.932-1.919-2.019-1.919C329.564,212.037,328.82,212.637,328.018,213.755z"/>
			<path fill="#939598" d="M337.734,211.094h0.83v10.091h-1.114v-8.918l-1.888,0.586l-0.274-0.916L337.734,211.094z"/>
			<path fill="#939598" d="M341.372,211.164h1.345v0.072l-1.16,3.822h-0.613L341.372,211.164z"/>
			<path fill="#939598" d="M348.626,221.356c-2.593,0-4.224-2.348-4.224-5.167c0-2.82,1.66-5.199,4.252-5.199
				c2.576,0,4.207,2.349,4.207,5.167C352.861,218.979,351.2,221.356,348.626,221.356z M348.626,212.023
				c-1.875,0-3.049,1.917-3.049,4.137c0,2.221,1.2,4.166,3.077,4.166c1.875,0,3.033-1.934,3.033-4.136
				C351.688,213.983,350.5,212.023,348.626,212.023z"/>
			<path fill="#939598" d="M355.107,211.164h1.328v0.072l-1.158,3.822h-0.601L355.107,211.164z M357.91,211.164h1.318v0.072
				l-1.16,3.822h-0.6L357.91,211.164z"/>
		</g>
		<g enable-background="new    ">
			<path fill="#939598" d="M309.215,91.913c-1.17,0-1.915-0.58-2.406-1.382l0.635-0.545c0.479,0.724,0.969,1.112,1.781,1.112
				c0.879,0,1.525-0.634,1.525-1.871v-5.222h0.891v5.211C311.641,91.009,310.605,91.913,309.215,91.913z"/>
			<path fill="#939598" d="M317.665,86.042h0.847v5.757h-0.847v-1c-0.392,0.623-0.979,1.124-1.972,1.124
				c-1.391,0-2.207-0.936-2.207-2.306v-3.576h0.857v3.364c0,1.069,0.578,1.737,1.594,1.737c0.979,0,1.728-0.723,1.728-1.804V86.042
				L317.665,86.042z"/>
			<path fill="#939598" d="M320.511,91.799v-8.128h0.856v8.128H320.511z"/>
			<path fill="#939598" d="M323.382,84.784v-0.945h0.979v0.947h-0.979V84.784z M323.438,91.799v-5.757h0.857v5.757H323.438z"/>
			<path fill="#939598" d="M328.826,91.189c0.787,0,1.347-0.323,1.812-0.815l0.534,0.48c-0.577,0.645-1.278,1.081-2.37,1.081
				c-1.582,0-2.873-1.213-2.873-3.006c0-1.672,1.17-3.01,2.762-3.01c1.703,0,2.685,1.359,2.685,3.051c0,0.08,0,0.168-0.015,0.267
				h-4.562C326.921,90.485,327.812,91.189,328.826,91.189z M330.506,88.605c-0.088-1.047-0.688-1.961-1.836-1.961
				c-1.003,0-1.759,0.834-1.873,1.961H330.506z"/>
			<path fill="#939598" d="M334.034,90.162c0,0.702,0.388,0.96,0.968,0.96c0.289,0,0.533-0.056,0.834-0.202v0.736
				c-0.301,0.155-0.624,0.245-1.036,0.245c-0.924,0-1.622-0.458-1.622-1.627V86.8h-0.805v-0.759h0.805v-1.736h0.856v1.737h1.825
				v0.759h-1.825V90.162L334.034,90.162z"/>
			<path fill="#939598" d="M346.714,85.955c0,1.025-0.625,1.548-1.235,1.815c0.922,0.278,1.67,0.812,1.67,1.893
				c0,1.348-1.123,2.138-2.826,2.138h-3.467v-7.796h3.317C345.711,84.004,346.714,84.763,346.714,85.955z M345.822,86.078
				c0-0.779-0.613-1.282-1.727-1.282h-2.371v2.685h2.305C345.087,87.479,345.822,87,345.822,86.078z M346.257,89.607
				c0-0.857-0.714-1.348-2.071-1.348h-2.463v2.75h2.615C345.521,91.009,346.257,90.485,346.257,89.607z"/>
			<path fill="#939598" d="M349.079,87.146l-0.256-0.702c0.636-0.289,1.259-0.479,2.095-0.479c1.566,0,2.447,0.801,2.447,2.317V91.8
				h-0.825v-0.867c-0.399,0.522-1.067,0.99-2.082,0.99c-1.067,0-2.149-0.601-2.149-1.804c0-1.226,1.002-1.873,2.461-1.873
				c0.736,0,1.258,0.101,1.771,0.245v-0.2c0-1.035-0.635-1.569-1.714-1.569C350.146,86.722,349.613,86.899,349.079,87.146z
				 M349.178,90.085c0,0.734,0.672,1.158,1.449,1.158c1.059,0,1.928-0.646,1.928-1.559v-0.555c-0.426-0.123-0.99-0.246-1.693-0.246
				C349.782,88.883,349.178,89.349,349.178,90.085z"/>
			<path fill="#939598" d="M355.27,91.799v-8.128h0.856v8.128H355.27z"/>
			<path fill="#939598" d="M360.713,91.933c-1.684,0-2.951-1.37-2.951-2.996c0-1.636,1.271-3.018,2.951-3.018
				c1.09,0,1.77,0.457,2.305,1.027l-0.568,0.601c-0.455-0.479-0.967-0.868-1.747-0.868c-1.168,0-2.06,0.991-2.06,2.236
				c0,1.259,0.912,2.25,2.113,2.25c0.736,0,1.303-0.364,1.758-0.857l0.547,0.513C362.482,91.467,361.789,91.933,360.713,91.933z"/>
			<path fill="#939598" d="M366.936,91.933c-1.728,0-2.984-1.357-2.984-2.996c0-1.638,1.27-3.018,3.007-3.018
				c1.728,0,2.993,1.359,2.993,2.996C369.95,90.552,368.672,91.933,366.936,91.933z M366.936,86.679
				c-1.248,0-2.104,0.991-2.104,2.236c0,1.248,0.912,2.25,2.127,2.25c1.245,0,2.114-0.991,2.114-2.225
				C369.072,87.68,368.146,86.679,366.936,86.679z"/>
			<path fill="#939598" d="M372.354,91.799h-0.856v-5.757h0.856v1.002c0.379-0.624,0.979-1.126,1.973-1.126
				c1.39,0,2.203,0.936,2.203,2.306v3.575h-0.856v-3.363c0-1.068-0.577-1.738-1.593-1.738c-0.991,0-1.727,0.724-1.727,1.805V91.799
				L372.354,91.799z"/>
			<path fill="#939598" d="M380.994,91.99c-0.491,1.191-1.047,1.625-1.917,1.625c-0.479,0-0.833-0.1-1.226-0.289l0.291-0.68
				c0.279,0.144,0.537,0.211,0.901,0.211c0.513,0,0.834-0.267,1.181-1.079l-2.617-5.736h0.944l2.097,4.801l1.849-4.801h0.912
				L380.994,91.99z"/>
		</g>
	</g>
	<g id="windows">
		<g>
			<g>
				<rect x="81.41" y="110.55" fill="#FFFFFF" stroke="#A7A9AC" width="110.601" height="5.841"/>
				<line fill="none" stroke="#A7A9AC" x1="192.011" y1="113.442" x2="80.217" y2="113.442"/>
				<line fill="none" stroke="#A7A9AC" stroke-width="2" x1="155.959" y1="116.643" x2="155.959" y2="111.087"/>
			</g>
			<line fill="none" stroke="#A7A9AC" stroke-width="2" x1="118.774" y1="116.841" x2="118.774" y2="111.117"/>
		</g>
	</g>
</g>
</svg>
