<?xml version="1.0" encoding="utf-8"?>
<!-- Generator: Adobe Illustrator 15.0.2, SVG Export Plug-In . SVG Version: 6.00 Build 0)  -->
<!DOCTYPE svg PUBLIC "-//W3C//DTD SVG 1.1//EN" "http://www.w3.org/Graphics/SVG/1.1/DTD/svg11.dtd">
<svg version="1.1" id="Layer_1" xmlns="http://www.w3.org/2000/svg" xmlns:xlink="http://www.w3.org/1999/xlink" x="0px" y="0px"
	 width="250.292px" height="210.857px" viewBox="0 0 250.292 210.857" enable-background="new 0 0 250.292 210.857"
	 xml:space="preserve">
<g id="_x32_0_x25___PMS_2985_fill" display="none">
	<path display="inline" fill="#EBEEEF" d="M2.415,18.68c0,0-3,189.012,0,189.012s244.333,0,244.333,0v-84.334l-11.5-0.25V19.357
		l-4.707,0.792l-3.418-11.336L141.332,8.82l-1.75,10.24L2.415,18.68z"/>
</g>
<g id="_x32_0_x25__grey_fill">
	<rect x="57.582" y="181.108" fill="#D1D3D4" width="10.875" height="25.25"/>
	<rect x="117.957" y="182.108" fill="#D1D3D4" width="3.125" height="27.125"/>
	<rect x="90.332" y="8.108" fill="#D1D3D4" width="52.25" height="15.5"/>
	<rect x="5.457" y="21.358" fill="#D1D3D4" width="10.75" height="2.375"/>
	<rect x="216.082" y="21.608" fill="#D1D3D4" width="18.834" height="2.375"/>
</g>
<g id="icons">
	<polyline fill="#FFFFFF" stroke="#939598" points="27.681,98.698 27.681,100.542 6.079,100.542 6.015,26.974 25.504,26.974 
		25.504,87.525 	"/>
	<g>
		<g>
			<rect x="69.905" y="182.038" fill="#FFFFFF" stroke="#939598" width="45.693" height="23.625"/>
			<path fill="#FFFFFF" stroke="#939598" d="M92.752,193.85"/>
			<path fill="#FFFFFF" stroke="#939598" d="M92.909,193.85"/>
			<path fill="#FFFFFF" stroke="#939598" d="M108.402,193.85"/>
		</g>
		<circle fill="#FFFFFF" stroke="#939598" cx="105.184" cy="193.738" r="0.97"/>
		<path fill="#FFFFFF" stroke="#939598" d="M72.514,193.778c0,6.771,1.562,9.25,3.752,9.25c0,0,32.839,0,33.376,0
			c0.535,0,1.641-0.145,1.641-1.561c0-1.418,0-7.689,0-7.689v-0.016c0,0,0-6.271,0-7.688c0-1.416-1.105-1.562-1.641-1.562
			c-0.537,0-33.354,0-33.354,0l-0.021,0.002C74.077,184.514,72.514,187.049,72.514,193.778z"/>
		<path fill="#FFFFFF" stroke="#939598" d="M112.982,195.77c-0.549-0.002-0.988,0.439-0.988,0.994c0,0.537,0.439,0.982,0.988,0.986
			c0.545-0.004,0.995-0.449,0.995-0.986C113.977,196.209,113.533,195.768,112.982,195.77z"/>
		<path fill="#FFFFFF" stroke="#939598" d="M112.982,189.627c-0.549-0.006-0.988,0.445-0.988,0.99c0,0.543,0.439,0.989,0.988,0.989
			c0.545,0,0.995-0.446,0.988-0.989C113.977,190.071,113.527,189.627,112.982,189.627z"/>
		<path fill="#FFFFFF" stroke="#939598" d="M113.275,195.071c0.812,0,1.469-0.549,1.471-1.36c-0.002-0.812-0.658-1.254-1.471-1.254
			l-5.592,0.521c-0.549,0-0.549,1.482,0,1.482L113.275,195.071z"/>
	</g>
	<g>
		<polygon fill="none" stroke="#A7A9AC" points="11.439,209.558 13.109,209.549 13.125,185.731 11.454,185.74 		"/>
		<path fill="none" stroke="#A7A9AC" d="M12.207,185.721c13.114,0.445,23.383,11.225,22.936,24.338"/>
	</g>
	<g>
		<polygon fill="none" stroke="#A7A9AC" points="25.029,136.254 25.038,137.84 47.665,137.856 47.657,136.268 		"/>
		<path fill="none" stroke="#A7A9AC" d="M47.675,136.984c-0.424,12.458-10.664,22.215-23.121,21.788"/>
	</g>
	<g>
		<polygon fill="none" stroke="#A7A9AC" points="58.196,137.087 58.205,138.673 80.832,138.689 80.824,137.101 		"/>
		<path fill="none" stroke="#A7A9AC" d="M80.841,137.817c-0.424,12.458-10.664,22.215-23.121,21.788"/>
	</g>
	<rect x="50.582" y="52.477" fill="#FFFFFF" stroke="#A7A9AC" width="29.25" height="47"/>
	<g>
		<rect x="218.58" y="136.5" fill="none" stroke="#939598" stroke-width="0.7" width="1.015" height="33.354"/>
		<rect x="217.259" y="161.106" fill="none" stroke="#939598" stroke-width="0.7" width="1.186" height="29.886"/>
	</g>
	<g>
		<g>
			<g>
				<g>
					<rect x="224.039" y="140.722" fill="#FFFFFF" stroke="#939598" width="18.545" height="20.188"/>
					<path fill="#FFFFFF" stroke="#939598" d="M232.694,150.816"/>
					<polyline fill="#FFFFFF" stroke="#939598" points="229.571,144.691 226.75,144.691 226.091,147.128 226.091,154.597 
						226.75,157.066 229.571,157.066 					"/>
					<line fill="none" stroke="#939598" x1="229.571" y1="161.056" x2="229.571" y2="140.722"/>
					<path fill="#FFFFFF" stroke="#939598" d="M231.75,150.878"/>
				</g>
			</g>
		</g>
		<polygon fill="#FFFFFF" stroke="#939598" points="228.354,159.928 228.35,158.297 229.489,157.939 229.494,160.287 		"/>
	</g>
	<line fill="none" stroke="#939598" x1="16.992" y1="129.733" x2="16.992" y2="168.483"/>
	
		<line fill="none" stroke="#939598" stroke-dasharray="1.5,1.5,1.5,1.5,1.5,1.5" x1="14.855" y1="131.295" x2="14.855" y2="167.358"/>
	<polygon fill="#FFFFFF" stroke="#A7A9AC" points="102.323,181.705 102.323,158.608 120.99,158.221 120.99,181.652 	"/>
	<g>
		<path fill="#FFFFFF" stroke="#939598" stroke-miterlimit="10" d="M107.811,150.609c-4.462,0-9.376-2.711-9.376-6.053
			s4.914-6.041,9.376-6.041c4.463,0,6.785,2.699,6.785,6.041S112.274,150.609,107.811,150.609"/>
		<path fill="#FFFFFF" stroke="#939598" d="M107.811,150.609c-4.462,0-9.376-2.711-9.376-6.053s4.914-6.041,9.376-6.041
			c4.463,0,6.785,2.699,6.785,6.041S112.274,150.609,107.811,150.609z"/>
		<path fill="#FFFFFF" stroke="#939598" stroke-miterlimit="10" d="M113.133,140.933c-0.25,0-0.455-0.205-0.455-0.455v-2.106
			c0-0.25,0.205-0.455,0.455-0.455h0.077c0.25,0,0.455,0.205,0.455,0.455v2.106c0,0.25-0.205,0.455-0.455,0.455H113.133z"/>
		<path fill="#FFFFFF" stroke="#939598" d="M113.133,140.933c-0.25,0-0.455-0.205-0.455-0.455v-2.106
			c0-0.25,0.205-0.455,0.455-0.455h0.077c0.25,0,0.455,0.205,0.455,0.455v2.106c0,0.25-0.205,0.455-0.455,0.455H113.133z"/>
		<path fill="#FFFFFF" stroke="#939598" stroke-miterlimit="10" d="M113.677,137.595c0-0.758,2.057-1.375,2.816-1.375
			c0.769,0,2.825,0.617,2.825,1.375v13.814c0,0.76-2.057,1.375-2.825,1.375c-0.76,0-2.814-0.615-2.814-1.375L113.677,137.595z"/>
		<path fill="#FFFFFF" stroke="#939598" d="M113.677,137.595c0-0.758,2.057-1.375,2.816-1.375c0.769,0,2.825,0.617,2.825,1.375
			v13.814c0,0.76-2.057,1.375-2.825,1.375c-0.76,0-2.814-0.615-2.814-1.375L113.677,137.595z"/>
		<path fill="#FFFFFF" stroke="#939598" stroke-miterlimit="10" d="M107.625,149.005c-3.279,0-6.893-1.992-6.893-4.449
			s3.613-4.447,6.893-4.447s4.985,1.99,4.985,4.447S110.904,149.005,107.625,149.005"/>
		<path fill="#FFFFFF" stroke="#939598" d="M107.625,149.005c-3.279,0-6.893-1.992-6.893-4.449s3.613-4.447,6.893-4.447
			s4.985,1.99,4.985,4.447S110.904,149.005,107.625,149.005z"/>
	</g>
	<g>
		<g>
			<g>
				<path fill="none" stroke="#A7A9AC" d="M109.534,169.844"/>
			</g>
			<g>
				<path fill="none" stroke="#A7A9AC" d="M110.596,169.844"/>
			</g>
			<g>
				<circle fill="none" stroke="#A7A9AC" cx="109.534" cy="169.844" r="1.017"/>
				<path fill="none" stroke="#A7A9AC" d="M109.534,169.844"/>
			</g>
			<g>
				<g>
					<rect x="115.909" y="165.579" fill="none" stroke="#A7A9AC" width="2.125" height="8.553"/>
					<path fill="none" stroke="#A7A9AC" d="M116.971,169.844"/>
				</g>
				<g>
					<rect x="111.784" y="169.391" fill="none" stroke="#A7A9AC" width="4.031" height="0.906"/>
					<path fill="none" stroke="#A7A9AC" d="M114.143,169.844"/>
				</g>
				<g>
					<circle fill="none" stroke="#A7A9AC" cx="116.95" cy="169.844" r="0.986"/>
					<path fill="none" stroke="#A7A9AC" d="M116.951,169.844"/>
				</g>
			</g>
		</g>
		<g>
			<rect x="104.484" y="161.317" fill="none" stroke="#A7A9AC" width="13.874" height="17.076"/>
			<rect x="105.878" y="162.709" fill="none" stroke="#A7A9AC" width="9.98" height="14.254"/>
		</g>
	</g>
	<g>
		<g>
			<rect x="6.99" y="54.64" fill="#FFFFFF" stroke="#939598" width="19.75" height="23.249"/>
			<path fill="#FFFFFF" stroke="#939598" d="M16.865,66.265"/>
		</g>
		<g>
			<g>
				<circle fill="#FFFFFF" stroke="#939598" cx="22.365" cy="71.581" r="2.824"/>
				<path fill="#FFFFFF" stroke="#939598" d="M22.365,71.581"/>
			</g>
			<g>
				<circle fill="#FFFFFF" stroke="#939598" stroke-width="0.8" cx="22.364" cy="71.608" r="1.989"/>
				<path fill="#FFFFFF" stroke="#939598" d="M22.365,71.608"/>
			</g>
		</g>
		<g>
			<g>
				<circle fill="#FFFFFF" stroke="#939598" cx="14.115" cy="60.293" r="2.824"/>
				<path fill="#FFFFFF" stroke="#939598" d="M14.115,60.293"/>
			</g>
			<g>
				<circle fill="#FFFFFF" stroke="#939598" stroke-width="0.8" cx="14.114" cy="60.265" r="1.989"/>
				<path fill="#FFFFFF" stroke="#939598" d="M14.115,60.265"/>
			</g>
		</g>
		<g>
			<g>
				<circle fill="#FFFFFF" stroke="#939598" cx="14.142" cy="71.618" r="3.219"/>
				<path fill="#FFFFFF" stroke="#939598" d="M14.142,71.618"/>
			</g>
			<g>
				<circle fill="#FFFFFF" stroke="#939598" stroke-width="0.8" cx="14.142" cy="71.586" r="2.268"/>
				<path fill="#FFFFFF" stroke="#939598" d="M14.142,71.586"/>
			</g>
		</g>
		<g>
			<g>
				<circle fill="#FFFFFF" stroke="#939598" cx="22.582" cy="60.306" r="3.219"/>
				<path fill="#FFFFFF" stroke="#939598" d="M22.582,60.306"/>
			</g>
			<g>
				<circle fill="#FFFFFF" stroke="#939598" stroke-width="0.8" cx="22.582" cy="60.274" r="2.268"/>
				<path fill="#FFFFFF" stroke="#939598" d="M22.582,60.274"/>
			</g>
		</g>
		<line fill="none" stroke="#939598" x1="9.722" y1="77.92" x2="9.722" y2="54.64"/>
		<line fill="none" stroke="#939598" x1="8.63" y1="77.889" x2="8.63" y2="54.64"/>
	</g>
	<g>
		<g>
			<rect x="6.048" y="102.139" fill="#FFFFFF" stroke="#939598" width="21.969" height="24.902"/>
			<path fill="#FFFFFF" stroke="#939598" d="M17.032,115.879"/>
		</g>
		<line fill="none" stroke="#939598" x1="26.481" y1="102.081" x2="26.481" y2="127.042"/>
		<rect x="28.032" y="122.946" fill="#FFFFFF" stroke="#939598" width="1.07" height="2.019"/>
		<path fill="#FFFFFF" stroke="#939598" d="M28.509,123.955"/>
	</g>
	<g>
		<g>
			<g>
				<polygon fill="none" stroke="#939598" stroke-width="0.7" points="36.981,93.326 36.294,94.577 27.7,89.368 28.388,88.117 				
					"/>
				<path fill="none" stroke="#939598" stroke-width="0.8" d="M31.646,90.396"/>
			</g>
			<path fill="none" stroke="#939598" stroke-width="0.8" d="M36.567,93.804c-1.941,3.202-5.395,4.926-8.889,4.811"/>
		</g>
	</g>
	<g>
		<g>
			<path fill="#FFFFFF" stroke="#939598" d="M67.872,77.324c0.006,0.426-0.333,0.775-0.76,0.781l-13.444,0.19
				c-0.426,0.006-0.776-0.335-0.782-0.761L52.564,54.73c-0.006-0.426,0.334-0.773,0.76-0.779l13.444-0.19
				c0.428-0.006,0.776,0.333,0.782,0.758L67.872,77.324z"/>
			<path fill="#FFFFFF" stroke="#939598" d="M60.801,66.101"/>
		</g>
		<g>
			<circle fill="#FFFFFF" stroke="#939598" cx="59.89" cy="66.114" r="0.871"/>
			<path fill="#FFFFFF" stroke="#939598" d="M59.891,66.115"/>
		</g>
		<g>
			<g>
				
					<rect x="65.357" y="62.217" transform="matrix(-0.9999 0.0145 -0.0145 -0.9999 133.4847 131.078)" fill="#FFFFFF" stroke="#939598" width="1.821" height="7.61"/>
				<path fill="#FFFFFF" stroke="#939598" d="M66.267,66.023"/>
			</g>
			<g>
				
					<rect x="61.82" y="65.671" transform="matrix(-0.9999 0.0144 -0.0144 -0.9999 128.1733 131.1937)" fill="#FFFFFF" stroke="#939598" width="3.586" height="0.777"/>
				<path fill="#FFFFFF" stroke="#939598" d="M63.842,66.058"/>
			</g>
			<g>
				<circle fill="#FFFFFF" stroke="#939598" cx="66.249" cy="66.024" r="0.847"/>
				<path fill="#FFFFFF" stroke="#939598" d="M66.249,66.024"/>
			</g>
		</g>
		<g>
			<path fill="#FFFFFF" stroke="#939598" d="M59.891,66.115"/>
			<path fill="none" stroke="#939598" d="M64.734,66.517l0.135,9.586c0.006,0.447-0.351,0.816-0.798,0.822l-9.22,0.131
				c-0.445,0.006-0.814-0.353-0.82-0.8l-0.286-20.277c-0.006-0.446,0.352-0.814,0.797-0.821l9.22-0.131
				c0.447-0.006,0.815,0.353,0.821,0.8l0.137,9.726"/>
		</g>
	</g>
	<g>
		<polyline fill="none" stroke="#939598" stroke-dasharray="1.5,1,1.5,1,1.5,1" points="49.776,80.495 67.644,80.242 67.892,97.766 
			50.425,98.013 		"/>
		<polyline fill="#FFFFFF" stroke="#939598" points="50.426,98.041 49.363,98.055 49.115,80.504 49.77,80.495 		"/>
	</g>
	<line fill="none" stroke="#939598" x1="5.011" y1="87.718" x2="28.345" y2="87.718"/>
	<line fill="none" stroke="#939598" stroke-dasharray="1.5,1,1.5,1,1.5,1" x1="14.915" y1="101.191" x2="14.915" y2="111.358"/>
	<line fill="none" stroke="#939598" stroke-dasharray="1.5,1,1.5,1,1.5,1" x1="14.915" y1="24.025" x2="14.915" y2="87.191"/>
	<path fill="none" stroke="#939598" stroke-dasharray="1.5,1,1.5,1,1.5,1" d="M14.915,117.358c0.333,0.667,0,13,0,13"/>
	
		<line fill="none" stroke="#939598" stroke-dasharray="1.5,1.5,1.5,1.5,1.5,1.5" x1="236.625" y1="124.858" x2="236.625" y2="203.192"/>
	<line fill="none" stroke="#A7A9AC" x1="15.748" y1="25.789" x2="216.332" y2="25.789"/>
	<g>
		<rect x="173.082" y="18.461" fill="none" stroke="#939598" stroke-width="0.7" width="38.75" height="1.014"/>
		<rect x="149.197" y="19.61" fill="none" stroke="#939598" stroke-width="0.7" width="32.635" height="1.187"/>
	</g>
	<g>
		<rect x="226.062" y="8.629" fill="none" stroke="#939598" width="2.875" height="2.875"/>
		<line fill="none" stroke="#939598" x1="143.332" y1="10.754" x2="226.062" y2="10.754"/>
		<line fill="none" stroke="#939598" x1="226.082" y1="11.504" x2="226.082" y2="17.149"/>
		<line fill="none" stroke="#939598" x1="228.937" y1="11.504" x2="228.937" y2="17.399"/>
		<line fill="none" stroke="#939598" x1="226.062" y1="8.629" x2="144.582" y2="8.629"/>
	</g>
</g>
<g id="walls">
	<polyline fill="none" stroke="#939598" stroke-width="5" points="90.457,19.608 2.505,19.608 2.916,208.358 11.582,208.358 	"/>
	<polyline fill="none" stroke="#939598" stroke-width="5" points="34.998,208.358 247.792,208.358 247.792,122.858 236.75,122.858 
		236.787,19.608 211.707,19.608 	"/>
	<polyline fill="none" stroke="#939598" stroke-width="3" points="4.082,168.108 25.332,168.108 25.332,159.108 	"/>
	<polyline fill="none" stroke="#939598" stroke-width="3" points="4.082,129.483 25.332,129.483 25.332,136.295 	"/>
	<line fill="none" stroke="#939598" stroke-width="3" x1="218.567" y1="190.942" x2="218.567" y2="205.942"/>
	<polyline fill="none" stroke="#939598" stroke-width="3" points="121.832,205.858 121.832,129.51 57.832,129.51 57.832,137.087 	
		"/>
	<path fill="none" stroke="#939598" stroke-width="3" d="M57.832,205.858c0-0.445,0-24.627,0-46.375"/>
	<polyline fill="none" stroke="#939598" stroke-width="3" points="58.582,181.534 68.582,181.534 68.582,205.858 	"/>
	<polyline fill="none" stroke="#939598" stroke-width="3" points="121.832,181.772 117.33,181.858 117.33,205.858 	"/>
	<polyline fill="none" stroke="#939598" stroke-width="3" points="234.916,24.815 215.962,24.815 215.962,20.108 	"/>
	<polygon fill="none" stroke="#939598" stroke-width="3" points="90.452,7.483 90.452,24.815 143.042,24.815 143.042,7.559 	"/>
	<polyline fill="none" stroke="#939598" stroke-width="3" points="4.332,24.815 17.546,24.815 17.546,18.858 	"/>
	<polyline fill="none" stroke="#939598" stroke-width="3" points="219.279,137.483 219.279,123.858 234.707,123.858 	"/>
	<line fill="none" stroke="#939598" stroke-width="5" x1="149.957" y1="20.233" x2="143.957" y2="20.233"/>
</g>
<g id="Type">
	<g enable-background="new    ">
		<path fill="#939598" d="M231.197,155.501v-0.455l4.098-1.345l-4.082-1.401v-0.58l4.938,1.75v0.47l-3.979,1.345l3.979,1.352v0.463
			l-4.938,1.75v-0.602l4.082-1.401L231.197,155.501z"/>
		<path fill="#939598" d="M230.525,148.516l6.486,3.25v0.497l-6.486-3.25V148.516z"/>
		<path fill="#939598" d="M236.115,146.164v1.702h-4.902v-1.702c0-1.54,1.057-2.604,2.443-2.604S236.115,144.624,236.115,146.164z
			 M231.722,146.164v1.149h3.881v-1.149c0-1.239-0.84-2.03-1.934-2.03C232.578,144.134,231.722,144.925,231.722,146.164z"/>
	</g>
	<g enable-background="new    ">
		<path fill="#939598" d="M23.338,156.466c0,1.414-1.113,2.459-2.528,2.459c-1.4,0-2.542-1.037-2.542-2.48
			c0-0.889,0.314-1.422,0.777-1.912l0.406,0.379c-0.393,0.413-0.673,0.875-0.673,1.541c0,1.086,0.876,1.897,2.018,1.897
			s2.031-0.819,2.031-1.897c0-0.673-0.26-1.113-0.708-1.583l0.357-0.364C22.995,155.017,23.338,155.576,23.338,156.466z"/>
		<path fill="#939598" d="M23.254,153.583h-5.112v-0.539h5.112V153.583z"/>
		<path fill="#939598" d="M23.338,150.138c0,1.086-0.854,1.877-1.884,1.877s-1.898-0.798-1.898-1.891
			c0-1.086,0.854-1.884,1.884-1.884C22.47,148.24,23.338,149.046,23.338,150.138z M20.032,150.138c0,0.785,0.623,1.324,1.407,1.324
			c0.785,0,1.415-0.574,1.415-1.338c0-0.784-0.623-1.33-1.4-1.33C20.662,148.794,20.032,149.375,20.032,150.138z"/>
		<path fill="#939598" d="M23.324,146.072c0,0.519-0.203,1.093-0.532,1.499l-0.386-0.272c0.294-0.393,0.463-0.827,0.463-1.254
			c0-0.435-0.225-0.75-0.575-0.75H22.28c-0.364,0-0.504,0.428-0.638,0.904c-0.16,0.566-0.356,1.197-1.022,1.197h-0.014
			c-0.623,0-1.036-0.519-1.036-1.232c0-0.441,0.153-0.932,0.398-1.303l0.406,0.244c-0.217,0.337-0.35,0.723-0.35,1.072
			c0,0.428,0.224,0.7,0.525,0.7h0.014c0.343,0,0.477-0.448,0.623-0.932c0.168-0.56,0.386-1.163,1.037-1.163h0.014
			C22.925,144.782,23.324,145.351,23.324,146.072z"/>
		<path fill="#939598" d="M22.869,142.187c0-0.497-0.203-0.848-0.512-1.142l0.301-0.336c0.406,0.364,0.68,0.806,0.68,1.491
			c0,0.995-0.764,1.807-1.891,1.807c-1.051,0-1.892-0.734-1.892-1.736c0-1.071,0.854-1.688,1.919-1.688c0.05,0,0.105,0,0.168,0.007
			v2.872C22.428,143.384,22.869,142.823,22.869,142.187z M21.244,141.129c-0.658,0.056-1.233,0.435-1.233,1.155
			c0,0.631,0.525,1.107,1.233,1.178V141.129z"/>
		<path fill="#939598" d="M22.225,138.911c0.441,0,0.603-0.245,0.603-0.609c0-0.182-0.035-0.336-0.127-0.525h0.463
			c0.098,0.189,0.154,0.393,0.154,0.651c0,0.581-0.288,1.022-1.023,1.022h-2.185v0.504h-0.477v-0.504H18.54v-0.539h1.093v-1.148
			h0.477v1.148H22.225z"/>
	</g>
	<g enable-background="new    ">
		<path fill="#939598" d="M77.001,160.68c0,0.828-0.504,1.252-0.999,1.468c0.747,0.225,1.35,0.657,1.35,1.53
			c0,1.089-0.909,1.729-2.287,1.729h-2.8v-6.302h2.683C76.191,159.105,77.001,159.717,77.001,160.68z M76.281,160.78
			c0-0.631-0.495-1.036-1.395-1.036h-1.918v2.17h1.864C75.687,161.913,76.281,161.527,76.281,160.78z M76.632,163.633
			c0-0.693-0.576-1.09-1.675-1.09h-1.99v2.224h2.116C76.038,164.767,76.632,164.344,76.632,163.633z"/>
		<path fill="#939598" d="M78.917,161.644l-0.207-0.567c0.513-0.234,1.017-0.388,1.692-0.388c1.27,0,1.98,0.648,1.98,1.873v2.845
			h-0.666v-0.702c-0.324,0.423-0.864,0.801-1.684,0.801c-0.864,0-1.737-0.485-1.737-1.458c0-0.99,0.81-1.513,1.989-1.513
			c0.594,0,1.018,0.081,1.432,0.198v-0.162c0-0.837-0.513-1.27-1.387-1.27C79.781,161.301,79.349,161.446,78.917,161.644z
			 M78.998,164.02c0,0.595,0.54,0.937,1.17,0.937c0.855,0,1.557-0.522,1.557-1.261v-0.449c-0.342-0.1-0.801-0.198-1.368-0.198
			C79.484,163.048,78.998,163.426,78.998,164.02z"/>
		<path fill="#939598" d="M84.75,164.083c0,0.567,0.315,0.774,0.783,0.774c0.234,0,0.432-0.045,0.675-0.162v0.594
			c-0.243,0.126-0.504,0.198-0.837,0.198c-0.747,0-1.314-0.369-1.314-1.314v-2.809h-0.648v-0.612h0.648v-1.404h0.693v1.404h1.477
			v0.612H84.75V164.083z"/>
		<path fill="#939598" d="M88.143,165.406H87.45v-6.572h0.693v2.729c0.306-0.505,0.792-0.91,1.594-0.91
			c1.125,0,1.782,0.757,1.782,1.864v2.89h-0.693v-2.719c0-0.864-0.468-1.404-1.288-1.404c-0.801,0-1.396,0.585-1.396,1.458V165.406z
			"/>
	</g>
	<g enable-background="new    ">
		<path fill="#939598" d="M18.882,203.467h-2.991v1.674h2.675v0.505h-2.675v1.716h3.026v0.504h-3.579v-4.902h3.544V203.467z"/>
		<path fill="#939598" d="M20.476,207.865h-0.539v-3.621h0.539v0.631c0.238-0.393,0.616-0.708,1.24-0.708
			c0.875,0,1.387,0.589,1.387,1.45v2.248h-0.54v-2.115c0-0.672-0.364-1.093-1.001-1.093c-0.623,0-1.085,0.455-1.085,1.135V207.865z"
			/>
		<path fill="#939598" d="M24.977,206.836c0,0.441,0.245,0.603,0.609,0.603c0.182,0,0.336-0.035,0.525-0.127v0.463
			c-0.189,0.098-0.392,0.154-0.651,0.154c-0.582,0-1.022-0.288-1.022-1.023v-2.185h-0.504v-0.477h0.504v-1.093h0.539v1.093h1.149
			v0.477h-1.149V206.836z"/>
		<path fill="#939598" d="M27.616,207.865h-0.539v-3.621h0.539v0.945c0.266-0.602,0.792-1.036,1.478-1.008v0.581h-0.042
			c-0.791,0-1.436,0.567-1.436,1.66V207.865z"/>
		<path fill="#939598" d="M31.677,207.985c-0.308,0.749-0.658,1.022-1.205,1.022c-0.301,0-0.525-0.063-0.771-0.182l0.182-0.428
			c0.175,0.091,0.336,0.133,0.567,0.133c0.322,0,0.525-0.168,0.742-0.679l-1.646-3.607h0.595l1.317,3.019l1.163-3.019h0.574
			L31.677,207.985z"/>
	</g>
	<g enable-background="new    ">
		<path fill="#939598" d="M13.174,94.765h-0.952v1.383H11.78v-3.92h1.467c0.885,0,1.467,0.471,1.467,1.249
			C14.714,94.327,14.009,94.765,13.174,94.765z M13.213,92.637h-0.991v1.725h0.969c0.649,0,1.075-0.348,1.075-0.868
			C14.267,92.928,13.846,92.637,13.213,92.637z"/>
		<path fill="#939598" d="M15.56,93.807l-0.128-0.353c0.319-0.146,0.633-0.241,1.053-0.241c0.79,0,1.232,0.403,1.232,1.165v1.77
			h-0.415v-0.437c-0.202,0.263-0.538,0.498-1.047,0.498c-0.537,0-1.081-0.303-1.081-0.907c0-0.616,0.504-0.94,1.238-0.94
			c0.37,0,0.633,0.05,0.89,0.123v-0.101c0-0.521-0.319-0.79-0.862-0.79C16.097,93.594,15.829,93.684,15.56,93.807z M15.61,95.285
			c0,0.369,0.336,0.582,0.728,0.582c0.532,0,0.969-0.324,0.969-0.784v-0.279c-0.213-0.062-0.499-0.123-0.852-0.123
			C15.913,94.681,15.61,94.915,15.61,95.285z"/>
		<path fill="#939598" d="M19.065,96.148h-0.431v-2.896h0.431v0.504c0.19-0.313,0.493-0.565,0.991-0.565
			c0.7,0,1.109,0.471,1.109,1.159v1.798h-0.431v-1.691c0-0.537-0.291-0.873-0.801-0.873c-0.499,0-0.868,0.363-0.868,0.907V96.148z"
			/>
		<path fill="#939598" d="M22.666,95.324c0,0.353,0.196,0.481,0.487,0.481c0.146,0,0.269-0.027,0.42-0.101v0.369
			c-0.151,0.079-0.313,0.124-0.521,0.124c-0.464,0-0.817-0.23-0.817-0.818v-1.747h-0.403v-0.381h0.403v-0.873h0.431v0.873h0.918
			v0.381h-0.918V95.324z"/>
		<path fill="#939598" d="M24.777,96.148h-0.431v-2.896h0.431v0.756c0.213-0.481,0.633-0.828,1.182-0.806v0.465h-0.033
			c-0.633,0-1.148,0.453-1.148,1.327V96.148z"/>
		<path fill="#939598" d="M28.025,96.242c-0.246,0.6-0.526,0.818-0.963,0.818c-0.241,0-0.42-0.051-0.616-0.146l0.146-0.342
			c0.14,0.072,0.269,0.106,0.454,0.106c0.258,0,0.42-0.135,0.594-0.543l-1.316-2.885h0.476l1.053,2.414l0.93-2.414h0.459
			L28.025,96.242z"/>
	</g>
	<g enable-background="new    ">
		<path fill="#939598" d="M55.724,91.92h-1.702v-4.902h1.702c1.541,0,2.605,1.058,2.605,2.444S57.265,91.92,55.724,91.92z
			 M55.724,87.529h-1.149v3.88h1.149c1.239,0,2.031-0.84,2.031-1.933S56.963,87.529,55.724,87.529z"/>
		<path fill="#939598" d="M62.214,87.003h0.455l1.345,4.098l1.401-4.083h0.581l-1.751,4.938h-0.469l-1.345-3.979l-1.352,3.979
			h-0.462l-1.751-4.938h0.603l1.401,4.083L62.214,87.003z"/>
	</g>
	<g enable-background="new    ">
		<path fill="#939598" d="M12.898,116.758l-1.422-1.905h-1.401v1.905H9.522v-4.902h2.108c1.078,0,1.771,0.581,1.771,1.464
			c0,0.819-0.56,1.295-1.331,1.436l1.506,2.003H12.898z M11.588,112.366h-1.513v1.989h1.506c0.735,0,1.261-0.378,1.261-1.016
			C12.842,112.731,12.379,112.366,11.588,112.366z"/>
		<path fill="#939598" d="M16.019,116.373c0.497,0,0.848-0.203,1.142-0.512l0.336,0.301c-0.364,0.406-0.805,0.68-1.492,0.68
			c-0.995,0-1.807-0.764-1.807-1.891c0-1.051,0.735-1.892,1.737-1.892c1.071,0,1.688,0.854,1.688,1.919c0,0.05,0,0.105-0.007,0.168
			h-2.872C14.821,115.932,15.381,116.373,16.019,116.373z M17.076,114.748c-0.056-0.658-0.434-1.233-1.156-1.233
			c-0.63,0-1.106,0.525-1.177,1.233H17.076z"/>
		<path fill="#939598" d="M20.45,113.151v0.463h-1.142v3.145h-0.539v-3.145h-0.498v-0.47h0.498v-0.314
			c0-0.792,0.399-1.212,1.092-1.212c0.252,0,0.42,0.028,0.595,0.091v0.47c-0.196-0.057-0.343-0.092-0.525-0.092
			c-0.42,0-0.63,0.253-0.63,0.771v0.294H20.45z"/>
	</g>
	<g enable-background="new    ">
		<path fill="#939598" d="M229.753,189.175c0,1.414-1.113,2.459-2.527,2.459c-1.4,0-2.543-1.037-2.543-2.48
			c0-0.889,0.314-1.422,0.777-1.912l0.406,0.379c-0.393,0.413-0.672,0.875-0.672,1.541c0,1.086,0.875,1.897,2.018,1.897
			c1.141,0,2.031-0.819,2.031-1.897c0-0.673-0.26-1.113-0.709-1.583l0.357-0.364C229.412,187.726,229.753,188.285,229.753,189.175z"
			/>
		<path fill="#939598" d="M229.669,186.292h-5.111v-0.539h5.111V186.292z"/>
		<path fill="#939598" d="M229.753,182.847c0,1.086-0.854,1.877-1.883,1.877s-1.898-0.798-1.898-1.891
			c0-1.086,0.854-1.884,1.883-1.884C228.886,180.949,229.753,181.755,229.753,182.847z M226.449,182.847
			c0,0.785,0.623,1.324,1.406,1.324c0.785,0,1.416-0.574,1.416-1.338c0-0.784-0.623-1.33-1.4-1.33
			C227.078,181.503,226.449,182.084,226.449,182.847z"/>
		<path fill="#939598" d="M229.74,178.781c0,0.519-0.203,1.093-0.531,1.499l-0.387-0.272c0.295-0.393,0.463-0.827,0.463-1.254
			c0-0.435-0.225-0.75-0.574-0.75h-0.014c-0.365,0-0.504,0.428-0.639,0.904c-0.16,0.566-0.355,1.197-1.021,1.197h-0.014
			c-0.623,0-1.037-0.519-1.037-1.232c0-0.441,0.154-0.932,0.398-1.303l0.406,0.244c-0.217,0.337-0.35,0.723-0.35,1.072
			c0,0.428,0.225,0.7,0.525,0.7h0.014c0.344,0,0.477-0.448,0.623-0.932c0.168-0.56,0.387-1.163,1.037-1.163h0.014
			C229.341,177.491,229.74,178.06,229.74,178.781z"/>
		<path fill="#939598" d="M229.285,174.896c0-0.497-0.203-0.848-0.512-1.142l0.301-0.336c0.406,0.364,0.68,0.806,0.68,1.491
			c0,0.995-0.764,1.807-1.891,1.807c-1.051,0-1.891-0.734-1.891-1.736c0-1.071,0.854-1.688,1.918-1.688c0.051,0,0.105,0,0.168,0.007
			v2.872C228.843,176.093,229.285,175.532,229.285,174.896z M227.66,173.838c-0.658,0.056-1.232,0.435-1.232,1.155
			c0,0.631,0.525,1.107,1.232,1.178V173.838z"/>
		<path fill="#939598" d="M228.64,171.62c0.441,0,0.604-0.245,0.604-0.609c0-0.182-0.035-0.336-0.127-0.525h0.463
			c0.098,0.189,0.154,0.393,0.154,0.651c0,0.581-0.289,1.022-1.023,1.022h-2.186v0.504h-0.477v-0.504h-1.092v-0.539h1.092v-1.148
			h0.477v1.148H228.64z"/>
	</g>
	<g enable-background="new    ">
		<path fill="#939598" d="M52.184,115.652h-0.891l-2.422-3.052l-1.341,1.359v1.692h-0.711v-6.302h0.711v3.763l3.619-3.763h0.918
			l-2.701,2.755L52.184,115.652z"/>
		<path fill="#939598" d="M53.19,109.98v-0.765h0.792v0.765H53.19z M53.235,115.652v-4.654h0.693v4.654H53.235z"/>
		<path fill="#939598" d="M56.476,114.328c0,0.567,0.315,0.774,0.783,0.774c0.234,0,0.432-0.045,0.675-0.162v0.594
			c-0.243,0.126-0.504,0.198-0.837,0.198c-0.747,0-1.314-0.369-1.314-1.314v-2.809h-0.648v-0.612h0.648v-1.404h0.693v1.404h1.477
			v0.612h-1.477V114.328z"/>
		<path fill="#939598" d="M61.139,115.76c-1.359,0-2.386-1.107-2.386-2.422c0-1.323,1.026-2.44,2.386-2.44
			c0.882,0,1.431,0.369,1.863,0.829l-0.459,0.485c-0.369-0.387-0.783-0.702-1.414-0.702c-0.945,0-1.666,0.802-1.666,1.81
			c0,1.018,0.738,1.819,1.71,1.819c0.594,0,1.053-0.298,1.422-0.693l0.441,0.414C62.57,115.381,62.012,115.76,61.139,115.76z"/>
		<path fill="#939598" d="M64.873,115.652H64.18v-6.572h0.693v2.729c0.306-0.505,0.792-0.91,1.594-0.91
			c1.125,0,1.782,0.757,1.782,1.864v2.89h-0.693v-2.719c0-0.864-0.468-1.404-1.288-1.404c-0.801,0-1.396,0.585-1.396,1.458V115.652z
			"/>
		<path fill="#939598" d="M71.776,115.156c0.639,0,1.089-0.261,1.468-0.657l0.432,0.387c-0.468,0.522-1.036,0.874-1.918,0.874
			c-1.278,0-2.322-0.981-2.322-2.431c0-1.351,0.945-2.432,2.232-2.432c1.377,0,2.17,1.099,2.17,2.467c0,0.063,0,0.136-0.009,0.217
			h-3.691C70.237,114.589,70.958,115.156,71.776,115.156z M73.136,113.068c-0.072-0.846-0.558-1.584-1.485-1.584
			c-0.81,0-1.422,0.675-1.512,1.584H73.136z"/>
		<path fill="#939598" d="M75.745,115.652h-0.693v-4.654h0.693v0.811c0.306-0.505,0.792-0.91,1.594-0.91
			c1.125,0,1.782,0.757,1.782,1.864v2.89h-0.693v-2.719c0-0.864-0.468-1.404-1.288-1.404c-0.801,0-1.396,0.585-1.396,1.458V115.652z
			"/>
	</g>
	<g enable-background="new    ">
		<path fill="#939598" d="M156.98,72.831c1.404,0.307,2.053,0.819,2.053,1.792c0,1.089-0.9,1.791-2.151,1.791
			c-0.999,0-1.818-0.333-2.575-1.008l0.441-0.522c0.658,0.594,1.287,0.892,2.161,0.892c0.847,0,1.404-0.441,1.404-1.081
			c0-0.594-0.315-0.927-1.639-1.206c-1.449-0.315-2.116-0.783-2.116-1.827c0-1.009,0.874-1.729,2.071-1.729
			c0.919,0,1.575,0.261,2.215,0.774l-0.414,0.549c-0.585-0.478-1.171-0.685-1.819-0.685c-0.818,0-1.341,0.45-1.341,1.026
			C155.27,72.201,155.594,72.534,156.98,72.831z"/>
		<path fill="#939598" d="M161.255,75.001c0,0.567,0.315,0.774,0.783,0.774c0.234,0,0.433-0.045,0.676-0.162v0.594
			c-0.243,0.126-0.504,0.198-0.838,0.198c-0.746,0-1.314-0.369-1.314-1.314v-2.809h-0.647V71.67h0.647v-1.404h0.693v1.404h1.477
			v0.612h-1.477V75.001z"/>
		<path fill="#939598" d="M167.259,71.67h0.685v4.654h-0.685v-0.811c-0.314,0.505-0.791,0.909-1.593,0.909
			c-1.126,0-1.782-0.756-1.782-1.863v-2.89h0.693v2.719c0,0.864,0.468,1.404,1.287,1.404c0.792,0,1.395-0.585,1.395-1.458V71.67z"/>
		<path fill="#939598" d="M173.236,76.324v-0.937c-0.378,0.559-0.928,1.035-1.782,1.035c-1.116,0-2.224-0.882-2.224-2.421
			c0-1.531,1.107-2.432,2.224-2.432c0.864,0,1.423,0.469,1.782,0.991v-2.81h0.693v6.572H173.236z M171.58,72.193
			c-0.9,0-1.639,0.666-1.639,1.8c0,1.107,0.756,1.81,1.639,1.81c0.864,0,1.684-0.72,1.684-1.81
			C173.263,72.912,172.444,72.193,171.58,72.193z"/>
		<path fill="#939598" d="M175.494,70.653v-0.765h0.793v0.765H175.494z M175.539,76.324V71.67h0.693v4.654H175.539z"/>
		<path fill="#939598" d="M179.967,76.433c-1.396,0-2.413-1.099-2.413-2.422s1.026-2.44,2.432-2.44c1.395,0,2.421,1.099,2.421,2.422
			C182.407,75.317,181.372,76.433,179.967,76.433z M179.967,72.183c-1.009,0-1.702,0.802-1.702,1.81
			c0,1.009,0.738,1.819,1.721,1.819c1.008,0,1.71-0.802,1.71-1.801C181.696,72.993,180.949,72.183,179.967,72.183z"/>
	</g>
	<g enable-background="new    ">
		<path fill="#939598" d="M140.766,82.652l-0.522-0.378c0.567-0.846,1.162-1.341,2.27-1.341c1.143,0,1.953,0.756,1.953,1.791
			c0,0.928-0.486,1.495-1.594,2.458l-1.684,1.494h3.34v0.648h-4.402v-0.549l2.287-2.017c0.963-0.864,1.314-1.351,1.314-1.98
			c0-0.738-0.585-1.207-1.27-1.207C141.738,81.572,141.271,81.949,140.766,82.652z"/>
		<path fill="#939598" d="M146.158,81.023h3.627v0.657h-3.006l-0.135,2.017c0.369-0.162,0.72-0.279,1.242-0.279
			c1.225,0,2.178,0.729,2.178,1.936c0,1.242-0.936,2.08-2.25,2.08c-0.9,0-1.684-0.433-2.251-1l0.468-0.513
			c0.55,0.531,1.152,0.864,1.792,0.864c0.9,0,1.521-0.595,1.521-1.404c0-0.792-0.64-1.333-1.566-1.333
			c-0.531,0-0.954,0.162-1.323,0.36l-0.478-0.315L146.158,81.023z"/>
		<path fill="#939598" d="M151.449,81.023h0.847v0.045l-0.729,2.403h-0.387L151.449,81.023z"/>
		<path fill="#939598" d="M157.417,82.184c-0.469-0.396-0.91-0.621-1.486-0.621c-1.143,0-1.854,1.152-1.845,2.782
			c0.342-0.505,0.873-0.964,1.792-0.964c1.179,0,2.178,0.757,2.178,1.944c0,1.225-0.98,2.107-2.26,2.107
			c-0.693,0-1.26-0.243-1.656-0.64c-0.504-0.504-0.792-1.152-0.792-2.448c0-1.927,0.972-3.431,2.62-3.431
			c0.756,0,1.314,0.271,1.863,0.721L157.417,82.184z M155.788,83.993c-0.945,0-1.575,0.675-1.575,1.387
			c0,0.819,0.666,1.422,1.594,1.422c0.927,0,1.521-0.639,1.521-1.449C157.328,84.57,156.697,83.993,155.788,83.993z"/>
		<path fill="#939598" d="M159.477,81.023h0.837v0.045l-0.729,2.403h-0.379L159.477,81.023z M161.242,81.023h0.828v0.045
			l-0.729,2.403h-0.378L161.242,81.023z"/>
		<path fill="#939598" d="M170.097,87.324h-0.801l-1.44-1.899l-1.449,1.899h-0.774l1.828-2.368l-1.756-2.286h0.792l1.378,1.801
			l1.377-1.801h0.774l-1.765,2.269L170.097,87.324z"/>
		<path fill="#939598" d="M174.218,82.652l-0.521-0.378c0.566-0.846,1.161-1.341,2.269-1.341c1.144,0,1.954,0.756,1.954,1.791
			c0,0.928-0.486,1.495-1.594,2.458l-1.684,1.494h3.34v0.648h-4.402v-0.549l2.287-2.017c0.963-0.864,1.314-1.351,1.314-1.98
			c0-0.738-0.586-1.207-1.27-1.207C175.191,81.572,174.723,81.949,174.218,82.652z"/>
		<path fill="#939598" d="M180.33,80.978h0.521v6.347h-0.701v-5.608l-1.188,0.369l-0.171-0.576L180.33,80.978z"/>
		<path fill="#939598" d="M182.616,81.023h0.847v0.045l-0.73,2.403h-0.387L182.616,81.023z"/>
		<path fill="#939598" d="M187.179,87.433c-1.63,0-2.656-1.477-2.656-3.25s1.045-3.269,2.674-3.269c1.621,0,2.646,1.477,2.646,3.25
			S188.799,87.433,187.179,87.433z M187.179,81.563c-1.18,0-1.918,1.206-1.918,2.602s0.756,2.62,1.936,2.62s1.908-1.216,1.908-2.602
			C189.105,82.796,188.358,81.563,187.179,81.563z"/>
		<path fill="#939598" d="M191.255,81.023h0.837v0.045l-0.729,2.403h-0.378L191.255,81.023z M193.019,81.023h0.829v0.045
			l-0.729,2.403h-0.378L193.019,81.023z"/>
	</g>
	<g enable-background="new    ">
		<path fill="#939598" d="M162.392,6.02c-0.736,0-1.205-0.364-1.514-0.869l0.399-0.343c0.302,0.455,0.609,0.7,1.12,0.7
			c0.554,0,0.96-0.399,0.96-1.177V1.047h0.561v3.277C163.918,5.452,163.267,6.02,162.392,6.02z"/>
		<path fill="#939598" d="M167.706,2.328h0.532v3.621h-0.532V5.32c-0.245,0.392-0.616,0.707-1.239,0.707
			c-0.876,0-1.387-0.589-1.387-1.45V2.328h0.539v2.115c0,0.673,0.363,1.093,1.001,1.093c0.616,0,1.086-0.455,1.086-1.135V2.328z"/>
		<path fill="#939598" d="M169.496,5.949V0.837h0.539v5.112H169.496z"/>
		<path fill="#939598" d="M171.302,1.537V0.942h0.616v0.596H171.302z M171.337,5.949V2.328h0.539v3.621H171.337z"/>
		<path fill="#939598" d="M174.726,5.565c0.496,0,0.848-0.203,1.141-0.512l0.336,0.301c-0.363,0.406-0.805,0.68-1.491,0.68
			c-0.995,0-1.807-0.764-1.807-1.891c0-1.051,0.735-1.892,1.737-1.892c1.07,0,1.688,0.854,1.688,1.919c0,0.05,0,0.105-0.008,0.168
			h-2.871C173.528,5.123,174.088,5.565,174.726,5.565z M175.783,3.94c-0.056-0.658-0.434-1.233-1.155-1.233
			c-0.63,0-1.106,0.525-1.177,1.233H175.783z"/>
		<path fill="#939598" d="M178.001,4.92c0,0.441,0.244,0.603,0.609,0.603c0.182,0,0.336-0.035,0.525-0.127v0.463
			c-0.189,0.098-0.393,0.154-0.652,0.154c-0.581,0-1.021-0.288-1.021-1.023V2.805h-0.505V2.328h0.505V1.236h0.539v1.093h1.148v0.477
			h-1.148V4.92z"/>
		<path fill="#939598" d="M185.976,2.273c0,0.645-0.393,0.974-0.777,1.142c0.58,0.175,1.05,0.511,1.05,1.19
			c0,0.848-0.707,1.345-1.778,1.345h-2.179V1.047h2.087C185.345,1.047,185.976,1.523,185.976,2.273z M185.416,2.35
			c0-0.49-0.386-0.806-1.086-0.806h-1.492v1.688h1.45C184.953,3.232,185.416,2.931,185.416,2.35z M185.689,4.57
			c0-0.539-0.449-0.848-1.303-0.848h-1.549v1.73h1.646C185.226,5.452,185.689,5.123,185.689,4.57z"/>
		<path fill="#939598" d="M187.464,3.022l-0.161-0.441c0.399-0.182,0.792-0.301,1.317-0.301c0.986,0,1.54,0.504,1.54,1.457v2.213
			h-0.519V5.404c-0.252,0.329-0.672,0.623-1.31,0.623c-0.672,0-1.352-0.378-1.352-1.135c0-0.771,0.63-1.177,1.548-1.177
			c0.463,0,0.791,0.063,1.113,0.154V3.743c0-0.651-0.398-0.987-1.078-0.987C188.136,2.756,187.8,2.867,187.464,3.022z
			 M187.527,4.871c0,0.462,0.421,0.728,0.911,0.728c0.665,0,1.212-0.406,1.212-0.98v-0.35c-0.267-0.077-0.623-0.154-1.064-0.154
			C187.906,4.115,187.527,4.408,187.527,4.871z"/>
		<path fill="#939598" d="M191.357,5.949V0.837h0.539v5.112H191.357z"/>
		<path fill="#939598" d="M194.781,6.033c-1.059,0-1.856-0.861-1.856-1.884c0-1.029,0.798-1.898,1.856-1.898
			c0.686,0,1.113,0.287,1.449,0.645l-0.357,0.378c-0.287-0.301-0.609-0.546-1.1-0.546c-0.735,0-1.295,0.623-1.295,1.407
			c0,0.792,0.574,1.415,1.33,1.415c0.463,0,0.819-0.23,1.106-0.539l0.343,0.322C195.894,5.74,195.459,6.033,194.781,6.033z"/>
		<path fill="#939598" d="M198.694,6.033c-1.086,0-1.877-0.854-1.877-1.884s0.798-1.898,1.891-1.898
			c1.086,0,1.884,0.854,1.884,1.884C200.591,5.165,199.787,6.033,198.694,6.033z M198.694,2.728c-0.784,0-1.323,0.623-1.323,1.407
			c0,0.785,0.574,1.415,1.337,1.415c0.784,0,1.331-0.623,1.331-1.4C200.039,3.358,199.457,2.728,198.694,2.728z"/>
		<path fill="#939598" d="M202.102,5.949h-0.539V2.328h0.539v0.631c0.238-0.393,0.616-0.708,1.239-0.708
			c0.876,0,1.387,0.589,1.387,1.45v2.248h-0.539V3.834c0-0.672-0.363-1.093-1.002-1.093c-0.623,0-1.085,0.455-1.085,1.135V5.949z"/>
		<path fill="#939598" d="M207.536,6.069c-0.308,0.749-0.658,1.022-1.204,1.022c-0.302,0-0.525-0.063-0.771-0.182l0.183-0.428
			c0.175,0.091,0.337,0.133,0.567,0.133c0.322,0,0.525-0.168,0.742-0.679l-1.646-3.607h0.595l1.317,3.019l1.163-3.019h0.574
			L207.536,6.069z"/>
	</g>
</g>
<g id="windows">
	<g>
		<g>
			<rect x="19.115" y="17.742" fill="#FFFFFF" stroke="#A7A9AC" width="69.562" height="3.674"/>
			<line fill="none" stroke="#A7A9AC" x1="88.677" y1="19.561" x2="18.365" y2="19.561"/>
			<line fill="none" stroke="#A7A9AC" stroke-width="2" x1="66.003" y1="21.574" x2="66.003" y2="18.08"/>
		</g>
		<line fill="none" stroke="#A7A9AC" stroke-width="2" x1="42.615" y1="21.699" x2="42.615" y2="18.098"/>
	</g>
</g>
</svg>
