<?xml version="1.0" encoding="utf-8"?>
<!-- Generator: Adobe Illustrator 15.0.2, SVG Export Plug-In . SVG Version: 6.00 Build 0)  -->
<!DOCTYPE svg PUBLIC "-//W3C//DTD SVG 1.1//EN" "http://www.w3.org/Graphics/SVG/1.1/DTD/svg11.dtd">
<svg version="1.1" id="Layer_1" xmlns="http://www.w3.org/2000/svg" xmlns:xlink="http://www.w3.org/1999/xlink" x="0px" y="0px"
	 width="500px" height="500px" viewBox="42.253 -151.551 500 500" enable-background="new 42.253 -151.551 500 500"
	 xml:space="preserve">
<g id="_x32_0_x25___PMS_2985_fill" display="none">
	<polygon display="inline" fill="#EBEEEF" points="237.925,-179.511 237.925,99.822 205.925,133.323 205.925,306.488 
		238.592,340.488 238.842,400.238 398.175,400.238 397.925,-180.178 	"/>
</g>
<g>
	<g id="_x32_0_x25__grey_fill">
		<rect x="107.801" y="147.444" fill="#D1D3D4" width="20.041" height="6.539"/>
		<rect x="153.923" y="18.145" fill="#D1D3D4" width="15.469" height="5.343"/>
		<rect x="47.826" y="17.864" fill="#D1D3D4" width="42.537" height="5.808"/>
		<rect x="232.812" y="18.566" fill="#D1D3D4" width="45.139" height="4.641"/>
		<rect x="422.507" y="18.707" fill="#D1D3D4" width="44.436" height="4.781"/>
		<rect x="340.808" y="18.707" fill="#D1D3D4" width="17.858" height="4.71"/>
		<rect x="528.253" y="17.02" fill="#D1D3D4" width="9" height="6.75"/>
		<polygon fill="#D1D3D4" points="471.161,166.639 471.161,150.327 485.505,150.327 		"/>
		<polyline fill="#D1D3D4" points="282.168,152.858 303.824,152.858 303.824,172.826 281.045,152.858 		"/>
	</g>
	<g id="icons">
		<g>
			<g>
				<rect x="108.73" y="107.338" fill="#FFFFFF" stroke="#939598" width="19.933" height="38.552"/>
				<path fill="#FFFFFF" stroke="#939598" d="M118.696,126.613"/>
				<path fill="#FFFFFF" stroke="#939598" d="M118.696,126.481"/>
				<path fill="#FFFFFF" stroke="#939598" d="M118.696,113.41"/>
			</g>
			<circle fill="#FFFFFF" stroke="#939598" cx="118.603" cy="116.124" r="0.818"/>
			<path fill="#FFFFFF" stroke="#939598" d="M118.636,143.688c5.713,0,7.804-1.317,7.804-3.166c0,0,0-27.706,0-28.159
				c0-0.451-0.122-1.384-1.316-1.384c-1.196,0-6.487,0-6.487,0h-0.014c0,0-5.291,0-6.487,0c-1.195,0-1.317,0.932-1.317,1.384
				c0,0.453,0,28.142,0,28.142l0.002,0.018C110.819,142.37,112.958,143.688,118.636,143.688z"/>
			<path fill="#FFFFFF" stroke="#939598" d="M120.316,109.546c-0.002,0.463,0.371,0.833,0.839,0.833c0.453,0,0.829-0.37,0.832-0.833
				c-0.003-0.46-0.379-0.841-0.832-0.841C120.688,108.705,120.314,109.081,120.316,109.546z"/>
			<path fill="#FFFFFF" stroke="#939598" d="M115.136,109.546c-0.005,0.463,0.375,0.833,0.835,0.833c0.459,0,0.836-0.37,0.836-0.833
				c0-0.46-0.377-0.841-0.836-0.834C115.51,108.705,115.136,109.086,115.136,109.546z"/>
			<path fill="#FFFFFF" stroke="#939598" d="M119.728,109.299c0-0.686-0.464-1.24-1.148-1.241c-0.684,0.001-1.058,0.556-1.058,1.241
				l0.44,4.718c0,0.464,1.249,0.464,1.249,0L119.728,109.299z"/>
		</g>
		<g>
			<g>
				<g>
					<rect x="513.532" y="110.158" fill="#FFFFFF" stroke="#939598" width="20.667" height="39.444"/>
					<path fill="#FFFFFF" stroke="#939598" d="M523.85,129.353"/>
				</g>
				<g>
					<polyline fill="#FFFFFF" stroke="#939598" points="523.648,111.361 515.388,111.361 515.388,148.12 532.343,148.12 
						532.343,111.361 524.41,111.361 					"/>
					<path fill="#FFFFFF" stroke="#939598" d="M523.85,129.353"/>
				</g>
				<line fill="none" stroke="#939598" x1="532.343" y1="111.361" x2="524.42" y2="128.573"/>
				<line fill="none" stroke="#939598" x1="523.249" y1="130.108" x2="515.388" y2="148.12"/>
				<line fill="none" stroke="#939598" x1="532.343" y1="148.12" x2="524.499" y2="130.198"/>
				<line fill="none" stroke="#939598" x1="523.229" y1="128.546" x2="515.388" y2="111.361"/>
				<g>
					<path fill="#FFFFFF" stroke="#939598" d="M522.965,129.353c0,0.506,0.495,0.914,0.885,0.914c0.388,0,0.822-0.408,0.822-0.914
						c0-0.505-0.435-0.915-0.822-0.915C523.46,128.438,522.965,128.848,522.965,129.353z"/>
					<path fill="#FFFFFF" stroke="#939598" d="M523.85,129.353"/>
				</g>
			</g>
			<path fill="#FFFFFF" stroke="#939598" d="M522.992,112.709c0,0.521,1.883,0.521,1.883,0c0-0.521-0.422-0.941-0.941-0.941
				C523.413,111.767,522.992,112.187,522.992,112.709z"/>
			<polyline fill="#FFFFFF" stroke="#939598" points="524.129,109.91 524.129,111.71 523.604,111.71 523.604,109.907 			"/>
		</g>
		<line fill="none" stroke="#939598" x1="90.646" y1="24.472" x2="528.956" y2="24.472"/>
		<polygon fill="#FFFFFF" stroke="#939598" points="200.626,135.581 174.752,135.581 174.752,151.329 200.907,151.329 		"/>
		<g>
			<path fill="#FFFFFF" stroke="#939598" stroke-miterlimit="10" d="M165.982,140.098c0-3.764-2.287-7.909-5.107-7.909
				c-2.819,0-5.097,4.146-5.097,7.909c0,3.766,2.277,5.726,5.097,5.726C163.695,145.824,165.982,143.864,165.982,140.098"/>
			<path fill="#FFFFFF" stroke="#939598" d="M165.982,140.098c0-3.764-2.287-7.909-5.107-7.909c-2.819,0-5.097,4.146-5.097,7.909
				c0,3.766,2.277,5.726,5.097,5.726C163.695,145.824,165.982,143.864,165.982,140.098z"/>
			<path fill="#FFFFFF" stroke="#939598" stroke-miterlimit="10" d="M157.818,144.59c0-0.211-0.173-0.384-0.384-0.384h-1.777
				c-0.211,0-0.385,0.173-0.385,0.384v0.065c0,0.211,0.174,0.384,0.385,0.384h1.777c0.211,0,0.384-0.173,0.384-0.384V144.59z"/>
			<path fill="#FFFFFF" stroke="#939598" d="M157.818,144.59c0-0.211-0.173-0.384-0.384-0.384h-1.777
				c-0.211,0-0.385,0.173-0.385,0.384v0.065c0,0.211,0.174,0.384,0.385,0.384h1.777c0.211,0,0.384-0.173,0.384-0.384V144.59z"/>
			<path fill="#FFFFFF" stroke="#939598" stroke-miterlimit="10" d="M155.002,145.05c-0.639,0-1.16,1.734-1.16,2.376
				c0,0.647,0.521,2.382,1.16,2.382h11.655c0.642,0,1.16-1.735,1.16-2.382c0-0.642-0.519-2.375-1.16-2.375L155.002,145.05z"/>
			<path fill="#FFFFFF" stroke="#939598" d="M155.002,145.05c-0.639,0-1.16,1.734-1.16,2.376c0,0.647,0.521,2.382,1.16,2.382h11.655
				c0.642,0,1.16-1.735,1.16-2.382c0-0.642-0.519-2.375-1.16-2.375L155.002,145.05z"/>
			<path fill="#FFFFFF" stroke="#939598" stroke-miterlimit="10" d="M164.629,139.942c0-2.767-1.681-5.816-3.754-5.816
				c-2.072,0-3.752,3.049-3.752,5.816s1.68,4.205,3.752,4.205C162.948,144.147,164.629,142.71,164.629,139.942"/>
			<path fill="#FFFFFF" stroke="#939598" d="M164.629,139.942c0-2.767-1.681-5.816-3.754-5.816c-2.072,0-3.752,3.049-3.752,5.816
				s1.68,4.205,3.752,4.205C162.948,144.147,164.629,142.71,164.629,139.942z"/>
		</g>
		<g>
			<g>
				<g>
					<path fill="none" stroke="#939598" d="M187.679,141.638"/>
				</g>
				<g>
					<path fill="none" stroke="#939598" d="M187.679,142.535"/>
				</g>
				<g>
					<circle fill="none" stroke="#939598" cx="187.679" cy="141.638" r="0.858"/>
					<path fill="none" stroke="#939598" d="M187.679,141.638"/>
				</g>
				<g>
					<g>
						<rect x="184.079" y="147.016" fill="none" stroke="#939598" width="7.217" height="1.793"/>
						<path fill="none" stroke="#939598" d="M187.679,147.914"/>
					</g>
					<g>
						<rect x="187.296" y="143.536" fill="none" stroke="#939598" width="0.765" height="3.401"/>
						<path fill="none" stroke="#939598" d="M187.679,145.528"/>
					</g>
					<g>
						<circle fill="none" stroke="#939598" cx="187.679" cy="147.896" r="0.833"/>
						<path fill="none" stroke="#939598" d="M187.679,147.896"/>
					</g>
				</g>
			</g>
			<g>
				<rect x="180.484" y="137.378" fill="none" stroke="#939598" width="14.407" height="11.706"/>
				<rect x="181.658" y="138.554" fill="none" stroke="#939598" width="12.027" height="8.42"/>
			</g>
		</g>
		<g>
			<polygon fill="none" stroke="#939598" points="168.768,89.72 168.778,88.312 148.683,88.299 148.672,89.727 			"/>
			<path fill="none" stroke="#939598" d="M148.656,89.055c0.376-11.063,9.525-19.729,20.589-19.351"/>
		</g>
		<g>
			<polygon fill="none" stroke="#939598" points="134.721,105.422 136.059,105.427 136.071,124.519 134.732,124.512 			"/>
			<path fill="none" stroke="#939598" d="M135.336,124.527c10.511-0.356,18.742-8.997,18.383-19.508"/>
		</g>
		<g>
			<polygon fill="none" stroke="#939598" points="66.723,105.758 68.061,105.765 68.074,124.856 66.734,124.848 			"/>
			<path fill="none" stroke="#939598" d="M67.338,124.863c10.512-0.356,18.743-8.997,18.384-19.508"/>
		</g>
		<g>
			<polygon fill="none" stroke="#939598" points="464.641,108.494 463.303,108.501 463.289,127.593 464.629,127.585 			"/>
			<path fill="none" stroke="#939598" d="M464.025,127.599c-10.511-0.356-18.742-8.997-18.383-19.508"/>
		</g>
		<g>
			<polygon fill="none" stroke="#939598" points="510.623,108.494 509.285,108.501 509.272,127.593 510.612,127.585 			"/>
			<path fill="none" stroke="#939598" d="M510.008,127.599c-10.511-0.356-18.742-8.997-18.383-19.508"/>
		</g>
		<g>
			<polygon fill="none" stroke="#939598" points="196.905,95.731 195.567,95.738 195.554,114.828 196.894,114.822 			"/>
			<path fill="none" stroke="#939598" d="M196.29,114.838c-10.511-0.357-18.742-8.998-18.383-19.508"/>
		</g>
		<g>
			<polygon fill="none" stroke="#939598" points="247.622,154.076 248.96,154.07 248.974,134.979 247.634,134.985 			"/>
			<path fill="none" stroke="#939598" d="M248.238,134.97c10.511,0.357,18.742,8.998,18.383,19.508"/>
		</g>
		<g>
			<polygon fill="none" stroke="#939598" points="308.158,152.923 309.496,152.916 309.511,133.825 308.171,133.832 			"/>
			<path fill="none" stroke="#939598" d="M308.774,133.818c10.511,0.356,18.742,8.997,18.383,19.508"/>
		</g>
		<g>
			<g>
				<polygon fill="none" stroke="#939598" points="220.767,106.432 220.771,108.037 238.382,108.052 238.376,106.441 				"/>
				<path fill="none" stroke="#939598" d="M238.39,107c-0.328,9.695-8.299,17.286-17.993,16.956"/>
			</g>
			<g>
				<polygon fill="none" stroke="#939598" points="220.767,141.569 220.771,139.965 238.382,139.95 238.376,141.558 				"/>
				<path fill="none" stroke="#939598" d="M238.39,141.001c-0.328-9.694-8.299-17.286-17.993-16.955"/>
			</g>
		</g>
		<path fill="none" stroke="#939598" d="M270.849,94.572"/>
		<path fill="none" stroke="#939598" d="M238.035,94.572"/>
		<path fill="none" stroke="#939598" d="M238.035,62.229"/>
		<line fill="none" stroke="#939598" x1="212.562" y1="96.61" x2="212.562" y2="152.507"/>
		<polyline fill="none" stroke="#939598" points="57.182,106.313 57.182,143.858 97.395,143.858 97.395,106.524 		"/>
		<polyline fill="none" stroke="#939598" points="439.101,109.898 439.101,170.272 454.076,170.272 471.161,153.675 		"/>
		
			<line fill="none" stroke="#939598" stroke-dasharray="1.5,1.5,1.5,1.5,1.5,1.5" x1="210.453" y1="151.874" x2="210.453" y2="96.61"/>
		<polyline fill="none" stroke="#939598" stroke-dasharray="1.5,1.5,1.5,1.5,1.5,1.5" points="55.209,106.524 55.209,145.968 
			99.082,145.968 99.082,106.524 		"/>
		<polyline fill="none" stroke="#939598" stroke-dasharray="1.5,1.5,1.5,1.5,1.5,1.5" points="436.78,109.476 436.78,172.545 
			455.131,172.545 470.528,157.147 		"/>
		<g>
			<polygon fill="none" stroke="#939598" points="421.399,101.125 421.389,99.716 441.484,99.702 441.495,101.131 			"/>
			<path fill="none" stroke="#939598" d="M441.511,100.459c-0.375-11.063-9.524-19.729-20.588-19.352"/>
		</g>
		<g>
			<g>
				<g>
					<g>
						<rect x="309.275" y="155.968" fill="#FFFFFF" stroke="#939598" width="17.033" height="15.646"/>
						<path fill="#FFFFFF" stroke="#939598" d="M317.792,163.27"/>
						<polyline fill="#FFFFFF" stroke="#939598" points="312.624,160.635 312.624,158.256 314.681,157.7 320.982,157.7 
							323.065,158.256 323.065,160.635 						"/>
						<line fill="none" stroke="#939598" x1="326.432" y1="160.635" x2="309.275" y2="160.635"/>
						<path fill="#FFFFFF" stroke="#939598" d="M317.845,162.473"/>
					</g>
				</g>
			</g>
			<polygon fill="#FFFFFF" stroke="#939598" points="325.48,159.608 324.104,159.605 323.802,160.565 325.782,160.57 			"/>
		</g>
		<polygon fill="#FFFFFF" stroke="#939598" points="472.164,138.444 487.915,138.444 487.634,109.5 471.729,109.5 		"/>
		<g>
			<path fill="#FFFFFF" stroke="#939598" stroke-miterlimit="10" d="M504.797,138.311c0-3.764-2.287-7.91-5.106-7.91
				s-5.097,4.146-5.097,7.91c0,3.766,2.277,5.725,5.097,5.725S504.797,142.077,504.797,138.311"/>
			<path fill="#FFFFFF" stroke="#939598" d="M504.797,138.311c0-3.764-2.287-7.91-5.106-7.91s-5.097,4.146-5.097,7.91
				c0,3.766,2.277,5.725,5.097,5.725S504.797,142.077,504.797,138.311z"/>
			<path fill="#FFFFFF" stroke="#939598" stroke-miterlimit="10" d="M496.634,142.802c0-0.211-0.173-0.384-0.384-0.384h-1.778
				c-0.211,0-0.384,0.173-0.384,0.384v0.065c0,0.211,0.173,0.385,0.384,0.385h1.778c0.211,0,0.384-0.174,0.384-0.385V142.802z"/>
			<path fill="#FFFFFF" stroke="#939598" d="M496.634,142.802c0-0.211-0.173-0.384-0.384-0.384h-1.778
				c-0.211,0-0.384,0.173-0.384,0.384v0.065c0,0.211,0.173,0.385,0.384,0.385h1.778c0.211,0,0.384-0.174,0.384-0.385V142.802z"/>
			<path fill="#FFFFFF" stroke="#939598" stroke-miterlimit="10" d="M493.817,143.261c-0.64,0-1.16,1.735-1.16,2.376
				c0,0.647,0.521,2.383,1.16,2.383h11.654c0.643,0,1.16-1.736,1.16-2.383c0-0.641-0.518-2.375-1.16-2.375L493.817,143.261z"/>
			<path fill="#FFFFFF" stroke="#939598" d="M493.817,143.261c-0.64,0-1.16,1.735-1.16,2.376c0,0.647,0.521,2.383,1.16,2.383h11.654
				c0.643,0,1.16-1.736,1.16-2.383c0-0.641-0.518-2.375-1.16-2.375L493.817,143.261z"/>
			<path fill="#FFFFFF" stroke="#939598" stroke-miterlimit="10" d="M503.444,138.154c0-2.767-1.681-5.815-3.754-5.815
				s-3.752,3.048-3.752,5.815s1.679,4.206,3.752,4.206S503.444,140.922,503.444,138.154"/>
			<path fill="#FFFFFF" stroke="#939598" d="M503.444,138.154c0-2.767-1.681-5.815-3.754-5.815s-3.752,3.048-3.752,5.815
				s1.679,4.206,3.752,4.206S503.444,140.922,503.444,138.154z"/>
		</g>
		<g>
			<g>
				<g>
					<path fill="none" stroke="#939598" d="M481.286,123.609"/>
				</g>
				<g>
					<path fill="none" stroke="#939598" d="M480.39,123.609"/>
				</g>
				<g>
					<circle fill="none" stroke="#939598" cx="481.287" cy="123.61" r="0.858"/>
					<path fill="none" stroke="#939598" d="M481.286,123.609"/>
				</g>
				<g>
					<g>
						<rect x="474.114" y="119.992" fill="none" stroke="#939598" width="1.793" height="7.217"/>
						<path fill="none" stroke="#939598" d="M475.011,123.609"/>
					</g>
					<g>
						<rect x="475.986" y="123.227" fill="none" stroke="#939598" width="3.4" height="0.765"/>
						<path fill="none" stroke="#939598" d="M477.397,123.609"/>
					</g>
					<g>
						<circle fill="none" stroke="#939598" cx="475.029" cy="123.61" r="0.832"/>
						<path fill="none" stroke="#939598" d="M475.029,123.609"/>
					</g>
				</g>
			</g>
			<g>
				<rect x="473.841" y="116.396" fill="none" stroke="#939598" width="11.707" height="14.408"/>
				<rect x="475.95" y="117.601" fill="none" stroke="#939598" width="8.42" height="12.027"/>
			</g>
		</g>
		<rect x="339.822" y="113.484" fill="#FFFFFF" stroke="#939598" width="48.092" height="19.969"/>
		<polygon fill="#FFFFFF" stroke="#939598" points="411.843,161.526 411.912,109.431 429.312,109.431 429.262,179.789 
			355.099,179.735 355.099,161.509 356.4,161.509 		"/>
		<g>
			<g>
				<rect x="333.112" y="158.549" fill="#FFFFFF" stroke="#939598" width="21.011" height="18.535"/>
				<path fill="#FFFFFF" stroke="#939598" d="M342.53,167.817"/>
			</g>
			<line fill="none" stroke="#939598" x1="354.172" y1="159.844" x2="333.112" y2="159.844"/>
			<rect x="334.865" y="157.633" fill="#FFFFFF" stroke="#939598" width="1.703" height="0.903"/>
			<path fill="#FFFFFF" stroke="#939598" d="M335.716,158.134"/>
		</g>
		<g>
			<g>
				<path fill="#FFFFFF" stroke="#939598" d="M369.027,176.232c-0.359,0-0.65-0.29-0.65-0.65v-11.344
					c0-0.359,0.292-0.651,0.65-0.651h19.242c0.36,0,0.65,0.293,0.65,0.651v11.344c0,0.361-0.29,0.65-0.65,0.65H369.027z"/>
				<path fill="#FFFFFF" stroke="#939598" d="M378.58,170.4"/>
			</g>
			<g>
				<circle fill="#FFFFFF" stroke="#939598" cx="378.58" cy="169.631" r="0.735"/>
				<path fill="#FFFFFF" stroke="#939598" d="M378.58,169.633"/>
			</g>
			<g>
				<g>
					<rect x="375.37" y="174.245" fill="#FFFFFF" stroke="#939598" width="6.42" height="1.535"/>
					<path fill="#FFFFFF" stroke="#939598" d="M378.58,175.012"/>
				</g>
				<g>
					<rect x="378.253" y="171.26" fill="#FFFFFF" stroke="#939598" width="0.655" height="3.025"/>
					<path fill="#FFFFFF" stroke="#939598" d="M378.58,172.967"/>
				</g>
				<g>
					<circle fill="#FFFFFF" stroke="#939598" cx="378.58" cy="174.997" r="0.714"/>
					<path fill="#FFFFFF" stroke="#939598" d="M378.58,174.997"/>
				</g>
			</g>
			<g>
				<path fill="#FFFFFF" stroke="#939598" d="M378.58,169.633"/>
				<path fill="none" stroke="#939598" d="M378.184,173.714h-8.09c-0.377,0-0.685-0.305-0.685-0.684v-7.779
					c0-0.376,0.306-0.684,0.685-0.684h17.109c0.378,0,0.685,0.307,0.685,0.684v7.779c0,0.378-0.307,0.684-0.685,0.684h-8.207"/>
			</g>
		</g>
		<g>
			<polyline fill="none" stroke="#939598" stroke-dasharray="1.5,1,1.5,1,1.5,1" points="405.497,160.573 405.497,175.649 
				390.711,175.649 390.711,160.911 			"/>
			<polyline fill="#FFFFFF" stroke="#939598" points="390.688,160.911 390.688,160.014 405.497,160.014 405.497,160.566 			"/>
		</g>
		<g>
			<g>
				<rect x="411.404" y="129.702" fill="#FFFFFF" stroke="#939598" width="16.663" height="19.616"/>
				<path fill="#FFFFFF" stroke="#939598" d="M419.735,139.51"/>
			</g>
			<g>
				<g>
					<circle fill="#FFFFFF" stroke="#939598" cx="415.096" cy="143.995" r="2.383"/>
					<path fill="#FFFFFF" stroke="#939598" d="M415.096,143.995"/>
				</g>
				<g>
					<circle fill="#FFFFFF" stroke="#939598" stroke-width="0.8" cx="415.097" cy="144.017" r="1.678"/>
					<path fill="#FFFFFF" stroke="#939598" d="M415.096,144.017"/>
				</g>
			</g>
			<g>
				<g>
					<circle fill="#FFFFFF" stroke="#939598" cx="422.056" cy="134.471" r="2.383"/>
					<path fill="#FFFFFF" stroke="#939598" d="M422.056,134.471"/>
				</g>
				<g>
					<circle fill="#FFFFFF" stroke="#939598" stroke-width="0.8" cx="422.058" cy="134.447" r="1.678"/>
					<path fill="#FFFFFF" stroke="#939598" d="M422.056,134.447"/>
				</g>
			</g>
			<g>
				<g>
					<circle fill="#FFFFFF" stroke="#939598" cx="422.034" cy="144.026" r="2.716"/>
					<path fill="#FFFFFF" stroke="#939598" d="M422.034,144.026"/>
				</g>
				<g>
					<circle fill="#FFFFFF" stroke="#939598" stroke-width="0.8" cx="422.034" cy="144" r="1.914"/>
					<path fill="#FFFFFF" stroke="#939598" d="M422.034,144"/>
				</g>
			</g>
			<g>
				<g>
					<circle fill="#FFFFFF" stroke="#939598" cx="414.913" cy="134.482" r="2.716"/>
					<path fill="#FFFFFF" stroke="#939598" d="M414.913,134.481"/>
				</g>
				<g>
					<circle fill="#FFFFFF" stroke="#939598" stroke-width="0.8" cx="414.913" cy="134.454" r="1.914"/>
					<path fill="#FFFFFF" stroke="#939598" d="M414.913,134.455"/>
				</g>
			</g>
			<line fill="none" stroke="#939598" x1="425.763" y1="149.344" x2="425.763" y2="129.702"/>
			<line fill="none" stroke="#939598" x1="426.685" y1="149.318" x2="426.685" y2="129.702"/>
		</g>
		<line fill="none" stroke="#939598" x1="366.464" y1="178.022" x2="366.464" y2="161.625"/>
		
			<line fill="none" stroke="#939598" stroke-dasharray="1.5,1.5,1.5,1.5,1.5,1.5" x1="346.462" y1="169.592" x2="332.54" y2="169.592"/>
		<polyline fill="none" stroke="#939598" stroke-dasharray="1.5,1.5,1.5,1.5,1.5,1.5" points="390.688,169.592 363.446,169.592 
			354.869,169.592 345.448,169.592 		"/>
		<polyline fill="none" stroke="#939598" stroke-dasharray="1.5,1.5,1.5,1.5,1.5,1.5" points="419.694,109.829 419.694,169.592 
			390.688,169.592 		"/>
	</g>
	<g id="walls">
		<polyline fill="none" stroke="#939598" stroke-width="5" points="266.35,153.417 283.646,153.417 310.229,180.052 
			457.585,180.052 486.06,151.595 536.192,151.595 536.192,18.145 47.253,18.145 47.253,153.417 247.577,153.417 		"/>
		<line fill="none" stroke="#939598" stroke-width="3" x1="168.942" y1="69.992" x2="168.942" y2="19.832"/>
		<polyline fill="none" stroke="#939598" stroke-width="3" points="153.39,105.891 157.299,105.891 168.942,94.501 168.942,89.65 		
			"/>
		<line fill="none" stroke="#939598" stroke-width="3" x1="85.366" y1="105.891" x2="134.94" y2="105.891"/>
		<line fill="none" stroke="#939598" stroke-width="3" x1="49.092" y1="105.891" x2="66.689" y2="105.891"/>
		<line fill="none" stroke="#939598" stroke-width="3" x1="107.309" y1="152.507" x2="107.309" y2="104.837"/>
		<line fill="none" stroke="#939598" stroke-width="3" x1="220.697" y1="141.116" x2="220.697" y2="152.718"/>
		<polyline fill="none" stroke="#939598" stroke-width="3" points="197.139,95.743 220.697,95.743 220.697,106.432 		"/>
		<line fill="none" stroke="#939598" stroke-width="3" x1="167.424" y1="95.743" x2="178.085" y2="95.743"/>
		<line fill="none" stroke="#939598" stroke-width="3" x1="201.805" y1="95.767" x2="201.805" y2="152.507"/>
		<polyline fill="none" stroke="#939598" stroke-width="3" points="326.988,152.494 331.316,152.494 331.316,178.873 		"/>
		<line fill="none" stroke="#939598" stroke-width="3" x1="282.38" y1="152.494" x2="308.325" y2="152.494"/>
		<line fill="none" stroke="#939598" stroke-width="3" x1="303.685" y1="152.507" x2="303.685" y2="172.756"/>
		<line fill="none" stroke="#939598" stroke-width="3" x1="510.148" y1="108.634" x2="535.917" y2="108.634"/>
		<line fill="none" stroke="#939598" stroke-width="3" x1="464.423" y1="108.634" x2="492.054" y2="108.634"/>
		<path fill="none" stroke="#939598" stroke-width="3" d="M422.015,100.829c0,4.843,0,7.805,0,7.805h23.624"/>
		<path fill="none" stroke="#939598" stroke-width="3" d="M422.015,19.41c0,0.381,0,35.723,0,61.333"/>
		<line fill="none" stroke="#939598" stroke-width="3" x1="470.739" y1="165.796" x2="470.739" y2="108.423"/>
		<line fill="none" stroke="#939598" stroke-width="3" x1="429.819" y1="108.423" x2="429.819" y2="180.56"/>
		<line fill="none" stroke="#939598" stroke-width="3" x1="487.403" y1="150.735" x2="470.739" y2="150.735"/>
		<polyline fill="none" stroke="#939598" stroke-width="3" points="421.804,23.615 466.311,23.615 466.311,18.988 		"/>
		<polyline fill="none" stroke="#939598" stroke-width="3" points="535.284,23.586 528.956,23.586 528.956,18.356 		"/>
		<polyline fill="none" stroke="#939598" stroke-width="3" points="340.808,18.356 340.808,23.418 358.104,23.418 358.104,17.934 		
			"/>
		<polyline fill="none" stroke="#939598" stroke-width="3" points="232.812,18.777 232.812,23.207 277.95,23.207 277.95,18.566 		
			"/>
		<polyline fill="none" stroke="#939598" stroke-width="3" points="47.826,23.672 89.802,23.672 89.802,18.777 		"/>
		<polyline fill="none" stroke="#939598" stroke-width="3" points="153.352,18.988 153.352,23.377 168.689,23.377 		"/>
		<polyline fill="none" stroke="#939598" stroke-width="3" points="107.309,147.444 127.842,147.444 127.842,152.928 		"/>
	</g>
	<g id="windows">
		<g>
			<g>
				<rect x="92.177" y="16.636" fill="#FFFFFF" stroke="#939598" width="58.69" height="3.1"/>
				<line fill="none" stroke="#939598" x1="92.177" y1="18.201" x2="151.501" y2="18.201"/>
				<line fill="none" stroke="#939598" stroke-width="2" x1="111.307" y1="16.503" x2="111.307" y2="19.45"/>
			</g>
			<line fill="none" stroke="#939598" stroke-width="2" x1="131.041" y1="16.398" x2="131.041" y2="19.436"/>
		</g>
		<g>
			<g>
				<rect x="171.666" y="16.581" fill="#FFFFFF" stroke="#939598" width="58.69" height="3.1"/>
				<line fill="none" stroke="#939598" x1="171.666" y1="18.147" x2="230.99" y2="18.147"/>
				<line fill="none" stroke="#939598" stroke-width="2" x1="190.796" y1="16.448" x2="190.796" y2="19.396"/>
			</g>
			<line fill="none" stroke="#939598" stroke-width="2" x1="210.53" y1="16.343" x2="210.53" y2="19.381"/>
		</g>
		<g>
			<g>
				<rect x="280.362" y="16.588" fill="#FFFFFF" stroke="#939598" width="58.69" height="3.1"/>
				<line fill="none" stroke="#939598" x1="280.362" y1="18.154" x2="339.686" y2="18.154"/>
				<line fill="none" stroke="#939598" stroke-width="2" x1="299.492" y1="16.455" x2="299.492" y2="19.403"/>
			</g>
			<line fill="none" stroke="#939598" stroke-width="2" x1="319.226" y1="16.349" x2="319.226" y2="19.389"/>
		</g>
		<g>
			<g>
				<rect x="360.166" y="16.648" fill="#FFFFFF" stroke="#939598" width="58.689" height="3.1"/>
				<line fill="none" stroke="#939598" x1="360.166" y1="18.213" x2="419.49" y2="18.213"/>
				<line fill="none" stroke="#939598" stroke-width="2" x1="379.296" y1="16.514" x2="379.296" y2="19.463"/>
			</g>
			<line fill="none" stroke="#939598" stroke-width="2" x1="399.03" y1="16.408" x2="399.03" y2="19.447"/>
		</g>
		<g>
			<g>
				<rect x="468.012" y="16.577" fill="#FFFFFF" stroke="#939598" width="58.69" height="3.1"/>
				<line fill="none" stroke="#939598" x1="468.012" y1="18.142" x2="527.335" y2="18.142"/>
				<line fill="none" stroke="#939598" stroke-width="2" x1="487.142" y1="16.443" x2="487.142" y2="19.392"/>
			</g>
			<line fill="none" stroke="#939598" stroke-width="2" x1="506.875" y1="16.338" x2="506.875" y2="19.376"/>
		</g>
	</g>
	<g id="Type">
		<g>
			<path fill="#939598" d="M165.577,121.098c0,0.698-0.425,1.056-0.843,1.238c0.631,0.189,1.139,0.554,1.139,1.291
				c0,0.918-0.767,1.458-1.929,1.458h-2.363v-5.316h2.265C164.895,119.769,165.577,120.286,165.577,121.098z M164.969,121.182
				c0-0.532-0.417-0.875-1.177-0.875h-1.618v1.831h1.572C164.469,122.138,164.969,121.812,164.969,121.182z M165.266,123.591
				c0-0.585-0.485-0.92-1.412-0.92h-1.68v1.876h1.785C164.765,124.546,165.266,124.19,165.266,123.591z"/>
			<path fill="#939598" d="M167.193,121.911l-0.175-0.479c0.433-0.197,0.858-0.327,1.429-0.327c1.07,0,1.67,0.547,1.67,1.58v2.4
				h-0.562v-0.593c-0.273,0.358-0.729,0.677-1.42,0.677c-0.729,0-1.466-0.409-1.466-1.229c0-0.836,0.684-1.277,1.679-1.277
				c0.501,0,0.857,0.068,1.207,0.167v-0.137c0-0.706-0.433-1.071-1.17-1.071C167.922,121.623,167.558,121.744,167.193,121.911z
				 M167.262,123.916c0,0.502,0.456,0.79,0.987,0.79c0.721,0,1.313-0.439,1.313-1.063v-0.38c-0.288-0.083-0.675-0.166-1.154-0.166
				C167.673,123.096,167.262,123.416,167.262,123.916z"/>
			<path fill="#939598" d="M172.115,123.969c0,0.479,0.266,0.653,0.661,0.653c0.197,0,0.364-0.038,0.569-0.137v0.501
				c-0.205,0.106-0.426,0.167-0.707,0.167c-0.63,0-1.108-0.312-1.108-1.108v-2.37h-0.547v-0.516h0.547v-1.185h0.585v1.185h1.246
				v0.516h-1.246V123.969z"/>
			<path fill="#939598" d="M174.978,125.086h-0.585v-5.544h0.585v2.302c0.258-0.426,0.668-0.767,1.345-0.767
				c0.949,0,1.503,0.638,1.503,1.571v2.438h-0.584v-2.294c0-0.729-0.395-1.185-1.087-1.185c-0.676,0-1.178,0.493-1.178,1.229
				L174.978,125.086L174.978,125.086z"/>
		</g>
		<g>
			<path fill="#939598" d="M216.899,135.65c-1.194,0-2.074-0.939-2.074-2.133c0-1.182,0.875-2.145,2.092-2.145
				c0.75,0,1.2,0.265,1.613,0.655l-0.319,0.342c-0.349-0.331-0.738-0.567-1.3-0.567c-0.916,0-1.602,0.739-1.602,1.703
				c0,0.963,0.69,1.713,1.602,1.713c0.566,0,0.939-0.219,1.335-0.597l0.308,0.301C218.122,135.362,217.649,135.65,216.899,135.65z"
				/>
			<path fill="#939598" d="M219.332,135.581v-4.313h0.454v4.313H219.332z"/>
			<path fill="#939598" d="M222.237,135.65c-0.915,0-1.584-0.721-1.584-1.589c0-0.869,0.674-1.602,1.596-1.602
				c0.916,0,1.59,0.72,1.59,1.589C223.84,134.918,223.159,135.65,222.237,135.65z M222.237,132.861
				c-0.662,0-1.117,0.526-1.117,1.188c0,0.662,0.485,1.194,1.129,1.194c0.662,0,1.123-0.526,1.123-1.181
				C223.372,133.393,222.882,132.861,222.237,132.861z"/>
			<path fill="#939598" d="M225.669,135.638c-0.438,0-0.923-0.17-1.265-0.448l0.229-0.326c0.331,0.248,0.697,0.391,1.058,0.391
				c0.367,0,0.633-0.189,0.633-0.484v-0.012c0-0.307-0.36-0.426-0.762-0.538c-0.479-0.136-1.011-0.301-1.011-0.862v-0.013
				c0-0.525,0.438-0.874,1.04-0.874c0.372,0,0.786,0.13,1.1,0.336l-0.208,0.343c-0.283-0.184-0.608-0.295-0.903-0.295
				c-0.36,0-0.591,0.189-0.591,0.442v0.012c0,0.289,0.378,0.403,0.785,0.526c0.474,0.142,0.981,0.325,0.981,0.875v0.011
				C226.756,135.302,226.278,135.638,225.669,135.638z"/>
			<path fill="#939598" d="M228.947,135.255c0.42,0,0.715-0.17,0.964-0.432l0.283,0.254c-0.308,0.343-0.679,0.574-1.259,0.574
				c-0.84,0-1.524-0.645-1.524-1.596c0-0.887,0.62-1.596,1.466-1.596c0.903,0,1.424,0.72,1.424,1.618c0,0.042,0,0.09-0.006,0.143
				h-2.423C227.937,134.883,228.409,135.255,228.947,135.255z M229.84,133.884c-0.048-0.554-0.367-1.039-0.976-1.039
				c-0.532,0-0.934,0.442-0.993,1.039H229.84z"/>
			<path fill="#939598" d="M231.711,134.711c0,0.373,0.206,0.509,0.514,0.509c0.153,0,0.283-0.029,0.442-0.107v0.392
				c-0.159,0.082-0.331,0.13-0.549,0.13c-0.491,0-0.862-0.242-0.862-0.863v-1.844h-0.425v-0.402h0.425v-0.922h0.455v0.922h0.968
				v0.402h-0.968V134.711L231.711,134.711z"/>
		</g>
		<g>
			<path fill="#939598" d="M70.346,136.74c-1.193,0-2.073-0.939-2.073-2.134c0-1.182,0.875-2.145,2.092-2.145
				c0.749,0,1.199,0.266,1.613,0.656l-0.319,0.342c-0.349-0.331-0.738-0.568-1.301-0.568c-0.915,0-1.601,0.739-1.601,1.703
				s0.69,1.714,1.601,1.714c0.567,0,0.94-0.22,1.336-0.598l0.308,0.302C71.569,136.45,71.096,136.74,70.346,136.74z"/>
			<path fill="#939598" d="M72.778,136.669v-4.313h0.455v4.313H72.778z"/>
			<path fill="#939598" d="M75.685,136.74c-0.916,0-1.584-0.722-1.584-1.591c0-0.868,0.674-1.601,1.596-1.601
				c0.915,0,1.59,0.72,1.59,1.589C77.287,136.007,76.606,136.74,75.685,136.74z M75.685,133.95c-0.662,0-1.117,0.525-1.117,1.188
				s0.485,1.193,1.129,1.193c0.662,0,1.123-0.525,1.123-1.182C76.819,134.481,76.329,133.95,75.685,133.95z"/>
			<path fill="#939598" d="M79.116,136.727c-0.438,0-0.923-0.171-1.266-0.448l0.23-0.326c0.331,0.248,0.697,0.391,1.058,0.391
				c0.367,0,0.633-0.189,0.633-0.484v-0.013c0-0.307-0.36-0.425-0.762-0.538c-0.479-0.135-1.011-0.301-1.011-0.862v-0.012
				c0-0.525,0.438-0.874,1.04-0.874c0.372,0,0.785,0.129,1.1,0.336l-0.208,0.343c-0.283-0.184-0.608-0.296-0.903-0.296
				c-0.36,0-0.591,0.189-0.591,0.443v0.012c0,0.289,0.378,0.402,0.785,0.525c0.474,0.142,0.981,0.325,0.981,0.875v0.012
				C80.203,136.39,79.724,136.727,79.116,136.727z"/>
			<path fill="#939598" d="M82.394,136.344c0.419,0,0.715-0.171,0.964-0.432l0.283,0.254c-0.307,0.343-0.679,0.574-1.259,0.574
				c-0.84,0-1.524-0.646-1.524-1.597c0-0.886,0.62-1.596,1.465-1.596c0.904,0,1.425,0.721,1.425,1.619c0,0.042,0,0.088-0.006,0.142
				h-2.424C81.384,135.971,81.856,136.344,82.394,136.344z M83.286,134.972c-0.047-0.555-0.367-1.04-0.976-1.04
				c-0.531,0-0.933,0.442-0.993,1.04H83.286z"/>
			<path fill="#939598" d="M85.157,135.8c0,0.372,0.207,0.509,0.515,0.509c0.153,0,0.283-0.029,0.442-0.107v0.392
				c-0.159,0.082-0.331,0.129-0.549,0.129c-0.491,0-0.862-0.243-0.862-0.862v-1.845h-0.426v-0.401h0.426v-0.922h0.454v0.922h0.969
				v0.401h-0.969V135.8z"/>
		</g>
		<g>
			<path fill="#939598" d="M446.931,141.569c-1.193,0-2.073-0.939-2.073-2.134c0-1.181,0.874-2.145,2.092-2.145
				c0.751,0,1.199,0.266,1.612,0.656l-0.318,0.343c-0.349-0.332-0.738-0.568-1.301-0.568c-0.915,0-1.6,0.739-1.6,1.703
				c0,0.963,0.691,1.713,1.6,1.713c0.568,0,0.94-0.219,1.336-0.597l0.307,0.301C448.153,141.28,447.682,141.569,446.931,141.569z"/>
			<path fill="#939598" d="M449.363,141.498v-4.313h0.455v4.313H449.363z"/>
			<path fill="#939598" d="M452.27,141.569c-0.916,0-1.584-0.721-1.584-1.59s0.674-1.602,1.596-1.602c0.916,0,1.59,0.721,1.59,1.59
				C453.872,140.837,453.191,141.569,452.27,141.569z M452.27,138.78c-0.662,0-1.116,0.525-1.116,1.188
				c0,0.661,0.484,1.192,1.128,1.192c0.662,0,1.123-0.524,1.123-1.181C453.404,139.311,452.913,138.78,452.27,138.78z"/>
			<path fill="#939598" d="M455.701,141.557c-0.438,0-0.923-0.172-1.265-0.449l0.229-0.325c0.332,0.248,0.698,0.391,1.059,0.391
				c0.367,0,0.633-0.19,0.633-0.485v-0.012c0-0.308-0.361-0.425-0.763-0.539c-0.478-0.134-1.01-0.3-1.01-0.861v-0.012
				c0-0.525,0.438-0.874,1.039-0.874c0.372,0,0.786,0.128,1.1,0.335l-0.207,0.343c-0.283-0.183-0.608-0.295-0.903-0.295
				c-0.361,0-0.591,0.188-0.591,0.442v0.012c0,0.29,0.378,0.402,0.786,0.525c0.473,0.142,0.98,0.326,0.98,0.875v0.013
				C456.788,141.22,456.31,141.557,455.701,141.557z"/>
			<path fill="#939598" d="M458.979,141.174c0.42,0,0.716-0.172,0.963-0.432l0.284,0.253c-0.308,0.343-0.68,0.574-1.259,0.574
				c-0.839,0-1.524-0.645-1.524-1.596c0-0.887,0.62-1.597,1.466-1.597c0.902,0,1.423,0.721,1.423,1.619c0,0.043,0,0.089-0.005,0.142
				h-2.423C457.968,140.801,458.44,141.174,458.979,141.174z M459.871,139.802c-0.048-0.556-0.367-1.041-0.976-1.041
				c-0.531,0-0.933,0.443-0.992,1.041H459.871z"/>
			<path fill="#939598" d="M461.742,140.63c0,0.372,0.207,0.509,0.514,0.509c0.153,0,0.284-0.029,0.443-0.106v0.391
				c-0.159,0.082-0.332,0.13-0.549,0.13c-0.49,0-0.863-0.243-0.863-0.863v-1.844h-0.426v-0.402h0.426v-0.923h0.455v0.923h0.969
				v0.402h-0.969V140.63z"/>
		</g>
		<g>
			<path fill="#939598" d="M314.041,163.669h0.384l1.135,3.457l1.181-3.444h0.491l-1.477,4.166h-0.397l-1.134-3.357l-1.142,3.357
				h-0.389l-1.479-4.166h0.51l1.182,3.444L314.041,163.669z"/>
			<path fill="#939598" d="M319.935,163.101l-2.742,5.472h-0.419l2.742-5.472H319.935z"/>
			<path fill="#939598" d="M321.919,167.817h-1.437v-4.136h1.437c1.3,0,2.197,0.892,2.197,2.062S323.219,167.817,321.919,167.817z
				 M321.919,164.111h-0.97v3.273h0.97c1.046,0,1.713-0.708,1.713-1.631C323.632,164.832,322.965,164.111,321.919,164.111z"/>
		</g>
		<g>
			<path fill="#939598" d="M497.78,113.295c0,0.545-0.331,0.822-0.655,0.964c0.491,0.147,0.887,0.432,0.887,1.004
				c0,0.716-0.597,1.135-1.502,1.135h-1.837v-4.136h1.761C497.249,112.261,497.78,112.662,497.78,113.295z M497.309,113.361
				c0-0.414-0.325-0.681-0.916-0.681h-1.259v1.425h1.223C496.918,114.104,497.309,113.851,497.309,113.361z M497.538,115.233
				c0-0.455-0.378-0.716-1.1-0.716h-1.306v1.46h1.389C497.148,115.978,497.538,115.7,497.538,115.233z"/>
			<path fill="#939598" d="M499.037,113.927l-0.136-0.373c0.337-0.152,0.668-0.254,1.11-0.254c0.834,0,1.3,0.426,1.3,1.229v1.867
				h-0.438v-0.461c-0.213,0.278-0.567,0.526-1.105,0.526c-0.566,0-1.14-0.319-1.14-0.958c0-0.65,0.532-0.993,1.306-0.993
				c0.391,0,0.668,0.053,0.939,0.13v-0.106c0-0.549-0.337-0.832-0.91-0.832C499.604,113.703,499.32,113.797,499.037,113.927z
				 M499.091,115.488c0,0.39,0.354,0.614,0.768,0.614c0.562,0,1.022-0.343,1.022-0.827v-0.295c-0.226-0.064-0.526-0.131-0.897-0.131
				C499.409,114.849,499.091,115.097,499.091,115.488z"/>
			<path fill="#939598" d="M502.865,115.529c0,0.372,0.207,0.509,0.514,0.509c0.153,0,0.284-0.029,0.442-0.106v0.39
				c-0.158,0.083-0.331,0.131-0.548,0.131c-0.49,0-0.863-0.243-0.863-0.863v-1.844h-0.426v-0.403h0.426v-0.922h0.455v0.922h0.969
				v0.403h-0.969V115.529L502.865,115.529z"/>
			<path fill="#939598" d="M505.092,116.397h-0.454v-4.313h0.454v1.791c0.2-0.332,0.52-0.598,1.046-0.598
				c0.738,0,1.171,0.496,1.171,1.224v1.896h-0.456v-1.784c0-0.567-0.306-0.922-0.844-0.922c-0.526,0-0.916,0.383-0.916,0.957
				L505.092,116.397L505.092,116.397z"/>
		</g>
		<g>
			<path fill="#939598" d="M341.776,168.295l-1.2-1.607h-1.183v1.607h-0.466v-4.136h1.778c0.909,0,1.494,0.49,1.494,1.235
				c0,0.69-0.473,1.092-1.123,1.211l1.271,1.689H341.776L341.776,168.295z M340.671,164.589h-1.277v1.679h1.271
				c0.621,0,1.065-0.319,1.065-0.857C341.728,164.897,341.339,164.589,340.671,164.589z"/>
			<path fill="#939598" d="M344.408,167.969c0.421,0,0.716-0.171,0.964-0.432l0.284,0.254c-0.307,0.343-0.68,0.573-1.259,0.573
				c-0.839,0-1.524-0.645-1.524-1.595c0-0.887,0.619-1.597,1.465-1.597c0.904,0,1.424,0.721,1.424,1.619
				c0,0.042,0,0.089-0.007,0.142h-2.423C343.398,167.597,343.871,167.969,344.408,167.969z M345.301,166.598
				c-0.047-0.555-0.366-1.04-0.975-1.04c-0.532,0-0.933,0.442-0.993,1.04H345.301z"/>
			<path fill="#939598" d="M348.147,165.251v0.391h-0.964v2.653h-0.454v-2.653h-0.42v-0.396h0.42v-0.266
				c0-0.668,0.335-1.022,0.921-1.022c0.214,0,0.355,0.024,0.504,0.077v0.396c-0.167-0.048-0.29-0.078-0.443-0.078
				c-0.354,0-0.532,0.214-0.532,0.651v0.248L348.147,165.251L348.147,165.251z"/>
		</g>
		<g>
			<path fill="#939598" d="M394.641,168.295h-1.436v-4.136h1.436c1.301,0,2.198,0.893,2.198,2.062
				C396.839,167.39,395.941,168.295,394.641,168.295z M394.641,164.589h-0.969v3.273h0.969c1.046,0,1.714-0.708,1.714-1.63
				C396.354,165.309,395.688,164.589,394.641,164.589z"/>
			<path fill="#939598" d="M400.117,164.145h0.385l1.135,3.459l1.181-3.445h0.49l-1.477,4.166h-0.396l-1.135-3.357l-1.142,3.357
				h-0.391l-1.477-4.166h0.509l1.181,3.445L400.117,164.145z"/>
		</g>
		<g>
			<path fill="#939598" d="M369.148,148.12h-0.753l-2.043-2.574l-1.132,1.146v1.427h-0.601v-5.316h0.601v3.175l3.053-3.175h0.774
				l-2.277,2.324L369.148,148.12z"/>
			<path fill="#939598" d="M369.995,143.335v-0.646h0.669v0.646H369.995z M370.035,148.12v-3.926h0.583v3.926H370.035z"/>
			<path fill="#939598" d="M372.769,147.005c0,0.478,0.266,0.652,0.661,0.652c0.196,0,0.364-0.038,0.57-0.137v0.502
				c-0.206,0.106-0.426,0.166-0.707,0.166c-0.632,0-1.108-0.311-1.108-1.108v-2.37h-0.547v-0.516h0.547v-1.185h0.584v1.185h1.246
				v0.516h-1.246V147.005L372.769,147.005z"/>
			<path fill="#939598" d="M376.704,148.212c-1.147,0-2.014-0.935-2.014-2.044c0-1.116,0.865-2.058,2.014-2.058
				c0.743,0,1.207,0.311,1.571,0.698l-0.388,0.41c-0.312-0.327-0.66-0.593-1.193-0.593c-0.797,0-1.404,0.677-1.404,1.526
				c0,0.859,0.623,1.535,1.443,1.535c0.501,0,0.889-0.251,1.199-0.584l0.373,0.349C377.91,147.891,377.44,148.212,376.704,148.212z"
				/>
			<path fill="#939598" d="M379.854,148.12h-0.585v-5.544h0.585v2.302c0.258-0.426,0.668-0.767,1.345-0.767
				c0.949,0,1.504,0.638,1.504,1.571v2.438h-0.585v-2.294c0-0.729-0.395-1.184-1.085-1.184c-0.678,0-1.179,0.493-1.179,1.229V148.12
				L379.854,148.12z"/>
			<path fill="#939598" d="M385.678,147.703c0.539,0,0.919-0.221,1.239-0.555l0.363,0.327c-0.395,0.44-0.873,0.737-1.618,0.737
				c-1.077,0-1.958-0.827-1.958-2.051c0-1.141,0.797-2.052,1.883-2.052c1.162,0,1.83,0.927,1.83,2.081c0,0.053,0,0.114-0.007,0.183
				h-3.114C384.379,147.223,384.987,147.703,385.678,147.703z M386.825,145.94c-0.061-0.714-0.472-1.337-1.253-1.337
				c-0.685,0-1.2,0.57-1.276,1.337H386.825z"/>
			<path fill="#939598" d="M389.026,148.12h-0.585v-3.926h0.585v0.684c0.258-0.426,0.669-0.767,1.344-0.767
				c0.95,0,1.505,0.638,1.505,1.571v2.438h-0.585v-2.294c0-0.729-0.395-1.184-1.086-1.184c-0.677,0-1.178,0.493-1.178,1.229V148.12z
				"/>
		</g>
		<g>
			<path fill="#939598" d="M466.1,65.704c0,0.699-0.426,1.055-0.844,1.238c0.631,0.19,1.141,0.555,1.141,1.291
				c0,0.919-0.767,1.459-1.929,1.459h-2.362v-5.318h2.264C465.416,64.374,466.1,64.891,466.1,65.704z M465.492,65.787
				c0-0.531-0.418-0.873-1.178-0.873h-1.617v1.83h1.571C464.991,66.745,465.492,66.418,465.492,65.787z M465.789,68.196
				c0-0.585-0.485-0.919-1.413-0.919h-1.678v1.876h1.783C465.287,69.153,465.789,68.796,465.789,68.196z"/>
			<path fill="#939598" d="M469.22,69.274c0.539,0,0.919-0.221,1.238-0.554l0.365,0.326c-0.396,0.441-0.874,0.737-1.618,0.737
				c-1.078,0-1.959-0.828-1.959-2.051c0-1.141,0.797-2.052,1.884-2.052c1.161,0,1.83,0.927,1.83,2.082c0,0.053,0,0.114-0.009,0.182
				h-3.112C467.921,68.796,468.528,69.274,469.22,69.274z M470.366,67.511c-0.06-0.713-0.471-1.336-1.253-1.336
				c-0.684,0-1.2,0.57-1.275,1.336H470.366z"/>
			<path fill="#939598" d="M475.136,69.691v-0.789c-0.319,0.47-0.782,0.873-1.503,0.873c-0.942,0-1.877-0.744-1.877-2.043
				c0-1.292,0.934-2.052,1.877-2.052c0.728,0,1.199,0.396,1.503,0.835v-2.37h0.585v5.544L475.136,69.691L475.136,69.691z
				 M473.738,66.205c-0.76,0-1.384,0.562-1.384,1.52c0,0.934,0.638,1.527,1.384,1.527c0.728,0,1.42-0.607,1.42-1.527
				C475.158,66.813,474.467,66.205,473.738,66.205z"/>
			<path fill="#939598" d="M477.609,69.691h-0.584v-3.926h0.584v1.025c0.289-0.653,0.858-1.125,1.603-1.093v0.63h-0.046
				c-0.857,0-1.558,0.615-1.558,1.8L477.609,69.691L477.609,69.691z"/>
			<path fill="#939598" d="M481.726,69.783c-1.178,0-2.035-0.926-2.035-2.043c0-1.117,0.866-2.059,2.051-2.059
				c1.179,0,2.044,0.927,2.044,2.044C483.785,68.841,482.911,69.783,481.726,69.783z M481.726,66.198
				c-0.85,0-1.435,0.675-1.435,1.527c0,0.851,0.623,1.533,1.45,1.533c0.851,0,1.443-0.675,1.443-1.519
				C483.185,66.882,482.554,66.198,481.726,66.198z"/>
			<path fill="#939598" d="M486.632,69.783c-1.178,0-2.036-0.926-2.036-2.043c0-1.117,0.866-2.059,2.052-2.059
				c1.178,0,2.043,0.927,2.043,2.044C488.69,68.841,487.816,69.783,486.632,69.783z M486.632,66.198
				c-0.852,0-1.436,0.675-1.436,1.527c0,0.851,0.622,1.533,1.451,1.533c0.852,0,1.443-0.675,1.443-1.519
				C488.09,66.882,487.46,66.198,486.632,66.198z"/>
			<path fill="#939598" d="M494.241,65.681c0.903,0,1.458,0.608,1.458,1.581v2.432h-0.584v-2.295c0-0.759-0.38-1.184-1.018-1.184
				c-0.593,0-1.086,0.44-1.086,1.215v2.264h-0.578v-2.31c0-0.737-0.388-1.169-1.01-1.169c-0.623,0-1.094,0.516-1.094,1.238v2.241
				h-0.585v-3.927h0.585v0.661c0.259-0.387,0.607-0.745,1.269-0.745c0.638,0,1.048,0.342,1.261,0.783
				C493.14,66.031,493.557,65.681,494.241,65.681z"/>
			<path fill="#939598" d="M467.401,73.618h0.44v5.355h-0.593v-4.733l-1.002,0.312l-0.145-0.486L467.401,73.618z"/>
			<path fill="#939598" d="M470.12,73.618h0.439v5.355h-0.593v-4.733l-1.002,0.312l-0.145-0.486L470.12,73.618z"/>
			<path fill="#939598" d="M472.048,73.655h0.715v0.038l-0.616,2.029h-0.327L472.048,73.655z"/>
			<path fill="#939598" d="M479.528,78.972h-0.676l-1.215-1.602l-1.223,1.602h-0.653l1.542-1.998l-1.481-1.93h0.669l1.162,1.519
				l1.162-1.519h0.653l-1.49,1.914L479.528,78.972z"/>
			<path fill="#939598" d="M483.613,73.618h0.44v5.355h-0.594v-4.733l-1.001,0.312l-0.146-0.486L483.613,73.618z"/>
			<path fill="#939598" d="M488.679,73.618v3.592h0.826v0.501h-0.826v1.262h-0.578v-1.262h-2.804l-0.151-0.433l3.008-3.661H488.679z
				 M488.101,74.469l-2.231,2.742h2.231V74.469z"/>
			<path fill="#939598" d="M490.636,73.655h0.716v0.038l-0.615,2.029h-0.327L490.636,73.655z"/>
		</g>
		<g>
			<path fill="#939598" d="M262.354,64.374h0.6v4.763h2.993v0.554h-3.593V64.374z"/>
			<path fill="#939598" d="M266.971,64.906V64.26h0.668v0.646H266.971z M267.008,69.691v-3.926h0.585v3.926H267.008z"/>
			<path fill="#939598" d="M271.861,65.765h0.63l-1.709,3.957h-0.516l-1.702-3.957h0.645l1.322,3.258L271.861,65.765z"/>
			<path fill="#939598" d="M273.424,64.906V64.26h0.668v0.646H273.424z M273.463,69.691v-3.926h0.585v3.926H273.463z"/>
			<path fill="#939598" d="M275.99,69.691h-0.584v-3.926h0.584v0.683c0.259-0.425,0.669-0.767,1.346-0.767
				c0.949,0,1.504,0.639,1.504,1.573v2.439h-0.585v-2.295c0-0.729-0.395-1.184-1.087-1.184c-0.675,0-1.178,0.494-1.178,1.23V69.691z
				"/>
			<path fill="#939598" d="M281.823,70.923c-0.653,0-1.262-0.183-1.785-0.547l0.266-0.456c0.448,0.327,0.949,0.501,1.512,0.501
				c0.866,0,1.428-0.478,1.428-1.398V68.56c-0.342,0.456-0.82,0.828-1.542,0.828c-0.942,0-1.847-0.699-1.847-1.846
				c0-1.154,0.911-1.861,1.847-1.861c0.736,0,1.215,0.365,1.533,0.791v-0.706h0.585v3.243
				C283.821,70.277,283.031,70.923,281.823,70.923z M281.815,66.198c-0.744,0-1.36,0.509-1.36,1.329c0,0.806,0.632,1.345,1.36,1.345
				c0.744,0,1.443-0.531,1.443-1.336C283.26,66.722,282.56,66.198,281.815,66.198z"/>
			<path fill="#939598" d="M288.377,63.63l-3.524,7.033h-0.538l3.523-7.033H288.377z"/>
			<path fill="#939598" d="M290.928,69.691h-1.846v-5.317h1.846c1.671,0,2.825,1.147,2.825,2.651
				C293.753,68.53,292.599,69.691,290.928,69.691z M290.928,64.93h-1.246v4.208h1.246c1.343,0,2.202-0.911,2.202-2.097
				C293.13,65.856,292.271,64.93,290.928,64.93z"/>
			<path fill="#939598" d="M294.936,64.906V64.26h0.669v0.646H294.936z M294.974,69.691v-3.926h0.585v3.926H294.974z"/>
			<path fill="#939598" d="M297.503,69.691h-0.585v-3.926h0.585v0.683c0.258-0.425,0.668-0.767,1.345-0.767
				c0.949,0,1.503,0.639,1.503,1.573v2.439h-0.584v-2.295c0-0.729-0.395-1.184-1.086-1.184c-0.677,0-1.178,0.494-1.178,1.23V69.691
				L297.503,69.691z"/>
			<path fill="#939598" d="M301.611,64.906V64.26h0.669v0.646H301.611z M301.649,69.691v-3.926h0.584v3.926H301.649z"/>
			<path fill="#939598" d="M304.179,69.691h-0.585v-3.926h0.585v0.683c0.257-0.425,0.667-0.767,1.343-0.767
				c0.951,0,1.505,0.639,1.505,1.573v2.439h-0.584v-2.295c0-0.729-0.396-1.184-1.087-1.184c-0.676,0-1.177,0.494-1.177,1.23V69.691z
				"/>
			<path fill="#939598" d="M310.011,70.923c-0.654,0-1.263-0.183-1.786-0.547l0.266-0.456c0.448,0.327,0.949,0.501,1.512,0.501
				c0.865,0,1.428-0.478,1.428-1.398V68.56c-0.342,0.456-0.821,0.828-1.542,0.828c-0.941,0-1.847-0.699-1.847-1.846
				c0-1.154,0.911-1.861,1.847-1.861c0.737,0,1.215,0.365,1.533,0.791v-0.706h0.585v3.243
				C312.007,70.277,311.217,70.923,310.011,70.923z M310.002,66.198c-0.744,0-1.359,0.509-1.359,1.329
				c0,0.806,0.631,1.345,1.359,1.345c0.744,0,1.443-0.531,1.443-1.336C311.445,66.722,310.746,66.198,310.002,66.198z"/>
			<path fill="#939598" d="M319.35,69.691l-1.541-2.065h-1.52v2.065h-0.6v-5.317h2.285c1.17,0,1.922,0.63,1.922,1.587
				c0,0.889-0.608,1.406-1.444,1.558l1.635,2.172H319.35z M317.929,64.93h-1.64v2.157h1.633c0.798,0,1.367-0.409,1.367-1.101
				C319.289,65.323,318.788,64.93,317.929,64.93z"/>
			<path fill="#939598" d="M322.797,69.783c-1.179,0-2.035-0.926-2.035-2.043c0-1.117,0.864-2.059,2.051-2.059
				c1.178,0,2.042,0.927,2.042,2.044C324.854,68.841,323.981,69.783,322.797,69.783z M322.797,66.198
				c-0.851,0-1.436,0.675-1.436,1.527c0,0.851,0.623,1.533,1.451,1.533c0.851,0,1.442-0.675,1.442-1.519
				C324.255,66.882,323.624,66.198,322.797,66.198z"/>
			<path fill="#939598" d="M327.702,69.783c-1.178,0-2.037-0.926-2.037-2.043c0-1.117,0.866-2.059,2.052-2.059
				c1.179,0,2.044,0.927,2.044,2.044C329.761,68.841,328.887,69.783,327.702,69.783z M327.702,66.198
				c-0.852,0-1.437,0.675-1.437,1.527c0,0.851,0.622,1.533,1.451,1.533c0.852,0,1.443-0.675,1.443-1.519
				C329.16,66.882,328.53,66.198,327.702,66.198z"/>
			<path fill="#939598" d="M335.312,65.681c0.903,0,1.459,0.608,1.459,1.581v2.432h-0.585v-2.295c0-0.759-0.38-1.184-1.018-1.184
				c-0.593,0-1.086,0.44-1.086,1.215v2.264h-0.577v-2.31c0-0.737-0.388-1.169-1.011-1.169s-1.094,0.516-1.094,1.238v2.241h-0.585
				v-3.927h0.585v0.661c0.259-0.387,0.607-0.745,1.269-0.745c0.638,0,1.048,0.342,1.261,0.783
				C334.21,66.031,334.627,65.681,335.312,65.681z"/>
			<path fill="#939598" d="M276.169,75.031l-0.44-0.319c0.479-0.714,0.98-1.132,1.915-1.132c0.964,0,1.647,0.638,1.647,1.512
				c0,0.782-0.41,1.261-1.344,2.074l-1.421,1.261h2.818v0.547h-3.714V78.51l1.929-1.702c0.812-0.729,1.109-1.139,1.109-1.671
				c0-0.622-0.494-1.019-1.071-1.019C276.99,74.118,276.595,74.439,276.169,75.031z"/>
			<path fill="#939598" d="M282.526,79.064c-1.376,0-2.241-1.246-2.241-2.742c0-1.496,0.881-2.757,2.256-2.757
				c1.368,0,2.233,1.245,2.233,2.742C284.774,77.803,283.893,79.064,282.526,79.064z M282.526,74.111
				c-0.996,0-1.618,1.018-1.618,2.196c0,1.177,0.638,2.21,1.633,2.21s1.61-1.026,1.61-2.196
				C284.15,75.153,283.521,74.111,282.526,74.111z"/>
			<path fill="#939598" d="M285.965,73.655h0.714v0.038l-0.615,2.029h-0.326L285.965,73.655z"/>
			<path fill="#939598" d="M287.62,73.655h3.608v0.448l-2.416,4.869h-0.668l2.4-4.77h-2.925V73.655z"/>
			<path fill="#939598" d="M292.351,73.655h0.706v0.038l-0.614,2.029h-0.32L292.351,73.655z M293.84,73.655h0.698v0.038
				l-0.614,2.029h-0.319L293.84,73.655z"/>
			<path fill="#939598" d="M301.312,78.972h-0.677l-1.216-1.602l-1.223,1.602h-0.653l1.543-1.998l-1.481-1.93h0.669l1.161,1.519
				l1.162-1.519h0.653l-1.488,1.914L301.312,78.972z"/>
			<path fill="#939598" d="M304.545,74.196v-0.54h3.396v0.441l-1.671,1.854c0.935,0.076,1.755,0.523,1.755,1.503
				c0,0.958-0.791,1.61-1.777,1.61c-0.889,0-1.55-0.387-1.982-0.949l0.433-0.388c0.411,0.501,0.904,0.791,1.558,0.791
				c0.646,0,1.162-0.41,1.162-1.041c0-0.668-0.607-1.033-1.489-1.033h-0.342l-0.121-0.357l1.679-1.891L304.545,74.196
				L304.545,74.196z"/>
			<path fill="#939598" d="M309.443,75.031l-0.439-0.319c0.478-0.714,0.979-1.132,1.914-1.132c0.965,0,1.648,0.638,1.648,1.512
				c0,0.782-0.41,1.261-1.345,2.074l-1.421,1.261h2.818v0.547h-3.715V78.51l1.93-1.702c0.812-0.729,1.108-1.139,1.108-1.671
				c0-0.622-0.494-1.019-1.071-1.019C310.265,74.118,309.869,74.439,309.443,75.031z"/>
			<path fill="#939598" d="M313.811,73.655h0.714v0.038l-0.616,2.029h-0.327L313.811,73.655z"/>
			<path fill="#939598" d="M317.66,79.064c-1.375,0-2.241-1.246-2.241-2.742c0-1.496,0.882-2.757,2.256-2.757
				c1.368,0,2.233,1.245,2.233,2.742C319.908,77.803,319.027,79.064,317.66,79.064z M317.66,74.111
				c-0.995,0-1.618,1.018-1.618,2.196c0,1.177,0.639,2.21,1.633,2.21c0.995,0,1.61-1.026,1.61-2.196
				C319.285,75.153,318.655,74.111,317.66,74.111z"/>
			<path fill="#939598" d="M321.099,73.655h0.707v0.038l-0.616,2.029h-0.318L321.099,73.655z M322.588,73.655h0.699v0.038
				l-0.616,2.029h-0.317L322.588,73.655z"/>
		</g>
		<g>
			<path fill="#939598" d="M98.085,65.704c0,0.699-0.425,1.055-0.843,1.238c0.63,0.19,1.139,0.555,1.139,1.291
				c0,0.919-0.767,1.459-1.93,1.459h-2.362v-5.318h2.264C97.401,64.374,98.085,64.891,98.085,65.704z M97.478,65.787
				c0-0.531-0.417-0.873-1.178-0.873h-1.617v1.83h1.572C96.977,66.745,97.478,66.418,97.478,65.787z M97.773,68.196
				c0-0.585-0.485-0.919-1.412-0.919h-1.679v1.876h1.785C97.272,69.153,97.773,68.796,97.773,68.196z"/>
			<path fill="#939598" d="M101.205,69.274c0.539,0,0.919-0.221,1.238-0.554l0.364,0.326c-0.396,0.441-0.873,0.737-1.617,0.737
				c-1.079,0-1.961-0.828-1.961-2.051c0-1.141,0.798-2.052,1.885-2.052c1.161,0,1.829,0.927,1.829,2.082
				c0,0.053,0,0.114-0.007,0.182h-3.114C99.907,68.796,100.514,69.274,101.205,69.274z M102.353,67.511
				c-0.061-0.713-0.471-1.336-1.253-1.336c-0.685,0-1.2,0.57-1.276,1.336H102.353z"/>
			<path fill="#939598" d="M107.121,69.691v-0.789c-0.318,0.47-0.782,0.873-1.504,0.873c-0.941,0-1.876-0.744-1.876-2.043
				c0-1.292,0.935-2.052,1.876-2.052c0.729,0,1.2,0.396,1.504,0.835v-2.37h0.585v5.544L107.121,69.691L107.121,69.691z
				 M105.723,66.205c-0.759,0-1.382,0.562-1.382,1.52c0,0.934,0.638,1.527,1.382,1.527c0.729,0,1.421-0.607,1.421-1.527
				C107.144,66.813,106.453,66.205,105.723,66.205z"/>
			<path fill="#939598" d="M109.596,69.691h-0.584v-3.926h0.584v1.025c0.289-0.653,0.858-1.125,1.603-1.093v0.63h-0.046
				c-0.859,0-1.558,0.615-1.558,1.8L109.596,69.691L109.596,69.691z"/>
			<path fill="#939598" d="M113.712,69.783c-1.178,0-2.036-0.926-2.036-2.043c0-1.117,0.865-2.059,2.051-2.059
				c1.178,0,2.044,0.927,2.044,2.044C115.771,68.841,114.896,69.783,113.712,69.783z M113.712,66.198
				c-0.851,0-1.436,0.675-1.436,1.527c0,0.851,0.623,1.533,1.45,1.533c0.851,0,1.443-0.675,1.443-1.519
				C115.17,66.882,114.539,66.198,113.712,66.198z"/>
			<path fill="#939598" d="M118.617,69.783c-1.178,0-2.036-0.926-2.036-2.043c0-1.117,0.865-2.059,2.051-2.059
				c1.178,0,2.044,0.927,2.044,2.044C120.676,68.841,119.802,69.783,118.617,69.783z M118.617,66.198
				c-0.851,0-1.436,0.675-1.436,1.527c0,0.851,0.623,1.533,1.45,1.533c0.851,0,1.443-0.675,1.443-1.519
				C120.076,66.882,119.444,66.198,118.617,66.198z"/>
			<path fill="#939598" d="M126.227,65.681c0.903,0,1.459,0.608,1.459,1.581v2.432h-0.585v-2.295c0-0.759-0.38-1.184-1.019-1.184
				c-0.592,0-1.087,0.44-1.087,1.215v2.264h-0.577v-2.31c0-0.737-0.387-1.169-1.01-1.169s-1.094,0.516-1.094,1.238v2.241h-0.584
				v-3.927h0.584v0.661c0.259-0.387,0.608-0.745,1.269-0.745c0.638,0,1.048,0.342,1.262,0.783
				C125.125,66.031,125.543,65.681,126.227,65.681z"/>
			<path fill="#939598" d="M99.61,73.618h0.44v5.355h-0.593v-4.733l-1.003,0.312l-0.144-0.486L99.61,73.618z"/>
			<path fill="#939598" d="M102.329,73.618h0.44v5.355h-0.593v-4.733l-1.002,0.312l-0.145-0.486L102.329,73.618z"/>
			<path fill="#939598" d="M104.258,73.655h0.714v0.038l-0.615,2.029h-0.326L104.258,73.655z"/>
			<path fill="#939598" d="M111.738,78.972h-0.676l-1.215-1.602l-1.223,1.602h-0.653l1.542-1.998l-1.48-1.93h0.668l1.162,1.519
				l1.162-1.519h0.652l-1.488,1.914L111.738,78.972z"/>
			<path fill="#939598" d="M115.822,73.618h0.44v5.355h-0.592v-4.733l-1.003,0.312l-0.144-0.486L115.822,73.618z"/>
			<path fill="#939598" d="M117.933,73.655h3.061v0.555h-2.536l-0.114,1.702c0.312-0.136,0.607-0.235,1.049-0.235
				c1.032,0,1.839,0.615,1.839,1.633c0,1.049-0.791,1.755-1.899,1.755c-0.76,0-1.421-0.364-1.898-0.843l0.395-0.433
				c0.463,0.448,0.972,0.729,1.512,0.729c0.76,0,1.283-0.502,1.283-1.186c0-0.668-0.539-1.124-1.321-1.124
				c-0.448,0-0.806,0.137-1.117,0.304l-0.402-0.266L117.933,73.655z"/>
			<path fill="#939598" d="M122.397,73.655h0.714v0.038l-0.615,2.029h-0.326L122.397,73.655z"/>
		</g>
		<g>
			<path fill="#939598" d="M253.517,150.767h-2.522v1.412h2.257v0.426h-2.257v1.448h2.552v0.425h-3.02v-4.136h2.99V150.767z"/>
			<path fill="#939598" d="M254.743,154.478h-0.456v-3.055h0.456v0.532c0.201-0.332,0.52-0.597,1.046-0.597
				c0.738,0,1.171,0.497,1.171,1.223v1.896h-0.456v-1.784c0-0.567-0.307-0.922-0.845-0.922c-0.526,0-0.915,0.384-0.915,0.958
				L254.743,154.478L254.743,154.478z"/>
			<path fill="#939598" d="M258.306,153.611c0,0.371,0.206,0.508,0.514,0.508c0.153,0,0.283-0.029,0.442-0.106v0.39
				c-0.159,0.084-0.33,0.131-0.549,0.131c-0.49,0-0.862-0.243-0.862-0.863v-1.844h-0.425v-0.402h0.425v-0.923h0.456v0.923h0.968
				v0.402h-0.968L258.306,153.611L258.306,153.611z"/>
			<path fill="#939598" d="M260.413,154.478h-0.455v-3.055h0.455v0.797c0.225-0.507,0.668-0.874,1.247-0.85v0.49h-0.035
				c-0.669,0-1.212,0.478-1.212,1.4V154.478L260.413,154.478z"/>
			<path fill="#939598" d="M263.84,154.579c-0.261,0.632-0.556,0.862-1.018,0.862c-0.253,0-0.442-0.053-0.65-0.153l0.154-0.361
				c0.147,0.077,0.283,0.112,0.478,0.112c0.271,0,0.443-0.142,0.627-0.573l-1.389-3.043h0.502l1.111,2.547l0.981-2.547h0.484
				L263.84,154.579z"/>
		</g>
		<g>
			<path fill="#939598" d="M354.07,120.874v5.317h-0.601v-5.317H354.07z"/>
			<path fill="#939598" d="M356.827,126.266c-0.562,0-1.185-0.22-1.626-0.577l0.297-0.417c0.426,0.318,0.896,0.501,1.359,0.501
				c0.471,0,0.812-0.243,0.812-0.623v-0.015c0-0.396-0.463-0.547-0.979-0.691c-0.615-0.175-1.299-0.388-1.299-1.109v-0.016
				c0-0.676,0.562-1.124,1.337-1.124c0.479,0,1.01,0.168,1.413,0.433l-0.266,0.441c-0.365-0.236-0.782-0.38-1.162-0.38
				c-0.464,0-0.76,0.243-0.76,0.57v0.016c0,0.371,0.486,0.516,1.011,0.675c0.606,0.184,1.26,0.419,1.26,1.125v0.015
				C358.225,125.835,357.608,126.266,356.827,126.266z"/>
			<path fill="#939598" d="M359.362,126.191v-5.545h0.585v5.545H359.362z"/>
			<path fill="#939598" d="M361.534,123.016l-0.175-0.479c0.435-0.197,0.859-0.327,1.428-0.327c1.071,0,1.671,0.547,1.671,1.58v2.4
				h-0.562v-0.592c-0.272,0.356-0.729,0.676-1.421,0.676c-0.729,0-1.466-0.41-1.466-1.23c0-0.836,0.685-1.276,1.679-1.276
				c0.502,0,0.858,0.068,1.208,0.166v-0.136c0-0.706-0.433-1.071-1.169-1.071C362.264,122.727,361.899,122.849,361.534,123.016z
				 M361.603,125.02c0,0.503,0.456,0.791,0.988,0.791c0.721,0,1.313-0.44,1.313-1.063v-0.379c-0.289-0.085-0.676-0.167-1.155-0.167
				C362.013,124.201,361.603,124.52,361.603,125.02z"/>
			<path fill="#939598" d="M366.288,126.191h-0.584v-3.927h0.584v0.684c0.258-0.426,0.668-0.767,1.344-0.767
				c0.951,0,1.505,0.639,1.505,1.572v2.438h-0.585v-2.295c0-0.728-0.396-1.184-1.086-1.184c-0.676,0-1.178,0.493-1.178,1.23V126.191
				z"/>
			<path fill="#939598" d="M373.532,126.191V125.4c-0.318,0.473-0.781,0.874-1.504,0.874c-0.94,0-1.876-0.744-1.876-2.043
				c0-1.292,0.934-2.052,1.876-2.052c0.729,0,1.202,0.396,1.504,0.836v-2.37h0.585v5.545L373.532,126.191L373.532,126.191z
				 M372.136,122.706c-0.76,0-1.383,0.561-1.383,1.519c0,0.934,0.638,1.526,1.383,1.526c0.729,0,1.421-0.607,1.421-1.526
				C373.556,123.312,372.864,122.706,372.136,122.706z"/>
		</g>
	</g>
</g>
</svg>
