<?xml version="1.0" encoding="utf-8"?>
<!-- Generator: Adobe Illustrator 15.0.2, SVG Export Plug-In . SVG Version: 6.00 Build 0)  -->
<!DOCTYPE svg PUBLIC "-//W3C//DTD SVG 1.1//EN" "http://www.w3.org/Graphics/SVG/1.1/DTD/svg11.dtd">
<svg version="1.1" id="Layer_1" xmlns="http://www.w3.org/2000/svg" xmlns:xlink="http://www.w3.org/1999/xlink" x="0px" y="0px"
	 width="495px" height="195.816px" viewBox="2.5 153.342 495 195.816" enable-background="new 2.5 153.342 495 195.816"
	 xml:space="preserve">
<g id="_x32_0_x25___PMS_2985_fill" display="none">
	<polygon display="inline" fill="#EBEEEF" points="3.022,18.941 3.022,175.441 106.022,175.441 106.022,205.441 287.521,205.441 
		314.521,179.941 520.021,179.941 520.021,20.941 306.521,20.941 306.521,9.941 170.522,9.941 170.522,19.941 	"/>
</g>
<g>
	<g id="_x32_0_x25__grey_fill">
		<rect x="370.848" y="170.501" fill="#D1D3D4" width="46.755" height="4.423"/>
		<rect x="283.339" y="170.185" fill="#D1D3D4" width="17.375" height="4.707"/>
		<rect x="165.345" y="162.603" fill="#D1D3D4" width="46.913" height="11.848"/>
		<rect x="77.917" y="169.474" fill="#D1D3D4" width="18.007" height="5.923"/>
		<rect x="488.049" y="168.921" fill="#D1D3D4" width="6.636" height="6.013"/>
		<polygon fill="#D1D3D4" points="286.656,337.223 286.656,315.662 326.698,315.662 326.698,321.822 301.109,321.822 		"/>
		<polygon fill="#D1D3D4" points="356.078,322.297 356.078,316.137 424.788,316.137 424.788,305 450.14,305 450.14,316.373 
			494.92,316.373 494.92,322.061 		"/>
	</g>
	<g id="icons">
		<polygon fill="#FFFFFF" stroke="#939598" points="170.717,269.381 170.717,327.352 218.807,327.352 218.807,345.201 
			151.762,345.201 151.762,268.75 		"/>
		<g>
			<polygon fill="none" stroke="#939598" points="96.946,268.35 98.508,268.398 98.523,290.932 96.939,290.943 			"/>
			<path fill="none" stroke="#939598" d="M97.653,290.961c12.428-0.42,22.161-10.658,21.736-23.086"/>
		</g>
		<g>
			<polygon fill="none" stroke="#939598" points="353.052,322.654 351.468,322.666 351.454,300.094 353.075,300.08 			"/>
			<path fill="none" stroke="#939598" d="M352.384,300.062c-12.43,0.42-22.159,10.698-21.735,23.125"/>
		</g>
		<g>
			<polygon fill="none" stroke="#939598" points="371.02,251.291 371.027,249.788 392.473,249.771 392.465,251.275 			"/>
			<path fill="none" stroke="#939598" d="M392.48,250.598c-0.4-11.806-10.104-21.052-21.91-20.647"/>
		</g>
		<g>
			<polygon fill="none" stroke="#939598" points="166.044,259.053 166.035,257.549 144.591,257.533 144.598,259.039 			"/>
			<path fill="none" stroke="#939598" d="M144.581,258.361c0.402-11.81,10.106-21.055,21.913-20.65"/>
		</g>
		<g>
			<polygon fill="none" stroke="#939598" points="371.318,265.592 371.312,267.096 349.868,267.109 349.875,265.604 			"/>
			<path fill="none" stroke="#939598" d="M349.857,266.283c0.4,11.807,10.105,21.055,21.914,20.646"/>
		</g>
		<g>
			<polygon fill="none" stroke="#939598" points="282.921,316.117 281.654,316.129 281.643,298.068 282.941,298.059 			"/>
			<path fill="none" stroke="#939598" d="M282.389,298.045c-9.943,0.338-17.729,8.559-17.393,18.5"/>
		</g>
		<g>
			<polygon fill="none" stroke="#939598" points="24.129,268.656 25.691,268.707 25.706,291.238 24.121,291.25 			"/>
			<path fill="none" stroke="#939598" d="M24.836,291.268c12.427-0.422,22.161-10.656,21.737-23.086"/>
		</g>
		<g>
			<polygon fill="none" stroke="#939598" points="378.673,257.766 380.234,257.814 380.25,280.348 378.665,280.359 			"/>
			<path fill="none" stroke="#939598" d="M379.38,280.377c12.427-0.42,22.161-10.658,21.737-23.084"/>
		</g>
		<g>
			<polygon fill="none" stroke="#939598" points="455.586,257.688 457.148,257.736 457.163,280.27 455.578,280.281 			"/>
			<path fill="none" stroke="#939598" d="M456.293,280.299c12.429-0.42,22.16-10.658,21.738-23.086"/>
		</g>
		<polyline fill="#FFFFFF" stroke="#939598" points="400.7,315.664 400.7,298.072 372.27,298.072 372.27,316.137 		"/>
		<line fill="none" stroke="#939598" x1="299.451" y1="282.334" x2="299.451" y2="315.504"/>
		<rect x="196.147" y="272.225" fill="#FFFFFF" stroke="#939598" width="51.494" height="21.166"/>
		<polyline fill="none" stroke="#939598" points="14.892,270.172 14.892,306.658 57.777,306.658 57.777,270.172 		"/>
		<polyline fill="#FFFFFF" stroke="#939598" points="151.446,300.736 133.904,300.736 133.904,269.697 150.972,269.697 		"/>
		<line fill="none" stroke="#939598" x1="8.258" y1="176.259" x2="165.819" y2="176.259"/>
		<line fill="none" stroke="#939598" x1="487.339" y1="176.108" x2="300.161" y2="176.108"/>
		<g>
			<polygon fill="none" stroke="#939598" points="308.023,310.941 308.033,309.438 329.479,309.424 329.468,310.928 			"/>
			<path fill="none" stroke="#939598" d="M329.486,310.25c-0.401-11.807-10.106-21.053-21.912-20.648"/>
		</g>
		<polyline fill="none" stroke="#939598" stroke-dasharray="1.5,1.5,1.5,1.5,1.5,1.5" points="13.151,269.697 13.151,308.428 
			59.309,308.428 59.309,269.697 		"/>
		
			<line fill="none" stroke="#939598" stroke-dasharray="1.5,1.5,1.5,1.5,1.5,1.5" x1="297.557" y1="282.018" x2="297.557" y2="315.9"/>
		<polyline fill="none" stroke="#939598" points="484.732,259.244 484.732,303.816 451.324,303.816 		"/>
		<polyline fill="none" stroke="#939598" stroke-dasharray="1.5,1.5,1.5,1.5,1.5,1.5" points="451.088,305.807 486.525,305.807 
			486.525,259.746 		"/>
		<g>
			<rect x="246.913" y="168.042" fill="none" stroke="#939598" width="35.54" height="1.429"/>
			<rect x="216.348" y="169.456" fill="none" stroke="#939598" width="38.857" height="1.431"/>
		</g>
		<g>
			<rect x="290.686" y="160.88" fill="none" stroke="#939598" width="2.725" height="2.725"/>
			<line fill="none" stroke="#939598" x1="290.921" y1="162.894" x2="211.429" y2="162.894"/>
			<line fill="none" stroke="#939598" x1="290.686" y1="163.604" x2="290.686" y2="169.933"/>
			<line fill="none" stroke="#939598" x1="211.429" y1="160.88" x2="291.158" y2="160.88"/>
			<line fill="none" stroke="#939598" x1="293.409" y1="163.604" x2="293.409" y2="169.948"/>
		</g>
		<g>
			<path fill="#FFFFFF" stroke="#939598" stroke-miterlimit="10" d="M90.367,303.16c0-4.229-2.57-8.885-5.737-8.885
				s-5.726,4.654-5.726,8.885c0,4.229,2.558,6.432,5.726,6.432S90.367,307.391,90.367,303.16"/>
			<path fill="#FFFFFF" stroke="#939598" d="M90.367,303.16c0-4.229-2.57-8.885-5.737-8.885s-5.726,4.654-5.726,8.885
				c0,4.229,2.558,6.432,5.726,6.432S90.367,307.391,90.367,303.16z"/>
			<path fill="#FFFFFF" stroke="#939598" stroke-miterlimit="10" d="M81.197,308.205c0-0.238-0.194-0.432-0.432-0.432h-1.997
				c-0.236,0-0.432,0.191-0.432,0.432v0.072c0,0.236,0.194,0.432,0.432,0.432h1.997c0.237,0,0.432-0.193,0.432-0.432V308.205z"/>
			<path fill="#FFFFFF" stroke="#939598" d="M81.197,308.205c0-0.238-0.194-0.432-0.432-0.432h-1.997
				c-0.236,0-0.432,0.191-0.432,0.432v0.072c0,0.236,0.194,0.432,0.432,0.432h1.997c0.237,0,0.432-0.193,0.432-0.432V308.205z"/>
			<path fill="#FFFFFF" stroke="#939598" stroke-miterlimit="10" d="M78.034,308.721c-0.718,0-1.303,1.949-1.303,2.668
				c0,0.729,0.585,2.678,1.303,2.678h13.092c0.721,0,1.303-1.949,1.303-2.678c0-0.721-0.583-2.666-1.303-2.666L78.034,308.721z"/>
			<path fill="#FFFFFF" stroke="#939598" d="M78.034,308.721c-0.718,0-1.303,1.949-1.303,2.668c0,0.729,0.585,2.678,1.303,2.678
				h13.092c0.721,0,1.303-1.949,1.303-2.678c0-0.721-0.583-2.666-1.303-2.666L78.034,308.721z"/>
			<path fill="#FFFFFF" stroke="#939598" stroke-miterlimit="10" d="M88.848,302.984c0-3.109-1.888-6.535-4.216-6.535
				c-2.329,0-4.215,3.424-4.215,6.535c0,3.104,1.886,4.723,4.215,4.723C86.96,307.707,88.848,306.092,88.848,302.984"/>
			<path fill="#FFFFFF" stroke="#939598" d="M88.848,302.984c0-3.109-1.888-6.535-4.216-6.535c-2.329,0-4.215,3.424-4.215,6.535
				c0,3.104,1.886,4.723,4.215,4.723C86.96,307.707,88.848,306.092,88.848,302.984z"/>
		</g>
		<g>
			<g>
				<rect x="107.138" y="322.057" fill="#FFFFFF" stroke="#939598" width="43.306" height="22.393"/>
				<path fill="#FFFFFF" stroke="#939598" d="M128.791,333.252"/>
				<path fill="#FFFFFF" stroke="#939598" d="M128.939,333.252"/>
				<path fill="#FFFFFF" stroke="#939598" d="M143.623,333.252"/>
			</g>
			<circle fill="#FFFFFF" stroke="#939598" cx="140.573" cy="333.146" r="0.919"/>
			<path fill="#FFFFFF" stroke="#939598" d="M109.611,333.184c0,6.416,1.479,8.768,3.556,8.768c0,0,31.123,0,31.631,0
				c0.507,0,1.557-0.141,1.557-1.48c0-1.344,0-7.285,0-7.285v-0.018c0,0,0-5.941,0-7.285c0-1.342-1.048-1.479-1.557-1.479
				c-0.509,0-31.61,0-31.61,0l-0.021,0.002C111.091,324.402,109.611,326.807,109.611,333.184z"/>
			<path fill="#FFFFFF" stroke="#939598" d="M147.964,335.07c-0.521-0.002-0.937,0.418-0.937,0.943c0,0.51,0.416,0.932,0.937,0.936
				c0.517-0.004,0.942-0.426,0.942-0.936C148.906,335.488,148.485,335.068,147.964,335.07z"/>
			<path fill="#FFFFFF" stroke="#939598" d="M147.964,329.252c-0.521-0.006-0.937,0.422-0.937,0.938
				c0,0.516,0.416,0.938,0.937,0.938c0.517,0,0.942-0.422,0.937-0.938C148.906,329.672,148.48,329.252,147.964,329.252z"/>
			<path fill="#FFFFFF" stroke="#939598" d="M148.241,334.41c0.77,0,1.392-0.521,1.394-1.289c-0.002-0.771-0.624-1.189-1.394-1.189
				l-5.3,0.494c-0.521,0-0.521,1.404,0,1.404L148.241,334.41z"/>
		</g>
		<g>
			<path fill="#FFFFFF" stroke="#939598" stroke-miterlimit="10" d="M418.107,303.309c0-4.229-2.569-8.887-5.736-8.887
				s-5.727,4.658-5.727,8.887c0,4.23,2.56,6.432,5.727,6.432S418.107,307.539,418.107,303.309"/>
			<path fill="#FFFFFF" stroke="#939598" d="M418.107,303.309c0-4.229-2.569-8.887-5.736-8.887s-5.727,4.658-5.727,8.887
				c0,4.23,2.56,6.432,5.727,6.432S418.107,307.539,418.107,303.309z"/>
			<path fill="#FFFFFF" stroke="#939598" stroke-miterlimit="10" d="M408.938,308.354c0-0.234-0.193-0.432-0.433-0.432h-1.994
				c-0.236,0-0.433,0.195-0.433,0.432v0.074c0,0.236,0.193,0.43,0.433,0.43h1.994c0.237,0,0.433-0.191,0.433-0.43V308.354z"/>
			<path fill="#FFFFFF" stroke="#939598" d="M408.938,308.354c0-0.234-0.193-0.432-0.433-0.432h-1.994
				c-0.236,0-0.433,0.195-0.433,0.432v0.074c0,0.236,0.193,0.43,0.433,0.43h1.994c0.237,0,0.433-0.191,0.433-0.43V308.354z"/>
			<path fill="#FFFFFF" stroke="#939598" stroke-miterlimit="10" d="M405.774,308.869c-0.72,0-1.305,1.949-1.305,2.666
				c0,0.729,0.585,2.678,1.305,2.678h13.092c0.721,0,1.304-1.949,1.304-2.678c0-0.719-0.583-2.666-1.304-2.666H405.774z"/>
			<path fill="#FFFFFF" stroke="#939598" d="M405.774,308.869c-0.72,0-1.305,1.949-1.305,2.666c0,0.729,0.585,2.678,1.305,2.678
				h13.092c0.721,0,1.304-1.949,1.304-2.678c0-0.719-0.583-2.666-1.304-2.666H405.774z"/>
			<path fill="#FFFFFF" stroke="#939598" stroke-miterlimit="10" d="M416.588,303.133c0-3.105-1.889-6.535-4.217-6.535
				s-4.215,3.428-4.215,6.535s1.887,4.725,4.215,4.725S416.588,306.24,416.588,303.133"/>
			<path fill="#FFFFFF" stroke="#939598" d="M416.588,303.133c0-3.105-1.889-6.535-4.217-6.535s-4.215,3.428-4.215,6.535
				s1.887,4.725,4.215,4.725S416.588,306.24,416.588,303.133z"/>
		</g>
		<g>
			<g>
				<g>
					<rect x="425.38" y="259.162" fill="#FFFFFF" stroke="#939598" width="23.215" height="44.307"/>
					<path fill="#FFFFFF" stroke="#939598" d="M437.006,281.908"/>
				</g>
				<g>
					<polyline fill="#FFFFFF" stroke="#939598" points="437.231,302.117 446.511,302.117 446.511,260.826 427.466,260.826 
						427.466,302.117 436.375,302.117 					"/>
					<path fill="#FFFFFF" stroke="#939598" d="M437.006,281.908"/>
				</g>
				<line fill="none" stroke="#939598" x1="427.466" y1="302.117" x2="436.364" y2="282.783"/>
				<line fill="none" stroke="#939598" x1="437.681" y1="281.059" x2="446.511" y2="260.826"/>
				<line fill="none" stroke="#939598" x1="427.466" y1="260.826" x2="436.277" y2="280.959"/>
				<line fill="none" stroke="#939598" x1="437.703" y1="282.814" x2="446.511" y2="302.117"/>
				<g>
					<path fill="#FFFFFF" stroke="#939598" d="M437.999,281.908c0-0.568-0.557-1.027-0.993-1.027c-0.436,0-0.926,0.459-0.926,1.027
						c0,0.564,0.49,1.025,0.926,1.025C437.442,282.936,437.999,282.475,437.999,281.908z"/>
					<path fill="#FFFFFF" stroke="#939598" d="M437.006,281.908"/>
				</g>
			</g>
			<path fill="#FFFFFF" stroke="#939598" d="M437.968,300.604c0-0.584-2.112-0.584-2.112,0s0.474,1.059,1.056,1.059
				C437.496,301.66,437.968,301.188,437.968,300.604z"/>
			<polyline fill="#FFFFFF" stroke="#939598" points="436.692,303.748 436.692,301.725 437.281,301.725 437.281,303.75 			"/>
		</g>
		<g>
			<g>
				<g>
					<g>
						<rect x="263.25" y="319.193" fill="#FFFFFF" stroke="#939598" width="19.132" height="17.574"/>
						<path fill="#FFFFFF" stroke="#939598" d="M272.816,327.398"/>
						<polyline fill="#FFFFFF" stroke="#939598" points="278.621,324.438 278.621,321.764 276.311,321.143 269.232,321.143 
							266.893,321.764 266.893,324.438 						"/>
						<line fill="none" stroke="#939598" x1="263.111" y1="324.438" x2="282.382" y2="324.438"/>
						<path fill="#FFFFFF" stroke="#939598" d="M272.757,326.502"/>
					</g>
				</g>
			</g>
			<polygon fill="#FFFFFF" stroke="#939598" points="264.182,323.285 265.727,323.281 266.064,324.359 263.841,324.365 			"/>
		</g>
		<g>
			<g>
				<path fill="#FFFFFF" stroke="#939598" d="M192.056,343.146c-0.403,0-0.729-0.325-0.729-0.729v-12.74
					c0-0.405,0.328-0.73,0.729-0.73h21.615c0.403,0,0.73,0.328,0.73,0.73v12.74c0,0.406-0.327,0.729-0.73,0.729H192.056z"/>
				<path fill="#FFFFFF" stroke="#939598" d="M202.786,336.596"/>
			</g>
			<g>
				<circle fill="#FFFFFF" stroke="#939598" cx="202.786" cy="335.732" r="0.826"/>
				<path fill="#FFFFFF" stroke="#939598" d="M202.786,335.734"/>
			</g>
			<g>
				<g>
					<rect x="199.181" y="340.914" fill="#FFFFFF" stroke="#939598" width="7.211" height="1.725"/>
					<path fill="#FFFFFF" stroke="#939598" d="M202.786,341.777"/>
				</g>
				<g>
					<rect x="202.419" y="337.561" fill="#FFFFFF" stroke="#939598" width="0.736" height="3.398"/>
					<path fill="#FFFFFF" stroke="#939598" d="M202.786,339.479"/>
				</g>
				<g>
					<circle fill="#FFFFFF" stroke="#939598" cx="202.786" cy="341.76" r="0.803"/>
					<path fill="#FFFFFF" stroke="#939598" d="M202.786,341.76"/>
				</g>
			</g>
			<g>
				<path fill="#FFFFFF" stroke="#939598" d="M202.786,335.734"/>
				<path fill="none" stroke="#939598" d="M202.342,340.318h-9.087c-0.424,0-0.769-0.346-0.769-0.77v-8.74
					c0-0.422,0.344-0.768,0.769-0.768h19.219c0.424,0,0.77,0.344,0.77,0.768v8.74c0,0.422-0.344,0.77-0.77,0.77h-9.218"/>
			</g>
		</g>
		<g>
			<polyline fill="none" stroke="#939598" stroke-dasharray="1.5,1,1.5,1,1.5,1" points="188.452,326.703 188.452,342.793 
				172.674,342.793 172.674,327.066 			"/>
			<polyline fill="#FFFFFF" stroke="#939598" points="172.651,327.066 172.651,326.109 188.452,326.109 188.452,326.697 			"/>
		</g>
		<g>
			<g>
				<rect x="153.701" y="290.92" fill="#FFFFFF" stroke="#939598" width="18.718" height="22.035"/>
				<path fill="#FFFFFF" stroke="#939598" d="M163.06,301.938"/>
			</g>
			<g>
				<g>
					<circle fill="#FFFFFF" stroke="#939598" cx="168.273" cy="306.976" r="2.677"/>
					<path fill="#FFFFFF" stroke="#939598" d="M168.273,306.975"/>
				</g>
				<g>
					<circle fill="#FFFFFF" stroke="#939598" stroke-width="0.8" cx="168.272" cy="307.002" r="1.885"/>
					<path fill="#FFFFFF" stroke="#939598" d="M168.273,307.004"/>
				</g>
			</g>
			<g>
				<g>
					<circle fill="#FFFFFF" stroke="#939598" cx="160.454" cy="296.278" r="2.677"/>
					<path fill="#FFFFFF" stroke="#939598" d="M160.454,296.279"/>
				</g>
				<g>
					<circle fill="#FFFFFF" stroke="#939598" stroke-width="0.8" cx="160.453" cy="296.252" r="1.885"/>
					<path fill="#FFFFFF" stroke="#939598" d="M160.454,296.252"/>
				</g>
			</g>
			<g>
				<g>
					<circle fill="#FFFFFF" stroke="#939598" cx="160.481" cy="307.012" r="3.051"/>
					<path fill="#FFFFFF" stroke="#939598" d="M160.481,307.012"/>
				</g>
				<g>
					<circle fill="#FFFFFF" stroke="#939598" stroke-width="0.8" cx="160.481" cy="306.981" r="2.149"/>
					<path fill="#FFFFFF" stroke="#939598" d="M160.481,306.982"/>
				</g>
			</g>
			<g>
				<g>
					<circle fill="#FFFFFF" stroke="#939598" cx="168.479" cy="296.291" r="3.051"/>
					<path fill="#FFFFFF" stroke="#939598" d="M168.479,296.291"/>
				</g>
				<g>
					<circle fill="#FFFFFF" stroke="#939598" stroke-width="0.8" cx="168.479" cy="296.261" r="2.149"/>
					<path fill="#FFFFFF" stroke="#939598" d="M168.479,296.26"/>
				</g>
			</g>
			<line fill="none" stroke="#939598" x1="156.291" y1="312.984" x2="156.291" y2="290.92"/>
			<line fill="none" stroke="#939598" x1="155.257" y1="312.955" x2="155.257" y2="290.92"/>
		</g>
		<g>
			<g>
				<rect x="220.01" y="322.865" fill="#FFFFFF" stroke="#939598" width="23.601" height="20.818"/>
				<path fill="#FFFFFF" stroke="#939598" d="M233.031,333.275"/>
			</g>
			<line fill="none" stroke="#939598" x1="219.954" y1="324.322" x2="243.611" y2="324.322"/>
			<rect x="239.728" y="321.838" fill="#FFFFFF" stroke="#939598" width="1.914" height="1.014"/>
			<path fill="#FFFFFF" stroke="#939598" d="M240.685,322.4"/>
		</g>
		<g>
			<polyline fill="#FFFFFF" stroke="#939598" points="256.468,323.256 258.204,323.256 258.204,343.947 244.779,343.947 
				244.779,323.256 246.515,323.256 			"/>
			<g>
				<g>
					<g>
						<polygon fill="none" stroke="#939598" stroke-width="0.7" points="251.406,314.836 252.593,315.486 247.656,323.631 
							246.47,322.979 						"/>
						<path fill="none" stroke="#939598" stroke-width="0.8" d="M248.63,319.893"/>
					</g>
					<path fill="none" stroke="#939598" stroke-width="0.8" d="M251.859,315.227c3.035,1.84,4.668,5.113,4.562,8.426"/>
				</g>
			</g>
		</g>
		<polyline fill="none" stroke="#939598" stroke-dasharray="1.5,1.5,1.5,1.5,1.5,1.5" points="162.819,269.381 162.819,326.877 
			171.112,335.17 245.429,335.17 		"/>
		<g>
			<g>
				<g>
					<path fill="none" stroke="#939598" d="M386.814,305.029"/>
				</g>
				<g>
					<path fill="none" stroke="#939598" d="M386.814,306.037"/>
				</g>
				<g>
					<circle fill="none" stroke="#939598" cx="386.814" cy="305.03" r="0.964"/>
					<path fill="none" stroke="#939598" d="M386.814,305.029"/>
				</g>
				<g>
					<g>
						<rect x="382.771" y="311.072" fill="none" stroke="#939598" width="8.105" height="2.014"/>
						<path fill="none" stroke="#939598" d="M386.814,312.078"/>
					</g>
					<g>
						<rect x="386.386" y="307.162" fill="none" stroke="#939598" width="0.858" height="3.816"/>
						<path fill="none" stroke="#939598" d="M386.814,309.398"/>
					</g>
					<g>
						<circle fill="none" stroke="#939598" cx="386.814" cy="312.06" r="0.935"/>
						<path fill="none" stroke="#939598" d="M386.814,312.059"/>
					</g>
				</g>
			</g>
			<g>
				<rect x="378.734" y="300.244" fill="none" stroke="#939598" width="16.184" height="13.146"/>
				<rect x="380.055" y="301.564" fill="none" stroke="#939598" width="13.51" height="9.455"/>
			</g>
		</g>
		<g>
			<g>
				<g>
					<path fill="none" stroke="#939598" d="M140.786,285.082"/>
				</g>
				<g>
					<path fill="none" stroke="#939598" d="M141.792,285.082"/>
				</g>
				<g>
					<circle fill="none" stroke="#939598" cx="140.786" cy="285.083" r="0.964"/>
					<path fill="none" stroke="#939598" d="M140.786,285.082"/>
				</g>
				<g>
					<g>
						<rect x="146.827" y="281.02" fill="none" stroke="#939598" width="2.014" height="8.105"/>
						<path fill="none" stroke="#939598" d="M147.834,285.082"/>
					</g>
					<g>
						<rect x="142.918" y="284.654" fill="none" stroke="#939598" width="3.82" height="0.855"/>
						<path fill="none" stroke="#939598" d="M145.154,285.082"/>
					</g>
					<g>
						<circle fill="none" stroke="#939598" cx="147.815" cy="285.083" r="0.935"/>
						<path fill="none" stroke="#939598" d="M147.815,285.082"/>
					</g>
				</g>
			</g>
			<g>
				<rect x="136" y="276.979" fill="none" stroke="#939598" width="13.15" height="16.186"/>
				<rect x="137.322" y="278.336" fill="none" stroke="#939598" width="9.458" height="13.51"/>
			</g>
		</g>
	</g>
	<g id="walls">
		<polyline fill="none" stroke="#939598" stroke-width="5" points="165.819,169.924 5,169.968 5,317.4 104.91,317.4 104.91,346.658 
			277.021,346.658 301.505,322.295 330.848,322.295 		"/>
		<line fill="none" stroke="#939598" stroke-width="3" x1="218.273" y1="169.915" x2="212.258" y2="169.916"/>
		<polyline fill="none" stroke="#939598" stroke-width="5" points="353.096,322.295 495,322.295 495,169.869 278.605,169.905 		"/>
		<line fill="none" stroke="#939598" stroke-width="3" x1="370.848" y1="286.871" x2="370.848" y2="315.82"/>
		<line fill="none" stroke="#939598" stroke-width="3" x1="370.848" y1="251.201" x2="370.848" y2="265.592"/>
		<line fill="none" stroke="#939598" stroke-width="3" x1="370.848" y1="170.501" x2="370.848" y2="230.29"/>
		<path fill="none" stroke="#939598" stroke-width="3" d="M488.049,168.921c0,0.948,0,6.278,0,6.278h6.636"/>
		<polyline fill="none" stroke="#939598" stroke-width="3" points="417.603,169.554 417.603,174.924 371.162,174.924 		"/>
		<line fill="none" stroke="#939598" stroke-width="3" x1="308.298" y1="311.082" x2="308.298" y2="316.137"/>
		<polyline fill="none" stroke="#939598" stroke-width="3" points="286.812,336.672 286.812,282.018 308.298,282.018 
			308.218,289.836 		"/>
		<line fill="none" stroke="#939598" stroke-width="3" x1="378.743" y1="258.059" x2="370.531" y2="258.059"/>
		<line fill="none" stroke="#939598" stroke-width="3" x1="455.511" y1="258.059" x2="401.034" y2="258.088"/>
		<line fill="none" stroke="#939598" stroke-width="3" x1="494.684" y1="258.059" x2="477.637" y2="258.059"/>
		<polyline fill="none" stroke="#939598" stroke-width="3" points="449.896,257.691 449.896,316.768 494.367,316.768 		"/>
		<polyline fill="none" stroke="#939598" stroke-width="3" points="448.795,304.834 426.323,304.834 426.222,316.402 
			356.314,316.381 356.314,321.508 		"/>
		<polyline fill="none" stroke="#939598" stroke-width="3" points="283.021,315.85 325.986,315.82 325.986,322.139 		"/>
		<polyline fill="none" stroke="#939598" stroke-width="3" points="260.277,346.148 260.277,316.016 265.311,315.982 		"/>
		<line fill="none" stroke="#939598" stroke-width="3" x1="119.38" y1="268.891" x2="174.98" y2="268.891"/>
		<line fill="none" stroke="#939598" stroke-width="3" x1="46.405" y1="268.891" x2="97.237" y2="268.891"/>
		<line fill="none" stroke="#939598" stroke-width="3" x1="5.02" y1="268.891" x2="23.974" y2="268.891"/>
		<line fill="none" stroke="#939598" stroke-width="3" x1="165.819" y1="237.711" x2="165.819" y2="170.185"/>
		<line fill="none" stroke="#939598" stroke-width="3" x1="165.819" y1="268.75" x2="165.819" y2="259.035"/>
		<line fill="none" stroke="#939598" stroke-width="3" x1="151.898" y1="268.117" x2="151.898" y2="345.516"/>
		<line fill="none" stroke="#939598" stroke-width="3" x1="67.886" y1="268.434" x2="67.886" y2="317.4"/>
		<polyline fill="none" stroke="#939598" stroke-width="3" points="166.834,169.87 166.846,174.608 212.271,174.608 
			212.271,170.343 		"/>
		<polyline fill="none" stroke="#939598" stroke-width="5" points="213.206,171.237 213.206,162.786 165.83,162.786 
			165.918,170.767 		"/>
		<polyline fill="none" stroke="#939598" stroke-width="3" points="283.339,170.185 283.339,175.177 300.714,175.177 
			300.714,170.817 		"/>
		<polyline fill="none" stroke="#939598" stroke-width="3" points="78.628,170.501 78.628,174.608 95.37,174.608 95.37,171.133 		
			"/>
		<line fill="none" stroke="#939598" stroke-width="4" x1="7.547" y1="176.645" x2="7.547" y2="171.133"/>
	</g>
	<g id="windows">
		<g>
			<g>
				<rect x="10.193" y="168.133" fill="#FFFFFF" stroke="#939598" width="65.927" height="3.481"/>
				<line fill="none" stroke="#939598" x1="76.121" y1="169.854" x2="9.483" y2="169.854"/>
				<line fill="none" stroke="#939598" stroke-width="2" x1="54.632" y1="171.765" x2="54.632" y2="168.453"/>
			</g>
			<line fill="none" stroke="#939598" stroke-width="2" x1="32.465" y1="171.883" x2="32.465" y2="168.469"/>
		</g>
		<g>
			<g>
				<rect x="97.386" y="168.036" fill="#FFFFFF" stroke="#939598" width="65.927" height="3.482"/>
				<line fill="none" stroke="#939598" x1="163.312" y1="169.76" x2="96.675" y2="169.76"/>
				<line fill="none" stroke="#939598" stroke-width="2" x1="141.824" y1="171.667" x2="141.824" y2="168.357"/>
			</g>
			<line fill="none" stroke="#939598" stroke-width="2" x1="119.658" y1="171.786" x2="119.658" y2="168.374"/>
		</g>
		<g>
			<g>
				<rect x="302.886" y="168.133" fill="#FFFFFF" stroke="#939598" width="65.927" height="3.481"/>
				<line fill="none" stroke="#939598" x1="368.814" y1="169.857" x2="302.177" y2="169.857"/>
				<line fill="none" stroke="#939598" stroke-width="2" x1="347.325" y1="171.765" x2="347.325" y2="168.453"/>
			</g>
			<line fill="none" stroke="#939598" stroke-width="2" x1="325.158" y1="171.883" x2="325.158" y2="168.47"/>
		</g>
		<g>
			<g>
				<rect x="419.983" y="168.082" fill="#FFFFFF" stroke="#939598" width="65.926" height="3.481"/>
				<line fill="none" stroke="#939598" x1="485.91" y1="169.805" x2="419.272" y2="169.805"/>
				<line fill="none" stroke="#939598" stroke-width="2" x1="464.422" y1="171.714" x2="464.422" y2="168.402"/>
			</g>
			<line fill="none" stroke="#939598" stroke-width="2" x1="442.255" y1="171.833" x2="442.255" y2="168.418"/>
		</g>
	</g>
	<g id="Type">
		<g enable-background="new    ">
			<path fill="#939598" d="M230.914,158.254c-0.697,0-1.142-0.345-1.434-0.824l0.378-0.325c0.285,0.432,0.577,0.663,1.062,0.663
				c0.524,0,0.909-0.377,0.909-1.114v-3.111h0.532v3.106C232.361,157.716,231.744,158.254,230.914,158.254z"/>
			<path fill="#939598" d="M235.95,154.755h0.504v3.432h-0.504v-0.597c-0.232,0.371-0.585,0.67-1.175,0.67
				c-0.83,0-1.314-0.558-1.314-1.375v-2.13h0.511v2.005c0,0.639,0.346,1.036,0.949,1.036c0.584,0,1.029-0.431,1.029-1.076V154.755
				L235.95,154.755z"/>
			<path fill="#939598" d="M237.647,158.188v-4.846h0.511v4.845L237.647,158.188L237.647,158.188z"/>
			<path fill="#939598" d="M239.358,154.006v-0.564h0.584v0.563L239.358,154.006L239.358,154.006z M239.391,158.188v-3.433h0.512
				v3.432L239.391,158.188L239.391,158.188z"/>
			<path fill="#939598" d="M242.604,157.823c0.471,0,0.804-0.192,1.083-0.486l0.318,0.286c-0.346,0.384-0.764,0.644-1.414,0.644
				c-0.943,0-1.713-0.724-1.713-1.792c0-0.997,0.696-1.793,1.646-1.793c1.015,0,1.6,0.811,1.6,1.818c0,0.047,0,0.1-0.007,0.159
				h-2.721C241.468,157.404,241.999,157.823,242.604,157.823z M243.606,156.283c-0.053-0.624-0.411-1.169-1.096-1.169
				c-0.598,0-1.049,0.498-1.115,1.169H243.606z"/>
			<path fill="#939598" d="M245.707,157.212c0,0.418,0.232,0.572,0.577,0.572c0.172,0,0.318-0.033,0.498-0.12v0.438
				c-0.18,0.094-0.372,0.146-0.617,0.146c-0.552,0-0.968-0.273-0.968-0.97v-2.071h-0.478v-0.452h0.478v-1.035h0.511v1.036h1.09
				v0.453h-1.09L245.707,157.212L245.707,157.212z"/>
			<path fill="#939598" d="M253.266,154.703c0,0.61-0.371,0.923-0.736,1.082c0.551,0.166,0.996,0.483,0.996,1.128
				c0,0.803-0.67,1.273-1.687,1.273h-2.064v-4.645h1.977C252.667,153.542,253.266,153.992,253.266,154.703z M252.734,154.776
				c0-0.465-0.365-0.766-1.029-0.766h-1.413v1.602h1.374C252.298,155.612,252.734,155.327,252.734,154.776z M252.993,156.879
				c0-0.511-0.425-0.803-1.234-0.803h-1.468v1.639h1.561C252.555,157.716,252.993,157.404,252.993,156.879z"/>
			<path fill="#939598" d="M254.677,155.413l-0.151-0.418c0.377-0.172,0.75-0.285,1.248-0.285c0.935,0,1.461,0.478,1.461,1.381
				v2.097h-0.493v-0.518c-0.239,0.312-0.638,0.591-1.241,0.591c-0.637,0-1.281-0.357-1.281-1.076c0-0.73,0.598-1.115,1.467-1.115
				c0.438,0,0.75,0.06,1.057,0.146v-0.118c0-0.617-0.378-0.936-1.021-0.936C255.312,155.161,254.994,155.267,254.677,155.413z
				 M254.736,157.166c0,0.438,0.396,0.69,0.861,0.69c0.631,0,1.147-0.386,1.147-0.93v-0.331c-0.252-0.072-0.591-0.146-1.009-0.146
				C255.093,156.448,254.736,156.727,254.736,157.166z"/>
			<path fill="#939598" d="M258.365,158.188v-4.846h0.511v4.845L258.365,158.188L258.365,158.188z"/>
			<path fill="#939598" d="M261.609,158.267c-1.002,0-1.76-0.815-1.76-1.785c0-0.976,0.758-1.8,1.76-1.8
				c0.648,0,1.056,0.272,1.373,0.612l-0.34,0.358c-0.271-0.285-0.574-0.518-1.041-0.518c-0.695,0-1.229,0.59-1.229,1.333
				c0,0.75,0.545,1.341,1.262,1.341c0.438,0,0.776-0.218,1.049-0.511l0.324,0.306C262.665,157.988,262.255,158.267,261.609,158.267z
				"/>
			<path fill="#939598" d="M265.318,158.267c-1.028,0-1.778-0.809-1.778-1.785s0.758-1.8,1.792-1.8c1.029,0,1.786,0.811,1.786,1.785
				C267.116,157.444,266.354,158.267,265.318,158.267z M265.318,155.134c-0.743,0-1.254,0.59-1.254,1.333
				c0,0.744,0.543,1.341,1.268,1.341c0.744,0,1.261-0.591,1.261-1.326C266.593,155.731,266.044,155.134,265.318,155.134z"/>
			<path fill="#939598" d="M268.55,158.188h-0.512v-3.433h0.512v0.599c0.228-0.371,0.584-0.671,1.175-0.671
				c0.83,0,1.313,0.559,1.313,1.374v2.131h-0.513v-2.005c0-0.637-0.346-1.036-0.948-1.036c-0.591,0-1.027,0.432-1.027,1.076V158.188
				z"/>
			<path fill="#939598" d="M273.699,158.3c-0.293,0.71-0.624,0.968-1.145,0.968c-0.283,0-0.496-0.06-0.729-0.172l0.174-0.404
				c0.166,0.086,0.318,0.126,0.536,0.126c0.307,0,0.498-0.159,0.704-0.645l-1.561-3.419h0.562l1.248,2.862l1.102-2.862h0.545
				L273.699,158.3z"/>
		</g>
		<g enable-background="new    ">
			<path fill="#939598" d="M104.403,299.877c0,0.785-0.479,1.188-0.947,1.393c0.708,0.215,1.279,0.623,1.279,1.449
				c0,1.033-0.861,1.641-2.167,1.641h-2.654v-5.975h2.543C103.635,298.385,104.403,298.965,104.403,299.877z M103.721,299.971
				c0-0.598-0.469-0.979-1.321-0.979h-1.818v2.057h1.767C103.157,301.047,103.721,300.68,103.721,299.971z M104.053,302.676
				c0-0.656-0.546-1.031-1.588-1.031h-1.886v2.107h2.005C103.49,303.752,104.053,303.35,104.053,302.676z"/>
			<path fill="#939598" d="M106.218,300.791l-0.194-0.537c0.485-0.221,0.963-0.367,1.603-0.367c1.204,0,1.877,0.613,1.877,1.775
				v2.695h-0.631v-0.664c-0.307,0.398-0.819,0.758-1.596,0.758c-0.818,0-1.646-0.459-1.646-1.381c0-0.939,0.768-1.436,1.885-1.436
				c0.563,0,0.966,0.076,1.357,0.188v-0.152c0-0.793-0.486-1.203-1.315-1.203C107.038,300.467,106.628,300.604,106.218,300.791z
				 M106.296,303.043c0,0.564,0.512,0.889,1.109,0.889c0.811,0,1.476-0.496,1.476-1.193v-0.428
				c-0.324-0.096-0.759-0.188-1.296-0.188C106.757,302.123,106.296,302.479,106.296,303.043z"/>
			<path fill="#939598" d="M111.747,303.104c0,0.537,0.299,0.732,0.742,0.732c0.222,0,0.41-0.043,0.64-0.154v0.564
				c-0.229,0.119-0.478,0.188-0.793,0.188c-0.708,0-1.246-0.35-1.246-1.246v-2.658h-0.614v-0.582h0.614v-1.33h0.657v1.33h1.4v0.582
				h-1.4V303.104z"/>
			<path fill="#939598" d="M114.962,304.357h-0.657v-6.229h0.657v2.586c0.29-0.479,0.75-0.862,1.511-0.862
				c1.066,0,1.689,0.719,1.689,1.769v2.737h-0.657v-2.575c0-0.818-0.442-1.33-1.221-1.33c-0.759,0-1.323,0.555-1.323,1.381
				L114.962,304.357L114.962,304.357z"/>
		</g>
		<g enable-background="new    ">
			<path fill="#939598" d="M27.519,300.27c-1.341,0-2.329-1.055-2.329-2.396c0-1.326,0.981-2.408,2.349-2.408
				c0.843,0,1.348,0.3,1.812,0.736l-0.357,0.385c-0.393-0.373-0.829-0.637-1.46-0.637c-1.029,0-1.799,0.829-1.799,1.911
				s0.775,1.925,1.799,1.925c0.637,0,1.055-0.246,1.5-0.67l0.345,0.338C28.893,299.945,28.362,300.27,27.519,300.27z"/>
			<path fill="#939598" d="M30.251,300.191v-4.848h0.511v4.848H30.251L30.251,300.191z"/>
			<path fill="#939598" d="M33.516,300.27c-1.028,0-1.778-0.809-1.778-1.783c0-0.978,0.756-1.801,1.792-1.801
				c1.028,0,1.785,0.812,1.785,1.785C35.315,299.447,34.551,300.27,33.516,300.27z M33.516,297.137
				c-0.743,0-1.254,0.592-1.254,1.334c0,0.744,0.544,1.34,1.268,1.34c0.744,0,1.262-0.59,1.262-1.324
				C34.791,297.734,34.239,297.137,33.516,297.137z"/>
			<path fill="#939598" d="M37.369,300.258c-0.49,0-1.035-0.191-1.42-0.506l0.259-0.365c0.371,0.279,0.784,0.439,1.188,0.439
				c0.411,0,0.711-0.215,0.711-0.545v-0.016c0-0.346-0.405-0.477-0.857-0.604c-0.538-0.152-1.135-0.336-1.135-0.967v-0.018
				c0-0.59,0.492-0.979,1.168-0.979c0.418,0,0.883,0.145,1.234,0.377l-0.231,0.385c-0.318-0.205-0.686-0.332-1.018-0.332
				c-0.403,0-0.662,0.213-0.662,0.498v0.014c0,0.324,0.424,0.451,0.884,0.592c0.53,0.156,1.102,0.365,1.102,0.98v0.014
				C38.591,299.879,38.054,300.258,37.369,300.258z"/>
			<path fill="#939598" d="M41.052,299.826c0.472,0,0.805-0.193,1.083-0.486l0.318,0.285c-0.345,0.385-0.763,0.645-1.414,0.645
				c-0.943,0-1.712-0.723-1.712-1.791c0-0.994,0.696-1.793,1.646-1.793c1.016,0,1.601,0.811,1.601,1.818c0,0.047,0,0.1-0.007,0.158
				h-2.723C39.917,299.408,40.448,299.826,41.052,299.826z M42.054,298.285c-0.053-0.623-0.411-1.168-1.096-1.168
				c-0.597,0-1.048,0.498-1.115,1.168H42.054z"/>
			<path fill="#939598" d="M44.156,299.215c0,0.418,0.231,0.572,0.577,0.572c0.172,0,0.318-0.033,0.498-0.121v0.438
				c-0.18,0.094-0.372,0.146-0.617,0.146c-0.551,0-0.97-0.273-0.97-0.971v-2.07h-0.478v-0.453h0.478v-1.035h0.512v1.035h1.089v0.453
				h-1.089V299.215z"/>
		</g>
		<g enable-background="new    ">
			<path fill="#939598" d="M397.571,284.555c0,0.785-0.479,1.188-0.948,1.393c0.709,0.215,1.281,0.623,1.281,1.451
				c0,1.029-0.861,1.639-2.168,1.639h-2.653v-5.975h2.544C396.802,283.062,397.571,283.643,397.571,284.555z M396.888,284.648
				c0-0.6-0.47-0.98-1.321-0.98h-1.817v2.057h1.767C396.325,285.725,396.888,285.357,396.888,284.648z M397.221,287.354
				c0-0.654-0.546-1.031-1.588-1.031h-1.884v2.105h2.003C396.658,288.428,397.221,288.027,397.221,287.354z"/>
			<path fill="#939598" d="M399.387,285.469l-0.195-0.537c0.485-0.223,0.965-0.369,1.604-0.369c1.203,0,1.876,0.615,1.876,1.775
				v2.697h-0.631v-0.666c-0.307,0.398-0.816,0.76-1.596,0.76c-0.818,0-1.646-0.461-1.646-1.383c0-0.938,0.771-1.436,1.886-1.436
				c0.562,0,0.967,0.078,1.356,0.188v-0.153c0-0.793-0.485-1.203-1.313-1.203C400.205,285.143,399.796,285.281,399.387,285.469z
				 M399.463,287.721c0,0.564,0.514,0.891,1.109,0.891c0.811,0,1.478-0.496,1.478-1.197v-0.424
				c-0.324-0.098-0.761-0.188-1.298-0.188C399.924,286.799,399.463,287.158,399.463,287.721z"/>
			<path fill="#939598" d="M404.914,287.779c0,0.537,0.299,0.732,0.742,0.732c0.223,0,0.41-0.043,0.641-0.152v0.562
				c-0.229,0.119-0.478,0.188-0.794,0.188c-0.707,0-1.245-0.35-1.245-1.244v-2.662h-0.611v-0.58h0.611v-1.33h0.656v1.33h1.4v0.58
				h-1.4V287.779L404.914,287.779z"/>
			<path fill="#939598" d="M408.129,289.033h-0.654v-6.229h0.654v2.586c0.291-0.479,0.752-0.861,1.512-0.861
				c1.065,0,1.689,0.718,1.689,1.767v2.74h-0.657v-2.578c0-0.817-0.442-1.33-1.22-1.33c-0.76,0-1.322,0.556-1.322,1.383v2.523
				L408.129,289.033L408.129,289.033z"/>
		</g>
		<g enable-background="new    ">
			<path fill="#939598" d="M459.371,291.424c-1.341,0-2.33-1.055-2.33-2.396c0-1.325,0.982-2.407,2.352-2.407
				c0.845,0,1.349,0.297,1.812,0.735l-0.356,0.386c-0.393-0.373-0.829-0.638-1.46-0.638c-1.028,0-1.8,0.83-1.8,1.912
				s0.776,1.924,1.8,1.924c0.638,0,1.056-0.246,1.499-0.67l0.346,0.338C460.745,291.1,460.214,291.424,459.371,291.424z"/>
			<path fill="#939598" d="M462.104,291.344V286.5h0.512v4.844H462.104z"/>
			<path fill="#939598" d="M465.367,291.424c-1.029,0-1.778-0.809-1.778-1.785c0-0.976,0.758-1.799,1.792-1.799
				c1.029,0,1.787,0.811,1.787,1.785C467.167,290.602,466.403,291.424,465.367,291.424z M465.367,288.291
				c-0.743,0-1.254,0.59-1.254,1.332c0,0.744,0.544,1.342,1.268,1.342c0.744,0,1.263-0.59,1.263-1.326
				C466.643,288.889,466.091,288.291,465.367,288.291z"/>
			<path fill="#939598" d="M469.222,291.41c-0.491,0-1.036-0.191-1.421-0.504l0.259-0.365c0.372,0.279,0.782,0.438,1.188,0.438
				c0.412,0,0.71-0.215,0.71-0.545v-0.014c0-0.346-0.403-0.479-0.854-0.604c-0.537-0.152-1.137-0.34-1.137-0.971v-0.014
				c0-0.59,0.492-0.98,1.17-0.98c0.418,0,0.885,0.146,1.234,0.377l-0.232,0.387c-0.317-0.205-0.684-0.332-1.017-0.332
				c-0.404,0-0.663,0.213-0.663,0.498v0.012c0,0.326,0.425,0.453,0.884,0.592c0.531,0.158,1.104,0.365,1.104,0.982v0.014
				C470.443,291.033,469.906,291.41,469.222,291.41z"/>
			<path fill="#939598" d="M472.904,290.979c0.471,0,0.803-0.191,1.082-0.484l0.317,0.285c-0.345,0.385-0.764,0.645-1.414,0.645
				c-0.94,0-1.714-0.723-1.714-1.791c0-0.998,0.698-1.795,1.646-1.795c1.016,0,1.6,0.812,1.6,1.818c0,0.049,0,0.102-0.008,0.16
				h-2.721C471.769,290.561,472.3,290.979,472.904,290.979z M473.906,289.439c-0.055-0.623-0.411-1.17-1.096-1.17
				c-0.599,0-1.048,0.498-1.114,1.17H473.906z"/>
			<path fill="#939598" d="M476.008,290.369c0,0.418,0.231,0.572,0.577,0.572c0.174,0,0.319-0.033,0.498-0.121v0.438
				c-0.179,0.092-0.372,0.146-0.617,0.146c-0.551,0-0.969-0.273-0.969-0.973v-2.068h-0.479v-0.453h0.479v-1.035h0.511v1.035h1.09
				v0.453h-1.09V290.369L476.008,290.369z"/>
		</g>
		<g enable-background="new    ">
			<path fill="#939598" d="M268.516,328.297h0.433l1.274,3.883l1.327-3.869h0.55l-1.658,4.682h-0.445l-1.273-3.771l-1.281,3.771
				h-0.438l-1.658-4.682h0.568l1.328,3.869L268.516,328.297z"/>
			<path fill="#939598" d="M275.136,327.658l-3.079,6.146h-0.472l3.079-6.146H275.136z"/>
			<path fill="#939598" d="M277.365,332.955h-1.612v-4.646h1.612c1.459,0,2.468,1.002,2.468,2.316S278.824,332.955,277.365,332.955z
				 M277.365,328.793h-1.09v3.678h1.09c1.174,0,1.924-0.795,1.924-1.832C279.289,329.604,278.539,328.793,277.365,328.793z"/>
		</g>
		<g enable-background="new    ">
			<path fill="#939598" d="M336.064,317.742h-2.834v1.586h2.535v0.479h-2.535v1.627h2.865v0.479h-3.391v-4.646h3.357
				L336.064,317.742L336.064,317.742z"/>
			<path fill="#939598" d="M337.577,321.91h-0.513v-3.434h0.513v0.6c0.228-0.373,0.583-0.672,1.174-0.672
				c0.83,0,1.313,0.559,1.313,1.375v2.131h-0.512v-2.006c0-0.639-0.346-1.035-0.947-1.035c-0.592,0-1.028,0.432-1.028,1.076V321.91z
				"/>
			<path fill="#939598" d="M341.843,320.934c0,0.42,0.232,0.572,0.576,0.572c0.174,0,0.317-0.033,0.497-0.119v0.438
				c-0.18,0.094-0.37,0.146-0.614,0.146c-0.553,0-0.971-0.271-0.971-0.971v-2.07h-0.478v-0.451h0.478v-1.035h0.512v1.035h1.089
				v0.451h-1.089V320.934L341.843,320.934z"/>
			<path fill="#939598" d="M344.343,321.91h-0.511v-3.434h0.511v0.896c0.255-0.57,0.75-0.98,1.4-0.955v0.551h-0.039
				c-0.75,0-1.361,0.537-1.361,1.572V321.91z"/>
			<path fill="#939598" d="M348.191,322.023c-0.291,0.709-0.625,0.967-1.143,0.967c-0.287,0-0.498-0.061-0.73-0.172l0.175-0.404
				c0.166,0.086,0.319,0.125,0.536,0.125c0.308,0,0.498-0.158,0.703-0.645l-1.561-3.42h0.562l1.248,2.861l1.104-2.861h0.543
				L348.191,322.023z"/>
		</g>
		<g enable-background="new    ">
			<path fill="#939598" d="M295.628,306.406c0,1.34-1.056,2.328-2.396,2.328c-1.328,0-2.409-0.98-2.409-2.35
				c0-0.846,0.297-1.348,0.735-1.812l0.385,0.356c-0.373,0.394-0.64,0.829-0.64,1.458c0,1.029,0.832,1.803,1.914,1.803
				s1.927-0.777,1.927-1.803c0-0.637-0.248-1.055-0.672-1.497l0.338-0.347C295.302,305.031,295.628,305.562,295.628,306.406z"/>
			<path fill="#939598" d="M295.548,303.674h-4.845v-0.512h4.845V303.674z"/>
			<path fill="#939598" d="M295.628,300.408c0,1.027-0.812,1.777-1.785,1.777c-0.978,0-1.799-0.758-1.799-1.793
				c0-1.027,0.81-1.783,1.784-1.783S295.628,299.373,295.628,300.408z M292.494,300.408c0,0.742,0.591,1.254,1.334,1.254
				c0.744,0,1.341-0.543,1.341-1.27c0-0.742-0.59-1.262-1.326-1.262C293.093,299.133,292.494,299.686,292.494,300.408z"/>
			<path fill="#939598" d="M295.615,296.555c0,0.49-0.192,1.035-0.506,1.42l-0.364-0.26c0.278-0.371,0.438-0.781,0.438-1.188
				c0-0.41-0.214-0.709-0.545-0.709h-0.015c-0.345,0-0.478,0.402-0.604,0.854c-0.15,0.539-0.338,1.135-0.969,1.135h-0.014
				c-0.592,0-0.982-0.49-0.982-1.168c0-0.418,0.146-0.883,0.379-1.232l0.385,0.23c-0.205,0.318-0.332,0.686-0.332,1.016
				c0,0.404,0.214,0.664,0.498,0.664h0.014c0.326,0,0.451-0.426,0.591-0.885c0.159-0.529,0.366-1.102,0.981-1.102h0.015
				C295.236,295.334,295.615,295.871,295.615,296.555z"/>
			<path fill="#939598" d="M295.184,292.873c0-0.473-0.191-0.805-0.484-1.084l0.285-0.318c0.385,0.348,0.645,0.766,0.645,1.414
				c0,0.943-0.724,1.713-1.791,1.713c-0.996,0-1.793-0.695-1.793-1.646c0-1.015,0.809-1.601,1.816-1.601c0.048,0,0.102,0,0.16,0.008
				v2.722C294.766,294.008,295.184,293.477,295.184,292.873z M293.645,291.869c-0.623,0.055-1.17,0.412-1.17,1.098
				c0,0.596,0.498,1.047,1.17,1.113V291.869z"/>
			<path fill="#939598" d="M294.572,289.768c0.416,0,0.57-0.23,0.57-0.574c0-0.176-0.033-0.32-0.119-0.498h0.438
				c0.092,0.178,0.146,0.371,0.146,0.615c0,0.553-0.272,0.971-0.973,0.971h-2.068v0.479h-0.451v-0.479h-1.036v-0.514h1.036v-1.088
				h0.451v1.088H294.572z"/>
		</g>
		<g enable-background="new    ">
			<path fill="#939598" d="M213.466,280.57v4.646h-0.524v-4.646H213.466z"/>
			<path fill="#939598" d="M215.874,285.281c-0.491,0-1.035-0.191-1.42-0.502l0.258-0.367c0.372,0.279,0.784,0.438,1.189,0.438
				c0.41,0,0.709-0.213,0.709-0.545v-0.014c0-0.344-0.404-0.479-0.855-0.605c-0.538-0.148-1.135-0.336-1.135-0.967v-0.014
				c0-0.592,0.492-0.982,1.168-0.982c0.418,0,0.883,0.146,1.234,0.377l-0.231,0.387c-0.319-0.205-0.685-0.332-1.017-0.332
				c-0.404,0-0.663,0.213-0.663,0.498v0.014c0,0.324,0.424,0.453,0.883,0.59c0.531,0.16,1.102,0.365,1.102,0.982v0.014
				C217.095,284.904,216.558,285.281,215.874,285.281z"/>
			<path fill="#939598" d="M218.089,285.217v-4.846h0.511v4.846H218.089z"/>
			<path fill="#939598" d="M219.986,282.441l-0.152-0.418c0.378-0.174,0.75-0.285,1.248-0.285c0.935,0,1.46,0.479,1.46,1.381v2.098
				h-0.491v-0.518c-0.238,0.312-0.637,0.59-1.241,0.59c-0.638,0-1.281-0.357-1.281-1.076c0-0.729,0.597-1.115,1.468-1.115
				c0.438,0,0.75,0.062,1.055,0.146v-0.119c0-0.617-0.378-0.938-1.021-0.938C220.624,282.189,220.305,282.295,219.986,282.441z
				 M220.046,284.195c0,0.438,0.398,0.688,0.863,0.688c0.63,0,1.147-0.385,1.147-0.93v-0.332c-0.252-0.072-0.59-0.146-1.008-0.146
				C220.405,283.477,220.046,283.756,220.046,284.195z"/>
			<path fill="#939598" d="M224.139,285.217h-0.511v-3.432h0.511v0.598c0.226-0.373,0.583-0.672,1.176-0.672
				c0.828,0,1.313,0.559,1.313,1.375v2.131h-0.512v-2.006c0-0.637-0.345-1.035-0.949-1.035c-0.59,0-1.028,0.434-1.028,1.076V285.217
				L224.139,285.217z"/>
			<path fill="#939598" d="M230.469,285.217v-0.689c-0.278,0.41-0.683,0.764-1.313,0.764c-0.823,0-1.641-0.65-1.641-1.785
				c0-1.129,0.817-1.793,1.641-1.793c0.637,0,1.048,0.346,1.313,0.73v-2.07h0.513v4.844H230.469L230.469,285.217z M229.249,282.17
				c-0.664,0-1.209,0.49-1.209,1.326c0,0.814,0.558,1.334,1.209,1.334c0.637,0,1.241-0.531,1.241-1.334
				C230.489,282.701,229.885,282.17,229.249,282.17z"/>
		</g>
		<g enable-background="new    ">
			<path fill="#939598" d="M211.148,307.91h-0.846l-2.295-2.895l-1.271,1.287v1.604h-0.674v-5.974h0.674v3.567l3.43-3.567h0.87
				l-2.56,2.61L211.148,307.91z"/>
			<path fill="#939598" d="M212.1,302.535v-0.727h0.751v0.727H212.1z M212.143,307.91v-4.41h0.657v4.41H212.143z"/>
			<path fill="#939598" d="M215.215,306.656c0,0.537,0.298,0.73,0.742,0.73c0.222,0,0.41-0.041,0.64-0.15v0.562
				c-0.229,0.119-0.478,0.188-0.793,0.188c-0.708,0-1.245-0.352-1.245-1.244v-2.664h-0.614V303.5h0.614v-1.332h0.657v1.332h1.399
				v0.578h-1.399L215.215,306.656L215.215,306.656z"/>
			<path fill="#939598" d="M219.635,308.014c-1.288,0-2.261-1.049-2.261-2.297c0-1.254,0.972-2.312,2.261-2.312
				c0.836,0,1.356,0.351,1.767,0.787l-0.436,0.459c-0.35-0.366-0.742-0.666-1.34-0.666c-0.895,0-1.579,0.761-1.579,1.718
				c0,0.965,0.7,1.723,1.621,1.723c0.563,0,0.998-0.281,1.348-0.656l0.418,0.395C220.99,307.654,220.462,308.014,219.635,308.014z"
				/>
			<path fill="#939598" d="M223.174,307.91h-0.657v-6.229h0.657v2.586c0.29-0.479,0.75-0.863,1.51-0.863
				c1.066,0,1.689,0.72,1.689,1.769v2.74h-0.656v-2.578c0-0.817-0.443-1.33-1.221-1.33c-0.759,0-1.323,0.556-1.323,1.382
				L223.174,307.91L223.174,307.91z"/>
			<path fill="#939598" d="M229.716,307.441c0.605,0,1.032-0.248,1.393-0.623l0.408,0.365c-0.442,0.494-0.981,0.828-1.817,0.828
				c-1.211,0-2.201-0.93-2.201-2.305c0-1.281,0.896-2.305,2.115-2.305c1.305,0,2.057,1.041,2.057,2.338c0,0.061,0,0.129-0.008,0.205
				h-3.498C228.257,306.904,228.94,307.441,229.716,307.441z M231.003,305.461c-0.068-0.803-0.528-1.502-1.407-1.502
				c-0.768,0-1.347,0.641-1.433,1.502H231.003z"/>
			<path fill="#939598" d="M233.477,307.91h-0.656v-4.41h0.656v0.768c0.29-0.479,0.75-0.861,1.511-0.861
				c1.065,0,1.688,0.719,1.688,1.768v2.74h-0.657v-2.578c0-0.818-0.442-1.33-1.22-1.33c-0.76,0-1.323,0.555-1.323,1.381
				L233.477,307.91L233.477,307.91z"/>
		</g>
		<g enable-background="new    ">
			<path fill="#939598" d="M177.19,333.914h-1.613v-4.646h1.613c1.46,0,2.469,1.006,2.469,2.316
				C179.659,332.898,178.65,333.914,177.19,333.914z M177.19,329.752h-1.09v3.678h1.09c1.174,0,1.925-0.797,1.925-1.834
				C179.115,330.561,178.364,329.752,177.19,329.752z"/>
			<path fill="#939598" d="M183.341,329.254h0.433l1.274,3.883l1.328-3.869h0.551l-1.66,4.682h-0.444l-1.274-3.771l-1.281,3.771
				h-0.438l-1.659-4.682h0.571l1.328,3.869L183.341,329.254z"/>
		</g>
		<g enable-background="new    ">
			<path fill="#939598" d="M229.421,331.703l-1.348-1.809h-1.328v1.809h-0.524v-4.646h1.998c1.022,0,1.679,0.553,1.679,1.391
				c0,0.773-0.53,1.227-1.262,1.357l1.428,1.898H229.421L229.421,331.703z M228.179,327.541h-1.434v1.885h1.427
				c0.696,0,1.195-0.357,1.195-0.963C229.368,327.887,228.929,327.541,228.179,327.541z"/>
			<path fill="#939598" d="M232.378,331.338c0.471,0,0.804-0.189,1.083-0.486l0.318,0.287c-0.346,0.385-0.764,0.646-1.414,0.646
				c-0.943,0-1.712-0.727-1.712-1.793c0-0.996,0.695-1.793,1.646-1.793c1.016,0,1.601,0.809,1.601,1.816
				c0,0.047,0,0.102-0.008,0.158h-2.722C231.243,330.92,231.774,331.338,232.378,331.338z M233.381,329.799
				c-0.053-0.625-0.412-1.17-1.096-1.17c-0.597,0-1.048,0.498-1.115,1.17H233.381z"/>
			<path fill="#939598" d="M236.578,328.283v0.438h-1.083v2.98h-0.511v-2.98h-0.473v-0.443h0.473v-0.299
				c0-0.75,0.378-1.146,1.034-1.146c0.239,0,0.398,0.025,0.564,0.086v0.445c-0.186-0.057-0.325-0.088-0.498-0.088
				c-0.397,0-0.597,0.238-0.597,0.729v0.279H236.578L236.578,328.283L236.578,328.283z"/>
		</g>
		<g enable-background="new    ">
			<path fill="#939598" d="M66.961,214.757c0,0.784-0.478,1.188-0.947,1.392c0.708,0.213,1.28,0.623,1.28,1.449
				c0,1.032-0.862,1.639-2.168,1.639h-2.653v-5.973h2.543C66.193,213.264,66.961,213.846,66.961,214.757z M66.279,214.852
				c0-0.598-0.47-0.98-1.322-0.98h-1.818v2.057h1.767C65.716,215.926,66.279,215.561,66.279,214.852z M66.611,217.557
				c0-0.656-0.546-1.033-1.587-1.033h-1.887v2.107h2.005C66.048,218.63,66.611,218.229,66.611,217.557z"/>
			<path fill="#939598" d="M70.466,218.768c0.605,0,1.032-0.246,1.392-0.623l0.409,0.369c-0.443,0.493-0.981,0.827-1.817,0.827
				c-1.211,0-2.201-0.93-2.201-2.304c0-1.28,0.896-2.305,2.115-2.305c1.306,0,2.057,1.041,2.057,2.338c0,0.06,0,0.128-0.009,0.205
				h-3.498C69.007,218.229,69.689,218.768,70.466,218.768z M71.755,216.788c-0.067-0.802-0.529-1.501-1.407-1.501
				c-0.768,0-1.348,0.64-1.433,1.501H71.755z"/>
			<path fill="#939598" d="M77.11,219.236v-0.889c-0.358,0.529-0.878,0.98-1.688,0.98c-1.059,0-2.107-0.836-2.107-2.294
				c0-1.451,1.049-2.306,2.107-2.306c0.818,0,1.347,0.443,1.688,0.938v-2.664h0.656v6.229H77.11V219.236z M75.541,215.32
				c-0.853,0-1.553,0.632-1.553,1.707c0,1.049,0.716,1.715,1.553,1.715c0.819,0,1.596-0.684,1.596-1.715
				C77.137,216.003,76.36,215.32,75.541,215.32z"/>
			<path fill="#939598" d="M79.891,219.236h-0.656v-4.41h0.656v1.15c0.324-0.731,0.966-1.263,1.802-1.229v0.708h-0.052
				c-0.964,0-1.75,0.69-1.75,2.021V219.236z"/>
			<path fill="#939598" d="M84.514,219.339c-1.322,0-2.287-1.042-2.287-2.296c0-1.253,0.974-2.312,2.305-2.312
				c1.323,0,2.294,1.041,2.294,2.295C86.826,218.282,85.845,219.339,84.514,219.339z M84.514,215.312
				c-0.955,0-1.612,0.761-1.612,1.715c0,0.957,0.699,1.725,1.63,1.725c0.955,0,1.621-0.761,1.621-1.708
				C86.153,216.08,85.445,215.312,84.514,215.312z"/>
			<path fill="#939598" d="M90.024,219.339c-1.323,0-2.287-1.042-2.287-2.296c0-1.253,0.973-2.312,2.304-2.312
				c1.323,0,2.294,1.041,2.294,2.295C92.336,218.282,91.356,219.339,90.024,219.339z M90.024,215.312
				c-0.955,0-1.612,0.761-1.612,1.715c0,0.957,0.699,1.725,1.63,1.725c0.955,0,1.621-0.761,1.621-1.708
				C91.662,216.08,90.954,215.312,90.024,215.312z"/>
			<path fill="#939598" d="M98.572,214.73c1.015,0,1.639,0.684,1.639,1.774v2.729h-0.657v-2.576c0-0.854-0.427-1.331-1.144-1.331
				c-0.665,0-1.22,0.493-1.22,1.364v2.543h-0.649v-2.592c0-0.828-0.435-1.313-1.134-1.313c-0.7,0-1.229,0.581-1.229,1.39v2.52
				h-0.656v-4.411h0.656v0.741c0.29-0.436,0.683-0.836,1.424-0.836c0.718,0,1.179,0.385,1.417,0.879
				C97.335,215.125,97.804,214.73,98.572,214.73z"/>
		</g>
		<g enable-background="new    ">
			<path fill="#939598" d="M57.868,223.646h0.495v6.016h-0.666v-5.314l-1.125,0.351l-0.162-0.546L57.868,223.646z"/>
			<path fill="#939598" d="M61.911,229.747c-1.271,0-2.244-0.69-2.244-1.697c0-0.717,0.512-1.221,1.228-1.477
				c-0.554-0.257-1.023-0.685-1.023-1.382c0-0.932,0.948-1.588,2.04-1.588c1.092,0,2.039,0.656,2.039,1.588
				c0,0.697-0.469,1.125-1.023,1.382c0.708,0.264,1.229,0.751,1.229,1.467C64.156,229.064,63.183,229.747,61.911,229.747z
				 M61.911,226.889c-0.87,0-1.562,0.471-1.562,1.145c0,0.611,0.58,1.125,1.562,1.125c0.98,0,1.561-0.514,1.561-1.125
				C63.473,227.357,62.781,226.889,61.911,226.889z M61.911,224.191c-0.776,0-1.364,0.436-1.364,1.043
				c0,0.654,0.605,1.101,1.364,1.101c0.76,0,1.365-0.444,1.365-1.101C63.277,224.636,62.689,224.191,61.911,224.191z"/>
			<path fill="#939598" d="M65.408,223.688h0.802v0.043l-0.691,2.276h-0.366L65.408,223.688z"/>
			<path fill="#939598" d="M71.022,223.646v4.035h0.93v0.562h-0.93v1.417h-0.648v-1.417h-3.148l-0.17-0.487l3.378-4.112
				L71.022,223.646L71.022,223.646z M70.374,224.602l-2.509,3.08h2.509V224.602z"/>
			<path fill="#939598" d="M73.221,223.688h0.793v0.043l-0.69,2.276h-0.358L73.221,223.688z M74.893,223.688h0.786v0.043
				l-0.689,2.277h-0.358L74.893,223.688z"/>
			<path fill="#939598" d="M83.286,229.662h-0.759l-1.365-1.801l-1.373,1.801h-0.733l1.732-2.245l-1.664-2.167h0.751l1.305,1.707
				l1.306-1.707h0.733l-1.673,2.15L83.286,229.662z"/>
			<path fill="#939598" d="M87.874,223.646h0.495v6.016h-0.665v-5.314l-1.125,0.351l-0.163-0.546L87.874,223.646z"/>
			<path fill="#939598" d="M92.277,229.766c-1.544,0-2.518-1.399-2.518-3.08c0-1.682,0.99-3.1,2.534-3.1
				c1.537,0,2.509,1.4,2.509,3.08C94.802,228.348,93.812,229.766,92.277,229.766z M92.277,224.201c-1.117,0-1.817,1.143-1.817,2.466
				s0.717,2.483,1.835,2.483c1.119,0,1.811-1.152,1.811-2.467C94.103,225.37,93.394,224.201,92.277,224.201z"/>
			<path fill="#939598" d="M96.14,223.688h0.803v0.043l-0.691,2.276h-0.367L96.14,223.688z"/>
			<path fill="#939598" d="M100.107,229.747c-1.271,0-2.245-0.69-2.245-1.697c0-0.717,0.512-1.221,1.228-1.477
				c-0.554-0.257-1.023-0.685-1.023-1.382c0-0.932,0.947-1.588,2.04-1.588c1.092,0,2.038,0.656,2.038,1.588
				c0,0.697-0.469,1.125-1.023,1.382c0.708,0.264,1.228,0.751,1.228,1.467C102.35,229.064,101.378,229.747,100.107,229.747z
				 M100.107,226.889c-0.87,0-1.562,0.471-1.562,1.145c0,0.611,0.58,1.125,1.562,1.125c0.98,0,1.561-0.514,1.561-1.125
				C101.668,227.357,100.977,226.889,100.107,226.889z M100.107,224.191c-0.776,0-1.365,0.436-1.365,1.043
				c0,0.654,0.604,1.101,1.365,1.101c0.759,0,1.364-0.444,1.364-1.101C101.472,224.636,100.883,224.191,100.107,224.191z"/>
			<path fill="#939598" d="M103.603,223.688h0.794v0.043l-0.691,2.276h-0.358L103.603,223.688z M105.275,223.688h0.784v0.043
				l-0.69,2.276h-0.358L105.275,223.688z"/>
		</g>
		<g enable-background="new    ">
			<path fill="#939598" d="M225.037,222.742h0.674v5.35h3.362v0.623h-4.036V222.742z"/>
			<path fill="#939598" d="M230.224,223.339v-0.726h0.751v0.726H230.224z M230.266,228.714v-4.411h0.657v4.411H230.266z"/>
			<path fill="#939598" d="M235.718,224.303h0.708l-1.919,4.445h-0.581l-1.911-4.445h0.727l1.484,3.66L235.718,224.303z"/>
			<path fill="#939598" d="M237.474,223.339v-0.726h0.75v0.726H237.474z M237.516,228.714v-4.411h0.657v4.411H237.516z"/>
			<path fill="#939598" d="M240.357,228.714H239.7v-4.411h0.657v0.771c0.29-0.479,0.75-0.863,1.511-0.863
				c1.066,0,1.689,0.717,1.689,1.767v2.739H242.9v-2.577c0-0.818-0.444-1.33-1.222-1.33c-0.758,0-1.322,0.555-1.322,1.381
				L240.357,228.714L240.357,228.714z"/>
			<path fill="#939598" d="M246.908,230.096c-0.733,0-1.417-0.205-2.005-0.613l0.299-0.513c0.503,0.367,1.066,0.563,1.698,0.563
				c0.972,0,1.604-0.538,1.604-1.57v-0.521c-0.385,0.514-0.923,0.93-1.732,0.93c-1.059,0-2.074-0.785-2.074-2.073
				c0-1.296,1.023-2.091,2.074-2.091c0.826,0,1.363,0.41,1.723,0.888v-0.793h0.657v3.646
				C249.152,229.371,248.265,230.096,246.908,230.096z M246.899,224.789c-0.836,0-1.527,0.572-1.527,1.493
				c0,0.903,0.708,1.511,1.527,1.511c0.836,0,1.622-0.598,1.622-1.501C248.521,225.377,247.736,224.789,246.899,224.789z"/>
			<path fill="#939598" d="M254.271,221.904l-3.959,7.9h-0.605l3.958-7.9H254.271z"/>
			<path fill="#939598" d="M257.136,228.714h-2.073v-5.973h2.073c1.878,0,3.173,1.288,3.173,2.978
				C260.309,227.409,259.014,228.714,257.136,228.714z M257.136,223.364h-1.399v4.727h1.399c1.511,0,2.474-1.022,2.474-2.354
				S258.646,223.364,257.136,223.364z"/>
			<path fill="#939598" d="M261.639,223.339v-0.726h0.75v0.726H261.639z M261.682,228.714v-4.411h0.655v4.411H261.682z"/>
			<path fill="#939598" d="M264.521,228.714h-0.658v-4.411h0.658v0.771c0.291-0.479,0.75-0.863,1.511-0.863
				c1.063,0,1.688,0.717,1.688,1.767v2.739h-0.653v-2.577c0-0.818-0.444-1.33-1.224-1.33c-0.758,0-1.319,0.555-1.319,1.381
				L264.521,228.714L264.521,228.714z"/>
			<path fill="#939598" d="M269.136,223.339v-0.726h0.75v0.726H269.136z M269.18,228.714v-4.411h0.653v4.411H269.18z"/>
			<path fill="#939598" d="M272.02,228.714h-0.656v-4.411h0.656v0.771c0.289-0.479,0.75-0.863,1.51-0.863
				c1.066,0,1.688,0.717,1.688,1.767v2.739h-0.655v-2.577c0-0.818-0.444-1.33-1.222-1.33c-0.76,0-1.321,0.555-1.321,1.381V228.714
				L272.02,228.714z"/>
			<path fill="#939598" d="M278.57,230.096c-0.733,0-1.418-0.205-2.006-0.613l0.297-0.513c0.505,0.367,1.068,0.563,1.699,0.563
				c0.972,0,1.604-0.538,1.604-1.57v-0.521c-0.384,0.514-0.922,0.93-1.729,0.93c-1.06,0-2.074-0.785-2.074-2.073
				c0-1.296,1.024-2.091,2.074-2.091c0.825,0,1.362,0.41,1.723,0.888v-0.793h0.656v3.646
				C280.814,229.371,279.927,230.096,278.57,230.096z M278.562,224.789c-0.838,0-1.527,0.572-1.527,1.493
				c0,0.903,0.707,1.511,1.527,1.511c0.834,0,1.619-0.598,1.619-1.501C280.182,225.377,279.396,224.789,278.562,224.789z"/>
			<path fill="#939598" d="M289.062,228.714l-1.732-2.321h-1.707v2.321h-0.674v-5.973h2.566c1.313,0,2.158,0.708,2.158,1.784
				c0,0.998-0.682,1.576-1.619,1.748l1.834,2.439L289.062,228.714L289.062,228.714z M287.466,223.364h-1.843v2.424h1.837
				c0.896,0,1.535-0.461,1.535-1.237C288.994,223.809,288.432,223.364,287.466,223.364z"/>
			<path fill="#939598" d="M292.934,228.816c-1.322,0-2.285-1.041-2.285-2.297c0-1.252,0.973-2.312,2.305-2.312
				c1.322,0,2.294,1.042,2.294,2.295C295.245,227.759,294.264,228.816,292.934,228.816z M292.934,224.789
				c-0.955,0-1.611,0.76-1.611,1.715c0,0.956,0.699,1.725,1.631,1.725c0.956,0,1.62-0.762,1.62-1.709
				C294.57,225.557,293.864,224.789,292.934,224.789z"/>
			<path fill="#939598" d="M298.443,228.816c-1.323,0-2.285-1.041-2.285-2.297c0-1.252,0.972-2.312,2.304-2.312
				c1.322,0,2.295,1.042,2.295,2.295C300.757,227.759,299.773,228.816,298.443,228.816z M298.443,224.789
				c-0.955,0-1.612,0.76-1.612,1.715c0,0.956,0.7,1.725,1.631,1.725c0.955,0,1.62-0.762,1.62-1.709
				C300.082,225.557,299.373,224.789,298.443,224.789z"/>
			<path fill="#939598" d="M306.992,224.209c1.015,0,1.64,0.684,1.64,1.775v2.729h-0.655v-2.577c0-0.854-0.429-1.331-1.146-1.331
				c-0.667,0-1.22,0.494-1.22,1.365v2.542h-0.649v-2.594c0-0.828-0.437-1.313-1.136-1.313c-0.698,0-1.229,0.579-1.229,1.391v2.518
				h-0.656v-4.41h0.656v0.741c0.289-0.435,0.683-0.837,1.424-0.837c0.72,0,1.18,0.384,1.418,0.879
				C305.755,224.602,306.225,224.209,306.992,224.209z"/>
		</g>
		<g enable-background="new    ">
			<path fill="#939598" d="M241.919,234.71l-0.496-0.358c0.537-0.803,1.101-1.271,2.15-1.271c1.083,0,1.852,0.716,1.852,1.698
				c0,0.879-0.459,1.416-1.511,2.33l-1.595,1.414h3.166v0.613h-4.172v-0.52l2.167-1.912c0.913-0.818,1.245-1.28,1.245-1.876
				c0-0.7-0.555-1.146-1.203-1.146C242.841,233.688,242.396,234.045,241.919,234.71z"/>
			<path fill="#939598" d="M246.755,233.771v-0.604h3.813v0.494l-1.877,2.082c1.049,0.085,1.972,0.588,1.972,1.688
				c0,1.075-0.889,1.811-1.997,1.811c-0.999,0-1.739-0.438-2.228-1.067l0.486-0.435c0.459,0.562,1.015,0.888,1.75,0.888
				c0.725,0,1.305-0.461,1.305-1.169c0-0.75-0.682-1.161-1.672-1.161h-0.383l-0.138-0.401l1.886-2.125H246.755L246.755,233.771z"/>
			<path fill="#939598" d="M252.052,233.167h0.804v0.042l-0.69,2.277h-0.366L252.052,233.167z"/>
			<path fill="#939598" d="M257.708,234.268c-0.442-0.375-0.862-0.588-1.408-0.588c-1.084,0-1.758,1.09-1.748,2.637
				c0.324-0.479,0.828-0.914,1.697-0.914c1.118,0,2.065,0.717,2.065,1.843c0,1.161-0.93,1.998-2.145,1.998
				c-0.656,0-1.193-0.229-1.568-0.607c-0.479-0.478-0.752-1.091-0.752-2.319c0-1.825,0.922-3.252,2.482-3.252
				c0.719,0,1.246,0.259,1.768,0.685L257.708,234.268z M256.164,235.982c-0.896,0-1.493,0.64-1.493,1.312
				c0,0.777,0.631,1.348,1.513,1.348c0.877,0,1.439-0.604,1.439-1.373C257.623,236.527,257.023,235.982,256.164,235.982z"/>
			<path fill="#939598" d="M259.66,233.167h0.793v0.042l-0.689,2.277h-0.359L259.66,233.167z M261.332,233.167h0.785v0.042
				l-0.69,2.277h-0.358L261.332,233.167z"/>
			<path fill="#939598" d="M269.727,239.139h-0.761l-1.364-1.8l-1.373,1.8h-0.734l1.732-2.244l-1.664-2.166h0.752l1.305,1.707
				l1.305-1.707h0.735l-1.675,2.15L269.727,239.139z"/>
			<path fill="#939598" d="M274.312,233.125h0.494v6.016h-0.664v-5.315l-1.127,0.35l-0.162-0.546L274.312,233.125z"/>
			<path fill="#939598" d="M278.716,239.242c-1.543,0-2.518-1.4-2.518-3.081c0-1.683,0.991-3.101,2.534-3.101
				c1.535,0,2.508,1.4,2.508,3.082S280.253,239.242,278.716,239.242z M278.716,233.68c-1.116,0-1.817,1.144-1.817,2.465
				c0,1.323,0.718,2.482,1.836,2.482c1.117,0,1.809-1.152,1.809-2.466C280.54,234.848,279.831,233.68,278.716,233.68z"/>
			<path fill="#939598" d="M282.578,233.167h0.802v0.042l-0.688,2.277h-0.367L282.578,233.167z"/>
			<path fill="#939598" d="M284.438,233.167h4.053v0.502l-2.713,5.47h-0.752l2.695-5.356h-3.283V233.167z"/>
			<path fill="#939598" d="M289.751,233.167h0.795v0.042l-0.69,2.277h-0.357L289.751,233.167z M291.425,233.167h0.785v0.042
				l-0.69,2.277h-0.357L291.425,233.167z"/>
		</g>
		<g enable-background="new    ">
			<path fill="#939598" d="M421.414,207.175c0,0.784-0.479,1.188-0.944,1.392c0.706,0.213,1.278,0.623,1.278,1.449
				c0,1.032-0.86,1.639-2.167,1.639h-2.652v-5.973h2.543C420.647,205.684,421.414,206.264,421.414,207.175z M420.732,207.27
				c0-0.598-0.471-0.98-1.323-0.98h-1.818v2.057h1.769C420.17,208.344,420.732,207.979,420.732,207.27z M421.065,209.975
				c0-0.656-0.547-1.033-1.588-1.033h-1.888v2.107h2.007C420.502,211.049,421.065,210.646,421.065,209.975z"/>
			<path fill="#939598" d="M424.92,211.186c0.605,0,1.032-0.246,1.393-0.623l0.409,0.367c-0.442,0.494-0.98,0.829-1.817,0.829
				c-1.21,0-2.199-0.93-2.199-2.305c0-1.28,0.896-2.306,2.114-2.306c1.306,0,2.057,1.043,2.057,2.338c0,0.061,0,0.13-0.009,0.207
				h-3.497C423.462,210.646,424.144,211.186,424.92,211.186z M426.21,209.206c-0.068-0.802-0.529-1.501-1.408-1.501
				c-0.769,0-1.349,0.64-1.434,1.501H426.21z"/>
			<path fill="#939598" d="M431.564,211.654v-0.889c-0.358,0.53-0.879,0.981-1.688,0.981c-1.059,0-2.106-0.836-2.106-2.294
				c0-1.451,1.048-2.305,2.106-2.305c0.818,0,1.348,0.442,1.688,0.938v-2.664h0.656v6.229h-0.656V211.654z M429.995,207.739
				c-0.854,0-1.554,0.631-1.554,1.706c0,1.049,0.718,1.715,1.554,1.715c0.819,0,1.597-0.684,1.597-1.715
				C431.591,208.421,430.814,207.739,429.995,207.739z"/>
			<path fill="#939598" d="M434.345,211.654h-0.655v-4.41h0.655v1.15c0.324-0.731,0.965-1.263,1.8-1.229v0.708h-0.053
				c-0.964,0-1.75,0.69-1.75,2.021v1.758L434.345,211.654L434.345,211.654z"/>
			<path fill="#939598" d="M438.968,211.758c-1.321,0-2.285-1.042-2.285-2.296c0-1.253,0.973-2.312,2.305-2.312
				c1.322,0,2.295,1.041,2.295,2.295C441.28,210.7,440.299,211.758,438.968,211.758z M438.968,207.729
				c-0.955,0-1.61,0.762-1.61,1.717s0.698,1.724,1.63,1.724c0.956,0,1.621-0.761,1.621-1.708
				C440.606,208.498,439.898,207.729,438.968,207.729z"/>
			<path fill="#939598" d="M444.479,211.758c-1.321,0-2.285-1.042-2.285-2.296c0-1.253,0.972-2.312,2.304-2.312
				c1.322,0,2.295,1.041,2.295,2.295C446.79,210.7,445.81,211.758,444.479,211.758z M444.479,207.729
				c-0.954,0-1.611,0.762-1.611,1.717s0.699,1.724,1.63,1.724c0.956,0,1.621-0.761,1.621-1.708
				C446.116,208.498,445.408,207.729,444.479,207.729z"/>
			<path fill="#939598" d="M453.026,207.148c1.014,0,1.639,0.684,1.639,1.774v2.729h-0.657v-2.576c0-0.854-0.427-1.331-1.144-1.331
				c-0.665,0-1.221,0.494-1.221,1.364v2.543h-0.648v-2.594c0-0.828-0.436-1.313-1.135-1.313c-0.698,0-1.229,0.58-1.229,1.39v2.518
				h-0.655v-4.408h0.655v0.742c0.291-0.436,0.686-0.836,1.426-0.836c0.719,0,1.179,0.384,1.417,0.879
				C451.788,207.543,452.259,207.148,453.026,207.148z"/>
		</g>
		<g enable-background="new    ">
			<path fill="#939598" d="M414.347,216.064h0.494v6.016h-0.666v-5.314l-1.126,0.351l-0.161-0.546L414.347,216.064z"/>
			<path fill="#939598" d="M420.036,216.064v4.035h0.931v0.563h-0.931v1.416h-0.647v-1.416h-3.146l-0.172-0.487l3.378-4.111H420.036
				z M419.388,217.02l-2.51,3.08h2.51V217.02z"/>
			<path fill="#939598" d="M422.236,216.107h0.802v0.043l-0.689,2.274h-0.368L422.236,216.107z"/>
			<path fill="#939598" d="M424.53,217.65l-0.495-0.357c0.538-0.802,1.103-1.271,2.152-1.271c1.082,0,1.851,0.718,1.851,1.697
				c0,0.879-0.461,1.416-1.51,2.33l-1.598,1.415h3.165v0.615h-4.172v-0.521l2.168-1.912c0.912-0.817,1.244-1.279,1.244-1.877
				c0-0.699-0.555-1.144-1.203-1.144C425.451,216.628,425.009,216.986,424.53,217.65z"/>
			<path fill="#939598" d="M429.435,216.107h0.796v0.043l-0.69,2.274h-0.357L429.435,216.107z M431.107,216.107h0.784v0.043
				l-0.69,2.274h-0.356L431.107,216.107z"/>
			<path fill="#939598" d="M439.501,222.08h-0.759l-1.366-1.801l-1.372,1.801h-0.731l1.729-2.245l-1.663-2.167h0.75l1.308,1.707
				l1.306-1.707h0.731l-1.673,2.15L439.501,222.08z"/>
			<path fill="#939598" d="M444.908,222.184c-0.777,0-1.341-0.314-1.843-0.733l0.393-0.521c0.486,0.426,0.938,0.641,1.467,0.641
				c1.076,0,1.802-1.092,1.774-2.619c-0.323,0.521-0.86,0.956-1.688,0.956c-1.229,0-2.081-0.777-2.081-1.859
				c0-1.144,0.879-2.04,2.148-2.04c0.685,0,1.188,0.23,1.569,0.615c0.471,0.469,0.741,1.118,0.741,2.32
				C447.391,220.843,446.384,222.184,444.908,222.184z M445.052,216.604c-0.896,0-1.434,0.655-1.434,1.407
				c0,0.769,0.599,1.313,1.469,1.313c0.912,0,1.483-0.666,1.483-1.356C446.572,217.2,445.948,216.604,445.052,216.604z"/>
			<path fill="#939598" d="M448.72,216.107h0.804v0.043l-0.692,2.274h-0.366L448.72,216.107z"/>
			<path fill="#939598" d="M451.015,216.107h3.438v0.621h-2.851l-0.129,1.912c0.351-0.152,0.685-0.266,1.178-0.266
				c1.161,0,2.063,0.691,2.063,1.835c0,1.176-0.888,1.972-2.134,1.972c-0.854,0-1.596-0.412-2.132-0.947l0.443-0.487
				c0.521,0.503,1.092,0.819,1.697,0.819c0.854,0,1.44-0.564,1.44-1.332c0-0.75-0.605-1.264-1.484-1.264
				c-0.503,0-0.903,0.153-1.254,0.342l-0.452-0.299L451.015,216.107z"/>
			<path fill="#939598" d="M456.03,216.107h0.793v0.043l-0.691,2.274h-0.357L456.03,216.107z M457.702,216.107h0.785v0.043
				l-0.691,2.274h-0.356L457.702,216.107z"/>
		</g>
		<g enable-background="new    ">
			<path fill="#939598" d="M252.073,338.965v1.047h1.521v0.486h-4.313v-1.613c0-0.973,0.519-1.613,1.374-1.613
				C251.593,337.271,252.073,338.047,252.073,338.965z M249.733,338.922v1.09h1.898v-1.064c0-0.715-0.384-1.186-0.955-1.186
				C250.052,337.762,249.733,338.227,249.733,338.922z"/>
			<path fill="#939598" d="M251.02,336.34l-0.39,0.143c-0.16-0.352-0.264-0.695-0.264-1.156c0-0.869,0.442-1.357,1.282-1.357h1.945
				v0.457h-0.48c0.291,0.222,0.549,0.59,0.549,1.15c0,0.592-0.333,1.188-0.998,1.188c-0.678,0-1.034-0.553-1.034-1.359
				c0-0.408,0.058-0.695,0.136-0.979h-0.109c-0.572,0-0.868,0.352-0.868,0.947C250.786,335.748,250.884,336.045,251.02,336.34z
				 M252.646,336.285c0.404,0,0.641-0.369,0.641-0.801c0-0.584-0.355-1.066-0.862-1.066h-0.309
				c-0.066,0.236-0.136,0.549-0.136,0.938C251.98,335.953,252.24,336.285,252.646,336.285z"/>
			<path fill="#939598" d="M253.596,332.484v0.475h-3.186v-0.475h0.554c-0.345-0.211-0.621-0.541-0.621-1.092
				c0-0.77,0.517-1.221,1.274-1.221h1.979v0.477h-1.861c-0.592,0-0.961,0.318-0.961,0.883c0,0.547,0.4,0.953,0.998,0.953H253.596
				L253.596,332.484z"/>
			<path fill="#939598" d="M252.689,328.523c0.388,0,0.529-0.219,0.529-0.535c0-0.162-0.029-0.297-0.111-0.463h0.406
				c0.088,0.166,0.139,0.346,0.139,0.572c0,0.512-0.254,0.898-0.899,0.898h-1.923v0.443h-0.418v-0.443h-0.961v-0.477h0.961v-1.01
				h0.418v1.01h1.859V328.523z"/>
			<path fill="#939598" d="M253.596,326.201v0.475h-3.186v-0.475h0.832c-0.528-0.234-0.912-0.695-0.888-1.301h0.511v0.035
				c0,0.695,0.498,1.266,1.461,1.266H253.596L253.596,326.201z"/>
			<path fill="#939598" d="M253.699,322.629c0.658,0.271,0.896,0.578,0.896,1.059c0,0.268-0.056,0.465-0.158,0.68l-0.375-0.16
				c0.078-0.154,0.115-0.295,0.115-0.498c0-0.283-0.146-0.461-0.597-0.652l-3.173,1.447v-0.525l2.656-1.154l-2.656-1.023v-0.506
				L253.699,322.629z"/>
		</g>
	</g>
</g>
</svg>
