<?xml version="1.0" encoding="utf-8"?>
<!-- Generator: Adobe Illustrator 15.0.2, SVG Export Plug-In . SVG Version: 6.00 Build 0)  -->
<!DOCTYPE svg PUBLIC "-//W3C//DTD SVG 1.1//EN" "http://www.w3.org/Graphics/SVG/1.1/DTD/svg11.dtd">
<svg version="1.1" id="Layer_1" xmlns="http://www.w3.org/2000/svg" xmlns:xlink="http://www.w3.org/1999/xlink" x="0px" y="0px"
	 width="394.455px" height="389.369px" viewBox="52.5 56.118 394.455 389.369" enable-background="new 52.5 56.118 394.455 389.369"
	 xml:space="preserve">
<g id="_x32_0_x25___PMS_2985_fill" display="none">
	<polygon display="inline" fill="#EBEEEF" points="1.512,18.65 1.512,332.441 178.012,332.441 178.012,316.941 233.012,316.941 
		233.012,331.441 336.512,331.441 336.512,18.441 216.512,18.441 216.512,8.941 127.512,8.941 127.512,15.941 101.012,15.941 
		101.012,19.441 	"/>
</g>
<g>
	<g id="_x32_0_x25__grey_fill">
		<rect x="326.219" y="418.742" fill="#B3B3B3" width="26.039" height="25.141"/>
		<rect x="415.451" y="415.638" fill="#B3B3B3" width="29.003" height="27.261"/>
		<rect x="170.419" y="75.392" fill="#B3B3B3" width="38.19" height="10.69"/>
		<rect x="297.422" y="75.392" fill="#B3B3B3" width="45.581" height="10.097"/>
		<rect x="430.663" y="79.06" fill="#B3B3B3" width="14.337" height="6.729"/>
		<rect x="55" y="79.32" fill="#B3B3B3" width="28.978" height="5.883"/>
	</g>
	<g id="icons">
		<polyline fill="#FFFFFF" stroke="#939598" points="186.555,296.725 186.555,418.625 260.004,418.625 260.004,442.987 
			161.312,442.987 161.312,296.529 184.994,296.529 		"/>
		<g>
			<rect x="213.583" y="77.246" fill="none" stroke="#939598" width="43.883" height="2.317"/>
			<rect x="247.229" y="79.544" fill="none" stroke="#939598" width="47.979" height="2.066"/>
		</g>
		<g>
			<rect x="302.814" y="66.333" fill="none" stroke="#939598" width="3.365" height="3.364"/>
			<rect x="201.589" y="66.333" fill="none" stroke="#939598" width="3.364" height="3.364"/>
			<line fill="none" stroke="#939598" x1="303.105" y1="68.82" x2="204.953" y2="68.82"/>
			<line fill="none" stroke="#939598" x1="302.814" y1="69.697" x2="302.814" y2="73.793"/>
			<line fill="none" stroke="#939598" x1="204.3" y1="69.697" x2="204.3" y2="75.109"/>
			<line fill="none" stroke="#939598" x1="201.589" y1="69.697" x2="201.589" y2="74.817"/>
			<line fill="none" stroke="#939598" x1="204.953" y1="66.333" x2="303.398" y2="66.333"/>
			<line fill="none" stroke="#939598" x1="306.18" y1="69.697" x2="306.18" y2="73.812"/>
		</g>
		<line fill="none" stroke="#939598" x1="171.259" y1="86.373" x2="84.271" y2="86.373"/>
		<line fill="none" stroke="#939598" x1="429.786" y1="86.688" x2="342.8" y2="86.688"/>
		<g>
			<polygon fill="none" stroke="#939598" points="127.88,260.635 125.952,260.693 125.934,288.52 127.89,288.533 			"/>
			<path fill="none" stroke="#939598" d="M127.009,288.557c-15.347-0.521-27.365-13.162-26.841-28.508"/>
		</g>
		<g>
			<polygon fill="none" stroke="#939598" points="361.402,358.452 363.357,358.46 363.378,386.335 361.421,386.324 			"/>
			<path fill="none" stroke="#939598" d="M362.303,386.344c15.346-0.517,27.364-13.135,26.842-28.479"/>
		</g>
		<g>
			<polygon fill="none" stroke="#939598" points="127.828,349.434 125.874,349.449 125.855,321.577 127.861,321.561 			"/>
			<path fill="none" stroke="#939598" d="M127.006,321.539c-15.347,0.519-27.364,13.212-26.841,28.556"/>
		</g>
		<g>
			<polygon fill="none" stroke="#939598" points="371.408,285.632 371.418,283.773 397.896,283.754 397.888,285.611 			"/>
			<path fill="none" stroke="#939598" d="M397.907,284.775c-0.495-14.58-12.479-25.998-27.058-25.498"/>
		</g>
		<g>
			<polygon fill="none" stroke="#939598" points="335.989,313.145 337.941,313.159 337.961,285.285 335.955,285.27 			"/>
			<path fill="none" stroke="#939598" d="M336.811,285.249c15.346,0.521,27.363,13.212,26.842,28.557"/>
		</g>
		<g>
			<polygon fill="none" stroke="#939598" points="325.709,404.225 326.689,402.649 304.305,388.505 303.322,390.08 			"/>
			<path fill="none" stroke="#939598" d="M340.238,382.237"/>
			<path fill="none" stroke="#939598" d="M303.751,389.361c5.081-7.478,13.244-11.57,21.591-11.654"/>
		</g>
		<g>
			<polygon fill="none" stroke="#939598" points="185.146,251.496 185.135,249.642 158.656,249.623 158.666,251.48 			"/>
			<path fill="none" stroke="#939598" d="M158.645,250.645c0.497-14.58,12.479-26.123,27.057-25.625"/>
		</g>
		<g>
			<polygon fill="none" stroke="#939598" points="408.429,322.471 408.418,324.326 381.939,324.346 381.949,322.488 			"/>
			<path fill="none" stroke="#939598" d="M381.927,323.325c0.496,14.578,12.479,25.994,27.06,25.497"/>
		</g>
		<g>
			<polygon fill="none" stroke="#939598" points="184.974,267.803 184.981,269.287 206.163,269.301 206.157,267.812 			"/>
			<path fill="none" stroke="#939598" d="M206.174,268.486c-0.396,11.662-9.983,20.799-21.646,20.397"/>
		</g>
		
			<rect x="211.278" y="352.885" transform="matrix(0.7071 0.7072 -0.7072 0.7071 327.0685 -61.221)" fill="#FFFFFF" stroke="#939598" width="52.297" height="22.534"/>
		<line fill="none" stroke="#939598" x1="338.799" y1="359.918" x2="338.799" y2="418.723"/>
		<line fill="none" stroke="#939598" x1="143.662" y1="261.91" x2="143.662" y2="347.548"/>
		<polyline fill="none" stroke="#939598" points="91.877,262.203 91.877,272.734 67.595,272.734 67.595,336.513 92.755,336.513 
			92.755,349.094 		"/>
		<line fill="none" stroke="#939598" x1="169.992" y1="262.203" x2="169.992" y2="296.432"/>
		<polyline fill="none" stroke="#939598" points="373.613,246.404 432.126,246.404 432.126,299.65 373.907,299.65 		"/>
		
			<line fill="none" stroke="#939598" stroke-dasharray="1.5,1.5,1.5,1.5,1.5,1.5" x1="146.461" y1="261.91" x2="146.461" y2="349.386"/>
		
			<line fill="none" stroke="#939598" stroke-dasharray="1.5,1.5,1.5,1.5,1.5,1.5" x1="167.481" y1="262.203" x2="167.481" y2="297.018"/>
		<line fill="none" stroke="#939598" stroke-dasharray="1.5,1.5,1.5,1.5,1.5,1.5" x1="341.5" y1="359.04" x2="341.5" y2="418.138"/>
		<polyline fill="none" stroke="#939598" stroke-dasharray="1.5,1.5,1.5,1.5,1.5,1.5" points="373.322,243.452 435.031,243.452 
			435.031,302.396 373.613,302.396 		"/>
		<polyline fill="none" stroke="#939598" stroke-dasharray="1.5,1.5,1.5,1.5,1.5,1.5" points="91.292,269.658 64.609,269.658 
			64.609,339.266 92.755,339.266 		"/>
		<polyline fill="#FFFFFF" stroke="#939598" points="387.072,441.25 387.072,420.2 414.477,420.2 414.477,443.592 		"/>
		<rect x="139.372" y="349.191" fill="#FFFFFF" stroke="#939598" width="22.905" height="93.229"/>
		<g>
			<g>
				<g>
					<g>
						<rect x="415.703" y="323.639" fill="#FFFFFF" stroke="#939598" width="21.704" height="23.623"/>
						<path fill="#FFFFFF" stroke="#939598" d="M425.834,335.45"/>
						<polyline fill="#FFFFFF" stroke="#939598" points="422.181,328.285 418.877,328.285 418.108,331.137 418.108,339.876 
							418.877,342.765 422.181,342.765 						"/>
						<line fill="none" stroke="#939598" x1="422.181" y1="347.436" x2="422.181" y2="323.639"/>
						<path fill="#FFFFFF" stroke="#939598" d="M424.726,335.525"/>
					</g>
				</g>
			</g>
			<polygon fill="#FFFFFF" stroke="#939598" points="420.755,346.114 420.752,344.208 422.083,343.788 422.088,346.535 			"/>
		</g>
		<g>
			<path fill="#FFFFFF" stroke="#939598" stroke-miterlimit="10" d="M379.02,425.411c0-5.223-3.172-10.971-7.084-10.971
				s-7.068,5.75-7.068,10.971c0,5.223,3.156,7.94,7.068,7.94S379.02,430.634,379.02,425.411"/>
			<path fill="#FFFFFF" stroke="#939598" d="M379.02,425.411c0-5.223-3.172-10.971-7.084-10.971s-7.068,5.75-7.068,10.971
				c0,5.223,3.156,7.94,7.068,7.94S379.02,430.634,379.02,425.411z"/>
			<path fill="#FFFFFF" stroke="#939598" stroke-miterlimit="10" d="M367.693,431.64c0-0.294-0.238-0.53-0.531-0.53h-2.465
				c-0.293,0-0.532,0.236-0.532,0.53v0.091c0,0.293,0.239,0.531,0.532,0.531h2.465c0.293,0,0.531-0.238,0.531-0.531V431.64z"/>
			<path fill="#FFFFFF" stroke="#939598" d="M367.693,431.64c0-0.294-0.238-0.53-0.531-0.53h-2.465c-0.293,0-0.532,0.236-0.532,0.53
				v0.091c0,0.293,0.239,0.531,0.532,0.531h2.465c0.293,0,0.531-0.238,0.531-0.531V431.64z"/>
			<path fill="#FFFFFF" stroke="#939598" stroke-miterlimit="10" d="M363.789,432.276c-0.889,0-1.609,2.404-1.609,3.295
				c0,0.9,0.723,3.305,1.609,3.305h16.165c0.89,0,1.61-2.406,1.61-3.305c0-0.891-0.722-3.293-1.61-3.293L363.789,432.276z"/>
			<path fill="#FFFFFF" stroke="#939598" d="M363.789,432.276c-0.889,0-1.609,2.404-1.609,3.295c0,0.9,0.723,3.305,1.609,3.305
				h16.165c0.89,0,1.61-2.406,1.61-3.305c0-0.891-0.722-3.293-1.61-3.293L363.789,432.276z"/>
			<path fill="#FFFFFF" stroke="#939598" stroke-miterlimit="10" d="M377.143,425.191c0-3.835-2.332-8.064-5.207-8.064
				c-2.873,0-5.203,4.229-5.203,8.064c0,3.84,2.33,5.834,5.203,5.834C374.811,431.025,377.143,429.03,377.143,425.191"/>
			<path fill="#FFFFFF" stroke="#939598" d="M377.143,425.191c0-3.835-2.332-8.064-5.207-8.064c-2.873,0-5.203,4.229-5.203,8.064
				c0,3.84,2.33,5.834,5.203,5.834C374.811,431.025,377.143,429.03,377.143,425.191z"/>
		</g>
		<g>
			<g>
				<g>
					<rect x="413.49" y="360.694" fill="#FFFFFF" stroke="#939598" width="28.667" height="54.707"/>
					<path fill="#FFFFFF" stroke="#939598" d="M427.846,388.778"/>
				</g>
				<g>
					<polyline fill="#FFFFFF" stroke="#939598" points="428.126,413.732 439.583,413.732 439.583,362.748 416.067,362.748 
						416.067,413.732 427.069,413.732 					"/>
					<path fill="#FFFFFF" stroke="#939598" d="M427.846,388.778"/>
				</g>
				<line fill="none" stroke="#939598" x1="416.067" y1="413.732" x2="427.056" y2="389.86"/>
				<line fill="none" stroke="#939598" x1="428.681" y1="387.729" x2="439.583" y2="362.748"/>
				<line fill="none" stroke="#939598" x1="416.067" y1="362.748" x2="426.947" y2="387.606"/>
				<line fill="none" stroke="#939598" x1="428.709" y1="389.899" x2="439.583" y2="413.732"/>
				<g>
					<path fill="#FFFFFF" stroke="#939598" d="M429.073,388.778c0-0.701-0.688-1.269-1.229-1.269c-0.537,0-1.142,0.566-1.142,1.269
						c0,0.703,0.604,1.269,1.142,1.269C428.385,390.047,429.073,389.479,429.073,388.778z"/>
					<path fill="#FFFFFF" stroke="#939598" d="M427.846,388.778"/>
				</g>
			</g>
			<path fill="#FFFFFF" stroke="#939598" d="M429.035,411.863c0-0.723-2.611-0.723-2.611,0s0.585,1.307,1.308,1.307
				C428.451,413.17,429.035,412.586,429.035,411.863z"/>
			<polyline fill="#FFFFFF" stroke="#939598" points="427.46,415.747 427.46,413.248 428.189,413.248 428.189,415.749 			"/>
		</g>
		<g>
			<path fill="#FFFFFF" stroke="#939598" stroke-miterlimit="10" d="M72.723,374.525c5.222,0,10.972-3.175,10.972-7.084
				c0-3.911-5.75-7.07-10.972-7.07c-5.224,0-7.941,3.159-7.941,7.07C64.781,371.352,67.499,374.525,72.723,374.525"/>
			<path fill="#FFFFFF" stroke="#939598" d="M72.723,374.525c5.222,0,10.972-3.175,10.972-7.084c0-3.911-5.75-7.07-10.972-7.07
				c-5.224,0-7.941,3.159-7.941,7.07C64.781,371.352,67.499,374.525,72.723,374.525z"/>
			<path fill="#FFFFFF" stroke="#939598" stroke-miterlimit="10" d="M66.493,363.202c0.293,0,0.533-0.241,0.533-0.533v-2.467
				c0-0.291-0.24-0.53-0.533-0.53h-0.089c-0.293,0-0.533,0.239-0.533,0.53v2.467c0,0.292,0.24,0.533,0.533,0.533H66.493z"/>
			<path fill="#FFFFFF" stroke="#939598" d="M66.493,363.202c0.293,0,0.533-0.241,0.533-0.533v-2.467c0-0.291-0.24-0.53-0.533-0.53
				h-0.089c-0.293,0-0.533,0.239-0.533,0.53v2.467c0,0.292,0.24,0.533,0.533,0.533H66.493z"/>
			<path fill="#FFFFFF" stroke="#939598" stroke-miterlimit="10" d="M65.857,359.295c0-0.887-2.407-1.607-3.296-1.607
				c-0.9,0-3.305,0.722-3.305,1.607v16.166c0,0.889,2.407,1.609,3.305,1.609c0.891,0,3.294-0.722,3.294-1.609L65.857,359.295z"/>
			<path fill="#FFFFFF" stroke="#939598" d="M65.857,359.295c0-0.887-2.407-1.607-3.296-1.607c-0.9,0-3.305,0.722-3.305,1.607
				v16.166c0,0.889,2.407,1.609,3.305,1.609c0.891,0,3.294-0.722,3.294-1.609L65.857,359.295z"/>
			<path fill="#FFFFFF" stroke="#939598" stroke-miterlimit="10" d="M72.939,372.647c3.838,0,8.067-2.33,8.067-5.206
				c0-2.874-4.228-5.205-8.067-5.205c-3.838,0-5.833,2.331-5.833,5.205C67.107,370.317,69.102,372.647,72.939,372.647"/>
			<path fill="#FFFFFF" stroke="#939598" d="M72.939,372.647c3.838,0,8.067-2.33,8.067-5.206c0-2.874-4.228-5.205-8.067-5.205
				c-3.838,0-5.833,2.331-5.833,5.205C67.107,370.317,69.102,372.647,72.939,372.647z"/>
		</g>
		<g>
			<g>
				<rect x="57.692" y="387.276" fill="#FFFFFF" stroke="#939598" width="27.646" height="53.472"/>
				<path fill="#FFFFFF" stroke="#939598" d="M71.514,414.012"/>
				<path fill="#FFFFFF" stroke="#939598" d="M71.514,413.831"/>
				<path fill="#FFFFFF" stroke="#939598" d="M71.514,395.697"/>
			</g>
			<circle fill="#FFFFFF" stroke="#939598" cx="71.384" cy="399.464" r="1.133"/>
			<path fill="#FFFFFF" stroke="#939598" d="M71.431,437.696c7.925,0,10.825-1.828,10.825-4.393c0,0,0-38.43,0-39.059
				c0-0.627-0.169-1.922-1.827-1.922c-1.659,0-8.998,0-8.998,0h-0.019c0,0-7.338,0-8.998,0c-1.657,0-1.827,1.291-1.827,1.922
				c0,0.629,0,39.033,0,39.033l0.002,0.022C60.589,435.868,63.557,437.696,71.431,437.696z"/>
			<path fill="#FFFFFF" stroke="#939598" d="M73.763,390.338c-0.002,0.643,0.516,1.157,1.165,1.157c0.629,0,1.15-0.516,1.155-1.157
				c-0.005-0.638-0.526-1.162-1.155-1.162C74.28,389.176,73.759,389.692,73.763,390.338z"/>
			<path fill="#FFFFFF" stroke="#939598" d="M66.577,390.338c-0.007,0.643,0.521,1.157,1.158,1.157c0.635,0,1.16-0.516,1.16-1.157
				c0-0.638-0.524-1.162-1.16-1.155C67.095,389.176,66.577,389.7,66.577,390.338z"/>
			<path fill="#FFFFFF" stroke="#939598" d="M72.946,389.994c0-0.948-0.642-1.717-1.593-1.72c-0.948,0.003-1.467,0.771-1.467,1.72
				l0.61,6.547c0,0.644,1.734,0.644,1.734,0L72.946,389.994z"/>
		</g>
		<g>
			<g>
				<path fill="#FFFFFF" stroke="#939598" d="M166.399,358.697c0-0.497,0.403-0.902,0.903-0.902h15.734
					c0.498,0,0.901,0.405,0.901,0.902v26.688c0,0.499-0.405,0.903-0.901,0.903h-15.733c-0.5,0-0.903-0.407-0.903-0.903
					L166.399,358.697L166.399,358.697z"/>
				<path fill="#FFFFFF" stroke="#939598" d="M174.488,371.948"/>
			</g>
			<g>
				<circle fill="#FFFFFF" stroke="#939598" cx="175.557" cy="371.948" r="1.018"/>
				<path fill="#FFFFFF" stroke="#939598" d="M175.556,371.948"/>
			</g>
			<g>
				<g>
					<rect x="167.026" y="367.496" fill="#FFFFFF" stroke="#939598" width="2.131" height="8.905"/>
					<path fill="#FFFFFF" stroke="#939598" d="M168.091,371.948"/>
				</g>
				<g>
					<rect x="169.102" y="371.491" fill="#FFFFFF" stroke="#939598" width="4.195" height="0.91"/>
					<path fill="#FFFFFF" stroke="#939598" d="M170.929,371.948"/>
				</g>
				<g>
					<circle fill="#FFFFFF" stroke="#939598" cx="168.113" cy="371.948" r="0.992"/>
					<path fill="#FFFFFF" stroke="#939598" d="M168.113,371.948"/>
				</g>
			</g>
			<g>
				<path fill="#FFFFFF" stroke="#939598" d="M175.556,371.948"/>
				<path fill="none" stroke="#939598" d="M169.895,371.398v-11.222c0-0.523,0.424-0.95,0.947-0.95h10.792
					c0.52,0,0.945,0.423,0.945,0.95v23.73c0,0.523-0.424,0.946-0.945,0.946h-10.792c-0.522,0-0.947-0.423-0.947-0.946v-11.382"/>
			</g>
		</g>
		<g>
			<g>
				<rect x="212.938" y="416.08" fill="#FFFFFF" stroke="#939598" width="27.207" height="23.113"/>
				<path fill="#FFFFFF" stroke="#939598" d="M226.542,427.638"/>
			</g>
			<g>
				<g>
					<circle fill="#FFFFFF" stroke="#939598" cx="232.76" cy="421.201" r="3.305"/>
					<path fill="#FFFFFF" stroke="#939598" d="M232.76,421.201"/>
				</g>
				<g>
					<circle fill="#FFFFFF" stroke="#939598" stroke-width="0.8" cx="232.796" cy="421.202" r="2.327"/>
					<path fill="#FFFFFF" stroke="#939598" d="M232.796,421.201"/>
				</g>
			</g>
			<g>
				<g>
					<circle fill="#FFFFFF" stroke="#939598" cx="219.553" cy="430.856" r="3.304"/>
					<path fill="#FFFFFF" stroke="#939598" d="M219.553,430.854"/>
				</g>
				<g>
					<circle fill="#FFFFFF" stroke="#939598" stroke-width="0.8" cx="219.52" cy="430.856" r="2.327"/>
					<path fill="#FFFFFF" stroke="#939598" d="M219.52,430.854"/>
				</g>
			</g>
			<g>
				<g>
					<circle fill="#FFFFFF" stroke="#939598" cx="232.807" cy="430.824" r="3.767"/>
					<path fill="#FFFFFF" stroke="#939598" d="M232.807,430.823"/>
				</g>
				<g>
					<circle fill="#FFFFFF" stroke="#939598" stroke-width="0.8" cx="232.77" cy="430.823" r="2.654"/>
					<path fill="#FFFFFF" stroke="#939598" d="M232.77,430.823"/>
				</g>
			</g>
			<g>
				<g>
					<circle fill="#FFFFFF" stroke="#939598" cx="219.568" cy="420.947" r="3.767"/>
					<path fill="#FFFFFF" stroke="#939598" d="M219.568,420.946"/>
				</g>
				<g>
					<circle fill="#FFFFFF" stroke="#939598" stroke-width="0.8" cx="219.531" cy="420.948" r="2.655"/>
					<path fill="#FFFFFF" stroke="#939598" d="M219.531,420.946"/>
				</g>
			</g>
			<line fill="none" stroke="#939598" x1="240.182" y1="435.996" x2="212.938" y2="435.996"/>
			<line fill="none" stroke="#939598" x1="240.145" y1="437.272" x2="212.938" y2="437.272"/>
		</g>
		<g>
			<g>
				<rect x="165.342" y="299.516" fill="#FFFFFF" stroke="#939598" width="25.708" height="29.14"/>
				<path fill="#FFFFFF" stroke="#939598" d="M178.195,312.577"/>
			</g>
			<line fill="none" stroke="#939598" x1="189.253" y1="328.727" x2="189.253" y2="299.516"/>
			<rect x="191.067" y="301.947" fill="#FFFFFF" stroke="#939598" width="1.252" height="2.361"/>
			<path fill="#FFFFFF" stroke="#939598" d="M191.625,303.127"/>
		</g>
		<g>
			<polygon fill="none" stroke="#939598" points="312.729,427.389 310.771,427.403 310.755,399.531 312.761,399.515 			"/>
			<path fill="none" stroke="#939598" d="M311.902,399.494c-15.344,0.521-27.362,13.211-26.84,28.557"/>
		</g>
		<polyline fill="none" stroke="#939598" stroke-dasharray="1.5,1.5,1.5,1.5,1.5,1.5" points="176.524,401.268 176.524,430.327 
			260.393,430.327 		"/>
		
			<line fill="none" stroke="#939598" stroke-dasharray="1.5,1.5,1.5,1.5,1.5,1.5" x1="176.524" y1="318.061" x2="176.524" y2="394.638"/>
		
			<line fill="none" stroke="#939598" stroke-dasharray="1.5,1.5,1.5,1.5,1.5,1.5" x1="176.524" y1="298.479" x2="176.524" y2="309.793"/>
		<g>
			<polyline fill="none" stroke="#939598" stroke-dasharray="1.5,1,1.5,1,1.5,1" points="187.169,408.277 167.303,408.277 
				167.303,388.794 186.724,388.794 			"/>
			<polyline fill="#FFFFFF" stroke="#939598" points="186.724,388.765 187.903,388.765 187.903,408.277 187.176,408.277 			"/>
		</g>
		<g>
			<g>
				<g>
					<path fill="none" stroke="#939598" d="M400.628,428.279"/>
				</g>
				<g>
					<path fill="none" stroke="#939598" d="M400.628,429.522"/>
				</g>
				<g>
					<circle fill="none" stroke="#939598" cx="400.628" cy="428.278" r="1.19"/>
					<path fill="none" stroke="#939598" d="M400.628,428.279"/>
				</g>
				<g>
					<g>
						<rect x="395.636" y="435.739" fill="none" stroke="#939598" width="10.011" height="2.487"/>
						<path fill="none" stroke="#939598" d="M400.628,436.982"/>
					</g>
					<g>
						<rect x="400.097" y="430.913" fill="none" stroke="#939598" width="1.062" height="4.716"/>
						<path fill="none" stroke="#939598" d="M400.628,433.673"/>
					</g>
					<g>
						<circle fill="none" stroke="#939598" cx="400.628" cy="436.958" r="1.154"/>
						<path fill="none" stroke="#939598" d="M400.628,436.96"/>
					</g>
				</g>
			</g>
			<g>
				<rect x="390.648" y="422.37" fill="none" stroke="#939598" width="19.982" height="16.237"/>
				<rect x="392.279" y="424.002" fill="none" stroke="#939598" width="16.682" height="11.677"/>
			</g>
		</g>
		<g>
			<g>
				<g>
					<path fill="none" stroke="#939598" d="M148.048,378.853"/>
				</g>
				<g>
					<path fill="none" stroke="#939598" d="M149.293,378.853"/>
				</g>
				<g>
					<circle fill="none" stroke="#939598" cx="148.048" cy="378.854" r="1.19"/>
					<path fill="none" stroke="#939598" d="M148.048,378.853"/>
				</g>
				<g>
					<g>
						<rect x="155.508" y="373.836" fill="none" stroke="#939598" width="2.487" height="10.01"/>
						<path fill="none" stroke="#939598" d="M156.753,378.853"/>
					</g>
					<g>
						<rect x="150.681" y="378.323" fill="none" stroke="#939598" width="4.717" height="1.061"/>
						<path fill="none" stroke="#939598" d="M153.443,378.853"/>
					</g>
					<g>
						<circle fill="none" stroke="#939598" cx="156.728" cy="378.854" r="1.153"/>
						<path fill="none" stroke="#939598" d="M156.728,378.853"/>
					</g>
				</g>
			</g>
			<g>
				<rect x="142.138" y="368.851" fill="none" stroke="#939598" width="16.236" height="19.98"/>
				<rect x="143.771" y="370.521" fill="none" stroke="#939598" width="11.679" height="16.683"/>
			</g>
		</g>
		<g>
			<g>
				<g>
					<path fill="none" stroke="#939598" d="M148.05,411.604"/>
				</g>
				<g>
					<path fill="none" stroke="#939598" d="M149.293,411.604"/>
				</g>
				<g>
					<circle fill="none" stroke="#939598" cx="148.048" cy="411.603" r="1.191"/>
					<path fill="none" stroke="#939598" d="M148.05,411.604"/>
				</g>
				<g>
					<g>
						<rect x="155.51" y="406.585" fill="none" stroke="#939598" width="2.487" height="10.012"/>
						<path fill="none" stroke="#939598" d="M156.753,411.604"/>
					</g>
					<g>
						<rect x="150.683" y="411.073" fill="none" stroke="#939598" width="4.717" height="1.061"/>
						<path fill="none" stroke="#939598" d="M153.443,411.604"/>
					</g>
					<g>
						<circle fill="none" stroke="#939598" cx="156.728" cy="411.604" r="1.153"/>
						<path fill="none" stroke="#939598" d="M156.728,411.604"/>
					</g>
				</g>
			</g>
			<g>
				<rect x="142.138" y="401.602" fill="none" stroke="#939598" width="16.236" height="19.982"/>
				<rect x="143.77" y="403.271" fill="none" stroke="#939598" width="11.679" height="16.683"/>
			</g>
		</g>
	</g>
	<g id="walls">
		<path fill="none" stroke="#939598" stroke-width="3" d="M326.512,426.037"/>
		<line fill="none" stroke="#939598" stroke-width="3" x1="259.344" y1="427.988" x2="259.545" y2="414.844"/>
		<line fill="none" stroke="#939598" stroke-width="5" x1="213.594" y1="79.354" x2="209.486" y2="79.354"/>
		<line fill="none" stroke="#939598" stroke-width="5" x1="298.734" y1="79.372" x2="293.501" y2="79.372"/>
		<line fill="none" stroke="#939598" stroke-width="3" x1="325.342" y1="403.803" x2="325.342" y2="427.988"/>
		<polyline fill="none" stroke="#939598" stroke-width="3" points="361.327,358.936 325.342,358.936 325.342,377.68 		"/>
		<line fill="none" stroke="#939598" stroke-width="3" x1="443.091" y1="358.936" x2="388.757" y2="358.936"/>
		<polyline fill="none" stroke="#939598" stroke-width="5" points="285.748,427.208 260.592,427.208 260.449,442.987 55,442.987 
			55,79.32 171.173,79.345 		"/>
		<polyline fill="none" stroke="#939598" stroke-width="5" points="312.729,427.208 325.342,427.134 325.342,442.897 
			444.455,442.897 444.455,79.405 342.311,79.381 		"/>
		<line fill="none" stroke="#939598" stroke-width="4" x1="55.893" y1="385.371" x2="85.986" y2="385.371"/>
		<line fill="none" stroke="#939598" stroke-width="3" x1="352.843" y1="359.334" x2="352.843" y2="442.128"/>
		<line fill="none" stroke="#939598" stroke-width="3" x1="352.843" y1="418.742" x2="326.219" y2="418.742"/>
		<polyline fill="none" stroke="#939598" stroke-width="3" points="414.797,442.42 414.797,416.868 443.828,416.868 		"/>
		<polyline fill="none" stroke="#939598" stroke-width="3" points="335.707,312.672 325.342,312.672 325.342,85.788 		"/>
		<line fill="none" stroke="#939598" stroke-width="3" x1="444.707" y1="312.672" x2="363.131" y2="312.672"/>
		<polyline fill="none" stroke="#939598" stroke-width="3" points="371.857,259.557 371.857,233.44 444.414,233.44 		"/>
		<line fill="none" stroke="#939598" stroke-width="3" x1="371.857" y1="311.645" x2="371.857" y2="285.632"/>
		<polyline fill="none" stroke="#939598" stroke-width="5" points="297.396,79.356 297.396,75.493 343.003,75.392 343.003,79.381 		
			"/>
		<polyline fill="none" stroke="#939598" stroke-width="3" points="341.82,79.381 341.82,85.488 298.553,85.488 298.553,79.256 		
			"/>
		<polyline fill="none" stroke="#939598" stroke-width="5" points="170.419,79.645 170.419,75.392 209.143,75.392 209.143,79.354 		
			"/>
		<polyline fill="none" stroke="#939598" stroke-width="3" points="207.984,79.304 207.984,85.186 171.651,85.186 171.651,79.645 		
			"/>
		<polyline fill="none" stroke="#939598" stroke-width="3" points="430.663,79.06 430.663,85.48 443.537,85.48 		"/>
		<polyline fill="none" stroke="#939598" stroke-width="3" points="82.817,79.428 82.817,85.262 55.893,85.262 		"/>
		<line fill="none" stroke="#939598" stroke-width="3" x1="327.682" y1="86.666" x2="327.682" y2="312.524"/>
		<polyline fill="none" stroke="#939598" stroke-width="3" points="184.994,288.506 184.994,296.725 156.242,296.725 
			156.242,260.445 		"/>
		<line fill="none" stroke="#939598" stroke-width="3" x1="184.994" y1="251.66" x2="184.994" y2="267.902"/>
		<line fill="none" stroke="#939598" stroke-width="3" x1="184.994" y1="86.081" x2="184.994" y2="225.217"/>
		<line fill="none" stroke="#939598" stroke-width="3" x1="128.098" y1="260.74" x2="184.62" y2="260.74"/>
		<line fill="none" stroke="#939598" stroke-width="3" x1="56.603" y1="260.74" x2="100.606" y2="260.74"/>
		<line fill="none" stroke="#939598" stroke-width="4" x1="162.277" y1="297.896" x2="162.277" y2="442.42"/>
		<line fill="none" stroke="#939598" stroke-width="3" x1="127.764" y1="349.094" x2="161.215" y2="349.094"/>
		<line fill="none" stroke="#939598" stroke-width="3" x1="56.478" y1="349.094" x2="100.599" y2="349.094"/>
		<line fill="none" stroke="#939598" stroke-width="3" x1="408.429" y1="348.422" x2="408.429" y2="358.455"/>
		<line fill="none" stroke="#939598" stroke-width="3" x1="408.429" y1="312.524" x2="408.429" y2="322.18"/>
	</g>
	<g id="windows">
		<g>
			<g>
				<rect x="85.181" y="77.061" fill="#FFFFFF" stroke="#939598" width="81.405" height="4.299"/>
				<line fill="none" stroke="#939598" x1="166.586" y1="79.188" x2="84.303" y2="79.188"/>
				<line fill="none" stroke="#939598" stroke-width="2" x1="140.052" y1="81.545" x2="140.052" y2="77.456"/>
			</g>
			<line fill="none" stroke="#939598" stroke-width="2" x1="112.682" y1="81.691" x2="112.682" y2="77.475"/>
		</g>
		<g>
			<g>
				<rect x="346.73" y="77.25" fill="#FFFFFF" stroke="#939598" width="81.404" height="4.298"/>
				<line fill="none" stroke="#939598" x1="428.136" y1="79.376" x2="345.854" y2="79.376"/>
				<line fill="none" stroke="#939598" stroke-width="2" x1="401.602" y1="81.733" x2="401.602" y2="77.643"/>
			</g>
			<line fill="none" stroke="#939598" stroke-width="2" x1="374.23" y1="81.879" x2="374.23" y2="77.665"/>
		</g>
	</g>
	<g id="Type">
		<g enable-background="new    ">
			<path fill="#939598" d="M230.96,62.182c-0.86,0-1.409-0.425-1.769-1.017l0.466-0.401c0.353,0.532,0.712,0.819,1.312,0.819
				c0.647,0,1.123-0.467,1.123-1.377v-3.844h0.657v3.835C232.748,61.518,231.986,62.182,230.96,62.182z"/>
			<path fill="#939598" d="M237.18,57.863h0.623V62.1h-0.623v-0.738c-0.287,0.46-0.722,0.828-1.451,0.828
				c-1.024,0-1.623-0.689-1.623-1.697v-2.63h0.629v2.474c0,0.788,0.428,1.279,1.172,1.279c0.723,0,1.271-0.532,1.271-1.328v-2.426
				L237.18,57.863L237.18,57.863z"/>
			<path fill="#939598" d="M239.275,62.1v-5.982h0.631V62.1H239.275z"/>
			<path fill="#939598" d="M241.389,56.937V56.24h0.721v0.697H241.389z M241.432,62.1v-4.237h0.629V62.1H241.432z"/>
			<path fill="#939598" d="M245.395,61.65c0.584,0,0.994-0.238,1.338-0.6l0.393,0.353c-0.426,0.475-0.941,0.796-1.745,0.796
				c-1.165,0-2.114-0.895-2.114-2.212c0-1.231,0.859-2.215,2.033-2.215c1.254,0,1.975,1,1.975,2.246c0,0.058,0,0.123-0.008,0.196
				h-3.36C243.994,61.134,244.648,61.65,245.395,61.65z M246.633,59.748c-0.064-0.769-0.508-1.443-1.354-1.443
				c-0.736,0-1.293,0.615-1.377,1.443H246.633z"/>
			<path fill="#939598" d="M249.229,60.896c0,0.516,0.287,0.706,0.713,0.706c0.213,0,0.394-0.041,0.613-0.148v0.542
				c-0.22,0.115-0.459,0.181-0.763,0.181c-0.681,0-1.196-0.338-1.196-1.197v-2.558h-0.59v-0.559h0.59v-1.28h0.631v1.28h1.344v0.559
				h-1.344L249.229,60.896L249.229,60.896z"/>
			<path fill="#939598" d="M258.561,57.797c0,0.755-0.457,1.141-0.91,1.336c0.682,0.205,1.229,0.598,1.229,1.393
				c0,0.993-0.826,1.574-2.079,1.574h-2.55v-5.737h2.441C257.824,56.363,258.561,56.919,258.561,57.797z M257.906,57.889
				c0-0.574-0.452-0.944-1.271-0.944h-1.744v1.975h1.694C257.364,58.919,257.906,58.568,257.906,57.889z M258.225,60.485
				c0-0.63-0.522-0.992-1.524-0.992h-1.81v2.024h1.924C257.684,61.518,258.225,61.134,258.225,60.485z"/>
			<path fill="#939598" d="M260.305,58.673l-0.191-0.516c0.471-0.213,0.929-0.352,1.544-0.352c1.155,0,1.802,0.591,1.802,1.705v2.59
				h-0.605v-0.639c-0.293,0.385-0.785,0.729-1.533,0.729c-0.786,0-1.582-0.442-1.582-1.328c0-0.902,0.738-1.378,1.812-1.378
				c0.541,0,0.925,0.074,1.302,0.181v-0.146c0-0.763-0.467-1.155-1.261-1.155C261.09,58.363,260.695,58.494,260.305,58.673z
				 M260.377,60.838c0,0.541,0.491,0.852,1.066,0.852c0.777,0,1.416-0.475,1.416-1.147v-0.41c-0.312-0.09-0.729-0.18-1.243-0.18
				C260.82,59.954,260.377,60.297,260.377,60.838z"/>
			<path fill="#939598" d="M264.857,62.1v-5.982h0.629V62.1H264.857z"/>
			<path fill="#939598" d="M268.864,62.199c-1.237,0-2.173-1.009-2.173-2.206c0-1.204,0.937-2.222,2.173-2.222
				c0.803,0,1.303,0.337,1.698,0.755l-0.42,0.443c-0.334-0.352-0.713-0.639-1.285-0.639c-0.86,0-1.519,0.729-1.519,1.646
				c0,0.926,0.672,1.655,1.56,1.655c0.541,0,0.957-0.269,1.293-0.63l0.402,0.377C270.165,61.854,269.657,62.199,268.864,62.199z"/>
			<path fill="#939598" d="M273.443,62.199c-1.271,0-2.195-0.999-2.195-2.206c0-1.205,0.934-2.222,2.212-2.222
				c1.271,0,2.205,1,2.205,2.206S274.723,62.199,273.443,62.199z M273.443,58.331c-0.918,0-1.549,0.729-1.549,1.646
				c0,0.918,0.674,1.656,1.565,1.656c0.918,0,1.56-0.729,1.56-1.639C275.02,59.066,274.338,58.331,273.443,58.331z"/>
			<path fill="#939598" d="M277.432,62.1h-0.631v-4.237h0.631v0.738c0.279-0.459,0.723-0.829,1.452-0.829
				c1.023,0,1.622,0.69,1.622,1.698v2.63h-0.631v-2.475c0-0.786-0.427-1.279-1.174-1.279c-0.729,0-1.271,0.532-1.271,1.328
				L277.432,62.1L277.432,62.1z"/>
			<path fill="#939598" d="M283.79,62.239c-0.358,0.877-0.771,1.196-1.408,1.196c-0.354,0-0.614-0.075-0.901-0.213l0.213-0.501
				c0.205,0.107,0.395,0.156,0.666,0.156c0.377,0,0.613-0.197,0.867-0.794l-1.927-4.221h0.697l1.541,3.533l1.36-3.533h0.672
				L283.79,62.239z"/>
		</g>
		<g enable-background="new    ">
			<path fill="#939598" d="M426.942,340.759v-0.53l4.795-1.573l-4.776-1.639v-0.682l5.777,2.051v0.547l-4.654,1.576l4.654,1.582
				v0.54l-5.777,2.051v-0.709l4.776-1.638L426.942,340.759z"/>
			<path fill="#939598" d="M426.157,332.585l7.587,3.806v0.58l-7.587-3.802V332.585z"/>
			<path fill="#939598" d="M432.696,329.835v1.991h-5.735v-1.991c0-1.804,1.236-3.05,2.859-3.05
				C431.442,326.785,432.696,328.031,432.696,329.835z M427.558,329.835v1.344h4.539v-1.344c0-1.451-0.982-2.376-2.261-2.376
				C428.557,327.458,427.558,328.384,427.558,329.835z"/>
		</g>
		<g enable-background="new    ">
			<path fill="#939598" d="M385.061,397.183c0,0.968-0.588,1.465-1.17,1.719c0.875,0.263,1.582,0.768,1.582,1.791
				c0,1.271-1.064,2.021-2.677,2.021h-3.276v-7.374h3.142C384.111,395.339,385.061,396.054,385.061,397.183z M384.218,397.299
				c0-0.738-0.582-1.212-1.634-1.212h-2.244v2.537h2.18C383.521,398.624,384.218,398.173,384.218,397.299z M384.629,400.636
				c0-0.809-0.674-1.272-1.96-1.272h-2.328v2.602h2.476C383.934,401.964,384.629,401.47,384.629,400.636z"/>
			<path fill="#939598" d="M387.305,398.31l-0.244-0.661c0.602-0.274,1.191-0.454,1.979-0.454c1.485,0,2.315,0.759,2.315,2.19v3.33
				h-0.777v-0.822c-0.381,0.495-1.01,0.938-1.973,0.938c-1.01,0-2.03-0.565-2.03-1.705c0-1.158,0.946-1.771,2.327-1.771
				c0.695,0,1.19,0.096,1.674,0.231v-0.188c0-0.98-0.6-1.487-1.623-1.487C388.312,397.908,387.811,398.078,387.305,398.31z
				 M387.396,401.09c0,0.697,0.633,1.097,1.371,1.097c1,0,1.82-0.609,1.82-1.476v-0.525c-0.398-0.114-0.938-0.229-1.604-0.229
				C387.965,399.955,387.396,400.394,387.396,401.09z"/>
			<path fill="#939598" d="M394.128,401.165c0,0.664,0.368,0.908,0.916,0.908c0.274,0,0.506-0.054,0.79-0.189v0.694
				c-0.284,0.146-0.589,0.23-0.979,0.23c-0.875,0-1.541-0.432-1.541-1.54v-3.285h-0.756v-0.715h0.756v-1.643h0.812v1.643h1.729
				v0.715h-1.729L394.128,401.165L394.128,401.165z"/>
			<path fill="#939598" d="M398.098,402.713h-0.81v-7.688h0.81v3.191c0.36-0.589,0.929-1.064,1.865-1.064
				c1.316,0,2.088,0.887,2.088,2.183v3.382h-0.812v-3.183c0-1.01-0.548-1.642-1.507-1.642c-0.938,0-1.634,0.685-1.634,1.706v3.117
				h-0.002L398.098,402.713L398.098,402.713z"/>
		</g>
		<g enable-background="new    ">
			<path fill="#939598" d="M97.812,307.364c-1.656,0-2.876-1.305-2.876-2.96c0-1.639,1.214-2.975,2.901-2.975
				c1.042,0,1.665,0.366,2.238,0.909l-0.443,0.476c-0.482-0.457-1.024-0.785-1.803-0.785c-1.272,0-2.222,1.023-2.222,2.361
				c0,1.336,0.958,2.375,2.222,2.375c0.786,0,1.302-0.304,1.852-0.828l0.425,0.419C99.51,306.963,98.854,307.364,97.812,307.364z"/>
			<path fill="#939598" d="M101.186,307.267v-5.982h0.63v5.982H101.186z"/>
			<path fill="#939598" d="M105.218,307.364c-1.271,0-2.196-1.001-2.196-2.205c0-1.206,0.934-2.224,2.212-2.224
				c1.271,0,2.206,1,2.206,2.207C107.439,306.347,106.496,307.364,105.218,307.364z M105.218,303.494
				c-0.918,0-1.549,0.73-1.549,1.648c0,0.917,0.671,1.655,1.564,1.655c0.919,0,1.558-0.729,1.558-1.64
				C106.791,304.232,106.11,303.494,105.218,303.494z"/>
			<path fill="#939598" d="M109.977,307.35c-0.606,0-1.277-0.238-1.754-0.624l0.32-0.449c0.458,0.344,0.967,0.542,1.466,0.542
				c0.507,0,0.878-0.264,0.878-0.672v-0.019c0-0.425-0.5-0.591-1.057-0.746c-0.663-0.188-1.403-0.419-1.403-1.196v-0.017
				c0-0.729,0.608-1.212,1.443-1.212c0.516,0,1.091,0.178,1.525,0.465l-0.287,0.475c-0.394-0.254-0.844-0.408-1.254-0.408
				c-0.5,0-0.818,0.263-0.818,0.615v0.015c0,0.403,0.523,0.559,1.091,0.729c0.655,0.197,1.361,0.451,1.361,1.213v0.017
				C111.485,306.88,110.822,307.35,109.977,307.35z"/>
			<path fill="#939598" d="M114.522,306.812c0.583,0,0.993-0.236,1.336-0.599l0.393,0.353c-0.426,0.476-0.941,0.798-1.745,0.798
				c-1.164,0-2.115-0.896-2.115-2.214c0-1.229,0.86-2.213,2.033-2.213c1.253,0,1.975,1,1.975,2.244c0,0.059,0,0.122-0.009,0.196
				h-3.361C113.122,306.299,113.778,306.812,114.522,306.812z M115.761,304.912c-0.064-0.771-0.509-1.441-1.352-1.441
				c-0.739,0-1.294,0.614-1.378,1.441H115.761z"/>
			<path fill="#939598" d="M118.357,306.061c0,0.517,0.286,0.705,0.713,0.705c0.213,0,0.393-0.041,0.614-0.147v0.542
				c-0.222,0.114-0.459,0.18-0.762,0.18c-0.68,0-1.196-0.336-1.196-1.195v-2.558h-0.589v-0.56h0.589v-1.276h0.631v1.276h1.344v0.56
				h-1.344V306.061z"/>
		</g>
		<g enable-background="new    ">
			<path fill="#939598" d="M292.146,423.339h-3.5v1.959h3.133v0.592h-3.133v2.009h3.541v0.59h-4.188v-5.737h4.147V423.339
				L292.146,423.339z"/>
			<path fill="#939598" d="M294.012,428.485h-0.631v-4.236h0.631v0.739c0.279-0.459,0.721-0.828,1.449-0.828
				c1.025,0,1.623,0.687,1.623,1.697v2.63h-0.632v-2.476c0-0.787-0.427-1.278-1.171-1.278c-0.729,0-1.271,0.532-1.271,1.326
				L294.012,428.485L294.012,428.485z"/>
			<path fill="#939598" d="M299.277,427.281c0,0.518,0.287,0.707,0.714,0.707c0.214,0,0.393-0.042,0.614-0.148v0.542
				c-0.223,0.113-0.461,0.179-0.762,0.179c-0.681,0-1.199-0.338-1.199-1.196v-2.558h-0.588v-0.558h0.588v-1.277h0.633v1.277h1.344
				v0.558h-1.344V427.281L299.277,427.281z"/>
			<path fill="#939598" d="M302.366,428.485h-0.632v-4.236h0.632v1.108c0.313-0.708,0.928-1.215,1.729-1.184v0.683h-0.049
				c-0.926,0-1.682,0.662-1.682,1.94L302.366,428.485L302.366,428.485z"/>
			<path fill="#939598" d="M307.117,428.626c-0.359,0.878-0.77,1.195-1.408,1.195c-0.354,0-0.613-0.073-0.902-0.213l0.215-0.502
				c0.205,0.106,0.395,0.155,0.664,0.155c0.377,0,0.614-0.194,0.869-0.796l-1.928-4.218h0.696l1.54,3.531l1.363-3.531h0.672
				L307.117,428.626z"/>
		</g>
		<g enable-background="new    ">
			<path fill="#939598" d="M401.688,272.256c-1.655,0-2.876-1.303-2.876-2.959c0-1.639,1.213-2.973,2.9-2.973
				c1.044,0,1.664,0.367,2.237,0.908l-0.44,0.476c-0.483-0.46-1.026-0.786-1.804-0.786c-1.271,0-2.221,1.023-2.221,2.361
				c0,1.334,0.959,2.376,2.221,2.376c0.785,0,1.304-0.306,1.851-0.829l0.428,0.419C403.385,271.855,402.729,272.256,401.688,272.256
				z"/>
			<path fill="#939598" d="M405.062,272.156v-5.98h0.63v5.98H405.062z"/>
			<path fill="#939598" d="M409.092,272.256c-1.271,0-2.195-1-2.195-2.204c0-1.206,0.934-2.223,2.212-2.223
				c1.271,0,2.204,0.999,2.204,2.206C411.312,271.24,410.371,272.256,409.092,272.256z M409.092,268.387
				c-0.917,0-1.549,0.729-1.549,1.648c0,0.918,0.674,1.656,1.565,1.656c0.918,0,1.559-0.729,1.559-1.641
				C410.667,269.123,409.985,268.387,409.092,268.387z"/>
			<path fill="#939598" d="M413.851,272.24c-0.604,0-1.276-0.237-1.752-0.623l0.318-0.449c0.459,0.344,0.967,0.543,1.468,0.543
				c0.507,0,0.878-0.266,0.878-0.674v-0.018c0-0.426-0.501-0.59-1.057-0.746c-0.665-0.188-1.402-0.418-1.402-1.196v-0.017
				c0-0.729,0.607-1.209,1.441-1.209c0.517,0,1.089,0.178,1.524,0.465l-0.287,0.474c-0.395-0.253-0.845-0.409-1.254-0.409
				c-0.501,0-0.817,0.262-0.817,0.614v0.017c0,0.403,0.523,0.557,1.091,0.729c0.656,0.198,1.36,0.45,1.36,1.213v0.019
				C415.359,271.773,414.696,272.24,413.851,272.24z"/>
			<path fill="#939598" d="M418.397,271.706c0.581,0,0.992-0.237,1.336-0.599l0.394,0.352c-0.425,0.477-0.942,0.797-1.746,0.797
				c-1.163,0-2.114-0.895-2.114-2.213c0-1.23,0.862-2.214,2.034-2.214c1.253,0,1.976,0.999,1.976,2.245c0,0.059,0,0.123-0.011,0.197
				h-3.359C416.996,271.191,417.652,271.706,418.397,271.706z M419.636,269.807c-0.065-0.772-0.509-1.441-1.354-1.441
				c-0.736,0-1.292,0.615-1.377,1.441H419.636z"/>
			<path fill="#939598" d="M422.232,270.953c0,0.516,0.284,0.705,0.712,0.705c0.213,0,0.395-0.041,0.612-0.148v0.541
				c-0.219,0.117-0.459,0.182-0.762,0.182c-0.679,0-1.194-0.334-1.194-1.194v-2.558h-0.592v-0.559h0.592v-1.279h0.632v1.279h1.343
				v0.559h-1.343V270.953L422.232,270.953z"/>
		</g>
		<g enable-background="new    ">
			<path fill="#939598" d="M335.25,400.76c0,1.655-1.303,2.876-2.959,2.876c-1.641,0-2.975-1.211-2.975-2.901
				c0-1.04,0.369-1.662,0.908-2.236l0.477,0.442c-0.461,0.481-0.788,1.025-0.788,1.803c0,1.271,1.026,2.221,2.36,2.221
				c1.338,0,2.377-0.959,2.377-2.221c0-0.786-0.303-1.303-0.827-1.853l0.418-0.426C334.848,399.062,335.25,399.718,335.25,400.76z"
				/>
			<path fill="#939598" d="M335.15,397.386h-5.981v-0.632h5.981V397.386z"/>
			<path fill="#939598" d="M335.25,393.355c0,1.271-1,2.195-2.206,2.195c-1.205,0-2.221-0.936-2.221-2.214
				c0-1.271,1-2.204,2.204-2.204C334.232,391.134,335.25,392.075,335.25,393.355z M331.381,393.355c0,0.917,0.729,1.548,1.646,1.548
				s1.656-0.672,1.656-1.565c0-0.919-0.729-1.557-1.64-1.557C332.117,391.781,331.381,392.461,331.381,393.355z"/>
			<path fill="#939598" d="M335.232,388.597c0,0.605-0.237,1.278-0.623,1.752l-0.45-0.318c0.343-0.458,0.54-0.968,0.54-1.468
				c0-0.508-0.264-0.877-0.672-0.877h-0.016c-0.428,0-0.591,0.499-0.746,1.058c-0.189,0.665-0.418,1.4-1.199,1.4h-0.016
				c-0.729,0-1.213-0.605-1.213-1.442c0-0.514,0.18-1.087,0.467-1.524l0.476,0.289c-0.255,0.395-0.411,0.845-0.411,1.252
				c0,0.5,0.265,0.82,0.613,0.82h0.019c0.401,0,0.56-0.525,0.729-1.093c0.197-0.656,0.451-1.358,1.213-1.358h0.018
				C334.766,387.087,335.232,387.751,335.232,388.597z"/>
			<path fill="#939598" d="M334.699,384.05c0-0.581-0.236-0.993-0.6-1.337l0.353-0.393c0.476,0.426,0.797,0.94,0.797,1.745
				c0,1.163-0.896,2.113-2.213,2.113c-1.229,0-2.214-0.86-2.214-2.032c0-1.253,0.998-1.976,2.244-1.976c0.059,0,0.123,0,0.199,0.009
				v3.36C334.182,385.451,334.699,384.795,334.699,384.05z M332.799,382.811c-0.77,0.067-1.441,0.51-1.441,1.354
				c0,0.736,0.613,1.293,1.441,1.376V382.811z"/>
			<path fill="#939598" d="M333.943,380.216c0.517,0,0.707-0.287,0.707-0.712c0-0.216-0.041-0.396-0.148-0.613h0.542
				c0.114,0.218,0.183,0.457,0.183,0.763c0,0.679-0.338,1.194-1.199,1.194h-2.558v0.589h-0.559v-0.589h-1.276v-0.63h1.276v-1.346
				h0.559v1.346h2.476v-0.002H333.943z"/>
		</g>
		<g enable-background="new    ">
			<path fill="#939598" d="M179.606,288.023c0,1.656-1.303,2.877-2.958,2.877c-1.638,0-2.975-1.211-2.975-2.899
				c0-1.044,0.367-1.663,0.909-2.237l0.476,0.441c-0.46,0.484-0.788,1.023-0.788,1.801c0,1.271,1.025,2.225,2.361,2.225
				s2.377-0.961,2.377-2.225c0-0.785-0.305-1.302-0.829-1.852l0.417-0.426C179.205,286.328,179.606,286.984,179.606,288.023z"/>
			<path fill="#939598" d="M179.508,284.65h-5.982v-0.631h5.982V284.65z"/>
			<path fill="#939598" d="M179.606,280.621c0,1.271-0.998,2.195-2.206,2.195c-1.205,0-2.221-0.935-2.221-2.211
				c0-1.271,1-2.205,2.205-2.205C178.589,278.4,179.606,279.342,179.606,280.621z M175.738,280.621c0,0.918,0.729,1.547,1.646,1.547
				c0.918,0,1.657-0.67,1.657-1.564c0-0.918-0.729-1.559-1.64-1.559C176.474,279.045,175.738,279.729,175.738,280.621z"/>
			<path fill="#939598" d="M179.59,275.861c0,0.605-0.237,1.277-0.623,1.754l-0.452-0.32c0.344-0.459,0.541-0.967,0.541-1.468
				c0-0.507-0.262-0.877-0.672-0.877h-0.017c-0.426,0-0.589,0.499-0.746,1.058c-0.188,0.664-0.417,1.402-1.196,1.402h-0.016
				c-0.729,0-1.211-0.608-1.211-1.443c0-0.516,0.179-1.092,0.465-1.525l0.476,0.289c-0.254,0.394-0.41,0.845-0.41,1.252
				c0,0.502,0.263,0.819,0.614,0.819h0.017c0.401,0,0.558-0.522,0.729-1.091c0.197-0.656,0.451-1.359,1.212-1.359h0.017
				C179.122,274.355,179.59,275.018,179.59,275.861z"/>
			<path fill="#939598" d="M179.057,271.316c0-0.582-0.237-0.994-0.599-1.338l0.352-0.394c0.476,0.424,0.796,0.94,0.796,1.746
				c0,1.162-0.894,2.112-2.213,2.112c-1.229,0-2.214-0.86-2.214-2.03c0-1.255,1-1.978,2.246-1.978c0.059,0,0.124,0,0.197,0.01v3.359
				C178.54,272.717,179.057,272.062,179.057,271.316z M177.155,270.078c-0.769,0.066-1.442,0.508-1.442,1.354
				c0,0.736,0.614,1.293,1.442,1.375V270.078z"/>
			<path fill="#939598" d="M178.301,267.48c0.517,0,0.707-0.285,0.707-0.713c0-0.213-0.042-0.393-0.149-0.613h0.542
				c0.115,0.221,0.18,0.457,0.18,0.761c0,0.681-0.337,1.196-1.197,1.196h-2.557v0.592h-0.558v-0.592h-1.279v-0.631h1.279v-1.344
				h0.558v1.344H178.301L178.301,267.48z"/>
		</g>
		<g enable-background="new    ">
			<path fill="#939598" d="M103.03,390.944c0,0.969-0.59,1.464-1.17,1.716c0.874,0.264,1.58,0.77,1.58,1.791
				c0,1.274-1.064,2.023-2.677,2.023h-3.277V389.1h3.14C102.081,389.1,103.03,389.816,103.03,390.944z M102.186,391.06
				c0-0.736-0.578-1.212-1.632-1.212h-2.245v2.541h2.182C101.492,392.389,102.186,391.935,102.186,391.06z M102.598,394.399
				c0-0.812-0.674-1.276-1.96-1.276H98.31v2.604h2.477C101.903,395.727,102.598,395.231,102.598,394.399z"/>
			<path fill="#939598" d="M105.271,392.07l-0.242-0.663c0.6-0.273,1.191-0.454,1.98-0.454c1.485,0,2.316,0.759,2.316,2.191v3.332
				h-0.779v-0.821c-0.378,0.493-1.011,0.938-1.97,0.938c-1.012,0-2.034-0.567-2.034-1.708c0-1.156,0.949-1.77,2.329-1.77
				c0.694,0,1.19,0.096,1.675,0.231v-0.189c0-0.979-0.6-1.486-1.623-1.486C106.283,391.67,105.777,391.84,105.271,392.07z
				 M105.368,394.853c0,0.695,0.632,1.098,1.368,1.098c1.002,0,1.823-0.612,1.823-1.476v-0.524c-0.4-0.117-0.938-0.231-1.601-0.231
				C105.935,393.715,105.368,394.157,105.368,394.853z"/>
			<path fill="#939598" d="M112.099,394.926c0,0.663,0.368,0.908,0.916,0.908c0.273,0,0.505-0.054,0.789-0.191v0.696
				c-0.284,0.147-0.589,0.231-0.979,0.231c-0.875,0-1.538-0.434-1.538-1.541v-3.286h-0.758v-0.713h0.758v-1.646h0.811v1.646h1.728
				v0.713h-1.728L112.099,394.926L112.099,394.926z"/>
			<path fill="#939598" d="M116.068,396.476h-0.812v-7.691h0.812v3.194c0.358-0.591,0.927-1.064,1.865-1.064
				c1.317,0,2.086,0.885,2.086,2.181v3.385h-0.812v-3.185c0-1.011-0.547-1.642-1.506-1.642c-0.937,0-1.634,0.683-1.634,1.706v3.119
				h0.002L116.068,396.476L116.068,396.476z"/>
		</g>
		<g enable-background="new    ">
			<path fill="#939598" d="M232.475,354.559l-4.057,4.057l-0.459-0.458l4.057-4.056L232.475,354.559z"/>
			<path fill="#939598" d="M230.462,360.777c-0.428-0.43-0.735-1.072-0.799-1.683l0.545-0.091c0.082,0.568,0.3,1.065,0.655,1.42
				c0.359,0.358,0.805,0.436,1.096,0.146l0.012-0.013c0.301-0.304,0.063-0.771-0.22-1.276c-0.338-0.603-0.696-1.288-0.146-1.838
				l0.012-0.012c0.515-0.514,1.285-0.428,1.877,0.165c0.365,0.365,0.645,0.896,0.748,1.404l-0.538,0.137
				c-0.099-0.46-0.308-0.889-0.599-1.179c-0.354-0.354-0.765-0.394-1.016-0.143l-0.011,0.011c-0.282,0.282-0.022,0.765,0.256,1.286
				c0.323,0.602,0.644,1.279,0.103,1.818l-0.01,0.015C231.857,361.514,231.059,361.374,230.462,360.777z"/>
			<path fill="#939598" d="M232.454,362.652l4.229-4.23l0.446,0.447l-4.229,4.229L232.454,362.652z"/>
			<path fill="#939598" d="M236.534,361.886l0.231-0.498c0.481,0.181,0.903,0.408,1.34,0.841c0.816,0.817,0.857,1.691,0.068,2.479
				l-1.831,1.832l-0.43-0.43l0.452-0.449c-0.48,0.063-1.072-0.043-1.6-0.569c-0.556-0.557-0.806-1.432-0.179-2.059
				c0.638-0.639,1.495-0.452,2.254,0.311c0.382,0.381,0.603,0.705,0.793,1.048l0.104-0.104c0.541-0.54,0.486-1.146-0.075-1.71
				C237.311,362.223,236.939,362.036,236.534,361.886z M235.055,363.47c-0.382,0.382-0.254,0.949,0.15,1.355
				c0.55,0.552,1.339,0.666,1.814,0.188l0.291-0.289c-0.158-0.281-0.39-0.645-0.754-1.006
				C235.995,363.156,235.439,363.085,235.055,363.47z"/>
			<path fill="#939598" d="M237.736,367.936l-0.445-0.444l2.996-2.998l0.447,0.445l-0.522,0.522
				c0.522-0.126,1.095-0.075,1.611,0.439c0.725,0.726,0.659,1.636-0.054,2.349l-1.859,1.86l-0.445-0.448l1.751-1.75
				c0.556-0.556,0.604-1.205,0.075-1.732c-0.516-0.513-1.275-0.521-1.837,0.042L237.736,367.936z"/>
			<path fill="#939598" d="M243.264,373.463l0.604-0.604c-0.604,0.115-1.264,0.071-1.812-0.48c-0.719-0.72-0.863-1.998,0.127-2.991
				c0.985-0.983,2.278-0.852,2.998-0.132c0.557,0.557,0.613,1.217,0.51,1.783l1.807-1.808l0.445,0.446l-4.229,4.229L243.264,373.463
				z M244.857,369.734c-0.58-0.578-1.483-0.624-2.213,0.104c-0.713,0.714-0.679,1.65-0.11,2.22c0.558,0.558,1.548,0.619,2.248-0.082
				C245.479,371.283,245.414,370.292,244.857,369.734z"/>
		</g>
		<g enable-background="new    ">
			<path fill="#939598" d="M209.09,400.667h-1.043l-2.835-3.571l-1.567,1.589v1.98h-0.834v-7.376h0.834v4.403l4.233-4.403h1.076
				l-3.162,3.225L209.09,400.667z"/>
			<path fill="#939598" d="M210.268,394.027v-0.896h0.928v0.896H210.268z M210.32,400.667v-5.447h0.812v5.447H210.32z"/>
			<path fill="#939598" d="M214.111,399.115c0,0.666,0.367,0.907,0.918,0.907c0.272,0,0.505-0.053,0.789-0.189v0.696
				c-0.284,0.146-0.59,0.23-0.979,0.23c-0.875,0-1.538-0.432-1.538-1.539v-3.285h-0.758v-0.717h0.758v-1.645h0.811v1.645h1.729
				v0.717h-1.729V399.115L214.111,399.115z"/>
			<path fill="#939598" d="M219.57,400.792c-1.59,0-2.793-1.297-2.793-2.834c0-1.549,1.201-2.855,2.793-2.855
				c1.031,0,1.674,0.433,2.18,0.971l-0.537,0.566c-0.432-0.453-0.916-0.819-1.654-0.819c-1.106,0-1.949,0.937-1.949,2.118
				c0,1.189,0.863,2.129,2.002,2.129c0.693,0,1.231-0.35,1.662-0.812l0.517,0.482C221.244,400.349,220.593,400.792,219.57,400.792z"
				/>
			<path fill="#939598" d="M223.939,400.667h-0.812v-7.691h0.812v3.194c0.358-0.59,0.928-1.063,1.867-1.063
				c1.314,0,2.084,0.885,2.084,2.18v3.382h-0.812v-3.181c0-1.012-0.547-1.646-1.507-1.646c-0.938,0-1.635,0.688-1.635,1.707v3.118
				H223.939L223.939,400.667z"/>
			<path fill="#939598" d="M232.018,400.087c0.748,0,1.275-0.306,1.719-0.769l0.506,0.451c-0.547,0.609-1.213,1.023-2.245,1.023
				c-1.495,0-2.718-1.149-2.718-2.845c0-1.581,1.105-2.848,2.611-2.848c1.611,0,2.541,1.285,2.541,2.889
				c0,0.073,0,0.157-0.012,0.254h-4.32C230.217,399.422,231.059,400.087,232.018,400.087z M233.609,397.641
				c-0.084-0.988-0.653-1.854-1.737-1.854c-0.948,0-1.665,0.791-1.771,1.854H233.609z"/>
			<path fill="#939598" d="M236.662,400.667h-0.811v-5.447h0.811v0.949c0.357-0.591,0.927-1.063,1.865-1.063
				c1.316,0,2.086,0.886,2.086,2.181v3.382h-0.812v-3.181c0-1.012-0.549-1.646-1.508-1.646c-0.937,0-1.634,0.688-1.634,1.708v3.118
				H236.662L236.662,400.667z"/>
		</g>
		<g enable-background="new    ">
			<path fill="#939598" d="M173.206,401.472h-1.992v-5.736h1.992c1.803,0,3.048,1.237,3.048,2.859S175.008,401.472,173.206,401.472z
				 M173.206,396.334h-1.345v4.539h1.345c1.449,0,2.376-0.984,2.376-2.263C175.582,397.331,174.655,396.334,173.206,396.334z"/>
			<path fill="#939598" d="M180.801,395.717h0.532l1.573,4.796l1.641-4.777h0.679l-2.05,5.776h-0.548l-1.575-4.654l-1.582,4.654
				h-0.541l-2.048-5.776h0.706l1.639,4.777L180.801,395.717z"/>
		</g>
		<g enable-background="new    ">
			<path fill="#939598" d="M173.966,316.337l-1.665-2.229h-1.639v2.229h-0.647V310.6h2.468c1.261,0,2.072,0.681,2.072,1.714
				c0,0.958-0.654,1.517-1.558,1.68l1.763,2.345L173.966,316.337L173.966,316.337L173.966,316.337z M172.433,311.199h-1.771v2.326
				h1.762c0.86,0,1.476-0.444,1.476-1.188C173.901,311.625,173.359,311.199,172.433,311.199z"/>
			<path fill="#939598" d="M177.618,315.886c0.581,0,0.992-0.237,1.336-0.601l0.393,0.353c-0.426,0.476-0.941,0.797-1.746,0.797
				c-1.164,0-2.115-0.895-2.115-2.213c0-1.229,0.86-2.214,2.034-2.214c1.254,0,1.975,0.997,1.975,2.243c0,0.061,0,0.124-0.007,0.198
				h-3.361C176.215,315.369,176.873,315.886,177.618,315.886z M178.855,313.986c-0.066-0.772-0.508-1.444-1.354-1.444
				c-0.737,0-1.293,0.614-1.376,1.444H178.855z"/>
			<path fill="#939598" d="M182.804,312.114v0.543h-1.336v3.682h-0.631v-3.682h-0.583v-0.549h0.583v-0.366
				c0-0.93,0.467-1.42,1.278-1.42c0.294,0,0.491,0.031,0.696,0.105v0.55c-0.23-0.067-0.401-0.108-0.614-0.108
				c-0.492,0-0.737,0.298-0.737,0.901v0.347h1.345L182.804,312.114L182.804,312.114z"/>
		</g>
		<g enable-background="new    ">
			<path fill="#939598" d="M107.896,165.89c0,0.968-0.589,1.465-1.169,1.717c0.874,0.264,1.579,0.77,1.579,1.791
				c0,1.275-1.063,2.024-2.676,2.024h-3.277v-7.375h3.14C106.949,164.045,107.896,164.762,107.896,165.89z M107.054,166.005
				c0-0.739-0.58-1.212-1.633-1.212h-2.245v2.539h2.182C106.359,167.332,107.054,166.879,107.054,166.005z M107.466,169.344
				c0-0.811-0.674-1.275-1.959-1.275h-2.329v2.603h2.478C106.77,170.672,107.466,170.177,107.466,169.344z"/>
			<path fill="#939598" d="M112.225,170.84c0.747,0,1.274-0.305,1.718-0.769l0.505,0.453c-0.548,0.611-1.212,1.023-2.244,1.023
				c-1.495,0-2.718-1.148-2.718-2.846c0-1.58,1.106-2.846,2.613-2.846c1.611,0,2.539,1.286,2.539,2.887c0,0.074,0,0.159-0.011,0.254
				h-4.319C110.423,170.177,111.268,170.84,112.225,170.84z M113.816,168.396c-0.084-0.99-0.653-1.854-1.738-1.854
				c-0.948,0-1.664,0.791-1.769,1.854H113.816z"/>
			<path fill="#939598" d="M120.43,171.42v-1.096c-0.442,0.653-1.084,1.211-2.086,1.211c-1.307,0-2.603-1.032-2.603-2.833
				c0-1.792,1.296-2.847,2.603-2.847c1.012,0,1.665,0.549,2.086,1.16v-3.289h0.812v7.691h-0.812V171.42z M118.491,166.585
				c-1.053,0-1.918,0.778-1.918,2.106c0,1.295,0.885,2.117,1.918,2.117c1.012,0,1.971-0.841,1.971-2.117
				C120.462,167.427,119.503,166.585,118.491,166.585z"/>
			<path fill="#939598" d="M123.863,171.42h-0.812v-5.446h0.812v1.421c0.4-0.904,1.19-1.559,2.223-1.517v0.875h-0.064
				c-1.19,0-2.16,0.853-2.16,2.497L123.863,171.42L123.863,171.42z"/>
			<path fill="#939598" d="M129.573,171.548c-1.634,0-2.824-1.287-2.824-2.835s1.2-2.855,2.846-2.855
				c1.633,0,2.833,1.286,2.833,2.835C132.427,170.24,131.215,171.548,129.573,171.548z M129.573,166.574
				c-1.181,0-1.992,0.938-1.992,2.119c0,1.181,0.863,2.128,2.013,2.128c1.179,0,2-0.939,2-2.108
				C131.594,167.522,130.721,166.574,129.573,166.574z"/>
			<path fill="#939598" d="M136.376,171.548c-1.633,0-2.824-1.287-2.824-2.835s1.201-2.855,2.845-2.855
				c1.635,0,2.833,1.286,2.833,2.835C139.23,170.24,138.02,171.548,136.376,171.548z M136.376,166.574
				c-1.18,0-1.992,0.938-1.992,2.119c0,1.181,0.864,2.128,2.013,2.128c1.18,0,2.001-0.939,2.001-2.108
				C138.399,167.522,137.524,166.574,136.376,166.574z"/>
			<path fill="#939598" d="M146.931,165.856c1.253,0,2.023,0.844,2.023,2.192v3.372h-0.812v-3.183c0-1.053-0.526-1.643-1.412-1.643
				c-0.821,0-1.506,0.61-1.506,1.685v3.14h-0.801v-3.203c0-1.022-0.537-1.623-1.402-1.623c-0.863,0-1.516,0.715-1.516,1.717v3.108
				h-0.812v-5.446h0.812v0.916c0.358-0.538,0.842-1.034,1.759-1.034c0.885,0,1.455,0.475,1.75,1.087
				C145.402,166.342,145.981,165.856,146.931,165.856z"/>
		</g>
		<g enable-background="new    ">
			<path fill="#939598" d="M95.647,176.866h0.611v7.427h-0.821v-6.562l-1.391,0.432l-0.2-0.675L95.647,176.866z"/>
			<path fill="#939598" d="M98.576,178.824l-0.611-0.442c0.664-0.99,1.358-1.569,2.656-1.569c1.337,0,2.287,0.885,2.287,2.097
				c0,1.085-0.568,1.748-1.866,2.876l-1.97,1.748h3.909v0.759h-5.15v-0.643l2.675-2.36c1.128-1.012,1.539-1.581,1.539-2.318
				c0-0.863-0.686-1.412-1.486-1.412C99.713,177.56,99.167,178.002,98.576,178.824z"/>
			<path fill="#939598" d="M104.632,176.918h0.989v0.052l-0.854,2.812h-0.453L104.632,176.918z"/>
			<path fill="#939598" d="M109.974,184.42c-1.907,0-3.109-1.728-3.109-3.803c0-2.074,1.222-3.826,3.13-3.826
				c1.897,0,3.097,1.729,3.097,3.803C113.091,182.669,111.869,184.42,109.974,184.42z M109.974,177.551
				c-1.38,0-2.244,1.411-2.244,3.044c0,1.633,0.884,3.066,2.266,3.066c1.38,0,2.234-1.422,2.234-3.045
				C112.226,178.994,111.353,177.551,109.974,177.551z"/>
			<path fill="#939598" d="M114.743,176.918h0.979v0.052l-0.853,2.812h-0.443L114.743,176.918z M116.807,176.918h0.97v0.052
				l-0.853,2.812h-0.442L116.807,176.918z"/>
			<path fill="#939598" d="M127.172,184.293h-0.938l-1.685-2.222l-1.696,2.222h-0.906l2.14-2.771l-2.055-2.675h0.928l1.611,2.108
				l1.611-2.108h0.905l-2.065,2.655L127.172,184.293z"/>
			<path fill="#939598" d="M132.837,176.866h0.611v7.427h-0.822v-6.562l-1.391,0.432l-0.2-0.675L132.837,176.866z"/>
			<path fill="#939598" d="M135.227,176.918h5.004v0.621l-3.351,6.754h-0.926l3.33-6.616h-4.056L135.227,176.918L135.227,176.918z"
				/>
			<path fill="#939598" d="M141.789,176.918h0.991v0.052l-0.854,2.812h-0.453L141.789,176.918z"/>
			<path fill="#939598" d="M146.688,184.398c-1.57,0-2.772-0.854-2.772-2.096c0-0.886,0.632-1.508,1.517-1.823
				c-0.684-0.317-1.265-0.845-1.265-1.708c0-1.147,1.171-1.958,2.519-1.958s2.519,0.812,2.519,1.958c0,0.863-0.58,1.391-1.264,1.708
				c0.874,0.326,1.516,0.927,1.516,1.812C149.458,183.555,148.256,184.398,146.688,184.398z M146.688,180.869
				c-1.074,0-1.927,0.58-1.927,1.411c0,0.759,0.715,1.391,1.927,1.391c1.21,0,1.928-0.632,1.928-1.391
				C148.616,181.449,147.761,180.869,146.688,180.869z M146.688,177.54c-0.959,0-1.686,0.538-1.686,1.285
				c0,0.811,0.748,1.359,1.686,1.359s1.685-0.549,1.685-1.359C148.373,178.086,147.646,177.54,146.688,177.54z"/>
			<path fill="#939598" d="M151.006,176.918h0.979v0.052l-0.853,2.812h-0.443L151.006,176.918z M153.069,176.918h0.971v0.052
				l-0.854,2.812h-0.442L153.069,176.918z"/>
		</g>
		<g enable-background="new    ">
			<path fill="#939598" d="M206.738,208.512h0.832v6.607h4.15v0.77h-4.982V208.512L206.738,208.512z"/>
			<path fill="#939598" d="M213.141,209.25v-0.896h0.928v0.896H213.141z M213.193,215.889v-5.447h0.812v5.447H213.193z"/>
			<path fill="#939598" d="M219.926,210.442h0.874l-2.37,5.489h-0.716l-2.36-5.489h0.896l1.832,4.52L219.926,210.442z"/>
			<path fill="#939598" d="M222.093,209.25v-0.896h0.927v0.896H222.093z M222.146,215.889v-5.447h0.812v5.447H222.146z"/>
			<path fill="#939598" d="M225.652,215.889h-0.812v-5.447h0.812v0.948c0.357-0.591,0.928-1.065,1.865-1.065
				c1.316,0,2.086,0.886,2.086,2.182v3.382h-0.812v-3.183c0-1.011-0.548-1.642-1.507-1.642c-0.938,0-1.634,0.684-1.634,1.706v3.118
				L225.652,215.889L225.652,215.889z"/>
			<path fill="#939598" d="M233.743,217.595c-0.905,0-1.749-0.252-2.478-0.758l0.37-0.631c0.621,0.452,1.316,0.695,2.097,0.695
				c1.201,0,1.981-0.663,1.981-1.938v-0.645c-0.476,0.633-1.139,1.147-2.139,1.147c-1.308,0-2.562-0.969-2.562-2.561
				c0-1.601,1.264-2.582,2.562-2.582c1.021,0,1.685,0.507,2.127,1.097v-0.979h0.812v4.498
				C236.514,216.701,235.418,217.595,233.743,217.595z M233.73,211.042c-1.031,0-1.885,0.708-1.885,1.844
				c0,1.116,0.875,1.864,1.885,1.864c1.033,0,2.002-0.737,2.002-1.854C235.732,211.768,234.766,211.042,233.73,211.042z"/>
			<path fill="#939598" d="M242.832,207.481l-4.887,9.756h-0.748l4.889-9.756H242.832z"/>
			<path fill="#939598" d="M246.371,215.889h-2.561v-7.376h2.561c2.316,0,3.918,1.59,3.918,3.677
				C250.29,214.277,248.688,215.889,246.371,215.889z M246.371,209.283h-1.729v5.836h1.729c1.863,0,3.055-1.265,3.055-2.906
				C249.426,210.568,248.234,209.283,246.371,209.283z"/>
			<path fill="#939598" d="M251.932,209.25v-0.896h0.926v0.896H251.932z M251.982,215.889v-5.447h0.812v5.447H251.982z"/>
			<path fill="#939598" d="M255.49,215.889h-0.811v-5.447h0.811v0.948c0.357-0.591,0.928-1.065,1.865-1.065
				c1.315,0,2.086,0.886,2.086,2.182v3.382h-0.812v-3.183c0-1.011-0.548-1.642-1.507-1.642c-0.938,0-1.632,0.684-1.632,1.706
				L255.49,215.889L255.49,215.889z"/>
			<path fill="#939598" d="M261.188,209.25v-0.896h0.928v0.896H261.188z M261.239,215.889v-5.447h0.812v5.447H261.239z"/>
			<path fill="#939598" d="M264.749,215.889h-0.812v-5.447h0.812v0.948c0.358-0.591,0.926-1.065,1.864-1.065
				c1.316,0,2.086,0.886,2.086,2.182v3.382h-0.811v-3.183c0-1.011-0.55-1.642-1.508-1.642c-0.938,0-1.633,0.684-1.633,1.706
				L264.749,215.889L264.749,215.889z"/>
			<path fill="#939598" d="M272.838,217.595c-0.906,0-1.748-0.252-2.475-0.758l0.367-0.631c0.621,0.452,1.315,0.695,2.097,0.695
				c1.2,0,1.979-0.663,1.979-1.938v-0.645c-0.474,0.633-1.14,1.147-2.14,1.147c-1.306,0-2.562-0.969-2.562-2.561
				c0-1.601,1.265-2.582,2.562-2.582c1.022,0,1.685,0.507,2.127,1.097v-0.979h0.812v4.498
				C275.607,216.701,274.512,217.595,272.838,217.595z M272.827,211.042c-1.033,0-1.886,0.708-1.886,1.844
				c0,1.116,0.875,1.864,1.886,1.864c1.032,0,2.002-0.737,2.002-1.854C274.829,211.768,273.859,211.042,272.827,211.042z"/>
			<path fill="#939598" d="M285.792,215.889l-2.14-2.867h-2.104v2.867h-0.835v-7.376h3.173c1.623,0,2.666,0.875,2.666,2.203
				c0,1.232-0.844,1.949-2.003,2.159l2.266,3.014H285.792z M283.823,209.283h-2.275v2.992h2.269c1.104,0,1.895-0.569,1.895-1.528
				C285.709,209.831,285.014,209.283,283.823,209.283z"/>
			<path fill="#939598" d="M290.574,216.016c-1.633,0-2.822-1.287-2.822-2.836c0-1.549,1.2-2.855,2.844-2.855
				c1.635,0,2.834,1.286,2.834,2.835C293.43,214.709,292.217,216.016,290.574,216.016z M290.574,211.042
				c-1.182,0-1.99,0.938-1.99,2.118c0,1.181,0.863,2.129,2.012,2.129c1.18,0,2.002-0.939,2.002-2.108
				C292.598,211.991,291.721,211.042,290.574,211.042z"/>
			<path fill="#939598" d="M297.379,216.016c-1.634,0-2.824-1.287-2.824-2.836c0-1.549,1.2-2.855,2.846-2.855
				c1.632,0,2.834,1.286,2.834,2.835C300.234,214.709,299.021,216.016,297.379,216.016z M297.379,211.042
				c-1.182,0-1.993,0.938-1.993,2.118c0,1.181,0.865,2.129,2.015,2.129c1.179,0,2.002-0.939,2.002-2.108
				C299.4,211.991,298.525,211.042,297.379,211.042z"/>
			<path fill="#939598" d="M307.932,210.325c1.256,0,2.023,0.844,2.023,2.192v3.372h-0.811v-3.183c0-1.053-0.524-1.643-1.412-1.643
				c-0.82,0-1.506,0.61-1.506,1.685v3.141h-0.802v-3.203c0-1.023-0.536-1.623-1.401-1.623c-0.862,0-1.518,0.716-1.518,1.717v3.108
				h-0.811v-5.447h0.811v0.917c0.359-0.538,0.844-1.035,1.76-1.035c0.885,0,1.453,0.475,1.748,1.085
				C306.404,210.811,306.982,210.325,307.932,210.325z"/>
		</g>
		<g enable-background="new    ">
			<path fill="#939598" d="M228.119,221.335h0.611v7.427h-0.821v-6.563l-1.392,0.432l-0.199-0.675L228.119,221.335z"/>
			<path fill="#939598" d="M231.046,223.292l-0.612-0.442c0.664-0.991,1.359-1.569,2.655-1.569c1.338,0,2.287,0.884,2.287,2.095
				c0,1.086-0.567,1.75-1.864,2.876l-1.97,1.748h3.91v0.758H230.3v-0.643l2.677-2.361c1.127-1.011,1.537-1.58,1.537-2.317
				c0-0.863-0.684-1.412-1.484-1.412C232.186,222.028,231.637,222.471,231.046,223.292z"/>
			<path fill="#939598" d="M237.102,221.386h0.991v0.053l-0.853,2.811h-0.454L237.102,221.386z"/>
			<path fill="#939598" d="M240.777,221.335h0.613v7.427h-0.822v-6.563l-1.392,0.432l-0.2-0.675L240.777,221.335z"/>
			<path fill="#939598" d="M244.549,221.335h0.61v7.427h-0.821v-6.563l-1.39,0.432l-0.2-0.675L244.549,221.335z"/>
			<path fill="#939598" d="M247.225,221.386h0.979v0.053l-0.853,2.811h-0.443L247.225,221.386z M249.288,221.386h0.97v0.053
				l-0.854,2.811h-0.442L249.288,221.386z"/>
			<path fill="#939598" d="M259.65,228.761h-0.936l-1.688-2.223l-1.694,2.223h-0.906l2.14-2.771l-2.057-2.675h0.928l1.612,2.106
				l1.61-2.106h0.906l-2.065,2.655L259.65,228.761z"/>
			<path fill="#939598" d="M264.475,223.292l-0.61-0.442c0.663-0.991,1.358-1.569,2.655-1.569c1.338,0,2.287,0.884,2.287,2.095
				c0,1.086-0.57,1.75-1.867,2.876L264.971,228h3.908v0.758h-5.152v-0.643l2.676-2.361c1.128-1.011,1.537-1.58,1.537-2.317
				c0-0.863-0.684-1.412-1.485-1.412C265.613,222.028,265.064,222.471,264.475,223.292z"/>
			<path fill="#939598" d="M273.29,228.889c-1.906,0-3.106-1.728-3.106-3.804c0-2.074,1.223-3.825,3.129-3.825
				c1.896,0,3.101,1.728,3.101,3.803C276.411,227.137,275.188,228.889,273.29,228.889z M273.29,222.02
				c-1.38,0-2.242,1.41-2.242,3.044c0,1.634,0.886,3.066,2.265,3.066c1.381,0,2.235-1.423,2.235-3.045
				C275.547,223.462,274.671,222.02,273.29,222.02z"/>
			<path fill="#939598" d="M278.061,221.386h0.99v0.053l-0.853,2.811h-0.453L278.061,221.386z"/>
			<path fill="#939598" d="M280.896,223.292l-0.613-0.442c0.664-0.991,1.359-1.569,2.654-1.569c1.34,0,2.285,0.884,2.285,2.095
				c0,1.086-0.568,1.75-1.863,2.876L281.391,228h3.907v0.758h-5.151v-0.643l2.674-2.361c1.13-1.011,1.539-1.58,1.539-2.317
				c0-0.863-0.685-1.412-1.485-1.412C282.032,222.028,281.484,222.471,280.896,223.292z"/>
			<path fill="#939598" d="M286.951,221.386h0.979v0.053l-0.853,2.811h-0.444L286.951,221.386z M289.018,221.386h0.967v0.053
				l-0.852,2.811h-0.443L289.018,221.386z"/>
		</g>
		<g enable-background="new    ">
			<path fill="#939598" d="M368.083,153.407c0,0.968-0.588,1.465-1.169,1.718c0.874,0.263,1.58,0.769,1.58,1.791
				c0,1.273-1.062,2.022-2.676,2.022h-3.275v-7.375h3.141C367.137,151.563,368.083,152.28,368.083,153.407z M367.24,153.523
				c0-0.739-0.58-1.212-1.635-1.212h-2.244v2.54h2.181C366.547,154.851,367.24,154.397,367.24,153.523z M367.652,156.863
				c0-0.812-0.674-1.276-1.961-1.276h-2.328v2.603h2.477C366.956,158.189,367.652,157.696,367.652,156.863z"/>
			<path fill="#939598" d="M372.411,158.358c0.747,0,1.274-0.306,1.718-0.769l0.506,0.453c-0.549,0.61-1.213,1.022-2.244,1.022
				c-1.496,0-2.717-1.147-2.717-2.846c0-1.581,1.104-2.846,2.611-2.846c1.611,0,2.538,1.286,2.538,2.888
				c0,0.073,0,0.158-0.011,0.252h-4.319C370.609,157.696,371.453,158.358,372.411,158.358z M374.003,155.914
				c-0.085-0.99-0.653-1.854-1.739-1.854c-0.947,0-1.664,0.79-1.771,1.854H374.003z"/>
			<path fill="#939598" d="M380.616,158.938v-1.096c-0.442,0.653-1.084,1.21-2.084,1.21c-1.31,0-2.604-1.032-2.604-2.833
				c0-1.792,1.297-2.846,2.604-2.846c1.011,0,1.661,0.549,2.084,1.161v-3.289h0.811v7.692L380.616,158.938L380.616,158.938z
				 M378.677,154.102c-1.051,0-1.915,0.779-1.915,2.107c0,1.295,0.885,2.118,1.915,2.118c1.013,0,1.974-0.842,1.974-2.118
				C380.646,154.945,379.689,154.102,378.677,154.102z"/>
			<path fill="#939598" d="M384.048,158.938h-0.81v-5.446h0.81v1.422c0.402-0.905,1.191-1.558,2.224-1.517v0.875h-0.062
				c-1.191,0-2.162,0.853-2.162,2.497L384.048,158.938L384.048,158.938z"/>
			<path fill="#939598" d="M389.758,159.065c-1.633,0-2.822-1.287-2.822-2.835s1.201-2.855,2.844-2.855
				c1.637,0,2.835,1.286,2.835,2.835C392.611,157.757,391.4,159.065,389.758,159.065z M389.758,154.092
				c-1.181,0-1.99,0.938-1.99,2.118s0.863,2.128,2.012,2.128c1.182,0,2.004-0.938,2.004-2.107
				C391.779,155.04,390.908,154.092,389.758,154.092z"/>
			<path fill="#939598" d="M396.562,159.065c-1.635,0-2.822-1.287-2.822-2.835s1.199-2.855,2.844-2.855
				c1.634,0,2.834,1.286,2.834,2.835C399.417,157.757,398.205,159.065,396.562,159.065z M396.562,154.092
				c-1.18,0-1.99,0.938-1.99,2.118s0.863,2.128,2.012,2.128c1.18,0,2.003-0.938,2.003-2.107
				C398.586,155.04,397.711,154.092,396.562,154.092z"/>
			<path fill="#939598" d="M407.117,153.375c1.253,0,2.022,0.845,2.022,2.192v3.372h-0.811v-3.183c0-1.053-0.527-1.643-1.413-1.643
				c-0.821,0-1.505,0.61-1.505,1.685v3.139h-0.803v-3.202c0-1.022-0.538-1.623-1.4-1.623c-0.864,0-1.517,0.716-1.517,1.717v3.108
				h-0.812v-5.446h0.812v0.916c0.356-0.537,0.842-1.034,1.757-1.034c0.889,0,1.456,0.475,1.751,1.086
				C405.588,153.86,406.168,153.375,407.117,153.375z"/>
		</g>
		<g enable-background="new    ">
			<path fill="#939598" d="M355.4,164.384h0.61v7.428h-0.821v-6.563l-1.391,0.432l-0.197-0.674L355.4,164.384z"/>
			<path fill="#939598" d="M360.836,171.938c-1.906,0-3.107-1.729-3.107-3.804c0-2.074,1.225-3.826,3.131-3.826
				c1.896,0,3.098,1.729,3.098,3.803C363.956,170.188,362.732,171.938,360.836,171.938z M360.836,165.069
				c-1.379,0-2.244,1.411-2.244,3.045c0,1.634,0.887,3.067,2.268,3.067s2.232-1.424,2.232-3.045
				C363.092,166.511,362.216,165.069,360.836,165.069z"/>
			<path fill="#939598" d="M365.605,164.436h0.99v0.052l-0.852,2.813h-0.456L365.605,164.436z"/>
			<path fill="#939598" d="M372.59,165.795c-0.546-0.463-1.062-0.727-1.736-0.727c-1.338,0-2.17,1.348-2.16,3.255
				c0.4-0.591,1.022-1.127,2.097-1.127c1.381,0,2.551,0.885,2.551,2.274c0,1.434-1.147,2.466-2.646,2.466
				c-0.812,0-1.476-0.284-1.938-0.75c-0.589-0.589-0.928-1.347-0.928-2.865c0-2.255,1.14-4.015,3.065-4.015
				c0.889,0,1.539,0.317,2.184,0.844L372.59,165.795z M370.684,167.913c-1.105,0-1.842,0.79-1.842,1.624
				c0,0.959,0.777,1.664,1.864,1.664c1.085,0,1.778-0.748,1.778-1.695C372.484,168.586,371.747,167.913,370.684,167.913z"/>
			<path fill="#939598" d="M375.002,164.436h0.979v0.052l-0.854,2.813h-0.44L375.002,164.436z M377.064,164.436h0.973v0.052
				l-0.855,2.813h-0.439L377.064,164.436z"/>
			<path fill="#939598" d="M387.432,171.812h-0.938l-1.687-2.223l-1.695,2.223h-0.905l2.14-2.771l-2.057-2.675h0.929l1.61,2.107
				l1.613-2.107h0.904l-2.066,2.655L387.432,171.812z"/>
			<path fill="#939598" d="M393.098,164.384h0.61v7.428h-0.822v-6.563l-1.392,0.432l-0.201-0.674L393.098,164.384z"/>
			<path fill="#939598" d="M395.688,165.184v-0.748h4.709v0.61l-2.317,2.57c1.295,0.105,2.435,0.727,2.435,2.085
				c0,1.329-1.099,2.234-2.469,2.234c-1.229,0-2.146-0.538-2.748-1.317l0.602-0.538c0.569,0.697,1.253,1.097,2.159,1.097
				c0.898,0,1.611-0.569,1.611-1.443c0-0.927-0.844-1.434-2.063-1.434h-0.477l-0.168-0.496l2.328-2.623h-3.602V165.184
				L395.688,165.184z"/>
			<path fill="#939598" d="M402.227,164.436h0.99v0.052l-0.853,2.813h-0.454L402.227,164.436z"/>
			<path fill="#939598" d="M406.913,171.938c-0.957,0-1.654-0.39-2.273-0.906l0.484-0.644c0.6,0.527,1.158,0.792,1.811,0.792
				c1.33,0,2.225-1.349,2.192-3.234c-0.4,0.641-1.062,1.179-2.087,1.179c-1.516,0-2.569-0.958-2.569-2.296
				c0-1.413,1.084-2.519,2.655-2.519c0.844,0,1.465,0.285,1.938,0.759c0.578,0.58,0.914,1.381,0.914,2.866
				C409.979,170.284,408.735,171.938,406.913,171.938z M407.092,165.047c-1.104,0-1.77,0.811-1.77,1.738
				c0,0.948,0.737,1.623,1.812,1.623c1.127,0,1.833-0.822,1.833-1.675C408.969,165.785,408.198,165.047,407.092,165.047z"/>
			<path fill="#939598" d="M411.621,164.436h0.979v0.052l-0.853,2.813h-0.445L411.621,164.436z M413.688,164.436h0.969v0.052
				l-0.853,2.813h-0.442L413.688,164.436z"/>
		</g>
	</g>
</g>
</svg>
