<?xml version="1.0" encoding="utf-8"?>
<!-- Generator: Adobe Illustrator 15.0.2, SVG Export Plug-In . SVG Version: 6.00 Build 0)  -->
<!DOCTYPE svg PUBLIC "-//W3C//DTD SVG 1.1//EN" "http://www.w3.org/Graphics/SVG/1.1/DTD/svg11.dtd">
<svg version="1.1" id="Layer_1" xmlns="http://www.w3.org/2000/svg" xmlns:xlink="http://www.w3.org/1999/xlink" x="0px" y="0px"
	 width="491.922px" height="331.36px" viewBox="4.363 83.512 491.922 331.36" enable-background="new 4.363 83.512 491.922 331.36"
	 xml:space="preserve">
<g id="_x32_0_x25___PMS_2985_fill" display="none">
	<polygon display="inline" fill="#EBEEEF" points="2.791,100.5 2.791,257.5 384.211,257.5 384.211,2.963 229.689,2.963 
		229.689,100.5 	"/>
</g>
<g>
	<g id="icons">
		<g>
			<g>
				<rect x="459.979" y="350.541" fill="#FFFFFF" stroke="#939598" width="30.166" height="58.345"/>
				<path fill="#FFFFFF" stroke="#939598" d="M475.062,379.717"/>
				<path fill="#FFFFFF" stroke="#939598" d="M475.062,379.913"/>
				<path fill="#FFFFFF" stroke="#939598" d="M475.062,399.697"/>
			</g>
			<circle fill="#FFFFFF" stroke="#939598" cx="475.205" cy="395.59" r="1.238"/>
			<path fill="#FFFFFF" stroke="#939598" d="M475.154,353.872c-8.646,0-11.812,1.995-11.812,4.792c0,0,0,41.933,0,42.617
				c0,0.684,0.187,2.096,1.993,2.096c1.812,0,9.817,0,9.817,0h0.02c0,0,8.009,0,9.819,0c1.808,0,1.992-1.411,1.992-2.096
				c0-0.687,0-42.588,0-42.588l-0.003-0.027C486.983,355.869,483.745,353.872,475.154,353.872z"/>
			<path fill="#FFFFFF" stroke="#939598" d="M472.609,405.547c0.004-0.7-0.562-1.264-1.271-1.264c-0.686,0-1.251,0.561-1.259,1.264
				c0.008,0.695,0.573,1.271,1.259,1.271C472.049,406.816,472.613,406.25,472.609,405.547z"/>
			<path fill="#FFFFFF" stroke="#939598" d="M480.453,405.547c0.008-0.7-0.568-1.264-1.266-1.264c-0.692,0-1.266,0.561-1.266,1.264
				c0,0.695,0.571,1.271,1.266,1.263C479.887,406.816,480.453,406.242,480.453,405.547z"/>
			<path fill="#FFFFFF" stroke="#939598" d="M473.502,405.92c0,1.037,0.701,1.875,1.739,1.88c1.034-0.005,1.601-0.843,1.601-1.88
				l-0.666-7.141c0-0.699-1.893-0.699-1.893,0L473.502,405.92z"/>
		</g>
		<g>
			<polygon fill="none" stroke="#939598" points="359.282,413.266 357.15,413.281 357.13,382.869 359.29,382.853 			"/>
			<path fill="none" stroke="#939598" d="M358.273,382.827c-16.742,0.569-29.855,14.417-29.284,31.161"/>
		</g>
		<g>
			<polygon fill="none" stroke="#939598" points="486.145,247.922 484.012,247.934 483.991,278.346 486.125,278.336 			"/>
			<path fill="none" stroke="#939598" d="M485.165,278.357c-16.745-0.566-29.856-14.334-29.287-31.075"/>
		</g>
		<g>
			<polygon fill="none" stroke="#939598" points="299.332,371.183 299.343,373.207 328.232,373.228 328.225,371.199 			"/>
			<path fill="none" stroke="#939598" d="M328.246,372.113c-0.541,15.904-13.617,28.36-29.521,27.816"/>
		</g>
		<line fill="none" stroke="#939598" x1="287.225" y1="361.656" x2="287.225" y2="410.498"/>
		
			<line fill="none" stroke="#939598" stroke-dasharray="1.5,1.5,1.5,1.5,1.5,1.5" x1="284.477" y1="362.029" x2="284.477" y2="412.468"/>
		<g>
			<polygon fill="none" stroke="#939598" points="377.872,326.285 380.004,326.297 380.023,356.709 377.891,356.697 			"/>
			<path fill="none" stroke="#939598" d="M378.852,356.723c16.744-0.567,29.856-14.335,29.285-31.078"/>
		</g>
		<g>
			<polygon fill="none" stroke="#939598" points="378.268,248.825 380.4,248.812 380.421,218.4 378.287,218.411 			"/>
			<path fill="none" stroke="#939598" d="M379.248,218.389c16.746,0.567,29.857,14.332,29.289,31.075"/>
		</g>
		<line fill="none" stroke="#939598" x1="459.886" y1="334.683" x2="491.169" y2="334.683"/>
		<line fill="none" stroke="#939598" x1="430.198" y1="249.771" x2="430.198" y2="327.342"/>
		
			<line fill="none" stroke="#939598" stroke-dasharray="1.5,1.5,1.5,1.5,1.5,1.5" x1="458.929" y1="337.145" x2="490.212" y2="337.145"/>
		
			<line fill="none" stroke="#939598" stroke-dasharray="1.5,1.5,1.5,1.5,1.5,1.5" x1="427.645" y1="250.09" x2="427.645" y2="326.383"/>
		<rect x="405.619" y="388.3" fill="#FFFFFF" stroke="#939598" width="40.222" height="21.722"/>
		<g>
			<path fill="#FFFFFF" stroke="#939598" stroke-miterlimit="10" d="M395.445,393.267c0-5.696-3.461-11.971-7.729-11.971
				c-4.267,0-7.714,6.273-7.714,11.971c0,5.699,3.447,8.663,7.714,8.663C391.984,401.93,395.445,398.969,395.445,393.267"/>
			<path fill="#FFFFFF" stroke="#939598" d="M395.445,393.267c0-5.696-3.461-11.971-7.729-11.971c-4.267,0-7.714,6.273-7.714,11.971
				c0,5.699,3.447,8.663,7.714,8.663C391.984,401.93,395.445,398.969,395.445,393.267z"/>
			<path fill="#FFFFFF" stroke="#939598" stroke-miterlimit="10" d="M383.091,400.064c0-0.318-0.261-0.583-0.579-0.583h-2.691
				c-0.318,0-0.58,0.265-0.58,0.583v0.098c0,0.319,0.262,0.58,0.58,0.58h2.691c0.318,0,0.579-0.261,0.579-0.58V400.064z"/>
			<path fill="#FFFFFF" stroke="#939598" d="M383.091,400.064c0-0.318-0.261-0.583-0.579-0.583h-2.691
				c-0.318,0-0.58,0.265-0.58,0.583v0.098c0,0.319,0.262,0.58,0.58,0.58h2.691c0.318,0,0.579-0.261,0.579-0.58V400.064z"/>
			<path fill="#FFFFFF" stroke="#939598" stroke-miterlimit="10" d="M378.829,400.761c-0.968,0-1.755,2.627-1.755,3.595
				c0,0.98,0.787,3.607,1.755,3.607h17.64c0.972,0,1.756-2.629,1.756-3.607c0-0.972-0.784-3.594-1.756-3.594L378.829,400.761z"/>
			<path fill="#FFFFFF" stroke="#939598" d="M378.829,400.761c-0.968,0-1.755,2.627-1.755,3.595c0,0.98,0.787,3.607,1.755,3.607
				h17.64c0.972,0,1.756-2.629,1.756-3.607c0-0.972-0.784-3.594-1.756-3.594L378.829,400.761z"/>
			<path fill="#FFFFFF" stroke="#939598" stroke-miterlimit="10" d="M393.398,393.029c0-4.188-2.543-8.806-5.683-8.806
				c-3.138,0-5.676,4.614-5.676,8.806c0,4.19,2.538,6.365,5.676,6.365C390.855,399.396,393.398,397.22,393.398,393.029"/>
			<path fill="#FFFFFF" stroke="#939598" d="M393.398,393.029c0-4.188-2.543-8.806-5.683-8.806c-3.138,0-5.676,4.614-5.676,8.806
				c0,4.19,2.538,6.365,5.676,6.365C390.855,399.396,393.398,397.22,393.398,393.029z"/>
		</g>
		<g>
			<g>
				<g>
					<path fill="none" stroke="#939598" d="M425.721,396.779"/>
				</g>
				<g>
					<path fill="none" stroke="#939598" d="M425.721,398.135"/>
				</g>
				<g>
					<circle fill="none" stroke="#939598" cx="425.721" cy="396.778" r="1.298"/>
					<path fill="none" stroke="#939598" d="M425.721,396.779"/>
				</g>
				<g>
					<g>
						<rect x="420.273" y="404.918" fill="none" stroke="#939598" width="10.92" height="2.717"/>
						<path fill="none" stroke="#939598" d="M425.721,406.272"/>
					</g>
					<g>
						<rect x="425.141" y="399.653" fill="none" stroke="#939598" width="1.157" height="5.145"/>
						<path fill="none" stroke="#939598" d="M425.721,402.664"/>
					</g>
					<g>
						<circle fill="none" stroke="#939598" cx="425.721" cy="406.25" r="1.259"/>
						<path fill="none" stroke="#939598" d="M425.721,406.25"/>
					</g>
				</g>
			</g>
			<g>
				<rect x="414.831" y="390.33" fill="none" stroke="#939598" width="21.806" height="17.717"/>
				<rect x="416.609" y="392.11" fill="none" stroke="#939598" width="18.198" height="12.743"/>
			</g>
		</g>
		<rect x="47.51" y="313.933" fill="#FFFFFF" stroke="#939598" width="61.291" height="35.273"/>
		<g>
			<g>
				<path fill="#FFFFFF" stroke="#939598" d="M80.74,327.898c0.544,0,0.983,0.44,0.983,0.984v17.166c0,0.544-0.44,0.984-0.983,0.984
					H51.62c-0.544,0-0.984-0.441-0.984-0.984v-17.166c0-0.547,0.44-0.984,0.984-0.984H80.74z"/>
				<path fill="#FFFFFF" stroke="#939598" d="M66.284,336.726"/>
			</g>
			<g>
				<circle fill="#FFFFFF" stroke="#939598" cx="66.284" cy="337.89" r="1.112"/>
				<path fill="#FFFFFF" stroke="#939598" d="M66.284,337.889"/>
			</g>
			<g>
				<g>
					<rect x="61.426" y="328.584" fill="#FFFFFF" stroke="#939598" width="9.715" height="2.324"/>
					<path fill="#FFFFFF" stroke="#939598" d="M66.284,329.745"/>
				</g>
				<g>
					<rect x="65.787" y="330.848" fill="#FFFFFF" stroke="#939598" width="0.993" height="4.579"/>
					<path fill="#FFFFFF" stroke="#939598" d="M66.284,332.843"/>
				</g>
				<g>
					<circle fill="#FFFFFF" stroke="#939598" cx="66.284" cy="329.768" r="1.081"/>
					<path fill="#FFFFFF" stroke="#939598" d="M66.284,329.769"/>
				</g>
			</g>
			<g>
				<path fill="#FFFFFF" stroke="#939598" d="M66.284,337.889"/>
				<path fill="none" stroke="#939598" d="M66.883,331.711h12.245c0.57,0,1.035,0.463,1.035,1.036v11.772
					c0,0.568-0.463,1.033-1.035,1.033H53.232c-0.57,0-1.036-0.463-1.036-1.033v-11.772c0-0.569,0.464-1.036,1.036-1.036H65.65"/>
			</g>
		</g>
		<g>
			<polyline fill="none" stroke="#939598" stroke-dasharray="1.5,1,1.5,1,1.5,1" points="84.319,349.842 84.319,328.166 
				105.578,328.166 105.578,349.354 			"/>
			<polyline fill="#FFFFFF" stroke="#939598" points="105.61,349.354 105.61,350.642 84.319,350.642 84.319,349.85 			"/>
		</g>
		<rect x="9.469" y="383.099" fill="#FFFFFF" stroke="#939598" width="85.231" height="26.603"/>
		<g>
			<g>
				<rect x="33.665" y="382.343" fill="#FFFFFF" stroke="#939598" width="29.687" height="25.219"/>
				<path fill="#FFFFFF" stroke="#939598" d="M48.508,394.951"/>
			</g>
			<g>
				<g>
					<circle fill="#FFFFFF" stroke="#939598" cx="55.296" cy="387.929" r="3.606"/>
					<path fill="#FFFFFF" stroke="#939598" d="M55.296,387.931"/>
				</g>
				<g>
					<circle fill="#FFFFFF" stroke="#939598" stroke-width="0.8" cx="55.331" cy="387.932" r="2.54"/>
					<path fill="#FFFFFF" stroke="#939598" d="M55.331,387.931"/>
				</g>
			</g>
			<g>
				<g>
					<circle fill="#FFFFFF" stroke="#939598" cx="40.884" cy="398.464" r="3.606"/>
					<path fill="#FFFFFF" stroke="#939598" d="M40.884,398.463"/>
				</g>
				<g>
					<circle fill="#FFFFFF" stroke="#939598" stroke-width="0.8" cx="40.847" cy="398.464" r="2.54"/>
					<path fill="#FFFFFF" stroke="#939598" d="M40.847,398.463"/>
				</g>
			</g>
			<g>
				<g>
					<circle fill="#FFFFFF" stroke="#939598" cx="55.345" cy="398.429" r="4.11"/>
					<path fill="#FFFFFF" stroke="#939598" d="M55.345,398.429"/>
				</g>
				<g>
					<circle fill="#FFFFFF" stroke="#939598" stroke-width="0.8" cx="55.306" cy="398.429" r="2.896"/>
					<path fill="#FFFFFF" stroke="#939598" d="M55.306,398.429"/>
				</g>
			</g>
			<g>
				<g>
					<circle fill="#FFFFFF" stroke="#939598" cx="40.899" cy="387.652" r="4.109"/>
					<path fill="#FFFFFF" stroke="#939598" d="M40.899,387.652"/>
				</g>
				<g>
					<circle fill="#FFFFFF" stroke="#939598" stroke-width="0.8" cx="40.858" cy="387.651" r="2.896"/>
					<path fill="#FFFFFF" stroke="#939598" d="M40.858,387.652"/>
				</g>
			</g>
			<line fill="none" stroke="#939598" x1="63.393" y1="404.072" x2="33.665" y2="404.072"/>
			<line fill="none" stroke="#939598" x1="63.352" y1="405.468" x2="33.665" y2="405.468"/>
		</g>
		<g>
			<g>
				<rect x="117.812" y="379.855" fill="#FFFFFF" stroke="#939598" width="31.795" height="28.055"/>
				<path fill="#FFFFFF" stroke="#939598" d="M135.354,393.884"/>
			</g>
			<line fill="none" stroke="#939598" x1="117.734" y1="381.817" x2="149.607" y2="381.817"/>
			<rect x="144.377" y="378.473" fill="#FFFFFF" stroke="#939598" width="2.577" height="1.363"/>
			<path fill="#FFFFFF" stroke="#939598" d="M145.665,379.229"/>
		</g>
		<g>
			<polyline fill="#FFFFFF" stroke="#939598" points="114.018,375 116.36,375 116.36,408.412 96.355,408.412 96.355,375 
				100.611,375 			"/>
			<g>
				<g>
					<g>
						<polygon fill="none" stroke="#939598" stroke-width="0.7" points="107.2,363.656 108.797,364.533 102.146,375.509 
							100.548,374.629 						"/>
						<path fill="none" stroke="#939598" stroke-width="0.8" d="M103.458,370.47"/>
					</g>
					<path fill="none" stroke="#939598" stroke-width="0.8" d="M107.811,364.186c4.088,2.476,6.29,6.888,6.142,11.349"/>
				</g>
			</g>
		</g>
		<line fill="none" stroke="#939598" stroke-dasharray="1.5,1.5,1.5,1.5,1.5,1.5" x1="5" y1="395.866" x2="95.019" y2="395.866"/>
		<g>
			<g>
				<rect x="305.029" y="253.048" fill="#FFFFFF" stroke="#939598" width="25.779" height="23.679"/>
				<path fill="none" stroke="#939598" d="M317.919,265.674"/>
				<line fill="none" stroke="#939598" x1="330.848" y1="256.818" x2="304.99" y2="256.818"/>
				<line fill="none" stroke="#939598" x1="330.807" y1="255.701" x2="305.029" y2="255.701"/>
				<polygon fill="none" stroke="#939598" points="310.098,259.661 310.098,271.273 313.209,274.105 322.747,274.105 
					325.898,271.273 325.898,259.661 				"/>
				<path fill="none" stroke="#939598" d="M317.998,266.883"/>
			</g>
		</g>
		<g>
			<g>
				<rect x="335.146" y="253.048" fill="#FFFFFF" stroke="#939598" width="25.776" height="23.679"/>
				<path fill="none" stroke="#939598" d="M348.035,265.674"/>
				<line fill="none" stroke="#939598" x1="360.963" y1="256.818" x2="335.105" y2="256.818"/>
				<line fill="none" stroke="#939598" x1="360.924" y1="255.701" x2="335.146" y2="255.701"/>
				<g>
					<rect x="337.021" y="276.807" fill="none" stroke="#939598" width="1.117" height="1.117"/>
					<path fill="none" stroke="#939598" d="M337.581,277.365"/>
				</g>
			</g>
		</g>
		<g>
			<g>
				<polygon fill="none" stroke="#939598" points="360.561,286.529 358.643,286.512 358.624,313.887 360.594,313.903 				"/>
				<path fill="none" stroke="#939598" d="M359.754,313.921c-15.07-0.511-26.873-12.973-26.357-28.042"/>
			</g>
			<g>
				<polygon fill="none" stroke="#939598" points="306.322,286.529 308.243,286.512 308.26,313.887 306.291,313.903 				"/>
				<path fill="none" stroke="#939598" d="M307.13,313.921c15.07-0.511,26.872-12.973,26.358-28.042"/>
			</g>
		</g>
		
			<line fill="none" stroke="#939598" stroke-dasharray="1.5,1.5,1.5,1.5,1.5,1.5" x1="313.684" y1="265.725" x2="296.126" y2="265.725"/>
		
			<line fill="none" stroke="#939598" stroke-dasharray="1.5,1.5,1.5,1.5,1.5,1.5" x1="343.053" y1="265.725" x2="322.621" y2="265.725"/>
		
			<line fill="none" stroke="#939598" stroke-dasharray="1.5,1.5,1.5,1.5,1.5,1.5" x1="366.993" y1="265.725" x2="354.225" y2="265.725"/>
		<g enable-background="new    ">
			<path fill="#939598" d="M348.789,262.402h0.58l1.719,5.229l1.788-5.212h0.743l-2.237,6.304h-0.599l-1.719-5.078l-1.728,5.078
				h-0.591l-2.237-6.304h0.772l1.785,5.212L348.789,262.402z"/>
		</g>
		<g enable-background="new    ">
			<path fill="#939598" d="M318.02,268.677h-2.172v-6.257h2.172c1.969,0,3.328,1.352,3.328,3.121
				C321.348,267.309,319.988,268.677,318.02,268.677z M318.02,263.07h-1.465v4.953h1.465c1.584,0,2.596-1.07,2.596-2.469
				C320.614,264.162,319.604,263.07,318.02,263.07z"/>
		</g>
		<g>
			<polyline fill="#FFFFFF" stroke="#939598" points="169.143,375 171.485,375 171.485,408.412 151.48,408.412 151.48,375 
				155.736,375 			"/>
			<g>
				<g>
					<g>
						<polygon fill="none" stroke="#939598" stroke-width="0.7" points="162.325,363.656 163.922,364.533 157.271,375.509 
							155.673,374.629 						"/>
						<path fill="none" stroke="#939598" stroke-width="0.8" d="M158.583,370.47"/>
					</g>
					<path fill="none" stroke="#939598" stroke-width="0.8" d="M162.936,364.186c4.088,2.476,6.29,6.888,6.141,11.349"/>
				</g>
			</g>
		</g>
		
			<line fill="none" stroke="#939598" stroke-dasharray="1.5,1.5,1.5,1.5,1.5,1.5" x1="117.011" y1="395.017" x2="148.295" y2="395.017"/>
	</g>
	<g id="Type">
		<g enable-background="new    ">
			<path fill="#939598" d="M336.945,406.859h-3.819v2.138h3.417v0.646h-3.417v2.189h3.864v0.644h-4.569v-6.261h4.524V406.859z"/>
			<path fill="#939598" d="M338.98,412.476h-0.688v-4.622h0.688v0.805c0.306-0.501,0.785-0.901,1.584-0.901
				c1.115,0,1.771,0.75,1.771,1.852v2.871h-0.69v-2.701c0-0.857-0.463-1.396-1.274-1.396c-0.796,0-1.388,0.579-1.388,1.449v2.644
				H338.98z"/>
			<path fill="#939598" d="M344.729,411.162c0,0.562,0.312,0.771,0.775,0.771c0.234,0,0.432-0.044,0.672-0.161v0.591
				c-0.24,0.124-0.5,0.196-0.83,0.196c-0.742,0-1.307-0.367-1.307-1.308v-2.791h-0.646v-0.607h0.646v-1.396h0.688v1.396h1.469v0.607
				h-1.469v2.702H344.729z"/>
			<path fill="#939598" d="M348.1,412.476h-0.688v-4.622h0.688v1.207c0.34-0.771,1.01-1.323,1.887-1.286v0.738h-0.053
				c-1.011,0-1.834,0.729-1.834,2.119V412.476L348.1,412.476z"/>
			<path fill="#939598" d="M353.284,412.629c-0.394,0.957-0.841,1.306-1.538,1.306c-0.387,0-0.67-0.078-0.984-0.232l0.233-0.546
				c0.226,0.117,0.433,0.17,0.726,0.17c0.409,0,0.67-0.215,0.945-0.868l-2.102-4.604h0.76l1.683,3.854l1.483-3.854h0.734
				L353.284,412.629z"/>
		</g>
		<g enable-background="new    ">
			<path fill="#939598" d="M295.87,396.163c0,1.807-1.422,3.143-3.228,3.143c-1.791,0-3.246-1.325-3.246-3.168
				c0-1.136,0.399-1.814,0.992-2.44l0.519,0.483c-0.501,0.526-0.86,1.116-0.86,1.968c0,1.387,1.12,2.422,2.576,2.422
				c1.459,0,2.596-1.045,2.596-2.422c0-0.858-0.334-1.423-0.904-2.021l0.457-0.467C295.434,394.312,295.87,395.027,295.87,396.163z"
				/>
			<path fill="#939598" d="M295.764,392.481h-6.525v-0.688h6.525V392.481z"/>
			<path fill="#939598" d="M295.87,388.084c0,1.388-1.091,2.395-2.405,2.395s-2.423-1.02-2.423-2.412
				c0-1.388,1.09-2.405,2.403-2.405C294.764,385.66,295.87,386.688,295.87,388.084z M291.648,388.084c0,1.002,0.795,1.69,1.797,1.69
				c1.003,0,1.807-0.733,1.807-1.709c0-1.003-0.795-1.698-1.787-1.698C292.453,386.367,291.648,387.111,291.648,388.084z"/>
			<path fill="#939598" d="M295.852,382.892c0,0.663-0.258,1.396-0.68,1.914l-0.492-0.349c0.375-0.499,0.592-1.056,0.592-1.602
				c0-0.557-0.287-0.958-0.733-0.958h-0.019c-0.465,0-0.646,0.547-0.812,1.153c-0.205,0.727-0.456,1.529-1.307,1.529h-0.021
				c-0.793,0-1.319-0.664-1.319-1.574c0-0.562,0.193-1.188,0.51-1.663l0.518,0.312c-0.277,0.432-0.447,0.924-0.447,1.367
				c0,0.549,0.287,0.895,0.67,0.895h0.019c0.438,0,0.61-0.569,0.797-1.188c0.213-0.716,0.493-1.483,1.323-1.483h0.02
				C295.344,381.246,295.852,381.971,295.852,382.892z"/>
			<path fill="#939598" d="M295.271,377.932c0-0.635-0.262-1.081-0.653-1.459l0.385-0.43c0.519,0.466,0.867,1.029,0.867,1.903
				c0,1.271-0.976,2.31-2.413,2.31c-1.343,0-2.418-0.938-2.418-2.217c0-1.369,1.093-2.156,2.452-2.156c0.062,0,0.132,0,0.215,0.009
				v3.671C294.708,379.46,295.271,378.744,295.271,377.932z M293.195,376.58c-0.84,0.072-1.572,0.556-1.572,1.476
				c0,0.808,0.67,1.414,1.572,1.507V376.58z"/>
			<path fill="#939598" d="M294.448,373.748c0.562,0,0.771-0.312,0.771-0.776c0-0.231-0.045-0.431-0.162-0.67h0.592
				c0.123,0.239,0.197,0.502,0.197,0.832c0,0.739-0.369,1.306-1.309,1.306h-2.79v0.642h-0.608v-0.642h-1.396v-0.689h1.396v-1.465
				h0.608v1.465L294.448,373.748L294.448,373.748z"/>
		</g>
		<g enable-background="new    ">
			<path fill="#939598" d="M411.298,360.767c0,1.059-0.645,1.602-1.275,1.872c0.954,0.29,1.725,0.842,1.725,1.956
				c0,1.39-1.161,2.207-2.919,2.207h-3.576v-8.047h3.427C410.264,358.756,411.298,359.537,411.298,360.767z M410.376,360.892
				c0-0.805-0.63-1.32-1.778-1.32h-2.448v2.771h2.379C409.619,362.342,410.376,361.848,410.376,360.892z M410.826,364.537
				c0-0.883-0.734-1.393-2.142-1.393h-2.537v2.839h2.699C410.068,365.983,410.826,365.445,410.826,364.537z"/>
			<path fill="#939598" d="M413.744,361.997l-0.267-0.725c0.656-0.299,1.3-0.495,2.16-0.495c1.621,0,2.527,0.826,2.527,2.393v3.632
				h-0.852v-0.894c-0.414,0.539-1.104,1.021-2.149,1.021c-1.104,0-2.217-0.621-2.217-1.859c0-1.268,1.034-1.933,2.538-1.933
				c0.761,0,1.301,0.104,1.828,0.251v-0.207c0-1.066-0.653-1.621-1.771-1.621C414.848,361.56,414.295,361.745,413.744,361.997z
				 M413.848,365.033c0,0.758,0.689,1.193,1.492,1.193c1.092,0,1.989-0.668,1.989-1.607v-0.574
				c-0.438-0.127-1.022-0.254-1.747-0.254C414.467,363.791,413.848,364.272,413.848,365.033z"/>
			<path fill="#939598" d="M421.189,365.112c0,0.723,0.4,0.986,1,0.986c0.3,0,0.554-0.059,0.863-0.208v0.762
				c-0.312,0.159-0.645,0.254-1.07,0.254c-0.951,0-1.679-0.475-1.679-1.682v-3.587h-0.827v-0.779h0.827v-1.793h0.886v1.793h1.887
				v0.779h-1.887V365.112L421.189,365.112z"/>
			<path fill="#939598" d="M425.521,366.801h-0.884v-8.391h0.884v3.482c0.394-0.645,1.014-1.161,2.034-1.161
				c1.438,0,2.277,0.968,2.277,2.381v3.688h-0.887v-3.471c0-1.104-0.598-1.793-1.644-1.793c-1.021,0-1.783,0.746-1.783,1.86v3.403
				H425.521z"/>
		</g>
		<g enable-background="new    ">
			<path fill="#939598" d="M445.826,295.004c-1.808,0-3.14-1.422-3.14-3.227c0-1.789,1.322-3.248,3.164-3.248
				c1.14,0,1.815,0.4,2.441,0.994l-0.482,0.518c-0.525-0.502-1.116-0.859-1.965-0.859c-1.388,0-2.426,1.119-2.426,2.576
				c0,1.459,1.046,2.594,2.426,2.594c0.856,0,1.421-0.332,2.021-0.902l0.465,0.458C447.68,294.566,446.963,295.004,445.826,295.004z
				"/>
			<path fill="#939598" d="M449.508,294.896v-6.525h0.688v6.525H449.508z"/>
			<path fill="#939598" d="M453.905,295.004c-1.386,0-2.396-1.09-2.396-2.402c0-1.316,1.021-2.426,2.412-2.426
				c1.388,0,2.407,1.09,2.407,2.405S455.301,295.004,453.905,295.004z M453.905,290.783c-1.001,0-1.688,0.795-1.688,1.798
				c0,1.001,0.731,1.804,1.706,1.804c1.003,0,1.701-0.795,1.701-1.783C455.624,291.588,454.881,290.783,453.905,290.783z"/>
			<path fill="#939598" d="M459.098,294.986c-0.658,0-1.394-0.262-1.911-0.682l0.35-0.492c0.5,0.375,1.055,0.594,1.602,0.594
				c0.556,0,0.956-0.287,0.956-0.734v-0.018c0-0.467-0.545-0.646-1.151-0.814c-0.727-0.205-1.529-0.455-1.529-1.307v-0.02
				c0-0.796,0.662-1.32,1.574-1.32c0.562,0,1.188,0.192,1.663,0.51l-0.315,0.516c-0.428-0.273-0.919-0.445-1.365-0.445
				c-0.546,0-0.895,0.287-0.895,0.672v0.018c0,0.438,0.573,0.609,1.188,0.795c0.719,0.215,1.483,0.494,1.483,1.324v0.02
				C460.744,294.479,460.021,294.986,459.098,294.986z"/>
			<path fill="#939598" d="M464.061,294.406c0.635,0,1.083-0.262,1.458-0.653l0.429,0.384c-0.463,0.52-1.027,0.867-1.903,0.867
				c-1.271,0-2.309-0.975-2.309-2.413c0-1.343,0.938-2.417,2.219-2.417c1.366,0,2.155,1.09,2.155,2.451c0,0.062,0,0.133-0.012,0.215
				h-3.666C462.529,293.842,463.245,294.406,464.061,294.406z M465.41,292.33c-0.072-0.84-0.554-1.572-1.479-1.572
				c-0.804,0-1.408,0.667-1.5,1.572H465.41z"/>
			<path fill="#939598" d="M468.242,293.582c0,0.562,0.312,0.771,0.774,0.771c0.234,0,0.434-0.047,0.673-0.162v0.59
				c-0.239,0.126-0.5,0.195-0.83,0.195c-0.743,0-1.308-0.367-1.308-1.307v-2.79h-0.645v-0.608h0.645v-1.396h0.688v1.396h1.466v0.608
				h-1.466L468.242,293.582L468.242,293.582z"/>
		</g>
		<g enable-background="new    ">
			<path fill="#939598" d="M67.232,317.685v6.262h-0.708v-6.262H67.232z"/>
			<path fill="#939598" d="M70.476,324.038c-0.663,0-1.394-0.261-1.914-0.682l0.349-0.492c0.5,0.376,1.056,0.591,1.602,0.591
				c0.553,0,0.957-0.287,0.957-0.734v-0.018c0-0.466-0.547-0.645-1.155-0.813c-0.724-0.206-1.529-0.456-1.529-1.306v-0.019
				c0-0.796,0.663-1.321,1.574-1.321c0.563,0,1.19,0.195,1.664,0.508l-0.312,0.518c-0.429-0.275-0.922-0.443-1.369-0.443
				c-0.545,0-0.894,0.285-0.894,0.668v0.02c0,0.438,0.572,0.609,1.189,0.795c0.715,0.216,1.485,0.492,1.485,1.324v0.02
				C72.122,323.527,71.398,324.038,70.476,324.038z"/>
			<path fill="#939598" d="M73.462,323.947v-6.527h0.688v6.527H73.462z"/>
			<path fill="#939598" d="M76.018,320.21l-0.207-0.562c0.51-0.232,1.012-0.385,1.682-0.385c1.261,0,1.968,0.644,1.968,1.858v2.826
				h-0.66v-0.697c-0.322,0.42-0.859,0.795-1.673,0.795c-0.859,0-1.727-0.481-1.727-1.449c0-0.982,0.805-1.504,1.977-1.504
				c0.59,0,1.011,0.082,1.423,0.197v-0.16c0-0.832-0.51-1.259-1.378-1.259C76.876,319.87,76.449,320.012,76.018,320.21z
				 M76.099,322.572c0,0.588,0.536,0.928,1.164,0.928c0.849,0,1.547-0.519,1.547-1.25v-0.448c-0.34-0.099-0.795-0.195-1.359-0.195
				C76.581,321.603,76.099,321.978,76.099,322.572z"/>
			<path fill="#939598" d="M81.614,323.947h-0.688v-4.624h0.688v0.808c0.303-0.504,0.787-0.906,1.583-0.906
				c1.117,0,1.771,0.754,1.771,1.854v2.871h-0.69v-2.699c0-0.859-0.463-1.396-1.278-1.396c-0.795,0-1.384,0.58-1.384,1.448
				L81.614,323.947L81.614,323.947z"/>
			<path fill="#939598" d="M90.142,323.947v-0.934c-0.376,0.559-0.921,1.029-1.771,1.029c-1.108,0-2.208-0.878-2.208-2.403
				c0-1.521,1.101-2.418,2.208-2.418c0.858,0,1.413,0.466,1.771,0.985v-2.788h0.689v6.524h-0.689V323.947z M88.496,319.842
				c-0.894,0-1.628,0.662-1.628,1.787c0,1.103,0.752,1.799,1.628,1.799c0.857,0,1.673-0.717,1.673-1.799
				C90.169,320.558,89.354,319.842,88.496,319.842z"/>
		</g>
		<g enable-background="new    ">
			<path fill="#939598" d="M58.089,368.716h-1.137l-3.093-3.896l-1.711,1.733v2.161H51.24v-8.049h0.908v4.808l4.621-4.808h1.172
				l-3.449,3.521L58.089,368.716z"/>
			<path fill="#939598" d="M59.373,361.475v-0.977h1.011v0.977H59.373z M59.431,368.716v-5.938h0.884v5.938H59.431z"/>
			<path fill="#939598" d="M63.569,367.026c0,0.726,0.402,0.987,1,0.987c0.3,0,0.552-0.06,0.862-0.208v0.762
				c-0.311,0.159-0.645,0.253-1.069,0.253c-0.953,0-1.679-0.473-1.679-1.679v-3.587h-0.827v-0.78h0.827v-1.794h0.885v1.794h1.886
				v0.78h-1.885V367.026z"/>
			<path fill="#939598" d="M69.523,368.854c-1.735,0-3.046-1.409-3.046-3.092c0-1.688,1.31-3.114,3.046-3.114
				c1.125,0,1.827,0.472,2.378,1.058l-0.586,0.621c-0.472-0.494-1-0.896-1.806-0.896c-1.207,0-2.127,1.022-2.127,2.312
				c0,1.3,0.942,2.321,2.184,2.321c0.759,0,1.345-0.382,1.815-0.886l0.562,0.528C71.35,368.371,70.637,368.854,69.523,368.854z"/>
			<path fill="#939598" d="M74.291,368.716h-0.885v-8.39h0.885v3.482c0.39-0.646,1.012-1.161,2.036-1.161
				c1.436,0,2.274,0.969,2.274,2.379v3.69h-0.884v-3.472c0-1.104-0.598-1.794-1.646-1.794c-1.023,0-1.784,0.748-1.784,1.861v3.4
				L74.291,368.716L74.291,368.716z"/>
			<path fill="#939598" d="M83.105,368.086c0.816,0,1.39-0.334,1.875-0.84l0.551,0.493c-0.597,0.667-1.322,1.114-2.449,1.114
				c-1.632,0-2.965-1.252-2.965-3.104c0-1.725,1.207-3.105,2.85-3.105c1.758,0,2.771,1.404,2.771,3.15c0,0.082,0,0.173-0.012,0.277
				h-4.712C81.141,367.361,82.06,368.086,83.105,368.086z M84.842,365.416c-0.093-1.08-0.713-2.021-1.896-2.021
				c-1.034,0-1.815,0.863-1.93,2.021H84.842z"/>
			<path fill="#939598" d="M88.173,368.716h-0.885v-5.938h0.885v1.033c0.39-0.646,1.012-1.16,2.036-1.16
				c1.437,0,2.275,0.967,2.275,2.379v3.689h-0.885v-3.471c0-1.104-0.597-1.796-1.644-1.796c-1.023,0-1.783,0.749-1.783,1.863
				L88.173,368.716L88.173,368.716L88.173,368.716z"/>
		</g>
		<g enable-background="new    ">
			<path fill="#939598" d="M89.483,342.461H87.31v-6.259h2.173c1.968,0,3.327,1.351,3.327,3.12
				C92.81,341.091,91.451,342.461,89.483,342.461z M89.483,336.852h-1.467v4.954h1.467c1.582,0,2.593-1.071,2.593-2.469
				C92.076,337.942,91.065,336.852,89.483,336.852z"/>
			<path fill="#939598" d="M97.769,336.182h0.581l1.719,5.234l1.789-5.214h0.743l-2.236,6.304h-0.6l-1.717-5.08l-1.726,5.08h-0.59
				l-2.236-6.304h0.77l1.789,5.214L97.769,336.182z"/>
		</g>
		<g enable-background="new    ">
			<path fill="#939598" d="M131.244,392.084l-1.816-2.435h-1.79v2.435h-0.706v-6.26h2.691c1.377,0,2.262,0.74,2.262,1.871
				c0,1.045-0.715,1.65-1.7,1.831l1.923,2.56h-0.866v-0.002H131.244L131.244,392.084z M129.57,386.476h-1.932v2.541h1.923
				c0.938,0,1.61-0.481,1.61-1.297C131.172,386.94,130.582,386.476,129.57,386.476z"/>
			<path fill="#939598" d="M135.228,391.593c0.635,0,1.083-0.259,1.458-0.651l0.429,0.385c-0.464,0.519-1.027,0.866-1.905,0.866
				c-1.271,0-2.309-0.975-2.309-2.413c0-1.344,0.938-2.416,2.218-2.416c1.368,0,2.155,1.09,2.155,2.449c0,0.062,0,0.133-0.008,0.215
				H133.6C133.699,391.03,134.415,391.593,135.228,391.593z M136.578,389.517c-0.071-0.84-0.554-1.573-1.476-1.573
				c-0.805,0-1.412,0.67-1.503,1.573H136.578z"/>
			<path fill="#939598" d="M140.886,387.478v0.592h-1.458v4.018h-0.688v-4.018h-0.635v-0.602h0.635v-0.4
				c0-1.012,0.51-1.549,1.395-1.549c0.321,0,0.536,0.036,0.759,0.117v0.602c-0.25-0.072-0.438-0.117-0.67-0.117
				c-0.536,0-0.804,0.323-0.804,0.982v0.376L140.886,387.478L140.886,387.478L140.886,387.478z"/>
		</g>
		<g enable-background="new    ">
			<path fill="#939598" d="M107.898,401.711v1.521h2.209v0.703h-6.259v-2.341c0-1.413,0.75-2.346,1.994-2.346
				C107.201,399.252,107.898,400.379,107.898,401.711z M104.5,401.648v1.584h2.754v-1.549c0-1.035-0.554-1.719-1.385-1.719
				C104.965,399.969,104.5,400.64,104.5,401.648z"/>
			<path fill="#939598" d="M106.37,397.904l-0.563,0.208c-0.232-0.515-0.384-1.015-0.384-1.683c0-1.263,0.643-1.969,1.86-1.969
				h2.826v0.662h-0.697c0.42,0.321,0.795,0.857,0.795,1.671c0,0.861-0.481,1.729-1.449,1.729c-0.984,0-1.503-0.807-1.503-1.978
				c0-0.592,0.081-1.012,0.197-1.423h-0.161c-0.831,0-1.26,0.509-1.26,1.378C106.03,397.047,106.171,397.475,106.37,397.904z
				 M108.73,397.825c0.59,0,0.93-0.536,0.93-1.164c0-0.851-0.519-1.546-1.251-1.546h-0.447c-0.098,0.34-0.196,0.796-0.196,1.355
				C107.764,397.343,108.139,397.825,108.73,397.825z"/>
			<path fill="#939598" d="M110.107,392.31v0.689h-4.625v-0.689h0.806c-0.502-0.305-0.904-0.787-0.904-1.584
				c0-1.117,0.752-1.77,1.851-1.77h2.871v0.688h-2.7c-0.857,0-1.396,0.466-1.396,1.279c0,0.797,0.582,1.387,1.451,1.387H110.107
				L110.107,392.31z"/>
			<path fill="#939598" d="M108.793,386.562c0.562,0,0.77-0.312,0.77-0.777c0-0.23-0.045-0.432-0.162-0.67h0.592
				c0.125,0.238,0.195,0.504,0.195,0.833c0,0.741-0.368,1.303-1.306,1.303h-2.789v0.646h-0.61v-0.646h-1.396v-0.688h1.396v-1.468
				h0.61v1.468L108.793,386.562L108.793,386.562z"/>
			<path fill="#939598" d="M110.107,383.193v0.687h-4.625v-0.687h1.207c-0.769-0.342-1.323-1.012-1.288-1.891h0.742v0.057
				c0,1.012,0.724,1.834,2.12,1.834H110.107z"/>
			<path fill="#939598" d="M110.261,378.01c0.957,0.396,1.304,0.841,1.304,1.537c0,0.387-0.081,0.674-0.232,0.983l-0.546-0.234
				c0.116-0.222,0.169-0.427,0.169-0.723c0-0.41-0.214-0.67-0.867-0.946l-4.605,2.104v-0.763l3.855-1.682l-3.855-1.48v-0.734
				L110.261,378.01z"/>
		</g>
		<g enable-background="new    ">
			<path fill="#939598" d="M315.152,278.395h0.705v5.608h3.523v0.651h-4.23v-6.26H315.152L315.152,278.395z"/>
			<path fill="#939598" d="M320.839,280.917l-0.208-0.562c0.512-0.23,1.012-0.387,1.682-0.387c1.265,0,1.97,0.646,1.97,1.863v2.824
				h-0.66v-0.698c-0.325,0.422-0.858,0.795-1.675,0.795c-0.858,0-1.727-0.479-1.727-1.448c0-0.981,0.805-1.503,1.975-1.503
				c0.592,0,1.014,0.08,1.424,0.196v-0.159c0-0.832-0.512-1.262-1.377-1.262C321.697,280.578,321.266,280.719,320.839,280.917z
				 M320.918,283.279c0,0.59,0.537,0.93,1.164,0.93c0.848,0,1.544-0.521,1.544-1.253v-0.446c-0.338-0.098-0.794-0.197-1.356-0.197
				C321.4,282.312,320.918,282.688,320.918,283.279z"/>
			<path fill="#939598" d="M329.025,280.031h0.681v4.623h-0.681v-0.805c-0.312,0.5-0.787,0.902-1.584,0.902
				c-1.115,0-1.771-0.751-1.771-1.854v-2.869h0.688v2.699c0,0.859,0.469,1.396,1.281,1.396c0.786,0,1.387-0.582,1.387-1.449V280.031
				L329.025,280.031z"/>
			<path fill="#939598" d="M331.939,284.654h-0.688v-4.623h0.688v0.808c0.304-0.503,0.785-0.905,1.582-0.905
				c1.119,0,1.771,0.752,1.771,1.854v2.868h-0.688v-2.699c0-0.856-0.465-1.396-1.277-1.396c-0.795,0-1.387,0.582-1.387,1.451
				V284.654L331.939,284.654z"/>
			<path fill="#939598" d="M340.469,284.654v-0.932c-0.377,0.559-0.923,1.029-1.771,1.029c-1.108,0-2.21-0.876-2.21-2.406
				c0-1.521,1.102-2.416,2.21-2.416c0.858,0,1.411,0.465,1.771,0.984v-2.789h0.688v6.527L340.469,284.654L340.469,284.654z
				 M338.822,280.549c-0.896,0-1.627,0.664-1.627,1.789c0,1.102,0.75,1.799,1.627,1.799c0.857,0,1.673-0.717,1.673-1.799
				C340.493,281.266,339.682,280.549,338.822,280.549z"/>
			<path fill="#939598" d="M343.379,284.654h-0.688v-4.623h0.688v1.207c0.342-0.77,1.012-1.322,1.889-1.288v0.743h-0.054
				c-1.012,0-1.835,0.725-1.835,2.117V284.654L343.379,284.654z"/>
			<path fill="#939598" d="M348.562,284.807c-0.394,0.957-0.84,1.307-1.537,1.307c-0.385,0-0.67-0.08-0.983-0.233l0.231-0.546
				c0.227,0.116,0.431,0.171,0.727,0.171c0.411,0,0.671-0.216,0.947-0.866l-2.102-4.604h0.76l1.683,3.854l1.481-3.854h0.733
				L348.562,284.807z"/>
		</g>
		<g enable-background="new    ">
			<path fill="#939598" d="M374.896,151.171c0,1.056-0.646,1.599-1.275,1.874c0.954,0.288,1.725,0.839,1.725,1.954
				c0,1.391-1.16,2.208-2.919,2.208h-3.575v-8.046h3.428C373.863,149.161,374.896,149.94,374.896,151.171z M373.977,151.298
				c0-0.805-0.631-1.323-1.781-1.323h-2.447v2.771h2.379C373.221,152.747,373.977,152.252,373.977,151.298z M374.427,154.94
				c0-0.885-0.735-1.392-2.139-1.392h-2.541v2.84h2.7C373.667,156.39,374.427,155.849,374.427,154.94z"/>
			<path fill="#939598" d="M379.62,156.575c0.815,0,1.392-0.333,1.873-0.839l0.554,0.494c-0.6,0.667-1.322,1.117-2.449,1.117
				c-1.632,0-2.965-1.252-2.965-3.104c0-1.727,1.207-3.106,2.85-3.106c1.762,0,2.771,1.404,2.771,3.15c0,0.081,0,0.174-0.013,0.276
				h-4.712C377.654,155.849,378.572,156.575,379.62,156.575z M381.355,153.907c-0.092-1.08-0.713-2.022-1.897-2.022
				c-1.034,0-1.815,0.862-1.931,2.022H381.355z"/>
			<path fill="#939598" d="M388.57,157.206v-1.196c-0.481,0.714-1.182,1.322-2.274,1.322c-1.426,0-2.841-1.126-2.841-3.091
				c0-1.955,1.413-3.105,2.841-3.105c1.103,0,1.815,0.6,2.274,1.266v-3.589h0.887v8.391h-0.887V157.206z M386.457,151.931
				c-1.148,0-2.094,0.851-2.094,2.297c0,1.414,0.969,2.312,2.094,2.312c1.104,0,2.148-0.919,2.148-2.312
				C388.605,152.849,387.561,151.931,386.457,151.931z"/>
			<path fill="#939598" d="M392.316,157.206h-0.883v-5.942h0.883v1.551c0.438-0.987,1.3-1.7,2.427-1.654v0.954h-0.072
				c-1.297,0-2.354,0.931-2.354,2.725V157.206L392.316,157.206z"/>
			<path fill="#939598" d="M398.546,157.345c-1.78,0-3.08-1.404-3.08-3.093c0-1.69,1.312-3.116,3.105-3.116
				c1.782,0,3.09,1.404,3.09,3.093C401.661,155.92,400.339,157.345,398.546,157.345z M398.546,151.918
				c-1.286,0-2.172,1.023-2.172,2.311c0,1.289,0.942,2.323,2.197,2.323c1.287,0,2.182-1.023,2.182-2.3
				C400.753,152.953,399.801,151.918,398.546,151.918z"/>
			<path fill="#939598" d="M405.971,157.345c-1.782,0-3.08-1.404-3.08-3.093c0-1.69,1.312-3.116,3.104-3.116
				c1.784,0,3.093,1.404,3.093,3.093C409.086,155.92,407.764,157.345,405.971,157.345z M405.971,151.918
				c-1.287,0-2.172,1.023-2.172,2.311c0,1.289,0.942,2.323,2.194,2.323c1.287,0,2.185-1.023,2.185-2.3
				C408.178,152.953,407.225,151.918,405.971,151.918z"/>
			<path fill="#939598" d="M417.488,151.136c1.364,0,2.206,0.921,2.206,2.393v3.678h-0.885v-3.472c0-1.149-0.576-1.794-1.541-1.794
				c-0.896,0-1.645,0.667-1.645,1.841v3.424h-0.875v-3.493c0-1.116-0.586-1.772-1.527-1.772s-1.652,0.783-1.652,1.875v3.392h-0.889
				v-5.942h0.889v1c0.389-0.586,0.917-1.127,1.919-1.127c0.965,0,1.586,0.519,1.909,1.186
				C415.819,151.666,416.452,151.136,417.488,151.136z"/>
		</g>
		<g enable-background="new    ">
			<path fill="#939598" d="M363.577,163.147h0.664v8.104h-0.896v-7.161l-1.518,0.471l-0.219-0.735L363.577,163.147z"/>
			<path fill="#939598" d="M371.299,164.688c-0.597-0.506-1.16-0.793-1.896-0.793c-1.459,0-2.365,1.472-2.355,3.553
				c0.438-0.646,1.114-1.231,2.287-1.231c1.506,0,2.783,0.966,2.783,2.482c0,1.563-1.252,2.69-2.887,2.69
				c-0.885,0-1.609-0.31-2.114-0.816c-0.644-0.644-1.013-1.472-1.013-3.126c0-2.46,1.242-4.381,3.347-4.381
				c0.967,0,1.677,0.347,2.38,0.921L371.299,164.688z M369.219,166.999c-1.207,0-2.011,0.862-2.011,1.771
				c0,1.045,0.851,1.816,2.034,1.816c1.183,0,1.941-0.816,1.941-1.85C371.184,167.734,370.38,166.999,369.219,166.999z"/>
			<path fill="#939598" d="M373.932,163.205h1.08v0.058l-0.932,3.068h-0.494L373.932,163.205z"/>
			<path fill="#939598" d="M377.021,163.205h4.631v0.839h-3.838l-0.172,2.575c0.471-0.207,0.92-0.356,1.586-0.356
				c1.562,0,2.778,0.932,2.778,2.473c0,1.584-1.194,2.655-2.871,2.655c-1.151,0-2.151-0.553-2.875-1.276l0.599-0.656
				c0.703,0.678,1.471,1.103,2.289,1.103c1.146,0,1.939-0.759,1.939-1.792c0-1.011-0.814-1.701-1.998-1.701
				c-0.68,0-1.219,0.207-1.689,0.459l-0.609-0.402L377.021,163.205z"/>
			<path fill="#939598" d="M383.779,163.205h1.068v0.058l-0.933,3.068h-0.481L383.779,163.205z M386.032,163.205h1.057v0.058
				l-0.931,3.068h-0.483L386.032,163.205z"/>
			<path fill="#939598" d="M397.339,171.252h-1.021l-1.839-2.425l-1.851,2.425h-0.987l2.334-3.023l-2.242-2.919h1.013l1.759,2.3
				l1.759-2.3h0.988l-2.254,2.897L397.339,171.252z"/>
			<path fill="#939598" d="M403.521,163.147h0.663v8.104h-0.896v-7.161l-1.517,0.471l-0.22-0.735L403.521,163.147z"/>
			<path fill="#939598" d="M406.347,164.021v-0.815h5.141v0.667l-2.529,2.804c1.414,0.115,2.655,0.793,2.655,2.276
				c0,1.449-1.195,2.438-2.688,2.438c-1.345,0-2.345-0.588-3-1.438l0.655-0.586c0.619,0.76,1.366,1.196,2.355,1.196
				c0.978,0,1.761-0.62,1.761-1.573c0-1.012-0.922-1.564-2.256-1.564h-0.518l-0.185-0.54l2.542-2.863L406.347,164.021
				L406.347,164.021z"/>
			<path fill="#939598" d="M413.484,163.205h1.08v0.058l-0.931,3.068h-0.498L413.484,163.205z"/>
			<path fill="#939598" d="M416.574,163.205h4.634v0.839h-3.841l-0.172,2.575c0.472-0.207,0.921-0.356,1.586-0.356
				c1.563,0,2.782,0.932,2.782,2.473c0,1.584-1.197,2.655-2.874,2.655c-1.148,0-2.148-0.553-2.873-1.276l0.599-0.656
				c0.701,0.678,1.472,1.103,2.287,1.103c1.147,0,1.941-0.759,1.941-1.792c0-1.011-0.815-1.701-2-1.701
				c-0.68,0-1.221,0.207-1.688,0.459l-0.609-0.402L416.574,163.205z"/>
			<path fill="#939598" d="M423.333,163.205h1.067v0.058l-0.932,3.068h-0.482L423.333,163.205z M425.585,163.205h1.058v0.058
				l-0.931,3.068h-0.483L425.585,163.205z"/>
		</g>
		<g enable-background="new    ">
			<path fill="#939598" d="M94.147,262.377h0.908v7.207h4.529v0.84h-5.437V262.377z"/>
			<path fill="#939598" d="M101.136,263.182v-0.977h1.011v0.977H101.136z M101.192,270.424v-5.943h0.885v5.943H101.192z"/>
			<path fill="#939598" d="M108.537,264.479h0.954l-2.585,5.989h-0.782l-2.575-5.989h0.978l2,4.934L108.537,264.479z"/>
			<path fill="#939598" d="M110.902,263.182v-0.977h1.011v0.977H110.902z M110.96,270.424v-5.943h0.885v5.943H110.96z"/>
			<path fill="#939598" d="M114.787,270.424h-0.885v-5.943h0.885v1.037c0.392-0.646,1.011-1.164,2.036-1.164
				c1.438,0,2.275,0.969,2.275,2.383v3.688h-0.885v-3.471c0-1.104-0.598-1.793-1.645-1.793c-1.022,0-1.782,0.749-1.782,1.86
				L114.787,270.424L114.787,270.424z"/>
			<path fill="#939598" d="M123.614,272.284c-0.988,0-1.909-0.274-2.703-0.824l0.403-0.692c0.678,0.496,1.437,0.762,2.288,0.762
				c1.311,0,2.163-0.728,2.163-2.115v-0.702c-0.519,0.692-1.244,1.253-2.334,1.253c-1.425,0-2.794-1.056-2.794-2.794
				c0-1.747,1.378-2.815,2.794-2.815c1.115,0,1.838,0.555,2.321,1.195v-1.068h0.885v4.908
				C126.636,271.309,125.441,272.284,123.614,272.284z M123.602,265.135c-1.126,0-2.058,0.771-2.058,2.012
				c0,1.22,0.954,2.035,2.058,2.035c1.127,0,2.186-0.804,2.186-2.021C125.786,265.928,124.729,265.135,123.602,265.135z"/>
			<path fill="#939598" d="M133.531,261.25l-5.333,10.645h-0.815l5.333-10.645H133.531z"/>
			<path fill="#939598" d="M137.393,270.424h-2.794v-8.047h2.794c2.527,0,4.275,1.736,4.275,4.012
				C141.668,268.665,139.921,270.424,137.393,270.424z M137.393,263.215h-1.887v6.369h1.887c2.034,0,3.333-1.378,3.333-3.172
				S139.426,263.215,137.393,263.215z"/>
			<path fill="#939598" d="M143.459,263.182v-0.977h1.011v0.977H143.459z M143.518,270.424v-5.943h0.883v5.943H143.518z"/>
			<path fill="#939598" d="M147.343,270.424h-0.885v-5.943h0.885v1.037c0.391-0.646,1.011-1.164,2.035-1.164
				c1.437,0,2.275,0.969,2.275,2.383v3.688h-0.885v-3.471c0-1.104-0.598-1.793-1.646-1.793c-1.022,0-1.783,0.749-1.783,1.86v3.401
				L147.343,270.424L147.343,270.424z"/>
			<path fill="#939598" d="M153.559,263.182v-0.977h1.012v0.977H153.559z M153.618,270.424v-5.943h0.885v5.943H153.618z"/>
			<path fill="#939598" d="M157.445,270.424h-0.885v-5.943h0.885v1.037c0.39-0.646,1.011-1.164,2.035-1.164
				c1.437,0,2.275,0.969,2.275,2.383v3.688h-0.885v-3.471c0-1.104-0.597-1.793-1.644-1.793c-1.023,0-1.783,0.749-1.783,1.86v3.401
				L157.445,270.424L157.445,270.424z"/>
			<path fill="#939598" d="M166.27,272.284c-0.987,0-1.908-0.274-2.702-0.824l0.402-0.692c0.678,0.496,1.437,0.762,2.288,0.762
				c1.31,0,2.162-0.728,2.162-2.115v-0.702c-0.517,0.692-1.242,1.253-2.333,1.253c-1.425,0-2.794-1.056-2.794-2.794
				c0-1.747,1.38-2.815,2.794-2.815c1.115,0,1.838,0.555,2.321,1.195v-1.068h0.885v4.908
				C169.294,271.309,168.098,272.284,166.27,272.284z M166.259,265.135c-1.126,0-2.057,0.771-2.057,2.012
				c0,1.22,0.953,2.035,2.057,2.035c1.126,0,2.184-0.804,2.184-2.021C168.442,265.928,167.386,265.135,166.259,265.135z"/>
			<path fill="#939598" d="M180.407,270.424l-2.334-3.127h-2.298v3.127h-0.908v-8.047h3.46c1.771,0,2.909,0.953,2.909,2.402
				c0,1.346-0.92,2.126-2.184,2.354l2.472,3.289L180.407,270.424L180.407,270.424z M178.256,263.215h-2.482v3.266h2.473
				c1.206,0,2.068-0.617,2.068-1.668C180.314,263.811,179.556,263.215,178.256,263.215z"/>
			<path fill="#939598" d="M185.622,270.561c-1.782,0-3.081-1.401-3.081-3.094c0-1.688,1.311-3.113,3.104-3.113
				c1.783,0,3.091,1.401,3.091,3.092C188.738,269.136,187.415,270.561,185.622,270.561z M185.622,265.135
				c-1.287,0-2.172,1.023-2.172,2.312s0.942,2.32,2.195,2.32c1.287,0,2.184-1.021,2.184-2.299
				C187.83,266.169,186.875,265.135,185.622,265.135z"/>
			<path fill="#939598" d="M193.045,270.561c-1.782,0-3.081-1.401-3.081-3.094c0-1.688,1.31-3.113,3.104-3.113
				c1.783,0,3.091,1.401,3.091,3.092C196.161,269.136,194.839,270.561,193.045,270.561z M193.045,265.135
				c-1.286,0-2.172,1.023-2.172,2.312s0.942,2.32,2.196,2.32c1.287,0,2.184-1.021,2.184-2.299
				C195.254,266.169,194.299,265.135,193.045,265.135z"/>
			<path fill="#939598" d="M204.562,264.354c1.367,0,2.208,0.922,2.208,2.391v3.681h-0.883v-3.472c0-1.148-0.575-1.794-1.542-1.794
				c-0.896,0-1.644,0.664-1.644,1.841v3.425h-0.875v-3.493c0-1.117-0.586-1.771-1.528-1.771c-0.941,0-1.655,0.779-1.655,1.875v3.39
				h-0.884v-5.942h0.884v1.002c0.392-0.588,0.92-1.129,1.92-1.129c0.965,0,1.586,0.52,1.908,1.188
				C202.894,264.883,203.528,264.354,204.562,264.354z"/>
		</g>
		<g enable-background="new    ">
			<path fill="#939598" d="M116.947,278.503l-0.667-0.483c0.724-1.082,1.482-1.713,2.897-1.713c1.458,0,2.494,0.967,2.494,2.287
				c0,1.188-0.62,1.909-2.036,3.139l-2.148,1.906h4.265v0.828h-5.621v-0.699l2.92-2.574c1.23-1.104,1.678-1.727,1.678-2.529
				c0-0.939-0.748-1.541-1.622-1.541C118.189,277.123,117.592,277.604,116.947,278.503z"/>
			<path fill="#939598" d="M128.006,276.365v5.436h1.252v0.762h-1.252v1.905h-0.875v-1.905h-4.241l-0.23-0.656l4.551-5.539
				L128.006,276.365L128.006,276.365z M127.131,277.652l-3.38,4.147h3.38V277.652z"/>
			<path fill="#939598" d="M130.968,276.422h1.082v0.059l-0.932,3.066h-0.495L130.968,276.422z"/>
			<path fill="#939598" d="M138.589,277.904c-0.598-0.506-1.161-0.793-1.896-0.793c-1.46,0-2.368,1.47-2.356,3.553
				c0.438-0.646,1.116-1.232,2.289-1.232c1.506,0,2.781,0.969,2.781,2.482c0,1.564-1.253,2.689-2.885,2.689
				c-0.886,0-1.611-0.311-2.116-0.815c-0.644-0.644-1.011-1.47-1.011-3.126c0-2.459,1.241-4.379,3.345-4.379
				c0.966,0,1.678,0.345,2.38,0.92L138.589,277.904z M136.51,280.216c-1.208,0-2.012,0.862-2.012,1.771
				c0,1.045,0.85,1.813,2.034,1.813c1.184,0,1.943-0.813,1.943-1.848C138.475,280.951,137.669,280.216,136.51,280.216z"/>
			<path fill="#939598" d="M141.221,276.422h1.067v0.059l-0.931,3.066h-0.483L141.221,276.422z M143.472,276.422h1.058v0.059
				l-0.931,3.066h-0.482L143.472,276.422z"/>
			<path fill="#939598" d="M154.782,284.468h-1.023l-1.839-2.424l-1.85,2.424h-0.988l2.333-3.021l-2.24-2.918h1.011l1.757,2.298
				l1.758-2.298h0.988l-2.254,2.896L154.782,284.468z"/>
			<path fill="#939598" d="M160.962,276.365h0.667v8.103h-0.896v-7.161l-1.517,0.476l-0.218-0.737L160.962,276.365z"/>
			<path fill="#939598" d="M168.684,277.904c-0.597-0.506-1.16-0.793-1.896-0.793c-1.459,0-2.367,1.47-2.356,3.553
				c0.437-0.646,1.115-1.232,2.289-1.232c1.505,0,2.78,0.969,2.78,2.482c0,1.564-1.251,2.689-2.885,2.689
				c-0.885,0-1.61-0.311-2.115-0.815c-0.644-0.644-1.01-1.47-1.01-3.126c0-2.459,1.24-4.379,3.344-4.379
				c0.965,0,1.678,0.345,2.38,0.92L168.684,277.904z M166.605,280.216c-1.207,0-2.011,0.862-2.011,1.771
				c0,1.045,0.85,1.813,2.034,1.813s1.942-0.813,1.942-1.848C168.571,280.951,167.766,280.216,166.605,280.216z"/>
			<path fill="#939598" d="M171.316,276.422h1.081v0.059l-0.931,3.066h-0.495L171.316,276.422z"/>
			<path fill="#939598" d="M173.82,276.422h5.46v0.678l-3.656,7.368h-1.01l3.632-7.218h-4.426V276.422L173.82,276.422z"/>
			<path fill="#939598" d="M180.981,276.422h1.069v0.059l-0.931,3.066h-0.483L180.981,276.422z M183.233,276.422h1.059v0.059
				l-0.931,3.066h-0.482L183.233,276.422z"/>
		</g>
		<g enable-background="new    ">
			<path fill="#939598" d="M163.023,401.711v1.521h2.209v0.703h-6.259v-2.341c0-1.413,0.75-2.346,1.994-2.346
				C162.326,399.252,163.023,400.379,163.023,401.711z M159.625,401.648v1.584h2.754v-1.549c0-1.035-0.554-1.719-1.385-1.719
				C160.09,399.969,159.625,400.64,159.625,401.648z"/>
			<path fill="#939598" d="M161.495,397.904l-0.562,0.208c-0.232-0.515-0.384-1.015-0.384-1.683c0-1.263,0.644-1.969,1.86-1.969
				h2.826v0.662h-0.697c0.419,0.321,0.795,0.857,0.795,1.671c0,0.861-0.482,1.729-1.449,1.729c-0.984,0-1.503-0.807-1.503-1.978
				c0-0.592,0.081-1.012,0.197-1.423h-0.161c-0.833,0-1.26,0.509-1.26,1.378C161.155,397.047,161.296,397.475,161.495,397.904z
				 M163.856,397.825c0.59,0,0.93-0.536,0.93-1.164c0-0.851-0.519-1.546-1.251-1.546h-0.447c-0.099,0.34-0.197,0.796-0.197,1.355
				C162.889,397.343,163.264,397.825,163.856,397.825z"/>
			<path fill="#939598" d="M165.232,392.31v0.689h-4.624v-0.689h0.806c-0.502-0.305-0.904-0.787-0.904-1.584
				c0-1.117,0.752-1.77,1.851-1.77h2.871v0.688h-2.699c-0.858,0-1.396,0.466-1.396,1.279c0,0.797,0.581,1.387,1.45,1.387H165.232
				L165.232,392.31z"/>
			<path fill="#939598" d="M163.918,386.562c0.562,0,0.77-0.312,0.77-0.777c0-0.23-0.045-0.432-0.162-0.67h0.592
				c0.125,0.238,0.195,0.504,0.195,0.833c0,0.741-0.367,1.303-1.306,1.303h-2.789v0.646h-0.609v-0.646h-1.396v-0.688h1.396v-1.468
				h0.609v1.468L163.918,386.562L163.918,386.562z"/>
			<path fill="#939598" d="M165.232,383.193v0.687h-4.624v-0.687h1.207c-0.769-0.342-1.323-1.012-1.287-1.891h0.742v0.057
				c0,1.012,0.724,1.834,2.12,1.834H165.232z"/>
			<path fill="#939598" d="M165.384,378.01c0.956,0.396,1.305,0.841,1.305,1.537c0,0.387-0.081,0.674-0.231,0.983l-0.546-0.234
				c0.116-0.222,0.17-0.427,0.17-0.723c0-0.41-0.215-0.67-0.867-0.946l-4.606,2.104v-0.763l3.854-1.682l-3.854-1.48v-0.734
				L165.384,378.01z"/>
		</g>
	</g>
	<g id="walls">
		<polyline fill="none" stroke="#939598" stroke-width="5" points="359.971,412.372 493.785,412.372 493.785,86.012 296.445,86.012 
			296.445,212.271 6.863,212.13 6.863,412.372 328.968,412.372 		"/>
		<polyline fill="none" stroke="#939598" stroke-width="3" points="361.081,286.646 367.365,286.646 367.365,249.452 		"/>
		<polyline fill="none" stroke="#939598" stroke-width="3" points="296.904,214.018 296.904,286.646 305.898,286.646 		"/>
		<line fill="none" stroke="#939598" stroke-width="3" x1="300.277" y1="400.123" x2="300.277" y2="410.337"/>
		<polyline fill="none" stroke="#939598" stroke-width="3" points="271.864,411.616 271.864,359.901 300.277,359.901 
			300.277,371.074 		"/>
		<polyline fill="none" stroke="#939598" stroke-width="3" points="407.854,327.289 458.609,327.289 458.609,348.392 
			492.446,348.392 		"/>
		<polyline fill="none" stroke="#939598" stroke-width="3" points="368.271,411.616 368.271,327.289 377.848,327.289 		"/>
		<line fill="none" stroke="#939598" stroke-width="3" x1="415.196" y1="250.729" x2="415.196" y2="325.746"/>
		<line fill="none" stroke="#939598" stroke-width="3" x1="486.062" y1="248.812" x2="495" y2="248.812"/>
		<line fill="none" stroke="#939598" stroke-width="3" x1="408.28" y1="248.812" x2="455.693" y2="248.812"/>
		<line fill="none" stroke="#939598" stroke-width="3" x1="297.402" y1="248.812" x2="378.166" y2="248.812"/>
	</g>
	<g id="windows">
		<g>
			<g>
				<rect x="22.824" y="209.764" fill="#FFFFFF" stroke="#939598" width="88.822" height="4.691"/>
				<line fill="none" stroke="#939598" x1="111.645" y1="212.084" x2="21.866" y2="212.084"/>
				<line fill="none" stroke="#939598" stroke-width="2" x1="82.696" y1="214.657" x2="82.696" y2="210.195"/>
			</g>
			<line fill="none" stroke="#939598" stroke-width="2" x1="52.83" y1="214.816" x2="52.83" y2="210.217"/>
		</g>
		<g>
			<g>
				<rect x="187.54" y="209.792" fill="#FFFFFF" stroke="#939598" width="88.823" height="4.69"/>
				<line fill="none" stroke="#939598" x1="276.363" y1="212.116" x2="186.583" y2="212.116"/>
				<line fill="none" stroke="#939598" stroke-width="2" x1="247.412" y1="214.686" x2="247.412" y2="210.225"/>
			</g>
			<line fill="none" stroke="#939598" stroke-width="2" x1="217.547" y1="214.846" x2="217.547" y2="210.248"/>
		</g>
		<g>
			<rect x="294.459" y="114.742" fill="#FFFFFF" stroke="#939598" width="4.689" height="46.287"/>
			<line fill="none" stroke="#939598" x1="296.779" y1="114.742" x2="296.779" y2="161.986"/>
		</g>
	</g>
</g>
</svg>
