<?xml version="1.0" encoding="utf-8"?>
<!-- Generator: Adobe Illustrator 15.0.2, SVG Export Plug-In . SVG Version: 6.00 Build 0)  -->
<!DOCTYPE svg PUBLIC "-//W3C//DTD SVG 1.1//EN" "http://www.w3.org/Graphics/SVG/1.1/DTD/svg11.dtd">
<svg version="1.1" id="Layer_1" xmlns="http://www.w3.org/2000/svg" xmlns:xlink="http://www.w3.org/1999/xlink" x="0px" y="0px"
	 width="522.021px" height="207.312px" viewBox="0 0 522.021 207.312" enable-background="new 0 0 522.021 207.312"
	 xml:space="preserve">
<g id="_x32_0_x25___PMS_2985_fill" display="none">
	<polygon display="inline" fill="#EBEEEF" points="3.022,18.941 3.022,175.441 106.022,175.441 106.022,205.441 287.522,205.441 
		314.522,179.941 520.021,179.941 520.021,20.941 306.522,20.941 306.522,9.941 170.522,9.941 170.522,19.941 	"/>
</g>
<g id="_x32_0_x25__grey_fill">
	<rect x="388.522" y="18.942" fill="#D1D3D4" width="49.333" height="4.667"/>
	<rect x="296.188" y="18.608" fill="#D1D3D4" width="18.332" height="4.967"/>
	<rect x="171.688" y="10.608" fill="#D1D3D4" width="49.5" height="12.5"/>
	<rect x="79.438" y="17.858" fill="#D1D3D4" width="19" height="6.25"/>
	<rect x="512.188" y="17.275" fill="#D1D3D4" width="7" height="6.344"/>
	<polygon fill="#D1D3D4" points="299.688,194.858 299.688,172.108 341.938,172.108 341.938,178.608 314.938,178.608 	"/>
	<polygon fill="#D1D3D4" points="372.938,179.108 372.938,172.608 445.438,172.608 445.438,160.858 472.188,160.858 
		472.188,172.858 519.438,172.858 519.438,178.858 	"/>
</g>
<g id="icons">
	<polygon fill="#FFFFFF" stroke="#939598" points="177.356,123.275 177.356,184.442 228.098,184.442 228.098,203.275 
		157.356,203.275 157.356,122.609 	"/>
	<g>
		<polygon fill="none" stroke="#939598" points="99.516,122.186 101.165,122.237 101.18,146.013 99.509,146.025 		"/>
		<path fill="none" stroke="#939598" d="M100.262,146.044c13.114-0.444,23.383-11.246,22.936-24.358"/>
	</g>
	<g>
		<polygon fill="none" stroke="#939598" points="369.744,179.485 368.074,179.498 368.06,155.68 369.771,155.667 		"/>
		<path fill="none" stroke="#939598" d="M369.041,155.648c-13.115,0.444-23.383,11.289-22.937,24.401"/>
	</g>
	<g>
		<polygon fill="none" stroke="#939598" points="388.704,104.186 388.713,102.6 411.34,102.584 411.332,104.172 		"/>
		<path fill="none" stroke="#939598" d="M411.35,103.456c-0.424-12.458-10.664-22.214-23.12-21.788"/>
	</g>
	<g>
		<polygon fill="none" stroke="#939598" points="172.425,112.376 172.416,110.79 149.789,110.774 149.797,112.362 		"/>
		<path fill="none" stroke="#939598" d="M149.779,111.646c0.424-12.458,10.664-22.214,23.121-21.788"/>
	</g>
	<g>
		<polygon fill="none" stroke="#939598" points="389.021,119.276 389.013,120.862 366.386,120.878 366.394,119.29 		"/>
		<path fill="none" stroke="#939598" d="M366.376,120.006c0.424,12.458,10.664,22.215,23.121,21.788"/>
	</g>
	<g>
		<polygon fill="none" stroke="#939598" points="295.746,172.589 294.41,172.599 294.397,153.544 295.769,153.534 		"/>
		<path fill="none" stroke="#939598" d="M295.185,153.519c-10.492,0.356-18.707,9.03-18.35,19.521"/>
	</g>
	<g>
		<polygon fill="none" stroke="#939598" points="22.684,122.51 24.332,122.562 24.348,146.337 22.676,146.35 		"/>
		<path fill="none" stroke="#939598" d="M23.43,146.368c13.113-0.445,23.383-11.246,22.936-24.359"/>
	</g>
	<g>
		<polygon fill="none" stroke="#939598" points="396.779,111.019 398.428,111.07 398.443,134.846 396.771,134.858 		"/>
		<path fill="none" stroke="#939598" d="M397.525,134.877c13.112-0.444,23.383-11.246,22.936-24.358"/>
	</g>
	<g>
		<polygon fill="none" stroke="#939598" points="477.934,110.936 479.582,110.987 479.598,134.763 477.926,134.775 		"/>
		<path fill="none" stroke="#939598" d="M478.68,134.794c13.113-0.444,23.383-11.246,22.937-24.358"/>
	</g>
	<polyline fill="#FFFFFF" stroke="#939598" points="420.021,172.109 420.021,153.549 390.022,153.549 390.022,172.609 	"/>
	<line fill="none" stroke="#939598" x1="313.188" y1="136.941" x2="313.188" y2="171.941"/>
	<rect x="204.188" y="126.275" fill="#FFFFFF" stroke="#939598" width="54.333" height="22.333"/>
	<polyline fill="none" stroke="#939598" points="12.938,124.108 12.938,162.608 58.188,162.608 58.188,124.108 	"/>
	<polyline fill="#FFFFFF" stroke="#939598" points="157.022,156.358 138.512,156.358 138.512,123.608 156.522,123.608 	"/>
	<line fill="none" stroke="#939598" x1="5.938" y1="25.017" x2="172.188" y2="25.017"/>
	<line fill="none" stroke="#939598" x1="511.438" y1="24.858" x2="313.938" y2="24.858"/>
	<g>
		<polygon fill="none" stroke="#939598" points="322.235,167.127 322.244,165.541 344.871,165.525 344.862,167.113 		"/>
		<path fill="none" stroke="#939598" d="M344.881,166.397c-0.424-12.458-10.664-22.214-23.121-21.788"/>
	</g>
	<polyline fill="none" stroke="#939598" stroke-dasharray="1.5,1.5,1.5,1.5,1.5,1.5" points="11.101,123.608 11.101,164.474 
		59.804,164.474 59.804,123.608 	"/>
	
		<line fill="none" stroke="#939598" stroke-dasharray="1.5,1.5,1.5,1.5,1.5,1.5" x1="311.188" y1="136.608" x2="311.188" y2="172.358"/>
	<polyline fill="none" stroke="#939598" points="508.688,112.579 508.688,159.608 473.438,159.608 	"/>
	<polyline fill="none" stroke="#939598" stroke-dasharray="1.5,1.5,1.5,1.5,1.5,1.5" points="473.188,161.708 510.579,161.708 
		510.579,113.108 	"/>
	<g>
		<rect x="257.754" y="16.347" fill="none" stroke="#939598" width="37.5" height="1.508"/>
		<rect x="225.504" y="17.839" fill="none" stroke="#939598" width="41" height="1.509"/>
	</g>
	<g>
		<rect x="303.938" y="8.79" fill="none" stroke="#939598" width="2.875" height="2.875"/>
		<line fill="none" stroke="#939598" x1="304.188" y1="10.915" x2="220.313" y2="10.915"/>
		<line fill="none" stroke="#939598" x1="303.938" y1="11.665" x2="303.938" y2="18.343"/>
		<line fill="none" stroke="#939598" x1="220.313" y1="8.79" x2="304.438" y2="8.79"/>
		<line fill="none" stroke="#939598" x1="306.813" y1="11.665" x2="306.813" y2="18.358"/>
	</g>
	<g>
		<path fill="#FFFFFF" stroke="#939598" stroke-miterlimit="10" d="M92.575,158.917c0-4.462-2.711-9.376-6.053-9.376
			s-6.041,4.914-6.041,9.376c0,4.463,2.699,6.785,6.041,6.785S92.575,163.38,92.575,158.917"/>
		<path fill="#FFFFFF" stroke="#939598" d="M92.575,158.917c0-4.462-2.711-9.376-6.053-9.376s-6.041,4.914-6.041,9.376
			c0,4.463,2.699,6.785,6.041,6.785S92.575,163.38,92.575,158.917z"/>
		<path fill="#FFFFFF" stroke="#939598" stroke-miterlimit="10" d="M82.899,164.239c0-0.25-0.205-0.455-0.455-0.455h-2.107
			c-0.25,0-0.455,0.205-0.455,0.455v0.077c0,0.25,0.205,0.455,0.455,0.455h2.107c0.25,0,0.455-0.205,0.455-0.455V164.239z"/>
		<path fill="#FFFFFF" stroke="#939598" d="M82.899,164.239c0-0.25-0.205-0.455-0.455-0.455h-2.107c-0.25,0-0.455,0.205-0.455,0.455
			v0.077c0,0.25,0.205,0.455,0.455,0.455h2.107c0.25,0,0.455-0.205,0.455-0.455V164.239z"/>
		<path fill="#FFFFFF" stroke="#939598" stroke-miterlimit="10" d="M79.562,164.783c-0.758,0-1.375,2.057-1.375,2.816
			c0,0.769,0.617,2.824,1.375,2.824h13.814c0.76,0,1.375-2.057,1.375-2.824c0-0.761-0.615-2.814-1.375-2.814L79.562,164.783z"/>
		<path fill="#FFFFFF" stroke="#939598" d="M79.562,164.783c-0.758,0-1.375,2.057-1.375,2.816c0,0.769,0.617,2.824,1.375,2.824
			h13.814c0.76,0,1.375-2.057,1.375-2.824c0-0.761-0.615-2.814-1.375-2.814L79.562,164.783z"/>
		<path fill="#FFFFFF" stroke="#939598" stroke-miterlimit="10" d="M90.972,158.73c0-3.279-1.992-6.894-4.449-6.894
			s-4.447,3.613-4.447,6.894c0,3.279,1.99,4.984,4.447,4.984S90.972,162.01,90.972,158.73"/>
		<path fill="#FFFFFF" stroke="#939598" d="M90.972,158.73c0-3.279-1.992-6.894-4.449-6.894s-4.447,3.613-4.447,6.894
			c0,3.279,1.99,4.984,4.447,4.984S90.972,162.01,90.972,158.73z"/>
	</g>
	<g>
		<g>
			<rect x="110.271" y="178.854" fill="#FFFFFF" stroke="#939598" width="45.693" height="23.625"/>
			<path fill="#FFFFFF" stroke="#939598" d="M133.118,190.667"/>
			<path fill="#FFFFFF" stroke="#939598" d="M133.274,190.667"/>
			<path fill="#FFFFFF" stroke="#939598" d="M148.768,190.667"/>
		</g>
		<circle fill="#FFFFFF" stroke="#939598" cx="145.55" cy="190.556" r="0.969"/>
		<path fill="#FFFFFF" stroke="#939598" d="M112.88,190.595c0,6.771,1.562,9.25,3.752,9.25c0,0,32.839,0,33.376,0
			c0.535,0,1.641-0.146,1.641-1.562c0-1.418,0-7.688,0-7.688v-0.017c0,0,0-6.271,0-7.688c0-1.416-1.105-1.562-1.641-1.562
			c-0.537,0-33.354,0-33.354,0l-0.021,0.002C114.442,181.331,112.88,183.866,112.88,190.595z"/>
		<path fill="#FFFFFF" stroke="#939598" d="M153.348,192.587c-0.549-0.002-0.988,0.441-0.988,0.996c0,0.537,0.439,0.982,0.988,0.986
			c0.545-0.004,0.995-0.449,0.995-0.986C154.343,193.028,153.898,192.585,153.348,192.587z"/>
		<path fill="#FFFFFF" stroke="#939598" d="M153.348,186.446c-0.549-0.006-0.988,0.445-0.988,0.99c0,0.543,0.439,0.989,0.988,0.989
			c0.545,0,0.995-0.446,0.988-0.989C154.343,186.89,153.893,186.446,153.348,186.446z"/>
		<path fill="#FFFFFF" stroke="#939598" d="M153.641,191.89c0.812,0,1.469-0.55,1.471-1.361c-0.002-0.812-0.658-1.254-1.471-1.254
			l-5.592,0.521c-0.549,0-0.549,1.482,0,1.482L153.641,191.89z"/>
	</g>
	<g>
		<path fill="#FFFFFF" stroke="#939598" stroke-miterlimit="10" d="M438.389,159.073c0-4.462-2.711-9.376-6.053-9.376
			s-6.041,4.914-6.041,9.376c0,4.463,2.699,6.785,6.041,6.785S438.389,163.536,438.389,159.073"/>
		<path fill="#FFFFFF" stroke="#939598" d="M438.389,159.073c0-4.462-2.711-9.376-6.053-9.376s-6.041,4.914-6.041,9.376
			c0,4.463,2.699,6.785,6.041,6.785S438.389,163.536,438.389,159.073z"/>
		<path fill="#FFFFFF" stroke="#939598" stroke-miterlimit="10" d="M428.713,164.396c0-0.25-0.205-0.455-0.455-0.455h-2.106
			c-0.25,0-0.455,0.205-0.455,0.455v0.077c0,0.25,0.205,0.454,0.455,0.454h2.106c0.25,0,0.455-0.204,0.455-0.454V164.396z"/>
		<path fill="#FFFFFF" stroke="#939598" d="M428.713,164.396c0-0.25-0.205-0.455-0.455-0.455h-2.106
			c-0.25,0-0.455,0.205-0.455,0.455v0.077c0,0.25,0.205,0.454,0.455,0.454h2.106c0.25,0,0.455-0.204,0.455-0.454V164.396z"/>
		<path fill="#FFFFFF" stroke="#939598" stroke-miterlimit="10" d="M425.375,164.939c-0.758,0-1.375,2.057-1.375,2.815
			c0,0.77,0.617,2.825,1.375,2.825h13.814c0.76,0,1.375-2.057,1.375-2.825c0-0.76-0.615-2.813-1.375-2.813L425.375,164.939z"/>
		<path fill="#FFFFFF" stroke="#939598" d="M425.375,164.939c-0.758,0-1.375,2.057-1.375,2.815c0,0.77,0.617,2.825,1.375,2.825
			h13.814c0.76,0,1.375-2.057,1.375-2.825c0-0.76-0.615-2.813-1.375-2.813L425.375,164.939z"/>
		<path fill="#FFFFFF" stroke="#939598" stroke-miterlimit="10" d="M436.785,158.887c0-3.279-1.992-6.894-4.449-6.894
			s-4.447,3.613-4.447,6.894c0,3.279,1.99,4.984,4.447,4.984S436.785,162.166,436.785,158.887"/>
		<path fill="#FFFFFF" stroke="#939598" d="M436.785,158.887c0-3.279-1.992-6.894-4.449-6.894s-4.447,3.613-4.447,6.894
			c0,3.279,1.99,4.984,4.447,4.984S436.785,162.166,436.785,158.887z"/>
	</g>
	<g>
		<g>
			<g>
				<rect x="446.062" y="112.492" fill="#FFFFFF" stroke="#939598" width="24.495" height="46.75"/>
				<path fill="#FFFFFF" stroke="#939598" d="M458.329,136.492"/>
			</g>
			<g>
				<polyline fill="#FFFFFF" stroke="#939598" points="458.567,157.816 468.358,157.816 468.358,114.248 448.263,114.248 
					448.263,157.816 457.664,157.816 				"/>
				<path fill="#FFFFFF" stroke="#939598" d="M458.329,136.492"/>
			</g>
			<line fill="none" stroke="#939598" x1="448.263" y1="157.816" x2="457.652" y2="137.416"/>
			<line fill="none" stroke="#939598" x1="459.041" y1="135.596" x2="468.358" y2="114.248"/>
			<line fill="none" stroke="#939598" x1="448.263" y1="114.248" x2="457.561" y2="135.49"/>
			<line fill="none" stroke="#939598" x1="459.065" y1="137.449" x2="468.358" y2="157.816"/>
			<g>
				<path fill="#FFFFFF" stroke="#939598" d="M459.377,136.492c0-0.6-0.587-1.084-1.048-1.084c-0.46,0-0.976,0.484-0.976,1.084
					c0,0.598,0.516,1.084,0.976,1.084C458.79,137.576,459.377,137.09,459.377,136.492z"/>
				<path fill="#FFFFFF" stroke="#939598" d="M458.329,136.492"/>
			</g>
		</g>
		<path fill="#FFFFFF" stroke="#939598" d="M459.345,156.219c0-0.616-2.231-0.616-2.231,0c0,0.617,0.5,1.115,1.115,1.115
			C458.847,157.334,459.345,156.836,459.345,156.219z"/>
		<polyline fill="#FFFFFF" stroke="#939598" points="457.998,159.537 457.998,157.402 458.62,157.402 458.62,159.539 		"/>
	</g>
	<g>
		<g>
			<g>
				<g>
					<rect x="274.991" y="175.835" fill="#FFFFFF" stroke="#939598" width="20.188" height="18.545"/>
					<path fill="#FFFFFF" stroke="#939598" d="M285.085,184.491"/>
					<polyline fill="#FFFFFF" stroke="#939598" points="291.21,181.368 291.21,178.547 288.772,177.889 281.304,177.889 
						278.835,178.547 278.835,181.368 					"/>
					<line fill="none" stroke="#939598" x1="274.845" y1="181.368" x2="295.179" y2="181.368"/>
					<path fill="#FFFFFF" stroke="#939598" d="M285.022,183.545"/>
				</g>
			</g>
		</g>
		<polygon fill="#FFFFFF" stroke="#939598" points="275.974,180.151 277.604,180.147 277.962,181.285 275.614,181.29 		"/>
	</g>
	<g>
		<g>
			<path fill="#FFFFFF" stroke="#939598" d="M199.872,201.108c-0.426,0-0.771-0.344-0.771-0.771v-13.444
				c0-0.427,0.346-0.771,0.771-0.771h22.807c0.426,0,0.771,0.346,0.771,0.771v13.444c0,0.429-0.345,0.771-0.771,0.771H199.872z"/>
			<path fill="#FFFFFF" stroke="#939598" d="M211.194,194.196"/>
		</g>
		<g>
			<circle fill="#FFFFFF" stroke="#939598" cx="211.194" cy="193.285" r="0.871"/>
			<path fill="#FFFFFF" stroke="#939598" d="M211.194,193.286"/>
		</g>
		<g>
			<g>
				<rect x="207.39" y="198.752" fill="#FFFFFF" stroke="#939598" width="7.609" height="1.82"/>
				<path fill="#FFFFFF" stroke="#939598" d="M211.194,199.663"/>
			</g>
			<g>
				<rect x="210.806" y="195.214" fill="#FFFFFF" stroke="#939598" width="0.777" height="3.586"/>
				<path fill="#FFFFFF" stroke="#939598" d="M211.194,197.238"/>
			</g>
			<g>
				<circle fill="#FFFFFF" stroke="#939598" cx="211.194" cy="199.645" r="0.847"/>
				<path fill="#FFFFFF" stroke="#939598" d="M211.194,199.645"/>
			</g>
		</g>
		<g>
			<path fill="#FFFFFF" stroke="#939598" d="M211.194,193.286"/>
			<path fill="none" stroke="#939598" d="M210.725,198.123h-9.589c-0.447,0-0.811-0.362-0.811-0.81v-9.222
				c0-0.444,0.363-0.809,0.811-0.809h20.279c0.447,0,0.811,0.363,0.811,0.809v9.222c0,0.446-0.363,0.81-0.811,0.81h-9.726"/>
		</g>
	</g>
	<g>
		<polyline fill="none" stroke="#939598" stroke-dasharray="1.5,1,1.5,1,1.5,1" points="196.069,183.758 196.069,200.734 
			179.421,200.734 179.421,184.14 		"/>
		<polyline fill="#FFFFFF" stroke="#939598" points="179.396,184.14 179.396,183.131 196.069,183.131 196.069,183.752 		"/>
	</g>
	<g>
		<g>
			<rect x="159.402" y="146.002" fill="#FFFFFF" stroke="#939598" width="19.75" height="23.25"/>
			<path fill="#FFFFFF" stroke="#939598" d="M169.277,157.627"/>
		</g>
		<g>
			<g>
				<circle fill="#FFFFFF" stroke="#939598" cx="174.777" cy="162.942" r="2.824"/>
				<path fill="#FFFFFF" stroke="#939598" d="M174.777,162.942"/>
			</g>
			<g>
				<circle fill="#FFFFFF" stroke="#939598" stroke-width="0.8" cx="174.776" cy="162.971" r="1.989"/>
				<path fill="#FFFFFF" stroke="#939598" d="M174.777,162.971"/>
			</g>
		</g>
		<g>
			<g>
				<circle fill="#FFFFFF" stroke="#939598" cx="166.527" cy="151.655" r="2.824"/>
				<path fill="#FFFFFF" stroke="#939598" d="M166.527,151.655"/>
			</g>
			<g>
				<circle fill="#FFFFFF" stroke="#939598" stroke-width="0.8" cx="166.526" cy="151.627" r="1.989"/>
				<path fill="#FFFFFF" stroke="#939598" d="M166.527,151.627"/>
			</g>
		</g>
		<g>
			<g>
				<circle fill="#FFFFFF" stroke="#939598" cx="166.555" cy="162.98" r="3.219"/>
				<path fill="#FFFFFF" stroke="#939598" d="M166.555,162.98"/>
			</g>
			<g>
				<circle fill="#FFFFFF" stroke="#939598" stroke-width="0.8" cx="166.555" cy="162.949" r="2.268"/>
				<path fill="#FFFFFF" stroke="#939598" d="M166.555,162.949"/>
			</g>
		</g>
		<g>
			<g>
				<circle fill="#FFFFFF" stroke="#939598" cx="174.994" cy="151.668" r="3.219"/>
				<path fill="#FFFFFF" stroke="#939598" d="M174.994,151.668"/>
			</g>
			<g>
				<circle fill="#FFFFFF" stroke="#939598" stroke-width="0.8" cx="174.994" cy="151.636" r="2.268"/>
				<path fill="#FFFFFF" stroke="#939598" d="M174.994,151.635"/>
			</g>
		</g>
		<line fill="none" stroke="#939598" x1="162.135" y1="169.283" x2="162.135" y2="146.002"/>
		<line fill="none" stroke="#939598" x1="161.043" y1="169.252" x2="161.043" y2="146.002"/>
	</g>
	<g>
		<g>
			<rect x="229.367" y="179.709" fill="#FFFFFF" stroke="#939598" width="24.901" height="21.969"/>
			<path fill="#FFFFFF" stroke="#939598" d="M243.106,190.693"/>
		</g>
		<line fill="none" stroke="#939598" x1="229.308" y1="181.245" x2="254.269" y2="181.245"/>
		<rect x="250.173" y="178.624" fill="#FFFFFF" stroke="#939598" width="2.018" height="1.069"/>
		<path fill="#FFFFFF" stroke="#939598" d="M251.182,179.218"/>
	</g>
	<g>
		<polyline fill="#FFFFFF" stroke="#939598" points="267.834,180.12 269.667,180.12 269.667,201.953 255.502,201.953 
			255.502,180.12 257.334,180.12 		"/>
		<g>
			<g>
				<g>
					<polygon fill="none" stroke="#939598" stroke-width="0.7" points="262.494,171.235 263.746,171.923 258.537,180.516 
						257.285,179.829 					"/>
					<path fill="none" stroke="#939598" stroke-width="0.8" d="M259.564,176.571"/>
				</g>
				<path fill="none" stroke="#939598" stroke-width="0.8" d="M262.974,171.649c3.202,1.939,4.926,5.394,4.811,8.888"/>
			</g>
		</g>
	</g>
	<polyline fill="none" stroke="#939598" stroke-dasharray="1.5,1.5,1.5,1.5,1.5,1.5" points="169.022,123.275 169.022,183.941 
		177.772,192.691 256.188,192.691 	"/>
	<g>
		<g>
			<g>
				<path fill="none" stroke="#939598" d="M405.371,160.889"/>
			</g>
			<g>
				<path fill="none" stroke="#939598" d="M405.371,161.951"/>
			</g>
			<g>
				<circle fill="none" stroke="#939598" cx="405.371" cy="160.889" r="1.017"/>
				<path fill="none" stroke="#939598" d="M405.371,160.889"/>
			</g>
			<g>
				<g>
					<rect x="401.105" y="167.264" fill="none" stroke="#939598" width="8.553" height="2.125"/>
					<path fill="none" stroke="#939598" d="M405.371,168.326"/>
				</g>
				<g>
					<rect x="404.918" y="163.139" fill="none" stroke="#939598" width="0.906" height="4.03"/>
					<path fill="none" stroke="#939598" d="M405.371,165.498"/>
				</g>
				<g>
					<circle fill="none" stroke="#939598" cx="405.371" cy="168.306" r="0.986"/>
					<path fill="none" stroke="#939598" d="M405.371,168.306"/>
				</g>
			</g>
		</g>
		<g>
			<rect x="396.844" y="155.839" fill="none" stroke="#939598" width="17.076" height="13.875"/>
			<rect x="398.236" y="157.233" fill="none" stroke="#939598" width="14.255" height="9.979"/>
		</g>
	</g>
	<g>
		<g>
			<g>
				<path fill="none" stroke="#939598" d="M145.774,139.842"/>
			</g>
			<g>
				<path fill="none" stroke="#939598" d="M146.836,139.842"/>
			</g>
			<g>
				<circle fill="none" stroke="#939598" cx="145.774" cy="139.842" r="1.017"/>
				<path fill="none" stroke="#939598" d="M145.774,139.842"/>
			</g>
			<g>
				<g>
					<rect x="152.149" y="135.555" fill="none" stroke="#939598" width="2.125" height="8.553"/>
					<path fill="none" stroke="#939598" d="M153.211,139.842"/>
				</g>
				<g>
					<rect x="148.024" y="139.389" fill="none" stroke="#939598" width="4.031" height="0.905"/>
					<path fill="none" stroke="#939598" d="M150.383,139.842"/>
				</g>
				<g>
					<circle fill="none" stroke="#939598" cx="153.191" cy="139.842" r="0.986"/>
					<path fill="none" stroke="#939598" d="M153.191,139.842"/>
				</g>
			</g>
		</g>
		<g>
			<rect x="140.724" y="131.293" fill="none" stroke="#939598" width="13.875" height="17.076"/>
			<rect x="142.119" y="132.722" fill="none" stroke="#939598" width="9.98" height="14.255"/>
		</g>
	</g>
</g>
<g id="walls">
	<polyline fill="none" stroke="#939598" stroke-width="5" points="172.188,18.333 2.5,18.38 2.5,173.941 107.92,173.941 
		107.92,204.812 289.522,204.812 315.354,179.107 346.315,179.107 	"/>
	<line fill="none" stroke="#939598" stroke-width="3" x1="227.534" y1="18.323" x2="221.188" y2="18.324"/>
	<polyline fill="none" stroke="#939598" stroke-width="5" points="369.791,179.107 519.521,179.107 519.521,18.275 291.194,18.312 	
		"/>
	<line fill="none" stroke="#939598" stroke-width="3" x1="388.522" y1="141.729" x2="388.522" y2="172.275"/>
	<line fill="none" stroke="#939598" stroke-width="3" x1="388.522" y1="104.093" x2="388.522" y2="119.276"/>
	<line fill="none" stroke="#939598" stroke-width="3" x1="388.522" y1="18.942" x2="388.522" y2="82.027"/>
	<path fill="none" stroke="#939598" stroke-width="3" d="M512.188,17.275c0,1,0,6.624,0,6.624h7"/>
	<polyline fill="none" stroke="#939598" stroke-width="3" points="437.855,17.942 437.855,23.608 388.854,23.608 	"/>
	<line fill="none" stroke="#939598" stroke-width="3" x1="322.522" y1="167.275" x2="322.522" y2="172.608"/>
	<polyline fill="none" stroke="#939598" stroke-width="3" points="299.854,194.275 299.854,136.608 322.522,136.608 
		322.438,144.858 	"/>
	<line fill="none" stroke="#939598" stroke-width="3" x1="396.854" y1="111.328" x2="388.188" y2="111.328"/>
	<line fill="none" stroke="#939598" stroke-width="3" x1="477.854" y1="111.328" x2="420.374" y2="111.358"/>
	<line fill="none" stroke="#939598" stroke-width="3" x1="519.188" y1="111.328" x2="501.2" y2="111.328"/>
	<polyline fill="none" stroke="#939598" stroke-width="3" points="471.93,110.941 471.93,173.275 518.854,173.275 	"/>
	<polyline fill="none" stroke="#939598" stroke-width="3" points="470.769,160.683 447.058,160.683 446.95,172.888 373.188,172.866 
		373.188,178.275 	"/>
	<polyline fill="none" stroke="#939598" stroke-width="3" points="295.854,172.305 341.188,172.275 341.188,178.941 	"/>
	<polyline fill="none" stroke="#939598" stroke-width="3" points="271.854,204.275 271.854,172.48 277.166,172.446 	"/>
	<line fill="none" stroke="#939598" stroke-width="3" x1="123.188" y1="122.758" x2="181.854" y2="122.758"/>
	<line fill="none" stroke="#939598" stroke-width="3" x1="46.188" y1="122.758" x2="99.823" y2="122.758"/>
	<line fill="none" stroke="#939598" stroke-width="3" x1="2.521" y1="122.758" x2="22.521" y2="122.758"/>
	<line fill="none" stroke="#939598" stroke-width="3" x1="172.188" y1="89.858" x2="172.188" y2="18.608"/>
	<line fill="none" stroke="#939598" stroke-width="3" x1="172.188" y1="122.608" x2="172.188" y2="112.358"/>
	<line fill="none" stroke="#939598" stroke-width="3" x1="157.499" y1="121.941" x2="157.499" y2="203.608"/>
	<line fill="none" stroke="#939598" stroke-width="3" x1="68.854" y1="122.275" x2="68.854" y2="173.941"/>
	<polyline fill="none" stroke="#939598" stroke-width="3" points="173.259,18.276 173.272,23.275 221.2,23.275 221.2,18.775 	"/>
	<polyline fill="none" stroke="#939598" stroke-width="5" points="222.188,19.719 222.188,10.801 172.199,10.801 172.292,19.222 	
		"/>
	<polyline fill="none" stroke="#939598" stroke-width="3" points="296.188,18.608 296.188,23.876 314.521,23.876 314.521,19.275 	
		"/>
	<polyline fill="none" stroke="#939598" stroke-width="3" points="80.188,18.942 80.188,23.275 97.854,23.275 97.854,19.608 	"/>
	<line fill="none" stroke="#939598" stroke-width="4" x1="5.188" y1="25.425" x2="5.188" y2="19.608"/>
</g>
<g id="windows">
	<g>
		<g>
			<rect x="7.98" y="16.443" fill="#FFFFFF" stroke="#939598" width="69.562" height="3.674"/>
			<line fill="none" stroke="#939598" x1="77.543" y1="18.26" x2="7.23" y2="18.26"/>
			<line fill="none" stroke="#939598" stroke-width="2" x1="54.869" y1="20.275" x2="54.869" y2="16.781"/>
		</g>
		<line fill="none" stroke="#939598" stroke-width="2" x1="31.48" y1="20.4" x2="31.48" y2="16.798"/>
	</g>
	<g>
		<g>
			<rect x="99.981" y="16.341" fill="#FFFFFF" stroke="#939598" width="69.562" height="3.675"/>
			<line fill="none" stroke="#939598" x1="169.543" y1="18.16" x2="99.231" y2="18.16"/>
			<line fill="none" stroke="#939598" stroke-width="2" x1="146.87" y1="20.173" x2="146.87" y2="16.679"/>
		</g>
		<line fill="none" stroke="#939598" stroke-width="2" x1="123.481" y1="20.298" x2="123.481" y2="16.697"/>
	</g>
	<g>
		<g>
			<rect x="316.813" y="16.443" fill="#FFFFFF" stroke="#939598" width="69.562" height="3.674"/>
			<line fill="none" stroke="#939598" x1="386.377" y1="18.262" x2="316.063" y2="18.262"/>
			<line fill="none" stroke="#939598" stroke-width="2" x1="363.703" y1="20.275" x2="363.703" y2="16.781"/>
		</g>
		<line fill="none" stroke="#939598" stroke-width="2" x1="340.313" y1="20.4" x2="340.313" y2="16.799"/>
	</g>
	<g>
		<g>
			<rect x="440.368" y="16.389" fill="#FFFFFF" stroke="#939598" width="69.562" height="3.674"/>
			<line fill="none" stroke="#939598" x1="509.931" y1="18.207" x2="439.618" y2="18.207"/>
			<line fill="none" stroke="#939598" stroke-width="2" x1="487.257" y1="20.221" x2="487.257" y2="16.727"/>
		</g>
		<line fill="none" stroke="#939598" stroke-width="2" x1="463.868" y1="20.346" x2="463.868" y2="16.744"/>
	</g>
</g>
<g id="Type">
	<g enable-background="new    ">
		<path fill="#939598" d="M240.872,6.019c-0.735,0-1.205-0.364-1.513-0.869l0.399-0.343c0.301,0.455,0.609,0.7,1.121,0.7
			c0.553,0,0.959-0.399,0.959-1.177V1.047h0.561v3.277C242.399,5.452,241.748,6.019,240.872,6.019z"/>
		<path fill="#939598" d="M246.186,2.328h0.532v3.621h-0.532v-0.63c-0.245,0.392-0.617,0.707-1.24,0.707
			c-0.875,0-1.387-0.589-1.387-1.45V2.328h0.539v2.115c0,0.673,0.364,1.093,1.001,1.093c0.617,0,1.086-0.455,1.086-1.135V2.328z"/>
		<path fill="#939598" d="M247.977,5.949V0.837h0.539v5.112H247.977z"/>
		<path fill="#939598" d="M249.782,1.537V0.941h0.617v0.596H249.782z M249.817,5.949V2.328h0.539v3.621H249.817z"/>
		<path fill="#939598" d="M253.206,5.564c0.497,0,0.848-0.203,1.142-0.512l0.336,0.301c-0.364,0.406-0.805,0.68-1.492,0.68
			c-0.995,0-1.807-0.764-1.807-1.891c0-1.051,0.735-1.892,1.737-1.892c1.071,0,1.688,0.854,1.688,1.919c0,0.05,0,0.105-0.007,0.168
			h-2.872C252.008,5.123,252.569,5.564,253.206,5.564z M254.264,3.939c-0.056-0.658-0.434-1.233-1.156-1.233
			c-0.63,0-1.106,0.525-1.177,1.233H254.264z"/>
		<path fill="#939598" d="M256.481,4.92c0,0.441,0.245,0.603,0.609,0.603c0.182,0,0.336-0.035,0.525-0.127v0.463
			c-0.189,0.098-0.392,0.154-0.651,0.154c-0.582,0-1.022-0.288-1.022-1.023V2.804h-0.504V2.328h0.504V1.235h0.539v1.093h1.149v0.477
			h-1.149V4.92z"/>
		<path fill="#939598" d="M264.456,2.272c0,0.645-0.393,0.974-0.777,1.142c0.581,0.175,1.051,0.511,1.051,1.19
			c0,0.848-0.707,1.345-1.779,1.345h-2.178V1.047h2.086C263.825,1.047,264.456,1.522,264.456,2.272z M263.896,2.349
			c0-0.49-0.385-0.806-1.086-0.806h-1.491v1.688h1.45C263.434,3.231,263.896,2.93,263.896,2.349z M264.169,4.569
			c0-0.539-0.448-0.848-1.303-0.848h-1.548v1.73h1.646C263.706,5.452,264.169,5.123,264.169,4.569z"/>
		<path fill="#939598" d="M265.944,3.021l-0.16-0.441c0.398-0.182,0.791-0.301,1.316-0.301c0.987,0,1.541,0.504,1.541,1.457v2.213
			h-0.519V5.403c-0.253,0.329-0.673,0.623-1.31,0.623c-0.672,0-1.352-0.378-1.352-1.135c0-0.771,0.63-1.177,1.547-1.177
			c0.463,0,0.792,0.063,1.114,0.154V3.743c0-0.651-0.399-0.987-1.079-0.987C266.617,2.756,266.28,2.867,265.944,3.021z
			 M266.008,4.871c0,0.462,0.421,0.728,0.911,0.728c0.664,0,1.211-0.406,1.211-0.98v-0.35c-0.266-0.077-0.623-0.154-1.064-0.154
			C266.386,4.114,266.008,4.408,266.008,4.871z"/>
		<path fill="#939598" d="M269.837,5.949V0.837h0.539v5.112H269.837z"/>
		<path fill="#939598" d="M273.261,6.033c-1.058,0-1.855-0.861-1.855-1.884c0-1.029,0.798-1.898,1.855-1.898
			c0.686,0,1.113,0.287,1.449,0.645l-0.357,0.378c-0.287-0.301-0.609-0.546-1.1-0.546c-0.734,0-1.295,0.623-1.295,1.407
			c0,0.792,0.574,1.415,1.33,1.415c0.463,0,0.82-0.23,1.107-0.539l0.343,0.322C274.374,5.739,273.94,6.033,273.261,6.033z"/>
		<path fill="#939598" d="M277.175,6.033c-1.086,0-1.877-0.854-1.877-1.884s0.798-1.898,1.891-1.898
			c1.086,0,1.884,0.854,1.884,1.884C279.072,5.165,278.267,6.033,277.175,6.033z M277.175,2.727c-0.785,0-1.324,0.623-1.324,1.407
			c0,0.785,0.574,1.415,1.338,1.415c0.784,0,1.33-0.623,1.33-1.4C278.519,3.357,277.938,2.727,277.175,2.727z"/>
		<path fill="#939598" d="M280.583,5.949h-0.539V2.328h0.539v0.631c0.238-0.393,0.615-0.708,1.239-0.708
			c0.876,0,1.387,0.589,1.387,1.45v2.248h-0.54V3.834c0-0.672-0.363-1.093-1.001-1.093c-0.623,0-1.085,0.455-1.085,1.135V5.949z"/>
		<path fill="#939598" d="M286.017,6.068c-0.309,0.749-0.658,1.022-1.205,1.022c-0.301,0-0.525-0.063-0.771-0.182l0.183-0.428
			c0.175,0.091,0.336,0.133,0.566,0.133c0.322,0,0.525-0.168,0.742-0.679l-1.645-3.607h0.595l1.317,3.019l1.162-3.019h0.574
			L286.017,6.068z"/>
	</g>
	<g enable-background="new    ">
		<path fill="#939598" d="M107.385,155.453c0,0.828-0.504,1.252-0.999,1.468c0.747,0.225,1.35,0.657,1.35,1.53
			c0,1.089-0.909,1.729-2.287,1.729h-2.8v-6.302h2.683C106.575,153.878,107.385,154.49,107.385,155.453z M106.665,155.552
			c0-0.631-0.495-1.036-1.395-1.036h-1.918v2.17h1.864C106.071,156.686,106.665,156.3,106.665,155.552z M107.016,158.406
			c0-0.693-0.576-1.09-1.675-1.09h-1.99v2.224h2.116C106.422,159.54,107.016,159.117,107.016,158.406z"/>
		<path fill="#939598" d="M109.301,156.417l-0.207-0.567c0.513-0.234,1.017-0.388,1.692-0.388c1.27,0,1.98,0.648,1.98,1.873v2.845
			h-0.666v-0.702c-0.324,0.423-0.864,0.801-1.684,0.801c-0.864,0-1.737-0.485-1.737-1.458c0-0.99,0.81-1.513,1.989-1.513
			c0.594,0,1.018,0.081,1.432,0.198v-0.162c0-0.837-0.513-1.27-1.387-1.27C110.165,156.074,109.733,156.219,109.301,156.417z
			 M109.382,158.793c0,0.595,0.54,0.937,1.17,0.937c0.855,0,1.557-0.522,1.557-1.261v-0.449c-0.342-0.1-0.801-0.198-1.368-0.198
			C109.868,157.821,109.382,158.199,109.382,158.793z"/>
		<path fill="#939598" d="M115.134,158.856c0,0.567,0.315,0.774,0.783,0.774c0.234,0,0.432-0.045,0.675-0.162v0.594
			c-0.243,0.126-0.504,0.198-0.837,0.198c-0.747,0-1.314-0.369-1.314-1.314v-2.809h-0.648v-0.612h0.648v-1.404h0.693v1.404h1.477
			v0.612h-1.477V158.856z"/>
		<path fill="#939598" d="M118.526,160.179h-0.693v-6.572h0.693v2.729c0.306-0.505,0.792-0.91,1.594-0.91
			c1.125,0,1.782,0.757,1.782,1.864v2.89h-0.693v-2.719c0-0.864-0.468-1.404-1.288-1.404c-0.801,0-1.396,0.585-1.396,1.458V160.179z
			"/>
	</g>
	<g enable-background="new    ">
		<path fill="#939598" d="M26.261,155.867c-1.415,0-2.458-1.113-2.458-2.528c0-1.4,1.037-2.542,2.479-2.542
			c0.89,0,1.422,0.314,1.912,0.777l-0.378,0.406c-0.413-0.393-0.875-0.673-1.541-0.673c-1.086,0-1.898,0.876-1.898,2.018
			s0.819,2.031,1.898,2.031c0.672,0,1.113-0.26,1.583-0.708l0.364,0.357C27.711,155.524,27.151,155.867,26.261,155.867z"/>
		<path fill="#939598" d="M29.144,155.783v-5.112h0.539v5.112H29.144z"/>
		<path fill="#939598" d="M32.589,155.867c-1.086,0-1.877-0.854-1.877-1.884s0.798-1.898,1.891-1.898
			c1.086,0,1.884,0.854,1.884,1.884C34.487,154.999,33.681,155.867,32.589,155.867z M32.589,152.561
			c-0.785,0-1.324,0.623-1.324,1.407c0,0.785,0.574,1.415,1.337,1.415c0.785,0,1.331-0.623,1.331-1.4
			C33.934,153.191,33.352,152.561,32.589,152.561z"/>
		<path fill="#939598" d="M36.655,155.853c-0.518,0-1.092-0.203-1.499-0.532l0.273-0.386c0.392,0.294,0.827,0.463,1.254,0.463
			c0.434,0,0.75-0.225,0.75-0.575v-0.014c0-0.364-0.427-0.504-0.904-0.638c-0.567-0.16-1.198-0.356-1.198-1.022v-0.014
			c0-0.623,0.519-1.036,1.233-1.036c0.441,0,0.932,0.153,1.303,0.398l-0.245,0.406c-0.336-0.217-0.722-0.35-1.072-0.35
			c-0.427,0-0.7,0.224-0.7,0.525v0.014c0,0.343,0.448,0.477,0.932,0.623c0.56,0.168,1.163,0.386,1.163,1.037v0.014
			C37.944,155.454,37.377,155.853,36.655,155.853z"/>
		<path fill="#939598" d="M40.541,155.398c0.497,0,0.848-0.203,1.142-0.512l0.336,0.301c-0.364,0.406-0.805,0.68-1.492,0.68
			c-0.995,0-1.807-0.764-1.807-1.891c0-1.051,0.735-1.892,1.737-1.892c1.071,0,1.688,0.854,1.688,1.919c0,0.05,0,0.105-0.007,0.168
			h-2.872C39.343,154.957,39.903,155.398,40.541,155.398z M41.598,153.773c-0.056-0.658-0.434-1.233-1.156-1.233
			c-0.63,0-1.106,0.525-1.177,1.233H41.598z"/>
		<path fill="#939598" d="M43.816,154.754c0,0.441,0.245,0.603,0.609,0.603c0.182,0,0.336-0.035,0.525-0.127v0.463
			c-0.189,0.098-0.392,0.154-0.651,0.154c-0.581,0-1.022-0.288-1.022-1.023v-2.185h-0.504v-0.477h0.504v-1.093h0.539v1.093h1.149
			v0.477h-1.149V154.754z"/>
	</g>
	<g enable-background="new    ">
		<path fill="#939598" d="M416.72,139.285c0,0.828-0.504,1.252-1,1.468c0.748,0.225,1.351,0.657,1.351,1.53
			c0,1.089-0.909,1.729-2.286,1.729h-2.801v-6.302h2.684C415.909,137.71,416.72,138.322,416.72,139.285z M415.999,139.385
			c0-0.631-0.495-1.036-1.395-1.036h-1.918v2.17h1.863C415.405,140.518,415.999,140.132,415.999,139.385z M416.351,142.238
			c0-0.693-0.576-1.09-1.675-1.09h-1.989v2.224h2.115C415.757,143.372,416.351,142.949,416.351,142.238z"/>
		<path fill="#939598" d="M418.636,140.249l-0.207-0.567c0.513-0.234,1.017-0.388,1.691-0.388c1.27,0,1.98,0.648,1.98,1.873v2.845
			h-0.666v-0.702c-0.324,0.423-0.863,0.801-1.684,0.801c-0.863,0-1.736-0.485-1.736-1.458c0-0.99,0.81-1.513,1.988-1.513
			c0.595,0,1.018,0.081,1.432,0.198v-0.162c0-0.837-0.513-1.27-1.387-1.27C419.499,139.906,419.067,140.051,418.636,140.249z
			 M418.716,142.625c0,0.595,0.541,0.937,1.171,0.937c0.854,0,1.558-0.522,1.558-1.261v-0.449c-0.342-0.1-0.802-0.198-1.369-0.198
			C419.202,141.653,418.716,142.031,418.716,142.625z"/>
		<path fill="#939598" d="M424.468,142.688c0,0.567,0.315,0.774,0.783,0.774c0.234,0,0.433-0.045,0.676-0.162v0.594
			c-0.243,0.126-0.504,0.198-0.838,0.198c-0.746,0-1.314-0.369-1.314-1.314v-2.809h-0.647v-0.612h0.647v-1.404h0.693v1.404h1.477
			v0.612h-1.477V142.688z"/>
		<path fill="#939598" d="M427.86,144.011h-0.692v-6.572h0.692v2.729c0.307-0.505,0.793-0.91,1.594-0.91
			c1.125,0,1.783,0.757,1.783,1.864v2.89h-0.693v-2.719c0-0.864-0.469-1.404-1.287-1.404c-0.802,0-1.396,0.585-1.396,1.458V144.011z
			"/>
	</g>
	<g enable-background="new    ">
		<path fill="#939598" d="M481.928,146.533c-1.415,0-2.458-1.113-2.458-2.528c0-1.4,1.036-2.542,2.479-2.542
			c0.891,0,1.422,0.314,1.912,0.777l-0.378,0.406c-0.413-0.393-0.876-0.673-1.54-0.673c-1.086,0-1.898,0.876-1.898,2.018
			s0.819,2.031,1.898,2.031c0.672,0,1.113-0.26,1.582-0.708l0.364,0.357C483.378,146.19,482.817,146.533,481.928,146.533z"/>
		<path fill="#939598" d="M484.811,146.449v-5.112h0.539v5.112H484.811z"/>
		<path fill="#939598" d="M488.255,146.533c-1.086,0-1.877-0.854-1.877-1.884s0.799-1.898,1.891-1.898
			c1.086,0,1.885,0.854,1.885,1.884C490.153,145.665,489.348,146.533,488.255,146.533z M488.255,143.227
			c-0.784,0-1.323,0.623-1.323,1.407c0,0.785,0.574,1.415,1.337,1.415c0.785,0,1.332-0.623,1.332-1.4
			C489.601,143.857,489.019,143.227,488.255,143.227z"/>
		<path fill="#939598" d="M492.321,146.519c-0.518,0-1.092-0.203-1.498-0.532l0.273-0.386c0.392,0.294,0.826,0.463,1.254,0.463
			c0.434,0,0.749-0.225,0.749-0.575v-0.014c0-0.364-0.427-0.504-0.903-0.638c-0.568-0.16-1.198-0.356-1.198-1.022v-0.014
			c0-0.623,0.519-1.036,1.233-1.036c0.441,0,0.932,0.153,1.303,0.398l-0.246,0.406c-0.336-0.217-0.721-0.35-1.071-0.35
			c-0.427,0-0.7,0.224-0.7,0.525v0.014c0,0.343,0.448,0.477,0.932,0.623c0.561,0.168,1.162,0.386,1.162,1.037v0.014
			C493.61,146.12,493.044,146.519,492.321,146.519z"/>
		<path fill="#939598" d="M496.207,146.064c0.497,0,0.848-0.203,1.142-0.512l0.336,0.301c-0.363,0.406-0.805,0.68-1.492,0.68
			c-0.994,0-1.807-0.764-1.807-1.891c0-1.051,0.736-1.892,1.737-1.892c1.071,0,1.688,0.854,1.688,1.919c0,0.05,0,0.105-0.008,0.168
			h-2.871C495.009,145.623,495.569,146.064,496.207,146.064z M497.265,144.439c-0.057-0.658-0.434-1.233-1.156-1.233
			c-0.63,0-1.105,0.525-1.176,1.233H497.265z"/>
		<path fill="#939598" d="M499.482,145.42c0,0.441,0.245,0.603,0.609,0.603c0.183,0,0.337-0.035,0.525-0.127v0.463
			c-0.188,0.098-0.392,0.154-0.651,0.154c-0.581,0-1.022-0.288-1.022-1.023v-2.185h-0.505v-0.477h0.505v-1.093h0.539v1.093h1.149
			v0.477h-1.149V145.42z"/>
	</g>
	<g enable-background="new    ">
		<path fill="#939598" d="M280.548,185.438h0.455l1.345,4.098l1.401-4.083h0.58l-1.75,4.938h-0.47l-1.345-3.979l-1.352,3.979h-0.463
			l-1.75-4.938h0.602l1.401,4.083L280.548,185.438z"/>
		<path fill="#939598" d="M287.533,184.766l-3.25,6.485h-0.497l3.25-6.485H287.533z"/>
		<path fill="#939598" d="M289.885,190.355h-1.702v-4.902h1.702c1.54,0,2.604,1.058,2.604,2.444S291.425,190.355,289.885,190.355z
			 M289.885,185.964h-1.149v3.88h1.149c1.239,0,2.03-0.84,2.03-1.933S291.124,185.964,289.885,185.964z"/>
	</g>
	<g enable-background="new    ">
		<path fill="#939598" d="M351.822,174.302h-2.991v1.674h2.676v0.505h-2.676v1.716h3.026v0.504h-3.579v-4.902h3.544V174.302z"/>
		<path fill="#939598" d="M353.417,178.7h-0.539v-3.621h0.539v0.631c0.238-0.393,0.615-0.708,1.239-0.708
			c0.876,0,1.387,0.589,1.387,1.45v2.248h-0.54v-2.115c0-0.672-0.363-1.093-1.001-1.093c-0.623,0-1.085,0.455-1.085,1.135V178.7z"/>
		<path fill="#939598" d="M357.917,177.671c0,0.441,0.246,0.603,0.609,0.603c0.183,0,0.337-0.035,0.525-0.127v0.463
			c-0.188,0.098-0.392,0.154-0.65,0.154c-0.582,0-1.023-0.288-1.023-1.023v-2.185h-0.504v-0.477h0.504v-1.093h0.539v1.093h1.149
			v0.477h-1.149V177.671z"/>
		<path fill="#939598" d="M360.557,178.7h-0.539v-3.621h0.539v0.945c0.267-0.602,0.792-1.036,1.478-1.008v0.581h-0.042
			c-0.791,0-1.436,0.567-1.436,1.66V178.7z"/>
		<path fill="#939598" d="M364.617,178.819c-0.308,0.749-0.658,1.022-1.204,1.022c-0.302,0-0.525-0.063-0.771-0.182l0.183-0.428
			c0.175,0.091,0.337,0.133,0.567,0.133c0.322,0,0.525-0.168,0.742-0.679l-1.646-3.607h0.595l1.317,3.019l1.163-3.019h0.574
			L364.617,178.819z"/>
	</g>
	<g enable-background="new    ">
		<path fill="#939598" d="M309.154,162.341c0,1.415-1.113,2.458-2.528,2.458c-1.4,0-2.542-1.036-2.542-2.479
			c0-0.891,0.314-1.422,0.777-1.912l0.406,0.378c-0.393,0.413-0.673,0.876-0.673,1.54c0,1.086,0.876,1.898,2.018,1.898
			s2.031-0.819,2.031-1.898c0-0.672-0.26-1.113-0.708-1.582l0.357-0.364C308.812,160.89,309.154,161.451,309.154,162.341z"/>
		<path fill="#939598" d="M309.07,159.458h-5.112v-0.539h5.112V159.458z"/>
		<path fill="#939598" d="M309.154,156.013c0,1.086-0.854,1.877-1.884,1.877s-1.898-0.799-1.898-1.891
			c0-1.086,0.854-1.885,1.884-1.885C308.286,154.115,309.154,154.921,309.154,156.013z M305.849,156.013
			c0,0.784,0.623,1.323,1.407,1.323c0.785,0,1.415-0.574,1.415-1.337c0-0.785-0.623-1.332-1.4-1.332
			C306.479,154.668,305.849,155.25,305.849,156.013z"/>
		<path fill="#939598" d="M309.141,151.947c0,0.518-0.203,1.092-0.532,1.498l-0.386-0.273c0.294-0.392,0.463-0.826,0.463-1.254
			c0-0.434-0.225-0.749-0.575-0.749h-0.014c-0.364,0-0.504,0.427-0.638,0.903c-0.16,0.568-0.356,1.198-1.022,1.198h-0.014
			c-0.623,0-1.036-0.519-1.036-1.233c0-0.441,0.153-0.932,0.398-1.303l0.406,0.246c-0.217,0.336-0.35,0.721-0.35,1.071
			c0,0.427,0.224,0.7,0.525,0.7h0.014c0.343,0,0.477-0.448,0.623-0.932c0.168-0.561,0.386-1.162,1.037-1.162h0.014
			C308.741,150.658,309.141,151.224,309.141,151.947z"/>
		<path fill="#939598" d="M308.686,148.061c0-0.497-0.203-0.848-0.512-1.142l0.301-0.336c0.406,0.363,0.68,0.805,0.68,1.492
			c0,0.994-0.764,1.807-1.891,1.807c-1.051,0-1.892-0.736-1.892-1.737c0-1.071,0.854-1.688,1.919-1.688c0.05,0,0.105,0,0.168,0.008
			v2.871C308.244,149.26,308.686,148.699,308.686,148.061z M307.061,147.004c-0.658,0.057-1.233,0.434-1.233,1.156
			c0,0.63,0.525,1.105,1.233,1.176V147.004z"/>
		<path fill="#939598" d="M308.041,144.786c0.441,0,0.603-0.245,0.603-0.609c0-0.183-0.035-0.337-0.127-0.525h0.463
			c0.098,0.188,0.154,0.392,0.154,0.651c0,0.581-0.288,1.022-1.023,1.022h-2.185v0.505h-0.477v-0.505h-1.093v-0.539h1.093v-1.149
			h0.477v1.149H308.041z"/>
	</g>
	<g enable-background="new    ">
		<path fill="#939598" d="M222.462,135.081v4.902h-0.554v-4.902H222.462z"/>
		<path fill="#939598" d="M225.003,140.053c-0.518,0-1.092-0.203-1.499-0.532l0.273-0.386c0.392,0.294,0.827,0.463,1.254,0.463
			c0.434,0,0.749-0.225,0.749-0.575v-0.014c0-0.364-0.427-0.504-0.903-0.638c-0.567-0.16-1.198-0.356-1.198-1.022v-0.014
			c0-0.623,0.519-1.036,1.233-1.036c0.441,0,0.932,0.153,1.303,0.398l-0.245,0.406c-0.336-0.217-0.722-0.35-1.072-0.35
			c-0.427,0-0.7,0.224-0.7,0.525v0.014c0,0.343,0.448,0.477,0.932,0.623c0.56,0.168,1.163,0.386,1.163,1.037v0.014
			C226.292,139.654,225.725,140.053,225.003,140.053z"/>
		<path fill="#939598" d="M227.34,139.983v-5.112h0.539v5.112H227.34z"/>
		<path fill="#939598" d="M229.342,137.055l-0.161-0.441c0.399-0.182,0.792-0.301,1.317-0.301c0.987,0,1.541,0.504,1.541,1.457
			v2.213h-0.518v-0.546c-0.252,0.329-0.672,0.623-1.31,0.623c-0.673,0-1.352-0.378-1.352-1.135c0-0.771,0.63-1.177,1.548-1.177
			c0.462,0,0.792,0.063,1.114,0.154v-0.126c0-0.651-0.399-0.987-1.079-0.987C230.015,136.79,229.678,136.901,229.342,137.055z
			 M229.405,138.905c0,0.462,0.42,0.728,0.911,0.728c0.665,0,1.211-0.406,1.211-0.98v-0.35c-0.266-0.077-0.623-0.154-1.064-0.154
			C229.784,138.148,229.405,138.442,229.405,138.905z"/>
		<path fill="#939598" d="M233.724,139.983h-0.539v-3.621h0.539v0.631c0.238-0.393,0.616-0.708,1.24-0.708
			c0.875,0,1.387,0.589,1.387,1.45v2.248h-0.54v-2.115c0-0.672-0.364-1.093-1.001-1.093c-0.623,0-1.085,0.455-1.085,1.135V139.983z"
			/>
		<path fill="#939598" d="M240.403,139.983v-0.729c-0.294,0.435-0.721,0.806-1.387,0.806c-0.868,0-1.73-0.687-1.73-1.884
			c0-1.191,0.862-1.892,1.73-1.892c0.672,0,1.106,0.364,1.387,0.771v-2.185h0.54v5.112H240.403z M239.115,136.768
			c-0.7,0-1.275,0.519-1.275,1.4c0,0.862,0.588,1.408,1.275,1.408c0.672,0,1.31-0.561,1.31-1.408
			C240.424,137.329,239.787,136.768,239.115,136.768z"/>
	</g>
	<g enable-background="new    ">
		<path fill="#939598" d="M220.016,163.928h-0.891l-2.422-3.052l-1.341,1.359v1.692h-0.711v-6.302h0.711v3.763l3.619-3.763h0.918
			l-2.701,2.755L220.016,163.928z"/>
		<path fill="#939598" d="M221.021,158.257v-0.765h0.792v0.765H221.021z M221.067,163.928v-4.654h0.693v4.654H221.067z"/>
		<path fill="#939598" d="M224.307,162.605c0,0.567,0.315,0.774,0.783,0.774c0.234,0,0.432-0.045,0.675-0.162v0.594
			c-0.243,0.126-0.504,0.198-0.837,0.198c-0.747,0-1.314-0.369-1.314-1.314v-2.809h-0.648v-0.612h0.648v-1.404h0.693v1.404h1.477
			v0.612h-1.477V162.605z"/>
		<path fill="#939598" d="M228.971,164.037c-1.359,0-2.386-1.107-2.386-2.422c0-1.323,1.026-2.44,2.386-2.44
			c0.882,0,1.431,0.369,1.863,0.829l-0.459,0.485c-0.369-0.387-0.783-0.702-1.414-0.702c-0.945,0-1.666,0.802-1.666,1.81
			c0,1.018,0.738,1.819,1.71,1.819c0.594,0,1.053-0.298,1.422-0.693l0.441,0.414C230.402,163.658,229.844,164.037,228.971,164.037z"
			/>
		<path fill="#939598" d="M232.705,163.928h-0.693v-6.572h0.693v2.729c0.306-0.505,0.792-0.91,1.594-0.91
			c1.125,0,1.782,0.757,1.782,1.864v2.89h-0.693v-2.719c0-0.864-0.468-1.404-1.288-1.404c-0.801,0-1.396,0.585-1.396,1.458V163.928z
			"/>
		<path fill="#939598" d="M239.608,163.433c0.639,0,1.089-0.261,1.468-0.657l0.432,0.387c-0.468,0.522-1.036,0.874-1.918,0.874
			c-1.278,0-2.322-0.981-2.322-2.431c0-1.351,0.945-2.432,2.232-2.432c1.377,0,2.17,1.099,2.17,2.467c0,0.063,0,0.136-0.009,0.217
			h-3.691C238.069,162.866,238.789,163.433,239.608,163.433z M240.967,161.344c-0.072-0.846-0.558-1.584-1.485-1.584
			c-0.81,0-1.422,0.675-1.512,1.584H240.967z"/>
		<path fill="#939598" d="M243.577,163.928h-0.693v-4.654h0.693v0.811c0.306-0.505,0.792-0.91,1.594-0.91
			c1.125,0,1.782,0.757,1.782,1.864v2.89h-0.693v-2.719c0-0.864-0.468-1.404-1.288-1.404c-0.801,0-1.396,0.585-1.396,1.458V163.928z
			"/>
	</g>
	<g enable-background="new    ">
		<path fill="#939598" d="M184.186,191.366h-1.702v-4.902h1.702c1.541,0,2.605,1.058,2.605,2.444S185.726,191.366,184.186,191.366z
			 M184.186,186.974h-1.149v3.88h1.149c1.239,0,2.031-0.84,2.031-1.933S185.425,186.974,184.186,186.974z"/>
		<path fill="#939598" d="M190.676,186.449h0.455l1.345,4.098l1.401-4.083h0.581l-1.751,4.938h-0.469l-1.345-3.979l-1.352,3.979
			h-0.462l-1.751-4.938h0.603l1.401,4.083L190.676,186.449z"/>
	</g>
	<g enable-background="new    ">
		<path fill="#939598" d="M239.297,189.033l-1.422-1.905h-1.401v1.905h-0.553v-4.902h2.108c1.078,0,1.771,0.581,1.771,1.464
			c0,0.819-0.56,1.295-1.331,1.436l1.506,2.003H239.297z M237.987,184.641h-1.513v1.989h1.506c0.735,0,1.261-0.378,1.261-1.016
			C239.241,185.006,238.778,184.641,237.987,184.641z"/>
		<path fill="#939598" d="M242.417,188.648c0.497,0,0.848-0.203,1.142-0.512l0.336,0.301c-0.364,0.406-0.805,0.68-1.492,0.68
			c-0.995,0-1.807-0.764-1.807-1.891c0-1.051,0.735-1.892,1.737-1.892c1.071,0,1.688,0.854,1.688,1.919c0,0.05,0,0.105-0.007,0.168
			h-2.872C241.22,188.207,241.78,188.648,242.417,188.648z M243.475,187.023c-0.056-0.658-0.434-1.233-1.156-1.233
			c-0.63,0-1.106,0.525-1.177,1.233H243.475z"/>
		<path fill="#939598" d="M246.849,185.426v0.463h-1.142v3.145h-0.539v-3.145h-0.498v-0.47h0.498v-0.314
			c0-0.792,0.399-1.212,1.092-1.212c0.252,0,0.42,0.028,0.595,0.091v0.47c-0.196-0.057-0.343-0.092-0.525-0.092
			c-0.42,0-0.63,0.253-0.63,0.771v0.294H246.849z"/>
	</g>
	<g enable-background="new    ">
		<path fill="#939598" d="M67.878,65.638c0,0.828-0.504,1.252-0.999,1.468c0.747,0.225,1.35,0.657,1.35,1.53
			c0,1.089-0.909,1.729-2.287,1.729h-2.8v-6.302h2.683C67.068,64.063,67.878,64.676,67.878,65.638z M67.158,65.738
			c0-0.631-0.495-1.036-1.395-1.036h-1.918v2.17h1.864C66.564,66.872,67.158,66.485,67.158,65.738z M67.509,68.592
			c0-0.693-0.576-1.09-1.675-1.09h-1.99v2.224h2.116C66.915,69.725,67.509,69.302,67.509,68.592z"/>
		<path fill="#939598" d="M71.576,69.87c0.639,0,1.089-0.261,1.468-0.657l0.432,0.387c-0.468,0.522-1.036,0.874-1.918,0.874
			c-1.278,0-2.322-0.981-2.322-2.431c0-1.351,0.945-2.432,2.232-2.432c1.377,0,2.17,1.099,2.17,2.467c0,0.063,0,0.136-0.009,0.217
			h-3.691C70.037,69.302,70.757,69.87,71.576,69.87z M72.936,67.781c-0.072-0.846-0.558-1.584-1.485-1.584
			c-0.81,0-1.422,0.675-1.512,1.584H72.936z"/>
		<path fill="#939598" d="M78.587,70.365v-0.937c-0.378,0.559-0.927,1.035-1.782,1.035c-1.117,0-2.224-0.882-2.224-2.421
			c0-1.531,1.107-2.432,2.224-2.432c0.864,0,1.422,0.469,1.782,0.991v-2.81h0.693v6.572H78.587z M76.931,66.233
			c-0.9,0-1.639,0.666-1.639,1.8c0,1.107,0.756,1.81,1.639,1.81c0.864,0,1.684-0.72,1.684-1.81
			C78.615,66.953,77.795,66.233,76.931,66.233z"/>
		<path fill="#939598" d="M81.521,70.365h-0.693v-4.654h0.693v1.215c0.342-0.773,1.018-1.332,1.9-1.296v0.747h-0.054
			c-1.017,0-1.846,0.729-1.846,2.134V70.365z"/>
		<path fill="#939598" d="M86.399,70.473c-1.396,0-2.413-1.099-2.413-2.422s1.026-2.44,2.431-2.44c1.396,0,2.421,1.099,2.421,2.422
			C88.839,69.357,87.804,70.473,86.399,70.473z M86.399,66.223c-1.008,0-1.702,0.802-1.702,1.81c0,1.009,0.738,1.819,1.72,1.819
			c1.008,0,1.71-0.802,1.71-1.801C88.128,67.034,87.381,66.223,86.399,66.223z"/>
		<path fill="#939598" d="M92.213,70.473c-1.396,0-2.413-1.099-2.413-2.422s1.026-2.44,2.431-2.44c1.396,0,2.421,1.099,2.421,2.422
			C94.653,69.357,93.618,70.473,92.213,70.473z M92.213,66.223c-1.008,0-1.702,0.802-1.702,1.81c0,1.009,0.738,1.819,1.72,1.819
			c1.008,0,1.71-0.802,1.71-1.801C93.942,67.034,93.195,66.223,92.213,66.223z"/>
		<path fill="#939598" d="M101.232,65.611c1.071,0,1.729,0.721,1.729,1.873v2.881h-0.693v-2.719c0-0.9-0.45-1.404-1.207-1.404
			c-0.702,0-1.287,0.521-1.287,1.44v2.683h-0.685v-2.736c0-0.874-0.459-1.387-1.197-1.387s-1.296,0.612-1.296,1.467v2.656h-0.693
			v-4.654h0.693v0.783c0.306-0.459,0.72-0.883,1.503-0.883c0.756,0,1.243,0.405,1.495,0.928
			C99.927,66.026,100.422,65.611,101.232,65.611z"/>
	</g>
	<g enable-background="new    ">
		<path fill="#939598" d="M58.284,75.018h0.522v6.347h-0.702v-5.608l-1.188,0.369l-0.171-0.576L58.284,75.018z"/>
		<path fill="#939598" d="M62.55,81.455c-1.341,0-2.368-0.729-2.368-1.791c0-0.757,0.54-1.288,1.296-1.558
			c-0.585-0.271-1.081-0.721-1.081-1.459c0-0.98,1-1.674,2.152-1.674s2.151,0.693,2.151,1.674c0,0.738-0.495,1.188-1.08,1.459
			c0.747,0.279,1.296,0.792,1.296,1.548C64.918,80.735,63.892,81.455,62.55,81.455z M62.55,78.439c-0.918,0-1.647,0.495-1.647,1.206
			c0,0.648,0.612,1.188,1.647,1.188s1.647-0.54,1.647-1.188C64.198,78.934,63.468,78.439,62.55,78.439z M62.55,75.594
			c-0.819,0-1.44,0.459-1.44,1.098c0,0.693,0.639,1.162,1.44,1.162s1.44-0.469,1.44-1.162C63.991,76.062,63.37,75.594,62.55,75.594z
			"/>
		<path fill="#939598" d="M66.24,75.063h0.846v0.045l-0.729,2.403h-0.387L66.24,75.063z"/>
		<path fill="#939598" d="M72.163,75.018v4.258h0.981v0.595h-0.981v1.494h-0.684v-1.494h-3.322l-0.18-0.514l3.565-4.339H72.163z
			 M71.479,76.026l-2.647,3.25h2.647V76.026z"/>
		<path fill="#939598" d="M74.484,75.063h0.837v0.045l-0.729,2.403h-0.378L74.484,75.063z M76.248,75.063h0.829v0.045l-0.729,2.403
			h-0.378L76.248,75.063z"/>
		<path fill="#939598" d="M85.104,81.365h-0.801l-1.44-1.899l-1.449,1.899h-0.774l1.828-2.368l-1.755-2.286h0.792l1.377,1.801
			l1.377-1.801h0.774l-1.765,2.269L85.104,81.365z"/>
		<path fill="#939598" d="M89.945,75.018h0.522v6.347h-0.702v-5.608l-1.188,0.369l-0.171-0.576L89.945,75.018z"/>
		<path fill="#939598" d="M94.59,81.473c-1.629,0-2.656-1.477-2.656-3.25s1.044-3.269,2.674-3.269c1.621,0,2.647,1.477,2.647,3.25
			S96.21,81.473,94.59,81.473z M94.59,75.603c-1.179,0-1.917,1.206-1.917,2.602s0.756,2.62,1.936,2.62s1.909-1.216,1.909-2.602
			C96.517,76.837,95.769,75.603,94.59,75.603z"/>
		<path fill="#939598" d="M98.666,75.063h0.846v0.045l-0.729,2.403h-0.387L98.666,75.063z"/>
		<path fill="#939598" d="M102.852,81.455c-1.341,0-2.368-0.729-2.368-1.791c0-0.757,0.54-1.288,1.296-1.558
			c-0.585-0.271-1.081-0.721-1.081-1.459c0-0.98,1-1.674,2.152-1.674s2.151,0.693,2.151,1.674c0,0.738-0.495,1.188-1.08,1.459
			c0.747,0.279,1.296,0.792,1.296,1.548C105.219,80.735,104.193,81.455,102.852,81.455z M102.852,78.439
			c-0.918,0-1.647,0.495-1.647,1.206c0,0.648,0.612,1.188,1.647,1.188c1.035,0,1.647-0.54,1.647-1.188
			C104.499,78.934,103.77,78.439,102.852,78.439z M102.852,75.594c-0.819,0-1.44,0.459-1.44,1.098c0,0.693,0.639,1.162,1.44,1.162
			s1.44-0.469,1.44-1.162C104.292,76.062,103.671,75.594,102.852,75.594z"/>
		<path fill="#939598" d="M106.541,75.063h0.837v0.045l-0.729,2.403h-0.378L106.541,75.063z M108.305,75.063h0.829v0.045
			l-0.729,2.403h-0.378L108.305,75.063z"/>
	</g>
	<g enable-background="new    ">
		<path fill="#939598" d="M234.672,74.063h0.711v5.645h3.547v0.657h-4.258V74.063z"/>
		<path fill="#939598" d="M240.145,74.693v-0.765h0.792v0.765H240.145z M240.189,80.365v-4.654h0.693v4.654H240.189z"/>
		<path fill="#939598" d="M245.941,75.711h0.747l-2.025,4.69h-0.612l-2.017-4.69h0.766l1.566,3.862L245.941,75.711z"/>
		<path fill="#939598" d="M247.794,74.693v-0.765h0.792v0.765H247.794z M247.839,80.365v-4.654h0.693v4.654H247.839z"/>
		<path fill="#939598" d="M250.836,80.365h-0.693v-4.654h0.693v0.811c0.306-0.505,0.792-0.91,1.594-0.91
			c1.125,0,1.782,0.757,1.782,1.864v2.89h-0.693v-2.719c0-0.864-0.468-1.404-1.288-1.404c-0.801,0-1.396,0.585-1.396,1.458V80.365z"
			/>
		<path fill="#939598" d="M257.749,81.823c-0.774,0-1.495-0.216-2.116-0.647l0.315-0.54c0.531,0.387,1.125,0.594,1.792,0.594
			c1.026,0,1.693-0.567,1.693-1.656v-0.55c-0.405,0.541-0.973,0.981-1.828,0.981c-1.116,0-2.188-0.828-2.188-2.188
			c0-1.368,1.08-2.206,2.188-2.206c0.873,0,1.44,0.433,1.818,0.937v-0.837h0.693v3.844C260.116,81.058,259.18,81.823,257.749,81.823
			z M257.739,76.223c-0.882,0-1.611,0.604-1.611,1.576c0,0.954,0.747,1.593,1.611,1.593c0.882,0,1.711-0.63,1.711-1.584
			C259.45,76.844,258.622,76.223,257.739,76.223z"/>
		<path fill="#939598" d="M265.517,73.18l-4.178,8.337H260.7l4.177-8.337H265.517z"/>
		<path fill="#939598" d="M268.54,80.365h-2.188v-6.302h2.188c1.98,0,3.348,1.359,3.348,3.142
			C271.888,78.988,270.521,80.365,268.54,80.365z M268.54,74.72h-1.477v4.987h1.477c1.593,0,2.61-1.08,2.61-2.484
			S270.133,74.72,268.54,74.72z"/>
		<path fill="#939598" d="M273.291,74.693v-0.765h0.792v0.765H273.291z M273.336,80.365v-4.654h0.692v4.654H273.336z"/>
		<path fill="#939598" d="M276.333,80.365h-0.693v-4.654h0.693v0.811c0.306-0.505,0.792-0.91,1.594-0.91
			c1.125,0,1.781,0.757,1.781,1.864v2.89h-0.692v-2.719c0-0.864-0.468-1.404-1.288-1.404c-0.801,0-1.395,0.585-1.395,1.458V80.365z"
			/>
		<path fill="#939598" d="M281.201,74.693v-0.765h0.792v0.765H281.201z M281.247,80.365v-4.654h0.692v4.654H281.247z"/>
		<path fill="#939598" d="M284.243,80.365h-0.692v-4.654h0.692v0.811c0.307-0.505,0.793-0.91,1.594-0.91
			c1.125,0,1.783,0.757,1.783,1.864v2.89h-0.693v-2.719c0-0.864-0.469-1.404-1.287-1.404c-0.802,0-1.396,0.585-1.396,1.458V80.365z"
			/>
		<path fill="#939598" d="M291.156,81.823c-0.774,0-1.495-0.216-2.116-0.647l0.315-0.54c0.531,0.387,1.126,0.594,1.792,0.594
			c1.025,0,1.692-0.567,1.692-1.656v-0.55c-0.405,0.541-0.973,0.981-1.827,0.981c-1.117,0-2.188-0.828-2.188-2.188
			c0-1.368,1.081-2.206,2.188-2.206c0.873,0,1.439,0.433,1.818,0.937v-0.837h0.693v3.844
			C293.524,81.058,292.587,81.823,291.156,81.823z M291.147,76.223c-0.883,0-1.611,0.604-1.611,1.576
			c0,0.954,0.746,1.593,1.611,1.593c0.882,0,1.71-0.63,1.71-1.584C292.857,76.844,292.029,76.223,291.147,76.223z"/>
		<path fill="#939598" d="M302.227,80.365l-1.827-2.449h-1.801v2.449h-0.711v-6.302h2.709c1.387,0,2.278,0.747,2.278,1.882
			c0,1.053-0.72,1.665-1.71,1.845l1.936,2.575H302.227z M300.543,74.72h-1.944v2.557h1.936c0.945,0,1.621-0.486,1.621-1.306
			C302.155,75.188,301.561,74.72,300.543,74.72z"/>
		<path fill="#939598" d="M306.312,80.473c-1.395,0-2.412-1.099-2.412-2.422s1.026-2.44,2.431-2.44c1.396,0,2.421,1.099,2.421,2.422
			C308.751,79.357,307.716,80.473,306.312,80.473z M306.312,76.223c-1.008,0-1.701,0.802-1.701,1.81c0,1.009,0.738,1.819,1.72,1.819
			c1.009,0,1.71-0.802,1.71-1.801C308.04,77.034,307.294,76.223,306.312,76.223z"/>
		<path fill="#939598" d="M312.126,80.473c-1.396,0-2.412-1.099-2.412-2.422s1.025-2.44,2.43-2.44c1.396,0,2.422,1.099,2.422,2.422
			C314.565,79.357,313.53,80.473,312.126,80.473z M312.126,76.223c-1.008,0-1.701,0.802-1.701,1.81c0,1.009,0.738,1.819,1.719,1.819
			c1.009,0,1.711-0.802,1.711-1.801C313.854,77.034,313.107,76.223,312.126,76.223z"/>
		<path fill="#939598" d="M321.146,75.611c1.07,0,1.729,0.721,1.729,1.873v2.881h-0.693v-2.719c0-0.9-0.451-1.404-1.207-1.404
			c-0.702,0-1.287,0.521-1.287,1.44v2.683h-0.685v-2.736c0-0.874-0.459-1.387-1.197-1.387s-1.296,0.612-1.296,1.467v2.656h-0.693
			v-4.654h0.693v0.783c0.306-0.459,0.72-0.883,1.503-0.883c0.757,0,1.243,0.405,1.495,0.928
			C319.839,76.026,320.335,75.611,321.146,75.611z"/>
	</g>
	<g enable-background="new    ">
		<path fill="#939598" d="M252.483,86.692l-0.522-0.378c0.567-0.846,1.161-1.341,2.269-1.341c1.143,0,1.954,0.756,1.954,1.791
			c0,0.928-0.486,1.495-1.594,2.458l-1.683,1.494h3.34v0.648h-4.402v-0.549l2.287-2.017c0.963-0.864,1.314-1.351,1.314-1.98
			c0-0.738-0.585-1.207-1.27-1.207C253.456,85.612,252.988,85.99,252.483,86.692z"/>
		<path fill="#939598" d="M257.586,85.702v-0.639h4.024v0.522l-1.98,2.196c1.107,0.09,2.08,0.621,2.08,1.782
			c0,1.135-0.937,1.909-2.107,1.909c-1.053,0-1.836-0.46-2.35-1.126l0.513-0.459c0.486,0.595,1.071,0.937,1.846,0.937
			c0.765,0,1.377-0.486,1.377-1.233c0-0.792-0.72-1.225-1.764-1.225h-0.405l-0.144-0.423l1.99-2.242H257.586z"/>
		<path fill="#939598" d="M263.175,85.063h0.847v0.045l-0.729,2.403h-0.387L263.175,85.063z"/>
		<path fill="#939598" d="M269.144,86.224c-0.469-0.396-0.91-0.621-1.486-0.621c-1.143,0-1.854,1.152-1.845,2.782
			c0.342-0.505,0.873-0.964,1.792-0.964c1.179,0,2.178,0.757,2.178,1.944c0,1.225-0.98,2.107-2.26,2.107
			c-0.693,0-1.26-0.243-1.656-0.64c-0.504-0.504-0.792-1.152-0.792-2.448c0-1.927,0.972-3.431,2.62-3.431
			c0.756,0,1.314,0.271,1.863,0.721L269.144,86.224z M267.514,88.034c-0.945,0-1.575,0.675-1.575,1.387
			c0,0.819,0.666,1.422,1.594,1.422c0.927,0,1.521-0.639,1.521-1.449C269.054,88.61,268.423,88.034,267.514,88.034z"/>
		<path fill="#939598" d="M271.203,85.063h0.837v0.045l-0.729,2.403h-0.379L271.203,85.063z M272.968,85.063h0.828v0.045
			l-0.729,2.403h-0.378L272.968,85.063z"/>
		<path fill="#939598" d="M281.824,91.365h-0.802l-1.439-1.899l-1.449,1.899h-0.775l1.828-2.368l-1.756-2.286h0.793l1.377,1.801
			l1.377-1.801h0.775l-1.766,2.269L281.824,91.365z"/>
		<path fill="#939598" d="M286.665,85.018h0.521v6.347h-0.701v-5.608l-1.188,0.369l-0.171-0.576L286.665,85.018z"/>
		<path fill="#939598" d="M291.31,91.473c-1.63,0-2.656-1.477-2.656-3.25s1.045-3.269,2.674-3.269c1.621,0,2.646,1.477,2.646,3.25
			S292.93,91.473,291.31,91.473z M291.31,85.603c-1.18,0-1.918,1.206-1.918,2.602s0.756,2.62,1.936,2.62s1.908-1.216,1.908-2.602
			C293.235,86.837,292.488,85.603,291.31,85.603z"/>
		<path fill="#939598" d="M295.386,85.063h0.846v0.045l-0.729,2.403h-0.388L295.386,85.063z"/>
		<path fill="#939598" d="M297.348,85.063h4.276v0.531l-2.863,5.771h-0.792l2.845-5.653h-3.466V85.063z"/>
		<path fill="#939598" d="M302.954,85.063h0.838v0.045l-0.729,2.403h-0.378L302.954,85.063z M304.719,85.063h0.829v0.045
			l-0.73,2.403h-0.377L304.719,85.063z"/>
	</g>
	<g enable-background="new    ">
		<path fill="#939598" d="M441.878,57.638c0,0.828-0.504,1.252-0.998,1.468c0.746,0.225,1.35,0.657,1.35,1.53
			c0,1.089-0.909,1.729-2.287,1.729h-2.799v-6.302h2.683C441.068,56.063,441.878,56.676,441.878,57.638z M441.158,57.738
			c0-0.631-0.495-1.036-1.396-1.036h-1.918v2.17h1.864C440.564,58.872,441.158,58.485,441.158,57.738z M441.51,60.592
			c0-0.693-0.576-1.09-1.675-1.09h-1.99v2.224h2.116C440.915,61.725,441.51,61.302,441.51,60.592z"/>
		<path fill="#939598" d="M445.577,61.87c0.639,0,1.089-0.261,1.467-0.657l0.433,0.387c-0.468,0.522-1.036,0.874-1.918,0.874
			c-1.278,0-2.322-0.981-2.322-2.431c0-1.351,0.945-2.432,2.232-2.432c1.378,0,2.17,1.099,2.17,2.467c0,0.063,0,0.136-0.009,0.217
			h-3.691C444.038,61.302,444.758,61.87,445.577,61.87z M446.937,59.781c-0.072-0.846-0.559-1.584-1.486-1.584
			c-0.81,0-1.422,0.675-1.512,1.584H446.937z"/>
		<path fill="#939598" d="M452.588,62.365v-0.937c-0.378,0.559-0.927,1.035-1.782,1.035c-1.117,0-2.224-0.882-2.224-2.421
			c0-1.531,1.106-2.432,2.224-2.432c0.864,0,1.422,0.469,1.782,0.991v-2.81h0.693v6.572H452.588z M450.932,58.233
			c-0.9,0-1.639,0.666-1.639,1.8c0,1.107,0.757,1.81,1.639,1.81c0.864,0,1.684-0.72,1.684-1.81
			C452.615,58.953,451.796,58.233,450.932,58.233z"/>
		<path fill="#939598" d="M455.521,62.365h-0.692v-4.654h0.692v1.215c0.343-0.773,1.018-1.332,1.9-1.296v0.747h-0.055
			c-1.017,0-1.846,0.729-1.846,2.134V62.365z"/>
		<path fill="#939598" d="M460.399,62.473c-1.395,0-2.412-1.099-2.412-2.422s1.026-2.44,2.431-2.44c1.396,0,2.421,1.099,2.421,2.422
			C462.839,61.357,461.804,62.473,460.399,62.473z M460.399,58.223c-1.008,0-1.701,0.802-1.701,1.81c0,1.009,0.738,1.819,1.72,1.819
			c1.009,0,1.71-0.802,1.71-1.801C462.128,59.034,461.382,58.223,460.399,58.223z"/>
		<path fill="#939598" d="M466.214,62.473c-1.396,0-2.412-1.099-2.412-2.422s1.025-2.44,2.43-2.44c1.396,0,2.422,1.099,2.422,2.422
			C468.653,61.357,467.618,62.473,466.214,62.473z M466.214,58.223c-1.008,0-1.701,0.802-1.701,1.81
			c0,1.009,0.738,1.819,1.719,1.819c1.009,0,1.711-0.802,1.711-1.801C467.942,59.034,467.195,58.223,466.214,58.223z"/>
		<path fill="#939598" d="M475.233,57.611c1.07,0,1.729,0.721,1.729,1.873v2.881h-0.693v-2.719c0-0.9-0.451-1.404-1.207-1.404
			c-0.702,0-1.287,0.521-1.287,1.44v2.683h-0.685v-2.736c0-0.874-0.459-1.387-1.197-1.387s-1.296,0.612-1.296,1.467v2.656h-0.693
			v-4.654h0.693v0.783c0.306-0.459,0.72-0.883,1.503-0.883c0.757,0,1.243,0.405,1.495,0.928
			C473.927,58.026,474.423,57.611,475.233,57.611z"/>
	</g>
	<g enable-background="new    ">
		<path fill="#939598" d="M434.421,67.018h0.521v6.347h-0.702v-5.608l-1.188,0.369l-0.171-0.576L434.421,67.018z"/>
		<path fill="#939598" d="M440.424,67.018v4.258h0.981v0.595h-0.981v1.494h-0.685v-1.494h-3.321l-0.181-0.514l3.565-4.339H440.424z
			 M439.739,68.026l-2.646,3.25h2.646V68.026z"/>
		<path fill="#939598" d="M442.745,67.063h0.846v0.045l-0.729,2.403h-0.388L442.745,67.063z"/>
		<path fill="#939598" d="M445.166,68.692l-0.522-0.378c0.567-0.846,1.162-1.341,2.27-1.341c1.143,0,1.953,0.756,1.953,1.791
			c0,0.928-0.486,1.495-1.594,2.458l-1.684,1.494h3.34v0.648h-4.402v-0.549l2.287-2.017c0.963-0.864,1.314-1.351,1.314-1.98
			c0-0.738-0.585-1.207-1.27-1.207C446.138,67.612,445.671,67.99,445.166,68.692z"/>
		<path fill="#939598" d="M450.341,67.063h0.838v0.045l-0.729,2.403h-0.378L450.341,67.063z M452.105,67.063h0.829v0.045
			l-0.73,2.403h-0.377L452.105,67.063z"/>
		<path fill="#939598" d="M460.962,73.365h-0.801l-1.441-1.899l-1.449,1.899h-0.773l1.827-2.368l-1.755-2.286h0.791l1.378,1.801
			l1.378-1.801h0.773l-1.764,2.269L460.962,73.365z"/>
		<path fill="#939598" d="M466.667,73.473c-0.819,0-1.414-0.333-1.944-0.774l0.414-0.55c0.513,0.45,0.99,0.676,1.548,0.676
			c1.135,0,1.9-1.152,1.873-2.764c-0.342,0.549-0.909,1.008-1.783,1.008c-1.296,0-2.195-0.819-2.195-1.962
			c0-1.207,0.927-2.152,2.268-2.152c0.721,0,1.252,0.243,1.656,0.648c0.496,0.495,0.783,1.18,0.783,2.449
			C469.286,72.059,468.225,73.473,466.667,73.473z M466.82,67.586c-0.945,0-1.513,0.692-1.513,1.485c0,0.81,0.631,1.386,1.549,1.386
			c0.963,0,1.566-0.702,1.566-1.431C468.423,68.216,467.765,67.586,466.82,67.586z"/>
		<path fill="#939598" d="M470.689,67.063h0.847v0.045l-0.73,2.403h-0.387L470.689,67.063z"/>
		<path fill="#939598" d="M473.11,67.063h3.628v0.657h-3.007l-0.135,2.017c0.369-0.162,0.721-0.279,1.242-0.279
			c1.225,0,2.179,0.729,2.179,1.936c0,1.242-0.937,2.08-2.251,2.08c-0.9,0-1.684-0.433-2.25-1l0.468-0.513
			c0.55,0.531,1.152,0.864,1.792,0.864c0.9,0,1.521-0.595,1.521-1.404c0-0.792-0.64-1.333-1.566-1.333
			c-0.531,0-0.955,0.162-1.324,0.36l-0.477-0.315L473.11,67.063z"/>
		<path fill="#939598" d="M478.402,67.063h0.837v0.045l-0.729,2.403h-0.379L478.402,67.063z M480.167,67.063h0.828v0.045
			l-0.729,2.403h-0.378L480.167,67.063z"/>
	</g>
	<g enable-background="new    ">
		<path fill="#939598" d="M263.198,196.695v1.105h1.605v0.514h-4.55v-1.703c0-1.027,0.546-1.703,1.449-1.703
			C262.691,194.908,263.198,195.727,263.198,196.695z M260.729,196.65v1.15h2.002v-1.125c0-0.754-0.403-1.248-1.008-1.248
			C261.066,195.427,260.729,195.916,260.729,196.65z"/>
		<path fill="#939598" d="M262.087,193.927l-0.41,0.148c-0.169-0.37-0.279-0.734-0.279-1.222c0-0.917,0.468-1.431,1.353-1.431h2.054
			v0.482h-0.507c0.306,0.233,0.578,0.623,0.578,1.215c0,0.624-0.351,1.254-1.053,1.254c-0.715,0-1.092-0.584-1.092-1.436
			c0-0.43,0.059-0.734,0.143-1.033h-0.117c-0.604,0-0.916,0.369-0.916,1C261.84,193.302,261.943,193.615,262.087,193.927z
			 M263.803,193.869c0.429,0,0.676-0.391,0.676-0.846c0-0.617-0.377-1.125-0.91-1.125h-0.325c-0.071,0.248-0.143,0.579-0.143,0.988
			C263.101,193.517,263.374,193.869,263.803,193.869z"/>
		<path fill="#939598" d="M264.804,189.857v0.501h-3.36v-0.501h0.585c-0.364-0.221-0.656-0.571-0.656-1.15
			c0-0.812,0.546-1.287,1.345-1.287h2.087v0.501h-1.963c-0.624,0-1.015,0.338-1.015,0.93c0,0.578,0.423,1.007,1.054,1.007H264.804z"
			/>
		<path fill="#939598" d="M263.849,185.678c0.409,0,0.559-0.228,0.559-0.565c0-0.17-0.032-0.312-0.117-0.488h0.429
			c0.092,0.176,0.144,0.364,0.144,0.605c0,0.539-0.267,0.949-0.949,0.949h-2.028v0.467h-0.441v-0.467h-1.015v-0.501h1.015v-1.066
			h0.441v1.066H263.849z"/>
		<path fill="#939598" d="M264.804,183.228v0.5h-3.36v-0.5h0.877c-0.559-0.248-0.962-0.734-0.936-1.372h0.539v0.039
			c0,0.734,0.526,1.333,1.541,1.333H264.804z"/>
		<path fill="#939598" d="M264.914,179.458c0.695,0.286,0.949,0.611,0.949,1.118c0,0.279-0.059,0.488-0.169,0.715l-0.396-0.169
			c0.084-0.162,0.123-0.312,0.123-0.526c0-0.299-0.155-0.487-0.63-0.689l-3.348,1.527v-0.552l2.802-1.222l-2.802-1.08v-0.532
			L264.914,179.458z"/>
	</g>
</g>
</svg>
