<?xml version="1.0" encoding="utf-8"?>
<!-- Generator: Adobe Illustrator 15.0.2, SVG Export Plug-In . SVG Version: 6.00 Build 0)  -->
<!DOCTYPE svg PUBLIC "-//W3C//DTD SVG 1.1//EN" "http://www.w3.org/Graphics/SVG/1.1/DTD/svg11.dtd">
<svg version="1.1" xmlns="http://www.w3.org/2000/svg" xmlns:xlink="http://www.w3.org/1999/xlink" x="0px" y="0px" width="86.33px"
	 height="86.33px" viewBox="0 0 86.33 86.33" enable-background="new 0 0 86.33 86.33" xml:space="preserve">
<g id="Layer_2" display="none">
	<rect x="0.5" y="0.5" display="inline" fill="#EC008C" width="85.33" height="85.33"/>
</g>
<g id="Layer_1">
	<g id="Restaurants__x26__Bars">
		<path fill="#FFFFFF" d="M55.429,42.325l-0.254-24.959c-0.01-0.757-0.312-1.464-0.851-1.992c-0.531-0.521-1.234-0.809-2.009-0.809
			h-0.001c-1.622,0.017-3.536,1.199-3.692,2.879L47.03,39.36c-0.065,0.898,0.251,1.791,0.868,2.448c0.529,0.562,1.248,0.917,2.016,1
			l-0.508,26.493c-0.015,0.544,0.199,1.077,0.584,1.462c0.377,0.375,0.877,0.582,1.408,0.582l2.875-0.075
			c0.527-0.014,1.036-0.241,1.397-0.623c0.362-0.383,0.56-0.903,0.544-1.429L55.429,42.325z M51.681,41.163l-1.243-0.065
			l-0.184-0.007c-0.411,0-0.81-0.172-1.091-0.472c-0.286-0.304-0.432-0.717-0.402-1.133l1.591-21.895
			c0.062-0.618,1.08-1.281,1.992-1.291c0.288,0,0.56,0.111,0.766,0.313c0.208,0.204,0.325,0.478,0.328,0.771l0.242,23.658h-0.025
			l0.824,28.229c0.002,0.068-0.022,0.132-0.071,0.184c-0.045,0.048-0.112,0.078-0.18,0.079l-2.83,0.076
			c-0.066,0-0.134-0.029-0.182-0.076c-0.05-0.05-0.077-0.12-0.075-0.196L51.681,41.163z"/>
		<path fill="#FFFFFF" d="M40.806,26.575c0,1.561-0.355,3.129-1.043,4.568l-1.706,4.438c-0.265,0.563-0.392,1.189-0.366,1.811
			l1.248,30.413c0.024,0.579-0.192,1.149-0.593,1.567c-0.401,0.417-0.963,0.657-1.542,0.657h-0.952
			c-0.578,0-1.141-0.239-1.541-0.657c-0.401-0.417-0.617-0.988-0.594-1.567l1.248-30.405c0.026-0.628-0.104-1.259-0.36-1.796
			l-1.683-4.34l-0.021-0.049c-0.687-1.419-1.05-3.003-1.05-4.58V14.565h-1.736v12.069c0,1.831,0.42,3.67,1.201,5.288l1.676,4.323
			l0.028,0.063c0.152,0.316,0.226,0.669,0.211,1.019l-1.247,30.405c-0.044,1.049,0.349,2.084,1.074,2.841
			c0.727,0.757,1.745,1.19,2.794,1.19h0.952c1.05,0,2.068-0.434,2.794-1.19c0.727-0.756,1.118-1.792,1.075-2.84l-1.248-30.413
			c-0.014-0.348,0.058-0.697,0.222-1.042l1.704-4.436c0.779-1.634,1.191-3.456,1.191-5.269v-12.01h-1.736V26.575z"/>
		<rect x="33.694" y="14.565" fill="#FFFFFF" width="1.736" height="13.601"/>
		<rect x="37.439" y="14.565" fill="#FFFFFF" width="1.736" height="13.601"/>
	</g>
	<path id="Recreation__x26__Parks" display="none" fill="#FFFFFF" d="M69.569,34.015c-2.498,0-4.897,0.557-7.132,1.652l-0.396,0.192
		l-4.755-7.827v-7.19c0-0.58-0.472-1.052-1.053-1.052h-10.18c-0.58,0-1.052,0.472-1.052,1.052s0.472,1.053,1.052,1.053h9.129v6.275
		L42.985,48.251L31.448,29.258l-2.527-4.744h4.926c0.581,0,1.053-0.472,1.053-1.051c0-0.58-0.472-1.053-1.053-1.053H23.399
		c-0.58,0-1.052,0.473-1.052,1.053c0,0.579,0.472,1.051,1.052,1.051h3.12l2.019,3.758l-4.525,7.45l-0.392-0.185
		c-2.161-1.01-4.468-1.522-6.858-1.522C7.796,34.015,0.5,41.312,0.5,50.278S7.796,66.54,16.763,66.54
		c8.324,0,15.437-6.488,16.191-14.771l0.041-0.438h9.995c0.096-0.006,0.182-0.018,0.275-0.041c0.089-0.029,0.155-0.057,0.224-0.096
		c0.112-0.066,0.166-0.109,0.214-0.156c0.101-0.096,0.146-0.154,0.183-0.215l12.391-20.399l3.968,6.532l-0.353,0.261
		c-4.124,3.065-6.586,7.948-6.586,13.062c0,8.967,7.296,16.262,16.264,16.262c8.967,0,16.261-7.295,16.261-16.262
		S78.536,34.015,69.569,34.015z M69.569,64.437c-7.808,0-14.159-6.352-14.159-14.158c0-4.393,2.008-8.468,5.508-11.183l0.426-0.331
		l7.325,12.059c0.18,0.297,0.548,0.49,0.937,0.49c0.188,0,0.363-0.047,0.509-0.135c0.496-0.303,0.655-0.951,0.354-1.447
		L63.141,37.67l0.489-0.227c1.89-0.879,3.889-1.324,5.939-1.324c7.807,0,14.157,6.353,14.157,14.159S77.376,64.437,69.569,64.437z
		 M16.763,64.437c-7.808,0-14.159-6.352-14.159-14.158s6.352-14.159,14.159-14.159c1.951,0,3.852,0.398,5.649,1.186l0.505,0.22
		l-7.416,12.207c-0.195,0.324-0.202,0.732-0.017,1.064c0.186,0.33,0.537,0.535,0.917,0.535h14.484l-0.06,0.535
		C30.021,59.032,23.975,64.437,16.763,64.437z M29.693,30.424l11.422,18.804h-8.12l-0.041-0.439
		c-0.428-4.699-2.892-8.981-6.76-11.747l-0.364-0.258L29.693,30.424z M25.158,38.904c3.166,2.342,5.231,5.907,5.667,9.786
		l0.06,0.537H18.271l6.462-10.64L25.158,38.904z"/>
	<g id="Services" display="none">
		<path display="inline" fill="#FFFFFF" d="M22.087,50.275h42.156v-0.906c0-10.357-7.404-19.102-17.607-20.791
			c-0.287-0.049-0.494-0.293-0.494-0.584v-1.527h0.328c1.326,0,2.402-1.078,2.402-2.402v-0.596c0-1.324-1.076-2.402-2.402-2.402
			h-6.607c-1.324,0-2.402,1.078-2.402,2.402v0.596c0,1.232,0.924,2.26,2.148,2.389l0.066,0.008v1.631c0,0.283-0.201,0.527-0.48,0.58
			c-9.913,1.891-17.107,10.596-17.107,20.697V50.275z M62.413,48.465H23.918l0.004-0.08c0.45-8.891,6.869-16.266,15.61-17.934
			c1.133-0.215,1.953-1.207,1.953-2.359v-2.053c0-0.051,0.014-0.113,0.037-0.184l0.238-1.199h-1.898
			c-0.326,0-0.592-0.266-0.592-0.592v-0.596c0-0.326,0.266-0.592,0.592-0.592h6.607c0.326,0,0.592,0.266,0.592,0.592v0.596
			c0,0.326-0.266,0.592-0.592,0.592h-2.428l0.252,1.203c0.023,0.068,0.037,0.129,0.037,0.18v1.955c0,1.18,0.844,2.176,2.01,2.369
			c9.008,1.494,15.615,8.904,16.068,18.021L62.413,48.465z"/>
		<path display="inline" fill="#FFFFFF" d="M15.376,65.264h55.578v-5.355c0-3.807-3.098-6.904-6.904-6.904H22.281
			c-3.808,0-6.905,3.098-6.905,6.904V65.264z M17.161,59.908c0-2.822,2.297-5.119,5.12-5.119H64.05c2.822,0,5.119,2.297,5.119,5.119
			v3.57H17.161V59.908z"/>
	</g>
	<g id="Institutions" display="none">
		<path display="inline" fill="#FFFFFF" d="M43.155,34.573c2.11,0,3.929-1.432,4.421-3.482c0.087-0.359,0.131-0.719,0.131-1.068
			c0-2.51-2.041-4.553-4.552-4.553c-2.51,0-4.552,2.043-4.552,4.553c0,0.352,0.044,0.711,0.131,1.066
			C39.226,33.142,41.044,34.573,43.155,34.573z M43.155,27.224c1.543,0,2.799,1.256,2.799,2.799c0,0.211-0.027,0.432-0.082,0.656
			c-0.303,1.262-1.421,2.143-2.717,2.143s-2.413-0.881-2.717-2.145c-0.054-0.223-0.081-0.441-0.081-0.654
			C40.357,28.479,41.612,27.224,43.155,27.224z"/>
		<path display="inline" fill="#FFFFFF" d="M64.976,57.185c-0.215-0.098-0.729-0.332-0.974-0.48l0.056-16.408h3.328
			c0.721,0,1.289-0.48,1.521-1.281c0.369-1.275-0.079-3.381-1.188-4.082L45.483,20.888c-0.628-0.396-1.448-0.613-2.328-0.613
			c-0.86,0-1.68,0.217-2.308,0.613L18.611,34.933c-1.109,0.701-1.558,2.805-1.188,4.08c0.231,0.803,0.801,1.283,1.521,1.283h3.328
			l0.056,16.408c-0.243,0.148-0.758,0.383-0.974,0.48c-1.755,0.797-5.021,2.281-5.021,6.332c0,1.4,1.369,2.539,3.053,2.539h47.56
			c1.684,0,3.053-1.139,3.053-2.539C69.998,59.466,66.731,57.981,64.976,57.185z M24.082,56.915L24.02,38.542h-4.908
			c-0.002-0.006-0.003-0.01-0.005-0.016c-0.209-0.723,0.183-1.947,0.44-2.109L41.784,22.37c0.341-0.215,0.854-0.344,1.371-0.344
			h0.021c0.518,0,1.03,0.129,1.371,0.344l22.236,14.047c0.258,0.162,0.649,1.387,0.441,2.109c-0.003,0.006-0.004,0.01-0.006,0.016
			H62.31L62.25,56.917c0,0.953,0.926,1.375,2.002,1.863c1.685,0.766,3.993,1.814,3.993,4.736c0,0.363-0.567,0.785-1.3,0.785h-47.56
			c-0.732,0-1.3-0.422-1.3-0.785c0-2.922,2.309-3.971,3.998-4.738C23.156,58.292,24.082,57.87,24.082,56.915z"/>
		<path display="inline" fill="#FFFFFF" d="M52.835,57.942h3.329c1.34,0,2.43-1.09,2.43-2.43V41.562c0-1.34-1.09-2.43-2.43-2.43
			h-3.329c-1.34,0-2.43,1.09-2.43,2.43v13.951C50.406,56.853,51.496,57.942,52.835,57.942z M56.84,55.513
			c0,0.373-0.303,0.678-0.676,0.678h-3.329c-0.373,0-0.677-0.305-0.677-0.678V41.562c0-0.373,0.304-0.676,0.677-0.676h3.329
			c0.373,0,0.676,0.303,0.676,0.676V55.513z"/>
		<path display="inline" fill="#FFFFFF" d="M44.5,39.132h-3.329c-1.34,0-2.43,1.09-2.43,2.43v13.951c0,1.34,1.09,2.43,2.43,2.43
			H44.5c1.34,0,2.43-1.09,2.43-2.43V41.562C46.93,40.222,45.84,39.132,44.5,39.132z M40.495,41.562c0-0.373,0.304-0.676,0.677-0.676
			H44.5c0.373,0,0.676,0.303,0.676,0.676v13.951c0,0.373-0.303,0.678-0.676,0.678h-3.329c-0.373,0-0.677-0.305-0.677-0.678V41.562z"
			/>
		<path display="inline" fill="#FFFFFF" d="M30.166,57.942h3.329c1.34,0,2.43-1.09,2.43-2.43V41.562c0-1.34-1.09-2.43-2.43-2.43
			h-3.329c-1.34,0-2.43,1.09-2.43,2.43v13.951C27.736,56.853,28.826,57.942,30.166,57.942z M34.171,55.513
			c0,0.373-0.304,0.678-0.677,0.678h-3.329c-0.373,0-0.676-0.305-0.676-0.678V41.562c0-0.373,0.303-0.676,0.676-0.676h3.329
			c0.373,0,0.677,0.303,0.677,0.676V55.513z"/>
	</g>
	<g id="Entertainment" display="none">
		<path display="inline" fill="#FFFFFF" d="M45.035,39.127l-4.193-4.062l-1.412,5.699l-5.192,2.751l4.985,3.106l0.006,0.033
			l1.008,5.756l4.494-3.784l0.033,0.005l5.787,0.822l-2.215-5.447l2.586-5.274l-5.861,0.419L45.035,39.127z M46.33,43.94
			l1.318,3.247l-3.473-0.494l-2.68,2.257l-0.023-0.128l-0.58-3.322l-2.977-1.854l3.098-1.641l0.842-3.407l0.094,0.091l2.426,2.352
			l3.494-0.25L46.33,43.94z"/>
		<path display="inline" fill="#FFFFFF" d="M67.146,31.777l-3.373-11.76L13.422,34.457l3.37,11.758l0.884-0.253
			c1.116-0.318,2.288-0.185,3.3,0.376c2.091,1.16,2.849,3.804,1.691,5.896c-0.562,1.012-1.485,1.745-2.601,2.065l-0.882,0.254
			l3.372,11.759l50.352-14.438l-3.371-11.76l-0.885,0.253c-1.113,0.319-2.285,0.187-3.299-0.374
			c-1.014-0.562-1.744-1.485-2.064-2.599c-0.32-1.115-0.188-2.287,0.373-3.298c0.564-1.013,1.488-1.746,2.6-2.065L67.146,31.777z
			 M64.891,30.583l-0.059,0.028c-1.184,0.552-2.145,1.448-2.779,2.594c-1.648,2.978-0.57,6.746,2.406,8.398
			c1.133,0.625,2.457,0.886,3.732,0.731l0.066-0.007l2.375,8.286L23.818,64.037l-2.377-8.289l0.058-0.027
			c1.183-0.552,2.143-1.449,2.778-2.596c0.798-1.44,0.986-3.107,0.53-4.696c-0.455-1.587-1.5-2.901-2.94-3.7
			c-1.146-0.636-2.435-0.889-3.73-0.732l-0.063,0.007l-2.376-8.287l46.818-13.423L64.891,30.583z"/>
	</g>
	<g id="Groceries" display="none">
		<g display="inline">
			<path fill="#FFFFFF" d="M38.307,58.63c-2.681,0-4.86,2.18-4.86,4.859s2.18,4.859,4.86,4.859c2.68,0,4.859-2.18,4.859-4.859
				S40.986,58.63,38.307,58.63z M38.307,66.624c-1.729,0-3.136-1.406-3.136-3.135c0-1.73,1.406-3.137,3.136-3.137
				s3.137,1.406,3.137,3.137C41.443,65.218,40.036,66.624,38.307,66.624z"/>
			<path fill="#FFFFFF" d="M52.685,58.63c-2.68,0-4.859,2.18-4.859,4.859s2.18,4.859,4.859,4.859s4.86-2.18,4.86-4.859
				S55.364,58.63,52.685,58.63z M52.685,66.624c-1.729,0-3.137-1.406-3.137-3.135c0-1.73,1.407-3.137,3.137-3.137
				c1.729,0,3.136,1.406,3.136,3.137C55.82,65.218,54.413,66.624,52.685,66.624z"/>
		</g>
		<path display="inline" fill="#FFFFFF" d="M68.246,29.013c-0.16-0.242-0.43-0.387-0.722-0.387H28.309
			c-0.693-3.203-1.235-5.643-1.413-6.281c-0.658-2.363-2.891-2.988-3.979-2.988h-0.475c-0.376-0.811-1.191-1.375-2.138-1.375
			c-1.304,0-2.362,1.059-2.362,2.361c0,1.299,1.059,2.361,2.362,2.361c1.04,0,1.918-0.686,2.231-1.625h0.381
			c0.019,0,1.849,0.025,2.32,1.732c0.348,1.254,2.319,10.424,5.862,27.252c0.218,1.035,0.35,1.662,0.363,1.721
			c0.994,2.971,2.519,3.186,4.911,3.186h22.256c0.473,0,0.858-0.389,0.858-0.865c0-0.473-0.386-0.857-0.858-0.857H36.373
			c-2.175,0-2.653-0.154-3.252-1.914c-0.01-0.049-0.215-1.029-0.545-2.602h24.703h0.001c1.835-0.039,2.788-0.629,3.781-2.346
			l7.252-16.557C68.434,29.558,68.408,29.251,68.246,29.013z M59.527,45.606c-0.688,1.176-1.148,1.373-2.276,1.4h-25.02
			l-3.434-16.658h37.411L59.527,45.606z"/>
	</g>
	<path id="Shopping" display="none" fill="#FFFFFF" d="M65.819,27.554h-9.39c-2.581-7.572-7.558-12.713-13.264-12.713
		S32.482,19.982,29.9,27.554h-9.389c-0.5,0-0.908,0.408-0.908,0.909v42.117c0,0.5,0.408,0.908,0.908,0.908h45.308
		c0.501,0,0.907-0.408,0.907-0.908V28.463C66.727,27.962,66.32,27.554,65.819,27.554z M43.166,16.657
		c4.81,0,9.032,4.368,11.377,10.897H31.789C34.134,21.024,38.356,16.657,43.166,16.657z M64.912,69.672H21.419V29.37h7.925
		c-0.6,2.164-1.01,4.491-1.2,6.93c-1.13,0.339-1.96,1.376-1.96,2.617c0,1.516,1.229,2.744,2.744,2.744
		c1.516,0,2.744-1.229,2.744-2.744c0-1.15-0.711-2.133-1.716-2.541c0.193-2.483,0.621-4.842,1.247-7.006h23.925
		c0.626,2.165,1.054,4.522,1.247,7.006c-1.005,0.407-1.717,1.39-1.717,2.541c0,1.516,1.23,2.744,2.744,2.744
		c1.518,0,2.745-1.229,2.745-2.744c0-1.241-0.829-2.278-1.961-2.617c-0.189-2.439-0.601-4.767-1.199-6.93h7.925V69.672z"/>
	<g id="Salons" display="none">
		<path display="inline" fill-rule="evenodd" clip-rule="evenodd" fill="#FFFFFF" d="M19.411,36.522L49.809,66.92
			c1.422,1.42,3.156,2.352,4.889,2.623c1.701,0.268,3.189-0.137,4.189-1.139L69.485,57.81c0.117-0.115,0.164-0.299,0.131-0.512
			c-0.035-0.24-0.17-0.492-0.371-0.693c-0.393-0.391-0.945-0.5-1.207-0.24l-6.521,6.521l-2.145-2.146l6.521-6.521
			c0.262-0.26,0.15-0.812-0.242-1.205c-0.391-0.393-0.943-0.502-1.205-0.24l-6.52,6.52l-2.146-2.146l6.52-6.521
			c0.262-0.26,0.152-0.811-0.24-1.203c-0.24-0.241-0.547-0.385-0.82-0.385c-0.111,0-0.268,0.026-0.385,0.144l-6.521,6.52
			l-2.146-2.146l6.521-6.52c0.262-0.26,0.15-0.812-0.24-1.203c-0.205-0.206-0.451-0.339-0.693-0.375
			c-0.213-0.032-0.393,0.015-0.512,0.133l-6.521,6.52l-2.146-2.146l0.16-0.226l6.328-6.327c0.117-0.117,0.143-0.271,0.143-0.383
			c0-0.274-0.143-0.58-0.383-0.821c-0.393-0.392-0.945-0.501-1.205-0.241l-6.52,6.519l-2.168-2.165l6.514-6.513
			c0.117-0.117,0.143-0.274,0.143-0.385c0-0.548-0.658-1.203-1.205-1.204c-0.109,0.001-0.268,0.026-0.383,0.144l-6.514,6.513
			l-2.146-2.147l6.514-6.512c0.117-0.118,0.162-0.299,0.131-0.512c-0.078-0.528-0.691-1.078-1.193-1.078
			c-0.109,0-0.266,0.025-0.383,0.142l-6.516,6.513l-2.145-2.146l6.512-6.513c0.262-0.261,0.152-0.812-0.238-1.204
			c-0.24-0.241-0.549-0.385-0.822-0.384c-0.111,0-0.268,0.025-0.385,0.142l-6.512,6.513l-2.096-2.095l6.521-6.521
			c0.262-0.261,0.15-0.813-0.242-1.206c-0.238-0.24-0.545-0.383-0.818-0.383c-0.111,0-0.268,0.024-0.385,0.142l-6.521,6.521
			l-2.147-2.146l6.522-6.521c0.26-0.261,0.15-0.813-0.242-1.205c-0.391-0.393-0.943-0.503-1.203-0.242l-6.522,6.521l-2.146-2.146
			l6.521-6.521c0.116-0.118,0.142-0.273,0.142-0.385c0-0.273-0.144-0.58-0.382-0.819c-0.394-0.392-0.946-0.502-1.207-0.241
			l-6.521,6.52l-2.146-2.146l6.521-6.521c0.117-0.118,0.142-0.274,0.142-0.384c0-0.274-0.143-0.582-0.383-0.821
			c-0.394-0.393-0.944-0.504-1.205-0.242l-6.502,6.504l-0.003-0.003l-4.093,4.094C15.832,29.537,16.498,33.609,19.411,36.522z
			 M22.246,26.23l37.856,37.854l-2.768,2.768c-1.424,1.424-4.457,0.52-6.215-1.24L20.718,35.213c-1.759-1.76-2.662-4.792-1.24-6.216
			L22.246,26.23z"/>
	</g>
	<path id="Show_All" display="none" fill="#FFFFFF" d="M61.761,42.04H44.29V24.569c0-0.62-0.505-1.125-1.125-1.125
		s-1.125,0.505-1.125,1.125V42.04H24.569c-0.62,0-1.125,0.505-1.125,1.125s0.505,1.125,1.125,1.125H42.04v17.471
		c0,0.62,0.505,1.125,1.125,1.125s1.125-0.505,1.125-1.125V44.29h17.471c0.62,0,1.125-0.505,1.125-1.125S62.381,42.04,61.761,42.04z
		"/>
</g>
</svg>
