<?xml version="1.0" encoding="utf-8"?>
<!-- Generator: Adobe Illustrator 15.0.2, SVG Export Plug-In . SVG Version: 6.00 Build 0)  -->
<!DOCTYPE svg PUBLIC "-//W3C//DTD SVG 1.1//EN" "http://www.w3.org/Graphics/SVG/1.1/DTD/svg11.dtd">
<svg version="1.1" id="Layer_1" xmlns="http://www.w3.org/2000/svg" xmlns:xlink="http://www.w3.org/1999/xlink" x="0px" y="0px"
	 width="50.447px" height="50.365px" viewBox="17.942 17.982 50.447 50.365" enable-background="new 17.942 17.982 50.447 50.365"
	 xml:space="preserve">
<g>
	<path fill="#FFFFFF" d="M38.307,58.628c-2.682,0-4.86,2.182-4.86,4.861c0,2.678,2.18,4.857,4.86,4.857
		c2.68,0,4.858-2.18,4.858-4.86C43.167,60.81,40.987,58.628,38.307,58.628z M38.307,66.625c-1.731-0.002-3.135-1.404-3.138-3.135
		c0-1.73,1.407-3.139,3.139-3.139c1.729,0,3.137,1.404,3.137,3.137c-0.003,1.73-1.406,3.133-3.137,3.135L38.307,66.625z
		 M52.685,58.628c-2.684,0.004-4.856,2.179-4.858,4.861c0,2.678,2.18,4.857,4.858,4.857c2.68,0,4.858-2.18,4.858-4.86
		C57.545,60.81,55.365,58.628,52.685,58.628z M52.685,66.625c-1.731-0.002-3.136-1.403-3.139-3.135c0-1.73,1.407-3.139,3.139-3.139
		c1.729,0,3.137,1.404,3.137,3.137c-0.005,1.73-1.407,3.133-3.137,3.135V66.625z M68.246,29.013
		c-0.16-0.242-0.432-0.389-0.722-0.387H28.31c-0.694-3.204-1.236-5.644-1.414-6.28c-0.658-2.364-2.892-2.99-3.98-2.99h-0.474
		c-0.385-0.835-1.219-1.372-2.138-1.374c-1.305,0-2.36,1.057-2.362,2.36c0,1.3,1.06,2.362,2.362,2.362
		c1.04,0,1.918-0.686,2.229-1.625h0.382c0.021,0,1.852,0.024,2.32,1.73c0.348,1.255,2.32,10.425,5.862,27.253l0.361,1.721
		c0.995,2.973,2.521,3.188,4.912,3.188h22.256c0.475,0,0.857-0.391,0.857-0.865c-0.001-0.473-0.384-0.855-0.857-0.855H36.373
		c-2.175,0-2.651-0.156-3.252-1.916l-0.544-2.603H57.28c1.835-0.04,2.787-0.63,3.78-2.347l7.253-16.557
		c0.122-0.267,0.097-0.574-0.067-0.818V29.013z M59.526,45.606c-0.688,1.177-1.147,1.373-2.275,1.399H32.23l-3.435-16.659h37.41
		L59.526,45.606L59.526,45.606z"/>
</g>
</svg>
