<svg xmlns="http://www.w3.org/2000/svg" width="59.486" height="57.2" viewBox="13.422 14.563 59.486 57.2"><g fill="#FFF"><path d="M43.155 34.573c2.11 0 3.93-1.432 4.42-3.482.088-.358.132-.718.132-1.067 0-2.51-2.04-4.553-4.552-4.553a4.558 4.558 0 0 0-4.552 4.553c0 .352.044.71.13 1.066a4.53 4.53 0 0 0 4.422 3.483zm0-7.35c1.543 0 2.8 1.257 2.8 2.8 0 .21-.028.432-.083.656a2.787 2.787 0 0 1-2.717 2.142 2.787 2.787 0 0 1-2.717-2.146 2.773 2.773 0 0 1-.08-.654 2.8 2.8 0 0 1 2.797-2.798z"/><path d="M64.976 57.185c-.215-.098-.73-.332-.974-.48l.056-16.407h3.328c.72 0 1.29-.48 1.52-1.28.37-1.276-.078-3.382-1.187-4.083L45.482 20.888c-.63-.396-1.448-.613-2.33-.613-.86 0-1.68.217-2.307.613L18.61 34.933c-1.108.7-1.557 2.805-1.187 4.08.23.803.8 1.283 1.52 1.283h3.33l.055 16.408c-.243.148-.758.383-.974.48-1.755.797-5.02 2.28-5.02 6.332 0 1.4 1.368 2.54 3.052 2.54h47.56c1.684 0 3.053-1.14 3.053-2.54-.002-4.05-3.27-5.535-5.024-6.33zm-40.894-.27l-.062-18.373h-4.908l-.005-.016c-.21-.723.183-1.947.44-2.11L41.784 22.37c.34-.215.854-.344 1.37-.344h.022c.52 0 1.03.13 1.37.344l22.237 14.047c.258.162.65 1.387.44 2.11l-.006.015H62.31l-.06 18.375c0 .953.926 1.375 2.002 1.863 1.685.766 3.993 1.813 3.993 4.736 0 .362-.566.784-1.3.784h-47.56c-.733 0-1.3-.422-1.3-.784 0-2.923 2.308-3.972 3.997-4.738 1.074-.486 2-.908 2-1.863z"/><path d="M52.835 57.942h3.33c1.34 0 2.43-1.09 2.43-2.43v-13.95c0-1.34-1.09-2.43-2.43-2.43h-3.33c-1.34 0-2.43 1.09-2.43 2.43v13.95c0 1.34 1.09 2.43 2.43 2.43zm4.005-2.43a.678.678 0 0 1-.676.68h-3.33a.68.68 0 0 1-.676-.68v-13.95c0-.373.304-.676.677-.676h3.33c.372 0 .675.303.675.676v13.95zM44.5 39.132h-3.33c-1.34 0-2.43 1.09-2.43 2.43v13.95c0 1.34 1.09 2.43 2.43 2.43h3.33c1.34 0 2.43-1.09 2.43-2.43v-13.95c0-1.34-1.09-2.43-2.43-2.43zm-4.005 2.43c0-.373.304-.676.677-.676H44.5c.373 0 .676.303.676.676v13.95a.678.678 0 0 1-.676.68h-3.33a.68.68 0 0 1-.676-.68v-13.95zM30.166 57.942h3.33c1.34 0 2.43-1.09 2.43-2.43v-13.95c0-1.34-1.09-2.43-2.43-2.43h-3.33c-1.34 0-2.43 1.09-2.43 2.43v13.95c0 1.34 1.09 2.43 2.43 2.43zm4.005-2.43a.68.68 0 0 1-.676.68h-3.33a.678.678 0 0 1-.675-.68v-13.95c0-.373.302-.676.675-.676h3.33c.372 0 .676.303.676.676v13.95z"/></g></svg>