<svg xmlns="http://www.w3.org/2000/svg" width="59.486" height="57.2" viewBox="13.422 14.563 59.486 57.2"><path fill="#FFF" d="M65.82 27.554h-9.392c-2.58-7.572-7.558-12.713-13.264-12.713S32.482 19.983 29.9 27.555h-9.39a.91.91 0 0 0-.907.91V70.58c0 .5.408.907.908.907h45.31c.5 0 .905-.407.905-.907V28.463a.906.906 0 0 0-.906-.91zM43.165 16.657c4.81 0 9.032 4.368 11.377 10.897H31.79c2.344-6.53 6.566-10.897 11.376-10.897zm21.746 53.015H21.42V29.37h7.924c-.6 2.164-1.01 4.49-1.2 6.93a2.737 2.737 0 0 0-1.96 2.617 2.744 2.744 0 0 0 5.488 0c0-1.15-.71-2.133-1.716-2.54.193-2.484.62-4.843 1.247-7.007h23.925a35.003 35.003 0 0 1 1.247 7.006 2.743 2.743 0 1 0 3.772 2.54c0-1.24-.83-2.277-1.96-2.616a36.78 36.78 0 0 0-1.2-6.93h7.925v40.302z"/></svg>