<?xml version="1.0" encoding="utf-8"?>
<!-- Generator: Adobe Illustrator 15.0.2, SVG Export Plug-In . SVG Version: 6.00 Build 0)  -->
<!DOCTYPE svg PUBLIC "-//W3C//DTD SVG 1.1//EN" "http://www.w3.org/Graphics/SVG/1.1/DTD/svg11.dtd">
<svg version="1.1" id="Layer_1" xmlns="http://www.w3.org/2000/svg" xmlns:xlink="http://www.w3.org/1999/xlink" x="0px" y="0px"
	 width="42.465px" height="48.496px" viewBox="51.233 42.832 42.465 48.496" enable-background="new 51.233 42.832 42.465 48.496"
	 xml:space="preserve">
<path fill="#FFFFFF" d="M88.55,81.025c-1.815,0-3.503,0.979-4.43,2.567c-5.011-1.771-9.44-2.981-13.537-3.698V70.13
	c8.433-1.281,13.065-16.348,13.065-21.145c0-3.225-1.987-5.15-5.317-5.15h-1.045c-0.396-0.629-1.063-1.003-1.804-1.003
	c-1.178,0-2.137,0.958-2.137,2.135c0,1.178,0.959,2.136,2.137,2.136c0.74,0,1.408-0.375,1.804-1.007h1.045
	c2.095,0,3.155,0.972,3.155,2.89c0,4.731-4.859,18.977-12.034,18.977c-4.108,0-7.193-4.822-8.666-7.697
	c-2.19-4.273-3.372-9.001-3.372-11.28c0-2.388,1.718-2.89,3.16-2.89h1.044c0.391,0.623,1.075,1.007,1.803,1.007
	c1.177,0,2.134-0.958,2.134-2.136c0-1.177-0.957-2.135-2.134-2.135c-0.728,0-1.412,0.382-1.803,1.003h-1.044
	c-3.332,0-5.321,1.925-5.321,5.15c0,4.796,4.634,19.864,13.07,21.145v9.418c-2.619-0.356-5.21-0.528-7.916-0.528
	c-5.487,0-9.174,2.475-9.174,6.152c0,3.625,3.668,6.156,8.921,6.156c6.224,0,10.41-3.669,10.428-9.135
	c3.893,0.705,8.102,1.869,12.857,3.558c-0.002,0.017-0.006,0.032-0.008,0.049c-0.019,0.122-0.033,0.247-0.033,0.38
	c0,2.84,2.311,5.148,5.147,5.148c2.843,0,5.152-2.311,5.152-5.148C93.702,83.338,91.391,81.025,88.55,81.025z M88.55,89.169
	c-1.647,0-2.989-1.342-2.989-2.989c0-1.652,1.342-2.994,2.989-2.994c1.648,0,2.99,1.342,2.99,2.994
	C91.54,87.827,90.198,89.169,88.55,89.169z M60.155,89.169c-3.979,0-6.759-1.644-6.759-3.997c0-2.389,2.818-3.992,7.012-3.992
	c2.692,0,5.283,0.18,7.916,0.551v0.43C68.323,86.417,65.117,89.169,60.155,89.169z"/>
</svg>
