<svg xmlns="http://www.w3.org/2000/svg" width="59.486" height="57.2" viewBox="13.422 14.563 59.486 57.2"><path fill="#FFF" d="M19.41 36.522l30.4 30.398c1.422 1.42 3.155 2.353 4.89 2.623 1.7.27 3.188-.137 4.188-1.14L69.485 57.81c.117-.115.164-.3.13-.512a1.28 1.28 0 0 0-.37-.693c-.393-.39-.945-.5-1.207-.24l-6.52 6.522-2.146-2.146 6.52-6.52c.263-.26.15-.812-.24-1.204-.393-.394-.944-.502-1.206-.24l-6.52 6.52-2.147-2.146 6.52-6.52c.26-.26.15-.813-.24-1.204-.24-.24-.548-.385-.82-.385-.11 0-.27.027-.386.145l-6.52 6.52-2.147-2.145 6.52-6.52c.264-.262.15-.813-.24-1.204a1.26 1.26 0 0 0-.69-.375c-.214-.03-.395.016-.513.134l-6.52 6.52-2.147-2.145.16-.227 6.328-6.327a.533.533 0 0 0 .143-.383c0-.274-.143-.58-.383-.82-.393-.393-.945-.502-1.205-.242l-6.52 6.52-2.168-2.164 6.514-6.513a.54.54 0 0 0 .143-.385c0-.548-.658-1.203-1.206-1.204a.535.535 0 0 0-.383.145l-6.513 6.512-2.146-2.147 6.515-6.512c.117-.118.162-.3.13-.512-.076-.527-.69-1.077-1.19-1.077a.535.535 0 0 0-.384.142l-6.516 6.513-2.145-2.146 6.51-6.513c.263-.262.152-.813-.237-1.205-.24-.24-.55-.385-.822-.384a.538.538 0 0 0-.384.143l-6.512 6.513-2.096-2.095 6.52-6.52c.263-.26.15-.813-.24-1.206-.24-.24-.546-.383-.82-.383a.534.534 0 0 0-.384.143l-6.52 6.52-2.148-2.145 6.522-6.52c.26-.262.15-.814-.242-1.206-.39-.393-.943-.503-1.203-.242l-6.522 6.52-2.145-2.145 6.52-6.52a.542.542 0 0 0 .143-.386c0-.274-.144-.58-.382-.82-.394-.392-.946-.502-1.207-.24l-6.522 6.52-2.146-2.147 6.52-6.52a.54.54 0 0 0 .143-.385c0-.274-.143-.582-.383-.82-.394-.394-.944-.505-1.205-.243l-6.502 6.504-.003-.004-4.093 4.094c-2.098 2.087-1.432 6.16 1.48 9.072zm2.836-10.292l37.856 37.854-2.77 2.77c-1.423 1.423-4.456.52-6.214-1.24l-30.4-30.4c-1.76-1.76-2.662-4.793-1.24-6.217l2.768-2.767z"/></svg>