<?xml version="1.0" encoding="utf-8"?>
<!-- Generator: Adobe Illustrator 15.0.2, SVG Export Plug-In . SVG Version: 6.00 Build 0)  -->
<!DOCTYPE svg PUBLIC "-//W3C//DTD SVG 1.1//EN" "http://www.w3.org/Graphics/SVG/1.1/DTD/svg11.dtd">
<svg version="1.1" id="Layer_1" xmlns="http://www.w3.org/2000/svg" xmlns:xlink="http://www.w3.org/1999/xlink" x="0px" y="0px"
	 width="56.822px" height="44.548px" viewBox="42.453 45.098 56.822 44.548" enable-background="new 42.453 45.098 56.822 44.548"
	 xml:space="preserve">
<g>
	<path fill="#FFFFFF" d="M99.275,59.719c0-0.46-0.258-0.873-0.674-1.079L71.396,45.221c-0.328-0.164-0.734-0.163-1.06-0.001
		l-27.21,13.421c-0.415,0.205-0.673,0.618-0.673,1.078c0,0.46,0.257,0.871,0.671,1.074l27.21,13.426
		c0.328,0.162,0.733,0.159,1.063,0L86.4,66.817V79.43c0,0.663,0.539,1.203,1.203,1.203c0.662,0,1.201-0.54,1.201-1.203V65.631
		l9.799-4.837C99.02,60.59,99.275,60.179,99.275,59.719z M87.602,63.548l-12.065-5.907c-0.586-0.288-1.323-0.029-1.606,0.55
		c-0.143,0.289-0.16,0.613-0.06,0.917c0.104,0.304,0.317,0.549,0.606,0.69l10.398,5.089l-14.013,6.917L46.369,59.719l24.493-12.081
		l24.494,12.08L87.602,63.548z"/>
	<path fill="#FFFFFF" d="M83.539,73.064c0-0.663-0.538-1.199-1.2-1.199c-0.661,0-1.2,0.539-1.2,1.199v8.631
		c0,2.681-4.129,5.549-10.271,5.549c-6.146,0-10.275-2.868-10.275-5.549v-8.631c0-0.663-0.538-1.199-1.199-1.199
		c-0.663,0-1.201,0.539-1.201,1.199v8.631c0,4.459,5.567,7.951,12.676,7.951c7.106,0,12.675-3.492,12.675-7.951v-8.631H83.539z"/>
</g>
</svg>
