<svg xmlns="http://www.w3.org/2000/svg" width="522.021" height="207.312" viewBox="0 0 522.021 207.312"><path fill="none" d="M3.688 17.108v156.5h103v30h181.5l27-25.5h205.5v-159h-213.5v-11h-136v10z"/><g fill="#D1D3D4"><path d="M388.522 18.942h49.333v4.667h-49.333zM296.188 18.608h18.332v4.967h-18.332zM171.688 10.608h49.5v12.5h-49.5zM79.438 17.858h19v6.25h-19zM512.188 17.275h7v6.344h-7zM299.688 194.858v-22.75h42.25v6.5h-27zM372.938 179.108v-6.5h72.5v-11.75h26.75v12h47.25v6z"/></g><path fill="#FFF" stroke="#939598" d="M177.356 123.275v61.167h90.666v18.833H157.356V122.61z"/><g fill="none" stroke="#939598"><path d="M99.516 122.186l1.65.05.014 23.777-1.67.012zM100.262 146.044c13.114-.444 23.383-11.246 22.936-24.358"/></g><g fill="none" stroke="#939598"><path d="M369.744 179.485l-1.67.013-.014-23.818 1.71-.013zM369.04 155.648c-13.114.444-23.382 11.29-22.936 24.4"/></g><g fill="none" stroke="#939598"><path d="M388.704 104.186l.01-1.586 22.626-.016-.008 1.588zM411.35 103.456c-.424-12.458-10.664-22.214-23.12-21.788"/></g><g fill="none" stroke="#939598"><path d="M172.425 112.376l-.01-1.586-22.626-.016.007 1.588zM149.78 111.646c.423-12.458 10.663-22.214 23.12-21.788"/></g><g fill="none" stroke="#939598"><path d="M389.02 119.276l-.007 1.586-22.627.016.008-1.588zM366.376 120.006c.424 12.458 10.664 22.215 23.12 21.788"/></g><g fill="none" stroke="#939598"><path d="M295.746 172.59l-1.336.01-.013-19.056 1.372-.01zM295.185 153.52c-10.492.355-18.707 9.03-18.35 19.52"/></g><g fill="none" stroke="#939598"><path d="M22.684 122.51l1.648.052.016 23.775-1.672.013zM23.43 146.368c13.113-.445 23.383-11.246 22.936-24.36"/></g><g fill="none" stroke="#939598"><path d="M396.78 111.02l1.648.05.015 23.776-1.672.012zM397.525 134.877c13.112-.444 23.383-11.246 22.936-24.358"/></g><g fill="none" stroke="#939598"><path d="M477.934 110.936l1.648.05.016 23.777-1.672.012zM478.68 134.794c13.113-.444 23.383-11.246 22.937-24.358"/></g><path fill="#FFF" stroke="#A7A9AC" d="M420.02 172.11v-18.56h-29.998v19.06"/><path fill="none" stroke="#939598" d="M313.188 136.94v35"/><path fill="#FFF" stroke="#939598" d="M204.188 126.275h54.333v22.333H204.19z"/><path fill="none" stroke="#939598" d="M12.938 124.108v38.5h45.25v-38.5"/><path fill="#FFF" stroke="#939598" d="M157.022 156.358h-18.51v-32.75h18.01"/><path fill="none" stroke="#939598" d="M5.938 25.017h166.25M511.438 24.858h-197.5"/><g fill="none" stroke="#939598"><path d="M322.235 167.127l.01-1.586 22.626-.015-.008 1.588zM344.88 166.397c-.423-12.458-10.663-22.214-23.12-21.788"/></g><path fill="none" stroke="#939598" stroke-dasharray="1.5,1.5,1.5,1.5,1.5,1.5" d="M11.1 123.608v40.866h48.704v-40.866M311.188 136.608v35.75"/><path fill="none" stroke="#939598" d="M508.688 112.58v47.028h-35.25"/><path fill="none" stroke="#939598" stroke-dasharray="1.5,1.5,1.5,1.5,1.5,1.5" d="M473.188 161.708h37.39v-48.6"/><g fill="none" stroke="#939598"><path d="M257.754 16.347h37.5v1.508h-37.5z"/><path d="M225.504 17.84h41v1.508h-41z"/></g><g fill="none" stroke="#939598"><path d="M303.938 8.79h2.875v2.875h-2.875zM304.188 10.915h-83.875M303.938 11.665v6.678M220.313 8.79h84.125M306.813 11.665v6.693"/></g><g fill="#FFF" stroke="#939598"><path stroke-miterlimit="10" d="M92.575 158.917c0-4.462-2.71-9.376-6.053-9.376s-6.04 4.915-6.04 9.377c0 4.463 2.698 6.785 6.04 6.785s6.053-2.322 6.053-6.785"/><path d="M92.575 158.917c0-4.462-2.71-9.376-6.053-9.376s-6.04 4.915-6.04 9.377c0 4.463 2.698 6.785 6.04 6.785s6.053-2.322 6.053-6.785z"/><path stroke-miterlimit="10" d="M82.9 164.24a.457.457 0 0 0-.456-.456h-2.107a.457.457 0 0 0-.455.455v.076c0 .25.205.455.455.455h2.107c.25 0 .455-.204.455-.454v-.077z"/><path d="M82.9 164.24a.457.457 0 0 0-.456-.456h-2.107a.457.457 0 0 0-.455.455v.076c0 .25.205.455.455.455h2.107c.25 0 .455-.204.455-.454v-.077z"/><path stroke-miterlimit="10" d="M79.562 164.783c-.758 0-1.375 2.057-1.375 2.816 0 .768.617 2.823 1.375 2.823h13.814c.76 0 1.375-2.057 1.375-2.824 0-.762-.614-2.815-1.374-2.815l-13.814-.002z"/><path d="M79.562 164.783c-.758 0-1.375 2.057-1.375 2.816 0 .768.617 2.823 1.375 2.823h13.814c.76 0 1.375-2.057 1.375-2.824 0-.762-.614-2.815-1.374-2.815l-13.814-.002z"/><path stroke-miterlimit="10" d="M90.972 158.73c0-3.28-1.992-6.894-4.45-6.894s-4.446 3.613-4.446 6.894c0 3.28 1.99 4.984 4.447 4.984s4.45-1.704 4.45-4.984"/><path d="M90.972 158.73c0-3.28-1.992-6.894-4.45-6.894s-4.446 3.613-4.446 6.894c0 3.28 1.99 4.984 4.447 4.984s4.45-1.704 4.45-4.984z"/></g><path fill="#FFF" stroke="#939598" d="M110.27 178.854h45.694v23.625H110.27z"/><circle fill="#FFF" stroke="#939598" cx="145.55" cy="190.556" r=".969"/><path fill="#FFF" stroke="#939598" d="M112.88 190.595c0 6.77 1.562 9.25 3.752 9.25h33.376c.535 0 1.64-.146 1.64-1.562v-7.705-7.688c0-1.416-1.104-1.562-1.64-1.562h-33.354l-.02.002c-2.192 0-3.754 2.536-3.754 9.265zM153.348 192.587a.986.986 0 0 0-.988.996c0 .537.44.982.988.986a1 1 0 0 0 .995-.987.99.99 0 0 0-.995-.996zM153.348 186.446a.984.984 0 0 0-.988.99.988.988 0 1 0 1.976 0 .985.985 0 0 0-.988-.99z"/><path fill="#FFF" stroke="#939598" d="M153.64 191.89c.813 0 1.47-.55 1.472-1.36-.002-.813-.658-1.255-1.47-1.255l-5.593.52c-.55 0-.55 1.483 0 1.483l5.59.612z"/><g fill="#FFF" stroke="#939598"><path stroke-miterlimit="10" d="M438.39 159.073c0-4.462-2.712-9.376-6.054-9.376s-6.04 4.914-6.04 9.376c0 4.463 2.698 6.785 6.04 6.785s6.053-2.322 6.053-6.785"/><path d="M438.39 159.073c0-4.462-2.712-9.376-6.054-9.376s-6.04 4.914-6.04 9.376c0 4.463 2.698 6.785 6.04 6.785s6.053-2.322 6.053-6.785z"/><path stroke-miterlimit="10" d="M428.713 164.396a.457.457 0 0 0-.455-.455h-2.106a.457.457 0 0 0-.455.456v.077c0 .25.205.454.455.454h2.106c.25 0 .455-.204.455-.454v-.077z"/><path d="M428.713 164.396a.457.457 0 0 0-.455-.455h-2.106a.457.457 0 0 0-.455.456v.077c0 .25.205.454.455.454h2.106c.25 0 .455-.204.455-.454v-.077z"/><path stroke-miterlimit="10" d="M425.375 164.94c-.758 0-1.375 2.056-1.375 2.814 0 .77.617 2.825 1.375 2.825h13.814c.76 0 1.374-2.058 1.374-2.826 0-.76-.615-2.813-1.375-2.813h-13.815z"/><path d="M425.375 164.94c-.758 0-1.375 2.056-1.375 2.814 0 .77.617 2.825 1.375 2.825h13.814c.76 0 1.374-2.058 1.374-2.826 0-.76-.615-2.813-1.375-2.813h-13.815z"/><path stroke-miterlimit="10" d="M436.785 158.887c0-3.28-1.992-6.894-4.45-6.894s-4.446 3.613-4.446 6.894c0 3.28 1.99 4.984 4.446 4.984s4.45-1.704 4.45-4.983"/><path d="M436.785 158.887c0-3.28-1.992-6.894-4.45-6.894s-4.446 3.613-4.446 6.894c0 3.28 1.99 4.984 4.446 4.984s4.45-1.704 4.45-4.983z"/></g><path fill="#FFF" stroke="#939598" d="M446.062 112.492h24.495v46.75h-24.495z"/><path fill="#FFF" stroke="#939598" d="M458.567 157.816h9.79v-43.568h-20.094v43.568h9.4"/><path fill="none" stroke="#939598" d="M448.263 157.816l9.39-20.4M459.04 135.596l9.318-21.348M448.263 114.248l9.298 21.242M459.065 137.45l9.293 20.366"/><path fill="#FFF" stroke="#939598" d="M459.377 136.492c0-.6-.587-1.084-1.048-1.084-.46 0-.977.484-.977 1.084 0 .598.516 1.084.976 1.084.46 0 1.047-.486 1.047-1.084zM459.345 156.22c0-.617-2.23-.617-2.23 0a1.115 1.115 0 0 0 2.23 0zM457.998 159.537v-2.135h.622v2.137"/><g><g stroke="#939598"><path fill="#FFF" d="M274.99 175.835h20.19v18.545h-20.19z"/><path fill="#FFF" d="M291.21 181.368v-2.82l-2.438-.66h-7.468l-2.47.66v2.82"/><path fill="none" d="M274.845 181.368h20.334"/></g><path fill="#FFF" stroke="#939598" d="M275.974 180.15l1.63-.003.358 1.138-2.348.005z"/></g><g><path fill="#FFF" stroke="#939598" d="M199.872 201.108a.77.77 0 0 1-.77-.77v-13.445a.77.77 0 0 1 .77-.77h22.807a.77.77 0 0 1 .77.77v13.444a.77.77 0 0 1-.77.77H199.87z"/><circle fill="#FFF" stroke="#939598" cx="211.194" cy="193.285" r=".871"/><path fill="#FFF" stroke="#939598" d="M207.39 198.752H215v1.82h-7.61z"/><path fill="#FFF" stroke="#939598" d="M210.806 195.214h.777v3.586h-.777z"/><circle fill="#FFF" stroke="#939598" cx="211.194" cy="199.645" r=".847"/><g><path fill="none" stroke="#939598" d="M210.725 198.123h-9.59a.81.81 0 0 1-.81-.81v-9.222c0-.443.363-.808.81-.808h20.28a.81.81 0 0 1 .81.81v9.22a.81.81 0 0 1-.81.81h-9.726"/></g></g><g stroke="#939598"><path fill="none" stroke-dasharray="1.5,1,1.5,1,1.5,1" d="M196.07 183.758v16.976h-16.65V184.14"/><path fill="#FFF" d="M179.396 184.14v-1.01h16.673v.622"/></g><g><path fill="#FFF" stroke="#939598" d="M159.402 146.002h19.75v23.25h-19.75z"/><circle fill="#FFF" stroke="#939598" cx="174.777" cy="162.942" r="2.824"/><circle fill="#FFF" stroke="#939598" stroke-width=".8" cx="174.776" cy="162.971" r="1.989"/><circle fill="#FFF" stroke="#939598" cx="166.527" cy="151.655" r="2.824"/><circle fill="#FFF" stroke="#939598" stroke-width=".8" cx="166.526" cy="151.627" r="1.989"/><circle fill="#FFF" stroke="#939598" cx="166.555" cy="162.98" r="3.219"/><circle fill="#FFF" stroke="#939598" stroke-width=".8" cx="166.555" cy="162.949" r="2.268"/><g><circle fill="#FFF" stroke="#939598" cx="174.994" cy="151.668" r="3.219"/><circle fill="#FFF" stroke="#939598" stroke-width=".8" cx="174.994" cy="151.636" r="2.268"/></g><path fill="none" stroke="#939598" d="M162.135 169.283v-23.28M161.043 169.252v-23.25"/></g><g><path fill="#FFF" stroke="#939598" d="M244.738 179.875h24.902v21.97h-24.902z"/><path fill="none" stroke="#939598" d="M244.68 181.41h24.96"/><path fill="#FFF" stroke="#939598" d="M265.544 178.79h2.018v1.07h-2.018z"/></g><g><path fill="#FFF" stroke="#939598" d="M241.695 183.12h1.833v21.833h-14.165V183.12h1.832"/><path fill="none" stroke="#939598" stroke-width=".7" d="M236.355 174.235l1.252.688-5.21 8.593-1.25-.687z"/><path fill="none" stroke="#939598" stroke-width=".8" d="M236.833 174.65a9.99 9.99 0 0 1 4.81 8.887"/></g><path fill="none" stroke="#939598" stroke-dasharray="1.5,1.5,1.5,1.5,1.5,1.5" d="M241.522 192.69h31.166M169.022 123.275v60.666l8.75 8.75h55.416"/><g><circle fill="none" stroke="#939598" cx="405.371" cy="160.889" r="1.017"/><path fill="none" stroke="#939598" d="M401.105 167.264h8.553v2.125h-8.553zM404.918 163.14h.906v4.03h-.906z"/><circle fill="none" stroke="#939598" cx="405.371" cy="168.306" r=".986"/><g fill="none" stroke="#939598"><path d="M396.844 155.84h17.076v13.874h-17.076z"/><path d="M398.236 157.233h14.255v9.98h-14.254z"/></g></g><g><circle fill="none" stroke="#939598" cx="145.774" cy="139.842" r="1.017"/><path fill="none" stroke="#939598" d="M152.15 135.555h2.124v8.553h-2.125zM148.024 139.39h4.03v.904h-4.03z"/><circle fill="none" stroke="#939598" cx="153.191" cy="139.842" r=".986"/><g fill="none" stroke="#939598"><path d="M140.724 131.293H154.6v17.076h-13.876z"/><path d="M142.12 132.722h9.98v14.255h-9.98z"/></g></g><g fill="none" stroke="#939598"><path stroke-width="5" d="M172.188 18.333L2.5 18.38v155.56h105.42v30.872h181.602l25.832-25.705h30.96"/><path stroke-width="3" d="M227.534 18.323h-6.346"/><path stroke-width="5" d="M369.79 179.107h149.73V18.275l-228.326.037"/><path stroke-width="3" d="M388.522 141.73v30.545M388.522 104.093v15.183M388.522 18.942v63.085M512.188 17.275V23.9h7M437.855 17.942v5.666h-49M322.522 167.275v5.333M299.854 194.275v-57.667h22.668l-.084 8.25M396.854 111.328h-8.666M477.854 111.328l-57.48.03M519.188 111.328H501.2M471.93 110.94v62.335h46.924M470.77 160.683h-23.712l-.108 12.205-73.762-.022v5.41"/><path stroke-width="3" d="M295.854 172.305l45.334-.03v6.666M271.854 204.275V172.48l5.312-.034M123.188 122.758h58.666M46.188 122.758h53.635M2.52 122.758h20M172.188 89.858v-71.25M172.188 122.608v-10.25M157.5 121.94v81.668M68.854 122.275v51.666M173.26 18.276l.012 5H221.2v-4.5"/><path stroke-width="5" d="M222.188 19.72V10.8h-49.99l.094 8.422"/><path stroke-width="3" d="M296.188 18.608v5.268h18.333v-4.6M80.188 18.942v4.333h17.666v-3.667"/><path stroke-width="4" d="M5.188 25.425v-5.817"/></g><g stroke="#939598"><path fill="#FFF" d="M7.98 16.443h69.562v3.674H7.98z"/><path fill="none" d="M77.543 18.26H7.23"/><path fill="none" stroke-width="2" d="M54.87 20.275V16.78M31.48 20.4v-3.602"/><g><path fill="#FFF" d="M99.98 16.34h69.563v3.676H99.98z"/><path fill="none" d="M169.543 18.16H99.23"/><path fill="none" stroke-width="2" d="M146.87 20.173V16.68M123.48 20.298v-3.6"/></g><g><path fill="#FFF" d="M316.813 16.443h69.562v3.674h-69.562z"/><path fill="none" d="M386.377 18.262h-70.314"/><path fill="none" stroke-width="2" d="M363.703 20.275V16.78M340.313 20.4v-3.6"/></g><g><path fill="#FFF" d="M440.368 16.39h69.562v3.673h-69.562z"/><path fill="none" d="M509.93 18.207H439.62"/><path fill="none" stroke-width="2" d="M487.257 20.22v-3.493M463.868 20.346v-3.602"/></g></g><g><g fill="#939598"><path d="M242.205 6.02c-.735 0-1.205-.365-1.513-.87l.4-.343c.3.455.608.7 1.12.7.553 0 .96-.4.96-1.177V1.047h.56v3.277c0 1.128-.65 1.695-1.527 1.695zM247.52 2.328h.53v3.62h-.53v-.63c-.246.393-.618.708-1.24.708-.876 0-1.388-.59-1.388-1.45V2.328h.54v2.115c0 .673.363 1.093 1 1.093.617 0 1.086-.455 1.086-1.135V2.33zM249.31 5.95V.836h.54V5.95h-.54zM251.115 1.537V.94h.617v.597h-.617zm.035 4.412V2.327h.54v3.62h-.54zM254.54 5.564c.496 0 .847-.203 1.14-.512l.337.3c-.364.407-.805.68-1.492.68-.995 0-1.807-.763-1.807-1.89 0-1.05.735-1.892 1.737-1.892 1.07 0 1.688.854 1.688 1.92 0 .05 0 .104-.007.167h-2.872c.077.786.638 1.227 1.275 1.227zm1.057-1.625c-.056-.66-.434-1.234-1.156-1.234-.63 0-1.105.525-1.176 1.233h2.333zM257.814 4.92c0 .44.245.603.61.603.18 0 .335-.035.524-.127v.463c-.19.097-.392.153-.65.153-.583 0-1.023-.288-1.023-1.023V2.804h-.504v-.476h.505V1.235h.54v1.093h1.148v.477h-1.15V4.92zM265.79 2.272c0 .645-.393.974-.778 1.142.58.175 1.05.51 1.05 1.19 0 .848-.707 1.345-1.778 1.345h-2.18V1.046h2.09c.965 0 1.595.475 1.595 1.225zm-.56.077c0-.49-.387-.807-1.086-.807h-1.492V3.23h1.45c.665 0 1.127-.3 1.127-.88zm.272 2.22c0-.54-.448-.85-1.303-.85h-1.55v1.73h1.647c.743.002 1.205-.327 1.205-.88zM267.278 3.02l-.162-.44c.4-.182.792-.3 1.317-.3.987 0 1.54.503 1.54 1.456V5.95h-.518v-.547c-.252.33-.672.623-1.31.623-.673 0-1.353-.378-1.353-1.135 0-.77.63-1.176 1.55-1.176.46 0 .79.063 1.112.154v-.125c0-.65-.4-.987-1.078-.987-.426 0-.762.11-1.098.265zm.063 1.85c0 .463.42.73.91.73.667 0 1.213-.407 1.213-.98v-.35a3.78 3.78 0 0 0-1.064-.155c-.68 0-1.06.293-1.06.756zM271.17 5.95V.836h.54V5.95h-.54zM274.594 6.033c-1.058 0-1.856-.86-1.856-1.884 0-1.03.8-1.9 1.856-1.9.687 0 1.113.288 1.45.646l-.357.378c-.287-.3-.61-.546-1.1-.546-.736 0-1.296.623-1.296 1.407 0 .792.575 1.415 1.332 1.415.462 0 .818-.23 1.105-.54l.344.323c-.363.406-.798.7-1.476.7zM278.507 6.033c-1.086 0-1.877-.854-1.877-1.884s.8-1.9 1.89-1.9c1.087 0 1.886.855 1.886 1.885s-.806 1.898-1.9 1.898zm0-3.306c-.784 0-1.323.623-1.323 1.407 0 .785.574 1.415 1.337 1.415.786 0 1.333-.624 1.333-1.4 0-.793-.582-1.423-1.346-1.423zM281.915 5.95h-.54V2.327h.54v.63c.238-.392.617-.707 1.24-.707.875 0 1.387.59 1.387 1.45v2.25h-.54V3.833c0-.672-.363-1.093-1-1.093-.624 0-1.087.456-1.087 1.136V5.95zM287.35 6.068c-.31.75-.66 1.022-1.205 1.022a1.65 1.65 0 0 1-.77-.182l.18-.428c.177.09.338.133.57.133.32 0 .524-.168.74-.68l-1.645-3.606h.596l1.316 3.02 1.163-3.02h.574l-1.52 3.74z"/></g><path fill="#939598" d="M107.385 155.453c0 .828-.504 1.252-1 1.468.748.226 1.35.658 1.35 1.53 0 1.09-.908 1.73-2.286 1.73h-2.8v-6.302h2.682c1.243 0 2.053.612 2.053 1.575zm-.72.1c0-.632-.495-1.037-1.395-1.037h-1.918v2.17h1.864c.855 0 1.45-.386 1.45-1.134zm.35 2.853c0-.693-.575-1.09-1.674-1.09h-1.99v2.224h2.117c.955 0 1.55-.423 1.55-1.134zM109.3 156.417l-.206-.567c.513-.234 1.017-.388 1.692-.388 1.27 0 1.98.648 1.98 1.873v2.845h-.666v-.702c-.324.423-.864.8-1.684.8-.864 0-1.737-.484-1.737-1.457 0-.99.81-1.512 1.988-1.512.594 0 1.018.08 1.432.198v-.162c0-.837-.513-1.27-1.387-1.27-.548 0-.98.145-1.412.343zm.082 2.376c0 .595.54.937 1.17.937.855 0 1.557-.522 1.557-1.26v-.45c-.343-.1-.802-.198-1.37-.198-.872 0-1.358.377-1.358.97z"/><g fill="#939598"><path d="M115.088 158.856c0 .567.315.774.783.774.235 0 .433-.045.676-.162v.594a1.743 1.743 0 0 1-.837.198c-.748 0-1.315-.37-1.315-1.314v-2.81h-.648v-.61h.648v-1.405h.693v1.405h1.477v.612h-1.477v2.72zM118.48 160.18h-.693v-6.573h.693v2.73c.306-.506.792-.91 1.594-.91 1.125 0 1.782.756 1.782 1.863v2.89h-.693v-2.72c0-.863-.468-1.403-1.288-1.403-.8 0-1.396.585-1.396 1.458v2.664z"/></g><g fill="#939598"><path d="M26.26 155.867c-1.414 0-2.457-1.113-2.457-2.528 0-1.4 1.037-2.543 2.48-2.543.89 0 1.42.314 1.91.777l-.377.406c-.413-.393-.875-.673-1.54-.673-1.087 0-1.9.876-1.9 2.018s.82 2.03 1.9 2.03c.67 0 1.112-.26 1.582-.707l.364.357c-.51.52-1.07.862-1.96.862zM29.144 155.783v-5.112h.54v5.113h-.54zM32.59 155.867c-1.087 0-1.878-.854-1.878-1.884s.798-1.898 1.89-1.898c1.087 0 1.885.854 1.885 1.884 0 1.03-.806 1.897-1.898 1.897zm0-3.306c-.786 0-1.325.624-1.325 1.408 0 .785.574 1.415 1.337 1.415.785 0 1.33-.623 1.33-1.4.002-.792-.58-1.422-1.343-1.422zM36.655 155.853a2.494 2.494 0 0 1-1.5-.532l.274-.385c.39.294.826.463 1.253.463.434 0 .75-.225.75-.575v-.014c0-.365-.427-.505-.904-.64-.568-.16-1.2-.355-1.2-1.02v-.015c0-.623.52-1.036 1.234-1.036.44 0 .932.152 1.303.397l-.245.406c-.336-.217-.722-.35-1.072-.35-.427 0-.7.224-.7.525v.014c0 .343.448.477.932.623.56.168 1.163.386 1.163 1.037v.014c0 .688-.568 1.087-1.29 1.087zM40.54 155.398c.498 0 .85-.203 1.143-.512l.336.3c-.365.407-.806.68-1.493.68-.995 0-1.807-.763-1.807-1.89 0-1.05.735-1.892 1.737-1.892 1.07 0 1.688.854 1.688 1.92 0 .05 0 .104-.007.167h-2.872c.077.787.637 1.228 1.275 1.228zm1.058-1.625c-.056-.658-.434-1.233-1.156-1.233-.63 0-1.106.525-1.177 1.233h2.333zM43.816 154.754c0 .44.245.603.61.603.18 0 .335-.035.524-.127v.463c-.19.098-.392.154-.65.154-.582 0-1.023-.288-1.023-1.023v-2.185h-.504v-.478h.504v-1.093h.54v1.092h1.148v.477h-1.15v2.114z"/></g><path fill="#939598" d="M416.72 139.285c0 .828-.504 1.252-1 1.468.748.225 1.35.657 1.35 1.53 0 1.09-.908 1.73-2.285 1.73h-2.8v-6.303h2.683c1.24 0 2.052.612 2.052 1.575zm-.72.1c0-.63-.496-1.036-1.396-1.036h-1.918v2.17h1.863c.855-.002 1.45-.388 1.45-1.135zm.35 2.853c0-.693-.575-1.09-1.674-1.09h-1.99v2.224h2.116c.955 0 1.55-.423 1.55-1.134zM418.636 140.25l-.207-.568c.512-.234 1.016-.388 1.69-.388 1.27 0 1.98.648 1.98 1.873v2.845h-.666v-.702c-.324.423-.863.8-1.684.8-.863 0-1.736-.484-1.736-1.457 0-.99.81-1.513 1.988-1.513.595 0 1.018.08 1.432.198v-.162c0-.837-.513-1.27-1.387-1.27-.548 0-.98.145-1.41.343zm.08 2.375c0 .595.54.937 1.17.937.855 0 1.56-.522 1.56-1.26v-.45a4.825 4.825 0 0 0-1.37-.198c-.874 0-1.36.377-1.36.97z"/><g fill="#939598"><path d="M424.423 142.688c0 .567.314.774.783.774.234 0 .432-.045.675-.162v.594a1.743 1.743 0 0 1-.836.198c-.748 0-1.314-.37-1.314-1.314v-2.81h-.648v-.61h.648v-1.405h.693v1.404h1.477v.612h-1.477v2.718zM427.815 144.01h-.693v-6.57h.693v2.728c.306-.505.792-.91 1.594-.91 1.124 0 1.78.757 1.78 1.864v2.89h-.692v-2.72c0-.863-.468-1.403-1.288-1.403-.8 0-1.395.584-1.395 1.457v2.664z"/></g><g fill="#939598"><path d="M481.928 146.533c-1.415 0-2.458-1.113-2.458-2.528 0-1.4 1.036-2.542 2.48-2.542.89 0 1.42.314 1.91.777l-.377.406c-.413-.393-.876-.673-1.54-.673-1.086 0-1.898.876-1.898 2.018s.82 2.032 1.898 2.032c.672 0 1.113-.26 1.582-.708l.364.357c-.512.52-1.073.863-1.962.863zM484.81 146.45v-5.113h.54v5.112h-.54zM488.255 146.533c-1.086 0-1.877-.854-1.877-1.884s.8-1.9 1.89-1.9c1.087 0 1.886.855 1.886 1.885s-.806 1.898-1.9 1.898zm0-3.306c-.784 0-1.323.623-1.323 1.407 0 .785.574 1.415 1.337 1.415.784 0 1.33-.624 1.33-1.4 0-.793-.58-1.423-1.345-1.423zM492.32 146.52a2.49 2.49 0 0 1-1.497-.533l.273-.386c.392.295.826.464 1.254.464.434 0 .75-.225.75-.575v-.015c0-.364-.428-.504-.904-.638-.568-.16-1.198-.356-1.198-1.022v-.014c0-.622.52-1.035 1.233-1.035.442 0 .933.153 1.304.398l-.246.406c-.336-.218-.72-.35-1.07-.35-.428 0-.7.223-.7.524v.014c0 .343.447.477.93.623.562.17 1.163.387 1.163 1.038v.014c0 .688-.566 1.087-1.29 1.087zM496.207 146.064c.497 0 .848-.203 1.142-.512l.335.3c-.363.407-.805.68-1.492.68-.994 0-1.807-.763-1.807-1.89 0-1.05.736-1.892 1.737-1.892 1.07 0 1.688.854 1.688 1.92 0 .05 0 .104-.007.167h-2.87c.076.786.636 1.227 1.274 1.227zm1.058-1.625c-.057-.66-.434-1.234-1.156-1.234-.63 0-1.106.525-1.177 1.233h2.332zM499.482 145.42c0 .44.245.603.61.603.182 0 .336-.035.524-.127v.463a1.353 1.353 0 0 1-.65.153c-.582 0-1.023-.288-1.023-1.023v-2.185h-.505v-.477h.505v-1.093h.54v1.093h1.148v.477h-1.148v2.115z"/></g><g fill="#939598"><path d="M280.548 185.438h.455l1.345 4.098 1.4-4.083h.58l-1.75 4.938h-.47l-1.344-3.978-1.352 3.98h-.463l-1.75-4.94h.6l1.402 4.084 1.346-4.098zM287.533 184.766l-3.25 6.485h-.497l3.25-6.484h.497zM289.885 190.355h-1.702v-4.902h1.702c1.54 0 2.604 1.058 2.604 2.444s-1.065 2.458-2.605 2.458zm0-4.39h-1.15v3.88h1.15c1.24 0 2.03-.84 2.03-1.934s-.79-1.946-2.03-1.946z"/></g><path fill="#939598" d="M351.848 175.302h-2.99v1.674h2.675v.505h-2.676v1.717h3.026v.504h-3.58v-4.9h3.545v.502zM353.44 179.7h-.54v-3.62h.54v.63c.238-.393.617-.708 1.24-.708.875 0 1.387.59 1.387 1.45v2.248h-.54v-2.115c0-.672-.363-1.093-1-1.093-.624 0-1.087.455-1.087 1.135v2.073z"/><g fill="#939598"><path d="M357.894 178.67c0 .442.244.604.61.604.18 0 .335-.035.524-.127v.463a1.36 1.36 0 0 1-.652.154c-.58 0-1.02-.288-1.02-1.023v-2.184h-.506v-.477h.505v-1.094h.54v1.093h1.147v.476h-1.148v2.115zM360.532 179.7h-.54v-3.62h.54v.944c.266-.602.79-1.036 1.48-1.008v.58h-.044c-.79 0-1.436.568-1.436 1.66v1.444zM364.593 179.82c-.31.748-.658 1.02-1.205 1.02-.3 0-.525-.062-.77-.18l.182-.43c.176.092.336.134.567.134.322 0 .525-.168.742-.68l-1.647-3.606h.596l1.315 3.02 1.162-3.02h.574l-1.517 3.74z"/></g><g fill="#939598"><path d="M309.154 162.34c0 1.416-1.113 2.46-2.528 2.46-1.4 0-2.542-1.037-2.542-2.48 0-.89.314-1.422.777-1.912l.407.378c-.393.413-.673.876-.673 1.54 0 1.086.876 1.898 2.018 1.898s2.03-.82 2.03-1.898c0-.672-.26-1.113-.707-1.582l.357-.364c.52.51.862 1.07.862 1.96zM309.07 159.458h-5.112v-.54h5.112v.54zM309.154 156.013c0 1.086-.854 1.877-1.884 1.877s-1.898-.8-1.898-1.89c0-1.087.854-1.886 1.884-1.886 1.03 0 1.898.807 1.898 1.9zm-3.305 0c0 .784.622 1.323 1.406 1.323.785 0 1.415-.574 1.415-1.337 0-.786-.622-1.333-1.4-1.333-.79 0-1.42.583-1.42 1.346zM309.14 151.947a2.49 2.49 0 0 1-.53 1.498l-.387-.273c.294-.392.463-.826.463-1.254 0-.434-.225-.75-.575-.75h-.013c-.364 0-.504.428-.638.904-.16.568-.357 1.198-1.023 1.198h-.014c-.623 0-1.036-.52-1.036-1.233 0-.44.153-.932.398-1.303l.406.246c-.216.336-.35.72-.35 1.07 0 .428.225.7.526.7h.014c.343 0 .477-.447.623-.93.168-.562.386-1.163 1.037-1.163h.014c.687 0 1.087.567 1.087 1.29zM308.686 148.06c0-.496-.203-.847-.512-1.14l.3-.337c.407.363.68.805.68 1.492 0 .994-.763 1.807-1.89 1.807-1.05 0-1.892-.736-1.892-1.737 0-1.07.854-1.688 1.92-1.688.05 0 .104 0 .167.008v2.87c.784-.075 1.226-.636 1.226-1.274zm-1.625-1.056c-.657.057-1.232.434-1.232 1.156 0 .63.525 1.105 1.233 1.176v-2.332zM308.04 144.786c.442 0 .604-.245.604-.61 0-.182-.035-.336-.127-.524h.463c.098.188.154.392.154.65 0 .582-.288 1.023-1.023 1.023h-2.184v.505h-.477v-.505h-1.094v-.54h1.093v-1.148h.476v1.15h2.115z"/></g><g fill="#939598"><path d="M222.26 134.716v4.902h-.555v-4.902h.554zM224.8 139.688a2.494 2.494 0 0 1-1.5-.532l.274-.386c.392.294.827.463 1.254.463.434 0 .75-.225.75-.575v-.014c0-.364-.428-.504-.904-.638-.567-.16-1.198-.356-1.198-1.022v-.014c0-.623.52-1.036 1.233-1.036.44 0 .93.153 1.302.398l-.245.406c-.336-.217-.722-.35-1.072-.35-.427 0-.7.224-.7.525v.014c0 .343.448.477.932.623.56.168 1.163.386 1.163 1.037v.014c0 .69-.57 1.088-1.29 1.088zM227.137 139.618v-5.112h.54v5.112h-.54zM229.14 136.69l-.162-.44c.4-.183.792-.302 1.317-.302.987 0 1.54.504 1.54 1.457v2.213h-.517v-.546c-.252.33-.672.623-1.31.623-.673 0-1.352-.378-1.352-1.135 0-.77.63-1.177 1.548-1.177.462 0 .792.063 1.114.154v-.126c0-.65-.4-.986-1.08-.986-.426 0-.763.112-1.1.266zm.062 1.85c0 .462.42.728.91.728.666 0 1.212-.406 1.212-.98v-.35a3.775 3.775 0 0 0-1.064-.154c-.68 0-1.058.293-1.058.756zM233.52 139.618h-.538v-3.62h.54v.63c.237-.393.615-.708 1.24-.708.874 0 1.386.59 1.386 1.45v2.248h-.54v-2.115c0-.672-.364-1.093-1-1.093-.624 0-1.086.455-1.086 1.135v2.073zM240.2 139.618v-.73c-.294.436-.72.807-1.387.807-.868 0-1.73-.687-1.73-1.884 0-1.19.862-1.89 1.73-1.89.672 0 1.106.363 1.387.77v-2.185h.54v5.112h-.54zm-1.288-3.215c-.7 0-1.275.52-1.275 1.4 0 .862.588 1.408 1.275 1.408.672 0 1.31-.56 1.31-1.407 0-.84-.638-1.4-1.31-1.4z"/></g><g fill="#939598"><path d="M220.016 163.928h-.89l-2.423-3.052-1.34 1.36v1.69h-.712v-6.3h.712v3.762l3.62-3.763h.917l-2.702 2.755 2.818 3.548zM221.02 158.257v-.765h.793v.765h-.792zm.047 5.67v-4.653h.693v4.654h-.693zM224.307 162.605c0 .567.315.774.783.774.234 0 .432-.046.675-.163v.594a1.743 1.743 0 0 1-.837.2c-.747 0-1.314-.37-1.314-1.315v-2.81h-.648v-.61h.648v-1.405h.693v1.404h1.477v.612h-1.477v2.72zM228.97 164.037c-1.358 0-2.385-1.107-2.385-2.422 0-1.323 1.026-2.44 2.386-2.44.883 0 1.432.37 1.864.83l-.46.484c-.368-.388-.782-.703-1.413-.703-.944 0-1.665.802-1.665 1.81 0 1.018.738 1.82 1.71 1.82.594 0 1.053-.3 1.422-.694l.44.414c-.465.52-1.023.9-1.896.9zM232.705 163.928h-.693v-6.572h.693v2.73c.306-.506.792-.91 1.594-.91 1.124 0 1.78.756 1.78 1.863v2.89h-.692v-2.72c0-.864-.468-1.404-1.288-1.404-.8 0-1.396.585-1.396 1.458v2.664zM239.608 163.433c.64 0 1.09-.26 1.468-.657l.432.387c-.468.522-1.036.874-1.918.874-1.278 0-2.322-.98-2.322-2.43 0-1.352.945-2.433 2.232-2.433 1.377 0 2.17 1.1 2.17 2.467 0 .064 0 .137-.01.218h-3.69c.1 1.008.82 1.575 1.638 1.575zm1.36-2.09c-.073-.845-.56-1.583-1.486-1.583-.81 0-1.422.675-1.512 1.584h2.997zM243.577 163.928h-.693v-4.654h.693v.81c.306-.504.792-.91 1.594-.91 1.126 0 1.783.758 1.783 1.865v2.89h-.693v-2.72c0-.864-.468-1.404-1.288-1.404-.8 0-1.396.585-1.396 1.458v2.664z"/></g><g fill="#939598"><path d="M183.853 191.366h-1.702v-4.902h1.703c1.54 0 2.605 1.058 2.605 2.444s-1.065 2.458-2.605 2.458zm0-4.392h-1.15v3.88h1.15c1.24 0 2.03-.84 2.03-1.933s-.79-1.946-2.03-1.946zM190.343 186.45h.455l1.345 4.097 1.4-4.083h.582l-1.75 4.938h-.47l-1.345-3.98-1.352 3.98h-.462l-1.75-4.938h.602l1.4 4.083 1.345-4.098z"/></g><g fill="#939598"><path d="M254.668 189.2l-1.422-1.906h-1.4v1.905h-.554v-4.903h2.108c1.078 0 1.77.58 1.77 1.464 0 .82-.56 1.296-1.33 1.437l1.506 2.003h-.678zm-1.31-4.393h-1.513v1.99h1.506c.736 0 1.262-.38 1.262-1.017 0-.608-.463-.973-1.254-.973zM257.79 188.814c.496 0 .847-.203 1.14-.512l.337.3c-.364.407-.805.68-1.492.68-.995 0-1.807-.763-1.807-1.89 0-1.05.735-1.892 1.737-1.892 1.07 0 1.688.854 1.688 1.92 0 .05 0 .104-.007.167h-2.872c.077.786.637 1.227 1.275 1.227zm1.056-1.625c-.056-.66-.434-1.234-1.156-1.234-.63 0-1.106.525-1.177 1.233h2.333zM262.22 185.592v.463h-1.142v3.145h-.54v-3.145h-.497v-.47h.5v-.314c0-.79.398-1.21 1.092-1.21.252 0 .42.027.595.09v.47a1.77 1.77 0 0 0-.524-.092c-.42 0-.63.253-.63.77v.295h1.147z"/></g><g fill="#939598"><path d="M67.18 60.64c0 .83-.504 1.253-1 1.47.748.224 1.35.656 1.35 1.53 0 1.088-.908 1.728-2.286 1.728h-2.8v-6.302h2.683c1.243 0 2.053.612 2.053 1.575zm-.72.1c0-.63-.495-1.035-1.395-1.035h-1.918v2.17h1.864c.856 0 1.45-.387 1.45-1.134zm.352 2.854c0-.693-.576-1.09-1.675-1.09h-1.99v2.224h2.116c.954 0 1.55-.423 1.55-1.134zM70.878 64.873c.64 0 1.09-.26 1.468-.657l.432.387c-.468.522-1.036.874-1.918.874-1.278 0-2.322-.98-2.322-2.43 0-1.352.945-2.433 2.232-2.433 1.377 0 2.17 1.1 2.17 2.467 0 .064 0 .137-.01.218h-3.69c.1 1.007.82 1.575 1.638 1.575zm1.36-2.09c-.072-.845-.558-1.583-1.485-1.583-.81 0-1.422.675-1.512 1.584h2.998zM77.89 65.368v-.937c-.378.56-.927 1.036-1.782 1.036-1.117 0-2.224-.882-2.224-2.42 0-1.532 1.107-2.433 2.224-2.433.864 0 1.422.47 1.782.99v-2.81h.693v6.573h-.693zm-1.657-4.132c-.9 0-1.64.666-1.64 1.8 0 1.107.757 1.81 1.64 1.81.864 0 1.684-.72 1.684-1.81 0-1.08-.82-1.8-1.684-1.8zM80.823 65.368h-.693v-4.654h.693v1.215c.342-.774 1.018-1.333 1.9-1.297v.747h-.054c-1.018 0-1.847.73-1.847 2.134v1.854zM85.702 65.476c-1.396 0-2.413-1.1-2.413-2.422s1.025-2.44 2.43-2.44c1.396 0 2.42 1.1 2.42 2.422 0 1.324-1.034 2.44-2.438 2.44zm0-4.25c-1.008 0-1.702.802-1.702 1.81 0 1.01.738 1.82 1.72 1.82 1.008 0 1.71-.803 1.71-1.802 0-1.017-.747-1.828-1.728-1.828zM91.516 65.476c-1.396 0-2.413-1.1-2.413-2.422s1.026-2.44 2.43-2.44c1.397 0 2.422 1.1 2.422 2.422 0 1.324-1.035 2.44-2.44 2.44zm0-4.25c-1.008 0-1.702.802-1.702 1.81 0 1.01.738 1.82 1.72 1.82 1.008 0 1.71-.803 1.71-1.802 0-1.017-.747-1.828-1.728-1.828zM100.535 60.614c1.07 0 1.73.72 1.73 1.873v2.88h-.694V62.65c0-.9-.45-1.405-1.206-1.405-.702 0-1.287.52-1.287 1.44v2.683h-.685v-2.736c0-.874-.46-1.387-1.197-1.387s-1.296.612-1.296 1.467v2.656h-.694v-4.654h.693v.783c.305-.46.72-.883 1.502-.883.756 0 1.243.405 1.495.928.332-.513.827-.928 1.638-.928z"/></g><g fill="#939598"><path d="M58.935 70.02h.522v6.348h-.702V70.76l-1.188.37-.17-.577 1.538-.532zM63.2 76.458c-1.34 0-2.367-.73-2.367-1.79 0-.758.54-1.29 1.296-1.56-.586-.27-1.082-.72-1.082-1.458 0-.98 1-1.674 2.152-1.674s2.15.693 2.15 1.674c0 .738-.494 1.188-1.08 1.46.748.278 1.297.79 1.297 1.547.002 1.08-1.025 1.8-2.366 1.8zm0-3.016c-.917 0-1.646.495-1.646 1.206 0 .648.612 1.188 1.647 1.188s1.648-.54 1.648-1.188c0-.71-.73-1.206-1.647-1.206zm0-2.845c-.818 0-1.44.46-1.44 1.098 0 .693.64 1.162 1.44 1.162s1.44-.47 1.44-1.162c.002-.63-.62-1.098-1.44-1.098zM66.89 70.066h.847v.045l-.73 2.404h-.387l.27-2.448zM72.813 70.02v4.26h.98v.594h-.98v1.494h-.684v-1.494h-3.323l-.18-.514 3.565-4.34h.62zm-.684 1.01l-2.648 3.25h2.647v-3.25zM75.135 70.066h.837v.045l-.73 2.404h-.377l.27-2.448zm1.764 0h.828v.045l-.73 2.404h-.378l.28-2.448zM85.755 76.368h-.8l-1.44-1.9-1.45 1.9h-.775L83.118 74l-1.755-2.286h.792l1.377 1.8 1.377-1.8h.773l-1.765 2.27 1.837 2.384zM90.596 70.02h.522v6.348h-.702V70.76l-1.188.37-.17-.577 1.538-.532zM95.24 76.476c-1.628 0-2.655-1.477-2.655-3.25s1.044-3.27 2.674-3.27c1.62 0 2.646 1.478 2.646 3.25s-1.045 3.27-2.665 3.27zm0-5.87c-1.178 0-1.916 1.206-1.916 2.602s.756 2.62 1.936 2.62 1.91-1.216 1.91-2.602c-.003-1.386-.75-2.62-1.93-2.62zM99.317 70.066h.846v.045l-.73 2.404h-.386l.27-2.448zM103.502 76.458c-1.34 0-2.368-.73-2.368-1.79 0-.758.54-1.29 1.296-1.56-.585-.27-1.08-.72-1.08-1.458 0-.98 1-1.674 2.15-1.674s2.152.693 2.152 1.674c0 .738-.495 1.188-1.08 1.46.747.278 1.296.79 1.296 1.547.002 1.08-1.024 1.8-2.366 1.8zm0-3.016c-.918 0-1.647.495-1.647 1.206 0 .648.612 1.188 1.647 1.188 1.035 0 1.647-.54 1.647-1.188 0-.71-.73-1.206-1.648-1.206zm0-2.845c-.82 0-1.44.46-1.44 1.098 0 .693.64 1.162 1.44 1.162s1.44-.47 1.44-1.162c0-.63-.62-1.098-1.44-1.098zM107.192 70.066h.837v.045l-.73 2.404h-.378l.27-2.448zm1.764 0h.83v.045l-.73 2.404h-.378l.278-2.448z"/></g><g fill="#939598"><path d="M234.672 71.397h.71v5.645h3.548v.657h-4.258v-6.303zM240.145 72.027v-.765h.792v.765h-.792zm.044 5.672v-4.655h.692V77.7h-.693zM245.94 73.045h.748l-2.025 4.69h-.612l-2.016-4.69h.766l1.566 3.862 1.575-3.862zM247.794 72.027v-.765h.792v.765h-.792zm.045 5.672v-4.655h.692V77.7h-.693zM250.836 77.7h-.693v-4.655h.693v.81c.306-.504.792-.91 1.594-.91 1.125 0 1.782.758 1.782 1.865v2.89h-.693v-2.72c0-.864-.47-1.404-1.29-1.404-.8 0-1.395.585-1.395 1.458V77.7zM257.75 79.157a3.657 3.657 0 0 1-2.117-.647l.315-.54c.53.387 1.125.594 1.792.594 1.026 0 1.693-.567 1.693-1.656v-.55c-.405.54-.973.98-1.828.98-1.116 0-2.188-.827-2.188-2.187 0-1.367 1.08-2.205 2.188-2.205.873 0 1.44.433 1.818.937v-.837h.693v3.844c0 1.502-.936 2.267-2.367 2.267zm-.01-5.6c-.883 0-1.612.604-1.612 1.576 0 .954.747 1.593 1.61 1.593.883 0 1.712-.63 1.712-1.584 0-.964-.828-1.585-1.71-1.585zM265.517 70.514l-4.178 8.337h-.64l4.177-8.336h.64zM268.54 77.7h-2.188v-6.303h2.188c1.98 0 3.348 1.36 3.348 3.142 0 1.782-1.367 3.16-3.348 3.16zm0-5.646h-1.477v4.987h1.477c1.593 0 2.61-1.08 2.61-2.483s-1.017-2.503-2.61-2.503zM273.29 72.027v-.765h.793v.765h-.792zm.046 5.672v-4.655h.692V77.7h-.692zM276.333 77.7h-.693v-4.655h.693v.81c.306-.504.792-.91 1.594-.91 1.125 0 1.78.758 1.78 1.865v2.89h-.69v-2.72c0-.864-.47-1.404-1.29-1.404-.8 0-1.394.585-1.394 1.458V77.7zM281.2 72.027v-.765h.793v.765h-.792zm.047 5.672v-4.655h.692V77.7h-.693zM284.243 77.7h-.692v-4.655h.693v.81c.307-.504.793-.91 1.594-.91 1.125 0 1.783.758 1.783 1.865v2.89h-.693v-2.72c0-.864-.47-1.404-1.287-1.404-.802 0-1.396.585-1.396 1.458V77.7zM291.156 79.157a3.657 3.657 0 0 1-2.116-.647l.315-.54c.53.387 1.126.594 1.792.594 1.025 0 1.692-.567 1.692-1.656v-.55c-.406.54-.974.98-1.828.98-1.117 0-2.188-.827-2.188-2.187 0-1.367 1.08-2.205 2.188-2.205.873 0 1.44.433 1.818.937v-.837h.693v3.844c0 1.502-.936 2.267-2.367 2.267zm-.01-5.6c-.882 0-1.61.604-1.61 1.576 0 .954.746 1.593 1.61 1.593.883 0 1.71-.63 1.71-1.584 0-.964-.827-1.585-1.71-1.585zM302.227 77.7l-1.827-2.45h-1.8v2.45h-.712v-6.303h2.71c1.386 0 2.277.747 2.277 1.882 0 1.052-.72 1.664-1.71 1.844L303.1 77.7h-.873zm-1.684-5.646H298.6v2.557h1.935c.945 0 1.62-.485 1.62-1.305 0-.783-.594-1.25-1.612-1.25zM306.312 77.807c-1.395 0-2.412-1.1-2.412-2.422s1.026-2.44 2.43-2.44c1.397 0 2.422 1.1 2.422 2.422 0 1.324-1.036 2.44-2.44 2.44zm0-4.25c-1.008 0-1.7.802-1.7 1.81 0 1.01.737 1.82 1.72 1.82 1.008 0 1.71-.803 1.71-1.802-.002-1.017-.748-1.828-1.73-1.828zM312.126 77.807c-1.396 0-2.412-1.1-2.412-2.422s1.025-2.44 2.43-2.44c1.396 0 2.422 1.1 2.422 2.422 0 1.324-1.036 2.44-2.44 2.44zm0-4.25c-1.008 0-1.7.802-1.7 1.81 0 1.01.737 1.82 1.718 1.82 1.01 0 1.71-.803 1.71-1.802 0-1.017-.747-1.828-1.728-1.828zM321.146 72.945c1.07 0 1.73.72 1.73 1.873v2.88h-.694V74.98c0-.9-.45-1.404-1.207-1.404-.702 0-1.287.52-1.287 1.44V77.7h-.685v-2.737c0-.874-.46-1.387-1.197-1.387s-1.296.612-1.296 1.467V77.7h-.693v-4.655h.693v.783c.306-.46.72-.883 1.503-.883.757 0 1.243.405 1.495.928.33-.513.827-.928 1.638-.928z"/></g><g fill="#939598"><path d="M252.483 84.026l-.522-.378c.568-.846 1.162-1.34 2.27-1.34 1.143 0 1.954.755 1.954 1.79 0 .928-.486 1.495-1.594 2.458l-1.683 1.494h3.34v.648h-4.402v-.548l2.287-2.017c.963-.864 1.314-1.35 1.314-1.98 0-.738-.585-1.207-1.27-1.207-.72 0-1.188.378-1.693 1.08zM257.586 83.036v-.64h4.024v.523l-1.98 2.195c1.107.09 2.08.62 2.08 1.782 0 1.135-.937 1.91-2.107 1.91-1.053 0-1.836-.46-2.35-1.127l.513-.46c.486.596 1.07.938 1.846.938.765 0 1.377-.486 1.377-1.233 0-.792-.72-1.225-1.765-1.225h-.405l-.144-.423 1.99-2.242h-3.08zM263.175 82.397h.847v.045l-.73 2.403h-.386l.27-2.448zM269.144 83.558c-.47-.396-.91-.62-1.486-.62-1.143 0-1.854 1.15-1.845 2.78.342-.504.873-.963 1.792-.963 1.18 0 2.178.757 2.178 1.944 0 1.224-.98 2.106-2.26 2.106-.693 0-1.26-.243-1.656-.64-.504-.504-.792-1.152-.792-2.448 0-1.927.972-3.43 2.62-3.43.756 0 1.314.27 1.863.72l-.414.55zm-1.63 1.81c-.945 0-1.575.675-1.575 1.387 0 .82.665 1.422 1.593 1.422.927 0 1.52-.64 1.52-1.45 0-.783-.63-1.36-1.54-1.36zM271.203 82.397h.837v.045l-.73 2.403h-.378l.27-2.448zm1.765 0h.828v.045l-.73 2.403h-.377l.278-2.448zM281.824 88.7h-.802l-1.44-1.9-1.448 1.9h-.775l1.827-2.37-1.756-2.285h.794l1.377 1.8 1.378-1.8h.775l-1.766 2.27 1.837 2.384zM286.665 82.352h.52V88.7h-.7v-5.61l-1.188.37-.17-.576 1.538-.532zM291.31 88.807c-1.63 0-2.656-1.477-2.656-3.25s1.045-3.27 2.674-3.27c1.62 0 2.646 1.478 2.646 3.25s-1.044 3.27-2.664 3.27zm0-5.87c-1.18 0-1.918 1.206-1.918 2.602s.756 2.62 1.936 2.62 1.908-1.217 1.908-2.603c0-1.386-.748-2.62-1.926-2.62zM295.386 82.397h.846v.045l-.73 2.403h-.387l.27-2.448zM297.348 82.397h4.276v.53L298.76 88.7h-.79l2.844-5.654h-3.466v-.65zM302.954 82.397h.838v.045l-.73 2.403h-.377l.27-2.448zm1.765 0h.828v.045l-.73 2.403h-.377l.28-2.448z"/></g><g fill="#939598"><path d="M439.18 60.64c0 .83-.505 1.253-1 1.47.747.224 1.35.656 1.35 1.53 0 1.088-.91 1.728-2.286 1.728h-2.8v-6.302h2.683c1.24 0 2.052.612 2.052 1.575zm-.722.1c0-.63-.495-1.035-1.395-1.035h-1.918v2.17h1.863c.856 0 1.45-.387 1.45-1.134zm.352 2.854c0-.693-.576-1.09-1.675-1.09h-1.99v2.224h2.116c.956 0 1.55-.423 1.55-1.134zM442.876 64.873c.64 0 1.09-.26 1.47-.657l.43.387c-.468.522-1.034.874-1.917.874-1.28 0-2.323-.98-2.323-2.43 0-1.352.945-2.433 2.232-2.433 1.376 0 2.17 1.1 2.17 2.467 0 .064 0 .137-.01.218h-3.69c.097 1.007.818 1.575 1.636 1.575zm1.36-2.09c-.072-.845-.56-1.583-1.485-1.583-.81 0-1.422.675-1.512 1.584h2.997zM449.888 65.368v-.937c-.378.56-.928 1.036-1.782 1.036-1.116 0-2.224-.882-2.224-2.42 0-1.532 1.107-2.433 2.224-2.433.864 0 1.423.47 1.782.99v-2.81h.693v6.573h-.692zm-1.657-4.132c-.9 0-1.638.666-1.638 1.8 0 1.107.756 1.81 1.64 1.81.863 0 1.683-.72 1.683-1.81 0-1.08-.82-1.8-1.684-1.8zM452.82 65.368h-.692v-4.654h.693v1.215c.343-.774 1.02-1.333 1.9-1.297v.747h-.054c-1.018 0-1.846.73-1.846 2.134v1.854zM457.7 65.476c-1.396 0-2.413-1.1-2.413-2.422s1.026-2.44 2.43-2.44c1.397 0 2.423 1.1 2.423 2.422a2.42 2.42 0 0 1-2.44 2.44zm0-4.25c-1.01 0-1.702.802-1.702 1.81 0 1.01.738 1.82 1.72 1.82 1.008 0 1.71-.803 1.71-1.802 0-1.017-.747-1.828-1.728-1.828zM463.514 65.476c-1.396 0-2.413-1.1-2.413-2.422s1.027-2.44 2.433-2.44c1.395 0 2.42 1.1 2.42 2.422 0 1.324-1.035 2.44-2.44 2.44zm0-4.25c-1.01 0-1.702.802-1.702 1.81 0 1.01.738 1.82 1.72 1.82 1.01 0 1.71-.803 1.71-1.802 0-1.017-.747-1.828-1.728-1.828zM472.532 60.614c1.072 0 1.73.72 1.73 1.873v2.88h-.694V62.65c0-.9-.45-1.405-1.206-1.405-.702 0-1.287.52-1.287 1.44v2.683h-.685v-2.736c0-.874-.46-1.387-1.197-1.387s-1.297.612-1.297 1.467v2.656h-.692v-4.654h.692v.783c.307-.46.72-.883 1.504-.883.756 0 1.242.405 1.494.928.334-.513.828-.928 1.638-.928z"/></g><g fill="#939598"><path d="M433.07 70.02h.522v6.348h-.7V70.76l-1.19.37-.17-.577 1.54-.532zM439.075 70.02v4.26h.98v.594h-.98v1.494h-.685v-1.494h-3.32l-.182-.514 3.565-4.34h.622zm-.684 1.01l-2.646 3.25h2.647v-3.25zM441.396 70.066h.847v.045l-.73 2.404h-.386l.27-2.448zM443.817 71.695l-.522-.378c.567-.846 1.16-1.34 2.27-1.34 1.142 0 1.952.755 1.952 1.79 0 .928-.486 1.495-1.594 2.458l-1.683 1.494h3.34v.647h-4.402v-.55l2.286-2.016c.964-.863 1.314-1.35 1.314-1.98 0-.737-.584-1.206-1.27-1.206-.72 0-1.187.38-1.69 1.08zM448.992 70.066h.837v.045l-.73 2.404h-.38l.272-2.448zm1.765 0h.828v.045l-.73 2.404h-.377l.28-2.448zM459.612 76.368h-.8l-1.44-1.9-1.45 1.9h-.774L456.976 74l-1.756-2.286h.792l1.378 1.8 1.377-1.8h.774l-1.764 2.27 1.836 2.384zM465.317 76.476c-.818 0-1.413-.333-1.943-.774l.414-.55c.513.45.99.676 1.548.676 1.134 0 1.9-1.152 1.872-2.764-.342.55-.908 1.008-1.782 1.008-1.296 0-2.196-.82-2.196-1.962 0-1.207.928-2.152 2.27-2.152.72 0 1.25.243 1.655.648.495.495.783 1.18.783 2.45 0 2.006-1.062 3.42-2.62 3.42zm.155-5.887c-.945 0-1.514.69-1.514 1.484 0 .81.63 1.386 1.55 1.386.962 0 1.565-.702 1.565-1.43 0-.81-.657-1.44-1.6-1.44zM469.34 70.066h.847v.045l-.73 2.404h-.387l.27-2.448zM471.76 70.066h3.63v.657h-3.008l-.135 2.017c.37-.162.72-.28 1.242-.28 1.224 0 2.18.73 2.18 1.937 0 1.242-.94 2.08-2.252 2.08-.9 0-1.684-.433-2.25-1l.468-.513c.55.53 1.152.864 1.79.864.9 0 1.522-.595 1.522-1.404 0-.792-.64-1.333-1.566-1.333-.53 0-.955.163-1.324.36l-.477-.314.18-3.07zM477.054 70.066h.836v.045l-.73 2.404h-.378l.272-2.448zm1.763 0h.828v.045l-.73 2.404h-.378l.28-2.448z"/></g><g fill="#939598"><path d="M237.53 199.695v1.105h1.606v.514h-4.55v-1.703c0-1.026.546-1.702 1.45-1.702.988 0 1.495.82 1.495 1.787zm-2.468-.045v1.15h2.002v-1.125c0-.754-.403-1.248-1.008-1.248-.657 0-.994.49-.994 1.223zM236.42 196.927l-.41.148c-.17-.37-.28-.734-.28-1.222 0-.917.47-1.43 1.354-1.43h2.054v.48h-.507c.307.234.58.624.58 1.216 0 .623-.352 1.253-1.054 1.253-.715 0-1.092-.584-1.092-1.436 0-.43.06-.734.143-1.033h-.117c-.604 0-.916.37-.916 1 0 .398.102.71.246 1.023zm1.716-.058c.43 0 .676-.392.676-.847 0-.617-.377-1.125-.91-1.125h-.325c-.07.248-.143.58-.143.988 0 .63.273.983.702.983zM239.137 192.857v.5h-3.36v-.5h.585c-.364-.22-.656-.57-.656-1.15 0-.812.546-1.287 1.345-1.287h2.088v.5h-1.963c-.624 0-1.015.34-1.015.93 0 .58.423 1.008 1.054 1.008h1.923zM238.182 188.678c.41 0 .56-.228.56-.565 0-.17-.033-.312-.118-.488h.43c.09.176.143.364.143.605 0 .54-.267.95-.95.95h-2.027v.466h-.44v-.467h-1.016v-.502h1.015v-1.066h.44v1.066h1.962z"/></g><path fill="#939598" d="M239.137 186.943v.5h-3.36v-.5h.877c-.56-.247-.962-.734-.936-1.37h.54v.038c0 .735.525 1.333 1.54 1.333h1.34zM239.247 183.224c.695.286.95.61.95 1.118 0 .28-.06.487-.17.715l-.396-.17c.085-.16.124-.31.124-.525 0-.3-.155-.487-.63-.688l-3.348 1.527v-.552l2.802-1.223-2.802-1.078v-.533l3.47 1.41z"/></g></svg>